<svg width="25" height="25" viewBox="0 0 25 25" fill="none" xmlns="http://www.w3.org/2000/svg">
<g id="Link">
<path id="Shape" d="M17 9C19.2091 9 21 10.7909 21 13C21 15.1422 19.316 16.8911 17.1996 16.9951L17 17H15C14.5858 17 14.25 16.6642 14.25 16.25C14.25 15.8703 14.5322 15.5565 14.8982 15.5068L15 15.5H17C18.3807 15.5 19.5 14.3807 19.5 13C19.5 11.6745 18.4685 10.59 17.1644 10.5053L17 10.5H15C14.5858 10.5 14.25 10.1642 14.25 9.75C14.25 9.3703 14.5322 9.05651 14.8982 9.00685L15 9H17ZM11 9C11.4142 9 11.75 9.33579 11.75 9.75C11.75 10.1297 11.4678 10.4435 11.1018 10.4932L11 10.5H9C7.61929 10.5 6.5 11.6193 6.5 13C6.5 14.3255 7.53154 15.41 8.83562 15.4947L9 15.5H11C11.4142 15.5 11.75 15.8358 11.75 16.25C11.75 16.6297 11.4678 16.9435 11.1018 16.9932L11 17H9C6.79086 17 5 15.2091 5 13C5 10.8578 6.68397 9.10892 8.80036 9.0049L9 9H11ZM9.25 12.25H16.75C17.1642 12.25 17.5 12.5858 17.5 13C17.5 13.3797 17.2178 13.6935 16.8518 13.7432L16.75 13.75H9.25C8.83579 13.75 8.5 13.4142 8.5 13C8.5 12.6203 8.78215 12.3065 9.14823 12.2568L9.25 12.25H16.75H9.25Z" fill="#505050"/>
</g>
</svg>
