<svg width="30" height="30" viewBox="0 0 30 30" fill="none" xmlns="http://www.w3.org/2000/svg">
<g id="Image">
<path id="Shape" d="M4 7.75C4 5.67893 5.67893 4 7.75 4H22.25C24.3211 4 26 5.67893 26 7.75V22.25C26 24.3211 24.3211 26 22.25 26H7.75C5.67893 26 4 24.3211 4 22.25V7.75ZM7.75 5.5C6.50736 5.5 5.5 6.50736 5.5 7.75V22.25C5.5 22.611 5.58501 22.9521 5.73612 23.2545L13.6019 15.5674C14.3791 14.8079 15.6205 14.8079 16.3977 15.5674L24.2638 23.2547C24.4149 22.9523 24.5 22.6111 24.5 22.25V7.75C24.5 6.50736 23.4926 5.5 22.25 5.5H7.75ZM23.1845 24.2974L15.3493 16.6402C15.155 16.4503 14.8446 16.4503 14.6503 16.6402L6.81524 24.2972C7.09993 24.4274 7.41649 24.5 7.75 24.5H22.25C22.5834 24.5 22.8999 24.4275 23.1845 24.2974ZM19.5 12C18.9477 12 18.5 11.5523 18.5 11C18.5 10.4477 18.9477 10 19.5 10C20.0523 10 20.5 10.4477 20.5 11C20.5 11.5523 20.0523 12 19.5 12ZM19.5 13.5C20.8807 13.5 22 12.3807 22 11C22 9.61929 20.8807 8.5 19.5 8.5C18.1193 8.5 17 9.61929 17 11C17 12.3807 18.1193 13.5 19.5 13.5Z" fill="#7AA64E"/>
</g>
</svg>
