<svg width="49" height="48" viewBox="0 0 49 48" fill="none" xmlns="http://www.w3.org/2000/svg">
<g id="clarity:world-solid">
<path id="Vector" d="M13.9 24C13.908 26.2165 14.1856 28.4239 14.7267 30.5733H23.3667V17.9333H14.6067C14.1463 19.923 13.9093 21.9578 13.9 24Z" fill="#FAF8F8"/>
<path id="Vector_2" d="M25.6333 17.9333V30.5733H34.2733C34.8368 28.4266 35.1368 26.2193 35.1666 24C35.1617 21.9583 34.9292 19.9235 34.4733 17.9333H25.6333Z" fill="#FAF8F8"/>
<path id="Vector_3" d="M24.5 2.66675C20.2807 2.66675 16.1561 3.91793 12.6479 6.26206C9.13962 8.6062 6.40527 11.938 4.7906 15.8362C3.17593 19.7343 2.75346 24.0237 3.57661 28.162C4.39976 32.3003 6.43157 36.1015 9.41509 39.085C12.3986 42.0686 16.1998 44.1004 20.3381 44.9235C24.4764 45.7467 28.7658 45.3242 32.6639 43.7095C36.5621 42.0948 39.8939 39.3605 42.2381 35.8522C44.5822 32.344 45.8334 28.2194 45.8334 24.0001C45.8334 18.3421 43.5858 12.9159 39.585 8.91514C35.5842 4.91436 30.158 2.66675 24.5 2.66675ZM40.7934 32.9467H35.9667C35.0541 35.8038 33.7048 38.5024 31.9667 40.9467C30.6835 41.5042 29.3418 41.9157 27.9667 42.1734C30.4303 39.497 32.3262 36.3493 33.54 32.9201H25.6467V42.4534H23.3934V32.9467H15.46C16.6722 36.3807 18.5682 39.5331 21.0334 42.2134C19.6866 41.9585 18.372 41.5561 17.1134 41.0134C15.3691 38.5486 14.0196 35.8271 13.1134 32.9467H8.2067C7.78099 32.1696 7.41117 31.3631 7.10003 30.5334H12.4334C11.9336 28.3911 11.6742 26.1998 11.66 24.0001C11.6619 21.9611 11.8764 19.9279 12.3 17.9334H6.8467C7.12759 17.1063 7.4662 16.2998 7.86003 15.5201H12.94C13.8942 12.3458 15.3723 9.35347 17.3134 6.66675C18.5453 6.15787 19.8281 5.78239 21.14 5.54675C18.4866 8.39271 16.4846 11.7823 15.2734 15.4801H23.3934V5.33341H25.6467V15.5201H33.7667C32.5576 11.8283 30.5604 8.44343 27.9134 5.60008C29.2232 5.81851 30.506 6.17609 31.74 6.66675C33.6698 9.33406 35.1432 12.3033 36.1 15.4534H41.1267C41.5205 16.2332 41.8591 17.0396 42.14 17.8667H36.7267C37.1594 19.8826 37.3784 21.9384 37.38 24.0001C37.3732 26.2127 37.1183 28.4176 36.62 30.5734H41.9534C41.6232 31.3909 41.2356 32.184 40.7934 32.9467Z" fill="#FAF8F8"/>
</g>
</svg>
