<svg width="49" height="48" viewBox="0 0 49 48" fill="none" xmlns="http://www.w3.org/2000/svg">
<g id="ri:community-line">
<path id="Vector" d="M42.5 42H6.5C5.96957 42 5.46086 41.7893 5.08579 41.4142C4.71071 41.0391 4.5 40.5304 4.5 40V24.974C4.49997 24.6882 4.56118 24.4058 4.67952 24.1456C4.79785 23.8855 4.97055 23.6538 5.186 23.466L12.5 17.088V8C12.5 7.46957 12.7107 6.96086 13.0858 6.58579C13.4609 6.21071 13.9696 6 14.5 6H42.5C43.0304 6 43.5391 6.21071 43.9142 6.58579C44.2893 6.96086 44.5 7.46957 44.5 8V40C44.5 40.5304 44.2893 41.0391 43.9142 41.4142C43.5391 41.7893 43.0304 42 42.5 42ZM18.5 38H24.5V25.884L16.5 18.908L8.5 25.884V38H14.5V30H18.5V38ZM28.5 38H40.5V10H16.5V14.254C16.968 14.254 17.438 14.418 17.814 14.748L27.814 23.466C28.0294 23.6538 28.2022 23.8855 28.3205 24.1456C28.4388 24.4058 28.5 24.6882 28.5 24.974V38ZM32.5 22H36.5V26H32.5V22ZM32.5 30H36.5V34H32.5V30ZM32.5 14H36.5V18H32.5V14ZM24.5 14H28.5V18H24.5V14Z" fill="#FAF8F8"/>
</g>
</svg>
