<svg width="48" height="48" viewBox="0 0 48 48" fill="none" xmlns="http://www.w3.org/2000/svg">
<g id="fa6-solid:users-line">
<path id="Vector" d="M15.84 9C15.84 7.4087 15.3343 5.88258 14.4341 4.75736C13.5339 3.63214 12.313 3 11.04 3C9.76696 3 8.54606 3.63214 7.64589 4.75736C6.74571 5.88258 6.24 7.4087 6.24 9C6.24 10.5913 6.74571 12.1174 7.64589 13.2426C8.54606 14.3679 9.76696 15 11.04 15C12.313 15 13.5339 14.3679 14.4341 13.2426C15.3343 12.1174 15.84 10.5913 15.84 9ZM2.4 24C2.4 25.6594 3.4725 27 4.8 27H11.22C11.9775 23.3062 14.115 20.2969 16.905 18.8812C16.1775 18.3187 15.315 18 14.4 18H7.2C4.5525 18 2.4 20.6906 2.4 24ZM37.02 27H43.2C44.5275 27 45.6 25.6594 45.6 24C45.6 20.6906 43.4475 18 40.8 18H33.6C32.7225 18 31.8975 18.2906 31.1925 18.8063C34.05 20.1938 36.2475 23.2406 37.02 27ZM29.34 21.225C28.8225 21.075 28.275 21 27.72 21H20.52C19.8825 21 19.2675 21.1031 18.6825 21.2906C16.3725 22.05 14.5125 24.2063 13.725 27C13.4625 27.9375 13.3125 28.95 13.3125 30C13.3125 31.6594 14.385 33 15.7125 33H32.5125C33.84 33 34.9125 31.6594 34.9125 30C34.9125 28.95 34.77 27.9375 34.5 27C33.69 24.1219 31.74 21.9187 29.3325 21.225H29.34ZM42.24 9C42.24 7.4087 41.7343 5.88258 40.8341 4.75736C39.9339 3.63214 38.713 3 37.44 3C36.167 3 34.9461 3.63214 34.0459 4.75736C33.1457 5.88258 32.64 7.4087 32.64 9C32.64 10.5913 33.1457 12.1174 34.0459 13.2426C34.9461 14.3679 36.167 15 37.44 15C38.713 15 39.9339 14.3679 40.8341 13.2426C41.7343 12.1174 42.24 10.5913 42.24 9ZM24.12 18C25.7113 18 27.2374 17.2098 28.3626 15.8033C29.4879 14.3968 30.12 12.4891 30.12 10.5C30.12 8.51088 29.4879 6.60322 28.3626 5.1967C27.2374 3.79018 25.7113 3 24.12 3C22.5287 3 21.0026 3.79018 19.8774 5.1967C18.7521 6.60322 18.12 8.51088 18.12 10.5C18.12 12.4891 18.7521 14.3968 19.8774 15.8033C21.0026 17.2098 22.5287 18 24.12 18ZM2.4 39C1.0725 39 0 40.3406 0 42C0 43.6594 1.0725 45 2.4 45H45.6C46.9275 45 48 43.6594 48 42C48 40.3406 46.9275 39 45.6 39H2.4Z" fill="#FAF8F8"/>
</g>
</svg>
