<svg width="30" height="30" viewBox="0 0 30 30" fill="none" xmlns="http://www.w3.org/2000/svg">
<g id="material-symbols-light:chat-outline">
<path id="Vector" d="M8.125 16.875H16.875V15.625H8.125V16.875ZM8.125 13.125H21.875V11.875H8.125V13.125ZM8.125 9.375H21.875V8.125H8.125V9.375ZM3.75 25.0962V5.76875C3.75 5.19375 3.94292 4.71375 4.32875 4.32875C4.71375 3.94292 5.19375 3.75 5.76875 3.75H24.2313C24.8063 3.75 25.2863 3.94292 25.6713 4.32875C26.0571 4.71375 26.25 5.19375 26.25 5.76875V19.2313C26.25 19.8063 26.0575 20.2867 25.6725 20.6725C25.2867 21.0575 24.8063 21.25 24.2313 21.25H7.59625L3.75 25.0962ZM7.0625 20H24.2313C24.4229 20 24.5992 19.92 24.76 19.76C24.92 19.5992 25 19.4229 25 19.2313V5.76875C25 5.57708 24.92 5.40083 24.76 5.24C24.5992 5.08 24.4229 5 24.2313 5H5.76875C5.57708 5 5.40083 5.08 5.24 5.24C5.08 5.40083 5 5.57708 5 5.76875V22.0563L7.0625 20Z" fill="#505050"/>
</g>
</svg>
