<svg width="26" height="27" viewBox="0 0 26 27" fill="none" xmlns="http://www.w3.org/2000/svg">
<g id="Edit">
<path id="Shape" d="M20.1813 6.92689C19.0291 5.71505 17.1047 5.69077 15.9222 6.87317L6.54741 16.2475C6.21958 16.5754 5.99204 16.9899 5.89148 17.4424L5.01387 21.3923C4.97678 21.5592 5.02754 21.7335 5.14844 21.8544C5.26934 21.9753 5.44362 22.026 5.6105 21.9889L9.53689 21.1157C10.0043 21.0118 10.4324 20.7767 10.771 20.4381L20.129 11.08C21.27 9.939 21.2933 8.09631 20.1813 6.92689ZM16.6293 7.58029C17.4143 6.79538 18.6917 6.8115 19.4566 7.61596C20.1948 8.39225 20.1793 9.61548 19.4219 10.3729L18.7507 11.0442L15.958 8.25155L16.6293 7.58029ZM15.2509 8.95864L18.0436 11.7513L10.0639 19.731C9.85976 19.9352 9.60164 20.0769 9.31982 20.1396L6.1605 20.8421L6.86768 17.6593C6.92698 17.3924 7.06117 17.148 7.2545 16.9547L15.2509 8.95864Z" fill="white"/>
</g>
</svg>
