<svg width="20" height="21" viewBox="0 0 20 21" fill="none" xmlns="http://www.w3.org/2000/svg">
<g id="Icon Right">
<path id="Shape" d="M6 3.5C4.34315 3.5 3 4.84315 3 6.5V14.5C3 15.1495 3.20642 15.7509 3.55724 16.2419L8.94759 10.9345C9.53144 10.3596 10.4686 10.3596 11.0524 10.9345L16.4428 16.2419C16.7936 15.7509 17 15.1495 17 14.5V6.5C17 4.84315 15.6569 3.5 14 3.5H6ZM6 17.5C5.35372 17.5 4.75517 17.2956 4.26544 16.948L9.6492 11.6471C9.84381 11.4555 10.1562 11.4555 10.3508 11.6471L15.7346 16.948C15.2448 17.2956 14.6463 17.5 14 17.5H6ZM12.5 9.25C11.8096 9.25 11.25 8.69036 11.25 8C11.25 7.30964 11.8096 6.75 12.5 6.75C13.1904 6.75 13.75 7.30964 13.75 8C13.75 8.69036 13.1904 9.25 12.5 9.25Z" fill="#505050"/>
</g>
</svg>
