<svg width="30" height="30" viewBox="0 0 30 30" fill="none" xmlns="http://www.w3.org/2000/svg">
<g id="Share">
<path id="Shape" d="M9.74658 7H13.2108C13.625 7 13.9608 7.33579 13.9608 7.75C13.9608 8.12969 13.6786 8.44349 13.3126 8.49315L13.2108 8.5H9.74658C8.55572 8.5 7.58094 9.42516 7.50177 10.5959L7.49658 10.75V20.25C7.49658 21.4409 8.42174 22.4156 9.59253 22.4948L9.74658 22.5H19.2473C20.4382 22.5 21.413 21.5748 21.4921 20.404L21.4973 20.25V19.7522C21.4973 19.338 21.8331 19.0022 22.2473 19.0022C22.627 19.0022 22.9408 19.2844 22.9905 19.6504L22.9973 19.7522V20.25C22.9973 22.2543 21.425 23.8913 19.4465 23.9948L19.2473 24H9.74658C7.74232 24 6.10531 22.4276 6.00178 20.4492L5.99658 20.25V10.75C5.99658 8.74574 7.56894 7.10873 9.54742 7.0052L9.74658 7H13.2108H9.74658ZM17.5006 9.54431V6.75C17.5006 6.12603 18.2074 5.78995 18.6876 6.1398L18.7697 6.20874L24.7643 11.9587C25.0441 12.2271 25.0696 12.6581 24.8407 12.9561L24.7644 13.0412L18.7698 18.793C18.3196 19.2251 17.5877 18.9477 17.5077 18.3589L17.5006 18.2519V15.45L17.1798 15.4438C14.5223 15.4359 12.2507 16.5269 10.3149 18.745C9.81934 19.3129 8.88968 18.8769 9.0094 18.1327C9.83639 12.9923 12.6085 10.0883 17.1986 9.57443L17.5006 9.54431V6.75V9.54431Z" fill="#505050"/>
</g>
</svg>
