<svg width="30" height="30" viewBox="0 0 30 30" fill="none" xmlns="http://www.w3.org/2000/svg">
<g id="material-symbols-light:workspace-premium">
<path id="Vector" d="M12.4063 16.5963L13.38 13.3712L10.8175 11.49H14.0188L15 8.23125L15.9812 11.49H19.1825L16.6125 13.37L17.5875 16.595L15 14.595L12.4063 16.5963ZM8.75 26.8275V18.59C7.95833 17.8108 7.34375 16.8983 6.90625 15.8525C6.46875 14.8092 6.25 13.6917 6.25 12.5C6.25 10.0608 7.09875 7.99292 8.79625 6.29625C10.4929 4.59875 12.5608 3.75 15 3.75C17.4392 3.75 19.5071 4.59875 21.2037 6.29625C22.9012 7.99292 23.75 10.0608 23.75 12.5C23.75 13.6908 23.5313 14.8087 23.0938 15.8537C22.6563 16.8987 22.0417 17.81 21.25 18.5875V26.825L15 24.95L8.75 26.825V26.8275ZM15 20C17.0833 20 18.8542 19.2708 20.3125 17.8125C21.7708 16.3542 22.5 14.5833 22.5 12.5C22.5 10.4167 21.7708 8.64583 20.3125 7.1875C18.8542 5.72917 17.0833 5 15 5C12.9167 5 11.1458 5.72917 9.6875 7.1875C8.22917 8.64583 7.5 10.4167 7.5 12.5C7.5 14.5833 8.22917 16.3542 9.6875 17.8125C11.1458 19.2708 12.9167 20 15 20Z" fill="#021D40"/>
</g>
</svg>
