<svg width="23" height="24" viewBox="0 0 23 24" fill="none" xmlns="http://www.w3.org/2000/svg">
<g id="Frame">
<path id="Vector" d="M21.5667 23.1998C22.2492 23.1998 22.8048 22.6442 22.8048 21.9617V2.03793C22.8048 1.35543 22.2492 0.799805 21.5667 0.799805H1.64291C0.956035 0.799805 0.404785 1.35543 0.404785 2.03793V21.9661C0.404785 22.6442 0.956035 23.1998 1.64291 23.1998H21.5667Z" fill="#395185"/>
<path id="Vector_2" d="M15.8615 23.1998V14.5242H18.7753L19.2128 11.1423H15.8659V8.98541C15.8659 8.00541 16.1372 7.34041 17.5415 7.34041H19.3309V4.31729C19.0203 4.27791 17.9572 4.18604 16.7234 4.18604C14.1422 4.18604 12.3747 5.76104 12.3747 8.65291V11.1467H9.45654V14.5285H12.3747V23.1998H15.8615Z" fill="white"/>
</g>
</svg>
