<svg width="24" height="24" viewBox="0 0 24 24" fill="none" xmlns="http://www.w3.org/2000/svg">
<g id="Frame">
<path id="Vector" d="M5.96613 9.91293C6.83676 7.2748 9.31301 5.38043 12.253 5.38043C13.8324 5.38043 15.2543 5.94043 16.3786 6.8548L19.6293 3.5998C17.6474 1.8673 15.1011 0.799805 12.2486 0.799805C7.83426 0.799805 4.03238 3.3198 2.20801 7.00793L5.96613 9.91293Z" fill="#EA4335"/>
<path id="Vector_2" d="M16.0199 17.6128C15.0005 18.2691 13.7099 18.6191 12.2486 18.6191C9.32174 18.6191 6.85424 16.7378 5.97486 14.1172L2.20361 16.9784C4.02799 20.6753 7.82986 23.1997 12.2486 23.1997C14.9874 23.1997 17.6036 22.2284 19.5592 20.3997L16.0199 17.6128Z" fill="#34A853"/>
<path id="Vector_3" d="M19.5592 20.3997C21.6067 18.4878 22.9367 15.6441 22.9367 11.9997C22.9367 11.3391 22.836 10.626 22.6829 9.96533H12.2485V14.2922H18.2554C17.9579 15.7491 17.1617 16.8735 16.0198 17.6128L19.5592 20.3997Z" fill="#4A90E2"/>
<path id="Vector_4" d="M5.97508 14.1172C5.75195 13.4522 5.62945 12.7434 5.62945 11.9997C5.62945 11.2691 5.74758 10.5691 5.96195 9.91281L2.20383 7.00781C1.4557 8.50844 1.04883 10.2016 1.04883 11.9997C1.04883 13.7891 1.46445 15.4822 2.20383 16.9784L5.97508 14.1172Z" fill="#FBBC05"/>
</g>
</svg>
