<?xml version="1.0" encoding="utf-8" standalone="no"?>
<!-- Creator: Esri ArcMap 10.8.0.12790 -->
<!DOCTYPE svg PUBLIC "-//W3C//DTD SVG 1.1//EN"  "http://www.w3.org/Graphics/SVG/1.1/DTD/svg11.dtd">
<svg width="774.73701pt" height="404.24882pt" viewBox="0 0 774.73701 404.24882" enable-background="new 0 0 774.73701 404.24882"
	version="1.1" xmlns="http://www.w3.org/2000/svg" xmlns:xlink="http://www.w3.org/1999/xlink" >
	<g id="Layers">
		<g id="Bénoué_sd">
			<clipPath id="SVG_CP_1">
				<path d="M0,404.24882L0,0L774.73701,0L774.73701,404.24882L0,404.24882z"/>
			</clipPath>
			<path clip-path="url(#SVG_CP_1)" fill="none" stroke="#000000" stroke-width="0.47528" stroke-miterlimit="10" stroke-linecap="round" stroke-linejoin="round" d="
				M374.7544,25.18844L374.7544,25.42606L375.22967,25.66369L375.22967,26.13894L375.70495,25.90132L376.18022,26.37657L376.18022,26.6142
				L376.6555,27.08945L376.89314,27.32708L377.36841,27.80233L377.36841,28.03996L377.60605,28.51521L377.84369,29.46572L377.13077,30.1786
				L376.6555,30.41622L377.13077,30.89148L377.13077,31.36673L376.6555,31.60436L376.41786,31.84198L376.18022,31.84198L376.18022,32.07961
				L375.70495,32.31724L375.70495,32.79249L375.46731,33.03012L374.7544,32.79249L374.27912,32.79249L374.27912,33.26775L374.51676,33.743
				L375.22967,34.21825L374.99204,34.93113L375.22967,35.40639L374.7544,35.64401L374.7544,35.88164L374.51676,36.11927L375.22967,36.59452
				L376.18022,37.3074L377.36841,37.78265L377.84369,38.73316L378.08132,39.92129L378.08132,40.8718L378.08132,41.58468L378.79424,42.29756
				L378.5566,42.77281L378.31896,43.24807L377.84369,43.24807L377.84369,43.4857L377.60605,43.72332L377.13077,43.96095L377.13077,44.19858
				L376.6555,44.19858L376.18022,44.4362L375.94259,44.91146L375.70495,45.38671L375.46731,45.62434L374.99204,45.62434L375.22967,46.81247
				L375.22967,48.0006L375.22967,49.42636L374.99204,50.85212L374.7544,51.32738L374.51676,51.565L374.04149,52.51551L373.80385,53.46602
				L373.32857,54.1789L372.8533,54.89178L372.61566,55.36703L371.90275,55.84229L370.9522,56.07991L370.00165,56.79279L368.81346,57.7433
				L368.81346,58.21855L368.57582,58.93143L367.86291,59.40669L367.15,59.88194L366.67472,60.59482L366.43708,61.07007L366.43708,61.78295
				L365.96181,62.02058L365.72417,62.49583L365.96181,62.97109L365.72417,63.20872L365.2489,63.44634L365.01126,63.68397L365.01126,64.15922
				L364.53598,64.63448L364.29835,65.10973L364.06071,65.58498L363.11016,66.29786L362.63488,66.53549L362.63488,66.77312L362.87252,67.24837
				L363.3478,67.486L363.3478,67.96125L363.3478,68.4365L363.3478,68.91176L362.87252,69.62464L362.39725,70.33752L362.39725,70.81277
				L362.87252,71.52565L362.39725,72.23853L362.15961,72.95141L361.68433,73.18904L361.4467,73.90192L360.97142,74.13955L360.25851,74.37717
				L359.30796,74.6148L359.07032,75.32768L358.83268,76.04056L358.35741,76.75344L358.11977,77.22869L358.11977,78.41683L357.88213,78.89208
				L357.40686,79.12971L357.16922,79.60496L357.16922,80.31784L356.69395,81.03072L355.26812,82.21886L354.79284,82.69411L354.07993,83.16936
				L353.60466,83.16936L353.36702,82.93174L352.89174,82.69411L352.41647,82.93174L351.94119,83.40699L351.22828,83.88224L351.46592,84.11987
				L351.70356,85.07038L351.70356,86.25851L351.22828,86.97139L350.51537,87.20902L350.04009,87.68427L349.32718,88.39715L348.85191,88.63478
				L347.66372,88.8724L346.00026,89.58528L345.28734,89.82291L344.57443,90.29816L343.62388,90.29816L343.38624,89.82291L342.91097,89.34766
				L342.43569,89.34766L341.96042,89.34766L342.67333,90.29816L343.62388,91.24867L344.57443,91.4863L345.76262,92.43681L346.23789,93.86257
				L347.18844,94.57545L348.13899,95.52595L349.32718,96.23883L349.56482,97.18934L350.04009,97.66459L351.94119,97.90222L353.84229,98.13985
				L355.26812,98.37747L357.16922,99.09035L358.59505,100.27849L359.5456,101.46662L360.49615,102.65476L360.97142,103.36764L361.4467,103.36764
				L361.92197,103.84289L362.63488,104.31814L363.3478,105.7439L363.58543,106.45678L364.29835,106.93204L364.53598,106.93204L364.77362,107.16966
				L364.53598,107.64492L364.06071,108.59542L364.29835,108.59542L363.82307,109.07068L363.11016,109.78356L362.15961,110.02118
				L361.20906,110.25881L360.02087,110.73406L359.5456,111.20932L359.07032,111.44694L358.83268,111.9222L358.11977,112.15983L357.16922,112.63508
				L356.69395,113.11033L356.21867,113.34796L356.21867,114.06084L355.7434,114.53609L355.26812,114.77372L354.55521,115.01135L
				354.31757,115.4866L354.55521,115.96185L354.55521,116.67473L354.31757,117.14999L353.60466,117.62524L353.12938,118.10049L352.89174,118.57575
				L352.65411,119.28863L352.17883,120.00151L351.94119,120.71439L352.41647,121.6649L352.41647,122.37778L352.17883,122.6154L351.46592,122.6154
				L351.22828,122.6154L350.75301,123.32828L350.75301,123.80354L350.99064,124.75404L313.68155,105.03102L313.91919,104.08052L
				314.15683,103.13001L313.68155,102.41713L313.44391,101.94188L313.20628,101.46662L313.20628,100.99137L313.20628,100.51611L
				312.96864,100.04086L312.96864,99.80323L312.96864,99.56561L312.96864,99.32798L313.20628,99.32798L313.20628,99.09035L312.96864,99.09035
				L312.96864,98.85273L312.96864,98.6151L312.96864,98.37747L313.20628,98.37747L313.44391,98.37747L313.68155,98.37747L313.68155,98.13985
				L313.68155,97.90222L313.44391,97.90222L313.20628,97.90222L312.96864,97.66459L312.731,97.66459L312.731,97.42697L312.49336,97.42697
				L312.49336,97.18934L312.49336,96.95171L312.49336,96.71409L312.731,96.71409L312.96864,96.47646L313.20628,96.23883L313.20628,96.00121
				L313.44391,95.76358L313.44391,95.52595L313.68155,95.28833L313.91919,95.0507L314.15683,94.81307L314.39446,94.81307L314.39446,94.57545
				L314.39446,94.33782L314.15683,94.33782L314.15683,94.10019L313.91919,94.10019L313.91919,93.86257L313.91919,93.62494L313.91919,93.38731
				L314.15683,93.38731L314.39446,93.38731L314.39446,93.14969L314.39446,92.91206L314.39446,92.67443L314.15683,92.43681L313.91919,92.19918
				L313.68155,92.19918L313.44391,91.96155L313.44391,91.72392L313.20628,91.72392L313.20628,91.4863L312.96864,91.4863L312.96864,91.24867
				L312.96864,91.01104L313.20628,91.01104L312.96864,91.01104L312.96864,90.77342L312.96864,90.53579L313.20628,90.53579L313.20628,90.29816
				L313.20628,90.06054L313.20628,89.82291L313.20628,89.58528L313.44391,89.58528L313.44391,89.34766L313.44391,89.11003L313.44391,88.8724
				L313.68155,88.8724L313.91919,88.63478L314.15683,88.63478L314.39446,88.63478L314.6321,88.63478L314.86974,88.63478L314.86974,88.8724
				L315.10738,88.63478L315.34501,88.39715L315.58265,88.15952L315.58265,87.9219L315.82029,87.9219L316.05793,87.9219L316.29556,87.9219
				L316.5332,87.9219L316.5332,87.68427L316.77084,87.68427L316.5332,87.44664L316.5332,87.20902L316.5332,86.97139L316.5332,86.73376
				L316.77084,86.73376L316.77084,86.49614L317.00848,86.49614L317.24611,86.49614L317.48375,86.49614L317.48375,86.25851L317.72139,86.25851
				L317.72139,86.02088L317.72139,85.78326L317.72139,85.54563L317.72139,85.308L317.48375,84.83275L317.48375,84.59512L317.24611,84.3575
				L317.24611,84.11987L317.00848,84.11987L317.00848,83.88224L316.77084,83.64462L316.5332,83.64462L316.5332,83.40699L316.77084,83.16936
				L317.00848,82.93174L317.00848,82.69411L317.24611,82.69411L317.24611,82.45648L317.48375,82.21886L317.72139,82.21886L317.72139,81.98123
				L317.72139,81.7436L317.48375,81.7436L317.24611,81.50597L317.00848,81.26835L317.00848,81.03072L317.00848,80.79309L317.24611,80.55547
				L317.48375,80.31784L317.72139,80.08021L317.95903,80.08021L318.19666,79.84259L318.4343,79.60496L318.4343,79.36733L318.67194,79.12971
				L318.67194,78.89208L318.67194,78.65445L318.90958,78.41683L318.90958,78.1792L318.67194,77.94157L318.90958,77.94157L318.90958,77.70395
				L318.90958,77.46632L319.14721,77.46632L319.38485,77.46632L319.38485,77.22869L319.38485,76.99107L319.38485,76.75344L319.38485,76.51581
				L319.38485,76.27819L319.14721,76.04056L319.14721,75.80293L319.38485,75.80293L319.38485,75.56531L319.14721,75.32768L318.90958,75.32768
				L318.90958,75.09005L318.67194,75.09005L318.67194,74.85243L318.67194,74.6148L318.67194,74.37717L318.67194,74.13955L318.67194,73.66429
				L318.67194,73.42667L318.90958,73.18904L318.90958,72.95141L318.90958,72.71379L319.14721,72.47616L318.90958,72.47616L318.90958,72.23853
				L318.67194,72.23853L318.67194,72.0009L318.67194,71.76328L318.90958,71.76328L319.14721,71.76328L319.38485,71.52565L319.62249,71.52565
				L319.62249,71.28802L319.62249,71.0504L319.62249,70.81277L319.62249,70.57514L319.62249,70.33752L319.38485,70.09989L319.38485,69.86226
				L319.38485,69.62464L319.38485,69.38701L319.62249,69.38701L319.62249,69.14938L319.62249,68.91176L319.62249,68.67413L319.86013,68.67413
				L320.09776,68.4365L320.09776,68.19888L320.09776,67.96125L320.3354,67.72362L320.3354,67.486L320.57304,67.486L320.57304,67.24837
				L320.81068,67.24837L321.04831,67.01074L321.28595,66.77312L321.28595,66.53549L321.52359,66.53549L321.52359,66.29786L321.76123,66.06024
				L321.99886,65.82261L321.99886,65.58498L322.2365,65.58498L322.2365,65.34736L322.47414,65.34736L322.47414,65.10973L322.71178,65.10973
				L322.94941,65.10973L323.18705,64.8721L323.18705,64.63448L323.42469,64.63448L323.66233,64.63448L323.89997,64.63448L324.1376,64.63448
				L324.1376,64.39685L324.1376,64.15922L324.1376,63.9216L324.37524,63.9216L324.37524,63.68397L324.61288,63.68397L324.61288,63.44634
				L324.85052,63.44634L325.08815,63.20872L325.32579,63.20872L325.56343,63.20872L325.56343,62.97109L325.80107,62.97109L325.80107,62.73346
				L325.80107,62.49583L326.0387,62.25821L326.0387,62.02058L326.0387,61.78295L326.0387,61.54533L326.0387,61.3077L326.27634,61.3077
				L326.27634,61.07007L326.27634,60.83245L326.51398,60.59482L326.75162,60.35719L326.98925,60.35719L326.98925,60.11957L327.22689,60.11957
				L327.22689,59.88194L327.22689,59.64431L327.46453,59.40669L327.70217,59.40669L327.9398,59.16906L328.17744,59.16906L328.17744,58.93143
				L328.17744,58.69381L328.41508,58.69381L328.41508,58.45618L328.65272,58.21855L328.89035,57.7433L328.89035,57.50567L328.65272,57.26805
				L328.41508,57.26805L328.41508,57.03042L328.17744,57.03042L328.17744,56.79279L328.17744,56.55517L328.17744,56.31754L327.9398,56.31754
				L327.9398,56.07991L327.70217,56.07991L327.70217,55.84229L327.46453,55.84229L327.22689,55.84229L326.98925,55.60466L326.75162,55.60466
				L326.51398,55.60466L326.27634,55.36703L326.27634,55.12941L326.0387,55.12941L326.0387,54.89178L326.0387,54.65415L325.80107,54.41653
				L325.56343,54.41653L325.32579,54.1789L325.08815,53.94127L324.61288,53.94127L324.37524,53.70365L324.1376,53.70365L323.89997,53.46602
				L323.42469,53.46602L323.18705,53.22839L322.94941,53.22839L322.94941,52.99077L322.71178,52.75314L322.71178,52.27788L322.47414,52.27788
				L322.2365,52.27788L321.99886,52.27788L321.99886,52.04026L321.76123,52.04026L321.76123,51.80263L321.52359,51.80263L321.28595,52.04026
				L321.04831,52.27788L320.81068,52.27788L320.57304,52.04026L320.3354,52.04026L320.09776,52.04026L319.86013,51.80263L319.62249,51.32738
				L319.38485,51.32738L319.38485,51.08975L319.14721,51.08975L318.90958,51.08975L318.90958,50.85212L318.67194,50.85212L318.4343,50.85212
				L318.19666,50.85212L317.95903,50.6145L317.72139,50.6145L317.48375,50.6145L317.24611,50.85212L317.00848,50.6145L317.00848,50.37687
				L317.00848,50.13924L317.00848,49.90162L316.77084,49.90162L316.5332,49.66399L316.29556,49.66399L316.05793,49.66399L315.82029,49.42636
				L315.82029,49.18874L315.82029,48.95111L316.05793,48.71348L316.05793,48.47586L316.05793,48.23823L316.29556,48.0006L316.29556,47.76298
				L316.5332,47.52535L316.29556,47.28772L316.29556,47.0501L316.05793,46.81247L316.05793,46.57484L316.05793,46.33722L316.05793,46.09959
				L315.82029,45.86196L315.58265,45.86196L315.58265,45.62434L315.58265,45.38671L315.34501,45.14908L315.10738,45.14908L314.86974,45.14908
				L314.6321,45.14908L314.6321,44.91146L314.6321,44.67383L314.6321,44.4362L314.6321,44.19858L314.6321,43.96095L314.86974,43.96095
				L315.10738,43.72332L315.10738,43.4857L314.86974,43.4857L314.6321,43.4857L314.39446,43.24807L314.39446,43.01044L314.39446,42.77281
				L314.39446,42.53519L314.39446,42.29756L314.39446,42.05993L314.39446,41.82231L314.39446,41.58468L314.39446,41.34705L314.39446,41.10943
				L314.39446,40.8718L314.39446,40.63417L314.39446,40.39655L314.15683,40.15892L313.91919,40.15892L313.91919,39.92129L313.91919,39.68367
				L314.15683,39.68367L314.15683,39.44604L314.15683,39.20841L314.15683,38.97079L314.39446,38.97079L314.39446,38.73316L314.6321,38.73316
				L314.6321,38.49553L314.86974,38.49553L314.86974,38.25791L315.10738,38.02028L315.10738,37.78265L315.34501,37.54503L315.34501,37.3074
				L315.58265,37.3074L315.58265,37.06977L315.82029,37.06977L316.05793,37.06977L316.05793,36.83215L316.05793,36.59452L316.29556,36.59452
				L316.29556,36.35689L316.5332,36.11927L316.77084,36.11927L316.77084,35.88164L317.00848,35.88164L317.00848,35.64401L317.00848,35.40639
				L317.24611,35.40639L317.48375,35.40639L317.48375,35.16876L317.72139,34.93113L317.95903,35.16876L318.19666,35.40639L318.19666,35.64401
				L318.19666,35.88164L318.4343,35.88164L318.4343,35.64401L318.4343,35.40639L318.67194,35.40639L318.67194,35.16876L318.90958,35.16876
				L318.90958,34.93113L319.14721,34.93113L319.38485,34.93113L319.62249,34.93113L319.86013,35.16876L320.09776,35.16876L320.3354,35.16876
				L320.57304,35.16876L320.57304,35.40639L320.81068,35.16876L321.04831,34.93113L321.28595,34.93113L321.52359,34.93113L321.52359,34.69351
				L321.52359,34.45588L321.76123,34.45588L321.76123,34.21825L321.99886,33.98063L321.99886,33.743L321.76123,33.743L321.76123,33.50537
				L321.76123,33.26775L321.99886,33.26775L322.2365,33.26775L322.47414,33.26775L322.71178,33.26775L322.94941,33.26775L323.18705,33.26775
				L323.18705,33.03012L323.42469,33.03012L323.66233,32.79249L323.89997,32.79249L324.1376,32.79249L324.37524,32.79249L324.37524,32.55486
				L324.1376,32.31724L323.89997,32.07961L323.89997,31.84198L323.66233,32.07961L323.42469,32.07961L323.42469,31.84198L323.18705,31.60436
				L323.42469,31.60436L323.42469,31.36673L323.42469,31.1291L323.66233,31.1291L323.89997,31.1291L324.1376,31.1291L324.1376,30.89148
				L324.37524,30.89148L324.61288,30.65385L324.61288,30.41622L324.61288,30.1786L324.61288,29.94097L324.61288,29.70334L324.37524,29.70334
				L324.37524,29.94097L324.1376,29.94097L324.1376,29.70334L324.1376,29.46572L324.37524,29.46572L324.61288,29.46572L324.85052,29.46572
				L324.85052,29.22809L325.08815,29.22809L325.08815,28.99046L325.32579,28.99046L325.32579,28.75284L325.32579,28.51521L325.32579,28.27758
				L325.08815,28.03996L325.08815,28.27758L324.85052,28.27758L324.85052,28.03996L325.08815,27.80233L325.08815,27.5647L325.32579,27.5647
				L325.32579,27.32708L325.56343,27.32708L325.32579,27.08945L325.08815,26.85182L324.85052,26.85182L324.85052,26.6142L325.08815,26.37657
				L325.08815,26.13894L325.32579,26.13894L325.32579,25.90132L325.32579,25.66369L325.56343,25.66369L325.56343,25.42606L325.56343,25.18844
				L325.56343,24.95081L325.56343,24.71318L325.56343,24.47556L325.56343,24.23793L325.56343,24.0003L325.80107,23.76268L325.80107,23.52505
				L325.56343,23.52505L325.32579,23.28742L325.08815,23.04979L325.08815,22.81217L324.85052,22.81217L324.85052,22.57454L324.61288,22.57454
				L324.61288,22.33691L324.37524,22.33691L324.37524,22.09929L324.1376,22.09929L323.89997,22.09929L323.89997,21.86166L323.66233,21.86166
				L323.66233,21.62403L323.66233,21.38641L323.42469,21.38641L323.42469,21.14878L323.18705,21.14878L322.94941,21.14878L322.94941,21.38641
				L322.71178,21.38641L322.47414,21.38641L322.2365,21.14878L321.99886,20.91115L321.76123,20.91115L321.76123,20.67353L321.52359,20.67353
				L321.28595,20.67353L321.04831,20.67353L321.04831,20.91115L320.81068,20.91115L320.57304,20.67353L320.3354,20.67353L320.09776,20.67353
				L319.86013,20.67353L319.62249,20.4359L319.38485,20.4359L319.38485,20.19827L319.14721,20.19827L318.90958,20.19827L318.67194,20.19827
				L318.4343,19.96065L318.19666,19.96065L317.95903,19.96065L317.95903,19.72302L317.72139,19.72302L317.72139,19.48539L317.72139,19.24777
				L317.72139,19.01014L317.48375,19.01014L317.48375,18.77251L317.24611,18.77251L317.24611,18.53489L317.00848,18.53489L319.14721,18.53489
				L326.51398,18.53489L333.6431,18.53489L334.11838,19.01014L334.83129,19.48539L335.78184,19.96065L336.49475,20.19827L337.68294,21.14878
				L338.87113,21.38641L339.82168,21.62403L341.00987,21.86166L341.72278,22.57454L342.67333,23.28742L343.38624,23.76268L344.09916,24.0003
				L345.52498,24.47556L346.23789,24.71318L346.71317,24.47556L347.42608,24.47556L348.37663,24.71318L349.08954,24.95081L350.51537,25.42606
				L351.70356,25.18844L352.65411,25.18844L353.60466,25.18844L354.55521,25.18844L355.26812,25.18844L355.98103,24.95081L356.69395,25.18844
				L357.88213,24.95081L358.59505,24.71318L359.78323,24.47556L360.25851,24.47556L360.49615,24.71318L360.97142,24.23793L361.4467,24.23793
				L362.15961,23.76268L362.63488,24.0003L363.3478,23.76268L363.58543,23.76268L364.29835,23.76268L364.53598,23.52505L365.48653,23.76268
				L366.43708,23.28742L368.10055,22.81217L369.52637,23.52505L370.47692,24.23793L371.18984,24.47556L372.37802,25.42606L373.32857,25.18844
				L374.7544,25.18844"/>
			<path clip-path="url(#SVG_CP_1)" fill="none" stroke="#000000" stroke-width="0.47528" stroke-miterlimit="10" stroke-linecap="round" stroke-linejoin="round" d="
				M403.50854,92.91206L399.94398,93.86257L390.43848,96.71409L379.74479,100.75374L374.99204,102.65476L370.00165,104.55577L364.53598,106.93204
				L364.29835,106.93204L363.58543,106.45678L363.3478,105.7439L362.63488,104.31814L361.92197,103.84289L361.4467,103.36764L360.97142,103.36764
				L360.49615,102.65476L359.5456,101.46662L358.59505,100.27849L357.16922,99.09035L355.26812,98.37747L353.84229,98.13985L351.94119,97.90222
				L350.04009,97.66459L349.56482,97.18934L349.32718,96.23883L348.13899,95.52595L347.18844,94.57545L346.23789,93.86257L345.76262,92.43681
				L344.57443,91.4863L343.62388,91.24867L342.67333,90.29816L341.96042,89.34766L342.43569,89.34766L342.91097,89.34766L343.38624,89.82291
				L343.62388,90.29816L344.57443,90.29816L345.28734,89.82291L346.00026,89.58528L347.66372,88.8724L348.85191,88.63478L349.32718,88.39715
				L350.04009,87.68427L350.51537,87.20902L351.22828,86.97139L351.70356,86.25851L351.70356,85.07038L351.46592,84.11987L351.22828,83.88224
				L351.94119,83.40699L352.41647,82.93174L352.89174,82.69411L353.36702,82.93174L353.60466,83.16936L354.07993,83.16936L354.79284,82.69411
				L355.26812,82.21886L356.69395,81.03072L357.16922,80.31784L357.16922,79.60496L357.40686,79.12971L357.88213,78.89208L358.11977,78.41683
				L358.11977,77.22869L358.35741,76.75344L358.83268,76.04056L359.07032,75.32768L359.30796,74.6148L360.25851,74.37717L360.97142,74.13955
				L361.4467,73.90192L361.68433,73.18904L362.15961,72.95141L362.39725,72.23853L362.87252,71.52565L362.39725,70.81277L362.39725,70.33752
				L362.87252,69.62464L363.3478,68.91176L363.3478,68.4365L363.3478,67.96125L363.3478,67.486L362.87252,67.24837L362.63488,66.77312
				L362.63488,66.53549L363.11016,66.29786L364.06071,65.58498L364.29835,65.10973L364.53598,64.63448L365.01126,64.15922L365.01126,63.68397
				L365.2489,63.44634L365.72417,63.20872L365.96181,62.97109L365.72417,62.49583L365.96181,62.02058L366.43708,61.78295L366.43708,61.07007
				L366.67472,60.59482L367.15,59.88194L367.86291,59.40669L368.57582,58.93143L368.81346,58.21855L368.81346,57.7433L370.00165,56.79279
				L370.9522,56.07991L371.90275,55.84229L372.61566,55.36703L372.8533,54.89178L373.32857,54.1789L373.80385,53.46602L374.04149,52.51551
				L374.51676,51.565L374.7544,51.32738L374.99204,50.85212L375.22967,49.42636L375.22967,48.0006L375.22967,46.81247L374.99204,45.62434
				L375.46731,45.62434L375.70495,45.38671L375.94259,44.91146L376.18022,44.4362L376.6555,44.19858L377.13077,44.19858L377.13077,43.96095
				L377.60605,43.72332L377.84369,43.4857L377.84369,43.24807L378.31896,43.24807L378.5566,42.77281L378.79424,42.29756L378.08132,41.58468
				L378.08132,40.8718L378.08132,39.92129L377.84369,38.73316L377.36841,37.78265L376.18022,37.3074L375.22967,36.59452L374.51676,36.11927
				L374.7544,35.88164L374.7544,35.64401L375.22967,35.40639L374.99204,34.93113L375.22967,34.21825L374.51676,33.743L374.27912,33.26775
				L374.27912,32.79249L374.7544,32.79249L375.46731,33.03012L375.70495,32.79249L375.70495,32.31724L376.18022,32.07961L376.18022,31.84198
				L376.41786,31.84198L376.6555,31.60436L377.13077,31.36673L377.13077,30.89148L376.6555,30.41622L377.13077,30.1786L377.84369,29.46572
				L377.60605,28.51521L377.36841,28.03996L377.36841,27.80233L376.89314,27.32708L376.6555,27.08945L376.18022,26.6142L376.18022,26.37657
				L375.70495,25.90132L375.22967,26.13894L375.22967,25.66369L374.7544,25.42606L374.7544,25.18844L375.70495,24.95081L376.89314,25.18844
				L378.31896,25.18844L379.03187,25.18844L380.4577,25.90132L381.40825,26.37657L382.12116,26.85182L383.07171,26.85182L383.78462,27.08945
				L384.2599,27.5647L384.2599,28.03996L385.44809,30.1786L386.63628,32.31724L388.77501,36.35689L389.48793,38.25791L390.43848,38.49553
				L391.62666,38.25791L392.57721,38.25791L393.29013,38.97079L394.00304,39.92129L394.71595,40.8718L395.6665,41.10943L396.37941,41.10943
				L397.32996,41.82231L397.32996,42.53519L397.32996,43.01044L397.32996,43.96095L397.09233,44.91146L396.85469,45.62434L396.85469,46.09959
				L397.32996,46.33722L398.04288,47.0501L398.51815,47.76298L398.51815,48.0006L398.75579,48.71348L398.51815,49.18874L398.04288,49.66399
				L398.28051,50.13924L398.28051,50.6145L398.04288,51.08975L397.80524,51.565L397.32996,52.04026L397.32996,52.51551L397.80524,52.99077
				L398.28051,53.22839L398.28051,53.70365L398.04288,53.94127L397.5676,54.41653L397.5676,54.65415L398.04288,55.12941L398.28051,55.36703
				L398.04288,55.84229L397.80524,56.31754L397.5676,57.03042L397.5676,57.50567L397.09233,58.21855L397.5676,58.69381L397.32996,58.93143
				L396.61705,59.16906L395.6665,59.64431L394.95359,59.88194L394.00304,60.11957L394.24068,61.07007L394.24068,62.02058L394.24068,63.20872
				L395.42886,64.15922L396.14178,64.15922L397.09233,64.63448L397.80524,64.63448L398.28051,64.39685L398.99343,63.68397L399.4687,64.15922
				L399.4687,64.39685L399.70634,65.10973L399.70634,65.58498L399.4687,65.82261L399.4687,66.53549L403.50854,75.32768L405.64728,83.88224
				L403.50854,92.91206"/>
			<path clip-path="url(#SVG_CP_1)" fill="none" stroke="#000000" stroke-width="0.47528" stroke-miterlimit="10" stroke-linecap="round" stroke-linejoin="round" d="
				M454.12534,109.78356L454.60061,110.25881L454.60061,110.49644L454.60061,110.73406L454.36297,111.68457L453.8877,113.34796L
				453.65006,114.29847L453.65006,115.24897L453.17479,116.19948L452.69951,116.91236L452.46187,117.86287L452.93715,118.81337L
				453.17479,119.52625L452.93715,120.47676L451.9866,121.42727L450.79841,121.90252L450.32314,122.85303L450.79841,124.27879L450.32314,124.99167
				L449.84786,126.65506L449.61022,128.08082L448.89731,129.03132L448.89731,129.50658L449.37259,130.45708L449.37259,131.40759
				L449.13495,132.12047L449.37259,133.07098L450.0855,133.07098L450.32314,133.30861L450.0855,133.78386L450.0855,134.97199L450.56077,136.63538
				L450.32314,137.34826L451.03605,138.29877L451.03605,138.77402L450.79841,139.24927L449.84786,139.72453L449.61022,140.19978
				L449.84786,140.43741L449.84786,140.91266L449.13495,141.86317L448.89731,142.57605L449.13495,143.0513L448.89731,143.76418L
				448.1844,144.23944L447.70912,144.71469L447.94676,145.42757L448.42204,145.90282L449.37259,146.37808L450.0855,146.85333L450.79841,148.04146
				L451.03605,148.99197L450.56077,149.94248L450.32314,151.36824L449.61022,152.08112L448.42204,152.55637L447.70912,153.03163
				L447.47148,153.26925L447.70912,153.74451L448.1844,154.21976L448.1844,154.69501L447.47148,155.17027L446.75857,154.93264L446.04566,154.69501
				L445.80802,154.45739L445.57038,154.69501L445.09511,155.17027L444.61983,156.12077L444.14456,156.3584L443.43165,156.59603L
				442.95637,156.83365L442.4811,157.78416L441.05527,158.25941L440.58,158.73467L439.86708,158.73467L439.15417,159.20992L438.44126,159.9228
				L437.96598,161.58619L437.49071,163.4872L437.01543,163.72483L435.58961,164.43771L434.40142,164.20008L433.68851,164.20008L
				432.26268,163.96246L431.31213,163.72483L431.07449,163.96246L430.83686,164.20008L431.07449,164.43771L432.02504,164.91296L
				432.02504,165.15059L431.78741,165.15059L431.07449,165.86347L430.12394,167.28923L429.41103,168.00211L429.41103,169.19024L
				428.93576,169.6655L428.46048,169.90312L427.98521,170.14075L426.08411,170.37838L424.89592,170.616L424.42064,171.32889L423.94537,172.04177
				L422.99482,172.51702L422.51954,173.2299L422.28191,173.46753L421.56899,173.2299L420.14317,173.2299L419.90553,172.75465L419.66789,172.27939
				L419.66789,172.04177L419.66789,171.80414L419.43026,171.32889L419.19262,171.32889L418.71734,171.32889L418.47971,171.09126
				L418.24207,170.85363L418.00443,171.09126L418.00443,171.56651L418.00443,172.27939L418.00443,172.99227L417.76679,173.2299L
				417.29152,173.2299L417.05388,173.46753L416.5786,173.70515L416.34097,174.41803L415.86569,174.65566L414.91514,174.18041L414.43987,174.41803
				L413.72695,175.36854L413.01404,175.36854L412.30113,175.13091L411.82585,174.18041L412.06349,173.46753L411.35058,173.2299L
				409.92475,173.46753L408.49893,174.18041L407.78602,174.65566L407.0731,175.13091L406.83547,175.36854L407.0731,175.84379L408.02365,175.60617
				L408.26129,176.31905L408.02365,176.7943L407.54838,177.26955L407.0731,178.22006L406.59783,178.69531L405.88492,178.93294L404.45909,178.22006
				L403.74618,177.74481L403.2709,177.74481L402.08272,178.45769L401.13216,177.98243L400.18161,177.03193L399.4687,176.7943L398.75579,176.7943
				L398.28051,176.55667L397.80524,175.84379L396.85469,175.60617L396.37941,176.08142L395.42886,176.08142L394.47831,174.89329
				L393.7654,174.89329L393.52776,175.13091L393.52776,176.08142L393.29013,176.55667L392.81485,176.55667L392.10194,175.84379L
				391.62666,175.84379L391.38903,176.31905L391.15139,177.26955L390.67611,177.50718L389.72556,177.26955L388.53738,177.26955L
				388.29974,177.26955L387.82446,176.55667L387.58683,175.84379L386.87391,175.36854L385.92336,175.36854L385.44809,175.60617L
				385.21045,175.60617L384.73517,175.84379L384.73517,176.08142L384.49754,176.08142L384.2599,176.08142L384.02226,176.31905L383.54699,175.84379
				L383.07171,175.13091L382.59644,175.13091L381.64589,174.89329L381.40825,174.89329L380.69534,174.89329L380.22006,174.89329
				L379.98242,174.65566L379.74479,174.41803L379.74479,174.18041L379.74479,173.94278L379.74479,173.70515L379.74479,173.2299L
				379.74479,172.99227L379.50715,172.75465L379.74479,172.51702L379.98242,172.27939L380.22006,172.04177L380.93297,171.80414L
				380.93297,171.56651L381.17061,171.32889L380.93297,171.32889L380.93297,171.09126L380.4577,170.85363L380.22006,170.616L379.50715,169.90312
				L379.26951,169.42787L379.26951,168.95262L379.26951,168.71499L379.26951,168.00211L379.03187,167.76448L378.31896,167.52686
				L377.60605,167.28923L376.89314,167.28923L375.46731,166.81398L374.7544,166.1011L374.04149,165.38822L373.32857,164.67534L372.37802,164.67534
				L371.42747,164.67534L370.47692,164.43771L369.28873,163.96246L368.81346,163.72483L369.0511,163.24958L369.52637,163.01195L
				369.52637,162.5367L369.76401,162.29907L370.00165,162.06144L370.23928,162.06144L370.23928,161.82382L370.47692,161.82382L370.47692,161.58619
				L370.47692,161.34856L370.23928,161.11094L370.00165,160.87331L369.76401,160.87331L369.52637,160.87331L369.28873,160.87331
				L369.0511,160.87331L368.57582,161.11094L368.33818,161.11094L368.10055,161.11094L367.86291,161.11094L367.62527,161.11094L
				367.38763,161.11094L367.15,161.11094L367.15,161.34856L366.91236,161.34856L366.67472,161.58619L366.43708,161.58619L366.19945,161.58619
				L366.19945,161.34856L365.96181,161.11094L365.96181,160.87331L365.96181,160.63568L365.72417,160.39805L365.48653,160.39805
				L365.2489,160.39805L365.2489,160.16043L365.01126,160.16043L364.53598,160.39805L364.53598,160.63568L364.29835,160.87331L364.06071,160.87331
				L363.82307,160.87331L363.58543,160.87331L363.58543,160.63568L363.3478,160.63568L363.11016,160.63568L363.11016,160.87331L
				362.87252,160.87331L362.39725,161.11094L362.39725,161.34856L362.15961,161.34856L361.92197,161.58619L361.20906,161.34856L
				362.15961,160.16043L363.11016,158.97229L362.15961,158.02179L358.83268,156.83365L357.6445,156.83365L354.31757,156.3584L350.04009,156.3584
				L347.66372,154.45739L346.95081,153.74451L346.00026,152.55637L346.00026,151.84349L346.00026,151.60587L346.00026,151.36824
				L346.00026,150.65536L346.00026,149.94248L346.00026,149.70485L346.00026,149.46722L346.00026,149.2296L345.76262,149.2296L345.52498,148.75434
				L345.28734,148.51672L345.04971,148.51672L344.81207,148.51672L344.57443,148.51672L344.33679,148.51672L344.09916,148.51672
				L343.86152,148.51672L343.86152,148.27909L343.62388,148.27909L343.62388,148.04146L343.38624,147.80384L343.86152,147.80384
				L344.09916,147.56621L343.86152,147.09096L344.09916,146.85333L344.81207,146.14045L345.04971,145.6652L345.04971,144.71469L
				345.52498,144.23944L345.76262,143.28893L346.00026,142.81368L346.00026,142.57605L347.18844,142.33842L347.42608,142.1008L347.90136,141.62554
				L348.13899,141.62554L348.37663,141.86317L348.85191,141.62554L349.08954,141.15029L348.85191,140.67503L348.85191,139.96215
				L348.85191,139.4869L349.08954,139.4869L349.32718,139.24927L348.85191,139.01165L348.85191,138.77402L348.85191,138.53639L349.32718,138.53639
				L349.32718,138.29877L349.32718,138.06114L349.80246,137.58589L349.08954,137.11063L348.61427,136.39775L348.61427,135.68487
				L348.61427,134.73437L348.85191,134.25911L348.61427,133.78386L348.61427,133.07098L348.85191,131.88285L348.85191,131.16996
				L349.32718,130.93234L349.32718,130.69471L349.80246,130.69471L350.04009,130.45708L350.51537,129.7442L350.99064,129.26895L
				350.51537,129.03132L350.51537,128.55607L350.51537,128.31844L350.51537,128.08082L350.51537,127.60556L350.75301,126.89268L
				350.99064,126.41743L350.99064,125.94218L350.99064,125.46692L350.99064,125.2293L350.99064,124.75404L350.75301,123.80354L350.75301,123.32828
				L351.22828,122.6154L351.46592,122.6154L352.17883,122.6154L352.41647,122.37778L352.41647,121.6649L351.94119,120.71439L352.17883,120.00151
				L352.65411,119.28863L352.89174,118.57575L353.12938,118.10049L353.60466,117.62524L354.31757,117.14999L354.55521,116.67473
				L354.55521,115.96185L354.31757,115.4866L354.55521,115.01135L355.26812,114.77372L355.7434,114.53609L356.21867,114.06084L356.21867,113.34796
				L356.69395,113.11033L357.16922,112.63508L358.11977,112.15983L358.83268,111.9222L359.07032,111.44694L359.5456,111.20932L360.02087,110.73406
				L361.20906,110.25881L362.15961,110.02118L363.11016,109.78356L363.82307,109.07068L364.29835,108.59542L364.06071,108.59542
				L364.53598,107.64492L364.77362,107.16966L364.53598,106.93204L370.00165,104.55577L374.99204,102.65476L379.74479,100.75374
				L390.43848,96.71409L399.94398,93.86257L403.50854,92.91206L404.22145,94.10019L405.40964,95.0507L406.36019,95.52595L407.31074,96.23883
				L408.26129,97.66459L410.16239,99.80323L412.06349,101.94188L413.01404,104.31814L413.96459,106.93204L415.15278,109.3083L415.86569,110.73406
				L417.05388,112.63508L421.09372,111.20932L424.18301,109.78356L424.18301,110.49644L425.13356,110.73406L425.60883,111.20932
				L425.60883,112.15983L425.60883,113.34796L426.79702,113.82321L427.50993,114.29847L428.22284,115.01135L428.69812,115.72423
				L429.64867,114.77372L430.12394,114.06084L430.59922,113.34796L431.31213,113.58559L432.02504,113.82321L432.9756,113.82321L
				433.92615,113.58559L435.11433,113.11033L437.25307,111.68457L438.20362,110.73406L439.15417,110.49644L440.34236,110.97169L
				441.05527,110.73406L441.76818,111.20932L442.95637,111.20932L444.14456,111.44694L444.61983,110.97169L445.09511,110.49644L
				446.04566,110.25881L447.47148,110.49644L448.89731,110.25881L450.56077,110.02118L452.46187,109.78356L454.12534,109.78356"/>
			<path clip-path="url(#SVG_CP_1)" fill="none" stroke="#000000" stroke-width="0.47528" stroke-miterlimit="10" stroke-linecap="round" stroke-linejoin="round" d="
				M435.82725,249.98334L427.50993,246.65656L425.37119,244.99318L418.71734,240.24064L418.24207,238.81488L420.14317,235.25048
				L420.14317,234.29997L418.71734,232.63659L416.10333,230.73557L415.86569,230.49795L415.15278,229.54744L414.6775,228.59693L
				414.20223,227.88405L414.20223,227.17117L414.20223,225.98304L414.20223,225.03253L413.96459,224.31965L414.20223,223.8444L414.20223,223.36914
				L414.43987,222.41864L414.91514,221.94338L414.91514,220.99288L414.43987,220.28L413.96459,219.80474L412.7764,219.32949L412.06349,218.85423
				L411.58822,218.37898L410.8753,217.6661L410.40003,217.42847L409.68712,216.95322L409.21184,216.95322L408.49893,216.95322L408.49893,216.47797
				L408.49893,216.00271L408.02365,215.52746L407.54838,215.05221L407.0731,214.81458L406.36019,214.33933L406.36019,213.86407L
				406.12255,212.91357L405.88492,212.20069L406.12255,211.72543L406.36019,211.25018L406.12255,210.29967L406.12255,209.82442L
				405.64728,208.87391L405.40964,208.39866L404.93437,207.9234L404.45909,207.68578L403.74618,207.44815L403.50854,207.21052L402.79563,206.9729
				L402.32035,206.26002L401.84508,205.54714L401.13216,205.07188L400.89453,204.359L400.89453,203.64612L400.89453,203.4085L400.41925,202.93324
				L399.94398,202.69562L399.4687,201.98274L398.75579,201.26986L398.28051,200.55698L397.5676,200.08172L396.85469,199.13121L396.14178,198.41833
				L395.6665,197.70545L395.6665,196.99257L395.19123,196.75495L394.71595,196.27969L393.7654,195.80444L392.57721,195.56681L391.62666,195.56681
				L391.38903,195.32919L391.15139,194.85393L390.67611,194.37868L390.20084,193.6658L389.72556,192.95292L389.48793,192.24004L
				389.72556,191.05191L389.25029,190.33902L388.53738,189.86377L388.0621,189.15089L387.82446,188.91326L387.11155,188.67564L386.87391,188.20038
				L386.63628,187.4875L386.161,186.77462L385.68572,186.29937L385.68572,185.82412L385.68572,185.34886L385.92336,184.63598L386.39864,184.16073
				L386.63628,183.68548L386.63628,182.49734L386.39864,182.02209L385.68572,181.54684L385.21045,181.30921L384.49754,180.83396
				L383.78462,180.59633L383.30935,179.40819L383.07171,178.69531L383.07171,177.74481L383.07171,177.03193L382.83407,176.55667
				L381.64589,176.08142L380.4577,175.84379L379.98242,175.60617L379.03187,175.13091L378.79424,174.41803L378.5566,173.70515L378.31896,173.2299
				L378.31896,172.99227L378.31896,172.51702L379.03187,172.27939L379.74479,171.80414L380.22006,171.56651L380.4577,171.09126L
				380.4577,170.85363L380.93297,171.09126L380.93297,171.32889L381.17061,171.32889L380.93297,171.56651L380.93297,171.80414L380.22006,172.04177
				L379.98242,172.27939L379.74479,172.51702L379.50715,172.75465L379.74479,172.99227L379.74479,173.2299L379.74479,173.70515L
				379.74479,173.94278L379.74479,174.18041L379.74479,174.41803L379.98242,174.65566L380.22006,174.89329L380.69534,174.89329L
				381.40825,174.89329L381.64589,174.89329L382.59644,175.13091L383.07171,175.13091L383.54699,175.84379L384.02226,176.31905L
				384.2599,176.08142L384.49754,176.08142L384.73517,176.08142L384.73517,175.84379L385.21045,175.60617L385.44809,175.60617L385.92336,175.36854
				L386.87391,175.36854L387.58683,175.84379L387.82446,176.55667L388.29974,177.26955L388.53738,177.26955L389.72556,177.26955
				L390.67611,177.50718L391.15139,177.26955L391.38903,176.31905L391.62666,175.84379L392.10194,175.84379L392.81485,176.55667
				L393.29013,176.55667L393.52776,176.08142L393.52776,175.13091L393.7654,174.89329L394.47831,174.89329L395.42886,176.08142L
				396.37941,176.08142L396.85469,175.60617L397.80524,175.84379L398.28051,176.55667L398.75579,176.7943L399.4687,176.7943L400.18161,177.03193
				L401.13216,177.98243L402.08272,178.45769L403.2709,177.74481L403.74618,177.74481L404.45909,178.22006L405.88492,178.93294L
				406.59783,178.69531L407.0731,178.22006L407.54838,177.26955L408.02365,176.7943L408.26129,176.31905L408.02365,175.60617L407.0731,175.84379
				L406.83547,175.36854L407.0731,175.13091L407.78602,174.65566L408.49893,174.18041L409.92475,173.46753L411.35058,173.2299L412.06349,173.46753
				L411.82585,174.18041L412.30113,175.13091L413.01404,175.36854L413.72695,175.36854L414.43987,174.41803L414.91514,174.18041
				L415.86569,174.65566L416.34097,174.41803L416.5786,173.70515L417.05388,173.46753L417.29152,173.2299L417.76679,173.2299L418.00443,172.99227
				L418.00443,172.27939L418.00443,171.56651L418.00443,171.09126L418.24207,170.85363L418.47971,171.09126L418.71734,171.32889
				L419.19262,171.32889L419.43026,171.32889L419.66789,171.80414L419.66789,172.04177L419.66789,172.27939L419.90553,172.75465
				L420.14317,173.2299L421.56899,173.2299L422.28191,173.46753L422.51954,173.2299L422.99482,172.51702L423.94537,172.04177L424.42064,171.32889
				L424.89592,170.616L426.08411,170.37838L427.98521,170.14075L428.46048,169.90312L428.93576,169.6655L429.41103,169.19024L429.41103,168.00211
				L430.12394,167.28923L431.07449,165.86347L431.78741,165.15059L432.02504,165.15059L432.02504,164.91296L431.07449,164.43771
				L430.83686,164.20008L431.07449,163.96246L431.31213,163.72483L432.26268,163.96246L433.68851,164.20008L434.40142,164.20008
				L435.58961,164.43771L437.01543,163.72483L437.49071,163.4872L437.96598,161.58619L438.44126,159.9228L439.15417,159.20992L439.86708,158.73467
				L440.58,158.73467L441.05527,158.25941L442.4811,157.78416L442.95637,156.83365L443.43165,156.59603L444.14456,156.3584L444.61983,156.12077
				L445.09511,155.17027L445.57038,154.69501L445.80802,154.45739L446.04566,154.69501L446.75857,154.93264L447.47148,155.17027
				L448.1844,154.69501L448.1844,154.21976L447.70912,153.74451L447.47148,153.26925L447.70912,153.03163L448.42204,152.55637L449.61022,152.08112
				L450.32314,151.36824L450.56077,149.94248L451.03605,148.99197L450.79841,148.04146L450.0855,146.85333L449.37259,146.37808L
				448.42204,145.90282L447.94676,145.42757L447.70912,144.71469L448.1844,144.23944L448.89731,143.76418L449.13495,143.0513L448.89731,142.57605
				L449.13495,141.86317L449.84786,140.91266L449.84786,140.43741L449.61022,140.19978L449.84786,139.72453L450.79841,139.24927
				L451.03605,138.77402L451.03605,138.29877L450.32314,137.34826L450.56077,136.63538L450.0855,134.97199L450.0855,133.78386L450.32314,133.30861
				L450.0855,133.07098L449.37259,133.07098L449.13495,132.12047L449.37259,131.40759L449.37259,130.45708L448.89731,129.50658L
				448.89731,129.03132L449.61022,128.08082L449.84786,126.65506L450.32314,124.99167L450.79841,124.27879L450.32314,122.85303L
				450.79841,121.90252L451.9866,121.42727L452.93715,120.47676L453.17479,119.52625L452.93715,118.81337L452.46187,117.86287L452.69951,116.91236
				L453.17479,116.19948L453.65006,115.24897L453.65006,114.29847L453.8877,113.34796L454.36297,111.68457L454.60061,110.73406L
				454.60061,110.49644L454.60061,110.25881L454.12534,109.78356L454.36297,109.07068L455.07589,107.88254L456.50171,106.93204L
				457.92754,105.26865L459.82864,104.31814L461.4921,99.56561L462.68029,98.6151L463.63084,98.37747L465.05666,99.32798L466.24485,98.85273
				L466.95776,98.85273L467.90831,98.6151L468.62123,98.6151L470.52233,98.85273L471.23524,99.56561L471.94815,100.04086L472.66106,100.27849
				L473.61161,101.22899L474.32453,101.46662L474.7998,100.75374L476.22563,100.27849L478.602,98.6151L480.74074,100.27849L480.97838,100.75374
				L481.45365,101.46662L481.92893,101.70425L482.4042,102.41713L482.87948,102.65476L483.83003,102.65476L484.54294,103.13001L
				484.78058,103.60526L485.49349,103.84289L486.2064,103.36764L486.44404,103.60526L486.91932,103.36764L487.39459,103.13001L487.63223,103.36764
				L488.1075,103.84289L488.58278,104.08052L488.58278,104.31814L489.29569,104.55577L489.29569,104.7934L489.05805,105.03102L489.53333,105.03102
				L490.0086,105.26865L490.24624,105.50628L490.72152,105.50628L490.95915,105.03102L491.43443,105.26865L491.67207,105.7439L492.14734,105.50628
				L492.62262,105.50628L492.86025,105.98153L493.09789,107.64492L497.37537,113.11033L498.32592,114.06084L499.03883,115.24897
				L499.75174,115.72423L500.22702,116.19948L500.70229,117.14999L501.17757,117.86287L502.12812,118.10049L502.60339,117.62524
				L503.31631,118.33812L503.79158,118.10049L504.02922,118.57575L504.26686,118.57575L504.74213,119.051L504.97977,119.52625L505.21741,120.23913
				L505.69268,120.71439L506.40559,121.90252L506.64323,123.56591L506.88087,124.27879L507.11851,125.2293L507.35614,126.1798L507.59378,126.41743
				L508.30669,126.65506L509.01961,127.36794L510.20779,128.08082L511.63362,128.7937L512.82181,129.26895L513.77236,129.7442L514.24763,129.7442
				L514.96055,129.50658L515.43582,129.26895L516.14873,129.50658L516.86165,129.98183L517.57456,129.7442L517.8122,130.45708L518.52511,131.40759
				L518.76275,132.3581L521.37676,134.02149L522.32731,134.97199L522.80258,135.44725L523.5155,136.39775L523.5155,136.63538L523.5155,137.34826
				L523.99077,137.58589L523.99077,138.29877L523.75313,139.01165L523.99077,139.24927L524.70368,139.24927L525.17896,139.96215
				L525.65423,139.96215L525.89187,140.19978L525.65423,140.91266L525.65423,141.15029L525.65423,141.62554L526.12951,142.33842
				L526.36715,143.0513L527.55534,143.0513L528.03061,142.81368L528.74352,142.57605L529.2188,142.33842L529.45644,142.1008L529.93171,142.33842
				L530.16935,142.81368L530.40699,143.52656L530.64462,144.00181L531.1199,144.23944L531.35754,144.47706L531.1199,145.6652L531.35754,145.90282
				L531.83281,145.90282L532.07045,146.14045L532.54572,146.6157L533.25864,146.85333L533.73391,147.09096L534.20919,147.80384L
				534.9221,148.04146L535.39737,148.99197L535.15974,149.94248L535.39737,150.89298L535.87265,151.36824L536.34792,152.55637L537.53611,153.74451
				L538.24902,154.69501L538.96194,155.64552L539.43721,156.83365L540.6254,158.25941L541.57595,159.20992L542.76414,160.63568L
				543.95233,161.82382L544.4276,162.06144L545.14051,161.82382L546.56634,161.34856L547.27925,161.11094L547.04161,162.29907L546.56634,163.24958
				L546.56634,164.43771L546.56634,165.15059L544.66524,164.91296L543.47705,165.38822L542.76414,164.91296L541.57595,165.38822
				L540.15012,166.57635L539.67485,167.52686L539.19957,167.76448L537.29847,167.52686L536.11029,168.00211L535.15974,168.95262
				L534.68446,169.90312L534.20919,170.85363L532.78336,171.32889L531.1199,172.04177L530.64462,173.2299L530.88226,174.65566L531.59517,175.84379
				L532.07045,177.03193L532.30809,178.69531L532.78336,180.3587L533.021,181.30921L533.97155,182.73497L532.78336,182.9726L531.1199,182.9726
				L529.45644,182.73497L528.74352,182.25972L527.3177,182.02209L525.89187,182.25972L523.04022,182.49734L522.08967,182.73497L
				521.37676,183.21022L520.18857,182.9726L519.7133,182.73497L518.04983,183.44785L517.8122,183.44785L516.62401,183.44785L515.9111,184.39836
				L515.43582,184.87361L514.01,184.63598L513.05945,184.39836L512.1089,183.68548L511.63362,183.44785L510.92071,183.21022L510.44543,183.21022
				L509.25724,183.9231L508.30669,184.16073L507.35614,184.39836L506.40559,184.63598L505.69268,185.34886L505.21741,186.29937L
				504.50449,187.01225L503.07867,187.72513L502.12812,188.67564L500.70229,188.43801L499.75174,187.72513L499.03883,187.96276L
				497.61301,188.67564L496.66246,189.15089L495.71191,189.62614L494.04844,189.15089L493.09789,189.62614L491.67207,189.62614L
				490.48388,189.86377L489.29569,189.86377L488.1075,189.62614L486.91932,189.62614L485.49349,188.67564L484.3053,187.72513L483.11712,186.77462
				L481.21602,186.77462L480.26547,186.77462L480.02783,187.72513L480.02783,189.15089L479.55255,190.57665L478.83964,191.52716
				L477.41381,193.90343L476.22563,196.04207L475.98799,196.99257L475.75035,199.60647L475.51271,200.7946L475.27508,202.93324L
				475.27508,203.88375L475.75035,205.30951L475.51271,206.02239L474.56216,206.73527L473.37398,206.9729L472.42343,207.44815L471.94815,208.16103
				L471.71051,209.58679L471.71051,210.06204L470.75996,211.01255L469.0965,212.20069L467.1954,213.38882L466.24485,214.1017L465.2943,215.28983
				L464.10611,216.24034L463.3932,217.42847L463.15556,218.14135L463.63084,219.32949L464.34375,220.51762L463.86847,221.2305L465.05666,222.41864
				L465.76958,222.89389L465.76958,223.60677L465.76958,224.31965L465.53194,224.7949L464.81903,224.7949L464.34375,225.03253L463.3932,225.50778
				L462.44265,226.45829L460.77919,225.98304L457.92754,224.55728L456.73935,222.89389L455.7888,221.70576L454.60061,222.65626L
				452.46187,224.31965L450.56077,225.98304L448.1844,227.4088L449.37259,229.07218L450.79841,231.44845L451.9866,232.63659L451.03605,233.11184
				L450.56077,234.29997L450.79841,235.25048L450.56077,236.20099L449.84786,237.38912L450.0855,238.57725L450.0855,239.76539L449.37259,240.7159
				L448.89731,240.95352L445.09511,241.6664L442.71873,241.6664L441.76818,242.85454L441.29291,243.56742L440.34236,244.51792L439.62945,245.46843
				L438.20362,246.89419L437.01543,248.08232L435.82725,249.98334"/>
			<path clip-path="url(#SVG_CP_1)" fill="none" stroke="#000000" stroke-width="0.47528" stroke-miterlimit="10" stroke-linecap="round" stroke-linejoin="round" d="
				M435.82725,249.98334L447.70912,255.92401L448.1844,261.86468L444.61983,271.13212L437.72835,281.5877L426.79702,285.86498L421.56899,287.76599
				L418.71734,290.14226L408.49893,296.79581L407.54838,301.78597L407.78602,302.49885L408.26129,302.9741L408.49893,303.92461L
				408.73657,304.63749L408.73657,305.11274L409.44948,305.588L409.68712,306.30088L409.92475,306.5385L410.8753,306.77613L411.35058,307.01376
				L411.58822,307.72664L411.58822,308.20189L411.58822,308.67715L411.35058,309.1524L411.11294,309.39003L411.35058,310.10291L
				412.06349,310.34053L412.53877,310.57816L412.30113,311.05341L412.53877,311.52867L412.7764,311.76629L413.25168,312.24155L413.48932,312.7168
				L413.25168,313.42968L413.25168,313.66731L413.48932,313.90493L413.96459,314.14256L414.6775,315.80595L408.26129,328.16254L
				404.22145,332.43982L400.65689,338.61812L398.51815,352.63809L398.75579,354.53911L398.99343,355.01436L398.99343,355.48961L
				398.51815,355.72724L398.04288,355.96487L397.80524,356.44012L397.09233,356.67775L396.85469,356.91537L396.37941,356.91537L
				396.14178,356.67775L396.14178,356.20249L395.90414,355.96487L395.42886,355.96487L395.19123,356.44012L394.71595,356.67775L
				394.47831,356.91537L394.24068,357.153L394.00304,357.39063L394.00304,357.62825L393.7654,357.62825L393.05249,358.10351L392.81485,358.57876
				L392.81485,359.05402L392.81485,359.52927L392.81485,359.7669L392.57721,360.24215L392.33958,360.7174L392.10194,360.95503L392.10194,361.19266
				L391.8643,361.43028L391.62666,361.66791L391.62666,362.14316L391.38903,362.38079L391.38903,362.85604L391.38903,363.56892L
				391.38903,364.04418L391.15139,364.51943L391.15139,364.99468L391.38903,365.46994L391.62666,366.18282L391.8643,366.65807L391.8643,367.13332
				L391.62666,367.60858L391.38903,368.32146L390.91375,369.03434L390.43848,369.74722L389.9632,370.4601L388.77501,371.41061L387.11155,372.59874
				L385.92336,373.31162L385.68572,373.54925L384.97281,374.0245L384.49754,374.73738L384.02226,374.97501L383.54699,374.97501L
				382.83407,374.97501L382.3588,374.49975L381.88352,374.26213L381.40825,374.0245L380.93297,374.26213L380.4577,374.73738L379.98242,374.97501
				L378.31896,375.92551L377.84369,376.16314L377.36841,376.63839L376.89314,377.35127L376.6555,377.82653L375.94259,378.30178L
				374.99204,378.77704L374.51676,379.25229L374.04149,379.48992L373.56621,379.48992L372.8533,379.25229L372.14039,379.25229L371.66511,379.25229
				L371.42747,379.72754L371.18984,380.2028L371.18984,380.44042L370.47692,380.44042L369.52637,380.44042L368.57582,380.2028L367.86291,380.2028
				L367.86291,380.44042L367.38763,381.39093L367.15,381.62856L365.72417,381.86618L365.2489,382.34144L364.77362,382.81669L364.53598,383.05432
				L363.82307,383.05432L362.87252,383.05432L362.15961,383.05432L361.4467,383.05432L360.25851,383.05432L359.5456,383.52957L359.30796,383.7672
				L358.83268,384.48008L358.11977,384.95533L357.6445,385.19296L357.16922,385.19296L356.45631,385.19296L356.21867,385.43058L
				355.7434,385.90584L355.26812,385.90584L354.79284,385.66821L354.31757,385.43058L353.84229,385.43058L352.89174,385.43058L352.41647,385.43058
				L351.94119,385.43058L351.70356,385.43058L350.99064,385.43058L349.80246,370.93535L359.5456,370.93535L365.2489,362.38079L369.0511,357.62825
				L369.52637,356.91537L369.76401,356.20249L369.52637,355.25199L369.52637,348.12319L368.33818,325.07339L323.18705,328.87542
				L322.2365,328.63779L321.28595,327.92491L322.2365,326.49915L322.94941,325.78627L323.42469,324.59814L324.85052,323.64763L328.89035,318.18221
				L329.36563,317.23171L333.40547,310.81579L334.35602,309.62765L338.15822,303.68698L339.3464,302.26122L343.38624,296.32055L
				344.81207,294.41954L348.13899,289.19175L349.80246,287.29074L353.36702,282.06295L353.84229,281.5877L354.79284,279.92431L358.11977,274.93415
				L358.83268,273.27076L362.39725,267.56772L364.06071,265.42908L365.48653,263.29044L367.62527,260.20129L368.81346,257.82502
				L370.47692,255.68638L371.66511,253.54774L372.8533,251.88435L373.80385,249.98334L374.7544,248.7952L376.6555,246.18131L378.08132,243.80504
				L378.5566,241.90403L379.74479,240.00302L380.69534,236.91387L381.17061,233.34947L382.12116,229.54744L383.07171,225.74541L
				383.07171,223.60677L384.02226,221.70576L385.44809,219.80474L388.77501,216.95322L392.10194,213.38882L398.04288,209.58679L
				400.89453,206.49764L401.84508,205.54714L402.32035,206.26002L402.79563,206.9729L403.50854,207.21052L403.74618,207.44815L404.45909,207.68578
				L404.93437,207.9234L405.40964,208.39866L405.64728,208.87391L406.12255,209.82442L406.12255,210.29967L406.36019,211.25018L
				406.12255,211.72543L405.88492,212.20069L406.12255,212.91357L406.36019,213.86407L406.36019,214.33933L407.0731,214.81458L407.54838,215.05221
				L408.02365,215.52746L408.49893,216.00271L408.49893,216.47797L408.49893,216.95322L409.21184,216.95322L409.68712,216.95322
				L410.40003,217.42847L410.8753,217.6661L411.58822,218.37898L412.06349,218.85423L412.7764,219.32949L413.96459,219.80474L414.43987,220.28
				L414.91514,220.99288L414.91514,221.94338L414.43987,222.41864L414.20223,223.36914L414.20223,223.8444L413.96459,224.31965L
				414.20223,225.03253L414.20223,225.98304L414.20223,227.17117L414.20223,227.88405L414.6775,228.59693L415.15278,229.54744L415.86569,230.49795
				L416.10333,230.73557L418.71734,232.63659L420.14317,234.29997L420.14317,235.25048L418.24207,238.81488L418.71734,240.24064
				L425.37119,244.99318L427.50993,246.65656L435.82725,249.98334"/>
			<path clip-path="url(#SVG_CP_1)" fill="none" stroke="#000000" stroke-width="0.47528" stroke-miterlimit="10" stroke-linecap="round" stroke-linejoin="round" d="
				M338.63349,189.62614L340.05932,191.76479L342.19806,194.14105L344.81207,195.80444L347.66372,197.46783L350.99064,198.18071
				L356.69395,198.18071L363.82307,197.94308L369.28873,197.46783L372.14039,197.46783L378.08132,196.27969L381.88352,194.85393
				L384.73517,193.6658L389.72556,191.05191L389.48793,192.24004L389.72556,192.95292L390.20084,193.6658L390.67611,194.37868L391.15139,194.85393
				L391.38903,195.32919L391.62666,195.56681L392.57721,195.56681L393.7654,195.80444L394.71595,196.27969L395.19123,196.75495L
				395.6665,196.99257L395.6665,197.70545L396.14178,198.41833L396.85469,199.13121L397.5676,200.08172L398.28051,200.55698L398.75579,201.26986
				L399.4687,201.98274L399.94398,202.69562L400.41925,202.93324L400.89453,203.4085L400.89453,203.64612L400.89453,204.359L401.13216,205.07188
				L401.84508,205.54714L400.89453,206.49764L398.04288,209.58679L392.10194,213.38882L388.77501,216.95322L385.44809,219.80474
				L384.02226,221.70576L383.07171,223.60677L383.07171,225.74541L382.12116,229.54744L381.17061,233.34947L380.69534,236.91387
				L379.74479,240.00302L378.5566,241.90403L378.08132,243.80504L376.6555,246.18131L374.7544,248.7952L373.80385,249.98334L372.8533,251.88435
				L371.66511,253.54774L370.47692,255.68638L368.81346,257.82502L367.62527,260.20129L365.48653,263.29044L364.06071,265.42908
				L362.39725,267.56772L358.83268,273.27076L358.11977,274.93415L354.79284,279.92431L353.84229,281.5877L353.36702,282.06295L
				349.80246,287.29074L348.13899,289.19175L344.81207,294.41954L343.38624,296.32055L339.3464,302.26122L338.15822,303.68698L334.35602,309.62765
				L333.40547,310.81579L329.36563,317.23171L328.89035,318.18221L324.85052,323.64763L323.42469,324.59814L322.94941,325.78627
				L322.2365,326.49915L321.28595,327.92491L320.57304,327.68728L320.09776,327.21203L319.86013,326.9744L319.62249,326.49915L318.90958,326.0239
				L318.67194,325.78627L318.19666,325.78627L317.72139,325.54864L317.48375,325.31102L317.24611,325.31102L316.77084,325.07339
				L316.29556,324.59814L316.05793,324.12288L315.82029,323.88526L315.34501,323.64763L315.10738,323.17238L314.6321,323.17238L
				314.15683,322.93475L313.91919,322.69712L313.44391,322.4595L313.20628,322.22187L312.96864,321.98424L312.49336,321.74662L312.25573,321.74662
				L311.78045,321.50899L311.30518,321.27136L310.8299,321.27136L310.59226,321.27136L310.35463,321.03374L309.87935,321.03374L
				309.40408,320.79611L308.9288,320.55848L308.69116,320.32086L308.9288,320.08323L308.69116,319.8456L308.21589,319.8456L307.97825,319.8456
				L307.50297,319.60798L307.26534,319.37035L307.0277,318.8951L306.79006,318.41984L306.55242,318.18221L306.31479,317.70696L306.07715,317.23171
				L305.83951,316.99408L305.83951,316.75645L305.60187,316.2812L305.83951,316.2812L306.07715,316.04357L305.83951,315.56832L305.60187,315.33069
				L305.60187,314.85544L305.1266,314.38019L305.1266,314.14256L305.1266,313.66731L304.88896,313.42968L304.41369,313.19205L304.41369,312.7168
				L304.17605,312.24155L303.70077,312.00392L303.46314,312.00392L302.98786,311.76629L302.51259,311.76629L302.27495,311.76629
				L301.56204,311.76629L301.08676,311.52867L300.61149,311.29104L299.89857,311.29104L299.66094,311.29104L299.66094,310.81579
				L299.66094,310.57816L299.66094,310.34053L299.4233,309.86528L299.4233,309.62765L299.18566,309.1524L298.94802,308.67715L299.18566,308.43952
				L298.94802,308.20189L298.71039,307.96426L298.47275,307.48901L298.23511,307.48901L297.99747,307.25138L297.5222,307.01376L
				297.28456,306.77613L296.80929,306.77613L296.33401,307.01376L295.85874,307.01376L295.6211,307.01376L295.38346,306.77613L295.38346,306.5385
				L295.14582,306.30088L294.90819,305.82562L294.43291,305.35037L294.19527,305.11274L293.72,304.87512L293.24472,304.87512L293.24472,305.11274
				L292.76945,305.588L292.76945,306.06325L292.29417,306.30088L292.05653,306.06325L291.58126,306.30088L291.34362,306.30088L290.86835,306.30088
				L290.63071,306.5385L290.39307,306.77613L290.15543,307.01376L289.9178,307.25138L289.68016,307.01376L288.96725,307.25138L288.49197,307.25138
				L288.0167,307.01376L287.54142,306.5385L287.30378,306.30088L286.82851,306.30088L286.35323,306.5385L285.87796,306.77613L285.16505,307.01376
				L284.68977,306.77613L284.45213,306.5385L283.97686,306.06325L283.73922,305.588L283.26395,305.11274L283.02631,304.87512L282.55103,305.11274
				L282.3134,305.35037L282.07576,305.11274L281.83812,305.11274L281.60048,304.87512L281.60048,304.16224L281.36285,303.68698L
				281.36285,303.44936L281.36285,303.21173L281.12521,303.21173L280.64993,302.9741L280.4123,302.9741L279.93702,302.73648L279.69938,302.49885
				L279.69938,302.0236L279.69938,301.78597L279.93702,301.78597L279.69938,301.31072L279.46175,301.07309L279.22411,301.07309L
				278.98647,300.83546L278.5112,300.59784L278.5112,300.12258L278.03592,299.64733L278.03592,299.17208L278.03592,298.93445L277.79828,298.69682
				L277.56065,298.22157L277.08537,297.98394L276.84773,298.22157L276.61009,298.22157L276.61009,297.98394L276.61009,297.74631
				L276.61009,297.50869L276.37246,297.50869L276.13482,297.27106L276.13482,297.03343L275.89718,296.55818L275.65954,296.79581
				L275.42191,297.03343L275.18427,297.03343L274.94663,297.03343L274.47136,296.79581L274.23372,296.55818L273.99608,295.8453L
				273.75844,295.37005L273.99608,295.13242L273.75844,294.89479L273.28317,294.89479L273.04553,294.65717L273.04553,294.18191L
				273.04553,293.94429L273.28317,293.70666L273.28317,293.23141L273.04553,292.75615L272.80789,292.75615L272.57026,292.51853L
				272.33262,292.2809L271.85734,292.04327L271.61971,292.04327L271.14443,292.04327L270.90679,291.56802L270.90679,291.09277L270.90679,290.37989
				L270.90679,290.14226L270.43152,289.90463L270.19388,289.90463L270.19388,290.14226L270.19388,290.37989L270.43152,290.85514
				L270.19388,290.85514L269.95624,290.85514L269.71861,290.37989L269.48097,289.66701L269.48097,289.19175L270.66916,286.34023
				L272.09498,279.44906L274.23372,272.08263L275.65954,265.42908L276.61009,258.30027L278.27356,251.88435L279.69938,245.2308L
				280.88757,238.33963L281.12521,235.96336L281.83812,231.21083L281.83812,230.49795L282.07576,224.08202L282.55103,222.18101L
				282.55103,217.19085L286.1156,212.67594L288.96725,210.5373L290.86835,208.16103L291.10598,205.07188L291.8189,200.55698L293.00709,198.89359
				L293.48236,198.89359L294.43291,198.65596L294.90819,198.41833L295.14582,197.94308L295.85874,197.2302L296.57165,196.51732L
				296.80929,196.04207L297.28456,195.32919L297.75984,194.85393L298.23511,194.37868L299.18566,193.6658L299.66094,193.19055L300.37385,192.71529
				L300.84912,192.47767L301.56204,192.24004L302.98786,192.00241L303.46314,192.00241L304.41369,192.24004L304.88896,192.47767
				L305.60187,192.95292L306.31479,193.6658L307.26534,194.37868L308.21589,194.85393L308.69116,195.09156L308.9288,195.09156L309.64171,195.09156
				L310.11699,194.85393L310.35463,194.61631L310.59226,194.61631L310.8299,194.14105L310.8299,193.90343L311.30518,192.95292L311.54281,192.47767
				L312.25573,191.76479L313.20628,191.05191L313.44391,191.05191L313.68155,190.81428L313.91919,190.81428L314.39446,191.05191
				L314.86974,191.28953L315.58265,192.00241L316.05793,192.47767L316.5332,192.71529L318.19666,193.42817L319.38485,193.42817L
				319.86013,193.42817L320.3354,193.19055L320.57304,192.71529L321.04831,191.05191L321.52359,190.1014L321.76123,189.62614L322.71178,189.38852
				L323.42469,189.38852L324.85052,189.62614L327.46453,190.57665L328.41508,190.81428L329.60327,191.05191L330.31618,191.05191
				L331.26673,191.05191L331.50437,190.81428L331.50437,190.57665L331.50437,190.1014L331.50437,189.15089L331.742,188.67564L332.21728,188.20038
				L332.69255,187.24988L333.16783,187.01225L334.11838,186.77462L334.59365,187.01225L335.06893,187.24988L335.30657,187.96276
				L335.78184,188.43801L336.73239,189.15089L337.4453,189.62614L337.92058,189.62614L338.63349,189.62614"/>
			<path clip-path="url(#SVG_CP_1)" fill="none" stroke="#000000" stroke-width="0.47528" stroke-miterlimit="10" stroke-linecap="round" stroke-linejoin="round" d="
				M293.00709,198.89359L291.8189,200.55698L291.10598,205.07188L290.86835,208.16103L288.96725,210.5373L286.1156,212.67594L282.55103,217.19085
				L282.55103,222.18101L282.07576,224.08202L281.83812,230.49795L281.83812,231.21083L281.12521,235.96336L280.88757,238.33963
				L279.69938,245.2308L278.27356,251.88435L276.61009,258.30027L275.65954,265.42908L274.23372,272.08263L272.09498,279.44906L
				270.66916,286.34023L269.48097,289.19175L267.57987,289.19175L266.62932,288.95412L265.91641,288.95412L264.72822,288.95412L
				264.01531,288.7165L263.06476,288.7165L262.35184,288.47887L261.63893,288.47887L250.23233,287.52836L249.28178,288.7165L245.24194,293.70666
				L243.57848,296.32055L242.39029,297.50869L241.43974,298.45919L240.72683,298.93445L239.77628,298.93445L239.53864,298.45919
				L239.06336,298.45919L239.06336,299.4097L239.301,300.12258L239.301,301.07309L238.82573,302.0236L237.87518,302.9741L237.63754,303.21173
				L236.92463,302.26122L236.44935,301.31072L235.97408,300.36021L235.26116,299.4097L235.02353,298.93445L234.78589,298.69682L
				234.31061,297.74631L234.07298,297.27106L233.83534,296.79581L233.83534,295.60767L234.07298,294.89479L234.78589,292.51853L
				235.02353,292.04327L235.02353,291.33039L234.78589,290.37989L234.54825,289.66701L234.31061,288.47887L234.07298,287.52836L
				234.07298,286.57786L234.31061,285.86498L235.26116,284.91447L235.73644,283.96396L235.97408,282.77583L236.21171,282.06295L
				236.21171,281.11244L235.4988,280.16194L235.02353,279.68668L234.54825,278.73617L233.83534,277.31041L233.83534,276.83516L233.83534,276.12228
				L234.31061,274.93415L234.54825,273.74601L234.78589,272.79551L234.78589,269.70636L234.78589,268.99348L234.78589,267.80534
				L234.78589,266.37958L234.54825,264.7162L234.54825,263.76569L234.78589,262.33993L235.02353,261.38942L235.4988,260.20129L235.97408,258.77553
				L236.68699,257.58739L237.3999,256.87451L239.301,254.9735L240.01391,253.54774L240.48919,252.59723L240.96446,251.64673L241.91501,250.69622
				L242.62793,249.98334L243.57848,249.03283L244.05375,248.31995L244.76666,247.36944L245.24194,246.65656L245.47958,245.94368
				L245.24194,245.2308L245.24194,244.51792L245.47958,243.80504L245.47958,243.09216L245.71721,242.61691L245.95485,241.90403L
				245.95485,241.6664L246.19249,241.6664L246.66777,240.95352L246.66777,240.47827L247.61832,239.29013L248.09359,238.57725L248.56887,237.38912
				L248.56887,236.43861L248.09359,235.01285L248.09359,233.34947L248.09359,232.39896L248.33123,231.21083L248.56887,229.78506
				L248.8065,229.54744L249.51942,229.07218L249.51942,228.59693L249.28178,227.88405L249.51942,227.4088L249.75705,226.93354L249.99469,226.45829
				L250.23233,225.98304L250.7076,225.74541L251.18288,225.27016L250.94524,224.31965L250.7076,223.60677L250.23233,222.65626L249.99469,221.70576
				L249.75705,220.51762L249.51942,219.56711L249.04414,218.61661L248.56887,217.6661L247.85595,216.95322L247.14304,216.00271L
				246.19249,215.28983L245.95485,214.57695L246.19249,213.86407L246.66777,213.15119L246.9054,212.91357L246.9054,212.20069L246.66777,211.72543
				L246.66777,211.01255L245.95485,210.5373L245.71721,209.82442L245.71721,209.34916L245.95485,208.87391L245.95485,208.39866L
				245.95485,208.16103L245.71721,207.9234L245.24194,207.68578L244.52903,207.9234L243.81611,207.9234L243.57848,207.44815L243.1032,207.21052
				L242.86556,206.26002L242.86556,205.78476L243.1032,205.30951L242.86556,205.07188L242.86556,204.359L243.1032,203.88375L242.62793,203.64612
				L242.39029,203.4085L242.62793,202.93324L243.1032,202.45799L243.1032,201.26986L243.1032,200.08172L243.1032,199.13121L242.86556,198.18071
				L242.86556,197.2302L243.34084,196.27969L243.57848,195.32919L243.57848,194.61631L243.34084,193.6658L243.1032,192.71529L243.34084,192.47767
				L243.81611,192.00241L244.05375,191.05191L244.29139,189.62614L244.52903,188.43801L244.05375,186.29937L243.34084,185.34886
				L242.86556,185.34886L242.62793,185.34886L242.39029,185.11124L242.39029,184.63598L242.15265,184.16073L242.15265,183.68548
				L242.39029,183.44785L242.62793,183.21022L242.39029,182.9726L242.39029,182.73497L242.39029,182.49734L242.15265,182.25972L
				242.15265,182.02209L241.91501,181.78446L241.91501,181.54684L242.39029,181.30921L242.62793,181.07158L242.86556,180.83396L
				243.1032,180.83396L243.34084,180.59633L243.57848,180.3587L243.57848,179.64582L243.57848,179.17057L243.57848,178.69531L243.34084,178.45769
				L243.34084,178.22006L243.34084,177.98243L243.1032,177.74481L242.86556,177.74481L242.39029,177.74481L242.15265,177.50718L
				242.15265,177.26955L242.15265,177.03193L242.15265,176.55667L241.91501,175.84379L241.67738,175.13091L241.67738,174.89329L
				241.67738,174.41803L241.91501,174.18041L242.15265,173.94278L242.15265,173.70515L242.15265,173.46753L242.15265,172.99227L
				242.15265,172.75465L241.91501,172.27939L241.91501,172.04177L241.67738,172.04177L241.67738,171.56651L241.91501,171.32889L
				242.15265,171.09126L242.15265,170.85363L242.39029,170.616L242.62793,170.37838L242.86556,170.37838L243.1032,170.37838L243.34084,170.14075
				L243.34084,169.90312L243.57848,169.90312L243.57848,169.6655L243.81611,169.42787L243.81611,169.19024L243.57848,168.71499L
				243.81611,167.76448L244.76666,167.28923L245.47958,167.76448L245.95485,168.00211L246.9054,168.00211L248.33123,168.00211L249.28178,168.23974
				L249.75705,168.47736L250.23233,168.71499L250.7076,169.19024L251.89579,171.32889L252.37107,171.80414L252.6087,171.80414L253.55925,171.80414
				L254.5098,171.32889L255.22272,170.37838L255.69799,170.14075L255.93563,170.14075L256.17327,170.37838L256.17327,171.32889L
				255.93563,172.51702L255.93563,173.46753L256.17327,174.65566L256.4109,175.60617L256.64854,175.84379L257.12382,176.08142L257.83673,175.84379
				L258.54964,175.36854L259.50019,173.70515L260.2131,173.2299L260.68838,173.2299L261.16365,173.2299L262.11421,173.2299L263.54003,173.94278
				L264.96586,174.89329L265.44113,175.13091L265.67877,175.36854L265.67877,175.60617L265.91641,176.08142L266.15404,177.98243
				L266.39168,178.69531L266.62932,179.17057L266.86696,179.88345L267.57987,180.59633L268.05514,180.83396L268.53042,180.83396
				L269.95624,180.59633L272.80789,180.3587L274.23372,180.3587L275.18427,180.3587L275.89718,180.59633L276.61009,180.83396L277.08537,181.54684
				L278.03592,183.44785L278.03592,183.9231L278.74883,184.63598L278.98647,184.87361L279.69938,186.29937L279.93702,187.01225L
				279.69938,187.24988L279.69938,187.72513L279.93702,188.43801L280.17466,188.67564L280.4123,188.67564L281.12521,189.15089L281.83812,189.38852
				L282.3134,189.15089L282.55103,189.38852L282.78867,189.38852L283.02631,189.62614L283.50158,189.86377L283.97686,190.1014L284.68977,190.33902
				L285.16505,190.33902L285.87796,190.33902L286.35323,190.33902L286.59087,190.33902L287.06615,190.33902L287.30378,190.81428
				L287.77906,191.28953L287.77906,191.52716L288.25433,191.76479L288.49197,192.24004L288.72961,192.71529L288.96725,193.42817
				L289.44252,194.37868L289.68016,195.32919L289.9178,196.04207L290.15543,196.51732L290.63071,197.2302L291.58126,198.18071L291.8189,198.65596
				L292.05653,198.89359L292.53181,198.89359L293.00709,198.89359"/>
			<path clip-path="url(#SVG_CP_1)" fill="none" stroke="#000000" stroke-width="0.47528" stroke-miterlimit="10" stroke-linecap="round" stroke-linejoin="round" d="
				M337.20767,162.29907L337.20767,163.24958L337.20767,163.72483L336.97003,163.96246L336.73239,164.43771L336.73239,165.15059
				L336.97003,165.38822L336.97003,166.1011L336.73239,166.57635L336.25712,167.28923L335.78184,167.76448L335.06893,168.00211L
				334.59365,168.47736L334.83129,168.95262L335.06893,169.6655L335.06893,170.616L335.5442,171.56651L336.25712,172.27939L336.49475,173.46753
				L336.01948,174.18041L335.5442,174.65566L335.78184,175.60617L336.25712,175.60617L336.73239,176.08142L336.97003,176.7943L337.20767,177.03193
				L337.68294,177.03193L337.92058,177.26955L337.68294,177.50718L337.68294,177.74481L337.4453,177.74481L337.4453,177.98243L337.4453,178.22006
				L337.68294,178.45769L337.68294,178.69531L337.4453,178.93294L337.20767,179.17057L337.20767,179.40819L336.97003,179.64582L
				336.73239,179.64582L336.25712,179.64582L336.25712,179.88345L336.01948,180.3587L336.01948,180.59633L335.78184,180.83396L335.78184,181.07158
				L336.01948,181.30921L336.25712,181.30921L336.49475,181.54684L336.49475,182.02209L336.25712,182.25972L336.49475,182.73497
				L336.73239,183.21022L336.97003,183.21022L336.97003,183.68548L337.20767,184.16073L337.68294,184.16073L337.92058,184.16073
				L338.63349,184.39836L338.87113,184.39836L339.58404,184.87361L339.10877,185.34886L339.10877,185.58649L339.10877,186.29937
				L339.10877,187.01225L339.10877,187.72513L339.3464,188.67564L339.3464,189.38852L339.10877,189.62614L338.63349,189.62614L337.92058,189.62614
				L337.4453,189.62614L336.73239,189.15089L335.78184,188.43801L335.30657,187.96276L335.06893,187.24988L334.59365,187.01225L
				334.11838,186.77462L333.16783,187.01225L332.69255,187.24988L332.21728,188.20038L331.742,188.67564L331.50437,189.15089L331.50437,190.1014
				L331.50437,190.57665L331.50437,190.81428L331.26673,191.05191L330.31618,191.05191L329.60327,191.05191L328.41508,190.81428
				L327.46453,190.57665L324.85052,189.62614L323.42469,189.38852L322.71178,189.38852L321.76123,189.62614L321.52359,190.1014L
				321.04831,191.05191L320.57304,192.71529L320.3354,193.19055L319.86013,193.42817L319.38485,193.42817L318.19666,193.42817L316.5332,192.71529
				L316.05793,192.47767L315.58265,192.00241L314.86974,191.28953L314.39446,191.05191L313.91919,190.81428L313.68155,190.81428
				L313.44391,191.05191L313.20628,191.05191L312.25573,191.76479L311.54281,192.47767L311.30518,192.95292L310.8299,193.90343L
				310.8299,194.14105L310.59226,194.61631L310.35463,194.61631L310.11699,194.85393L309.64171,195.09156L308.9288,195.09156L308.69116,195.09156
				L308.21589,194.85393L307.26534,194.37868L306.31479,193.6658L305.60187,192.95292L304.88896,192.47767L304.41369,192.24004L
				303.46314,192.00241L302.98786,192.00241L301.56204,192.24004L300.84912,192.47767L300.37385,192.71529L299.66094,193.19055L
				299.18566,193.6658L298.23511,194.37868L297.75984,194.85393L297.28456,195.32919L296.80929,196.04207L296.57165,196.51732L295.85874,197.2302
				L295.14582,197.94308L294.90819,198.41833L294.43291,198.65596L293.48236,198.89359L293.00709,198.89359L292.53181,198.89359
				L292.05653,198.89359L291.8189,198.65596L291.58126,198.18071L290.63071,197.2302L290.15543,196.51732L289.9178,196.04207L289.68016,195.32919
				L289.44252,194.37868L288.96725,193.42817L288.72961,192.71529L288.49197,192.24004L288.25433,191.76479L287.77906,191.52716
				L287.77906,191.28953L287.30378,190.81428L287.06615,190.33902L286.59087,190.33902L286.35323,190.33902L285.87796,190.33902
				L285.16505,190.33902L284.68977,190.33902L283.97686,190.1014L283.50158,189.86377L283.02631,189.62614L282.78867,189.38852L
				282.55103,189.38852L282.3134,189.15089L281.83812,189.38852L281.12521,189.15089L280.4123,188.67564L280.17466,188.67564L279.93702,188.43801
				L279.69938,187.72513L279.69938,187.24988L279.93702,187.01225L279.69938,186.29937L278.98647,184.87361L278.74883,184.63598
				L278.03592,183.9231L278.03592,183.44785L277.08537,181.54684L276.61009,180.83396L275.89718,180.59633L275.18427,180.3587L274.23372,180.3587
				L272.80789,180.3587L269.95624,180.59633L268.53042,180.83396L268.05514,180.83396L267.57987,180.59633L266.86696,179.88345L
				266.62932,179.17057L266.39168,178.69531L266.15404,177.98243L265.91641,176.08142L265.67877,175.60617L265.67877,175.36854L
				265.44113,175.13091L264.96586,174.89329L263.54003,173.94278L262.11421,173.2299L261.16365,173.2299L260.68838,173.2299L260.2131,173.2299
				L259.50019,173.70515L258.54964,175.36854L257.83673,175.84379L257.12382,176.08142L256.64854,175.84379L256.4109,175.60617L
				256.17327,174.65566L255.93563,173.46753L255.93563,172.51702L256.17327,171.32889L256.17327,170.37838L255.93563,170.14075L
				255.69799,170.14075L255.22272,170.37838L254.5098,171.32889L253.55925,171.80414L252.6087,171.80414L252.37107,171.80414L251.89579,171.32889
				L250.7076,169.19024L250.23233,168.71499L249.75705,168.47736L249.28178,168.23974L248.33123,168.00211L246.9054,168.00211L245.95485,168.00211
				L245.47958,167.76448L244.76666,167.28923L244.76666,166.33872L244.76666,165.62584L243.57848,164.20008L241.91501,163.01195
				L240.72683,162.77432L239.53864,162.5367L237.63754,163.01195L236.68699,163.24958L235.73644,164.20008L235.26116,164.67534L
				234.31061,164.67534L233.83534,164.43771L233.36006,163.96246L232.17188,163.72483L231.6966,163.24958L231.22133,161.82382L229.55786,159.68517
				L228.84495,159.44755L227.65676,158.73467L227.8944,158.73467L227.8944,158.49704L228.13204,158.49704L228.36967,158.49704L228.36967,158.25941
				L228.60731,158.25941L228.60731,158.49704L228.84495,158.49704L228.84495,158.73467L229.08259,158.73467L229.08259,158.97229
				L229.32022,158.97229L229.55786,158.97229L229.7955,159.20992L230.03314,159.20992L230.03314,159.44755L230.27077,159.44755L
				230.50841,159.44755L230.74605,159.44755L230.74605,159.68517L230.98369,159.68517L230.98369,159.44755L231.22133,159.44755L
				231.45896,159.44755L231.6966,159.44755L231.93424,159.44755L232.17188,159.44755L232.40951,159.44755L232.64715,159.44755L232.88479,159.44755
				L232.88479,159.20992L232.64715,159.20992L232.64715,158.97229L232.40951,158.97229L232.40951,158.73467L232.64715,158.49704
				L232.88479,158.49704L232.88479,158.25941L232.64715,158.25941L232.64715,158.02179L232.64715,157.78416L232.40951,157.78416
				L232.40951,157.54653L232.40951,157.30891L232.40951,157.07128L232.40951,156.83365L232.64715,156.83365L232.64715,156.59603
				L232.88479,156.59603L232.88479,156.3584L233.12243,156.3584L233.36006,156.3584L233.5977,156.3584L233.5977,156.12077L233.83534,156.12077
				L233.83534,155.88315L234.07298,155.88315L234.07298,155.64552L234.07298,155.40789L234.07298,155.17027L234.31061,155.17027
				L234.54825,155.17027L234.54825,154.93264L234.31061,154.93264L234.31061,154.69501L234.31061,154.45739L234.54825,154.45739
				L234.54825,154.21976L234.54825,153.98213L234.78589,153.98213L235.02353,153.98213L235.26116,153.98213L235.4988,153.98213L
				235.4988,153.74451L235.73644,153.74451L235.73644,153.50688L235.97408,153.26925L236.21171,153.03163L236.44935,153.03163L236.68699,152.794
				L236.92463,152.794L236.92463,153.03163L237.16226,153.26925L237.16226,153.50688L237.3999,153.50688L237.63754,153.50688L237.87518,153.50688
				L238.11281,153.26925L238.35045,153.26925L238.58809,153.26925L238.82573,153.26925L239.06336,153.26925L239.06336,153.03163
				L239.06336,152.794L239.06336,152.55637L239.301,152.55637L239.53864,152.55637L239.53864,152.794L239.77628,152.794L240.01391,152.794
				L240.25155,152.794L240.48919,152.55637L240.48919,152.31875L240.72683,152.31875L240.72683,152.08112L240.72683,151.84349L240.96446,151.84349
				L241.2021,151.84349L241.43974,151.84349L241.43974,151.60587L241.67738,151.60587L241.91501,151.36824L242.15265,151.36824L
				242.39029,151.36824L242.39029,151.60587L242.62793,151.60587L242.86556,151.36824L242.86556,151.13061L242.86556,150.89298L
				243.1032,150.65536L243.1032,150.41773L243.34084,150.41773L243.57848,150.41773L243.57848,150.1801L243.81611,150.1801L244.05375,150.41773
				L244.29139,150.41773L244.52903,150.41773L244.76666,150.65536L245.0043,150.65536L245.24194,150.41773L245.47958,150.1801L245.71721,150.1801
				L245.95485,149.94248L245.95485,149.70485L246.19249,149.70485L246.43013,149.70485L246.66777,149.70485L246.66777,149.46722
				L246.9054,149.46722L247.14304,149.46722L247.14304,149.2296L247.38068,149.2296L247.38068,148.99197L247.61832,148.99197L247.85595,149.2296
				L248.09359,149.2296L248.33123,149.2296L248.33123,148.99197L248.33123,148.75434L248.33123,148.51672L248.33123,148.27909L248.56887,148.04146
				L248.8065,148.04146L249.04414,148.04146L249.28178,147.80384L249.51942,147.56621L249.51942,147.32858L249.28178,147.09096L
				249.28178,146.85333L249.04414,146.85333L249.04414,146.6157L249.28178,146.6157L249.28178,146.37808L249.51942,146.37808L249.51942,146.14045
				L249.75705,146.14045L249.75705,145.90282L249.75705,145.6652L249.99469,145.42757L249.99469,145.18994L250.23233,145.18994L
				250.23233,144.95232L250.46997,144.95232L250.46997,144.71469L250.7076,144.47706L250.7076,144.23944L250.94524,144.23944L251.18288,144.00181
				L251.42052,144.00181L251.65815,144.00181L251.89579,144.00181L252.13343,144.00181L252.37107,144.00181L252.37107,143.76418
				L252.6087,143.76418L252.84634,143.76418L253.08398,143.76418L253.08398,143.52656L253.32162,143.52656L253.32162,143.28893L
				253.32162,143.0513L253.55925,142.81368L253.79689,142.57605L254.03453,142.33842L254.03453,142.1008L254.27217,142.1008L254.5098,141.86317
				L254.5098,141.62554L254.74744,141.62554L254.74744,141.38792L254.98508,141.38792L254.98508,141.15029L255.22272,140.91266L
				255.46035,140.67503L255.69799,140.43741L255.69799,140.19978L255.69799,139.96215L255.69799,139.72453L255.69799,139.4869L255.69799,139.24927
				L255.69799,139.01165L255.69799,138.77402L255.93563,138.77402L255.93563,138.53639L256.17327,138.29877L256.17327,138.06114
				L256.17327,137.82351L256.17327,137.58589L255.93563,137.58589L255.93563,137.34826L256.17327,137.11063L256.4109,137.11063L
				256.64854,137.11063L256.88618,137.11063L256.88618,137.34826L257.12382,137.58589L257.12382,137.82351L257.36145,137.82351L
				257.59909,137.82351L257.83673,137.82351L258.07437,137.82351L258.312,137.58589L258.54964,137.34826L258.78728,137.11063L259.02492,136.87301
				L259.02492,136.63538L259.26255,136.39775L259.50019,136.39775L259.73783,136.16013L259.97547,136.16013L260.2131,135.9225L260.45074,135.9225
				L260.68838,135.68487L260.92602,135.68487L261.16365,135.44725L261.40129,135.44725L261.63893,135.20962L261.87657,135.20962
				L262.11421,134.97199L262.35184,134.97199L262.58948,134.73437L262.82712,134.49674L263.06476,134.49674L263.06476,134.25911
				L263.30239,134.25911L263.30239,134.02149L263.54003,133.78386L263.77767,133.54623L263.77767,133.30861L264.01531,133.07098
				L264.01531,132.83335L264.01531,132.59573L264.25294,132.59573L264.25294,132.3581L264.49058,132.3581L264.72822,132.3581L264.96586,132.12047
				L265.20349,131.88285L265.44113,131.88285L265.67877,131.64522L265.91641,131.64522L266.15404,131.64522L266.62932,131.40759
				L266.86696,131.16996L267.34223,130.93234L337.20767,162.29907"/>
			<path clip-path="url(#SVG_CP_1)" fill="none" stroke="#000000" stroke-width="0.47528" stroke-miterlimit="10" stroke-linecap="round" stroke-linejoin="round" d="
				M350.99064,124.75404L350.99064,125.2293L350.99064,125.46692L350.99064,125.94218L350.99064,126.41743L350.75301,126.89268L
				350.51537,127.60556L350.51537,128.08082L350.51537,128.31844L350.51537,128.55607L350.51537,129.03132L350.99064,129.26895L
				350.51537,129.7442L350.04009,130.45708L349.80246,130.69471L349.32718,130.69471L349.32718,130.93234L348.85191,131.16996L348.85191,131.88285
				L348.61427,133.07098L348.61427,133.78386L348.85191,134.25911L348.61427,134.73437L348.61427,135.68487L348.61427,136.39775
				L349.08954,137.11063L349.80246,137.58589L349.32718,138.06114L349.32718,138.29877L349.32718,138.53639L348.85191,138.53639
				L348.85191,138.77402L348.85191,139.01165L349.32718,139.24927L349.08954,139.4869L348.85191,139.4869L348.85191,139.96215L348.85191,140.67503
				L349.08954,141.15029L348.85191,141.62554L348.37663,141.86317L348.13899,141.62554L347.90136,141.62554L347.42608,142.1008L
				347.18844,142.33842L346.00026,142.57605L346.00026,142.81368L345.76262,143.28893L345.52498,144.23944L345.04971,144.71469L
				345.04971,145.6652L344.81207,146.14045L344.09916,146.85333L343.86152,147.09096L344.09916,147.56621L343.86152,147.80384L343.38624,147.80384
				L343.14861,148.04146L342.91097,148.51672L342.91097,148.75434L342.91097,148.99197L342.67333,149.46722L342.43569,149.94248
				L342.43569,150.1801L341.96042,150.89298L341.96042,151.13061L341.48514,151.60587L341.24751,152.08112L341.00987,152.08112L
				340.77223,152.31875L340.77223,152.55637L340.77223,152.794L340.77223,153.03163L340.77223,153.26925L340.53459,153.26925L340.29696,153.50688
				L340.29696,154.21976L340.29696,155.64552L340.05932,156.12077L340.05932,156.59603L339.58404,156.83365L339.3464,157.07128L
				339.3464,157.30891L338.87113,157.54653L338.87113,157.78416L339.58404,158.25941L340.05932,158.73467L340.05932,158.97229L339.58404,159.44755
				L338.87113,159.44755L338.39585,159.20992L337.68294,159.44755L337.68294,159.68517L337.92058,160.16043L338.63349,160.63568
				L338.87113,161.11094L338.87113,161.34856L338.87113,161.58619L339.10877,161.82382L338.87113,162.06144L338.87113,162.29907
				L338.63349,162.29907L338.39585,161.82382L338.15822,161.82382L337.68294,161.82382L337.20767,162.29907L267.34223,130.93234
				L267.57987,130.93234L267.81751,130.69471L267.81751,130.45708L268.05514,130.45708L268.05514,130.21946L268.29278,130.21946
				L268.53042,129.98183L268.76806,129.7442L269.00569,129.50658L269.24333,129.26895L269.24333,129.03132L269.24333,128.7937L269.48097,128.7937
				L269.71861,128.7937L269.95624,129.03132L270.19388,129.03132L270.43152,129.03132L270.66916,129.03132L270.90679,128.7937L271.14443,128.7937
				L271.14443,129.03132L271.38207,129.03132L271.61971,129.03132L271.85734,129.26895L272.09498,129.26895L272.33262,129.26895
				L272.57026,129.26895L272.57026,129.03132L272.80789,129.03132L273.04553,128.7937L273.28317,128.55607L273.52081,128.55607L
				273.52081,128.31844L273.75844,128.31844L273.99608,128.31844L274.23372,128.31844L274.47136,128.31844L274.70899,128.31844L
				274.70899,128.08082L274.94663,128.08082L274.94663,127.84319L274.94663,127.60556L275.18427,127.60556L275.18427,127.36794L
				275.18427,127.13031L275.42191,127.13031L275.65954,127.13031L275.89718,127.36794L275.89718,127.13031L276.13482,127.13031L
				276.37246,127.13031L276.37246,126.89268L276.61009,126.89268L276.84773,126.89268L277.08537,127.13031L277.32301,127.13031L
				277.32301,127.36794L277.56065,127.36794L277.79828,127.36794L278.03592,127.36794L278.03592,127.60556L278.27356,127.60556L
				278.5112,127.36794L278.74883,127.36794L278.74883,127.13031L278.98647,127.13031L278.98647,127.36794L279.22411,127.36794L279.22411,127.60556
				L279.46175,127.84319L279.69938,127.84319L279.69938,128.08082L279.93702,128.08082L280.17466,127.84319L280.4123,127.84319L
				280.64993,127.84319L280.88757,127.84319L281.12521,127.60556L281.12521,127.36794L281.36285,127.36794L281.36285,127.13031L
				281.36285,126.89268L281.36285,126.65506L281.60048,126.65506L281.60048,126.41743L281.60048,126.1798L281.36285,126.1798L281.36285,125.94218
				L281.36285,125.70455L281.60048,125.70455L281.83812,125.46692L282.07576,125.46692L282.07576,125.2293L282.3134,125.2293L282.3134,124.99167
				L282.55103,124.75404L282.78867,124.75404L282.78867,124.51642L283.02631,124.51642L283.26395,124.75404L283.50158,124.75404
				L283.73922,124.99167L283.97686,124.99167L284.2145,124.99167L284.45213,124.99167L284.68977,124.99167L284.92741,125.2293L285.16505,125.2293
				L285.40268,125.2293L285.64032,124.99167L285.87796,124.99167L286.1156,124.75404L286.35323,124.75404L286.59087,124.75404L286.59087,124.51642
				L286.82851,124.51642L287.06615,124.51642L287.30378,124.51642L287.54142,124.51642L287.77906,124.51642L288.0167,124.51642L
				288.25433,124.51642L288.25433,124.27879L288.49197,124.27879L288.72961,124.27879L288.96725,124.27879L289.44252,124.51642L
				289.68016,124.27879L289.9178,124.27879L290.15543,124.04116L290.39307,123.80354L290.63071,123.80354L290.86835,123.56591L291.10598,123.32828
				L291.34362,123.32828L291.8189,123.09066L292.05653,122.85303L292.05653,122.6154L292.53181,122.6154L292.76945,122.37778L293.00709,122.37778
				L293.48236,122.37778L293.72,122.37778L293.95764,122.37778L294.19527,122.37778L294.43291,122.14015L294.67055,122.14015L294.90819,122.14015
				L294.90819,121.90252L295.14582,121.90252L295.14582,121.6649L295.38346,121.6649L295.6211,121.42727L295.85874,121.42727L296.09637,121.18964
				L296.33401,121.18964L296.57165,121.18964L296.57165,121.42727L296.80929,121.42727L296.80929,121.6649L297.04692,121.6649L297.28456,121.90252
				L297.5222,121.90252L297.75984,121.90252L297.99747,121.6649L298.23511,121.6649L298.23511,121.42727L298.23511,121.18964L298.47275,120.95201
				L298.71039,120.71439L298.94802,120.71439L299.18566,120.71439L299.4233,120.71439L299.66094,120.71439L299.89857,120.71439L
				300.13621,120.71439L300.37385,120.71439L300.61149,120.47676L300.84912,120.47676L301.08676,120.23913L301.3244,120.23913L301.3244,120.00151
				L301.56204,119.76388L301.79967,119.52625L302.27495,119.52625L302.51259,119.28863L302.75022,119.051L302.98786,118.81337L303.2255,118.33812
				L303.46314,118.10049L303.70077,117.86287L303.93841,117.38761L304.17605,117.38761L304.41369,117.14999L304.65132,117.14999
				L304.88896,117.14999L304.88896,117.38761L305.1266,117.38761L305.36424,117.62524L305.60187,117.86287L305.83951,117.86287L
				306.07715,118.10049L306.31479,118.10049L306.55242,118.10049L306.79006,118.10049L307.26534,118.10049L307.50297,118.10049L
				307.74061,118.10049L307.97825,117.86287L308.21589,117.62524L308.69116,117.14999L308.9288,116.67473L309.16644,116.19948L309.40408,115.96185
				L309.64171,115.4866L309.87935,115.24897L310.11699,115.01135L310.11699,114.77372L310.11699,114.53609L310.11699,114.29847L
				310.11699,114.06084L310.35463,113.82321L310.35463,113.58559L310.35463,113.11033L310.59226,112.87271L310.8299,112.63508L310.8299,112.39745
				L310.8299,112.15983L311.06754,112.15983L311.06754,111.9222L311.30518,111.9222L311.54281,111.9222L311.78045,111.9222L312.01809,111.9222
				L312.25573,111.9222L312.49336,111.20932L312.49336,110.97169L312.49336,110.49644L312.49336,110.25881L312.25573,110.02118L
				312.25573,109.78356L312.01809,109.3083L312.01809,109.07068L311.78045,108.83305L311.78045,108.59542L311.78045,108.3578L311.78045,107.88254
				L312.01809,107.64492L312.25573,107.16966L312.49336,106.45678L312.96864,105.98153L313.44391,105.26865L313.68155,105.03102
				L350.99064,124.75404"/>
			<path clip-path="url(#SVG_CP_1)" fill="none" stroke="#000000" stroke-width="0.47528" stroke-miterlimit="10" stroke-linecap="round" stroke-linejoin="round" d="
				M346.00026,152.55637L346.23789,153.50688L346.47553,154.21976L346.71317,155.17027L346.95081,156.12077L346.95081,156.3584L
				347.18844,157.07128L347.18844,157.30891L347.18844,157.54653L347.18844,157.78416L347.18844,158.49704L347.18844,158.97229L
				346.95081,159.20992L346.95081,159.68517L346.95081,160.16043L346.95081,160.87331L346.95081,161.34856L346.95081,162.06144L
				346.71317,162.29907L346.71317,162.5367L346.95081,163.24958L347.18844,163.96246L347.18844,164.43771L347.42608,165.15059L347.42608,165.38822
				L347.66372,165.38822L347.66372,165.62584L348.13899,166.1011L348.37663,166.33872L348.37663,166.57635L348.37663,166.81398L
				348.37663,167.0516L348.37663,167.76448L348.61427,168.71499L348.61427,168.95262L348.61427,169.19024L348.61427,169.42787L348.85191,169.90312
				L348.85191,170.37838L348.85191,170.85363L349.08954,171.09126L349.32718,171.56651L349.32718,171.80414L349.56482,172.51702
				L349.80246,172.75465L349.80246,172.99227L350.04009,173.2299L350.27773,173.46753L350.51537,173.46753L350.51537,173.70515L
				350.75301,173.94278L350.75301,174.18041L350.99064,174.41803L351.22828,174.65566L351.22828,174.89329L351.46592,175.13091L
				351.46592,175.36854L351.70356,175.60617L351.94119,175.84379L351.70356,176.31905L350.75301,177.50718L350.27773,177.98243L
				349.80246,178.69531L349.56482,179.40819L349.32718,179.88345L349.32718,180.59633L348.85191,181.30921L347.90136,182.25972L
				347.18844,183.68548L346.23789,184.63598L345.52498,184.87361L344.81207,185.11124L343.86152,184.63598L342.67333,183.68548L
				341.72278,183.68548L340.77223,183.44785L340.05932,184.16073L339.58404,184.63598L339.58404,184.87361L338.87113,184.39836L
				338.63349,184.39836L337.92058,184.16073L337.68294,184.16073L337.20767,184.16073L336.97003,183.68548L336.97003,183.21022L
				336.73239,183.21022L336.49475,182.73497L336.25712,182.25972L336.49475,182.02209L336.49475,181.54684L336.25712,181.30921L
				336.01948,181.30921L335.78184,181.07158L335.78184,180.83396L336.01948,180.59633L336.01948,180.3587L336.25712,179.88345L336.25712,179.64582
				L336.73239,179.64582L336.97003,179.64582L337.20767,179.40819L337.20767,179.17057L337.4453,178.93294L337.68294,178.69531L
				337.68294,178.45769L337.4453,178.22006L337.4453,177.98243L337.4453,177.74481L337.68294,177.74481L337.68294,177.50718L337.92058,177.26955
				L337.68294,177.03193L337.20767,177.03193L336.97003,176.7943L336.73239,176.08142L336.25712,175.60617L335.78184,175.60617L
				335.5442,174.65566L336.01948,174.18041L336.49475,173.46753L336.25712,172.27939L335.5442,171.56651L335.06893,170.616L335.06893,169.6655
				L334.83129,168.95262L334.59365,168.47736L335.06893,168.00211L335.78184,167.76448L336.25712,167.28923L336.73239,166.57635
				L336.97003,166.1011L336.97003,165.38822L336.73239,165.15059L336.73239,164.43771L336.97003,163.96246L337.20767,163.72483L
				337.20767,163.24958L337.20767,162.29907L337.68294,161.82382L338.15822,161.82382L338.39585,161.82382L338.63349,162.29907L
				338.87113,162.29907L338.87113,162.06144L339.10877,161.82382L338.87113,161.58619L338.87113,161.34856L338.87113,161.11094L
				338.63349,160.63568L337.92058,160.16043L337.68294,159.68517L337.68294,159.44755L338.39585,159.20992L338.87113,159.44755L
				339.58404,159.44755L340.05932,158.97229L340.05932,158.73467L339.58404,158.25941L338.87113,157.78416L338.87113,157.54653L
				339.3464,157.30891L339.3464,157.07128L339.58404,156.83365L340.05932,156.59603L340.05932,156.12077L340.29696,155.64552L340.29696,154.21976
				L340.29696,153.50688L340.53459,153.26925L340.77223,153.26925L340.77223,153.03163L340.77223,152.794L340.77223,152.55637L340.77223,152.31875
				L341.00987,152.08112L341.24751,152.08112L341.48514,151.60587L341.96042,151.13061L341.96042,150.89298L342.43569,150.1801L
				342.43569,149.94248L342.67333,149.46722L342.91097,148.99197L342.91097,148.75434L342.91097,148.51672L343.14861,148.04146L
				343.38624,147.80384L343.62388,148.04146L343.62388,148.27909L343.86152,148.27909L343.86152,148.51672L344.09916,148.51672L
				344.33679,148.51672L344.57443,148.51672L344.81207,148.51672L345.04971,148.51672L345.28734,148.51672L345.52498,148.75434L
				345.76262,149.2296L346.00026,149.2296L346.00026,149.46722L346.00026,149.70485L346.00026,149.94248L346.00026,150.65536L346.00026,151.36824
				L346.00026,151.60587L346.00026,151.84349L346.00026,152.55637"/>
			<path clip-path="url(#SVG_CP_1)" fill="none" stroke="#000000" stroke-width="0.47528" stroke-miterlimit="10" stroke-linecap="round" stroke-linejoin="round" d="
				M368.81346,163.72483L368.10055,163.4872L367.38763,163.96246L366.67472,164.67534L366.19945,165.62584L365.96181,166.57635L
				365.96181,167.28923L366.19945,169.19024L365.96181,169.6655L365.72417,169.90312L364.77362,170.616L362.39725,171.32889L360.49615,172.75465
				L359.30796,173.2299L358.59505,173.46753L358.11977,174.18041L355.26812,175.36854L354.07993,175.60617L353.60466,175.60617L
				353.12938,175.36854L352.65411,175.36854L352.17883,175.84379L351.94119,175.84379L351.70356,175.60617L351.46592,175.36854L
				351.46592,175.13091L351.22828,174.89329L351.22828,174.65566L350.99064,174.41803L350.75301,174.18041L350.75301,173.94278L
				350.51537,173.70515L350.51537,173.46753L350.27773,173.46753L350.04009,173.2299L349.80246,172.99227L349.80246,172.75465L349.56482,172.51702
				L349.32718,171.80414L349.32718,171.56651L349.08954,171.09126L348.85191,170.85363L348.85191,170.37838L348.85191,169.90312
				L348.61427,169.42787L348.61427,169.19024L348.61427,168.95262L348.61427,168.71499L348.37663,167.76448L348.37663,167.0516L
				348.37663,166.81398L348.37663,166.57635L348.37663,166.33872L348.13899,166.1011L347.66372,165.62584L347.66372,165.38822L347.42608,165.38822
				L347.42608,165.15059L347.18844,164.43771L347.18844,163.96246L346.95081,163.24958L346.71317,162.5367L346.71317,162.29907L
				346.95081,162.06144L346.95081,161.34856L346.95081,160.87331L346.95081,160.16043L346.95081,159.68517L346.95081,159.20992L
				347.18844,158.97229L347.18844,158.49704L347.18844,157.78416L347.18844,157.54653L347.18844,157.30891L347.18844,157.07128L
				346.95081,156.3584L346.95081,156.12077L346.71317,155.17027L346.47553,154.21976L346.23789,153.50688L346.00026,152.55637L346.95081,153.74451
				L347.66372,154.45739L350.04009,156.3584L354.31757,156.3584L357.6445,156.83365L358.83268,156.83365L362.15961,158.02179L363.11016,158.97229
				L362.15961,160.16043L361.20906,161.34856L361.92197,161.58619L362.15961,161.34856L362.39725,161.34856L362.39725,161.11094
				L362.87252,160.87331L363.11016,160.87331L363.11016,160.63568L363.3478,160.63568L363.58543,160.63568L363.58543,160.87331L
				363.82307,160.87331L364.06071,160.87331L364.29835,160.87331L364.53598,160.63568L364.53598,160.39805L365.01126,160.16043L
				365.2489,160.16043L365.2489,160.39805L365.48653,160.39805L365.72417,160.39805L365.96181,160.63568L365.96181,160.87331L365.96181,161.11094
				L366.19945,161.34856L366.19945,161.58619L366.43708,161.58619L366.67472,161.58619L366.91236,161.34856L367.15,161.34856L367.15,161.11094
				L367.38763,161.11094L367.62527,161.11094L367.86291,161.11094L368.10055,161.11094L368.33818,161.11094L368.57582,161.11094
				L369.0511,160.87331L369.28873,160.87331L369.52637,160.87331L369.76401,160.87331L370.00165,160.87331L370.23928,161.11094L
				370.47692,161.34856L370.47692,161.58619L370.47692,161.82382L370.23928,161.82382L370.23928,162.06144L370.00165,162.06144L
				369.76401,162.29907L369.52637,162.5367L369.52637,163.01195L369.0511,163.24958L368.81346,163.72483"/>
			<path clip-path="url(#SVG_CP_1)" fill="none" stroke="#000000" stroke-width="0.47528" stroke-miterlimit="10" stroke-linecap="round" stroke-linejoin="round" d="
				M368.81346,163.72483L369.28873,163.96246L370.47692,164.43771L371.42747,164.67534L372.37802,164.67534L373.32857,164.67534
				L374.04149,165.38822L374.7544,166.1011L375.46731,166.81398L376.89314,167.28923L377.60605,167.28923L378.31896,167.52686L379.03187,167.76448
				L379.26951,168.00211L379.26951,168.71499L379.26951,168.95262L379.26951,169.42787L379.50715,169.90312L380.22006,170.616L380.4577,170.85363
				L380.4577,171.09126L380.22006,171.56651L379.74479,171.80414L379.03187,172.27939L378.31896,172.51702L378.31896,172.99227L
				378.31896,173.2299L378.5566,173.70515L378.79424,174.41803L379.03187,175.13091L379.98242,175.60617L380.4577,175.84379L381.64589,176.08142
				L382.83407,176.55667L383.07171,177.03193L383.07171,177.74481L383.07171,178.69531L383.30935,179.40819L383.78462,180.59633
				L384.49754,180.83396L385.21045,181.30921L385.68572,181.54684L386.39864,182.02209L386.63628,182.49734L386.63628,183.68548
				L386.39864,184.16073L385.92336,184.63598L385.68572,185.34886L385.68572,185.82412L385.68572,186.29937L386.161,186.77462L386.63628,187.4875
				L386.87391,188.20038L387.11155,188.67564L387.82446,188.91326L388.0621,189.15089L388.53738,189.86377L389.25029,190.33902L
				389.72556,191.05191L384.73517,193.6658L381.88352,194.85393L378.08132,196.27969L372.14039,197.46783L369.28873,197.46783L363.82307,197.94308
				L356.69395,198.18071L350.99064,198.18071L347.66372,197.46783L344.81207,195.80444L342.19806,194.14105L340.05932,191.76479
				L338.63349,189.62614L339.10877,189.62614L339.3464,189.38852L339.3464,188.67564L339.10877,187.72513L339.10877,187.01225L339.10877,186.29937
				L339.10877,185.58649L339.10877,185.34886L339.58404,184.87361L339.58404,184.63598L340.05932,184.16073L340.77223,183.44785
				L341.72278,183.68548L342.67333,183.68548L343.86152,184.63598L344.81207,185.11124L345.52498,184.87361L346.23789,184.63598
				L347.18844,183.68548L347.90136,182.25972L348.85191,181.30921L349.32718,180.59633L349.32718,179.88345L349.56482,179.40819
				L349.80246,178.69531L350.27773,177.98243L350.75301,177.50718L351.70356,176.31905L351.94119,175.84379L352.17883,175.84379
				L352.65411,175.36854L353.12938,175.36854L353.60466,175.60617L354.07993,175.60617L355.26812,175.36854L358.11977,174.18041
				L358.59505,173.46753L359.30796,173.2299L360.49615,172.75465L362.39725,171.32889L364.77362,170.616L365.72417,169.90312L365.96181,169.6655
				L366.19945,169.19024L365.96181,167.28923L365.96181,166.57635L366.19945,165.62584L366.67472,164.67534L367.38763,163.96246
				L368.10055,163.4872L368.81346,163.72483"/>
		</g>
	</g>
</svg>
