<?xml version="1.0" encoding="utf-8" standalone="no"?>
<!-- Creator: Esri ArcMap 10.8.0.12790 -->
<!DOCTYPE svg PUBLIC "-//W3C//DTD SVG 1.1//EN"  "http://www.w3.org/Graphics/SVG/1.1/DTD/svg11.dtd">
<svg width="774.73701pt" height="404.24882pt" viewBox="0 0 774.73701 404.24882" enable-background="new 0 0 774.73701 404.24882"
	version="1.1" xmlns="http://www.w3.org/2000/svg" xmlns:xlink="http://www.w3.org/1999/xlink" >
	<g id="Layers">
		<g id="Faro_SD">
			<clipPath id="SVG_CP_1">
				<path d="M0,404.24882L0,0L774.73701,0L774.73701,404.24882L0,404.24882z"/>
			</clipPath>
			<path clip-path="url(#SVG_CP_1)" fill="none" stroke="#000000" stroke-width="0.47528" stroke-miterlimit="10" stroke-linecap="round" stroke-linejoin="round" d="
				M390.91375,131.40759L390.20084,134.25911L386.87391,140.67503L380.22006,144.23944L376.18022,150.65536L375.94259,153.50688
				L377.60605,157.07128L378.79424,163.72483L378.5566,166.33872L377.13077,168.23974L374.27912,168.95262L365.2489,168.00211L363.11016,169.6655
				L360.97142,176.08142L359.07032,182.9726L356.93158,183.68548L353.84229,184.16073L351.46592,188.91326L350.51537,192.00241L
				348.85191,193.42817L346.95081,193.19055L345.04971,192.00241L334.83129,188.67564L332.45492,188.43801L329.60327,189.62614L
				326.75162,190.1014L325.56343,191.52716L323.89997,194.61631L320.09776,195.09156L313.20628,194.85393L306.07715,194.85393L301.3244,194.61631
				L298.23511,195.32919L295.6211,196.27969L294.67055,197.70545L293.48236,201.03223L292.53181,207.44815L291.8189,210.29967L293.24472,211.25018
				L292.76945,212.91357L292.53181,214.33933L291.8189,215.05221L290.15543,216.00271L290.39307,217.19085L290.15543,218.37898L
				288.96725,218.85423L282.78867,220.51762L275.89718,221.70576L273.28317,222.18101L271.61971,222.89389L269.71861,223.36914L
				269.48097,224.31965L269.95624,225.98304L270.90679,226.69592L271.85734,227.64642L271.61971,228.59693L270.19388,229.30981L
				269.48097,230.26032L268.76806,232.87421L267.57987,235.01285L265.44113,237.15149L264.96586,238.81488L265.44113,239.76539L
				264.25294,240.95352L264.01531,242.61691L262.11421,243.80504L262.11421,244.99318L262.11421,247.13182L262.11421,249.03283L
				261.16365,250.45859L260.92602,252.12198L260.68838,253.07249L259.73783,253.54774L259.50019,253.78537L259.26255,254.26062L
				258.78728,254.73587L258.07437,255.44875L257.59909,256.16163L257.12382,256.16163L257.12382,256.39926L256.88618,256.39926L
				256.64854,256.39926L256.17327,256.39926L256.17327,256.63689L255.69799,256.39926L255.22272,256.39926L254.74744,256.63689L
				254.74744,256.87451L254.5098,257.11214L254.27217,256.87451L253.79689,256.87451L253.32162,256.87451L253.08398,257.11214L252.84634,256.87451
				L252.6087,256.63689L251.18288,247.8447L250.46997,214.33933L249.99469,210.06204L250.23233,209.82442L250.23233,209.34916L250.23233,209.11154
				L250.7076,208.16103L250.7076,207.9234L250.94524,207.44815L250.94524,207.21052L250.94524,206.73527L251.18288,206.49764L251.18288,206.26002
				L251.18288,206.02239L251.18288,205.78476L251.42052,205.54714L251.42052,205.30951L251.42052,205.07188L251.65815,205.07188
				L251.65815,204.83426L251.89579,204.59663L251.89579,204.359L251.89579,204.12138L252.13343,203.88375L251.89579,203.88375L251.89579,203.64612
				L252.13343,203.4085L252.13343,203.17087L252.37107,203.17087L252.37107,202.93324L252.6087,202.93324L252.6087,202.69562L252.6087,202.45799
				L252.6087,202.69562L252.6087,202.45799L252.84634,202.45799L252.84634,202.22036L253.08398,202.22036L253.08398,202.45799L253.32162,202.45799
				L253.32162,202.22036L253.32162,201.98274L253.55925,201.98274L253.32162,201.98274L253.32162,201.74511L253.55925,201.74511
				L253.55925,201.50748L253.55925,201.26986L253.55925,201.03223L253.55925,200.7946L253.32162,200.7946L253.32162,200.55698L253.32162,200.31935
				L253.32162,200.08172L253.08398,200.08172L253.32162,200.08172L253.32162,199.84409L253.32162,199.60647L253.55925,199.36884
				L253.55925,199.13121L253.55925,198.89359L253.55925,198.65596L253.55925,198.41833L253.55925,198.18071L253.55925,197.94308
				L253.55925,197.70545L253.79689,197.70545L253.79689,197.46783L254.03453,197.46783L254.27217,197.46783L254.27217,197.2302L
				254.27217,196.99257L254.5098,196.99257L254.74744,196.99257L254.98508,196.99257L254.74744,196.99257L254.98508,196.75495L254.74744,196.75495
				L254.98508,196.75495L254.98508,196.51732L255.22272,196.51732L255.46035,196.51732L255.69799,196.51732L255.69799,196.75495
				L255.69799,196.51732L255.93563,196.51732L256.17327,196.51732L256.4109,196.51732L256.4109,196.75495L256.64854,196.75495L256.88618,196.75495
				L257.12382,196.75495L257.36145,196.75495L257.36145,196.99257L257.36145,196.75495L257.59909,196.75495L257.83673,196.75495
				L258.07437,196.75495L258.312,196.75495L258.54964,196.75495L258.78728,196.75495L258.78728,196.99257L259.02492,196.99257L259.02492,197.2302
				L259.26255,197.2302L259.26255,197.46783L259.50019,197.46783L259.73783,197.46783L259.97547,197.46783L259.97547,197.2302L260.2131,197.2302
				L260.45074,197.2302L260.68838,197.2302L260.92602,197.2302L261.16365,197.2302L261.40129,197.2302L261.63893,197.46783L261.87657,197.46783
				L262.11421,197.70545L262.35184,197.70545L262.58948,197.70545L262.82712,197.70545L262.82712,197.94308L262.82712,198.18071
				L263.06476,198.18071L263.06476,198.41833L262.82712,198.41833L263.06476,198.41833L263.06476,198.65596L263.06476,198.89359
				L263.30239,198.89359L263.30239,199.13121L263.54003,199.13121L263.54003,199.36884L263.54003,199.60647L263.54003,199.84409
				L263.54003,200.08172L263.77767,200.31935L264.01531,200.55698L264.25294,200.55698L264.25294,200.7946L264.25294,201.03223L
				264.49058,201.03223L264.72822,201.03223L264.72822,201.26986L264.96586,201.26986L265.20349,201.50748L265.44113,201.50748L
				265.67877,201.50748L265.67877,201.26986L265.91641,201.26986L266.15404,201.26986L266.15404,201.03223L266.39168,201.03223L
				266.62932,201.03223L266.62932,200.7946L266.62932,201.03223L266.86696,201.03223L267.10459,201.03223L267.34223,201.03223L267.57987,201.03223
				L267.81751,201.03223L267.81751,200.7946L268.05514,200.7946L268.05514,201.03223L268.29278,201.03223L268.29278,200.7946L268.53042,200.7946
				L268.53042,200.55698L268.76806,200.7946L269.00569,200.7946L269.24333,200.7946L269.24333,200.55698L269.48097,200.55698L269.71861,200.55698
				L269.71861,200.31935L269.95624,200.31935L270.19388,200.31935L270.43152,200.31935L270.43152,200.55698L270.66916,200.55698
				L270.90679,200.55698L270.90679,200.31935L271.14443,200.31935L271.38207,200.08172L271.14443,199.84409L270.90679,199.36884
				L270.66916,198.89359L270.66916,198.41833L270.19388,197.46783L269.71861,196.51732L269.71861,196.04207L270.19388,195.56681
				L270.43152,195.32919L270.90679,194.85393L271.38207,194.61631L271.61971,194.14105L271.85734,193.90343L272.33262,194.14105
				L273.04553,194.37868L273.04553,194.14105L273.04553,193.90343L273.04553,193.6658L273.28317,193.42817L273.52081,193.19055L
				273.99608,192.71529L274.23372,192.71529L274.47136,192.71529L274.70899,192.71529L274.94663,192.47767L274.70899,192.47767L
				274.94663,192.24004L275.42191,192.00241L275.65954,192.00241L275.89718,192.00241L276.13482,191.76479L276.37246,191.52716L
				276.61009,191.28953L276.84773,191.05191L277.32301,190.81428L277.56065,190.57665L278.03592,190.1014L278.27356,190.1014L278.27356,189.86377
				L278.74883,189.38852L279.22411,189.15089L279.93702,188.67564L280.17466,188.43801L280.4123,188.43801L280.88757,188.67564L
				281.12521,188.67564L281.83812,189.15089L282.78867,189.62614L283.02631,189.86377L283.50158,190.1014L283.50158,189.15089L283.50158,188.67564
				L283.26395,188.20038L283.26395,187.96276L283.50158,187.72513L283.73922,187.4875L284.92741,186.537L285.16505,186.537L285.40268,186.537
				L285.64032,186.77462L286.35323,186.77462L286.82851,186.77462L287.06615,186.537L286.82851,186.06174L286.59087,185.82412L286.35323,185.58649
				L286.35323,185.34886L286.1156,184.87361L285.87796,184.63598L285.87796,184.39836L286.35323,183.9231L286.82851,183.44785L287.30378,183.21022
				L288.25433,183.21022L289.44252,183.44785L290.63071,183.9231L291.34362,183.68548L292.05653,183.21022L293.72,182.02209L294.19527,181.78446
				L294.90819,181.30921L295.14582,180.83396L295.14582,180.12107L295.14582,179.64582L295.6211,178.93294L296.80929,177.98243L
				298.23511,176.7943L298.23511,176.55667L298.23511,176.31905L298.23511,176.08142L298.23511,175.84379L298.23511,175.60617L297.99747,175.60617
				L297.99747,175.36854L297.99747,175.13091L297.99747,174.89329L297.99747,174.65566L297.99747,174.41803L297.99747,174.18041
				L297.75984,174.18041L297.75984,173.94278L297.75984,173.70515L297.5222,173.70515L297.5222,173.46753L297.5222,173.2299L297.28456,173.2299
				L297.28456,172.99227L297.04692,172.99227L297.04692,172.75465L297.04692,172.51702L297.04692,172.27939L297.04692,172.04177
				L296.80929,172.04177L296.80929,171.80414L296.80929,171.56651L296.57165,171.56651L296.33401,171.56651L296.33401,171.32889
				L296.09637,171.32889L295.85874,171.32889L295.6211,171.09126L295.38346,170.85363L295.6211,170.85363L295.38346,170.85363L295.38346,170.616
				L294.90819,169.90312L294.67055,168.47736L294.67055,168.23974L294.67055,167.76448L294.67055,167.52686L294.67055,167.28923
				L294.67055,167.0516L294.43291,167.0516L294.43291,166.81398L294.43291,166.57635L294.43291,166.33872L294.67055,166.33872L294.67055,166.1011
				L294.67055,165.86347L294.67055,165.62584L294.67055,165.38822L294.90819,165.38822L294.67055,165.38822L294.90819,165.38822
				L294.90819,165.15059L294.90819,164.91296L294.90819,164.67534L294.90819,164.43771L294.90819,164.20008L295.14582,164.20008
				L294.90819,164.20008L294.90819,163.96246L294.90819,163.72483L294.90819,163.4872L294.90819,163.24958L294.90819,163.01195L
				294.90819,162.77432L294.90819,162.5367L294.90819,162.29907L294.90819,162.06144L294.67055,162.06144L294.43291,162.06144L294.43291,161.82382
				L294.19527,161.82382L293.95764,161.82382L293.72,161.82382L293.72,161.58619L293.72,161.34856L293.48236,161.34856L293.48236,161.11094
				L293.48236,160.87331L293.24472,160.87331L293.24472,160.63568L293.00709,160.63568L293.00709,160.87331L293.00709,160.63568
				L292.76945,160.63568L292.76945,160.39805L292.76945,160.16043L292.53181,160.16043L292.76945,160.16043L292.53181,159.9228L
				292.29417,159.9228L292.29417,159.68517L292.29417,159.44755L292.05653,159.44755L292.05653,159.20992L291.8189,159.20992L291.8189,158.97229
				L291.58126,158.97229L291.58126,158.73467L291.58126,158.49704L291.58126,158.25941L291.58126,158.49704L291.8189,158.49704L
				291.8189,158.25941L291.8189,158.49704L292.05653,158.49704L292.05653,158.25941L292.29417,158.25941L292.29417,158.49704L292.53181,158.49704
				L292.53181,158.73467L292.76945,158.73467L293.00709,158.73467L293.24472,158.73467L293.48236,158.73467L293.48236,158.49704
				L293.72,158.49704L293.72,158.73467L293.72,158.49704L293.95764,158.49704L293.95764,158.73467L293.95764,158.49704L294.19527,158.49704
				L294.19527,158.73467L294.43291,158.73467L294.43291,158.97229L294.43291,158.73467L294.67055,158.73467L294.90819,158.73467
				L295.14582,158.73467L295.14582,158.49704L295.38346,158.73467L295.38346,158.49704L295.6211,158.49704L295.85874,158.49704L
				296.09637,158.25941L296.33401,158.25941L296.57165,158.25941L296.57165,158.02179L296.80929,158.02179L297.04692,158.02179L
				297.04692,158.25941L297.28456,158.25941L297.5222,158.25941L297.5222,158.02179L297.5222,158.25941L297.75984,158.25941L297.75984,158.02179
				L297.99747,158.02179L298.23511,158.02179L298.47275,158.02179L298.71039,158.02179L298.94802,158.02179L298.94802,157.78416
				L299.18566,157.78416L299.18566,157.54653L299.4233,157.30891L299.4233,157.07128L299.4233,156.83365L299.66094,156.83365L299.89857,156.83365
				L299.89857,156.59603L299.89857,156.3584L300.13621,156.3584L300.13621,156.12077L300.37385,156.12077L300.61149,156.12077L300.84912,156.12077
				L300.84912,155.88315L301.08676,155.88315L301.3244,155.88315L301.56204,155.88315L301.79967,155.88315L303.93841,153.26925L
				304.41369,153.50688L304.65132,153.74451L304.88896,153.74451L305.36424,153.50688L305.83951,153.50688L306.31479,153.50688L
				306.55242,153.50688L306.79006,153.50688L307.50297,153.50688L307.74061,153.50688L308.21589,153.74451L308.45353,153.74451L
				308.9288,154.21976L309.40408,154.45739L309.87935,154.69501L310.11699,154.93264L310.11699,155.17027L310.59226,155.40789L311.06754,155.64552
				L311.30518,155.88315L312.25573,156.12077L312.96864,156.12077L313.68155,155.88315L314.15683,155.88315L314.86974,155.88315
				L315.82029,156.3584L316.29556,157.07128L316.5332,157.07128L317.24611,158.02179L317.72139,158.25941L320.09776,157.30891L323.42469,159.68517
				L328.41508,158.02179L330.31618,157.30891L330.31618,157.07128L330.55382,156.3584L330.55382,155.64552L330.55382,155.17027L
				331.02909,154.69501L331.50437,154.21976L331.97964,153.74451L332.45492,153.74451L332.93019,154.21976L334.35602,154.69501L
				334.83129,154.69501L335.30657,154.69501L336.01948,154.69501L336.25712,154.45739L336.25712,154.21976L336.25712,153.26925L
				336.25712,153.03163L336.25712,152.55637L336.49475,152.08112L336.97003,151.84349L336.97003,152.08112L337.20767,152.31875L
				337.4453,152.31875L338.15822,152.55637L338.39585,152.55637L338.87113,152.31875L339.3464,152.08112L339.58404,152.08112L339.82168,152.08112
				L340.05932,151.84349L340.29696,151.36824L340.53459,151.13061L340.77223,151.13061L341.00987,151.13061L341.24751,151.36824
				L341.72278,151.36824L342.67333,151.36824L342.91097,151.36824L343.62388,151.60587L344.09916,152.08112L345.04971,152.31875
				L345.52498,152.31875L346.00026,151.84349L346.47553,151.60587L347.66372,150.89298L348.13899,150.41773L348.13899,149.94248
				L348.37663,149.2296L348.85191,148.99197L349.08954,148.75434L349.32718,148.51672L349.80246,148.27909L350.04009,148.04146L
				350.27773,147.80384L350.75301,147.56621L350.99064,146.85333L350.27773,145.6652L350.27773,145.18994L350.75301,145.18994L350.99064,144.71469
				L351.46592,144.00181L351.46592,142.81368L351.94119,141.86317L352.65411,140.91266L353.36702,140.19978L353.12938,139.72453
				L353.12938,139.4869L352.89174,139.24927L352.65411,139.01165L352.65411,138.53639L352.41647,138.29877L352.41647,137.82351L
				351.70356,136.63538L352.17883,135.68487L352.89174,134.73437L353.36702,134.49674L353.60466,133.07098L353.12938,132.59573L
				352.89174,132.12047L352.89174,131.88285L353.36702,131.64522L353.84229,131.40759L354.31757,131.40759L354.31757,130.93234L
				354.07993,130.69471L353.84229,130.21946L354.07993,129.7442L354.31757,129.50658L354.55521,129.26895L354.79284,128.08082L355.03048,127.60556
				L355.26812,127.13031L355.50576,126.65506L355.98103,126.65506L356.45631,126.65506L356.69395,126.65506L357.16922,126.89268
				L357.88213,126.89268L357.88213,127.13031L358.11977,127.13031L358.35741,127.36794L358.83268,127.60556L359.30796,127.60556
				L359.5456,127.36794L360.25851,127.13031L360.49615,127.13031L360.73378,127.13031L361.68433,126.89268L361.92197,126.89268L
				362.15961,126.89268L362.63488,127.13031L363.3478,127.13031L364.06071,127.13031L364.29835,127.13031L364.29835,127.36794L364.29835,127.84319
				L364.53598,128.7937L365.01126,129.03132L365.2489,129.26895L365.96181,129.7442L365.96181,129.98183L366.91236,129.7442L367.86291,130.21946
				L368.57582,130.93234L368.81346,131.16996L369.0511,130.93234L369.28873,130.93234L369.52637,130.69471L369.76401,130.45708L
				369.76401,129.7442L370.00165,129.03132L370.47692,128.55607L370.71456,127.84319L371.18984,126.65506L371.18984,126.1798L370.9522,125.94218
				L370.9522,124.99167L371.18984,123.09066L371.90275,121.42727L372.37802,121.18964L372.8533,120.71439L373.80385,120.23913L374.51676,119.76388
				L375.46731,118.81337L375.70495,118.33812L375.70495,117.86287L375.46731,117.14999L375.22967,116.19948L375.22967,115.72423
				L375.46731,115.01135L375.22967,114.29847L375.46731,114.06084L376.18022,113.82321L376.41786,113.34796L376.41786,113.11033
				L376.6555,112.87271L376.89314,112.63508L376.89314,112.39745L377.13077,112.15983L377.36841,111.9222L377.36841,111.44694L377.36841,110.97169
				L377.13077,110.73406L376.6555,110.49644L375.94259,110.49644L375.94259,110.25881L375.22967,110.25881L374.99204,109.78356L
				374.7544,109.54593L374.7544,109.07068L374.51676,109.07068L374.27912,108.83305L374.04149,108.3578L374.04149,107.88254L373.80385,107.16966
				L373.56621,107.16966L373.32857,106.93204L373.09094,106.69441L373.09094,105.98153L373.32857,105.7439L373.56621,105.50628L
				373.80385,105.26865L373.80385,105.03102L374.04149,104.7934L374.27912,104.55577L374.7544,104.31814L375.46731,103.60526L375.70495,102.89238
				L375.70495,102.65476L375.94259,102.1795L375.70495,101.94188L375.22967,101.70425L374.99204,101.46662L374.7544,101.22899L374.7544,100.51611
				L374.51676,99.80323L374.7544,98.85273L374.99204,98.85273L375.46731,98.85273L376.18022,98.85273L376.18022,98.6151L376.18022,98.13985
				L376.41786,97.90222L376.89314,97.90222L377.13077,97.90222L377.13077,97.66459L377.36841,97.42697L377.13077,96.95171L377.13077,96.47646
				L377.13077,96.23883L377.13077,95.76358L376.41786,95.52595L375.70495,95.52595L375.46731,95.0507L375.46731,94.33782L374.99204,93.86257
				L374.7544,92.91206L374.51676,92.67443L374.51676,92.43681L374.7544,91.96155L374.99204,91.72392L375.46731,91.4863L375.94259,91.24867
				L376.41786,91.24867L377.84369,82.45648L378.31896,80.55547L386.161,66.29786L392.33958,56.07991L392.33958,55.84229L392.57721,55.84229
				L392.57721,55.60466L392.33958,55.60466L392.33958,55.36703L392.57721,55.36703L392.57721,55.12941L392.81485,55.12941L393.05249,55.12941
				L393.05249,54.89178L393.29013,54.89178L393.52776,54.89178L393.52776,54.65415L393.52776,54.41653L393.52776,54.1789L393.52776,53.94127
				L393.29013,53.94127L393.29013,53.70365L393.29013,53.46602L393.29013,53.22839L393.29013,52.99077L393.29013,52.75314L393.29013,52.51551
				L393.05249,52.27788L392.81485,52.27788L392.81485,52.04026L392.57721,52.04026L392.57721,51.80263L392.81485,51.565L392.81485,51.32738
				L393.05249,51.08975L393.29013,51.08975L393.29013,50.85212L393.52776,50.85212L393.52776,50.6145L393.52776,50.37687L393.7654,50.37687
				L393.7654,50.13924L393.7654,49.90162L394.00304,49.66399L394.24068,49.66399L394.47831,49.42636L394.71595,49.42636L394.95359,49.42636
				L395.19123,49.18874L395.42886,48.95111L395.42886,48.71348L395.42886,48.47586L395.42886,48.23823L395.19123,48.23823L395.19123,48.0006
				L394.95359,48.0006L394.95359,47.76298L394.71595,47.76298L394.71595,47.52535L394.71595,47.28772L394.47831,47.28772L394.47831,47.0501
				L394.47831,46.81247L394.24068,46.81247L394.24068,46.57484L394.00304,46.57484L393.7654,46.57484L393.7654,46.33722L393.7654,46.09959
				L393.52776,46.09959L393.7654,46.09959L393.7654,45.86196L394.00304,45.62434L394.24068,45.62434L394.24068,45.38671L394.47831,45.38671
				L394.47831,45.14908L394.71595,45.14908L394.71595,44.91146L394.71595,44.67383L394.71595,44.4362L394.71595,44.19858L394.47831,44.19858
				L394.47831,43.96095L394.24068,43.96095L394.00304,43.72332L393.7654,43.72332L393.7654,43.4857L393.52776,43.4857L393.52776,43.24807
				L393.52776,43.01044L393.52776,42.77281L393.52776,42.53519L393.29013,42.29756L393.05249,42.05993L392.81485,42.05993L392.81485,41.82231
				L392.57721,41.82231L392.33958,42.05993L392.10194,42.05993L392.10194,41.82231L391.8643,41.82231L391.8643,41.58468L391.8643,41.34705
				L391.8643,41.10943L392.10194,40.8718L392.33958,40.63417L392.33958,40.39655L392.57721,40.39655L392.57721,40.15892L392.57721,39.92129
				L392.33958,39.92129L392.33958,39.68367L392.33958,39.44604L392.33958,39.20841L392.33958,38.97079L392.33958,38.73316L392.33958,38.49553
				L392.33958,38.25791L392.57721,38.25791L392.57721,38.02028L392.81485,38.02028L393.05249,38.02028L393.05249,37.78265L393.29013,37.78265
				L393.52776,37.78265L393.7654,37.78265L394.00304,37.78265L394.00304,37.54503L394.00304,37.3074L393.7654,37.3074L393.52776,37.3074
				L393.52776,37.06977L393.52776,36.83215L393.52776,36.59452L393.52776,36.35689L393.7654,36.35689L393.7654,36.11927L393.7654,35.88164
				L393.7654,35.64401L393.7654,35.40639L393.52776,35.40639L393.52776,35.16876L393.29013,35.16876L393.05249,35.16876L392.81485,35.16876
				L392.81485,34.93113L392.57721,34.93113L392.57721,34.69351L392.57721,34.45588L392.81485,34.45588L392.81485,34.21825L393.05249,34.21825
				L393.05249,33.98063L393.29013,33.98063L393.52776,33.98063L393.7654,33.743L394.00304,33.743L394.00304,33.50537L394.00304,33.26775
				L393.7654,33.03012L393.52776,33.03012L393.52776,32.79249L393.52776,32.55486L393.7654,32.31724L393.7654,32.07961L394.00304,31.84198
				L394.24068,31.84198L394.24068,31.60436L394.47831,31.60436L394.71595,31.36673L394.95359,31.36673L394.95359,31.1291L395.19123,31.1291
				L395.19123,30.89148L395.19123,30.65385L395.19123,30.41622L395.19123,30.1786L395.19123,29.94097L395.19123,29.70334L395.42886,29.70334
				L395.42886,29.46572L395.6665,29.46572L395.6665,29.22809L395.90414,29.22809L395.90414,28.99046L395.90414,28.75284L395.6665,28.75284
				L395.6665,28.51521L395.42886,28.51521L395.19123,28.27758L395.19123,28.03996L395.19123,27.80233L395.42886,27.80233L395.42886,27.5647
				L395.42886,27.32708L395.42886,27.08945L395.42886,26.85182L395.42886,26.6142L395.42886,26.37657L395.42886,26.13894L395.42886,25.90132
				L395.42886,25.66369L395.42886,25.42606L395.6665,25.18844L395.90414,25.18844L396.14178,25.18844L396.37941,25.18844L396.61705,25.18844
				L396.61705,24.95081L396.85469,24.71318L396.85469,24.47556L396.85469,24.23793L396.85469,24.0003L396.85469,23.76268L397.09233,23.52505
				L397.5676,23.04979L397.80524,22.81217L398.04288,22.33691L398.04288,22.09929"/>
			<path clip-path="url(#SVG_CP_1)" fill="none" stroke="#000000" stroke-width="0.47528" stroke-miterlimit="10" stroke-linecap="round" stroke-linejoin="round" d="
				M398.04288,22.09929L398.04288,21.86166L398.04288,21.62403L398.04288,21.38641L398.28051,21.38641L398.51815,21.14878L398.75579,20.19827
				L398.99343,19.48539L399.23106,19.24777L399.23106,18.77251L398.99343,18.53489L399.94398,19.24777L400.41925,21.38641L400.18161,22.57454
				L399.94398,24.0003L399.70634,24.95081L399.23106,25.42606L398.99343,25.66369L399.23106,26.6142L399.23106,27.5647L399.4687,28.27758
				L399.23106,29.22809L398.75579,30.1786L398.75579,31.1291L398.75579,32.07961L398.99343,33.03012L398.99343,34.21825L398.99343,35.40639
				L398.51815,35.88164L398.28051,36.35689L398.51815,36.59452L398.75579,36.83215L398.75579,37.3074L398.75579,38.02028L398.99343,38.25791
				L398.75579,38.73316L398.75579,39.20841L398.99343,39.92129L399.23106,40.39655L399.70634,40.63417L400.41925,40.8718L400.89453,40.63417
				L401.60744,40.8718L401.84508,41.10943L401.84508,41.34705L401.60744,41.82231L401.60744,42.05993L401.60744,42.77281L401.84508,43.24807
				L402.32035,43.96095L402.55799,44.67383L402.79563,45.14908L402.79563,45.86196L402.55799,46.09959L402.08272,46.81247L401.84508,47.52535
				L401.84508,48.23823L403.03327,48.95111L403.74618,49.66399L404.45909,50.6145L404.93437,51.565L405.40964,52.51551L405.64728,53.46602
				L405.88492,54.41653L406.12255,55.60466L406.36019,56.31754L406.83547,57.26805L406.83547,57.98093L406.59783,58.45618L406.12255,58.69381
				L405.88492,59.16906L405.64728,59.88194L405.40964,60.35719L405.172,60.83245L405.40964,61.3077L405.172,62.02058L404.69673,62.25821
				L404.45909,62.73346L404.22145,63.9216L403.98382,65.10973L403.74618,66.06024L403.98382,67.72362L404.45909,69.14938L404.45909,70.09989
				L403.98382,71.28802L403.50854,72.0009L402.55799,73.18904L402.32035,73.66429L402.08272,74.37717L401.84508,74.37717L401.84508,74.6148
				L401.60744,75.32768L401.3698,75.80293L401.3698,76.51581L401.13216,77.22869L401.13216,77.94157L401.13216,78.65445L400.89453,79.36733
				L400.65689,80.08021L399.94398,81.03072L399.4687,81.7436L398.51815,82.69411L397.80524,83.40699L396.85469,84.3575L396.37941,85.308
				L395.90414,86.25851L395.19123,87.68427L393.29013,89.58528L392.57721,90.29816L391.8643,91.4863L391.38903,92.91206L390.91375,94.10019
				L390.67611,95.0507L390.43848,96.23883L390.43848,97.18934L390.67611,99.09035L390.67611,100.51611L390.67611,101.70425L390.67611,102.41713
				L390.67611,105.50628L390.43848,106.45678L390.20084,107.64492L389.72556,108.59542L389.72556,109.54593L389.72556,110.02118
				L390.43848,111.20932L390.91375,112.15983L391.38903,112.87271L392.10194,113.58559L392.10194,114.53609L391.8643,115.4866L391.62666,116.43711
				L391.15139,117.38761L390.20084,118.57575L389.9632,119.28863L389.9632,120.23913L390.20084,120.95201L390.43848,122.14015L390.67611,123.09066
				L390.91375,123.80354L390.91375,124.75404L390.67611,124.99167L389.9632,127.36794L389.72556,128.08082L389.72556,129.26895L
				389.9632,129.7442L390.20084,130.21946L390.67611,131.16996L390.91375,131.40759"/>
			<path clip-path="url(#SVG_CP_1)" fill="none" stroke="#000000" stroke-width="0.47528" stroke-miterlimit="10" stroke-linecap="round" stroke-linejoin="round" d="
				M259.73783,253.54774L260.68838,253.07249L260.92602,252.12198L261.16365,250.45859L262.11421,249.03283L262.11421,247.13182
				L262.11421,244.99318L262.11421,243.80504L264.01531,242.61691L264.25294,240.95352L265.44113,239.76539L264.96586,238.81488
				L265.44113,237.15149L267.57987,235.01285L268.76806,232.87421L269.48097,230.26032L270.19388,229.30981L271.61971,228.59693
				L271.85734,227.64642L270.90679,226.69592L269.95624,225.98304L269.48097,224.31965L269.71861,223.36914L271.61971,222.89389
				L273.28317,222.18101L275.89718,221.70576L282.78867,220.51762L288.96725,218.85423L290.15543,218.37898L290.39307,217.19085
				L290.15543,216.00271L291.8189,215.05221L292.53181,214.33933L292.76945,212.91357L293.24472,211.25018L291.8189,210.29967L292.53181,207.44815
				L293.48236,201.03223L294.67055,197.70545L295.6211,196.27969L298.23511,195.32919L301.3244,194.61631L306.07715,194.85393L313.20628,194.85393
				L320.09776,195.09156L323.89997,194.61631L325.56343,191.52716L326.75162,190.1014L329.60327,189.62614L332.45492,188.43801L
				334.83129,188.67564L345.04971,192.00241L346.95081,193.19055L348.85191,193.42817L350.51537,192.00241L351.46592,188.91326L
				353.84229,184.16073L356.93158,183.68548L359.07032,182.9726L360.97142,176.08142L363.11016,169.6655L365.2489,168.00211L374.27912,168.95262
				L377.13077,168.23974L378.5566,166.33872L378.79424,163.72483L377.60605,157.07128L375.94259,153.50688L376.18022,150.65536L
				380.22006,144.23944L386.87391,140.67503L390.20084,134.25911L390.91375,131.40759L391.15139,131.88285L391.8643,132.83335L392.33958,133.78386
				L392.81485,134.73437L393.52776,135.68487L393.7654,135.44725L394.71595,134.49674L395.19123,133.54623L395.19123,132.59573L
				394.95359,131.88285L394.95359,130.93234L395.42886,130.93234L395.6665,131.40759L396.61705,131.40759L397.32996,130.93234L398.28051,129.98183
				L399.4687,128.7937L401.13216,126.1798L405.172,121.18964L405.88492,120.00151L417.52916,120.95201L418.24207,120.95201L418.95498,121.18964
				L419.66789,121.42727L420.61844,121.42727L421.56899,121.42727L422.51954,121.6649L423.47009,121.6649L425.37119,121.6649L425.37119,122.14015
				L425.37119,122.85303L425.60883,123.32828L425.84647,123.56591L426.08411,123.32828L426.08411,122.85303L426.08411,122.6154L
				426.08411,122.37778L426.32174,122.37778L426.55938,122.6154L426.55938,122.85303L426.55938,123.56591L426.55938,124.27879L426.79702,124.51642
				L427.27229,124.51642L427.74757,124.51642L427.98521,124.75404L428.22284,124.99167L428.46048,125.2293L428.69812,125.2293L428.93576,125.70455
				L428.93576,126.41743L428.69812,126.65506L428.93576,127.13031L429.17339,127.36794L429.41103,127.36794L429.64867,127.60556
				L429.64867,127.84319L429.64867,128.31844L430.12394,129.03132L430.12394,129.26895L430.59922,129.50658L430.83686,129.50658
				L431.07449,129.50658L431.31213,129.26895L431.54977,129.26895L431.78741,129.50658L431.78741,129.7442L432.26268,129.98183L
				432.50032,129.98183L432.50032,130.21946L432.26268,130.45708L432.26268,130.69471L432.50032,130.69471L432.9756,130.45708L433.21323,130.69471
				L433.45087,131.16996L433.68851,131.40759L433.68851,131.64522L433.92615,132.12047L434.16378,132.59573L434.40142,133.07098
				L434.63906,133.30861L434.8767,133.54623L435.11433,133.54623L435.35197,133.78386L435.58961,134.25911L435.35197,134.49674L
				435.35197,134.97199L435.58961,135.20962L436.06488,135.44725L436.30252,135.44725L436.7778,135.68487L437.01543,135.68487L437.01543,135.9225
				L437.25307,136.16013L437.25307,136.63538L437.25307,137.11063L437.49071,137.58589L437.72835,137.58589L437.96598,137.82351
				L438.44126,137.58589L438.6789,137.34826L438.91653,137.58589L439.39181,138.06114L439.62945,138.53639L440.10472,139.01165L
				440.34236,139.24927L440.81763,139.4869L441.53055,139.24927L442.00582,139.01165L442.4811,138.77402L442.95637,138.77402L443.19401,139.01165
				L443.66928,139.4869L444.14456,139.4869L444.61983,139.72453L445.33275,139.4869L445.57038,139.72453L445.80802,139.4869L446.04566,139.24927
				L446.2833,139.01165L446.52093,138.77402L446.99621,138.77402L447.23385,138.77402L447.70912,138.53639L447.94676,138.77402L
				448.42204,138.53639L448.42204,138.06114L448.89731,137.58589L448.89731,137.34826L449.37259,137.34826L449.84786,137.58589L
				450.0855,137.82351L450.56077,138.29877L450.79841,138.77402L451.03605,139.01165L451.03605,139.24927L451.27369,139.4869L451.51132,139.4869
				L451.9866,139.4869L452.22424,139.24927L452.93715,139.24927L453.17479,139.4869L453.65006,139.72453L453.8877,139.72453L454.12534,139.96215
				L454.36297,140.43741L454.60061,140.67503L454.83825,140.91266L454.60061,141.15029L454.83825,141.62554L454.83825,142.1008L
				455.07589,142.33842L455.31352,142.57605L455.31352,143.0513L455.31352,143.28893L455.07589,143.52656L455.31352,143.76418L455.55116,143.76418
				L456.02644,143.76418L456.50171,144.00181L457.21462,144.23944L457.6899,144.23944L458.16517,144.23944L458.40281,144.23944L
				458.87809,144.47706L459.35336,144.47706L459.591,144.71469L460.06627,145.18994L460.06627,145.6652L460.54155,145.6652L460.77919,146.14045
				L460.77919,146.6157L460.77919,146.85333L461.01682,147.32858L461.25446,147.56621L461.25446,147.80384L461.4921,148.04146L461.4921,148.27909
				L461.4921,148.51672L461.25446,148.51672L461.25446,148.75434L461.4921,149.2296L461.4921,149.46722L461.72974,149.70485L461.96737,150.1801
				L462.20501,150.65536L462.20501,150.89298L462.68029,151.13061L462.91792,151.60587L463.15556,152.08112L463.3932,152.08112L
				463.86847,152.31875L464.10611,152.31875L464.34375,152.31875L464.34375,152.55637L464.58139,153.03163L464.81903,153.26925L
				465.53194,153.26925L465.76958,153.50688L466.24485,153.50688L466.48249,153.74451L466.95776,153.74451L467.43304,153.98213L
				467.67068,154.21976L468.14595,154.21976L468.62123,154.21976L468.85886,154.45739L469.0965,154.69501L469.57178,154.93264L469.80941,155.40789
				L470.28469,155.40789L470.52233,155.40789L470.9976,155.88315L471.23524,156.3584L471.71051,156.59603L471.94815,157.07128L472.42343,157.30891
				L472.66106,157.54653L472.8987,157.78416L473.37398,157.78416L473.84925,158.02179L474.08689,158.02179L474.56216,158.25941L
				475.03744,158.73467L475.27508,159.20992L475.75035,159.68517L475.98799,159.9228L476.7009,160.39805L477.88909,161.11094L478.83964,161.11094
				L523.5155,157.54653L524.70368,180.3587L524.94132,187.4875L524.94132,188.43801L524.70368,189.15089L524.46605,189.86377L520.66385,194.61631
				L514.96055,202.93324L505.21741,203.17087L506.40559,217.42847L505.93032,217.42847L504.74213,219.09186L504.74213,219.56711
				L505.69268,220.04237L504.97977,220.99288L504.02922,220.99288L503.55394,221.46813L503.31631,221.46813L503.07867,222.65626
				L502.60339,223.13152L502.60339,223.8444L502.12812,224.08202L501.65284,224.55728L501.41521,225.03253L501.17757,225.27016L
				501.41521,225.98304L501.41521,226.45829L500.93993,226.93354L501.41521,227.64642L501.41521,227.88405L500.46466,228.59693L
				500.22702,228.59693L500.46466,229.07218L500.70229,229.07218L499.98938,229.78506L499.51411,230.49795L499.51411,230.73557L
				498.80119,231.21083L498.32592,231.44845L498.56356,231.68608L498.80119,231.92371L498.80119,233.11184L498.56356,233.34947L
				498.08828,233.58709L498.08828,234.29997L497.85064,234.5376L497.37537,234.77523L496.90009,235.01285L496.42482,235.25048L494.76135,235.01285
				L494.04844,234.29997L493.57317,234.5376L492.38498,233.82472L490.95915,234.77523L490.95915,235.25048L490.95915,236.20099L
				490.95915,236.43861L490.72152,237.15149L490.95915,238.102L491.19679,239.29013L491.19679,240.00302L491.19679,240.47827L491.43443,240.7159
				L491.19679,241.90403L491.19679,243.32979L491.43443,244.04267L491.67207,244.2803L491.9097,244.2803L491.43443,244.99318L491.43443,245.94368
				L491.67207,246.89419L491.9097,247.60707L491.67207,248.31995L491.67207,249.03283L491.43443,249.50808L491.9097,250.45859L491.9097,250.69622
				L492.14734,251.17147L491.9097,251.88435L490.95915,253.07249L490.0086,254.02299L489.53333,254.73587L489.29569,255.21113L489.29569,255.44875
				L488.82042,255.92401L488.82042,256.16163L487.63223,256.39926L487.15695,256.63689L486.91932,256.63689L486.91932,256.87451
				L486.44404,257.11214L486.2064,257.58739L485.73113,257.82502L485.49349,257.82502L484.78058,257.82502L484.3053,258.30027L483.83003,258.5379
				L483.83003,258.77553L483.35475,259.01315L482.64184,259.01315L482.16657,259.01315L481.69129,259.01315L481.45365,258.77553
				L480.97838,259.01315L480.74074,259.01315L480.26547,259.01315L480.02783,259.25078L479.79019,259.25078L479.55255,259.48841
				L479.31491,259.25078L478.83964,259.72604L478.602,260.20129L478.36436,260.43892L478.12673,260.91417L477.88909,261.1518L478.12673,261.62705
				L477.88909,261.86468L477.41381,261.86468L477.17618,261.86468L476.46326,261.86468L475.98799,261.86468L474.7998,262.33993L
				474.32453,262.81518L473.84925,262.81518L473.61161,262.81518L473.13634,262.81518L472.8987,262.57756L472.42343,262.57756L472.18579,262.57756
				L471.94815,262.57756L471.71051,262.57756L471.47288,262.33993L470.9976,262.1023L470.75996,261.86468L470.75996,261.62705L470.28469,261.86468
				L470.04705,261.86468L468.85886,264.95382L467.43304,269.94399L466.95776,271.845L466.72013,272.32025L466.95776,272.32025L466.48249,272.32025
				L466.24485,272.32025L466.00721,272.55788L465.76958,273.03313L465.2943,273.03313L465.05666,272.79551L464.10611,272.79551L
				464.10611,273.50839L463.63084,274.22127L462.91792,273.98364L462.91792,274.45889L462.91792,274.69652L462.68029,274.93415L
				462.20501,274.93415L461.72974,274.93415L461.25446,274.93415L460.77919,275.17177L460.06627,274.93415L459.591,274.69652L459.35336,274.93415
				L459.11572,275.17177L458.87809,275.4094L458.40281,275.4094L458.16517,275.4094L457.92754,275.4094L457.45226,275.64703L457.21462,275.64703
				L456.73935,275.64703L456.50171,275.4094L456.02644,275.4094L456.02644,275.64703L455.7888,275.64703L455.55116,275.64703L455.07589,275.4094
				L454.60061,275.64703L454.12534,275.88465L453.65006,275.88465L453.65006,275.64703L453.41242,275.17177L452.93715,274.93415
				L452.69951,274.93415L452.69951,274.45889L452.46187,274.45889L452.22424,274.69652L451.74896,274.93415L451.51132,275.4094L
				450.79841,275.4094L450.56077,275.17177L450.0855,275.17177L449.84786,274.69652L449.61022,274.69652L449.37259,274.69652L449.13495,274.22127
				L449.13495,273.98364L448.65967,273.98364L448.1844,273.98364L447.94676,273.74601L447.47148,273.74601L447.23385,273.98364L
				446.99621,274.22127L446.75857,273.98364L446.52093,273.98364L446.2833,273.74601L446.04566,273.50839L445.80802,273.50839L445.57038,273.74601
				L445.33275,273.74601L444.85747,273.98364L444.61983,273.98364L444.14456,273.98364L443.90692,273.98364L443.43165,273.98364
				L442.95637,273.74601L442.95637,273.98364L442.71873,274.22127L442.24346,273.98364L442.00582,273.98364L441.76818,273.98364
				L441.76818,274.45889L441.53055,274.22127L441.29291,273.98364L440.58,273.74601L440.34236,273.50839L439.86708,273.27076L439.86708,273.50839
				L439.62945,273.50839L439.62945,273.03313L439.15417,273.03313L438.6789,273.03313L438.20362,272.55788L437.72835,272.32025L
				437.49071,272.32025L437.01543,272.55788L436.7778,272.32025L436.7778,271.845L436.7778,271.36975L436.54016,271.36975L436.30252,271.36975
				L435.82725,271.13212L435.58961,270.65687L435.11433,270.41924L434.63906,270.41924L434.63906,269.94399L434.16378,269.70636
				L433.68851,269.46873L433.45087,268.99348L433.45087,268.75585L433.21323,268.51822L432.9756,268.75585L432.73796,268.75585L
				432.50032,268.99348L432.26268,268.99348L432.02504,268.75585L432.02504,268.51822L431.54977,268.2806L431.07449,267.80534L431.07449,267.33009
				L431.07449,266.85484L430.83686,266.37958L430.59922,266.37958L430.59922,266.61721L430.36158,266.61721L430.12394,266.37958
				L430.12394,266.14196L430.12394,265.90433L430.36158,265.90433L430.59922,265.6667L430.36158,265.42908L430.12394,265.19145L
				429.64867,265.19145L429.64867,264.7162L428.69812,264.24094L428.46048,264.00332L427.98521,264.00332L427.50993,264.00332L427.27229,263.52806
				L427.27229,263.29044L426.79702,263.05281L426.32174,262.81518L425.84647,262.81518L425.60883,262.81518L425.13356,262.57756
				L424.65828,262.33993L424.18301,262.1023L423.70773,262.1023L423.47009,261.62705L423.47009,261.1518L423.70773,260.91417L423.47009,260.43892
				L423.47009,259.96366L423.47009,259.48841L423.47009,259.25078L423.70773,259.01315L424.18301,258.5379L424.18301,258.06265L
				424.18301,257.58739L423.94537,257.34977L423.70773,257.58739L423.47009,257.58739L422.99482,257.58739L422.51954,257.58739L
				422.51954,257.11214L422.28191,256.87451L422.04427,256.87451L422.04427,256.63689L422.04427,256.16163L421.80663,255.68638L
				421.33136,255.68638L421.33136,256.16163L421.09372,256.39926L420.85608,256.87451L420.61844,257.11214L420.38081,257.34977L
				420.14317,257.58739L419.66789,257.58739L419.66789,257.82502L419.43026,258.06265L419.19262,258.77553L419.19262,259.25078L
				418.95498,259.72604L418.95498,260.20129L418.71734,260.91417L418.71734,261.38942L418.71734,261.86468L418.71734,262.33993L
				418.47971,262.81518L418.71734,263.05281L419.19262,263.76569L419.66789,264.00332L419.90553,264.47857L420.61844,265.19145L
				420.85608,265.6667L420.85608,266.37958L420.61844,266.85484L420.85608,267.33009L421.09372,267.56772L421.09372,268.04297L421.33136,268.51822
				L421.56899,268.99348L421.56899,269.70636L421.56899,270.18161L421.80663,270.65687L422.28191,271.60737L422.75718,271.845L423.23246,272.08263
				L423.94537,272.55788L424.42064,272.79551L424.89592,273.27076L425.60883,273.74601L426.08411,274.22127L426.32174,274.69652
				L426.79702,275.17177L427.27229,275.4094L427.50993,275.88465L427.74757,276.59753L427.98521,277.07279L427.98521,277.54804L
				427.98521,278.02329L428.46048,278.49855L428.46048,278.73617L428.46048,279.21143L428.22284,279.44906L427.74757,279.92431L
				427.74757,280.39956L427.50993,280.87482L427.50993,281.35007L427.50993,282.06295L427.27229,282.77583L427.27229,283.25108L
				427.27229,283.72634L427.50993,284.20159L427.74757,284.67684L428.22284,284.67684L428.46048,284.91447L428.46048,285.38972L
				428.69812,285.62735L429.17339,285.62735L430.12394,286.34023L430.59922,286.57786L431.07449,286.81548L431.78741,287.52836L
				432.26268,287.76599L432.50032,288.00362L432.73796,288.24124L432.9756,288.7165L433.45087,288.7165L433.68851,288.95412L434.16378,289.42938
				L434.40142,289.66701L435.11433,289.90463L435.58961,289.90463L435.82725,289.90463L436.30252,289.90463L436.7778,289.90463L
				437.25307,289.66701L437.96598,289.90463L438.20362,290.14226L438.44126,290.14226L438.91653,289.90463L439.39181,289.90463L
				439.62945,289.90463L440.10472,289.90463L440.81763,289.90463L441.29291,290.37989L441.53055,290.85514L442.00582,291.09277L
				442.4811,291.80565L442.95637,292.2809L443.19401,292.51853L443.43165,292.75615L443.90692,292.75615L444.14456,292.75615L444.61983,292.75615
				L445.09511,292.99378L445.33275,293.23141L445.80802,293.46903L446.04566,293.70666L446.04566,293.94429L446.52093,294.18191
				L447.23385,294.18191L447.70912,294.41954L448.1844,294.41954L448.65967,294.65717L449.13495,294.65717L449.61022,295.13242L
				450.0855,295.13242L450.79841,295.13242L451.27369,295.60767L451.74896,296.08293L452.22424,296.08293L452.22424,296.55818L452.22424,297.27106
				L452.22424,297.50869L452.69951,298.22157L452.69951,298.69682L452.69951,299.17208L452.93715,299.64733L453.17479,299.88496
				L453.65006,299.88496L454.12534,299.88496L454.60061,299.88496L455.07589,299.88496L455.55116,299.88496L455.7888,299.64733L
				456.26407,299.64733L456.50171,299.88496L456.73935,300.12258L456.73935,300.59784L456.97699,301.07309L457.21462,301.31072L
				457.45226,301.31072L457.6899,301.07309L457.92754,300.83546L458.16517,300.59784L458.64045,300.59784L459.35336,300.83546L460.06627,301.07309
				L461.01682,301.31072L461.72974,301.31072L462.20501,301.54834L462.44265,301.31072L462.68029,301.31072L463.15556,301.31072
				L463.86847,301.31072L464.34375,301.31072L465.05666,301.54834L465.2943,301.78597L465.76958,302.26122L466.24485,302.26122L
				466.95776,302.49885L467.43304,302.73648L467.67068,302.73648L468.14595,302.49885L468.38359,302.49885L469.33414,302.0236L470.04705,302.0236
				L470.52233,302.26122L470.9976,302.26122L471.47288,302.26122L471.71051,302.49885L472.18579,302.26122L472.66106,302.26122L
				473.13634,302.26122L474.08689,302.49885L474.7998,302.49885L475.27508,302.9741L475.75035,302.9741L476.46326,302.9741L477.41381,303.21173
				L477.65145,303.21173L478.12673,303.21173L478.602,302.73648L479.07728,302.73648L479.31491,302.73648L479.55255,303.21173L480.02783,302.9741
				L480.5031,302.73648L480.97838,302.49885L481.21602,302.73648L481.69129,302.73648L482.16657,302.73648L482.4042,302.73648L482.87948,302.49885
				L483.35475,302.26122L483.59239,302.0236L484.06767,302.0236L484.3053,302.49885L484.54294,302.9741L485.01822,302.9741L485.96877,302.49885
				L486.68168,302.49885L486.91932,302.73648L487.39459,302.49885L487.86987,302.26122L488.58278,302.0236L489.05805,302.26122L
				489.29569,302.26122L489.77097,301.78597L490.0086,302.26122L490.24624,302.49885L490.72152,302.73648L490.95915,302.9741L490.95915,303.44936
				L491.43443,303.92461L491.9097,304.63749L491.9097,305.35037L491.9097,305.588L492.14734,306.06325L494.28608,307.01376L495.47427,307.48901
				L495.23663,308.20189L495.23663,308.91477L495.47427,309.1524L495.71191,309.39003L495.94954,309.86528L496.18718,310.10291L
				496.42482,310.10291L496.66246,310.34053L496.42482,311.29104L496.18718,311.52867L495.47427,312.00392L494.28608,312.47917L
				493.57317,312.95443L492.86025,315.09307L492.38498,315.56832L491.67207,315.80595L491.43443,316.04357L491.43443,316.51883L
				490.95915,316.75645L490.24624,316.99408L490.0086,317.46933L489.77097,318.41984L490.0086,318.8951L490.24624,319.37035L490.48388,320.08323
				L490.95915,321.03374L491.67207,321.74662L492.38498,322.22187L492.86025,323.17238L493.09789,324.83576L492.86025,325.31102
				L493.09789,326.26152L493.33553,326.73678L493.33553,327.21203L493.09789,327.68728L492.86025,327.92491L492.14734,328.40017
				L491.19679,328.63779L490.72152,329.35067L490.48388,330.77643L489.53333,331.96457L488.82042,332.43982L488.34514,333.39033
				L487.86987,333.62795L487.39459,334.10321L486.68168,334.34083L486.44404,334.81609L486.2064,335.05371L485.96877,335.52897L
				485.96877,335.76659L485.49349,335.76659L485.01822,335.76659L484.78058,335.52897L484.3053,335.29134L483.83003,335.29134L483.59239,335.52897
				L483.11712,336.00422L484.3053,338.85574L484.78058,340.04388L484.3053,340.75676L484.06767,341.70726L485.49349,343.13302L485.49349,344.79641
				L485.25585,345.03404L484.3053,345.27166L483.83003,345.50929L483.59239,345.98454L483.59239,346.4598L483.11712,346.93505L482.64184,347.17268
				L482.4042,347.64793L481.92893,348.36081L481.21602,349.07369L480.74074,349.78657L480.5031,350.26183L480.97838,350.97471L481.21602,351.21233
				L481.92893,351.68759L482.4042,351.92521L482.64184,352.16284L483.11712,352.40047L483.11712,352.87572L481.92893,353.5886L481.92893,354.30148
				L481.45365,354.77673L481.45365,355.48961L481.69129,355.72724L482.16657,355.96487L482.64184,356.20249L483.11712,356.67775
				L482.64184,357.153L482.4042,358.10351L481.21602,359.05402L480.97838,360.00452L480.97838,360.7174L480.5031,361.43028L480.5031,362.38079
				L480.26547,362.61842L480.02783,362.38079L479.07728,362.38079L478.602,362.61842L478.12673,362.85604L477.41381,363.09367L476.7009,363.56892
				L476.46326,363.56892L475.98799,363.80655L475.75035,364.2818L475.27508,364.51943L474.7998,364.51943L475.03744,365.46994L475.27508,366.18282
				L475.03744,366.8957L474.32453,367.37095L474.56216,368.79671L473.61161,369.74722L473.84925,374.26213L473.84925,375.21263L
				473.84925,375.92551L474.08689,376.63839L474.08689,377.11365L474.32453,377.35127L474.7998,377.5889L475.27508,378.06416L475.27508,378.53941
				L475.51271,379.01466L475.51271,379.48992L474.32453,379.96517L473.84925,380.91568L473.13634,381.39093L472.66106,382.10381
				L472.42343,382.57906L471.71051,383.29194L470.28469,383.05432L469.80941,382.57906L469.33414,382.34144L468.85886,382.10381
				L468.38359,381.86618L467.90831,382.10381L467.90831,382.34144L467.90831,382.57906L467.43304,382.81669L466.95776,382.57906
				L466.95776,382.81669L466.95776,383.29194L467.1954,383.29194L467.43304,383.52957L467.67068,383.7672L467.67068,384.00482L467.1954,384.24245
				L466.48249,384.00482L466.00721,383.7672L465.2943,383.52957L464.81903,383.29194L463.86847,383.52957L463.15556,383.52957L462.44265,383.7672
				L461.96737,383.7672L461.4921,383.7672L461.01682,383.52957L460.54155,383.7672L460.30391,383.7672L459.82864,383.7672L459.35336,383.7672
				L459.11572,383.7672L458.64045,383.7672L458.16517,383.7672L457.6899,383.7672L457.45226,383.7672L457.21462,384.24245L456.73935,384.7177
				L456.02644,384.7177L455.31352,384.95533L454.60061,384.7177L453.65006,384.7177L452.93715,384.95533L452.22424,385.19296L451.51132,385.43058
				L451.27369,385.19296L450.79841,385.19296L450.0855,384.7177L449.84786,384.95533L449.61022,385.19296L449.13495,385.43058L448.89731,385.90584
				L448.65967,385.90584L448.1844,385.90584L448.1844,385.66821L447.94676,384.95533"/>
			<path clip-path="url(#SVG_CP_1)" fill="none" stroke="#000000" stroke-width="0.47528" stroke-miterlimit="10" stroke-linecap="round" stroke-linejoin="round" d="
				M447.94676,384.95533L447.94676,384.7177L447.70912,384.7177L447.23385,384.7177L446.99621,384.7177L446.2833,384.7177L446.04566,384.48008
				L445.80802,384.24245L445.33275,384.48008L445.33275,384.95533L444.85747,385.19296L444.3822,385.19296L443.43165,384.95533L
				443.19401,384.95533L442.4811,384.95533L442.24346,384.7177L441.76818,384.48008L441.53055,384.48008L440.58,384.24245L440.34236,384.24245
				L439.39181,384.24245L438.91653,384.24245L438.20362,384.00482L437.96598,383.7672L437.25307,383.52957L437.01543,383.7672L436.7778,384.00482
				L436.30252,384.24245L435.58961,384.00482L434.8767,384.00482L434.40142,383.7672L434.40142,383.52957L434.16378,383.29194L433.45087,383.29194
				L433.21323,383.05432L432.9756,382.81669L432.73796,382.81669L432.50032,382.57906L431.78741,382.10381L431.54977,381.62856L
				431.07449,381.39093L430.83686,381.39093L430.36158,381.1533L430.12394,380.91568L429.88631,380.44042L428.93576,379.72754L428.22284,379.48992
				L427.50993,379.48992L427.27229,379.48992L427.03466,379.01466L427.03466,378.77704L426.32174,379.01466L426.08411,378.77704
				L425.84647,378.30178L425.84647,378.06416L425.37119,378.06416L425.13356,378.30178L424.89592,378.53941L424.42064,378.77704
				L423.70773,378.30178L422.99482,378.53941L422.04427,378.30178L421.33136,378.30178L420.38081,377.5889L419.90553,377.5889L419.19262,377.11365
				L418.00443,376.63839L416.34097,376.16314L415.86569,375.92551L415.15278,375.68789L414.43987,375.45026L413.96459,375.45026
				L413.48932,374.73738L413.01404,374.26213L412.7764,373.54925L412.06349,373.54925L411.58822,374.0245L411.35058,374.26213L411.11294,374.26213
				L410.8753,374.0245L410.63767,373.78687L410.16239,372.36111L408.73657,372.36111L408.02365,372.12349L407.54838,371.88586L406.83547,371.64823
				L406.12255,371.64823L405.172,371.88586L404.45909,371.64823L403.03327,371.41061L402.08272,371.17298L400.18161,371.41061L399.4687,371.64823
				L398.99343,371.88586L397.80524,372.12349L396.61705,372.12349L395.42886,371.64823L394.71595,371.64823L393.7654,371.41061L
				393.52776,371.17298L393.29013,370.93535L393.05249,370.93535L393.05249,370.69773L392.33958,370.4601L391.8643,370.4601L391.38903,370.4601
				L390.43848,370.4601L390.20084,370.4601L390.20084,370.22247L389.72556,369.74722L389.72556,369.50959L389.48793,369.27197L389.01265,369.50959
				L388.53738,369.74722L388.29974,369.98485L387.58683,369.98485L386.39864,369.98485L385.68572,369.98485L384.97281,369.98485
				L384.73517,370.22247L384.49754,370.4601L384.2599,370.93535L384.02226,370.69773L384.02226,370.4601L384.02226,370.22247L383.78462,369.98485
				L383.07171,369.98485L382.59644,370.22247L382.12116,370.69773L381.88352,370.69773L381.40825,370.69773L380.93297,370.4601L
				379.74479,370.22247L378.5566,370.4601L376.6555,370.4601L375.94259,370.69773L375.46731,370.69773L374.7544,370.22247L374.51676,369.98485
				L373.80385,369.74722L373.09094,369.74722L372.8533,370.22247L372.61566,370.4601L372.37802,369.98485L372.14039,369.50959L371.18984,368.79671
				L370.00165,367.84621L369.52637,367.84621L368.81346,367.37095L368.33818,366.8957L368.10055,366.18282L367.86291,365.70756L
				367.15,365.94519L366.91236,365.94519L366.19945,365.94519L365.48653,365.94519L365.01126,366.18282L364.29835,365.46994L363.11016,364.99468
				L362.63488,364.75706L361.20906,363.56892L360.97142,363.09367L360.97142,362.61842L361.20906,362.14316L361.20906,361.90554
				L360.97142,361.66791L360.25851,361.43028L360.02087,360.95503L359.78323,360.7174L359.5456,360.47978L359.07032,359.52927L359.07032,359.29164
				L358.83268,358.57876L359.5456,357.39063L359.5456,356.67775L359.5456,356.44012L359.5456,356.20249L359.30796,355.96487L359.30796,355.48961
				L360.02087,354.77673L360.25851,354.06385L360.49615,353.5886L360.25851,352.87572L360.49615,352.63809L360.49615,352.16284L
				360.49615,351.68759L360.25851,351.21233L360.25851,350.73708L360.49615,350.26183L360.25851,350.0242L358.83268,350.73708L357.6445,351.44996
				L357.40686,351.68759L356.93158,351.68759L356.45631,351.44996L355.7434,351.21233L355.26812,351.68759L355.26812,351.92521L
				355.50576,352.87572L355.26812,353.82623L354.79284,353.82623L354.07993,354.06385L353.60466,354.06385L353.36702,354.30148L
				352.89174,354.06385L352.65411,354.30148L352.17883,354.53911L351.94119,354.77673L350.99064,354.77673L350.27773,354.77673L
				350.04009,355.01436L349.56482,355.01436L349.08954,355.25199L348.61427,355.25199L347.90136,354.77673L347.42608,354.30148L
				346.95081,354.06385L345.76262,353.82623L344.57443,353.35097L343.62388,352.63809L342.91097,352.40047L342.19806,351.92521L
				341.96042,351.21233L341.24751,350.73708L340.77223,350.49945L340.05932,350.26183L339.3464,350.26183L338.63349,349.54895L338.39585,349.31132
				L337.68294,349.07369L336.97003,348.83607L336.73239,348.59844L336.49475,347.4103L336.49475,346.69742L336.73239,345.74692L
				337.20767,345.03404L337.92058,344.55878L338.39585,344.32116L338.63349,343.8459L339.10877,343.37065L338.87113,342.8954L338.87113,342.42014
				L338.63349,342.42014L338.39585,341.94489L338.63349,340.99438L338.87113,340.2815L338.63349,339.80625L338.15822,339.56862L
				337.92058,339.331L337.92058,338.85574L337.92058,338.38049L337.68294,337.42998L337.68294,336.95473L337.68294,336.24185L337.4453,335.76659
				L337.20767,335.29134L336.73239,334.57846L336.49475,334.34083L336.01948,333.39033L336.01948,332.67745L336.25712,331.96457
				L336.73239,331.25169L338.87113,330.06355L339.3464,329.5883L339.82168,329.11305L340.05932,328.40017L340.29696,327.68728L340.77223,326.0239
				L340.77223,324.59814L340.53459,323.64763L340.29696,322.93475L339.58404,322.22187L339.10877,321.50899L338.39585,320.08323
				L338.63349,319.13272L338.87113,318.41984L339.10877,316.75645L338.87113,316.04357L338.63349,315.09307L338.15822,314.38019
				L336.97003,313.42968L336.49475,312.7168L336.01948,312.24155L335.5442,311.29104L335.30657,310.57816L335.5442,310.10291L337.92058,306.06325
				L338.39585,305.588L338.63349,304.39986L338.87113,302.9741L338.63349,302.49885L338.15822,302.0236L337.68294,302.0236L337.4453,302.0236
				L337.20767,302.0236L336.97003,301.31072L336.73239,301.31072L336.49475,301.07309L336.25712,300.59784L336.01948,300.36021L
				336.01948,299.88496L335.5442,299.4097L334.83129,299.64733L334.11838,299.64733L333.6431,299.64733L332.93019,299.64733L332.69255,299.4097
				L332.21728,299.4097L332.21728,299.64733L331.742,299.88496L331.742,300.36021L331.742,300.59784L331.26673,300.59784L331.02909,300.83546
				L331.26673,301.31072L331.02909,301.54834L330.31618,302.26122L330.07854,302.0236L329.36563,302.26122L329.12799,302.26122L
				328.89035,302.26122L328.41508,302.49885L328.41508,302.26122L328.17744,302.49885L328.17744,302.73648L327.9398,302.73648L327.70217,302.49885
				L327.46453,302.49885L327.22689,302.73648L326.75162,302.9741L326.51398,303.44936L326.0387,303.21173L325.32579,303.21173L324.85052,302.9741
				L324.37524,302.9741L324.1376,303.21173L323.66233,303.21173L322.94941,303.21173L322.47414,303.21173L321.99886,303.44936L321.76123,303.44936
				L321.52359,303.68698L320.81068,303.44936L320.57304,303.44936L319.62249,302.9741L318.90958,302.26122L318.67194,302.26122L
				318.4343,302.0236L318.19666,301.78597L317.95903,301.54834L317.72139,301.31072L317.48375,301.31072L317.24611,301.07309L317.00848,301.07309
				L316.5332,300.83546L315.82029,301.54834L315.34501,302.0236L314.86974,302.73648L314.39446,303.44936L314.39446,303.92461L313.91919,304.39986
				L313.68155,304.87512L312.96864,305.35037L312.49336,305.35037L312.01809,305.35037L311.78045,305.35037L311.30518,305.35037
				L310.59226,305.35037L310.11699,305.35037L309.16644,305.11274L308.69116,304.87512L308.21589,304.63749L307.26534,303.44936
				L306.55242,302.73648L306.07715,302.49885L305.36424,302.26122L304.65132,301.78597L303.93841,301.54834L303.70077,301.31072
				L302.51259,300.59784L302.27495,300.12258L302.03731,299.88496L301.56204,299.64733L301.08676,299.64733L301.08676,299.17208
				L300.61149,298.93445L299.18566,298.45919L298.71039,298.22157L298.47275,297.98394L297.99747,297.74631L297.75984,297.27106
				L297.5222,297.27106L297.04692,297.27106L296.80929,297.27106L296.33401,297.50869L295.85874,297.74631L295.38346,298.45919L
				294.90819,298.93445L294.43291,298.69682L293.72,298.45919L293.00709,298.45919L292.29417,298.22157L291.58126,298.45919L290.63071,298.22157
				L290.39307,297.98394L290.15543,297.74631L289.44252,297.50869L288.96725,297.03343L288.96725,296.55818L288.96725,296.32055
				L288.49197,295.37005L288.25433,295.13242L288.0167,294.65717L287.77906,294.41954L287.54142,294.18191L287.06615,293.70666L
				286.82851,292.99378L286.35323,292.51853L286.1156,292.2809L285.87796,291.80565L285.64032,291.33039L285.16505,290.61751L284.68977,290.37989
				L284.2145,290.37989L274.70899,283.96396L274.47136,283.72634L274.47136,283.48871L274.47136,283.25108L273.99608,283.48871L
				273.52081,283.72634L272.80789,283.72634L272.09498,282.77583L271.38207,282.06295L271.14443,281.82532L270.66916,281.11244L
				270.43152,281.11244L269.24333,280.63719L269.24333,279.92431L268.53042,279.68668L268.05514,279.21143L268.29278,278.73617L
				268.05514,278.49855L268.05514,278.02329L268.05514,277.78567L267.81751,277.54804L268.05514,276.59753L267.10459,276.35991L
				266.62932,275.88465L265.91641,275.64703L265.67877,275.17177L264.49058,274.45889L263.54003,273.74601L261.40129,272.55788L
				261.16365,272.08263L260.68838,271.845L260.68838,271.36975L259.02492,270.18161L258.54964,269.46873L258.312,268.99348L258.312,268.75585
				L257.83673,268.2806L257.36145,266.85484L257.12382,265.6667L256.88618,263.52806L256.4109,262.57756L256.88618,261.38942L258.07437,260.67654
				L258.78728,259.25078L259.97547,255.44875L259.73783,253.54774"/>
		</g>
	</g>
</svg>
