<?xml version="1.0" encoding="utf-8" standalone="no"?>
<!-- Creator: Esri ArcMap 10.8.0.12790 -->
<!DOCTYPE svg PUBLIC "-//W3C//DTD SVG 1.1//EN"  "http://www.w3.org/Graphics/SVG/1.1/DTD/svg11.dtd">
<svg width="774.73701pt" height="404.24882pt" viewBox="0 0 774.73701 404.24882" enable-background="new 0 0 774.73701 404.24882"
	version="1.1" xmlns="http://www.w3.org/2000/svg" xmlns:xlink="http://www.w3.org/1999/xlink" >
	<g id="Layers">
		<g id="MLouti_Sd">
			<clipPath id="SVG_CP_1">
				<path d="M0,404.24882L0,0L774.73701,0L774.73701,404.24882L0,404.24882z"/>
			</clipPath>
			<path clip-path="url(#SVG_CP_1)" fill="none" stroke="#000000" stroke-width="0.47528" stroke-miterlimit="10" stroke-linecap="round" stroke-linejoin="round" d="
				M490.24624,345.27166L490.24624,344.55878L490.24624,341.46964L489.77097,339.56862L490.48388,336.00422L490.72152,333.1527L
				490.95915,329.82593L491.67207,328.40017L495.23663,326.0239L498.32592,323.41L500.22702,319.37035L501.65284,314.85544L502.36576,311.76629
				L503.07867,304.63749L503.31631,299.64733L503.55394,294.89479L501.89048,292.99378L500.70229,290.85514L500.46466,289.19175
				L497.85064,288.95412L494.99899,287.52836L493.09789,285.62735L490.72152,284.67684L488.58278,283.48871L489.29569,281.11244
				L490.95915,277.07279L491.19679,274.93415L491.43443,271.36975L492.38498,268.51822L493.57317,265.6667L495.47427,263.29044L
				496.18718,259.48841L496.90009,255.68638L496.90009,253.78537L498.80119,251.64673L500.22702,250.45859L501.65284,247.60707L
				503.07867,245.2308L504.50449,242.85454L505.21741,240.24064L506.40559,237.86437L505.69268,235.25048L506.16796,233.11184L508.30669,231.21083
				L510.68307,229.07218L513.05945,227.64642L514.24763,225.98304L513.77236,221.70576L514.72291,218.61661L514.96055,214.81458
				L514.72291,211.01255L514.96055,208.39866L514.01,204.59663L513.77236,202.22036L515.9111,200.08172L517.57456,197.46783L517.33692,194.85393
				L516.38637,192.00241L518.28747,188.20038L519.47566,186.537L519.23802,184.16073L520.18857,182.73497L522.32731,182.25972L525.17896,183.68548
				L527.79297,185.34886L530.64462,186.537L532.78336,186.77462L533.73391,184.63598L534.20919,182.9726L537.06084,182.73497L538.7243,183.68548
				L540.15012,183.21022L540.6254,181.07158L540.15012,178.45769L539.67485,176.55667L538.01139,175.60617L537.06084,173.94278L
				537.06084,172.27939L538.24902,170.616L539.67485,168.71499L539.19957,167.0516L538.01139,165.62584L536.8232,165.15059L535.39737,163.24958
				L534.44682,161.82382L533.25864,161.11094L531.35754,159.9228L529.69407,158.02179L529.93171,155.40789L530.88226,151.60587L
				530.64462,148.51672L530.64462,145.6652L531.35754,144.95232L533.49627,144.47706L535.87265,144.00181L537.53611,142.81368L538.7243,140.67503
				L539.91249,138.53639L541.10067,136.63538L541.10067,134.49674L539.91249,131.64522L539.19957,130.45708L539.19957,128.31844
				L539.91249,126.89268L541.57595,125.2293L543.47705,123.32828L545.85343,121.18964L547.04161,119.76388L547.99216,118.10049L
				548.2298,115.72423L548.46744,113.11033L549.18035,111.68457L550.1309,110.25881L550.36854,107.88254L550.1309,105.7439L549.18035,103.84289
				L548.70508,101.46662L548.46744,98.85273L548.70508,96.47646L549.65563,95.28833L549.65563,93.86257L548.94271,93.14969L547.04161,92.19918
				L545.37815,91.01104L544.4276,88.8724L544.4276,86.49614L544.4276,83.40699L544.66524,80.79309L545.37815,78.1792L543.47705,75.56531
				L542.5265,73.90192L541.57595,72.71379L540.6254,71.52565L541.10067,69.38701L541.10067,67.486L541.33831,66.77312L548.70508,66.29786
				L552.26964,65.34736L552.50728,67.24837L552.032,68.91176L552.032,72.0009L554.40838,73.18904L557.26003,76.75344L557.49767,81.98123
				L559.39877,83.40699L560.58695,85.78326L560.58695,87.20902L561.29987,88.39715L560.58695,89.82291L561.5375,89.58528L562.01278,89.34766
				L562.72569,90.29816L563.20097,91.72392L562.72569,91.96155L562.72569,92.91206L563.4386,93.38731L563.4386,95.0507L564.62679,96.23883
				L565.10207,96.95171L566.05262,98.13985L567.47844,97.66459L568.19135,98.6151L569.1419,99.09035L573.18174,96.95171L574.84521,95.52595
				L577.69686,96.95171L581.02378,95.28833L581.26142,94.33782L580.78614,92.91206L582.44961,89.11003L623.32326,102.41713L633.30404,105.26865
				L637.81915,107.64492L641.62135,109.07068L647.08702,117.62524L639.48262,123.09066L638.29443,127.13031L636.39333,129.7442L
				635.20514,154.21976L618.09524,204.59663L609.54029,224.08202L603.59935,235.01285L599.08423,242.85454L597.89605,245.46843L
				595.75731,249.03283L579.59796,262.33993L538.24902,297.74631L527.3177,318.8951L513.77236,345.50929L508.06906,349.54895L504.74213,350.49945
				L503.31631,352.16284L501.89048,351.92521L499.75174,349.54895L498.08828,348.83607L496.18718,347.4103L494.76135,345.98454L
				490.24624,345.27166"/>
			<path clip-path="url(#SVG_CP_1)" fill="none" stroke="#000000" stroke-width="0.47528" stroke-miterlimit="10" stroke-linecap="round" stroke-linejoin="round" d="
				M541.33831,66.77312L541.10067,67.486L541.10067,69.38701L540.6254,71.52565L541.57595,72.71379L542.5265,73.90192L543.47705,75.56531
				L545.37815,78.1792L544.66524,80.79309L544.4276,83.40699L544.4276,86.49614L544.4276,88.8724L545.37815,91.01104L547.04161,92.19918
				L548.94271,93.14969L549.65563,93.86257L549.65563,95.28833L548.70508,96.47646L548.46744,98.85273L548.70508,101.46662L549.18035,103.84289
				L550.1309,105.7439L550.36854,107.88254L550.1309,110.25881L549.18035,111.68457L548.46744,113.11033L548.2298,115.72423L547.99216,118.10049
				L547.04161,119.76388L545.85343,121.18964L543.47705,123.32828L541.57595,125.2293L539.91249,126.89268L539.19957,128.31844L
				539.19957,130.45708L539.91249,131.64522L541.10067,134.49674L541.10067,136.63538L539.91249,138.53639L538.7243,140.67503L537.53611,142.81368
				L535.87265,144.00181L533.49627,144.47706L531.35754,144.95232L530.64462,145.6652L530.64462,148.51672L530.88226,151.60587L
				529.93171,155.40789L529.69407,158.02179L531.35754,159.9228L533.25864,161.11094L534.44682,161.82382L535.39737,163.24958L536.8232,165.15059
				L538.01139,165.62584L539.19957,167.0516L539.67485,168.71499L538.24902,170.616L537.06084,172.27939L537.06084,173.94278L538.01139,175.60617
				L539.67485,176.55667L540.15012,178.45769L540.6254,181.07158L540.15012,183.21022L538.7243,183.68548L537.06084,182.73497L534.20919,182.9726
				L533.73391,184.63598L532.78336,186.77462L530.64462,186.537L527.79297,185.34886L525.17896,183.68548L522.32731,182.25972L520.18857,182.73497
				L519.23802,184.16073L519.47566,186.537L518.28747,188.20038L516.38637,192.00241L517.33692,194.85393L517.57456,197.46783L515.9111,200.08172
				L513.77236,202.22036L514.01,204.59663L514.96055,208.39866L514.72291,211.01255L514.96055,214.81458L514.72291,218.61661L513.77236,221.70576
				L514.24763,225.98304L513.05945,227.64642L510.68307,229.07218L508.30669,231.21083L506.16796,233.11184L505.69268,235.25048
				L506.40559,237.86437L505.21741,240.24064L504.50449,242.85454L503.07867,245.2308L501.65284,247.60707L500.22702,250.45859L
				498.80119,251.64673L496.90009,253.78537L496.90009,255.68638L496.18718,259.48841L495.47427,263.29044L493.57317,265.6667L492.38498,268.51822
				L491.43443,271.36975L491.19679,274.93415L490.95915,277.07279L489.29569,281.11244L488.58278,283.48871L490.72152,284.67684
				L493.09789,285.62735L494.99899,287.52836L497.85064,288.95412L500.46466,289.19175L500.70229,290.85514L501.89048,292.99378
				L503.55394,294.89479L503.31631,299.64733L503.07867,304.63749L502.36576,311.76629L501.65284,314.85544L500.22702,319.37035
				L498.32592,323.41L495.23663,326.0239L491.67207,328.40017L490.95915,329.82593L490.72152,333.1527L490.48388,336.00422L489.77097,339.56862
				L490.24624,341.46964L490.24624,344.55878L490.24624,345.27166L488.34514,345.50929L486.2064,346.22217L484.3053,346.22217L481.69129,346.93505
				L478.36436,345.03404L475.75035,345.50929L473.13634,347.64793L468.85886,358.81639L464.58139,361.19266L461.25446,365.23231
				L457.6899,367.37095L456.02644,370.22247L455.7888,372.12349L451.51132,372.36111L446.99621,372.83637L443.19401,373.31162L439.86708,373.78687
				L436.30252,373.31162L433.92615,374.0245L432.9756,374.73738L431.54977,375.92551L429.17339,375.68789L426.32174,375.68789L424.18301,374.49975
				L422.51954,374.97501L420.14317,373.78687L417.76679,374.49975L415.62805,376.40077L410.16239,379.72754L407.54838,380.91568
				L405.40964,381.62856L403.03327,381.62856L401.3698,381.1533L399.23106,380.44042L398.28051,382.57906L397.32996,384.00482L394.95359,385.90584
				L393.7654,384.7177L392.10194,382.81669L390.43848,381.86618L387.58683,380.67805L387.82446,377.82653L387.34919,375.45026L386.39864,374.49975
				L384.02226,373.54925L384.02226,372.12349L376.89314,375.21263L366.91236,379.01466L364.53598,374.26213L362.63488,370.93535
				L359.78323,365.46994L357.6445,359.05402L355.26812,353.35097L350.75301,348.36081L346.23789,343.13302L343.86152,339.56862L
				341.72278,337.90523L339.3464,337.19235L336.97003,334.81609L335.06893,331.72694L339.82168,310.34053L334.83129,289.90463L325.32579,269.2311
				L325.56343,267.56772L326.27634,268.75585L327.70217,269.70636L329.12799,270.18161L330.31618,271.13212L331.742,272.79551L333.16783,274.45889
				L333.16783,277.07279L333.88074,278.26092L335.30657,279.68668L337.4453,279.68668L339.10877,279.68668L339.58404,280.63719L
				340.05932,282.06295L339.82168,283.96396L341.00987,286.1026L343.14861,287.05311L345.28734,286.57786L350.75301,282.77583L358.35741,278.02329
				L365.96181,273.27076L367.38763,272.79551L371.18984,273.03313L373.09094,273.03313L378.31896,273.50839L385.21045,273.50839
				L389.01265,273.27076L397.5676,272.32025L403.2709,271.845L404.93437,269.94399L407.0731,267.56772L408.26129,265.90433L409.68712,264.47857
				L412.53877,262.57756L417.29152,260.43892L420.61844,258.30027L423.47009,255.68638L423.94537,253.54774L425.60883,249.74571
				L428.22284,246.65656L431.78741,240.24064L435.11433,236.20099L437.25307,236.43861L438.6789,237.15149L440.81763,235.96336L
				444.3822,233.34947L447.70912,232.16133L450.56077,232.39896L453.41242,231.21083L455.31352,230.26032L457.21462,230.02269L458.16517,231.44845
				L459.35336,232.39896L461.72974,232.87421L464.34375,233.11184L466.24485,232.63659L467.90831,231.92371L466.00721,231.21083
				L466.00721,230.26032L464.10611,229.54744L461.72974,228.12168L460.54155,228.59693L456.97699,228.3593L456.73935,226.93354L
				455.55116,226.69592L453.8877,225.03253L451.9866,225.74541L450.0855,225.03253L449.84786,227.17117L446.75857,227.64642L443.90692,227.64642
				L442.4811,226.69592L441.76818,226.93354L440.34236,225.98304L438.20362,225.50778L437.49071,224.55728L437.25307,222.89389L
				435.58961,223.36914L434.63906,222.89389L434.40142,220.75525L431.31213,219.56711L431.07449,216.95322L429.17339,216.24034L
				428.46048,216.00271L428.46048,214.1017L427.50993,213.86407L426.08411,212.43831L424.18301,210.5373L422.04427,209.34916L419.19262,206.02239
				L417.29152,203.88375L415.15278,202.69562L413.48932,200.7946L410.63767,198.65596L409.68712,199.13121L408.02365,199.84409L
				405.64728,200.31935L403.74618,200.55698L401.84508,199.84409L399.4687,200.08172L398.04288,201.50748L396.37941,201.50748L394.47831,201.03223
				L393.7654,200.08172L390.91375,199.36884L389.01265,198.65596L389.72556,196.75495L390.91375,194.61631L392.33958,193.19055L
				394.00304,191.52716L394.71595,188.91326L396.85469,186.06174L396.14178,184.39836L394.95359,183.21022L394.00304,181.78446L
				393.7654,179.88345L392.57721,177.03193L391.38903,174.41803L389.72556,172.75465L386.87391,172.51702L385.44809,170.14075L382.59644,166.81398
				L381.40825,164.91296L379.50715,163.24958L378.08132,161.82382L378.08132,158.49704L378.08132,152.31875L377.60605,152.08112
				L373.80385,149.70485L371.66511,146.37808L371.66511,144.00181L373.09094,141.38792L375.94259,140.19978L379.26951,138.77402
				L382.12116,137.58589L385.68572,136.16013L388.53738,135.44725L390.43848,134.49674L393.29013,134.02149L395.42886,133.78386
				L395.90414,133.07098L396.14178,131.64522L396.85469,129.98183L398.75579,129.26895L398.99343,128.31844L399.94398,126.65506
				L400.65689,123.80354L400.41925,121.18964L398.75579,119.051L397.32996,116.43711L395.6665,112.15983L394.71595,108.12017L393.29013,103.36764
				L392.57721,99.09035L392.10194,96.00121L392.33958,91.24867L392.33958,86.02088L391.15139,82.45648L389.25029,72.0009L389.9632,67.96125
				L391.15139,63.44634L391.15139,61.3077L390.91375,59.16906L391.62666,56.79279L391.38903,53.70365L392.81485,50.37687L392.57721,46.57484
				L391.15139,44.19858L391.62666,42.77281L394.24068,41.34705L396.37941,40.39655L395.6665,39.92129L394.47831,39.20841L393.29013,38.25791
				L391.8643,37.06977L389.25029,35.40639L387.58683,33.743L386.87391,31.84198L387.34919,29.94097L388.29974,28.75284L389.01265,27.32708
				L390.20084,26.37657L393.29013,26.6142L395.90414,24.71318L397.32996,24.71318L399.23106,26.37657L402.55799,28.03996L408.49893,28.75284
				L411.11294,27.32708L413.25168,26.37657L415.39042,25.18844L417.76679,24.47556L420.38081,24.47556L422.75718,24.71318L430.12394,26.13894
				L433.92615,26.13894L437.01543,27.32708L440.10472,29.22809L442.24346,30.41622L444.61983,29.22809L447.94676,29.46572L451.51132,29.22809
				L454.36297,28.51521L460.77919,29.94097L461.96737,29.70334L464.34375,30.41622L466.72013,31.84198L468.62123,33.50537L470.9976,33.98063
				L472.66106,34.93113L475.51271,35.88164L478.36436,36.35689L481.45365,36.35689L484.06767,36.35689L487.63223,36.59452L490.24624,36.83215
				L492.38498,36.83215L494.52372,36.59452L495.71191,37.06977L497.13773,37.06977L499.75174,37.3074L501.89048,37.06977L503.55394,36.83215
				L506.88087,36.35689L510.20779,35.88164L511.39598,35.64401L511.39598,36.35689L512.34653,37.06977L514.01,37.3074L514.96055,38.25791
				L515.19818,39.20841L514.96055,39.92129L514.24763,40.8718L514.48527,41.82231L515.43582,42.53519L517.09928,42.77281L517.57456,43.72332
				L518.52511,43.72332L520.66385,43.4857L521.85203,44.19858L522.56495,45.38671L523.5155,46.81247L524.70368,47.28772L526.12951,46.81247
				L528.26825,48.47586L529.69407,49.66399L531.35754,49.18874L531.83281,50.85212L532.30809,52.04026L532.54572,53.46602L527.08006,58.45618
				L529.2188,61.54533L533.49627,65.82261L537.53611,66.77312L541.33831,66.77312"/>
			<path clip-path="url(#SVG_CP_1)" fill="none" stroke="#000000" stroke-width="0.47528" stroke-miterlimit="10" stroke-linecap="round" stroke-linejoin="round" d="
				M390.20084,26.37657L389.01265,27.32708L388.29974,28.75284L387.34919,29.94097L386.87391,31.84198L387.58683,33.743L389.25029,35.40639
				L391.8643,37.06977L393.29013,38.25791L394.47831,39.20841L395.6665,39.92129L396.37941,40.39655L394.24068,41.34705L391.62666,42.77281
				L391.15139,44.19858L392.57721,46.57484L392.81485,50.37687L391.38903,53.70365L391.62666,56.79279L390.91375,59.16906L391.15139,61.3077
				L391.15139,63.44634L389.9632,67.96125L389.25029,72.0009L391.15139,82.45648L392.33958,86.02088L392.33958,91.24867L392.10194,96.00121
				L392.57721,99.09035L393.29013,103.36764L394.71595,108.12017L395.6665,112.15983L397.32996,116.43711L398.75579,119.051L400.41925,121.18964
				L400.65689,123.80354L399.94398,126.65506L398.99343,128.31844L398.75579,129.26895L396.85469,129.98183L396.14178,131.64522
				L395.90414,133.07098L395.42886,133.78386L393.29013,134.02149L390.43848,134.49674L388.53738,135.44725L385.68572,136.16013
				L382.12116,137.58589L379.26951,138.77402L375.94259,140.19978L373.09094,141.38792L371.66511,144.00181L371.66511,146.37808
				L373.80385,149.70485L377.60605,152.08112L378.08132,152.31875L378.08132,158.49704L378.08132,161.82382L379.50715,163.24958
				L381.40825,164.91296L382.59644,166.81398L385.44809,170.14075L386.87391,172.51702L389.72556,172.75465L391.38903,174.41803
				L392.57721,177.03193L393.7654,179.88345L394.00304,181.78446L394.95359,183.21022L396.14178,184.39836L396.85469,186.06174L
				394.71595,188.91326L394.00304,191.52716L392.33958,193.19055L390.91375,194.61631L389.72556,196.75495L389.01265,198.65596L
				390.91375,199.36884L393.7654,200.08172L394.47831,201.03223L396.37941,201.50748L398.04288,201.50748L399.4687,200.08172L401.84508,199.84409
				L403.74618,200.55698L405.64728,200.31935L408.02365,199.84409L409.68712,199.13121L410.63767,198.65596L413.48932,200.7946L
				415.15278,202.69562L417.29152,203.88375L419.19262,206.02239L422.04427,209.34916L424.18301,210.5373L426.08411,212.43831L427.50993,213.86407
				L428.46048,214.1017L428.46048,216.00271L429.17339,216.24034L431.07449,216.95322L431.31213,219.56711L434.40142,220.75525L
				434.63906,222.89389L435.58961,223.36914L437.25307,222.89389L437.49071,224.55728L438.20362,225.50778L440.34236,225.98304L
				441.76818,226.93354L442.4811,226.69592L443.90692,227.64642L446.75857,227.64642L449.84786,227.17117L450.0855,225.03253L451.9866,225.74541
				L453.8877,225.03253L455.55116,226.69592L456.73935,226.93354L456.97699,228.3593L460.54155,228.59693L461.72974,228.12168L464.10611,229.54744
				L466.00721,230.26032L466.00721,231.21083L467.90831,231.92371L466.24485,232.63659L464.34375,233.11184L461.72974,232.87421
				L459.35336,232.39896L458.16517,231.44845L457.21462,230.02269L455.31352,230.26032L453.41242,231.21083L450.56077,232.39896
				L447.70912,232.16133L444.3822,233.34947L440.81763,235.96336L438.6789,237.15149L437.25307,236.43861L435.11433,236.20099L431.78741,240.24064
				L428.22284,246.65656L425.60883,249.74571L423.94537,253.54774L423.47009,255.68638L420.61844,258.30027L417.29152,260.43892
				L412.53877,262.57756L409.68712,264.47857L408.26129,265.90433L407.0731,267.56772L404.93437,269.94399L403.2709,271.845L397.5676,272.32025
				L389.01265,273.27076L385.21045,273.50839L378.31896,273.50839L373.09094,273.03313L371.18984,273.03313L367.38763,272.79551
				L365.96181,273.27076L358.35741,278.02329L350.75301,282.77583L345.28734,286.57786L343.14861,287.05311L341.00987,286.1026L
				339.82168,283.96396L340.05932,282.06295L339.58404,280.63719L339.10877,279.68668L337.4453,279.68668L335.30657,279.68668L333.88074,278.26092
				L333.16783,277.07279L333.16783,274.45889L331.742,272.79551L330.31618,271.13212L329.12799,270.18161L327.70217,269.70636L326.27634,268.75585
				L325.56343,267.56772L325.80107,267.09246L325.80107,265.42908L325.32579,264.24094L325.08815,263.05281L324.37524,262.57756
				L322.71178,264.00332L321.28595,264.7162L319.62249,264.24094L317.72139,263.29044L315.58265,263.29044L312.96864,261.38942L
				312.96864,258.30027L312.96864,255.92401L312.49336,254.02299L314.6321,253.54774L316.05793,252.59723L318.90958,251.64673L320.57304,250.93385
				L320.57304,250.22097L319.86013,249.03283L320.57304,247.60707L321.04831,246.41894L321.28595,244.99318L321.99886,243.80504
				L322.71178,242.61691L321.99886,241.90403L321.04831,240.95352L320.81068,240.00302L321.76123,239.29013L322.47414,238.57725
				L322.47414,237.62675L321.52359,236.67624L320.3354,235.72573L320.09776,234.77523L321.28595,233.58709L322.2365,232.39896L322.71178,231.21083
				L322.2365,230.26032L321.99886,229.07218L323.18705,227.88405L323.42469,226.93354L323.18705,225.03253L322.94941,224.31965L
				321.99886,222.65626L320.3354,220.99288L319.14721,220.28L319.14721,219.32949L319.86013,217.42847L320.09776,215.05221L320.09776,212.91357
				L320.09776,211.72543L320.3354,210.29967L317.95903,208.63628L316.29556,208.63628L313.91919,208.16103L312.25573,205.54714L
				310.8299,203.4085L309.16644,201.50748L306.55242,201.74511L303.70077,202.45799L301.56204,201.50748L299.66094,196.99257L294.67055,187.24988
				L292.05653,182.49734L289.20488,177.26955L288.96725,176.08142L288.0167,175.13091L286.1156,174.41803L284.2145,174.41803L282.3134,173.46753
				L279.93702,172.27939L276.84773,170.85363L274.94663,170.37838L271.38207,170.616L268.76806,170.37838L266.39168,170.37838L263.06476,170.616
				L260.92602,170.85363L258.07437,168.95262L256.4109,168.23974L253.79689,166.57635L250.7076,164.91296L246.43013,166.1011L244.52903,167.0516
				L242.15265,166.81398L241.43974,167.28923L240.25155,167.28923L239.06336,167.0516L237.63754,167.76448L236.44935,167.0516L235.02353,168.00211
				L233.5977,168.47736L232.64715,169.19024L231.93424,168.71499L230.74605,168.95262L228.13204,169.19024L226.23094,170.37838L
				223.37929,170.37838L221.71582,170.37838L220.29,170.37838L218.3889,170.616L216.25016,170.616L213.87378,170.616L211.49741,170.616
				L208.64576,171.32889L205.55647,170.14075L203.65537,169.42787L201.51663,168.95262L199.85317,169.19024L198.42734,169.42787
				L196.76388,168.95262L193.43696,167.52686L191.77349,167.0516L189.87239,166.1011L187.97129,164.20008L186.30783,162.5367L183.45618,162.29907
				L181.0798,161.82382L178.22815,160.87331L175.13887,158.73467L173.4754,158.02179L171.5743,157.07128L169.43557,156.12077L168.72265,154.93264
				L151.85039,154.45739L134.02757,154.45739L129.03718,154.69501L128.79955,154.69501L128.56191,154.45739L128.32427,154.21976
				L128.32427,153.98213L128.32427,153.74451L128.32427,153.50688L128.32427,153.26925L128.32427,153.03163L128.08663,153.03163
				L128.08663,152.794L128.32427,152.55637L128.32427,152.31875L128.32427,152.08112L128.32427,151.84349L128.56191,151.84349L128.56191,151.60587
				L128.79955,151.36824L129.03718,151.13061L129.03718,150.89298L129.03718,150.65536L129.03718,150.41773L129.03718,150.1801L
				128.79955,150.1801L128.79955,149.94248L128.79955,149.70485L128.79955,149.46722L128.56191,149.46722L128.56191,149.2296L128.79955,149.2296
				L128.79955,148.99197L129.03718,148.99197L129.03718,148.75434L129.27482,148.75434L129.27482,148.51672L129.51246,148.51672
				L129.51246,148.27909L129.51246,148.04146L129.7501,148.04146L129.98773,147.80384L129.98773,147.56621L130.22537,147.56621L
				130.22537,147.32858L130.22537,147.09096L130.22537,146.85333L130.46301,146.6157L130.22537,146.6157L130.22537,146.37808L129.98773,146.37808
				L129.51246,146.14045L129.27482,146.14045L129.03718,146.14045L129.03718,145.90282L128.79955,145.90282L128.79955,145.6652L
				128.56191,145.42757L128.56191,144.95232L128.56191,144.71469L128.32427,144.71469L128.32427,144.47706L128.32427,144.23944L
				128.56191,144.23944L128.56191,144.00181L128.56191,143.76418L128.56191,143.52656L128.32427,143.52656L128.32427,143.28893L
				128.56191,143.0513L128.56191,142.81368L128.56191,142.57605L128.32427,142.57605L128.32427,142.33842L128.56191,142.1008L128.79955,142.1008
				L128.79955,141.86317L129.03718,141.86317L129.03718,141.62554L129.03718,141.38792L129.27482,141.38792L129.51246,141.38792
				L129.51246,141.15029L129.51246,140.91266L129.51246,140.67503L129.7501,140.43741L129.7501,140.19978L129.7501,139.96215L129.7501,139.72453
				L129.7501,139.4869L129.51246,139.4869L129.51246,139.24927L129.27482,139.24927L129.03718,139.01165L129.03718,138.77402L129.03718,138.53639
				L128.79955,138.29877L128.79955,138.06114L128.56191,138.06114L128.32427,138.06114L128.08663,138.06114L128.08663,137.82351
				L127.849,137.58589L128.08663,137.34826L128.32427,137.34826L128.32427,137.11063L128.56191,137.11063L128.79955,137.11063L129.27482,137.11063
				L129.51246,137.11063L129.7501,137.11063L129.98773,137.11063L130.46301,137.34826L130.70065,137.34826L130.93828,137.34826L
				131.17592,137.34826L131.41356,137.58589L131.88883,137.58589L132.12647,137.82351L132.36411,137.82351L132.60175,137.82351L
				132.60175,137.58589L132.60175,137.34826L132.36411,137.11063L132.36411,136.87301L132.60175,136.63538L132.83938,136.63538L
				133.07702,136.16013L133.07702,135.9225L133.31466,135.9225L133.5523,135.9225L133.78993,135.9225L133.78993,135.68487L134.02757,135.68487
				L134.26521,135.44725L134.74048,135.44725L134.97812,135.44725L135.21576,135.44725L135.4534,135.44725L135.92867,135.44725L
				136.16631,135.44725L136.40395,135.44725L136.64158,135.44725L136.87922,135.44725L137.11686,135.44725L137.3545,135.44725L137.82977,135.44725
				L138.06741,135.44725L138.06741,135.20962L138.54269,135.20962L138.78032,135.20962L139.01796,134.97199L139.49324,134.73437
				L139.96851,134.49674L140.20615,134.25911L140.44379,134.25911L140.68142,134.25911L140.91906,134.02149L141.39434,133.78386
				L141.63197,133.78386L141.86961,133.78386L142.10725,133.78386L142.34489,133.54623L142.58252,133.54623L142.58252,133.30861
				L142.82016,133.30861L143.0578,133.07098L143.53307,132.83335L144.00835,132.83335L144.48362,132.59573L144.72126,132.3581L145.19654,132.12047
				L145.43417,132.12047L145.67181,132.12047L145.90945,132.12047L145.90945,131.88285L146.14709,131.88285L146.38472,131.88285
				L146.38472,131.64522L146.62236,131.64522L146.86,131.64522L147.09764,131.64522L147.33527,131.64522L147.57291,131.64522L147.81055,131.64522
				L148.04819,131.64522L148.28582,131.64522L148.52346,131.64522L148.7611,131.64522L148.99874,131.64522L154.70204,124.75404L
				154.4644,122.37778L154.4644,121.18964L153.98913,118.33812L153.98913,116.19948L154.22676,114.77372L154.70204,111.9222L155.17731,110.49644
				L155.65259,110.02118L156.12786,109.78356L156.84078,109.78356L158.2666,109.54593L158.74188,108.83305L161.11825,107.64492L
				165.63336,105.50628L168.24738,102.65476L170.62375,101.22899L173.00013,99.09035L174.90123,97.18934L177.03997,95.52595L179.41634,94.10019
				L179.89162,95.0507L179.65398,96.95171L179.89162,97.90222L182.9809,98.6151L183.93146,98.85273L184.88201,98.37747L186.07019,98.13985
				L187.73366,97.66459L188.92184,97.18934L190.58531,94.81307L191.77349,93.86257L193.91223,92.91206L195.33806,92.67443L199.85317,92.67443
				L200.56608,92.91206L201.51663,93.14969L202.22955,93.38731L203.65537,93.62494L205.79411,92.43681L208.64576,92.43681L215.53725,91.4863
				L216.96307,93.38731L218.15126,95.0507L219.57709,97.66459L221.71582,99.80323L222.42874,104.55577L222.42874,107.40729L223.37929,112.87271
				L225.9933,113.58559L229.55786,113.58559L233.12243,113.11033L236.21171,112.63508L240.25155,112.87271L245.71721,112.39745L
				250.46997,111.68457L256.17327,109.54593L259.50019,108.3578L261.87657,107.64492L264.25294,107.40729L265.91641,107.88254L268.05514,106.69441
				L271.85734,105.7439L274.70899,105.7439L278.03592,105.50628L281.36285,105.98153L284.92741,105.50628L287.54142,104.55577L288.72961,103.60526
				L290.63071,103.84289L290.63071,105.03102L290.63071,106.93204L290.15543,109.78356L289.9178,111.68457L291.58126,112.63508L
				293.72,112.63508L295.38346,112.39745L296.57165,111.44694L297.04692,108.83305L297.99747,105.26865L300.37385,101.94188L303.46314,99.09035
				L305.60187,96.47646L306.79006,93.38731L307.97825,91.72392L311.54281,91.4863L314.39446,90.29816L318.19666,90.06054L321.04831,89.58528
				L322.94941,87.44664L325.08815,87.44664L327.70217,88.15952L329.36563,89.58528L331.26673,91.01104L334.11838,90.77342L339.3464,90.06054
				L347.18844,87.9219L350.04009,86.73376L352.17883,85.308L355.03048,84.59512L357.40686,84.3575L361.92197,83.64462L364.77362,83.16936
				L365.48653,81.50597L365.2489,79.36733L362.87252,78.41683L359.78323,77.70395L356.69395,76.99107L353.36702,75.32768L349.08954,74.37717
				L346.71317,73.90192L343.86152,72.71379L340.53459,70.33752L338.15822,68.67413L334.59365,68.19888L330.79145,68.4365L327.22689,67.01074
				L325.08815,66.53549L320.09776,64.15922L317.00848,63.44634L314.15683,62.49583L312.01809,60.35719L309.87935,60.11957L306.79006,59.16906
				L303.93841,57.50567L302.51259,56.31754L299.89857,55.84229L297.75984,54.41653L296.09637,52.04026L296.80929,49.90162L296.80929,48.0006
				L296.33401,45.62434L296.57165,42.77281L298.23511,40.63417L299.18566,37.78265L299.89857,34.69351L301.79967,32.55486L303.93841,31.60436
				L305.36424,28.51521L306.79006,25.42606L308.21589,22.09929L309.64171,20.19827L309.87935,19.48539L310.11699,19.72302L312.01809,20.91115
				L317.24611,23.04979L320.3354,23.52505L323.89997,24.71318L326.51398,26.13894L328.89035,27.08945L330.79145,28.51521L333.40547,29.46572
				L335.5442,30.1786L337.92058,31.36673L340.77223,34.21825L344.57443,35.16876L349.08954,36.59452L351.94119,34.93113L353.84229,33.03012
				L354.07993,29.46572L354.79284,25.90132L356.21867,22.81217L357.88213,21.86166L360.49615,20.67353L362.87252,19.24777L365.01126,18.77251
				L369.0511,19.01014L371.66511,18.53489L373.09094,19.01014L376.6555,21.14878L379.98242,22.57454L382.83407,24.0003L385.21045,25.66369
				L387.82446,26.37657L390.20084,26.37657"/>
		</g>
	</g>
</svg>
