<?xml version="1.0" encoding="utf-8" standalone="no"?>
<!-- Creator: Esri ArcMap 10.8.0.12790 -->
<!DOCTYPE svg PUBLIC "-//W3C//DTD SVG 1.1//EN"  "http://www.w3.org/Graphics/SVG/1.1/DTD/svg11.dtd">
<svg width="774.73701pt" height="404.24882pt" viewBox="0 0 774.73701 404.24882" enable-background="new 0 0 774.73701 404.24882"
	version="1.1" xmlns="http://www.w3.org/2000/svg" xmlns:xlink="http://www.w3.org/1999/xlink" >
	<g id="Layers">
		<g id="Diamare_SD">
			<clipPath id="SVG_CP_1">
				<path d="M0,404.24882L0,0L774.73701,0L774.73701,404.24882L0,404.24882z"/>
			</clipPath>
			<path clip-path="url(#SVG_CP_1)" fill="none" stroke="#000000" stroke-width="0.47528" stroke-miterlimit="10" stroke-linecap="round" stroke-linejoin="round" d="
				M407.54838,104.08052L398.04288,113.11033L394.71595,116.43711L388.53738,123.80354L380.4577,132.83335L378.08132,135.68487L
				367.62527,147.56621L362.63488,153.26925L351.70356,160.39805L343.38624,160.39805L335.5442,163.96246L326.51398,172.99227L304.17605,197.70545
				L297.04692,201.50748L292.76945,197.94308L293.72,190.1014L297.99747,176.31905L297.28456,163.01195L291.58126,116.43711L293.00709,115.96185
				L293.95764,114.29847L295.85874,114.06084L295.85874,112.87271L296.80929,111.9222L298.23511,110.97169L299.89857,109.07068L
				299.89857,108.12017L299.89857,106.93204L299.66094,105.7439L299.66094,104.55577L300.13621,103.84289L301.08676,103.36764L302.27495,102.89238
				L302.75022,101.46662L304.41369,99.80323L305.60187,98.6151L306.07715,97.66459L307.50297,95.76358L308.45353,94.33782L309.40408,93.38731
				L311.06754,91.72392L313.91919,89.11003L316.05793,87.68427L317.24611,84.3575L318.4343,83.16936L319.14721,82.45648L320.3354,81.03072
				L321.04831,80.79309L323.66233,78.1792L328.89035,73.90192L335.78184,67.96125L340.77223,72.0009L348.85191,78.65445L354.31757,83.16936
				L356.45631,84.83275L360.25851,87.9219L363.58543,90.77342L369.28873,95.28833L375.46731,100.51611L376.89314,101.70425L381.88352,105.7439
				L382.12116,105.98153L384.2599,107.16966L388.77501,108.12017L389.48793,108.3578L392.33958,109.07068L395.90414,106.93204L398.51815,105.50628
				L399.94398,104.31814L402.08272,102.89238L403.2709,102.1795L404.22145,101.70425L404.93437,102.41713L405.40964,102.89238L406.12255,103.36764
				L406.83547,103.60526L407.0731,103.84289L407.54838,104.08052"/>
			<path clip-path="url(#SVG_CP_1)" fill="none" stroke="#000000" stroke-width="0.47528" stroke-miterlimit="10" stroke-linecap="round" stroke-linejoin="round" d="
				M379.74479,248.7952L376.6555,247.8447L375.22967,247.60707L373.32857,247.13182L365.01126,244.75555L364.77362,244.75555L363.82307,244.51792
				L362.63488,244.2803L361.4467,244.75555L360.02087,245.2308L358.35741,245.70606L356.45631,246.18131L352.65411,246.41894L351.46592,246.41894
				L348.61427,246.65656L345.28734,246.18131L344.09916,245.46843L343.14861,244.75555L340.05932,242.37928L339.10877,241.42878
				L337.20767,240.00302L332.93019,237.86437L327.70217,235.25048L328.41508,232.63659L329.36563,230.26032L329.60327,228.83456
				L329.36563,228.12168L323.18705,220.75525L322.2365,219.56711L322.47414,218.85423L321.99886,218.37898L321.99886,217.6661L321.52359,217.19085
				L321.28595,216.00271L320.57304,215.28983L320.3354,213.86407L319.62249,208.39866L319.38485,207.44815L318.19666,205.30951L
				318.90958,204.359L319.14721,203.88375L319.62249,202.69562L320.3354,201.50748L321.28595,201.26986L321.52359,200.31935L321.76123,199.84409
				L322.71178,199.60647L323.66233,199.13121L323.18705,198.41833L323.42469,197.70545L323.66233,196.99257L324.61288,196.04207
				L325.56343,194.85393L325.80107,193.42817L326.51398,192.00241L326.27634,191.52716L329.60327,188.20038L339.3464,179.64582L
				339.82168,178.93294L340.77223,178.22006L341.00987,177.74481L342.19806,177.26955L343.14861,177.03193L343.86152,177.74481L
				344.33679,177.26955L344.81207,177.50718L345.52498,177.03193L345.52498,176.55667L345.76262,176.08142L346.23789,175.84379L
				345.52498,174.89329L346.00026,174.18041L346.23789,173.46753L346.47553,172.99227L346.71317,173.2299L346.71317,173.70515L347.66372,173.46753
				L347.66372,172.99227L347.90136,172.51702L348.37663,172.51702L348.85191,172.99227L348.61427,173.2299L348.61427,173.94278L
				349.08954,173.70515L349.80246,173.46753L350.04009,172.75465L350.51537,172.27939L350.04009,171.56651L350.75301,171.09126L
				351.46592,169.6655L358.59505,159.20992L360.49615,156.3584L362.63488,153.26925L367.62527,147.56621L378.08132,135.68487L380.4577,132.83335
				L388.53738,123.80354L394.71595,116.43711L398.04288,113.11033L407.54838,104.08052L408.9742,105.26865L409.92475,106.21916L
				410.40003,106.93204L413.72695,107.16966L415.86569,106.93204L417.52916,116.43711L417.52916,133.30861L412.7764,139.96215L414.43987,152.55637
				L410.8753,172.27939L410.8753,201.03223L410.8753,224.7949L379.74479,248.7952"/>
			<path clip-path="url(#SVG_CP_1)" fill="none" stroke="#000000" stroke-width="0.47528" stroke-miterlimit="10" stroke-linecap="round" stroke-linejoin="round" d="
				M379.74479,248.7952L380.69534,259.25078L394.24068,266.85484L383.07171,282.77583L334.83129,285.1521L320.81068,280.39956L308.21589,262.57756
				L307.0277,261.1518L305.60187,260.20129L305.83951,259.01315L304.17605,258.06265L302.98786,256.87451L301.56204,256.39926L300.37385,256.63689
				L298.23511,252.12198L297.04692,248.08232L296.09637,243.09216L296.80929,242.14166L298.47275,240.47827L300.37385,240.00302
				L302.51259,239.52776L304.17605,238.57725L306.31479,239.52776L311.06754,239.05251L316.05793,239.29013L319.86013,238.33963
				L323.18705,237.62675L327.70217,235.25048L332.93019,237.86437L337.20767,240.00302L339.10877,241.42878L340.05932,242.37928
				L343.14861,244.75555L344.09916,245.46843L345.28734,246.18131L348.61427,246.65656L351.46592,246.41894L352.65411,246.41894
				L356.45631,246.18131L358.35741,245.70606L360.02087,245.2308L361.4467,244.75555L362.63488,244.2803L363.82307,244.51792L364.77362,244.75555
				L365.01126,244.75555L373.32857,247.13182L375.22967,247.60707L376.6555,247.8447L379.74479,248.7952"/>
			<path clip-path="url(#SVG_CP_1)" fill="none" stroke="#000000" stroke-width="0.47528" stroke-miterlimit="10" stroke-linecap="round" stroke-linejoin="round" d="
				M362.63488,153.26925L360.49615,156.3584L358.59505,159.20992L351.46592,169.6655L350.75301,171.09126L350.04009,171.56651L350.51537,172.27939
				L350.04009,172.75465L349.80246,173.46753L349.08954,173.70515L348.61427,173.94278L348.61427,173.2299L348.85191,172.99227L
				348.37663,172.51702L347.90136,172.51702L347.66372,172.99227L347.66372,173.46753L346.71317,173.70515L346.71317,173.2299L346.47553,172.99227
				L346.23789,173.46753L346.00026,174.18041L345.52498,174.89329L346.23789,175.84379L345.76262,176.08142L345.52498,176.55667
				L345.52498,177.03193L344.81207,177.50718L344.33679,177.26955L343.86152,177.74481L343.14861,177.03193L342.19806,177.26955
				L341.00987,177.74481L340.77223,178.22006L339.82168,178.93294L339.3464,179.64582L329.60327,188.20038L326.27634,191.52716L
				326.51398,192.00241L325.80107,193.42817L325.56343,194.85393L324.61288,196.04207L323.66233,196.99257L323.42469,197.70545L
				323.18705,198.41833L323.66233,199.13121L322.71178,199.60647L321.76123,199.84409L321.52359,200.31935L321.28595,201.26986L
				320.3354,201.50748L319.62249,202.69562L319.14721,203.88375L318.90958,204.359L318.19666,205.30951L319.38485,207.44815L319.62249,208.39866
				L320.3354,213.86407L320.57304,215.28983L321.28595,216.00271L321.52359,217.19085L321.99886,217.6661L321.99886,218.37898L322.47414,218.85423
				L322.2365,219.56711L323.18705,220.75525L329.36563,228.12168L329.60327,228.83456L329.36563,230.26032L328.41508,232.63659L
				327.70217,235.25048L323.18705,237.62675L319.86013,238.33963L316.05793,239.29013L311.06754,239.05251L306.31479,239.52776L
				304.17605,238.57725L302.51259,239.52776L300.37385,240.00302L298.47275,240.47827L296.80929,242.14166L296.09637,243.09216L
				293.48236,243.32979L290.15543,243.32979L286.59087,243.09216L284.92741,243.09216L283.50158,244.04267L280.4123,244.99318L276.84773,244.75555
				L275.42191,243.80504L273.52081,243.09216L272.09498,242.61691L270.66916,242.85454L270.90679,242.61691L270.19388,241.90403
				L270.19388,241.42878L270.19388,240.95352L270.90679,240.47827L273.04553,239.76539L272.09498,238.102L271.38207,236.91387L271.14443,236.20099
				L270.66916,231.44845L270.66916,229.30981L270.66916,227.4088L270.19388,224.7949L269.00569,222.41864L268.29278,219.56711L267.81751,217.6661
				L266.62932,215.76509L267.34223,215.28983L267.57987,213.38882L267.34223,211.72543L266.86696,208.87391L267.57987,205.78476
				L268.29278,201.74511L268.53042,199.84409L268.53042,198.65596L267.81751,197.2302L267.34223,196.27969L266.86696,195.09156L
				265.91641,194.14105L260.92602,186.06174L259.26255,183.68548L257.36145,181.78446L256.88618,180.3587L256.4109,177.50718L255.93563,175.36854
				L254.74744,172.99227L254.5098,171.32889L254.74744,169.19024L254.74744,167.28923L254.27217,164.91296L254.03453,163.24958L
				253.32162,162.06144L252.13343,160.39805L251.42052,158.49704L250.23233,156.12077L249.75705,155.17027L249.75705,153.98213L
				249.75705,153.03163L248.56887,151.36824L247.61832,149.46722L246.9054,148.27909L246.43013,146.14045L245.95485,144.00181L245.71721,143.0513
				L247.14304,141.38792L248.56887,140.43741L249.28178,139.72453L249.51942,139.24927L250.46997,139.4869L252.13343,138.77402L
				252.13343,137.82351L252.37107,136.87301L253.08398,135.9225L254.5098,136.63538L255.22272,137.34826L255.93563,137.58589L256.64854,136.63538
				L257.12382,136.16013L258.312,136.87301L258.78728,136.39775L259.02492,135.9225L259.73783,135.20962L259.97547,134.73437L260.45074,133.78386
				L261.63893,132.83335L261.40129,131.88285L262.58948,131.16996L264.01531,130.93234L264.96586,132.3581L266.86696,131.88285L
				268.53042,131.16996L269.48097,130.69471L271.14443,131.16996L272.09498,131.16996L272.80789,130.21946L273.75844,129.03132L
				274.23372,128.08082L274.70899,127.36794L275.89718,127.60556L276.84773,127.13031L277.08537,126.41743L277.79828,125.70455L
				278.74883,125.2293L278.74883,124.75404L278.27356,123.32828L278.74883,122.37778L279.22411,121.90252L280.88757,120.71439L285.40268,117.86287
				L287.77906,117.14999L291.10598,116.67473L291.58126,116.43711L297.28456,163.01195L297.99747,176.31905L293.72,190.1014L292.76945,197.94308
				L297.04692,201.50748L304.17605,197.70545L326.51398,172.99227L335.5442,163.96246L343.38624,160.39805L351.70356,160.39805L
				362.63488,153.26925"/>
			<path clip-path="url(#SVG_CP_1)" fill="none" stroke="#000000" stroke-width="0.47528" stroke-miterlimit="10" stroke-linecap="round" stroke-linejoin="round" d="
				M250.23233,235.72573L252.13343,236.91387L253.32162,238.102L254.5098,238.57725L255.22272,238.81488L255.46035,239.52776L255.93563,240.24064
				L257.12382,240.24064L258.312,240.47827L259.73783,240.95352L261.16365,240.95352L262.82712,241.6664L263.77767,242.85454L264.49058,243.32979
				L266.15404,242.85454L267.34223,242.61691L268.53042,242.85454L269.24333,243.09216L270.66916,242.85454L272.09498,242.61691
				L273.52081,243.09216L275.42191,243.80504L276.84773,244.75555L280.4123,244.99318L283.50158,244.04267L284.92741,243.09216L
				286.59087,243.09216L290.15543,243.32979L293.48236,243.32979L296.09637,243.09216L297.04692,248.08232L298.23511,252.12198L
				300.37385,256.63689L298.71039,257.34977L297.99747,258.5379L297.28456,259.25078L296.33401,259.25078L295.6211,259.01315L294.90819,259.48841
				L294.43291,260.43892L293.48236,261.1518L292.53181,261.1518L290.86835,262.1023L288.72961,262.81518L285.16505,263.52806L252.37107,277.31041
				L250.23233,284.20159L247.61832,294.18191L247.14304,293.94429L245.95485,293.94429L245.0043,294.18191L243.81611,294.65717L
				242.39029,293.94429L241.91501,293.23141L241.67738,292.99378L240.96446,292.51853L240.96446,291.80565L240.48919,291.80565L
				240.01391,292.75615L239.301,292.51853L238.82573,291.80565L238.35045,291.80565L237.63754,291.56802L237.87518,290.61751L237.16226,290.37989
				L236.21171,289.90463L236.44935,289.19175L236.68699,288.95412L236.68699,288.24124L235.4988,287.29074L234.78589,286.81548L
				234.31061,287.05311L233.83534,287.05311L232.88479,286.81548L231.45896,286.81548L230.98369,285.62735L231.93424,284.91447L
				231.93424,284.43922L230.50841,284.20159L229.7955,284.91447L228.84495,284.67684L227.18149,283.25108L226.46857,283.01346L225.04275,282.30058
				L223.37929,281.5877L219.57709,281.11244L218.3889,280.39956L217.20071,279.21143L218.15126,275.88465L216.01252,258.77553L215.53725,255.68638
				L214.5867,251.64673L209.83395,235.25048L208.8834,232.16133L209.12103,232.16133L210.07158,230.73557L211.02213,229.54744L212.44796,229.07218
				L213.63615,228.59693L215.29961,228.83456L216.72544,229.30981L217.20071,230.02269L217.91362,231.21083L219.10181,232.16133
				L219.81472,232.87421L220.76527,233.11184L222.1911,234.06235L223.14165,234.5376L223.85456,234.77523L224.32984,234.77523L224.56747,235.01285
				L224.56747,236.20099L225.28039,237.38912L225.51802,238.102L225.9933,238.81488L226.46857,239.29013L226.70621,240.00302L226.46857,240.95352
				L226.23094,241.6664L226.70621,242.37928L227.65676,242.85454L228.36967,243.09216L229.08259,243.09216L230.74605,242.61691L
				240.01391,239.52776L240.48919,239.05251L241.67738,237.38912L242.15265,236.43861L243.1032,235.96336L244.52903,235.72573L245.95485,235.25048
				L246.9054,235.25048L248.56887,235.25048L250.23233,235.72573"/>
			<path clip-path="url(#SVG_CP_1)" fill="none" stroke="#000000" stroke-width="0.47528" stroke-miterlimit="10" stroke-linecap="round" stroke-linejoin="round" d="
				M270.66916,242.85454L269.24333,243.09216L268.53042,242.85454L267.34223,242.61691L266.15404,242.85454L264.49058,243.32979
				L263.77767,242.85454L262.82712,241.6664L261.16365,240.95352L259.73783,240.95352L258.312,240.47827L257.12382,240.24064L255.93563,240.24064
				L255.46035,239.52776L255.22272,238.81488L254.5098,238.57725L253.32162,238.102L252.13343,236.91387L250.23233,235.72573L250.7076,235.72573
				L251.18288,235.25048L252.84634,232.39896L254.27217,231.44845L255.69799,230.26032L257.12382,228.12168L257.36145,225.98304
				L257.12382,223.60677L257.36145,222.41864L259.02492,220.99288L260.68838,220.04237L261.40129,219.56711L262.35184,219.80474
				L262.82712,219.09186L263.06476,217.6661L263.54003,216.95322L265.20349,216.24034L265.91641,216.00271L266.62932,215.76509L
				267.81751,217.6661L268.29278,219.56711L269.00569,222.41864L270.19388,224.7949L270.66916,227.4088L270.66916,229.30981L270.66916,231.44845
				L271.14443,236.20099L271.38207,236.91387L272.09498,238.102L273.04553,239.76539L270.90679,240.47827L270.19388,240.95352L270.19388,241.42878
				L270.19388,241.90403L270.90679,242.61691L270.66916,242.85454"/>
			<path clip-path="url(#SVG_CP_1)" fill="none" stroke="#000000" stroke-width="0.47528" stroke-miterlimit="10" stroke-linecap="round" stroke-linejoin="round" d="
				M266.62932,215.76509L265.91641,216.00271L265.20349,216.24034L263.54003,216.95322L263.06476,217.6661L262.82712,219.09186L
				262.35184,219.80474L261.40129,219.56711L260.68838,220.04237L259.02492,220.99288L257.36145,222.41864L257.12382,223.60677L
				257.36145,225.98304L257.12382,228.12168L255.69799,230.26032L254.27217,231.44845L252.84634,232.39896L251.18288,235.25048L
				250.7076,235.72573L250.23233,235.72573L248.56887,235.25048L246.9054,235.25048L245.95485,235.25048L244.52903,235.72573L243.1032,235.96336
				L242.15265,236.43861L241.67738,237.38912L240.48919,239.05251L240.01391,239.52776L230.74605,242.61691L229.08259,243.09216
				L228.36967,243.09216L227.65676,242.85454L226.70621,242.37928L226.23094,241.6664L226.46857,240.95352L226.70621,240.00302L
				226.46857,239.29013L225.9933,238.81488L225.51802,238.102L225.28039,237.38912L224.56747,236.20099L224.56747,235.01285L224.32984,234.77523
				L223.85456,234.77523L223.14165,234.5376L222.1911,234.06235L220.76527,233.11184L219.81472,232.87421L219.10181,232.16133L217.91362,231.21083
				L217.20071,230.02269L216.72544,229.30981L215.29961,228.83456L213.63615,228.59693L212.44796,229.07218L211.02213,229.54744
				L210.07158,230.73557L209.12103,232.16133L208.8834,232.16133L208.40812,232.63659L207.21993,232.87421L205.79411,233.82472L
				204.13065,234.29997L203.1801,234.29997L202.46718,234.29997L201.99191,234.29997L201.04136,234.29997L200.56608,234.06235L199.85317,234.29997
				L199.14026,234.06235L198.42734,233.82472L197.47679,233.34947L196.05097,232.39896L195.33806,231.68608L194.14987,230.73557
				L193.43696,230.02269L193.19932,230.02269L192.72404,229.07218L192.01113,228.83456L191.06058,229.07218L189.63476,229.78506
				L185.35728,230.9732L184.88201,229.07218L184.88201,228.12168L184.64437,227.88405L183.45618,227.17117L182.26799,226.22066L
				180.60453,224.55728L179.1787,223.60677L176.32705,222.41864L174.66359,221.46813L174.42595,220.04237L174.42595,218.61661L174.90123,217.19085
				L174.18832,216.24034L174.66359,214.57695L174.66359,212.91357L174.18832,211.96306L174.18832,210.29967L174.18832,209.82442
				L174.90123,208.63628L175.13887,207.21052L175.13887,205.78476L175.61414,205.07188L175.61414,202.69562L176.32705,201.98274
				L177.03997,201.50748L177.99052,200.55698L178.46579,200.31935L179.65398,199.60647L179.65398,199.13121L180.12925,198.18071
				L180.84217,197.2302L181.0798,196.04207L180.84217,194.61631L182.03035,193.6658L183.21854,193.19055L183.69382,192.47767L184.16909,191.28953
				L184.88201,190.1014L186.07019,188.43801L186.07019,187.24988L185.83256,185.82412L184.88201,183.9231L183.93146,182.02209L183.69382,180.83396
				L185.11964,180.59633L187.25838,180.3587L188.68421,181.07158L190.58531,182.02209L193.19932,182.49734L195.81333,182.9726L197.95207,183.9231
				L200.09081,184.87361L201.51663,185.11124L203.1801,186.06174L203.89301,186.06174L204.13065,184.63598L204.36828,182.9726L204.84356,181.30921
				L206.03175,179.64582L207.21993,177.98243L208.17048,175.84379L208.64576,174.18041L210.07158,172.75465L211.73505,171.56651
				L212.6856,171.09126L213.87378,169.42787L216.25016,168.23974L216.96307,167.52686L218.15126,167.52686L220.05236,166.81398L
				221.00291,166.33872L222.90401,167.28923L226.94385,167.76448L227.8944,168.23974L230.03314,166.57635L230.98369,165.15059L231.93424,163.96246
				L233.5977,163.24958L234.31061,162.06144L235.26116,160.39805L235.26116,158.97229L236.21171,158.02179L239.06336,156.83365L
				239.301,155.40789L239.53864,153.74451L240.48919,151.84349L240.72683,149.94248L241.43974,148.75434L241.43974,147.56621L242.86556,147.56621
				L243.1032,146.37808L243.81611,145.18994L245.0043,144.00181L245.71721,143.0513L245.95485,144.00181L246.43013,146.14045L246.9054,148.27909
				L247.61832,149.46722L248.56887,151.36824L249.75705,153.03163L249.75705,153.98213L249.75705,155.17027L250.23233,156.12077
				L251.42052,158.49704L252.13343,160.39805L253.32162,162.06144L254.03453,163.24958L254.27217,164.91296L254.74744,167.28923
				L254.74744,169.19024L254.5098,171.32889L254.74744,172.99227L255.93563,175.36854L256.4109,177.50718L256.88618,180.3587L257.36145,181.78446
				L259.26255,183.68548L260.92602,186.06174L265.91641,194.14105L266.86696,195.09156L267.34223,196.27969L267.81751,197.2302L
				268.53042,198.65596L268.53042,199.84409L268.29278,201.74511L267.57987,205.78476L266.86696,208.87391L267.34223,211.72543L
				267.57987,213.38882L267.34223,215.28983L266.62932,215.76509"/>
			<path clip-path="url(#SVG_CP_1)" fill="none" stroke="#000000" stroke-width="0.47528" stroke-miterlimit="10" stroke-linecap="round" stroke-linejoin="round" d="
				M217.20071,279.21143L218.3889,280.39956L219.57709,281.11244L223.37929,281.5877L225.04275,282.30058L226.46857,283.01346L227.18149,283.25108
				L228.84495,284.67684L229.7955,284.91447L230.50841,284.20159L231.93424,284.43922L231.93424,284.91447L230.98369,285.62735L
				231.45896,286.81548L232.88479,286.81548L233.83534,287.05311L234.31061,287.05311L234.78589,286.81548L235.4988,287.29074L236.68699,288.24124
				L236.68699,288.95412L236.44935,289.19175L236.21171,289.90463L237.16226,290.37989L237.87518,290.61751L237.63754,291.56802
				L238.35045,291.80565L238.82573,291.80565L239.301,292.51853L240.01391,292.75615L240.48919,291.80565L240.96446,291.80565L240.96446,292.51853
				L241.67738,292.99378L241.91501,293.23141L242.39029,293.94429L243.81611,294.65717L245.0043,294.18191L245.95485,293.94429L
				247.14304,293.94429L247.61832,294.18191L247.38068,294.89479L247.38068,295.37005L245.0043,296.79581L243.1032,297.98394L242.15265,298.93445
				L241.2021,299.64733L240.25155,301.54834L239.53864,303.21173L237.87518,305.82562L237.16226,307.01376L236.92463,307.48901L
				237.16226,307.96426L204.36828,318.18221L198.90262,318.65747L188.92184,319.60798L183.21854,320.08323L182.50563,321.03374L
				180.60453,321.74662L178.22815,321.98424L178.22815,322.69712L178.46579,324.12288L178.22815,325.78627L178.70343,326.26152L
				178.70343,327.44966L178.46579,329.82593L177.99052,337.19235L177.75288,338.38049L177.2776,342.18252L177.2776,343.37065L178.70343,348.83607
				L179.41634,350.49945L179.89162,353.5886L181.0798,356.67775L178.46579,377.82653L178.22815,378.06416L176.08942,378.53941L171.5743,378.77704
				L169.43557,379.01466L167.05919,378.30178L164.44518,375.68789L163.25699,374.0245L166.34628,371.17298L166.34628,370.22247L
				166.10864,369.50959L165.63336,368.32146L164.68281,368.79671L163.73226,368.08383L162.54408,367.13332L161.83116,367.37095L
				160.88061,367.13332L160.40534,366.18282L160.1677,365.46994L159.21715,365.23231L158.02896,365.23231L157.55369,365.23231L157.31605,364.51943
				L156.12786,364.51943L155.65259,364.04418L155.41495,363.56892L155.89023,362.85604L156.12786,362.61842L155.89023,361.90554
				L155.41495,361.43028L154.4644,361.19266L153.75149,360.7174L153.75149,360.47978L153.03858,360.47978L151.13747,360.7174L150.18692,360.00452
				L148.99874,358.57876L148.52346,357.62825L148.04819,356.91537L148.04819,356.44012L147.81055,354.77673L147.57291,353.11335
				L147.57291,351.68759L147.09764,350.49945L147.57291,346.93505L147.33527,344.08353L147.57291,341.94489L147.57291,340.51913
				L148.7611,337.19235L148.99874,336.47947L149.23637,335.29134L149.47401,333.86558L149.71165,332.91507L150.42456,331.01406L
				150.6622,329.82593L151.61275,326.49915L152.80094,323.64763L153.27621,321.98424L153.75149,321.27136L153.75149,320.32086L154.70204,319.13272
				L155.41495,318.18221L155.65259,317.23171L156.3655,316.2812L156.12786,315.80595L155.89023,314.61781L156.12786,314.38019L156.12786,313.42968
				L156.3655,312.7168L156.12786,311.76629L156.12786,310.81579L155.89023,309.62765L155.89023,308.43952L156.3655,307.48901L156.60314,306.5385
				L156.84078,305.588L156.84078,304.87512L157.07841,303.68698L157.55369,302.9741L158.74188,302.0236L159.21715,300.36021L160.1677,299.4097
				L159.93006,298.69682L158.97951,296.79581L158.02896,295.13242L158.02896,293.70666L157.55369,291.80565L158.50424,289.90463
				L159.21715,288.7165L159.93006,288.00362L161.35589,287.05311L163.25699,286.34023L164.44518,286.34023L169.6732,286.81548L170.38612,286.81548
				L172.28722,286.57786L173.71304,286.81548L175.13887,287.05311L176.08942,287.52836L176.56469,287.52836L177.03997,287.29074
				L177.51524,288.00362L182.74327,288.95412L188.44657,287.29074L193.67459,286.1026L195.81333,284.20159L201.75427,285.62735L
				206.26938,283.25108L209.83395,281.82532L213.16087,280.39956L215.06197,278.26092L217.20071,279.21143"/>
			<path clip-path="url(#SVG_CP_1)" fill="none" stroke="#000000" stroke-width="0.47528" stroke-miterlimit="10" stroke-linecap="round" stroke-linejoin="round" d="
				M208.8834,232.16133L209.83395,235.25048L214.5867,251.64673L215.53725,255.68638L216.01252,258.77553L218.15126,275.88465L217.20071,279.21143
				L215.06197,278.26092L213.16087,280.39956L209.83395,281.82532L206.26938,283.25108L201.75427,285.62735L195.81333,284.20159
				L193.67459,286.1026L188.44657,287.29074L182.74327,288.95412L177.51524,288.00362L177.03997,287.29074L177.99052,285.86498L
				178.94107,284.43922L180.12925,282.5382L180.60453,281.82532L181.55508,280.87482L183.21854,280.16194L184.64437,279.21143L185.59492,279.21143
				L186.54547,279.44906L187.97129,280.16194L189.63476,280.39956L191.06058,279.92431L191.53586,279.21143L192.48641,277.78567
				L192.48641,277.07279L191.53586,275.17177L191.77349,273.74601L191.29822,272.32025L190.11003,271.845L189.15948,271.36975L187.49602,270.41924
				L187.49602,269.2311L187.25838,268.04297L186.54547,266.85484L186.54547,265.6667L186.54547,264.24094L187.02074,263.05281L187.73366,261.62705
				L188.44657,260.20129L189.15948,258.5379L190.34767,257.11214L191.29822,256.16163L191.77349,255.21113L191.29822,254.49825L
				190.58531,254.26062L188.68421,253.54774L187.49602,254.26062L186.54547,254.26062L185.59492,254.02299L183.69382,252.12198L
				181.0798,251.4091L180.84217,250.69622L181.0798,249.50808L181.0798,248.55758L181.55508,247.36944L182.74327,245.70606L180.36689,243.80504
				L180.60453,242.61691L180.84217,241.42878L181.0798,240.00302L182.03035,238.57725L182.50563,237.15149L184.64437,234.29997L
				185.35728,233.34947L185.59492,231.92371L185.35728,230.9732L189.63476,229.78506L191.06058,229.07218L192.01113,228.83456L192.72404,229.07218
				L193.19932,230.02269L193.43696,230.02269L194.14987,230.73557L195.33806,231.68608L196.05097,232.39896L197.47679,233.34947
				L198.42734,233.82472L199.14026,234.06235L199.85317,234.29997L200.56608,234.06235L201.04136,234.29997L201.99191,234.29997
				L202.46718,234.29997L203.1801,234.29997L204.13065,234.29997L205.79411,233.82472L207.21993,232.87421L208.40812,232.63659L
				208.8834,232.16133"/>
		</g>
	</g>
</svg>
