<?xml version="1.0" encoding="utf-8" standalone="no"?>
<!-- Creator: Esri ArcMap 10.8.0.12790 -->
<!DOCTYPE svg PUBLIC "-//W3C//DTD SVG 1.1//EN"  "http://www.w3.org/Graphics/SVG/1.1/DTD/svg11.dtd">
<svg width="803.99055pt" height="404.24882pt" viewBox="0 0 803.99055 404.24882" enable-background="new 0 0 803.99055 404.24882"
	version="1.1" xmlns="http://www.w3.org/2000/svg" xmlns:xlink="http://www.w3.org/1999/xlink" >
	<g id="Layers">
		<g id="Logone_et_Charri_SD">
			<clipPath id="SVG_CP_1">
				<path d="M0,404.24882L0,0L803.99055,0L803.99055,404.24882L0,404.24882z"/>
			</clipPath>
			<path clip-path="url(#SVG_CP_1)" fill="none" stroke="#000000" stroke-width="0.47517" stroke-miterlimit="10" stroke-linecap="round" stroke-linejoin="round" d="
				M251.60078,86.97139L250.88803,86.97139L250.17528,87.20902L248.98736,86.02088L248.5122,86.97139L248.03703,86.49614L247.79945,86.25851
				L247.79945,86.73376L247.32428,86.73376L246.37395,86.02088L246.84911,86.73376L247.0867,87.68427L247.56186,88.39715L247.56186,88.8724
				L247.32428,88.8724L246.37395,88.8724L245.6612,89.11003L244.94845,89.58528L245.42361,90.06054L246.37395,90.06054L247.32428,90.06054
				L247.79945,90.53579L248.03703,92.19918L248.03703,92.43681L247.32428,92.43681L246.13636,92.43681L244.47328,92.67443L243.52295,92.67443
				L242.09745,93.14969L242.09745,93.38731L241.85986,93.86257L243.04778,94.33782L243.76053,94.33782L244.47328,94.33782L244.2357,94.81307
				L243.76053,95.0507L243.99811,95.52595L244.94845,96.00121L245.18603,96.23883L244.71086,96.47646L244.47328,96.47646L243.76053,96.23883
				L243.52295,96.23883L242.8102,96.23883L242.33503,96.00121L242.09745,96.23883L242.8102,97.42697L243.52295,98.37747L243.99811,98.6151
				L244.47328,97.90222L244.47328,97.18934L245.18603,97.66459L246.37395,98.6151L246.61153,99.32798L246.37395,100.04086L247.56186,101.22899
				L247.56186,101.94188L247.0867,101.94188L246.13636,101.94188L245.42361,102.41713L244.71086,102.65476L244.47328,103.84289L
				244.71086,104.7934L244.71086,105.26865L244.2357,105.26865L243.52295,105.50628L243.04778,106.21916L243.52295,107.88254L243.52295,108.12017
				L242.8102,108.12017L242.33503,108.12017L241.85986,107.40729L241.62228,107.16966L240.67194,107.16966L240.43436,107.64492L
				241.14711,108.12017L241.14711,108.59542L241.14711,109.07068L240.90953,109.3083L240.19678,109.3083L240.43436,110.02118L241.14711,110.25881
				L239.95919,111.20932L240.19678,111.68457L240.43436,112.15983L239.95919,112.15983L239.72161,112.15983L239.24644,112.15983
				L239.00886,112.63508L239.95919,113.58559L239.95919,114.06084L239.72161,114.53609L240.19678,115.01135L239.72161,115.24897
				L239.00886,115.96185L240.19678,115.96185L239.95919,116.67473L239.72161,116.91236L239.24644,117.14999L238.77128,116.19948
				L237.82094,115.96185L237.34578,115.72423L236.39544,115.24897L235.44511,114.77372L236.63303,113.82321L235.92028,112.87271
				L234.25719,112.39745L233.06928,112.15983L232.35653,111.9222L231.40619,111.44694L231.16861,110.97169L230.45586,110.49644L
				229.26794,111.44694L228.31761,111.9222L226.89211,110.97169L226.41694,110.02118L224.75386,109.07068L223.56594,107.88254L222.85319,107.40729
				L222.14044,106.69441L221.19011,105.98153L219.76461,105.50628L219.28944,105.03102L218.10153,104.31814L217.62636,103.60526
				L216.91361,103.36764L216.20086,103.60526L215.25053,104.08052L214.77536,104.7934L216.43844,105.98153L216.91361,106.69441L
				216.67603,107.16966L216.20086,107.16966L215.48811,106.69441L214.53778,105.98153L213.82503,105.50628L212.87469,105.26865L
				212.39953,105.03102L211.44919,104.55577L210.73644,103.84289L210.02369,104.55577L209.07336,104.08052L208.59819,104.31814L
				207.41027,104.31814L207.17269,103.36764L207.17269,102.65476L207.17269,102.1795L206.93511,101.70425L206.69752,101.70425L206.69752,102.89238
				L206.45994,103.60526L207.17269,104.55577L207.88544,104.7934L208.59819,105.03102L210.02369,105.50628L210.73644,105.98153L
				212.16194,106.45678L213.82503,107.88254L214.53778,109.07068L215.96328,109.78356L216.20086,110.49644L216.67603,111.44694L
				218.10153,112.15983L219.05186,112.87271L220.23978,113.34796L220.00219,114.29847L221.42769,115.24897L223.09078,115.4866L224.27869,116.19948
				L225.46661,116.91236L224.27869,117.62524L222.85319,117.86287L221.90286,117.62524L220.95253,117.38761L220.00219,117.14999
				L219.05186,116.91236L218.10153,117.38761L217.15119,117.38761L215.96328,117.62524L215.96328,116.43711L215.25053,115.4866L
				214.77536,115.01135L213.58744,114.77372L213.34986,114.77372L212.39953,115.01135L210.97402,115.4866L210.02369,115.24897L209.07336,115.24897
				L208.83577,115.24897L208.36061,115.24897L207.64786,115.72423L207.41027,115.72423L206.93511,115.4866L206.45994,115.96185L
				205.74719,116.43711L205.03444,116.91236L204.79686,116.67473L204.08411,116.91236L203.60894,117.14999L202.89619,116.67473L
				202.42102,115.96185L201.94586,115.01135L201.47069,114.29847L200.75794,113.82321L200.04519,114.29847L200.04519,115.01135L
				200.75794,116.19948L200.99552,117.14999L200.75794,117.38761L200.04519,117.86287L199.80761,118.57575L199.09486,119.52625L
				198.14452,120.23913L197.43177,120.71439L196.71902,120.95201L196.48144,121.18964L197.43177,122.6154L198.38211,123.09066L199.33244,123.09066
				L200.28277,123.09066L200.75794,123.56591L201.70827,124.51642L202.18344,125.46692L202.42102,126.41743L202.89619,127.60556
				L203.37136,128.55607L203.84652,129.26895L204.79686,129.50658L205.74719,129.50658L205.98477,130.21946L206.93511,131.88285
				L207.88544,132.3581L208.36061,132.3581L208.83577,132.59573L209.07336,133.30861L209.07336,134.73437L209.07336,135.44725L208.83577,135.44725
				L209.07336,135.9225L210.02369,135.44725L210.73644,135.20962L211.21161,135.20962L211.92436,135.68487L212.39953,136.63538L
				212.16194,136.63538L211.68677,135.9225L211.21161,135.68487L210.26127,136.16013L209.78611,136.63538L208.83577,136.39775L208.59819,136.39775
				L208.36061,136.39775L207.88544,136.63538L207.17269,136.16013L207.64786,135.9225L207.88544,135.68487L207.88544,135.20962L
				207.41027,134.73437L207.17269,134.25911L207.64786,134.02149L207.88544,133.78386L207.64786,133.54623L207.41027,133.30861L
				207.17269,133.54623L206.69752,133.54623L205.74719,133.54623L204.79686,133.30861L204.32169,133.30861L205.03444,134.49674L
				204.79686,135.68487L204.79686,136.63538L204.55927,137.34826L204.08411,137.58589L203.37136,137.82351L202.18344,138.29877L
				201.23311,138.77402L201.47069,139.72453L201.47069,140.91266L201.23311,141.15029L200.52036,141.38792L200.75794,142.33842L
				201.23311,143.0513L200.52036,143.52656L199.57002,144.00181L198.85727,144.23944L198.14452,144.71469L198.14452,146.14045L198.61969,147.80384
				L198.61969,148.99197L197.90694,149.70485L197.66936,150.41773L198.38211,151.13061L197.66936,152.08112L197.19419,152.55637
				L196.71902,152.08112L196.48144,151.84349L196.00627,151.84349L195.53111,152.55637L195.53111,153.03163L195.05594,153.50688
				L194.58077,153.26925L194.10561,152.794L193.63044,152.31875L193.86802,151.60587L194.34319,150.65536L194.58077,149.70485L195.05594,148.75434
				L195.76869,147.80384L195.76869,147.56621L195.53111,146.85333L195.29352,146.6157L195.29352,146.37808L195.76869,140.91266L
				189.11636,110.73406L188.87877,110.49644L181.98885,78.1792L176.76202,55.12941L237.10819,55.12941L244.47328,68.91176L246.37395,72.95141
				L248.03703,76.75344L248.27461,77.22869L249.22495,78.1792L250.17528,78.1792L250.65045,78.41683L250.65045,78.89208L250.65045,79.60496
				L250.65045,79.84259L251.3632,80.08021L251.3632,80.31784L251.83836,80.55547L252.31353,81.26835L252.55111,81.98123L252.55111,82.93174
				L252.55111,83.88224L252.31353,84.3575L252.31353,84.59512L252.55111,85.07038L252.7887,85.308L253.50145,85.78326L253.73903,85.78326
				L253.73903,86.02088L253.73903,86.25851L253.50145,86.49614L253.26386,86.49614L252.7887,86.49614L252.55111,86.25851L252.31353,86.49614
				L251.83836,86.73376L251.60078,86.97139"/>
			<path clip-path="url(#SVG_CP_1)" fill="none" stroke="#000000" stroke-width="0.47517" stroke-miterlimit="10" stroke-linecap="round" stroke-linejoin="round" d="
				M251.60078,86.97139L251.60078,87.9219L251.12561,89.11003L251.12561,89.34766L251.12561,89.82291L251.12561,97.18934L250.65045,98.13985
				L250.17528,99.56561L249.9377,100.51611L249.9377,101.22899L250.41286,102.1795L250.88803,103.13001L251.12561,103.60526L251.60078,103.84289
				L252.07595,103.60526L252.31353,102.89238L253.02628,102.41713L253.50145,102.1795L254.2142,102.41713L254.45178,102.65476L254.68936,103.13001
				L254.68936,103.84289L254.68936,104.7934L254.68936,105.7439L254.92695,106.45678L255.40211,106.93204L255.87728,107.64492L256.35245,108.12017
				L256.82761,108.3578L257.54036,108.3578L258.01553,108.12017L258.4907,107.64492L259.20345,106.93204L259.67861,106.21916L260.39136,104.7934
				L260.86653,103.84289L261.10411,103.84289L261.81686,104.08052L262.05445,104.55577L262.29203,105.03102L262.05445,105.7439L
				261.81686,106.69441L261.57928,107.16966L260.86653,107.64492L260.62895,108.12017L260.86653,108.59542L261.10411,108.83305L
				262.52961,108.59542L263.24236,108.59542L263.95511,108.83305L264.90545,109.3083L265.6182,110.25881L265.85578,110.73406L266.80611,111.44694
				L267.75645,111.9222L269.65712,111.9222L270.60745,111.9222L271.3202,111.68457L272.27053,111.44694L272.98328,110.97169L273.69603,111.20932
				L274.88395,111.20932L276.07187,111.44694L276.78462,111.9222L277.25978,112.39745L277.97253,113.58559L277.97253,114.06084L
				277.97253,114.53609L277.49737,115.24897L277.0222,115.96185L276.30945,116.43711L275.12153,117.38761L274.64637,118.33812L274.64637,119.051
				L274.64637,120.00151L274.64637,120.71439L275.12153,121.18964L275.12153,121.42727L274.1712,120.95201L266.80611,119.051L265.85578,120.23913
				L263.95511,121.6649L260.15378,119.051L258.01553,117.14999L251.3632,114.77372L246.84911,116.19948L242.57261,114.53609L239.72161,112.15983
				L239.95919,112.15983L240.43436,112.15983L240.19678,111.68457L239.95919,111.20932L241.14711,110.25881L240.43436,110.02118
				L240.19678,109.3083L240.90953,109.3083L241.14711,109.07068L241.14711,108.59542L241.14711,108.12017L240.43436,107.64492L240.67194,107.16966
				L241.62228,107.16966L241.85986,107.40729L242.33503,108.12017L242.8102,108.12017L243.52295,108.12017L243.52295,107.88254L
				243.04778,106.21916L243.52295,105.50628L244.2357,105.26865L244.71086,105.26865L244.71086,104.7934L244.47328,103.84289L244.71086,102.65476
				L245.42361,102.41713L246.13636,101.94188L247.0867,101.94188L247.56186,101.94188L247.56186,101.22899L246.37395,100.04086L
				246.61153,99.32798L246.37395,98.6151L245.18603,97.66459L244.47328,97.18934L244.47328,97.90222L243.99811,98.6151L243.52295,98.37747
				L242.8102,97.42697L242.09745,96.23883L242.33503,96.00121L242.8102,96.23883L243.52295,96.23883L243.76053,96.23883L244.47328,96.47646
				L244.71086,96.47646L245.18603,96.23883L244.94845,96.00121L243.99811,95.52595L243.76053,95.0507L244.2357,94.81307L244.47328,94.33782
				L243.76053,94.33782L243.04778,94.33782L241.85986,93.86257L242.09745,93.38731L242.09745,93.14969L243.52295,92.67443L244.47328,92.67443
				L246.13636,92.43681L247.32428,92.43681L248.03703,92.43681L248.03703,92.19918L247.79945,90.53579L247.32428,90.06054L246.37395,90.06054
				L245.42361,90.06054L244.94845,89.58528L245.6612,89.11003L246.37395,88.8724L247.32428,88.8724L247.56186,88.8724L247.56186,88.39715
				L247.0867,87.68427L246.84911,86.73376L246.37395,86.02088L247.32428,86.73376L247.79945,86.73376L247.79945,86.25851L248.03703,86.49614
				L248.5122,86.97139L248.98736,86.02088L250.17528,87.20902L250.88803,86.97139L251.60078,86.97139"/>
			<path clip-path="url(#SVG_CP_1)" fill="none" stroke="#000000" stroke-width="0.47517" stroke-miterlimit="10" stroke-linecap="round" stroke-linejoin="round" d="
				M237.82094,115.96185L237.58336,117.14999L236.87061,118.33812L234.96994,122.85303L233.06928,125.94218L233.06928,126.65506
				L233.06928,126.89268L233.06928,129.50658L234.25719,132.3581L234.25719,133.07098L234.25719,133.78386L233.30686,133.78386L
				232.59411,133.78386L231.88136,134.02149L231.40619,134.02149L231.16861,134.25911L230.93103,134.25911L230.45586,134.25911L
				230.21828,134.02149L229.74311,134.02149L229.50553,134.02149L229.03036,134.02149L228.79278,134.02149L228.55519,134.25911L
				228.31761,134.25911L227.84244,134.25911L226.89211,134.25911L226.65453,134.25911L226.17936,134.25911L225.70419,134.02149L
				225.70419,133.78386L225.22903,133.54623L224.99144,133.30861L224.51628,132.59573L224.27869,132.12047L224.04111,131.64522L
				223.80353,131.40759L223.09078,131.16996L222.85319,130.93234L222.61561,131.16996L222.14044,131.40759L221.90286,131.64522L
				221.66528,131.64522L221.19011,131.64522L221.19011,131.40759L220.71494,131.16996L220.47736,130.93234L219.52703,130.45708L
				219.05186,130.21946L218.57669,130.21946L217.86394,129.98183L217.62636,129.98183L217.15119,129.98183L216.43844,129.98183L
				216.20086,129.98183L215.25053,129.50658L215.01294,129.26895L214.53778,128.7937L214.53778,128.31844L214.30019,128.08082L214.06261,127.84319
				L214.06261,127.60556L214.06261,127.13031L213.82503,126.41743L213.58744,126.41743L213.34986,126.1798L213.34986,125.94218L
				213.11228,125.94218L212.87469,126.1798L212.39953,126.1798L211.92436,126.1798L211.44919,126.41743L210.97402,126.65506L210.97402,126.89268
				L210.73644,126.89268L210.73644,127.13031L210.49886,127.13031L210.26127,127.13031L210.02369,127.13031L210.02369,126.89268
				L209.78611,126.89268L209.78611,126.65506L209.78611,126.41743L209.54852,126.1798L209.78611,125.94218L210.02369,125.70455L
				210.02369,125.46692L209.78611,125.2293L209.54852,125.2293L209.31094,125.2293L208.83577,124.99167L208.59819,124.75404L208.59819,124.51642
				L208.59819,124.27879L208.59819,124.04116L208.59819,123.80354L208.36061,123.56591L208.12302,123.09066L207.88544,122.6154L
				207.64786,122.37778L207.41027,121.90252L207.17269,121.90252L206.93511,121.90252L206.22236,122.6154L205.98477,122.6154L205.50961,122.6154
				L205.27202,122.6154L205.27202,122.14015L205.03444,121.90252L205.27202,121.42727L205.27202,121.18964L205.50961,120.95201L
				205.50961,120.71439L205.27202,120.71439L204.79686,120.71439L204.55927,120.47676L204.08411,120.23913L203.37136,120.00151L
				203.13377,119.76388L202.65861,119.52625L202.18344,119.28863L201.70827,118.57575L201.70827,118.33812L201.70827,118.10049L
				201.70827,117.38761L201.47069,117.38761L201.23311,117.14999L200.99552,117.14999L200.75794,116.19948L200.04519,115.01135L
				200.04519,114.29847L200.75794,113.82321L201.47069,114.29847L201.94586,115.01135L202.42102,115.96185L202.89619,116.67473L
				203.60894,117.14999L204.08411,116.91236L204.79686,116.67473L205.03444,116.91236L205.74719,116.43711L206.45994,115.96185L
				206.93511,115.4866L207.41027,115.72423L207.64786,115.72423L208.36061,115.24897L208.83577,115.24897L209.07336,115.24897L210.02369,115.24897
				L210.97402,115.4866L212.39953,115.01135L213.34986,114.77372L213.58744,114.77372L214.77536,115.01135L215.25053,115.4866L215.96328,116.43711
				L215.96328,117.62524L217.15119,117.38761L218.10153,117.38761L219.05186,116.91236L220.00219,117.14999L220.95253,117.38761
				L221.90286,117.62524L222.85319,117.86287L224.27869,117.62524L225.46661,116.91236L224.27869,116.19948L223.09078,115.4866L
				221.42769,115.24897L220.00219,114.29847L220.23978,113.34796L219.05186,112.87271L218.10153,112.15983L216.67603,111.44694L
				216.20086,110.49644L215.96328,109.78356L214.53778,109.07068L213.82503,107.88254L212.16194,106.45678L210.73644,105.98153L
				210.02369,105.50628L208.59819,105.03102L207.88544,104.7934L207.17269,104.55577L206.45994,103.60526L206.69752,102.89238L206.69752,101.70425
				L206.93511,101.70425L207.17269,102.1795L207.17269,102.65476L207.17269,103.36764L207.41027,104.31814L208.59819,104.31814L
				209.07336,104.08052L210.02369,104.55577L210.73644,103.84289L211.44919,104.55577L212.39953,105.03102L212.87469,105.26865L
				213.82503,105.50628L214.53778,105.98153L215.48811,106.69441L216.20086,107.16966L216.67603,107.16966L216.91361,106.69441L
				216.43844,105.98153L214.77536,104.7934L215.25053,104.08052L216.20086,103.60526L216.91361,103.36764L217.62636,103.60526L218.10153,104.31814
				L219.28944,105.03102L219.76461,105.50628L221.19011,105.98153L222.14044,106.69441L222.85319,107.40729L223.56594,107.88254
				L224.75386,109.07068L226.41694,110.02118L226.89211,110.97169L228.31761,111.9222L229.26794,111.44694L230.45586,110.49644L
				231.16861,110.97169L231.40619,111.44694L232.35653,111.9222L233.06928,112.15983L234.25719,112.39745L235.92028,112.87271L236.63303,113.82321
				L235.44511,114.77372L236.39544,115.24897L237.34578,115.72423L237.82094,115.96185"/>
			<path clip-path="url(#SVG_CP_1)" fill="none" stroke="#000000" stroke-width="0.47517" stroke-miterlimit="10" stroke-linecap="round" stroke-linejoin="round" d="
				M212.39953,136.63538L212.63711,137.11063L213.11228,138.06114L213.34986,138.77402L213.34986,139.24927L214.06261,139.24927
				L214.77536,139.72453L215.72569,139.96215L216.20086,140.19978L216.20086,140.43741L216.67603,141.15029L216.91361,142.1008L
				216.91361,143.28893L216.91361,143.76418L217.15119,144.23944L216.91361,144.71469L216.67603,145.18994L216.67603,145.6652L217.38878,146.14045
				L218.10153,146.14045L218.33911,146.6157L218.57669,147.32858L219.05186,147.80384L219.28944,148.27909L218.81428,148.51672L
				218.10153,148.75434L218.10153,149.2296L218.33911,149.70485L218.10153,150.41773L217.86394,150.89298L217.86394,151.36824L217.15119,152.08112
				L217.15119,153.26925L217.38878,153.50688L218.81428,153.74451L219.05186,153.74451L219.28944,153.74451L219.28944,154.21976
				L218.81428,154.69501L218.57669,155.17027L219.05186,156.3584L220.00219,157.54653L221.42769,158.49704L222.85319,158.49704L
				223.56594,158.73467L223.56594,159.20992L222.37803,160.16043L221.90286,161.11094L222.37803,161.82382L224.04111,162.29907L
				226.41694,163.24958L226.89211,163.4872L227.84244,164.20008L228.08003,164.67534L228.79278,166.1011L229.03036,166.57635L229.50553,167.52686
				L229.26794,167.52686L229.26794,167.76448L229.50553,168.00211L229.74311,168.23974L230.21828,168.47736L230.21828,168.71499
				L229.98069,168.71499L229.74311,168.95262L228.79278,168.71499L228.31761,168.47736L227.84244,168.00211L227.36728,168.00211
				L226.89211,168.00211L226.17936,168.00211L224.75386,168.47736L224.04111,169.19024L223.09078,169.19024L222.37803,168.71499
				L221.19011,168.23974L220.47736,168.23974L219.52703,168.47736L219.05186,168.47736L217.15119,167.52686L216.20086,167.0516L
				215.25053,166.81398L214.30019,167.28923L213.82503,168.23974L213.11228,168.95262L212.39953,169.19024L211.44919,168.95262L
				211.21161,168.71499L211.21161,168.00211L210.73644,167.52686L209.78611,167.28923L209.54852,167.52686L210.02369,168.00211L
				210.49886,168.71499L210.49886,169.19024L209.78611,169.6655L209.07336,169.19024L208.83577,168.71499L208.59819,168.47736L208.36061,167.76448
				L207.64786,167.28923L206.22236,167.28923L205.50961,167.76448L204.79686,167.76448L203.37136,167.76448L200.99552,168.47736
				L199.57002,168.71499L198.61969,168.47736L198.61969,167.76448L198.85727,167.28923L198.61969,166.81398L197.90694,166.33872
				L197.66936,166.33872L197.43177,166.33872L196.48144,165.86347L195.53111,165.38822L195.29352,164.91296L193.63044,162.5367L
				193.63044,162.06144L193.39286,161.82382L193.15527,161.82382L192.91769,161.58619L192.68011,161.58619L192.20494,161.58619L
				191.72977,161.58619L191.49219,161.58619L191.25461,161.34856L191.01702,161.34856L191.01702,161.11094L191.01702,160.87331L
				191.01702,160.63568L191.01702,160.39805L191.25461,160.39805L191.49219,160.39805L191.49219,160.16043L191.72977,160.16043L
				191.96736,160.16043L191.96736,159.9228L191.96736,159.68517L191.72977,159.44755L191.72977,159.20992L191.49219,159.20992L191.25461,158.73467
				L191.25461,158.49704L191.25461,158.25941L191.49219,158.02179L191.72977,158.02179L191.96736,158.25941L192.20494,158.49704
				L192.44252,158.49704L192.68011,158.49704L192.91769,158.25941L192.91769,158.02179L192.91769,157.78416L192.91769,157.54653
				L192.91769,157.30891L193.15527,157.07128L193.39286,157.07128L193.86802,157.54653L194.10561,157.54653L194.34319,157.54653
				L194.34319,157.30891L194.34319,157.07128L194.10561,156.83365L193.63044,156.59603L193.39286,156.59603L193.39286,156.3584L
				193.15527,156.12077L193.39286,155.88315L193.63044,155.64552L193.86802,155.64552L194.34319,155.40789L194.58077,155.40789L
				194.81836,155.17027L194.81836,154.93264L194.58077,154.69501L194.34319,154.69501L194.10561,154.69501L193.86802,154.69501L
				193.63044,154.69501L193.39286,154.69501L193.39286,154.93264L193.15527,155.17027L192.91769,155.40789L192.68011,155.40789L
				192.44252,155.40789L192.20494,155.17027L192.44252,154.93264L192.44252,154.69501L192.68011,154.45739L192.68011,154.21976L
				192.44252,153.98213L192.44252,153.74451L192.20494,153.26925L192.20494,153.03163L192.20494,152.55637L191.96736,151.84349L
				191.72977,151.36824L191.49219,150.89298L191.49219,150.41773L191.49219,150.1801L191.72977,149.94248L192.20494,149.94248L192.44252,149.94248
				L192.91769,150.1801L193.15527,149.94248L193.39286,149.94248L193.63044,149.2296L193.63044,148.75434L193.63044,148.04146L193.63044,147.80384
				L194.10561,147.09096L194.34319,146.85333L194.58077,146.85333L195.05594,146.85333L195.29352,146.6157L195.53111,146.85333L
				195.76869,147.56621L195.76869,147.80384L195.05594,148.75434L194.58077,149.70485L194.34319,150.65536L193.86802,151.60587L
				193.63044,152.31875L194.10561,152.794L194.58077,153.26925L195.05594,153.50688L195.53111,153.03163L195.53111,152.55637L196.00627,151.84349
				L196.48144,151.84349L196.71902,152.08112L197.19419,152.55637L197.66936,152.08112L198.38211,151.13061L197.66936,150.41773
				L197.90694,149.70485L198.61969,148.99197L198.61969,147.80384L198.14452,146.14045L198.14452,144.71469L198.85727,144.23944
				L199.57002,144.00181L200.52036,143.52656L201.23311,143.0513L200.75794,142.33842L200.52036,141.38792L201.23311,141.15029L
				201.47069,140.91266L201.47069,139.72453L201.23311,138.77402L202.18344,138.29877L203.37136,137.82351L204.08411,137.58589L
				204.55927,137.34826L204.79686,136.63538L204.79686,135.68487L205.03444,134.49674L204.32169,133.30861L204.79686,133.30861L
				205.74719,133.54623L206.69752,133.54623L207.17269,133.54623L207.41027,133.30861L207.64786,133.54623L207.88544,133.78386L
				207.64786,134.02149L207.17269,134.25911L207.41027,134.73437L207.88544,135.20962L207.88544,135.68487L207.64786,135.9225L207.17269,136.16013
				L207.88544,136.63538L208.36061,136.39775L208.59819,136.39775L208.83577,136.39775L209.78611,136.63538L210.26127,136.16013
				L211.21161,135.68487L211.68677,135.9225L212.16194,136.63538L212.39953,136.63538"/>
			<path clip-path="url(#SVG_CP_1)" fill="none" stroke="#000000" stroke-width="0.47517" stroke-miterlimit="10" stroke-linecap="round" stroke-linejoin="round" d="
				M268.23161,195.56681L267.99403,195.32919L267.99403,195.09156L267.75645,195.09156L267.75645,194.85393L267.51886,194.61631
				L267.28128,194.61631L267.0437,194.61631L266.80611,194.61631L266.56853,194.85393L266.33095,194.85393L266.09336,195.09156L
				266.09336,195.32919L265.85578,195.32919L265.6182,195.32919L265.38061,195.09156L265.14303,195.09156L265.14303,194.85393L264.90545,194.85393
				L264.90545,194.61631L264.66786,194.61631L264.66786,194.85393L264.66786,195.09156L264.66786,195.32919L264.66786,195.56681
				L264.43028,195.56681L264.43028,195.80444L264.1927,195.80444L263.95511,195.80444L263.95511,195.56681L263.71753,195.32919L
				263.71753,195.09156L263.47995,195.09156L263.24236,195.09156L263.00478,195.32919L262.7672,195.56681L262.52961,195.56681L262.29203,195.80444
				L262.29203,196.04207L262.52961,196.27969L262.7672,196.27969L262.7672,196.51732L263.00478,196.51732L263.00478,196.75495L263.00478,196.99257
				L262.7672,196.99257L262.7672,197.2302L262.52961,197.2302L262.29203,196.99257L262.05445,196.99257L261.81686,196.99257L261.57928,196.75495
				L261.3417,196.75495L261.10411,196.51732L260.86653,196.51732L260.62895,196.51732L260.39136,196.51732L260.15378,196.51732L
				260.15378,196.27969L260.39136,196.27969L260.39136,196.04207L260.62895,196.04207L260.62895,195.80444L260.62895,195.56681L
				260.39136,195.56681L260.15378,195.56681L259.9162,195.56681L259.9162,195.80444L259.67861,195.80444L259.67861,195.56681L259.44103,195.56681
				L259.20345,195.32919L258.96586,195.32919L258.72828,195.32919L258.4907,195.09156L258.25311,195.32919L258.01553,195.32919L
				257.77795,195.09156L257.77795,194.85393L258.01553,194.61631L258.25311,194.61631L258.4907,194.37868L258.72828,194.37868L258.72828,194.61631
				L258.96586,194.61631L259.20345,194.61631L259.20345,194.37868L259.44103,194.37868L259.67861,194.37868L259.67861,194.14105
				L259.44103,193.90343L259.20345,193.6658L259.20345,193.42817L258.96586,193.19055L258.96586,192.95292L258.72828,192.47767L
				258.72828,192.24004L258.4907,192.00241L258.25311,192.00241L258.01553,192.00241L257.77795,192.00241L257.54036,192.00241L257.30278,192.00241
				L257.30278,191.76479L257.0652,191.76479L257.0652,191.52716L256.82761,191.52716L256.82761,191.28953L257.0652,191.28953L257.0652,191.05191
				L257.30278,191.05191L257.54036,190.81428L257.54036,190.57665L257.54036,190.33902L257.30278,190.1014L257.30278,189.86377L
				257.0652,189.86377L256.82761,189.86377L256.82761,189.62614L256.59003,189.62614L256.35245,189.62614L256.11486,189.62614L255.87728,189.86377
				L255.6397,189.86377L255.40211,189.62614L255.16453,189.62614L254.92695,189.86377L254.68936,189.86377L254.45178,190.1014L254.2142,190.1014
				L253.97661,190.1014L253.97661,189.86377L253.97661,189.62614L253.73903,189.62614L253.73903,189.38852L253.50145,189.38852L
				253.02628,189.15089L252.7887,189.15089L252.55111,189.15089L252.55111,188.91326L252.07595,188.91326L251.83836,188.91326L251.60078,188.67564
				L251.3632,188.67564L251.12561,188.67564L250.88803,188.67564L250.65045,188.91326L250.65045,188.67564L250.41286,188.67564L
				250.17528,188.67564L250.17528,188.43801L250.17528,188.20038L249.9377,188.20038L249.9377,187.96276L250.17528,187.96276L250.17528,187.72513
				L250.17528,187.4875L250.41286,187.4875L250.65045,187.4875L250.88803,187.24988L251.12561,187.24988L251.12561,187.01225L251.3632,186.77462
				L251.3632,186.537L251.3632,186.29937L251.3632,186.06174L251.3632,185.82412L251.60078,185.82412L251.60078,185.58649L251.83836,185.34886
				L251.83836,185.11124L251.83836,184.87361L251.60078,184.87361L251.3632,184.87361L251.3632,185.11124L251.12561,185.11124L251.12561,185.34886
				L250.88803,185.34886L250.65045,185.34886L250.41286,185.34886L250.17528,185.11124L250.17528,184.87361L250.17528,184.63598
				L249.9377,184.39836L249.9377,184.16073L249.70011,184.16073L249.70011,183.9231L249.46253,183.68548L249.46253,183.44785L249.22495,183.21022
				L249.22495,182.9726L249.22495,182.73497L249.46253,182.49734L249.70011,182.25972L249.70011,182.02209L249.9377,182.02209L249.9377,181.78446
				L249.9377,181.54684L249.70011,181.30921L249.46253,181.30921L249.22495,181.07158L248.98736,181.07158L248.74978,181.07158L
				248.74978,180.83396L248.5122,180.83396L248.27461,180.59633L248.27461,180.3587L248.03703,180.3587L247.79945,180.3587L247.79945,180.12107
				L247.56186,180.12107L247.32428,180.12107L247.0867,180.12107L246.84911,180.12107L246.61153,180.12107L246.61153,179.88345L
				246.37395,179.88345L246.37395,179.64582L246.13636,179.40819L246.13636,179.17057L245.89878,179.17057L245.89878,178.93294L
				245.6612,178.93294L245.42361,178.93294L245.18603,178.93294L244.94845,179.17057L244.71086,179.17057L244.47328,179.17057L244.2357,179.17057
				L244.2357,178.93294L244.2357,178.69531L244.2357,178.45769L244.47328,178.45769L244.47328,178.22006L244.71086,178.22006L244.71086,177.98243
				L244.94845,177.74481L244.71086,177.74481L244.71086,177.50718L244.71086,177.26955L244.47328,177.03193L244.2357,176.7943L244.2357,176.55667
				L243.99811,176.55667L243.99811,176.31905L243.99811,176.08142L244.2357,176.08142L244.2357,175.84379L244.47328,175.84379L244.71086,175.84379
				L244.94845,175.84379L244.94845,176.08142L245.18603,176.08142L245.18603,176.31905L245.42361,176.31905L245.6612,176.31905L
				245.89878,176.08142L245.89878,175.84379L245.89878,175.60617L245.89878,175.36854L245.89878,175.13091L245.89878,174.89329L
				245.6612,174.65566L245.6612,174.41803L245.6612,174.18041L245.42361,174.18041L245.18603,173.94278L244.94845,173.94278L244.71086,173.94278
				L244.47328,173.94278L244.2357,173.94278L243.99811,173.94278L243.76053,173.94278L243.28536,173.94278L243.04778,173.94278L
				242.8102,173.94278L242.57261,173.94278L242.33503,173.70515L242.09745,173.70515L241.85986,173.46753L241.62228,173.2299L241.62228,172.99227
				L241.3847,172.75465L241.14711,172.51702L240.90953,172.51702L240.43436,172.51702L240.19678,172.27939L239.95919,172.27939L
				239.72161,172.04177L239.72161,171.80414L239.95919,171.80414L240.19678,171.56651L240.43436,171.56651L240.43436,171.32889L
				240.43436,171.09126L240.43436,170.85363L240.43436,170.616L240.19678,170.616L239.95919,170.37838L239.72161,170.37838L239.48403,170.37838
				L239.24644,170.37838L239.24644,170.85363L239.00886,170.85363L239.00886,171.09126L239.00886,171.32889L238.77128,171.32889
				L238.53369,171.32889L238.05853,170.85363L237.82094,170.37838L237.82094,170.14075L237.34578,169.42787L236.87061,168.95262
				L236.63303,169.19024L236.39544,169.19024L235.92028,169.42787L235.68269,169.42787L235.20753,169.6655L234.73236,170.14075L
				234.49478,170.37838L234.49478,170.616L234.25719,170.616L234.01961,170.616L233.78203,170.616L233.54444,170.37838L233.54444,170.14075
				L233.54444,169.90312L233.54444,169.6655L233.54444,169.42787L233.54444,168.95262L233.54444,168.71499L233.54444,168.47736L
				232.83169,168.00211L232.59411,167.76448L232.11894,167.52686L231.64378,167.52686L231.16861,167.52686L230.93103,167.76448L
				230.69344,168.00211L230.21828,168.71499L230.21828,168.47736L229.74311,168.23974L229.50553,168.00211L229.26794,167.76448L
				229.26794,167.52686L229.50553,167.52686L229.03036,166.57635L228.79278,166.1011L228.08003,164.67534L227.84244,164.20008L226.89211,163.4872
				L226.41694,163.24958L224.04111,162.29907L222.37803,161.82382L221.90286,161.11094L222.37803,160.16043L223.56594,159.20992
				L223.56594,158.73467L222.85319,158.49704L221.42769,158.49704L220.00219,157.54653L219.05186,156.3584L218.57669,155.17027L
				218.81428,154.69501L219.28944,154.21976L219.28944,153.74451L219.05186,153.74451L218.81428,153.74451L217.38878,153.50688L
				217.15119,153.26925L217.15119,152.08112L217.86394,151.36824L217.86394,150.89298L218.10153,150.41773L218.33911,149.70485L
				218.10153,149.2296L218.10153,148.75434L218.81428,148.51672L219.28944,148.27909L219.05186,147.80384L218.57669,147.32858L218.33911,146.6157
				L218.10153,146.14045L217.38878,146.14045L216.67603,145.6652L216.67603,145.18994L216.91361,144.71469L217.15119,144.23944L
				216.91361,143.76418L216.91361,143.28893L216.91361,142.1008L216.67603,141.15029L216.20086,140.43741L216.20086,140.19978L215.72569,139.96215
				L214.77536,139.72453L214.06261,139.24927L213.34986,139.24927L213.34986,138.77402L213.11228,138.06114L212.63711,137.11063
				L212.39953,136.63538L211.92436,135.68487L211.21161,135.20962L210.73644,135.20962L210.02369,135.44725L209.07336,135.9225L
				208.83577,135.44725L209.07336,135.44725L209.07336,134.73437L209.07336,133.30861L208.83577,132.59573L208.36061,132.3581L207.88544,132.3581
				L206.93511,131.88285L205.98477,130.21946L205.74719,129.50658L204.79686,129.50658L203.84652,129.26895L203.37136,128.55607
				L202.89619,127.60556L202.42102,126.41743L202.18344,125.46692L201.70827,124.51642L200.75794,123.56591L200.28277,123.09066
				L199.33244,123.09066L198.38211,123.09066L197.43177,122.6154L196.48144,121.18964L196.71902,120.95201L197.43177,120.71439L
				198.14452,120.23913L199.09486,119.52625L199.80761,118.57575L200.04519,117.86287L200.75794,117.38761L200.99552,117.14999L
				201.23311,117.14999L201.47069,117.38761L201.70827,117.38761L201.70827,118.10049L201.70827,118.33812L201.70827,118.57575L
				202.18344,119.28863L202.65861,119.52625L203.13377,119.76388L203.37136,120.00151L204.08411,120.23913L204.55927,120.47676L
				204.79686,120.71439L205.27202,120.71439L205.50961,120.71439L205.50961,120.95201L205.27202,121.18964L205.27202,121.42727L
				205.03444,121.90252L205.27202,122.14015L205.27202,122.6154L205.50961,122.6154L205.98477,122.6154L206.22236,122.6154L206.93511,121.90252
				L207.17269,121.90252L207.41027,121.90252L207.64786,122.37778L207.88544,122.6154L208.12302,123.09066L208.36061,123.56591L
				208.59819,123.80354L208.59819,124.04116L208.59819,124.27879L208.59819,124.51642L208.59819,124.75404L208.83577,124.99167L
				209.31094,125.2293L209.54852,125.2293L209.78611,125.2293L210.02369,125.46692L210.02369,125.70455L209.78611,125.94218L209.54852,126.1798
				L209.78611,126.41743L209.78611,126.65506L209.78611,126.89268L210.02369,126.89268L210.02369,127.13031L210.26127,127.13031
				L210.49886,127.13031L210.73644,127.13031L210.73644,126.89268L210.97402,126.89268L210.97402,126.65506L211.44919,126.41743
				L211.92436,126.1798L212.39953,126.1798L212.87469,126.1798L213.11228,125.94218L213.34986,125.94218L213.34986,126.1798L213.58744,126.41743
				L213.82503,126.41743L214.06261,127.13031L214.06261,127.60556L214.06261,127.84319L214.30019,128.08082L214.53778,128.31844
				L214.53778,128.7937L215.01294,129.26895L215.25053,129.50658L216.20086,129.98183L216.43844,129.98183L217.15119,129.98183L
				217.62636,129.98183L217.86394,129.98183L218.57669,130.21946L219.05186,130.21946L219.52703,130.45708L220.47736,130.93234L
				220.71494,131.16996L221.19011,131.40759L221.19011,131.64522L221.66528,131.64522L221.90286,131.64522L222.14044,131.40759L
				222.61561,131.16996L222.85319,130.93234L223.09078,131.16996L223.80353,131.40759L224.04111,131.64522L224.27869,132.12047L
				224.51628,132.59573L224.99144,133.30861L225.22903,133.54623L225.70419,133.78386L225.70419,134.02149L226.17936,134.25911L
				226.65453,134.25911L226.89211,134.25911L227.84244,134.25911L228.31761,134.25911L228.55519,134.25911L228.79278,134.02149L
				229.03036,134.02149L229.50553,134.02149L229.74311,134.02149L230.21828,134.02149L230.45586,134.25911L230.93103,134.25911L
				231.16861,134.25911L231.40619,134.02149L231.88136,134.02149L232.59411,133.78386L233.30686,133.78386L234.25719,133.78386L
				234.25719,133.07098L234.25719,132.3581L233.06928,129.50658L233.06928,126.89268L233.06928,126.65506L233.06928,125.94218L234.96994,122.85303
				L236.87061,118.33812L237.58336,117.14999L237.82094,115.96185L238.77128,116.19948L239.24644,117.14999L239.72161,116.91236
				L239.95919,116.67473L240.19678,115.96185L239.00886,115.96185L239.72161,115.24897L240.19678,115.01135L240.90953,115.72423
				L241.3847,116.43711L241.85986,117.38761L242.8102,119.28863L243.52295,120.47676L243.99811,121.6649L244.47328,123.56591L245.18603,125.46692
				L245.42361,125.94218L246.84911,127.36794L247.56186,128.08082L247.79945,128.08082L249.70011,128.31844L250.17528,128.55607
				L250.65045,129.03132L251.12561,129.98183L251.60078,130.69471L252.31353,131.16996L252.7887,131.88285L253.02628,132.59573L
				252.7887,133.07098L252.55111,133.30861L252.55111,133.78386L252.7887,134.49674L252.7887,135.20962L253.02628,136.39775L253.26386,136.87301
				L253.02628,137.34826L252.31353,137.82351L252.07595,138.53639L252.07595,138.77402L252.31353,139.24927L252.31353,139.4869L
				252.07595,140.91266L251.60078,141.86317L250.65045,142.81368L249.9377,143.28893L249.22495,143.52656L249.22495,143.76418L249.22495,144.23944
				L249.46253,144.23944L250.17528,144.47706L250.41286,144.47706L250.41286,144.71469L250.41286,145.42757L250.41286,145.6652L
				250.65045,145.90282L250.88803,146.37808L250.65045,147.09096L250.17528,148.75434L249.70011,149.46722L249.22495,150.1801L248.74978,150.65536
				L248.74978,150.89298L248.98736,151.84349L248.74978,152.08112L248.03703,152.31875L247.79945,152.55637L247.32428,153.03163
				L246.37395,155.17027L246.13636,155.64552L245.42361,156.12077L243.99811,157.07128L243.52295,157.30891L243.04778,157.07128
				L243.04778,156.3584L242.8102,156.12077L242.33503,155.88315L242.09745,155.88315L241.62228,155.88315L241.3847,155.88315L241.3847,156.12077
				L241.3847,156.83365L241.3847,157.30891L241.3847,157.54653L241.85986,157.78416L243.28536,158.02179L244.2357,158.25941L244.94845,158.49704
				L245.42361,158.97229L245.42361,159.44755L245.18603,159.9228L245.18603,160.39805L245.18603,160.63568L245.42361,160.87331L
				245.89878,160.87331L246.61153,160.63568L247.0867,160.63568L247.56186,160.87331L247.79945,161.11094L248.03703,161.82382L248.5122,162.06144
				L249.22495,162.5367L249.9377,162.77432L250.88803,162.5367L251.60078,162.77432L252.07595,163.24958L252.31353,163.72483L252.31353,163.96246
				L252.55111,164.20008L253.02628,164.43771L253.73903,164.43771L254.45178,163.96246L254.92695,163.72483L255.87728,163.72483
				L256.35245,163.72483L256.82761,163.96246L256.59003,164.20008L256.11486,164.43771L256.11486,164.67534L256.35245,164.91296
				L256.82761,164.91296L257.54036,165.15059L258.25311,165.38822L259.44103,165.62584L260.15378,165.62584L260.62895,165.62584
				L261.10411,165.86347L262.05445,166.81398L262.7672,167.76448L263.24236,168.23974L264.43028,168.95262L265.6182,169.42787L266.09336,169.90312
				L266.80611,169.90312L267.51886,169.42787L267.99403,169.19024L268.94436,169.19024L269.65712,169.42787L270.36987,170.37838
				L270.84503,170.85363L271.08262,171.32889L271.3202,171.80414L271.08262,172.51702L270.84503,172.99227L271.08262,173.46753L
				271.3202,173.70515L272.27053,173.94278L273.45845,173.94278L274.40878,173.46753L275.35912,172.75465L276.07187,172.51702L276.78462,172.75465
				L277.25978,172.99227L277.97253,173.70515L278.4477,173.94278L279.39803,174.41803L279.8732,175.13091L280.82353,176.31905L281.2987,176.7943
				L281.2987,177.26955L281.53628,177.50718L281.77387,177.74481L283.19937,177.74481L284.62487,177.98243L285.33762,177.98243L
				286.05037,178.69531L286.52553,179.17057L287.0007,179.64582L287.95103,179.88345L288.4262,180.12107L288.18862,181.07158L287.71345,181.78446
				L287.23828,182.25972L286.52553,182.73497L286.28795,183.21022L286.52553,183.44785L287.0007,183.68548L287.47587,183.9231L288.66378,183.68548
				L289.37653,183.68548L289.8517,183.68548L290.08928,183.9231L290.56445,183.68548L290.80203,183.44785L291.03962,183.44785L291.2772,183.9231
				L291.2772,184.63598L290.80203,185.82412L290.56445,186.77462L290.56445,187.4875L290.56445,187.72513L291.03962,188.20038L291.51478,189.15089
				L291.75237,189.62614L291.75237,190.33902L291.51478,191.28953L291.51478,192.24004L291.51478,193.90343L291.51478,194.85393
				L291.03962,195.32919L290.56445,195.56681L289.37653,195.56681L288.66378,195.80444L287.23828,196.27969L286.28795,196.51732
				L285.5752,196.51732L285.10003,196.04207L284.38728,195.80444L283.91212,196.04207L282.96178,196.51732L282.01145,196.75495L
				279.8732,196.75495L278.4477,196.51732L276.78462,195.80444L275.5967,195.09156L275.12153,194.85393L274.88395,194.14105L274.40878,193.90343
				L273.93362,193.90343L273.22087,194.14105L272.98328,193.90343L272.50812,193.6658L272.03295,193.6658L271.08262,193.90343L270.13228,194.37868
				L269.41953,194.61631L269.41953,194.85393L269.65712,195.32919L269.41953,195.56681L268.70678,195.56681L268.23161,195.56681
				"/>
			<path clip-path="url(#SVG_CP_1)" fill="none" stroke="#000000" stroke-width="0.47517" stroke-miterlimit="10" stroke-linecap="round" stroke-linejoin="round" d="
				M275.12153,121.42727L275.83428,121.90252L276.54703,122.14015L277.25978,122.14015L277.73495,121.90252L278.68528,121.18964
				L278.92287,120.47676L279.16045,120.00151L279.16045,118.57575L279.39803,117.86287L279.8732,117.38761L280.58595,117.14999L
				281.2987,117.38761L281.53628,117.38761L282.01145,117.62524L282.48662,118.10049L282.96178,118.57575L283.43695,118.81337L283.67453,119.051
				L283.91212,119.28863L283.67453,119.76388L283.43695,120.23913L283.43695,120.71439L283.43695,120.95201L283.67453,122.14015
				L283.67453,122.6154L283.67453,123.32828L283.91212,124.04116L284.1497,124.51642L284.38728,124.99167L284.86245,125.46692L285.33762,125.70455
				L285.81278,125.94218L286.28795,126.1798L286.76312,126.1798L287.23828,125.94218L287.71345,125.94218L288.18862,125.70455L288.4262,125.2293
				L288.90137,124.99167L289.13895,124.99167L289.37653,124.99167L289.8517,125.46692L290.32687,125.70455L290.80203,125.70455L
				291.2772,125.46692L291.98995,125.2293L292.7027,124.99167L293.17787,124.99167L293.65303,124.99167L293.89062,124.99167L294.36578,125.2293
				L294.60337,125.70455L294.84095,125.94218L295.07853,126.65506L295.31612,127.36794L295.31612,127.60556L295.5537,128.31844L
				295.79128,129.03132L295.79128,129.7442L295.79128,130.45708L296.02887,130.69471L296.26645,131.40759L296.50403,132.12047L296.50403,132.3581
				L296.74162,132.83335L296.9792,133.30861L297.21678,133.78386L297.45437,134.02149L297.69195,134.49674L297.92953,134.73437L
				298.16712,134.97199L298.4047,135.20962L298.4047,135.68487L298.4047,136.16013L298.16712,136.63538L298.16712,136.87301L298.16712,137.34826
				L298.16712,137.82351L298.16712,138.29877L297.92953,138.77402L297.69195,139.01165L297.69195,139.4869L297.69195,139.72453L
				297.92953,140.43741L297.92953,140.91266L297.92953,141.62554L297.92953,142.1008L297.69195,142.57605L297.45437,143.0513L297.45437,143.28893
				L297.21678,143.52656L297.21678,144.00181L297.21678,144.47706L297.45437,144.95232L297.92953,145.18994L298.4047,145.6652L298.64229,146.14045
				L298.87987,146.6157L298.87987,147.09096L299.11745,147.80384L299.11745,148.27909L298.87987,148.75434L298.64229,148.99197L
				298.4047,149.2296L297.92953,149.46722L297.45437,149.94248L296.9792,150.41773L296.74162,150.89298L296.50403,151.36824L296.50403,152.08112
				L296.74162,152.794L296.9792,153.26925L297.21678,153.74451L297.45437,154.21976L297.92953,154.45739L298.4047,154.45739L298.64229,154.45739
				L299.11745,154.21976L299.35504,153.98213L299.59262,153.26925L299.59262,152.794L299.8302,152.31875L300.06779,152.08112L300.30537,151.84349
				L301.01812,151.84349L301.2557,152.08112L301.73087,152.31875L301.96845,152.794L302.20604,153.50688L302.20604,153.74451L302.20604,154.21976
				L301.96845,154.93264L301.73087,155.64552L301.49329,156.12077L301.49329,156.59603L301.49329,156.83365L301.73087,157.30891
				L301.96845,157.54653L302.44362,157.78416L302.6812,158.02179L303.15637,158.49704L303.63154,159.20992L303.86912,159.68517L
				304.1067,160.16043L304.81945,161.11094L305.05704,161.58619L305.5322,162.06144L305.76979,162.5367L306.00737,163.01195L306.00737,163.4872
				L306.24495,163.72483L306.48254,164.20008L306.72012,164.91296L306.72012,165.38822L306.9577,166.1011L306.72012,166.57635L306.72012,167.28923
				L306.48254,167.76448L306.24495,168.47736L305.76979,168.95262L305.5322,169.6655L305.5322,170.14075L305.5322,170.616L305.5322,171.32889
				L305.76979,171.56651L305.76979,171.80414L306.24495,172.27939L306.48254,172.51702L306.72012,172.75465L306.9577,172.99227L
				306.9577,173.2299L306.9577,173.70515L306.72012,173.94278L306.48254,174.65566L306.00737,175.13091L305.5322,175.60617L305.05704,176.08142
				L304.58187,176.55667L304.58187,177.03193L304.34429,177.50718L304.58187,177.98243L304.81945,178.45769L305.29462,179.17057
				L305.76979,179.88345L306.00737,180.3587L306.24495,180.83396L306.48254,181.30921L306.48254,182.02209L306.24495,182.49734L
				306.24495,183.21022L306.00737,183.68548L305.76979,184.16073L305.29462,184.39836L304.81945,184.87361L304.58187,185.11124L
				304.34429,185.58649L304.34429,186.29937L304.34429,186.77462L304.34429,187.01225L304.58187,187.24988L305.05704,187.96276L
				305.5322,188.43801L305.76979,188.91326L306.00737,189.62614L306.00737,189.86377L306.00737,190.33902L305.76979,190.81428L305.76979,191.05191
				L305.5322,191.28953L305.05704,191.76479L304.81945,192.00241L304.58187,192.24004L304.34429,192.95292L304.34429,193.42817L
				304.34429,193.90343L304.34429,194.14105L304.81945,194.61631L304.81945,194.85393L305.29462,195.09156L305.76979,195.09156L
				306.24495,195.32919L306.72012,195.56681L307.19529,195.80444L307.19529,196.27969L307.19529,196.75495L306.9577,196.99257L306.48254,197.46783
				L305.76979,197.70545L305.29462,197.94308L304.58187,197.94308L304.1067,198.18071L303.63154,198.65596L303.39395,198.89359L
				303.15637,199.36884L303.15637,199.84409L303.39395,200.31935L303.86912,200.7946L304.81945,201.03223L305.5322,201.50748L306.24495,201.98274
				L307.19529,202.69562L307.90804,203.64612L309.09595,205.54714L308.62079,206.02239L308.14562,206.73527L307.67045,207.44815
				L307.43287,207.68578L306.9577,208.16103L306.00737,208.39866L304.58187,208.63628L301.73087,208.63628L299.8302,208.39866L298.64229,208.39866
				L297.69195,208.39866L296.74162,208.63628L296.02887,208.63628L295.31612,208.63628L294.60337,208.87391L293.89062,209.34916
				L293.41545,208.87391L292.22753,208.16103L291.2772,207.68578L289.61412,207.44815L288.66378,207.44815L287.71345,207.68578L
				286.05037,208.16103L285.33762,208.39866L282.48662,208.63628L282.24903,208.63628L282.01145,208.63628L282.01145,208.87391L
				281.77387,208.87391L281.53628,208.87391L281.53628,208.63628L281.77387,208.63628L281.77387,208.39866L281.77387,208.16103L
				281.53628,207.9234L281.53628,207.68578L281.2987,207.68578L281.06112,207.44815L280.58595,207.21052L280.11078,207.21052L280.11078,206.9729
				L280.34837,206.73527L280.58595,206.49764L280.82353,206.26002L280.58595,206.26002L280.34837,205.78476L279.63562,204.359L279.16045,203.88375
				L278.92287,203.88375L278.4477,203.88375L278.21012,204.359L277.73495,204.359L277.25978,203.88375L276.30945,203.64612L275.83428,203.17087
				L275.5967,202.69562L275.5967,202.22036L275.12153,201.98274L274.88395,201.98274L274.64637,201.74511L274.64637,201.50748L274.40878,201.50748
				L274.1712,201.26986L273.93362,201.03223L273.69603,200.7946L272.98328,200.31935L272.7457,200.31935L272.50812,200.31935L272.03295,200.31935
				L271.79537,200.55698L271.55778,200.7946L271.08262,200.7946L270.84503,200.55698L270.60745,200.31935L270.60745,200.08172L270.36987,199.84409
				L270.36987,199.60647L270.36987,199.36884L270.36987,199.13121L270.13228,198.89359L270.13228,198.65596L270.13228,198.41833
				L269.8947,198.18071L269.65712,197.94308L269.41953,197.94308L269.18195,197.70545L268.94436,197.70545L268.70678,197.70545L
				268.4692,197.70545L268.23161,197.70545L268.23161,197.46783L268.23161,197.2302L268.4692,196.99257L268.4692,196.75495L268.70678,196.51732
				L268.70678,196.27969L268.70678,196.04207L268.70678,195.80444L268.4692,195.56681L268.23161,195.56681L268.70678,195.56681L
				269.41953,195.56681L269.65712,195.32919L269.41953,194.85393L269.41953,194.61631L270.13228,194.37868L271.08262,193.90343L
				272.03295,193.6658L272.50812,193.6658L272.98328,193.90343L273.22087,194.14105L273.93362,193.90343L274.40878,193.90343L274.88395,194.14105
				L275.12153,194.85393L275.5967,195.09156L276.78462,195.80444L278.4477,196.51732L279.8732,196.75495L282.01145,196.75495L282.96178,196.51732
				L283.91212,196.04207L284.38728,195.80444L285.10003,196.04207L285.5752,196.51732L286.28795,196.51732L287.23828,196.27969L
				288.66378,195.80444L289.37653,195.56681L290.56445,195.56681L291.03962,195.32919L291.51478,194.85393L291.51478,193.90343L
				291.51478,192.24004L291.51478,191.28953L291.75237,190.33902L291.75237,189.62614L291.51478,189.15089L291.03962,188.20038L
				290.56445,187.72513L290.56445,187.4875L290.56445,186.77462L290.80203,185.82412L291.2772,184.63598L291.2772,183.9231L291.03962,183.44785
				L290.80203,183.44785L290.56445,183.68548L290.08928,183.9231L289.8517,183.68548L289.37653,183.68548L288.66378,183.68548L287.47587,183.9231
				L287.0007,183.68548L286.52553,183.44785L286.28795,183.21022L286.52553,182.73497L287.23828,182.25972L287.71345,181.78446L
				288.18862,181.07158L288.4262,180.12107L287.95103,179.88345L287.0007,179.64582L286.52553,179.17057L286.05037,178.69531L285.33762,177.98243
				L284.62487,177.98243L283.19937,177.74481L281.77387,177.74481L281.53628,177.50718L281.2987,177.26955L281.2987,176.7943L280.82353,176.31905
				L279.8732,175.13091L279.39803,174.41803L278.4477,173.94278L277.97253,173.70515L277.25978,172.99227L276.78462,172.75465L276.07187,172.51702
				L275.35912,172.75465L274.40878,173.46753L273.45845,173.94278L272.27053,173.94278L271.3202,173.70515L271.08262,173.46753L
				270.84503,172.99227L271.08262,172.51702L271.3202,171.80414L271.08262,171.32889L270.84503,170.85363L270.36987,170.37838L269.65712,169.42787
				L268.94436,169.19024L267.99403,169.19024L267.51886,169.42787L266.80611,169.90312L266.09336,169.90312L265.6182,169.42787L
				264.43028,168.95262L263.24236,168.23974L262.7672,167.76448L262.05445,166.81398L261.10411,165.86347L260.62895,165.62584L260.15378,165.62584
				L259.44103,165.62584L258.25311,165.38822L257.54036,165.15059L256.82761,164.91296L256.35245,164.91296L256.11486,164.67534
				L256.11486,164.43771L256.59003,164.20008L256.82761,163.96246L256.35245,163.72483L255.87728,163.72483L254.92695,163.72483
				L254.45178,163.96246L253.73903,164.43771L253.02628,164.43771L252.55111,164.20008L252.31353,163.96246L252.31353,163.72483
				L252.07595,163.24958L251.60078,162.77432L250.88803,162.5367L249.9377,162.77432L249.22495,162.5367L248.5122,162.06144L248.03703,161.82382
				L247.79945,161.11094L247.56186,160.87331L247.0867,160.63568L246.61153,160.63568L245.89878,160.87331L245.42361,160.87331L
				245.18603,160.63568L245.18603,160.39805L245.18603,159.9228L245.42361,159.44755L245.42361,158.97229L244.94845,158.49704L244.2357,158.25941
				L243.28536,158.02179L241.85986,157.78416L241.3847,157.54653L241.3847,157.30891L241.3847,156.83365L241.3847,156.12077L241.3847,155.88315
				L241.62228,155.88315L242.09745,155.88315L242.33503,155.88315L242.8102,156.12077L243.04778,156.3584L243.04778,157.07128L243.52295,157.30891
				L243.99811,157.07128L245.42361,156.12077L246.13636,155.64552L246.37395,155.17027L247.32428,153.03163L247.79945,152.55637
				L248.03703,152.31875L248.74978,152.08112L248.98736,151.84349L248.74978,150.89298L248.74978,150.65536L249.22495,150.1801L
				249.70011,149.46722L250.17528,148.75434L250.65045,147.09096L250.88803,146.37808L250.65045,145.90282L250.41286,145.6652L250.41286,145.42757
				L250.41286,144.71469L250.41286,144.47706L250.17528,144.47706L249.46253,144.23944L249.22495,144.23944L249.22495,143.76418
				L249.22495,143.52656L249.9377,143.28893L250.65045,142.81368L251.60078,141.86317L252.07595,140.91266L252.31353,139.4869L252.31353,139.24927
				L252.07595,138.77402L252.07595,138.53639L252.31353,137.82351L253.02628,137.34826L253.26386,136.87301L253.02628,136.39775
				L252.7887,135.20962L252.7887,134.49674L252.55111,133.78386L252.55111,133.30861L252.7887,133.07098L253.02628,132.59573L252.7887,131.88285
				L252.31353,131.16996L251.60078,130.69471L251.12561,129.98183L250.65045,129.03132L250.17528,128.55607L249.70011,128.31844
				L247.79945,128.08082L247.56186,128.08082L246.84911,127.36794L245.42361,125.94218L245.18603,125.46692L244.47328,123.56591
				L243.99811,121.6649L243.52295,120.47676L242.8102,119.28863L241.85986,117.38761L241.3847,116.43711L240.90953,115.72423L240.19678,115.01135
				L239.72161,114.53609L239.95919,114.06084L239.95919,113.58559L239.00886,112.63508L239.24644,112.15983L239.72161,112.15983
				L242.57261,114.53609L246.84911,116.19948L251.3632,114.77372L258.01553,117.14999L260.15378,119.051L263.95511,121.6649L265.85578,120.23913
				L266.80611,119.051L274.1712,120.95201L275.12153,121.42727"/>
			<path clip-path="url(#SVG_CP_1)" fill="none" stroke="#000000" stroke-width="0.47517" stroke-miterlimit="10" stroke-linecap="round" stroke-linejoin="round" d="
				M329.05296,222.89389L328.10262,222.89389L327.15229,222.89389L326.67712,222.89389L326.43954,223.13152L326.43954,224.08202
				L326.9147,225.27016L327.15229,225.98304L327.15229,226.45829L326.67712,226.93354L325.72679,226.93354L324.77645,226.45829L
				323.11337,225.50778L321.45029,224.08202L320.26237,222.89389L319.7872,222.89389L319.07445,222.89389L318.83687,222.41864L318.12412,221.2305
				L317.88654,220.99288L316.46104,220.04237L316.22345,220.04237L315.98587,220.28L315.5107,220.51762L315.03554,220.51762L314.79795,220.04237
				L314.32279,219.80474L313.84762,219.32949L313.37245,218.85423L313.13487,218.85423L312.18454,218.61661L311.47179,218.61661
				L311.2342,218.61661L310.75904,218.14135L310.52145,217.6661L310.04629,216.71559L310.28387,215.76509L310.52145,215.28983L310.04629,214.81458
				L309.09595,214.57695L308.85837,214.33933L308.85837,213.86407L308.85837,213.62645L308.62079,213.38882L308.14562,213.15119
				L307.90804,212.67594L307.67045,212.43831L307.43287,212.20069L306.9577,212.43831L306.48254,212.67594L306.24495,212.91357L
				305.76979,212.91357L305.29462,212.67594L304.81945,212.67594L304.58187,212.67594L304.1067,212.43831L303.86912,212.20069L303.39395,212.20069
				L302.6812,212.43831L302.20604,212.43831L301.96845,212.20069L301.96845,211.48781L301.73087,210.77493L301.96845,210.29967L
				302.20604,210.06204L302.20604,209.82442L301.96845,209.11154L301.73087,208.63628L304.58187,208.63628L306.00737,208.39866L
				306.9577,208.16103L307.43287,207.68578L307.67045,207.44815L308.14562,206.73527L308.62079,206.02239L309.09595,205.54714L310.52145,206.73527
				L311.47179,207.44815L312.18454,208.39866L313.61004,209.82442L315.27312,210.5373L316.22345,210.5373L317.41137,210.29967L318.83687,209.34916
				L319.31204,208.87391L320.26237,207.68578L320.97512,206.9729L321.45029,206.73527L322.6382,206.73527L324.0637,207.21052L325.96437,208.39866
				L327.15229,209.34916L326.9147,211.25018L326.67712,212.43831L326.9147,212.91357L327.15229,213.62645L327.38987,213.86407L327.86504,214.1017
				L328.57779,214.1017L329.05296,214.57695L329.52812,214.81458L329.76571,215.52746L330.00329,215.76509L330.47846,216.00271L
				330.71604,216.47797L330.71604,216.95322L330.71604,217.19085L330.71604,217.42847L330.47846,218.14135L330.24087,218.61661L
				330.24087,219.32949L330.24087,219.80474L330.24087,220.04237L330.00329,220.28L329.52812,220.04237L328.57779,220.04237L327.86504,220.28
				L327.62746,220.28L327.38987,220.28L327.15229,220.51762L327.38987,220.99288L328.10262,221.46813L329.05296,222.89389"/>
			<path clip-path="url(#SVG_CP_1)" fill="none" stroke="#000000" stroke-width="0.47517" stroke-miterlimit="10" stroke-linecap="round" stroke-linejoin="round" d="
				M270.60745,200.08172L270.60745,200.31935L270.84503,200.55698L271.08262,200.7946L271.55778,200.7946L271.79537,200.55698L272.03295,200.31935
				L272.50812,200.31935L272.7457,200.31935L272.98328,200.31935L273.69603,200.7946L273.93362,201.03223L274.1712,201.26986L274.40878,201.50748
				L274.64637,201.50748L274.64637,201.74511L274.88395,201.98274L275.12153,201.98274L275.5967,202.22036L275.5967,202.69562L275.83428,203.17087
				L276.30945,203.64612L277.25978,203.88375L277.73495,204.359L278.21012,204.359L278.4477,203.88375L278.92287,203.88375L279.16045,203.88375
				L279.63562,204.359L280.34837,205.78476L280.58595,206.26002L280.82353,206.26002L280.58595,206.49764L280.34837,206.73527L280.11078,206.9729
				L280.11078,207.21052L280.58595,207.21052L281.06112,207.44815L281.2987,207.68578L281.53628,207.68578L281.53628,207.9234L281.77387,208.16103
				L281.77387,208.39866L281.77387,208.63628L281.53628,208.63628L281.53628,208.87391L281.77387,208.87391L282.01145,208.87391
				L282.01145,208.63628L282.24903,208.63628L282.48662,208.63628L285.33762,208.39866L286.05037,208.16103L287.71345,207.68578
				L288.66378,207.44815L289.61412,207.44815L291.2772,207.68578L292.22753,208.16103L293.41545,208.87391L293.89062,209.34916L
				294.60337,208.87391L295.31612,208.63628L296.02887,208.63628L296.74162,208.63628L297.69195,208.39866L298.64229,208.39866L
				299.8302,208.39866L301.73087,208.63628L301.96845,209.11154L302.20604,209.82442L302.20604,210.06204L301.96845,210.29967L301.73087,210.77493
				L301.96845,211.48781L301.96845,212.20069L302.20604,212.43831L302.6812,212.43831L303.39395,212.20069L303.86912,212.20069L
				304.1067,212.43831L304.58187,212.67594L304.81945,212.67594L305.29462,212.67594L305.76979,212.91357L306.24495,212.91357L306.48254,212.67594
				L306.9577,212.43831L307.43287,212.20069L307.67045,212.43831L307.90804,212.67594L308.14562,213.15119L308.62079,213.38882L
				308.85837,213.62645L308.85837,213.86407L308.85837,214.33933L309.09595,214.57695L310.04629,214.81458L310.52145,215.28983L
				310.28387,215.76509L310.04629,216.71559L310.52145,217.6661L310.75904,218.14135L311.2342,218.61661L311.47179,218.61661L312.18454,218.61661
				L313.13487,218.85423L313.37245,218.85423L313.84762,219.32949L314.32279,219.80474L314.79795,220.04237L315.03554,220.51762
				L315.5107,220.51762L315.98587,220.28L316.22345,220.04237L316.46104,220.04237L317.88654,220.99288L318.12412,221.2305L318.83687,222.41864
				L319.07445,222.89389L319.7872,222.89389L320.26237,222.89389L321.45029,224.08202L323.11337,225.50778L324.77645,226.45829L
				325.72679,226.93354L326.67712,226.93354L327.15229,226.45829L327.15229,225.98304L326.9147,225.27016L326.43954,224.08202L326.43954,223.13152
				L326.67712,222.89389L327.15229,222.89389L328.10262,222.89389L329.05296,222.89389L329.52812,222.89389L329.52812,223.36914
				L329.76571,224.08202L330.47846,224.7949L331.42879,225.27016L332.14154,225.27016L333.32946,225.03253L333.80462,225.03253L
				334.27979,225.27016L334.51737,225.50778L334.75496,225.74541L334.75496,226.45829L334.75496,227.4088L334.27979,228.12168L333.56704,228.83456
				L333.09187,229.30981L332.14154,229.30981L331.42879,229.30981L330.00329,229.07218L329.05296,230.02269L328.81537,231.68608
				L329.52812,232.87421L330.47846,233.82472L331.19121,235.72573L330.95362,237.15149L330.00329,238.57725L328.57779,238.81488
				L327.62746,239.52776L327.38987,240.47827L327.86504,242.61691L328.34021,243.80504L329.29054,244.75555L329.29054,245.46843
				L328.81537,246.18131L329.29054,248.31995L330.00329,249.50808L330.95362,250.22097L330.95362,250.45859L331.19121,250.45859
				L331.66637,250.45859L332.85429,249.50808L333.32946,248.55758L333.32946,248.08232L333.56704,248.08232L333.80462,248.08232
				L335.46771,248.7952L336.18046,249.50808L336.89321,252.83486L336.65562,254.73587L337.36837,255.68638L337.84354,256.63689L
				339.74421,257.34977L340.69454,258.77553L340.21937,259.72604L339.26904,260.43892L338.79387,260.67654L338.08112,260.91417L
				335.94287,261.1518L333.80462,262.81518L334.51737,264.47857L335.70529,264.7162L336.89321,265.90433L337.36837,267.09246L337.84354,268.2806
				L337.60596,268.51822L334.04221,267.56772L333.32946,267.80534L332.14154,269.2311L331.66637,269.94399L331.42879,270.65687L
				331.42879,271.36975L332.14154,272.32025L332.61671,272.55788L332.61671,273.74601L333.09187,274.22127L333.32946,274.22127L
				334.04221,274.69652L334.04221,275.17177L333.32946,276.35991L333.32946,276.59753L333.09187,278.02329L334.51737,279.21143L
				334.04221,280.63719L333.56704,281.35007L333.56704,281.82532L334.51737,282.5382L334.99254,283.48871L334.75496,284.67684L334.75496,284.91447
				L334.99254,285.38972L336.89321,286.34023L337.13079,287.29074L337.13079,289.19175L336.89321,290.85514L337.36837,291.33039
				L339.50662,292.2809L341.40729,292.99378L343.30796,294.18191L344.02071,294.89479L343.54554,296.08293L343.54554,296.55818L
				343.54554,297.27106L343.07037,297.74631L343.07037,298.45919L343.07037,299.4097L342.12004,300.12258L341.88246,301.07309L342.35762,302.49885
				L341.88246,302.73648L340.93212,302.73648L338.55629,304.16224L338.08112,304.63749L338.55629,305.588L338.08112,306.30088L336.89321,306.06325
				L336.41804,306.77613L337.13079,307.48901L337.13079,308.20189L335.70529,309.39003L335.23012,310.57816L326.67712,312.7168L
				320.02479,312.95443L314.32279,313.66731L315.27312,311.29104L315.74829,309.39003L315.5107,307.96426L315.03554,306.30088L314.32279,305.35037
				L313.84762,304.39986L312.6597,303.44936L311.47179,302.73648L309.33354,302.49885L307.90804,302.0236L307.19529,301.54834L306.9577,300.59784
				L307.43287,299.4097L307.67045,298.22157L307.19529,297.27106L306.72012,296.55818L305.5322,296.08293L304.34429,296.08293L303.15637,295.8453
				L302.6812,295.37005L302.44362,294.65717L302.6812,292.99378L302.91879,291.80565L302.20604,291.33039L301.73087,291.33039L301.01812,291.56802
				L300.06779,292.75615L298.16712,293.94429L297.45437,293.94429L295.5537,292.99378L293.41545,291.80565L292.7027,291.33039L292.7027,290.14226
				L292.46512,289.19175L292.22753,288.7165L291.51478,288.24124L291.03962,288.00362L289.37653,288.24124L288.66378,288.00362L
				288.18862,288.00362L287.95103,287.52836L287.71345,286.81548L287.47587,285.86498L286.76312,285.1521L286.05037,284.67684L284.86245,283.96396
				L283.91212,283.25108L282.01145,281.11244L280.82353,279.92431L279.63562,278.26092L279.16045,277.31041L278.4477,275.64703L
				277.97253,275.17177L277.0222,274.93415L275.83428,275.17177L274.64637,275.88465L273.93362,275.64703L273.22087,274.69652L273.22087,273.74601
				L273.45845,272.79551L273.93362,271.845L273.69603,271.36975L272.7457,271.13212L270.84503,271.13212L269.8947,270.65687L269.18195,269.94399
				L268.4692,269.46873L267.28128,268.04297L266.33095,267.09246L266.33095,266.37958L266.56853,264.95382L266.80611,264.24094L
				266.56853,263.29044L266.33095,262.1023L265.6182,261.62705L264.90545,261.62705L263.71753,261.86468L263.00478,261.86468L262.52961,261.38942
				L262.52961,260.91417L262.29203,259.96366L261.81686,259.25078L261.10411,259.01315L259.9162,258.5379L259.67861,258.5379L259.67861,258.30027
				L259.44103,258.30027L259.20345,257.82502L259.20345,257.58739L259.20345,257.34977L259.44103,257.34977L259.44103,257.11214
				L259.44103,256.87451L259.44103,256.63689L259.20345,256.39926L258.96586,256.39926L259.20345,256.16163L259.44103,256.16163
				L259.44103,255.92401L259.44103,255.68638L259.67861,255.44875L259.67861,255.21113L259.67861,254.9735L259.67861,254.73587L
				259.9162,254.49825L259.9162,254.26062L259.9162,254.02299L259.9162,253.78537L259.9162,253.54774L259.9162,253.31011L259.67861,253.07249
				L259.67861,252.83486L259.44103,252.59723L259.44103,252.35961L259.20345,252.35961L259.20345,252.12198L259.20345,251.88435
				L259.20345,251.64673L259.20345,251.4091L259.20345,251.17147L259.20345,250.93385L259.20345,250.69622L259.44103,250.45859L
				259.67861,250.22097L259.9162,249.98334L260.15378,249.74571L260.39136,249.50808L260.39136,249.27046L260.62895,249.27046L260.62895,249.03283
				L260.62895,248.7952L260.62895,248.55758L260.62895,248.31995L260.39136,248.31995L260.15378,248.08232L259.9162,247.8447L259.67861,247.60707
				L259.44103,247.60707L259.44103,247.36944L259.44103,247.13182L259.20345,246.89419L259.20345,246.65656L258.96586,246.65656
				L258.96586,246.41894L258.96586,246.18131L259.20345,246.18131L259.20345,245.94368L259.44103,245.70606L259.67861,245.70606
				L259.67861,245.46843L259.9162,245.2308L259.9162,244.99318L260.15378,244.99318L260.39136,244.99318L260.62895,244.75555L260.62895,244.51792
				L260.86653,244.51792L261.10411,244.51792L261.10411,244.2803L261.3417,244.2803L261.3417,244.04267L261.3417,243.80504L261.57928,243.56742
				L261.81686,243.32979L261.81686,243.09216L262.05445,242.85454L262.29203,242.85454L262.29203,242.61691L262.29203,242.37928
				L262.29203,242.14166L262.52961,242.14166L262.52961,241.90403L262.52961,241.6664L262.7672,241.42878L262.7672,241.19115L262.52961,241.19115
				L262.52961,240.95352L262.7672,240.95352L263.00478,240.7159L263.24236,240.7159L263.47995,240.7159L263.47995,240.47827L263.71753,240.47827
				L263.95511,240.47827L263.95511,240.24064L264.1927,240.24064L264.43028,240.24064L264.66786,240.00302L264.90545,239.76539L
				265.14303,239.76539L265.14303,239.52776L264.90545,239.29013L264.90545,239.05251L264.66786,239.05251L264.66786,238.81488L
				264.66786,238.57725L264.43028,238.57725L264.43028,238.33963L264.43028,238.102L264.43028,237.86437L264.1927,237.62675L263.95511,237.62675
				L263.95511,237.38912L263.71753,236.91387L263.71753,236.67624L263.47995,236.67624L263.47995,236.43861L263.71753,236.20099
				L263.71753,235.96336L263.95511,235.72573L264.1927,235.72573L264.1927,235.48811L264.43028,235.48811L264.66786,235.25048L264.66786,235.01285
				L264.90545,234.77523L265.14303,234.77523L265.38061,234.77523L265.38061,234.5376L265.14303,234.5376L265.14303,234.29997L265.38061,234.29997
				L265.6182,234.29997L265.6182,234.06235L265.6182,233.82472L265.85578,233.58709L266.09336,233.34947L266.56853,233.11184L266.80611,232.87421
				L267.0437,232.16133L267.0437,231.92371L267.0437,231.68608L267.0437,231.44845L266.80611,231.21083L266.56853,230.9732L266.56853,230.73557
				L266.33095,230.73557L266.09336,230.73557L265.85578,230.73557L265.85578,230.49795L265.6182,230.26032L265.38061,230.26032L
				265.14303,230.26032L265.14303,230.02269L265.14303,229.78506L265.14303,229.54744L264.90545,229.30981L264.90545,229.07218L
				264.66786,228.83456L264.66786,228.59693L264.43028,228.3593L264.1927,228.12168L264.1927,227.88405L264.1927,227.64642L264.1927,227.4088
				L264.1927,227.17117L263.95511,227.17117L263.95511,226.93354L263.71753,226.93354L263.71753,226.45829L263.71753,226.22066L
				263.47995,226.22066L263.47995,225.98304L263.47995,225.74541L263.47995,225.50778L263.47995,225.27016L263.47995,225.03253L
				263.47995,224.7949L263.71753,224.55728L263.71753,224.31965L263.71753,224.08202L263.47995,224.08202L263.47995,223.8444L263.47995,223.60677
				L263.47995,223.36914L263.24236,223.13152L263.24236,222.89389L263.24236,222.65626L263.24236,222.41864L263.00478,222.18101
				L262.7672,222.18101L262.7672,221.94338L262.7672,221.70576L262.52961,221.46813L262.05445,221.2305L261.81686,221.2305L261.81686,220.99288
				L261.81686,220.75525L261.81686,220.51762L261.81686,220.28L261.57928,220.28L261.57928,220.04237L261.81686,220.04237L262.05445,220.04237
				L262.05445,219.80474L261.81686,219.80474L261.81686,219.56711L261.81686,219.32949L261.81686,219.09186L261.81686,218.85423
				L262.05445,218.85423L261.81686,218.61661L261.81686,218.37898L262.05445,218.37898L262.05445,218.14135L262.05445,217.90373
				L262.29203,217.90373L262.29203,217.6661L262.52961,217.6661L262.52961,217.42847L262.7672,217.42847L262.7672,217.19085L263.00478,216.95322
				L263.00478,216.71559L263.24236,216.71559L263.24236,216.47797L263.47995,216.47797L263.71753,216.47797L263.71753,216.24034
				L263.95511,216.24034L264.1927,216.24034L264.43028,216.00271L264.66786,216.00271L264.66786,216.24034L264.66786,216.00271L
				264.90545,216.00271L265.14303,216.00271L265.38061,216.00271L265.6182,216.00271L265.85578,216.00271L266.09336,216.00271L266.09336,215.76509
				L266.33095,215.76509L266.56853,215.76509L266.56853,215.52746L266.80611,215.28983L266.56853,215.28983L266.56853,215.05221
				L266.33095,215.05221L266.33095,214.81458L266.33095,214.57695L266.09336,214.33933L266.09336,214.1017L265.85578,214.1017L265.6182,214.1017
				L265.6182,213.86407L265.38061,213.86407L265.38061,213.62645L265.14303,213.62645L264.90545,213.62645L264.90545,213.38882L
				264.66786,213.38882L264.66786,213.15119L264.43028,213.15119L264.43028,212.91357L264.66786,212.91357L264.66786,212.67594L
				264.43028,212.43831L264.1927,212.20069L264.1927,211.96306L263.95511,211.96306L263.95511,211.72543L263.95511,211.48781L263.95511,211.25018
				L263.95511,211.01255L263.95511,210.77493L264.1927,210.77493L264.1927,210.5373L264.43028,210.29967L264.66786,210.29967L264.90545,210.06204
				L264.90545,209.82442L265.14303,209.82442L265.14303,209.58679L265.38061,209.58679L265.38061,209.34916L265.6182,209.11154L
				265.85578,208.87391L265.85578,208.63628L266.09336,208.63628L266.33095,208.63628L266.33095,208.39866L266.56853,208.39866L
				266.56853,208.16103L266.33095,208.16103L266.09336,207.9234L266.33095,207.9234L266.56853,207.9234L266.80611,207.9234L267.0437,207.68578
				L267.0437,207.44815L267.0437,207.21052L267.0437,206.9729L267.0437,206.73527L267.0437,206.49764L267.0437,206.26002L267.28128,206.26002
				L267.28128,206.02239L267.28128,205.78476L267.0437,205.78476L267.0437,205.54714L267.0437,205.30951L267.0437,205.07188L266.80611,204.83426
				L266.80611,204.59663L266.56853,204.59663L266.56853,204.359L266.33095,204.12138L266.56853,204.12138L266.56853,203.88375L266.80611,203.88375
				L266.80611,204.12138L267.0437,204.12138L267.0437,203.88375L267.28128,203.64612L267.28128,203.4085L267.51886,203.4085L267.75645,203.17087
				L267.99403,203.17087L267.99403,202.93324L267.99403,202.69562L268.23161,202.69562L268.23161,202.45799L268.4692,202.45799L
				268.70678,202.45799L268.70678,202.22036L268.70678,201.98274L268.94436,201.98274L268.94436,201.74511L269.18195,201.74511L
				269.41953,201.74511L269.41953,201.50748L269.65712,201.50748L269.8947,201.50748L269.8947,201.26986L269.8947,201.03223L270.13228,201.03223
				L270.36987,200.7946L270.36987,200.55698L270.13228,200.55698L270.13228,200.31935L270.13228,200.08172L270.36987,200.08172L
				270.60745,200.08172"/>
			<path clip-path="url(#SVG_CP_1)" fill="none" stroke="#000000" stroke-width="0.47517" stroke-miterlimit="10" stroke-linecap="round" stroke-linejoin="round" d="
				M314.32279,313.66731L313.84762,314.61781L313.37245,315.80595L312.18454,318.65747L311.70937,322.22187L311.47179,323.41L311.70937,324.36051
				L311.70937,324.83576L311.94695,325.78627L311.70937,326.73678L311.2342,328.16254L309.8087,329.5883L308.14562,331.25169L307.67045,332.20219
				L307.43287,332.67745L306.72012,333.39033L306.24495,333.86558L305.29462,334.34083L304.81945,335.29134L304.34429,336.00422
				L304.34429,336.95473L304.58187,337.90523L304.81945,338.85574L304.81945,340.75676L304.58187,341.94489L303.63154,343.37065
				L302.91879,345.03404L302.6812,345.27166L301.96845,345.98454L300.30537,347.64793L299.35504,348.83607L298.16712,350.26183L
				296.26645,351.92521L296.02887,352.40047L296.26645,352.63809L296.26645,353.35097L296.26645,353.5886L295.5537,353.82623L295.07853,354.30148
				L293.41545,355.72724L292.22753,356.44012L291.03962,357.39063L288.66378,359.29164L287.0007,360.47978L286.52553,361.19266L
				286.28795,361.66791L285.33762,362.14316L284.62487,362.38079L283.67453,362.61842L282.96178,363.09367L282.24903,363.80655L
				280.58595,364.99468L279.8732,365.70756L279.8732,366.18282L279.16045,367.37095L277.97253,368.79671L277.25978,370.22247L276.54703,370.93535
				L275.83428,371.64823L275.12153,372.12349L273.69603,373.31162L272.7457,374.73738L272.50812,374.97501L271.55778,375.45026L
				270.36987,375.92551L269.65712,375.45026L266.80611,372.83637L263.95511,370.4601L262.05445,369.03434L260.39136,367.60858L259.20345,366.65807
				L256.59003,364.51943L252.31353,361.19266L249.9377,359.05402L246.37395,362.14316L243.99811,364.2818L242.57261,365.46994L242.09745,364.99468
				L241.62228,364.2818L241.62228,364.04418L240.90953,363.56892L240.43436,363.3313L240.19678,362.61842L239.95919,361.90554L239.72161,361.43028
				L239.48403,360.95503L239.72161,360.24215L239.48403,359.52927L239.48403,359.05402L239.24644,358.10351L239.24644,357.153L239.24644,356.67775
				L239.48403,355.72724L239.72161,354.77673L239.95919,353.5886L239.95919,353.11335L239.72161,352.87572L239.72161,351.92521L
				239.72161,351.21233L239.72161,350.26183L239.95919,349.07369L239.95919,347.4103L239.72161,346.93505L238.77128,345.50929L237.82094,344.08353
				L237.58336,343.13302L237.58336,341.23201L237.10819,339.331L236.63303,338.14286L236.63303,336.95473L236.63303,335.52897L236.63303,334.57846
				L236.63303,333.86558L236.15786,331.96457L236.63303,330.53881L237.10819,328.63779L238.05853,326.49915L238.05853,324.59814
				L238.05853,324.12288L238.29611,322.93475L238.05853,321.03374L237.82094,319.13272L237.10819,317.23171L237.10819,316.2812L
				237.58336,316.04357L238.05853,316.04357L238.29611,315.80595L238.29611,315.56832L238.53369,315.33069L238.77128,314.85544L
				238.77128,314.61781L239.24644,313.90493L239.72161,313.42968L239.95919,313.42968L240.19678,313.19205L240.43436,312.95443L
				240.90953,312.7168L241.14711,312.47917L241.62228,312.47917L241.85986,312.24155L242.09745,312.00392L242.09745,311.76629L242.57261,311.29104
				L242.8102,311.05341L243.04778,310.57816L243.52295,310.34053L243.76053,309.86528L244.2357,309.62765L244.47328,309.39003L244.94845,308.67715
				L245.18603,308.67715L245.42361,308.43952L245.6612,308.43952L246.37395,308.43952L246.61153,308.43952L247.0867,308.20189L247.56186,308.20189
				L247.79945,308.20189L248.27461,307.96426L248.74978,307.96426L249.22495,307.72664L249.70011,307.48901L250.17528,307.25138
				L250.65045,307.25138L251.12561,307.01376L251.3632,306.77613L252.07595,306.30088L252.31353,306.06325L252.55111,305.82562L
				252.7887,305.588L253.26386,305.35037L253.50145,305.11274L253.73903,305.11274L253.97661,304.87512L254.68936,304.87512L255.16453,304.63749
				L255.6397,304.39986L255.87728,304.16224L256.11486,304.16224L257.30278,304.16224L257.77795,304.16224L258.01553,303.68698L
				258.25311,303.44936L258.4907,303.21173L258.96586,302.9741L259.44103,302.73648L260.15378,302.49885L260.62895,302.26122L260.62895,302.0236
				L260.86653,301.78597L260.86653,301.54834L261.10411,299.64733L261.3417,299.17208L261.81686,297.74631L262.29203,296.79581L
				262.7672,296.08293L263.24236,295.8453L263.47995,295.60767L263.71753,295.37005L263.95511,295.13242L264.43028,294.18191L264.66786,293.70666
				L264.90545,293.46903L264.90545,293.23141L265.14303,292.99378L265.14303,292.51853L265.38061,292.2809L265.38061,291.80565L
				265.38061,291.56802L265.14303,291.09277L265.14303,290.61751L265.14303,290.14226L264.90545,289.66701L264.90545,289.42938L
				265.14303,288.95412L265.38061,288.7165L265.6182,288.24124L265.6182,287.76599L266.09336,287.52836L266.09336,287.29074L265.85578,286.81548
				L265.85578,286.57786L265.85578,286.1026L265.6182,285.86498L265.6182,285.62735L265.38061,284.91447L265.38061,284.67684L265.38061,284.43922
				L265.14303,283.96396L264.90545,283.48871L264.66786,282.30058L264.66786,282.06295L264.66786,281.82532L264.66786,281.35007
				L264.66786,281.11244L264.90545,280.87482L264.90545,280.39956L264.90545,280.16194L264.66786,279.92431L264.43028,279.92431
				L264.43028,279.68668L264.1927,279.68668L264.1927,279.44906L264.1927,279.21143L263.95511,279.21143L263.71753,278.9738L263.24236,278.9738
				L262.7672,278.73617L262.52961,278.73617L262.29203,278.73617L262.29203,278.49855L262.05445,278.49855L262.05445,278.26092L
				262.05445,277.78567L262.05445,277.54804L262.05445,277.31041L261.81686,277.31041L261.81686,277.07279L261.57928,277.07279L
				261.57928,276.83516L261.3417,276.59753L261.10411,276.59753L260.86653,276.35991L260.62895,276.35991L260.39136,276.35991L260.15378,276.35991
				L259.9162,276.12228L259.67861,276.12228L259.44103,275.88465L259.44103,275.64703L259.44103,275.17177L259.44103,274.93415L
				259.44103,274.69652L259.20345,274.69652L258.96586,274.45889L258.96586,274.22127L258.72828,274.22127L258.72828,273.98364L
				258.72828,273.74601L258.72828,273.50839L258.4907,273.27076L258.4907,273.03313L258.25311,272.79551L258.25311,272.55788L258.01553,272.55788
				L257.77795,272.55788L257.54036,272.55788L256.82761,272.55788L256.59003,272.55788L256.11486,272.79551L255.6397,272.79551L
				255.40211,272.79551L254.92695,272.55788L254.68936,272.55788L254.45178,272.55788L254.2142,272.32025L253.73903,272.08263L253.50145,272.08263
				L253.26386,272.08263L253.26386,271.845L253.26386,271.60737L253.02628,271.36975L252.7887,271.36975L252.55111,271.36975L252.31353,271.36975
				L251.83836,271.13212L251.60078,271.13212L251.12561,271.36975L250.88803,271.36975L250.88803,271.13212L250.65045,270.89449
				L250.65045,270.65687L250.65045,270.41924L250.65045,270.18161L250.41286,270.18161L250.41286,269.94399L250.17528,269.94399
				L250.17528,269.70636L249.9377,269.46873L249.9377,269.2311L250.17528,268.99348L250.65045,268.75585L250.88803,268.51822L250.88803,268.2806
				L251.12561,268.2806L251.60078,268.2806L251.83836,268.2806L252.55111,267.56772L252.7887,267.56772L253.26386,267.33009L253.50145,267.33009
				L253.73903,267.09246L253.97661,266.85484L253.97661,266.61721L253.97661,266.37958L253.97661,266.14196L253.97661,265.6667L
				254.2142,265.42908L254.2142,265.19145L254.45178,265.19145L254.68936,264.95382L254.92695,264.95382L255.16453,265.19145L255.40211,265.19145
				L255.6397,265.19145L255.87728,265.19145L255.87728,264.95382L255.87728,264.7162L255.87728,264.47857L256.11486,264.24094L256.35245,264.24094
				L256.35245,264.47857L256.59003,264.47857L256.59003,264.24094L256.82761,264.24094L257.0652,264.24094L257.30278,264.24094L
				257.30278,264.00332L257.30278,263.76569L257.54036,263.76569L257.77795,263.76569L258.01553,263.52806L258.25311,263.29044L
				258.25311,263.05281L258.4907,263.05281L258.4907,262.81518L258.4907,262.57756L258.72828,262.33993L258.72828,262.1023L258.96586,262.1023
				L258.96586,261.86468L258.96586,261.62705L259.20345,261.62705L259.44103,261.62705L259.44103,261.38942L259.67861,261.1518L
				259.9162,260.91417L259.9162,260.67654L260.15378,260.67654L260.39136,260.67654L260.39136,260.43892L260.39136,260.20129L260.62895,260.20129
				L260.62895,259.96366L260.62895,259.72604L260.86653,259.72604L260.86653,259.48841L260.62895,259.48841L260.62895,259.25078
				L260.39136,259.25078L260.39136,259.48841L260.15378,259.48841L260.15378,259.25078L260.15378,259.01315L259.9162,259.01315L
				259.9162,258.77553L259.9162,258.5379L261.10411,259.01315L261.81686,259.25078L262.29203,259.96366L262.52961,260.91417L262.52961,261.38942
				L263.00478,261.86468L263.71753,261.86468L264.90545,261.62705L265.6182,261.62705L266.33095,262.1023L266.56853,263.29044L266.80611,264.24094
				L266.56853,264.95382L266.33095,266.37958L266.33095,267.09246L267.28128,268.04297L268.4692,269.46873L269.18195,269.94399L
				269.8947,270.65687L270.84503,271.13212L272.7457,271.13212L273.69603,271.36975L273.93362,271.845L273.45845,272.79551L273.22087,273.74601
				L273.22087,274.69652L273.93362,275.64703L274.64637,275.88465L275.83428,275.17177L277.0222,274.93415L277.97253,275.17177L
				278.4477,275.64703L279.16045,277.31041L279.63562,278.26092L280.82353,279.92431L282.01145,281.11244L283.91212,283.25108L284.86245,283.96396
				L286.05037,284.67684L286.76312,285.1521L287.47587,285.86498L287.71345,286.81548L287.95103,287.52836L288.18862,288.00362L
				288.66378,288.00362L289.37653,288.24124L291.03962,288.00362L291.51478,288.24124L292.22753,288.7165L292.46512,289.19175L292.7027,290.14226
				L292.7027,291.33039L293.41545,291.80565L295.5537,292.99378L297.45437,293.94429L298.16712,293.94429L300.06779,292.75615L301.01812,291.56802
				L301.73087,291.33039L302.20604,291.33039L302.91879,291.80565L302.6812,292.99378L302.44362,294.65717L302.6812,295.37005L303.15637,295.8453
				L304.34429,296.08293L305.5322,296.08293L306.72012,296.55818L307.19529,297.27106L307.67045,298.22157L307.43287,299.4097L306.9577,300.59784
				L307.19529,301.54834L307.90804,302.0236L309.33354,302.49885L311.47179,302.73648L312.6597,303.44936L313.84762,304.39986L314.32279,305.35037
				L315.03554,306.30088L315.5107,307.96426L315.74829,309.39003L315.27312,311.29104L314.32279,313.66731"/>
			<path clip-path="url(#SVG_CP_1)" fill="none" stroke="#000000" stroke-width="0.47517" stroke-miterlimit="10" stroke-linecap="round" stroke-linejoin="round" d="
				M270.36987,375.92551L271.55778,375.45026L272.50812,374.97501L272.7457,374.73738L273.69603,373.31162L275.12153,372.12349L
				275.83428,371.64823L276.54703,370.93535L277.25978,370.22247L277.97253,368.79671L279.16045,367.37095L279.8732,366.18282L279.8732,365.70756
				L280.58595,364.99468L282.24903,363.80655L282.96178,363.09367L283.67453,362.61842L284.62487,362.38079L285.33762,362.14316
				L286.28795,361.66791L286.52553,361.19266L287.0007,360.47978L288.66378,359.29164L291.03962,357.39063L292.22753,356.44012L
				293.41545,355.72724L295.07853,354.30148L295.5537,353.82623L296.26645,353.5886L296.26645,353.35097L296.26645,352.63809L296.02887,352.40047
				L296.26645,351.92521L298.16712,350.26183L299.35504,348.83607L300.30537,347.64793L301.96845,345.98454L302.6812,345.27166L
				302.91879,345.03404L303.63154,343.37065L304.58187,341.94489L304.81945,340.75676L304.81945,338.85574L304.58187,337.90523L
				304.34429,336.95473L304.34429,336.00422L304.81945,335.29134L305.29462,334.34083L306.24495,333.86558L306.72012,333.39033L
				307.43287,332.67745L307.67045,332.20219L308.14562,331.25169L309.8087,329.5883L311.2342,328.16254L311.70937,326.73678L311.94695,325.78627
				L311.70937,324.83576L311.70937,324.36051L311.47179,323.41L311.70937,322.22187L312.18454,318.65747L313.37245,315.80595L313.84762,314.61781
				L314.32279,313.66731L320.02479,312.95443L326.67712,312.7168L335.23012,310.57816L334.99254,311.05341L334.04221,312.47917L
				333.09187,312.47917L332.85429,312.95443L333.56704,313.66731L333.56704,314.14256L332.61671,314.38019L332.14154,316.51883L
				331.66637,317.23171L330.71604,317.70696L330.47846,318.41984L330.95362,319.13272L330.95362,319.60798L330.24087,320.32086L
				330.24087,320.79611L331.19121,321.74662L332.14154,324.83576L332.14154,325.78627L331.66637,326.0239L330.47846,326.9744L329.29054,328.16254
				L329.05296,329.11305L330.00329,329.5883L330.95362,330.30118L332.14154,331.25169L332.85429,331.96457L332.85429,332.91507L
				332.14154,333.62795L331.42879,334.34083L330.71604,335.52897L330.00329,337.66761L330.00329,338.38049L329.05296,338.85574L
				328.81537,339.331L329.05296,339.331L329.52812,340.04388L330.71604,340.75676L330.95362,341.70726L331.19121,342.8954L331.66637,344.08353
				L331.90396,345.50929L331.66637,345.74692L330.47846,346.4598L330.47846,346.93505L330.95362,347.4103L330.95362,348.36081L331.42879,349.78657
				L331.66637,350.26183L331.90396,350.97471L331.90396,351.68759L332.61671,352.16284L332.61671,352.63809L332.85429,352.87572
				L333.09187,354.06385L333.80462,354.77673L334.51737,356.20249L335.23012,356.44012L335.70529,356.44012L336.18046,356.91537
				L336.18046,357.62825L336.41804,358.57876L336.89321,359.29164L336.89321,359.7669L336.89321,360.7174L336.65562,361.43028L336.65562,362.38079
				L336.65562,362.85604L336.65562,363.56892L336.65562,364.2818L336.65562,364.75706L336.89321,365.23231L336.41804,365.70756L
				336.41804,366.18282L336.89321,366.8957L336.65562,367.37095L336.89321,367.60858L337.84354,368.32146L338.55629,368.55909L338.79387,369.50959
				L338.31871,369.74722L338.08112,370.4601L337.60596,370.69773L337.36837,371.17298L337.60596,372.12349L337.13079,372.59874L
				336.65562,373.07399L336.18046,373.54925L336.41804,374.49975L336.41804,375.21263L336.65562,376.40077L336.18046,377.82653L
				335.94287,378.30178L334.51737,378.06416L333.56704,378.53941L332.61671,379.25229L331.90396,379.25229L330.95362,379.25229L
				330.47846,379.25229L330.24087,379.25229L329.76571,379.25229L329.52812,378.77704L329.52812,378.53941L329.05296,378.53941L
				328.81537,378.77704L328.34021,379.01466L328.34021,379.48992L328.57779,379.96517L329.05296,380.2028L329.76571,380.67805L329.76571,381.39093
				L328.57779,382.34144L328.34021,382.81669L328.81537,383.52957L328.10262,383.52957L327.38987,383.52957L326.20195,383.52957
				L325.4892,383.52957L324.77645,383.52957L324.53887,383.29194L324.0637,383.05432L323.58854,383.05432L323.35095,382.81669L323.35095,382.57906
				L323.58854,382.10381L323.58854,381.86618L323.11337,381.62856L322.6382,381.62856L322.40062,381.86618L322.40062,382.10381L
				321.92545,382.34144L321.68787,382.10381L321.68787,381.62856L321.45029,381.62856L320.97512,381.62856L320.73754,381.39093L
				320.97512,381.1533L321.45029,380.91568L321.68787,380.67805L321.68787,380.2028L321.2127,380.44042L320.73754,380.44042L320.49995,380.44042
				L320.26237,380.2028L319.31204,379.48992L318.59929,378.77704L317.88654,378.30178L315.27312,376.40077L312.6597,374.49975L312.18454,374.26213
				L307.43287,370.69773L306.24495,369.74722L302.91879,369.98485L301.73087,370.93535L296.74162,374.49975L292.46512,377.35127
				L290.80203,378.53941L290.08928,378.53941L288.90137,378.77704L287.23828,378.53941L287.0007,378.30178L286.52553,377.82653L
				285.81278,377.11365L285.5752,377.11365L285.33762,376.87602L285.10003,376.63839L284.86245,376.63839L284.62487,376.40077L284.1497,375.92551
				L283.67453,376.16314L283.19937,376.63839L282.01145,377.35127L281.2987,377.82653L280.11078,378.53941L278.21012,379.72754L
				276.78462,379.25229L276.54703,379.25229L274.1712,378.77704L273.22087,378.06416L272.98328,378.06416L270.36987,375.92551"/>
		</g>
	</g>
</svg>
