<?xml version="1.0" encoding="utf-8" standalone="no"?>
<!-- Creator: Esri ArcMap 10.8.0.12790 -->
<!DOCTYPE svg PUBLIC "-//W3C//DTD SVG 1.1//EN"  "http://www.w3.org/Graphics/SVG/1.1/DTD/svg11.dtd">
<svg width="774.73701pt" height="404.24882pt" viewBox="0 0 774.73701 404.24882" enable-background="new 0 0 774.73701 404.24882"
	version="1.1" xmlns="http://www.w3.org/2000/svg" xmlns:xlink="http://www.w3.org/1999/xlink" >
	<g id="Layers">
		<g id="Mayo_Kani">
			<clipPath id="SVG_CP_1">
				<path d="M0,404.24882L0,0L774.73701,0L774.73701,404.24882L0,404.24882z"/>
			</clipPath>
			<path clip-path="url(#SVG_CP_1)" fill="none" stroke="#000000" stroke-width="0.47528" stroke-miterlimit="10" stroke-linecap="round" stroke-linejoin="round" d="
				M499.98938,395.88616L461.96737,389.23261L403.03327,377.35127L334.59365,363.3313L321.76123,360.47978L231.93424,361.43028L
				204.84356,360.95503L199.3779,361.90554L187.02074,360.7174L185.59492,360.00452L186.78311,335.76659L188.68421,333.39033L189.87239,329.11305
				L197.23916,323.88526L191.77349,315.33069L188.20893,313.90493L183.69382,311.52867L173.71304,308.67715L133.07702,295.37005
				L131.6512,299.17208L132.12647,300.59784L131.88883,301.78597L128.56191,303.44936L125.71026,301.78597L124.0468,303.21173L120.00696,305.35037
				L119.29404,305.11274L118.58113,304.16224L117.15531,304.39986L115.96712,303.44936L115.49184,302.49885L114.30366,301.31072
				L114.30366,299.64733L113.82838,299.17208L113.82838,298.45919L114.06602,298.22157L113.82838,296.79581L112.87783,295.60767
				L112.40256,296.08293L111.45201,296.32055L112.40256,294.65717L111.68964,293.70666L111.68964,292.2809L110.50146,289.90463L
				108.60036,288.47887L108.12508,283.25108L105.51107,279.68668L103.13469,278.49855L103.13469,275.4094L103.60997,273.74601L103.37233,272.08263
				L103.8476,271.36975L108.12508,236.43861L106.46162,230.9732L105.27343,225.98304L104.08524,223.13152L101.9465,213.86407L101.70887,212.20069
				L102.65942,206.02239L103.13469,203.88375L103.8476,191.52716L104.32288,187.4875L104.08524,185.58649L103.37233,184.63598L103.8476,182.02209
				L103.60997,179.40819L103.60997,178.45769L107.64981,177.98243L110.73909,176.7943L111.92728,175.13091L121.19514,174.41803L
				137.82977,172.75465L147.33527,172.27939L201.99191,155.17027L201.51663,154.21976L201.75427,153.50688L202.94246,151.60587L
				205.55647,147.09096L206.74466,144.47706L208.40812,141.15029L210.07158,139.96215L211.73505,138.53639L214.82433,136.39775L
				218.86417,134.02149L218.86417,133.30861L219.33945,132.3581L223.37929,115.4866L226.94385,104.08052L281.83812,81.03072L287.77906,79.84259
				L291.34362,78.65445L293.95764,76.99107L295.6211,76.99107L297.28456,75.80293L297.99747,74.37717L298.94802,73.42667L300.37385,73.66429
				L301.79967,73.66429L302.98786,72.71379L304.17605,70.81277L307.0277,69.38701L308.9288,69.14938L311.30518,70.09989L313.44391,71.76328
				L316.29556,73.66429L315.82029,75.56531L318.19666,76.99107L320.3354,79.60496L341.24751,109.3083L364.53598,116.91236L444.85747,113.11033
				L463.63084,86.73376L440.81763,74.13955L439.39181,56.55517L491.19679,16.39625L504.50449,24.71318L505.69268,42.05993L550.1309,93.86257
				L587.43999,137.11063L595.28203,146.37808L561.77514,177.74481L547.04161,190.57665L532.30809,199.60647L533.021,200.7946L544.90288,224.31965
				L549.65563,225.27016L548.2298,231.21083L567.00317,247.36944L566.29025,257.11214L560.34932,257.58739L556.30948,269.46873L
				556.07184,270.65687L546.09106,285.86498L543.00178,322.4595L543.00178,322.93475L541.33831,327.21203L533.73391,340.51913L527.08006,351.44996
				L520.42621,358.57876L514.24763,365.46994L507.59378,379.25229L499.98938,395.88616"/>
		</g>
		<g id="Mayo_Kani_SD">
			<path clip-path="url(#SVG_CP_1)" fill="none" stroke="#000000" stroke-width="0.47528" stroke-miterlimit="10" stroke-linecap="round" stroke-linejoin="round" d="
				M533.021,200.7946L532.54572,201.03223L531.83281,201.26986L529.45644,201.26986L527.3177,200.08172L524.70368,197.94308L516.86165,206.26002
				L502.84103,221.46813L489.05805,235.25048L470.9976,252.35961L454.36297,268.75585L442.95637,267.33009L424.89592,264.95382L
				404.22145,262.1023L390.43848,259.96366L390.20084,259.25078L388.29974,249.27046L384.97281,231.92371L387.58683,229.30981L393.05249,220.28
				L396.85469,211.96306L399.23106,207.44815L406.36019,205.30951L407.78602,198.65596L412.06349,177.50718L418.95498,173.70515
				L426.79702,163.96246L431.07449,147.56621L433.45087,141.38792L438.91653,124.99167L445.33275,114.06084L444.85747,113.11033
				L463.63084,86.73376L440.81763,74.13955L439.39181,56.55517L491.19679,16.39625L504.50449,24.71318L505.69268,42.05993L550.1309,93.86257
				L587.43999,137.11063L595.28203,146.37808L561.77514,177.74481L547.04161,190.57665L532.30809,199.60647L533.021,200.7946"/>
			<path clip-path="url(#SVG_CP_1)" fill="none" stroke="#000000" stroke-width="0.47528" stroke-miterlimit="10" stroke-linecap="round" stroke-linejoin="round" d="
				M533.021,200.7946L544.90288,224.31965L549.65563,225.27016L548.2298,231.21083L567.00317,247.36944L566.29025,257.11214L560.34932,257.58739
				L556.30948,269.46873L556.07184,270.65687L546.09106,285.86498L543.00178,322.4595L530.16935,318.65747L524.94132,314.14256L
				519.00038,311.05341L512.82181,307.01376L513.05945,300.36021L498.80119,287.05311L489.77097,280.87482L477.65145,274.69652L
				465.53194,271.36975L456.97699,270.41924L454.36297,268.75585L470.9976,252.35961L489.05805,235.25048L502.84103,221.46813L516.86165,206.26002
				L524.70368,197.94308L527.3177,200.08172L529.45644,201.26986L531.83281,201.26986L532.54572,201.03223L533.021,200.7946"/>
			<path clip-path="url(#SVG_CP_1)" fill="none" stroke="#000000" stroke-width="0.47528" stroke-miterlimit="10" stroke-linecap="round" stroke-linejoin="round" d="
				M513.05945,300.36021L512.82181,307.01376L519.00038,311.05341L524.94132,314.14256L530.16935,318.65747L543.00178,322.4595L
				543.00178,322.93475L541.33831,327.21203L533.73391,340.51913L527.08006,351.44996L520.42621,358.57876L514.24763,365.46994L
				507.59378,379.25229L499.98938,395.88616L461.96737,389.23261L403.03327,377.35127L404.69673,374.73738L408.02365,368.08383L
				412.7764,360.47978L418.24207,354.53911L426.55938,350.97471L435.11433,349.54895L439.62945,348.83607L444.14456,347.4103L447.47148,337.66761
				L456.02644,320.55848L465.53194,311.52867L477.88909,305.588L491.67207,301.31072L503.79158,300.12258L513.05945,300.36021"/>
			<path clip-path="url(#SVG_CP_1)" fill="none" stroke="#000000" stroke-width="0.47528" stroke-miterlimit="10" stroke-linecap="round" stroke-linejoin="round" d="
				M454.36297,268.75585L456.97699,270.41924L465.53194,271.36975L477.65145,274.69652L489.77097,280.87482L498.80119,287.05311
				L513.05945,300.36021L503.79158,300.12258L491.67207,301.31072L477.88909,305.588L465.53194,311.52867L456.02644,320.55848L447.47148,337.66761
				L444.14456,347.4103L439.62945,348.83607L435.11433,349.54895L426.55938,350.97471L418.24207,354.53911L412.7764,360.47978L408.02365,368.08383
				L404.69673,374.73738L403.03327,377.35127L334.59365,363.3313L339.3464,359.29164L348.85191,350.49945L355.03048,342.18252L356.69395,331.72694
				L359.78323,322.69712L364.53598,317.46933L373.09094,314.38019L378.31896,316.04357L385.92336,320.79611L391.8643,326.9744L399.4687,326.9744
				L401.84508,326.26152L403.50854,322.4595L403.50854,317.94459L401.3698,308.91477L398.51815,299.88496L395.6665,283.72634L396.37941,283.96396
				L401.13216,273.98364L404.22145,262.1023L424.89592,264.95382L442.95637,267.33009L454.36297,268.75585"/>
			<path clip-path="url(#SVG_CP_1)" fill="none" stroke="#000000" stroke-width="0.47528" stroke-miterlimit="10" stroke-linecap="round" stroke-linejoin="round" d="
				M384.97281,231.92371L388.29974,249.27046L390.20084,259.25078L390.43848,259.96366L404.22145,262.1023L401.13216,273.98364L
				396.37941,283.96396L395.6665,283.72634L398.51815,299.88496L401.3698,308.91477L403.50854,317.94459L403.50854,322.4595L401.84508,326.26152
				L399.4687,326.9744L391.8643,326.9744L385.92336,320.79611L378.31896,316.04357L373.09094,314.38019L364.53598,317.46933L359.78323,322.69712
				L356.69395,331.72694L355.03048,342.18252L348.85191,350.49945L339.3464,359.29164L334.59365,363.3313L321.76123,360.47978L231.93424,361.43028
				L204.84356,360.95503L199.3779,361.90554L187.02074,360.7174L185.59492,360.00452L186.78311,335.76659L188.68421,333.39033L189.87239,329.11305
				L197.23916,323.88526L191.77349,315.33069L188.20893,313.90493L188.44657,312.00392L189.15948,307.01376L188.44657,301.54834
				L186.30783,292.51853L182.50563,289.42938L184.88201,280.39956L191.06058,278.26092L194.86278,274.45889L194.14987,268.2806L
				193.67459,263.76569L196.76388,252.59723L197.71443,248.08232L200.80372,238.102L204.84356,226.22066L208.17048,215.52746L206.03175,207.9234
				L199.3779,196.51732L198.66498,185.82412L198.90262,176.08142L200.56608,168.47736L202.22955,155.64552L201.99191,155.17027L
				210.07158,158.97229L220.05236,163.96246L228.60731,167.76448L230.27077,168.47736L246.43013,164.91296L259.73783,162.06144L
				264.49058,161.11094L265.44113,160.63568L265.67877,161.82382L266.86696,167.76448L267.57987,172.04177L270.43152,183.9231L271.85734,191.28953
				L274.70899,204.59663L276.13482,210.5373L276.84773,214.1017L289.68016,218.37898L304.65132,223.13152L322.2365,228.83456L338.87113,234.29997
				L356.93158,233.11184L372.14039,231.92371L384.2599,231.21083L384.97281,231.21083L384.97281,231.92371"/>
			<path clip-path="url(#SVG_CP_1)" fill="none" stroke="#000000" stroke-width="0.47528" stroke-miterlimit="10" stroke-linecap="round" stroke-linejoin="round" d="
				M188.20893,313.90493L183.69382,311.52867L173.71304,308.67715L133.07702,295.37005L131.6512,299.17208L132.12647,300.59784L
				131.88883,301.78597L128.56191,303.44936L125.71026,301.78597L124.0468,303.21173L120.00696,305.35037L119.29404,305.11274L118.58113,304.16224
				L117.15531,304.39986L115.96712,303.44936L115.49184,302.49885L114.30366,301.31072L114.30366,299.64733L113.82838,299.17208
				L113.82838,298.45919L114.06602,298.22157L113.82838,296.79581L112.87783,295.60767L112.40256,296.08293L111.45201,296.32055
				L112.40256,294.65717L111.68964,293.70666L111.68964,292.2809L110.50146,289.90463L108.60036,288.47887L108.12508,283.25108L
				105.51107,279.68668L103.13469,278.49855L103.13469,275.4094L103.60997,273.74601L103.37233,272.08263L103.8476,271.36975L108.12508,236.43861
				L106.46162,230.9732L105.27343,225.98304L104.08524,223.13152L101.9465,213.86407L101.70887,212.20069L102.65942,206.02239L103.13469,203.88375
				L103.8476,191.52716L104.32288,187.4875L104.08524,185.58649L103.37233,184.63598L103.8476,182.02209L103.60997,179.40819L103.60997,178.45769
				L107.64981,177.98243L110.73909,176.7943L111.92728,175.13091L121.19514,174.41803L137.82977,172.75465L147.33527,172.27939L
				201.99191,155.17027L202.22955,155.64552L200.56608,168.47736L198.90262,176.08142L198.66498,185.82412L199.3779,196.51732L206.03175,207.9234
				L208.17048,215.52746L204.84356,226.22066L200.80372,238.102L197.71443,248.08232L196.76388,252.59723L193.67459,263.76569L194.14987,268.2806
				L194.86278,274.45889L191.06058,278.26092L184.88201,280.39956L182.50563,289.42938L186.30783,292.51853L188.44657,301.54834
				L189.15948,307.01376L188.44657,312.00392L188.20893,313.90493"/>
			<path clip-path="url(#SVG_CP_1)" fill="none" stroke="#000000" stroke-width="0.47528" stroke-miterlimit="10" stroke-linecap="round" stroke-linejoin="round" d="
				M444.85747,113.11033L445.33275,114.06084L438.91653,124.99167L433.45087,141.38792L431.07449,147.56621L426.79702,163.96246
				L418.95498,173.70515L412.06349,177.50718L407.78602,198.65596L406.36019,205.30951L399.23106,207.44815L396.85469,211.96306
				L393.05249,220.28L387.58683,229.30981L384.97281,231.92371L384.97281,231.21083L384.2599,231.21083L372.14039,231.92371L356.93158,233.11184
				L338.87113,234.29997L322.2365,228.83456L304.65132,223.13152L289.68016,218.37898L276.84773,214.1017L276.13482,210.5373L274.70899,204.59663
				L271.85734,191.28953L270.43152,183.9231L267.57987,172.04177L266.86696,167.76448L265.67877,161.82382L265.44113,160.63568L
				264.49058,161.11094L259.73783,162.06144L246.43013,164.91296L230.27077,168.47736L228.60731,167.76448L220.05236,163.96246L
				210.07158,158.97229L201.99191,155.17027L201.51663,154.21976L201.75427,153.50688L202.94246,151.60587L205.55647,147.09096L
				206.74466,144.47706L208.40812,141.15029L210.07158,139.96215L211.73505,138.53639L214.82433,136.39775L218.86417,134.02149L
				218.86417,133.30861L219.33945,132.3581L223.37929,115.4866L226.94385,104.08052L281.83812,81.03072L287.77906,79.84259L291.34362,78.65445
				L293.95764,76.99107L295.6211,76.99107L297.28456,75.80293L297.99747,74.37717L298.94802,73.42667L300.37385,73.66429L301.79967,73.66429
				L302.98786,72.71379L304.17605,70.81277L307.0277,69.38701L308.9288,69.14938L311.30518,70.09989L313.44391,71.76328L316.29556,73.66429
				L315.82029,75.56531L318.19666,76.99107L320.3354,79.60496L341.24751,109.3083L364.53598,116.91236L444.85747,113.11033"/>
		</g>
	</g>
</svg>
