<?xml version="1.0" encoding="utf-8" standalone="no"?>
<!-- Creator: Esri ArcMap 10.8.0.12790 -->
<!DOCTYPE svg PUBLIC "-//W3C//DTD SVG 1.1//EN"  "http://www.w3.org/Graphics/SVG/1.1/DTD/svg11.dtd">
<svg width="803.99055pt" height="404.24882pt" viewBox="0 0 803.99055 404.24882" enable-background="new 0 0 803.99055 404.24882"
	version="1.1" xmlns="http://www.w3.org/2000/svg" xmlns:xlink="http://www.w3.org/1999/xlink" >
	<g id="Layers">
		<g id="Mayo_Sava_SD">
			<clipPath id="SVG_CP_1">
				<path d="M0,404.24882L0,0L803.99055,0L803.99055,404.24882L0,404.24882z"/>
			</clipPath>
			<path clip-path="url(#SVG_CP_1)" fill="none" stroke="#000000" stroke-width="0.47517" stroke-miterlimit="10" stroke-linecap="round" stroke-linejoin="round" d="
				M396.28905,281.5877L375.85688,280.63719L358.51329,278.49855L340.45696,270.41924L331.90396,268.99348L325.96437,274.22127L
				315.5107,288.00362L297.21678,298.45919L295.5537,297.27106L294.36578,297.74631L291.75237,296.32055L289.61412,295.37005L287.71345,293.94429
				L287.0007,292.04327L285.33762,288.47887L285.10003,288.24124L283.43695,285.38972L283.19937,284.20159L282.96178,282.30058L
				282.96178,279.21143L282.7242,277.31041L282.01145,276.12228L281.2987,273.50839L281.06112,271.845L280.58595,269.46873L280.11078,266.61721
				L280.11078,264.95382L288.66378,260.67654L317.88654,237.15149L334.51737,213.62645L343.07037,188.67564L346.63412,173.94278
				L349.24754,161.34856L350.19787,157.54653L350.67304,156.83365L350.91062,156.59603L351.14821,156.3584L351.62337,155.88315L
				351.86096,155.64552L352.09854,155.64552L352.33612,155.40789L352.57371,155.40789L352.81129,155.64552L353.04887,155.88315L
				353.28646,156.12077L353.76162,156.59603L353.99921,156.83365L354.23679,156.83365L354.47437,156.83365L354.71196,156.83365L
				354.94954,156.59603L355.18712,157.07128L355.42471,157.54653L355.66229,157.78416L356.37504,157.78416L356.61263,157.78416L
				356.85021,157.54653L357.08779,157.54653L357.56296,157.54653L358.03813,157.78416L358.27571,158.25941L358.51329,158.49704L
				358.98846,158.49704L359.22604,158.49704L359.46363,158.49704L359.70121,158.25941L360.17638,158.25941L360.65154,158.02179L
				360.88913,158.02179L361.12671,158.02179L361.36429,158.02179L361.60188,158.02179L361.83946,158.02179L362.07704,158.02179L
				362.31463,158.02179L362.31463,157.54653L362.55221,157.30891L363.02738,157.07128L363.26496,156.83365L363.50254,156.83365L
				363.50254,157.07128L363.74013,157.07128L363.97771,157.30891L364.45288,157.30891L364.69046,157.30891L364.69046,157.07128L
				364.92804,157.07128L364.92804,156.83365L365.16563,156.83365L365.40321,156.59603L365.64079,156.59603L365.87838,156.3584L366.11596,156.12077
				L366.11596,155.88315L366.11596,155.64552L366.35354,155.64552L366.35354,155.40789L366.59113,155.40789L366.82871,155.17027
				L366.82871,154.93264L366.82871,154.69501L366.82871,154.45739L367.30388,154.45739L367.30388,154.21976L367.54146,153.98213
				L367.54146,153.74451L367.77904,153.74451L368.01663,153.50688L368.25421,153.50688L368.49179,153.50688L368.49179,153.26925
				L368.72938,153.03163L368.72938,152.794L368.49179,152.55637L368.49179,152.31875L368.49179,152.08112L368.72938,152.08112L368.96696,151.84349
				L369.20454,151.84349L369.20454,152.08112L369.20454,152.31875L369.44213,152.31875L369.44213,152.08112L369.67971,152.08112
				L369.91729,151.84349L370.15488,151.36824L370.63004,151.36824L370.86763,151.36824L371.10521,151.13061L371.58038,150.89298
				L371.81796,150.89298L372.29313,150.65536L372.53071,150.65536L372.76829,150.65536L373.24346,150.65536L373.48104,150.65536
				L373.71863,150.65536L373.95621,150.41773L374.19379,150.41773L374.43138,150.41773L374.43138,150.1801L376.09446,147.80384L
				377.75754,145.6652L379.42063,144.00181L379.89579,143.0513L380.37096,141.38792L380.60854,139.96215L382.03404,137.58589L382.98438,136.16013
				L383.93471,135.68487L386.31055,135.20962L390.82463,134.25911L393.67563,133.30861L394.86355,132.83335L396.76421,132.12047
				L397.71455,131.40759L399.14005,130.69471L401.2783,129.50658L402.46621,128.55607L403.65413,128.08082L405.07963,127.36794L
				406.9803,126.1798L408.64338,125.46692L409.8313,124.99167L411.49438,124.27879L412.91988,123.32828L414.1078,122.6154L415.05813,122.14015
				L415.77088,121.6649L416.72122,121.18964L417.90913,120.95201L419.09705,120.47676L420.04738,119.76388L420.99772,119.051L422.42322,118.33812
				L425.03663,116.43711L427.17488,115.01135L429.07555,113.34796L432.40172,111.44694L433.58963,110.25881L433.82722,110.02118
				L434.53997,109.3083L435.96547,108.59542L437.15338,107.40729L439.29163,105.7439L440.95472,104.31814L442.14263,103.36764L443.56814,101.94188
				L444.75605,101.22899L445.94397,100.27849L447.36947,98.85273L448.55739,97.90222L449.50772,96.95171L450.69564,95.76358L451.88355,95.0507
				L453.07147,94.10019L453.78422,93.38731L454.73455,92.43681L455.20972,91.01104L455.68489,90.29816L456.39764,89.58528L457.11039,88.63478
				L457.82314,87.68427L458.2983,86.97139L459.24864,86.49614L459.7238,86.25851L460.19897,86.25851L460.91172,86.25851L461.62447,86.49614
				L462.33722,86.97139L463.04997,87.20902L464.23789,87.20902L465.18822,87.20902L465.66339,87.20902L466.8513,86.97139L467.56405,86.73376
				L468.2768,86.25851L468.75197,86.02088L469.22714,85.54563L469.93989,85.308L471.60297,84.83275L472.31572,84.83275L472.55331,87.20902
				L474.21639,92.43681L474.92914,96.71409L475.40431,101.70425L474.92914,104.7934L474.69156,105.7439L474.45397,110.25881L472.55331,116.19948
				L471.1278,120.47676L470.17747,124.51642L471.36539,129.26895L471.1278,130.45708L471.36539,133.07098L471.1278,136.39775L471.36539,139.4869
				L472.31572,142.33842L473.26606,147.56621L473.74122,151.84349L474.21639,154.21976L476.82981,158.02179L479.20564,161.34856
				L479.91839,162.77432L479.68081,166.81398L478.96806,169.6655L478.96806,172.04177L478.96806,174.18041L478.96806,176.31905L
				479.68081,177.03193L479.44322,177.98243L478.73047,181.54684L478.49289,183.68548L477.78014,185.82412L477.78014,187.01225L
				477.78014,189.62614L478.01772,191.76479L478.49289,192.95292L478.96806,194.61631L478.25531,196.51732L478.73047,197.94308L
				479.68081,199.36884L480.15597,200.7946L480.86872,202.45799L482.05664,203.17087L483.48214,204.12138L483.95731,205.07188L484.67006,206.49764
				L486.09556,207.9234L485.14522,208.39866L483.48214,210.06204L483.00697,211.01255L481.34389,212.43831L479.68081,216.47797L
				477.30497,218.61661L473.74122,221.70576L471.60297,223.8444L470.17747,225.03253L469.22714,226.93354L467.32647,229.30981L466.61372,230.49795
				L465.4258,231.92371L463.28755,234.06235L462.81239,235.72573L461.1493,236.43861L459.96139,236.91387L459.48622,237.86437L459.48622,239.29013
				L459.7238,240.7159L459.7238,242.14166L459.48622,243.56742L457.58555,245.70606L455.92247,246.89419L454.73455,248.08232L454.49697,249.50808
				L452.35872,249.98334L451.1708,251.88435L449.27014,252.59723L448.55739,253.07249L444.75605,253.54774L441.42988,254.49825L
				435.96547,258.06265L433.82722,259.25078L433.11447,259.96366L432.87688,261.38942L433.11447,262.81518L433.11447,263.76569L
				432.16413,264.24094L431.2138,265.19145L430.73863,265.90433L429.7883,266.61721L428.12522,266.14196L427.65005,267.09246L426.9373,268.2806
				L425.98697,269.70636L425.03663,271.13212L423.84872,270.89449L421.71047,270.41924L420.52255,271.13212L418.3843,271.845L416.00847,272.32025
				L414.82055,270.89449L412.91988,271.13212L411.73196,271.845L411.96955,273.03313L410.30646,274.22127L409.59371,275.4094L409.59371,276.12228
				L408.4058,277.07279L408.16821,277.78567L407.93063,278.26092L406.02996,277.31041L405.5548,277.78567L404.84205,278.9738L403.65413,278.9738
				L402.94138,277.78567L401.2783,277.07279L400.09038,278.02329L400.09038,279.44906L399.8528,280.63719L397.95213,281.35007L396.76421,281.11244
				L396.28905,281.5877"/>
			<path clip-path="url(#SVG_CP_1)" fill="none" stroke="#000000" stroke-width="0.47517" stroke-miterlimit="10" stroke-linecap="round" stroke-linejoin="round" d="
				M350.19787,157.54653L349.24754,161.34856L346.63412,173.94278L343.07037,188.67564L334.51737,213.62645L317.88654,237.15149
				L288.66378,260.67654L280.11078,264.95382L278.92287,261.62705L271.08262,236.67624L271.79537,233.11184L273.93362,231.44845
				L274.40878,229.78506L273.69603,227.88405L272.7457,225.74541L269.41953,221.94338L268.70678,220.75525L267.75645,217.19085L
				267.0437,215.76509L265.6182,213.86407L263.71753,210.5373L262.52961,210.06204L261.81686,209.34916L260.86653,208.63628L259.44103,207.68578
				L255.6397,205.54714L254.2142,205.54714L253.02628,204.359L251.83836,204.12138L249.70011,203.88375L248.27461,201.98274L246.84911,201.03223
				L244.47328,199.84409L242.8102,199.36884L241.62228,199.13121L241.14711,198.65596L240.90953,198.41833L240.43436,198.18071L
				239.95919,197.70545L239.72161,197.46783L239.72161,197.2302L239.72161,196.99257L239.72161,196.75495L239.95919,196.51732L240.19678,195.80444
				L240.19678,195.56681L240.43436,195.32919L240.43436,194.85393L240.67194,194.61631L240.67194,194.37868L240.90953,194.37868
				L241.14711,194.37868L241.3847,194.14105L241.3847,193.90343L241.3847,193.6658L241.3847,193.42817L241.85986,193.42817L242.09745,193.19055
				L242.33503,192.95292L242.57261,192.71529L242.57261,192.47767L242.8102,192.24004L243.04778,192.00241L243.28536,191.76479L
				243.52295,191.52716L243.52295,191.28953L243.76053,191.28953L244.2357,191.05191L244.47328,191.05191L244.47328,190.81428L244.47328,190.57665
				L244.71086,190.33902L244.94845,190.33902L245.18603,190.33902L245.18603,190.1014L245.42361,190.1014L245.6612,190.1014L245.89878,190.1014
				L245.89878,190.33902L246.13636,190.33902L246.37395,190.33902L246.37395,190.1014L246.37395,189.86377L246.61153,189.86377L
				246.84911,189.86377L246.84911,189.62614L247.0867,189.62614L247.32428,189.62614L247.56186,189.62614L247.56186,189.38852L247.56186,189.15089
				L247.79945,189.15089L248.27461,189.15089L248.5122,189.15089L248.5122,188.91326L248.74978,188.91326L248.74978,188.67564L248.98736,188.67564
				L249.22495,188.67564L249.46253,188.91326L249.22495,189.15089L249.22495,189.38852L249.46253,189.38852L249.70011,189.15089
				L249.9377,188.91326L250.17528,188.91326L250.41286,188.67564L250.65045,188.43801L250.88803,188.20038L250.88803,187.72513L
				251.12561,187.01225L251.12561,186.77462L251.3632,186.77462L251.60078,186.77462L251.83836,186.77462L252.31353,186.77462L252.55111,186.77462
				L252.55111,186.537L252.55111,186.29937L252.55111,186.06174L252.55111,185.82412L252.55111,185.58649L252.55111,185.34886L252.55111,185.11124
				L252.7887,184.63598L253.02628,184.63598L253.26386,184.63598L253.50145,184.39836L253.73903,184.39836L253.97661,184.16073L
				253.97661,183.9231L253.97661,183.68548L253.73903,183.44785L253.73903,183.21022L253.97661,182.9726L254.2142,182.9726L254.2142,182.73497
				L254.45178,182.25972L254.45178,182.02209L254.45178,181.78446L254.45178,181.54684L253.97661,181.54684L253.73903,181.30921
				L253.73903,181.07158L253.97661,181.07158L253.97661,180.83396L253.97661,180.59633L253.73903,180.59633L253.73903,180.3587L
				253.73903,180.12107L253.73903,179.88345L253.97661,179.40819L253.97661,179.17057L254.2142,179.17057L254.45178,179.17057L254.92695,178.69531
				L255.16453,178.69531L255.40211,178.45769L255.40211,177.98243L255.6397,177.50718L255.6397,177.03193L255.6397,176.31905L255.87728,176.31905
				L256.11486,176.31905L256.35245,176.55667L256.59003,176.55667L256.59003,176.31905L256.82761,176.31905L257.0652,176.31905L
				257.0652,176.08142L257.30278,176.08142L257.30278,175.84379L257.54036,175.84379L257.77795,175.84379L258.01553,175.60617L258.25311,175.60617
				L258.4907,175.36854L258.72828,175.36854L258.96586,175.36854L259.20345,175.36854L259.44103,175.13091L259.67861,175.13091L
				259.67861,174.89329L259.67861,174.65566L259.67861,174.41803L259.67861,174.18041L259.67861,173.94278L259.9162,173.94278L260.15378,173.94278
				L260.39136,173.46753L260.62895,173.46753L260.86653,173.46753L261.10411,173.46753L261.3417,173.46753L261.57928,173.2299L261.57928,172.99227
				L261.81686,172.99227L261.81686,172.75465L262.05445,172.51702L262.05445,172.27939L262.29203,172.27939L262.52961,172.27939
				L262.52961,172.04177L262.52961,171.80414L262.7672,171.80414L262.7672,171.56651L263.00478,171.56651L263.00478,171.32889L262.7672,170.85363
				L262.7672,170.37838L262.7672,170.14075L263.00478,170.14075L263.00478,169.90312L263.00478,169.6655L263.24236,169.42787L263.47995,169.42787
				L263.47995,169.19024L263.71753,168.95262L263.95511,168.71499L263.95511,168.47736L263.95511,168.23974L263.95511,168.00211
				L263.95511,167.28923L263.95511,167.0516L263.95511,166.81398L263.95511,166.57635L264.1927,166.57635L263.95511,166.33872L264.1927,166.1011
				L264.1927,165.86347L264.43028,165.62584L264.43028,165.86347L264.66786,165.86347L264.90545,165.62584L265.14303,165.62584L
				265.38061,165.62584L265.38061,165.38822L265.38061,165.15059L265.38061,164.91296L265.6182,164.91296L265.38061,164.91296L265.38061,164.67534
				L265.38061,164.43771L265.38061,164.20008L265.6182,164.20008L265.6182,163.96246L265.85578,163.96246L265.85578,163.72483L265.85578,163.4872
				L266.09336,163.4872L266.09336,163.24958L266.33095,163.24958L266.09336,163.01195L266.33095,162.77432L266.33095,163.01195L
				266.33095,162.77432L266.56853,162.5367L266.80611,162.77432L266.80611,163.01195L267.0437,162.77432L267.0437,162.5367L266.80611,162.5367
				L266.80611,162.29907L266.56853,162.29907L266.80611,162.29907L266.56853,162.06144L266.33095,162.06144L266.33095,161.82382
				L266.56853,161.82382L266.56853,161.58619L266.56853,161.34856L266.56853,161.11094L266.33095,161.11094L266.33095,160.87331
				L266.33095,160.63568L266.56853,160.63568L266.56853,160.39805L266.56853,160.16043L266.80611,160.16043L266.80611,159.9228L
				266.80611,159.68517L266.56853,159.68517L266.56853,159.44755L266.80611,159.44755L266.80611,159.20992L267.0437,159.20992L267.0437,158.97229
				L267.28128,158.73467L267.28128,158.49704L267.51886,158.49704L267.51886,158.25941L267.75645,158.25941L267.75645,158.02179
				L267.75645,157.78416L267.75645,157.54653L267.99403,157.54653L267.99403,157.30891L268.23161,157.07128L268.4692,157.07128L
				268.4692,156.83365L268.70678,156.83365L268.70678,157.07128L268.70678,156.83365L268.94436,156.83365L269.18195,156.83365L269.41953,156.83365
				L269.65712,156.83365L269.65712,156.59603L269.65712,156.3584L269.65712,156.12077L269.8947,155.88315L269.8947,155.64552L269.8947,155.40789
				L270.13228,155.17027L270.36987,154.69501L270.36987,154.45739L270.13228,154.21976L269.8947,153.98213L269.8947,153.74451L269.8947,153.50688
				L270.13228,153.50688L270.13228,153.26925L270.13228,153.03163L270.13228,152.794L270.36987,151.60587L270.84503,151.13061L271.08262,150.89298
				L271.08262,150.65536L271.08262,150.41773L271.55778,150.1801L271.79537,150.1801L271.79537,149.94248L272.27053,149.46722L272.27053,149.2296
				L272.27053,148.99197L272.27053,148.51672L272.50812,148.51672L272.7457,148.27909L272.50812,148.27909L272.50812,148.04146L
				272.50812,147.80384L272.7457,147.80384L272.98328,147.80384L273.22087,148.04146L273.45845,148.04146L273.45845,147.80384L273.45845,147.56621
				L273.45845,147.32858L273.45845,147.09096L273.69603,146.85333L273.69603,146.37808L273.45845,146.37808L273.45845,146.14045
				L273.69603,146.14045L273.93362,145.90282L273.93362,145.6652L274.1712,145.42757L274.40878,145.42757L274.64637,145.42757L274.88395,145.42757
				L274.88395,145.18994L274.88395,144.71469L274.88395,144.47706L274.88395,144.23944L274.88395,144.00181L274.64637,144.00181
				L274.40878,144.00181L274.40878,143.76418L274.88395,143.52656L275.35912,143.28893L275.35912,143.0513L275.12153,142.81368L
				275.12153,142.57605L275.12153,142.33842L274.88395,142.1008L274.88395,141.86317L274.88395,141.62554L275.12153,141.38792L275.12153,141.15029
				L274.88395,141.15029L274.88395,140.91266L274.88395,140.67503L274.64637,140.67503L274.64637,140.43741L274.88395,140.43741
				L274.88395,140.19978L275.12153,140.19978L275.12153,139.96215L274.88395,139.96215L274.88395,139.72453L274.88395,139.4869L
				275.12153,139.4869L275.35912,139.4869L275.35912,139.24927L275.35912,139.01165L275.35912,138.77402L275.5967,138.77402L275.5967,138.53639
				L275.35912,138.29877L275.35912,138.06114L275.5967,138.06114L275.5967,137.82351L275.5967,137.58589L275.5967,137.34826L275.35912,137.34826
				L275.5967,137.34826L275.5967,137.11063L275.5967,136.87301L275.83428,136.87301L275.83428,136.63538L275.83428,136.39775L275.5967,136.16013
				L275.5967,135.9225L275.35912,135.9225L275.35912,135.68487L275.35912,135.44725L275.12153,135.20962L275.12153,134.97199L275.35912,134.73437
				L275.5967,134.73437L275.83428,134.73437L275.83428,134.49674L276.07187,134.49674L276.07187,134.73437L276.30945,134.73437L
				276.30945,134.49674L276.54703,134.49674L276.54703,134.25911L276.78462,134.25911L276.54703,134.25911L276.54703,134.02149L
				276.54703,133.78386L276.78462,133.78386L277.0222,133.78386L277.25978,133.54623L277.0222,133.54623L277.25978,133.54623L277.25978,133.30861
				L277.49737,133.30861L277.49737,133.07098L277.25978,133.07098L277.25978,132.83335L277.49737,132.83335L277.49737,133.07098
				L277.73495,133.07098L277.73495,132.83335L277.73495,132.59573L277.73495,132.83335L277.49737,132.59573L277.73495,132.3581L
				277.73495,132.12047L277.49737,132.12047L277.25978,132.12047L277.49737,131.88285L277.73495,131.88285L277.73495,132.12047L
				277.97253,131.88285L277.97253,131.64522L278.21012,131.64522L278.4477,131.40759L278.4477,131.16996L278.68528,131.16996L278.68528,130.93234
				L278.92287,130.93234L278.92287,130.69471L279.16045,130.69471L279.16045,130.45708L279.39803,130.45708L279.39803,130.21946
				L279.63562,130.21946L279.63562,130.45708L279.63562,130.21946L279.8732,130.21946L280.11078,130.21946L280.11078,130.45708L
				279.8732,130.45708L279.8732,130.69471L279.63562,130.69471L279.63562,130.93234L279.8732,130.93234L280.11078,130.93234L280.34837,130.93234
				L280.58595,130.93234L280.82353,130.93234L280.82353,130.69471L280.82353,130.45708L281.06112,130.45708L281.2987,130.45708L
				281.53628,130.45708L281.77387,130.45708L282.01145,130.45708L282.01145,130.21946L282.24903,130.21946L282.24903,130.45708L
				282.24903,130.69471L282.48662,130.69471L282.48662,130.45708L282.48662,130.69471L282.48662,130.45708L282.7242,130.45708L282.7242,130.69471
				L282.96178,130.93234L283.19937,130.69471L283.43695,130.69471L283.43695,130.93234L283.67453,130.93234L283.67453,131.16996
				L283.67453,131.40759L284.1497,131.40759L284.1497,131.64522L284.38728,131.40759L284.62487,131.40759L284.62487,131.16996L284.62487,130.93234
				L284.86245,130.93234L284.86245,131.16996L285.10003,130.93234L285.10003,130.69471L285.33762,130.69471L285.33762,131.16996
				L285.10003,131.16996L285.10003,131.40759L285.33762,131.40759L285.5752,131.40759L285.5752,131.16996L285.81278,131.16996L285.81278,130.93234
				L286.05037,130.93234L286.05037,131.16996L286.05037,131.40759L286.05037,131.64522L285.81278,131.64522L285.81278,131.88285
				L285.81278,132.12047L286.05037,132.12047L286.28795,132.12047L286.28795,131.88285L286.52553,131.88285L286.76312,131.88285
				L286.76312,131.64522L287.0007,131.64522L287.23828,131.88285L287.47587,131.88285L287.71345,131.64522L287.95103,131.64522L
				288.18862,131.64522L288.4262,131.64522L288.66378,131.88285L288.90137,131.88285L288.90137,132.12047L289.13895,132.12047L289.37653,132.12047
				L289.61412,132.12047L290.32687,132.3581L290.56445,132.3581L290.56445,132.83335L290.56445,133.07098L290.56445,133.30861L290.80203,133.30861
				L291.03962,133.30861L291.2772,133.30861L291.2772,133.07098L291.03962,132.83335L291.03962,132.59573L291.2772,132.3581L291.51478,132.3581
				L291.75237,132.59573L291.75237,132.83335L291.75237,133.07098L291.98995,133.30861L292.22753,133.54623L291.98995,133.54623
				L291.98995,133.78386L292.22753,133.78386L292.46512,133.78386L292.46512,134.02149L292.46512,134.25911L292.7027,134.25911L
				292.94028,134.25911L293.17787,134.25911L293.41545,134.25911L293.65303,134.25911L293.89062,134.25911L293.89062,134.49674L
				294.1282,134.49674L294.36578,134.49674L294.60337,134.49674L294.84095,134.49674L294.84095,134.73437L295.07853,134.73437L295.07853,134.97199
				L295.07853,135.20962L294.84095,135.20962L295.07853,135.20962L295.07853,135.44725L294.84095,135.44725L295.07853,135.68487
				L295.07853,135.44725L295.31612,135.20962L295.31612,134.97199L295.5537,134.97199L295.5537,135.20962L295.5537,135.44725L295.79128,135.44725
				L296.02887,135.44725L296.02887,135.68487L296.26645,135.68487L296.26645,135.44725L296.26645,135.68487L296.50403,135.68487
				L296.50403,135.9225L296.74162,135.9225L296.74162,135.68487L296.9792,135.9225L297.21678,135.9225L297.45437,135.9225L297.21678,136.16013
				L297.45437,136.16013L297.45437,136.39775L297.69195,136.63538L306.00737,139.96215L308.3832,141.15029L308.3832,140.91266L308.62079,140.91266
				L308.85837,140.91266L308.85837,140.67503L309.09595,140.67503L309.09595,140.91266L309.33354,140.91266L309.57112,140.91266
				L309.8087,140.91266L310.28387,141.15029L310.75904,140.91266L310.75904,141.15029L310.99662,141.15029L311.47179,141.15029L
				311.47179,141.38792L311.47179,141.62554L311.70937,141.62554L311.94695,141.62554L311.94695,141.86317L311.94695,141.62554L
				312.18454,141.62554L312.18454,141.86317L312.42212,141.86317L312.6597,141.86317L312.89729,141.86317L312.89729,142.1008L313.13487,142.1008
				L313.37245,142.1008L313.37245,142.33842L313.37245,142.57605L313.61004,142.57605L313.84762,142.57605L314.0852,142.57605L314.0852,142.81368
				L314.32279,142.81368L314.56037,142.81368L314.56037,142.57605L314.79795,142.57605L314.79795,142.81368L314.79795,143.0513L
				315.03554,143.0513L315.27312,143.0513L315.5107,143.0513L315.27312,143.0513L315.5107,143.0513L315.5107,142.81368L315.74829,142.81368
				L315.74829,143.0513L315.74829,143.28893L315.98587,143.28893L316.22345,143.28893L316.22345,143.52656L316.46104,143.28893L
				316.69862,143.28893L316.69862,143.0513L316.9362,143.28893L317.17379,143.28893L317.17379,143.52656L317.17379,143.76418L317.17379,144.00181
				L316.9362,144.47706L316.9362,144.71469L317.17379,144.95232L317.41137,144.95232L317.64895,145.18994L317.64895,145.42757L317.64895,145.6652
				L317.64895,146.14045L317.88654,146.14045L318.3617,146.14045L319.07445,146.14045L319.31204,146.14045L319.54962,146.14045L
				320.02479,146.14045L320.49995,146.37808L320.73754,146.37808L321.2127,146.6157L321.45029,146.85333L321.68787,146.85333L321.92545,147.09096
				L322.16304,147.09096L322.40062,147.09096L322.6382,147.09096L322.87579,147.32858L323.11337,147.32858L323.11337,147.09096L
				323.11337,146.37808L323.11337,146.14045L323.35095,145.90282L324.77645,145.18994L325.4892,144.71469L325.72679,144.47706L325.96437,144.23944
				L326.20195,144.00181L326.67712,143.76418L326.9147,143.52656L327.15229,143.52656L327.38987,143.52656L327.62746,143.76418L
				327.86504,143.76418L328.10262,144.00181L328.34021,144.00181L328.57779,144.00181L328.81537,144.00181L329.29054,144.95232L
				329.29054,145.42757L329.76571,145.6652L329.76571,145.90282L330.00329,145.90282L330.24087,146.14045L330.47846,146.14045L330.71604,146.14045
				L330.95362,146.14045L330.71604,146.37808L330.95362,146.6157L330.71604,146.85333L330.95362,147.09096L330.95362,147.32858L
				331.19121,147.56621L331.19121,147.80384L331.42879,148.04146L331.66637,148.04146L331.90396,148.04146L332.14154,148.04146L
				332.37912,148.27909L332.61671,148.27909L332.85429,148.27909L333.09187,148.51672L333.32946,148.51672L333.56704,148.75434L
				333.80462,148.75434L334.04221,148.99197L334.27979,149.46722L334.75496,149.94248L334.75496,150.1801L334.75496,150.41773L334.75496,150.65536
				L334.75496,150.89298L334.75496,151.13061L334.99254,151.36824L335.23012,151.60587L336.18046,151.84349L336.65562,152.31875
				L337.36837,152.55637L338.08112,152.794L338.31871,152.794L338.55629,152.794L338.79387,152.794L339.03146,152.794L339.50662,152.794
				L339.74421,152.794L340.45696,153.03163L340.69454,153.03163L340.93212,153.03163L341.16971,153.03163L341.40729,153.03163L341.64487,153.03163
				L342.12004,153.03163L342.35762,153.03163L342.59521,153.03163L343.07037,153.26925L343.54554,153.50688L344.25829,153.50688
				L344.97104,153.74451L345.44621,153.74451L346.15896,153.98213L346.15896,154.21976L346.63412,154.93264L346.87171,155.17027
				L346.87171,155.40789L347.58446,155.88315L348.53479,156.3584L349.96029,157.30891L350.19787,157.54653"/>
			<path clip-path="url(#SVG_CP_1)" fill="none" stroke="#000000" stroke-width="0.47517" stroke-miterlimit="10" stroke-linecap="round" stroke-linejoin="round" d="
				M396.28905,281.5877L395.5763,282.77583L393.67563,283.96396L391.77496,285.86498L391.06221,287.05311L389.63671,288.7165L388.68638,290.14226
				L388.21121,291.56802L386.54813,291.56802L386.54813,292.99378L385.83538,294.65717L385.36021,297.03343L384.17229,299.4097L
				384.17229,301.31072L383.69713,303.21173L380.13338,304.39986L378.94546,305.82562L378.94546,307.72664L377.75754,309.62765L
				376.80721,311.29104L374.90654,312.24155L373.48104,313.42968L372.29313,315.33069L369.91729,317.46933L368.72938,316.75645L
				363.50254,316.2812L361.12671,315.09307L359.93879,315.56832L357.56296,316.51883L356.13746,316.51883L354.94954,317.46933L352.33612,318.8951
				L350.67304,321.03374L349.72271,321.50899L347.34687,323.17238L345.68379,324.59814L344.97104,326.9744L344.02071,329.5883L342.35762,331.72694
				L340.93212,333.62795L340.21937,335.76659L339.98179,337.90523L339.50662,339.56862L338.79387,339.80625L336.89321,338.61812
				L334.99254,338.14286L332.37912,336.95473L329.52812,336.00422L326.43954,335.05371L323.11337,334.57846L320.73754,333.39033
				L319.07445,332.67745L316.22345,332.91507L314.32279,333.1527L312.42212,333.62795L310.52145,333.1527L307.90804,331.25169L306.48254,329.5883
				L299.11745,321.50899L295.5537,317.70696L295.31612,314.14256L295.31612,313.19205L295.31612,310.34053L296.26645,308.20189L
				296.26645,305.82562L296.9792,302.73648L297.21678,301.07309L297.21678,298.45919L315.5107,288.00362L325.96437,274.22127L331.90396,268.99348
				L340.45696,270.41924L358.51329,278.49855L375.85688,280.63719L396.28905,281.5877"/>
		</g>
	</g>
</svg>
