<?xml version="1.0" encoding="utf-8" standalone="no"?>
<!-- Creator: Esri ArcMap 10.8.0.12790 -->
<!DOCTYPE svg PUBLIC "-//W3C//DTD SVG 1.1//EN"  "http://www.w3.org/Graphics/SVG/1.1/DTD/svg11.dtd">
<svg width="774.73701pt" height="404.24882pt" viewBox="0 0 774.73701 404.24882" enable-background="new 0 0 774.73701 404.24882"
	version="1.1" xmlns="http://www.w3.org/2000/svg" xmlns:xlink="http://www.w3.org/1999/xlink" >
	<g id="Layers">
		<g id="Mayo_Tsanaga_SD">
			<clipPath id="SVG_CP_1">
				<path d="M0,404.24882L0,0L774.73701,0L774.73701,404.24882L0,404.24882z"/>
			</clipPath>
			<path clip-path="url(#SVG_CP_1)" fill="none" stroke="#000000" stroke-width="0.47528" stroke-miterlimit="10" stroke-linecap="round" stroke-linejoin="round" d="
				M385.68572,65.82261L384.97281,65.82261L384.02226,66.29786L383.78462,67.01074L382.83407,67.72362L382.12116,68.67413L382.12116,70.09989
				L382.12116,70.81277L381.17061,71.0504L380.69534,71.52565L381.40825,72.71379L381.40825,73.66429L380.4577,75.80293L380.4577,76.99107
				L380.4577,79.12971L380.69534,79.36733L380.93297,79.84259L381.17061,80.08021L381.40825,80.31784L381.64589,80.31784L381.88352,80.31784
				L381.88352,80.55547L382.12116,80.79309L382.3588,81.03072L382.3588,81.26835L382.59644,81.26835L382.83407,81.26835L383.07171,81.50597
				L383.30935,81.50597L383.54699,81.50597L383.54699,81.7436L383.54699,82.21886L383.30935,82.21886L383.30935,82.45648L383.07171,82.21886
				L382.83407,82.21886L382.59644,81.98123L382.59644,82.21886L382.3588,82.21886L382.59644,82.45648L382.59644,82.69411L382.83407,82.93174
				L382.83407,83.16936L382.83407,83.40699L382.59644,83.64462L382.12116,84.11987L382.12116,84.3575L381.88352,84.59512L381.88352,85.07038
				L382.12116,85.308L382.12116,85.54563L382.3588,86.02088L382.12116,86.25851L382.12116,86.49614L381.64589,86.97139L381.17061,87.20902
				L380.93297,87.44664L380.93297,87.68427L380.69534,87.9219L380.93297,87.9219L381.17061,88.15952L381.88352,87.9219L382.12116,87.9219
				L382.12116,88.15952L382.12116,88.39715L382.12116,88.63478L381.88352,88.8724L381.64589,88.8724L381.17061,88.8724L380.93297,89.11003
				L380.22006,89.34766L379.98242,89.34766L379.74479,89.58528L379.50715,89.82291L379.50715,90.06054L379.74479,90.29816L379.74479,90.53579
				L379.50715,91.01104L379.50715,91.24867L379.50715,91.4863L379.50715,91.96155L379.74479,92.43681L379.74479,92.67443L379.74479,93.14969
				L379.98242,93.14969L379.98242,93.38731L380.22006,93.62494L380.4577,93.62494L380.22006,94.10019L379.98242,94.33782L379.74479,94.57545
				L379.74479,94.81307L379.74479,95.28833L379.74479,95.76358L379.74479,96.23883L379.50715,96.47646L379.03187,96.71409L379.03187,96.95171
				L378.79424,97.18934L378.5566,97.42697L378.31896,97.18934L378.08132,96.95171L378.08132,96.71409L377.84369,96.71409L377.60605,96.95171
				L377.60605,97.18934L377.60605,97.42697L377.36841,97.66459L377.13077,97.66459L376.89314,97.66459L376.6555,97.42697L376.41786,97.42697
				L376.18022,97.42697L376.18022,97.66459L375.94259,98.13985L375.46731,98.37747L375.22967,98.37747L374.51676,98.6151L374.27912,98.85273
				L374.04149,99.09035L372.61566,98.85273L370.9522,97.66459L370.23928,96.00121L365.48653,94.10019L365.01126,94.57545L364.53598,94.57545
				L364.53598,95.0507L364.06071,95.28833L363.82307,95.0507L363.11016,95.0507L363.11016,95.52595L362.15961,96.00121L359.78323,96.00121
				L359.07032,96.71409L358.11977,97.18934L357.40686,97.18934L356.69395,97.18934L355.50576,98.37747L353.60466,98.37747L352.89174,98.37747
				L352.65411,97.66459L351.46592,97.18934L350.51537,97.18934L349.80246,97.42697L349.08954,97.42697L348.37663,97.90222L347.42608,97.90222
				L346.23789,97.66459L344.33679,97.90222L343.38624,98.6151L341.24751,98.13985L339.82168,97.66459L336.73239,95.52595L334.35602,95.76358
				L333.16783,96.23883L330.55382,96.95171L331.26673,94.81307L331.97964,92.91206L332.69255,90.53579L333.40547,87.68427L332.69255,85.308
				L332.93019,84.83275L333.6431,84.3575L332.69255,80.79309L332.93019,80.79309L333.16783,80.55547L333.16783,80.31784L333.40547,80.31784
				L333.6431,80.31784L333.88074,80.08021L333.88074,79.84259L333.88074,79.60496L334.11838,79.36733L334.35602,79.12971L334.59365,78.89208
				L334.83129,78.65445L334.83129,78.41683L335.06893,78.1792L335.06893,77.94157L335.30657,77.70395L335.5442,77.46632L335.78184,77.46632
				L335.78184,77.22869L335.5442,76.99107L335.30657,76.51581L335.30657,76.27819L335.06893,76.27819L334.83129,76.27819L334.59365,76.27819
				L334.59365,76.04056L334.83129,76.04056L334.59365,75.80293L334.83129,75.80293L335.06893,75.80293L335.06893,75.56531L335.06893,75.32768
				L335.06893,75.09005L335.06893,74.85243L335.06893,74.6148L335.30657,74.37717L335.30657,74.13955L335.5442,74.13955L335.78184,73.90192
				L336.01948,73.66429L336.25712,73.42667L336.49475,73.18904L336.73239,73.18904L336.73239,72.95141L336.49475,72.71379L336.49475,72.47616
				L336.25712,72.47616L336.25712,72.23853L336.25712,72.0009L336.73239,71.76328L336.97003,71.52565L337.20767,71.52565L337.4453,71.52565
				L337.4453,71.28802L337.68294,71.0504L337.4453,70.57514L337.68294,70.33752L337.92058,70.33752L338.15822,70.33752L338.15822,70.09989
				L338.15822,69.86226L338.15822,69.62464L338.15822,69.38701L338.39585,69.38701L338.63349,69.38701L338.87113,69.38701L338.87113,69.14938
				L338.87113,68.91176L338.63349,68.91176L338.63349,68.67413L338.63349,68.4365L338.63349,68.19888L338.63349,67.96125L338.87113,67.96125
				L339.10877,67.72362L339.3464,67.486L339.3464,67.24837L339.58404,67.24837L339.82168,67.01074L339.82168,66.77312L339.82168,66.53549
				L339.82168,66.29786L340.05932,66.29786L340.05932,66.06024L339.82168,65.82261L339.82168,65.58498L340.05932,65.10973L340.05932,64.8721
				L340.05932,64.63448L340.05932,64.39685L340.05932,63.9216L340.05932,63.68397L340.29696,63.68397L340.53459,63.9216L340.77223,63.9216
				L340.77223,63.68397L340.77223,63.44634L340.77223,63.20872L340.77223,62.73346L340.77223,62.49583L340.77223,62.25821L340.77223,62.02058
				L340.77223,61.78295L340.77223,61.54533L340.77223,61.3077L341.00987,61.07007L341.00987,60.83245L341.48514,60.83245L341.72278,60.59482
				L341.96042,60.35719L341.96042,60.11957L342.19806,60.11957L342.43569,60.35719L342.67333,60.59482L342.91097,61.07007L343.14861,61.07007
				L343.38624,61.07007L343.38624,61.3077L343.62388,61.3077L343.86152,61.3077L344.09916,61.07007L344.33679,60.83245L344.33679,60.59482
				L344.81207,59.40669L344.81207,59.16906L345.28734,59.16906L345.28734,58.93143L345.28734,58.45618L345.28734,58.21855L345.52498,57.98093
				L345.52498,57.7433L345.52498,57.26805L345.52498,57.03042L345.52498,56.79279L345.76262,56.79279L346.00026,56.55517L346.23789,56.55517
				L346.47553,56.55517L346.71317,56.79279L346.71317,57.03042L346.95081,57.03042L347.18844,57.03042L347.66372,57.03042L347.66372,56.79279
				L347.90136,56.55517L348.13899,56.55517L348.37663,56.55517L348.37663,56.31754L348.13899,56.07991L348.13899,55.84229L348.13899,55.60466
				L348.37663,55.60466L348.61427,55.36703L348.85191,55.36703L348.85191,55.12941L348.85191,54.89178L348.61427,54.89178L348.61427,54.65415
				L348.61427,54.41653L348.85191,54.41653L349.32718,54.41653L350.04009,54.41653L350.04009,54.65415L350.27773,54.89178L350.51537,54.89178
				L350.51537,54.65415L350.51537,54.41653L350.75301,54.41653L350.99064,54.41653L350.99064,54.1789L350.99064,53.94127L350.75301,53.70365
				L350.75301,53.46602L350.99064,53.22839L351.22828,53.22839L351.46592,53.22839L351.70356,53.46602L351.94119,53.46602L352.17883,53.46602
				L352.41647,53.46602L352.65411,53.46602L352.41647,52.99077L352.17883,52.75314L352.41647,52.75314L352.41647,52.51551L352.65411,52.27788
				L352.89174,52.04026L353.12938,52.04026L353.36702,52.04026L353.60466,52.04026L353.60466,51.80263L353.84229,51.80263L353.84229,51.565
				L354.07993,51.565L354.31757,51.565L354.55521,51.80263L354.79284,51.80263L355.03048,51.80263L355.03048,51.565L355.03048,51.32738
				L354.79284,51.08975L354.55521,51.08975L354.31757,51.08975L354.31757,50.85212L354.31757,50.6145L354.55521,50.37687L354.31757,50.13924
				L354.07993,49.66399L354.07993,49.42636L354.31757,49.18874L354.55521,49.18874L354.79284,49.18874L355.03048,49.18874L355.03048,48.95111
				L355.26812,48.95111L355.03048,48.71348L355.03048,48.47586L355.26812,48.47586L355.50576,48.47586L355.50576,48.23823L355.50576,48.0006
				L355.26812,48.0006L355.26812,47.76298L355.26812,47.52535L355.03048,47.52535L355.03048,47.28772L354.79284,47.28772L354.79284,47.0501
				L354.55521,46.81247L354.55521,46.57484L354.79284,46.57484L354.79284,46.33722L355.03048,46.57484L355.26812,46.57484L355.50576,46.57484
				L355.7434,46.33722L355.7434,46.09959L356.45631,45.62434L356.69395,45.62434L356.69395,45.38671L356.69395,45.14908L356.69395,44.91146
				L356.93158,44.91146L357.16922,44.67383L357.16922,44.19858L357.40686,44.19858L357.40686,43.96095L357.6445,43.96095L357.88213,43.72332
				L357.6445,43.4857L357.40686,43.4857L357.40686,43.24807L357.40686,43.01044L357.6445,43.01044L357.88213,43.01044L358.11977,43.01044
				L358.35741,42.77281L358.59505,42.77281L358.59505,42.53519L358.83268,42.29756L358.83268,42.05993L358.83268,41.82231L358.83268,41.58468
				L359.07032,41.58468L359.30796,41.58468L359.5456,41.58468L359.78323,41.10943L360.02087,40.8718L360.25851,40.63417L360.49615,40.39655
				L360.49615,40.15892L360.73378,40.15892L361.20906,39.92129L361.4467,39.68367L361.4467,39.44604L361.68433,39.44604L361.68433,39.20841
				L361.4467,38.97079L361.4467,38.73316L361.4467,38.49553L362.39725,38.73316L363.82307,39.20841L365.72417,40.15892L366.67472,40.8718
				L367.86291,42.29756L369.52637,42.53519L370.47692,42.77281L371.42747,43.72332L372.61566,43.72332L375.70495,45.62434L376.89314,46.33722
				L377.60605,46.81247L378.08132,47.52535L379.03187,47.76298L380.69534,50.37687L381.64589,52.04026L382.3588,52.99077L383.07171,56.07991
				L383.54699,56.79279L386.39864,59.88194L387.11155,61.54533L387.82446,62.97109L387.34919,64.39685L385.68572,65.82261"/>
			<path clip-path="url(#SVG_CP_1)" fill="none" stroke="#000000" stroke-width="0.47528" stroke-miterlimit="10" stroke-linecap="round" stroke-linejoin="round" d="
				M404.69673,133.54623L403.2709,132.59573L401.60744,131.64522L400.65689,131.40759L398.75579,130.21946L397.09233,130.45708L
				395.42886,130.69471L394.24068,131.40759L392.10194,131.40759L387.82446,132.12047L382.3588,133.54623L377.84369,134.73437L374.7544,136.16013
				L374.51676,136.63538L373.32857,136.63538L370.9522,137.34826L369.0511,138.53639L368.57582,138.06114L367.15,136.87301L366.67472,138.06114
				L365.96181,139.01165L364.29835,139.72453L362.39725,139.72453L359.5456,138.77402L356.69395,138.06114L355.98103,138.29877L
				354.31757,140.19978L352.65411,141.62554L351.46592,142.33842L350.75301,143.52656L350.04009,143.76418L349.08954,143.76418L
				347.18844,144.71469L346.00026,144.95232L344.09916,144.71469L342.43569,144.00181L341.24751,143.76418L339.82168,143.28893L
				338.63349,142.57605L338.15822,141.15029L338.15822,139.96215L338.87113,138.77402L341.48514,136.39775L342.91097,135.20962L
				342.91097,134.02149L342.67333,132.83335L341.24751,131.88285L340.29696,130.45708L339.58404,128.55607L339.82168,127.36794L
				341.00987,125.70455L341.48514,124.75404L341.24751,123.80354L340.29696,122.85303L338.87113,122.85303L337.20767,122.6154L335.78184,122.37778
				L334.59365,121.90252L333.16783,121.42727L331.97964,121.18964L330.55382,120.23913L329.12799,119.76388L327.70217,118.57575
				L326.27634,117.38761L325.80107,116.91236L325.80107,116.19948L326.51398,113.11033L327.22689,110.73406L327.9398,109.78356L
				328.65272,108.12017L329.12799,106.45678L329.36563,105.03102L329.36563,104.08052L328.89035,103.60526L328.41508,102.65476L
				328.89035,101.70425L329.60327,100.75374L330.07854,98.6151L330.55382,96.95171L333.16783,96.23883L334.35602,95.76358L336.73239,95.52595
				L339.82168,97.66459L341.24751,98.13985L343.38624,98.6151L344.33679,97.90222L346.23789,97.66459L347.42608,97.90222L348.37663,97.90222
				L349.08954,97.42697L349.80246,97.42697L350.51537,97.18934L351.46592,97.18934L352.65411,97.66459L352.89174,98.37747L353.60466,98.37747
				L355.50576,98.37747L356.69395,97.18934L357.40686,97.18934L358.11977,97.18934L359.07032,96.71409L359.78323,96.00121L362.15961,96.00121
				L363.11016,95.52595L363.11016,95.0507L363.82307,95.0507L364.06071,95.28833L364.53598,95.0507L364.53598,94.57545L365.01126,94.57545
				L365.48653,94.10019L370.23928,96.00121L370.9522,97.66459L372.61566,98.85273L374.04149,99.09035L374.27912,98.85273L374.51676,98.6151
				L375.22967,98.37747L375.46731,98.37747L375.94259,98.13985L376.18022,97.66459L376.18022,97.42697L376.41786,97.42697L376.6555,97.42697
				L376.89314,97.66459L377.13077,97.66459L377.36841,97.66459L377.60605,97.42697L377.60605,97.18934L377.60605,96.95171L377.84369,96.71409
				L378.08132,96.71409L378.08132,96.95171L378.31896,97.18934L378.5566,97.42697L378.79424,97.18934L379.03187,96.95171L379.03187,96.71409
				L379.50715,96.47646L379.74479,96.23883L379.74479,95.76358L379.74479,95.28833L379.74479,94.81307L379.74479,94.57545L379.98242,94.33782
				L380.22006,94.10019L380.4577,93.62494L380.22006,93.62494L379.98242,93.38731L379.98242,93.14969L379.74479,93.14969L379.74479,92.67443
				L379.74479,92.43681L379.50715,91.96155L379.50715,91.4863L379.50715,91.24867L379.50715,91.01104L379.74479,90.53579L379.74479,90.29816
				L379.50715,90.06054L379.50715,89.82291L379.74479,89.58528L379.98242,89.34766L380.22006,89.34766L380.93297,89.11003L381.17061,88.8724
				L381.64589,88.8724L381.88352,88.8724L382.12116,88.63478L382.12116,88.39715L382.12116,88.15952L382.12116,87.9219L381.88352,87.9219
				L381.17061,88.15952L380.93297,87.9219L380.69534,87.9219L380.93297,87.68427L380.93297,87.44664L381.17061,87.20902L381.64589,86.97139
				L382.12116,86.49614L382.12116,86.25851L382.3588,86.02088L382.12116,85.54563L382.12116,85.308L381.88352,85.07038L381.88352,84.59512
				L382.12116,84.3575L382.12116,84.11987L382.59644,83.64462L382.83407,83.40699L382.83407,83.16936L382.83407,82.93174L382.59644,82.69411
				L382.59644,82.45648L382.3588,82.21886L382.59644,82.21886L382.59644,81.98123L382.83407,82.21886L383.07171,82.21886L383.30935,82.45648
				L383.30935,82.21886L383.54699,82.21886L383.54699,81.7436L383.54699,81.50597L383.30935,81.50597L383.07171,81.50597L382.83407,81.26835
				L382.59644,81.26835L382.3588,81.26835L382.3588,81.03072L382.12116,80.79309L381.88352,80.55547L381.88352,80.31784L381.64589,80.31784
				L381.40825,80.31784L381.17061,80.08021L380.93297,79.84259L380.69534,79.36733L380.4577,79.12971L380.4577,76.99107L380.4577,75.80293
				L381.40825,73.66429L381.40825,72.71379L380.69534,71.52565L381.17061,71.0504L382.12116,70.81277L382.12116,70.09989L382.12116,68.67413
				L382.83407,67.72362L383.78462,67.01074L384.02226,66.29786L384.97281,65.82261L385.68572,65.82261L384.97281,68.67413L391.38903,88.63478
				L392.33958,91.24867L392.33958,92.67443L392.57721,95.0507L393.05249,96.71409L393.29013,98.13985L393.52776,100.27849L394.47831,101.22899
				L394.47831,102.65476L394.47831,105.26865L394.71595,106.69441L394.95359,107.64492L396.14178,110.02118L396.37941,110.02118
				L397.80524,112.87271L398.28051,114.53609L399.70634,115.72423L401.60744,116.43711L403.74618,117.38761L404.69673,117.14999
				L405.88492,118.10049L405.88492,120.23913L405.64728,121.42727L405.172,123.80354L405.172,125.70455L404.45909,127.60556L404.45909,129.7442
				L404.45909,130.69471L404.69673,133.54623"/>
			<path clip-path="url(#SVG_CP_1)" fill="none" stroke="#000000" stroke-width="0.47528" stroke-miterlimit="10" stroke-linecap="round" stroke-linejoin="round" d="
				M404.69673,133.54623L407.54838,136.39775L413.25168,143.0513L414.43987,144.23944L416.5786,145.90282L418.24207,146.14045L419.66789,145.90282
				L419.90553,146.85333L421.09372,148.99197L421.80663,150.89298L422.28191,152.31875L422.04427,153.50688L420.85608,155.17027
				L420.14317,156.3584L419.66789,157.30891L419.19262,158.02179L418.00443,158.73467L417.05388,159.44755L417.05388,161.11094L
				416.81624,162.06144L416.10333,163.24958L415.62805,164.20008L415.62805,164.67534L414.43987,165.15059L413.96459,165.38822L
				413.01404,166.33872L412.30113,167.0516L411.58822,167.52686L411.58822,169.90312L411.35058,170.85363L411.11294,172.27939L410.8753,173.70515
				L410.16239,174.89329L410.16239,175.36854L410.16239,177.03193L410.63767,177.98243L410.63767,179.40819L410.40003,181.07158
				L410.8753,182.25972L410.40003,183.44785L410.40003,184.87361L410.63767,186.537L405.64728,183.68548L401.60744,179.40819L397.5676,176.31905
				L392.10194,172.99227L385.21045,170.85363L375.70495,168.47736L369.76401,165.62584L366.43708,160.87331L365.48653,156.3584L
				365.01126,151.13061L363.82307,144.95232L362.39725,139.72453L364.29835,139.72453L365.96181,139.01165L366.67472,138.06114L
				367.15,136.87301L368.57582,138.06114L369.0511,138.53639L370.9522,137.34826L373.32857,136.63538L374.51676,136.63538L374.7544,136.16013
				L377.84369,134.73437L382.3588,133.54623L387.82446,132.12047L392.10194,131.40759L394.24068,131.40759L395.42886,130.69471L
				397.09233,130.45708L398.75579,130.21946L400.65689,131.40759L401.60744,131.64522L403.2709,132.59573L404.69673,133.54623"/>
			<path clip-path="url(#SVG_CP_1)" fill="none" stroke="#000000" stroke-width="0.47528" stroke-miterlimit="10" stroke-linecap="round" stroke-linejoin="round" d="
				M332.69255,80.79309L333.6431,84.3575L332.93019,84.83275L332.69255,85.308L333.40547,87.68427L332.69255,90.53579L331.97964,92.91206
				L331.26673,94.81307L330.55382,96.95171L330.07854,98.6151L329.60327,100.75374L328.89035,101.70425L328.41508,102.65476L328.89035,103.60526
				L329.36563,104.08052L329.36563,105.03102L329.12799,106.45678L328.65272,108.12017L327.9398,109.78356L327.22689,110.73406L
				326.51398,113.11033L325.80107,116.19948L325.80107,116.91236L326.27634,117.38761L327.70217,118.57575L329.12799,119.76388L
				330.55382,120.23913L331.97964,121.18964L333.16783,121.42727L334.59365,121.90252L335.78184,122.37778L337.20767,122.6154L338.87113,122.85303
				L340.29696,122.85303L341.24751,123.80354L341.48514,124.75404L341.00987,125.70455L339.82168,127.36794L339.58404,128.55607
				L340.29696,130.45708L341.24751,131.88285L342.67333,132.83335L342.91097,134.02149L342.91097,135.20962L341.48514,136.39775
				L338.87113,138.77402L338.15822,139.96215L338.15822,141.15029L338.63349,142.57605L339.82168,143.28893L341.24751,143.76418
				L342.43569,144.00181L344.09916,144.71469L346.00026,144.95232L347.18844,144.71469L349.08954,143.76418L350.04009,143.76418
				L350.75301,143.52656L351.46592,142.33842L352.65411,141.62554L354.31757,140.19978L355.98103,138.29877L356.69395,138.06114
				L359.5456,138.77402L362.39725,139.72453L363.82307,144.95232L365.01126,151.13061L365.48653,156.3584L366.43708,160.87331L369.76401,165.62584
				L375.70495,168.47736L385.21045,170.85363L392.10194,172.99227L397.5676,176.31905L401.60744,179.40819L405.64728,183.68548L
				410.63767,186.537L412.53877,187.4875L415.15278,188.67564L416.5786,189.62614L418.24207,191.28953L419.43026,192.24004L420.61844,192.71529
				L420.85608,192.95292L420.85608,194.14105L421.33136,195.80444L421.56899,196.75495L421.33136,198.41833L420.61844,199.36884
				L418.71734,202.22036L418.00443,203.4085L417.29152,204.83426L416.81624,206.26002L416.5786,207.68578L416.5786,208.63628L418.71734,210.5373
				L417.52916,212.43831L417.05388,213.38882L417.05388,214.57695L416.81624,215.76509L417.05388,216.47797L419.66789,217.19085
				L421.56899,218.85423L422.51954,219.09186L423.47009,219.32949L424.65828,218.61661L426.55938,219.09186L427.27229,219.56711
				L427.74757,220.04237L427.27229,221.2305L426.55938,222.18101L425.13356,223.36914L424.65828,225.27016L423.70773,226.69592L
				422.99482,227.88405L422.75718,229.07218L422.51954,230.73557L422.51954,231.92371L423.23246,232.87421L423.47009,234.06235L
				423.47009,235.25048L425.13356,236.43861L426.08411,236.91387L427.27229,237.15149L427.74757,238.57725L427.50993,240.00302L
				428.46048,242.14166L428.46048,242.85454L427.50993,244.04267L427.03466,244.99318L425.60883,245.46843L423.94537,245.2308L422.51954,244.51792
				L421.56899,244.2803L420.61844,244.2803L419.19262,244.99318L417.52916,245.70606L416.5786,246.89419L416.10333,247.60707L414.91514,249.50808
				L413.96459,250.93385L413.01404,252.35961L412.53877,252.59723L412.06349,252.59723L411.11294,252.12198L409.92475,251.64673
				L408.26129,251.64673L406.59783,251.64673L405.64728,251.64673L400.41925,251.17147L399.23106,251.17147L397.32996,252.12198
				L395.90414,253.07249L395.19123,253.78537L394.71595,254.9735L393.52776,256.63689L394.24068,258.5379L394.24068,259.96366L395.19123,261.86468
				L395.90414,263.76569L396.14178,264.47857L395.19123,265.42908L394.71595,267.09246L393.52776,267.80534L393.05249,268.51822
				L392.81485,269.70636L392.81485,270.41924L392.57721,271.36975L392.33958,272.55788L391.8643,273.50839L391.8643,274.45889L392.10194,275.64703
				L392.33958,276.83516L392.33958,277.78567L392.10194,278.49855L392.10194,279.44906L391.8643,279.68668L392.10194,280.63719L
				392.33958,281.11244L391.62666,282.30058L391.38903,283.01346L390.67611,283.96396L389.72556,285.38972L389.72556,286.1026L389.25029,287.05311
				L389.01265,288.7165L387.58683,291.56802L386.63628,294.89479L380.93297,294.89479L369.76401,284.20159L359.5456,273.74601L346.71317,264.95382
				L334.59365,259.72604L320.57304,260.20129L314.6321,259.25078L318.19666,242.14166L326.27634,230.26032L324.61288,217.19085L
				295.38346,202.93324L275.65954,175.84379L276.61009,175.36854L277.32301,174.65566L278.27356,174.18041L279.69938,173.70515L
				280.88757,173.2299L281.36285,172.75465L281.60048,171.09126L281.12521,170.616L280.64993,170.14075L280.17466,169.6655L280.17466,169.42787
				L280.4123,168.71499L281.36285,168.47736L281.83812,168.00211L282.3134,166.57635L282.55103,165.86347L282.78867,164.91296L283.02631,164.20008
				L283.26395,163.72483L283.02631,163.24958L283.02631,162.77432L283.02631,162.06144L283.26395,161.34856L283.50158,161.11094
				L283.97686,161.58619L284.2145,162.06144L284.45213,162.06144L284.68977,162.06144L284.68977,161.82382L284.92741,161.58619L
				285.16505,161.34856L285.16505,161.11094L285.40268,160.87331L285.64032,160.87331L286.1156,160.87331L286.1156,161.34856L286.1156,161.58619
				L286.35323,161.58619L286.59087,161.58619L286.59087,161.34856L286.82851,161.11094L286.82851,160.87331L287.06615,160.39805
				L287.06615,159.9228L287.06615,159.68517L287.30378,159.44755L287.30378,159.20992L287.54142,158.73467L287.54142,158.49704L
				287.77906,158.49704L287.77906,158.25941L288.0167,158.02179L288.25433,157.78416L288.0167,157.78416L287.77906,157.54653L287.77906,157.30891
				L287.77906,157.07128L287.77906,156.83365L287.77906,156.59603L287.77906,156.3584L287.77906,155.88315L287.77906,155.64552L
				287.77906,155.40789L288.0167,155.17027L287.77906,154.93264L287.30378,154.69501L287.54142,154.45739L287.77906,154.21976L288.0167,153.98213
				L288.0167,153.50688L288.49197,153.50688L288.96725,153.26925L289.20488,153.03163L289.44252,152.794L289.68016,152.794L290.15543,152.55637
				L290.63071,152.08112L290.86835,151.36824L290.86835,150.89298L290.63071,150.89298L290.15543,150.65536L289.9178,150.41773L
				289.68016,150.1801L289.44252,150.41773L289.20488,150.1801L288.72961,150.1801L288.49197,150.1801L288.49197,149.70485L288.49197,149.46722
				L288.25433,148.99197L286.59087,148.99197L285.16505,148.75434L285.64032,147.80384L285.87796,147.32858L286.82851,145.42757
				L287.30378,144.23944L288.0167,143.28893L288.49197,142.1008L288.96725,141.38792L288.96725,140.67503L289.9178,139.72453L290.63071,140.19978
				L291.8189,140.19978L292.53181,140.19978L293.72,140.91266L294.43291,140.67503L295.85874,140.19978L296.09637,139.4869L296.09637,138.77402
				L295.85874,138.29877L296.09637,137.82351L296.80929,136.63538L296.80929,136.16013L296.80929,135.68487L296.80929,135.20962
				L296.80929,134.97199L296.57165,134.73437L296.57165,134.49674L296.80929,134.25911L296.80929,134.02149L297.04692,134.02149
				L297.28456,134.02149L297.5222,133.78386L297.75984,133.54623L297.99747,132.59573L297.99747,132.12047L298.47275,131.64522L
				298.94802,131.16996L299.18566,130.69471L299.18566,130.21946L299.4233,129.7442L299.66094,129.7442L300.37385,129.50658L300.84912,129.7442
				L301.3244,129.98183L301.56204,129.98183L302.27495,129.98183L302.75022,129.98183L302.98786,129.98183L303.46314,129.98183L
				303.70077,129.7442L304.17605,129.7442L304.65132,129.7442L304.88896,129.7442L305.1266,129.26895L305.1266,129.03132L305.36424,128.31844
				L305.36424,127.84319L305.1266,127.36794L305.1266,127.13031L305.36424,126.89268L305.60187,126.41743L306.31479,126.1798L307.74061,126.1798
				L308.9288,125.70455L309.87935,124.99167L309.87935,124.04116L310.11699,122.85303L310.11699,121.90252L310.35463,121.18964L
				310.59226,120.47676L310.8299,119.76388L311.06754,119.051L311.06754,118.33812L310.8299,117.86287L310.8299,116.91236L310.8299,115.96185
				L311.06754,114.77372L311.06754,113.82321L311.30518,113.34796L311.78045,113.11033L312.01809,112.87271L312.01809,112.63508
				L312.25573,112.63508L312.49336,112.39745L312.49336,112.15983L312.49336,111.9222L312.49336,111.44694L312.96864,110.73406L
				312.96864,110.49644L312.96864,109.78356L313.20628,109.3083L313.20628,108.59542L313.44391,108.12017L313.44391,107.88254L313.68155,107.40729
				L313.68155,106.93204L313.91919,106.45678L313.91919,106.21916L313.91919,105.98153L314.15683,105.7439L313.20628,104.55577L
				312.731,103.84289L312.25573,103.36764L312.01809,102.89238L311.78045,102.65476L310.59226,101.94188L309.64171,101.46662L309.16644,100.99137
				L308.9288,100.75374L309.16644,100.51611L309.16644,100.27849L308.9288,100.04086L308.21589,99.80323L308.21589,99.56561L308.45353,99.32798
				L308.45353,99.09035L308.45353,98.85273L308.21589,98.6151L307.97825,98.37747L307.97825,97.66459L307.97825,97.18934L307.97825,96.23883
				L307.97825,95.76358L307.97825,95.0507L307.74061,94.33782L307.97825,93.86257L307.97825,93.62494L308.21589,93.14969L308.45353,92.91206
				L308.9288,92.91206L309.40408,92.91206L309.64171,92.91206L309.87935,92.91206L310.11699,92.91206L310.35463,92.67443L310.59226,92.67443
				L311.06754,92.43681L311.78045,92.43681L312.01809,92.43681L312.25573,91.96155L312.01809,91.72392L312.01809,91.4863L312.25573,91.01104
				L312.49336,90.53579L312.731,90.29816L312.96864,90.06054L313.20628,89.82291L313.44391,89.82291L313.44391,89.58528L313.68155,89.34766
				L313.68155,89.11003L313.91919,89.11003L313.91919,88.8724L313.91919,88.63478L314.15683,88.39715L314.15683,88.15952L314.15683,87.9219
				L314.39446,87.9219L314.39446,87.68427L314.39446,87.44664L314.6321,87.44664L314.6321,87.20902L314.86974,87.20902L314.86974,86.97139
				L314.6321,86.97139L314.6321,86.73376L314.39446,86.73376L314.39446,86.49614L314.15683,85.78326L314.15683,85.308L314.15683,84.59512
				L314.15683,83.88224L314.15683,83.40699L314.15683,82.93174L314.15683,82.69411L314.15683,82.45648L314.15683,82.21886L314.39446,82.45648
				L314.39446,82.21886L314.39446,81.98123L314.39446,81.7436L314.6321,81.7436L314.6321,81.50597L314.86974,81.50597L314.86974,81.26835
				L315.10738,81.26835L315.10738,81.03072L315.10738,80.79309L315.34501,80.79309L315.34501,80.55547L315.58265,80.31784L315.58265,80.08021
				L315.58265,79.84259L315.82029,79.84259L316.05793,79.84259L316.29556,79.84259L316.5332,79.84259L316.77084,79.84259L316.77084,80.08021
				L317.00848,80.08021L317.24611,80.08021L317.24611,79.84259L317.48375,79.84259L317.48375,80.08021L317.72139,80.08021L317.72139,79.84259
				L317.95903,79.84259L317.95903,80.08021L317.95903,79.84259L318.19666,79.84259L318.19666,80.08021L318.4343,80.08021L318.67194,80.08021
				L318.90958,80.08021L319.14721,80.08021L319.38485,80.08021L319.62249,80.08021L319.86013,80.08021L320.09776,80.08021L320.09776,80.31784
				L320.3354,80.31784L320.57304,80.31784L320.81068,80.31784L321.04831,80.31784L321.28595,80.31784L321.52359,80.55547L321.76123,80.55547
				L321.99886,80.55547L322.2365,80.55547L322.47414,80.55547L322.71178,80.55547L322.71178,80.79309L322.94941,80.79309L323.18705,80.79309
				L323.18705,81.03072L323.42469,81.03072L323.66233,81.03072L323.89997,81.03072L323.89997,81.26835L323.89997,81.03072L324.1376,81.03072
				L324.37524,81.03072L324.61288,81.03072L324.61288,81.26835L324.85052,81.26835L324.85052,81.03072L325.08815,81.03072L325.32579,81.03072
				L325.56343,81.03072L325.80107,81.03072L326.0387,81.03072L326.27634,81.03072L326.51398,81.03072L326.75162,81.03072L326.98925,81.03072
				L326.98925,80.79309L327.22689,80.79309L327.46453,80.79309L327.70217,80.79309L327.9398,81.03072L328.17744,81.26835L328.41508,81.26835
				L328.65272,81.26835L328.65272,81.03072L328.89035,81.03072L329.12799,81.03072L329.36563,81.03072L329.60327,81.03072L329.60327,80.79309
				L329.8409,81.03072L330.07854,81.03072L330.07854,80.79309L330.55382,80.79309L330.79145,81.03072L331.02909,81.03072L331.02909,80.79309
				L331.26673,81.03072L331.50437,80.79309L331.742,80.55547L331.97964,80.55547L332.21728,80.55547L332.45492,80.79309L332.69255,80.79309
				"/>
			<path clip-path="url(#SVG_CP_1)" fill="none" stroke="#000000" stroke-width="0.47528" stroke-miterlimit="10" stroke-linecap="round" stroke-linejoin="round" d="
				M314.6321,259.25078L313.44391,263.52806L309.87935,273.03313L301.08676,278.9738L299.66094,279.44906L299.89857,278.26092L300.13621,276.59753
				L299.89857,275.64703L299.18566,274.93415L297.04692,273.98364L293.48236,272.32025L287.54142,273.03313L285.16505,273.27076
				L283.97686,273.98364L283.50158,274.45889L282.78867,273.74601L282.55103,273.03313L283.02631,272.55788L283.26395,271.60737
				L282.78867,270.65687L282.3134,270.18161L281.60048,269.94399L280.64993,270.18161L279.69938,270.65687L278.74883,270.18161L
				277.56065,270.65687L276.13482,271.60737L274.47136,271.845L273.28317,271.845L272.57026,272.08263L271.61971,272.79551L269.71861,273.50839
				L269.00569,272.55788L268.29278,272.08263L267.57987,271.845L266.15404,270.65687L265.20349,269.70636L262.58948,268.2806L259.97547,266.61721
				L259.02492,266.37958L257.59909,266.61721L256.88618,266.37958L256.4109,265.90433L255.22272,265.6667L253.32162,264.7162L252.84634,261.86468
				L254.27217,255.92401L251.18288,252.83486L251.18288,249.27046L254.27217,246.89419L259.50019,237.62675L265.20349,230.26032
				L266.39168,227.64642L260.45074,222.41864L260.92602,218.37898L262.82712,215.52746L262.58948,213.15119L259.02492,210.29967
				L259.26255,209.11154L256.4109,203.88375L256.88618,202.93324L261.63893,200.31935L264.96586,196.75495L264.72822,191.76479L
				266.39168,190.81428L269.48097,186.06174L269.00569,184.39836L266.86696,182.25972L267.34223,180.12107L269.24333,177.03193L
				270.43152,177.26955L274.23372,176.7943L275.65954,175.84379L295.38346,202.93324L324.61288,217.19085L326.27634,230.26032L318.19666,242.14166
				L314.6321,259.25078"/>
			<path clip-path="url(#SVG_CP_1)" fill="none" stroke="#000000" stroke-width="0.47528" stroke-miterlimit="10" stroke-linecap="round" stroke-linejoin="round" d="
				M386.63628,294.89479L386.39864,296.08293L385.68572,297.98394L385.44809,298.93445L385.21045,300.12258L384.97281,301.31072
				L384.73517,302.26122L383.78462,305.35037L383.54699,307.01376L383.30935,309.1524L383.54699,311.76629L383.07171,315.33069L
				383.54699,316.75645L383.54699,318.18221L383.78462,319.8456L384.02226,321.50899L384.02226,321.98424L384.49754,322.4595L384.97281,323.41
				L386.161,325.07339L387.11155,325.78627L385.21045,326.0239L384.02226,326.26152L382.83407,326.49915L381.40825,326.26152L380.4577,326.26152
				L379.74479,326.0239L378.5566,326.0239L377.13077,326.0239L375.70495,326.0239L373.56621,325.78627L372.14039,325.78627L370.23928,325.78627
				L368.33818,325.54864L366.67472,324.83576L365.96181,324.36051L364.29835,324.12288L363.3478,323.17238L361.92197,322.22187L
				360.49615,321.74662L359.78323,321.98424L355.98103,321.27136L354.31757,321.50899L352.17883,321.74662L350.04009,321.74662L
				348.61427,322.22187L347.42608,321.74662L345.52498,320.32086L343.62388,319.8456L341.48514,319.8456L336.97003,318.8951L335.5442,318.65747
				L334.11838,318.65747L332.69255,319.13272L331.50437,319.8456L330.31618,320.32086L328.65272,321.27136L325.08815,321.03374L
				323.18705,319.8456L321.99886,318.8951L321.04831,318.8951L319.62249,320.08323L317.72139,319.8456L319.14721,319.37035L319.86013,318.41984
				L319.86013,317.70696L318.90958,316.51883L318.4343,315.80595L318.4343,315.09307L318.67194,314.85544L319.38485,314.14256L319.14721,313.42968
				L318.4343,312.95443L318.19666,312.24155L318.19666,311.52867L317.72139,310.81579L317.00848,309.86528L317.00848,308.91477L
				317.00848,308.20189L316.29556,307.48901L315.34501,307.25138L314.86974,307.01376L313.91919,306.30088L312.96864,305.82562L
				311.78045,305.82562L311.30518,305.588L307.50297,302.49885L304.65132,299.88496L302.51259,297.74631L302.27495,297.74631L300.84912,296.55818
				L299.4233,294.89479L299.4233,294.41954L299.66094,293.70666L300.13621,293.23141L300.61149,292.51853L300.84912,290.14226L301.3244,288.00362
				L302.27495,285.62735L302.75022,284.43922L302.51259,283.48871L301.56204,282.30058L300.84912,281.82532L300.37385,281.11244
				L299.89857,280.16194L299.66094,279.44906L301.08676,278.9738L309.87935,273.03313L313.44391,263.52806L314.6321,259.25078L320.57304,260.20129
				L334.59365,259.72604L346.71317,264.95382L359.5456,273.74601L369.76401,284.20159L380.93297,294.89479L386.63628,294.89479"/>
			<path clip-path="url(#SVG_CP_1)" fill="none" stroke="#000000" stroke-width="0.47528" stroke-miterlimit="10" stroke-linecap="round" stroke-linejoin="round" d="
				M299.66094,279.44906L299.89857,280.16194L300.37385,281.11244L300.84912,281.82532L301.56204,282.30058L302.51259,283.48871
				L302.75022,284.43922L302.27495,285.62735L301.3244,288.00362L300.84912,290.14226L300.61149,292.51853L300.13621,293.23141L
				299.66094,293.70666L299.4233,294.41954L299.4233,294.89479L300.84912,296.55818L302.27495,297.74631L302.51259,297.74631L304.65132,299.88496
				L307.50297,302.49885L311.30518,305.588L311.78045,305.82562L312.96864,305.82562L313.91919,306.30088L314.86974,307.01376L315.34501,307.25138
				L316.29556,307.48901L317.00848,308.20189L317.00848,308.91477L317.00848,309.86528L317.72139,310.81579L318.19666,311.52867
				L318.19666,312.24155L318.4343,312.95443L319.14721,313.42968L319.38485,314.14256L318.67194,314.85544L318.4343,315.09307L318.4343,315.80595
				L318.90958,316.51883L319.86013,317.70696L319.86013,318.41984L319.14721,319.37035L317.72139,319.8456L316.29556,319.8456L314.86974,319.60798
				L313.44391,318.41984L311.78045,317.70696L309.64171,316.75645L307.50297,315.56832L306.79006,315.09307L305.1266,315.56832L
				302.75022,315.33069L301.56204,315.80595L299.89857,316.51883L298.47275,317.23171L297.5222,317.70696L296.57165,319.60798L296.33401,321.74662
				L296.09637,323.88526L294.90819,324.83576L293.24472,326.0239L290.63071,325.07339L288.25433,324.59814L286.59087,322.93475L
				285.16505,322.22187L283.97686,321.74662L282.3134,321.03374L281.12521,320.32086L279.93702,319.8456L278.27356,318.8951L276.13482,318.18221
				L274.23372,317.94459L271.38207,316.51883L270.19388,316.04357L269.95624,315.80595L269.71861,316.2812L268.76806,317.23171L
				268.05514,319.37035L267.34223,321.27136L266.39168,322.93475L264.96586,323.64763L264.01531,324.83576L263.54003,326.73678L
				263.06476,328.40017L261.87657,329.5883L261.87657,331.25169L262.11421,332.67745L262.11421,333.86558L261.87657,335.29134L262.82712,336.47947
				L264.01531,337.42998L265.44113,337.66761L266.39168,338.38049L268.05514,339.331L269.95624,339.80625L271.14443,340.04388L272.57026,341.46964
				L274.23372,341.94489L276.13482,342.42014L278.98647,343.8459L280.17466,344.08353L282.3134,345.03404L284.68977,344.79641L286.82851,345.03404
				L288.25433,345.98454L290.15543,347.4103L291.8189,348.12319L293.24472,348.36081L295.85874,349.07369L297.75984,350.0242L299.66094,350.49945
				L301.56204,350.97471L302.75022,351.44996L302.98786,352.63809L302.51259,353.5886L300.84912,354.06385L298.23511,354.30148L
				296.80929,354.53911L295.14582,355.01436L293.95764,355.96487L292.05653,356.44012L287.54142,357.62825L284.45213,358.34114L
				282.55103,358.34114L281.60048,357.62825L280.64993,356.67775L278.98647,356.20249L277.79828,356.20249L276.61009,357.39063L
				274.94663,357.86588L272.57026,357.86588L270.90679,358.57876L268.76806,358.81639L268.05514,359.7669L267.34223,361.66791L266.15404,363.09367
				L264.25294,364.99468L262.82712,366.8957L262.35184,369.03434L262.11421,370.4601L261.40129,370.93535L260.2131,371.17298L259.02492,371.17298
				L258.07437,370.69773L258.07437,369.50959L258.54964,367.84621L258.312,366.65807L258.54964,365.94519L257.36145,365.70756L256.64854,366.42044
				L254.98508,366.8957L253.08398,367.13332L250.94524,366.8957L249.04414,367.13332L247.38068,367.13332L245.0043,367.84621L243.81611,368.32146
				L242.86556,368.08383L241.43974,368.32146L240.01391,368.79671L238.11281,369.27197L234.54825,370.69773L231.93424,371.17298
				L228.36967,371.41061L225.9933,371.17298L224.32984,371.64823L222.1911,371.64823L220.05236,371.88586L218.62654,371.41061L217.91362,368.08383
				L217.91362,366.42044L217.43835,363.56892L216.25016,362.14316L215.53725,360.7174L214.82433,359.7669L213.87378,358.57876L219.81472,356.44012
				L221.71582,355.25199L222.66637,351.21233L224.80511,349.54895L230.50841,347.4103L231.93424,346.22217L230.74605,343.37065L
				231.22133,340.99438L232.17188,339.331L232.17188,337.42998L233.36006,336.24185L235.97408,336.00422L236.44935,335.05371L233.83534,326.26152
				L231.22133,322.69712L230.74605,319.37035L232.40951,313.19205L235.26116,308.20189L238.58809,303.92461L238.35045,297.98394
				L236.68699,294.41954L234.78589,293.23141L235.4988,292.04327L241.43974,291.56802L240.72683,284.91447L240.96446,280.63719L
				240.48919,274.22127L249.75705,270.65687L251.65815,265.90433L253.32162,264.7162L255.22272,265.6667L256.4109,265.90433L256.88618,266.37958
				L257.59909,266.61721L259.02492,266.37958L259.97547,266.61721L262.58948,268.2806L265.20349,269.70636L266.15404,270.65687L
				267.57987,271.845L268.29278,272.08263L269.00569,272.55788L269.71861,273.50839L271.61971,272.79551L272.57026,272.08263L273.28317,271.845
				L274.47136,271.845L276.13482,271.60737L277.56065,270.65687L278.74883,270.18161L279.69938,270.65687L280.64993,270.18161L281.60048,269.94399
				L282.3134,270.18161L282.78867,270.65687L283.26395,271.60737L283.02631,272.55788L282.55103,273.03313L282.78867,273.74601L
				283.50158,274.45889L283.97686,273.98364L285.16505,273.27076L287.54142,273.03313L293.48236,272.32025L297.04692,273.98364L
				299.18566,274.93415L299.89857,275.64703L300.13621,276.59753L299.89857,278.26092L299.66094,279.44906"/>
		</g>
	</g>
</svg>
