<?xml version="1.0" encoding="utf-8" standalone="no"?>
<!-- Creator: Esri ArcMap 10.8.0.12790 -->
<!DOCTYPE svg PUBLIC "-//W3C//DTD SVG 1.1//EN"  "http://www.w3.org/Graphics/SVG/1.1/DTD/svg11.dtd">
<svg width="774.73701pt" height="404.24882pt" viewBox="0 0 774.73701 404.24882" enable-background="new 0 0 774.73701 404.24882"
	version="1.1" xmlns="http://www.w3.org/2000/svg" xmlns:xlink="http://www.w3.org/1999/xlink" >
	<g id="Layers">
		<g id="Mayo_Danai_SD">
			<clipPath id="SVG_CP_1">
				<path d="M0,404.24882L0,0L774.73701,0L774.73701,404.24882L0,404.24882z"/>
			</clipPath>
			<path clip-path="url(#SVG_CP_1)" fill="none" stroke="#000000" stroke-width="0.47528" stroke-miterlimit="10" stroke-linecap="round" stroke-linejoin="round" d="
				M346.00026,130.69471L345.28734,131.40759L339.82168,131.64522L323.42469,130.45708L304.88896,129.50658L292.29417,129.26895
				L274.70899,130.93234L259.97547,131.16996L243.57848,131.40759L243.57848,102.41713L247.14304,82.45648L245.47958,69.86226L250.23233,62.97109
				L250.46997,46.09959L248.8065,36.35689L250.46997,36.11927L253.79689,33.743L262.11421,28.03996L272.33262,20.67353L274.70899,18.77251
				L281.36285,18.53489L283.97686,20.4359L293.72,27.5647L294.43291,28.27758L299.89857,32.07961L304.88896,35.88164L306.55242,36.83215
				L307.97825,38.02028L309.87935,39.44604L310.11699,39.92129L310.8299,40.15892L312.01809,39.92129L312.731,39.68367L312.731,40.39655
				L312.25573,40.8718L311.30518,41.34705L310.8299,41.82231L311.06754,42.29756L312.25573,42.53519L312.731,42.77281L312.731,43.24807
				L313.44391,43.72332L314.15683,43.4857L314.39446,43.01044L314.6321,42.53519L315.82029,42.53519L316.77084,42.77281L316.5332,43.4857
				L316.29556,44.19858L316.29556,44.91146L316.77084,45.38671L317.72139,45.62434L318.4343,45.86196L319.14721,46.57484L320.57304,46.57484
				L321.99886,46.57484L324.1376,46.33722L325.56343,46.33722L327.46453,46.57484L329.36563,48.23823L330.79145,50.37687L330.55382,52.27788
				L330.55382,53.70365L331.50437,55.36703L333.40547,56.79279L336.73239,59.40669L337.68294,60.83245L337.4453,62.25821L337.20767,64.63448
				L338.87113,68.19888L339.82168,70.81277L340.05932,73.18904L340.53459,76.04056L341.24751,78.65445L341.72278,81.03072L341.96042,83.16936
				L341.96042,83.88224L341.96042,84.83275L341.96042,87.44664L341.48514,88.63478L339.10877,91.24867L337.92058,91.96155L336.49475,93.14969
				L335.06893,95.28833L335.06893,98.85273L335.06893,100.04086L334.11838,101.22899L333.6431,102.1795L333.40547,103.36764L333.88074,104.7934
				L335.30657,107.16966L335.78184,109.3083L336.01948,110.97169L336.73239,113.82321L338.63349,116.67473L341.00987,120.00151L
				341.24751,121.6649L341.96042,124.51642L343.86152,127.60556L346.00026,130.69471"/>
			<path clip-path="url(#SVG_CP_1)" fill="none" stroke="#000000" stroke-width="0.47528" stroke-miterlimit="10" stroke-linecap="round" stroke-linejoin="round" d="
				M346.00026,130.69471L349.32718,135.20962L350.75301,138.06114L351.70356,140.19978L353.36702,141.86317L355.03048,144.47706
				L355.26812,147.32858L355.7434,151.13061L357.16922,154.45739L359.30796,157.30891L361.20906,161.11094L361.68433,163.72483L
				362.87252,166.57635L362.63488,169.19024L360.49615,172.04177L359.07032,174.41803L358.35741,175.36854L357.40686,177.74481L
				357.40686,180.83396L358.11977,184.63598L357.88213,189.15089L358.11977,192.24004L358.83268,193.90343L359.5456,195.09156L352.89174,196.99257
				L349.08954,198.18071L346.71317,197.70545L343.14861,196.75495L340.77223,196.04207L336.97003,194.85393L336.25712,194.61631
				L329.36563,192.71529L328.41508,192.95292L326.27634,193.19055L318.19666,194.14105L316.05793,194.37868L311.78045,194.85393
				L307.0277,194.85393L296.09637,195.09156L286.82851,195.32919L279.22411,202.45799L252.37107,170.85363L251.65815,160.39805L
				243.57848,155.40789L243.57848,131.40759L259.97547,131.16996L274.70899,130.93234L292.29417,129.26895L304.88896,129.50658L
				323.42469,130.45708L339.82168,131.64522L345.28734,131.40759L346.00026,130.69471"/>
			<path clip-path="url(#SVG_CP_1)" fill="none" stroke="#000000" stroke-width="0.47528" stroke-miterlimit="10" stroke-linecap="round" stroke-linejoin="round" d="
				M359.5456,195.09156L361.92197,196.99257L365.01126,198.89359L366.67472,199.36884L369.52637,201.74511L372.14039,202.45799L
				374.51676,203.88375L377.13077,205.54714L378.79424,206.02239L380.93297,207.21052L385.44809,211.48781L387.82446,213.62645L
				388.77501,216.24034L389.25029,219.56711L390.91375,222.89389L392.81485,225.74541L390.67611,227.88405L389.25029,229.07218L
				386.87391,235.01285L385.21045,239.52776L384.73517,243.80504L381.88352,250.45859L378.5566,256.87451L374.7544,259.01315L370.71456,254.9735
				L368.33818,253.07249L365.2489,248.31995L362.87252,245.94368L357.40686,244.99318L357.6445,243.80504L356.69395,242.61691L355.26812,242.14166
				L354.31757,242.14166L352.89174,241.42878L352.17883,241.19115L350.75301,240.95352L348.61427,241.42878L347.90136,241.42878
				L347.18844,241.19115L346.47553,240.95352L345.28734,240.95352L343.86152,240.7159L342.91097,240.47827L341.48514,240.24064L
				341.24751,240.47827L339.82168,240.00302L339.10877,239.29013L337.4453,238.57725L336.25712,238.33963L333.6431,238.57725L331.97964,238.33963
				L328.89035,238.102L327.9398,237.15149L326.0387,235.96336L325.32579,235.48811L323.89997,235.01285L323.18705,234.5376L322.2365,232.87421
				L321.99886,231.92371L321.04831,231.44845L319.14721,231.44845L318.67194,230.9732L318.19666,230.26032L317.24611,229.30981L
				315.10738,228.83456L314.39446,228.83456L313.20628,228.59693L311.30518,229.30981L310.8299,229.30981L310.59226,229.78506L309.64171,230.49795
				L308.9288,230.9732L307.74061,230.73557L306.55242,229.78506L306.07715,229.30981L305.83951,228.59693L305.60187,228.59693L303.93841,228.59693
				L303.46314,228.59693L302.75022,228.59693L301.79967,228.59693L279.22411,202.45799L286.82851,195.32919L296.09637,195.09156
				L307.0277,194.85393L311.78045,194.85393L316.05793,194.37868L318.19666,194.14105L326.27634,193.19055L328.41508,192.95292L
				329.36563,192.71529L336.25712,194.61631L336.97003,194.85393L340.77223,196.04207L343.14861,196.75495L346.71317,197.70545L
				349.08954,198.18071L352.89174,196.99257L359.5456,195.09156"/>
			<path clip-path="url(#SVG_CP_1)" fill="none" stroke="#000000" stroke-width="0.47528" stroke-miterlimit="10" stroke-linecap="round" stroke-linejoin="round" d="
				M449.61022,300.59784L447.94676,301.78597L442.4811,305.11274L437.72835,307.72664L436.54016,308.43952L436.30252,307.25138L
				436.06488,304.16224L435.82725,303.21173L434.8767,302.73648L433.92615,302.49885L432.50032,301.54834L431.07449,300.12258L429.64867,299.4097
				L427.74757,299.17208L426.32174,298.69682L424.89592,297.50869L424.89592,296.08293L424.89592,294.41954L424.18301,293.94429
				L419.19262,291.80565L417.76679,290.37989L418.71734,287.76599L418.71734,285.86498L418.95498,285.86498L419.19262,284.67684
				L418.47971,284.43922L417.05388,284.67684L414.6775,284.67684L411.82585,285.38972L411.11294,287.05311L410.63767,288.95412L
				410.8753,292.04327L410.8753,292.75615L410.8753,292.51853L410.8753,295.8453L410.63767,298.93445L410.40003,301.07309L410.8753,303.21173
				L411.82585,305.82562L411.82585,307.48901L411.35058,310.10291L409.21184,314.38019L407.0731,316.99408L403.74618,321.27136L
				400.89453,326.49915L399.23106,330.06355L397.32996,333.1527L395.42886,334.34083L393.29013,335.05371L390.20084,337.90523L388.53738,339.56862
				L386.87391,342.8954L386.39864,346.4598L387.11155,351.44996L387.58683,354.53911L387.82446,356.91537L388.29974,359.7669L388.29974,361.90554
				L387.34919,365.23231L385.92336,367.60858L385.68572,368.79671L380.4577,369.50959L378.5566,367.60858L375.22967,367.84621L369.0511,369.03434
				L368.81346,368.32146L368.10055,366.42044L366.91236,363.3313L366.67472,362.85604L366.67472,361.66791L366.91236,360.7174L366.43708,359.7669
				L365.48653,357.86588L364.77362,357.153L361.68433,354.06385L362.39725,352.87572L361.68433,351.44996L360.97142,350.0242L360.97142,349.31132
				L360.97142,347.88556L360.97142,346.93505L361.20906,345.03404L360.25851,343.13302L359.78323,341.46964L359.30796,339.80625
				L358.35741,338.61812L357.16922,337.42998L355.98103,336.24185L354.07993,335.52897L352.41647,334.81609L350.99064,332.91507
				L349.56482,331.72694L348.61427,331.01406L347.42608,330.06355L346.00026,329.35067L345.52498,329.11305L345.04971,328.87542
				L343.14861,328.40017L342.43569,327.92491L340.29696,326.73678L338.87113,326.0239L337.20767,325.31102L336.25712,324.36051L
				335.30657,323.88526L333.16783,322.4595L332.21728,321.27136L331.50437,320.79611L334.59365,318.41984L337.20767,317.70696L339.58404,315.56832
				L341.24751,315.09307L343.62388,313.19205L346.00026,312.24155L347.18844,311.52867L351.46592,302.9741L356.93158,291.09277L
				363.58543,277.78567L366.67472,271.845L360.73378,259.48841L354.79284,247.8447L356.21867,246.41894L357.40686,244.99318L362.87252,245.94368
				L365.2489,248.31995L368.33818,253.07249L370.71456,254.9735L374.7544,259.01315L378.5566,256.87451L381.88352,250.45859L384.73517,243.80504
				L385.21045,239.52776L386.87391,235.01285L389.25029,229.07218L390.67611,227.88405L392.81485,225.74541L396.14178,230.02269
				L399.23106,233.34947L400.18161,236.43861L400.89453,238.102L401.3698,240.7159L401.84508,245.46843L401.84508,248.08232L402.79563,250.93385
				L403.98382,253.31011L404.45909,254.9735L404.69673,256.39926L405.88492,257.34977L408.26129,258.30027L409.21184,259.72604L
				408.73657,261.38942L408.49893,263.29044L408.9742,264.95382L409.68712,266.14196L411.35058,266.85484L413.25168,267.33009L414.6775,267.56772
				L416.34097,268.04297L420.85608,270.41924L423.47009,271.845L425.37119,274.93415L428.22284,278.49855L430.83686,281.11244L432.26268,283.25108
				L434.40142,285.62735L436.54016,285.86498L438.6789,287.05311L438.91653,288.24124L439.15417,289.66701L439.86708,290.85514L
				440.58,292.04327L441.29291,293.23141L443.43165,296.32055L444.61983,297.74631L447.70912,299.4097L449.61022,300.59784"/>
			<path clip-path="url(#SVG_CP_1)" fill="none" stroke="#000000" stroke-width="0.47528" stroke-miterlimit="10" stroke-linecap="round" stroke-linejoin="round" d="
				M433.92615,302.49885L434.40142,303.44936L432.50032,306.5385L431.07449,307.96426L428.69812,314.14256L428.69812,318.8951L428.46048,324.83576
				L428.93576,328.87542L429.17339,331.72694L430.59922,338.14286L430.83686,347.17268L430.83686,350.97471L429.64867,353.11335
				L427.50993,355.48961L422.28191,356.20249L419.19262,358.10351L417.05388,358.81639L413.48932,362.14316L411.11294,364.75706
				L409.68712,368.32146L409.44948,370.22247L403.98382,367.37095L390.91375,368.08383L385.68572,368.79671L385.92336,367.60858
				L387.34919,365.23231L388.29974,361.90554L388.29974,359.7669L387.82446,356.91537L387.58683,354.53911L387.11155,351.44996L
				386.39864,346.4598L386.87391,342.8954L388.53738,339.56862L390.20084,337.90523L393.29013,335.05371L395.42886,334.34083L397.32996,333.1527
				L399.23106,330.06355L400.89453,326.49915L403.74618,321.27136L407.0731,316.99408L409.21184,314.38019L411.35058,310.10291L
				411.82585,307.48901L411.82585,305.82562L410.8753,303.21173L410.40003,301.07309L410.63767,298.93445L410.8753,295.8453L410.8753,292.51853
				L410.8753,292.75615L410.8753,292.04327L410.63767,288.95412L411.11294,287.05311L411.82585,285.38972L414.6775,284.67684L417.05388,284.67684
				L418.47971,284.43922L419.19262,284.67684L418.95498,285.86498L418.71734,285.86498L418.71734,287.76599L417.76679,290.37989
				L419.19262,291.80565L424.18301,293.94429L424.89592,294.41954L424.89592,296.08293L424.89592,297.50869L426.32174,298.69682
				L427.74757,299.17208L429.64867,299.4097L431.07449,300.12258L432.50032,301.54834L433.92615,302.49885"/>
			<path clip-path="url(#SVG_CP_1)" fill="none" stroke="#000000" stroke-width="0.47528" stroke-miterlimit="10" stroke-linecap="round" stroke-linejoin="round" d="
				M390.91375,368.08383L403.98382,367.37095L409.44948,370.22247L409.68712,368.32146L411.11294,364.75706L413.48932,362.14316
				L417.05388,358.81639L419.19262,358.10351L422.28191,356.20249L427.50993,355.48961L429.64867,353.11335L430.83686,350.97471
				L430.83686,347.17268L430.59922,338.14286L429.17339,331.72694L428.93576,328.87542L428.46048,324.83576L428.69812,318.8951L
				428.69812,314.14256L431.07449,307.96426L432.50032,306.5385L434.40142,303.44936L433.92615,302.49885L434.8767,302.73648L435.82725,303.21173
				L436.06488,304.16224L436.30252,307.25138L436.54016,308.43952L437.72835,307.72664L442.4811,305.11274L447.94676,301.78597L
				449.61022,300.59784L451.9866,301.54834L454.83825,305.35037L455.31352,307.01376L457.45226,312.7168L461.01682,318.41984L463.63084,321.27136
				L464.81903,325.78627L466.00721,327.21203L467.43304,327.92491L469.80941,329.82593L471.23524,332.43982L472.66106,333.62795
				L474.08689,334.57846L475.51271,333.62795L476.46326,333.1527L480.26547,333.62795L482.87948,334.81609L484.78058,336.7171L486.2064,338.38049
				L488.58278,340.75676L489.77097,342.18252L491.19679,343.37065L493.09789,343.8459L494.99899,343.37065L496.18718,343.13302L
				497.37537,343.60828L498.08828,344.79641L498.56356,345.98454L499.27647,348.12319L500.46466,348.83607L502.12812,349.31132L
				504.97977,349.78657L507.11851,350.0242L516.86165,356.44012L521.85203,359.05402L526.60479,361.43028L531.35754,365.23231L531.35754,366.42044
				L531.1199,367.13332L520.42621,369.50959L519.00038,370.22247L478.602,380.2028L443.66928,385.90584L427.98521,377.82653L390.91375,368.08383
				"/>
			<path clip-path="url(#SVG_CP_1)" fill="none" stroke="#000000" stroke-width="0.47528" stroke-miterlimit="10" stroke-linecap="round" stroke-linejoin="round" d="
				M369.0511,369.03434L359.07032,366.65807L354.55521,367.84621L354.07993,366.8957L350.04009,363.09367L341.00987,354.77673L335.5442,350.97471
				L326.98925,345.98454L331.50437,342.18252L333.16783,340.2815L335.78184,337.66761L337.68294,336.24185L339.58404,334.10321L
				341.48514,332.20219L344.09916,330.06355L345.52498,329.11305L346.00026,329.35067L347.42608,330.06355L348.61427,331.01406L
				349.56482,331.72694L350.99064,332.91507L352.41647,334.81609L354.07993,335.52897L355.98103,336.24185L357.16922,337.42998L
				358.35741,338.61812L359.30796,339.80625L359.78323,341.46964L360.25851,343.13302L361.20906,345.03404L360.97142,346.93505L
				360.97142,347.88556L360.97142,349.31132L360.97142,350.0242L361.68433,351.44996L362.39725,352.87572L361.68433,354.06385L364.77362,357.153
				L365.48653,357.86588L366.43708,359.7669L366.91236,360.7174L366.67472,361.66791L366.67472,362.85604L366.91236,363.3313L368.10055,366.42044
				L368.81346,368.32146L369.0511,369.03434"/>
			<path clip-path="url(#SVG_CP_1)" fill="none" stroke="#000000" stroke-width="0.47528" stroke-miterlimit="10" stroke-linecap="round" stroke-linejoin="round" d="
				M354.55521,367.84621L346.95081,369.98485L345.52498,375.92551L331.02909,382.10381L322.47414,375.92551L318.4343,375.45026L
				312.01809,375.45026L310.8299,374.73738L300.13621,370.93535L302.27495,365.46994L303.2255,364.04418L305.1266,363.80655L308.9288,363.80655
				L315.34501,358.34114L321.04831,352.63809L326.98925,345.98454L335.5442,350.97471L341.00987,354.77673L350.04009,363.09367L
				354.07993,366.8957L354.55521,367.84621"/>
			<path clip-path="url(#SVG_CP_1)" fill="none" stroke="#000000" stroke-width="0.47528" stroke-miterlimit="10" stroke-linecap="round" stroke-linejoin="round" d="
				M302.27495,365.46994L300.13621,370.93535L298.47275,370.22247L248.8065,385.43058L253.55925,375.45026L257.59909,367.13332L
				261.40129,362.85604L265.20349,358.57876L269.24333,351.92521L270.19388,352.16284L271.14443,352.16284L279.46175,354.53911L
				282.3134,354.53911L284.45213,357.39063L285.40268,362.38079L289.44252,363.3313L298.23511,363.56892L302.27495,365.46994"/>
			<path clip-path="url(#SVG_CP_1)" fill="none" stroke="#000000" stroke-width="0.47528" stroke-miterlimit="10" stroke-linecap="round" stroke-linejoin="round" d="
				M357.40686,244.99318L356.21867,246.41894L354.79284,247.8447L360.73378,259.48841L366.67472,271.845L363.58543,277.78567L356.93158,291.09277
				L351.46592,302.9741L347.18844,311.52867L346.00026,312.24155L343.62388,313.19205L341.24751,315.09307L339.58404,315.56832L
				337.20767,317.70696L334.59365,318.41984L331.50437,320.79611L332.21728,321.27136L333.16783,322.4595L335.30657,323.88526L336.25712,324.36051
				L337.20767,325.31102L338.87113,326.0239L340.29696,326.73678L342.43569,327.92491L343.14861,328.40017L345.04971,328.87542L
				345.52498,329.11305L344.09916,330.06355L341.48514,332.20219L339.58404,334.10321L337.68294,336.24185L335.78184,337.66761L
				333.16783,340.2815L328.89035,334.34083L326.0387,331.48931L322.94941,324.12288L323.42469,321.03374L320.81068,314.85544L315.34501,313.90493
				L294.19527,311.29104L283.02631,308.91477L285.40268,301.78597L288.96725,301.31072L289.68016,295.37005L278.27356,285.62735
				L278.98647,282.06295L276.13482,281.35007L269.00569,267.33009L268.53042,266.61721L277.32301,261.1518L286.35323,253.31011L
				306.79006,234.29997L301.79967,228.59693L302.75022,228.59693L303.46314,228.59693L303.93841,228.59693L305.60187,228.59693L
				305.83951,228.59693L306.07715,229.30981L306.55242,229.78506L307.74061,230.73557L308.9288,230.9732L309.64171,230.49795L310.59226,229.78506
				L310.8299,229.30981L311.30518,229.30981L313.20628,228.59693L314.39446,228.83456L315.10738,228.83456L317.24611,229.30981L
				318.19666,230.26032L318.67194,230.9732L319.14721,231.44845L321.04831,231.44845L321.99886,231.92371L322.2365,232.87421L323.18705,234.5376
				L323.89997,235.01285L325.32579,235.48811L326.0387,235.96336L327.9398,237.15149L328.89035,238.102L331.97964,238.33963L333.6431,238.57725
				L336.25712,238.33963L337.4453,238.57725L339.10877,239.29013L339.82168,240.00302L341.24751,240.47827L341.48514,240.24064L
				342.91097,240.47827L343.86152,240.7159L345.28734,240.95352L346.47553,240.95352L347.18844,241.19115L347.90136,241.42878L348.61427,241.42878
				L350.75301,240.95352L352.17883,241.19115L352.89174,241.42878L354.31757,242.14166L355.26812,242.14166L356.69395,242.61691
				L357.6445,243.80504L357.40686,244.99318"/>
			<path clip-path="url(#SVG_CP_1)" fill="none" stroke="#000000" stroke-width="0.47528" stroke-miterlimit="10" stroke-linecap="round" stroke-linejoin="round" d="
				M333.16783,340.2815L331.50437,342.18252L326.98925,345.98454L321.04831,352.63809L315.34501,358.34114L308.9288,363.80655L305.1266,363.80655
				L303.2255,364.04418L302.27495,365.46994L298.23511,363.56892L289.44252,363.3313L285.40268,362.38079L284.45213,357.39063L282.3134,354.53911
				L279.46175,354.53911L271.14443,352.16284L270.19388,352.16284L269.24333,351.92521L273.99608,343.8459L274.94663,341.23201L
				274.94663,340.99438L276.84773,318.8951L282.78867,309.62765L283.02631,308.91477L294.19527,311.29104L315.34501,313.90493L320.81068,314.85544
				L323.42469,321.03374L322.94941,324.12288L326.0387,331.48931L328.89035,334.34083L333.16783,340.2815"/>
		</g>
	</g>
</svg>
