<?xml version="1.0" encoding="utf-8" standalone="no"?>
<!-- Creator: Esri ArcMap 10.8.0.12790 -->
<!DOCTYPE svg PUBLIC "-//W3C//DTD SVG 1.1//EN"  "http://www.w3.org/Graphics/SVG/1.1/DTD/svg11.dtd">
<svg width="774.73701pt" height="404.24882pt" viewBox="0 0 774.73701 404.24882" enable-background="new 0 0 774.73701 404.24882"
	version="1.1" xmlns="http://www.w3.org/2000/svg" xmlns:xlink="http://www.w3.org/1999/xlink" >
	<g id="Layers">
		<g id="Blangoua">
			<clipPath id="SVG_CP_1">
				<path d="M0,404.24882L0,0L774.73701,0L774.73701,404.24882L0,404.24882z"/>
			</clipPath>
			<path clip-path="url(#SVG_CP_1)" fill="none" stroke="#000000" stroke-width="0.47528" stroke-miterlimit="10" stroke-linecap="round" stroke-linejoin="round" d="
				M281.12521,46.33722L281.60048,53.46602L277.79828,63.44634L276.61009,65.82261L276.84773,68.67413L277.08537,128.7937L273.52081,135.44725
				L269.71861,146.6157L267.81751,153.98213L268.29278,161.11094L271.14443,168.23974L275.18427,175.13091L278.5112,179.17057L282.3134,180.59633
				L285.40268,179.17057L288.0167,174.65566L291.8189,169.90312L297.28456,168.47736L301.3244,169.42787L304.65132,172.27939L306.07715,176.31905
				L306.07715,182.25972L306.79006,188.43801L306.31479,196.75495L307.97825,201.98274L311.78045,206.73527L316.05793,212.91357
				L319.38485,216.24034L322.94941,217.42847L328.17744,216.95322L333.16783,214.81458L336.73239,211.96306L341.48514,206.02239
				L345.52498,199.60647L350.99064,189.62614L355.03048,182.25972L357.88213,180.83396L363.11016,183.21022L365.96181,187.4875L
				366.19945,191.76479L365.48653,197.46783L363.11016,203.88375L361.4467,208.16103L355.03048,212.91357L352.89174,216.00271L354.55521,220.28
				L357.6445,220.99288L367.86291,219.56711L374.99204,220.28L380.69534,222.18101L387.34919,225.74541L393.29013,232.87421L395.42886,236.67624
				L402.79563,242.61691L411.35058,245.46843L425.13356,246.65656L433.68851,246.89419L439.15417,244.51792L446.04566,242.14166
				L453.17479,239.05251L458.87809,239.52776L467.1954,240.7159L476.7009,243.32979L483.11712,246.89419L487.39459,250.69622L491.67207,259.48841
				L492.62262,263.29044L492.38498,267.56772L488.82042,273.50839L484.54294,278.49855L479.07728,282.5382L470.04705,288.95412L
				465.53194,298.22157L465.2943,304.16224L465.05666,310.57816L466.72013,316.2812L468.85886,319.60798L470.28469,323.17238L461.72974,318.18221
				L403.2709,302.26122L395.6665,311.76629L380.69534,323.64763L349.08954,303.68698L332.21728,288.7165L278.5112,268.2806L244.05375,279.68668
				L209.83395,266.85484L185.35728,248.31995L188.68421,248.31995L192.01113,248.7952L190.11003,244.75555L188.92184,240.24064L
				197.71443,232.63659L191.77349,230.73557L190.58531,225.50778L195.33806,224.7949L198.18971,223.8444L197.23916,219.32949L198.42734,214.81458
				L191.29822,212.67594L194.62514,208.87391L200.56608,207.68578L203.89301,210.77493L206.74466,215.05221L211.73505,216.00271
				L215.77489,214.81458L217.20071,212.91357L213.39851,201.26986L216.72544,194.85393L221.95346,193.6658L225.75566,192.24004L
				226.94385,188.91326L224.56747,180.59633L226.23094,172.51702L232.17188,169.90312L237.3999,165.62584L245.95485,167.0516L248.56887,166.1011
				L249.04414,160.16043L240.01391,150.65536L240.96446,145.42757L239.06336,138.77402L230.50841,131.64522L224.0922,129.03132L
				223.85456,134.73437L220.05236,139.24927L216.25016,137.11063L211.73505,129.50658L205.0812,120.71439L206.26938,119.051L211.25977,120.95201
				L215.77489,120.23913L218.86417,121.42727L223.37929,122.85303L226.23094,122.37778L229.08259,120.23913L228.13204,118.33812
				L221.24055,114.53609L217.91362,110.97169L222.66637,108.83305L223.85456,105.98153L217.91362,105.03102L212.21032,105.03102
				L202.70482,101.22899L204.60592,97.90222L205.79411,96.23883L215.77489,92.19918L223.85456,91.72392L237.16226,90.53579L246.19249,90.29816
				L252.13343,90.29816L252.6087,88.8724L250.23233,74.37717L247.85595,71.52565L246.66777,71.0504L240.48919,72.23853L231.93424,72.0009
				L228.36967,67.486L233.83534,63.68397L240.01391,62.25821L246.66777,62.49583L249.28178,61.54533L248.56887,57.03042L244.76666,51.565
				L242.62793,43.72332L239.77628,39.68367L247.38068,44.91146L250.7076,45.38671L250.7076,41.10943L253.08398,43.4857L256.4109,45.62434
				L261.16365,38.73316L270.66916,48.47586L275.89718,46.81247L281.12521,46.33722"/>
		</g>
	</g>
</svg>
