<?xml version="1.0" encoding="utf-8" standalone="no"?>
<!-- Creator: Esri ArcMap 10.8.0.12790 -->
<!DOCTYPE svg PUBLIC "-//W3C//DTD SVG 1.1//EN"  "http://www.w3.org/Graphics/SVG/1.1/DTD/svg11.dtd">
<svg width="774.73701pt" height="404.24882pt" viewBox="0 0 774.73701 404.24882" enable-background="new 0 0 774.73701 404.24882"
	version="1.1" xmlns="http://www.w3.org/2000/svg" xmlns:xlink="http://www.w3.org/1999/xlink" >
	<g id="Layers">
		<g id="Bogo">
			<clipPath id="SVG_CP_1">
				<path d="M0,404.24882L0,0L774.73701,0L774.73701,404.24882L0,404.24882z"/>
			</clipPath>
			<path clip-path="url(#SVG_CP_1)" fill="none" stroke="#000000" stroke-width="0.47528" stroke-miterlimit="10" stroke-linecap="round" stroke-linejoin="round" d="
				M509.49488,25.66369L513.77236,49.90162L513.53472,92.43681L501.17757,109.54593L505.45504,141.62554L496.90009,191.28953L496.66246,264.7162
				L496.66246,324.83576L417.52916,385.90584L409.68712,383.52957L406.36019,382.81669L401.13216,381.39093L380.4577,375.68789L
				379.26951,375.68789L377.13077,374.97501L374.04149,374.49975L370.9522,375.45026L367.62527,377.11365L363.3478,378.06416L358.11977,379.01466
				L348.61427,379.96517L345.52498,379.72754L338.15822,380.2028L330.31618,379.48992L326.98925,377.5889L324.37524,375.45026L317.00848,369.27197
				L314.39446,367.37095L309.40408,363.56892L298.94802,358.34114L285.16505,351.21233L287.30378,344.79641L289.20488,338.85574
				L290.39307,335.05371L289.44252,333.1527L273.99608,314.85544L271.61971,311.52867L271.85734,309.86528L270.66916,308.91477L
				270.66916,307.01376L269.48097,305.35037L268.76806,302.73648L267.10459,300.83546L266.62932,297.03343L264.49058,283.25108L
				264.01531,280.63719L261.16365,275.4094L262.82712,273.27076L263.77767,271.60737L264.72822,268.75585L266.39168,265.90433L269.00569,265.19145
				L269.71861,263.05281L270.43152,261.86468L272.33262,260.91417L274.94663,259.72604L273.52081,258.30027L274.23372,256.39926
				L274.94663,254.26062L277.56065,252.12198L279.93702,248.7952L280.64993,244.99318L282.07576,241.6664L281.60048,240.24064L290.39307,231.92371
				L314.86974,210.06204L316.29556,208.16103L318.4343,206.49764L319.38485,205.54714L321.99886,204.359L324.37524,203.64612L326.27634,205.07188
				L327.46453,204.359L328.89035,204.59663L330.31618,203.64612L330.79145,202.45799L331.26673,201.03223L332.45492,200.55698L330.79145,198.18071
				L331.97964,196.27969L332.21728,194.61631L332.93019,193.6658L333.6431,193.90343L333.6431,194.85393L336.01948,194.37868L336.01948,193.19055
				L336.73239,192.00241L337.92058,191.76479L338.87113,192.95292L338.39585,193.90343L338.63349,195.56681L339.82168,195.32919
				L341.24751,194.14105L341.72278,192.95292L343.14861,191.28953L342.19806,189.86377L343.86152,188.43801L345.76262,184.87361
				L363.58543,158.25941L368.57582,151.13061L374.27912,143.52656L386.87391,128.55607L413.25168,98.6151L419.66789,91.4863L439.86708,68.19888
				L455.31352,49.66399L463.86847,41.34705L487.86987,18.53489L491.67207,21.38641L494.52372,23.76268L495.47427,25.66369L503.79158,25.90132
				L509.49488,25.66369"/>
		</g>
	</g>
</svg>
