<?xml version="1.0" encoding="utf-8" standalone="no"?>
<!-- Creator: Esri ArcMap 10.8.0.12790 -->
<!DOCTYPE svg PUBLIC "-//W3C//DTD SVG 1.1//EN"  "http://www.w3.org/Graphics/SVG/1.1/DTD/svg11.dtd">
<svg width="774.73701pt" height="404.24882pt" viewBox="0 0 774.73701 404.24882" enable-background="new 0 0 774.73701 404.24882"
	version="1.1" xmlns="http://www.w3.org/2000/svg" xmlns:xlink="http://www.w3.org/1999/xlink" >
	<g id="Layers">
		<g id="Bourha">
			<clipPath id="SVG_CP_1">
				<path d="M0,404.24882L0,0L774.73701,0L774.73701,404.24882L0,404.24882z"/>
			</clipPath>
			<path clip-path="url(#SVG_CP_1)" fill="none" stroke="#000000" stroke-width="0.47528" stroke-miterlimit="10" stroke-linecap="round" stroke-linejoin="round" d="
				M500.46466,68.91176L500.46466,70.81277L502.84103,74.37717L504.02922,76.51581L506.40559,78.89208L509.97016,82.21886L510.92071,85.54563
				L508.78197,90.29816L505.93032,97.66459L504.26686,105.26865L503.55394,113.34796L501.65284,115.72423L500.22702,117.62524L500.46466,118.10049
				L499.27647,120.00151L499.27647,122.14015L504.50449,127.84319L509.49488,131.16996L509.97016,131.88285L517.33692,139.24927
				L527.3177,148.04146L540.15012,158.97229L541.33831,159.44755L545.85343,159.44755L549.18035,160.87331L552.50728,163.01195L
				553.9331,164.43771L557.49767,165.15059L559.6364,167.52686L560.11168,170.14075L560.11168,173.46753L561.77514,176.08142L563.67624,178.93294
				L563.4386,181.30921L564.86443,183.44785L567.00317,185.82412L567.71608,187.96276L567.71608,188.20038L565.3397,190.57665L564.62679,191.52716
				L564.86443,193.90343L566.52789,196.27969L569.1419,199.84409L569.61718,202.69562L567.2408,205.78476L562.01278,207.68578L557.26003,207.68578
				L552.032,206.49764L547.27925,202.69562L541.33831,200.08172L534.44682,196.75495L527.3177,192.71529L524.22841,191.52716L518.76275,192.47767
				L510.92071,192.00241L506.64323,193.19055L501.17757,196.04207L495.94954,198.18071L492.86025,200.31935L489.77097,206.49764
				L488.34514,214.1017L487.86987,221.2305L484.06767,224.7949L478.36436,228.59693L469.0965,225.74541L461.25446,223.60677L455.31352,217.90373
				L450.32314,215.52746L446.04566,213.86407L440.81763,211.96306L436.7778,209.11154L432.26268,207.21052L426.55938,204.359L419.43026,201.74511
				L413.01404,200.7946L402.55799,196.27969L398.75579,194.14105L397.80524,193.6658L397.32996,194.85393L394.47831,198.89359L391.8643,205.78476
				L389.01265,212.20069L385.68572,218.14135L381.17061,220.28L377.36841,224.55728L375.94259,231.21083L374.04149,236.67624L370.71456,241.42878
				L370.23928,246.89419L371.42747,251.88435L371.18984,255.92401L370.00165,260.43892L373.32857,264.95382L377.60605,267.80534
				L382.83407,268.99348L385.92336,271.13212L391.62666,274.45889L397.80524,276.35991L402.32035,277.07279L406.83547,281.5877L
				412.7764,283.25108L419.19262,284.91447L429.41103,289.66701L433.45087,290.85514L440.81763,293.94429L448.65967,292.99378L455.7888,293.94429
				L460.77919,297.50869L467.67068,302.49885L473.13634,304.63749L477.88909,305.588L486.91932,307.72664L493.8108,311.29104L500.22702,312.7168
				L506.64323,314.14256L510.92071,316.04357L511.39598,320.08323L509.97016,323.88526L504.50449,324.83576L494.99899,326.26152
				L490.0086,326.49915L484.54294,328.40017L480.26547,331.25169L474.32453,333.39033L458.16517,337.66761L447.70912,339.331L441.53055,339.80625
				L437.96598,336.95473L434.63906,333.86558L429.17339,332.43982L424.89592,332.43982L420.61844,336.95473L414.91514,337.90523
				L407.0731,338.38049L401.3698,340.75676L394.24068,341.46964L391.8643,344.55878L389.25029,351.21233L384.97281,355.96487L378.31896,362.38079
				L373.56621,369.03434L371.90275,376.40077L370.71456,381.39093L368.57582,383.29194L365.01126,383.7672L360.73378,383.7672L357.16922,382.10381
				L357.40686,378.06416L358.59505,372.59874L358.35741,368.55909L358.59505,365.94519L355.03048,365.46994L352.17883,367.37095
				L346.71317,369.50959L339.82168,370.22247L332.93019,369.50959L326.27634,370.22247L320.3354,369.98485L312.731,372.12349L307.97825,374.26213
				L304.65132,373.54925L299.89857,373.78687L295.14582,375.21263L288.49197,377.82653L276.61009,381.86618L267.10459,383.52957
				L255.46035,384.24245L247.38068,384.00482L240.96446,385.19296L234.07298,385.66821L226.46857,385.90584L221.47819,384.48008
				L219.10181,373.31162L219.10181,367.13332L217.67599,357.86588L213.16087,353.11335L210.54686,348.36081L208.17048,344.55878
				L205.31883,340.75676L225.51802,333.39033L231.93424,329.11305L235.73644,315.56832L242.86556,309.62765L262.58948,302.49885
				L267.81751,298.22157L263.54003,288.47887L265.20349,280.63719L268.53042,274.22127L267.81751,267.56772L271.85734,263.52806
				L281.12521,263.29044L282.55103,259.96366L273.99608,229.54744L265.20349,217.19085L263.30239,206.26002L269.00569,184.87361
				L278.74883,167.28923L290.39307,152.794L289.20488,132.3581L283.73922,119.76388L277.08537,116.43711L279.93702,112.15983L300.37385,110.49644
				L297.75984,87.20902L298.23511,73.18904L296.80929,50.6145L328.65272,38.25791L335.5442,22.09929L340.77223,18.53489L347.18844,21.38641
				L351.46592,22.33691L353.12938,23.76268L355.7434,24.71318L360.49615,24.0003L363.82307,24.23793L372.8533,30.41622L381.88352,35.16876
				L385.21045,38.02028L389.48793,42.29756L392.33958,43.72332L395.19123,45.14908L397.09233,48.47586L403.74618,45.86196L406.83547,43.01044
				L409.44948,42.29756L413.96459,42.29756L419.66789,41.34705L424.18301,38.97079L427.98521,37.06977L431.78741,38.73316L434.8767,37.06977
				L438.20362,35.88164L440.10472,36.59452L441.76818,38.49553L443.66928,41.82231L443.19401,44.91146L441.29291,46.57484L442.24346,48.95111
				L444.3822,51.32738L446.2833,49.90162L450.32314,47.52535L458.64045,46.57484L479.31491,44.4362L490.95915,50.13924L498.80119,53.46602
				L500.70229,55.60466L501.65284,58.93143L500.93993,64.39685L500.46466,68.91176"/>
		</g>
	</g>
</svg>
