<?xml version="1.0" encoding="utf-8" standalone="no"?>
<!-- Creator: Esri ArcMap 10.8.0.12790 -->
<!DOCTYPE svg PUBLIC "-//W3C//DTD SVG 1.1//EN"  "http://www.w3.org/Graphics/SVG/1.1/DTD/svg11.dtd">
<svg width="774.73701pt" height="404.24882pt" viewBox="0 0 774.73701 404.24882" enable-background="new 0 0 774.73701 404.24882"
	version="1.1" xmlns="http://www.w3.org/2000/svg" xmlns:xlink="http://www.w3.org/1999/xlink" >
	<g id="Layers">
		<g id="Darak">
			<clipPath id="SVG_CP_1">
				<path d="M0,404.24882L0,0L774.73701,0L774.73701,404.24882L0,404.24882z"/>
			</clipPath>
			<path clip-path="url(#SVG_CP_1)" fill="none" stroke="#000000" stroke-width="0.47528" stroke-miterlimit="10" stroke-linecap="round" stroke-linejoin="round" d="
				M480.97838,133.54623L478.83964,133.54623L476.7009,134.25911L472.66106,130.21946L470.75996,133.07098L469.33414,132.12047L
				468.38359,131.16996L468.38359,133.07098L466.95776,132.83335L463.86847,130.69471L465.05666,132.3581L466.00721,135.68487L467.43304,137.82351
				L467.67068,139.72453L466.72013,140.19978L463.86847,139.96215L461.25446,140.67503L458.87809,142.1008L460.54155,144.00181L
				464.10611,144.23944L466.72013,143.76418L467.1954,144.00181L468.14595,145.18994L469.0965,151.13061L468.85886,151.60587L466.48249,151.84349
				L462.68029,151.84349L457.21462,152.31875L453.8877,152.55637L449.61022,154.21976L449.13495,154.93264L448.42204,156.3584L452.46187,158.02179
				L454.83825,157.78416L457.21462,158.25941L456.73935,159.44755L454.60061,160.39805L456.02644,161.82382L458.87809,163.4872L
				459.35336,164.20008L458.16517,165.15059L456.97699,165.15059L455.07589,164.67534L453.65006,164.20008L451.9866,164.43771L449.84786,163.72483
				L449.37259,164.43771L451.9866,168.00211L454.12534,171.32889L455.55116,172.04177L457.21462,170.37838L457.21462,167.76448L
				459.82864,168.95262L463.3932,172.04177L464.34375,174.65566L463.86847,176.7943L467.67068,180.83396L467.43304,183.21022L466.24485,183.68548
				L462.68029,183.21022L460.77919,184.87361L458.16517,186.06174L457.45226,189.38852L458.40281,192.71529L457.92754,194.14105
				L456.50171,194.85393L454.12534,195.32919L452.69951,197.94308L454.36297,202.93324L453.8877,203.64612L451.9866,204.12138L450.0855,203.64612
				L448.89731,201.98274L447.47148,200.55698L445.09511,201.03223L443.66928,202.69562L446.52093,203.64612L446.04566,205.54714
				L446.52093,207.44815L445.33275,207.68578L443.43165,208.16103L443.90692,210.29967L446.2833,211.01255L442.4811,214.1017L443.19401,216.00271
				L443.90692,217.90373L442.4811,217.6661L441.05527,217.6661L439.86708,217.90373L438.6789,219.09186L442.24346,221.94338L442.71873,224.08202
				L441.53055,225.50778L442.71873,227.17117L441.29291,227.4088L439.15417,230.26032L443.19401,230.49795L442.71873,232.87421L
				441.53055,233.11184L440.10472,233.82472L438.20362,231.21083L434.8767,230.02269L433.45087,229.07218L430.59922,227.4088L427.27229,226.22066
				L430.83686,223.13152L429.17339,220.04237L422.99482,218.14135L419.19262,217.90373L417.29152,216.95322L413.96459,214.81458
				L412.7764,213.38882L410.16239,212.20069L406.59783,215.28983L403.50854,216.71559L398.51815,213.38882L397.32996,210.5373L391.8643,206.9729
				L387.82446,203.4085L384.97281,201.74511L383.07171,199.36884L379.50715,196.75495L374.99204,195.09156L373.09094,193.90343L
				369.52637,191.05191L367.62527,189.38852L365.2489,188.43801L362.87252,189.15089L359.5456,190.57665L358.35741,192.95292L363.82307,196.75495
				L365.01126,199.60647L364.53598,200.55698L362.63488,201.03223L360.73378,199.13121L357.88213,196.99257L354.79284,195.56681
				L352.17883,194.61631L350.51537,194.14105L347.66372,191.76479L345.04971,190.1014L342.67333,192.24004L339.58404,190.57665L
				337.4453,191.28953L333.88074,191.05191L332.45492,188.43801L332.93019,185.58649L332.93019,183.9231L332.45492,182.73497L331.02909,182.9726
				L331.02909,187.01225L330.31618,189.15089L333.16783,191.76479L335.78184,192.71529L338.15822,193.42817L342.43569,194.85393
				L345.28734,196.75495L349.32718,198.18071L355.26812,203.64612L357.6445,206.9729L362.63488,209.58679L362.63488,212.20069L364.77362,214.81458
				L369.52637,217.6661L372.61566,220.04237L376.18022,221.2305L375.94259,224.55728L380.4577,227.88405L386.161,228.59693L389.72556,230.73557
				L394.24068,233.34947L390.43848,235.48811L384.97281,236.91387L381.88352,235.96336L378.79424,234.77523L375.70495,234.29997
				L372.37802,233.58709L369.28873,234.77523L366.19945,235.01285L362.63488,235.48811L362.63488,231.92371L360.25851,228.3593L
				357.88213,227.4088L354.55521,225.98304L353.12938,225.74541L350.27773,226.69592L345.76262,228.83456L342.43569,227.4088L339.3464,227.4088
				L338.39585,227.88405L336.97003,227.88405L334.59365,229.07218L333.6431,229.07218L332.21728,228.3593L330.55382,230.26032L328.17744,231.92371
				L326.0387,233.34947L324.85052,232.87421L322.94941,233.58709L321.52359,234.06235L318.90958,232.39896L317.00848,230.49795L
				315.82029,227.17117L314.39446,224.55728L311.30518,223.36914L309.40408,224.31965L309.16644,226.69592L311.30518,230.49795L
				312.49336,234.06235L311.30518,235.01285L309.16644,236.67624L308.45353,239.05251L305.83951,241.90403L303.2255,244.2803L300.61149,245.70606
				L297.99747,247.13182L297.5222,247.8447L300.61149,252.12198L303.93841,253.78537L307.0277,254.02299L309.87935,254.26062L311.30518,255.44875
				L314.86974,258.77553L316.5332,261.38942L317.00848,265.19145L318.90958,269.2311L320.09776,272.32025L321.76123,274.69652L324.85052,275.17177
				L327.9398,275.4094L329.12799,277.78567L331.97964,283.25108L335.5442,284.91447L337.20767,284.91447L338.39585,285.62735L339.58404,288.24124
				L339.10877,292.99378L338.87113,295.13242L338.63349,295.37005L339.3464,296.32055L342.67333,294.89479L344.81207,293.94429L
				346.71317,294.41954L349.08954,296.08293L350.27773,298.93445L349.32718,298.93445L347.90136,296.79581L346.23789,296.32055L
				343.38624,297.74631L341.72278,298.93445L338.87113,298.45919L337.92058,298.22157L336.97003,297.98394L336.97003,298.22157L
				335.5442,298.69682L332.93019,297.27106L334.35602,296.32055L335.30657,295.8453L335.06893,294.41954L333.6431,292.75615L332.69255,291.33039
				L334.35602,290.14226L335.30657,289.42938L334.83129,288.7165L333.88074,287.76599L333.16783,288.47887L331.02909,288.7165L328.41508,288.7165
				L324.85052,287.76599L323.18705,287.76599L325.56343,292.2809L324.61288,295.8453L325.08815,298.93445L323.89997,301.07309L322.71178,302.0236
				L320.57304,302.73648L316.29556,304.39986L313.44391,305.82562L313.91919,309.1524L313.91919,313.19205L312.731,314.14256L310.59226,315.09307
				L311.78045,317.94459L313.20628,320.32086L310.59226,321.74662L307.26534,323.64763L305.36424,324.36051L302.98786,326.26152
				L302.75022,331.01406L304.41369,336.47947L304.17605,340.2815L301.56204,342.8954L301.56204,345.03404L303.2255,347.4103L301.3244,350.49945
				L299.66094,351.92521L298.47275,350.73708L297.5222,349.78657L295.85874,349.54895L294.43291,352.16284L294.43291,354.06385L
				292.53181,355.25199L290.86835,354.77673L289.44252,352.63809L287.77906,351.21233L288.49197,348.83607L290.15543,345.98454L
				290.86835,342.8954L290.86835,342.65777L292.76945,339.80625L295.14582,336.47947L295.14582,335.29134L293.95764,333.39033L293.00709,332.43982
				L293.48236,331.48931L294.67055,313.66731L272.57026,212.91357L272.33262,211.72543L248.8065,104.55577L231.6966,27.32708L433.21323,27.32708
				L457.21462,73.66429L463.86847,86.49614L469.0965,99.32798L470.28469,100.75374L473.37398,104.31814L476.22563,103.84289L477.88909,104.7934
				L477.88909,106.21916L477.88909,106.69441L477.88909,108.83305L477.88909,109.3083L478.12673,109.78356L480.26547,110.97169L
				480.5031,111.20932L481.92893,112.15983L483.35475,114.29847L484.54294,117.14999L484.54294,120.23913L484.3053,123.32828L483.83003,124.99167
				L483.83003,125.94218L484.06767,127.13031L485.25585,128.31844L487.63223,129.26895L488.1075,129.50658L488.34514,130.21946L
				488.34514,130.93234L488.1075,131.40759L487.63223,131.88285L486.44404,131.88285L485.49349,131.64522L484.06767,131.40759L483.11712,131.64522
				L481.69129,132.3581L480.97838,133.54623"/>
		</g>
	</g>
</svg>
