<?xml version="1.0" encoding="utf-8" standalone="no"?>
<!-- Creator: Esri ArcMap 10.8.0.12790 -->
<!DOCTYPE svg PUBLIC "-//W3C//DTD SVG 1.1//EN"  "http://www.w3.org/Graphics/SVG/1.1/DTD/svg11.dtd">
<svg width="522.73701pt" height="242.98583pt" viewBox="0 0 522.73701 242.98583" enable-background="new 0 0 522.73701 242.98583"
	version="1.1" xmlns="http://www.w3.org/2000/svg" xmlns:xlink="http://www.w3.org/1999/xlink" >
	<g id="Layers">
		<g id="Dargala">
			<clipPath id="SVG_CP_1">
				<path d="M0,242.98583L0,0L522.73701,0L522.73701,242.98583L0,242.98583z"/>
			</clipPath>
			<path clip-path="url(#SVG_CP_1)" fill="none" stroke="#000000" stroke-width="0.47526" stroke-miterlimit="10" stroke-linecap="round" stroke-linejoin="round" d="
				M414.42703,71.50616L418.22911,118.06831L478.8248,151.56455L428.68484,221.8829L215.53057,231.8605L153.74672,211.66773L98.14126,132.55959
				L92.43814,126.14542L86.49738,121.8693L87.68554,116.8805L80.08137,112.12926L74.61588,107.37802L68.19986,105.23996L62.972,105.71508
				L53.94205,86.47256L48.95182,68.65541L43.96158,46.32459L47.76367,41.57335L55.1302,34.68405L63.20963,32.78355L72.95246,30.40793
				L79.60611,26.60694L89.11132,30.17037L110.02277,28.03231L132.59764,29.22012L149.23175,25.6567L163.72719,22.09327L183.68813,11.16541
				L207.68877,23.28108L225.74867,32.54599L234.54098,38.96017L239.05596,42.5236L251.88799,53.45145L256.87822,57.01488L262.10608,60.10318
				L276.12626,61.52855L288.95829,60.57831L293.94853,61.29099L310.82027,59.3905L319.85022,57.96513L327.45438,56.06463L333.15751,53.21389
				L338.623,51.55095L343.85086,52.26364L347.65295,53.45145L349.55399,53.68901L385.67377,63.66661L394.70372,66.27979L400.64448,67.23004
				L414.42703,71.50616"/>
		</g>
	</g>
</svg>
