<?xml version="1.0" encoding="utf-8" standalone="no"?>
<!-- Creator: Esri ArcMap 10.8.0.12790 -->
<!DOCTYPE svg PUBLIC "-//W3C//DTD SVG 1.1//EN"  "http://www.w3.org/Graphics/SVG/1.1/DTD/svg11.dtd">
<svg width="774.73701pt" height="404.24882pt" viewBox="0 0 774.73701 404.24882" enable-background="new 0 0 774.73701 404.24882"
	version="1.1" xmlns="http://www.w3.org/2000/svg" xmlns:xlink="http://www.w3.org/1999/xlink" >
	<g id="Layers">
		<g id="Fotokolt">
			<clipPath id="SVG_CP_1">
				<path d="M0,404.24882L0,0L774.73701,0L774.73701,404.24882L0,404.24882z"/>
			</clipPath>
			<path clip-path="url(#SVG_CP_1)" fill="none" stroke="#000000" stroke-width="0.47528" stroke-miterlimit="10" stroke-linecap="round" stroke-linejoin="round" d="
				M404.69673,52.75314L408.02365,58.45618L413.01404,66.29786L415.15278,74.85243L415.86569,78.65445L423.23246,79.60496L429.64867,84.83275
				L439.15417,86.02088L443.66928,87.9219L443.90692,92.43681L448.89731,99.32798L451.9866,109.07068L450.56077,119.051L451.27369,124.27879
				L452.69951,128.7937L450.0855,134.25911L448.65967,139.24927L449.37259,143.76418L456.73935,148.04146L463.86847,149.46722L466.00721,152.794
				L468.14595,160.16043L473.61161,166.33872L475.51271,171.32889L469.33414,173.46753L463.63084,176.55667L463.63084,180.12107
				L465.2943,186.06174L463.86847,191.28953L461.01682,196.04207L459.591,200.7946L453.17479,209.82442L453.8877,220.28L456.73935,223.60677
				L470.04705,225.03253L471.94815,225.27016L475.75035,226.69592L474.7998,230.26032L469.57178,234.77523L468.85886,239.76539L
				472.8987,253.07249L481.92893,265.19145L497.13773,272.79551L510.92071,273.50839L519.00038,275.4094L518.76275,280.16194L507.35614,290.37989
				L502.60339,299.4097L506.16796,307.25138L523.75313,311.76629L546.80398,320.79611L552.74491,325.07339L562.48805,331.72694L
				564.62679,336.47947L571.28064,350.26183L573.89466,356.44012L577.22158,364.04418L576.03339,364.99468L575.08284,367.37095L
				574.84521,368.08383L577.69686,369.50959L580.54851,371.88586L585.06362,375.68789L585.53889,376.16314L586.25181,376.87602L
				584.11307,378.30178L580.54851,379.25229L572.23119,378.06416L570.33009,376.87602L567.47844,374.0245L561.77514,370.69773L556.78475,369.74722
				L551.31909,369.50959L545.37815,370.69773L530.88226,375.68789L523.99077,381.86618L512.34653,382.10381L506.88087,376.87602
				L495.23663,373.07399L486.68168,373.07399L478.12673,375.68789L472.42343,375.45026L452.69951,364.2818L444.61983,359.52927L
				433.45087,357.86588L423.94537,363.56892L419.43026,372.36111L412.53877,380.2028L404.45909,382.34144L395.42886,380.67805L393.05249,376.87602
				L393.29013,370.93535L387.58683,364.2818L378.31896,362.38079L376.89314,364.99468L381.64589,369.50959L386.39864,376.16314L
				385.21045,382.81669L377.84369,385.90584L371.90275,381.62856L369.76401,378.30178L367.62527,374.73738L364.06071,367.37095L
				356.45631,363.3313L343.86152,362.38079L336.49475,366.42044L328.17744,367.84621L313.68155,367.84621L290.15543,374.73738L276.37246,377.35127
				L266.62932,374.49975L265.44113,368.08383L267.81751,362.61842L266.39168,358.57876L258.54964,353.5886L255.46035,352.40047L
				254.74744,352.16284L244.29139,347.88556L233.83534,342.65777L231.45896,338.61812L216.72544,314.14256L214.34906,309.86528L
				212.92323,308.43952L211.49741,307.01376L208.40812,305.35037L205.31883,305.11274L200.56608,305.35037L195.81333,305.588L193.67459,305.11274
				L191.53586,303.68698L189.63476,301.78597L188.68421,300.12258L188.68421,297.27106L189.15948,295.60767L190.11003,294.18191
				L191.53586,292.99378L193.19932,292.04327L194.38751,291.56802L196.52624,290.61751L197.71443,289.90463L198.90262,288.24124
				L198.90262,286.81548L198.18971,285.62735L196.52624,283.48871L195.10042,282.06295L194.38751,280.16194L192.72404,277.07279
				L192.01113,274.93415L192.01113,272.79551L192.24877,271.60737L192.72404,270.89449L193.67459,269.94399L194.86278,269.46873
				L196.05097,269.46873L197.23916,269.94399L198.66498,271.60737L200.32845,273.03313L202.70482,274.22127L204.36828,274.22127
				L206.03175,273.27076L207.45757,272.08263L207.93285,271.36975L208.40812,270.41924L208.8834,269.46873L208.8834,268.51822L208.8834,267.56772
				L208.8834,266.61721L208.40812,264.95382L207.93285,263.29044L208.17048,261.62705L208.64576,260.91417L209.83395,259.72604L
				210.54686,259.48841L211.02213,259.48841L211.73505,259.72604L212.21032,259.72604L213.39851,260.67654L217.43835,263.76569L
				218.62654,264.47857L220.05236,264.95382L221.00291,264.7162L221.71582,264.24094L222.1911,263.52806L222.42874,263.05281L222.90401,262.1023
				L223.14165,260.91417L222.66637,259.96366L221.95346,259.25078L220.52764,258.30027L215.29961,255.44875L213.63615,253.78537
				L212.21032,251.88435L211.97268,250.93385L211.73505,249.98334L211.97268,248.55758L212.92323,246.89419L214.34906,245.46843
				L216.72544,244.2803L219.10181,243.80504L221.71582,243.56742L223.37929,243.09216L224.32984,242.85454L225.04275,242.14166L
				226.46857,240.47827L226.94385,239.52776L226.46857,237.86437L225.51802,236.67624L223.85456,235.48811L222.1911,235.01285L220.76527,235.01285
				L218.86417,235.25048L216.01252,235.72573L213.87378,236.43861L211.97268,237.86437L209.83395,240.00302L207.69521,242.14166
				L206.03175,242.85454L205.31883,242.85454L204.36828,242.85454L203.1801,242.37928L202.70482,241.90403L202.46718,241.6664L201.99191,241.19115
				L201.75427,240.47827L201.75427,240.00302L201.99191,239.52776L202.46718,238.57725L203.41773,237.62675L204.60592,235.96336
				L205.55647,234.29997L205.55647,232.87421L205.55647,232.16133L205.31883,230.9732L205.0812,230.02269L204.60592,229.30981L202.46718,224.7949
				L201.99191,221.94338L202.22955,219.09186L201.51663,213.86407L198.42734,207.68578L197.47679,206.02239L195.81333,202.69562
				L194.14987,196.99257L193.19932,191.52716L193.91223,189.38852L195.57569,188.43801L200.56608,188.20038L203.1801,188.67564L
				207.69521,189.15089L208.64576,188.91326L209.59631,188.43801L212.44796,186.537L215.53725,181.30921L216.4878,174.65566L215.77489,169.42787
				L216.72544,164.67534L219.10181,158.97229L222.42874,156.3584L225.75566,154.93264L229.7955,156.12077L231.22133,155.88315L231.45896,153.98213
				L234.31061,156.83365L238.11281,163.01195L237.63754,166.81398L230.50841,176.31905L224.80511,184.87361L224.56747,185.82412
				L222.66637,194.85393L217.43835,203.88375L215.53725,211.48781L220.52764,215.28983L225.04275,221.70576L230.27077,223.13152
				L235.73644,219.56711L235.4988,213.62645L239.53864,205.78476L244.76666,206.73527L247.61832,209.58679L251.42052,213.15119L
				256.88618,208.63628L262.58948,199.60647L256.88618,192.24004L257.59909,185.82412L264.96586,177.50718L265.67877,166.33872L
				261.16365,149.94248L261.87657,135.68487L269.00569,129.7442L274.70899,127.84319L284.45213,121.90252L292.29417,117.14999L288.49197,110.25881
				L284.92741,101.46662L291.34362,98.6151L294.67055,96.00121L294.67055,83.64462L293.48236,73.42667L302.03731,68.67413L314.6321,64.15922
				L321.28595,61.78295L325.08815,58.93143L328.41508,52.51551L327.46453,43.24807L329.8409,32.31724L322.71178,18.53489L327.9398,18.53489
				L338.87113,21.38641L346.71317,21.86166L353.36702,20.67353L355.26812,18.53489L358.35741,21.62403L359.30796,23.52505L356.45631,25.90132
				L351.70356,29.46572L354.55521,33.50537L359.07032,38.73316L359.30796,42.77281L356.93158,44.4362L352.41647,47.28772L360.02087,52.04026
				L364.29835,50.13924L364.77362,49.66399L367.62527,50.13924L370.47692,51.32738L379.26951,52.27788L384.49754,49.18874L392.33958,44.4362
				L397.5676,45.86196L402.08272,52.27788L404.69673,52.75314"/>
		</g>
	</g>
</svg>
