<?xml version="1.0" encoding="utf-8" standalone="no"?>
<!-- Creator: Esri ArcMap 10.8.0.12790 -->
<!DOCTYPE svg PUBLIC "-//W3C//DTD SVG 1.1//EN"  "http://www.w3.org/Graphics/SVG/1.1/DTD/svg11.dtd">
<svg width="774.73701pt" height="404.24882pt" viewBox="0 0 774.73701 404.24882" enable-background="new 0 0 774.73701 404.24882"
	version="1.1" xmlns="http://www.w3.org/2000/svg" xmlns:xlink="http://www.w3.org/1999/xlink" >
	<g id="Layers">
		<g id="Gazawa">
			<clipPath id="SVG_CP_1">
				<path d="M0,404.24882L0,0L774.73701,0L774.73701,404.24882L0,404.24882z"/>
			</clipPath>
			<path clip-path="url(#SVG_CP_1)" fill="none" stroke="#000000" stroke-width="0.47528" stroke-miterlimit="10" stroke-linecap="round" stroke-linejoin="round" d="
				M374.27912,-3.80203L375.94259,1.18813L383.54699,28.51521L384.97281,35.16876L386.161,40.39655L389.72556,68.67413L388.0621,74.13955
				L384.49754,72.47616L381.17061,76.04056L375.94259,78.89208L369.76401,81.03072L362.15961,85.07038L352.41647,82.69411L348.85191,86.02088
				L340.05932,87.68427L330.79145,90.53579L321.76123,89.11003L321.04831,87.68427L322.71178,85.54563L324.1376,82.93174L326.0387,79.84259
				L326.98925,78.65445L328.65272,76.99107L331.26673,75.80293L333.6431,74.37717L335.30657,74.37717L336.97003,74.85243L339.10877,76.04056
				L341.96042,76.51581L344.33679,75.56531L345.28734,74.13955L346.71317,72.0009L346.71317,70.81277L345.28734,67.486L345.52498,65.10973
				L344.81207,62.73346L342.91097,62.25821L341.24751,61.3077L338.39585,59.64431L338.39585,57.50567L338.15822,55.60466L336.97003,53.70365
				L336.97003,51.80263L337.20767,49.18874L337.68294,47.28772L338.87113,45.14908L340.29696,42.77281L341.48514,39.68367L343.38624,37.54503
				L344.81207,36.11927L345.52498,34.21825L345.04971,33.03012L343.86152,32.55486L340.53459,31.60436L338.63349,32.79249L336.73239,32.55486
				L335.30657,32.31724L331.97964,29.22809L327.9398,28.03996L327.46453,26.85182L327.70217,24.95081L327.70217,23.04979L328.65272,21.14878
				L330.55382,18.29726L326.75162,15.20811L326.98925,13.3071L327.22689,11.16846L327.9398,8.79219L329.36563,6.41592L330.31618,4.27728
				L333.6431,-0.47525L335.06893,-2.13864L335.06893,-4.75254L334.83129,-6.1783L341.96042,-8.07931L344.57443,-9.26744L346.00026,-9.50507
				L347.18844,-9.02982L348.13899,-7.84168L348.61427,-7.84168L349.80246,-6.41592L351.46592,-4.99016L352.89174,-3.80203L355.26812,-2.13864
				L356.69395,-1.42576L357.88213,-0.95051L359.07032,-0.71288L360.25851,-1.18813L361.20906,-0.71288L362.63488,-0.47525L363.3478,-0.71288
				L364.53598,-0.47525L366.43708,-0.47525L369.0511,-1.42576L371.42747,-3.08915L373.56621,-3.5644L374.27912,-3.80203"/>
		</g>
	</g>
</svg>
