<?xml version="1.0" encoding="utf-8" standalone="no"?>
<!-- Creator: Esri ArcMap 10.8.0.12790 -->
<!DOCTYPE svg PUBLIC "-//W3C//DTD SVG 1.1//EN"  "http://www.w3.org/Graphics/SVG/1.1/DTD/svg11.dtd">
<svg width="774.73701pt" height="404.24882pt" viewBox="0 0 774.73701 404.24882" enable-background="new 0 0 774.73701 404.24882"
	version="1.1" xmlns="http://www.w3.org/2000/svg" xmlns:xlink="http://www.w3.org/1999/xlink" >
	<g id="Layers">
		<g id="Goulfey">
			<clipPath id="SVG_CP_1">
				<path d="M0,404.24882L0,0L774.73701,0L774.73701,404.24882L0,404.24882z"/>
			</clipPath>
			<path clip-path="url(#SVG_CP_1)" fill="none" stroke="#000000" stroke-width="0.47528" stroke-miterlimit="10" stroke-linecap="round" stroke-linejoin="round" d="
				M392.10194,53.94127L394.47831,55.60466L396.85469,56.31754L399.70634,56.31754L401.60744,55.12941L405.172,52.04026L406.12255,50.13924
				L406.59783,47.76298L407.0731,42.77281L408.02365,39.92129L409.21184,38.49553L412.30113,37.54503L414.6775,37.78265L416.10333,38.25791
				L418.00443,39.20841L419.43026,40.39655L421.09372,42.29756L422.99482,43.4857L424.18301,44.19858L424.89592,45.62434L424.18301,47.28772
				L423.47009,48.95111L422.99482,50.6145L423.47009,51.80263L423.70773,56.31754L423.94537,58.45618L424.42064,61.07007L424.89592,62.97109
				L426.08411,65.34736L427.03466,67.01074L428.22284,68.4365L430.36158,70.09989L432.26268,70.81277L434.40142,71.52565L435.58961,71.52565
				L437.96598,70.81277L439.39181,70.09989L440.81763,69.38701L442.00582,67.96125L443.43165,67.01074L444.85747,66.53549L446.04566,67.24837
				L447.70912,68.4365L449.37259,69.38701L450.79841,69.38701L453.41242,68.67413L455.7888,67.72362L457.92754,67.24837L460.06627,67.01074
				L461.4921,66.77312L462.91792,67.24837L464.34375,67.96125L465.53194,69.14938L466.48249,70.81277L466.95776,72.71379L467.67068,75.56531
				L468.38359,76.51581L469.33414,79.60496L469.80941,82.45648L470.04705,84.59512L470.28469,87.20902L470.52233,88.8724L471.47288,91.01104
				L472.42343,93.62494L472.8987,95.0507L473.61161,96.71409L474.56216,98.13985L475.27508,99.80323L475.98799,101.22899L476.93854,102.41713
				L478.36436,103.36764L479.31491,104.7934L479.79019,105.98153L479.79019,107.64492L479.55255,109.07068L478.83964,111.20932L
				478.83964,112.15983L478.83964,113.58559L479.31491,115.4866L479.07728,117.62524L478.12673,119.051L477.41381,120.23913L477.41381,121.42727
				L477.65145,123.09066L478.12673,125.2293L478.12673,127.13031L477.88909,129.7442L477.65145,131.40759L477.17618,133.30861L476.46326,134.97199
				L475.98799,135.9225L475.51271,136.87301L475.27508,138.53639L475.75035,140.43741L476.46326,142.33842L477.88909,143.52656L
				479.55255,145.18994L480.5031,146.6157L481.21602,148.99197L481.69129,150.65536L482.16657,153.03163L482.4042,154.69501L481.92893,156.59603
				L480.97838,158.02179L479.79019,158.73467L477.88909,159.9228L475.98799,161.11094L474.32453,163.01195L473.37398,164.67534L
				472.8987,166.81398L472.8987,169.6655L473.61161,171.80414L474.32453,173.94278L475.27508,175.84379L476.46326,177.26955L477.65145,177.98243
				L479.31491,178.45769L480.97838,178.45769L482.87948,177.74481L483.83003,176.55667L484.3053,174.41803L484.3053,172.04177L485.01822,170.14075
				L485.96877,169.19024L487.39459,168.47736L489.29569,168.47736L490.95915,169.19024L492.14734,170.616L493.57317,172.27939L494.04844,174.41803
				L494.04844,176.08142L494.04844,177.98243L493.33553,180.3587L492.14734,182.49734L491.43443,184.87361L491.43443,186.29937L
				491.9097,187.72513L492.38498,188.67564L493.33553,189.62614L494.99899,190.81428L496.18718,191.76479L497.85064,193.6658L499.51411,196.27969
				L500.46466,198.18071L501.89048,199.84409L504.02922,203.4085L505.45504,205.30951L506.64323,206.9729L507.35614,208.63628L508.30669,210.5373
				L509.01961,212.43831L509.73252,213.38882L510.44543,215.28983L511.39598,217.6661L511.87126,219.80474L512.1089,222.65626L511.87126,224.7949
				L511.39598,227.4088L510.44543,228.83456L509.25724,231.21083L508.06906,233.34947L506.88087,236.20099L506.64323,237.62675L
				506.64323,239.52776L506.88087,241.90403L507.35614,243.56742L508.06906,244.51792L509.25724,245.46843L510.92071,246.65656L
				511.63362,247.8447L512.1089,248.55758L512.1089,249.50808L512.1089,251.17147L511.39598,252.59723L510.44543,254.49825L508.78197,256.39926
				L506.88087,258.5379L504.97977,259.96366L503.31631,262.1023L502.84103,263.52806L502.60339,265.19145L503.07867,267.09246L503.79158,269.2311
				L505.93032,272.32025L507.59378,274.69652L508.54433,276.12228L509.73252,278.26092L510.20779,280.16194L510.20779,282.5382L
				509.73252,284.91447L509.25724,287.05311L508.54433,288.95412L507.59378,290.37989L505.93032,291.56802L504.26686,293.23141L
				503.31631,294.65717L502.60339,296.32055L501.89048,298.69682L502.12812,300.36021L502.60339,301.78597L503.55394,302.9741L505.21741,304.87512
				L506.64323,306.5385L507.83142,308.91477L508.54433,311.29104L508.78197,312.7168L508.54433,314.61781L508.06906,315.80595L507.35614,317.23171
				L506.64323,318.18221L505.21741,319.37035L504.26686,320.32086L503.31631,321.74662L502.36576,324.36051L502.12812,325.78627
				L502.12812,327.44966L502.60339,328.87542L503.79158,330.30118L504.50449,331.01406L506.16796,331.96457L507.83142,332.20219
				L509.73252,332.91507L511.39598,333.62795L512.82181,335.05371L513.53472,336.47947L513.29708,338.14286L512.34653,339.80625
				L510.68307,341.23201L508.06906,342.42014L505.45504,342.8954L502.84103,343.13302L501.41521,343.8459L499.51411,345.74692L498.56356,346.93505
				L497.85064,348.36081L497.85064,350.0242L499.03883,351.92521L500.93993,353.5886L503.79158,355.25199L506.40559,356.20249L509.73252,358.34114
				L513.05945,360.95503L516.14873,364.99468L520.42621,371.88586L518.76275,373.78687L516.86165,375.92551L515.43582,378.77704
				L514.48527,379.48992L512.58417,381.39093L508.78197,382.57906L503.07867,383.7672L492.62262,383.52957L485.49349,383.05432L
				480.74074,382.57906L477.41381,382.81669L473.61161,383.52957L470.52233,383.52957L468.38359,383.7672L465.2943,384.7177L462.44265,385.90584
				L461.01682,384.7177L456.73935,381.1533L452.93715,380.2028L446.52093,379.01466L443.19401,378.77704L439.62945,379.72754L432.9756,381.62856
				L430.36158,382.57906L419.43026,383.52957L418.71734,383.29194L417.76679,383.52957L417.52916,384.00482L416.81624,384.24245
				L416.34097,384.00482L416.81624,383.29194L416.81624,382.81669L416.5786,381.86618L416.10333,380.91568L415.62805,380.2028L415.39042,379.72754
				L415.15278,379.48992L413.96459,379.25229L412.30113,378.53941L410.40003,378.06416L410.16239,377.5889L411.11294,375.92551L
				412.06349,375.45026L412.7764,375.21263L413.01404,374.73738L412.30113,374.26213L411.11294,372.59874L408.73657,367.13332L407.31074,365.70756
				L405.88492,365.70756L404.69673,365.70756L403.03327,366.8957L401.60744,366.8957L399.4687,365.70756L396.14178,364.2818L394.47831,362.85604
				L393.52776,360.95503L393.29013,359.52927L391.8643,358.57876L391.15139,358.57876L389.9632,357.62825L389.72556,356.91537L389.01265,356.20249
				L388.29974,355.72724L387.11155,355.01436L386.161,353.5886L383.30935,352.16284L382.59644,351.92521L381.40825,351.92521L379.98242,352.16284
				L378.79424,353.11335L377.84369,353.82623L376.41786,354.06385L375.22967,353.35097L374.51676,352.40047L374.27912,350.97471
				L374.27912,350.73708L374.04149,349.78657L373.80385,349.31132L373.56621,348.12319L373.32857,347.17268L373.09094,346.4598L
				372.8533,345.98454L372.37802,345.03404L371.90275,344.32116L371.42747,343.60828L370.9522,343.13302L370.47692,342.8954L369.76401,342.65777
				L369.0511,342.42014L368.10055,342.42014L367.38763,342.42014L366.67472,342.18252L366.43708,341.94489L365.96181,341.70726L
				365.72417,341.46964L365.72417,340.99438L365.96181,340.51913L365.96181,339.80625L366.19945,339.331L366.67472,338.61812L366.91236,338.38049
				L367.38763,337.90523L367.62527,337.42998L367.86291,336.47947L367.62527,335.76659L367.38763,335.29134L367.15,335.05371L366.67472,334.34083
				L365.96181,333.86558L367.62527,333.86558L370.23928,333.86558L370.71456,333.1527L370.47692,331.72694L370.00165,330.77643L
				372.8533,329.11305L376.41786,327.68728L379.74479,326.73678L381.40825,326.9744L383.30935,328.16254L384.97281,328.16254L387.34919,327.68728
				L389.01265,328.16254L390.67611,329.11305L391.62666,331.01406L393.29013,332.67745L398.28051,334.81609L403.98382,337.42998
				L409.92475,338.61812L417.52916,338.14286L421.33136,337.19235L424.65828,335.52897L427.03466,335.05371L429.41103,336.24185
				L431.54977,337.19235L433.68851,337.19235L437.72835,336.7171L442.95637,334.81609L445.33275,333.86558L450.32314,334.10321L
				452.46187,333.1527L453.41242,331.25169L453.65006,327.21203L453.41242,321.74662L453.65006,317.94459L454.60061,313.90493L454.83825,311.52867
				L454.12534,309.62765L451.74896,306.06325L449.84786,304.63749L449.84786,303.68698L450.56077,301.07309L451.51132,297.03343
				L452.69951,292.75615L453.17479,289.90463L451.9866,288.24124L450.79841,288.00362L449.84786,288.95412L448.42204,289.66701L
				447.23385,289.19175L445.33275,288.95412L442.71873,289.19175L438.6789,289.66701L436.30252,288.95412L434.8767,288.00362L434.16378,286.81548
				L434.63906,285.62735L437.25307,283.96396L439.15417,282.06295L441.29291,278.9738L441.53055,275.88465L440.34236,274.69652L
				437.01543,273.50839L435.11433,272.08263L433.21323,269.94399L430.36158,267.80534L427.98521,267.33009L422.28191,267.09246L
				417.05388,266.61721L415.86569,266.14196L415.15278,264.7162L414.91514,263.05281L413.48932,260.67654L409.92475,257.11214L407.54838,254.49825
				L404.69673,252.59723L402.32035,250.93385L399.94398,248.7952L398.04288,247.8447L395.6665,247.13182L392.10194,247.60707L389.01265,249.98334
				L385.44809,251.64673L381.40825,252.12198L377.60605,251.64673L376.18022,250.69622L375.94259,248.55758L376.18022,247.13182
				L376.89314,244.51792L376.89314,242.61691L375.70495,240.7159L373.80385,238.33963L370.9522,235.25048L368.33818,234.29997L365.01126,234.06235
				L362.63488,235.01285L359.78323,237.15149L357.88213,236.91387L355.26812,235.48811L351.70356,233.58709L346.95081,230.73557
				L345.04971,228.59693L342.19806,225.27016L338.39585,221.46813L336.73239,220.75525L334.59365,220.28L331.97964,220.28L327.70217,219.56711
				L324.85052,218.61661L321.99886,218.37898L320.3354,217.90373L319.62249,217.19085L319.86013,216.47797L321.52359,215.52746L
				321.99886,214.57695L320.81068,213.62645L318.67194,213.38882L315.10738,213.62645L312.96864,214.33933L310.59226,216.00271L
				308.45353,216.47797L306.31479,215.52746L305.60187,214.57695L305.36424,213.15119L304.65132,211.48781L302.51259,209.82442L
				299.66094,209.34916L296.80929,209.58679L293.24472,208.63628L290.63071,207.44815L289.44252,205.78476L288.25433,203.64612L
				287.54142,202.45799L285.64032,201.50748L283.50158,201.74511L281.12521,202.69562L278.98647,202.69562L278.27356,201.74511L
				278.27356,200.55698L278.74883,199.13121L279.22411,197.2302L278.98647,195.56681L277.79828,193.90343L275.18427,192.71529L270.66916,192.00241
				L265.67877,191.28953L264.01531,190.33902L263.54003,188.91326L263.77767,187.4875L264.01531,185.11124L264.25294,183.9231L265.20349,183.44785
				L266.39168,183.44785L266.15404,183.44785L266.62932,183.44785L267.57987,183.68548L269.48097,184.39836L270.19388,185.82412
				L270.66916,187.96276L271.85734,189.38852L274.23372,188.20038L279.22411,184.63598L282.3134,182.49734L283.26395,180.83396L
				286.59087,172.75465L288.25433,170.85363L289.44252,170.37838L291.58126,169.6655L292.53181,168.23974L292.05653,165.15059L292.29417,163.96246
				L293.72,162.5367L295.85874,159.68517L297.28456,156.59603L298.94802,150.89298L299.89857,147.32858L299.18566,146.37808L297.99747,145.42757
				L297.75984,144.23944L298.47275,141.86317L298.47275,140.91266L297.04692,140.19978L294.67055,140.19978L293.48236,139.4869L
				293.48236,137.82351L293.95764,137.11063L296.33401,136.39775L298.71039,134.49674L302.51259,130.93234L304.17605,127.13031L
				305.83951,121.90252L305.60187,120.95201L304.88896,119.52625L304.41369,118.10049L305.60187,115.96185L308.45353,113.58559L
				308.9288,111.9222L308.45353,109.54593L307.26534,105.7439L307.26534,102.89238L306.55242,100.04086L306.31479,98.13985L307.50297,97.18934
				L308.21589,95.52595L307.50297,93.38731L305.36424,90.29816L302.98786,88.39715L301.3244,85.78326L299.18566,81.7436L297.5222,80.08021
				L295.6211,79.36733L288.49197,78.89208L287.30378,78.1792L284.45213,76.04056L278.98647,70.57514L278.03592,68.67413L275.65954,61.78295
				L273.75844,54.41653L272.33262,49.90162L269.00569,44.91146L266.15404,38.25791L264.01531,34.93113L261.87657,31.84198L259.02492,29.22809
				L257.59909,27.5647L259.02492,25.66369L258.78728,23.28742L254.5098,19.96065L255.69799,18.77251L257.36145,18.53489L268.76806,27.32708
				L284.92741,33.26775L301.3244,28.03996L326.75162,37.54503L334.83129,44.67383L349.56482,54.1789L356.69395,48.47586L360.25851,43.96095
				L388.0621,51.565L392.10194,53.94127"/>
		</g>
	</g>
</svg>
