<?xml version="1.0" encoding="utf-8" standalone="no"?>
<!-- Creator: Esri ArcMap 10.8.0.12790 -->
<!DOCTYPE svg PUBLIC "-//W3C//DTD SVG 1.1//EN"  "http://www.w3.org/Graphics/SVG/1.1/DTD/svg11.dtd">
<svg width="774.73701pt" height="404.24882pt" viewBox="0 0 774.73701 404.24882" enable-background="new 0 0 774.73701 404.24882"
	version="1.1" xmlns="http://www.w3.org/2000/svg" xmlns:xlink="http://www.w3.org/1999/xlink" >
	<g id="Layers">
		<g id="Guidiguis">
			<clipPath id="SVG_CP_1">
				<path d="M0,404.24882L0,0L774.73701,0L774.73701,404.24882L0,404.24882z"/>
			</clipPath>
			<path clip-path="url(#SVG_CP_1)" fill="none" stroke="#000000" stroke-width="0.47528" stroke-miterlimit="10" stroke-linecap="round" stroke-linejoin="round" d="
				M485.01822,39.44604L493.57317,45.14908L520.42621,48.0006L559.16113,58.45618L597.65841,78.41683L626.65019,98.13985L672.2766,140.19978
				L643.04718,139.4869L603.83698,143.76418L559.87404,157.30891L520.42621,176.08142L490.72152,204.59663L462.91792,259.48841L
				452.69951,290.85514L437.96598,295.37005L423.23246,297.50869L396.37941,301.78597L369.52637,313.42968L352.17883,332.43982L
				336.97003,356.44012L326.98925,378.06416L321.28595,385.90584L102.65942,340.99438L118.34349,328.63779L148.04819,300.12258L
				168.00974,273.74601L173.4754,240.24064L183.69382,211.25018L198.42734,194.61631L225.51802,185.34886L242.39029,190.57665L266.62932,205.54714
				L285.64032,225.03253L310.11699,225.50778L317.48375,223.13152L322.47414,211.25018L322.71178,196.75495L316.05793,167.76448
				L306.79006,138.53639L297.75984,87.68427L300.37385,87.68427L315.34501,56.55517L324.85052,18.53489L391.15139,27.5647L448.42204,35.16876
				L485.01822,39.44604"/>
		</g>
	</g>
</svg>
