<?xml version="1.0" encoding="utf-8" standalone="no"?>
<!-- Creator: Esri ArcMap 10.8.0.12790 -->
<!DOCTYPE svg PUBLIC "-//W3C//DTD SVG 1.1//EN"  "http://www.w3.org/Graphics/SVG/1.1/DTD/svg11.dtd">
<svg width="774.73701pt" height="404.24882pt" viewBox="0 0 774.73701 404.24882" enable-background="new 0 0 774.73701 404.24882"
	version="1.1" xmlns="http://www.w3.org/2000/svg" xmlns:xlink="http://www.w3.org/1999/xlink" >
	<g id="Layers">
		<g id="Hilé_-_Alifa">
			<clipPath id="SVG_CP_1">
				<path d="M0,404.24882L0,0L774.73701,0L774.73701,404.24882L0,404.24882z"/>
			</clipPath>
			<path clip-path="url(#SVG_CP_1)" fill="none" stroke="#000000" stroke-width="0.47528" stroke-miterlimit="10" stroke-linecap="round" stroke-linejoin="round" d="
				M540.86304,179.64582L539.67485,191.52716L532.54572,204.59663L512.82181,249.98334L495.47427,279.44906L493.8108,287.52836L
				493.33553,289.19175L493.57317,314.38019L505.69268,344.55878L505.69268,351.44996L505.45504,357.153L496.42482,357.62825L490.0086,359.05402
				L482.87948,359.7669L478.602,360.47978L475.27508,363.09367L474.08689,363.56892L472.66106,363.56892L468.85886,362.38079L466.00721,361.43028
				L461.72974,361.43028L458.16517,360.95503L454.36297,360.95503L452.46187,361.43028L450.0855,362.14316L447.70912,362.38079L
				441.76818,362.14316L432.9756,363.56892L429.17339,363.56892L426.32174,362.85604L424.42064,362.38079L420.14317,359.7669L419.43026,359.52927
				L416.34097,356.91537L413.01404,352.63809L408.73657,346.93505L406.12255,340.99438L403.98382,337.19235L400.41925,334.10321
				L394.71595,331.01406L392.81485,330.53881L390.20084,331.25169L384.49754,335.52897L382.12116,336.95473L379.74479,337.42998
				L375.94259,336.7171L374.51676,335.76659L371.42747,332.43982L367.15,329.82593L358.59505,325.31102L354.31757,323.41L353.12938,322.93475
				L348.37663,321.98424L341.96042,320.79611L340.05932,321.03374L334.83129,321.27136L328.41508,320.55848L324.37524,319.60798
				L316.29556,315.80595L312.731,313.19205L309.87935,308.67715L308.9288,303.68698L307.50297,300.36021L304.88896,298.22157L303.93841,296.32055
				L303.93841,292.2809L301.79967,285.1521L300.13621,283.48871L297.75984,281.11244L296.33401,280.39956L294.67055,280.39956L291.58126,281.82532
				L287.30378,282.5382L281.83812,283.01346L277.79828,283.96396L273.99608,285.86498L273.52081,287.29074L272.80789,288.47887L
				272.57026,288.7165L271.14443,290.14226L270.90679,290.37989L270.66916,290.61751L270.19388,290.85514L268.76806,291.33039L266.39168,291.80565
				L264.72822,291.33039L263.54003,290.37989L262.35184,289.19175L261.40129,287.29074L260.2131,285.38972L259.73783,283.01346L
				260.45074,280.87482L262.82712,278.49855L264.49058,276.83516L264.72822,275.88465L264.01531,274.93415L262.11421,273.74601L
				260.2131,273.27076L258.312,273.03313L255.46035,272.79551L251.18288,271.13212L249.04414,268.99348L248.33123,265.90433L248.8065,263.29044
				L250.46997,260.67654L249.99469,258.5379L247.14304,255.21113L244.52903,251.88435L242.39029,247.36944L240.72683,243.80504L
				238.35045,240.47827L235.73644,240.00302L231.93424,240.47827L226.70621,245.46843L223.14165,246.41894L219.33945,247.13182L
				216.72544,246.65656L215.53725,245.70606L215.29961,242.85454L214.82433,240.00302L215.29961,234.5376L216.72544,231.92371L218.3889,230.02269
				L218.3889,228.83456L217.43835,227.88405L215.06197,227.64642L211.49741,226.93354L208.8834,225.03253L203.89301,222.89389L197.23916,220.04237
				L193.67459,218.14135L191.06058,216.00271L186.30783,212.67594L181.31744,207.44815L179.89162,204.359L179.65398,200.55698L179.41634,195.09156
				L178.22815,193.42817L175.61414,192.47767L173.4754,191.76479L170.38612,181.30921L163.73226,169.6655L164.68281,163.01195L170.38612,159.44755
				L179.1787,163.4872L183.93146,171.32889L187.02074,181.07158L192.96168,187.01225L200.56608,191.52716L205.55647,190.57665L210.7845,187.96276
				L214.5867,189.62614L220.52764,185.34886L227.8944,180.59633L232.64715,174.65566L237.16226,176.7943L240.25155,177.03193L246.9054,173.2299
				L251.18288,173.2299L254.5098,172.04177L263.54003,171.80414L273.75844,175.84379L287.30378,169.6655L295.85874,167.0516L300.13621,167.52686
				L310.11699,171.80414L317.00848,174.89329L324.1376,185.58649L324.1376,196.51732L335.06893,194.61631L344.33679,194.14105L353.60466,190.57665
				L363.58543,192.71529L372.37802,193.90343L382.12116,197.70545L390.91375,200.31935L407.31074,196.04207L419.19262,189.86377
				L405.40964,181.78446L394.47831,175.60617L377.36841,172.99227L364.06071,163.4872L364.77362,153.26925L353.84229,149.94248L
				344.81207,142.33842L330.55382,134.25911L324.61288,126.41743L324.1376,118.33812L308.9288,110.49644L302.03731,100.27849L283.97686,83.88224
				L271.85734,79.84259L263.30239,74.6148L250.46997,69.62464L243.34084,67.72362L235.73644,65.10973L227.18149,56.79279L229.32022,50.37687
				L229.55786,38.73316L233.83534,37.78265L234.78589,41.10943L234.78589,46.57484L234.07298,55.12941L238.11281,62.73346L248.33123,63.68397
				L255.22272,61.3077L264.49058,66.29786L271.14443,59.64431L278.98647,65.10973L287.77906,71.76328L292.76945,73.42667L300.61149,76.04056
				L309.87935,80.79309L318.67194,87.20902L324.37524,92.43681L329.8409,91.4863L331.50437,88.63478L327.70217,79.60496L311.54281,68.4365
				L315.10738,61.54533L324.85052,57.26805L331.742,55.12941L339.3464,57.50567L344.57443,62.97109L355.7434,71.52565L361.68433,74.6148
				L374.99204,80.08021L385.44809,87.68427L390.91375,94.57545L399.94398,99.56561L412.06349,110.25881L428.22284,121.18964L431.78741,129.98183
				L447.23385,139.72453L455.7888,135.44725L466.95776,125.94218L474.56216,129.98183L478.12673,133.78386L488.1075,140.43741L494.04844,143.28893
				L504.97977,144.00181L523.75313,149.46722L529.2188,159.20992L518.04983,168.23974L528.26825,171.80414L536.58556,176.55667L
				540.86304,179.64582"/>
		</g>
	</g>
</svg>
