<?xml version="1.0" encoding="utf-8" standalone="no"?>
<!-- Creator: Esri ArcMap 10.8.0.12790 -->
<!DOCTYPE svg PUBLIC "-//W3C//DTD SVG 1.1//EN"  "http://www.w3.org/Graphics/SVG/1.1/DTD/svg11.dtd">
<svg width="774.73701pt" height="404.24882pt" viewBox="0 0 774.73701 404.24882" enable-background="new 0 0 774.73701 404.24882"
	version="1.1" xmlns="http://www.w3.org/2000/svg" xmlns:xlink="http://www.w3.org/1999/xlink" >
	<g id="Layers">
		<g id="Hina">
			<clipPath id="SVG_CP_1">
				<path d="M0,404.24882L0,0L774.73701,0L774.73701,404.24882L0,404.24882z"/>
			</clipPath>
			<path clip-path="url(#SVG_CP_1)" fill="none" stroke="#000000" stroke-width="0.47528" stroke-miterlimit="10" stroke-linecap="round" stroke-linejoin="round" d="
				M625.22436,213.86407L623.79854,220.04237L619.99634,230.26032L618.33287,235.48811L616.90705,242.61691L615.48122,249.27046
				L614.76831,253.54774L608.58974,271.36975L607.63919,279.44906L606.92627,291.56802L607.63919,306.5385L605.50045,326.26152L
				607.87682,332.91507L607.87682,340.51913L609.54029,350.26183L610.2532,359.05402L610.49084,361.66791L612.86721,364.75706L615.48122,370.22247
				L621.6598,378.53941L627.60074,382.81669L616.90705,384.48008L610.96611,385.43058L604.07462,385.90584L595.99495,385.66821L
				591.00456,385.19296L587.43999,383.52957L580.31087,384.24245L572.94411,384.24245L564.86443,383.52957L553.45783,382.57906L
				544.66524,382.81669L534.44682,382.57906L525.17896,380.91568L515.67346,378.06416L510.92071,374.97501L503.07867,373.31162L
				496.66246,368.55909L489.05805,363.56892L480.97838,360.95503L477.65145,361.90554L456.73935,357.62825L447.47148,359.7669L435.58961,360.24215
				L424.89592,360.00452L417.29152,363.80655L409.92475,360.00452L400.41925,353.35097L389.9632,349.78657L377.84369,350.0242L353.36702,345.27166
				L345.52498,344.32116L337.68294,344.32116L329.8409,346.69742L322.94941,350.49945L316.05793,353.35097L306.79006,357.86588L
				287.77906,356.20249L277.08537,350.26183L271.14443,344.79641L265.67877,345.50929L257.83673,350.97471L247.38068,350.49945L
				255.69799,347.4103L259.50019,342.65777L258.78728,338.14286L254.5098,332.20219L251.65815,328.40017L251.42052,324.83576L252.6087,323.41
				L256.17327,319.37035L254.98508,315.80595L251.65815,312.00392L249.75705,308.43952L249.75705,304.87512L246.9054,300.12258L
				244.05375,296.08293L244.29139,290.61751L243.81611,286.34023L240.25155,283.01346L234.54825,281.5877L232.17188,279.44906L226.94385,276.12228
				L221.47819,273.74601L214.5867,273.74601L212.44796,272.79551L192.24877,255.68638L176.32705,241.42878L164.20754,229.78506L
				163.49463,228.59693L155.89023,223.13152L147.33527,214.1017L147.33527,211.01255L149.23637,207.68578L148.99874,207.21052L151.13747,204.12138
				L154.22676,200.31935L155.17731,187.24988L158.02896,175.36854L162.54408,163.4872L165.871,156.12077L164.44518,150.89298L158.97951,145.42757
				L154.93968,141.86317L153.03858,138.29877L149.47401,132.59573L148.99874,129.7442L156.84078,126.65506L204.84356,94.33782L224.80511,42.77281
				L230.03314,18.53489L263.06476,24.47556L339.3464,20.91115L405.64728,50.13924L476.46326,98.37747L532.78336,155.88315L593.61857,213.38882
				L625.22436,213.86407"/>
		</g>
	</g>
</svg>
