<?xml version="1.0" encoding="utf-8" standalone="no"?>
<!-- Creator: Esri ArcMap 10.8.0.12790 -->
<!DOCTYPE svg PUBLIC "-//W3C//DTD SVG 1.1//EN"  "http://www.w3.org/Graphics/SVG/1.1/DTD/svg11.dtd">
<svg width="774.73701pt" height="404.24882pt" viewBox="0 0 774.73701 404.24882" enable-background="new 0 0 774.73701 404.24882"
	version="1.1" xmlns="http://www.w3.org/2000/svg" xmlns:xlink="http://www.w3.org/1999/xlink" >
	<g id="Layers">
		<g id="Kaélé">
			<clipPath id="SVG_CP_1">
				<path d="M0,404.24882L0,0L774.73701,0L774.73701,404.24882L0,404.24882z"/>
			</clipPath>
			<path clip-path="url(#SVG_CP_1)" fill="none" stroke="#000000" stroke-width="0.47528" stroke-miterlimit="10" stroke-linecap="round" stroke-linejoin="round" d="
				M549.65563,153.98213L555.12129,184.63598L558.44822,202.45799L559.16113,203.88375L583.16252,207.44815L577.93449,228.59693
				L569.61718,245.94368L568.19135,245.94368L573.18174,273.98364L578.40977,290.14226L581.97433,306.30088L581.97433,314.14256
				L579.12268,320.79611L575.08284,322.22187L561.5375,321.98424L551.08145,311.05341L537.53611,302.73648L528.26825,299.88496L
				513.29708,305.11274L504.97977,314.14256L499.51411,330.30118L496.42482,348.83607L485.25585,363.3313L468.85886,379.25229L460.30391,385.90584
				L437.72835,381.39093L279.22411,382.81669L230.98369,382.10381L221.71582,383.52957L199.61553,381.39093L197.23916,380.44042
				L199.14026,337.42998L202.46718,333.1527L204.60592,325.78627L217.91362,316.51883L208.40812,301.54834L201.99191,298.93445L
				202.22955,295.60767L203.41773,286.57786L202.22955,277.31041L198.42734,261.1518L191.77349,255.68638L196.05097,239.76539L206.74466,235.72573
				L213.63615,229.30981L212.44796,218.61661L211.25977,210.5373L216.96307,190.57665L218.62654,182.49734L224.0922,165.15059L231.22133,144.00181
				L236.92463,125.2293L233.12243,111.9222L221.24055,91.72392L220.29,72.95141L220.52764,55.60466L223.61692,42.29756L226.70621,19.48539
				L225.9933,18.53489L240.48919,25.42606L258.07437,34.21825L273.04553,41.10943L275.89718,42.05993L304.65132,35.88164L328.17744,30.89148
				L336.49475,29.22809L338.39585,28.27758L338.39585,30.1786L340.77223,40.8718L341.96042,48.47586L346.95081,69.14938L349.80246,82.45648
				L354.55521,105.7439L356.93158,116.43711L358.59505,122.6154L381.17061,130.45708L407.54838,138.77402L438.44126,148.75434L467.90831,158.49704
				L499.75174,156.12077L526.84242,154.21976L548.2298,152.794L549.41799,153.03163L549.65563,153.98213"/>
		</g>
	</g>
</svg>
