<?xml version="1.0" encoding="utf-8" standalone="no"?>
<!-- Creator: Esri ArcMap 10.8.0.12790 -->
<!DOCTYPE svg PUBLIC "-//W3C//DTD SVG 1.1//EN"  "http://www.w3.org/Graphics/SVG/1.1/DTD/svg11.dtd">
<svg width="774.73701pt" height="404.24882pt" viewBox="0 0 774.73701 404.24882" enable-background="new 0 0 774.73701 404.24882"
	version="1.1" xmlns="http://www.w3.org/2000/svg" xmlns:xlink="http://www.w3.org/1999/xlink" >
	<g id="Layers">
		<g id="Kolofata">
			<clipPath id="SVG_CP_1">
				<path d="M0,404.24882L0,0L774.73701,0L774.73701,404.24882L0,404.24882z"/>
			</clipPath>
			<path clip-path="url(#SVG_CP_1)" fill="none" stroke="#000000" stroke-width="0.47528" stroke-miterlimit="10" stroke-linecap="round" stroke-linejoin="round" d="
				M538.01139,93.14969L535.39737,103.84289L528.50589,137.82351L518.52511,177.98243L495.23663,245.94368L450.0855,310.34053L370.47692,374.0245
				L347.18844,385.90584L344.09916,376.40077L322.47414,308.91477L324.37524,299.17208L330.31618,294.65717L331.742,289.66701L329.8409,284.43922
				L327.22689,278.9738L317.72139,268.51822L316.05793,265.6667L313.44391,255.44875L311.30518,252.12198L307.74061,246.65656L302.51259,237.15149
				L299.18566,236.43861L297.04692,234.06235L294.67055,232.63659L290.63071,230.02269L280.4123,224.08202L276.61009,223.8444L273.28317,220.99288
				L269.95624,220.04237L263.77767,219.32949L260.2131,214.57695L256.64854,211.48781L249.99469,208.63628L245.47958,206.9729L242.15265,206.26002
				L240.72683,205.30951L240.01391,204.59663L239.06336,203.64612L237.3999,202.45799L237.16226,201.98274L236.92463,201.50748L
				236.92463,201.26986L236.92463,200.7946L237.16226,200.08172L237.16226,199.84409L237.63754,199.13121L238.35045,197.70545L238.58809,197.46783
				L238.58809,196.75495L238.58809,195.80444L239.06336,194.85393L239.301,194.14105L239.53864,193.6658L239.77628,193.6658L240.25155,193.42817
				L240.96446,193.42817L241.2021,193.19055L241.43974,192.95292L241.43974,192.47767L241.43974,192.24004L241.43974,192.00241L
				241.2021,191.76479L241.2021,191.28953L241.43974,191.05191L241.43974,190.81428L241.67738,190.81428L242.62793,190.81428L243.1032,190.57665
				L243.34084,190.33902L244.05375,189.62614L244.05375,189.38852L245.0043,188.91326L245.0043,188.67564L245.0043,188.20038L245.24194,187.96276
				L245.47958,187.72513L245.47958,187.4875L246.19249,187.01225L246.66777,186.77462L247.14304,186.06174L247.14304,185.58649L
				247.38068,185.34886L247.85595,184.87361L249.28178,184.63598L249.51942,184.63598L249.75705,184.39836L249.99469,183.68548L
				250.23233,182.9726L250.23233,182.73497L250.7076,182.49734L251.18288,182.25972L251.42052,182.25972L251.89579,182.25972L252.13343,182.25972
				L252.6087,182.02209L253.32162,182.02209L253.55925,182.02209L254.03453,182.49734L254.27217,182.49734L254.74744,182.25972L
				254.98508,182.02209L255.22272,181.78446L255.46035,181.30921L255.46035,181.07158L256.4109,180.83396L256.64854,180.83396L256.88618,180.83396
				L257.83673,180.83396L258.312,180.59633L258.312,180.3587L258.312,179.64582L258.54964,179.40819L258.78728,179.40819L259.02492,179.40819
				L260.2131,179.17057L260.92602,179.17057L260.92602,178.93294L261.16365,178.93294L261.40129,178.69531L261.63893,177.98243L
				261.87657,177.74481L262.35184,177.74481L262.58948,177.98243L263.06476,177.98243L263.30239,178.22006L263.30239,178.45769L
				263.30239,178.93294L263.30239,179.17057L263.06476,179.64582L263.30239,179.64582L263.30239,179.88345L263.54003,179.88345L
				263.77767,179.64582L264.25294,179.17057L264.96586,178.69531L265.20349,178.45769L265.91641,178.22006L266.62932,177.50718L
				267.34223,176.55667L267.57987,175.60617L268.05514,173.2299L268.29278,172.99227L268.53042,172.75465L269.00569,172.51702L269.48097,172.51702
				L269.95624,172.51702L271.14443,172.75465L271.38207,172.75465L271.61971,172.75465L271.85734,172.75465L272.09498,172.27939
				L272.09498,172.04177L272.09498,171.80414L272.09498,171.56651L271.85734,170.85363L271.61971,170.14075L271.85734,169.6655L
				272.09498,168.95262L272.33262,168.47736L272.80789,167.28923L273.04553,167.0516L273.28317,166.81398L273.75844,166.81398L274.23372,166.57635
				L274.70899,166.33872L274.94663,166.33872L275.65954,165.62584L275.65954,165.38822L275.65954,165.15059L275.65954,164.67534
				L275.65954,164.20008L275.18427,163.4872L275.42191,163.24958L275.42191,163.01195L275.89718,162.77432L276.13482,162.5367L276.61009,162.06144
				L276.61009,161.82382L276.84773,160.39805L277.32301,159.44755L277.32301,159.20992L277.32301,158.97229L277.08537,158.73467
				L276.84773,158.49704L276.13482,158.49704L275.89718,158.49704L275.65954,158.49704L275.42191,158.25941L275.42191,157.78416
				L275.42191,157.54653L275.42191,157.30891L275.65954,157.07128L275.65954,156.83365L275.65954,156.3584L275.42191,155.88315L
				275.42191,155.64552L275.42191,155.17027L275.42191,154.69501L275.42191,153.74451L275.65954,153.03163L275.89718,152.55637L
				276.13482,152.31875L276.37246,152.08112L277.08537,151.84349L278.74883,151.13061L279.22411,150.89298L279.46175,150.41773L
				279.69938,150.1801L279.93702,149.2296L280.17466,147.80384L280.4123,146.37808L280.64993,144.47706L280.88757,144.23944L281.12521,144.00181
				L281.60048,144.00181L281.83812,144.23944L282.3134,144.71469L282.3134,144.95232L282.78867,144.95232L283.02631,144.71469L283.02631,144.47706
				L283.02631,144.23944L283.50158,144.23944L283.97686,144.47706L284.2145,144.47706L284.45213,143.76418L284.92741,143.76418L
				285.16505,143.0513L285.40268,143.0513L285.87796,143.0513L286.1156,143.0513L286.59087,142.57605L287.06615,142.33842L287.54142,142.1008
				L288.25433,141.86317L288.72961,141.62554L289.20488,141.62554L289.44252,141.86317L289.68016,141.86317L289.68016,141.62554
				L289.9178,141.38792L290.15543,141.38792L290.63071,141.38792L290.86835,141.38792L291.10598,141.38792L291.34362,141.15029L
				291.34362,140.91266L291.34362,140.43741L291.58126,139.96215L291.58126,139.4869L291.34362,139.01165L291.34362,138.77402L291.58126,137.82351
				L292.05653,137.58589L292.76945,137.58589L293.48236,136.87301L294.19527,136.87301L294.43291,136.63538L294.43291,136.39775
				L294.67055,136.39775L295.14582,136.63538L295.38346,136.63538L295.6211,136.63538L295.85874,136.39775L296.09637,136.39775L
				296.33401,135.68487L296.33401,135.44725L296.80929,135.44725L297.04692,134.97199L297.5222,134.97199L297.99747,133.78386L298.23511,133.54623
				L298.47275,133.54623L298.94802,133.07098L298.94802,132.83335L299.18566,132.59573L299.4233,132.12047L299.89857,131.88285L
				300.13621,131.64522L300.13621,131.16996L300.37385,130.93234L300.37385,130.69471L300.13621,129.50658L299.89857,128.31844L
				300.13621,127.60556L300.13621,127.13031L300.37385,126.65506L300.61149,125.94218L300.84912,125.46692L301.08676,125.2293L301.56204,125.2293
				L301.79967,124.99167L302.75022,124.51642L302.75022,124.27879L302.98786,123.80354L302.98786,123.09066L302.98786,122.6154L
				302.98786,122.37778L303.2255,122.14015L303.2255,121.6649L303.2255,121.42727L302.75022,120.00151L302.98786,119.52625L302.98786,118.81337
				L302.98786,118.57575L303.2255,118.33812L303.46314,118.33812L303.46314,117.86287L303.46314,117.62524L303.2255,117.38761L302.98786,117.14999
				L302.98786,116.91236L303.46314,116.67473L303.46314,116.19948L303.70077,116.19948L303.93841,115.96185L303.93841,115.72423
				L304.17605,115.4866L304.41369,115.4866L304.65132,115.4866L305.1266,115.4866L305.36424,115.4866L305.60187,115.24897L305.83951,115.01135
				L306.07715,114.77372L306.79006,115.01135L307.0277,114.77372L306.79006,114.53609L307.0277,114.29847L307.0277,113.58559L307.26534,113.34796
				L307.26534,113.11033L307.0277,113.11033L307.0277,112.87271L307.0277,112.63508L307.26534,111.68457L307.0277,111.44694L307.0277,111.20932
				L307.50297,110.97169L307.74061,110.97169L307.74061,110.73406L307.97825,110.49644L308.21589,110.49644L308.21589,110.25881
				L308.45353,110.25881L308.45353,110.02118L308.45353,109.54593L308.45353,109.3083L308.69116,109.3083L308.9288,109.3083L309.16644,109.07068
				L309.16644,108.83305L308.9288,108.83305L309.16644,108.59542L309.40408,108.59542L309.40408,108.3578L309.16644,108.3578L308.9288,108.12017
				L308.9288,107.88254L309.16644,107.88254L309.16644,107.64492L309.64171,107.88254L309.87935,107.64492L309.64171,107.40729L
				309.64171,107.16966L310.11699,106.93204L310.35463,106.93204L310.59226,107.16966L310.59226,107.64492L310.59226,107.88254L
				310.8299,107.88254L311.06754,107.88254L311.54281,107.16966L311.30518,107.16966L311.30518,106.93204L310.8299,106.45678L310.59226,106.45678
				L310.35463,106.21916L310.35463,105.98153L310.59226,105.7439L310.35463,105.7439L309.87935,105.50628L309.87935,105.26865L309.87935,105.03102
				L310.11699,105.03102L310.35463,104.7934L310.35463,104.55577L310.11699,104.08052L309.87935,103.84289L310.11699,103.60526L
				309.87935,103.13001L309.87935,102.89238L309.40408,102.65476L309.16644,102.41713L309.16644,102.1795L309.40408,101.94188L309.64171,101.94188
				L310.11699,101.70425L310.35463,100.75374L310.35463,100.27849L310.59226,100.04086L310.59226,100.27849L310.8299,100.04086L
				311.06754,100.04086L311.06754,99.80323L311.06754,99.32798L311.06754,98.85273L310.8299,98.85273L310.35463,98.85273L310.11699,98.85273
				L310.11699,98.6151L310.59226,98.13985L310.59226,97.90222L311.06754,97.90222L311.30518,97.42697L311.30518,97.18934L311.54281,96.95171
				L311.78045,96.47646L311.78045,96.00121L312.01809,95.76358L312.25573,95.52595L312.49336,95.52595L312.731,95.28833L312.96864,95.28833
				L313.20628,94.81307L313.44391,94.81307L313.44391,94.57545L313.20628,94.33782L313.20628,94.10019L313.44391,93.86257L313.44391,93.62494
				L313.44391,93.38731L313.91919,92.91206L314.15683,92.43681L314.39446,92.19918L314.39446,91.96155L314.6321,91.72392L315.10738,91.72392
				L315.34501,91.4863L315.34501,91.24867L315.58265,91.24867L315.82029,91.4863L316.05793,91.4863L316.29556,91.24867L316.5332,91.24867
				L316.77084,91.01104L317.00848,90.77342L317.48375,91.01104L317.95903,91.24867L318.4343,91.01104L318.4343,90.77342L318.67194,90.53579
				L318.67194,90.29816L318.67194,89.82291L318.67194,89.58528L318.67194,89.11003L319.14721,88.63478L319.38485,88.39715L319.14721,87.68427
				L319.38485,87.20902L319.62249,86.97139L320.3354,85.308L320.3354,84.83275L319.86013,84.3575L319.86013,83.88224L319.38485,83.16936
				L319.38485,82.93174L319.14721,82.45648L319.14721,82.21886L319.38485,81.98123L319.62249,81.98123L319.86013,81.7436L319.86013,80.79309
				L319.86013,80.08021L320.81068,76.75344L321.52359,75.80293L321.76123,75.56531L322.2365,74.85243L322.47414,74.37717L322.47414,74.13955
				L322.71178,73.90192L323.42469,73.42667L324.1376,72.71379L324.37524,72.47616L324.61288,72.23853L325.56343,71.28802L325.80107,70.57514
				L325.56343,69.86226L325.32579,69.62464L326.0387,68.67413L326.27634,68.4365L326.75162,67.96125L326.75162,67.72362L326.51398,67.72362
				L326.51398,67.24837L326.51398,66.77312L326.75162,66.53549L327.46453,66.53549L327.9398,66.77312L327.9398,67.01074L328.41508,67.24837
				L328.65272,67.24837L328.65272,67.01074L329.12799,66.29786L329.12799,66.06024L329.12799,65.58498L329.12799,65.10973L329.12799,64.63448
				L329.36563,63.68397L329.36563,62.97109L329.12799,62.49583L329.12799,62.25821L329.60327,61.78295L330.07854,61.54533L330.07854,61.07007
				L330.31618,60.59482L330.55382,60.35719L331.26673,60.11957L331.742,60.11957L332.21728,60.11957L332.69255,59.88194L332.69255,59.64431
				L332.69255,59.40669L332.69255,58.21855L332.69255,57.50567L332.93019,57.26805L332.93019,56.55517L332.45492,56.07991L331.742,56.07991
				L331.50437,56.07991L331.50437,55.84229L331.50437,55.60466L331.742,55.36703L332.69255,54.89178L333.88074,54.1789L334.11838,53.70365
				L333.88074,52.99077L333.6431,52.99077L333.40547,52.75314L333.16783,51.80263L333.16783,51.565L332.69255,50.85212L332.69255,50.13924
				L333.16783,49.66399L333.40547,49.42636L333.6431,49.18874L333.6431,48.95111L333.40547,48.95111L333.16783,48.71348L333.16783,48.47586
				L333.16783,48.23823L332.93019,48.23823L332.93019,48.0006L332.93019,47.52535L332.69255,47.28772L332.45492,47.28772L332.21728,47.28772
				L331.97964,47.0501L331.97964,46.81247L331.97964,46.57484L332.21728,46.57484L332.45492,46.57484L332.69255,46.33722L332.93019,46.09959
				L333.16783,46.09959L333.16783,45.38671L332.93019,45.14908L332.93019,44.91146L332.93019,44.67383L332.69255,44.4362L332.69255,44.19858
				L332.93019,43.96095L333.40547,44.19858L333.6431,43.72332L334.11838,43.72332L334.35602,43.24807L334.35602,43.01044L334.11838,43.01044
				L334.11838,42.77281L334.11838,42.29756L333.88074,42.29756L333.88074,42.05993L334.11838,42.05993L334.35602,42.05993L334.59365,41.82231
				L334.83129,41.58468L334.59365,41.10943L334.35602,40.8718L334.35602,40.63417L334.35602,40.15892L334.59365,40.15892L334.83129,39.68367
				L334.83129,39.44604L334.59365,39.20841L334.35602,38.97079L334.59365,38.73316L334.59365,38.49553L334.59365,38.25791L334.35602,38.25791
				L334.35602,38.02028L334.59365,38.02028L334.83129,37.78265L335.06893,37.06977L335.78184,36.59452L335.5442,36.35689L335.78184,36.11927
				L335.5442,35.88164L335.5442,35.64401L334.83129,34.93113L334.83129,34.69351L334.59365,34.45588L334.35602,34.21825L334.35602,33.743
				L334.11838,33.50537L334.11838,33.03012L333.88074,32.79249L333.6431,32.55486L333.6431,32.07961L333.6431,31.84198L333.88074,31.1291
				L334.11838,31.1291L334.35602,31.1291L334.59365,31.1291L335.06893,31.1291L335.78184,30.89148L335.78184,30.65385L335.78184,30.41622
				L336.01948,30.41622L336.25712,30.41622L336.25712,30.65385L336.49475,30.89148L336.73239,30.65385L336.97003,30.65385L337.20767,30.65385
				L337.20767,30.41622L337.4453,30.1786L337.4453,29.94097L337.68294,29.70334L337.92058,29.70334L337.92058,29.46572L337.68294,29.46572
				L337.4453,29.22809L337.20767,28.99046L337.20767,28.75284L337.4453,28.75284L337.4453,28.51521L337.68294,28.51521L337.92058,28.27758
				L338.39585,28.27758L338.39585,28.51521L338.63349,28.51521L338.87113,28.27758L339.10877,28.03996L339.10877,27.80233L338.87113,27.80233
				L338.87113,27.5647L339.10877,27.5647L339.58404,27.32708L339.82168,27.32708L339.82168,27.08945L339.82168,26.6142L339.3464,26.37657
				L339.3464,26.13894L339.58404,26.13894L339.82168,26.13894L340.05932,25.90132L340.29696,26.37657L340.29696,26.13894L340.53459,26.13894
				L340.53459,25.90132L340.77223,25.90132L340.77223,25.66369L340.77223,25.42606L340.53459,25.66369L340.29696,25.66369L340.29696,25.42606
				L340.05932,25.42606L340.05932,25.18844L340.29696,24.47556L340.53459,24.23793L340.29696,24.0003L339.82168,24.0003L339.58404,23.76268
				L339.58404,23.52505L339.82168,23.52505L339.82168,23.28742L340.29696,23.28742L340.29696,23.52505L340.53459,23.52505L340.77223,23.52505
				L341.00987,23.52505L341.00987,23.28742L341.24751,23.04979L341.00987,23.04979L341.00987,22.57454L341.24751,22.33691L341.24751,22.57454
				L341.72278,22.57454L342.19806,22.33691L342.43569,22.09929L342.43569,21.86166L342.67333,21.86166L342.43569,21.62403L342.67333,21.62403
				L342.91097,21.62403L343.14861,21.38641L343.38624,20.91115L343.62388,20.67353L343.86152,20.4359L343.86152,20.19827L344.09916,20.19827
				L344.57443,19.96065L344.57443,19.72302L344.81207,19.72302L344.81207,19.48539L345.04971,19.24777L345.28734,19.01014L345.52498,18.77251
				L345.52498,19.01014L345.76262,19.01014L345.76262,18.77251L346.00026,18.77251L346.23789,18.53489L346.47553,18.53489L346.95081,18.53489
				L346.71317,18.77251L346.95081,19.01014L346.95081,19.24777L346.95081,19.48539L346.47553,19.72302L346.47553,19.96065L346.23789,19.96065
				L346.00026,20.19827L345.76262,20.4359L346.00026,20.67353L346.00026,20.91115L346.23789,20.91115L346.95081,20.91115L347.18844,20.91115
				L347.42608,20.91115L347.90136,20.67353L348.13899,20.67353L348.61427,20.4359L348.85191,20.4359L348.85191,20.19827L349.08954,19.96065
				L349.08954,19.48539L349.32718,19.48539L349.56482,19.48539L349.80246,19.48539L350.04009,19.48539L350.27773,19.48539L350.27773,19.24777
				L350.51537,19.24777L350.75301,19.01014L350.99064,19.24777L351.22828,19.48539L351.70356,19.72302L351.70356,19.48539L351.94119,19.48539
				L352.17883,19.24777L352.41647,18.53489L352.65411,18.53489L352.89174,18.77251L352.89174,19.24777L353.12938,19.48539L353.12938,19.72302
				L353.12938,19.96065L353.36702,19.96065L353.60466,19.72302L353.84229,19.72302L353.84229,19.48539L354.07993,19.24777L354.07993,19.48539
				L354.31757,19.48539L354.55521,19.48539L354.31757,20.19827L355.26812,20.4359L355.50576,20.19827L355.7434,20.19827L356.21867,20.4359
				L356.45631,20.4359L356.69395,20.67353L356.93158,20.91115L356.93158,21.14878L357.16922,21.62403L356.93158,21.86166L357.16922,22.09929
				L357.88213,21.86166L358.11977,22.09929L358.35741,22.33691L358.83268,22.09929L359.07032,22.09929L359.30796,21.62403L359.5456,21.38641
				L359.30796,21.38641L359.30796,21.14878L359.30796,20.91115L359.30796,20.67353L359.78323,20.91115L360.02087,21.14878L360.25851,21.14878
				L360.73378,20.91115L360.97142,20.91115L360.97142,20.67353L360.97142,20.4359L360.73378,19.96065L360.97142,19.96065L361.20906,20.19827
				L361.20906,21.14878L360.97142,21.38641L360.97142,21.62403L361.4467,21.86166L361.68433,21.86166L361.68433,21.62403L361.92197,21.38641
				L362.39725,20.91115L362.63488,20.91115L362.87252,20.91115L363.11016,20.91115L363.3478,21.14878L363.58543,21.86166L363.3478,22.09929
				L362.87252,22.57454L362.87252,22.81217L362.87252,23.28742L362.87252,23.52505L362.87252,23.76268L363.3478,23.76268L363.58543,23.76268
				L364.06071,23.52505L364.53598,23.28742L365.01126,23.04979L365.2489,23.04979L365.48653,22.81217L365.96181,22.81217L366.19945,23.04979
				L366.43708,23.28742L366.91236,23.28742L367.15,23.28742L367.62527,22.81217L367.86291,22.81217L368.33818,22.81217L369.0511,22.81217
				L369.76401,22.81217L370.71456,23.28742L370.9522,23.52505L371.18984,23.76268L371.42747,23.76268L371.90275,23.76268L372.14039,24.0003
				L372.61566,24.0003L374.99204,24.47556L375.46731,24.71318L375.70495,25.42606L375.94259,26.13894L375.70495,26.6142L375.94259,26.85182
				L375.94259,27.08945L376.18022,27.08945L376.6555,27.32708L376.89314,27.32708L377.13077,27.32708L377.36841,26.85182L377.13077,26.37657
				L377.13077,26.13894L377.13077,25.90132L377.13077,25.18844L377.60605,24.71318L378.08132,24.47556L378.31896,24.71318L379.03187,25.42606
				L379.03187,25.90132L379.03187,26.37657L379.26951,27.08945L379.74479,27.32708L379.98242,27.5647L379.74479,27.80233L379.74479,28.27758
				L379.74479,28.51521L379.74479,28.75284L379.98242,28.75284L380.22006,28.51521L380.69534,28.51521L380.93297,28.51521L380.93297,28.75284
				L380.69534,29.46572L380.93297,29.70334L381.17061,29.70334L381.40825,29.46572L381.40825,29.70334L381.64589,29.94097L381.88352,29.94097
				L382.12116,29.94097L382.59644,29.94097L382.83407,29.70334L383.07171,29.70334L383.30935,29.70334L383.54699,29.70334L383.78462,29.46572
				L384.2599,29.46572L384.49754,29.46572L384.73517,29.46572L384.97281,29.46572L384.97281,29.70334L384.73517,29.94097L384.97281,30.41622
				L385.21045,30.41622L385.44809,30.41622L385.68572,30.1786L385.92336,30.1786L386.39864,30.1786L386.63628,30.1786L387.11155,30.41622
				L387.34919,30.41622L387.58683,30.65385L387.58683,30.89148L387.82446,31.1291L387.82446,31.36673L387.82446,31.60436L388.0621,31.84198
				L387.82446,32.07961L387.58683,32.07961L387.34919,32.07961L387.34919,32.31724L387.82446,32.55486L387.58683,32.55486L387.58683,32.79249
				L387.34919,32.79249L387.34919,33.03012L387.34919,33.26775L387.58683,33.26775L387.82446,33.26775L388.0621,33.03012L388.0621,32.79249
				L388.29974,32.55486L388.53738,32.31724L388.29974,32.07961L388.29974,31.84198L388.53738,31.84198L388.77501,31.84198L389.01265,31.84198
				L389.01265,32.07961L389.25029,32.31724L389.25029,32.55486L389.25029,33.03012L389.48793,33.03012L389.72556,33.03012L389.72556,32.79249
				L389.9632,32.79249L390.20084,33.03012L390.43848,33.03012L390.43848,33.26775L390.20084,33.26775L390.43848,33.50537L390.91375,33.26775
				L391.15139,33.26775L391.38903,33.50537L391.62666,33.50537L391.62666,33.743L391.8643,33.98063L391.8643,34.21825L392.10194,34.21825
				L392.33958,34.45588L392.57721,34.21825L392.57721,33.98063L392.81485,33.98063L392.81485,34.21825L393.05249,34.45588L393.05249,34.21825
				L393.29013,33.98063L393.52776,33.98063L393.7654,34.21825L394.00304,34.21825L394.00304,34.45588L394.00304,34.69351L394.24068,34.69351
				L394.24068,34.93113L394.47831,34.93113L394.47831,35.16876L394.24068,35.40639L394.47831,35.88164L394.71595,35.88164L394.95359,35.88164
				L417.52916,45.38671L423.94537,48.23823L424.18301,48.0006L424.42064,47.76298L424.65828,47.76298L424.89592,47.52535L425.37119,47.52535
				L425.60883,47.52535L425.60883,47.28772L425.84647,47.28772L426.08411,47.28772L426.08411,47.52535L426.32174,47.76298L426.32174,48.0006
				L426.55938,48.0006L426.79702,47.76298L426.79702,47.52535L427.03466,47.52535L427.03466,47.76298L427.27229,47.76298L427.27229,48.0006
				L427.50993,48.0006L427.74757,47.76298L428.22284,47.76298L428.93576,48.23823L429.17339,48.23823L429.41103,48.23823L430.59922,48.0006
				L430.83686,48.23823L431.07449,48.23823L431.07449,48.47586L431.54977,48.47586L432.26268,48.71348L432.50032,48.71348L432.50032,48.95111
				L432.73796,49.18874L432.50032,49.42636L432.73796,49.66399L432.9756,49.66399L433.21323,49.90162"/>
			<path clip-path="url(#SVG_CP_1)" fill="none" stroke="#000000" stroke-width="0.47528" stroke-miterlimit="10" stroke-linecap="round" stroke-linejoin="round" d="
				M433.21323,49.90162L433.45087,49.90162L433.68851,49.90162L433.92615,50.13924L434.16378,50.13924L434.16378,49.90162L434.40142,49.90162
				L434.63906,49.90162L434.63906,50.13924L434.8767,50.37687L435.35197,50.6145L435.58961,50.6145L435.82725,50.6145L436.30252,50.6145
				L436.54016,50.85212L436.7778,50.85212L437.49071,51.08975L437.72835,51.565L437.49071,51.80263L437.49071,52.04026L437.96598,52.04026
				L438.20362,52.27788L438.91653,52.27788L439.15417,52.51551L439.62945,52.51551L439.62945,52.75314L439.62945,53.22839L439.86708,53.22839
				L439.86708,52.99077L440.34236,52.99077L440.81763,52.99077L440.81763,53.22839L441.05527,53.22839L441.05527,52.99077L441.05527,52.75314
				L441.05527,52.51551L441.29291,52.51551L441.53055,52.99077L441.53055,53.22839L441.29291,53.46602L441.29291,53.70365L441.53055,53.70365
				L441.53055,53.46602L441.76818,53.70365L442.24346,53.46602L442.71873,53.46602L442.71873,53.94127L443.19401,53.94127L443.19401,53.70365
				L443.43165,53.46602L443.43165,53.22839L443.66928,52.99077L444.14456,52.75314L444.3822,52.99077L444.3822,53.46602L444.3822,53.70365
				L444.3822,53.94127L444.3822,54.1789L444.61983,54.1789L444.85747,54.1789L445.33275,54.1789L445.57038,54.1789L445.33275,54.41653
				L445.57038,54.65415L445.57038,54.89178L446.2833,54.65415L446.04566,54.41653L446.04566,54.1789L446.04566,53.94127L446.2833,54.1789
				L446.52093,54.1789L446.75857,54.1789L446.52093,53.94127L446.52093,53.70365L446.99621,53.94127L447.47148,53.94127L447.70912,54.41653
				L447.94676,55.12941L447.94676,55.60466L447.94676,56.31754L447.70912,57.26805L447.70912,57.7433L447.70912,58.21855L447.94676,58.69381
				L448.65967,59.16906L449.37259,59.40669L449.61022,59.88194L449.61022,60.59482L449.61022,62.25821L450.32314,62.25821L451.03605,62.25821
				L453.65006,62.25821L454.12534,62.25821L454.83825,62.25821L456.02644,62.25821L457.21462,62.73346L457.6899,62.97109L459.35336,63.44634
				L459.591,63.68397L459.82864,63.9216L460.06627,64.15922L461.01682,64.39685L461.4921,64.39685L462.20501,64.63448L462.68029,64.8721
				L463.86847,65.58498L464.34375,64.8721L464.34375,62.97109L464.58139,62.25821L465.05666,61.54533L468.85886,59.64431L470.9976,58.21855
				L471.47288,57.7433L472.18579,56.79279L472.42343,56.31754L473.84925,55.36703L474.32453,55.12941L474.56216,54.89178L475.03744,54.65415
				L475.27508,54.65415L475.75035,54.89178L476.46326,55.36703L477.17618,55.84229L478.12673,56.07991L478.602,56.31754L478.83964,56.31754
				L479.07728,56.31754L479.31491,56.31754L479.55255,56.31754L479.79019,56.55517L481.45365,59.16906L481.45365,59.88194L482.16657,60.83245
				L482.4042,61.07007L482.87948,61.3077L483.59239,62.02058L484.3053,62.25821L484.78058,62.25821L485.25585,62.25821L485.25585,62.49583
				L485.73113,63.20872L485.25585,64.15922L485.49349,64.8721L485.96877,65.34736L486.2064,66.06024L486.2064,66.77312L486.68168,67.01074
				L487.15695,67.24837L487.63223,67.486L488.1075,67.24837L488.34514,67.24837L488.82042,67.24837L489.53333,67.72362L490.0086,67.72362
				L490.48388,68.19888L491.19679,68.19888L492.14734,68.67413L493.09789,68.91176L493.33553,68.91176L494.28608,70.09989L494.99899,70.81277
				L495.71191,72.0009L495.71191,72.47616L496.18718,73.18904L496.18718,73.66429L496.18718,73.90192L495.94954,74.6148L495.94954,74.85243
				L495.71191,76.04056L496.66246,76.27819L497.37537,76.75344L499.75174,77.70395L501.41521,78.65445L503.07867,79.36733L505.21741,80.08021
				L505.69268,80.08021L506.16796,80.31784L506.88087,80.08021L507.35614,80.08021L507.83142,80.08021L509.25724,80.08021L509.73252,80.31784
				L509.97016,80.31784L511.87126,80.55547L512.34653,80.79309L512.58417,80.79309L513.05945,80.79309L513.77236,80.55547L514.24763,80.79309
				L514.72291,80.79309L516.38637,81.03072L516.86165,80.79309L517.33692,81.26835L518.52511,81.7436L519.7133,82.21886L520.18857,82.21886
				L521.85203,82.45648L523.75313,82.69411L525.4166,82.93174L526.84242,83.64462L527.08006,84.11987L527.08006,84.3575L528.50589,86.25851
				L528.98116,86.97139L529.45644,87.20902L531.1199,88.39715L533.25864,90.06054L537.29847,92.67443L538.01139,93.14969"/>
		</g>
	</g>
</svg>
