<?xml version="1.0" encoding="utf-8" standalone="no"?>
<!-- Creator: Esri ArcMap 10.8.0.12790 -->
<!DOCTYPE svg PUBLIC "-//W3C//DTD SVG 1.1//EN"  "http://www.w3.org/Graphics/SVG/1.1/DTD/svg11.dtd">
<svg width="774.73701pt" height="404.24882pt" viewBox="0 0 774.73701 404.24882" enable-background="new 0 0 774.73701 404.24882"
	version="1.1" xmlns="http://www.w3.org/2000/svg" xmlns:xlink="http://www.w3.org/1999/xlink" >
	<g id="Layers">
		<g id="Kousséri">
			<clipPath id="SVG_CP_1">
				<path d="M0,404.24882L0,0L774.73701,0L774.73701,404.24882L0,404.24882z"/>
			</clipPath>
			<path clip-path="url(#SVG_CP_1)" fill="none" stroke="#000000" stroke-width="0.47528" stroke-miterlimit="10" stroke-linecap="round" stroke-linejoin="round" d="
				M609.30265,315.56832L592.66802,318.41984L576.74631,316.51883L567.00317,316.2812L562.96333,321.74662L562.72569,335.76659L
				569.37954,357.39063L575.55812,371.64823L573.65702,377.82653L565.57734,385.43058L550.36854,385.90584L535.15974,380.2028L506.88087,363.80655
				L476.93854,337.90523L456.73935,318.65747L449.37259,316.04357L435.11433,315.80595L431.31213,311.05341L418.95498,288.7165L
				414.20223,283.01346L391.38903,269.94399L385.68572,266.61721L379.98242,271.36975L372.8533,276.59753L365.48653,276.59753L360.97142,268.51822
				L353.12938,263.52806L344.33679,257.11214L338.15822,249.03283L331.02909,247.36944L317.48375,244.04267L305.36424,243.80504
				L298.94802,243.56742L292.05653,234.06235L286.59087,227.64642L281.36285,210.06204L284.2145,195.32919L285.87796,185.82412L
				280.4123,179.40819L264.72822,172.75465L259.97547,168.71499L259.97547,160.87331L259.26255,159.20992L254.5098,155.17027L246.66777,148.75434
				L242.86556,139.24927L239.06336,135.20962L232.64715,134.25911L226.94385,134.97199L219.57709,141.15029L212.44796,144.95232
				L206.03175,143.0513L197.23916,140.67503L190.82294,140.43741L186.07019,141.15029L178.22815,138.53639L171.09903,133.78386L
				164.68281,133.54623L153.27621,136.39775L144.48362,134.73437L141.39434,130.69471L138.54269,118.81337L137.11686,106.93204L
				138.06741,100.04086L145.43417,96.23883L145.43417,92.19918L140.91906,80.31784L136.64158,70.81277L183.93146,72.71379L210.54686,67.01074
				L227.41912,61.07007L236.44935,53.22839L240.48919,49.66399L247.14304,36.35689L256.17327,27.08945L263.06476,18.53489L285.64032,38.49553
				L302.98786,49.42636L316.77084,65.34736L339.3464,91.96155L368.81346,105.03102L385.92336,105.50628L405.64728,98.37747L430.59922,83.16936
				L440.10472,75.09005L456.26407,53.46602L466.95776,42.77281L476.93854,38.25791L496.42482,38.02028L523.04022,47.28772L554.64601,68.4365
				L576.03339,85.308L570.56773,114.77372L570.33009,115.4866L567.95372,136.16013L569.61718,146.37808L573.65702,155.88315L579.59796,162.06144
				L586.01417,164.91296L600.98533,166.81398L609.77792,172.27939L616.90705,179.88345L621.6598,188.43801L624.98673,193.6658L632.59113,198.89359
				L637.10624,205.30951L638.29443,213.15119L636.8686,219.32949L635.68042,222.41864L631.87821,235.25048L629.50184,244.2803L628.55129,254.02299
				L628.55129,264.7162L628.07601,268.99348L624.74909,270.65687L614.0554,269.70636L599.79715,269.2311L586.96472,271.36975L582.44961,272.08263
				L577.45922,272.79551L575.55812,276.59753L578.40977,283.01346L589.81637,292.99378L609.30265,315.56832"/>
		</g>
	</g>
</svg>
