<?xml version="1.0" encoding="utf-8" standalone="no"?>
<!-- Creator: Esri ArcMap 10.8.0.12790 -->
<!DOCTYPE svg PUBLIC "-//W3C//DTD SVG 1.1//EN"  "http://www.w3.org/Graphics/SVG/1.1/DTD/svg11.dtd">
<svg width="774.73701pt" height="404.24882pt" viewBox="0 0 774.73701 404.24882" enable-background="new 0 0 774.73701 404.24882"
	version="1.1" xmlns="http://www.w3.org/2000/svg" xmlns:xlink="http://www.w3.org/1999/xlink" >
	<g id="Layers">
		<g id="Koza">
			<clipPath id="SVG_CP_1">
				<path d="M0,404.24882L0,0L774.73701,0L774.73701,404.24882L0,404.24882z"/>
			</clipPath>
			<path clip-path="url(#SVG_CP_1)" fill="none" stroke="#000000" stroke-width="0.47528" stroke-miterlimit="10" stroke-linecap="round" stroke-linejoin="round" d="
				M510.20779,136.87301L510.44543,143.0513L511.87126,153.74451L513.53472,162.06144L514.72291,168.47736L516.62401,178.45769L
				519.95093,182.49734L520.42621,189.86377L520.18857,201.50748L521.13912,207.9234L522.56495,212.91357L528.26825,223.60677L529.45644,224.31965
				L535.63501,237.38912L538.01139,244.75555L544.90288,250.22097L553.45783,253.54774L563.20097,258.30027L567.47844,256.63689
				L573.18174,261.1518L573.89466,271.13212L572.46883,276.83516L570.33009,288.24124L570.09245,297.27106L566.52789,305.11274L
				566.29025,315.80595L566.76553,319.37035L567.47844,332.91507L561.06223,328.87542L553.9331,324.12288L548.94271,322.93475L539.91249,317.70696
				L532.78336,318.41984L525.4166,320.08323L519.00038,322.93475L509.25724,323.64763L490.0086,326.73678L464.34375,332.67745L443.66928,338.61812
				L429.17339,345.74692L427.27229,348.12319L422.04427,347.88556L411.58822,350.97471L401.84508,355.96487L399.4687,354.06385L
				393.7654,348.59844L391.38903,354.53911L388.0621,358.34114L379.98242,361.43028L371.42747,361.90554L358.11977,357.86588L344.57443,354.06385
				L341.24751,355.25199L334.35602,363.56892L325.80107,370.22247L321.04831,374.26213L317.24611,379.96517L314.39446,380.44042
				L308.9288,380.67805L301.08676,385.43058L295.14582,385.90584L286.82851,385.19296L278.27356,381.86618L273.52081,380.44042L
				273.28317,380.67805L266.62932,378.30178L260.68838,375.21263L258.54964,368.08383L259.02492,363.09367L261.87657,357.86588L
				273.75844,346.69742L280.64993,341.23201L280.64993,335.76659L279.69938,330.30118L272.57026,324.83576L268.29278,318.41984L
				265.67877,310.34053L265.91641,304.39986L271.61971,296.79581L274.23372,292.04327L273.52081,287.76599L268.05514,283.48871L
				261.63893,283.48871L254.27217,281.82532L247.61832,281.11244L242.62793,278.73617L235.4988,276.59753L230.03314,275.88465L223.14165,271.36975
				L216.72544,269.46873L210.07158,264.00332L203.41773,258.06265L201.04136,255.92401L201.75427,252.59723L204.36828,238.57725
				L207.45757,227.4088L211.02213,222.18101L213.87378,215.28983L216.25016,207.68578L217.67599,201.26986L217.91362,196.04207L
				215.29961,194.14105L213.39851,189.38852L215.77489,184.63598L218.62654,180.59633L221.00291,171.09126L223.37929,162.77432L
				235.02353,159.20992L241.2021,157.78416L252.13343,156.12077L266.39168,165.86347L273.04553,168.23974L283.02631,170.616L287.06615,167.52686
				L295.6211,166.81398L301.79967,167.28923L306.55242,167.52686L309.64171,165.38822L312.731,165.86347L315.82029,164.20008L320.3354,164.20008
				L326.0387,166.81398L327.22689,169.42787L330.79145,169.42787L339.58404,169.19024L344.57443,164.43771L348.37663,163.72483L
				350.99064,164.20008L355.50576,161.58619L359.07032,158.25941L370.47692,158.49704L374.51676,156.83365L374.04149,154.21976L
				378.08132,153.74451L379.03187,155.17027L381.17061,154.21976L381.17061,152.08112L383.30935,151.60587L385.21045,149.94248L
				408.02365,158.97229L410.8753,166.57635L418.71734,171.56651L425.37119,173.46753L427.03466,172.27939L427.74757,170.85363L430.59922,170.14075
				L432.26268,169.6655L434.63906,168.23974L435.35197,166.81398L435.82725,165.62584L436.06488,165.15059L437.25307,164.91296L
				437.49071,165.38822L438.20362,166.1011L439.39181,166.81398L440.10472,166.81398L441.05527,166.1011L441.53055,164.91296L441.76818,163.96246
				L442.00582,163.4872L442.24346,162.77432L443.19401,162.29907L443.66928,162.29907L444.3822,163.01195L444.61983,163.4872L444.85747,164.20008
				L446.04566,164.91296L447.47148,164.20008L448.65967,163.24958L449.13495,162.29907L450.79841,160.87331L451.9866,159.44755L
				452.22424,157.78416L452.46187,155.88315L452.22424,153.26925L451.9866,152.55637L452.46187,151.60587L452.93715,150.41773L453.8877,149.46722
				L454.83825,147.56621L454.36297,147.09096L453.41242,146.6157L452.46187,145.90282L451.74896,144.95232L451.51132,142.81368L
				451.51132,141.62554L450.79841,139.4869L450.56077,137.58589L450.79841,136.63538L451.27369,134.97199L451.74896,133.54623L451.74896,132.59573
				L451.27369,131.40759L450.79841,130.69471L451.03605,129.50658L451.74896,129.03132L452.93715,128.08082L454.60061,127.36794
				L457.45226,126.41743L459.11572,125.70455L460.54155,125.2293L461.4921,124.99167L462.68029,124.75404L463.15556,123.80354L463.3932,122.85303
				L463.3932,121.6649L462.68029,120.71439L461.4921,120.95201L458.64045,121.90252L457.45226,121.42727L456.97699,120.47676L456.97699,119.76388
				L457.92754,118.57575L458.64045,117.62524L460.54155,116.91236L462.68029,115.01135L463.63084,113.11033L463.86847,111.68457
				L463.3932,110.49644L462.68029,108.3578L462.20501,107.16966L462.20501,105.26865L462.68029,104.08052L463.63084,102.89238L465.2943,101.46662
				L466.24485,100.51611L466.48249,100.04086L466.48249,99.09035L466.00721,97.90222L465.2943,96.95171L464.81903,95.76358L464.58139,95.0507
				L464.81903,94.33782L465.76958,93.86257L466.72013,94.33782L467.1954,94.81307L467.67068,95.0507L468.38359,95.28833L469.0965,95.0507
				L469.57178,94.57545L469.80941,94.10019L469.57178,92.19918L469.57178,91.72392L469.0965,91.24867L468.62123,91.01104L467.43304,90.77342
				L466.00721,90.53579L465.2943,90.29816L464.58139,89.82291L464.10611,89.58528L463.63084,89.11003L463.15556,88.39715L462.68029,87.44664
				L462.20501,86.73376L461.72974,86.25851L461.01682,85.78326L459.82864,85.308L459.11572,84.59512L458.40281,84.11987L457.6899,83.40699
				L457.21462,82.93174L456.02644,81.7436L455.7888,80.79309L455.55116,79.84259L455.55116,70.33752L455.55116,64.15922L460.06627,54.89178
				L459.82864,50.85212L456.73935,44.19858L458.64045,42.05993L462.91792,41.82231L463.63084,38.02028L463.15556,31.84198L466.00721,26.6142
				L470.28469,23.76268L471.71051,20.67353L476.7009,18.53489L479.07728,18.53489L476.46326,31.60436L505.93032,123.80354L510.20779,136.87301
				"/>
		</g>
	</g>
</svg>
