<?xml version="1.0" encoding="utf-8" standalone="no"?>
<!-- Creator: Esri ArcMap 10.8.0.12790 -->
<!DOCTYPE svg PUBLIC "-//W3C//DTD SVG 1.1//EN"  "http://www.w3.org/Graphics/SVG/1.1/DTD/svg11.dtd">
<svg width="774.73701pt" height="404.24882pt" viewBox="0 0 774.73701 404.24882" enable-background="new 0 0 774.73701 404.24882"
	version="1.1" xmlns="http://www.w3.org/2000/svg" xmlns:xlink="http://www.w3.org/1999/xlink" >
	<g id="Layers">
		<g id="Logone-Birni">
			<clipPath id="SVG_CP_1">
				<path d="M0,404.24882L0,0L774.73701,0L774.73701,404.24882L0,404.24882z"/>
			</clipPath>
			<path clip-path="url(#SVG_CP_1)" fill="none" stroke="#000000" stroke-width="0.47528" stroke-miterlimit="10" stroke-linecap="round" stroke-linejoin="round" d="
				M-38.73492,57.98093L-27.32832,60.83245L-7.84204,76.99107L-1.42583,82.69411L11.4066,76.51581L25.90249,72.23853L35.40799,71.76328
				L49.90388,71.0504L67.48906,67.486L81.98495,67.01074L104.56052,68.67413L136.64158,70.81277L140.91906,80.31784L145.43417,92.19918
				L145.43417,96.23883L138.06741,100.04086L137.11686,106.93204L138.54269,118.81337L141.39434,130.69471L144.48362,134.73437L
				153.27621,136.39775L164.68281,133.54623L171.09903,133.78386L178.22815,138.53639L186.07019,141.15029L190.82294,140.43741L
				197.23916,140.67503L206.03175,143.0513L212.44796,144.95232L219.57709,141.15029L226.94385,134.97199L232.64715,134.25911L239.06336,135.20962
				L242.86556,139.24927L246.66777,148.75434L254.5098,155.17027L259.26255,159.20992L259.97547,160.87331L259.97547,168.71499L
				264.72822,172.75465L280.4123,179.40819L285.87796,185.82412L284.2145,195.32919L281.36285,210.06204L286.59087,227.64642L292.05653,234.06235
				L298.94802,243.56742L305.36424,243.80504L317.48375,244.04267L331.02909,247.36944L338.15822,249.03283L344.33679,257.11214
				L353.12938,263.52806L360.97142,268.51822L365.48653,276.59753L372.8533,276.59753L379.98242,271.36975L385.68572,266.61721L
				391.38903,269.94399L414.20223,283.01346L418.95498,288.7165L431.31213,311.05341L435.11433,315.80595L449.37259,316.04357L456.73935,318.65747
				L476.93854,337.90523L506.88087,363.80655L535.15974,380.2028L550.36854,385.90584L565.57734,385.43058L573.65702,377.82653L
				575.55812,371.64823L569.37954,357.39063L562.72569,335.76659L562.96333,321.74662L567.00317,316.2812L576.74631,316.51883L592.66802,318.41984
				L609.30265,315.56832L614.0554,319.13272L616.90705,327.44966L621.18453,338.61812L633.0664,350.73708L649.70103,356.44012L661.82054,358.10351
				L680.59391,355.72724L691.04996,355.25199L696.75326,356.67775L702.93184,361.90554L705.30821,367.60858L706.73404,380.2028L
				706.73404,397.07429L699.84255,408.48038L687.72304,421.54985L683.44556,424.639"/>
		</g>
	</g>
</svg>
