<?xml version="1.0" encoding="utf-8" standalone="no"?>
<!-- Creator: Esri ArcMap 10.8.0.12790 -->
<!DOCTYPE svg PUBLIC "-//W3C//DTD SVG 1.1//EN"  "http://www.w3.org/Graphics/SVG/1.1/DTD/svg11.dtd">
<svg width="774.73701pt" height="404.24882pt" viewBox="0 0 774.73701 404.24882" enable-background="new 0 0 774.73701 404.24882"
	version="1.1" xmlns="http://www.w3.org/2000/svg" xmlns:xlink="http://www.w3.org/1999/xlink" >
	<g id="Layers">
		<g id="Makary">
			<clipPath id="SVG_CP_1">
				<path d="M0,404.24882L0,0L774.73701,0L774.73701,404.24882L0,404.24882z"/>
			</clipPath>
			<path clip-path="url(#SVG_CP_1)" fill="none" stroke="#000000" stroke-width="0.47528" stroke-miterlimit="10" stroke-linecap="round" stroke-linejoin="round" d="
				M495.71191,378.77704L494.76135,378.06416L494.04844,377.5889L493.8108,377.11365L493.57317,376.63839L493.33553,376.40077L493.09789,375.68789
				L492.86025,375.45026L492.14734,374.97501L491.9097,374.73738L491.19679,374.73738L490.48388,374.73738L489.53333,374.97501L
				488.34514,375.21263L487.39459,375.45026L486.68168,376.16314L485.96877,376.87602L485.25585,377.5889L484.54294,377.5889L483.83003,377.5889
				L482.87948,377.35127L482.16657,377.11365L481.45365,376.63839L481.21602,376.40077L480.97838,375.92551L480.74074,375.45026
				L480.26547,375.21263L480.02783,375.21263L479.55255,375.21263L479.31491,375.68789L479.07728,376.16314L479.07728,377.11365
				L479.07728,377.5889L479.07728,378.30178L478.83964,378.77704L478.36436,379.25229L478.12673,379.48992L477.88909,379.72754L
				477.17618,379.72754L476.7009,379.72754L475.98799,379.48992L475.75035,379.25229L475.27508,378.30178L475.03744,377.82653L474.56216,377.35127
				L473.84925,377.11365L473.37398,377.11365L472.66106,377.35127L471.94815,377.5889L471.47288,378.30178L470.9976,378.77704L470.04705,379.01466
				L469.33414,379.48992L468.85886,380.2028L468.85886,380.67805L469.0965,381.39093L469.57178,381.86618L470.04705,382.34144L470.75996,382.57906
				L471.23524,383.29194L471.47288,383.7672L471.71051,384.48008L471.47288,384.95533L471.23524,385.43058L470.9976,385.66821L470.9976,385.90584
				L470.52233,385.90584L469.57178,385.90584L468.38359,385.90584L467.1954,385.66821L466.24485,385.19296L465.2943,384.7177L464.34375,384.24245
				L463.63084,383.7672L463.15556,383.52957L462.91792,383.29194L462.44265,383.05432L461.96737,383.29194L461.72974,383.29194L
				461.25446,383.29194L460.30391,383.52957L459.82864,383.52957L459.35336,383.05432L459.35336,382.57906L459.591,382.10381L459.82864,381.62856
				L460.30391,381.62856L460.54155,381.62856L461.01682,381.39093L461.25446,381.1533L461.4921,380.67805L461.4921,380.44042L461.4921,379.96517
				L461.4921,379.72754L461.25446,379.25229L461.01682,379.25229L460.77919,379.01466L460.54155,378.77704L460.06627,378.77704L
				459.591,379.01466L459.11572,379.25229L458.40281,379.48992L457.92754,379.72754L457.6899,379.72754L456.97699,379.48992L456.26407,379.48992
				L455.55116,379.25229L454.60061,378.53941L453.8877,377.82653L452.69951,377.5889L452.46187,377.35127L451.9866,377.35127L451.03605,377.35127
				L450.32314,377.82653L449.61022,377.82653L449.13495,377.82653L448.65967,377.35127L448.65967,376.87602L448.65967,376.40077
				L448.65967,375.92551L448.89731,375.45026L449.61022,374.73738L450.32314,374.49975L450.79841,374.26213L451.51132,374.0245L
				452.22424,374.0245L452.69951,374.26213L453.17479,374.49975L453.8877,374.49975L454.36297,374.49975L455.31352,374.26213L455.7888,374.0245
				L456.26407,373.78687L456.73935,373.31162L456.73935,372.83637L456.73935,372.59874L456.26407,371.88586L455.7888,371.17298L
				455.07589,370.69773L454.83825,369.74722L454.12534,368.32146L453.41242,366.8957L452.93715,365.46994L452.22424,364.51943L451.74896,363.56892
				L451.03605,363.09367L450.0855,362.85604L449.13495,363.09367L448.42204,362.85604L447.47148,362.85604L446.75857,362.61842L
				445.80802,362.14316L445.33275,361.90554L444.85747,361.19266L444.61983,360.7174L444.61983,360.24215L444.85747,359.7669L445.09511,359.29164
				L445.57038,359.05402L446.2833,358.81639L446.75857,358.57876L447.23385,358.10351L447.70912,357.62825L447.70912,356.91537L
				447.47148,356.20249L447.23385,355.25199L446.75857,354.53911L446.2833,353.82623L445.33275,353.35097L444.3822,353.11335L443.90692,352.87572
				L443.19401,352.63809L442.71873,352.63809L442.00582,352.87572L441.29291,352.87572L440.34236,353.11335L439.62945,353.11335
				L438.6789,353.11335L437.49071,352.87572L436.7778,352.87572L435.82725,352.87572L435.35197,353.11335L434.8767,353.35097L434.40142,353.82623
				L433.92615,354.30148L433.45087,354.30148L432.73796,354.53911L432.26268,354.53911L432.02504,354.30148L431.54977,354.06385
				L431.07449,353.82623L431.07449,353.35097L430.83686,352.87572L430.59922,352.40047L429.88631,351.68759L428.93576,351.21233
				L427.27229,350.49945L425.60883,350.0242L424.89592,349.78657L424.42064,349.78657L422.75718,349.07369L421.33136,348.83607L
				420.14317,348.36081L419.43026,348.36081L418.71734,348.59844L418.00443,348.59844L417.76679,348.59844L416.81624,348.59844L
				416.34097,348.59844L415.86569,348.36081L415.15278,348.12319L414.91514,347.88556L414.43987,347.4103L414.20223,346.93505L413.96459,346.4598
				L413.72695,345.74692L413.72695,345.03404L413.96459,344.55878L413.96459,344.08353L414.20223,343.60828L414.6775,343.13302L
				415.15278,342.8954L415.86569,342.65777L416.5786,342.42014L417.29152,342.18252L418.00443,341.70726L418.47971,341.23201L418.95498,340.75676
				L419.19262,340.2815L419.19262,339.80625L419.19262,338.85574L419.19262,338.14286L419.43026,337.42998L419.66789,336.24185L
				420.14317,335.52897L420.61844,335.05371L420.85608,334.34083L421.33136,333.62795L421.56899,332.91507L421.80663,332.43982L
				421.80663,331.72694L421.80663,331.48931L421.33136,331.01406L421.09372,330.53881L420.61844,330.53881L420.14317,330.77643L
				419.90553,331.01406L419.66789,331.48931L419.43026,331.96457L418.95498,332.67745L418.24207,333.1527L417.52916,333.39033L416.81624,333.39033
				L416.10333,333.39033L415.15278,332.91507L414.6775,332.67745L414.43987,332.43982L414.20223,331.72694L414.20223,331.25169L
				413.96459,330.53881L413.96459,330.06355L413.72695,329.35067L413.48932,328.63779L413.01404,327.92491L412.53877,327.44966L
				411.82585,326.49915L411.58822,326.0239L411.11294,325.31102L410.8753,324.36051L410.63767,323.88526L410.40003,322.93475L410.40003,321.98424
				L410.63767,321.27136L410.8753,320.79611L411.11294,320.08323L411.82585,319.60798L412.06349,319.13272L412.7764,318.65747L413.01404,318.18221
				L413.48932,317.70696L413.48932,317.46933L413.48932,316.75645L413.25168,316.51883L412.7764,316.04357L412.53877,315.56832L
				411.82585,315.56832L410.8753,315.09307L409.92475,314.61781L408.73657,314.14256L408.26129,313.66731L407.54838,313.19205L407.0731,312.7168
				L406.12255,311.76629L405.64728,311.29104L404.69673,310.81579L403.98382,310.57816L403.2709,310.10291L402.55799,310.10291L
				401.84508,310.10291L400.89453,310.10291L400.18161,309.86528L399.70634,309.86528L399.23106,309.62765L398.75579,309.39003L
				398.28051,309.1524L397.80524,308.91477L397.5676,308.20189L396.85469,307.48901L396.61705,306.77613L396.14178,306.06325L395.6665,305.588
				L395.42886,305.35037L394.71595,304.87512L394.24068,304.63749L393.7654,304.39986L393.05249,304.39986L392.57721,304.39986L
				392.10194,304.87512L391.15139,305.11274L390.67611,305.35037L389.9632,305.588L389.25029,305.588L388.53738,305.588L388.0621,305.35037
				L387.58683,304.87512L387.58683,304.63749L387.58683,304.16224L387.58683,303.92461L387.82446,303.44936L388.29974,302.73648
				L388.53738,302.26122L389.01265,301.78597L389.72556,301.31072L389.9632,301.07309L390.20084,300.36021L390.43848,299.88496L
				390.43848,299.4097L390.43848,298.69682L390.20084,298.22157L389.72556,297.27106L389.01265,296.32055L388.29974,295.37005L387.34919,294.18191
				L387.11155,293.70666L386.87391,293.23141L387.11155,292.51853L387.11155,292.04327L387.58683,291.56802L388.0621,291.09277L
				388.53738,290.85514L389.25029,290.61751L389.72556,290.85514L390.20084,290.85514L390.43848,291.09277L390.91375,291.33039L
				391.38903,291.56802L391.62666,292.04327L392.10194,292.51853L392.57721,292.99378L393.05249,292.99378L393.7654,292.99378L394.24068,292.75615
				L394.71595,292.2809L395.19123,291.80565L395.42886,291.09277L395.42886,290.61751L395.42886,290.14226L395.42886,289.66701L
				395.19123,288.95412L394.95359,288.7165L394.95359,288.47887L394.71595,287.76599L394.71595,286.81548L394.71595,285.62735L394.47831,284.91447
				L394.24068,283.96396L394.00304,283.48871L393.29013,283.25108L392.57721,282.77583L391.8643,282.5382L390.91375,282.30058L390.20084,282.06295
				L389.48793,282.06295L388.77501,282.06295L388.0621,282.06295L387.11155,282.06295L385.21045,282.06295L383.54699,282.06295L
				382.83407,282.06295L381.64589,281.82532L381.17061,281.82532L380.22006,281.82532L379.50715,281.5877L378.79424,281.35007L378.31896,281.35007
				L377.84369,280.87482L377.36841,280.39956L376.89314,280.16194L376.6555,279.68668L376.41786,279.21143L376.18022,278.49855L
				376.18022,278.02329L375.46731,277.31041L375.22967,276.83516L374.51676,276.35991L374.04149,276.12228L373.32857,275.88465L
				372.37802,275.88465L371.18984,275.4094L370.47692,275.4094L370.23928,275.17177L370.00165,275.17177L369.28873,274.93415L368.81346,274.69652
				L368.33818,274.22127L367.86291,273.74601L367.86291,273.27076L367.86291,272.79551L368.10055,272.55788L368.33818,272.32025
				L369.0511,272.08263L369.76401,271.845L370.23928,271.60737L370.71456,270.89449L370.9522,270.18161L370.9522,269.70636L370.9522,269.46873
				L370.71456,268.75585L370.47692,268.2806L370.23928,267.56772L369.76401,267.09246L369.0511,266.37958L368.57582,266.14196L367.86291,265.90433
				L367.38763,265.6667L366.91236,265.90433L366.67472,265.90433L366.43708,266.14196L366.19945,266.37958L365.72417,266.61721L
				365.2489,267.80534L365.01126,268.2806L364.77362,268.51822L364.53598,269.2311L364.06071,269.94399L363.58543,270.18161L362.87252,270.41924
				L362.15961,270.18161L360.49615,268.2806L359.5456,266.14196L359.07032,264.95382L357.40686,261.86468L355.26812,260.43892L354.55521,260.20129
				L353.60466,260.67654L352.65411,261.38942L350.51537,261.86468L349.32718,262.1023L347.42608,263.05281L344.81207,264.95382L
				344.33679,265.90433L343.62388,266.85484L342.91097,267.33009L341.48514,267.80534L340.29696,267.33009L339.58404,266.37958L
				339.3464,265.42908L339.58404,264.00332L339.82168,262.57756L340.05932,261.86468L340.29696,259.25078L339.82168,258.5379L339.3464,257.58739
				L336.97003,255.21113L335.5442,254.49825L332.93019,253.54774L331.02909,253.31011L329.12799,253.31011L327.9398,254.26062L326.98925,255.92401
				L325.32579,258.5379L324.85052,258.30027L324.61288,258.06265L322.71178,256.39926L321.52359,255.21113L320.09776,254.73587L
				320.3354,254.26062L320.81068,253.31011L321.28595,252.83486L319.86013,249.50808L318.67194,246.65656L315.82029,240.7159L314.6321,238.57725
				L310.35463,235.72573L307.74061,233.82472L297.5222,229.78506L289.68016,227.64642L288.25433,224.31965L290.39307,220.28L295.38346,215.76509
				L295.38346,213.62645L291.8189,212.91357L285.64032,212.43831L278.98647,209.11154L274.94663,203.64612L273.28317,197.94308L
				273.52081,195.56681L275.89718,193.6658L276.37246,192.00241L274.70899,191.28953L273.75844,191.28953L267.81751,190.57665L266.62932,189.15089
				L266.39168,184.63598L269.00569,180.59633L269.71861,178.45769L271.14443,176.31905L271.61971,174.18041L270.90679,171.56651
				L270.90679,169.90312L273.52081,168.47736L276.13482,167.52686L275.42191,165.38822L273.04553,162.5367L272.09498,159.44755L
				270.90679,157.78416L267.81751,157.30891L264.72822,155.40789L264.25294,153.26925L264.96586,151.13061L266.15404,148.75434L
				265.44113,146.6157L265.20349,144.47706L265.91641,139.96215L264.49058,135.68487L262.35184,132.59573L262.11421,130.45708L259.97547,129.7442
				L255.93563,129.26895L253.08398,126.89268L249.75705,126.41743L249.51942,124.75404L248.56887,120.95201L246.19249,117.38761
				L244.76666,115.01135L243.57848,111.20932L240.25155,108.59542L237.63754,108.12017L234.78589,109.54593L230.27077,111.44694
				L229.32022,110.25881L229.7955,109.78356L230.03314,106.93204L230.50841,100.51611L229.08259,96.95171L227.41912,96.00121L225.28039,96.00121
				L220.52764,93.62494L216.72544,86.25851L214.82433,83.40699L210.7845,82.93174L206.74466,82.21886L204.36828,78.89208L202.94246,74.85243
				L200.32845,69.38701L199.61553,64.63448L197.23916,61.07007L192.72404,56.31754L190.58531,54.65415L187.02074,54.65415L182.50563,54.1789
				L178.22815,52.04026L173.95068,46.33722L174.90123,45.38671L178.46579,43.4857L181.79272,41.34705L185.11964,38.02028L188.68421,34.45588
				L189.87239,31.36673L192.48641,29.22809L194.14987,27.5647L195.10042,28.03996L196.28861,28.51521L196.76388,29.22809L196.76388,31.60436
				L197.00152,33.26775L197.47679,34.69351L199.85317,37.06977L201.99191,38.49553L203.1801,39.44604L204.60592,40.39655L207.69521,41.58468
				L209.83395,42.53519L211.25977,43.4857L212.6856,43.72332L213.87378,43.96095L214.11142,44.19858L214.11142,44.91146L213.39851,45.62434
				L212.6856,46.81247L212.44796,49.18874L212.6856,50.6145L212.92323,51.80263L213.39851,52.27788L214.5867,52.51551L216.25016,52.04026
				L217.91362,51.80263L220.29,49.42636L221.95346,49.18874L223.14165,49.42636L224.0922,51.08975L224.80511,52.51551L225.9933,54.65415
				L227.18149,56.07991L228.36967,57.50567L228.60731,58.45618L227.65676,59.64431L227.65676,60.83245L227.8944,62.25821L228.84495,63.20872
				L230.74605,63.9216L232.17188,64.15922L232.88479,64.15922L233.83534,64.39685L234.54825,64.8721L235.02353,65.34736L234.78589,65.82261
				L234.07298,66.53549L233.12243,67.486L232.64715,68.4365L232.88479,69.62464L233.36006,70.57514L233.83534,71.28802L234.31061,72.0009
				L235.02353,72.23853L235.73644,72.47616L236.68699,72.23853L237.3999,72.0009L237.63754,72.0009L237.87518,71.76328L238.58809,71.0504
				L238.82573,70.33752L239.06336,69.86226L240.72683,68.91176L242.62793,68.67413L245.0043,68.4365L246.9054,67.96125L248.33123,67.24837
				L249.04414,67.486L249.75705,67.72362L250.94524,68.67413L251.65815,69.62464L252.6087,72.71379L252.6087,74.37717L252.84634,75.32768
				L254.03453,76.27819L254.74744,77.94157L255.22272,80.08021L256.4109,82.21886L258.07437,83.16936L261.63893,84.83275L263.54003,85.308
				L266.39168,85.78326L268.76806,85.54563L269.48097,85.54563L272.57026,86.02088L274.47136,86.49614L275.18427,86.73376L277.08537,87.44664
				L280.88757,89.58528L282.78867,90.77342L283.97686,92.19918L284.68977,92.67443L286.35323,92.91206L287.54142,92.67443L288.49197,92.19918
				L291.10598,90.29816L292.29417,89.82291L293.24472,90.06054L295.85874,91.4863L297.28456,92.67443L298.23511,94.57545L299.4233,97.18934
				L301.3244,99.80323L302.98786,101.70425L304.17605,102.89238L304.41369,102.89238L306.31479,104.08052L307.26534,104.31814L308.69116,104.55577
				L310.35463,104.7934L314.15683,104.08052L317.00848,104.08052L317.95903,104.08052L318.90958,103.60526L319.86013,103.36764L
				321.52359,103.36764L323.18705,103.60526L325.08815,103.84289L326.27634,104.08052L328.17744,104.55577L328.65272,104.7934L329.12799,104.55577
				L330.79145,103.36764L332.69255,102.89238L335.78184,102.65476L338.63349,101.94188L342.67333,101.70425L342.91097,99.32798L
				342.91097,96.23883L337.4453,82.69411L337.4453,71.28802L337.4453,70.57514L338.15822,67.01074L346.00026,53.70365L354.79284,33.50537
				L358.11977,27.5647L358.59505,22.33691L363.11016,24.0003L365.48653,27.5647L367.38763,26.37657L369.0511,25.90132L370.00165,23.04979
				L364.53598,22.81217L367.15,19.01014L369.28873,18.53489L372.37802,21.38641L374.99204,24.95081L377.36841,28.75284L380.93297,36.83215
				L384.73517,42.77281L386.39864,48.23823L388.77501,56.79279L391.62666,65.10973L392.81485,67.24837L398.99343,73.66429L402.55799,76.27819
				L403.98382,76.99107L412.30113,77.46632L414.6775,78.41683L416.5786,80.55547L419.19262,85.07038L421.09372,88.39715L424.18301,90.77342
				L426.32174,94.10019L427.50993,96.71409L426.32174,98.85273L424.89592,99.80323L425.37119,102.1795L426.08411,105.50628L426.32174,108.83305
				L427.50993,113.58559L428.22284,116.19948L427.50993,118.10049L424.18301,120.95201L422.75718,123.56591L423.23246,124.99167
				L424.18301,126.89268L424.42064,127.84319L422.28191,134.02149L420.38081,138.77402L416.10333,142.81368L413.25168,145.18994
				L410.40003,146.14045L409.92475,146.85333L409.92475,148.75434L411.35058,149.46722L414.20223,149.70485L415.62805,150.65536
				L415.62805,151.60587L414.91514,154.45739L415.39042,155.88315L416.81624,157.07128L417.29152,158.25941L416.34097,162.29907
				L414.43987,168.95262L412.7764,172.75465L410.16239,176.08142L408.49893,177.74481L408.26129,178.93294L408.73657,182.9726L407.54838,184.63598
				L404.93437,185.34886L403.74618,185.82412L401.60744,188.20038L397.80524,197.70545L396.61705,199.60647L393.05249,202.22036
				L387.11155,206.26002L384.2599,207.68578L382.83407,206.26002L382.3588,203.64612L381.40825,201.98274L379.03187,201.03223L378.08132,200.7946
				L377.60605,200.7946L376.41786,201.03223L375.22967,201.26986L374.99204,202.93324L374.7544,205.78476L374.51676,207.44815L374.99204,208.87391
				L376.89314,210.06204L383.07171,211.01255L388.29974,211.72543L391.15139,213.15119L392.57721,215.28983L393.05249,217.19085
				L392.57721,219.56711L391.8643,220.99288L391.8643,222.65626L392.81485,223.60677L395.19123,223.60677L398.28051,222.41864L400.65689,222.18101
				L402.79563,223.36914L403.74618,224.55728L404.93437,227.4088L406.59783,229.07218L409.68712,230.49795L413.72695,231.68608L
				417.29152,231.44845L420.61844,232.16133L423.23246,233.82472L423.94537,235.96336L424.42064,237.62675L425.13356,238.81488L
				427.50993,239.76539L430.12394,239.29013L432.9756,237.38912L435.58961,236.67624L439.62945,236.20099L442.24346,236.43861L443.66928,237.62675
				L443.19401,238.81488L441.29291,240.00302L440.81763,240.7159L441.53055,241.6664L443.66928,242.14166L446.99621,242.37928L450.32314,243.56742
				L455.55116,244.51792L458.64045,244.51792L461.01682,244.99318L463.15556,245.70606L467.43304,250.22097L470.9976,254.26062L
				473.37398,256.87451L478.83964,260.20129L483.11712,262.33993L485.96877,264.24094L488.34514,264.24094L491.67207,261.62705L
				494.76135,260.67654L498.56356,260.91417L501.65284,262.1023L504.74213,265.6667L507.11851,268.51822L508.54433,270.89449L508.54433,273.03313
				L507.83142,276.12228L507.59378,278.02329L507.59378,280.39956L509.49488,281.35007L513.77236,282.06295L518.76275,281.5877L
				522.80258,279.44906L526.60479,276.83516L530.88226,276.12228L533.73391,276.83516L535.87265,278.02329L538.7243,280.63719L541.57595,282.5382
				L544.90288,284.67684L547.75453,288.00362L551.79436,292.2809L553.45783,295.13242L553.9331,297.03343L554.64601,298.45919L556.30948,299.4097
				L562.25042,299.64733L569.1419,300.12258L571.99355,300.83546L575.32048,303.21173L577.45922,305.82562L579.59796,307.48901L
				583.63779,308.67715L585.30126,310.10291L584.82598,313.90493L582.21197,317.70696L580.07323,319.8456L576.98394,321.74662L576.50867,323.17238
				L577.22158,324.59814L578.88504,325.54864L581.73669,326.49915L586.72708,326.0239L589.57873,325.78627L591.71747,326.0239L593.38093,326.49915
				L594.80676,325.78627L595.99495,324.59814L597.65841,324.83576L598.8466,326.73678L598.13368,330.30118L596.70786,335.29134L
				595.75731,340.04388L594.80676,343.13302L595.0444,344.32116L597.18313,345.74692L600.03478,350.0242L600.98533,352.40047L600.51006,355.25199
				L599.55951,360.00452L599.32187,364.51943L599.32187,371.17298L599.08423,375.68789L597.89605,378.06416L595.51967,379.25229
				L589.57873,378.77704L586.72708,379.96517L580.54851,382.34144L575.79576,382.81669L573.41938,382.81669L570.80537,381.62856
				L567.95372,380.2028L565.10207,380.67805L561.29987,382.81669L556.78475,384.00482L547.75453,384.48008L540.86304,383.29194L
				533.97155,380.2028L527.79297,377.35127L526.12951,375.45026L524.94132,373.07399L522.80258,371.88586L521.13912,371.41061L518.04983,372.12349
				L516.14873,372.12349L514.01,370.69773L511.87126,370.4601L507.83142,371.64823L503.79158,373.31162L500.46466,374.97501L500.93993,376.40077
				L501.41521,377.82653L500.46466,378.77704L497.61301,378.77704L495.71191,378.77704"/>
		</g>
	</g>
</svg>
