<?xml version="1.0" encoding="utf-8" standalone="no"?>
<!-- Creator: Esri ArcMap 10.8.0.12790 -->
<!DOCTYPE svg PUBLIC "-//W3C//DTD SVG 1.1//EN"  "http://www.w3.org/Graphics/SVG/1.1/DTD/svg11.dtd">
<svg width="774.73701pt" height="404.24882pt" viewBox="0 0 774.73701 404.24882" enable-background="new 0 0 774.73701 404.24882"
	version="1.1" xmlns="http://www.w3.org/2000/svg" xmlns:xlink="http://www.w3.org/1999/xlink" >
	<g id="Layers">
		<g id="Maroua_I">
			<clipPath id="SVG_CP_1">
				<path d="M0,404.24882L0,0L774.73701,0L774.73701,404.24882L0,404.24882z"/>
			</clipPath>
			<path clip-path="url(#SVG_CP_1)" fill="none" stroke="#000000" stroke-width="0.47528" stroke-miterlimit="10" stroke-linecap="round" stroke-linejoin="round" d="
				M363.58543,57.7433L373.80385,65.10973L379.98242,71.52565L386.63628,74.85243L390.67611,74.85243L392.81485,79.36733L394.95359,83.16936
				L401.13216,84.11987L408.02365,84.3575L416.34097,86.97139L423.70773,87.68427L432.50032,91.4863L438.6789,97.66459L443.19401,100.27849
				L452.22424,98.6151L457.6899,96.23883L464.58139,97.66459L468.38359,99.32798L476.93854,98.6151L484.3053,96.23883L492.14734,99.09035
				L503.55394,103.84289L511.63362,109.3083L530.64462,110.25881L547.99216,105.03102L556.30948,99.09035L565.81498,99.09035L584.82598,100.27849
				L603.12407,100.99137L618.09524,99.56561L624.27381,127.60556L630.45239,149.94248L641.85899,174.41803L632.35349,179.17057L
				628.55129,184.87361L624.98673,188.67564L619.99634,188.67564L615.24359,187.4875L611.91666,190.57665L609.06501,195.80444L603.83698,199.84409
				L598.60896,199.84409L589.81637,205.07188L577.69686,208.87391L557.7353,213.15119L374.27912,290.37989L362.63488,328.16254L
				349.32718,384.24245L345.76262,381.62856L339.3464,381.86618L334.35602,384.00482L327.22689,385.90584L319.38485,382.57906L317.24611,378.30178
				L315.34501,377.5889L311.06754,374.0245L311.06754,370.69773L308.45353,370.93535L306.79006,375.21263L302.75022,374.26213L299.66094,370.69773
				L297.28456,369.98485L293.48236,369.27197L293.95764,364.04418L289.9178,362.14316L284.68977,360.00452L285.87796,355.96487L
				288.0167,353.82623L287.77906,350.26183L281.60048,345.27166L277.56065,343.13302L274.23372,344.55878L271.14443,343.60828L266.39168,342.65777
				L258.54964,342.8954L256.17327,336.00422L260.68838,332.43982L260.68838,329.11305L253.79689,328.16254L249.51942,331.48931L
				244.29139,330.53881L234.54825,322.93475L231.22133,321.03374L222.66637,317.46933L214.11142,313.66731L192.01113,310.81579L
				185.35728,306.77613L179.41634,300.12258L184.88201,281.5877L173.23777,187.01225L169.43557,169.6655L164.44518,147.09096L138.78032,56.07991
				L133.07702,38.97079L134.26521,38.49553L139.01796,30.89148L145.43417,24.23793L152.5633,20.67353L159.93006,18.53489L168.24738,20.4359
				L176.56469,23.04979L179.1787,26.13894L183.45618,32.55486L189.87239,38.25791L193.67459,41.82231L199.14026,43.4857L206.74466,48.47586
				L211.73505,51.80263L216.25016,52.75314L219.10181,52.99077L220.29,54.89178L220.29,60.35719L224.0922,67.24837L225.75566,71.52565
				L228.13204,75.56531L230.50841,78.65445L231.93424,82.21886L230.27077,87.20902L230.27077,91.96155L232.40951,95.52595L237.16226,97.90222
				L240.96446,99.32798L245.47958,98.85273L254.03453,96.95171L306.55242,78.89208L308.69116,76.75344L315.82029,68.19888L318.67194,62.97109
				L323.42469,59.88194L331.26673,58.69381L339.3464,56.31754L344.33679,55.84229L353.36702,55.84229L363.58543,57.7433"/>
		</g>
	</g>
</svg>
