<?xml version="1.0" encoding="utf-8" standalone="no"?>
<!-- Creator: Esri ArcMap 10.8.0.12790 -->
<!DOCTYPE svg PUBLIC "-//W3C//DTD SVG 1.1//EN"  "http://www.w3.org/Graphics/SVG/1.1/DTD/svg11.dtd">
<svg width="774.73701pt" height="404.24882pt" viewBox="0 0 774.73701 404.24882" enable-background="new 0 0 774.73701 404.24882"
	version="1.1" xmlns="http://www.w3.org/2000/svg" xmlns:xlink="http://www.w3.org/1999/xlink" >
	<g id="Layers">
		<g id="Maroua_II">
			<clipPath id="SVG_CP_1">
				<path d="M0,404.24882L0,0L774.73701,0L774.73701,404.24882L0,404.24882z"/>
			</clipPath>
			<path clip-path="url(#SVG_CP_1)" fill="none" stroke="#000000" stroke-width="0.47528" stroke-miterlimit="10" stroke-linecap="round" stroke-linejoin="round" d="
				M508.78197,381.86618L487.86987,383.7672L479.07728,379.72754L462.44265,376.16314L449.13495,381.86618L427.27229,385.90584L
				416.81624,379.72754L402.08272,364.75706L380.69534,355.48961L363.58543,354.06385L343.14861,347.88556L326.98925,346.93505L
				312.01809,345.03404L306.55242,335.52897L301.79967,325.07339L291.8189,324.83576L275.89718,316.99408L261.16365,301.78597L236.44935,284.20159
				L242.15265,284.20159L248.56887,278.73617L269.95624,241.90403L289.20488,228.3593L307.97825,211.01255L326.27634,182.49734L
				331.742,156.59603L327.22689,124.27879L331.02909,109.07068L352.41647,88.8724L374.51676,75.32768L383.78462,71.28802L397.32996,73.66429
				L403.98382,62.49583L407.0731,45.62434L413.01404,34.45588L435.82725,25.90132L446.04566,21.86166L455.07589,18.53489L469.33414,44.19858
				L478.12673,70.33752L486.68168,106.93204L501.89048,139.72453L507.83142,173.70515L507.35614,201.03223L506.88087,227.17117L
				514.24763,292.99378L519.00038,300.83546L528.74352,318.41984L538.48666,337.90523L512.1089,348.36081L503.07867,354.77673L503.07867,360.95503
				L503.31631,369.27197L510.44543,376.40077L508.78197,381.86618"/>
		</g>
	</g>
</svg>
