<?xml version="1.0" encoding="utf-8" standalone="no"?>
<!-- Creator: Esri ArcMap 10.8.0.12790 -->
<!DOCTYPE svg PUBLIC "-//W3C//DTD SVG 1.1//EN"  "http://www.w3.org/Graphics/SVG/1.1/DTD/svg11.dtd">
<svg width="774.73701pt" height="404.24882pt" viewBox="0 0 774.73701 404.24882" enable-background="new 0 0 774.73701 404.24882"
	version="1.1" xmlns="http://www.w3.org/2000/svg" xmlns:xlink="http://www.w3.org/1999/xlink" >
	<g id="Layers">
		<g id="Maroua_III">
			<clipPath id="SVG_CP_1">
				<path d="M0,404.24882L0,0L774.73701,0L774.73701,404.24882L0,404.24882z"/>
			</clipPath>
			<path clip-path="url(#SVG_CP_1)" fill="none" stroke="#000000" stroke-width="0.47528" stroke-miterlimit="10" stroke-linecap="round" stroke-linejoin="round" d="
				M554.88365,123.80354L548.2298,132.3581L542.76414,140.43741L522.80258,170.616L520.66385,174.41803L518.52511,175.84379L519.7133,177.74481
				L518.28747,179.64582L517.57456,181.07158L516.14873,182.25972L514.48527,182.49734L514.48527,180.59633L514.96055,179.64582
				L514.01,178.22006L512.34653,178.45769L511.87126,179.88345L511.63362,181.07158L509.01961,181.78446L509.01961,180.59633L508.30669,180.12107
				L507.35614,181.30921L507.11851,183.44785L505.69268,185.58649L507.59378,188.20038L506.16796,188.43801L505.69268,190.1014L
				505.21741,191.52716L503.55394,192.71529L501.89048,192.24004L500.70229,193.19055L498.56356,191.52716L495.94954,192.47767L
				493.09789,193.6658L491.9097,194.85393L489.53333,196.51732L487.86987,198.65596L460.30391,223.36914L450.32314,232.63659L451.03605,234.5376
				L449.37259,238.102L448.42204,242.37928L445.80802,245.94368L442.95637,248.55758L442.24346,250.93385L441.53055,253.07249L442.95637,254.49825
				L440.10472,255.92401L437.96598,257.11214L437.01543,258.30027L436.30252,260.67654L433.45087,261.62705L431.31213,264.95382
				L430.36158,268.04297L429.41103,269.94399L427.50993,272.32025L430.59922,278.26092L431.31213,281.35007L433.68851,296.79581
				L434.16378,300.83546L436.06488,302.9741L437.01543,306.06325L438.20362,307.96426L438.20362,310.10291L439.62945,311.29104L
				439.15417,312.95443L442.00582,316.51883L459.11572,337.19235L460.30391,339.56862L459.11572,343.60828L456.97699,350.49945L
				454.60061,357.62825L441.53055,364.75706L432.26268,367.13332L421.33136,369.50959L406.83547,368.55909L393.29013,369.98485L
				387.11155,367.60858L382.83407,370.22247L376.6555,371.64823L371.18984,372.83637L366.43708,377.35127L364.06071,380.44042L356.45631,381.1533
				L346.95081,380.91568L337.20767,380.2028L332.45492,380.2028L328.17744,383.29194L319.14721,385.90584L309.40408,385.43058L305.36424,382.57906
				L299.4233,380.2028L295.38346,378.77704L291.8189,379.96517L292.05653,378.77704L290.63071,377.11365L290.39307,375.45026L290.39307,374.26213
				L292.53181,372.83637L297.99747,370.4601L296.09637,366.42044L293.95764,362.61842L292.76945,360.95503L291.34362,346.69742L
				291.34362,341.23201L291.58126,335.29134L290.15543,328.16254L287.06615,321.03374L285.16505,313.19205L283.26395,307.48901L
				280.17466,302.0236L281.83812,300.83546L282.55103,295.60767L282.3134,290.61751L280.88757,282.77583L282.55103,273.50839L285.16505,262.1023
				L285.40268,256.63689L285.40268,253.07249L283.26395,249.27046L281.83812,246.65656L280.4123,243.09216L278.03592,240.24064L
				264.01531,217.6661L259.26255,210.5373L253.79689,204.83426L251.89579,200.7946L250.94524,192.95292L249.28178,186.537L246.43013,180.12107
				L245.71721,174.89329L245.71721,169.19024L245.95485,163.72483L244.76666,156.59603L243.81611,152.08112L242.15265,148.51672
				L238.82573,144.00181L236.44935,138.29877L233.36006,131.88285L231.93424,129.03132L231.6966,125.70455L231.45896,122.6154L228.60731,118.10049
				L225.51802,112.63508L223.85456,109.54593L222.66637,102.89238L221.00291,96.95171L220.05236,94.33782L224.0922,89.58528L228.60731,87.20902
				L230.27077,84.59512L231.22133,83.16936L234.07298,83.88224L238.35045,81.98123L238.58809,79.60496L239.06336,76.27819L241.67738,73.90192
				L245.24194,75.80293L247.14304,78.41683L249.51942,78.41683L251.18288,75.80293L252.6087,74.85243L256.64854,76.75344L257.59909,75.56531
				L258.07437,74.13955L260.45074,72.0009L260.92602,70.33752L262.35184,67.96125L265.91641,65.10973L265.20349,62.02058L268.29278,60.35719
				L272.57026,59.88194L275.42191,63.44634L280.64993,62.25821L285.87796,60.59482L288.49197,59.16906L293.00709,60.11957L295.85874,60.35719
				L297.99747,57.50567L300.13621,54.1789L301.79967,51.32738L303.2255,49.42636L306.55242,50.37687L308.9288,48.71348L309.87935,46.81247
				L312.25573,44.91146L314.6321,43.72332L314.6321,41.82231L313.68155,38.25791L314.39446,35.16876L316.05793,33.743L321.04831,30.65385
				L333.40547,22.57454L340.77223,20.4359L349.80246,19.01014L351.46592,18.53489L367.86291,151.13061L369.52637,189.62614L357.6445,229.07218
				L354.79284,251.4091L367.15,261.62705L387.34919,250.69622L451.27369,179.88345L476.93854,154.45739L499.51411,143.76418L523.5155,144.00181
				L554.88365,123.80354"/>
		</g>
	</g>
</svg>
