<?xml version="1.0" encoding="utf-8" standalone="no"?>
<!-- Creator: Esri ArcMap 10.8.0.12790 -->
<!DOCTYPE svg PUBLIC "-//W3C//DTD SVG 1.1//EN"  "http://www.w3.org/Graphics/SVG/1.1/DTD/svg11.dtd">
<svg width="774.73701pt" height="404.24882pt" viewBox="0 0 774.73701 404.24882" enable-background="new 0 0 774.73701 404.24882"
	version="1.1" xmlns="http://www.w3.org/2000/svg" xmlns:xlink="http://www.w3.org/1999/xlink" >
	<g id="Layers">
		<g id="Meri">
			<clipPath id="SVG_CP_1">
				<path d="M0,404.24882L0,0L774.73701,0L774.73701,404.24882L0,404.24882z"/>
			</clipPath>
			<path clip-path="url(#SVG_CP_1)" fill="none" stroke="#000000" stroke-width="0.47528" stroke-miterlimit="10" stroke-linecap="round" stroke-linejoin="round" d="
				M554.17074,285.38972L551.55673,286.34023L548.94271,287.52836L542.5265,289.90463L540.86304,292.99378L540.15012,297.50869L
				538.24902,300.59784L534.44682,299.88496L532.07045,301.07309L525.89187,304.87512L519.95093,310.34053L519.00038,314.61781L
				520.18857,323.41L518.76275,330.53881L513.77236,338.38049L508.54433,343.13302L503.07867,346.93505L497.37537,357.153L495.47427,358.57876
				L494.04844,358.57876L487.39459,357.39063L481.21602,357.153L477.88909,357.62825L472.66106,359.29164L467.43304,359.7669L464.34375,361.90554
				L462.44265,365.46994L457.6899,371.17298L456.26407,372.36111L421.80663,384.48008L416.10333,385.66821L413.25168,385.90584L
				410.63767,384.95533L407.54838,383.29194L406.12255,381.1533L406.12255,378.06416L407.0731,374.73738L406.12255,372.36111L404.69673,370.22247
				L403.03327,367.60858L402.08272,364.75706L399.4687,360.24215L399.4687,356.67775L398.51815,355.48961L396.85469,355.25199L393.7654,354.53911
				L390.67611,352.40047L385.44809,349.07369L381.88352,348.12319L379.26951,345.74692L375.22967,341.94489L372.37802,337.66761
				L370.47692,335.52897L365.01126,333.86558L359.5456,332.67745L354.79284,334.10321L350.04009,336.47947L345.76262,340.75676L
				342.67333,345.74692L341.96042,346.22217L340.29696,347.17268L335.78184,348.12319L330.55382,351.68759L324.61288,353.5886L320.57304,353.82623
				L318.19666,353.35097L316.29556,353.5886L313.44391,353.35097L311.30518,352.40047L308.21589,353.35097L306.07715,352.63809L
				303.2255,351.68759L300.13621,350.0242L295.14582,346.4598L291.8189,343.8459L288.0167,340.75676L285.16505,337.66761L284.68977,337.66761
				L282.3134,334.81609L279.93702,333.86558L276.37246,334.34083L270.90679,336.95473L255.22272,340.99438L253.32162,334.57846L
				253.32162,330.77643L252.6087,329.82593L248.09359,327.68728L243.81611,324.12288L238.35045,318.18221L232.88479,314.38019L222.66637,309.86528
				L216.01252,306.5385L214.82433,301.07309L215.06197,295.8453L216.96307,290.85514L214.82433,287.05311L216.01252,280.87482L216.4878,275.17177
				L214.5867,271.36975L214.11142,265.42908L214.11142,263.76569L217.20071,259.25078L217.43835,254.26062L218.15126,249.27046L
				219.33945,246.18131L219.33945,237.38912L222.42874,235.25048L224.56747,232.87421L228.60731,229.54744L230.50841,228.59693L
				234.07298,226.69592L234.31061,224.55728L236.44935,220.99288L238.82573,217.19085L239.53864,213.15119L239.301,207.68578L242.86556,204.359
				L247.38068,202.22036L249.28178,199.60647L251.18288,195.80444L253.79689,191.76479L258.312,185.11124L258.54964,180.83396L256.88618,175.60617
				L254.03453,168.71499L249.99469,161.34856L249.04414,157.54653L254.74744,156.59603L262.82712,155.88315L268.05514,158.02179
				L274.47136,161.34856L284.45213,163.24958L293.95764,165.38822L302.03731,168.47736L309.87935,172.04177L315.10738,173.2299L
				320.57304,176.7943L323.18705,176.31905L324.37524,171.56651L325.08815,165.38822L326.98925,158.73467L331.742,152.794L336.01948,147.09096
				L339.10877,139.24927L341.24751,132.59573L346.00026,127.84319L352.65411,123.56591L355.7434,121.6649L360.49615,115.24897L368.57582,111.44694
				L371.66511,108.59542L375.94259,108.59542L382.83407,105.50628L386.87391,104.08052L393.7654,107.40729L408.49893,108.83305L
				412.06349,111.20932L419.43026,104.7934L422.99482,99.32798L427.03466,95.76358L432.50032,93.14969L435.58961,88.39715L438.6789,82.45648
				L438.91653,77.22869L442.4811,73.18904L452.69951,69.14938L453.8877,64.15922L454.36297,57.98093L457.6899,50.85212L459.11572,44.19858
				L461.01682,39.20841L461.25446,34.93113L466.24485,34.93113L467.67068,30.65385L470.52233,26.6142L474.32453,22.09929L476.93854,18.53489
				L478.12673,21.86166L480.26547,29.46572L481.69129,38.02028L484.06767,42.05993L487.86987,48.95111L491.67207,54.89178L491.67207,58.69381
				L492.14734,62.97109L494.04844,66.77312L498.08828,75.09005L500.93993,82.21886L505.21741,88.15952L507.35614,92.67443L508.54433,98.6151
				L509.97016,107.64492L509.97016,114.77372L509.73252,121.90252L510.68307,128.55607L514.48527,136.87301L516.62401,145.18994
				L517.8122,155.17027L520.18857,160.63568L527.3177,168.00211L533.25864,176.7943L551.31909,206.02239L554.40838,209.58679L556.30948,214.1017
				L557.97294,217.42847L560.82459,222.41864L560.82459,226.93354L560.34932,234.06235L557.26003,248.7952L554.88365,260.67654L
				556.78475,270.65687L557.26003,277.07279L556.30948,283.72634L554.17074,285.38972"/>
		</g>
	</g>
</svg>
