<?xml version="1.0" encoding="utf-8" standalone="no"?>
<!-- Creator: Esri ArcMap 10.8.0.12790 -->
<!DOCTYPE svg PUBLIC "-//W3C//DTD SVG 1.1//EN"  "http://www.w3.org/Graphics/SVG/1.1/DTD/svg11.dtd">
<svg width="774.73701pt" height="404.24882pt" viewBox="0 0 774.73701 404.24882" enable-background="new 0 0 774.73701 404.24882"
	version="1.1" xmlns="http://www.w3.org/2000/svg" xmlns:xlink="http://www.w3.org/1999/xlink" >
	<g id="Layers">
		<g id="Mogodé">
			<clipPath id="SVG_CP_1">
				<path d="M0,404.24882L0,0L774.73701,0L774.73701,404.24882L0,404.24882z"/>
			</clipPath>
			<path clip-path="url(#SVG_CP_1)" fill="none" stroke="#000000" stroke-width="0.47528" stroke-miterlimit="10" stroke-linecap="round" stroke-linejoin="round" d="
				M478.83964,313.90493L475.51271,329.5883L462.68029,363.09367L431.54977,384.00482L426.55938,385.90584L427.27229,381.1533L427.98521,375.45026
				L426.79702,372.12349L424.89592,369.98485L416.81624,366.42044L404.69673,360.7174L383.54699,362.61842L374.99204,363.80655L
				370.71456,366.42044L368.81346,367.60858L366.67472,365.23231L365.72417,362.85604L367.38763,361.19266L368.10055,357.86588L
				366.19945,354.53911L364.53598,352.63809L362.39725,351.92521L359.07032,353.11335L355.7434,354.77673L351.70356,353.11335L347.90136,354.77673
				L343.14861,357.62825L337.4453,358.34114L332.69255,358.34114L330.07854,359.29164L326.75162,362.14316L319.86013,364.75706L
				317.95903,361.43028L315.10738,359.7669L312.25573,358.34114L307.74061,354.06385L304.41369,350.97471L294.90819,346.22217L285.87796,339.80625
				L282.3134,339.56862L277.32301,340.51913L274.70899,339.331L273.04553,337.90523L268.53042,336.7171L261.87657,333.86558L260.2131,323.64763
				L265.20349,302.73648L254.5098,290.85514L254.27217,278.73617L265.67877,270.65687L284.2145,237.38912L303.70077,211.72543L307.97825,202.45799
				L287.30378,183.21022L289.20488,168.71499L295.85874,159.20992L294.90819,151.13061L282.07576,140.91266L283.02631,136.16013
				L273.04553,117.86287L274.47136,114.06084L291.58126,105.26865L303.46314,92.91206L302.51259,75.32768L308.45353,71.28802L319.38485,54.65415
				L317.48375,48.95111L310.11699,41.34705L312.01809,33.50537L318.90958,22.57454L322.47414,23.28742L336.01948,21.62403L341.48514,18.53489
				L410.8753,114.77372L515.19818,165.15059L520.66385,211.25018L492.14734,253.54774L478.83964,313.90493"/>
		</g>
	</g>
</svg>
