<?xml version="1.0" encoding="utf-8" standalone="no"?>
<!-- Creator: Esri ArcMap 10.8.0.12790 -->
<!DOCTYPE svg PUBLIC "-//W3C//DTD SVG 1.1//EN"  "http://www.w3.org/Graphics/SVG/1.1/DTD/svg11.dtd">
<svg width="774.73701pt" height="404.24882pt" viewBox="0 0 774.73701 404.24882" enable-background="new 0 0 774.73701 404.24882"
	version="1.1" xmlns="http://www.w3.org/2000/svg" xmlns:xlink="http://www.w3.org/1999/xlink" >
	<g id="Layers">
		<g id="Mokolo">
			<clipPath id="SVG_CP_1">
				<path d="M0,404.24882L0,0L774.73701,0L774.73701,404.24882L0,404.24882z"/>
			</clipPath>
			<path clip-path="url(#SVG_CP_1)" fill="none" stroke="#000000" stroke-width="0.47528" stroke-miterlimit="10" stroke-linecap="round" stroke-linejoin="round" d="
				M354.55521,20.19827L355.98103,26.37657L354.79284,26.85182L354.31757,27.80233L355.50576,31.84198L354.07993,37.06977L352.89174,40.63417
				L351.70356,44.19858L350.75301,47.76298L349.80246,50.85212L348.85191,54.1789L347.90136,55.60466L346.95081,57.50567L347.66372,59.16906
				L348.85191,59.88194L348.61427,61.78295L348.13899,64.15922L347.18844,67.01074L346.23789,69.62464L344.81207,71.52565L343.62388,75.56531
				L342.67333,80.55547L342.43569,81.98123L343.38624,82.69411L345.76262,84.83275L348.37663,86.97139L350.75301,87.68427L353.12938,89.34766
				L355.26812,89.58528L357.88213,90.29816L359.5456,91.24867L362.15961,91.4863L364.77362,91.96155L367.15,92.19918L369.0511,93.62494
				L369.52637,95.0507L368.33818,96.95171L366.43708,99.80323L366.19945,101.94188L367.15,104.7934L368.81346,107.16966L371.42747,109.3083
				L371.90275,111.20932L371.66511,113.34796L369.28873,115.24897L364.77362,119.28863L363.82307,121.18964L363.58543,123.09066
				L364.53598,125.70455L366.67472,126.89268L369.0511,127.84319L369.0511,127.60556L370.9522,128.31844L374.04149,129.50658L377.13077,129.7442
				L379.26951,129.50658L382.12116,127.84319L384.2599,127.60556L385.21045,127.36794L386.63628,125.46692L388.29974,124.04116L
				391.38903,121.42727L394.00304,118.33812L395.19123,117.86287L400.18161,119.28863L405.172,120.95201L407.54838,129.7442L409.44948,140.19978
				L410.16239,149.2296L412.06349,157.07128L417.52916,164.91296L427.98521,169.90312L444.14456,174.18041L456.02644,177.74481L
				465.05666,183.44785L471.94815,188.67564L479.07728,196.04207L487.63223,200.7946L490.72152,202.22036L495.47427,204.359L497.85064,206.02239
				L500.46466,208.87391L502.36576,210.5373L504.50449,211.48781L504.74213,211.96306L504.97977,213.62645L505.69268,216.71559L
				505.93032,218.37898L505.93032,220.99288L504.50449,222.65626L501.17757,227.64642L500.22702,229.78506L498.80119,232.16133L
				497.85064,234.5376L497.61301,236.91387L497.61301,238.81488L501.41521,241.90403L499.51411,244.99318L498.56356,246.89419L498.32592,248.7952
				L498.08828,250.69622L498.56356,251.88435L502.84103,253.31011L506.16796,256.16163L507.59378,256.63689L509.49488,256.63689
				L511.63362,255.68638L514.96055,256.63689L516.14873,257.11214L516.62401,258.06265L515.9111,260.20129L514.48527,261.86468L
				512.34653,264.00332L511.39598,267.09246L509.97016,269.46873L508.78197,271.60737L508.06906,273.50839L507.83142,276.12228L
				507.83142,278.26092L509.01961,280.16194L509.49488,282.30058L509.25724,284.20159L512.34653,286.1026L514.01,286.81548L515.9111,287.52836
				L516.62401,289.90463L516.62401,292.2809L517.8122,295.8453L517.8122,297.03343L516.62401,299.17208L515.43582,300.59784L513.05945,301.54834
				L510.20779,301.07309L507.83142,299.88496L506.16796,299.4097L504.50449,299.4097L501.89048,300.83546L499.51411,302.0236L497.61301,303.68698
				L496.66246,305.11274L494.76135,308.20189L493.09789,310.81579L491.43443,313.19205L490.95915,313.66731L490.24624,313.66731
				L488.58278,312.7168L486.2064,312.24155L483.59239,312.00392L480.5031,312.24155L478.83964,312.24155L469.80941,311.29104L467.90831,311.52867
				L464.81903,312.95443L462.44265,314.38019L461.01682,315.80595L460.06627,317.70696L458.16517,320.79611L459.35336,323.88526
				L459.35336,326.49915L461.01682,329.35067L462.20501,332.91507L462.68029,333.86558L461.01682,335.52897L460.30391,338.38049
				L458.40281,339.80625L457.45226,340.99438L457.21462,343.13302L457.21462,344.32116L456.73935,345.74692L456.50171,347.64793
				L455.55116,349.31132L455.31352,351.21233L455.7888,353.11335L456.02644,355.01436L456.26407,356.67775L455.7888,357.86588L456.02644,359.29164
				L455.55116,360.00452L455.7888,361.66791L456.02644,362.61842L455.07589,364.2818L454.60061,365.70756L453.41242,367.37095L451.9866,369.74722
				L451.9866,370.93535L451.03605,372.36111L450.32314,375.21263L448.1844,380.2028L446.75857,385.90584L436.7778,385.90584L417.76679,367.84621
				L400.18161,350.0242L378.08132,334.81609L357.40686,325.78627L333.6431,326.73678L323.42469,325.07339L329.60327,295.8453L343.38624,275.4094
				L340.77223,253.31011L290.39307,229.07218L257.12382,182.49734L258.78728,182.02209L259.97547,180.3587L261.63893,179.64582L
				264.01531,178.93294L265.67877,177.98243L266.86696,177.03193L267.10459,174.18041L266.39168,173.70515L266.15404,173.46753L
				265.44113,172.99227L264.49058,172.04177L264.49058,171.32889L265.20349,170.616L266.62932,169.90312L267.57987,169.19024L268.05514,166.81398
				L268.76806,165.38822L269.24333,163.96246L269.71861,162.77432L269.71861,161.82382L269.71861,161.11094L269.71861,160.39805
				L269.71861,159.20992L269.95624,157.78416L270.43152,157.54653L271.14443,158.02179L271.38207,158.97229L271.85734,159.20992
				L272.09498,158.73467L272.33262,158.49704L272.57026,158.02179L273.04553,157.78416L273.28317,157.30891L273.52081,157.07128
				L273.52081,156.83365L273.99608,156.83365L274.70899,156.83365L274.94663,157.07128L274.94663,157.54653L274.94663,158.02179
				L275.18427,158.25941L275.42191,158.25941L275.65954,158.02179L275.65954,157.54653L275.89718,157.30891L276.13482,156.83365
				L276.13482,156.3584L276.37246,155.64552L276.61009,154.93264L276.61009,154.45739L276.84773,153.98213L277.32301,153.50688L
				277.32301,153.03163L277.56065,153.03163L277.56065,152.794L277.56065,152.31875L277.79828,152.08112L278.27356,152.08112L278.27356,151.84349
				L278.27356,151.60587L278.03592,151.60587L277.56065,151.36824L277.56065,150.89298L277.56065,150.41773L277.56065,150.1801L
				277.56065,149.70485L277.56065,149.46722L277.56065,148.51672L277.56065,148.04146L277.56065,147.56621L277.79828,147.09096L
				277.56065,146.6157L277.08537,146.37808L277.08537,145.90282L277.79828,145.6652L277.79828,145.18994L278.27356,144.47706L278.74883,144.23944
				L279.69938,143.76418L279.93702,143.52656L280.4123,143.28893L280.88757,143.0513L281.60048,142.81368L282.55103,142.1008L282.55103,141.86317
				L282.78867,140.67503L282.78867,140.19978L282.3134,139.72453L281.60048,139.4869L281.12521,139.01165L280.88757,138.77402L280.4123,139.01165
				L279.93702,138.77402L279.46175,138.77402L278.98647,138.77402L278.74883,138.53639L278.74883,137.82351L278.74883,137.58589
				L278.5112,136.87301L275.65954,136.39775L273.04553,136.39775L273.99608,134.73437L274.23372,134.02149L276.13482,130.69471L
				276.84773,128.55607L277.79828,127.13031L278.74883,124.75404L279.46175,123.80354L279.69938,122.6154L281.36285,120.95201L282.55103,121.6649
				L284.45213,121.6649L285.64032,121.90252L288.0167,122.85303L289.20488,122.6154L291.34362,121.6649L291.8189,120.47676L291.8189,119.28863
				L291.58126,118.33812L291.8189,117.38761L293.00709,115.4866L293.00709,114.77372L293.00709,114.06084L293.24472,113.34796L293.00709,112.87271
				L292.76945,112.39745L292.76945,111.9222L292.76945,111.44694L293.00709,111.20932L293.48236,111.20932L293.72,111.20932L293.95764,111.20932
				L294.43291,110.73406L294.67055,110.25881L294.90819,108.83305L295.14582,107.64492L295.85874,107.16966L296.57165,106.21916
				L297.04692,105.26865L297.28456,104.55577L297.5222,104.08052L297.99747,103.84289L298.94802,103.60526L299.89857,103.60526L
				300.61149,104.08052L301.3244,104.31814L302.27495,104.31814L302.98786,104.08052L303.46314,104.08052L304.41369,104.08052L305.1266,104.08052
				L305.83951,104.08052L306.55242,103.84289L306.79006,103.84289L306.79006,103.60526L307.0277,103.13001L307.0277,102.65476L307.50297,101.46662
				L307.74061,100.51611L307.26534,99.80323L307.26534,99.32798L307.50297,98.85273L308.21589,97.90222L309.40408,97.90222L311.78045,97.66459
				L313.44391,96.71409L315.34501,95.52595L315.34501,93.86257L315.58265,91.96155L315.82029,90.53579L316.29556,89.11003L316.5332,87.9219
				L316.77084,86.97139L317.24611,85.54563L317.48375,84.3575L317.24611,83.40699L317.00848,81.98123L316.77084,80.31784L317.24611,78.41683
				L317.48375,77.94157L317.24611,76.51581L317.95903,75.80293L318.67194,75.32768L318.90958,74.85243L319.14721,74.6148L319.38485,74.37717
				L319.62249,74.13955L319.86013,73.90192L319.86013,73.42667L319.86013,72.71379L320.57304,71.52565L320.57304,70.81277L320.81068,69.86226
				L321.04831,68.91176L321.28595,67.72362L321.28595,67.01074L321.52359,66.77312L321.52359,66.29786L321.76123,65.82261L321.99886,65.58498
				L321.99886,64.8721L322.2365,64.15922L322.2365,63.68397L322.47414,63.20872L322.47414,62.73346L320.81068,60.83245L320.09776,59.88194
				L319.62249,58.69381L319.14721,57.98093L318.67194,57.26805L316.77084,56.07991L315.10738,55.60466L313.91919,54.65415L313.91919,54.41653
				L314.15683,53.70365L314.15683,53.46602L313.68155,53.22839L312.49336,52.75314L312.49336,52.27788L312.96864,51.80263L312.96864,51.565
				L312.96864,51.08975L312.731,50.6145L312.25573,50.13924L312.01809,48.95111L312.01809,48.0006L312.25573,46.57484L312.25573,45.62434
				L312.25573,44.67383L312.01809,43.24807L312.01809,42.53519L312.25573,42.05993L312.49336,41.34705L312.49336,41.10943L312.96864,40.8718
				L313.91919,40.8718L314.39446,40.8718L314.86974,40.8718L315.10738,41.10943L315.58265,41.10943L315.82029,40.8718L316.05793,40.63417
				L316.5332,40.39655L317.48375,40.15892L318.4343,40.15892L319.14721,39.92129L319.38485,39.44604L318.90958,38.97079L318.90958,38.25791
				L319.62249,37.54503L319.86013,36.83215L320.09776,36.59452L320.57304,36.11927L320.81068,36.11927L321.04831,35.88164L321.28595,35.40639
				L321.52359,35.16876L321.76123,34.69351L321.99886,34.45588L321.99886,34.21825L322.2365,33.98063L322.47414,33.50537L322.47414,33.26775
				L322.71178,33.26775L322.71178,33.03012L322.71178,32.79249L322.94941,32.55486L322.94941,32.31724L322.94941,32.07961L323.18705,31.60436
				L323.18705,31.36673L323.42469,31.36673L323.66233,31.36673L323.66233,31.1291L323.66233,30.89148L323.66233,30.65385L323.42469,30.41622
				L323.18705,30.1786L322.94941,29.94097L322.71178,28.75284L322.94941,28.51521L322.71178,27.80233L322.71178,26.85182L322.94941,25.42606
				L322.71178,24.47556L322.71178,23.76268L322.71178,23.52505L322.71178,23.28742L322.71178,23.04979L322.71178,22.81217L322.94941,22.81217
				L322.94941,22.57454L323.18705,22.57454L323.18705,22.33691L323.18705,22.09929L323.18705,21.86166L323.18705,21.62403L323.42469,21.62403
				L323.42469,21.38641L323.66233,21.38641L323.66233,21.14878L323.89997,21.14878L324.1376,20.91115L324.1376,20.67353L324.1376,20.4359
				L324.37524,20.4359L324.37524,20.19827L324.61288,20.19827L324.61288,19.96065L324.85052,19.72302L324.85052,19.48539L325.08815,19.48539
				L325.08815,19.24777L325.08815,19.01014L325.32579,18.77251L325.32579,18.53489L325.56343,18.53489L325.80107,18.53489L326.0387,18.53489
				L326.27634,18.53489L326.51398,18.77251L326.75162,18.77251L326.98925,18.77251L327.22689,18.77251L327.46453,18.77251L327.70217,19.01014
				L327.70217,18.77251L327.9398,18.77251L328.17744,18.77251L328.17744,18.53489L328.41508,18.53489L328.41508,18.77251L328.65272,18.77251
				L328.89035,18.77251L329.12799,18.77251L329.36563,18.77251L329.60327,18.77251L329.8409,18.77251L330.07854,19.01014L330.31618,19.01014
				L330.55382,18.77251L330.79145,18.77251L330.79145,19.01014L331.02909,19.01014L331.26673,19.01014L331.50437,19.01014L331.742,18.77251
				L331.97964,18.77251L332.21728,18.77251L332.45492,18.77251L332.69255,19.01014L332.69255,19.24777L332.93019,19.24777L333.16783,19.24777
				L333.40547,19.24777L333.6431,19.48539L333.88074,19.48539L334.11838,19.48539L334.35602,19.48539L334.59365,19.48539L334.83129,19.48539
				L335.06893,19.48539L335.30657,19.72302L335.5442,19.72302L335.78184,19.72302L336.01948,19.72302L336.25712,19.72302L336.49475,19.72302
				L336.97003,19.96065L337.20767,19.96065L337.4453,19.96065L337.4453,20.19827L337.68294,20.19827L337.92058,20.4359L338.15822,20.4359
				L338.39585,20.4359L338.63349,20.67353L338.87113,20.67353L339.10877,20.91115L339.3464,20.91115L339.58404,20.67353L340.05932,20.67353
				L340.05932,20.4359L340.29696,20.4359L340.29696,20.67353L340.53459,20.67353L340.77223,20.91115L341.00987,20.67353L341.24751,20.67353
				L341.48514,20.4359L341.72278,20.4359L341.96042,20.67353L342.19806,20.67353L342.43569,20.67353L342.67333,20.67353L342.91097,20.67353
				L343.14861,20.67353L343.38624,20.67353L343.62388,20.67353L343.86152,20.67353L344.09916,20.67353L344.33679,20.4359L344.57443,20.4359
				L344.57443,20.19827L344.81207,20.19827L345.04971,20.19827L345.04971,19.96065L345.28734,19.96065L345.76262,20.19827L346.00026,20.19827
				L346.23789,20.4359L346.47553,20.67353L346.71317,20.91115L347.18844,20.91115L347.42608,20.67353L347.66372,20.4359L347.90136,20.67353
				L348.13899,20.67353L348.37663,20.67353L348.61427,20.67353L348.85191,20.67353L349.08954,20.4359L349.32718,20.4359L349.56482,20.4359
				L349.80246,20.4359L350.04009,20.19827L350.75301,20.19827L350.99064,20.4359L350.99064,20.67353L351.22828,20.4359L351.22828,20.67353
				L351.46592,20.4359L351.70356,20.4359L351.94119,20.4359L352.17883,20.4359L352.17883,20.19827L352.41647,19.96065L352.89174,19.96065
				L352.89174,19.72302L353.36702,19.96065L353.60466,19.96065L353.84229,19.96065L354.07993,20.19827L354.55521,20.19827"/>
		</g>
	</g>
</svg>
