<?xml version="1.0" encoding="utf-8" standalone="no"?>
<!-- Creator: Esri ArcMap 10.8.0.12790 -->
<!DOCTYPE svg PUBLIC "-//W3C//DTD SVG 1.1//EN"  "http://www.w3.org/Graphics/SVG/1.1/DTD/svg11.dtd">
<svg width="774.73701pt" height="404.24882pt" viewBox="0 0 774.73701 404.24882" enable-background="new 0 0 774.73701 404.24882"
	version="1.1" xmlns="http://www.w3.org/2000/svg" xmlns:xlink="http://www.w3.org/1999/xlink" >
	<g id="Layers">
		<g id="Mora">
			<clipPath id="SVG_CP_1">
				<path d="M0,404.24882L0,0L774.73701,0L774.73701,404.24882L0,404.24882z"/>
			</clipPath>
			<path clip-path="url(#SVG_CP_1)" fill="none" stroke="#000000" stroke-width="0.47528" stroke-miterlimit="10" stroke-linecap="round" stroke-linejoin="round" d="
				M564.86443,230.49795L562.96333,230.9732L560.34932,234.06235L559.16113,235.72573L556.54711,238.102L553.69546,244.99318L549.41799,248.55758
				L543.47705,254.02299L539.91249,257.58739L537.53611,259.96366L535.39737,262.81518L532.54572,266.85484L531.35754,268.99348
				L528.98116,271.60737L525.4166,274.93415L524.46605,278.26092L521.85203,279.21143L519.7133,280.16194L519.00038,281.82532L519.00038,284.20159
				L519.23802,286.57786L519.47566,289.19175L519.00038,291.56802L515.67346,295.13242L512.82181,297.50869L510.92071,299.4097L
				510.44543,301.78597L506.64323,302.73648L504.50449,306.06325L501.41521,307.25138L500.22702,307.72664L493.33553,308.67715L
				487.86987,310.57816L478.602,316.51883L474.7998,318.65747L473.61161,319.8456L472.8987,322.22187L473.61161,324.83576L473.61161,326.26152
				L471.94815,327.21203L470.04705,328.87542L469.33414,330.06355L467.67068,331.48931L465.05666,330.53881L464.10611,331.96457
				L462.91792,334.10321L461.25446,336.7171L459.591,338.85574L457.45226,338.85574L454.12534,337.90523L451.9866,339.09337L448.1844,340.2815
				L444.14456,341.23201L442.00582,338.38049L438.6789,338.85574L436.54016,340.2815L437.01543,342.42014L434.16378,344.55878L433.21323,346.4598
				L432.9756,347.64793L431.07449,349.31132L430.59922,350.49945L430.12394,351.21233L427.03466,349.78657L426.08411,350.49945L
				424.65828,352.63809L422.99482,352.40047L421.56899,350.49945L418.71734,349.07369L416.81624,350.97471L416.34097,353.35097L
				416.34097,355.25199L413.01404,356.44012L410.8753,355.96487L410.16239,357.153L374.99204,355.48961L344.81207,351.68759L313.91919,337.90523
				L299.4233,335.52897L289.20488,344.32116L270.90679,368.08383L239.301,385.90584L236.68699,384.00482L234.78589,384.7177L230.27077,382.57906
				L226.23094,380.91568L222.90401,378.30178L221.95346,374.97501L219.10181,369.03434L218.62654,368.55909L216.01252,363.56892
				L215.29961,361.43028L214.82433,358.34114L214.82433,352.87572L214.82433,349.54895L213.16087,347.64793L212.21032,343.13302
				L211.73505,340.04388L211.02213,336.24185L210.30922,331.48931L210.07158,328.63779L224.80511,321.03374L275.18427,280.63719
				L303.70077,240.00302L318.19666,196.99257L324.61288,171.80414L329.12799,150.1801L330.55382,143.52656L331.50437,142.33842L
				331.97964,141.86317L332.21728,141.62554L333.40547,140.43741L333.6431,140.19978L334.11838,139.96215L334.59365,139.96215L335.06893,139.96215
				L335.30657,139.96215L335.78184,140.43741L336.25712,140.91266L336.73239,141.86317L337.20767,142.1008L337.4453,142.33842L337.92058,142.33842
				L338.63349,142.1008L338.87113,142.1008L339.3464,142.81368L339.82168,143.52656L340.29696,143.76418L341.48514,144.00181L341.96042,143.76418
				L342.43569,143.52656L342.67333,143.52656L343.14861,143.76418L344.09916,144.00181L344.33679,144.00181L344.57443,144.71469
				L344.57443,144.95232L345.28734,144.95232L345.76262,145.18994L346.23789,145.18994L346.71317,144.95232L347.18844,144.71469
				L347.66372,144.47706L348.61427,144.47706L348.85191,144.23944L349.32718,144.23944L349.56482,144.47706L349.80246,144.47706
				L350.51537,144.47706L350.75301,144.47706L351.46592,144.47706L351.46592,144.23944L351.70356,143.76418L352.17883,143.28893
				L352.89174,142.57605L353.12938,142.33842L353.36702,142.1008L353.60466,142.33842L353.84229,142.57605L354.55521,142.81368L
				355.50576,143.0513L355.7434,142.57605L355.98103,142.57605L355.98103,142.33842L356.69395,142.1008L356.93158,142.1008L356.93158,141.86317
				L357.40686,141.62554L357.6445,141.38792L357.88213,141.15029L357.88213,140.67503L358.11977,140.43741L358.35741,140.43741L
				358.59505,140.19978L358.59505,139.96215L358.83268,139.96215L359.07032,139.72453L359.30796,139.4869L359.5456,139.24927L359.30796,138.77402
				L359.5456,138.29877L360.02087,138.06114L360.25851,138.06114L360.49615,137.82351L360.49615,137.11063L360.97142,136.87301L
				361.4467,136.63538L361.68433,136.63538L362.15961,136.39775L362.39725,136.16013L362.39725,135.9225L362.63488,135.44725L362.63488,135.20962
				L362.39725,134.97199L362.15961,134.49674L362.15961,134.25911L362.39725,134.02149L362.63488,134.02149L363.11016,133.78386
				L363.3478,133.78386L363.58543,133.78386L363.3478,134.02149L363.58543,134.25911L363.82307,134.25911L364.06071,134.25911L364.06071,134.02149
				L364.29835,134.02149L364.53598,133.78386L364.77362,133.54623L365.01126,133.07098L365.01126,132.83335L365.2489,132.83335L
				365.96181,132.59573L366.43708,132.59573L366.67472,132.59573L366.91236,132.3581L367.62527,132.12047L367.86291,132.12047L368.57582,131.88285
				L368.81346,131.64522L369.28873,131.40759L369.76401,131.40759L370.23928,131.64522L370.47692,131.64522L370.71456,131.64522
				L370.9522,131.64522L371.66511,131.16996L372.14039,131.16996L372.37802,131.16996L372.37802,130.93234L375.46731,126.89268L
				378.31896,123.09066L380.93297,120.23913L381.88352,118.57575L382.59644,115.4866L383.07171,113.34796L385.68572,109.07068L387.11155,106.93204
				L388.77501,105.98153L392.81485,105.03102L400.65689,103.36764L405.40964,101.70425L407.78602,100.99137L410.63767,99.80323L
				412.53877,98.6151L415.15278,97.42697L418.71734,95.0507L420.61844,93.62494L422.75718,92.67443L425.37119,91.4863L428.46048,89.58528
				L431.31213,88.39715L433.68851,87.44664L436.06488,86.25851L438.91653,84.83275L440.81763,83.40699L442.24346,82.45648L443.66928,81.7436
				L445.33275,81.03072L447.47148,80.55547L449.13495,79.60496L451.03605,78.65445L452.69951,76.99107L455.07589,76.04056L459.82864,72.71379
				L463.15556,70.09989L466.72013,67.486L472.18579,64.15922L474.08689,62.25821L474.7998,61.54533L476.22563,60.59482L478.12673,59.16906
				L480.26547,57.03042L484.06767,54.1789L486.91932,52.04026L488.82042,50.13924L491.67207,48.0006L493.57317,46.81247L495.47427,44.67383
				L497.85064,42.53519L500.22702,40.8718L501.89048,38.97079L504.02922,37.06977L505.69268,35.88164L507.59378,34.45588L509.25724,33.26775
				L510.68307,31.36673L511.63362,28.99046L512.58417,27.80233L513.53472,26.37657L514.72291,24.71318L516.14873,23.04979L516.86165,22.09929
				L518.28747,21.38641L519.23802,20.91115L519.95093,20.91115L521.13912,20.91115L522.56495,21.38641L523.75313,21.86166L525.17896,22.33691
				L527.08006,22.33691L528.50589,22.33691L529.69407,22.33691L531.59517,22.09929L532.78336,21.62403L533.97155,20.91115L534.68446,20.19827
				L535.87265,19.48539L537.06084,19.01014L539.67485,18.53489L541.10067,18.53489L541.33831,22.33691L544.18996,31.36673L545.61579,38.97079
				L546.3287,47.28772L545.37815,52.75314L545.14051,54.1789L544.66524,62.25821L541.33831,72.23853L539.19957,79.60496L537.29847,86.49614
				L539.43721,94.81307L539.19957,96.95171L539.19957,101.22899L538.96194,107.16966L539.43721,112.15983L541.10067,117.38761L542.76414,126.41743
				L543.47705,133.78386L544.4276,137.82351L548.70508,144.23944L552.74491,149.94248L553.9331,152.31875L553.9331,159.44755L552.26964,164.43771
				L552.74491,168.47736L552.50728,172.27939L552.50728,175.84379L553.69546,177.26955L553.22019,178.69531L552.26964,184.63598
				L551.79436,188.67564L550.36854,192.24004L550.60618,194.14105L550.36854,198.65596L550.84381,202.22036L551.79436,204.359L552.26964,207.44815
				L551.31909,210.5373L552.032,212.91357L553.9331,215.28983L554.40838,217.90373L555.8342,220.75525L557.7353,222.18101L560.11168,223.60677
				L561.06223,225.27016L562.25042,227.88405L564.86443,230.49795"/>
		</g>
	</g>
</svg>
