<?xml version="1.0" encoding="utf-8" standalone="no"?>
<!-- Creator: Esri ArcMap 10.8.0.12790 -->
<!DOCTYPE svg PUBLIC "-//W3C//DTD SVG 1.1//EN"  "http://www.w3.org/Graphics/SVG/1.1/DTD/svg11.dtd">
<svg width="774.73701pt" height="404.24882pt" viewBox="0 0 774.73701 404.24882" enable-background="new 0 0 774.73701 404.24882"
	version="1.1" xmlns="http://www.w3.org/2000/svg" xmlns:xlink="http://www.w3.org/1999/xlink" >
	<g id="Layers">
		<g id="Moulvoudaye">
			<clipPath id="SVG_CP_1">
				<path d="M0,404.24882L0,0L774.73701,0L774.73701,404.24882L0,404.24882z"/>
			</clipPath>
			<path clip-path="url(#SVG_CP_1)" fill="none" stroke="#000000" stroke-width="0.47528" stroke-miterlimit="10" stroke-linecap="round" stroke-linejoin="round" d="
				M474.7998,131.16996L528.98116,194.37868L540.6254,207.9234L491.67207,253.54774L470.28469,272.32025L448.89731,285.38972L449.84786,287.05311
				L449.13495,287.52836L448.1844,287.76599L444.61983,287.76599L441.53055,286.1026L437.49071,282.77583L426.55938,295.13242L405.88492,316.99408
				L385.92336,337.19235L359.5456,362.38079L335.30657,385.90584L318.4343,384.00482L292.29417,380.44042L262.11421,376.40077L242.39029,373.31162
				L241.67738,372.12349L239.06336,357.62825L234.31061,332.20219L237.87518,328.40017L245.95485,315.33069L251.65815,303.21173
				L255.22272,296.79581L265.20349,293.70666L267.57987,283.72634L273.75844,253.07249L283.73922,247.60707L295.14582,233.58709
				L301.3244,209.34916L304.65132,200.55698L312.96864,176.55667L321.99886,160.63568L321.52359,159.44755L348.85191,120.71439L
				315.58265,102.41713L313.44391,76.99107L389.01265,18.53489L408.26129,30.65385L410.16239,55.84229L474.7998,131.16996"/>
		</g>
	</g>
</svg>
