<?xml version="1.0" encoding="utf-8" standalone="no"?>
<!-- Creator: Esri ArcMap 10.8.0.12790 -->
<!DOCTYPE svg PUBLIC "-//W3C//DTD SVG 1.1//EN"  "http://www.w3.org/Graphics/SVG/1.1/DTD/svg11.dtd">
<svg width="774.73701pt" height="404.24882pt" viewBox="0 0 774.73701 404.24882" enable-background="new 0 0 774.73701 404.24882"
	version="1.1" xmlns="http://www.w3.org/2000/svg" xmlns:xlink="http://www.w3.org/1999/xlink" >
	<g id="Layers">
		<g id="Moutourwa">
			<clipPath id="SVG_CP_1">
				<path d="M0,404.24882L0,0L774.73701,0L774.73701,404.24882L0,404.24882z"/>
			</clipPath>
			<path clip-path="url(#SVG_CP_1)" fill="none" stroke="#000000" stroke-width="0.47528" stroke-miterlimit="10" stroke-linecap="round" stroke-linejoin="round" d="
				M464.58139,385.90584L453.8877,380.44042L431.07449,373.78687L336.97003,343.13302L333.6431,351.92521L334.83129,355.25199L334.11838,357.86588
				L326.51398,361.66791L319.62249,357.86588L316.05793,361.19266L306.79006,366.18282L304.88896,365.46994L302.98786,363.09367
				L299.89857,364.04418L297.28456,361.43028L296.33401,359.52927L293.72,356.91537L293.48236,353.11335L292.29417,352.16284L292.29417,350.0242
				L292.76945,349.54895L292.29417,346.22217L290.15543,343.60828L289.20488,344.55878L287.06615,345.27166L288.96725,341.70726
				L287.30378,339.09337L287.06615,336.00422L284.45213,330.53881L279.93702,327.21203L279.22411,314.85544L273.04553,306.77613
				L267.34223,304.16224L267.57987,297.03343L268.53042,293.23141L268.29278,288.95412L269.24333,287.52836L278.98647,206.49764
				L275.18427,194.14105L272.57026,182.49734L269.95624,176.08142L264.96586,154.45739L264.49058,150.41773L266.39168,136.16013
				L267.34223,131.16996L269.48097,102.89238L270.43152,93.38731L269.95624,88.63478L268.05514,86.97139L269.24333,80.55547L268.76806,74.85243
				L268.76806,72.47616L278.03592,71.52565L284.92741,68.67413L287.77906,65.10973L309.40408,63.44634L347.90136,59.64431L369.52637,58.21855
				L495.94954,18.53489L496.90009,19.96065L492.86025,49.66399L489.05805,67.01074L488.58278,89.82291L490.0086,114.29847L505.45504,140.91266
				L510.44543,158.49704L503.07867,182.9726L493.57317,210.77493L486.2064,233.34947L484.3053,243.80504L476.7009,269.94399L478.36436,280.63719
				L480.02783,294.65717L470.9976,303.21173L456.73935,308.20189L451.03605,329.11305L459.82864,336.24185L464.81903,357.39063L
				466.24485,369.74722L465.05666,381.39093L464.58139,385.90584"/>
		</g>
	</g>
</svg>
