<?xml version="1.0" encoding="utf-8" standalone="no"?>
<!-- Creator: Esri ArcMap 10.8.0.12790 -->
<!DOCTYPE svg PUBLIC "-//W3C//DTD SVG 1.1//EN"  "http://www.w3.org/Graphics/SVG/1.1/DTD/svg11.dtd">
<svg width="774.73701pt" height="404.24882pt" viewBox="0 0 774.73701 404.24882" enable-background="new 0 0 774.73701 404.24882"
	version="1.1" xmlns="http://www.w3.org/2000/svg" xmlns:xlink="http://www.w3.org/1999/xlink" >
	<g id="Layers">
		<g id="Mozogo">
			<clipPath id="SVG_CP_1">
				<path d="M0,404.24882L0,0L774.73701,0L774.73701,404.24882L0,404.24882z"/>
			</clipPath>
			<path clip-path="url(#SVG_CP_1)" fill="none" stroke="#000000" stroke-width="0.47528" stroke-miterlimit="10" stroke-linecap="round" stroke-linejoin="round" d="
				M547.51689,183.9231L544.18996,184.16073L538.01139,186.77462L536.11029,190.81428L530.40699,194.61631L526.84242,201.26986L
				527.3177,209.34916L526.60479,214.33933L520.90148,214.81458L518.52511,217.6661L522.32731,226.22066L522.80258,231.21083L516.86165,243.56742
				L516.86165,251.64673L516.86165,264.00332L517.09928,264.95382L517.57456,266.14196L519.00038,268.04297L519.47566,268.51822
				L520.42621,269.46873L521.37676,269.94399L522.56495,270.89449L523.75313,271.60737L524.70368,272.32025L525.65423,273.03313
				L526.12951,273.98364L526.84242,274.93415L527.3177,275.88465L527.79297,276.59753L528.50589,276.83516L529.45644,277.54804L
				530.40699,278.02329L532.30809,278.02329L533.73391,278.49855L534.44682,278.73617L534.9221,279.44906L535.15974,280.16194L535.39737,282.5382
				L535.15974,283.25108L534.44682,283.72634L533.49627,283.96396L532.54572,283.72634L532.07045,283.25108L531.35754,282.77583
				L529.93171,282.30058L528.74352,282.77583L528.74352,283.72634L528.98116,284.67684L529.69407,286.34023L530.40699,287.52836
				L531.1199,288.95412L531.1199,290.14226L530.88226,290.85514L529.45644,292.04327L527.08006,294.18191L526.12951,295.37005L525.4166,297.27106
				L525.4166,299.64733L526.12951,301.07309L527.08006,303.68698L527.55534,305.35037L527.3177,307.25138L526.12951,309.62765L523.27786,312.24155
				L520.90148,313.19205L519.7133,314.61781L518.76275,315.80595L518.52511,316.99408L519.23802,318.18221L520.90148,318.65747L
				524.70368,317.46933L525.89187,317.23171L526.84242,318.41984L527.08006,320.08323L526.84242,321.03374L525.89187,322.4595L524.46605,322.93475
				L523.27786,322.93475L521.37676,323.64763L519.47566,324.59814L515.43582,325.78627L513.53472,326.9744L511.63362,327.92491L
				510.92071,328.63779L510.68307,330.30118L511.15835,331.01406L511.87126,332.67745L511.87126,334.10321L511.39598,335.76659L
				510.68307,337.90523L510.44543,339.09337L510.44543,341.70726L511.39598,344.55878L511.63362,345.98454L512.1089,348.59844L512.82181,350.0242
				L514.01,350.97471L515.19818,351.44996L515.9111,352.16284L514.48527,354.53911L513.53472,355.96487L512.58417,357.39063L512.34653,358.57876
				L512.34653,359.7669L512.82181,362.85604L512.58417,365.46994L512.1089,367.60858L510.44543,369.50959L508.54433,371.41061L507.83142,372.59874
				L506.16796,374.0245L504.50449,374.49975L503.07867,374.0245L502.36576,373.07399L502.12812,372.12349L501.41521,371.41061L500.70229,371.41061
				L499.51411,372.12349L499.03883,373.07399L499.03883,373.54925L498.56356,374.73738L497.85064,376.40077L496.90009,377.11365
				L495.94954,377.11365L494.28608,376.40077L493.33553,375.45026L492.86025,374.97501L491.43443,374.97501L491.19679,375.68789
				L490.72152,377.11365L489.53333,379.01466L486.44404,380.91568L484.3053,381.62856L480.74074,382.57906L479.55255,384.24245L
				477.41381,385.90584L468.62123,383.29194L458.40281,376.87602L454.83825,366.8957L425.13356,355.25199L422.75718,357.62825L419.90553,358.10351
				L419.90553,360.95503L417.05388,361.90554L415.86569,360.24215L410.63767,360.7174L411.11294,364.04418L406.12255,366.42044L
				391.15139,366.18282L386.39864,370.4601L380.69534,373.78687L377.36841,373.31162L372.14039,374.26213L365.72417,380.44042L354.31757,380.67805
				L349.56482,380.67805L347.90136,377.35127L340.53459,373.78687L334.83129,373.78687L330.79145,375.92551L326.75162,375.21263
				L322.71178,378.06416L316.5332,377.82653L308.45353,377.11365L297.28456,378.06416L292.05653,382.10381L278.98647,379.01466L
				270.43152,376.16314L251.65815,363.3313L237.3999,365.23231L229.32022,367.37095L214.34906,371.88586L217.91362,360.00452L222.1911,347.4103
				L226.46857,333.86558L230.74605,316.04357L226.70621,301.31072L228.36967,298.22157L232.40951,296.55818L227.8944,274.45889L
				228.60731,273.98364L229.32022,273.50839L230.27077,272.08263L230.50841,271.60737L230.98369,271.36975L231.45896,271.60737L
				231.93424,271.845L232.40951,272.08263L232.88479,271.845L233.12243,271.845L233.83534,270.41924L234.31061,269.2311L234.54825,267.56772
				L236.21171,265.19145L237.16226,264.24094L238.82573,262.81518L239.53864,262.1023L239.77628,261.38942L240.48919,260.43892L
				240.48919,259.96366L241.43974,258.06265L241.91501,257.11214L242.62793,255.92401L243.34084,255.44875L244.76666,254.49825L
				245.0043,254.26062L245.24194,254.02299L245.24194,253.31011L245.0043,252.59723L244.29139,251.88435L243.81611,250.93385L242.62793,248.08232
				L242.15265,247.60707L241.67738,247.13182L241.43974,247.13182L240.48919,247.36944L240.01391,247.13182L239.301,246.41894L239.301,245.70606
				L239.301,245.2308L239.301,244.75555L240.01391,244.2803L240.48919,244.2803L241.2021,244.2803L241.43974,244.04267L241.67738,243.80504
				L241.91501,243.32979L241.67738,243.09216L241.67738,242.61691L241.67738,241.19115L241.43974,240.24064L240.96446,239.52776
				L240.96446,238.81488L240.96446,238.57725L242.15265,236.91387L242.39029,235.96336L242.86556,235.72573L243.1032,235.01285L
				243.34084,234.29997L243.81611,233.82472L244.76666,233.34947L245.71721,232.39896L247.14304,231.44845L248.33123,230.26032L
				249.28178,229.78506L250.23233,229.07218L250.46997,228.59693L250.94524,228.3593L251.42052,227.88405L251.42052,227.4088L251.18288,226.93354
				L251.18288,226.45829L250.46997,225.50778L249.99469,225.27016L249.99469,225.03253L249.99469,224.7949L249.51942,224.31965L
				249.28178,224.31965L248.8065,224.31965L248.33123,223.8444L248.09359,223.8444L248.09359,223.13152L248.09359,222.89389L248.09359,222.65626
				L248.33123,222.65626L248.8065,222.41864L249.51942,221.70576L251.42052,220.28L253.32162,218.14135L254.27217,217.90373L255.22272,217.6661
				L255.69799,217.6661L255.69799,217.42847L255.93563,217.19085L256.17327,216.47797L256.88618,215.52746L257.12382,215.05221L
				257.12382,214.81458L255.93563,213.15119L255.69799,212.91357L255.69799,212.20069L255.93563,211.96306L256.88618,211.25018L
				257.36145,211.01255L258.54964,211.01255L259.02492,211.48781L259.73783,211.48781L259.97547,211.48781L260.68838,211.25018L
				260.92602,210.77493L260.68838,210.29967L260.45074,209.58679L259.97547,208.39866L259.97547,207.9234L260.45074,206.9729L260.68838,206.49764
				L260.45074,205.78476L260.45074,205.54714L260.92602,204.83426L261.16365,204.83426L261.63893,204.83426L263.06476,205.54714
				L263.54003,206.02239L264.01531,206.02239L264.01531,205.78476L264.25294,205.07188L264.25294,204.59663L264.01531,203.88375
				L264.01531,202.69562L263.77767,202.22036L263.30239,201.74511L262.82712,200.7946L262.58948,200.08172L262.58948,198.65596L
				262.82712,197.94308L262.82712,197.46783L263.06476,196.99257L264.01531,196.27969L264.25294,196.04207L266.39168,195.32919L
				266.62932,195.32919L267.10459,193.6658L267.81751,192.47767L268.53042,192.00241L269.24333,191.76479L269.71861,191.28953L269.95624,191.05191
				L270.19388,190.33902L270.19388,189.86377L269.95624,188.67564L269.95624,187.96276L270.19388,187.72513L270.90679,187.01225
				L271.61971,186.537L271.85734,186.06174L271.61971,185.58649L271.14443,184.87361L270.43152,184.16073L270.19388,183.9231L270.19388,183.44785
				L270.19388,182.49734L270.19388,182.25972L270.43152,181.54684L271.38207,179.40819L271.61971,177.74481L272.09498,177.26955
				L272.09498,174.65566L271.61971,172.75465L271.61971,171.56651L271.85734,171.09126L271.85734,170.85363L272.09498,170.85363
				L272.33262,170.85363L272.80789,171.09126L273.52081,171.32889L274.23372,171.80414L274.94663,172.04177L275.65954,172.04177
				L275.89718,171.80414L276.13482,171.56651L276.13482,171.32889L275.89718,170.37838L276.37246,169.42787L276.61009,167.76448
				L276.13482,165.62584L276.37246,164.67534L276.61009,163.01195L276.61009,162.29907L275.89718,160.39805L275.65954,159.68517
				L275.65954,159.44755L276.13482,158.25941L276.13482,157.78416L276.13482,156.3584L276.61009,155.88315L277.56065,155.17027L
				277.56065,154.93264L277.56065,153.98213L278.03592,153.50688L280.4123,153.03163L281.83812,152.55637L282.07576,152.31875L282.3134,151.84349
				L282.55103,151.36824L282.78867,149.94248L283.02631,149.46722L283.50158,149.46722L283.73922,149.46722L285.16505,149.70485
				L286.35323,150.1801L286.82851,150.89298L287.30378,152.08112L288.49197,154.69501L288.96725,155.17027L289.44252,155.40789L
				290.86835,155.40789L291.8189,155.64552L292.29417,155.88315L293.00709,156.12077L293.24472,156.3584L294.43291,156.12077L296.57165,155.17027
				L296.80929,154.69501L297.28456,153.74451L297.99747,151.84349L300.13621,145.18994L300.37385,144.47706L300.84912,144.00181
				L302.75022,142.81368L303.2255,142.1008L303.46314,141.86317L303.2255,139.72453L303.2255,139.4869L303.46314,139.01165L303.2255,138.29877
				L303.70077,137.58589L304.88896,135.68487L305.36424,135.44725L305.36424,134.97199L304.88896,134.02149L304.65132,131.64522
				L304.65132,130.69471L304.88896,129.7442L305.60187,128.7937L306.31479,128.55607L307.0277,128.08082L309.16644,127.84319L309.64171,127.84319
				L310.11699,127.36794L310.59226,127.36794L310.8299,127.60556L311.30518,128.08082L311.54281,128.7937L311.78045,129.03132L312.01809,129.03132
				L312.49336,129.7442L312.96864,130.21946L313.68155,130.21946L313.91919,130.69471L314.39446,130.69471L314.6321,130.69471L314.86974,130.45708
				L317.24611,130.45708L317.72139,130.21946L317.95903,129.26895L318.67194,128.31844L318.90958,127.84319L319.62249,127.60556
				L320.3354,127.60556L320.81068,128.08082L321.28595,128.31844L321.52359,128.31844L322.2365,127.13031L322.2365,126.65506L322.2365,126.41743
				L321.99886,125.94218L320.3354,124.04116L320.09776,123.80354L320.09776,123.09066L320.57304,121.90252L320.81068,121.6649L321.52359,121.18964
				L321.76123,121.18964L322.2365,121.42727L322.47414,121.42727L323.42469,120.71439L324.37524,119.76388L324.61288,118.81337L
				324.85052,118.10049L324.61288,117.62524L324.37524,117.14999L323.42469,116.19948L323.18705,115.96185L323.18705,115.4866L323.18705,115.24897
				L323.42469,115.24897L325.32579,114.77372L327.46453,114.77372L332.21728,115.24897L332.45492,115.24897L332.69255,115.96185
				L333.40547,116.91236L334.59365,117.14999L334.83129,117.14999L335.30657,116.43711L335.78184,115.24897L336.01948,115.01135
				L336.97003,114.53609L337.92058,114.29847L338.15822,114.29847L338.15822,113.34796L338.39585,112.63508L338.63349,111.9222L
				337.20767,110.25881L336.73239,110.02118L336.73239,109.54593L336.73239,108.59542L336.97003,108.3578L338.39585,107.64492L339.3464,107.64492
				L339.58404,107.64492L340.77223,108.12017L341.00987,108.12017L341.96042,108.3578L342.19806,108.83305L342.91097,108.83305L
				343.14861,108.83305L344.81207,109.54593L345.28734,109.54593L345.76262,109.54593L346.47553,109.3083L347.18844,109.07068L347.42608,108.59542
				L347.42608,108.3578L346.71317,106.45678L346.23789,105.7439L345.76262,104.7934L345.76262,104.31814L346.00026,104.08052L346.95081,103.36764
				L347.66372,102.1795L347.90136,101.70425L349.56482,100.27849L350.04009,100.04086L351.22828,99.80323L352.17883,100.04086L353.12938,100.27849
				L353.36702,100.27849L354.07993,100.04086L354.31757,99.80323L354.31757,99.32798L354.55521,98.37747L354.55521,97.66459L354.55521,97.42697
				L354.79284,97.18934L356.69395,97.18934L358.11977,97.18934L358.83268,97.66459L359.30796,98.37747L360.25851,99.09035L360.73378,99.32798
				L361.20906,99.09035L362.15961,98.6151L362.39725,98.13985L362.39725,97.66459L362.15961,96.71409L362.15961,96.23883L360.97142,94.81307
				L360.49615,94.57545L359.78323,94.57545L358.83268,94.33782L357.6445,93.62494L357.6445,93.14969L357.6445,92.67443L357.6445,92.19918
				L357.88213,91.72392L358.83268,90.77342L359.07032,90.29816L359.07032,90.06054L358.11977,89.11003L357.40686,88.39715L356.69395,86.25851
				L356.45631,85.54563L356.69395,85.07038L356.93158,84.59512L357.88213,83.64462L358.11977,83.40699L359.30796,83.16936L361.68433,83.16936
				L362.15961,83.16936L362.39725,82.69411L362.63488,82.21886L363.11016,81.98123L363.3478,81.03072L363.11016,80.08021L362.63488,79.12971
				L362.39725,78.89208L362.63488,78.41683L362.87252,78.41683L363.11016,78.1792L363.58543,78.1792L364.77362,78.1792L365.2489,77.94157
				L365.48653,77.70395L365.72417,76.51581L365.48653,76.27819L364.77362,75.56531L364.29835,75.09005L364.06071,74.6148L363.82307,73.42667
				L363.58543,72.71379L363.3478,72.47616L362.87252,72.23853L362.63488,72.23853L362.15961,72.0009L361.4467,71.52565L360.97142,70.33752
				L360.49615,69.86226L360.49615,69.38701L360.02087,69.14938L359.78323,68.67413L359.78323,68.19888L359.78323,67.96125L360.02087,67.486
				L360.25851,66.53549L360.97142,66.29786L362.87252,66.77312L364.06071,66.77312L365.48653,66.77312L365.96181,66.53549L366.19945,66.29786
				L366.19945,65.82261L366.19945,65.58498L367.15,64.8721L371.18984,61.78295L371.66511,61.3077L372.14039,60.59482L372.37802,60.11957
				L372.37802,59.40669L372.37802,57.98093L372.61566,57.26805L372.8533,57.03042L373.56621,56.55517L374.99204,56.07991L375.46731,55.60466
				L375.94259,53.46602L375.94259,52.75314L376.18022,52.27788L376.6555,52.04026L377.36841,52.04026L377.84369,51.80263L378.31896,51.565
				L379.03187,50.37687L379.26951,49.66399L379.03187,49.42636L378.31896,48.71348L378.08132,48.47586L377.13077,48.0006L377.13077,47.76298
				L376.89314,47.28772L377.13077,46.33722L377.36841,46.09959L378.08132,45.62434L379.98242,45.38671L381.17061,44.91146L382.3588,44.19858
				L383.78462,44.19858L384.2599,43.96095L384.49754,43.72332L384.73517,43.4857L384.73517,42.77281L385.21045,41.10943L385.44809,40.39655
				L385.21045,38.97079L385.44809,38.25791L385.44809,37.78265L385.92336,37.3074L386.87391,36.59452L387.34919,36.59452L388.29974,37.3074
				L388.77501,37.3074L389.48793,37.3074L389.9632,36.83215L391.8643,33.98063L392.81485,32.79249L394.47831,31.1291L395.90414,29.22809
				L396.14178,28.51521L396.61705,28.03996L397.32996,27.80233L399.23106,26.85182L400.89453,25.66369L402.08272,24.23793L402.55799,23.28742
				L402.55799,22.57454L402.79563,21.86166L402.08272,20.4359L401.3698,19.01014L400.89453,18.53489L406.83547,19.72302L415.15278,22.81217
				L426.79702,28.03996L432.9756,33.26775L439.62945,41.58468L450.79841,43.01044L456.50171,44.67383L462.20501,49.66399L469.0965,50.37687
				L487.15695,60.83245L494.28608,65.58498L498.80119,68.19888L502.60339,72.23853L508.30669,73.66429L517.8122,90.53579L523.99077,100.27849
				L527.79297,106.21916L532.30809,124.27879L535.63501,129.50658L552.50728,147.80384L556.78475,157.78416L560.58695,167.0516L
				557.97294,175.84379L547.51689,183.9231"/>
		</g>
	</g>
</svg>
