<?xml version="1.0" encoding="utf-8" standalone="no"?>
<!-- Creator: Esri ArcMap 10.8.0.12790 -->
<!DOCTYPE svg PUBLIC "-//W3C//DTD SVG 1.1//EN"  "http://www.w3.org/Graphics/SVG/1.1/DTD/svg11.dtd">
<svg width="774.73701pt" height="404.24882pt" viewBox="0 0 774.73701 404.24882" enable-background="new 0 0 774.73701 404.24882"
	version="1.1" xmlns="http://www.w3.org/2000/svg" xmlns:xlink="http://www.w3.org/1999/xlink" >
	<g id="Layers">
		<g id="Ndoukoula">
			<clipPath id="SVG_CP_1">
				<path d="M0,404.24882L0,0L774.73701,0L774.73701,404.24882L0,404.24882z"/>
			</clipPath>
			<path clip-path="url(#SVG_CP_1)" fill="none" stroke="#000000" stroke-width="0.47528" stroke-miterlimit="10" stroke-linecap="round" stroke-linejoin="round" d="
				M459.591,22.09929L463.63084,26.37657L467.90831,29.22809L482.4042,31.1291L488.1075,33.50537L493.57317,35.64401L495.71191,37.06977
				L502.12812,42.05993L505.69268,42.53519L508.30669,40.63417L513.05945,41.10943L513.05945,43.24807L509.97016,45.62434L511.39598,50.13924
				L516.62401,49.90162L519.95093,50.6145L521.85203,51.08975L523.99077,50.13924L526.60479,51.80263L530.64462,54.89178L530.88226,57.26805
				L529.45644,58.69381L528.74352,61.3077L532.07045,62.73346L534.68446,63.9216L534.44682,67.486L536.8232,67.96125L538.48666,68.19888
				L540.6254,70.81277L543.23941,71.28802L544.18996,68.67413L546.09106,68.4365L546.09106,70.57514L548.70508,72.95141L549.89326,73.18904
				L551.31909,76.04056L556.54711,78.41683L561.29987,76.99107L564.62679,75.80293L568.66663,75.56531L571.043,77.22869L569.61718,79.36733
				L569.85482,81.03072L561.29987,86.49614L554.17074,91.24867L550.60618,94.10019L547.04161,96.71409L543.23941,103.84289L540.86304,109.78356
				L535.15974,119.52625L532.30809,123.80354L531.83281,125.2293L532.78336,127.13031L413.25168,164.91296L392.57721,166.1011L356.21867,169.6655
				L335.78184,171.09126L333.16783,174.65566L326.51398,177.50718L317.72139,178.22006L317.72139,180.59633L318.19666,186.06174
				L317.24611,192.00241L318.90958,193.6658L319.38485,198.18071L318.4343,206.9729L316.5332,233.82472L315.58265,238.57725L313.68155,251.88435
				L314.39446,255.92401L318.90958,276.35991L321.52359,282.30058L323.89997,293.23141L327.46453,305.11274L318.19666,381.62856
				L317.24611,383.05432L309.40408,384.7177L293.24472,385.90584L285.16505,385.90584L276.37246,383.7672L266.86696,374.49975L262.58948,368.08383
				L274.23372,357.153L273.99608,354.06385L272.80789,351.44996L271.85734,347.64793L268.29278,348.83607L264.96586,346.4598L260.45074,342.8954
				L257.12382,343.37065L254.5098,342.42014L252.6087,339.331L251.18288,336.95473L248.56887,335.52897L244.05375,335.76659L241.67738,336.00422
				L240.72683,333.86558L237.16226,333.62795L235.02353,332.20219L234.54825,329.82593L235.97408,327.68728L236.44935,326.26152
				L236.21171,324.12288L234.31061,322.22187L230.50841,321.27136L228.36967,319.8456L228.36967,318.41984L225.51802,318.8951L218.62654,320.08323
				L214.82433,316.99408L210.54686,311.52867L208.8834,307.96426L207.45757,305.82562L207.21993,303.92461L206.74466,298.22157L
				205.55647,291.80565L205.55647,286.57786L203.89301,282.06295L205.55647,268.99348L204.84356,259.25078L205.55647,251.17147L
				206.03175,245.70606L210.30922,233.82472L210.7845,230.73557L211.49741,226.45829L212.6856,221.70576L213.63615,218.14135L216.25016,211.48781
				L217.20071,207.21052L220.52764,194.85393L225.04275,184.39836L226.46857,178.22006L228.36967,175.36854L228.36967,172.27939
				L231.6966,167.52686L233.83534,163.96246L235.26116,160.87331L237.3999,157.30891L236.44935,155.40789L235.73644,151.60587L236.92463,150.41773
				L236.44935,147.32858L237.3999,144.47706L237.16226,140.91266L236.68699,137.11063L235.4988,132.83335L236.21171,129.03132L237.87518,125.2293
				L238.35045,121.42727L239.77628,118.33812L239.53864,115.72423L240.25155,111.20932L241.91501,108.59542L246.43013,105.50628
				L247.85595,99.32798L251.42052,96.00121L250.46997,93.62494L247.61832,86.49614L244.29139,80.08021L244.05375,74.85243L241.91501,67.72362
				L245.71721,61.54533L247.85595,57.26805L250.7076,54.41653L255.93563,51.08975L262.58948,48.0006L266.86696,47.76298L285.87796,49.66399
				L289.20488,49.66399L295.6211,49.18874L301.3244,49.90162L306.31479,50.85212L309.87935,52.99077L311.78045,52.51551L312.731,51.80263
				L314.86974,54.65415L334.11838,57.50567L354.31757,51.80263L373.80385,47.76298L381.88352,40.8718L402.79563,45.62434L419.66789,37.06977
				L432.9756,32.07961L444.61983,26.13894L451.74896,18.53489L459.591,22.09929"/>
		</g>
	</g>
</svg>
