<?xml version="1.0" encoding="utf-8" standalone="no"?>
<!-- Creator: Esri ArcMap 10.8.0.12790 -->
<!DOCTYPE svg PUBLIC "-//W3C//DTD SVG 1.1//EN"  "http://www.w3.org/Graphics/SVG/1.1/DTD/svg11.dtd">
<svg width="774.73701pt" height="404.24882pt" viewBox="0 0 774.73701 404.24882" enable-background="new 0 0 774.73701 404.24882"
	version="1.1" xmlns="http://www.w3.org/2000/svg" xmlns:xlink="http://www.w3.org/1999/xlink" >
	<g id="Layers">
		<g id="Pétté">
			<clipPath id="SVG_CP_1">
				<path d="M0,404.24882L0,0L774.73701,0L774.73701,404.24882L0,404.24882z"/>
			</clipPath>
			<path clip-path="url(#SVG_CP_1)" fill="none" stroke="#000000" stroke-width="0.47528" stroke-miterlimit="10" stroke-linecap="round" stroke-linejoin="round" d="
				M462.44265,111.44694L476.46326,122.85303L477.41381,123.32828L483.35475,126.65506L495.71191,129.26895L497.37537,129.50658
				L505.21741,131.88285L514.96055,125.70455L522.32731,121.90252L526.12951,118.33812L532.07045,114.53609L535.15974,112.63508
				L538.01139,111.20932L540.15012,113.58559L541.57595,114.53609L543.00178,115.72423L544.90288,116.67473L546.09106,117.38761
				L546.80398,118.33812L520.66385,143.0513L511.63362,152.08112L494.76135,172.04177L472.8987,197.2302L466.00721,205.07188L437.49071,237.62675
				L423.94537,253.54774L393.7654,273.03313L370.71456,272.55788L348.85191,283.01346L324.37524,307.48901L262.82712,375.68789L
				243.34084,385.90584L231.45896,376.16314L234.07298,354.77673L245.71721,316.99408L244.05375,279.92431L228.13204,152.08112L
				232.40951,150.41773L234.78589,146.14045L239.77628,145.18994L240.25155,142.1008L242.86556,139.4869L246.43013,136.63538L250.94524,132.12047
				L251.18288,128.7937L251.18288,125.70455L250.46997,122.6154L250.7076,119.52625L251.65815,117.62524L254.5098,116.19948L257.59909,115.01135
				L258.78728,110.97169L263.54003,106.45678L266.39168,103.13001L267.81751,100.51611L271.85734,95.28833L274.47136,91.4863L277.32301,88.63478
				L282.07576,83.88224L289.68016,77.22869L295.14582,72.47616L298.71039,63.44634L302.03731,60.59482L303.70077,58.45618L307.0277,54.65415
				L309.16644,53.70365L316.77084,47.0501L330.55382,34.93113L349.56482,18.53489L363.3478,29.94097L385.68572,48.0006L400.41925,60.35719
				L406.59783,64.8721L416.81624,73.66429L426.32174,81.03072L441.76818,94.10019L458.64045,108.12017L462.44265,111.44694"/>
		</g>
	</g>
</svg>
