<?xml version="1.0" encoding="utf-8" standalone="no"?>
<!-- Creator: Esri ArcMap 10.8.0.12790 -->
<!DOCTYPE svg PUBLIC "-//W3C//DTD SVG 1.1//EN"  "http://www.w3.org/Graphics/SVG/1.1/DTD/svg11.dtd">
<svg width="774.73701pt" height="404.24882pt" viewBox="0 0 774.73701 404.24882" enable-background="new 0 0 774.73701 404.24882"
	version="1.1" xmlns="http://www.w3.org/2000/svg" xmlns:xlink="http://www.w3.org/1999/xlink" >
	<g id="Layers">
		<g id="Soulèdé-Roua">
			<clipPath id="SVG_CP_1">
				<path d="M0,404.24882L0,0L774.73701,0L774.73701,404.24882L0,404.24882z"/>
			</clipPath>
			<path clip-path="url(#SVG_CP_1)" fill="none" stroke="#000000" stroke-width="0.47528" stroke-miterlimit="10" stroke-linecap="round" stroke-linejoin="round" d="
				M467.90831,39.68367L486.68168,59.40669L524.22841,101.70425L532.30809,110.73406L546.09106,120.23913L556.54711,122.85303L566.05262,121.18964
				L567.95372,127.60556L575.08284,140.67503L579.83559,153.03163L582.68724,162.29907L582.44961,170.14075L574.36993,181.78446
				L569.61718,189.15089L566.29025,195.80444L563.20097,200.31935L554.88365,204.12138L548.70508,209.82442L549.18035,220.04237
				L547.75453,226.93354L543.71469,233.82472L539.67485,240.00302L539.43721,243.80504L533.021,247.13182L529.45644,248.7952L522.32731,254.9735
				L518.76275,259.25078L513.29708,262.81518L513.05945,278.26092L511.15835,283.96396L509.97016,292.75615L509.49488,302.0236L
				503.79158,309.86528L503.79158,312.95443L504.50449,323.64763L508.06906,330.06355L507.11851,340.2815L505.21741,351.21233L509.01961,358.10351
				L505.45504,366.65807L505.21741,376.16314L507.35614,385.90584L475.03744,368.08383L447.70912,340.04388L421.33136,320.08323
				L386.87391,297.74631L341.72278,284.43922L279.22411,268.51822L240.01391,249.50808L218.3889,219.09186L211.73505,189.15089L
				208.8834,154.69501L201.51663,114.29847L192.24877,80.55547L204.36828,79.84259L215.77489,75.56531L220.52764,70.09989L223.37929,62.02058
				L231.6966,69.62464L235.02353,72.0009L248.56887,65.34736L263.30239,60.83245L270.90679,61.07007L273.52081,57.7433L293.72,47.76298
				L322.71178,39.44604L358.83268,30.89148L385.92336,26.85182L399.70634,25.90132L408.49893,21.86166L418.95498,19.48539L429.17339,18.53489
				L441.53055,25.66369L448.65967,27.5647L458.64045,34.21825L467.90831,39.68367"/>
		</g>
	</g>
</svg>
