<?xml version="1.0" encoding="utf-8" standalone="no"?>
<!-- Creator: Esri ArcMap 10.8.0.12790 -->
<!DOCTYPE svg PUBLIC "-//W3C//DTD SVG 1.1//EN"  "http://www.w3.org/Graphics/SVG/1.1/DTD/svg11.dtd">
<svg width="774.73701pt" height="404.24882pt" viewBox="0 0 774.73701 404.24882" enable-background="new 0 0 774.73701 404.24882"
	version="1.1" xmlns="http://www.w3.org/2000/svg" xmlns:xlink="http://www.w3.org/1999/xlink" >
	<g id="Layers">
		<g id="Tokombéré">
			<clipPath id="SVG_CP_1">
				<path d="M0,404.24882L0,0L774.73701,0L774.73701,404.24882L0,404.24882z"/>
			</clipPath>
			<path clip-path="url(#SVG_CP_1)" fill="none" stroke="#000000" stroke-width="0.47528" stroke-miterlimit="10" stroke-linecap="round" stroke-linejoin="round" d="
				M650.41394,83.64462L646.3741,89.58528L636.39333,95.0507L627.12546,105.50628L622.61035,111.9222L615.71886,120.00151L610.72847,127.13031
				L608.3521,134.73437L599.32187,134.97199L599.08423,142.33842L595.51967,151.13061L592.90566,163.24958L587.20236,175.84379L
				586.48944,186.29937L584.11307,195.09156L566.05262,202.45799L560.11168,209.82442L559.6364,218.61661L553.9331,229.54744L548.46744,237.62675
				L538.7243,242.37928L531.59517,248.7952L525.65423,258.5379L512.34653,269.70636L506.16796,265.6667L480.02783,263.29044L467.67068,257.11214
				L460.77919,259.48841L448.42204,265.19145L440.81763,265.42908L435.58961,269.94399L421.33136,277.07279L412.53877,288.47887
				L407.31074,291.56802L395.42886,299.17208L386.87391,307.48901L383.30935,319.37035L377.84369,333.1527L370.00165,343.60828L
				361.92197,354.06385L358.59505,365.70756L357.40686,376.63839L355.26812,384.95533L350.75301,385.90584L340.77223,379.25229L
				331.50437,377.5889L317.95903,371.17298L303.46314,365.70756L286.59087,361.66791L269.00569,358.57876L257.59909,352.63809L248.33123,348.59844
				L233.83534,350.26183L224.0922,351.92521L214.34906,353.5886L204.13065,350.97471L190.34767,341.70726L182.26799,332.67745L144.9589,290.61751
				L126.42317,270.89449L125.23498,252.12198L124.52207,247.13182L124.99735,232.39896L129.98773,221.2305L130.22537,208.87391L
				133.31466,192.71529L135.21576,184.63598L134.26521,170.85363L229.55786,116.91236L284.92741,44.67383L315.58265,18.53489L359.30796,25.90132
				L452.93715,67.486L543.71469,78.89208L650.41394,83.64462"/>
		</g>
	</g>
</svg>
