<?xml version="1.0" encoding="utf-8" standalone="no"?>
<!-- Creator: Esri ArcMap 10.8.0.12790 -->
<!DOCTYPE svg PUBLIC "-//W3C//DTD SVG 1.1//EN"  "http://www.w3.org/Graphics/SVG/1.1/DTD/svg11.dtd">
<svg width="774.73701pt" height="404.24882pt" viewBox="0 0 774.73701 404.24882" enable-background="new 0 0 774.73701 404.24882"
	version="1.1" xmlns="http://www.w3.org/2000/svg" xmlns:xlink="http://www.w3.org/1999/xlink" >
	<g id="Layers">
		<g id="Export_Output">
			<clipPath id="SVG_CP_1">
				<path d="M0,404.24882L0,0L774.73701,0L774.73701,404.24882L0,404.24882z"/>
			</clipPath>
			<path clip-path="url(#SVG_CP_1)" fill="none" stroke="#000000" stroke-width="0.47528" stroke-miterlimit="10" stroke-linecap="round" stroke-linejoin="round" d="
				M453.17479,27.32708L488.58278,96.47646L502.12812,99.56561L498.32592,116.67473L553.9331,164.43771L551.31909,193.42817L533.73391,195.09156
				L521.85203,230.02269L521.13912,233.11184L491.9097,278.49855L482.4042,385.90584L445.09511,375.21263L429.41103,361.43028L411.58822,352.16284
				L393.7654,340.75676L394.24068,320.79611L352.17883,282.06295L325.32579,263.76569L289.68016,245.2308L253.79689,235.72573L229.08259,232.87421
				L221.00291,227.64642L270.19388,179.64582L323.89997,128.7937L364.29835,87.9219L405.88492,43.4857L428.46048,18.53489L436.54016,24.95081
				L442.4811,28.51521L449.84786,28.51521L451.74896,28.03996L453.17479,27.32708"/>
		</g>
	</g>
</svg>
