<?xml version="1.0" encoding="utf-8" standalone="no"?>
<!-- Creator: Esri ArcMap 10.8.0.12790 -->
<!DOCTYPE svg PUBLIC "-//W3C//DTD SVG 1.1//EN"  "http://www.w3.org/Graphics/SVG/1.1/DTD/svg11.dtd">
<svg width="774.73701pt" height="404.24882pt" viewBox="0 0 774.73701 404.24882" enable-background="new 0 0 774.73701 404.24882"
	version="1.1" xmlns="http://www.w3.org/2000/svg" xmlns:xlink="http://www.w3.org/1999/xlink" >
	<g id="Layers">
		<g id="Wazat">
			<clipPath id="SVG_CP_1">
				<path d="M0,404.24882L0,0L774.73701,0L774.73701,404.24882L0,404.24882z"/>
			</clipPath>
			<path clip-path="url(#SVG_CP_1)" fill="none" stroke="#000000" stroke-width="0.47528" stroke-miterlimit="10" stroke-linecap="round" stroke-linejoin="round" d="
				M507.59378,190.81428L506.16796,193.90343L504.74213,197.2302L501.17757,206.73527L499.27647,217.6661L499.75174,217.6661L498.80119,221.2305
				L499.51411,224.08202L499.51411,225.74541L499.75174,229.07218L499.27647,231.68608L497.61301,235.96336L493.09789,240.95352
				L488.1075,245.94368L486.68168,248.55758L485.73113,249.98334L483.59239,252.35961L482.16657,254.26062L479.31491,255.92401L
				477.41381,258.30027L476.46326,260.67654L476.22563,263.76569L477.17618,266.61721L477.88909,269.94399L477.88909,275.4094L476.7009,279.21143
				L474.08689,283.96396L471.71051,288.95412L470.9976,290.14226L468.85886,292.2809L463.86847,297.27106L460.54155,301.31072L456.50171,305.588
				L451.03605,311.05341L450.56077,311.76629L450.79841,312.95443L451.27369,315.09307L450.56077,315.80595L448.89731,316.51883
				L446.99621,317.70696L442.00582,322.4595L438.44126,325.07339L434.16378,328.16254L427.03466,333.39033L422.28191,337.19235L
				420.38081,339.56862L419.43026,340.99438L416.81624,342.42014L414.20223,343.37065L411.35058,344.32116L409.44948,345.74692L
				407.0731,347.64793L401.84508,351.21233L399.70634,353.82623L399.23106,355.48961L396.85469,359.05402L393.52776,363.3313L391.15139,368.08383
				L389.25029,370.4601L386.87391,372.59874L384.73517,374.0245L380.22006,377.5889L376.89314,382.34144L376.18022,383.29194L373.32857,384.7177
				L370.00165,385.90584L367.86291,384.24245L358.11977,376.16314L349.56482,368.79671L344.09916,364.51943L338.15822,359.52927
				L334.59365,356.91537L326.27634,350.0242L313.44391,339.56862L305.60187,333.1527L294.90819,342.42014L287.06615,349.31132L282.78867,353.11335
				L280.88757,351.21233L279.93702,349.54895L279.22411,348.36081L277.56065,347.17268L276.13482,346.22217L275.18427,344.08353
				L274.70899,342.42014L273.28317,340.51913L272.80789,338.61812L273.52081,336.47947L273.04553,334.34083L272.57026,332.67745
				L272.09498,330.06355L272.33262,326.73678L272.33262,325.54864L273.28317,322.69712L273.52081,319.8456L274.23372,315.56832L
				274.47136,314.61781L273.75844,313.42968L273.75844,310.81579L273.75844,308.20189L273.52081,305.11274L274.70899,301.54834L
				274.70899,296.55818L273.99608,294.65717L271.14443,290.61751L267.81751,285.86498L267.10459,283.01346L266.62932,277.54804L
				265.44113,270.89449L264.25294,267.33009L263.77767,263.52806L264.01531,259.25078L264.01531,256.16163L264.25294,254.49825L
				262.82712,248.55758L264.01531,243.56742L265.67877,238.102L268.05514,230.73557L268.53042,224.7949L268.53042,223.8444L269.24333,220.04237
				L268.76806,213.86407L267.57987,208.16103L265.67877,201.74511L265.44113,198.89359L267.10459,198.65596L268.29278,198.18071
				L269.00569,197.46783L269.48097,196.51732L269.95624,195.80444L270.66916,194.61631L270.90679,193.42817L272.33262,191.76479
				L272.33262,191.52716L273.75844,190.1014L274.47136,189.62614L275.18427,189.15089L275.89718,188.67564L277.56065,187.96276L
				278.27356,187.4875L279.22411,187.01225L279.93702,186.06174L280.88757,185.34886L281.36285,184.63598L282.3134,183.44785L283.26395,182.49734
				L284.45213,181.30921L285.40268,180.12107L286.59087,179.17057L287.77906,177.98243L288.49197,177.03193L289.9178,175.36854L
				290.63071,174.89329L291.58126,174.65566L292.76945,174.41803L294.43291,174.18041L295.6211,174.18041L296.80929,173.94278L297.99747,173.70515
				L299.18566,173.46753L300.61149,172.99227L301.79967,172.51702L303.2255,172.04177L305.1266,171.32889L306.55242,170.85363L307.97825,170.616
				L309.16644,170.14075L309.87935,169.42787L312.25573,167.76448L313.20628,166.81398L314.15683,165.86347L314.86974,165.38822
				L315.82029,164.67534L316.77084,164.20008L317.48375,163.96246L318.67194,163.4872L320.81068,163.01195L321.99886,162.5367L323.66233,161.82382
				L324.1376,161.34856L325.08815,161.11094L328.65272,161.11094L330.07854,160.63568L331.26673,159.9228L331.97964,158.97229L332.69255,157.78416
				L333.6431,157.07128L335.5442,156.3584L337.92058,155.64552L338.87113,154.93264L339.58404,154.45739L339.82168,153.74451L340.05932,153.03163
				L341.00987,147.32858L341.72278,145.18994L343.14861,141.15029L344.57443,138.06114L345.76262,136.16013L347.42608,134.73437
				L348.37663,134.02149L348.85191,133.78386L349.56482,132.59573L351.22828,129.50658L351.94119,128.31844L352.41647,127.36794
				L352.65411,126.65506L353.12938,125.70455L353.60466,124.75404L353.84229,124.04116L354.31757,122.6154L354.55521,121.18964L
				353.60466,120.00151L353.36702,118.57575L353.12938,117.14999L352.89174,115.4866L352.89174,114.53609L353.12938,113.58559L353.84229,112.39745
				L354.55521,110.97169L355.03048,110.02118L355.98103,108.83305L356.45631,108.59542L356.21867,107.88254L355.98103,106.69441
				L355.98103,105.98153L355.7434,104.55577L355.7434,104.31814L355.7434,104.08052L355.03048,103.60526L355.03048,103.36764L354.07993,100.99137
				L353.84229,100.75374L353.84229,100.51611L354.07993,100.04086L354.07993,99.80323L354.07993,99.56561L353.84229,99.32798L353.12938,97.66459
				L352.65411,96.00121L352.17883,92.67443L352.17883,91.72392L352.17883,91.01104L351.94119,89.58528L351.94119,88.8724L351.94119,88.63478
				L352.17883,87.9219L352.41647,86.97139L352.41647,86.49614L352.41647,85.54563L351.70356,85.07038L351.22828,84.83275L350.99064,84.59512
				L350.75301,84.11987L350.51537,83.64462L350.04009,82.93174L349.56482,82.93174L349.32718,82.69411L348.61427,82.45648L347.66372,81.98123
				L346.00026,81.7436L345.28734,81.50597L344.57443,81.26835L344.09916,81.03072L343.86152,80.55547L343.62388,79.84259L343.62388,77.94157
				L343.62388,77.46632L343.38624,76.99107L343.14861,76.75344L342.67333,76.27819L342.43569,75.80293L341.96042,75.32768L341.24751,74.85243
				L340.53459,74.37717L340.29696,74.13955L339.82168,73.90192L339.3464,73.90192L338.39585,73.90192L337.4453,73.66429L336.73239,73.42667
				L336.25712,73.18904L335.78184,72.71379L335.5442,72.23853L335.30657,71.52565L335.5442,70.33752L335.5442,69.86226L335.5442,69.38701
				L335.30657,68.91176L335.06893,68.67413L334.59365,68.4365L334.11838,67.96125L333.88074,67.486L333.40547,67.24837L333.16783,66.53549
				L332.93019,66.06024L332.93019,65.34736L332.69255,64.39685L332.45492,63.68397L332.21728,63.20872L331.97964,62.97109L331.50437,62.25821
				L331.02909,62.02058L330.55382,61.78295L330.07854,61.78295L329.36563,61.78295L327.46453,62.02058L326.75162,62.02058L325.32579,62.73346
				L324.85052,62.73346L323.89997,62.73346L323.18705,62.73346L322.71178,62.49583L321.04831,62.25821L320.57304,62.02058L319.86013,61.78295
				L318.90958,61.07007L317.72139,60.35719L317.48375,60.35719L316.77084,60.35719L316.5332,60.11957L316.05793,59.88194L315.82029,58.93143
				L315.58265,58.45618L315.34501,58.45618L314.6321,58.21855L314.15683,58.21855L312.96864,57.98093L311.78045,57.98093L311.06754,57.98093
				L309.64171,58.21855L309.16644,58.21855L308.69116,57.98093L308.45353,57.50567L308.21589,57.03042L307.97825,56.07991L307.74061,55.60466
				L307.74061,55.12941L307.50297,54.65415L307.26534,54.1789L306.79006,53.94127L306.55242,53.46602L306.07715,52.99077L305.83951,52.27788
				L305.60187,52.27788L305.60187,51.565L306.07715,50.85212L306.55242,50.85212L307.74061,49.90162L308.69116,49.42636L308.9288,48.71348
				L309.40408,48.47586L309.87935,48.47586L310.8299,48.95111L311.54281,48.23823L313.68155,46.57484L314.39446,46.33722L314.86974,46.33722
				L316.29556,45.86196L317.00848,45.62434L317.24611,45.14908L317.72139,44.67383L318.19666,43.96095L318.4343,43.4857L318.4343,43.01044
				L318.4343,42.53519L318.19666,42.05993L318.19666,41.58468L318.67194,40.63417L318.90958,39.68367L319.14721,39.20841L319.62249,38.97079
				L319.86013,38.73316L320.3354,38.49553L321.52359,38.49553L322.2365,38.73316L322.94941,38.97079L323.66233,38.73316L323.89997,38.73316
				L324.1376,38.25791L324.1376,38.02028L324.1376,37.78265L324.1376,37.54503L324.1376,37.06977L324.1376,36.83215L324.37524,36.59452
				L324.61288,36.35689L324.85052,36.11927L325.08815,36.11927L325.32579,36.11927L326.0387,36.35689L326.27634,36.35689L326.51398,36.35689
				L326.75162,36.11927L326.98925,35.88164L327.22689,35.88164L327.9398,35.88164L328.17744,35.88164L328.41508,35.64401L328.65272,35.40639
				L328.89035,35.16876L328.89035,34.93113L329.12799,34.69351L329.36563,34.45588L329.8409,34.21825L330.07854,34.21825L330.55382,34.21825
				L330.79145,33.98063L331.26673,33.743L331.26673,33.50537L331.50437,33.03012L331.50437,32.79249L331.742,32.31724L331.97964,32.07961
				L332.45492,32.07961L332.69255,31.84198L332.69255,31.60436L332.93019,31.60436L332.69255,31.1291L332.69255,30.65385L332.69255,30.41622
				L332.93019,30.1786L333.16783,29.94097L333.40547,29.94097L333.40547,29.46572L333.6431,28.99046L334.35602,28.27758L334.35602,28.03996
				L334.59365,27.80233L334.59365,27.5647L334.83129,27.5647L335.06893,27.32708L335.5442,27.32708L335.5442,27.08945L335.78184,26.85182
				L335.78184,26.6142L336.25712,26.13894L336.73239,25.66369L336.73239,25.42606L336.97003,25.18844L337.20767,24.95081L337.4453,24.71318
				L337.68294,24.95081L337.92058,24.95081L338.15822,24.95081L338.63349,24.71318L338.63349,24.23793L338.63349,23.76268L338.63349,23.52505
				L339.10877,23.28742L339.3464,23.04979L339.10877,22.81217L339.10877,22.57454L339.10877,22.33691L339.3464,22.09929L339.58404,21.62403
				L339.58404,21.38641L339.58404,21.14878L339.10877,20.4359L338.87113,20.4359L338.63349,20.4359L338.39585,20.67353L338.15822,20.91115
				L337.92058,21.14878L337.68294,21.14878L337.68294,20.91115L337.4453,20.4359L337.4453,19.96065L337.20767,19.48539L336.97003,19.24777
				L336.97003,19.01014L336.73239,18.53489L340.29696,19.48539L343.14861,20.4359L344.57443,22.33691L345.04971,25.42606L345.04971,27.32708
				L346.23789,28.51521L348.85191,28.51521L352.65411,27.80233L354.79284,27.80233L356.93158,28.99046L357.88213,33.26775L358.35741,35.88164
				L357.88213,38.02028L356.69395,42.29756L356.93158,45.14908L359.78323,47.52535L363.58543,52.04026L366.43708,53.70365L368.33818,55.84229
				L370.9522,57.26805L377.36841,57.50567L379.98242,57.98093L380.93297,59.64431L379.50715,62.73346L378.79424,66.06024L378.79424,68.91176
				L380.69534,71.52565L382.83407,72.23853L386.63628,70.33752L390.43848,69.38701L393.29013,70.33752L395.19123,71.76328L397.09233,76.75344
				L398.51815,79.84259L402.32035,85.07038L406.36019,89.11003L412.06349,95.52595L414.91514,97.90222L418.71734,100.04086L421.09372,101.22899
				L422.99482,103.36764L424.18301,106.69441L425.13356,109.07068L425.84647,110.02118L427.03466,110.73406L429.17339,110.97169
				L434.40142,110.49644L436.30252,111.20932L437.96598,112.39745L438.91653,114.06084L439.86708,116.91236L439.86708,120.71439
				L442.00582,122.14015L448.65967,125.94218L454.36297,129.26895L456.73935,129.26895L462.68029,124.99167L465.76958,121.42727
				L467.67068,120.95201L469.80941,121.18964L471.47288,122.37778L471.23524,125.94218L470.52233,131.16996L470.9976,133.54623L
				472.66106,134.97199L475.98799,135.68487L479.79019,135.68487L483.35475,137.58589L485.49349,139.24927L486.68168,142.1008L485.49349,146.14045
				L484.78058,149.70485L485.25585,152.794L486.91932,154.45739L491.67207,155.40789L498.56356,156.59603L502.36576,158.73467L506.16796,162.06144
				L507.35614,164.67534L509.97016,167.28923L511.39598,172.99227L512.1089,177.03193L510.92071,182.9726L507.59378,190.81428"/>
		</g>
	</g>
</svg>
