<?xml version="1.0" encoding="utf-8" standalone="no"?>
<!-- Creator: Esri ArcMap 10.8.0.12790 -->
<!DOCTYPE svg PUBLIC "-//W3C//DTD SVG 1.1//EN"  "http://www.w3.org/Graphics/SVG/1.1/DTD/svg11.dtd">
<svg width="774.73701pt" height="404.24882pt" viewBox="0 0 774.73701 404.24882" enable-background="new 0 0 774.73701 404.24882"
	version="1.1" xmlns="http://www.w3.org/2000/svg" xmlns:xlink="http://www.w3.org/1999/xlink" >
	<g id="Layers">
		<g id="Zina">
			<clipPath id="SVG_CP_1">
				<path d="M0,404.24882L0,0L774.73701,0L774.73701,404.24882L0,404.24882z"/>
			</clipPath>
			<path clip-path="url(#SVG_CP_1)" fill="none" stroke="#000000" stroke-width="0.47528" stroke-miterlimit="10" stroke-linecap="round" stroke-linejoin="round" d="
				M510.20779,385.90584L505.93032,385.66821L501.89048,385.66821L496.66246,385.90584L493.33553,385.90584L489.77097,385.90584
				L488.1075,384.24245L485.96877,383.52957L483.83003,383.29194L482.4042,382.10381L482.64184,380.44042L483.59239,378.53941L483.59239,376.87602
				L481.45365,375.92551L478.83964,375.92551L477.65145,377.11365L477.41381,378.53941L475.51271,379.25229L473.84925,378.06416
				L473.61161,376.40077L472.42343,375.92551L469.80941,375.45026L469.0965,374.26213L470.52233,373.31162L472.42343,372.12349L
				474.08689,370.69773L473.84925,369.03434L471.71051,369.50959L469.33414,369.98485L467.43304,369.50959L466.72013,368.08383L
				461.96737,364.75706L458.64045,361.90554L454.36297,359.29164L441.53055,349.78657L428.22284,340.2815L426.32174,338.85574L401.84508,320.79611
				L395.42886,315.80595L379.26951,316.99408L373.09094,321.74662L347.66372,339.80625L326.75162,354.06385L318.19666,359.7669L
				314.15683,360.7174L308.45353,360.95503L300.13621,360.7174L299.18566,358.81639L296.33401,356.67775L292.76945,353.5886L292.05653,352.87572
				L291.10598,352.16284L289.44252,351.21233L287.77906,350.26183L286.59087,349.31132L284.68977,347.17268L282.07576,348.36081
				L279.22411,350.26183L273.75844,353.82623L270.19388,356.91537L263.77767,360.24215L254.5098,366.18282L247.38068,364.04418L
				245.95485,363.56892L234.54825,361.19266L229.08259,358.34114L228.13204,357.86588L215.53725,347.4103L221.00291,345.27166L225.28039,342.8954
				L226.70621,341.46964L231.93424,333.86558L239.06336,327.92491L242.39029,325.78627L246.43013,322.22187L249.51942,318.41984
				L253.55925,310.81579L258.78728,303.92461L262.58948,298.22157L263.30239,295.60767L266.86696,291.56802L275.18427,285.38972
				L278.98647,282.77583L281.83812,280.16194L286.59087,278.73617L290.86835,277.07279L294.90819,274.69652L296.57165,272.55788
				L299.4233,268.99348L307.0277,262.81518L318.67194,254.26062L325.56343,249.27046L331.26673,244.99318L339.3464,237.62675L342.19806,235.72573
				L345.04971,234.5376L346.00026,233.11184L345.52498,230.02269L344.81207,228.12168L345.76262,226.69592L354.55521,218.14135L
				361.20906,211.01255L366.43708,204.83426L374.51676,196.51732L378.08132,193.19055L379.03187,191.28953L382.83407,183.21022L
				386.87391,175.36854L389.01265,169.42787L389.01265,160.63568L387.82446,155.40789L386.39864,150.65536L386.63628,145.6652L388.29974,142.1008
				L391.15139,138.06114L395.90414,135.44725L398.04288,132.3581L401.3698,128.55607L403.2709,126.1798L405.64728,121.90252L413.25168,114.06084
				L420.61844,105.98153L423.23246,98.85273L424.18301,94.81307L423.47009,89.82291L423.70773,86.97139L422.51954,82.21886L423.94537,76.75344
				L423.47009,76.51581L426.32174,59.16906L432.02504,43.72332L434.40142,38.25791L436.54016,33.26775L465.76958,29.94097L498.80119,28.27758
				L541.33831,18.53489L540.6254,20.19827L536.34792,28.03996L531.35754,27.80233L529.93171,29.94097L533.73391,33.743L533.49627,35.64401
				L528.74352,37.06977L526.12951,48.0006L523.5155,51.565L519.7133,53.70365L519.00038,53.94127L517.8122,57.98093L520.42621,61.54533
				L520.66385,63.68397L516.86165,66.77312L516.62401,68.91176L521.13912,74.37717L526.60479,89.82291L526.36715,94.57545L523.99077,95.52595
				L518.04983,100.75374L512.58417,105.98153L510.68307,110.73406L515.19818,113.34796L520.66385,117.14999L526.60479,121.6649L
				530.16935,125.70455L529.69407,130.69471L526.84242,133.30861L522.56495,138.06114L519.23802,144.00181L516.14873,153.74451L
				514.96055,158.25941L510.68307,159.9228L510.20779,160.63568L509.97016,162.29907L510.44543,163.24958L513.77236,166.81398L519.23802,169.90312
				L520.90148,174.65566L521.13912,180.3587L524.22841,187.01225L524.70368,193.6658L523.5155,195.32919L518.28747,198.89359L517.8122,201.50748
				L519.95093,203.17087L520.42621,208.16103L522.56495,214.81458L523.5155,217.90373L525.4166,221.46813L525.65423,224.7949L528.26825,227.88405
				L528.50589,230.02269L529.93171,231.44845L531.83281,237.38912L534.9221,240.95352L538.24902,247.13182L541.81359,248.55758L
				543.95233,249.03283L547.27925,251.88435L546.80398,254.9735L547.75453,259.48841L550.1309,263.05281L549.89326,266.14196L550.1309,270.65687
				L549.41799,273.50839L548.70508,278.73617L549.65563,281.82532L548.70508,285.1521L549.65563,288.24124L549.18035,290.61751L
				549.65563,293.23141L548.2298,295.37005L548.2298,297.74631L549.89326,301.07309L549.41799,303.92461L550.84381,305.35037L555.59656,308.67715
				L558.21058,310.57816L559.39877,315.33069L557.49767,316.51883L556.54711,319.8456L554.17074,321.27136L552.26964,323.64763L
				553.45783,327.44966L552.032,330.77643L548.70508,332.43982L546.80398,335.52897L548.46744,339.56862L547.51689,343.37065L549.18035,349.07369
				L546.3287,356.44012L544.90288,359.05402L538.01139,357.86588L533.49627,360.00452L528.50589,364.2818L524.70368,363.80655L520.42621,363.3313
				L517.57456,363.56892L516.14873,364.04418L514.96055,364.2818L513.53472,361.19266L512.82181,360.7174L511.15835,360.7174L509.49488,360.95503
				L507.59378,362.38079L507.35614,365.23231L508.06906,367.37095L511.39598,368.79671L514.01,370.93535L514.01,374.26213L508.30669,379.48992
				L507.83142,382.34144L510.20779,385.90584"/>
		</g>
	</g>
</svg>
