<svg width="26" height="27" viewBox="0 0 26 27" fill="none" xmlns="http://www.w3.org/2000/svg">
<g id="Add Circle">
<path id="Shape" d="M9 14C9 13.7239 9.22386 13.5 9.5 13.5H12.5V10.5C12.5 10.2239 12.7239 10 13 10C13.2761 10 13.5 10.2239 13.5 10.5V13.5H16.5C16.7761 13.5 17 13.7239 17 14C17 14.2761 16.7761 14.5 16.5 14.5H13.5V17.5C13.5 17.7761 13.2761 18 13 18C12.7239 18 12.5 17.7761 12.5 17.5V14.5H9.5C9.22386 14.5 9 14.2761 9 14ZM13 22C17.4183 22 21 18.4183 21 14C21 9.58172 17.4183 6 13 6C8.58172 6 5 9.58172 5 14C5 18.4183 8.58172 22 13 22ZM13 21C9.13401 21 6 17.866 6 14C6 10.134 9.13401 7 13 7C16.866 7 20 10.134 20 14C20 17.866 16.866 21 13 21Z" fill="white"/>
</g>
</svg>
