<svg width="31" height="30" viewBox="0 0 31 30" fill="none" xmlns="http://www.w3.org/2000/svg">
<g id="Add Circle">
<path id="Shape" d="M15.3333 3C21.9607 3 27.3333 8.37258 27.3333 15C27.3333 21.6274 21.9607 27 15.3333 27C8.70583 27 3.33325 21.6274 3.33325 15C3.33325 8.37258 8.70583 3 15.3333 3ZM15.3333 4.5C9.53426 4.5 4.83325 9.20101 4.83325 15C4.83325 20.799 9.53426 25.5 15.3333 25.5C21.1322 25.5 25.8333 20.799 25.8333 15C25.8333 9.20101 21.1322 4.5 15.3333 4.5ZM15.3333 9C15.7475 9 16.0833 9.33579 16.0833 9.75V14.25H20.5833C20.9975 14.25 21.3333 14.5858 21.3333 15C21.3333 15.4142 20.9975 15.75 20.5833 15.75H16.0833V20.25C16.0833 20.6642 15.7475 21 15.3333 21C14.919 21 14.5833 20.6642 14.5833 20.25V15.75H10.0833C9.66904 15.75 9.33325 15.4142 9.33325 15C9.33325 14.5858 9.66904 14.25 10.0833 14.25H14.5833V9.75C14.5833 9.33579 14.919 9 15.3333 9Z" fill="#021D40"/>
</g>
</svg>
