<svg width="25" height="25" viewBox="0 0 25 25" fill="none" xmlns="http://www.w3.org/2000/svg">
<g id="Calendar">
<path id="Shape" d="M8.5 6C7.11929 6 6 7.11929 6 8.5V9H20V8.5C20 7.11929 18.8807 6 17.5 6H8.5ZM20 10H6V17.5C6 18.8807 7.11929 20 8.5 20H17.5C18.8807 20 20 18.8807 20 17.5V10ZM11 13C11 13.5523 10.5523 14 10 14C9.44772 14 9 13.5523 9 13C9 12.4477 9.44772 12 10 12C10.5523 12 11 12.4477 11 13ZM10 17C9.44772 17 9 16.5523 9 16C9 15.4477 9.44772 15 10 15C10.5523 15 11 15.4477 11 16C11 16.5523 10.5523 17 10 17ZM14 13C14 13.5523 13.5523 14 13 14C12.4477 14 12 13.5523 12 13C12 12.4477 12.4477 12 13 12C13.5523 12 14 12.4477 14 13ZM13 17C12.4477 17 12 16.5523 12 16C12 15.4477 12.4477 15 13 15C13.5523 15 14 15.4477 14 16C14 16.5523 13.5523 17 13 17ZM17 13C17 13.5523 16.5523 14 16 14C15.4477 14 15 13.5523 15 13C15 12.4477 15.4477 12 16 12C16.5523 12 17 12.4477 17 13Z" fill="#505050"/>
</g>
</svg>
