<svg width="25" height="24" viewBox="0 0 25 24" fill="none" xmlns="http://www.w3.org/2000/svg">
<path d="M0.500026 12C0.500026 5.37258 5.87261 0 12.5 0C19.1274 0 24.5 5.37258 24.5 12C24.5 18.6274 19.1274 24 12.5 24C10.464 24 8.54455 23.4924 6.86332 22.5963L2.09342 23.9527C1.15148 24.2206 0.281325 23.3504 0.549185 22.4085L1.90531 17.6396C1.00826 15.9577 0.500026 14.0372 0.500026 12ZM8 9.75C8 10.1642 8.33579 10.5 8.75 10.5H16.25C16.6642 10.5 17 10.1642 17 9.75C17 9.33579 16.6642 9 16.25 9H8.75C8.33579 9 8 9.33579 8 9.75ZM8.75 13.5C8.33579 13.5 8 13.8358 8 14.25C8 14.6642 8.33579 15 8.75 15H13.25C13.6642 15 14 14.6642 14 14.25C14 13.8358 13.6642 13.5 13.25 13.5H8.75Z" fill="#505050"/>
</svg>
