<svg width="31" height="30" viewBox="0 0 31 30" fill="none" xmlns="http://www.w3.org/2000/svg">
<g id="fluent:people-community-16-filled">
<path id="Vector" d="M6.125 5.625C6.125 4.63044 6.52009 3.67661 7.22335 2.97335C7.92661 2.27009 8.88044 1.875 9.875 1.875C10.8696 1.875 11.8234 2.27009 12.5267 2.97335C13.2299 3.67661 13.625 4.63044 13.625 5.625C13.625 6.61956 13.2299 7.57339 12.5267 8.27665C11.8234 8.97991 10.8696 9.375 9.875 9.375C8.88044 9.375 7.92661 8.97991 7.22335 8.27665C6.52009 7.57339 6.125 6.61956 6.125 5.625ZM18.8356 8.595L18.9144 8.655C19.7099 9.2447 20.7064 9.49578 21.6864 9.35346C22.6664 9.21113 23.5503 8.68696 24.1453 7.89532C24.7402 7.10368 24.9979 6.10885 24.862 5.12794C24.7262 4.14703 24.2078 3.25967 23.4201 2.65952C22.6324 2.05937 21.6393 1.79516 20.6575 1.92453C19.6758 2.05391 18.785 2.56637 18.1797 3.35009C17.5743 4.13381 17.3036 5.12515 17.4265 6.10777C17.5493 7.09039 18.0559 7.98451 18.8356 8.595ZM12.2525 11.25C12.488 10.8041 12.811 10.4102 13.2023 10.092C13.5935 9.77377 14.0449 9.53773 14.5295 9.398C15.014 9.25827 15.5218 9.21772 16.0224 9.27876C16.523 9.3398 17.0062 9.50119 17.4429 9.75327C17.8797 10.0054 18.2612 10.3429 18.5645 10.7459C18.8678 11.1488 19.0867 11.6087 19.2082 12.0982C19.3296 12.5876 19.3511 13.0966 19.2713 13.5945C19.1915 14.0925 19.012 14.5692 18.7437 14.9963C18.2276 15.8177 17.4131 16.4072 16.4715 16.6408C15.5299 16.8745 14.5343 16.7341 13.6941 16.2491C12.8538 15.7642 12.2341 14.9724 11.9653 14.0402C11.6965 13.108 11.7994 12.1079 12.2525 11.25ZM5.1875 11.25H10.1938C9.86051 12.2017 9.78806 13.2252 9.9839 14.2143C10.1797 15.2034 10.6368 16.1221 11.3075 16.875H10.8125C9.84582 16.8749 8.90272 17.1735 8.11228 17.73C7.32185 18.2865 6.72271 19.0736 6.39687 19.9837C5.7675 19.7309 5.17822 19.388 4.6475 18.9656C3.2375 17.8312 2.375 16.155 2.375 14.0625C2.375 13.3166 2.67132 12.6012 3.19876 12.0738C3.72621 11.5463 4.44158 11.25 5.1875 11.25ZM20.1875 16.875C21.1539 16.875 22.0967 17.1737 22.8869 17.7302C23.677 18.2867 24.2758 19.0738 24.6013 19.9837C25.2388 19.7231 25.8294 19.3837 26.3525 18.9656C27.7625 17.8312 28.625 16.155 28.625 14.0625C28.625 13.3166 28.3287 12.6012 27.8012 12.0738C27.2738 11.5463 26.5584 11.25 25.8125 11.25H20.8062C21.0125 11.8369 21.125 12.4688 21.125 13.125C21.1267 14.509 20.6165 15.8447 19.6925 16.875H20.1875ZM22.7881 20.49C22.925 20.82 23 21.1837 23 21.5625C23 23.655 22.1394 25.3312 20.7275 26.4656C19.3381 27.5812 17.4744 28.125 15.5 28.125C13.5256 28.125 11.6619 27.5812 10.2725 26.4656C8.8625 25.3312 8 23.655 8 21.5625C7.99901 21.1929 8.07108 20.8267 8.21207 20.485C8.35306 20.1434 8.56019 19.8329 8.82156 19.5716C9.08292 19.3102 9.39336 19.1031 9.73503 18.9621C10.0767 18.8211 10.4429 18.749 10.8125 18.75H20.1875C20.7446 18.7499 21.2891 18.9152 21.7521 19.225C22.2151 19.5347 22.5757 19.975 22.7881 20.49Z" fill="#fff"/>
</g>
</svg>
