<svg width="30" height="30" viewBox="0 0 30 30" fill="none" xmlns="http://www.w3.org/2000/svg">
<path d="M19.1666 3.33333H5.83329C5.39127 3.33333 4.96734 3.50892 4.65478 3.82148C4.34222 4.13404 4.16663 4.55797 4.16663 4.99999V25C4.16663 25.442 4.34222 25.8659 4.65478 26.1785C4.96734 26.4911 5.39127 26.6667 5.83329 26.6667H19.1666C19.6087 26.6667 20.0326 26.4911 20.3451 26.1785C20.6577 25.8659 20.8333 25.442 20.8333 25V20H13.025C12.8039 20 12.592 19.9122 12.4357 19.7559C12.2794 19.5996 12.1916 19.3877 12.1916 19.1667C12.1916 18.9456 12.2794 18.7337 12.4357 18.5774C12.592 18.4211 12.8039 18.3333 13.025 18.3333H20.8333V4.99999C20.8333 4.55797 20.6577 4.13404 20.3451 3.82148C20.0326 3.50892 19.6087 3.33333 19.1666 3.33333Z" fill="#021D40"/>
<path d="M23.4667 14.4C23.3073 14.2635 23.1022 14.1921 22.8925 14.2002C22.6828 14.2083 22.4838 14.2953 22.3354 14.4437C22.187 14.5921 22.1 14.7911 22.0919 15.0008C22.0838 15.2105 22.1552 15.4156 22.2917 15.575L25.1084 18.3333H20.8334V20H25.1084L22.2917 22.8833C22.2045 22.958 22.1336 23.05 22.0836 23.1534C22.0336 23.2567 22.0055 23.3694 22.001 23.4841C21.9966 23.5989 22.0159 23.7133 22.0578 23.8203C22.0997 23.9272 22.1633 24.0243 22.2445 24.1055C22.3257 24.1868 22.4228 24.2503 22.5298 24.2922C22.6367 24.3341 22.7512 24.3534 22.8659 24.349C22.9807 24.3446 23.0933 24.3165 23.1967 24.2664C23.3001 24.2164 23.392 24.1456 23.4667 24.0583L28.3334 19.225L23.4667 14.4Z" fill="#021D40"/>
</svg>
