<svg width="21" height="20" viewBox="0 0 21 20" fill="none" xmlns="http://www.w3.org/2000/svg">
<path d="M3.75909 11.6021C4.44254 8.32689 7.29437 6 10.5 6C13.7057 6 16.5574 8.32688 17.2409 11.6021C17.2974 11.8725 17.5622 12.0459 17.8325 11.9895C18.1029 11.933 18.2763 11.6682 18.2199 11.3979C17.4425 7.67312 14.1934 5 10.5 5C6.8066 5 3.55742 7.67311 2.78017 11.3979C2.72377 11.6682 2.89718 11.933 3.1675 11.9895C3.43782 12.0459 3.70268 11.8725 3.75909 11.6021ZM10.5 8C8.567 8 7 9.567 7 11.5C7 13.433 8.567 15 10.5 15C12.433 15 14 13.433 14 11.5C14 9.567 12.433 8 10.5 8ZM8 11.5C8 10.1193 9.11929 9 10.5 9C11.8807 9 13 10.1193 13 11.5C13 12.8807 11.8807 14 10.5 14C9.11929 14 8 12.8807 8 11.5Z" fill="#6B7280"/>
</svg>
