<svg width="21" height="20" viewBox="0 0 21 20" fill="none" xmlns="http://www.w3.org/2000/svg">
<path d="M3.35355 2.14645C3.15829 1.95118 2.84171 1.95118 2.64645 2.14645C2.45118 2.34171 2.45118 2.65829 2.64645 2.85355L6.1453 6.35239C4.47044 7.49179 3.2234 9.27384 2.78017 11.3979C2.72377 11.6682 2.89718 11.9331 3.1675 11.9895C3.43782 12.0459 3.70268 11.8725 3.75909 11.6021C4.1629 9.66699 5.32367 8.06291 6.86714 7.07422L8.45336 8.66045C7.57297 9.29611 7 10.3311 7 11.5C7 13.433 8.567 15 10.5 15C11.6689 15 12.7039 14.427 13.3396 13.5466L17.6464 17.8536C17.8417 18.0488 18.1583 18.0488 18.3536 17.8536C18.5488 17.6583 18.5488 17.3417 18.3536 17.1464L3.35355 2.14645ZM12.6194 12.8265C12.1773 13.5314 11.3934 14 10.5 14C9.11929 14 8 12.8807 8 11.5C8 10.6066 8.46863 9.82265 9.17348 9.38057L12.6194 12.8265ZM10.6235 8.00214L13.9979 11.3765C13.9342 9.54169 12.4583 8.06576 10.6235 8.00214ZM10.5 6C9.93016 6 9.37149 6.07353 8.83419 6.21285L8.03113 5.40979C8.81349 5.14331 9.64485 5 10.5 5C14.1934 5 17.4425 7.67312 18.2199 11.3979C18.2763 11.6682 18.1029 11.933 17.8325 11.9895C17.5622 12.0459 17.2974 11.8725 17.2409 11.6021C16.5574 8.32688 13.7057 6 10.5 6Z" fill="#6B7280"/>
</svg>
