<svg width="26" height="26" viewBox="0 0 26 26" fill="none" xmlns="http://www.w3.org/2000/svg">
<path d="M5.50004 0.500002H8.11504L5.49254 8H0.977539L4.38254 1.19C4.48645 0.982635 4.64601 0.808269 4.84337 0.686411C5.04072 0.564553 5.26809 0.50001 5.50004 0.500002ZM1.06754 10.5L8.60254 22.2175L5.42504 10.5H1.06754ZM8.01504 10.5L11.84 24.6125C11.9078 24.8684 12.0583 25.0948 12.2682 25.2562C12.478 25.4177 12.7353 25.5053 13 25.5053C13.2648 25.5053 13.5221 25.4177 13.7319 25.2562C13.9417 25.0948 14.0923 24.8684 14.16 24.6125L17.995 10.5H8.01504ZM20.585 10.5L17.4 22.2125L24.9325 10.5H20.5825H20.585ZM25.0225 8H20.515L17.89 0.500002H20.5C20.7324 0.499546 20.9603 0.56387 21.1581 0.685753C21.356 0.807637 21.5159 0.982255 21.62 1.19L25.0225 8ZM17.8675 8H8.14254L10.7625 0.500002H15.2375L17.8675 8Z" fill="#505050"/>
</svg>
