<svg width="16" height="20" viewBox="0 0 16 20" fill="none" xmlns="http://www.w3.org/2000/svg">
<path d="M4.75 9.5H11.25C12.2165 9.5 13 10.2835 13 11.25V15.25C13 16.2165 12.2165 17 11.25 17H4.75C3.7835 17 3 16.2165 3 15.25V11.25C3 10.2835 3.7835 9.5 4.75 9.5ZM4.5 11.25V12.5H6V11H4.75C4.61193 11 4.5 11.1119 4.5 11.25ZM4.5 14V15.25C4.5 15.3881 4.61193 15.5 4.75 15.5H6V14H4.5ZM7.5 14V15.5H11.25C11.3881 15.5 11.5 15.3881 11.5 15.25V14H7.5ZM11.5 12.5V11.25C11.5 11.1119 11.3881 11 11.25 11H7.5V12.5H11.5ZM9.585 0.586C9.57005 0.571048 9.55311 0.55808 9.53628 0.545195C9.52385 0.535674 9.51147 0.526198 9.5 0.516C9.429 0.452 9.359 0.389 9.281 0.336C9.25573 0.318941 9.22806 0.305475 9.20052 0.292071C9.18447 0.284259 9.16846 0.276469 9.153 0.268C9.1363 0.258594 9.11966 0.248967 9.103 0.239326C9.0488 0.20797 8.99436 0.176475 8.937 0.152C8.74 0.0699999 8.528 0.0289999 8.313 0.0139999C8.2933 0.0127423 8.27377 0.0100789 8.2542 0.00740928C8.22708 0.00371057 8.19988 0 8.172 0H2C0.896 0 0 0.896 0 2V18C0 19.104 0.896 20 2 20H14C15.104 20 16 19.104 16 18V7.828C16 7.298 15.789 6.789 15.414 6.414L9.585 0.586ZM14 18.5H2C1.724 18.5 1.5 18.275 1.5 18V2C1.5 1.725 1.724 1.5 2 1.5H8V6C8 7.104 8.896 8 10 8H14.5V18C14.5 18.275 14.276 18.5 14 18.5ZM13.378 6.5H10C9.724 6.5 9.5 6.275 9.5 6V2.621L13.378 6.5Z" fill="white"/>
</svg>
