<svg width="31" height="30" viewBox="0 0 31 30" fill="none" xmlns="http://www.w3.org/2000/svg">
<g id="material-symbols-light:workspace-premium-outline">
<path id="Vector" d="M12.9063 16.5963L13.88 13.3712L11.3175 11.49H14.5188L15.5 8.23125L16.4812 11.49H19.6825L17.1125 13.37L18.0875 16.595L15.5 14.595L12.9063 16.5963ZM9.25 26.8275V18.59C8.45833 17.8108 7.84375 16.8983 7.40625 15.8525C6.96875 14.8092 6.75 13.6917 6.75 12.5C6.75 10.0608 7.59875 7.99292 9.29625 6.29625C10.9929 4.59875 13.0608 3.75 15.5 3.75C17.9392 3.75 20.0071 4.59875 21.7037 6.29625C23.4012 7.99292 24.25 10.0608 24.25 12.5C24.25 13.6908 24.0313 14.8087 23.5938 15.8537C23.1563 16.8987 22.5417 17.81 21.75 18.5875V26.825L15.5 24.95L9.25 26.825V26.8275ZM15.5 20C17.5833 20 19.3542 19.2708 20.8125 17.8125C22.2708 16.3542 23 14.5833 23 12.5C23 10.4167 22.2708 8.64583 20.8125 7.1875C19.3542 5.72917 17.5833 5 15.5 5C13.4167 5 11.6458 5.72917 10.1875 7.1875C8.72917 8.64583 8 10.4167 8 12.5C8 14.5833 8.72917 16.3542 10.1875 17.8125C11.6458 19.2708 13.4167 20 15.5 20ZM10.5 25.055L15.5 23.655L20.5 25.055V19.6425C19.8025 20.155 19.0279 20.5508 18.1762 20.83C17.3254 21.11 16.4333 21.25 15.5 21.25C14.5667 21.25 13.6746 21.11 12.8238 20.83C11.9721 20.5517 11.1975 20.1558 10.5 19.6425V25.055Z" fill="#505050"/>
</g>
</svg>
