<?xml version="1.0" encoding="utf-8" standalone="no"?>
<!-- Creator: Esri ArcMap 10.8.0.12790 -->
<!DOCTYPE svg PUBLIC "-//W3C//DTD SVG 1.1//EN"  "http://www.w3.org/Graphics/SVG/1.1/DTD/svg11.dtd">
<svg width="774.73701pt" height="404.24882pt" viewBox="0 0 774.73701 404.24882" enable-background="new 0 0 774.73701 404.24882"
	version="1.1" xmlns="http://www.w3.org/2000/svg" xmlns:xlink="http://www.w3.org/1999/xlink" >
	<g id="Layers">
		<g id="Baschéo">
			<clipPath id="SVG_CP_1">
				<path d="M0,404.24882L0,0L774.73701,0L774.73701,404.24882L0,404.24882z"/>
			</clipPath>
			<path clip-path="url(#SVG_CP_1)" fill="none" stroke="#000000" stroke-width="0.47528" stroke-miterlimit="10" stroke-linecap="round" stroke-linejoin="round" d="
				M488.1075,41.34705L488.58278,42.29756L490.0086,43.24807L490.24624,44.91146L491.43443,44.67383L493.09789,45.62434L493.33553,46.33722
				L494.99899,48.23823L495.71191,49.42636L497.61301,50.6145L497.37537,51.80263L498.08828,53.22839L498.56356,56.79279L496.42482,58.69381
				L494.76135,59.88194L496.66246,61.3077L496.42482,62.97109L494.76135,63.9216L493.8108,65.10973L493.09789,65.10973L492.86025,65.82261
				L491.43443,66.53549L491.43443,67.96125L490.48388,68.67413L488.58278,68.19888L486.44404,67.72362L486.68168,69.86226L487.63223,71.52565
				L489.77097,72.71379L489.05805,75.09005L490.24624,77.22869L488.34514,77.94157L488.1075,78.65445L487.15695,80.08021L489.53333,80.79309
				L492.86025,83.40699L496.90009,85.308L498.80119,88.8724L499.27647,92.43681L499.27647,96.00121L500.22702,98.6151L502.12812,100.75374
				L501.17757,102.1795L500.46466,104.55577L499.27647,104.55577L498.56356,104.7934L498.08828,105.98153L496.66246,106.93204L496.18718,107.64492
				L494.52372,107.88254L492.86025,108.3578L492.14734,110.25881L491.67207,111.68457L490.48388,112.87271L488.82042,112.63508L
				489.53333,116.43711L490.24624,120.95201L489.53333,125.46692L489.05805,130.21946L488.58278,131.88285L487.15695,133.30861L
				485.73113,135.9225L485.01822,139.24927L483.35475,142.33842L481.92893,144.95232L480.74074,145.90282L478.12673,147.32858L475.27508,148.51672
				L471.94815,150.89298L467.90831,153.98213L467.67068,155.88315L466.72013,158.02179L464.58139,160.39805L462.20501,162.06144
				L459.82864,164.43771L459.591,166.1011L459.35336,168.00211L458.16517,169.42787L457.45226,170.616L457.6899,172.51702L457.21462,173.70515
				L455.31352,173.70515L454.36297,174.65566L454.12534,176.55667L452.93715,178.22006L452.22424,180.12107L451.27369,181.54684
				L448.1844,183.9231L446.75857,184.63598L446.04566,186.06174L446.99621,187.4875L449.13495,187.96276L448.89731,190.1014L448.42204,191.05191
				L448.65967,192.95292L446.99621,195.56681L445.33275,197.70545L445.33275,199.36884L446.75857,201.74511L445.80802,204.59663
				L444.85747,206.73527L443.19401,207.9234L442.4811,210.06204L440.81763,211.25018L437.72835,211.72543L435.11433,212.43831L434.16378,215.28983
				L433.21323,217.42847L431.54977,220.04237L431.07449,221.70576L430.59922,225.74541L429.64867,227.17117L427.98521,228.59693
				L427.27229,230.02269L427.50993,232.87421L425.84647,235.25048L420.61844,239.05251L419.19262,240.95352L416.5786,242.14166L
				415.15278,242.14166L414.20223,241.42878L412.30113,240.95352L410.63767,241.90403L409.68712,243.32979L407.31074,244.99318L
				407.31074,245.94368L408.49893,249.03283L408.49893,252.59723L407.31074,255.21113L404.22145,256.39926L402.79563,258.06265L
				400.65689,259.96366L398.51815,260.91417L394.71595,261.62705L389.01265,264.47857L386.161,265.6667L383.78462,266.61721L380.93297,266.85484
				L379.26951,265.6667L378.31896,263.52806L376.6555,264.00332L374.51676,264.00332L376.89314,267.33009L380.4577,269.94399L384.02226,271.13212
				L388.0621,274.45889L389.25029,278.9738L392.57721,281.82532L396.14178,284.67684L399.94398,287.29074L401.13216,290.37989L402.79563,292.75615
				L409.44948,293.46903L415.86569,293.94429L420.61844,294.89479L427.74757,297.50869L432.26268,301.78597L435.82725,305.588L439.15417,309.62765
				L440.81763,311.76629L442.24346,312.47917L444.14456,313.42968L446.2833,315.80595L449.13495,320.55848L449.61022,322.4595L451.9866,324.36051
				L452.69951,324.83576L453.41242,325.07339L452.69951,327.21203L451.51132,330.53881L451.74896,330.53881L450.56077,332.20219
				L448.1844,334.10321L444.85747,335.52897L441.53055,336.24185L437.49071,337.66761L435.58961,338.85574L434.40142,340.51913L
				432.9756,341.94489L430.36158,342.8954L427.74757,344.08353L425.37119,345.50929L423.94537,346.22217L424.18301,348.59844L422.28191,350.49945
				L420.38081,351.68759L418.24207,352.16284L417.52916,353.82623L418.00443,355.96487L418.24207,358.10351L417.52916,359.52927
				L415.15278,361.66791L413.72695,363.09367L412.7764,364.75706L412.06349,366.8957L409.92475,369.50959L409.21184,372.59874L410.63767,375.68789
				L411.11294,377.5889L409.92475,378.53941L407.78602,378.53941L406.59783,378.53941L405.64728,381.1533L404.93437,382.81669L406.36019,385.90584
				L277.32301,317.46933L278.03592,314.14256L278.5112,311.52867L276.84773,309.1524L275.89718,307.25138L275.65954,305.82562L275.65954,304.16224
				L275.18427,302.26122L274.70899,300.59784L274.47136,299.64733L274.47136,298.69682L274.47136,298.45919L274.70899,298.22157
				L275.18427,298.22157L275.42191,297.98394L275.42191,297.74631L275.18427,297.50869L274.94663,297.03343L274.47136,296.55818
				L274.47136,296.32055L274.23372,295.8453L274.47136,295.60767L274.70899,295.13242L274.94663,295.13242L275.42191,295.13242L
				275.89718,295.13242L276.37246,295.13242L276.61009,294.89479L276.84773,294.65717L276.84773,294.18191L277.08537,293.94429L
				277.08537,293.70666L276.84773,293.46903L276.61009,293.23141L276.13482,292.99378L275.65954,292.75615L274.94663,292.51853L
				273.99608,292.04327L273.52081,291.80565L273.04553,291.33039L273.04553,290.85514L272.80789,290.37989L273.04553,289.90463L
				273.28317,289.42938L273.75844,289.19175L274.23372,288.47887L274.70899,288.00362L275.18427,287.29074L275.65954,286.57786L
				275.89718,285.86498L276.37246,285.1521L277.08537,284.43922L277.32301,284.20159L278.27356,283.25108L278.74883,282.5382L279.22411,282.06295
				L279.22411,281.82532L278.98647,281.35007L278.74883,280.87482L278.5112,280.16194L278.03592,279.92431L277.79828,279.44906L
				277.79828,279.21143L277.79828,278.73617L278.03592,278.26092L278.27356,277.78567L278.5112,277.54804L278.98647,277.31041L279.46175,277.31041
				L279.69938,277.07279L279.69938,276.59753L279.46175,276.12228L279.46175,275.64703L279.22411,274.93415L278.98647,274.69652
				L278.5112,274.22127L278.03592,273.74601L277.32301,273.27076L276.37246,272.55788L275.89718,272.08263L275.42191,271.845L274.94663,271.36975
				L274.70899,270.89449L274.47136,270.89449L274.47136,270.65687L274.23372,270.41924L274.47136,270.18161L274.47136,269.94399
				L274.70899,269.70636L274.94663,269.70636L274.94663,269.46873L274.94663,269.2311L274.94663,268.99348L274.70899,268.51822L
				274.47136,268.2806L274.47136,268.04297L274.94663,267.56772L275.18427,267.56772L275.42191,267.56772L275.65954,267.33009L275.65954,267.09246
				L275.65954,266.85484L275.65954,266.61721L275.65954,266.37958L275.42191,265.90433L275.42191,265.6667L275.42191,265.42908L
				275.42191,264.95382L275.65954,264.47857L275.89718,264.24094L276.13482,264.00332L276.13482,263.76569L276.13482,263.52806L
				276.13482,263.29044L276.37246,262.81518L276.37246,262.57756L276.61009,262.33993L276.61009,261.86468L276.84773,261.86468L
				277.08537,261.62705L277.56065,261.38942L278.03592,261.38942L278.5112,261.1518L278.98647,260.91417L279.46175,261.1518L280.17466,261.1518
				L280.4123,261.1518L280.64993,261.38942L280.88757,261.38942L281.12521,261.62705L281.36285,261.62705L281.60048,261.62705L281.83812,261.38942
				L282.07576,261.38942L282.55103,260.67654L283.02631,259.96366L283.26395,259.48841L283.50158,259.25078L283.73922,259.01315
				L283.97686,259.01315L284.45213,259.01315L284.92741,258.77553L285.87796,259.01315L286.35323,258.77553L286.82851,258.5379L
				287.06615,258.5379L287.30378,258.30027L287.30378,258.06265L287.30378,257.58739L287.30378,257.11214L287.06615,256.63689L287.06615,256.16163
				L286.82851,255.68638L286.82851,255.21113L287.06615,254.73587L287.30378,254.26062L287.54142,254.02299L288.0167,254.02299L
				288.49197,253.78537L288.72961,253.78537L288.96725,253.78537L289.20488,253.78537L289.44252,254.02299L289.68016,254.02299L
				289.9178,254.02299L290.15543,253.78537L290.39307,253.31011L290.63071,252.83486L290.86835,252.12198L290.86835,251.4091L291.10598,251.17147
				L291.10598,250.69622L290.86835,250.22097L290.86835,249.98334L290.86835,249.50808L290.39307,248.55758L290.39307,248.08232
				L289.9178,247.13182L289.44252,246.65656L289.20488,246.18131L288.96725,245.70606L288.96725,245.2308L288.72961,244.99318L288.49197,244.75555
				L288.0167,244.2803L287.77906,244.04267L287.54142,243.80504L287.30378,243.80504L287.06615,243.56742L287.30378,243.32979L287.54142,242.61691
				L287.54142,242.37928L287.77906,242.14166L288.25433,241.90403L288.49197,241.42878L288.72961,240.95352L288.96725,240.47827
				L289.20488,240.00302L289.68016,239.52776L290.15543,239.05251L290.63071,238.57725L291.10598,238.102L291.34362,237.86437L291.34362,237.62675
				L291.10598,237.38912L290.86835,237.15149L290.63071,237.15149L290.15543,237.15149L289.9178,236.91387L289.68016,236.91387L
				289.44252,236.67624L289.20488,236.20099L288.72961,235.72573L288.49197,235.25048L288.49197,235.01285L288.49197,234.5376L288.72961,234.06235
				L289.20488,233.58709L290.15543,232.63659L290.63071,232.39896L291.10598,231.92371L291.8189,231.21083L292.53181,230.9732L292.76945,230.49795
				L293.00709,230.02269L293.48236,229.30981L293.72,228.83456L293.95764,228.12168L294.19527,227.64642L294.43291,226.93354L294.43291,226.45829
				L294.90819,225.74541L294.90819,225.50778L294.90819,225.27016L294.67055,224.7949L294.67055,224.31965L294.67055,224.08202L
				294.90819,223.60677L295.14582,223.13152L295.38346,222.89389L295.6211,222.65626L296.09637,222.41864L296.57165,222.18101L296.80929,221.94338
				L296.80929,221.70576L297.04692,221.46813L297.04692,220.51762L297.04692,220.04237L297.04692,219.56711L296.80929,219.09186
				L296.80929,218.61661L296.57165,218.37898L296.57165,218.14135L296.33401,217.6661L296.33401,217.42847L296.33401,216.95322L
				296.33401,216.71559L296.57165,216.47797L296.80929,216.24034L296.80929,216.00271L296.57165,216.00271L296.33401,215.76509L
				296.09637,215.52746L295.85874,215.28983L295.38346,215.05221L295.14582,214.81458L294.90819,214.57695L294.67055,214.1017L294.43291,213.62645
				L294.19527,213.15119L293.95764,212.91357L293.95764,212.43831L294.19527,211.48781L294.19527,210.77493L294.43291,209.58679
				L294.43291,208.63628L294.67055,208.16103L294.90819,207.68578L295.14582,207.44815L295.38346,206.9729L295.38346,206.73527L
				295.6211,206.26002L295.6211,205.78476L295.6211,205.30951L295.38346,204.83426L295.14582,204.59663L294.67055,204.359L294.43291,204.12138
				L294.19527,203.88375L294.19527,203.64612L294.43291,203.4085L294.43291,203.17087L294.90819,202.93324L295.6211,202.69562L296.33401,202.45799
				L296.80929,202.22036L297.28456,201.98274L297.5222,201.98274L297.75984,201.74511L297.75984,201.26986L297.75984,200.7946L297.75984,200.31935
				L297.5222,199.84409L297.5222,199.60647L297.5222,199.36884L297.28456,198.89359L297.28456,198.41833L297.28456,198.18071L297.04692,197.2302
				L296.80929,196.51732L296.80929,195.80444L296.80929,195.56681L296.80929,195.32919L296.80929,195.09156L296.80929,194.85393
				L297.04692,194.85393L297.28456,194.85393L297.5222,194.37868L297.5222,193.90343L297.5222,193.42817L297.28456,193.19055L297.28456,192.95292
				L297.5222,192.95292L297.5222,192.71529L297.75984,192.47767L297.99747,192.24004L298.23511,192.24004L298.71039,192.00241L298.94802,191.76479
				L299.18566,191.52716L299.4233,191.05191L299.4233,190.81428L299.18566,190.57665L299.18566,189.86377L299.4233,189.38852L299.89857,188.67564
				L300.37385,188.20038L300.61149,187.96276L301.08676,187.4875L301.56204,187.01225L302.03731,187.01225L302.51259,186.77462L
				302.75022,186.29937L302.98786,185.82412L303.2255,185.58649L303.46314,185.34886L303.70077,184.87361L303.93841,184.39836L304.17605,183.9231
				L304.41369,183.68548L304.88896,183.21022L305.1266,182.9726L305.60187,182.73497L305.83951,182.49734L305.83951,182.25972L306.07715,181.78446
				L306.31479,181.54684L306.55242,181.30921L306.55242,181.07158L306.79006,180.83396L307.0277,180.83396L307.0277,180.59633L307.0277,180.3587
				L307.26534,180.12107L307.26534,179.88345L307.50297,179.64582L307.74061,179.64582L307.97825,179.64582L308.21589,179.64582
				L308.45353,179.64582L308.69116,179.64582L308.9288,179.64582L309.16644,179.40819L309.64171,178.93294L309.87935,178.69531L
				310.11699,178.45769L310.35463,178.22006L310.59226,177.98243L310.8299,177.98243L311.30518,177.98243L311.30518,177.74481L311.54281,177.74481
				L311.78045,177.98243L312.01809,177.98243L312.25573,177.98243L312.49336,177.98243L312.731,177.98243L312.96864,177.74481L313.20628,177.50718
				L313.44391,177.26955L313.44391,177.03193L313.44391,176.7943L313.44391,176.55667L313.44391,176.31905L313.44391,176.08142L
				313.44391,175.84379L313.68155,175.60617L313.91919,175.13091L314.15683,174.89329L314.39446,174.65566L314.86974,174.41803L
				315.34501,174.18041L315.58265,174.18041L315.58265,173.94278L316.05793,173.70515L316.29556,173.70515L316.5332,173.70515L317.00848,173.70515
				L317.24611,173.46753L317.48375,173.46753L317.72139,173.2299L318.19666,172.75465L318.4343,172.51702L318.67194,172.27939L318.67194,172.04177
				L318.67194,171.56651L319.14721,170.85363L319.14721,170.616L319.38485,170.14075L319.62249,169.6655L319.62249,168.95262L319.62249,168.47736
				L319.62249,168.23974L319.62249,168.00211L319.62249,167.76448L319.86013,167.52686L320.09776,167.0516L320.3354,166.81398L320.3354,166.57635
				L320.57304,166.33872L320.81068,166.1011L320.81068,165.86347L321.04831,165.62584L321.04831,165.38822L320.81068,165.15059L
				320.81068,164.91296L321.04831,164.67534L321.28595,164.20008L321.76123,163.96246L322.2365,163.4872L322.71178,163.24958L322.94941,163.01195
				L323.42469,162.77432L323.66233,162.5367L323.89997,161.82382L324.1376,161.34856L324.1376,160.87331L324.1376,160.63568L324.37524,160.39805
				L324.37524,160.16043L324.61288,160.16043L324.61288,159.9228L325.08815,159.9228L325.32579,159.68517L325.56343,159.68517L325.80107,159.68517
				L326.27634,159.68517L326.51398,159.44755L326.75162,159.20992L326.98925,158.73467L327.46453,158.25941L327.46453,158.02179
				L327.70217,157.78416L327.9398,157.30891L328.41508,156.83365L328.89035,156.3584L329.12799,155.64552L329.36563,154.69501L329.60327,153.98213
				L329.60327,153.74451L329.36563,153.50688L328.89035,153.03163L328.41508,152.794L328.17744,152.55637L327.70217,152.31875L327.46453,152.08112
				L327.22689,151.60587L326.98925,151.60587L326.98925,151.13061L326.98925,150.65536L326.98925,149.94248L326.75162,149.70485
				L326.51398,149.2296L326.27634,148.75434L326.0387,148.51672L325.56343,148.27909L325.32579,148.04146L324.85052,147.80384L324.1376,147.56621
				L323.42469,147.56621L322.71178,147.32858L321.99886,147.09096L321.52359,146.85333L321.04831,146.6157L320.81068,146.37808L
				320.3354,146.14045L320.3354,145.6652L320.09776,144.95232L320.09776,144.23944L319.86013,143.76418L319.62249,143.28893L319.14721,143.0513
				L318.19666,142.57605L317.48375,142.1008L317.00848,141.86317L316.29556,141.38792L315.10738,140.91266L314.15683,140.43741L
				312.96864,140.19978L312.01809,139.72453L311.06754,139.4869L310.11699,139.01165L309.40408,138.77402L309.16644,138.29877L308.69116,137.82351
				L308.69116,137.58589L308.45353,136.87301L308.45353,135.68487L308.21589,135.44725L307.97825,135.20962L307.50297,135.20962
				L307.0277,135.20962L306.55242,135.20962L306.07715,135.20962L305.36424,134.73437L305.1266,134.49674L304.88896,134.25911L304.65132,134.02149
				L304.41369,134.02149L304.17605,134.02149L303.70077,134.25911L303.46314,134.49674L302.98786,134.97199L302.75022,134.97199
				L302.27495,135.20962L302.03731,135.20962L301.56204,135.20962L300.84912,134.97199L300.13621,134.73437L299.4233,134.25911L
				298.71039,133.78386L297.28456,132.3581L296.80929,131.88285L296.33401,131.64522L295.85874,131.16996L295.38346,130.93234L294.90819,130.69471
				L294.43291,130.45708L293.72,130.45708L293.24472,130.45708L292.29417,130.21946L291.8189,129.98183L291.58126,129.98183L291.10598,129.98183
				L290.63071,129.98183L290.15543,129.98183L289.68016,130.21946L289.44252,130.21946L289.20488,130.21946L288.96725,130.21946
				L288.72961,129.98183L288.72961,129.7442L288.49197,129.26895L288.49197,128.55607L288.25433,128.08082L288.25433,127.60556L
				287.77906,127.36794L287.30378,126.89268L287.06615,126.65506L286.59087,126.41743L285.87796,126.1798L285.40268,126.1798L284.92741,125.94218
				L284.68977,125.94218L284.45213,125.70455L284.45213,125.46692L284.2145,125.2293L284.2145,124.99167L284.45213,124.51642L284.45213,124.27879
				L284.68977,123.56591L284.92741,123.09066L285.16505,122.37778L285.64032,121.42727L285.87796,120.71439L286.1156,119.76388L
				286.35323,119.52625L286.59087,119.28863L286.59087,119.051L286.59087,118.57575L286.35323,118.10049L286.1156,117.62524L285.87796,117.14999
				L285.64032,116.43711L285.40268,115.72423L285.16505,115.4866L285.16505,115.01135L285.16505,114.77372L285.16505,114.53609L
				285.16505,114.29847L285.16505,114.06084L284.92741,113.82321L284.68977,113.58559L284.45213,113.58559L283.97686,113.58559L
				283.73922,113.34796L283.73922,113.11033L283.50158,112.63508L283.50158,112.39745L283.73922,111.9222L283.73922,111.68457L283.73922,111.44694
				L283.50158,111.44694L283.26395,111.20932L283.02631,111.20932L282.55103,111.20932L282.3134,110.97169L281.83812,110.73406L
				281.60048,110.73406L281.36285,110.97169L281.12521,110.97169L280.88757,110.97169L280.64993,110.73406L280.4123,110.49644L280.4123,110.02118
				L280.17466,109.78356L280.17466,109.3083L279.93702,108.83305L279.93702,108.59542L279.93702,108.12017L279.93702,107.88254L
				280.17466,107.64492L280.17466,107.16966L280.4123,106.93204L280.88757,106.69441L281.12521,106.45678L281.60048,106.21916L281.83812,106.21916
				L282.07576,105.98153L282.07576,105.7439L282.07576,105.50628L281.83812,105.26865L281.60048,105.03102L281.36285,105.03102L
				281.12521,105.03102L280.88757,105.03102L280.4123,105.03102L280.17466,105.03102L280.17466,104.7934L279.93702,104.7934L279.93702,104.55577
				L279.69938,104.08052L279.69938,103.60526L279.46175,103.13001L279.46175,102.89238L279.46175,102.1795L279.69938,101.22899L
				279.69938,100.27849L279.46175,99.09035L279.69938,98.6151L279.93702,97.90222L279.93702,96.95171L279.93702,96.71409L279.69938,96.00121
				L279.69938,95.52595L279.69938,94.81307L279.46175,94.57545L279.22411,94.10019L278.98647,93.86257L278.5112,93.62494L278.27356,93.38731
				L278.03592,93.14969L278.03592,92.67443L278.03592,92.19918L278.27356,91.72392L278.5112,91.24867L278.74883,90.53579L278.98647,90.06054
				L278.98647,89.58528L279.22411,89.34766L279.22411,88.8724L279.46175,88.63478L279.93702,88.39715L280.4123,88.15952L280.64993,87.9219
				L280.88757,87.44664L281.36285,86.97139L281.60048,86.73376L281.60048,86.49614L281.60048,86.25851L281.83812,85.78326L281.83812,85.54563
				L282.07576,85.07038L282.3134,84.59512L282.78867,84.11987L283.26395,83.64462L283.50158,83.40699L283.73922,83.16936L283.97686,83.16936
				L284.2145,83.16936L284.45213,82.93174L284.68977,82.93174L284.92741,82.93174L285.16505,82.69411L285.40268,82.69411L285.40268,82.21886
				L285.40268,81.98123L285.64032,81.50597L285.87796,81.03072L285.87796,80.55547L286.1156,80.31784L286.35323,80.08021L286.82851,79.60496
				L287.30378,79.36733L287.54142,79.12971L287.77906,79.12971L288.0167,78.65445L288.25433,78.41683L288.25433,78.1792L288.49197,77.94157
				L288.49197,77.70395L288.72961,77.46632L288.96725,77.46632L289.20488,77.22869L289.68016,77.22869L289.9178,77.22869L290.15543,76.99107
				L290.15543,76.75344L290.39307,76.27819L290.39307,76.04056L290.63071,75.80293L290.86835,75.80293L291.10598,75.80293L291.58126,76.04056
				L291.8189,76.27819L292.05653,76.51581L292.29417,76.75344L292.29417,76.99107L292.53181,77.46632L292.53181,78.1792L292.53181,78.41683
				L292.53181,78.65445L292.76945,78.65445L293.00709,78.65445L293.24472,78.1792L293.72,77.70395L293.95764,77.46632L294.19527,77.22869
				L294.43291,76.75344L294.67055,76.51581L294.67055,76.27819L294.90819,76.04056L295.14582,75.80293L295.38346,75.80293L295.6211,75.80293
				L295.85874,75.80293L296.33401,75.56531L296.80929,75.56531L297.28456,75.32768L297.5222,75.56531L298.23511,76.04056L298.47275,76.27819
				L298.71039,76.27819L298.94802,76.51581L299.18566,76.51581L299.4233,76.27819L299.66094,76.27819L299.89857,76.27819L300.13621,76.51581
				L300.61149,76.51581L300.84912,76.75344L301.08676,76.75344L301.3244,76.75344L301.56204,76.51581L301.79967,76.27819L302.03731,76.04056
				L302.03731,75.80293L302.51259,75.80293L302.98786,75.56531L303.46314,75.32768L303.70077,75.32768L303.93841,75.32768L304.17605,75.09005
				L304.41369,74.85243L304.41369,74.6148L304.65132,74.13955L304.65132,73.90192L304.65132,73.66429L304.65132,73.42667L304.88896,72.95141
				L305.1266,72.71379L305.36424,72.23853L305.60187,72.23853L305.60187,72.0009L305.60187,71.76328L305.60187,71.28802L305.36424,71.0504
				L305.1266,70.81277L305.1266,70.33752L305.1266,70.09989L305.36424,70.09989L305.60187,69.86226L306.55242,69.86226L306.79006,69.86226
				L307.0277,70.09989L307.26534,70.09989L307.74061,70.09989L308.21589,70.09989L308.45353,70.09989L308.69116,70.09989L308.9288,70.09989
				L309.40408,70.09989L309.64171,69.86226L309.87935,69.38701L310.11699,69.14938L310.11699,68.91176L310.59226,68.67413L310.8299,68.67413
				L311.06754,68.67413"/>
			<path clip-path="url(#SVG_CP_1)" fill="none" stroke="#000000" stroke-width="0.47528" stroke-miterlimit="10" stroke-linecap="round" stroke-linejoin="round" d="
				M311.06754,68.67413L311.30518,68.4365L311.78045,68.19888L312.01809,68.19888L312.25573,68.19888L312.49336,68.19888L312.731,68.19888
				L313.20628,68.19888L313.20628,68.4365L313.44391,68.19888L313.68155,68.19888L313.91919,67.96125L313.91919,67.72362L313.91919,67.24837
				L313.20628,66.53549L312.96864,66.29786L312.731,66.06024L312.49336,65.34736L312.25573,65.34736L312.01809,65.10973L311.78045,65.34736
				L311.54281,65.34736L311.30518,65.58498L311.06754,65.58498L310.8299,65.58498L310.59226,65.58498L310.35463,65.34736L310.35463,65.10973
				L310.35463,64.63448L310.35463,64.39685L310.35463,64.15922L310.35463,63.68397L310.59226,63.20872L310.8299,62.97109L310.8299,62.49583
				L311.06754,62.49583L311.06754,62.25821L311.06754,62.02058L311.30518,62.02058L311.78045,62.02058L312.25573,62.02058L312.731,62.02058
				L312.96864,62.02058L313.44391,61.78295L313.91919,61.54533L314.15683,61.3077L314.6321,61.07007L314.86974,60.83245L314.86974,60.35719
				L314.86974,60.11957L315.10738,59.88194L315.10738,59.64431L314.86974,59.40669L314.86974,58.93143L314.86974,58.69381L314.86974,58.21855
				L314.86974,57.98093L314.86974,57.7433L314.86974,57.50567L314.6321,57.26805L314.39446,57.26805L314.15683,57.26805L313.91919,57.50567
				L313.91919,57.7433L313.68155,57.7433L313.44391,57.7433L313.20628,57.7433L313.20628,57.50567L312.96864,57.50567L312.96864,57.26805
				L313.20628,57.03042L313.44391,56.79279L313.68155,56.79279L314.39446,56.55517L314.6321,56.31754L315.10738,56.31754L315.34501,56.31754
				L315.82029,56.07991L316.05793,55.84229L316.29556,55.60466L316.5332,55.12941L317.00848,54.65415L317.24611,54.41653L317.24611,53.94127
				L317.24611,53.46602L317.24611,53.22839L317.24611,52.75314L317.24611,52.51551L317.24611,52.27788L317.00848,52.04026L316.77084,52.04026
				L316.5332,52.04026L316.5332,51.80263L316.29556,51.80263L316.29556,52.04026L316.05793,52.04026L316.05793,52.27788L315.82029,52.27788
				L315.58265,52.04026L315.58265,51.80263L315.58265,51.565L315.82029,51.32738L316.05793,50.85212L316.29556,50.6145L316.5332,50.37687
				L316.77084,50.13924L316.77084,49.90162L317.00848,49.90162L317.48375,49.66399L317.72139,49.66399L317.72139,49.42636L317.95903,49.18874
				L317.95903,48.95111L317.72139,48.71348L317.48375,48.47586L317.00848,48.0006L316.77084,47.76298L316.5332,47.52535L316.29556,47.76298
				L316.05793,47.76298L315.82029,47.76298L315.58265,47.76298L315.34501,47.76298L315.34501,47.52535L315.34501,47.28772L315.58265,47.0501
				L315.82029,46.57484L316.05793,46.33722L316.5332,45.86196L316.77084,45.38671L317.00848,44.91146L317.24611,44.19858L317.72139,43.4857
				L317.95903,43.24807L317.95903,43.01044L318.19666,42.77281L318.19666,42.05993L318.19666,41.58468L318.4343,40.8718L318.4343,40.63417
				L318.4343,40.39655L318.4343,39.92129L318.19666,39.92129L318.19666,39.68367L318.19666,39.44604L318.19666,39.20841L318.19666,38.97079
				L318.19666,38.73316L318.19666,38.49553L318.19666,38.25791L318.19666,38.02028L318.19666,37.78265L317.95903,37.78265L318.19666,37.54503
				L318.4343,37.3074L318.67194,37.3074L318.67194,37.06977L318.67194,36.59452L318.67194,36.35689L318.67194,36.11927L318.4343,35.88164
				L318.19666,35.88164L317.95903,35.64401L317.72139,35.64401L317.48375,35.40639L317.24611,35.16876L317.00848,34.93113L316.77084,34.45588
				L316.5332,34.21825L316.29556,33.743L316.05793,33.50537L315.82029,33.26775L315.58265,33.26775L315.34501,33.03012L315.10738,33.03012
				L315.10738,32.79249L314.86974,32.79249L314.6321,32.55486L314.39446,32.55486L314.39446,32.31724L314.15683,32.07961L314.15683,31.84198
				L314.15683,31.60436L314.15683,31.36673L313.91919,31.36673L313.68155,31.36673L313.44391,31.1291L313.20628,30.89148L312.96864,30.89148
				L312.731,30.65385L312.25573,30.41622L312.01809,30.1786L311.78045,30.1786L311.78045,29.94097L311.78045,29.70334L311.54281,29.70334
				L311.54281,29.46572L311.54281,29.22809L311.54281,28.99046L311.30518,28.99046L311.06754,28.99046L311.06754,28.75284L310.8299,28.51521
				L310.8299,28.27758L311.06754,28.27758L311.06754,28.03996L310.8299,28.03996L310.8299,27.80233L310.59226,27.80233L310.11699,28.03996
				L309.87935,28.03996L309.64171,28.03996L309.40408,28.27758L309.16644,28.27758L308.9288,28.27758L308.69116,28.51521L308.45353,28.51521
				L308.21589,28.75284L307.97825,28.75284L307.74061,28.51521L307.50297,28.51521L307.26534,28.51521L307.0277,28.27758L306.79006,28.03996
				L306.79006,27.80233L306.55242,27.80233L306.31479,27.5647L306.07715,27.32708L306.07715,27.08945L305.83951,27.08945L305.60187,26.85182
				L305.36424,26.85182L305.1266,26.6142L304.88896,26.6142L304.65132,26.6142L304.41369,26.6142L304.17605,26.37657L303.93841,26.37657
				L303.70077,26.37657L303.46314,26.37657L303.2255,26.37657L302.75022,26.6142L302.51259,26.6142L302.03731,26.6142L301.79967,26.6142
				L301.56204,26.6142L301.3244,26.6142L301.08676,26.37657L300.84912,26.37657L300.61149,26.13894L300.37385,26.13894L300.13621,26.13894
				L299.89857,25.90132L299.66094,25.90132L299.4233,25.90132L299.4233,26.13894L299.18566,26.13894L298.94802,26.13894L298.71039,26.13894
				L298.47275,26.13894L298.23511,26.13894L298.23511,25.90132L297.99747,25.90132L297.75984,25.66369L297.75984,25.42606L297.5222,25.42606
				L297.28456,25.18844L297.04692,25.18844L297.04692,24.95081L296.80929,24.71318L296.57165,24.47556L296.33401,24.47556L296.33401,24.71318
				L296.09637,24.71318L296.09637,24.47556L295.85874,24.47556L295.85874,24.23793L295.6211,24.23793L295.6211,24.47556L295.38346,24.47556
				L295.38346,24.71318L295.14582,24.47556L294.90819,24.47556L294.67055,24.47556L294.67055,24.23793L294.43291,24.23793L294.19527,24.23793
				L293.95764,24.23793L293.95764,24.0003L293.72,24.0003L293.48236,23.76268L293.24472,23.76268L293.24472,23.52505L293.00709,23.28742
				L292.76945,23.28742L292.53181,23.28742L292.29417,23.52505L292.05653,23.52505L292.05653,23.28742L291.8189,23.28742L291.58126,23.28742
				L291.58126,23.04979L291.34362,23.04979L291.34362,22.81217L291.34362,22.33691L291.34362,21.62403L291.10598,21.62403L291.10598,21.38641
				L291.10598,21.14878L290.86835,20.91115L290.63071,20.67353L290.39307,20.67353L290.15543,20.19827L290.15543,19.96065L289.9178,19.72302
				L289.68016,19.72302L289.44252,19.48539L289.20488,19.48539L288.96725,19.24777L288.96725,19.01014L288.72961,19.01014L288.72961,18.77251
				L295.85874,18.53489L321.76123,18.53489L346.23789,19.01014L347.42608,20.91115L350.51537,22.33691L353.36702,23.52505L355.50576,24.47556
				L360.25851,27.80233L364.29835,28.99046L367.86291,29.70334L371.66511,30.41622L374.27912,32.55486L377.13077,35.40639L379.50715,36.59452
				L382.3588,37.3074L386.87391,39.20841L389.48793,40.15892L391.62666,39.68367L394.00304,39.44604L397.09233,40.15892L399.70634,41.34705
				L404.22145,42.77281L408.49893,41.82231L411.82585,41.82231L415.15278,41.82231L418.24207,41.82231L421.09372,41.58468L423.23246,41.34705
				L425.60883,41.34705L429.88631,41.34705L432.50032,39.92129L436.30252,39.68367L437.96598,38.97079L439.15417,39.68367L440.34236,38.73316
				L442.24346,38.02028L444.61983,36.83215L446.04566,37.54503L448.42204,36.59452L449.84786,37.06977L451.74896,37.06977L452.93715,36.35689
				L456.26407,36.59452L459.11572,35.40639L465.2943,33.50537L469.80941,36.11927L473.61161,38.49553L475.98799,39.44604L480.02783,42.29756
				L483.35475,42.05993L488.1075,41.34705"/>
		</g>
	</g>
</svg>
