<?xml version="1.0" encoding="utf-8" standalone="no"?>
<!-- Creator: Esri ArcMap 10.8.0.12790 -->
<!DOCTYPE svg PUBLIC "-//W3C//DTD SVG 1.1//EN"  "http://www.w3.org/Graphics/SVG/1.1/DTD/svg11.dtd">
<svg width="774.73701pt" height="404.24882pt" viewBox="0 0 774.73701 404.24882" enable-background="new 0 0 774.73701 404.24882"
	version="1.1" xmlns="http://www.w3.org/2000/svg" xmlns:xlink="http://www.w3.org/1999/xlink" >
	<g id="Layers">
		<g id="Bibemi">
			<clipPath id="SVG_CP_1">
				<path d="M0,404.24882L0,0L774.73701,0L774.73701,404.24882L0,404.24882z"/>
			</clipPath>
			<path clip-path="url(#SVG_CP_1)" fill="none" stroke="#000000" stroke-width="0.47528" stroke-miterlimit="10" stroke-linecap="round" stroke-linejoin="round" d="
				M322.2365,385.90584L302.03731,378.30178L296.80929,374.26213L280.88757,362.38079L279.22411,359.05402L284.2145,350.26183L283.97686,347.88556
				L280.64993,344.08353L274.47136,339.331L273.52081,338.61812L272.09498,336.7171L271.14443,334.34083L269.71861,332.43982L269.48097,330.53881
				L269.48097,328.16254L269.48097,325.31102L269.24333,323.88526L269.48097,322.69712L269.71861,321.98424L270.19388,319.37035
				L271.14443,318.18221L271.14443,315.80595L270.43152,314.38019L269.00569,312.95443L266.39168,311.52867L264.49058,310.57816
				L263.06476,309.39003L261.87657,307.96426L260.45074,307.01376L258.54964,306.30088L257.36145,306.06325L255.93563,305.82562
				L255.69799,304.63749L255.46035,303.68698L254.74744,302.73648L253.55925,301.54834L252.37107,300.83546L250.7076,299.64733L
				250.46997,298.45919L249.99469,296.32055L249.75705,294.65717L249.99469,293.46903L250.46997,292.2809L250.23233,290.14226L249.99469,288.47887
				L249.04414,286.57786L248.56887,285.1521L247.38068,284.20159L245.95485,283.48871L244.52903,283.01346L243.57848,282.5382L242.15265,281.5877
				L240.72683,280.39956L239.301,278.26092L238.11281,277.31041L237.3999,275.4094L237.3999,273.98364L237.16226,273.27076L236.44935,272.32025
				L235.26116,271.36975L233.83534,269.94399L232.17188,268.04297L230.74605,266.37958L229.55786,264.95382L227.41912,262.81518
				L225.75566,260.91417L224.80511,259.25078L224.80511,257.82502L223.85456,256.87451L222.1911,255.68638L220.05236,254.73587L
				217.20071,254.49825L214.82433,254.02299L214.11142,253.31011L213.87378,252.35961L212.92323,251.17147L211.25977,249.74571L
				210.07158,247.8447L210.07158,245.70606L210.07158,243.09216L209.12103,241.6664L207.69521,240.47827L206.50702,238.57725L205.31883,237.86437
				L204.13065,237.15149L203.1801,235.96336L202.46718,234.77523L201.51663,233.11184L200.56608,231.68608L200.32845,230.49795L
				200.56608,229.30981L201.279,227.88405L201.99191,226.45829L202.46718,225.27016L202.70482,222.65626L202.22955,221.46813L200.56608,220.28
				L199.14026,219.56711L197.47679,218.61661L195.81333,217.6661L194.86278,215.05221L194.38751,213.38882L194.38751,211.01255L
				194.14987,209.34916L193.43696,208.16103L190.58531,207.21052L187.97129,206.26002L186.30783,205.54714L184.64437,204.59663L
				183.45618,202.69562L182.9809,201.26986L182.50563,200.08172L182.50563,199.13121L182.74327,198.41833L184.40673,197.70545L185.83256,196.75495
				L187.25838,195.80444L187.73366,194.85393L187.73366,194.14105L188.68421,194.85393L189.15948,195.32919L189.15948,195.56681
				L189.15948,196.04207L188.68421,196.51732L187.25838,197.2302L186.30783,197.70545L186.07019,198.18071L185.83256,198.65596L
				185.83256,199.13121L185.83256,200.08172L186.30783,201.26986L186.07019,201.74511L186.07019,202.22036L186.07019,202.69562L
				186.54547,203.4085L187.25838,203.88375L188.20893,203.88375L190.34767,203.88375L191.06058,203.88375L192.72404,204.59663L194.14987,204.359
				L195.33806,206.02239L196.28861,207.21052L197.00152,206.73527L197.23916,206.73527L197.95207,206.73527L198.42734,206.49764
				L199.14026,205.78476L199.61553,205.54714L201.279,205.07188L203.1801,205.30951L205.0812,206.02239L205.55647,208.16103L206.50702,209.58679
				L207.45757,209.82442L210.30922,209.82442L212.92323,210.5373L213.87378,209.82442L214.11142,207.44815L214.82433,206.49764L
				216.01252,206.26002L217.67599,208.16103L218.62654,208.16103L219.57709,206.9729L219.57709,204.83426L220.05236,204.12138L221.71582,203.88375
				L224.0922,206.73527L226.23094,206.73527L227.41912,206.02239L230.03314,206.26002L230.98369,208.39866L232.17188,208.87391L
				234.07298,208.39866L235.97408,209.11154L237.87518,211.72543L240.01391,212.43831L243.1032,210.77493L244.29139,210.77493L246.19249,212.20069
				L249.51942,213.62645L251.18288,213.62645L252.37107,212.20069L253.32162,209.58679L254.98508,208.39866L255.22272,207.44815
				L254.74744,206.02239L252.6087,206.02239L251.89579,205.30951L252.37107,204.59663L254.03453,203.64612L255.69799,201.98274L
				259.26255,200.7946L262.58948,199.84409L264.25294,200.31935L264.25294,201.98274L265.20349,204.359L266.86696,205.07188L268.76806,205.30951
				L270.19388,202.93324L271.38207,202.45799L273.52081,203.17087L274.70899,202.69562L275.42191,201.26986L276.61009,200.55698
				L277.32301,200.08172L278.27356,199.84409L278.74883,199.13121L278.98647,197.94308L278.74883,195.56681L278.98647,194.85393
				L279.46175,194.37868L279.93702,194.61631L280.64993,195.09156L281.60048,195.56681L282.3134,195.09156L283.02631,196.51732L
				283.02631,196.99257L283.02631,197.70545L283.50158,198.89359L284.2145,199.84409L287.54142,199.84409L288.96725,200.31935L289.68016,199.84409
				L290.86835,198.18071L293.24472,196.99257L294.43291,195.56681L295.85874,193.6658L298.23511,192.95292L302.98786,192.71529L
				304.41369,192.00241L305.60187,191.05191L306.31479,190.1014L306.55242,187.24988L307.97825,185.58649L310.35463,182.02209L312.49336,180.59633
				L312.96864,180.3587L312.731,179.64582L310.35463,178.69531L309.87935,177.98243L310.59226,177.50718L311.30518,177.03193L313.44391,177.26955
				L317.00848,177.98243L318.67194,178.22006L321.28595,178.69531L325.32579,177.26955L326.0387,176.31905L326.98925,171.56651L
				328.65272,167.52686L330.07854,166.1011L331.742,164.91296L333.40547,164.67534L334.83129,163.4872L338.63349,162.29907L339.58404,160.39805
				L340.77223,159.68517L342.43569,159.20992L343.14861,158.25941L344.57443,156.12077L345.52498,154.69501L346.47553,154.45739
				L347.18844,154.93264L348.85191,155.88315L350.51537,155.88315L351.94119,154.93264L351.94119,153.74451L350.99064,152.55637
				L350.75301,151.60587L350.99064,150.89298L352.65411,149.70485L355.50576,148.51672L357.16922,146.6157L358.11977,143.52656L
				358.83268,141.38792L358.35741,139.01165L356.93158,136.16013L355.26812,134.97199L352.65411,133.78386L351.22828,132.3581L350.99064,130.93234
				L352.17883,129.7442L353.84229,128.31844L354.07993,126.89268L353.60466,125.46692L354.07993,124.04116L355.98103,121.6649L356.45631,120.47676
				L355.7434,119.76388L356.21867,118.81337L358.59505,117.14999L359.07032,116.43711L359.07032,115.24897L357.6445,112.87271L357.88213,111.20932
				L356.69395,107.16966L356.69395,104.55577L357.40686,103.13001L356.93158,102.41713L355.03048,102.65476L354.07993,100.04086
				L355.26812,98.37747L355.03048,96.47646L354.07993,94.10019L354.07993,92.43681L355.50576,90.29816L355.98103,86.97139L357.40686,82.93174
				L358.59505,81.26835L357.6445,77.70395L358.59505,75.80293L361.4467,74.37717L363.58543,72.23853L364.06071,69.86226L363.58543,67.72362
				L362.63488,65.82261L363.11016,63.44634L364.53598,61.54533L365.2489,59.16906L365.2489,56.79279L366.19945,54.65415L366.91236,50.37687
				L367.38763,48.47586L367.38763,48.0006L367.38763,46.81247L366.67472,46.09959L366.91236,44.19858L368.57582,41.10943L372.37802,38.97079
				L375.70495,34.93113L380.22006,32.55486L384.49754,21.14878L387.11155,19.01014L389.72556,18.53489L393.05249,20.4359L395.90414,19.72302
				L397.5676,19.72302L399.70634,19.01014L401.84508,18.77251L406.36019,19.24777L408.02365,20.91115L409.92475,22.33691L411.58822,23.28742
				L413.72695,25.42606L415.15278,25.66369L416.5786,24.0003L420.14317,23.04979L425.84647,18.77251L431.07449,23.28742L431.31213,24.23793
				L432.73796,25.90132L434.16378,26.6142L435.11433,27.80233L436.54016,28.51521L438.44126,28.75284L440.58,29.70334L440.81763,31.1291
				L442.71873,31.84198L444.14456,30.65385L444.85747,31.1291L446.04566,30.65385L446.99621,29.70334L447.94676,30.65385L449.13495,31.60436
				L450.32314,32.07961L450.32314,32.79249L451.9866,33.26775L451.9866,33.98063L451.51132,34.69351L452.46187,34.45588L453.65006,35.16876
				L454.12534,35.64401L455.55116,35.64401L455.7888,34.69351L457.21462,35.40639L457.45226,36.11927L459.11572,35.64401L460.06627,35.40639
				L460.54155,37.06977L460.77919,40.8718L471.71051,53.94127L473.84925,56.31754L475.51271,59.40669L476.93854,60.59482L478.12673,61.3077
				L479.79019,63.9216L480.5031,65.82261L483.11712,66.29786L484.06767,65.34736L485.96877,66.77312L486.91932,66.06024L487.63223,67.01074
				L488.34514,67.486L489.29569,68.4365L489.77097,69.62464L490.72152,71.28802L491.67207,72.71379L493.33553,75.32768L493.8108,79.12971
				L494.52372,81.50597L495.23663,83.64462L495.71191,86.02088L496.42482,86.02088L498.08828,86.97139L499.98938,88.63478L502.84103,90.77342
				L505.93032,91.96155L509.01961,93.38731L511.39598,94.10019L512.58417,94.33782L514.48527,94.10019L515.67346,93.38731L516.86165,94.10019
				L518.76275,94.81307L520.18857,94.57545L521.13912,96.00121L522.56495,98.37747L523.27786,100.75374L529.69407,104.55577L532.30809,106.93204
				L533.49627,108.12017L534.9221,110.49644L534.68446,110.97169L534.9221,112.87271L536.11029,113.58559L536.11029,115.01135L535.63501,116.91236
				L536.34792,117.62524L537.53611,117.62524L538.96194,119.28863L539.91249,119.28863L540.38776,120.00151L540.38776,121.18964
				L540.15012,121.90252L540.15012,123.56591L541.10067,124.75404L541.57595,126.65506L544.90288,126.89268L546.09106,126.41743
				L547.27925,125.70455L548.70508,124.99167L549.41799,124.75404L550.1309,125.2293L550.84381,126.1798L551.55673,128.08082L552.032,129.26895
				L553.22019,129.7442L553.69546,130.45708L553.45783,132.83335L554.17074,133.54623L555.12129,134.02149L555.8342,134.25911L557.02239,135.44725
				L558.44822,136.16013L559.87404,136.87301L560.82459,138.06114L562.72569,139.01165L563.4386,140.91266L562.96333,143.28893L
				563.67624,145.42757L564.62679,147.09096L566.05262,149.46722L568.90427,152.794L570.80537,155.17027L572.23119,157.54653L573.65702,160.16043
				L576.27103,163.72483L578.64741,165.86347L581.26142,169.19024L584.35071,172.27939L585.53889,172.75465L587.20236,172.51702
				L591.00456,171.09126L592.43038,170.616L591.95511,173.2299L591.00456,175.60617L590.76692,178.45769L591.00456,180.3587L586.48944,179.88345
				L583.16252,180.83396L581.49906,179.88345L578.88504,180.83396L575.32048,183.68548L574.36993,185.82412L573.18174,187.01225
				L568.42899,186.06174L565.3397,187.4875L563.4386,189.62614L562.25042,191.76479L561.06223,194.14105L557.26003,195.56681L553.22019,197.2302
				L552.50728,199.84409L552.98255,203.17087L554.64601,206.02239L555.8342,209.11154L556.30948,213.15119L557.26003,217.19085L
				558.21058,219.32949L560.11168,223.13152L557.49767,223.36914L553.22019,223.8444L549.41799,223.13152L547.27925,221.94338L543.95233,221.46813
				L540.38776,221.70576L533.73391,222.65626L531.35754,223.13152L529.45644,224.31965L526.60479,223.36914L525.89187,222.89389
				L521.85203,224.55728L521.13912,224.55728L518.52511,224.7949L516.38637,226.93354L515.19818,228.12168L511.87126,227.64642L
				509.49488,227.17117L507.59378,225.50778L505.93032,224.55728L504.50449,224.31965L503.07867,224.31965L500.46466,225.74541L
				497.85064,226.45829L495.71191,226.93354L493.33553,227.88405L491.43443,229.54744L490.24624,231.44845L488.82042,233.34947L
				485.25585,235.25048L482.64184,237.38912L479.79019,237.15149L477.41381,235.48811L475.27508,235.96336L471.94815,237.38912L
				469.80941,238.57725L467.67068,239.52776L463.63084,238.57725L460.77919,239.52776L457.6899,239.76539L454.60061,240.24064L451.9866,240.00302
				L449.37259,239.52776L445.80802,239.52776L442.4811,237.62675L439.62945,235.01285L437.01543,232.87421L432.50032,233.11184L
				430.12394,232.87421L429.41103,235.01285L429.17339,238.81488L428.22284,241.90403L426.32174,244.51792L422.99482,250.22097L
				420.14317,254.9735L419.43026,257.82502L418.95498,264.24094L418.47971,267.09246L417.52916,272.08263L417.52916,274.45889L419.19262,277.54804
				L418.24207,279.68668L416.10333,281.35007L413.25168,281.82532L411.11294,283.01346L409.92475,284.43922L409.44948,288.24124
				L408.9742,289.66701L406.83547,291.56802L402.79563,294.41954L398.51815,297.27106L395.6665,299.17208L393.52776,301.78597L390.91375,304.63749
				L388.77501,307.01376L388.29974,308.67715L389.48793,311.76629L391.38903,314.61781L390.43848,316.75645L393.05249,319.13272
				L394.95359,320.55848L394.95359,322.22187L394.71595,323.64763L394.00304,324.83576L392.57721,324.83576L391.15139,325.78627
				L389.25029,326.9744L386.39864,329.11305L382.3588,327.68728L375.70495,324.36051L373.09094,320.32086L370.9522,317.70696L367.86291,319.60798
				L362.15961,324.12288L357.6445,327.92491L352.17883,331.48931L355.03048,335.29134L358.35741,340.99438L361.20906,344.32116L
				359.07032,345.50929L358.11977,348.12319L358.35741,350.26183L357.88213,352.63809L356.45631,355.72724L356.93158,358.57876L
				356.69395,361.19266L355.26812,363.3313L353.84229,364.2818L344.33679,365.70756L339.10877,366.18282L336.49475,369.03434L335.30657,370.4601
				L333.16783,372.59874L331.02909,375.21263L328.17744,378.77704L325.32579,381.86618L322.2365,385.90584"/>
		</g>
	</g>
</svg>
