<?xml version="1.0" encoding="utf-8" standalone="no"?>
<!-- Creator: Esri ArcMap 10.8.0.12790 -->
<!DOCTYPE svg PUBLIC "-//W3C//DTD SVG 1.1//EN"  "http://www.w3.org/Graphics/SVG/1.1/DTD/svg11.dtd">
<svg width="774.73701pt" height="404.24882pt" viewBox="0 0 774.73701 404.24882" enable-background="new 0 0 774.73701 404.24882"
	version="1.1" xmlns="http://www.w3.org/2000/svg" xmlns:xlink="http://www.w3.org/1999/xlink" >
	<g id="Layers">
		<g id="Béka">
			<clipPath id="SVG_CP_1">
				<path d="M0,404.24882L0,0L774.73701,0L774.73701,404.24882L0,404.24882z"/>
			</clipPath>
			<path clip-path="url(#SVG_CP_1)" fill="none" stroke="#000000" stroke-width="0.47528" stroke-miterlimit="10" stroke-linecap="round" stroke-linejoin="round" d="
				M483.59239,192.47767L482.64184,196.75495L477.41381,206.49764L467.1954,212.20069L460.77919,221.94338L460.54155,226.45829L
				463.15556,231.92371L465.05666,242.37928L464.81903,246.18131L462.44265,249.27046L458.16517,250.22097L444.14456,249.03283L
				440.81763,251.4091L437.49071,261.1518L434.40142,271.60737L431.31213,272.79551L426.79702,273.50839L422.75718,281.11244L421.33136,285.86498
				L418.95498,287.76599L416.10333,287.52836L413.01404,285.86498L397.32996,280.87482L393.7654,280.16194L389.01265,282.06295L
				384.97281,282.77583L383.07171,285.1521L380.69534,289.66701L374.51676,290.37989L364.06071,290.14226L352.89174,290.14226L345.52498,289.90463
				L340.77223,290.61751L336.97003,292.2809L335.5442,294.41954L333.88074,299.4097L331.97964,309.62765L331.02909,313.66731L333.16783,315.56832
				L332.69255,317.94459L332.21728,320.08323L331.02909,321.27136L328.65272,322.69712L328.89035,324.83576L328.65272,326.26152
				L326.51398,326.9744L317.00848,329.5883L306.55242,331.25169L302.51259,332.20219L300.13621,333.1527L297.04692,334.10321L296.57165,335.52897
				L297.5222,337.90523L298.94802,339.09337L300.13621,340.51913L299.89857,342.18252L297.75984,343.37065L296.57165,344.79641L
				295.6211,348.59844L293.72,352.16284L290.39307,355.48961L289.68016,357.86588L290.63071,359.52927L288.49197,361.19266L288.0167,363.56892
				L285.40268,365.70756L285.40268,367.37095L285.16505,370.69773L285.16505,373.54925L283.73922,375.92551L283.73922,378.30178
				L283.02631,379.72754L281.60048,380.67805L281.12521,380.67805L280.88757,381.39093L280.4123,382.34144L278.98647,383.29194L
				278.27356,384.7177L277.56065,384.7177L277.32301,384.95533L277.32301,385.19296L277.08537,384.95533L276.37246,384.95533L276.13482,385.19296
				L275.42191,384.7177L274.47136,384.95533L273.99608,385.43058L273.99608,385.90584L273.75844,385.90584L273.28317,385.66821L
				272.57026,385.66821L271.85734,385.66821L271.38207,385.90584L270.90679,385.66821L270.66916,385.43058L268.29278,371.64823L
				267.34223,320.08323L266.62932,313.66731L266.86696,313.19205L267.10459,312.47917L267.10459,312.24155L267.57987,310.57816L
				267.81751,310.10291L267.81751,309.62765L268.05514,309.39003L268.29278,308.43952L268.29278,307.96426L268.53042,307.96426L
				268.53042,307.72664L268.53042,307.48901L268.53042,307.01376L268.76806,306.5385L268.76806,306.30088L268.76806,306.06325L269.00569,306.06325
				L269.00569,305.82562L269.24333,305.82562L269.24333,305.588L269.24333,305.35037L269.48097,305.35037L269.48097,305.11274L269.48097,304.87512
				L269.71861,304.87512L269.71861,304.63749L269.71861,304.39986L269.71861,304.16224L269.48097,304.16224L269.48097,303.92461
				L269.48097,303.68698L269.71861,303.44936L269.71861,303.21173L269.71861,302.9741L269.95624,302.9741L269.95624,303.21173L269.95624,302.9741
				L270.19388,302.9741L270.19388,302.73648L270.19388,302.49885L270.43152,302.49885L270.66916,302.49885L270.43152,302.49885L
				270.66916,302.49885L270.66916,302.26122L270.43152,302.0236L270.66916,302.0236L270.90679,302.0236L270.90679,301.78597L271.14443,301.78597
				L271.14443,301.54834L271.38207,301.54834L271.38207,301.78597L271.61971,301.78597L271.61971,301.54834L271.85734,301.54834
				L271.85734,301.31072L271.85734,301.07309L271.85734,300.83546L272.09498,300.83546L272.33262,300.83546L272.33262,300.59784
				L272.33262,300.36021L272.33262,300.12258L272.33262,299.88496L272.09498,299.88496L272.09498,299.64733L272.09498,299.4097L
				271.85734,299.4097L271.85734,299.17208L271.85734,298.93445L271.85734,298.69682L271.61971,298.45919L271.61971,298.22157L271.61971,297.98394
				L271.85734,297.98394L271.85734,297.74631L271.85734,297.50869L271.85734,297.27106L272.09498,297.27106L272.09498,297.03343
				L271.85734,296.79581L271.85734,296.55818L272.09498,296.55818L272.09498,296.32055L272.09498,296.08293L272.09498,295.8453L
				272.09498,295.60767L272.09498,295.37005L271.85734,295.13242L272.09498,295.13242L272.09498,294.89479L272.09498,294.65717L
				272.09498,294.41954L272.33262,294.41954L272.57026,294.41954L272.57026,294.18191L272.80789,294.18191L273.04553,294.18191L
				273.04553,293.94429L273.28317,293.94429L273.28317,293.70666L273.28317,293.46903L273.52081,293.46903L273.75844,293.46903L
				273.99608,293.46903L273.99608,293.23141L274.23372,293.23141L273.99608,293.23141L273.99608,292.99378L274.23372,292.99378L
				274.23372,292.75615L274.47136,292.75615L274.70899,292.75615L274.70899,292.51853L274.70899,292.75615L274.94663,292.75615L
				275.18427,292.75615L275.18427,292.99378L275.42191,292.99378L275.65954,292.99378L275.65954,292.75615L275.89718,292.75615L
				276.13482,292.75615L276.37246,292.75615L276.61009,292.75615L276.61009,292.99378L276.84773,292.99378L276.84773,293.23141L
				277.08537,293.23141L277.32301,292.99378L277.56065,292.99378L277.56065,293.23141L277.79828,293.23141L278.03592,293.23141L
				278.03592,293.46903L278.03592,293.23141L278.27356,293.23141L278.27356,292.99378L278.5112,292.99378L278.74883,292.99378L278.74883,293.23141
				L278.98647,293.23141L278.98647,292.99378L279.22411,292.99378L279.46175,292.99378L279.46175,293.23141L279.69938,293.23141
				L279.93702,293.23141L280.17466,293.23141L280.17466,293.46903L280.4123,293.46903L280.4123,293.70666L280.64993,293.70666L280.64993,293.94429
				L280.88757,294.18191L281.12521,294.18191L281.36285,294.18191L281.60048,294.18191L281.83812,294.18191L282.07576,294.18191
				L282.07576,293.94429L282.3134,293.94429L282.3134,293.70666L282.55103,293.70666L282.78867,293.70666L283.02631,293.70666L283.26395,293.70666
				L283.50158,293.70666L283.73922,293.70666L283.73922,293.94429L283.97686,293.94429L284.2145,293.94429L284.45213,293.94429L
				284.45213,294.18191L284.68977,294.18191L284.92741,294.18191L284.92741,294.41954L285.16505,294.41954L285.16505,294.65717L
				285.40268,294.65717L285.64032,294.65717L285.64032,294.41954L285.87796,294.41954L285.87796,294.65717L285.87796,294.41954L
				286.1156,294.41954L286.1156,294.65717L286.35323,294.65717L286.35323,294.89479L286.59087,294.89479L286.59087,295.13242L286.59087,295.37005
				L286.59087,295.60767L286.59087,295.8453L286.59087,296.08293L286.82851,296.08293L286.82851,296.32055L287.06615,296.55818L
				287.06615,296.79581L287.30378,296.79581L287.54142,296.79581L287.54142,297.03343L287.30378,297.27106L287.30378,297.50869L
				287.54142,297.50869L287.77906,297.74631L287.54142,297.74631L287.54142,297.98394L287.54142,298.22157L287.77906,298.22157L
				287.77906,298.45919L287.77906,298.69682L288.0167,298.69682L288.25433,298.93445L288.49197,298.93445L288.49197,299.17208L288.49197,299.4097
				L288.72961,299.4097L288.96725,299.64733L288.96725,299.4097L289.20488,299.4097L289.20488,299.64733L289.20488,299.88496L289.44252,300.12258
				L289.68016,300.12258L289.9178,300.12258L290.15543,300.36021L290.39307,300.36021L290.63071,300.36021L290.63071,300.12258L
				290.86835,300.12258L291.10598,300.12258L291.34362,300.12258L291.34362,299.88496L291.58126,299.88496L291.58126,299.64733L
				291.8189,299.64733L292.05653,299.64733L292.05653,299.4097L292.29417,299.4097L292.29417,299.64733L292.53181,299.64733L292.53181,299.4097
				L292.76945,299.4097L293.00709,299.64733L293.00709,299.88496L293.24472,299.64733L293.48236,299.64733L293.72,299.64733L293.95764,299.4097
				L294.19527,299.4097L294.43291,299.4097L294.67055,299.4097L294.90819,299.4097L294.90819,299.17208L295.14582,299.17208L295.14582,298.93445
				L295.14582,299.17208L295.38346,299.17208L295.6211,299.17208L295.85874,299.17208L296.09637,299.17208L296.33401,299.17208L
				296.57165,298.93445L296.80929,298.69682L297.04692,298.69682L297.04692,298.45919L297.28456,298.45919L297.5222,298.45919L297.75984,298.45919
				L297.99747,298.45919L297.99747,298.69682L298.23511,298.69682L298.23511,298.93445L298.47275,298.93445L298.71039,298.69682
				L298.94802,298.69682L299.18566,298.69682L299.4233,297.98394L299.4233,297.74631L298.94802,297.03343L298.71039,296.32055L298.23511,295.8453
				L297.75984,293.94429L297.04692,292.75615L297.04692,292.04327L297.75984,291.33039L297.99747,291.09277L298.71039,290.37989
				L299.4233,289.66701L299.89857,289.19175L300.13621,288.47887L301.08676,289.19175L302.03731,289.42938L302.27495,289.19175L
				302.27495,288.95412L302.27495,288.47887L302.27495,288.24124L302.51259,288.00362L302.51259,287.76599L302.75022,287.52836L
				303.46314,286.81548L303.70077,286.81548L303.93841,286.81548L304.17605,286.81548L304.65132,286.81548L304.88896,286.81548L
				304.88896,286.57786L304.88896,286.34023L305.1266,286.1026L305.83951,285.86498L306.07715,285.62735L306.79006,285.62735L307.0277,285.38972
				L307.26534,285.1521L307.50297,284.67684L308.21589,284.20159L308.69116,283.96396L309.16644,283.48871L309.87935,283.01346L
				310.11699,282.77583L310.35463,282.30058L310.8299,281.82532L311.54281,281.35007L312.731,280.63719L312.96864,280.39956L313.44391,280.39956
				L314.15683,280.39956L314.6321,280.63719L315.58265,281.35007L317.00848,281.82532L317.48375,282.30058L318.19666,282.77583L
				318.19666,281.35007L318.19666,280.63719L317.95903,279.68668L317.95903,279.44906L318.19666,278.9738L318.4343,278.73617L320.57304,277.54804
				L320.81068,277.31041L321.04831,277.31041L321.76123,277.78567L322.47414,277.78567L323.42469,277.78567L323.66233,277.31041
				L323.42469,276.59753L322.94941,276.12228L322.71178,275.88465L322.47414,275.4094L322.2365,274.69652L321.99886,274.22127L321.99886,273.98364
				L322.71178,273.27076L323.42469,272.55788L324.1376,272.32025L325.56343,272.32025L327.46453,272.55788L329.36563,273.27076L
				330.31618,273.03313L331.50437,272.08263L333.88074,270.41924L334.83129,269.94399L335.78184,269.46873L336.01948,268.75585L
				336.25712,267.56772L336.25712,266.61721L336.73239,265.42908L338.63349,264.00332L341.00987,262.33993L340.77223,261.86468L
				340.77223,261.62705L340.77223,261.38942L340.77223,260.91417L340.77223,260.67654L340.77223,260.43892L340.77223,260.20129L
				340.77223,259.96366L340.77223,259.72604L340.53459,259.72604L340.53459,259.48841L340.53459,259.25078L340.53459,259.01315L
				340.53459,258.77553L340.29696,258.5379L340.29696,258.30027L340.29696,258.06265L340.29696,257.82502L340.05932,257.58739L340.05932,257.34977
				L339.82168,257.34977L339.82168,257.11214L339.58404,256.87451L339.3464,256.87451L339.3464,256.63689L339.3464,256.39926L339.10877,256.16163
				L339.10877,255.92401L339.3464,255.68638L339.10877,255.44875L339.10877,255.21113L338.87113,254.9735L338.63349,254.73587L338.63349,254.49825
				L338.63349,254.26062L338.39585,254.26062L338.15822,254.26062L338.15822,254.02299L337.92058,254.02299L337.68294,254.02299
				L337.4453,254.02299L337.4453,253.78537L337.20767,253.78537L336.97003,253.54774L336.73239,253.54774L336.73239,253.31011L336.73239,253.07249
				L336.73239,252.83486L336.49475,252.83486L336.01948,251.88435L335.5442,249.50808L335.5442,249.03283L335.5442,248.55758L335.30657,248.55758
				L335.30657,248.31995L335.30657,248.08232L335.5442,248.08232L335.5442,247.8447L335.5442,247.60707L335.30657,247.60707L335.30657,247.36944
				L335.06893,247.36944L335.30657,247.36944L335.30657,247.13182L335.06893,247.13182L335.30657,246.89419L335.30657,246.65656
				L335.30657,246.41894L335.30657,246.18131L335.30657,245.94368L335.30657,245.70606L335.30657,245.46843L335.5442,245.46843L
				335.5442,245.2308L335.5442,244.99318L335.5442,244.75555L335.5442,244.51792L335.78184,244.51792L335.78184,244.2803L335.78184,244.04267
				L335.78184,243.80504L335.78184,243.56742L335.78184,243.32979L335.78184,243.09216L335.78184,242.85454L336.01948,242.85454
				L336.01948,242.61691L336.01948,242.37928L336.01948,242.14166L335.78184,242.14166L335.78184,241.90403L335.78184,241.6664L
				335.78184,241.42878L335.78184,241.19115L335.5442,241.19115L335.78184,240.95352L335.5442,240.7159L335.78184,240.7159L335.78184,240.47827
				L335.78184,240.24064L335.78184,240.00302L335.78184,239.76539L335.5442,239.76539L335.30657,239.76539L335.30657,239.52776L
				335.06893,239.52776L335.06893,239.29013L334.83129,239.29013L334.83129,239.05251L334.59365,239.05251L334.59365,239.29013L
				334.35602,239.29013L334.35602,239.05251L334.11838,239.05251L334.11838,239.29013L334.11838,239.05251L334.11838,238.81488L
				333.88074,238.81488L334.11838,238.81488L333.88074,238.81488L333.88074,238.57725L333.6431,238.57725L333.6431,238.33963L333.6431,238.102
				L333.40547,238.102L333.40547,237.86437L333.40547,237.62675L333.16783,237.62675L332.93019,237.62675L332.93019,237.38912L332.69255,237.38912
				L332.69255,237.62675L332.45492,237.38912L332.45492,237.15149L332.45492,236.91387L332.45492,236.67624L332.21728,236.67624
				L332.45492,236.67624L332.45492,236.43861L332.21728,236.43861L332.21728,236.20099L331.97964,236.20099L331.742,236.20099L331.742,235.96336
				L331.742,235.72573L331.742,235.48811L331.50437,235.72573L331.50437,235.48811L331.26673,235.48811L331.26673,235.25048L331.02909,235.25048
				L331.02909,235.01285L331.02909,234.77523L330.79145,234.77523L330.79145,234.5376L330.79145,234.29997L330.79145,234.06235L
				330.55382,234.06235L330.55382,233.82472L330.55382,234.06235L330.79145,234.06235L331.02909,234.06235L331.26673,234.06235L
				331.50437,234.06235L331.50437,233.82472L331.742,233.82472L331.742,234.06235L331.97964,234.06235L331.97964,234.29997L332.21728,234.29997
				L332.45492,234.29997L332.45492,234.5376L332.45492,234.29997L332.45492,234.5376L332.69255,234.29997L332.69255,234.5376L332.93019,234.5376
				L333.16783,234.5376L333.40547,234.5376L333.6431,234.5376L333.6431,234.29997L333.88074,234.29997L334.11838,234.29997L334.35602,234.29997
				L334.59365,234.29997L334.59365,234.5376L334.83129,234.5376L335.06893,234.5376L335.06893,234.77523L335.30657,234.77523L335.5442,234.77523
				L335.5442,234.5376L335.78184,234.5376L336.01948,234.5376L336.25712,234.29997L336.49475,234.29997L336.73239,234.29997L336.97003,234.29997
				L337.20767,234.06235L337.4453,234.06235L337.68294,233.82472L337.92058,233.82472L338.15822,233.82472L338.39585,233.82472L
				338.39585,233.58709L338.39585,233.34947L338.63349,233.34947L338.63349,233.58709L338.87113,233.58709L339.10877,233.58709L
				339.3464,233.58709L339.58404,233.58709L339.82168,233.58709L340.05932,233.58709L340.29696,233.58709L340.53459,233.58709L340.77223,233.58709
				L341.00987,233.58709L341.00987,233.34947L341.00987,233.58709L341.24751,233.58709L341.48514,233.58709L341.72278,233.34947
				L341.96042,233.34947L342.19806,233.34947L342.19806,233.11184L342.43569,232.87421L342.43569,232.63659L342.67333,232.39896
				L342.91097,232.39896L342.91097,232.16133L342.91097,231.92371L342.91097,231.68608L342.91097,231.44845L343.14861,231.44845
				L343.38624,231.44845L343.38624,231.21083L343.62388,230.9732L343.62388,230.73557L343.86152,230.73557L343.86152,230.49795L
				344.09916,230.49795L344.33679,230.49795L344.57443,230.49795L344.81207,230.49795L344.81207,230.26032L345.04971,230.26032L
				345.28734,230.26032L345.52498,230.26032L345.76262,230.26032L346.00026,230.02269L346.23789,230.02269L346.47553,230.02269L
				349.80246,226.22066L350.27773,226.45829L350.75301,226.69592L351.22828,226.69592L351.70356,226.45829L352.65411,226.45829L
				353.36702,226.45829L353.84229,226.45829L354.31757,226.45829L355.03048,226.45829L355.26812,226.69592L355.7434,226.69592L356.21867,226.69592
				L356.69395,226.93354L357.16922,227.4088L358.11977,228.12168L358.83268,228.3593L359.07032,228.59693L359.30796,229.07218L359.78323,229.30981
				L360.73378,229.78506L361.20906,230.02269L362.39725,230.26032L363.82307,230.49795L364.53598,230.26032L365.48653,230.02269
				L366.43708,230.26032L367.86291,230.9732L368.81346,231.92371L369.0511,231.92371L370.00165,233.34947L370.23928,233.58709L370.9522,233.58709
				L374.51676,232.39896L379.74479,236.20099L387.34919,233.34947L390.43848,232.39896L390.20084,231.92371L390.67611,230.9732L
				390.67611,229.78506L390.91375,229.07218L391.62666,228.12168L392.33958,227.4088L393.05249,226.93354L393.52776,226.93354L394.47831,227.4088
				L396.61705,228.12168L397.09233,228.3593L398.04288,228.3593L398.99343,228.12168L399.4687,227.88405L399.70634,227.4088L399.70634,226.22066
				L399.4687,225.74541L399.4687,225.03253L399.94398,224.08202L400.41925,224.08202L400.65689,224.08202L400.65689,224.31965L400.89453,224.55728
				L401.60744,224.7949L402.32035,225.03253L402.79563,225.03253L403.2709,224.7949L404.22145,224.31965L404.69673,224.31965L405.172,224.08202
				L405.40964,223.8444L405.64728,223.36914L405.88492,223.13152L406.12255,222.89389L406.36019,222.65626L406.59783,222.89389L
				406.83547,222.89389L407.31074,223.13152L408.02365,223.13152L409.21184,223.13152L409.92475,223.36914L410.8753,223.60677L411.58822,224.31965
				L413.01404,224.7949L413.96459,224.55728L414.6775,223.8444L415.39042,223.60677L416.81624,222.65626L417.76679,221.70576L418.00443,220.75525
				L418.24207,219.80474L418.71734,219.56711L419.19262,219.09186L419.66789,218.85423L420.14317,218.37898L420.61844,217.90373
				L421.33136,217.6661L421.56899,217.42847L422.28191,216.24034L421.09372,214.33933L421.33136,213.62645L421.80663,213.62645L
				422.28191,212.91357L422.99482,211.72543L422.99482,210.06204L423.70773,208.39866L424.89592,206.9729L425.84647,206.02239L425.60883,205.30951
				L425.37119,205.07188L424.89592,204.359L424.89592,204.12138L424.89592,203.17087L424.42064,202.93324L424.42064,202.45799L423.47009,200.31935
				L423.94537,199.13121L425.13356,197.46783L425.84647,196.99257L426.08411,194.85393L425.37119,194.37868L424.89592,193.6658L
				425.37119,193.19055L425.84647,192.95292L426.55938,192.47767L427.27229,192.24004L427.27229,191.52716L427.03466,191.28953L
				426.55938,190.33902L427.03466,189.86377L427.27229,189.62614L427.74757,189.15089L427.98521,187.24988L428.22284,186.77462L
				428.69812,185.82412L429.17339,185.11124L429.64867,185.11124L429.88631,185.11124L430.59922,185.11124L431.07449,185.11124L
				431.78741,185.58649L432.73796,185.58649L432.9756,185.58649L433.21323,185.82412L433.68851,186.29937L434.16378,186.537L434.8767,186.77462
				L435.11433,186.537L435.35197,186.29937L436.30252,185.58649L437.01543,185.58649L437.25307,185.82412L438.6789,185.58649L438.91653,185.58649
				L439.39181,185.58649L440.34236,185.58649L441.29291,185.82412L442.24346,185.82412L442.4811,186.06174L442.71873,186.06174L
				442.95637,187.01225L443.19401,188.43801L443.90692,188.91326L444.14456,189.15089L445.33275,189.86377L445.33275,190.1014L446.75857,189.86377
				L448.1844,190.57665L449.37259,191.52716L449.61022,192.00241L450.0855,191.76479L450.32314,191.52716L450.79841,191.28953L451.03605,190.81428
				L451.03605,190.1014L451.27369,188.91326L451.9866,187.96276L452.69951,187.01225L453.17479,185.34886L453.17479,184.39836L453.17479,183.9231
				L452.93715,182.49734L453.41242,179.64582L454.60061,177.03193L455.07589,176.55667L456.02644,175.84379L457.45226,175.13091
				L458.16517,174.41803L459.82864,172.99227L460.30391,172.27939L460.30391,171.56651L459.82864,170.37838L459.35336,168.95262
				L459.35336,168.47736L459.82864,167.0516L459.591,166.1011L459.82864,165.62584L461.01682,165.15059L461.25446,164.67534L461.4921,164.20008
				L461.96737,163.72483L461.96737,163.4872L462.20501,163.01195L462.44265,162.77432L462.68029,162.5367L462.68029,162.29907L462.68029,161.82382
				L462.68029,161.58619L462.68029,161.11094L462.44265,160.63568L461.96737,160.39805L460.77919,160.16043L460.54155,159.9228L
				459.591,159.68517L459.11572,158.97229L458.87809,158.73467L458.64045,158.25941L458.40281,158.02179L457.92754,157.54653L457.6899,157.07128
				L457.6899,156.12077L457.21462,155.17027L457.21462,154.93264L456.73935,154.45739L456.26407,154.21976L456.26407,153.26925L
				456.50171,153.03163L456.97699,152.55637L457.21462,152.31875L457.45226,151.60587L457.45226,151.36824L457.92754,151.13061L
				458.87809,150.65536L459.82864,149.70485L460.06627,148.51672L460.30391,148.27909L460.54155,147.56621L460.30391,147.09096L
				459.591,146.6157L459.11572,146.37808L458.64045,146.14045L458.64045,145.90282L458.87809,144.95232L458.40281,143.76418L458.87809,142.33842
				L459.11572,142.1008L460.06627,142.33842L460.77919,142.33842L461.01682,142.33842L461.01682,141.86317L461.01682,141.15029L
				461.25446,140.91266L461.4921,140.91266L461.96737,140.91266L462.20501,140.91266L462.44265,140.91266L462.68029,140.43741L462.68029,139.96215
				L462.44265,139.24927L462.44265,138.77402L462.44265,138.29877L462.20501,137.82351L461.25446,137.34826L460.06627,137.11063
				L459.82864,136.39775L459.82864,135.20962L459.35336,134.73437L458.64045,133.07098L458.64045,132.83335L458.64045,132.3581L
				458.64045,131.88285L458.87809,131.16996L459.82864,130.69471L460.54155,130.69471L461.25446,130.45708L463.63084,117.14999L
				464.10611,114.06084L476.22563,92.19918L485.73113,76.51581L485.73113,76.27819L485.96877,76.27819L485.96877,76.04056L486.2064,75.80293
				L485.96877,75.56531L485.96877,75.32768L486.2064,75.32768L486.2064,75.09005L486.44404,75.09005L486.68168,74.85243L486.91932,74.85243
				L486.91932,74.6148L487.15695,74.6148L487.15695,74.85243L487.39459,74.85243L487.39459,74.6148L487.63223,74.37717L487.63223,73.90192
				L487.63223,73.66429L487.63223,73.42667L487.63223,73.18904L487.39459,73.18904L487.39459,72.95141L487.15695,72.71379L487.15695,72.47616
				L487.39459,72.23853"/>
			<path clip-path="url(#SVG_CP_1)" fill="none" stroke="#000000" stroke-width="0.47528" stroke-miterlimit="10" stroke-linecap="round" stroke-linejoin="round" d="
				M487.39459,72.23853L487.39459,72.0009L487.39459,71.76328L487.39459,71.52565L487.39459,71.28802L487.39459,71.0504L487.15695,70.81277
				L486.91932,70.57514L486.68168,70.33752L486.44404,70.33752L486.44404,70.09989L486.2064,70.09989L486.44404,69.86226L486.44404,69.62464
				L486.68168,69.38701L486.68168,69.14938L486.91932,68.91176L486.91932,68.67413L487.15695,68.67413L487.39459,68.4365L487.63223,68.4365
				L487.63223,68.19888L487.63223,67.96125L487.86987,67.72362L487.86987,67.486L487.86987,67.01074L488.1075,66.77312L488.34514,66.53549
				L488.58278,66.29786L489.05805,66.29786L489.29569,66.29786L489.77097,66.29786L490.0086,66.06024L490.24624,65.82261L490.48388,65.82261
				L490.48388,65.58498L490.72152,65.58498L490.72152,65.34736L490.72152,65.10973L490.72152,64.8721L490.72152,64.63448L490.48388,64.63448
				L490.48388,64.39685L490.24624,64.15922L490.24624,63.9216L490.0086,63.9216L489.77097,63.9216L489.77097,63.68397L489.53333,63.44634
				L489.53333,63.20872L489.29569,63.20872L489.29569,62.97109L489.29569,62.73346L489.05805,62.73346L489.29569,62.49583L489.05805,62.49583
				L489.29569,62.49583L489.29569,62.25821L489.05805,62.25821L489.05805,62.02058L488.82042,62.02058L488.58278,62.02058L488.58278,61.78295
				L488.34514,61.78295L488.1075,61.54533L488.1075,61.3077L487.86987,61.3077L487.86987,61.07007L487.86987,60.83245L487.86987,60.59482
				L488.1075,60.59482L488.34514,60.35719L488.58278,60.35719L488.82042,60.35719L488.82042,60.11957L489.05805,60.11957L489.05805,59.88194
				L489.29569,59.88194L489.29569,59.64431L489.29569,59.40669L489.29569,59.16906L489.53333,59.16906L489.53333,58.93143L489.53333,58.69381
				L489.53333,58.45618L489.29569,58.45618L489.29569,58.21855L489.29569,57.98093L489.05805,57.98093L488.82042,57.7433L488.58278,57.7433
				L488.34514,57.50567L488.1075,57.50567L487.86987,57.26805L487.86987,57.03042L487.63223,56.79279L487.63223,56.55517L487.63223,56.31754
				L487.63223,56.07991L487.63223,55.84229L487.63223,55.60466L487.63223,55.36703L487.39459,55.36703L487.39459,55.12941L487.15695,55.12941
				L487.15695,54.89178L486.91932,54.89178L486.68168,54.89178L486.68168,54.65415L486.44404,54.65415L486.2064,54.65415L485.96877,54.65415
				L485.73113,54.65415L485.49349,54.65415L485.49349,54.41653L485.25585,54.41653L485.25585,54.1789L485.25585,53.94127L485.01822,53.94127
				L485.01822,53.70365L485.25585,53.70365L485.25585,53.46602L485.25585,53.22839L485.49349,53.22839L485.49349,52.99077L485.73113,52.75314
				L485.73113,52.51551L485.96877,52.51551L485.96877,52.27788L485.96877,52.04026L486.2064,52.04026L486.2064,51.80263L486.2064,51.565
				L485.96877,51.565L485.96877,51.32738L485.96877,51.08975L485.73113,50.85212L485.73113,50.6145L485.73113,50.37687L485.73113,50.13924
				L485.73113,49.90162L485.73113,49.66399L485.73113,49.42636L485.96877,49.18874L485.96877,48.95111L486.2064,48.95111L486.2064,48.71348
				L486.44404,48.71348L486.2064,48.71348L486.44404,48.71348L486.68168,48.71348L486.68168,48.47586L486.91932,48.47586L486.91932,48.23823
				L487.15695,48.23823L487.39459,48.23823L487.63223,48.23823L487.86987,48.23823L488.1075,48.23823L488.34514,48.23823L488.34514,48.0006
				L488.34514,47.76298L488.34514,47.52535L488.1075,47.52535L487.86987,47.28772L487.63223,47.28772L487.63223,47.0501L487.63223,46.81247
				L487.63223,46.57484L487.63223,46.33722L487.86987,46.09959L487.86987,45.86196L488.1075,45.86196L488.1075,45.62434L488.1075,45.38671
				L488.1075,45.14908L488.1075,44.91146L487.86987,44.67383L487.86987,44.4362L487.63223,44.4362L487.39459,44.4362L487.15695,44.19858
				L486.91932,44.19858L486.68168,43.96095L486.44404,43.96095L486.44404,43.72332L486.44404,43.4857L486.44404,43.24807L486.68168,42.77281
				L486.91932,42.53519L487.15695,42.53519L487.15695,42.29756L487.39459,42.29756L487.63223,42.29756L488.1075,42.05993L488.34514,42.05993
				L488.34514,41.82231L488.58278,41.82231L488.58278,41.58468L488.34514,41.58468L488.34514,41.34705L488.1075,41.10943L488.1075,40.8718
				L487.86987,40.8718L487.86987,40.63417L487.86987,40.39655L487.86987,39.92129L487.86987,39.68367L488.1075,39.44604L488.1075,39.20841
				L488.34514,39.20841L488.34514,38.97079L488.58278,38.97079L488.82042,38.97079L489.05805,38.73316L489.29569,38.49553L489.53333,38.49553
				L489.77097,38.25791L490.0086,38.25791L490.0086,38.02028L490.24624,38.02028L490.24624,37.78265L490.24624,37.54503L490.24624,37.3074
				L490.24624,37.06977L490.24624,36.59452L490.24624,36.35689L490.24624,36.11927L490.24624,35.88164L490.48388,35.88164L490.48388,35.64401
				L490.72152,35.40639L490.95915,35.40639L491.19679,35.16876L491.19679,34.93113L491.19679,34.69351L491.19679,34.45588L491.19679,34.21825
				L491.19679,33.98063L490.95915,33.98063L490.72152,33.98063L490.48388,33.743L490.24624,33.743L490.24624,33.50537L490.24624,33.26775
				L490.24624,33.03012L490.24624,32.79249L490.48388,32.79249L490.48388,32.55486L490.72152,32.55486L490.72152,32.31724L490.72152,32.07961
				L490.72152,31.84198L490.72152,31.60436L490.48388,31.36673L490.48388,31.1291L490.48388,30.89148L490.48388,30.41622L490.48388,29.94097
				L490.48388,29.46572L490.72152,29.22809L490.72152,28.99046L490.95915,28.99046L490.95915,28.75284L491.19679,28.75284L491.43443,28.75284
				L491.67207,28.75284L491.67207,28.99046L491.9097,28.75284L492.14734,28.75284L492.38498,28.75284L492.62262,28.27758L492.86025,28.03996
				L492.86025,27.5647L492.62262,27.5647L492.62262,27.08945L492.86025,26.85182L492.86025,26.37657L493.33553,26.13894L494.04844,25.66369
				L494.28608,25.18844L494.52372,24.71318L494.52372,24.23793L494.52372,23.76268L494.52372,23.28742L494.76135,23.04979L494.76135,22.81217
				L495.23663,22.57454L495.94954,20.91115L496.18718,19.96065L496.42482,19.72302L496.42482,19.01014L496.18718,18.53489L497.61301,19.96065
				L498.08828,22.81217L497.85064,24.95081L497.61301,27.08945L497.13773,28.51521L496.42482,29.22809L496.18718,29.70334L496.42482,31.1291
				L496.66246,32.31724L496.66246,33.50537L496.42482,34.93113L495.71191,36.59452L495.71191,37.78265L495.94954,39.44604L496.18718,40.8718
				L496.18718,42.77281L495.94954,44.67383L495.47427,45.38671L495.23663,46.09959L495.47427,46.57484L495.94954,46.81247L495.94954,47.52535
				L495.71191,48.47586L495.94954,49.18874L495.71191,49.66399L495.71191,50.6145L495.94954,51.565L496.66246,52.27788L497.37537,52.75314
				L498.08828,52.99077L499.27647,52.75314L499.98938,52.75314L500.46466,53.22839L500.46466,53.70365L500.22702,54.41653L499.98938,54.89178
				L499.98938,55.84229L500.70229,56.79279L501.41521,57.7433L501.65284,58.69381L501.89048,59.64431L501.89048,60.59482L501.41521,61.07007
				L500.70229,62.02058L500.46466,63.20872L500.70229,64.15922L502.12812,65.58498L503.31631,66.77312L504.50449,67.96125L505.21741,69.38701
				L505.93032,70.81277L506.16796,72.47616L506.64323,73.90192L506.88087,75.56531L507.59378,76.99107L508.06906,78.1792L508.30669,79.36733
				L507.83142,80.31784L506.88087,80.55547L506.64323,81.26835L506.40559,82.21886L505.93032,82.93174L505.69268,83.64462L505.93032,84.59512
				L505.69268,85.308L504.74213,86.02088L504.50449,86.49614L504.02922,88.63478L503.79158,90.29816L503.55394,91.96155L503.79158,94.57545
				L504.50449,96.47646L504.50449,97.90222L503.79158,99.80323L503.07867,100.99137L501.65284,102.89238L501.41521,103.60526L500.70229,104.55577
				L500.46466,104.55577L500.46466,105.03102L499.98938,105.98153L499.75174,106.93204L499.51411,107.88254L499.51411,109.07068
				L499.51411,110.02118L499.51411,111.20932L499.27647,112.39745L498.56356,113.34796L497.61301,114.77372L496.90009,115.96185
				L495.23663,117.38761L494.04844,118.33812L492.62262,120.00151L492.14734,121.42727L491.43443,122.85303L490.0086,124.99167L
				487.39459,128.08082L486.2064,129.03132L485.25585,130.93234L484.54294,133.07098L483.83003,134.97199L483.35475,136.39775L483.11712,138.29877
				L482.87948,139.72453L483.11712,142.57605L483.35475,144.71469L483.35475,146.6157L483.11712,147.80384L483.35475,152.31875L
				483.11712,153.98213L482.64184,155.64552L481.92893,157.30891L481.69129,158.73467L481.92893,159.44755L482.87948,161.34856L
				483.83003,162.77432L484.54294,163.72483L485.49349,164.91296L485.73113,166.57635L485.25585,167.76448L484.78058,169.42787L
				484.06767,170.85363L482.64184,172.51702L482.4042,173.70515L482.16657,175.13091L482.4042,176.31905L482.87948,178.22006L483.35475,179.40819
				L483.83003,180.59633L483.83003,182.02209L483.35475,182.49734L482.16657,186.29937L481.92893,187.4875L481.92893,188.91326L
				482.16657,189.86377L482.64184,190.57665L483.35475,192.00241L483.59239,192.47767"/>
		</g>
	</g>
</svg>
