<?xml version="1.0" encoding="utf-8" standalone="no"?>
<!-- Creator: Esri ArcMap 10.8.0.12790 -->
<!DOCTYPE svg PUBLIC "-//W3C//DTD SVG 1.1//EN"  "http://www.w3.org/Graphics/SVG/1.1/DTD/svg11.dtd">
<svg width="774.73701pt" height="404.24882pt" viewBox="0 0 774.73701 404.24882" enable-background="new 0 0 774.73701 404.24882"
	version="1.1" xmlns="http://www.w3.org/2000/svg" xmlns:xlink="http://www.w3.org/1999/xlink" >
	<g id="Layers">
		<g id="Dembo">
			<clipPath id="SVG_CP_1">
				<path d="M0,404.24882L0,0L774.73701,0L774.73701,404.24882L0,404.24882z"/>
			</clipPath>
			<path clip-path="url(#SVG_CP_1)" fill="none" stroke="#000000" stroke-width="0.47528" stroke-miterlimit="10" stroke-linecap="round" stroke-linejoin="round" d="
				M521.13912,322.4595L504.97977,326.9744L462.68029,339.331L414.6775,358.10351L393.52776,366.65807L370.23928,375.45026L346.00026,385.90584
				L345.04971,385.66821L341.96042,383.05432L341.24751,380.67805L337.68294,374.26213L334.83129,371.41061L332.45492,370.22247
				L330.55382,369.27197L328.41508,366.42044L324.1376,361.19266L319.38485,356.20249L313.68155,350.49945L304.41369,347.4103L297.99747,345.98454
				L289.9178,345.50929L281.36285,344.32116L279.22411,341.46964L277.79828,337.19235L272.57026,334.10321L268.05514,330.30118L
				263.77767,326.73678L262.11421,320.79611L256.88618,316.2812L252.13343,314.85544L247.85595,311.52867L244.76666,307.25138L247.38068,307.01376
				L249.51942,306.77613L250.94524,309.1524L252.84634,310.81579L256.64854,310.57816L259.73783,309.39003L263.30239,307.72664L
				270.90679,304.16224L275.65954,302.9741L278.5112,302.0236L281.36285,299.64733L283.02631,297.50869L287.06615,295.60767L288.49197,292.51853
				L288.72961,287.76599L287.30378,283.72634L287.06615,282.30058L290.15543,280.39956L291.34362,278.49855L293.72,277.31041L296.09637,277.78567
				L297.5222,278.73617L299.18566,278.73617L302.51259,277.31041L304.65132,274.93415L311.30518,269.94399L313.44391,266.61721L
				312.96864,263.05281L313.91919,261.1518L316.05793,259.48841L317.24611,257.58739L317.95903,252.35961L318.67194,250.22097L320.81068,246.65656
				L321.99886,244.04267L323.18705,240.47827L326.51398,239.29013L330.55382,238.57725L332.69255,237.15149L333.88074,234.5376L
				335.78184,233.11184L337.20767,230.26032L338.39585,226.45829L336.49475,223.60677L336.25712,221.2305L338.63349,218.61661L340.77223,215.05221
				L340.53459,212.67594L341.00987,211.25018L341.24751,208.39866L338.63349,207.9234L337.4453,206.02239L338.15822,204.359L340.29696,203.4085
				L344.09916,200.31935L345.52498,198.41833L346.23789,196.04207L347.90136,193.6658L348.37663,191.52716L349.56482,190.1014L351.94119,189.86377
				L352.65411,188.43801L352.17883,186.06174L352.89174,184.39836L354.55521,182.73497L354.79284,180.3587L355.26812,177.98243L
				358.35741,175.13091L361.4467,172.99227L364.06071,169.90312L365.48653,167.0516L365.72417,164.67534L370.9522,160.39805L375.22967,157.54653
				L378.79424,155.88315L382.3588,153.98213L384.02226,152.794L385.92336,149.46722L388.0621,145.42757L388.77501,141.15029L390.67611,137.82351
				L392.33958,135.9225L393.05249,133.54623L393.7654,127.36794L394.71595,121.6649L394.00304,115.96185L392.81485,110.73406L394.95359,111.20932
				L396.61705,109.54593L397.32996,107.64492L398.04288,105.26865L400.41925,104.7934L402.55799,104.55577L403.2709,103.36764L404.93437,102.1795
				L405.40964,100.51611L406.36019,100.51611L408.02365,100.27849L408.9742,97.42697L409.92475,95.52595L407.54838,92.67443L406.59783,89.34766
				L406.59783,84.59512L405.88492,80.08021L403.50854,75.32768L398.04288,72.95141L394.00304,69.62464L390.67611,68.4365L392.10194,66.77312
				L392.33958,65.82261L394.47831,64.8721L393.29013,62.25821L394.24068,59.16906L391.38903,57.50567L390.20084,55.60466L389.72556,52.75314
				L392.57721,53.46602L394.95359,53.94127L396.37941,52.99077L396.14178,50.85212L398.04288,50.13924L398.51815,49.18874L399.4687,49.18874
				L400.65689,47.76298L402.55799,46.33722L403.03327,44.19858L400.65689,42.29756L402.79563,40.8718L405.64728,38.49553L404.93437,33.98063
				L403.98382,32.07961L404.22145,30.41622L401.60744,28.99046L400.89453,27.32708L398.75579,24.95081L398.28051,24.0003L396.14178,22.57454
				L394.71595,22.81217L394.24068,20.67353L392.57721,19.48539L392.10194,18.53489L396.37941,18.53489L401.13216,19.24777L407.78602,18.77251
				L411.35058,19.48539L417.52916,22.33691L421.80663,24.71318L425.37119,26.37657L428.93576,26.13894L432.73796,27.5647L434.63906,29.46572
				L434.8767,31.60436L440.10472,41.34705L445.33275,50.6145L454.83825,68.67413L458.16517,77.22869L462.20501,79.12971L467.67068,77.70395
				L472.18579,77.46632L475.51271,81.03072L478.36436,84.59512L481.21602,89.58528L485.96877,90.53579L489.29569,90.53579L493.33553,93.62494
				L492.86025,96.23883L492.86025,98.85273L492.86025,102.65476L492.62262,107.16966L490.95915,110.97169L491.43443,112.87271L493.33553,114.06084
				L496.42482,117.38761L498.32592,120.23913L498.80119,121.6649L499.27647,124.99167L498.80119,126.89268L496.66246,129.03132L
				497.13773,131.16996L497.85064,133.30861L497.13773,135.44725L495.23663,137.58589L493.09789,139.72453L493.57317,141.86317L
				495.71191,143.52656L497.37537,145.18994L497.61301,147.09096L496.18718,148.27909L494.52372,149.70485L494.76135,151.60587L
				496.42482,153.03163L498.08828,154.45739L496.66246,156.83365L495.47427,158.97229L494.99899,161.82382L494.04844,163.96246L
				492.62262,166.81398L494.04844,168.71499L493.8108,170.37838L490.48388,171.56651L485.49349,173.46753L482.4042,175.13091L478.83964,176.08142
				L479.79019,179.88345L479.31491,184.16073L479.55255,189.86377L484.78058,193.42817L488.34514,193.42817L492.14734,195.56681
				L495.23663,196.27969L498.08828,195.09156L500.93993,192.00241L502.36576,193.19055L502.84103,195.09156L503.55394,197.70545
				L503.55394,200.7946L503.55394,201.50748L502.60339,204.83426L520.90148,243.56742L530.16935,282.06295L521.13912,322.4595"/>
		</g>
	</g>
</svg>
