<?xml version="1.0" encoding="utf-8" standalone="no"?>
<!-- Creator: Esri ArcMap 10.8.0.12790 -->
<!DOCTYPE svg PUBLIC "-//W3C//DTD SVG 1.1//EN"  "http://www.w3.org/Graphics/SVG/1.1/DTD/svg11.dtd">
<svg width="774.73701pt" height="404.24882pt" viewBox="0 0 774.73701 404.24882" enable-background="new 0 0 774.73701 404.24882"
	version="1.1" xmlns="http://www.w3.org/2000/svg" xmlns:xlink="http://www.w3.org/1999/xlink" >
	<g id="Layers">
		<g id="Garoua_II">
			<clipPath id="SVG_CP_1">
				<path d="M0,404.24882L0,0L774.73701,0L774.73701,404.24882L0,404.24882z"/>
			</clipPath>
			<path clip-path="url(#SVG_CP_1)" fill="none" stroke="#000000" stroke-width="0.47528" stroke-miterlimit="10" stroke-linecap="round" stroke-linejoin="round" d="
				M553.45783,193.42817L542.05123,192.95292L530.16935,199.60647L520.42621,211.48781L513.29708,223.60677L508.06906,239.29013
				L508.06906,252.12198L511.63362,281.35007L509.73252,287.29074L504.26686,292.75615L488.58278,304.63749L452.93715,316.75645
				L421.33136,335.76659L403.2709,343.37065L394.00304,350.26183L382.83407,359.7669L338.39585,378.06416L321.04831,383.29194L313.68155,382.81669
				L307.26534,378.77704L297.28456,380.44042L289.9178,384.7177L288.49197,385.90584L284.92741,381.62856L281.12521,377.35127L280.4123,376.40077
				L279.46175,374.97501L277.32301,372.59874L276.84773,371.88586L275.89718,370.69773L274.94663,369.50959L274.94663,369.27197
				L271.61971,363.56892L269.00569,358.81639L267.34223,355.96487L264.72822,351.21233L264.49058,350.49945L264.01531,350.26183
				L260.68838,347.88556L255.93563,344.08353L255.22272,343.37065L254.74744,342.42014L252.6087,337.42998L251.18288,333.86558L
				247.14304,323.88526L245.24194,319.60798L240.96446,309.86528L239.301,306.30088L237.87518,300.12258L236.68699,293.46903L235.73644,286.57786
				L235.26116,283.01346L234.54825,278.26092L234.31061,276.35991L233.83534,273.50839L231.93424,260.43892L230.03314,248.7952L
				230.03314,247.8447L229.55786,244.75555L229.7955,244.04267L229.7955,243.56742L230.74605,241.19115L231.45896,239.76539L231.45896,238.81488
				L231.45896,238.33963L231.45896,237.86437L230.50841,236.43861L230.27077,235.96336L226.46857,231.44845L226.23094,230.9732L
				220.52764,224.7949L218.3889,222.41864L216.96307,220.75525L215.29961,218.37898L214.34906,216.47797L211.97268,206.26002L211.49741,204.83426
				L210.30922,199.36884L206.9823,187.24988L205.79411,174.89329L206.03175,173.94278L206.03175,172.27939L206.26938,167.52686L
				206.74466,158.02179L206.9823,151.13061L207.21993,148.75434L208.17048,138.77402L209.35867,129.50658L209.83395,123.80354L210.30922,121.18964
				L211.25977,111.68457L212.44796,101.22899L212.92323,96.95171L212.92323,96.00121L213.16087,94.57545L212.92323,93.14969L211.97268,88.39715
				L208.8834,76.75344L208.40812,74.13955L204.84356,59.16906L201.51663,45.86196L198.66498,33.50537L195.10042,18.53489L207.93285,36.83215
				L218.86417,48.71348L255.93563,80.31784L324.37524,77.70395L376.18022,84.83275L396.37941,87.68427L446.99621,106.45678L464.34375,119.76388
				L446.99621,136.87301L433.45087,156.12077L442.95637,161.34856L446.99621,159.20992L448.65967,157.30891L450.79841,155.88315
				L453.8877,153.50688L461.25446,150.41773L463.3932,148.51672L464.58139,147.56621L465.76958,147.09096L469.57178,146.85333L471.71051,148.27909
				L473.84925,149.2296L479.07728,150.1801L480.5031,150.1801L481.69129,149.94248L482.87948,149.2296L484.54294,147.32858L486.68168,145.6652
				L487.39459,144.71469L487.86987,142.1008L494.76135,139.24927L495.94954,139.01165L497.13773,139.4869L499.27647,140.91266L502.60339,142.1008
				L506.16796,143.28893L506.88087,144.47706L507.11851,145.6652L507.11851,150.89298L507.59378,151.84349L509.49488,153.74451L
				510.68307,157.30891L510.92071,159.68517L511.15835,160.87331L512.34653,161.34856L513.53472,161.34856L516.14873,161.34856L
				517.09928,160.63568L518.28747,160.16043L520.90148,159.9228L524.46605,158.97229L525.4166,158.02179L527.08006,155.88315L527.79297,153.74451
				L528.74352,152.794L529.93171,152.31875L532.30809,151.84349L534.9221,151.84349L537.29847,152.55637L538.48666,152.55637L542.05123,152.55637
				L544.66524,153.03163L548.2298,153.26925L556.30948,151.36824L559.87404,149.46722L562.25042,148.51672L564.62679,148.27909L
				566.05262,148.27909L568.42899,148.51672L569.61718,148.99197L572.46883,151.36824L574.36993,153.03163L576.03339,154.93264L
				578.17213,158.02179L579.36032,160.16043L579.83559,163.4872L579.12268,164.43771L577.69686,164.91296L576.03339,167.0516L574.13229,169.19024
				L569.85482,172.51702L568.66663,173.2299L565.57734,175.84379L563.20097,181.78446L559.16113,187.24988L553.45783,193.42817"/>
		</g>
	</g>
</svg>
