<?xml version="1.0" encoding="utf-8" standalone="no"?>
<!-- Creator: Esri ArcMap 10.8.0.12790 -->
<!DOCTYPE svg PUBLIC "-//W3C//DTD SVG 1.1//EN"  "http://www.w3.org/Graphics/SVG/1.1/DTD/svg11.dtd">
<svg width="774.73701pt" height="404.24882pt" viewBox="0 0 774.73701 404.24882" enable-background="new 0 0 774.73701 404.24882"
	version="1.1" xmlns="http://www.w3.org/2000/svg" xmlns:xlink="http://www.w3.org/1999/xlink" >
	<g id="Layers">
		<g id="Garoua_III">
			<clipPath id="SVG_CP_1">
				<path d="M0,404.24882L0,0L774.73701,0L774.73701,404.24882L0,404.24882z"/>
			</clipPath>
			<path clip-path="url(#SVG_CP_1)" fill="none" stroke="#000000" stroke-width="0.47528" stroke-miterlimit="10" stroke-linecap="round" stroke-linejoin="round" d="
				M436.7778,18.77251L442.00582,22.09929L453.65006,28.27758L465.76958,30.41622L474.56216,30.1786L484.78058,30.89148L491.43443,37.06977
				L498.80119,44.67383L508.30669,52.27788L521.37676,56.79279L528.98116,58.21855L538.01139,60.11957L546.3287,62.97109L547.99216,65.34736
				L547.51689,71.52565L546.80398,75.80293L547.75453,79.36733L550.60618,85.308L558.92349,93.14969L559.6364,94.57545L560.34932,98.37747
				L558.21058,102.41713L552.26964,106.45678L545.37815,110.73406L538.24902,114.06084L537.06084,117.14999L537.53611,120.71439
				L539.43721,126.1798L541.81359,132.59573L546.3287,140.43741L554.17074,144.71469L561.29987,147.56621L572.94411,151.60587L584.58834,156.3584
				L587.91527,160.87331L589.10346,168.47736L589.3411,178.93294L591.00456,186.29937L595.75731,197.2302L602.88643,201.98274L610.01556,206.49764
				L616.43177,209.58679L623.08563,214.1017L625.462,219.80474L624.74909,230.73557L622.37271,235.96336L619.28342,241.90403L616.66941,248.55758
				L615.24359,254.02299L616.43177,259.48841L619.99634,265.19145L624.74909,272.32025L628.07601,278.02329L631.40294,283.25108
				L637.58152,285.62735L641.85899,289.66701L646.84938,297.74631L653.26559,302.26122L658.25598,308.67715L605.50045,337.19235
				L576.50867,350.0242L536.34792,365.23231L473.13634,377.5889L441.76818,377.11365L384.73517,383.7672L309.16644,385.90584L247.14304,385.19296
				L213.87378,378.06416L181.55508,360.00452L155.17731,341.46964L133.07702,317.46933L116.68003,294.65717L120.95751,293.70666
				L123.80916,290.61751L124.75971,285.38972L122.38333,273.98364L121.67042,265.6667L121.67042,257.82502L122.62097,251.88435L
				123.09625,249.98334L125.9479,244.04267L127.13608,241.19115L131.88883,235.25048L139.73087,230.02269L149.71165,230.73557L159.69243,232.63659
				L173.23777,242.61691L182.74327,245.46843L190.82294,244.75555L197.95207,240.7159L206.74466,231.92371L216.01252,215.28983L
				226.23094,205.78476L230.50841,197.94308L231.22133,192.00241L232.17188,185.58649L235.4988,177.50718L240.48919,171.09126L246.19249,164.67534
				L255.93563,152.08112L259.02492,147.80384L259.97547,147.09096L264.96586,144.00181L271.61971,143.0513L275.89718,145.6652L280.88757,146.14045
				L292.53181,142.57605L322.47414,130.21946L329.8409,124.04116L336.01948,119.28863L348.13899,114.29847L369.28873,101.46662L
				393.29013,93.38731L403.98382,85.308L407.54838,81.7436L408.73657,77.70395L406.36019,57.98093L406.36019,49.42636L409.92475,38.97079
				L414.6775,30.89148L421.09372,22.81217L429.17339,18.53489L436.7778,18.77251"/>
		</g>
	</g>
</svg>
