<?xml version="1.0" encoding="utf-8" standalone="no"?>
<!-- Creator: Esri ArcMap 10.8.0.12790 -->
<!DOCTYPE svg PUBLIC "-//W3C//DTD SVG 1.1//EN"  "http://www.w3.org/Graphics/SVG/1.1/DTD/svg11.dtd">
<svg width="774.73701pt" height="404.24882pt" viewBox="0 0 774.73701 404.24882" enable-background="new 0 0 774.73701 404.24882"
	version="1.1" xmlns="http://www.w3.org/2000/svg" xmlns:xlink="http://www.w3.org/1999/xlink" >
	<g id="Layers">
		<g id="Garoua_I">
			<clipPath id="SVG_CP_1">
				<path d="M0,404.24882L0,0L774.73701,0L774.73701,404.24882L0,404.24882z"/>
			</clipPath>
			<path clip-path="url(#SVG_CP_1)" fill="none" stroke="#000000" stroke-width="0.47528" stroke-miterlimit="10" stroke-linecap="round" stroke-linejoin="round" d="
				M414.91514,64.63448L417.05388,73.90192L418.95498,81.7436L420.85608,90.06054L423.23246,99.56561L423.70773,100.99137L425.37119,108.3578
				L426.08411,111.44694L426.08411,112.39745L426.08411,113.11033L426.08411,113.82321L425.84647,116.43711L425.13356,122.85303
				L424.42064,128.7937L424.18301,130.45708L423.70773,134.02149L422.99482,139.96215L422.51954,146.14045L422.28191,147.56621L
				422.28191,152.08112L422.04427,157.78416L421.80663,160.87331L421.56899,162.06144L421.56899,162.5367L422.28191,170.37838L424.42064,177.98243
				L425.13356,181.30921L425.37119,182.25972L427.03466,188.67564L427.50993,189.86377L428.69812,191.28953L429.41103,192.24004
				L430.83686,193.90343L434.40142,197.70545L434.63906,197.94308L436.7778,200.7946L437.01543,201.03223L437.72835,201.98274L437.72835,202.45799
				L437.72835,202.69562L437.72835,203.17087L437.25307,204.12138L436.54016,205.54714L436.54016,205.78476L436.54016,206.26002
				L436.7778,208.16103L436.7778,208.87391L437.96598,216.00271L439.15417,224.31965L439.39181,226.22066L439.62945,227.4088L440.10472,230.26032
				L440.34236,232.63659L441.05527,236.91387L441.53055,241.19115L442.71873,244.75555L443.66928,247.13182L446.2833,253.31011L
				447.47148,255.92401L450.0855,262.1023L450.79841,264.24094L452.22424,267.56772L452.46187,268.04297L452.93715,268.51822L456.02644,270.89449
				L457.92754,272.32025L458.16517,272.55788L458.64045,273.03313L460.06627,275.88465L461.25446,277.78567L462.68029,280.63719
				L464.81903,284.43922L465.53194,285.1521L466.24485,286.1026L466.48249,286.34023L467.67068,288.00362L468.38359,288.7165L468.85886,289.42938
				L471.23524,292.04327L473.37398,294.89479L470.52233,298.69682L461.25446,310.57816L456.02644,316.51883L451.27369,322.4595L
				448.42204,329.82593L447.23385,336.00422L446.52093,341.46964L442.71873,348.83607L433.21323,357.86588L424.65828,373.31162L
				416.34097,381.39093L409.68712,385.19296L402.08272,385.90584L393.05249,383.29194L380.4577,373.78687L371.42747,372.12349L361.92197,371.41061
				L354.79284,376.40077L350.27773,381.86618L349.08954,384.48008L342.67333,379.48992L339.58404,379.48992L334.59365,376.87602
				L331.02909,376.40077L326.0387,377.11365L324.1376,373.31162L323.66233,369.03434L321.28595,367.13332L319.38485,363.3313L317.95903,359.05402
				L318.90958,355.25199L319.86013,351.92521L317.95903,350.0242L315.58265,349.31132L312.49336,346.69742L312.731,344.08353L314.6321,341.94489
				L315.82029,339.09337L316.29556,336.00422L317.72139,333.62795L321.28595,333.1527L323.66233,332.91507L326.0387,331.01406L326.98925,327.92491
				L328.41508,325.31102L330.31618,322.69712L330.31618,320.55848L329.12799,318.8951L328.41508,316.75645L328.65272,314.85544L
				330.55382,313.66731L332.21728,312.00392L332.93019,309.39003L331.50437,306.77613L326.51398,305.82562L324.37524,303.21173L
				321.99886,296.79581L318.4343,292.51853L312.49336,291.56802L311.30518,284.43922L314.15683,277.78567L319.62249,271.13212L316.29556,260.67654
				L310.59226,251.64673L305.60187,243.32979L305.1266,234.77523L303.2255,226.45829L301.56204,220.99288L305.60187,217.6661L311.54281,214.81458
				L316.77084,209.34916L321.28595,203.4085L323.42469,198.18071L323.42469,192.71529L321.04831,188.20038L321.28595,183.21022L
				323.89997,178.22006L326.0387,175.60617L326.27634,170.85363L327.22689,161.34856L332.45492,156.59603L335.30657,156.12077L337.20767,157.07128
				L340.05932,160.63568L342.19806,160.63568L344.09916,159.20992L344.81207,156.83365L343.38624,154.45739L343.14861,150.65536
				L343.62388,148.04146L341.48514,145.42757L334.35602,139.24927L330.55382,135.9225L332.45492,131.88285L338.39585,130.45708L
				344.09916,132.59573L350.75301,132.59573L354.31757,128.55607L353.84229,124.51642L349.80246,120.95201L343.86152,117.38761L
				342.91097,116.19948L343.62388,114.77372L346.71317,112.15983L348.37663,109.54593L351.22828,105.98153L353.60466,104.08052L
				355.50576,100.99137L357.40686,94.57545L357.6445,81.26835L358.35741,74.6148L358.59505,72.71379L359.30796,71.76328L361.20906,70.81277
				L362.15961,69.38701L362.15961,67.486L362.15961,64.63448L363.11016,62.02058L364.77362,60.11957L366.91236,58.93143L370.00165,56.07991
				L373.09094,51.32738L374.51676,47.0501L378.79424,41.82231L379.26951,39.44604L379.98242,32.79249L382.3588,28.99046L382.12116,26.85182
				L382.3588,24.47556L385.21045,20.4359L389.01265,18.53489L389.25029,19.24777L389.9632,20.4359L390.91375,21.86166L391.62666,23.04979
				L392.33958,23.76268L392.81485,24.23793L393.52776,24.23793L395.42886,24.23793L396.37941,24.23793L397.5676,24.47556L399.4687,24.71318
				L401.3698,24.95081L402.55799,24.71318L403.98382,24.47556L404.93437,24.47556L405.40964,24.47556L405.88492,24.71318L406.59783,25.42606
				L408.26129,27.32708L411.82585,31.36673L412.30113,31.84198L412.7764,32.55486L412.7764,33.03012L413.01404,33.743L413.01404,36.11927
				L413.01404,37.54503L413.01404,44.91146L413.01404,53.22839L413.01404,56.07991L413.01404,56.79279L413.25168,57.98093L414.91514,64.63448
				"/>
		</g>
	</g>
</svg>
