<?xml version="1.0" encoding="utf-8" standalone="no"?>
<!-- Creator: Esri ArcMap 10.8.0.12790 -->
<!DOCTYPE svg PUBLIC "-//W3C//DTD SVG 1.1//EN"  "http://www.w3.org/Graphics/SVG/1.1/DTD/svg11.dtd">
<svg width="774.73701pt" height="404.24882pt" viewBox="0 0 774.73701 404.24882" enable-background="new 0 0 774.73701 404.24882"
	version="1.1" xmlns="http://www.w3.org/2000/svg" xmlns:xlink="http://www.w3.org/1999/xlink" >
	<g id="Layers">
		<g id="Lagdo">
			<clipPath id="SVG_CP_1">
				<path d="M0,404.24882L0,0L774.73701,0L774.73701,404.24882L0,404.24882z"/>
			</clipPath>
			<path clip-path="url(#SVG_CP_1)" fill="none" stroke="#000000" stroke-width="0.47528" stroke-miterlimit="10" stroke-linecap="round" stroke-linejoin="round" d="
				M491.9097,108.83305L516.14873,120.95201L516.86165,133.30861L509.73252,151.84349L495.47427,173.2299L473.61161,182.25972L462.44265,186.06174
				L456.73935,191.05191L436.06488,204.359L434.16378,214.33933L434.40142,216.00271L435.58961,216.95322L436.06488,218.85423L436.54016,220.28
				L436.7778,221.2305L437.96598,222.18101L438.44126,223.60677L438.6789,224.31965L440.81763,224.7949L441.76818,225.27016L442.24346,226.45829
				L442.4811,227.88405L442.4811,228.59693L441.76818,229.30981L441.53055,229.78506L442.00582,231.44845L443.43165,232.16133L443.90692,232.63659
				L443.90692,233.34947L444.14456,234.5376L444.85747,235.01285L445.80802,235.72573L446.04566,236.67624L445.57038,238.33963L
				445.57038,238.81488L446.2833,239.29013L447.47148,239.52776L448.65967,242.85454L435.58961,268.2806L427.50993,277.07279L420.14317,289.42938
				L415.86569,317.94459L416.34097,321.98424L416.81624,323.17238L416.5786,323.88526L415.86569,324.59814L414.91514,325.07339L
				414.20223,325.78627L413.01404,326.26152L412.53877,326.73678L411.58822,326.9744L411.11294,326.49915L410.63767,325.31102L410.16239,324.83576
				L409.68712,325.07339L408.73657,325.54864L408.02365,326.26152L407.31074,326.73678L406.83547,327.21203L406.59783,327.68728
				L406.59783,328.16254L406.12255,328.40017L404.69673,329.11305L404.22145,330.06355L403.98382,331.01406L403.74618,331.96457
				L404.22145,332.67745L403.50854,333.39033L403.03327,334.34083L402.79563,335.05371L402.79563,335.76659L402.32035,336.00422
				L401.60744,336.7171L401.60744,337.42998L401.3698,337.90523L401.3698,338.85574L401.3698,340.04388L401.13216,341.23201L400.89453,342.18252
				L400.65689,343.13302L400.89453,344.32116L401.60744,345.50929L402.32035,346.69742L402.32035,347.64793L401.84508,348.59844
				L401.13216,349.78657L400.18161,351.44996L399.4687,352.87572L398.04288,354.53911L395.90414,356.44012L392.33958,358.81639L
				390.20084,360.00452L389.48793,360.7174L388.29974,361.90554L386.87391,362.85604L386.161,363.56892L385.21045,363.80655L383.78462,363.3313
				L382.83407,362.61842L381.88352,361.90554L380.69534,361.66791L379.98242,362.14316L379.03187,362.85604L377.84369,363.3313L
				374.7544,365.46994L373.80385,366.18282L372.8533,366.8957L371.90275,368.08383L370.9522,369.50959L369.52637,370.4601L367.86291,371.41061
				L366.67472,372.36111L365.96181,372.59874L364.77362,372.83637L363.3478,372.36111L362.15961,372.36111L360.97142,372.12349L
				360.73378,373.07399L360.25851,374.0245L359.78323,374.73738L358.35741,374.49975L356.45631,374.49975L355.03048,374.49975L353.36702,374.26213
				L353.12938,374.73738L352.41647,376.40077L351.70356,377.11365L349.08954,377.5889L347.90136,378.30178L346.95081,379.72754L
				346.47553,379.72754L344.81207,379.96517L343.14861,379.96517L341.72278,379.96517L340.29696,380.2028L337.92058,380.2028L336.25712,380.91568
				L335.78184,381.62856L334.83129,382.81669L333.6431,383.7672L332.45492,384.48008L331.26673,384.48008L330.07854,384.48008L329.36563,384.7177
				L328.65272,385.66821L327.46453,385.90584L326.75162,385.43058L325.56343,384.95533L324.61288,384.95533L322.94941,384.7177L
				321.99886,384.7177L320.81068,384.95533L320.57304,384.7177L319.14721,384.7177L316.5332,355.25199L336.25712,355.25199L348.13899,337.66761
				L355.7434,328.40017L356.69395,326.9744L356.93158,325.31102L356.93158,323.41L356.45631,308.91477L354.07993,262.1023L262.58948,269.46873
				L260.45074,269.2311L258.07437,267.80534L258.54964,267.56772L260.2131,264.95382L261.63893,263.05281L262.82712,261.1518L265.44113,258.77553
				L273.99608,247.8447L274.94663,245.94368L283.02631,233.11184L284.92741,230.49795L292.76945,218.14135L295.38346,215.28983L
				303.70077,203.4085L306.07715,199.36884L313.20628,188.91326L316.5332,184.87361L323.66233,174.41803L324.61288,173.2299L326.51398,170.14075
				L333.40547,159.9228L335.06893,156.3584L342.19806,144.71469L345.76262,140.43741L348.37663,136.16013L352.89174,129.98183L355.26812,124.99167
				L358.59505,120.47676L361.20906,116.19948L363.3478,113.11033L365.48653,109.07068L367.38763,106.69441L371.18984,101.46662L
				374.04149,96.23883L375.22967,92.43681L377.60605,88.63478L379.26951,82.45648L380.4577,75.09005L382.3588,67.24837L384.02226,59.64431
				L384.02226,55.12941L386.39864,51.32738L388.77501,47.28772L395.6665,41.82231L402.79563,34.69351L414.43987,26.85182L420.38081,20.4359
				L422.28191,18.53489L423.23246,20.19827L424.42064,21.14878L425.84647,22.09929L426.55938,22.33691L427.74757,22.81217L428.93576,23.28742
				L429.88631,24.23793L430.36158,25.18844L431.07449,27.08945L431.31213,28.27758L431.54977,30.1786L431.07449,31.1291L430.83686,32.07961
				L431.07449,33.50537L431.54977,35.40639L431.78741,36.35689L433.21323,37.3074L433.92615,38.02028L435.11433,38.97079L435.82725,39.68367
				L436.06488,40.39655L436.06488,41.58468L437.25307,41.58468L438.44126,41.82231L439.86708,42.53519L441.05527,43.24807L442.24346,44.4362
				L443.43165,45.38671L444.85747,46.33722L446.99621,47.52535L448.42204,48.71348L448.89731,49.90162L448.89731,51.80263L448.1844,52.99077
				L447.70912,54.89178L447.47148,55.60466L447.23385,56.79279L447.47148,57.98093L447.47148,60.11957L447.47148,62.25821L447.70912,63.68397
				L448.89731,65.58498L449.61022,67.486L451.03605,69.14938L451.74896,69.62464L456.73935,73.66429L459.591,76.75344L459.82864,78.65445
				L455.7888,86.25851L456.97699,88.8724L470.52233,98.85273L474.7998,102.41713L491.9097,108.83305"/>
		</g>
	</g>
</svg>
