<?xml version="1.0" encoding="utf-8" standalone="no"?>
<!-- Creator: Esri ArcMap 10.8.0.12790 -->
<!DOCTYPE svg PUBLIC "-//W3C//DTD SVG 1.1//EN"  "http://www.w3.org/Graphics/SVG/1.1/DTD/svg11.dtd">
<svg width="774.73701pt" height="404.24882pt" viewBox="0 0 774.73701 404.24882" enable-background="new 0 0 774.73701 404.24882"
	version="1.1" xmlns="http://www.w3.org/2000/svg" xmlns:xlink="http://www.w3.org/1999/xlink" >
	<g id="Layers">
		<g id="Madingring">
			<clipPath id="SVG_CP_1">
				<path d="M0,404.24882L0,0L774.73701,0L774.73701,404.24882L0,404.24882z"/>
			</clipPath>
			<path clip-path="url(#SVG_CP_1)" fill="none" stroke="#000000" stroke-width="0.47528" stroke-miterlimit="10" stroke-linecap="round" stroke-linejoin="round" d="
				M551.08145,179.17057L546.80398,183.9231L541.81359,189.86377L533.49627,201.03223L532.30809,202.93324L528.98116,207.44815L
				525.89187,211.72543L524.22841,214.57695L521.13912,219.32949L518.04983,222.89389L516.86165,225.27016L515.19818,225.50778L
				514.48527,226.69592L514.48527,228.59693L513.53472,230.02269L512.34653,232.16133L507.83142,236.20099L506.64323,238.33963L
				503.79158,240.24064L501.89048,242.14166L499.98938,243.80504L497.85064,244.99318L495.94954,246.18131L490.95915,246.65656L
				488.82042,247.36944L486.2064,248.31995L484.3053,249.74571L482.16657,252.12198L480.5031,254.49825L480.02783,256.16163L477.17618,256.87451
				L475.27508,257.82502L472.8987,259.01315L470.75996,259.25078L468.62123,260.67654L468.14595,262.33993L468.38359,265.19145L
				468.62123,267.80534L466.95776,270.89449L464.34375,273.03313L463.63084,275.88465L463.3932,279.44906L462.44265,282.06295L460.77919,284.91447
				L458.40281,285.86498L456.02644,286.81548L452.22424,288.47887L449.61022,289.42938L446.52093,291.09277L444.14456,292.75615
				L441.05527,294.65717L434.8767,299.17208L431.07449,303.21173L427.74757,306.06325L425.37119,308.20189L424.65828,309.1524L423.47009,311.05341
				L422.51954,311.52867L421.33136,313.42968L420.38081,315.56832L418.47971,316.99408L417.05388,318.41984L414.91514,318.8951L
				413.01404,320.08323L411.58822,320.79611L410.16239,322.22187L409.44948,322.93475L405.64728,322.93475L387.58683,322.93475L
				385.44809,322.93475L385.44809,325.78627L385.44809,329.35067L385.44809,337.19235L385.68572,342.8954L384.2599,343.8459L383.54699,344.79641
				L382.83407,345.74692L381.88352,346.4598L381.17061,346.69742L379.98242,346.93505L379.26951,347.64793L378.79424,348.59844L
				378.5566,349.07369L377.84369,349.78657L377.13077,349.54895L376.41786,350.26183L376.18022,350.73708L375.70495,351.21233L374.7544,351.68759
				L373.56621,352.40047L372.61566,353.35097L371.66511,354.06385L370.71456,355.01436L370.71456,355.72724L369.76401,356.20249
				L369.76401,356.91537L369.0511,357.153L368.57582,357.62825L368.81346,358.10351L369.52637,358.57876L369.0511,358.81639L368.33818,359.29164
				L367.86291,359.29164L367.86291,360.00452L368.57582,360.24215L368.81346,360.7174L368.33818,360.95503L367.62527,361.19266L
				367.38763,361.66791L366.67472,361.66791L366.43708,362.14316L366.43708,362.85604L366.19945,363.3313L366.67472,364.04418L366.67472,365.46994
				L366.43708,366.18282L365.96181,366.65807L365.96181,367.60858L364.53598,367.84621L363.82307,368.32146L363.3478,369.03434L
				362.87252,369.98485L361.68433,370.69773L361.20906,370.93535L361.92197,371.41061L361.92197,371.88586L361.20906,372.12349L
				360.25851,371.88586L359.78323,372.12349L359.5456,372.83637L359.30796,373.78687L358.59505,374.49975L359.07032,375.21263L359.07032,375.68789
				L357.88213,375.68789L357.6445,376.63839L357.16922,377.35127L356.45631,377.35127L355.98103,377.82653L355.7434,378.77704L355.50576,379.48992
				L355.50576,380.44042L355.7434,381.1533L355.7434,382.10381L355.50576,382.57906L355.26812,383.52957L355.03048,384.00482L354.55521,384.00482
				L354.31757,384.7177L353.60466,385.90584L352.17883,385.90584L348.37663,383.52957L342.19806,378.77704L334.59365,373.54925L
				330.55382,369.98485L326.51398,366.8957L324.85052,365.46994L314.15683,358.10351L307.26534,354.06385L304.65132,352.40047L303.2255,350.49945
				L302.51259,348.59844L299.66094,347.17268L298.23511,345.03404L294.19527,341.23201L292.05653,339.80625L292.05653,337.90523
				L290.63071,337.19235L286.35323,333.1527L284.68977,331.25169L283.02631,330.06355L280.4123,328.63779L278.5112,328.16254L276.61009,327.21203
				L276.61009,326.9744L272.57026,326.26152L266.62932,325.54864L259.73783,325.07339L252.6087,325.07339L246.9054,323.88526L245.24194,323.17238
				L244.29139,323.17238L243.1032,322.69712L241.67738,321.74662L240.25155,320.55848L239.301,319.37035L238.11281,318.65747L236.44935,318.41984
				L235.4988,317.46933L235.4988,316.04357L234.31061,315.33069L232.17188,314.38019L223.85456,311.52867L238.11281,114.06084L240.96446,115.72423
				L243.34084,116.67473L245.24194,117.14999L247.61832,117.14999L249.75705,117.38761L252.37107,118.10049L256.4109,118.57575L
				258.312,118.57575L259.73783,118.57575L260.92602,118.10049L262.11421,118.33812L263.30239,119.051L265.20349,120.23913L266.39168,120.23913
				L267.81751,120.47676L269.00569,120.95201L270.19388,121.90252L271.14443,122.6154L272.09498,123.56591L273.99608,124.51642L
				275.89718,123.80354L277.08537,123.80354L278.98647,125.2293L280.64993,126.41743L281.83812,126.65506L283.26395,127.13031L285.64032,128.55607
				L287.54142,130.21946L288.72961,131.40759L290.15543,132.83335L291.58126,133.54623L292.76945,134.25911L293.72,134.97199L294.90819,135.20962
				L296.09637,135.20962L297.28456,134.97199L298.94802,134.73437L300.13621,134.49674L301.3244,134.25911L303.2255,134.49674L304.65132,134.97199
				L306.55242,135.20962L307.50297,135.68487L309.40408,135.20962L310.8299,134.49674L312.01809,133.07098L312.49336,131.64522L
				314.15683,129.03132L315.82029,126.1798L318.19666,122.6154L319.38485,120.71439L320.57304,119.051L323.66233,116.43711L325.08815,115.4866
				L326.75162,115.24897L329.36563,114.77372L332.21728,113.82321L334.59365,112.87271L335.78184,112.39745L340.29696,110.25881
				L341.48514,108.59542L341.00987,106.45678L339.82168,104.7934L338.39585,102.65476L337.68294,100.27849L338.39585,98.37747L338.39585,96.47646
				L338.87113,94.57545L338.63349,91.72392L337.68294,90.06054L337.4453,88.8724L336.01948,87.9219L334.83129,87.68427L333.6431,87.44664
				L331.742,86.49614L331.02909,84.59512L330.07854,83.40699L328.89035,83.16936L327.9398,83.64462L326.75162,83.16936L325.56343,81.7436
				L323.66233,80.31784L322.2365,79.12971L321.28595,78.41683L317.72139,74.85243L315.82029,72.95141L314.39446,71.76328L316.29556,71.28802
				L317.72139,71.0504L318.90958,69.62464L318.90958,68.19888L320.81068,68.19888L321.99886,67.24837L323.89997,67.01074L325.08815,66.29786
				L326.0387,65.10973L327.46453,64.15922L327.9398,62.25821L328.17744,61.3077L329.8409,61.78295L331.02909,61.78295L332.45492,60.83245
				L334.11838,61.07007L336.01948,60.83245L338.15822,60.11957L338.87113,58.69381L340.29696,58.69381L341.72278,57.98093L343.14861,56.79279
				L344.33679,56.31754L345.28734,55.60466L346.23789,54.89178L348.37663,55.36703L349.56482,55.84229L350.75301,55.84229L351.94119,56.31754
				L352.65411,57.7433L353.12938,58.69381L354.79284,58.69381L356.45631,58.45618L358.11977,58.69381L359.07032,59.40669L360.49615,59.64431
				L361.92197,59.64431L363.11016,59.40669L364.06071,59.88194L364.77362,61.54533L364.53598,63.20872L364.53598,64.39685L365.48653,63.20872
				L367.15,62.73346L368.33818,62.73346L371.18984,62.02058L373.80385,61.3077L376.41786,60.83245L379.50715,59.40669L383.54699,58.69381
				L385.92336,57.7433L391.62666,54.89178L394.47831,53.46602L397.09233,52.27788L398.99343,51.32738L401.3698,49.90162L403.98382,48.95111
				L406.83547,47.52535L410.40003,45.86196L413.01404,44.4362L417.05388,43.01044L420.85608,41.34705L425.13356,39.44604L430.83686,36.35689
				L435.58961,34.21825L438.20362,32.79249L444.85747,29.94097L451.51132,26.6142L455.7888,24.47556L465.2943,19.96065L467.1954,18.53489
				L472.66106,25.18844L473.84925,27.08945L474.7998,29.22809L475.51271,31.60436L475.98799,34.45588L477.17618,37.78265L478.83964,40.15892
				L479.79019,42.53519L481.21602,43.72332L483.59239,45.38671L485.73113,46.81247L488.82042,48.23823L490.48388,49.18874L491.67207,50.37687
				L491.9097,51.08975L493.57317,54.1789L503.79158,77.94157L551.08145,179.17057"/>
		</g>
	</g>
</svg>
