<?xml version="1.0" encoding="utf-8" standalone="no"?>
<!-- Creator: Esri ArcMap 10.8.0.12790 -->
<!DOCTYPE svg PUBLIC "-//W3C//DTD SVG 1.1//EN"  "http://www.w3.org/Graphics/SVG/1.1/DTD/svg11.dtd">
<svg width="774.73701pt" height="404.24882pt" viewBox="0 0 774.73701 404.24882" enable-background="new 0 0 774.73701 404.24882"
	version="1.1" xmlns="http://www.w3.org/2000/svg" xmlns:xlink="http://www.w3.org/1999/xlink" >
	<g id="Layers">
		<g id="Mayo-Hourna">
			<clipPath id="SVG_CP_1">
				<path d="M0,404.24882L0,0L774.73701,0L774.73701,404.24882L0,404.24882z"/>
			</clipPath>
			<path clip-path="url(#SVG_CP_1)" fill="none" stroke="#000000" stroke-width="0.47528" stroke-miterlimit="10" stroke-linecap="round" stroke-linejoin="round" d="
				M677.9799,188.20038L677.50462,193.19055L677.26698,195.80444L676.0788,197.46783L674.89061,200.08172L674.65297,202.69562L675.84116,205.30951
				L675.84116,208.39866L674.89061,211.01255L672.2766,214.33933L669.42495,217.19085L666.09802,218.85423L663.95928,220.75525L
				664.90983,223.60677L665.86038,228.12168L666.09802,232.87421L668.94967,237.38912L672.03896,242.37928L673.70242,248.08232L
				670.85077,251.88435L669.18731,255.44875L669.90022,259.25078L673.22715,259.96366L675.12825,262.1023L676.55407,265.6667L677.74226,267.09246
				L680.35627,267.56772L681.06918,268.99348L680.59391,270.41924L679.881,271.36975L678.69281,272.08263L678.69281,273.03313L679.16808,274.22127
				L679.64336,275.17177L679.64336,276.35991L678.69281,277.78567L677.9799,279.21143L677.50462,280.87482L676.0788,281.82532L674.65297,282.06295
				L672.75187,282.30058L672.03896,283.72634L671.80132,285.1521L671.08841,286.81548L670.13786,288.00362L669.90022,289.42938L
				671.80132,290.85514L672.98951,291.33039L673.94006,292.2809L673.46478,294.18191L672.98951,296.32055L673.70242,298.69682L674.65297,300.59784
				L676.0788,301.78597L676.31643,303.92461L677.50462,306.06325L680.11863,305.82562L682.01974,305.82562L684.87139,307.48901L
				686.53485,307.48901L689.86177,310.10291L688.43595,313.19205L688.19831,314.14256L687.72304,317.23171L687.72304,321.27136L
				688.19831,325.54864L689.3865,331.25169L688.91122,333.86558L687.4854,335.52897L685.34666,336.00422L681.7821,336.24185L678.69281,335.52897
				L674.89061,333.1527L670.3755,329.82593L667.76148,326.26152L665.62274,322.93475L663.72164,321.27136L660.86999,320.79611L656.35488,321.98424
				L653.02796,323.64763L650.1763,327.92491L648.2752,331.01406L647.32465,333.39033L646.84938,337.90523L647.32465,340.99438L647.32465,342.65777
				L645.89883,343.37065L640.90844,343.8459L636.39333,343.37065L629.73948,342.65777L624.27381,340.99438L610.96611,336.00422L
				602.88643,334.10321L599.32187,334.10321L594.33148,336.00422L592.43038,339.09337L590.52928,343.60828L587.20236,352.87572L
				586.01417,355.01436L583.40016,356.44012L581.49906,356.67775L575.32048,355.96487L565.57734,352.63809L563.4386,351.44996L560.34932,348.59844
				L556.07184,344.79641L553.9331,342.8954L551.31909,342.18252L550.36854,342.42014L548.94271,343.13302L547.51689,343.8459L542.76414,347.64793
				L539.19957,351.44996L537.06084,354.30148L534.44682,358.57876L534.44682,359.52927L533.25864,362.38079L532.30809,363.09367
				L531.35754,364.51943L528.03061,365.46994L524.94132,365.70756L522.80258,365.46994L520.42621,364.51943L515.9111,361.43028L
				510.68307,358.10351L510.20779,357.39063L506.64323,353.82623L502.84103,350.73708L499.75174,349.31132L495.23663,348.83607L
				491.9097,349.07369L485.25585,350.26183L481.45365,351.68759L478.12673,353.11335L474.7998,355.01436L471.47288,357.62825L467.43304,360.95503
				L464.10611,363.56892L461.25446,367.13332L459.35336,370.22247L457.45226,372.83637L453.41242,377.11365L449.84786,381.39093
				L448.42204,383.05432L445.80802,384.24245L441.05527,385.66821L438.44126,385.90584L436.06488,385.90584L432.9756,385.66821L
				431.78741,384.48008L431.07449,382.57906L430.12394,381.62856L425.84647,376.63839L423.23246,373.31162L421.80663,370.4601L420.38081,366.8957
				L418.95498,361.43028L417.05388,355.72724L415.62805,352.63809L413.72695,349.54895L412.30113,347.88556L410.63767,345.74692
				L410.16239,345.27166L407.0731,342.65777L405.88492,340.2815L404.45909,339.56862L402.79563,339.331L399.23106,340.04388L396.37941,340.04388
				L393.7654,339.56862L389.48793,338.38049L386.39864,336.95473L384.97281,335.52897L383.78462,334.57846L382.3588,334.10321L380.93297,333.86558
				L377.36841,334.10321L373.56621,332.91507L369.76401,330.77643L369.52637,330.53881L367.86291,328.87542L367.15,326.0239L366.91236,323.17238
				L367.38763,322.22187L367.38763,321.27136L366.67472,318.41984L362.63488,310.57816L360.97142,308.43952L357.88213,304.87512
				L356.93158,302.49885L352.17883,291.80565L349.56482,288.7165L346.00026,286.57786L341.48514,285.62735L336.49475,285.38972L
				328.65272,286.1026L314.39446,287.05311L305.60187,288.7165L303.2255,288.7165L300.61149,287.05311L297.5222,283.48871L295.38346,278.9738
				L294.43291,276.35991L293.48236,272.32025L291.34362,263.05281L291.10598,260.43892L290.39307,258.77553L289.44252,257.58739
				L286.1156,255.44875L278.5112,250.45859L271.14443,247.60707L266.15404,246.65656L263.06476,246.89419L260.45074,247.36944L257.59909,249.74571
				L251.89579,258.06265L247.85595,261.86468L244.05375,262.1023L241.67738,260.91417L240.48919,259.25078L239.06336,254.9735L238.11281,248.7952
				L238.58809,242.61691L239.77628,236.43861L239.77628,232.16133L238.35045,230.49795L236.68699,230.49795L234.07298,232.16133
				L230.03314,236.20099L225.51802,238.81488L220.29,239.52776L218.3889,238.81488L216.25016,237.15149L210.07158,225.50778L207.21993,222.89389
				L203.89301,220.75525L201.51663,219.80474L196.05097,218.85423L188.68421,219.32949L188.44657,219.32949L183.93146,218.85423
				L180.60453,217.6661L177.99052,214.33933L177.99052,210.29967L177.99052,209.34916L177.03997,206.49764L171.33667,198.41833L
				162.54408,191.76479L155.89023,189.86377L148.99874,189.62614L138.54269,191.28953L134.26521,193.42817L129.03718,198.18071L
				125.71026,200.08172L121.19514,200.31935L118.34349,199.36884L115.72948,197.46783L108.83799,195.32919L106.93689,192.95292L
				104.08524,185.11124L94.81738,173.94278L90.77754,171.80414L85.07424,168.95262L85.78715,168.23974L86.26243,167.76448L86.7377,167.52686
				L87.21298,167.0516L87.45061,166.81398L88.16353,166.81398L88.87644,166.57635L89.58935,166.57635L90.06463,166.81398L90.5399,167.0516
				L91.01518,167.52686L91.49045,168.23974L91.96573,168.71499L92.20337,168.95262L92.91628,169.19024L93.39155,169.42787L94.3421,169.6655
				L95.05502,169.6655L95.76793,170.14075L96.71848,171.09126L97.43139,171.80414L98.1443,172.04177L98.61958,172.27939L99.80777,172.51702
				L100.52068,172.75465L101.23359,172.99227L101.70887,173.2299L102.18414,173.2299L102.65942,173.2299L103.37233,172.99227L104.32288,172.75465
				L105.03579,172.75465L105.98634,172.51702L106.46162,172.27939L107.17453,172.27939L107.88744,172.27939L108.36272,172.51702
				L108.83799,172.51702L109.31327,172.27939L109.78854,172.27939L110.02618,172.27939L110.50146,172.51702L110.97673,172.75465
				L111.45201,172.99227L111.92728,172.99227L112.16492,172.99227L112.40256,172.99227L112.64019,172.75465L112.87783,172.75465
				L112.87783,172.51702L112.87783,172.27939L112.87783,172.04177L112.87783,171.80414L112.64019,171.56651L112.16492,171.09126
				L111.92728,170.616L111.68964,170.616L111.45201,170.37838L111.45201,169.90312L110.97673,169.42787L110.73909,168.95262L110.50146,168.71499
				L110.50146,168.47736L110.73909,168.23974L110.97673,168.00211L111.21437,167.76448L111.45201,167.52686L111.92728,167.28923
				L112.40256,167.28923L112.87783,167.0516L112.87783,166.81398L112.87783,166.57635L112.87783,166.1011L112.64019,165.86347L112.40256,165.38822
				L111.92728,165.15059L111.68964,164.67534L111.45201,164.43771L111.21437,163.96246L111.21437,163.4872L110.97673,163.01195L
				110.97673,162.5367L110.97673,162.29907L110.97673,162.06144L110.97673,161.82382L110.97673,161.58619L110.97673,161.34856L110.97673,161.11094
				L110.97673,160.87331L110.73909,160.39805L110.73909,160.16043L110.50146,159.68517L110.50146,159.44755L110.73909,159.44755
				L110.73909,159.20992L110.73909,158.97229L110.73909,158.73467L110.73909,158.49704L110.97673,158.25941L111.21437,158.25941
				L111.21437,158.02179L111.45201,158.02179L111.68964,157.78416L111.92728,157.54653L112.16492,157.54653L112.40256,157.30891
				L112.64019,156.83365L112.87783,156.59603L113.11547,156.3584L113.35311,156.12077L113.82838,156.12077L114.06602,156.12077L
				114.30366,156.12077L114.54129,156.12077L114.77893,156.3584L115.01657,156.3584L115.25421,156.3584L115.72948,156.3584L115.96712,156.12077
				L116.20476,156.12077L116.68003,155.88315L116.91767,155.64552L117.39294,155.17027L117.63058,154.93264L118.10586,154.45739
				L118.34349,153.98213L118.34349,153.50688L118.58113,153.26925L118.81877,152.794L119.05641,152.55637L119.29404,152.08112L119.53168,151.60587
				L119.53168,151.36824L119.53168,150.89298L119.53168,150.41773L119.76932,150.1801L120.00696,149.94248L120.24459,149.70485L
				120.48223,149.70485L120.95751,149.46722L121.19514,149.2296L121.43278,148.99197L121.43278,148.75434L121.43278,148.51672L121.19514,148.27909
				L120.95751,148.04146L120.71987,147.80384L120.48223,147.32858L120.48223,147.09096L120.71987,146.6157L120.95751,146.37808L
				121.19514,146.14045L121.67042,145.6652L121.90806,145.42757L122.1457,144.95232L122.38333,144.47706L122.38333,144.00181L122.1457,143.76418
				L122.1457,143.28893L122.1457,143.0513L122.38333,142.81368L122.62097,142.57605L122.85861,142.57605L123.09625,142.57605L123.57152,142.81368
				L123.80916,142.81368L124.52207,142.81368L124.75971,143.0513L125.47262,143.0513L125.71026,143.0513L126.18553,142.81368L126.66081,142.57605
				L126.89845,142.57605L127.13608,142.33842L127.37372,141.86317L127.61136,141.62554L127.849,140.91266L128.08663,140.43741L128.56191,139.96215
				L129.27482,139.4869L129.51246,139.24927L130.22537,138.53639L130.70065,138.29877L131.41356,137.82351L132.12647,137.58589L
				132.83938,137.34826L133.78993,137.11063L134.50285,137.11063L134.74048,137.34826L135.21576,137.58589L135.4534,137.82351L135.4534,138.29877
				L135.69103,139.01165L135.69103,139.4869L135.69103,139.72453L135.92867,140.19978L136.16631,140.43741L136.64158,140.43741L
				137.11686,140.43741L137.59214,140.43741L138.30505,140.19978L138.78032,140.19978L139.49324,140.19978L139.96851,139.96215L
				140.44379,139.96215L140.91906,139.72453L141.39434,139.4869L141.86961,139.24927L142.34489,139.24927L142.58252,139.24927L143.0578,139.24927
				L143.53307,139.24927L144.00835,139.4869L144.48362,139.24927L145.19654,139.24927L145.43417,139.01165L145.90945,138.53639L
				146.14709,138.06114L146.38472,137.58589L146.38472,136.87301L146.38472,136.63538L146.62236,136.16013L147.09764,135.9225L147.33527,135.68487
				L147.57291,135.44725L147.81055,135.44725L148.28582,135.44725L148.52346,135.68487L148.99874,135.68487L149.47401,136.16013
				L149.94929,136.39775L150.42456,136.39775L151.13747,136.39775L151.61275,136.39775L152.08802,136.39775L152.5633,136.39775L
				153.03858,136.39775L153.51385,135.9225L153.98913,135.44725L154.4644,134.97199L154.70204,134.49674L154.93968,134.02149L155.17731,133.78386
				L155.17731,133.07098L155.17731,132.83335L155.17731,132.59573L155.17731,132.12047L155.41495,131.64522L155.65259,131.40759
				L156.12786,131.16996L156.60314,131.16996L156.84078,131.16996L157.31605,130.93234L157.79133,130.93234L158.2666,130.69471L
				158.97951,130.69471L159.21715,130.69471L159.69243,130.45708L160.40534,129.98183L160.88061,129.50658L161.59353,129.26895L
				162.30644,128.7937L162.78171,128.7937L163.01935,128.7937L163.49463,129.03132L163.73226,129.03132L164.20754,129.26895L164.68281,129.50658
				L165.39573,129.50658L165.871,129.50658L166.34628,129.50658L166.58391,129.26895L166.82155,129.03132L167.05919,128.55607L167.05919,128.08082
				L167.05919,127.60556L167.05919,127.13031L167.29683,126.89268L167.29683,126.41743L167.53446,126.1798L167.7721,125.70455L168.00974,125.2293
				L168.24738,124.75404L168.48502,124.51642L168.96029,124.27879L169.19793,123.80354L169.91084,123.32828L170.62375,123.09066
				L171.33667,122.85303L171.81194,122.85303L172.52485,122.85303L173.00013,123.09066L173.71304,123.32828L174.18832,123.32828
				L175.13887,123.56591L175.85178,123.80354L176.08942,123.80354L176.32705,124.27879L176.80233,124.75404L177.03997,125.2293L
				177.51524,125.46692L177.99052,125.46692L178.46579,125.46692L178.70343,125.2293L179.1787,124.75404L179.41634,124.04116L179.65398,123.56591
				L180.12925,123.32828L180.60453,123.09066L181.0798,122.6154L181.79272,122.37778L182.50563,122.14015L183.21854,121.6649L183.69382,121.42727
				L183.93146,120.95201L184.40673,120.23913L184.88201,119.76388L185.35728,119.52625L186.07019,119.28863L186.78311,119.28863
				L187.49602,119.28863L188.20893,119.051L188.92184,118.81337L189.63476,118.81337L189.87239,118.57575L190.34767,118.10049L190.58531,117.86287
				L190.82294,117.38761L191.06058,116.91236L191.53586,116.43711L192.01113,116.19948L192.48641,116.19948L192.96168,116.19948
				L193.43696,116.43711L193.91223,116.91236L194.38751,117.14999L194.86278,117.38761L195.57569,117.14999L196.05097,117.14999
				L196.52624,116.67473L196.76388,116.19948L197.00152,115.4866L197.00152,114.77372L197.00152,114.06084L196.76388,113.58559L
				196.76388,113.11033L196.76388,112.39745L197.00152,111.68457L197.47679,111.20932L198.18971,110.97169L198.90262,110.73406L
				199.61553,110.49644L200.56608,110.25881L201.04136,110.02118L201.75427,110.02118L202.22955,109.78356L202.46718,109.3083L202.94246,108.83305
				L202.94246,108.3578L202.94246,107.64492L202.94246,107.40729L202.70482,106.93204L202.22955,106.21916L201.51663,105.26865L
				201.279,104.55577L201.04136,103.84289L201.04136,103.36764L201.04136,102.89238L201.279,102.65476L201.75427,102.1795L202.22955,101.94188
				L202.46718,101.70425L202.70482,101.46662L203.1801,100.99137L203.65537,100.27849L204.13065,99.56561L204.36828,98.6151L204.60592,97.90222
				L204.84356,97.42697L205.0812,96.71409L205.55647,96.23883L206.03175,95.52595L206.74466,95.0507L206.9823,94.81307L207.45757,94.57545
				L207.69521,94.10019L207.93285,93.62494L208.40812,93.14969L208.8834,92.43681L209.12103,91.72392L209.12103,91.4863L209.35867,90.77342
				L209.83395,90.29816L210.54686,89.82291L210.7845,89.58528L211.02213,89.58528L211.49741,89.34766L212.21032,89.11003L212.6856,89.11003
				L212.92323,88.8724L213.39851,88.8724L213.87378,88.8724L214.5867,88.8724L215.06197,88.8724L215.53725,88.8724L216.25016,88.8724
				L216.96307,88.8724L217.43835,88.8724L218.15126,88.63478L218.62654,88.39715L219.10181,88.15952L219.81472,87.9219L220.76527,87.68427
				L221.47819,87.20902L221.95346,86.97139L222.66637,86.73376L222.90401,86.49614L223.14165,85.78326L223.61692,84.3575L224.0922,83.88224
				L224.56747,82.93174L225.04275,82.21886L225.51802,81.98123L225.9933,81.50597L226.46857,81.03072L226.94385,80.31784L227.65676,79.84259
				L228.13204,79.12971L228.60731,78.65445L229.55786,77.46632L230.27077,76.27819L230.74605,75.80293L231.22133,75.32768L231.6966,74.85243
				L232.40951,74.37717L232.88479,73.66429L233.5977,72.71379L234.07298,72.0009L235.26116,70.57514L236.21171,69.38701L236.68699,68.4365
				L237.16226,67.72362L237.16226,67.24837L236.92463,66.53549L236.44935,65.34736L236.21171,64.39685L235.97408,63.20872L236.21171,62.02058
				L236.44935,61.3077L236.92463,60.59482L237.3999,60.11957L237.87518,59.40669L238.58809,58.45618L239.06336,57.7433L239.53864,57.26805
				L239.53864,56.55517L239.53864,56.07991L239.301,55.36703L239.06336,54.89178L238.58809,54.41653L238.35045,54.1789L238.11281,53.46602
				L238.11281,52.99077L238.11281,52.51551L238.58809,52.04026L238.82573,51.80263L239.301,51.565L239.53864,51.32738L240.01391,51.32738
				L240.25155,51.08975L240.72683,51.08975L241.43974,51.32738L241.91501,51.80263L242.62793,52.27788L243.1032,52.75314L243.57848,53.46602
				L243.81611,53.94127L244.29139,54.65415L244.76666,55.36703L245.47958,55.60466L246.19249,55.84229L246.9054,55.84229L247.38068,55.84229
				L248.09359,55.60466L248.8065,55.36703L249.75705,54.89178L250.46997,54.1789L251.18288,53.70365L251.89579,52.99077L253.32162,51.32738
				L254.03453,50.13924L254.98508,48.95111L255.69799,48.23823L255.93563,48.0006L256.88618,47.0501L257.83673,46.57484L259.02492,45.86196
				L260.92602,45.38671L262.58948,44.67383L264.01531,44.19858L264.96586,43.96095L266.15404,43.24807L267.34223,42.53519L268.76806,41.58468
				L269.48097,41.10943L269.95624,40.8718L270.66916,40.39655L271.14443,40.15892L272.09498,39.92129L273.04553,39.44604L273.75844,38.97079
				L274.23372,38.49553L275.42191,38.02028L276.13482,37.54503L276.61009,37.06977L277.08537,36.59452L277.32301,36.11927L277.56065,35.64401
				L277.79828,34.93113L278.03592,34.45588L278.5112,33.743L278.74883,33.50537L279.46175,33.26775L280.17466,32.31724L280.64993,31.1291
				L281.12521,30.1786L281.12521,29.46572L281.12521,28.51521L281.36285,28.03996L281.60048,27.32708L282.07576,27.08945L282.55103,26.6142
				L283.02631,26.37657L283.73922,26.13894L284.92741,25.42606L286.1156,24.95081L286.82851,24.47556L288.0167,23.52505L288.96725,22.81217
				L289.9178,22.57454L291.10598,22.57454L291.8189,22.33691L292.05653,22.33691L293.48236,21.86166L295.38346,20.91115L296.80929,20.19827
				L299.4233,18.53489L677.9799,188.20038"/>
		</g>
	</g>
</svg>
