<?xml version="1.0" encoding="utf-8" standalone="no"?>
<!-- Creator: Esri ArcMap 10.8.0.12790 -->
<!DOCTYPE svg PUBLIC "-//W3C//DTD SVG 1.1//EN"  "http://www.w3.org/Graphics/SVG/1.1/DTD/svg11.dtd">
<svg width="774.73701pt" height="404.24882pt" viewBox="0 0 774.73701 404.24882" enable-background="new 0 0 774.73701 404.24882"
	version="1.1" xmlns="http://www.w3.org/2000/svg" xmlns:xlink="http://www.w3.org/1999/xlink" >
	<g id="Layers">
		<g id="Ngong">
			<clipPath id="SVG_CP_1">
				<path d="M0,404.24882L0,0L774.73701,0L774.73701,404.24882L0,404.24882z"/>
			</clipPath>
			<path clip-path="url(#SVG_CP_1)" fill="none" stroke="#000000" stroke-width="0.47528" stroke-miterlimit="10" stroke-linecap="round" stroke-linejoin="round" d="
				M395.19123,25.66369L399.23106,31.36673L404.69673,37.3074L411.11294,41.82231L419.19262,46.09959L427.27229,48.0006L442.4811,48.23823
				L461.01682,47.52535L475.03744,45.86196L482.87948,46.09959L498.32592,43.01044L508.06906,39.20841L515.43582,36.11927L528.26825,29.22809
				L528.03061,32.07961L528.03061,34.45588L529.45644,36.35689L531.1199,37.78265L532.07045,39.20841L532.30809,40.15892L533.25864,41.10943
				L535.87265,41.34705L538.7243,41.82231L541.33831,42.77281L542.76414,43.96095L543.95233,45.14908L543.95233,46.57484L544.90288,48.23823
				L546.80398,50.37687L548.94271,52.75314L550.36854,54.1789L552.032,56.07991L553.69546,57.98093L555.12129,59.40669L556.30948,60.59482
				L557.26003,61.54533L557.49767,62.25821L557.49767,63.9216L558.21058,65.82261L559.6364,67.01074L557.26003,69.62464L549.65563,77.70395
				L534.68446,87.9219L525.65423,96.95171L516.86165,104.08052L513.53472,109.3083L510.68307,114.06084L510.68307,119.76388L508.78197,129.50658
				L506.16796,139.72453L504.50449,148.99197L502.36576,156.59603L499.51411,161.58619L498.08828,166.57635L494.28608,172.99227
				L489.53333,179.88345L487.15695,182.9726L484.54294,187.96276L481.45365,192.24004L478.12673,197.46783L473.84925,203.4085L470.9976,209.58679
				L465.05666,217.6661L461.72974,222.89389L457.21462,228.59693L448.1844,243.56742L445.80802,247.8447L437.01543,260.91417L434.8767,264.95382
				L433.68851,266.61721L424.42064,279.92431L420.14317,285.1521L411.11294,298.45919L408.02365,303.44936L397.5676,318.65747L394.24068,322.4595
				L384.02226,338.14286L381.64589,341.46964L371.18984,357.86588L370.00165,360.47978L359.07032,374.49975L355.7434,377.35127L
				354.07993,379.96517L352.41647,382.34144L350.51537,385.66821L349.80246,385.90584L348.13899,384.95533L347.18844,384.00482L
				346.47553,383.05432L345.76262,382.10381L344.09916,380.67805L343.38624,380.2028L342.19806,379.96517L341.00987,379.48992L340.05932,379.25229
				L339.3464,379.01466L338.39585,378.06416L337.20767,377.11365L336.49475,375.92551L335.78184,375.45026L334.83129,374.49975L
				333.88074,373.07399L333.16783,373.07399L331.742,372.83637L331.02909,372.12349L329.8409,371.41061L329.36563,370.69773L328.41508,370.22247
				L327.46453,369.98485L326.51398,369.74722L325.56343,369.27197L324.37524,368.79671L322.94941,368.55909L322.2365,368.08383L
				321.52359,367.84621L320.3354,367.60858L319.14721,367.37095L318.19666,366.8957L317.48375,365.94519L317.72139,364.99468L317.24611,364.99468
				L316.05793,364.99468L315.34501,364.51943L314.39446,364.04418L313.68155,363.3313L313.20628,362.14316L312.25573,361.19266L
				311.78045,360.47978L311.06754,359.29164L310.35463,358.10351L309.87935,357.62825L309.87935,356.67775L309.40408,355.72724L
				309.64171,355.25199L310.11699,355.25199L310.35463,354.53911L309.87935,353.82623L309.16644,352.87572L309.40408,352.63809L
				308.9288,351.68759L308.21589,350.73708L308.21589,349.78657L308.21589,348.59844L307.50297,347.88556L306.07715,347.4103L306.07715,346.22217
				L305.36424,344.79641L304.41369,344.32116L303.46314,344.32116L302.27495,343.8459L301.08676,343.60828L300.37385,343.8459L298.71039,343.8459
				L297.28456,343.37065L296.09637,342.65777L294.67055,342.65777L293.72,342.65777L293.48236,342.18252L293.72,341.23201L293.72,340.51913
				L293.95764,339.80625L293.24472,339.09337L292.76945,338.38049L292.53181,337.19235L292.05653,335.76659L292.53181,335.29134
				L292.05653,334.57846L291.34362,333.62795L291.10598,332.67745L290.39307,332.20219L289.68016,331.96457L288.25433,331.48931
				L287.30378,330.77643L286.1156,330.77643L284.92741,331.25169L283.73922,331.48931L283.02631,331.48931L282.55103,330.77643L
				282.78867,330.06355L282.07576,329.11305L281.36285,328.40017L280.17466,327.21203L279.46175,326.26152L278.5112,325.78627L277.32301,325.78627
				L277.08537,326.73678L276.13482,327.44966L275.89718,328.63779L274.70899,329.35067L273.75844,329.11305L272.80789,329.35067
				L271.85734,329.82593L270.90679,329.35067L270.19388,330.06355L269.71861,330.77643L269.24333,331.48931L268.29278,331.72694
				L267.57987,331.48931L266.15404,331.72694L264.49058,331.72694L263.54003,331.25169L262.35184,330.30118L261.40129,329.82593
				L260.45074,329.5883L259.02492,330.06355L257.59909,330.77643L255.69799,331.25169L254.98508,330.77643L254.03453,329.82593L
				252.84634,328.63779L252.13343,327.44966L251.18288,326.73678L250.23233,325.78627L249.51942,326.49915L248.8065,326.9744L248.09359,326.73678
				L247.38068,326.26152L246.9054,325.54864L246.9054,323.88526L246.43013,322.93475L246.43013,322.22187L245.95485,321.50899L245.24194,321.03374
				L244.52903,320.79611L243.57848,320.79611L242.62793,320.32086L241.91501,319.37035L241.67738,318.41984L241.91501,317.70696
				L242.15265,317.46933L241.67738,316.75645L240.96446,315.80595L240.48919,315.56832L239.77628,315.09307L239.06336,314.38019
				L238.35045,313.42968L237.87518,312.24155L237.3999,310.81579L237.16226,310.57816L236.68699,309.39003L235.97408,308.43952L
				235.26116,307.96426L234.54825,308.20189L233.83534,308.20189L233.5977,307.48901L233.83534,307.01376L233.83534,306.77613L233.36006,306.30088
				L232.64715,305.82562L232.40951,305.11274L231.6966,304.39986L231.22133,304.63749L230.74605,305.35037L230.27077,305.588L229.32022,305.35037
				L228.13204,304.63749L227.8944,303.92461L226.94385,302.49885L226.70621,301.07309L226.94385,300.12258L226.23094,299.88496L
				225.28039,299.4097L224.80511,298.93445L224.32984,297.98394L224.32984,297.50869L224.80511,297.03343L225.04275,295.37005L224.0922,294.41954
				L223.61692,293.94429L223.14165,293.23141L222.42874,292.75615L221.71582,292.51853L220.76527,292.2809L219.33945,292.2809L218.86417,291.33039
				L218.86417,289.90463L218.86417,288.00362L218.62654,287.52836L217.91362,286.81548L217.43835,286.81548L217.20071,287.29074
				L217.20071,288.24124L217.43835,289.19175L216.72544,289.42938L216.25016,288.95412L215.77489,287.76599L215.53725,286.1026L
				215.29961,285.1521L217.91362,277.78567L221.95346,259.25078L227.41912,240.7159L231.22133,222.89389L234.07298,204.12138L237.87518,187.4875
				L242.15265,170.616L244.76666,152.794L245.47958,146.6157L247.38068,133.78386L247.14304,132.12047L248.09359,115.4866L249.04414,110.49644
				L249.28178,97.42697L258.312,85.54563L266.15404,80.31784L270.66916,73.90192L271.61971,65.58498L273.52081,53.70365L276.37246,49.66399
				L277.79828,49.66399L279.93702,48.95111L281.12521,48.47586L282.07576,47.52535L283.50158,45.38671L285.64032,43.4857L286.59087,42.05993
				L287.30378,40.63417L288.72961,38.97079L290.39307,37.78265L292.29417,36.11927L293.95764,34.93113L295.6211,33.98063L297.04692,33.26775
				L298.94802,32.55486L302.27495,32.07961L303.70077,31.84198L306.07715,32.07961L307.50297,32.79249L309.16644,34.21825L311.06754,35.88164
				L311.30518,36.35689L313.68155,38.02028L315.82029,39.44604L317.00848,39.92129L317.95903,40.15892L319.62249,39.92129L321.04831,39.44604
				L321.76123,38.73316L321.99886,38.25791L322.71178,37.06977L322.71178,36.59452L323.89997,34.45588L324.85052,33.03012L326.51398,31.36673
				L328.89035,29.46572L329.60327,29.22809L330.31618,28.75284L330.79145,28.75284L331.97964,28.99046L333.16783,29.94097L335.06893,31.84198
				L336.73239,33.03012L337.68294,33.743L342.19806,35.16876L345.28734,35.64401L346.23789,35.64401L347.42608,34.69351L348.13899,33.743
				L349.56482,29.46572L350.51537,27.08945L351.46592,25.66369L353.84229,24.71318L355.50576,24.71318L359.5456,25.66369L365.96181,28.03996
				L368.57582,28.75284L371.66511,29.22809L373.80385,29.46572L376.41786,29.22809L376.89314,28.99046L376.89314,28.03996L376.89314,26.6142
				L376.89314,24.47556L377.36841,23.28742L378.31896,21.86166L379.74479,19.72302L381.17061,19.01014L383.54699,18.53489L384.97281,18.53489
				L385.92336,19.48539L386.87391,20.91115L388.0621,22.57454L390.20084,24.47556L392.10194,25.42606L393.52776,25.90132L395.19123,25.66369
				"/>
		</g>
	</g>
</svg>
