<?xml version="1.0" encoding="utf-8" standalone="no"?>
<!-- Creator: Esri ArcMap 10.8.0.12790 -->
<!DOCTYPE svg PUBLIC "-//W3C//DTD SVG 1.1//EN"  "http://www.w3.org/Graphics/SVG/1.1/DTD/svg11.dtd">
<svg width="774.73701pt" height="404.24882pt" viewBox="0 0 774.73701 404.24882" enable-background="new 0 0 774.73701 404.24882"
	version="1.1" xmlns="http://www.w3.org/2000/svg" xmlns:xlink="http://www.w3.org/1999/xlink" >
	<g id="Layers">
		<g id="Pitoa">
			<clipPath id="SVG_CP_1">
				<path d="M0,404.24882L0,0L774.73701,0L774.73701,404.24882L0,404.24882z"/>
			</clipPath>
			<path clip-path="url(#SVG_CP_1)" fill="none" stroke="#000000" stroke-width="0.47528" stroke-miterlimit="10" stroke-linecap="round" stroke-linejoin="round" d="
				M623.32326,91.01104L624.74909,92.19918L624.74909,94.10019L624.74909,94.81307L623.5609,98.37747L622.61035,105.7439L620.70925,109.78356
				L620.70925,114.06084L619.52106,118.10049L616.90705,121.42727L616.19414,125.46692L618.09524,129.03132L618.57051,132.83335
				L617.61996,136.63538L614.29304,140.67503L609.06501,143.0513L607.16391,146.6157L609.06501,152.794L606.92627,155.40789L604.5499,162.77432
				L603.59935,168.47736L601.22297,172.51702L600.98533,175.13091L602.88643,179.40819L603.12407,182.73497L601.22297,186.06174
				L602.6488,190.57665L606.21336,190.1014L607.16391,191.28953L605.73809,193.6658L605.73809,198.18071L608.11446,205.54714L607.40155,208.63628
				L609.77792,212.43831L610.01556,214.57695L609.06501,216.24034L604.78754,218.85423L603.83698,220.75525L605.26281,221.94338
				L604.5499,224.08202L601.22297,228.12168L600.51006,230.73557L601.22297,233.11184L600.7477,235.72573L597.65841,238.102L595.75731,240.47827
				L596.23258,243.09216L598.60896,245.46843L603.12407,247.36944L606.21336,249.27046L608.58974,254.49825L609.54029,258.5379L
				608.11446,262.57756L606.68864,268.04297L603.83698,271.36975L598.60896,273.27076L595.51967,275.4094L595.0444,276.59753L595.75731,278.49855
				L597.42077,280.39956L597.18313,282.5382L595.0444,284.43922L591.95511,284.20159L589.10346,282.5382L587.67763,281.5877L586.25181,282.30058
				L584.35071,284.43922L581.97433,288.24124L580.54851,289.90463L577.69686,291.09277L575.55812,292.2809L573.89466,295.37005L
				567.47844,297.50869L564.86443,299.64733L561.77514,300.36021L558.68585,302.26122L556.54711,304.87512L553.69546,312.00392L
				551.55673,320.32086L550.36854,321.74662L543.47705,324.36051L538.96194,323.41L536.11029,323.41L529.45644,321.74662L525.89187,321.50899
				L524.46605,322.22187L523.5155,323.17238L523.99077,324.36051L528.26825,325.78627L528.74352,327.21203L527.79297,327.68728L
				524.22841,330.06355L520.18857,336.47947L517.57456,339.56862L516.86165,344.55878L515.9111,346.22217L513.53472,347.88556L511.15835,348.83607
				L502.84103,349.78657L498.56356,350.97471L495.94954,354.06385L494.04844,356.67775L490.0086,358.81639L487.63223,361.66791L
				486.44404,362.61842L483.83003,361.66791L478.12673,361.66791L476.93854,360.00452L475.98799,357.86588L475.98799,356.67775L
				476.22563,355.72724L474.7998,353.35097L473.37398,353.82623L471.71051,353.35097L470.52233,352.40047L469.57178,352.16284L468.62123,352.87572
				L468.38359,354.30148L468.85886,358.10351L468.62123,360.47978L467.67068,361.66791L466.00721,362.14316L464.58139,363.09367
				L462.68029,364.2818L461.4921,366.65807L459.11572,367.60858L455.31352,366.18282L453.41242,367.13332L450.79841,371.17298L447.47148,370.69773
				L444.61983,369.50959L442.71873,365.46994L442.95637,362.61842L439.86708,361.66791L433.92615,363.3313L427.74757,365.70756L
				425.13356,368.32146L422.04427,369.98485L421.33136,371.41061L422.28191,372.59874L426.32174,372.36111L426.79702,374.97501L
				426.55938,376.87602L423.70773,379.01466L422.04427,383.29194L419.90553,385.66821L416.81624,385.90584L411.11294,383.29194L
				407.78602,380.91568L405.64728,380.91568L400.18161,384.00482L396.61705,382.34144L393.05249,378.06416L389.72556,376.63839L
				386.63628,377.35127L384.49754,376.63839L382.59644,373.07399L378.08132,372.36111L376.18022,373.54925L371.90275,373.78687L
				368.10055,368.79671L365.2489,369.27197L364.06071,370.4601L364.06071,374.26213L362.63488,376.40077L360.73378,376.16314L357.88213,373.07399
				L355.98103,373.54925L354.55521,375.21263L354.31757,379.01466L352.17883,380.44042L347.66372,379.25229L343.14861,379.48992
				L341.24751,378.77704L339.3464,376.16314L338.63349,372.59874L335.30657,371.41061L331.97964,370.69773L329.12799,371.64823L
				328.41508,372.12349L326.98925,373.54925L326.0387,374.0245L325.08815,373.78687L324.37524,373.78687L323.42469,374.73738L321.76123,372.59874
				L319.38485,369.74722L317.00848,369.74722L313.68155,368.79671L312.49336,368.55909L308.9288,369.03434L307.26534,368.55909L
				306.07715,368.08383L305.1266,366.8957L305.1266,365.70756L305.36424,364.99468L305.36424,364.04418L304.88896,362.14316L304.88896,360.47978
				L304.65132,359.52927L305.1266,358.57876L305.60187,357.86588L307.26534,356.91537L309.87935,355.48961L310.59226,355.01436L
				310.8299,354.30148L310.59226,353.5886L309.87935,352.87572L307.97825,351.44996L307.50297,350.73708L304.17605,347.64793L302.98786,345.27166
				L302.75022,343.8459L302.98786,342.18252L303.2255,339.56862L302.51259,338.61812L299.18566,337.66761L295.6211,336.7171L292.53181,336.24185
				L287.30378,334.34083L283.26395,331.25169L280.4123,328.16254L277.79828,325.78627L273.52081,325.54864L270.19388,325.54864L
				265.20349,324.59814L260.45074,322.22187L258.312,320.79611L259.97547,319.13272L260.92602,317.70696L261.63893,316.04357L262.58948,315.33069
				L262.82712,315.09307L264.01531,314.38019L264.49058,313.66731L264.96586,313.19205L265.20349,312.95443L265.44113,312.7168L
				265.44113,311.76629L265.20349,311.29104L264.49058,310.34053L264.01531,309.86528L263.54003,309.39003L262.82712,308.91477L
				262.35184,308.67715L261.87657,308.67715L261.40129,308.67715L260.68838,308.67715L260.2131,308.91477L259.26255,309.39003L256.88618,310.10291
				L255.93563,309.86528L255.22272,309.86528L254.27217,309.86528L254.03453,309.86528L253.32162,309.62765L252.6087,309.62765L
				252.13343,309.62765L251.65815,309.86528L251.42052,310.10291L251.18288,310.81579L250.7076,311.29104L250.46997,311.52867L249.51942,311.76629
				L248.8065,311.76629L248.56887,312.00392L248.33123,312.24155L247.61832,312.24155L247.38068,312.24155L246.9054,312.00392L246.9054,311.76629
				L246.66777,311.05341L246.43013,310.10291L245.95485,309.62765L245.71721,309.39003L245.95485,307.96426L245.71721,307.72664
				L245.71721,307.25138L244.52903,307.01376L243.81611,306.5385L243.1032,306.30088L242.86556,306.06325L242.39029,306.30088L240.72683,307.01376
				L240.48919,307.72664L240.25155,307.96426L239.77628,308.43952L239.301,308.91477L239.06336,309.1524L238.58809,309.1524L238.35045,309.1524
				L236.92463,308.91477L236.21171,308.67715L235.73644,308.20189L234.54825,308.43952L234.31061,308.43952L234.07298,308.67715
				L233.36006,309.1524L231.45896,310.10291L230.74605,310.81579L230.03314,311.05341L229.55786,311.52867L228.60731,312.24155L
				225.9933,310.81579L229.55786,305.588L234.31061,301.07309L229.55786,297.27106L216.01252,292.2809L210.30922,291.56802L196.52624,289.66701
				L177.99052,290.14226L168.00974,281.82532L164.92045,278.49855L161.35589,273.50839L160.64298,270.65687L160.64298,270.18161
				L160.64298,269.94399L160.64298,268.51822L160.64298,264.95382L160.64298,261.86468L160.64298,261.38942L160.64298,260.20129
				L160.64298,259.96366L160.64298,259.72604L160.40534,259.48841L160.1677,259.25078L158.50424,257.34977L158.02896,256.63689L
				157.55369,256.39926L157.31605,256.16163L157.07841,256.16163L156.84078,256.16163L156.12786,256.39926L155.65259,256.39926L
				154.93968,256.39926L153.98913,256.16163L153.51385,256.16163L153.03858,256.16163L152.32566,256.16163L152.08802,256.16163L
				151.61275,255.92401L151.37511,255.68638L151.13747,254.9735L150.6622,254.49825L150.42456,254.02299L150.18692,253.54774L151.61275,253.07249
				L152.5633,252.12198L152.08802,250.22097L152.32566,248.55758L155.65259,246.65656L156.84078,243.80504L157.31605,240.24064L
				158.50424,237.62675L159.93006,233.82472L160.64298,232.39896L160.88061,230.9732L166.10864,229.54744L167.53446,228.59693L168.96029,227.17117
				L170.14848,226.69592L171.33667,227.4088L172.76249,227.17117L174.18832,225.27016L173.23777,223.13152L172.76249,219.56711L
				172.76249,218.14135L174.66359,217.19085L175.13887,216.47797L173.23777,215.52746L173.23777,214.81458L173.4754,214.1017L175.13887,213.38882
				L175.3765,212.20069L175.61414,211.25018L177.51524,209.82442L173.95068,207.21052L172.28722,204.359L171.5743,201.03223L172.04958,196.99257
				L172.76249,194.85393L171.81194,193.42817L172.52485,190.57665L173.00013,185.58649L173.23777,182.49734L174.66359,181.54684
				L174.90123,180.3587L176.80233,180.59633L178.70343,178.93294L180.84217,176.31905L182.03035,174.41803L180.60453,172.99227L
				180.36689,170.616L180.36689,169.90312L180.60453,168.47736L180.12925,166.33872L181.31744,164.43771L182.50563,161.58619L182.26799,159.68517
				L182.26799,158.02179L182.74327,156.59603L182.50563,154.69501L180.84217,150.65536L181.79272,148.75434L182.74327,145.42757
				L184.40673,145.42757L187.25838,145.42757L188.44657,144.00181L187.97129,141.86317L186.30783,137.82351L187.02074,134.25911
				L189.63476,130.93234L190.34767,128.55607L191.77349,126.1798L193.43696,124.51642L196.52624,121.90252L197.23916,120.00151L
				197.00152,117.38761L196.28861,114.77372L197.23916,112.63508L200.09081,112.15983L202.22955,110.49644L204.60592,108.59542L
				204.60592,105.50628L206.26938,104.55577L209.12103,102.89238L212.21032,101.46662L215.53725,100.27849L217.20071,98.37747L218.86417,96.23883
				L221.24055,94.81307L225.9933,93.14969L230.03314,92.19918L234.31061,90.53579L237.16226,87.9219L238.58809,86.02088L240.01391,81.98123
				L240.96446,79.36733L240.01391,78.89208L263.06476,68.91176L285.16505,60.35719L305.36424,52.27788L350.99064,34.45588L391.38903,22.57454
				L406.83547,18.53489L410.16239,24.0003L414.43987,28.27758L418.47971,29.46572L422.51954,32.55486L426.79702,38.73316L435.11433,48.23823
				L443.19401,57.03042L447.23385,67.486L451.27369,78.89208L456.50171,88.63478L459.591,94.81307L464.10611,103.36764L481.92893,96.23883
				L494.76135,90.53579L494.76135,93.38731L499.03883,95.0507L500.70229,96.95171L501.65284,100.99137L501.17757,106.21916L506.40559,108.3578
				L509.25724,109.78356L512.34653,113.34796L514.24763,115.72423L518.52511,112.15983L520.42621,109.54593L522.08967,105.7439L
				525.89187,106.69441L528.74352,107.88254L528.98116,107.88254L533.25864,108.12017L536.8232,106.69441L541.81359,104.31814L551.31909,98.6151
				L555.12129,95.0507L559.39877,93.86257L563.67624,95.76358L566.76553,95.28833L570.56773,97.18934L575.55812,96.95171L580.07323,97.66459
				L582.44961,95.76358L584.35071,94.10019L588.62818,92.91206L594.80676,93.62494L600.98533,92.91206L607.63919,92.19918L615.9565,91.01104
				L623.32326,91.01104"/>
		</g>
	</g>
</svg>
