<?xml version="1.0" encoding="utf-8" standalone="no"?>
<!-- Creator: Esri ArcMap 10.8.0.12790 -->
<!DOCTYPE svg PUBLIC "-//W3C//DTD SVG 1.1//EN"  "http://www.w3.org/Graphics/SVG/1.1/DTD/svg11.dtd">
<svg width="774.73701pt" height="404.24882pt" viewBox="0 0 774.73701 404.24882" enable-background="new 0 0 774.73701 404.24882"
	version="1.1" xmlns="http://www.w3.org/2000/svg" xmlns:xlink="http://www.w3.org/1999/xlink" >
	<g id="Layers">
		<g id="Poli">
			<clipPath id="SVG_CP_1">
				<path d="M0,404.24882L0,0L774.73701,0L774.73701,404.24882L0,404.24882z"/>
			</clipPath>
			<path clip-path="url(#SVG_CP_1)" fill="none" stroke="#000000" stroke-width="0.47528" stroke-miterlimit="10" stroke-linecap="round" stroke-linejoin="round" d="
				M206.26938,202.93324L207.69521,202.22036L208.17048,201.03223L208.40812,198.65596L209.59631,196.75495L209.59631,194.14105
				L209.83395,191.05191L209.83395,189.62614L212.21032,187.72513L212.6856,185.58649L214.34906,183.9231L213.63615,182.49734L214.34906,180.3587
				L217.43835,177.50718L218.86417,174.18041L220.05236,170.85363L221.00291,169.42787L222.90401,168.47736L223.14165,167.0516L
				221.95346,165.86347L220.76527,164.67534L219.81472,162.5367L220.29,161.11094L222.90401,160.39805L225.04275,159.44755L228.84495,158.73467
				L238.35045,157.07128L246.9054,154.93264L248.56887,154.21976L249.04414,152.794L248.56887,151.13061L250.7076,149.70485L251.89579,148.51672
				L252.13343,146.85333L252.6087,144.47706L250.7076,143.0513L251.65815,139.24927L253.32162,130.21946L254.74744,125.70455L256.17327,123.80354
				L259.73783,122.37778L263.77767,121.6649L270.43152,121.6649L280.4123,121.90252L289.9178,121.90252L295.14582,121.42727L297.5222,117.38761
				L299.18566,115.24897L302.98786,114.53609L307.0277,112.87271L310.35463,113.34796L324.37524,117.86287L326.98925,119.28863L
				329.60327,119.76388L331.742,117.86287L333.16783,113.58559L336.73239,106.93204L340.77223,106.21916L343.62388,105.26865L346.47553,95.76358
				L349.32718,86.97139L352.17883,84.83275L364.77362,86.02088L368.81346,85.07038L370.71456,82.45648L370.9522,78.89208L369.28873,69.62464
				L367.15,64.63448L367.38763,60.59482L373.09094,51.80263L382.12116,46.81247L386.87391,38.02028L387.82446,33.98063L388.0621,34.69351
				L389.01265,35.88164L389.72556,37.3074L390.43848,38.73316L391.38903,40.15892L391.8643,39.68367L392.81485,38.25791L393.7654,37.06977
				L393.7654,35.64401L393.29013,34.69351L393.29013,33.50537L393.7654,33.50537L394.47831,33.98063L395.90414,34.21825L396.61705,33.50537
				L398.04288,32.07961L399.4687,30.41622L402.08272,26.85182L407.54838,19.96065L408.49893,18.53489L424.42064,19.72302L425.37119,19.72302
				L426.55938,19.96065L427.74757,20.19827L428.69812,20.19827L430.12394,20.4359L431.31213,20.4359L432.73796,20.67353L435.35197,20.67353
				L435.35197,21.38641L435.58961,22.33691L435.82725,22.81217L436.06488,23.04979L436.30252,23.04979L436.30252,22.33691L436.30252,22.09929
				L436.30252,21.62403L436.54016,21.62403L437.01543,22.09929L437.25307,22.33691L437.01543,23.28742L437.25307,24.0003L437.49071,24.47556
				L437.96598,24.47556L438.6789,24.71318L439.15417,24.71318L439.39181,25.18844L439.62945,25.42606L439.86708,25.66369L440.34236,26.37657
				L440.34236,27.08945L440.10472,27.32708L440.10472,27.5647L440.34236,28.27758L440.58,28.51521L441.05527,28.51521L441.53055,28.75284
				L441.29291,29.22809L441.29291,29.94097L441.76818,30.65385L442.00582,31.1291L442.71873,31.36673L443.19401,31.60436L443.43165,31.36673
				L443.66928,31.1291L443.90692,30.89148L444.3822,31.36673L444.3822,31.60436L444.85747,32.07961L445.09511,32.31724L444.85747,32.55486
				L445.09511,33.03012L445.33275,33.03012L445.80802,32.79249L446.2833,33.03012L446.52093,33.743L446.75857,34.21825L446.99621,34.45588
				L447.23385,35.16876L447.47148,35.88164L447.70912,36.35689L448.1844,36.59452L448.42204,36.83215L448.89731,37.06977L449.13495,37.54503
				L449.37259,37.78265L449.37259,38.02028L449.13495,38.25791L449.37259,38.97079L449.61022,39.44604L450.32314,39.68367L450.56077,39.68367
				L451.03605,39.92129L451.51132,39.92129L451.74896,40.39655L451.74896,40.8718L451.9866,41.34705L451.9866,42.05993L452.22424,42.53519
				L452.46187,42.77281L452.93715,43.01044L453.41242,42.77281L453.65006,42.29756L454.12534,42.77281L454.60061,43.24807L455.07589,43.72332
				L455.7888,44.4362L456.26407,44.91146L456.73935,45.14908L457.6899,44.91146L458.40281,44.4362L459.11572,44.19858L459.591,44.4362
				L460.06627,44.67383L460.77919,45.14908L461.25446,45.38671L462.20501,45.38671L462.91792,45.14908L463.15556,45.38671L463.63084,45.38671
				L464.10611,44.91146L464.34375,44.4362L464.58139,44.19858L465.05666,44.4362L465.76958,44.19858L466.24485,43.96095L466.72013,44.19858
				L467.1954,43.72332L467.43304,43.24807L467.90831,42.77281L468.14595,42.29756L468.62123,42.29756L469.0965,42.53519L469.57178,43.01044
				L470.04705,43.72332L470.52233,44.19858L470.9976,44.4362L470.75996,44.91146L470.9976,45.38671L471.47288,45.38671L471.94815,45.14908
				L472.66106,44.91146L473.37398,44.91146L473.84925,45.38671L474.56216,45.62434L474.7998,45.62434L475.27508,45.86196L475.27508,46.33722
				L475.75035,47.0501L475.98799,47.28772L475.75035,47.52535L475.98799,48.23823L476.22563,48.95111L476.46326,49.18874L476.7009,49.66399
				L476.7009,50.13924L476.7009,50.37687L476.46326,50.85212L476.7009,51.08975L477.17618,51.32738L477.88909,51.32738L478.602,51.565
				L479.31491,51.80263L480.26547,51.80263L480.5031,51.80263L481.21602,51.80263L481.92893,52.04026L482.4042,52.04026L482.87948,52.27788
				L483.11712,53.22839L483.11712,53.70365L484.06767,53.94127L484.3053,54.41653L484.3053,55.12941L484.3053,55.60466L484.78058,55.84229
				L485.01822,56.55517L484.78058,56.55517L485.25585,57.03042L485.49349,57.50567L485.25585,57.7433L485.01822,57.98093L485.25585,58.69381
				L485.25585,59.16906L485.49349,59.40669L485.73113,60.11957L486.2064,60.59482L486.44404,61.07007L486.91932,61.54533L487.15695,62.25821
				L487.63223,62.49583L488.1075,62.73346L488.58278,62.97109L489.05805,62.97109L489.29569,62.97109L489.29569,63.44634L489.53333,63.9216
				L490.0086,64.39685L490.72152,64.39685L491.43443,64.63448L491.9097,64.63448L492.14734,64.8721L492.86025,64.8721L493.33553,65.34736
				L494.04844,65.58498L494.52372,65.58498L494.99899,65.82261L495.47427,66.06024L495.71191,66.53549L496.42482,66.77312L496.66246,67.01074
				L497.37537,67.24837L497.85064,67.24837L498.32592,67.96125L498.80119,68.4365L499.27647,68.91176L499.75174,69.38701L500.22702,69.86226
				L500.70229,70.33752L501.17757,70.57514L501.65284,70.81277L502.36576,70.81277L502.84103,71.0504L503.31631,71.28802L504.02922,72.0009
				L504.50449,72.71379L504.97977,72.95141L505.45504,73.66429L506.40559,74.13955L507.83142,75.09005L509.25724,75.32768L571.043,70.33752
				L572.70647,101.70425L572.94411,111.68457L572.94411,112.87271L572.70647,114.06084L572.23119,115.01135L567.00317,121.42727
				L559.16113,133.07098L545.61579,133.30861L547.51689,153.03163L546.80398,153.26925L545.14051,155.40789L545.14051,155.88315
				L546.3287,156.59603L545.37815,158.02179L544.18996,158.02179L543.23941,158.49704L543.00178,158.73467L542.76414,160.39805L
				542.28886,160.87331L542.05123,162.06144L541.57595,162.29907L540.86304,163.01195L540.38776,163.24958L540.38776,163.96246L
				540.38776,164.67534L540.38776,165.62584L539.91249,166.1011L540.6254,167.0516L540.6254,167.52686L539.19957,168.23974L538.96194,168.47736
				L539.19957,168.95262L539.43721,169.19024L538.7243,170.14075L538.01139,171.09126L537.77375,171.32889L536.8232,171.80414L536.34792,172.27939
				L536.58556,172.51702L537.06084,173.2299L536.8232,174.41803L536.58556,174.89329L535.87265,175.13091L535.87265,176.08142L535.63501,176.7943
				L535.15974,176.7943L534.44682,177.26955L533.49627,177.74481L531.1199,177.26955L530.40699,176.08142L529.69407,176.55667L528.26825,175.60617
				L526.12951,177.03193L526.12951,177.50718L525.89187,178.93294L526.12951,179.40819L525.89187,180.3587L525.89187,181.78446L
				526.36715,183.21022L526.36715,184.16073L526.36715,184.87361L526.60479,185.11124L526.36715,186.77462L526.36715,188.67564L
				526.60479,189.62614L527.08006,190.1014L527.55534,190.33902L526.84242,191.05191L526.84242,192.24004L527.08006,193.90343L527.3177,194.85393
				L527.08006,195.56681L526.84242,196.51732L526.60479,197.46783L527.3177,198.41833L527.55534,199.13121L527.79297,199.84409L
				527.55534,200.55698L526.12951,202.22036L524.70368,203.64612L523.99077,204.59663L523.75313,205.30951L523.75313,205.78476L
				523.27786,206.26002L523.04022,206.73527L521.37676,206.73527L520.90148,206.9729L520.66385,207.21052L520.42621,207.44815L519.95093,207.9234
				L519.47566,208.63628L519.00038,208.87391L518.52511,208.87391L517.57456,208.87391L516.86165,209.34916L516.14873,209.82442
				L516.14873,210.29967L515.67346,210.5373L514.72291,210.5373L513.77236,210.5373L513.29708,210.29967L513.05945,210.29967L512.34653,210.5373
				L512.1089,210.5373L511.15835,210.5373L510.92071,210.77493L510.44543,210.77493L510.20779,211.01255L509.97016,210.77493L509.49488,211.48781
				L509.01961,211.96306L508.54433,212.43831L508.30669,213.15119L508.06906,213.62645L508.30669,214.1017L508.06906,214.33933L
				507.35614,214.57695L506.88087,214.57695L506.16796,214.57695L505.45504,214.33933L503.79158,215.28983L503.07867,215.52746L
				502.36576,215.76509L501.89048,215.76509L501.65284,215.76509L501.17757,215.52746L500.70229,215.52746L500.22702,215.28983L
				499.75174,215.28983L499.51411,215.52746L499.03883,215.28983L498.56356,214.81458L498.32592,214.57695L498.32592,214.33933L
				497.37537,214.33933L497.13773,214.33933L495.71191,218.85423L493.57317,225.50778L492.86025,228.12168L492.62262,228.83456L
				492.86025,228.83456L492.38498,229.07218L491.9097,229.07218L491.67207,229.30981L491.19679,229.78506L490.72152,229.78506L490.24624,229.54744
				L489.05805,229.54744L488.82042,230.49795L488.34514,231.44845L487.15695,231.21083L487.39459,231.68608L487.15695,232.16133
				L486.91932,232.39896L486.44404,232.39896L485.73113,232.63659L485.01822,232.39896L484.3053,232.63659L483.35475,232.63659L
				482.64184,232.16133L482.4042,232.63659L481.92893,232.87421L481.69129,233.11184L481.21602,233.11184L480.5031,233.11184L480.26547,233.11184
				L479.79019,233.34947L479.31491,233.58709L478.83964,233.34947L478.36436,233.11184L477.88909,233.34947L477.88909,233.58709
				L477.41381,233.58709L476.93854,233.34947L476.46326,233.34947L475.98799,233.34947L475.27508,233.82472L474.56216,233.58709
				L474.56216,233.34947L474.08689,232.87421L473.61161,232.63659L473.13634,232.63659L473.13634,231.92371L472.66106,231.92371
				L472.42343,232.16133L471.94815,232.63659L471.47288,233.11184L470.75996,233.11184L470.04705,232.87421L469.57178,232.63659
				L469.0965,232.16133L468.85886,232.16133L468.38359,232.16133L468.38359,231.68608L468.38359,231.21083L467.67068,231.21083L
				466.95776,230.9732L466.72013,230.73557L466.00721,230.9732L465.76958,231.21083L465.2943,231.44845L464.81903,231.21083L464.58139,231.21083
				L464.10611,230.9732L464.10611,230.49795L463.63084,230.49795L463.15556,230.73557L462.91792,230.9732L462.44265,231.21083L461.96737,231.21083
				L461.4921,231.21083L460.77919,231.21083L460.30391,231.21083L459.82864,230.73557L459.82864,231.21083L459.591,231.21083L459.35336,231.44845
				L458.87809,231.21083L458.16517,231.21083L458.16517,230.9732L457.92754,231.21083L458.16517,231.68608L457.6899,231.68608L457.21462,231.21083
				L456.50171,230.73557L456.02644,230.49795L455.55116,230.26032L455.31352,230.49795L455.07589,230.49795L455.07589,230.02269
				L454.60061,229.78506L453.8877,229.78506L452.93715,229.30981L452.69951,229.07218L452.22424,228.83456L451.51132,229.07218L
				451.03605,228.83456L451.03605,228.3593L451.27369,227.64642L450.79841,227.64642L450.32314,227.4088L449.84786,227.17117L449.37259,226.69592
				L448.89731,226.22066L448.42204,226.22066L448.1844,225.50778L447.47148,225.50778L446.75857,225.03253L446.52093,224.08202L
				446.52093,223.8444L446.2833,223.60677L445.80802,223.8444L445.57038,223.8444L445.09511,224.31965L444.61983,223.8444L444.61983,223.36914
				L444.14456,223.36914L443.19401,222.41864L443.19401,221.70576L443.19401,221.2305L442.95637,220.75525L442.71873,220.75525L
				442.4811,220.99288L442.24346,220.99288L442.00582,220.51762L441.76818,220.04237L442.00582,219.80474L442.24346,220.04237L442.4811,220.04237
				L442.4811,219.56711L442.24346,219.32949L441.76818,219.09186L441.29291,219.09186L441.29291,218.37898L440.10472,217.6661L439.62945,217.42847
				L438.91653,217.42847L438.20362,217.19085L438.20362,216.71559L437.96598,216.47797L437.25307,216.00271L436.7778,215.76509L
				436.06488,215.76509L435.58961,215.76509L435.11433,215.28983L434.40142,215.05221L433.68851,214.81458L432.9756,214.57695L432.73796,214.1017
				L432.73796,213.62645L432.9756,213.15119L432.9756,212.43831L432.9756,211.96306L432.73796,211.25018L432.73796,210.77493L433.21323,210.5373
				L433.68851,209.82442L433.68851,209.11154L433.68851,208.63628L433.45087,208.39866L432.9756,208.63628L432.73796,208.63628L
				432.26268,208.63628L431.54977,208.39866L431.54977,207.9234L431.31213,207.68578L430.83686,207.44815L430.83686,207.21052L430.59922,206.49764
				L430.36158,205.78476L429.88631,205.78476L429.64867,206.49764L429.41103,206.9729L429.17339,207.44815L428.93576,207.9234L428.46048,208.16103
				L427.98521,208.39866L427.74757,208.63628L427.27229,208.87391L427.03466,209.34916L426.79702,210.06204L426.79702,210.77493
				L426.32174,211.48781L426.55938,212.20069L426.32174,212.91357L426.32174,213.62645L426.08411,214.33933L426.08411,215.05221
				L425.84647,215.76509L426.08411,216.24034L426.79702,216.95322L427.50993,217.42847L427.74757,217.90373L428.69812,219.09186
				L429.17339,219.80474L429.17339,220.51762L428.93576,221.2305L429.17339,221.70576L429.41103,222.41864L429.64867,223.13152L
				429.88631,223.60677L430.12394,224.31965L430.12394,225.27016L430.12394,225.98304L430.36158,226.45829L431.31213,227.88405L
				431.78741,228.3593L432.50032,228.59693L433.45087,229.07218L434.16378,229.54744L434.8767,230.26032L435.58961,230.73557L436.30252,231.44845
				L436.7778,232.16133L437.49071,232.87421L437.96598,233.34947L438.44126,233.82472L438.6789,234.77523L439.15417,235.48811L439.15417,236.20099
				L439.15417,236.67624L439.62945,237.38912L439.86708,237.86437L439.62945,238.33963L439.39181,238.81488L438.91653,239.29013
				L438.6789,240.00302L438.44126,240.47827L438.20362,241.42878L438.20362,242.37928L437.96598,243.09216L437.96598,244.04267L
				437.96598,244.75555L438.20362,245.46843L438.6789,245.94368L439.15417,245.94368L439.62945,246.41894L439.62945,246.89419L439.86708,247.13182
				L440.58,247.36944L442.00582,248.08232L442.71873,248.55758L443.19401,249.03283L444.14456,249.98334L444.85747,249.98334L445.33275,250.45859
				L445.57038,250.93385L445.80802,251.4091L446.52093,251.64673L446.99621,251.88435L447.47148,252.59723L447.94676,252.83486L
				448.65967,253.07249L449.37259,253.31011L450.0855,253.31011L450.56077,253.31011L451.27369,253.07249L451.74896,252.83486L452.69951,253.07249
				L453.17479,253.31011L453.41242,253.31011L454.12534,253.31011L454.60061,253.07249L455.31352,253.07249L455.7888,253.07249L
				456.50171,253.31011L457.21462,253.78537L457.6899,254.26062L458.40281,254.9735L459.11572,255.92401L459.591,256.39926L460.06627,256.87451
				L460.30391,257.11214L461.01682,257.11214L461.4921,256.87451L461.96737,256.87451L462.68029,257.34977L463.15556,257.82502L
				463.63084,258.06265L463.86847,258.30027L464.10611,258.77553L464.81903,259.01315L465.53194,259.25078L466.24485,259.48841L
				466.95776,259.48841L467.67068,259.72604L468.14595,259.96366L468.85886,260.20129L468.85886,260.43892L469.33414,260.43892L
				470.75996,260.43892L471.23524,261.1518L470.9976,261.1518L471.94815,261.62705L472.66106,261.62705L472.66106,262.33993L472.42343,263.29044
				L472.66106,263.76569L473.13634,264.47857L473.13634,265.19145L473.13634,265.90433L473.37398,266.61721L473.84925,266.85484
				L474.56216,267.09246L475.27508,267.09246L475.98799,267.09246L476.46326,267.09246L476.93854,267.09246L477.41381,266.85484
				L477.88909,266.61721L478.36436,266.85484L478.602,267.33009L478.83964,267.80534L479.07728,268.51822L479.31491,268.75585L479.79019,268.99348
				L480.02783,268.51822L480.5031,268.04297L480.74074,267.80534L481.45365,267.80534L482.16657,268.2806L483.35475,268.51822L484.54294,268.75585
				L485.49349,268.99348L486.2064,269.46873L486.68168,268.99348L486.91932,268.99348L487.63223,268.99348L488.58278,268.99348L
				489.29569,268.99348L490.24624,269.2311L490.48388,269.70636L491.19679,270.18161L491.9097,270.18161L492.86025,270.41924L493.33553,270.89449
				L493.8108,270.89449L494.52372,270.65687L494.99899,270.41924L496.18718,269.94399L497.13773,269.94399L497.85064,270.18161L
				498.56356,270.18161L499.27647,270.18161L499.51411,270.65687L500.22702,270.41924L500.70229,270.18161L501.41521,270.41924L
				502.60339,270.65687L503.55394,270.65687L504.26686,271.13212L505.21741,271.13212L505.93032,271.36975L507.11851,271.60737L
				507.83142,271.845L508.30669,271.60737L508.78197,270.89449L509.49488,270.65687L509.97016,270.89449L510.20779,271.36975L511.15835,271.36975
				L511.63362,270.89449L512.1089,270.65687L512.58417,270.89449L513.29708,271.13212L513.77236,270.65687L514.24763,270.65687L
				514.96055,270.41924L515.67346,270.18161L515.9111,269.94399L516.62401,270.18161L516.86165,270.41924L517.33692,271.13212L517.8122,271.13212
				L519.23802,270.65687L519.95093,270.65687L520.66385,270.89449L521.13912,270.65687L521.85203,270.18161L522.80258,269.94399
				L523.27786,270.18161L523.75313,270.41924L524.22841,269.70636L524.70368,270.18161L525.17896,270.65687L525.65423,270.89449
				L526.12951,271.36975L526.12951,271.845L526.84242,272.55788L527.3177,273.50839L527.3177,274.45889L527.55534,274.93415L527.79297,275.4094
				L530.64462,276.83516L532.30809,277.54804L531.83281,278.49855L532.07045,279.21143L532.30809,279.68668L532.78336,280.16194
				L532.78336,280.63719L533.25864,280.87482L533.73391,280.87482L533.97155,281.35007L533.73391,282.5382L533.25864,283.25108L
				532.07045,283.72634L530.64462,284.43922L529.45644,285.1521L528.74352,288.00362L528.03061,288.47887L527.08006,288.95412L526.60479,289.42938
				L526.60479,290.14226L526.12951,290.14226L525.17896,290.61751L524.70368,291.33039L524.46605,292.51853L524.70368,293.46903
				L524.94132,293.94429L525.4166,294.89479L526.12951,296.08293L527.08006,297.03343L528.03061,297.74631L528.74352,299.17208L
				528.74352,301.31072L528.74352,302.26122L528.98116,303.44936L529.2188,304.16224L529.45644,304.63749L529.2188,305.35037L528.74352,305.82562
				L527.55534,306.5385L526.36715,306.77613L525.65423,307.48901L525.4166,309.62765L524.22841,311.29104L523.04022,312.00392L522.56495,313.19205
				L521.85203,313.66731L520.90148,314.38019L520.18857,314.61781L519.7133,315.09307L519.47566,315.56832L519.23802,316.04357L
				519.00038,316.75645L518.28747,316.51883L517.8122,316.51883L517.57456,316.2812L516.86165,316.04357L516.38637,316.04357L515.9111,316.2812
				L515.19818,316.99408L516.86165,320.79611L517.33692,322.4595L516.62401,323.41L516.62401,324.59814L518.52511,326.73678L518.28747,329.11305
				L518.04983,329.35067L517.09928,329.82593L516.14873,330.06355L515.9111,330.53881L515.67346,331.25169L515.19818,331.96457L
				514.72291,332.20219L514.24763,332.91507L513.53472,333.86558L512.58417,335.05371L511.87126,336.00422L511.63362,336.47947L
				512.34653,337.42998L512.82181,337.90523L513.53472,338.38049L514.24763,338.85574L514.72291,339.09337L515.19818,339.56862L
				515.19818,340.2815L513.77236,341.23201L513.53472,342.18252L513.05945,342.8954L513.05945,343.8459L513.29708,344.08353L513.77236,344.55878
				L514.48527,344.79641L515.19818,345.50929L514.72291,345.98454L514.24763,347.64793L512.58417,348.83607L512.34653,350.0242L
				512.1089,350.97471L511.63362,352.16284L511.63362,353.35097L511.39598,353.5886L511.15835,353.35097L509.73252,353.35097L509.01961,353.5886
				L508.30669,354.06385L507.35614,354.30148L506.40559,355.01436L506.16796,355.01436L505.45504,355.25199L504.97977,355.96487
				L504.26686,356.20249L503.79158,356.44012L504.02922,357.39063L504.26686,358.57876L504.02922,359.52927L503.07867,360.00452
				L503.31631,362.14316L501.89048,363.3313L502.36576,369.74722L502.36576,371.17298L502.60339,372.12349L502.60339,373.07399L
				502.84103,373.54925L503.07867,374.0245L503.79158,374.49975L504.26686,374.97501L504.50449,375.68789L504.74213,376.40077L504.74213,376.87602
				L502.84103,377.82653L502.36576,379.01466L501.41521,379.72754L500.93993,380.44042L500.46466,381.39093L499.27647,382.34144
				L497.37537,381.86618L496.66246,381.1533L495.94954,381.1533L495.47427,380.44042L494.76135,380.2028L494.28608,380.44042L494.28608,380.91568
				L494.28608,381.39093L493.57317,381.39093L493.09789,381.39093L492.86025,381.62856L492.86025,382.10381L493.09789,382.34144
				L493.57317,382.57906L493.8108,382.81669L493.8108,383.29194L493.33553,383.52957L492.14734,383.29194L491.67207,383.05432L490.48388,382.57906
				L490.0086,382.34144L488.58278,382.57906L487.63223,382.57906L486.44404,382.81669L485.96877,382.81669L485.25585,382.81669L
				484.78058,382.81669L484.06767,382.81669L483.59239,383.05432L483.11712,383.05432L482.64184,382.81669L482.16657,383.05432L
				481.45365,383.05432L480.74074,382.81669L480.02783,382.81669L479.55255,383.05432L479.31491,383.52957L478.83964,384.24245L
				477.88909,384.48008L476.7009,384.48008L475.75035,384.24245L474.32453,384.24245L473.37398,384.48008L472.42343,384.95533L471.71051,385.19296
				L470.9976,384.95533L470.75996,384.7177L469.80941,384.24245L469.33414,384.48008L468.85886,384.95533L468.38359,385.43058L467.90831,385.90584
				"/>
			<path clip-path="url(#SVG_CP_1)" fill="none" stroke="#000000" stroke-width="0.47528" stroke-miterlimit="10" stroke-linecap="round" stroke-linejoin="round" d="
				M467.90831,385.90584L467.67068,385.90584L466.95776,385.66821L466.72013,385.43058L466.72013,384.7177L466.48249,384.24245L
				466.24485,384.24245L465.76958,384.24245L465.2943,384.24245L464.34375,384.24245L463.86847,384.00482L463.63084,383.52957L462.91792,383.7672
				L462.91792,384.48008L462.44265,384.95533L461.72974,384.95533L460.30391,384.48008L459.82864,384.48008L458.87809,384.48008
				L458.64045,384.24245L458.16517,384.00482L457.6899,383.7672L456.26407,383.7672L456.02644,383.7672L454.83825,383.52957L454.12534,383.52957
				L453.17479,383.29194L452.69951,383.05432L451.9866,382.57906L451.51132,383.05432L451.03605,383.29194L450.32314,383.52957L
				449.61022,383.29194L448.65967,383.05432L447.94676,382.81669L447.70912,382.34144L447.47148,382.34144L446.52093,382.34144L
				446.2833,381.86618L446.04566,381.39093L445.80802,381.62856L445.33275,381.39093L444.14456,380.44042L443.90692,379.72754L443.43165,379.72754
				L442.95637,379.48992L442.24346,379.25229L441.76818,378.77704L441.53055,378.30178L440.34236,377.35127L439.15417,377.11365
				L438.20362,377.11365L437.96598,376.87602L437.72835,376.40077L437.49071,376.16314L436.54016,376.40077L436.30252,375.92551
				L436.30252,375.45026L435.82725,375.21263L435.35197,375.21263L435.11433,375.21263L434.8767,375.68789L433.92615,375.92551L
				432.9756,375.45026L432.02504,375.92551L430.83686,375.45026L429.88631,375.21263L428.46048,374.49975L427.74757,374.26213L426.79702,373.54925
				L425.37119,373.07399L422.99482,372.36111L422.04427,371.88586L421.33136,371.64823L420.38081,371.64823L419.43026,371.41061
				L418.95498,370.4601L418.47971,369.74722L418.00443,368.79671L416.81624,368.79671L416.5786,369.27197L416.10333,369.74722L415.62805,369.74722
				L415.15278,369.50959L415.15278,369.27197L414.20223,367.37095L412.53877,367.13332L411.58822,366.8957L410.8753,366.42044L409.68712,366.18282
				L408.73657,366.18282L407.54838,366.42044L406.59783,366.42044L404.45909,365.70756L403.2709,365.70756L400.65689,365.94519L
				399.4687,365.94519L398.99343,366.42044L397.32996,366.65807L395.6665,366.65807L394.00304,366.18282L392.81485,365.94519L391.8643,365.94519
				L391.38903,365.70756L390.91375,365.23231L390.91375,364.99468L390.67611,364.75706L389.72556,364.51943L389.25029,364.51943
				L388.29974,364.51943L387.34919,364.51943L386.63628,364.51943L386.63628,364.04418L386.39864,363.3313L386.161,363.09367L385.92336,362.85604
				L385.21045,363.09367L384.49754,363.80655L384.02226,364.04418L383.07171,364.04418L381.64589,364.04418L380.4577,363.80655L
				379.74479,363.80655L379.26951,364.2818L379.03187,364.51943L378.5566,364.99468L378.31896,364.99468L378.08132,364.51943L378.08132,364.04418
				L377.84369,363.80655L376.6555,364.04418L376.18022,364.2818L375.46731,364.75706L375.22967,364.75706L374.7544,364.75706L374.04149,364.51943
				L372.37802,364.2818L370.71456,364.51943L368.10055,364.75706L367.15,364.75706L366.43708,364.75706L365.48653,364.2818L365.01126,363.80655
				L364.06071,363.56892L363.11016,363.3313L363.11016,363.56892L362.87252,364.04418L362.39725,364.51943L362.15961,364.04418L
				361.68433,363.09367L360.49615,362.14316L359.07032,360.7174L358.35741,360.7174L357.16922,360.24215L356.45631,359.52927L356.21867,358.57876
				L355.98103,357.86588L355.03048,358.34114L354.55521,358.34114L353.60466,358.10351L352.65411,358.34114L351.94119,358.57876
				L350.99064,357.62825L349.56482,356.91537L348.61427,356.67775L346.95081,355.01436L346.47553,354.53911L346.23789,353.5886L
				346.71317,352.87572L346.47553,352.63809L346.23789,352.40047L345.52498,351.92521L345.04971,351.44996L344.81207,351.21233L
				344.57443,350.73708L343.86152,349.54895L343.62388,349.07369L343.62388,348.12319L344.57443,346.69742L344.57443,345.50929L
				344.33679,345.03404L344.33679,344.79641L344.09916,344.32116L344.09916,343.8459L345.04971,342.65777L345.52498,341.94489L345.52498,340.99438
				L345.52498,340.2815L345.52498,339.80625L345.76262,339.09337L345.76262,338.38049L345.52498,337.90523L345.52498,337.42998L
				345.76262,336.47947L345.52498,336.24185L343.38624,337.19235L341.72278,338.38049L341.24751,338.61812L340.77223,338.38049L
				340.05932,338.14286L339.3464,338.14286L338.63349,338.38049L338.39585,338.85574L338.63349,340.2815L338.39585,341.70726L337.68294,341.46964
				L336.97003,341.70726L336.25712,341.94489L335.78184,342.18252L335.30657,341.94489L334.83129,342.18252L334.35602,342.65777
				L333.88074,342.8954L332.69255,342.8954L331.742,342.8954L331.26673,343.13302L330.55382,343.13302L329.8409,343.37065L329.12799,343.37065
				L328.41508,342.8954L327.70217,342.42014L326.98925,341.70726L325.32579,341.46964L323.66233,340.99438L322.47414,340.04388L
				321.52359,339.56862L320.57304,338.85574L320.09776,337.90523L319.14721,337.19235L318.4343,336.95473L317.48375,336.7171L316.29556,336.47947
				L315.34501,335.76659L315.10738,335.29134L314.15683,334.81609L313.20628,334.57846L312.96864,334.34083L312.731,332.91507L312.731,331.72694
				L312.96864,330.30118L313.68155,329.35067L314.6321,328.87542L315.10738,328.40017L315.58265,327.68728L316.05793,327.21203L
				315.82029,326.49915L315.82029,326.0239L315.58265,325.78627L315.34501,325.07339L315.58265,323.88526L315.82029,322.93475L315.58265,322.22187
				L314.86974,321.74662L314.6321,321.27136L314.6321,321.03374L314.39446,320.08323L314.15683,318.65747L314.15683,318.18221L314.39446,317.23171
				L313.91919,316.51883L313.44391,315.80595L312.96864,315.09307L312.49336,314.38019L312.01809,313.42968L311.78045,312.24155
				L312.25573,311.29104L312.96864,310.34053L315.82029,308.67715L316.29556,308.20189L317.24611,307.48901L317.48375,306.5385L
				317.72139,305.588L318.67194,302.9741L318.4343,301.07309L317.95903,299.64733L317.72139,298.93445L316.77084,297.74631L316.05793,296.79581
				L315.34501,295.13242L315.34501,293.70666L315.82029,292.51853L316.05793,290.14226L315.82029,289.19175L315.58265,287.76599
				L314.86974,287.05311L313.20628,285.62735L312.49336,284.67684L312.01809,284.20159L311.30518,282.77583L311.06754,281.82532
				L311.06754,281.11244L314.39446,275.64703L315.10738,274.93415L315.58265,273.27076L315.82029,271.13212L315.34501,270.65687
				L314.86974,269.94399L314.15683,269.94399L313.91919,269.70636L313.68155,269.70636L313.20628,268.99348L312.96864,268.99348
				L312.49336,268.51822L312.25573,268.04297L312.01809,267.80534L311.78045,267.56772L311.78045,267.09246L311.06754,266.14196
				L310.11699,266.37958L309.16644,266.61721L308.69116,266.61721L307.74061,266.61721L307.26534,266.37958L306.79006,266.37958
				L306.55242,266.37958L306.07715,267.09246L306.07715,267.56772L305.83951,267.80534L305.36424,268.04297L305.1266,268.2806L305.36424,268.99348
				L304.88896,269.2311L304.17605,270.18161L303.70077,269.94399L302.75022,270.18161L302.51259,270.18161L302.03731,270.18161L
				301.79967,270.18161L301.56204,270.41924L301.3244,270.18161L301.08676,270.41924L300.84912,270.89449L300.61149,270.89449L300.37385,270.65687
				L300.13621,270.65687L299.66094,270.89449L299.18566,271.13212L298.71039,271.845L297.99747,271.60737L297.04692,271.60737L296.57165,271.36975
				L295.85874,271.13212L295.38346,271.60737L294.67055,271.60737L293.95764,271.60737L293.72,271.60737L293.24472,271.60737L292.53181,271.845
				L292.05653,271.845L291.8189,272.08263L290.86835,271.845L290.39307,271.845L289.20488,271.13212L288.0167,270.41924L287.77906,270.18161
				L287.54142,269.94399L287.06615,269.70636L287.06615,269.46873L286.59087,268.99348L286.1156,268.75585L285.64032,268.51822L
				284.92741,268.04297L283.97686,269.2311L283.50158,269.94399L282.55103,271.13212L282.07576,271.845L281.83812,272.55788L281.36285,273.27076
				L280.88757,273.98364L280.17466,274.45889L279.22411,274.69652L278.74883,274.69652L278.5112,274.69652L277.79828,274.45889L
				276.84773,274.45889L276.13482,274.45889L274.70899,273.98364L274.23372,273.74601L273.28317,273.50839L272.09498,271.845L271.14443,271.13212
				L270.43152,270.65687L269.48097,270.18161L268.53042,269.46873L267.57987,269.2311L267.10459,268.99348L265.67877,268.04297L
				265.20349,267.33009L264.72822,267.09246L264.25294,266.85484L263.77767,266.37958L263.54003,266.14196L262.82712,265.6667L260.92602,264.95382
				L260.45074,264.7162L259.97547,264.24094L259.50019,263.76569L259.02492,263.52806L258.54964,263.29044L257.83673,263.29044L
				257.59909,263.29044L257.12382,263.76569L256.4109,264.00332L255.69799,264.95382L255.22272,265.42908L254.5098,265.42908L253.32162,265.19145
				L252.37107,264.95382L251.42052,264.7162L250.23233,264.95382L249.04414,264.47857L248.8065,264.24094L248.33123,264.00332L247.38068,263.52806
				L246.9054,262.81518L246.9054,262.33993L246.9054,262.1023L246.19249,260.67654L245.71721,260.20129L245.71721,259.72604L245.24194,259.48841
				L244.76666,259.25078L244.29139,258.5379L243.81611,257.34977L243.34084,256.87451L243.1032,256.39926L242.62793,255.68638L242.39029,254.9735
				L241.67738,254.26062L240.96446,254.02299L240.25155,253.78537L227.18149,244.99318L226.70621,244.51792L226.94385,244.2803L
				226.70621,244.04267L226.23094,244.04267L225.51802,244.75555L224.56747,244.51792L223.37929,243.32979L222.66637,242.37928L
				222.1911,242.14166L221.71582,241.19115L221.24055,240.95352L219.57709,240.24064L219.57709,239.52776L218.62654,239.05251L218.15126,238.33963
				L218.15126,237.86437L217.91362,237.38912L217.91362,236.91387L218.15126,236.43861L217.67599,235.96336L217.91362,234.77523
				L216.72544,234.29997L216.01252,233.82472L215.06197,233.34947L214.5867,232.87421L212.92323,231.92371L211.73505,230.73557L
				208.8834,229.30981L208.40812,228.59693L207.93285,228.3593L207.69521,227.64642L205.55647,225.98304L204.84356,225.03253L204.60592,224.31965
				L204.60592,223.8444L203.89301,223.13152L203.1801,221.46813L202.94246,219.80474L202.46718,216.71559L201.99191,215.28983L202.46718,213.86407
				L204.13065,212.67594L205.31883,210.5373L206.74466,205.54714L206.26938,202.93324"/>
		</g>
	</g>
</svg>
