<?xml version="1.0" encoding="utf-8" standalone="no"?>
<!-- Creator: Esri ArcMap 10.8.0.12790 -->
<!DOCTYPE svg PUBLIC "-//W3C//DTD SVG 1.1//EN"  "http://www.w3.org/Graphics/SVG/1.1/DTD/svg11.dtd">
<svg width="774.73701pt" height="404.24882pt" viewBox="0 0 774.73701 404.24882" enable-background="new 0 0 774.73701 404.24882"
	version="1.1" xmlns="http://www.w3.org/2000/svg" xmlns:xlink="http://www.w3.org/1999/xlink" >
	<g id="Layers">
		<g id="Rey-Bouba">
			<clipPath id="SVG_CP_1">
				<path d="M0,404.24882L0,0L774.73701,0L774.73701,404.24882L0,404.24882z"/>
			</clipPath>
			<path clip-path="url(#SVG_CP_1)" fill="none" stroke="#000000" stroke-width="0.47528" stroke-miterlimit="10" stroke-linecap="round" stroke-linejoin="round" d="
				M657.54307,306.5385L656.11724,307.72664L649.70103,310.57816L646.84938,312.24155L642.33427,314.38019L637.81915,316.2812L635.91805,317.23171
				L632.82876,318.65747L628.78893,320.79611L625.93728,322.22187L623.32326,323.17238L620.70925,324.12288L618.80815,325.07339
				L616.43177,326.26152L614.53067,327.21203L612.86721,327.92491L611.20375,328.87542L609.77792,329.5883L608.11446,330.30118L
				605.97572,331.25169L602.41116,333.1527L600.51006,333.86558L597.89605,334.34083L595.75731,335.29134L594.09385,335.52897L592.43038,336.00422
				L590.29165,336.47947L589.57873,336.7171L588.39054,336.95473L587.91527,337.66761L587.91527,336.95473L587.91527,335.76659L
				587.43999,334.81609L586.96472,334.34083L586.01417,334.34083L585.06362,334.57846L584.11307,334.34083L583.40016,333.86558L
				582.44961,333.62795L581.26142,333.86558L580.07323,333.86558L579.83559,333.1527L579.36032,332.20219L578.40977,331.96457L577.69686,331.96457
				L576.74631,331.48931L575.32048,331.25169L574.60757,331.72694L574.13229,332.20219L573.41938,332.43982L572.23119,333.39033
				L571.51828,333.86558L570.33009,333.86558L569.85482,334.81609L568.42899,335.29134L567.2408,335.52897L566.05262,335.29134L
				565.10207,335.76659L564.38915,336.00422L563.20097,335.76659L562.96333,336.24185L562.72569,337.66761L561.77514,338.14286L
				561.06223,339.09337L560.34932,339.331L558.92349,339.56862L558.21058,340.2815L556.78475,340.2815L556.78475,341.23201L556.07184,342.18252
				L555.12129,342.42014L553.69546,342.65777L554.88365,343.60828L556.07184,344.79641L558.44822,347.17268L559.16113,347.64793
				L560.11168,348.36081L561.29987,349.54895L562.25042,350.49945L562.96333,350.73708L563.67624,350.49945L564.38915,350.73708
				L565.10207,351.44996L565.57734,352.87572L566.76553,353.35097L567.71608,353.5886L568.42899,353.5886L569.37954,354.30148L569.61718,355.01436
				L570.09245,356.20249L570.33009,358.10351L570.09245,359.52927L570.09245,360.7174L569.61718,362.14316L570.09245,363.80655L
				571.043,365.23231L571.75592,366.18282L571.99355,367.60858L571.28064,368.79671L568.19135,370.22247L567.47844,370.69773L565.81498,371.41061
				L563.91388,371.88586L562.25042,372.12349L561.06223,372.36111L560.11168,373.07399L557.97294,374.73738L557.26003,375.92551
				L556.30948,377.11365L554.64601,379.72754L553.45783,381.62856L552.50728,383.29194L552.26964,384.24245L551.31909,385.19296
				L550.36854,385.66821L549.18035,385.90584L548.46744,385.66821L547.04161,385.43058L546.3287,385.19296L544.90288,385.19296L
				544.18996,385.19296L543.23941,385.43058L542.28886,385.43058L541.33831,385.66821L540.6254,385.66821L539.91249,385.43058L539.19957,385.19296
				L538.24902,384.48008L537.29847,384.24245L536.34792,383.29194L535.63501,382.34144L534.20919,381.1533L532.78336,380.2028L531.59517,379.96517
				L530.88226,379.72754L529.93171,379.01466L528.50589,377.82653L527.79297,378.06416L526.36715,378.30178L525.17896,377.82653
				L524.46605,377.11365L523.75313,376.63839L523.04022,376.16314L522.08967,375.68789L521.37676,375.45026L520.42621,375.45026
				L519.23802,374.97501L518.28747,374.26213L517.57456,374.0245L516.86165,374.49975L515.67346,374.49975L514.48527,374.49975L
				511.87126,374.0245L509.97016,373.54925L508.54433,373.54925L506.88087,373.54925L505.45504,373.31162L504.02922,372.59874L502.12812,371.41061
				L500.46466,370.69773L499.51411,370.4601L498.80119,370.22247L497.37537,369.98485L496.42482,369.74722L495.23663,369.03434L
				494.04844,368.55909L492.86025,367.84621L491.19679,367.37095L490.24624,367.37095L488.58278,367.60858L487.39459,368.08383L
				485.25585,368.08383L484.3053,367.60858L483.83003,367.37095L482.64184,366.65807L481.21602,365.46994L480.26547,364.75706L478.602,363.80655
				L477.41381,363.09367L476.46326,363.09367L474.32453,362.85604L472.66106,362.85604L471.94815,362.61842L470.52233,362.14316
				L469.57178,362.14316L467.67068,362.14316L466.00721,361.90554L464.34375,360.95503L462.91792,360.47978L460.54155,360.24215
				L459.11572,360.00452L458.16517,359.52927L456.73935,358.57876L455.55116,357.62825L454.83825,356.20249L454.36297,355.01436
				L453.8877,353.82623L452.93715,353.35097L450.0855,353.11335L448.1844,352.87572L446.52093,352.16284L444.14456,351.68759L442.95637,350.97471
				L441.29291,350.0242L439.62945,349.07369L438.44126,348.12319L437.25307,346.93505L435.58961,346.69742L432.9756,347.17268L430.83686,347.88556
				L430.12394,350.0242L429.64867,351.44996L428.93576,352.87572L428.22284,352.87572L427.27229,352.63809L426.55938,352.16284L
				425.37119,352.16284L424.65828,351.92521L423.94537,352.16284L423.94537,352.40047L423.23246,352.63809L421.56899,352.87572L
				419.19262,353.11335L417.52916,352.87572L415.39042,351.92521L412.53877,351.21233L410.40003,351.21233L408.02365,352.16284L
				407.0731,353.11335L405.64728,353.82623L404.22145,354.77673L403.2709,355.48961L402.55799,355.25199L401.84508,354.06385L401.3698,353.11335
				L400.65689,351.68759L400.41925,351.21233L398.75579,350.49945L397.80524,350.26183L396.14178,349.54895L394.95359,348.36081
				L393.05249,347.17268L391.62666,345.98454L390.67611,345.74692L389.9632,345.50929L389.01265,345.50929L386.39864,345.03404L
				384.73517,344.55878L382.59644,343.8459L380.93297,343.13302L375.94259,341.46964L373.32857,340.51913L371.42747,339.80625L370.00165,339.331
				L367.38763,338.38049L364.29835,336.95473L362.15961,336.00422L360.49615,335.29134L358.35741,334.34083L354.07993,332.20219
				L351.22828,330.77643L349.32718,330.30118L346.71317,328.87542L344.57443,327.92491L342.67333,327.21203L340.53459,326.26152
				L336.97003,324.83576L334.59365,323.88526L331.742,323.17238L327.9398,321.74662L322.94941,320.32086L320.09776,318.8951L318.67194,318.18221
				L317.95903,318.41984L316.5332,317.94459L314.6321,317.23171L310.8299,316.2812L308.69116,315.56832L306.55242,315.09307L304.65132,314.38019
				L302.03731,313.66731L300.61149,313.19205L294.67055,311.05341L290.39307,309.39003L287.06615,307.96426L281.12521,306.30088
				L278.74883,305.35037L276.37246,304.16224L274.70899,303.44936L273.04553,302.9741L267.81751,300.83546L266.39168,300.36021L
				265.20349,299.88496L264.49058,299.88496L263.54003,300.36021L262.82712,301.07309L261.40129,301.78597L260.45074,302.49885L
				259.26255,303.21173L256.64854,303.44936L255.22272,303.44936L253.79689,303.68698L251.89579,303.21173L250.23233,302.9741L249.04414,302.26122
				L247.61832,302.0236L245.47958,301.07309L243.81611,299.88496L241.91501,299.17208L241.43974,298.93445L241.43974,299.17208L
				239.06336,297.98394L233.83534,295.37005L228.36967,292.51853L224.80511,291.33039L222.66637,291.56802L221.47819,292.75615L
				219.81472,293.46903L217.91362,293.94429L216.25016,293.94429L215.06197,294.18191L214.11142,293.94429L211.73505,293.70666L
				209.83395,292.51853L207.93285,292.04327L206.74466,292.75615L205.0812,293.94429L203.41773,294.65717L201.75427,295.60767L199.85317,295.60767
				L197.95207,295.37005L197.23916,294.18191L196.76388,292.99378L196.52624,291.80565L195.57569,291.09277L193.91223,290.61751
				L192.24877,290.14226L191.29822,290.14226L190.82294,289.90463L190.34767,288.95412L189.15948,287.52836L187.73366,286.34023
				L185.11964,286.1026L182.9809,286.57786L180.84217,287.52836L179.41634,288.24124L177.75288,288.24124L176.56469,288.7165L174.66359,289.19175
				L173.00013,289.19175L172.52485,287.76599L171.81194,286.34023L170.86139,284.91447L169.43557,284.20159L168.24738,283.48871
				L166.58391,283.48871L164.68281,283.96396L163.25699,283.01346L162.54408,282.77583L161.11825,282.5382L160.40534,281.82532L
				158.97951,281.5877L157.79133,282.06295L155.89023,281.35007L154.93968,280.39956L154.70204,279.44906L153.75149,278.73617L152.5633,278.02329
				L151.61275,277.07279L150.6622,277.07279L149.23637,277.07279L148.28582,276.59753L147.33527,276.59753L145.43417,276.83516L
				144.72126,275.64703L144.00835,274.69652L143.29544,274.45889L142.82016,275.4094L141.86961,276.12228L140.44379,276.35991L139.73087,276.35991
				L138.78032,275.64703L136.40395,274.69652L134.97812,273.98364L133.78993,273.74601L132.83938,273.50839L132.83938,272.32025
				L131.88883,271.60737L130.93828,271.60737L127.849,269.94399L127.13608,269.70636L126.66081,269.46873L126.42317,268.99348L126.89845,267.80534
				L126.66081,266.85484L125.9479,266.37958L125.47262,265.90433L125.23498,265.19145L125.23498,264.47857L124.75971,264.00332L
				123.80916,263.52806L123.33388,262.1023L123.57152,261.86468L124.0468,261.1518L124.0468,260.67654L123.80916,259.48841L123.57152,258.5379
				L122.62097,258.30027L121.19514,257.82502L120.95751,257.34977L120.48223,256.16163L119.53168,255.44875L119.29404,254.49825
				L119.05641,253.54774L118.58113,252.12198L117.63058,251.17147L117.39294,249.98334L118.81877,242.14166L135.4534,231.44845L
				139.96851,227.4088L148.7611,224.31965L166.10864,217.19085L177.51524,200.31935L183.21854,185.34886L182.74327,175.60617L163.25699,166.1011
				L165.39573,163.24958L167.29683,161.11094L169.19793,158.73467L170.62375,157.07128L172.04958,155.64552L172.76249,154.69501
				L174.42595,152.794L177.99052,152.55637L184.40673,151.60587L185.35728,150.89298L186.30783,149.46722L186.30783,147.80384L186.07019,145.6652
				L187.02074,143.76418L187.49602,142.1008L187.25838,140.67503L187.97129,139.01165L189.15948,138.06114L187.49602,135.9225L185.11964,132.12047
				L183.21854,129.50658L187.02074,127.13031L189.87239,124.51642L193.67459,121.6649L195.81333,120.23913L197.23916,122.14015L
				198.90262,124.75404L203.41773,127.13031L206.03175,128.08082L207.93285,126.65506L209.35867,125.70455L210.30922,125.2293L211.25977,125.2293
				L211.49741,124.27879L211.97268,123.32828L211.73505,122.37778L210.54686,121.18964L208.8834,119.76388L209.35867,118.33812L
				208.17048,116.43711L207.45757,114.29847L207.69521,113.34796L209.12103,111.68457L210.7845,109.78356L212.21032,108.12017L214.11142,106.69441
				L217.20071,104.7934L219.81472,102.89238L221.24055,101.70425L221.47819,100.75374L221.71582,98.13985L222.66637,97.18934L224.0922,96.47646
				L225.9933,96.23883L227.41912,95.0507L228.13204,93.62494L226.94385,91.4863L226.94385,89.82291L227.41912,86.49614L227.8944,84.59512
				L228.13204,80.31784L228.60731,78.65445L230.50841,75.32768L232.88479,71.52565L234.07298,69.86226L234.54825,67.72362L234.78589,65.10973
				L235.26116,63.9216L236.92463,63.9216L240.01391,63.68397L241.67738,65.10973L243.57848,67.01074L245.95485,68.19888L248.09359,68.19888
				L249.75705,68.67413L251.65815,68.67413L253.55925,68.4365L255.93563,68.19888L257.59909,67.72362L260.45074,68.19888L261.87657,67.486
				L263.30239,66.77312L265.44113,65.82261L266.86696,65.34736L268.29278,66.53549L270.43152,66.77312L272.09498,65.34736L274.47136,64.15922
				L275.42191,62.73346L276.13482,61.54533L277.56065,60.35719L278.98647,59.64431L280.64993,59.40669L282.3134,58.93143L283.97686,57.98093
				L284.92741,57.98093L285.87796,58.21855L287.06615,58.93143L288.25433,59.88194L289.9178,60.35719L292.05653,60.59482L293.00709,59.88194
				L294.19527,58.45618L296.09637,58.21855L296.57165,58.21855L299.18566,57.03042L299.89857,57.50567L301.79967,57.98093L302.98786,57.26805
				L304.65132,57.03042L308.9288,56.31754L311.30518,56.07991L313.68155,56.55517L314.86974,57.26805L317.48375,57.7433L320.3354,57.50567
				L321.99886,57.26805L320.81068,54.65415L320.09776,53.22839L319.62249,50.6145L319.14721,47.76298L318.4343,45.86196L317.48375,43.96095
				L317.00848,41.58468L317.48375,39.92129L320.09776,38.73316L322.71178,38.02028L323.42469,36.35689L324.37524,34.93113L325.56343,33.26775
				L327.70217,32.55486L330.79145,33.03012L331.50437,32.31724L332.21728,30.89148L334.59365,28.99046L336.49475,28.51521L337.4453,28.99046
				L339.82168,28.51521L342.67333,28.51521L342.67333,27.5647L342.67333,25.42606L343.38624,24.0003L343.62388,22.09929L346.71317,20.67353
				L349.08954,19.24777L351.22828,18.53489L352.65411,20.19827L352.89174,20.91115L353.36702,22.33691L354.31757,24.0003L355.50576,25.90132
				L356.21867,27.5647L356.93158,28.75284L357.6445,29.70334L358.59505,30.41622L359.30796,30.89148L360.02087,31.36673L360.25851,32.55486
				L360.73378,33.743L360.97142,35.40639L361.68433,37.3074L362.39725,38.73316L363.82307,40.63417L365.2489,41.58468L366.43708,42.05993
				L367.62527,42.29756L369.28873,43.01044L370.71456,43.4857L374.7544,45.62434L375.94259,46.33722L376.41786,47.28772L376.6555,48.95111
				L376.6555,50.6145L376.6555,53.46602L377.36841,54.65415L376.89314,54.89178L376.41786,55.60466L376.18022,56.07991L376.18022,56.79279
				L375.94259,57.26805L375.70495,57.98093L375.46731,58.69381L375.46731,58.93143L375.22967,59.16906L374.51676,59.16906L374.04149,59.16906
				L374.04149,59.88194L374.04149,60.83245L374.27912,62.02058L374.27912,63.20872L374.04149,64.63448L373.56621,66.06024L373.32857,66.29786
				L373.09094,66.29786L372.61566,66.53549L372.37802,66.53549L371.90275,66.53549L371.66511,66.77312L371.66511,67.24837L371.90275,67.72362
				L372.14039,67.96125L372.37802,68.19888L372.8533,68.4365L372.8533,68.67413L372.8533,68.91176L372.61566,68.91176L371.90275,69.14938
				L370.9522,69.38701L370.00165,69.62464L369.76401,70.81277L369.76401,71.0504L370.00165,71.52565L370.23928,72.0009L370.23928,72.71379
				L370.00165,73.18904L370.00165,73.66429L369.52637,73.90192L369.0511,73.90192L368.57582,74.13955L367.86291,73.90192L367.38763,74.13955
				L367.38763,74.37717L367.15,74.85243L367.15,75.32768L367.15,76.04056L366.67472,77.22869L366.91236,77.94157L367.15,78.65445
				L367.62527,79.60496L367.86291,80.31784L368.33818,80.31784L368.57582,80.31784L369.0511,80.31784L369.52637,80.31784L370.23928,80.79309
				L370.71456,81.03072L370.71456,81.98123L371.18984,82.45648L371.42747,83.88224L371.90275,84.83275L372.14039,85.308L373.32857,86.02088
				L374.27912,86.02088L375.46731,86.49614L376.41786,86.73376L377.60605,87.68427L378.5566,88.15952L379.74479,89.58528L381.17061,91.24867
				L382.12116,92.67443L384.49754,94.10019L385.68572,95.28833L387.11155,97.18934L387.82446,98.37747L388.29974,99.09035L390.91375,100.27849
				L392.33958,101.22899L394.00304,102.65476L397.32996,105.7439L399.4687,106.21916L407.54838,110.49644L408.26129,110.73406L408.73657,110.97169
				L409.21184,111.44694L409.44948,112.15983L409.68712,112.63508L410.16239,114.29847L410.40003,115.24897L411.11294,116.43711
				L411.58822,117.62524L413.01404,119.28863L413.48932,120.23913L413.96459,121.18964L414.20223,121.42727L414.43987,121.90252
				L415.15278,122.14015L415.39042,123.56591L415.62805,123.80354L415.62805,124.27879L415.62805,124.51642L416.10333,124.27879
				L416.10333,124.99167L416.34097,125.2293L416.34097,125.46692L416.34097,125.94218L416.81624,125.94218L416.81624,126.1798L416.81624,126.65506
				L417.05388,126.89268L417.05388,127.36794L416.81624,127.36794L416.81624,127.60556L416.81624,127.84319L416.81624,128.08082
				L417.05388,128.31844L417.05388,128.55607L417.29152,128.7937L417.52916,129.03132L417.76679,128.7937L417.76679,129.03132L417.76679,129.26895
				L417.76679,129.50658L417.76679,129.7442L417.52916,129.7442L417.76679,129.98183L418.00443,130.21946L417.76679,130.45708L418.00443,130.45708
				L418.00443,130.69471L418.00443,130.93234L417.76679,131.16996L418.24207,131.40759L420.61844,132.59573L424.18301,134.73437
				L427.74757,137.11063L431.54977,139.24927L435.82725,141.62554L440.81763,144.71469L444.3822,146.6157L445.57038,147.32858L447.94676,148.99197
				L451.27369,151.36824L543.47705,220.51762L545.61579,220.28L547.75453,220.75525L548.46744,220.75525L548.94271,220.51762L548.94271,219.32949
				L548.94271,218.37898L549.41799,218.14135L550.36854,218.14135L552.26964,219.56711L553.69546,218.85423L554.88365,216.95322
				L555.59656,216.47797L556.07184,216.95322L556.30948,217.19085L556.54711,217.19085L556.78475,217.42847L557.26003,217.6661L
				557.49767,217.6661L557.97294,217.6661L558.21058,217.19085L558.68585,216.71559L558.92349,216.71559L559.39877,216.95322L560.34932,217.42847
				L560.82459,217.90373L561.29987,218.14135L561.5375,218.37898L562.25042,218.14135L562.48805,217.90373L562.96333,218.14135L
				563.20097,218.61661L563.67624,218.61661L563.91388,218.85423L564.62679,219.09186L565.3397,219.32949L565.57734,219.32949L565.81498,219.56711
				L566.05262,220.04237L566.05262,220.51762L566.05262,221.2305L566.29025,221.70576L566.29025,222.89389L566.52789,223.13152L
				567.00317,223.8444L567.47844,224.31965L568.19135,224.31965L568.19135,224.55728L567.95372,225.27016L567.95372,225.98304L567.71608,226.22066
				L567.2408,226.69592L567.47844,226.93354L567.71608,226.93354L568.19135,226.93354L569.1419,226.69592L569.37954,226.69592L569.37954,226.93354
				L569.37954,227.17117L568.90427,227.64642L568.66663,227.88405L568.90427,228.12168L569.1419,228.3593L569.85482,228.83456L570.56773,229.30981
				L572.23119,230.26032L573.18174,230.73557L573.65702,231.21083L573.89466,231.68608L574.13229,231.68608L574.13229,231.92371
				L573.89466,232.16133L572.94411,233.11184L571.75592,234.06235L571.043,234.5376L570.56773,235.01285L570.09245,235.25048L569.37954,235.72573
				L569.1419,236.20099L568.66663,236.67624L568.66663,237.38912L568.90427,237.62675L569.1419,237.86437L569.37954,237.86437L569.85482,237.86437
				L570.33009,237.86437L570.80537,238.33963L571.043,238.57725L571.51828,239.05251L572.23119,239.52776L572.70647,239.76539L572.94411,239.76539
				L573.18174,240.24064L573.18174,240.47827L573.41938,240.47827L573.89466,240.7159L574.13229,240.95352L574.84521,240.95352L
				575.32048,240.7159L576.50867,240.7159L577.69686,240.7159L578.64741,240.7159L579.59796,240.47827L580.07323,240.24064L580.54851,239.76539
				L581.02378,239.76539L581.49906,239.76539L581.97433,239.76539L582.21197,239.76539L582.68724,239.76539L583.40016,239.76539
				L583.63779,239.76539L583.63779,240.00302L583.87543,240.47827L584.11307,240.7159L584.58834,240.95352L584.82598,240.95352L
				585.06362,241.19115L585.30126,241.90403L585.30126,242.37928L585.77653,242.61691L586.25181,242.85454L586.96472,243.09216L
				587.67763,243.32979L588.15291,243.80504L588.39054,244.04267L588.86582,244.04267L589.3411,244.04267L590.29165,244.04267L592.19275,244.51792
				L592.66802,244.75555L592.66802,244.99318L592.90566,245.2308L593.61857,245.46843L594.09385,245.70606L594.33148,246.65656L
				594.56912,246.89419L595.0444,247.13182L595.51967,247.36944L595.75731,247.60707L595.99495,248.08232L596.23258,248.55758L596.70786,249.03283
				L597.42077,249.50808L597.65841,249.98334L597.89605,250.22097L598.13368,250.45859L598.13368,250.93385L598.13368,251.17147
				L597.65841,251.64673L597.65841,252.12198L597.65841,252.35961L597.89605,253.07249L597.65841,254.02299L597.65841,254.49825
				L597.18313,254.73587L596.9455,255.21113L596.70786,255.68638L596.70786,255.92401L596.70786,256.39926L596.47022,256.63689L
				596.23258,257.11214L596.23258,257.82502L596.23258,258.5379L595.75731,258.5379L595.75731,258.77553L595.51967,259.25078L595.28203,259.48841
				L595.28203,259.96366L595.51967,260.43892L595.51967,260.91417L595.28203,261.62705L595.28203,262.33993L595.28203,263.76569
				L595.51967,264.47857L595.99495,264.95382L596.70786,264.95382L597.89605,264.95382L598.8466,264.95382L600.03478,264.95382L
				601.46061,264.95382L602.41116,264.95382L602.88643,265.19145L603.36171,265.19145L603.83698,265.19145L604.78754,264.95382L
				605.26281,264.95382L605.73809,265.42908L605.97572,265.42908L606.451,265.42908L606.68864,265.19145L607.16391,265.19145L607.40155,265.19145
				L607.87682,265.19145L608.3521,265.42908L609.54029,265.6667L610.01556,265.90433L610.49084,266.14196L610.96611,266.85484L611.20375,267.33009
				L611.67902,267.56772L612.1543,267.56772L612.62957,268.04297L613.10485,268.2806L613.58012,268.51822L613.81776,268.75585L614.29304,268.75585
				L615.00595,268.75585L616.19414,268.2806L617.14469,268.04297L617.61996,268.04297L618.09524,267.80534L618.33287,267.80534L
				619.04579,267.80534L620.47161,267.33009L620.94689,267.33009L621.42216,267.33009L621.89744,267.33009L622.37271,267.56772L
				622.84799,267.56772L623.5609,267.33009L624.03618,267.56772L624.74909,268.2806L625.93728,268.99348L628.07601,269.46873L629.97711,270.18161
				L631.40294,270.89449L632.59113,272.08263L634.25459,272.55788L635.44278,272.79551L641.14608,275.17177L641.38372,280.87482
				L644.23537,285.1521L645.89883,286.81548L647.56229,288.00362L649.70103,289.90463L651.36449,291.33039L652.55268,292.04327L
				654.92906,293.70666L656.35488,294.41954L656.59252,296.32055L656.83016,299.4097L657.54307,306.5385"/>
		</g>
	</g>
</svg>
