<?xml version="1.0" encoding="utf-8" standalone="no"?>
<!-- Creator: Esri ArcMap 10.8.0.12790 -->
<!DOCTYPE svg PUBLIC "-//W3C//DTD SVG 1.1//EN"  "http://www.w3.org/Graphics/SVG/1.1/DTD/svg11.dtd">
<svg width="774.73701pt" height="404.24882pt" viewBox="0 0 774.73701 404.24882" enable-background="new 0 0 774.73701 404.24882"
	version="1.1" xmlns="http://www.w3.org/2000/svg" xmlns:xlink="http://www.w3.org/1999/xlink" >
	<g id="Layers">
		<g id="Tcholliré">
			<clipPath id="SVG_CP_1">
				<path d="M0,404.24882L0,0L774.73701,0L774.73701,404.24882L0,404.24882z"/>
			</clipPath>
			<path clip-path="url(#SVG_CP_1)" fill="none" stroke="#000000" stroke-width="0.47528" stroke-miterlimit="10" stroke-linecap="round" stroke-linejoin="round" d="
				M582.92488,82.45648L576.74631,167.0516L575.08284,166.1011L573.89466,165.86347L572.94411,165.38822L571.28064,164.91296L570.09245,164.43771
				L569.37954,163.96246L568.66663,163.4872L566.52789,162.06144L564.15152,160.39805L560.34932,158.02179L559.16113,157.30891L
				557.7353,156.3584L555.8342,155.64552L552.98255,154.45739L549.18035,152.55637L546.56634,151.60587L546.3287,152.08112L545.85343,153.50688
				L545.37815,155.17027L545.37815,156.3584L544.90288,157.54653L544.66524,158.49704L544.4276,159.68517L543.95233,160.39805L543.47705,162.29907
				L541.81359,166.57635L541.57595,167.28923L541.10067,167.76448L540.86304,168.00211L540.38776,168.23974L539.67485,168.47736
				L538.96194,168.71499L538.48666,168.71499L538.01139,168.71499L537.06084,168.95262L536.58556,168.95262L536.34792,169.6655L
				536.11029,170.14075L535.39737,170.37838L535.15974,170.85363L534.68446,171.32889L534.9221,171.56651L535.63501,171.80414L535.87265,172.04177
				L536.34792,172.51702L536.8232,172.75465L537.06084,172.99227L537.29847,173.2299L537.53611,173.46753L537.77375,173.70515L537.77375,173.94278
				L538.01139,174.18041L538.01139,174.41803L538.24902,174.65566L538.48666,174.89329L538.7243,175.13091L539.19957,175.13091L
				539.43721,175.36854L539.43721,175.84379L539.67485,176.55667L539.91249,177.74481L539.91249,178.45769L540.15012,179.17057L
				539.91249,179.64582L540.15012,180.59633L539.91249,181.30921L539.91249,181.78446L539.91249,182.02209L540.15012,182.25972L
				540.15012,182.49734L540.15012,182.9726L540.15012,183.44785L540.15012,183.9231L540.38776,184.63598L540.38776,185.82412L540.38776,186.29937
				L540.6254,186.29937L540.86304,186.537L541.10067,186.77462L541.10067,187.01225L541.33831,187.24988L541.57595,187.4875L541.81359,187.96276
				L542.05123,188.43801L542.28886,188.67564L542.5265,189.15089L542.76414,189.38852L543.00178,189.86377L543.47705,190.33902L
				543.47705,190.57665L543.47705,191.05191L543.47705,191.28953L543.23941,191.76479L543.23941,192.24004L543.23941,192.95292L
				543.23941,193.42817L543.00178,193.6658L542.76414,194.14105L542.5265,194.37868L542.5265,194.85393L542.5265,195.32919L542.28886,196.75495
				L542.5265,196.99257L542.76414,197.46783L542.76414,198.18071L542.76414,198.65596L542.5265,199.13121L542.28886,199.84409L542.76414,200.7946
				L543.00178,201.26986L543.47705,201.74511L543.71469,202.22036L543.71469,202.69562L543.71469,202.93324L543.95233,202.93324
				L544.18996,203.4085L544.18996,203.88375L544.4276,204.12138L544.66524,204.59663L544.66524,205.07188L544.4276,205.30951L544.4276,206.02239
				L544.18996,206.49764L543.71469,206.9729L543.23941,208.16103L543.00178,208.39866L543.00178,209.34916L543.00178,210.06204L
				543.23941,211.01255L543.23941,212.43831L543.47705,212.67594L543.71469,212.91357L543.95233,213.15119L544.18996,213.38882L
				544.4276,213.62645L544.4276,213.86407L544.4276,214.1017L544.66524,214.33933L544.66524,214.57695L544.90288,215.05221L545.14051,215.52746
				L545.37815,215.76509L545.61579,216.24034L546.09106,216.47797L546.3287,216.95322L546.3287,217.42847L546.3287,217.6661L546.56634,218.14135
				L546.56634,218.37898L546.56634,218.61661L546.3287,218.61661L546.09106,218.85423L546.09106,219.09186L546.3287,219.56711L546.09106,219.80474
				L546.09106,220.04237L546.3287,220.28L546.3287,220.51762L545.85343,220.75525L545.61579,220.99288L545.37815,221.2305L545.61579,221.2305
				L545.85343,221.46813L545.85343,221.70576L545.85343,221.94338L545.61579,222.18101L545.85343,222.41864L546.09106,222.65626
				L546.3287,223.13152L546.09106,223.36914L545.85343,223.36914L545.61579,223.36914L545.37815,223.8444L545.37815,224.08202L545.37815,224.55728
				L545.14051,224.7949L544.90288,224.7949L544.66524,224.7949L544.4276,225.03253L544.18996,225.03253L543.95233,224.7949L543.71469,224.7949
				L543.47705,224.7949L543.23941,224.7949L542.76414,224.7949L542.5265,224.7949L542.28886,225.03253L542.5265,225.03253L542.28886,225.27016
				L542.05123,225.27016L541.57595,225.27016L541.33831,225.27016L541.33831,225.50778L541.57595,225.74541L541.81359,225.74541
				L541.57595,225.98304L541.57595,226.22066L541.33831,226.22066L541.10067,226.22066L540.6254,226.45829L540.15012,226.69592L
				540.38776,226.93354L540.15012,227.17117L540.38776,227.4088L540.6254,227.4088L540.86304,227.64642L541.10067,227.64642L541.33831,227.88405
				L541.33831,228.59693L541.10067,229.07218L541.33831,229.07218L541.33831,229.54744L541.33831,229.78506L541.33831,230.02269
				L541.10067,230.26032L540.6254,230.49795L540.38776,230.9732L540.15012,231.21083L540.38776,231.44845L540.15012,231.68608L539.91249,232.16133
				L539.91249,232.63659L539.91249,232.87421L540.15012,233.34947L540.38776,233.82472L540.38776,234.29997L540.38776,235.01285
				L540.15012,235.48811L540.15012,235.72573L540.15012,235.96336L539.91249,236.20099L539.67485,236.43861L539.91249,236.43861
				L540.38776,236.43861L540.38776,236.91387L540.6254,237.86437L541.10067,239.52776L541.33831,240.00302L541.33831,241.19115L
				541.10067,241.90403L540.6254,242.61691L540.6254,243.09216L540.38776,243.32979L540.15012,243.80504L539.91249,244.04267L539.91249,244.51792
				L539.67485,244.75555L539.67485,244.99318L539.19957,244.99318L538.96194,244.99318L538.96194,245.2308L538.96194,245.46843L
				538.96194,245.94368L538.7243,246.41894L538.48666,246.65656L538.24902,247.13182L538.01139,247.36944L538.01139,247.60707L538.01139,248.08232
				L537.77375,248.31995L537.77375,248.7952L537.77375,249.03283L537.77375,249.27046L537.77375,249.74571L537.77375,250.22097L
				537.53611,250.45859L537.53611,250.93385L537.53611,251.17147L537.53611,251.64673L537.53611,251.88435L537.53611,252.35961L
				537.29847,252.59723L537.29847,252.83486L537.06084,253.07249L536.8232,253.54774L536.8232,253.78537L536.8232,254.49825L536.8232,255.21113
				L536.8232,255.44875L536.58556,255.68638L536.34792,256.16163L536.34792,256.63689L536.11029,257.11214L536.11029,257.58739L
				536.34792,257.82502L536.58556,258.06265L536.58556,258.5379L536.58556,258.77553L536.34792,259.25078L536.11029,259.25078L535.87265,259.48841
				L535.63501,259.72604L535.87265,259.96366L535.87265,260.20129L535.39737,260.20129L535.63501,260.43892L535.87265,260.67654
				L535.87265,261.1518L535.87265,261.38942L535.63501,261.62705L535.87265,262.1023L536.11029,262.1023L536.34792,262.33993L536.8232,263.05281
				L537.06084,263.29044L537.29847,263.76569L537.77375,264.00332L538.48666,264.24094L538.96194,264.95382L541.10067,270.65687
				L541.57595,272.79551L542.28886,274.69652L542.5265,275.88465L542.5265,276.83516L542.76414,277.31041L543.00178,277.54804L543.00178,277.78567
				L543.00178,278.02329L543.23941,278.26092L543.47705,278.49855L543.23941,278.73617L543.00178,278.9738L543.23941,278.9738L543.23941,279.44906
				L543.23941,279.68668L543.71469,280.16194L543.71469,280.39956L543.95233,280.63719L544.18996,280.87482L544.4276,281.11244L
				544.66524,281.35007L544.66524,281.5877L544.90288,281.82532L544.66524,282.06295L544.4276,282.30058L544.66524,282.5382L544.90288,282.5382
				L545.14051,282.5382L545.37815,282.77583L545.37815,283.01346L545.37815,283.25108L545.37815,283.48871L545.14051,283.48871L
				544.90288,283.72634L545.14051,283.72634L545.14051,283.96396L544.90288,284.20159L544.4276,284.43922L544.66524,284.43922L544.90288,284.67684
				L544.66524,284.91447L544.4276,284.91447L544.4276,285.1521L544.4276,285.38972L544.4276,285.62735L544.18996,285.62735L543.95233,285.62735
				L543.47705,286.1026L543.00178,286.34023L542.76414,286.81548L542.5265,287.29074L542.05123,287.29074L541.57595,287.29074L540.86304,287.76599
				L539.91249,288.24124L539.43721,288.7165L538.7243,288.95412L538.7243,289.19175L538.24902,289.42938L538.24902,289.66701L538.01139,289.90463
				L537.77375,289.90463L537.77375,290.14226L537.77375,290.37989L537.77375,290.61751L537.53611,290.61751L537.06084,290.37989
				L536.8232,290.37989L536.8232,290.85514L536.8232,291.09277L536.58556,291.09277L536.11029,291.09277L535.87265,291.09277L535.87265,291.33039
				L535.39737,291.56802L535.15974,291.80565L534.9221,291.80565L534.44682,292.04327L534.68446,292.51853L534.44682,292.51853L
				533.97155,292.75615L533.73391,292.99378L533.49627,292.75615L533.49627,292.99378L533.25864,293.23141L533.021,292.99378L532.54572,292.99378
				L532.54572,293.23141L532.54572,294.65717L532.30809,295.13242L532.30809,295.37005L532.07045,295.60767L531.83281,296.08293
				L531.83281,296.55818L532.07045,297.27106L532.30809,297.98394L531.83281,297.98394L531.35754,298.45919L531.83281,299.17208
				L531.83281,300.12258L532.30809,300.12258L532.30809,300.36021L532.54572,300.36021L533.021,300.83546L533.25864,302.49885L533.49627,303.92461
				L533.021,304.63749L532.78336,305.588L532.78336,306.5385L532.54572,307.72664L532.54572,308.43952L533.25864,309.62765L533.97155,310.81579
				L534.9221,312.24155L535.39737,313.66731L536.11029,314.85544L537.53611,316.04357L538.24902,317.23171L538.48666,318.18221L
				538.24902,319.37035L537.29847,320.32086L536.34792,321.74662L536.8232,322.69712L538.01139,323.88526L539.19957,324.83576L540.6254,325.54864
				L540.6254,325.07339L541.33831,324.83576L541.57595,325.54864L542.05123,326.73678L543.23941,327.68728L544.18996,328.16254L
				544.66524,328.87542L545.61579,329.82593L545.61579,330.06355L545.61579,331.96457L545.85343,332.43982L546.09106,333.62795L
				546.3287,335.05371L546.56634,335.29134L547.51689,335.76659L547.99216,336.24185L548.2298,337.42998L548.46744,338.61812L549.41799,339.80625
				L549.41799,340.51913L549.89326,341.23201L550.60618,341.70726L552.26964,343.13302L552.74491,343.60828L552.98255,344.08353
				L552.98255,345.50929L552.74491,347.17268L553.22019,348.59844L553.45783,349.78657L553.69546,351.21233L553.9331,352.16284L
				553.9331,353.11335L554.17074,354.30148L554.64601,355.48961L555.35893,357.153L555.8342,358.10351L556.30948,359.29164L556.78475,360.47978
				L557.02239,362.14316L557.26003,362.61842L557.7353,363.56892L558.68585,365.94519L558.92349,366.42044L560.11168,369.74722L
				560.34932,370.22247L560.82459,371.41061L560.82459,372.36111L561.06223,373.31162L561.5375,374.73738L562.25042,375.45026L563.67624,377.35127
				L563.91388,378.30178L564.86443,379.01466L565.10207,379.96517L565.10207,381.1533L566.05262,382.34144L566.29025,383.7672L566.29025,384.48008
				L566.05262,385.19296L565.3397,385.19296L564.86443,385.19296L564.15152,384.7177L562.01278,384.00482L558.44822,383.7672L557.02239,384.00482
				L556.07184,384.00482L554.17074,383.05432L552.26964,382.10381L551.79436,382.81669L550.84381,384.24245L550.1309,384.95533L
				549.41799,385.19296L548.70508,385.66821L547.75453,385.90584L546.56634,385.66821L547.75453,384.7177L547.99216,384.48008L548.46744,384.24245
				L548.70508,384.00482L548.70508,383.7672L548.2298,383.52957L548.2298,383.29194L548.2298,382.81669L547.99216,382.34144L548.2298,382.10381
				L548.2298,381.62856L547.99216,381.39093L548.2298,381.1533L547.99216,380.67805L547.51689,380.2028L547.27925,379.96517L546.80398,379.01466
				L546.56634,378.77704L546.56634,379.01466L546.09106,378.77704L545.85343,378.77704L545.61579,378.53941L545.37815,378.06416
				L545.37815,377.5889L545.61579,377.35127L545.61579,377.11365L545.14051,377.35127L543.95233,377.11365L543.95233,376.87602L
				543.71469,376.40077L543.71469,376.16314L542.76414,376.40077L542.28886,375.45026L542.05123,375.21263L541.57595,374.97501L
				541.57595,374.49975L541.33831,374.26213L541.57595,373.78687L541.57595,373.54925L541.57595,373.31162L541.33831,373.07399L
				541.33831,372.83637L541.57595,372.36111L541.33831,372.12349L540.86304,371.88586L541.10067,371.64823L541.10067,371.17298L
				540.86304,370.93535L540.6254,371.17298L540.38776,371.41061L540.38776,371.17298L540.15012,371.17298L540.15012,370.93535L539.67485,370.93535
				L539.43721,370.93535L539.43721,370.69773L539.91249,370.4601L539.91249,370.22247L539.91249,369.74722L539.67485,369.74722L
				539.43721,369.74722L539.19957,369.50959L539.19957,369.03434L538.96194,368.79671L538.7243,368.79671L538.24902,369.03434L538.01139,368.32146
				L537.77375,368.32146L537.29847,368.32146L537.06084,368.32146L537.29847,368.08383L537.29847,367.13332L537.29847,366.65807
				L537.06084,366.65807L537.06084,366.18282L537.29847,365.94519L537.06084,365.70756L537.29847,365.46994L537.06084,364.99468
				L536.58556,364.75706L536.58556,364.51943L536.8232,364.51943L537.29847,364.51943L537.53611,364.2818L537.53611,364.04418L537.29847,363.80655
				L537.29847,363.56892L537.06084,363.09367L537.06084,362.61842L536.8232,362.61842L536.58556,362.38079L536.11029,362.61842L
				535.63501,362.61842L534.68446,362.38079L534.44682,362.61842L534.44682,362.85604L534.20919,363.09367L533.97155,363.3313L533.73391,363.3313
				L533.97155,363.56892L533.73391,364.04418L533.49627,364.04418L533.25864,363.80655L533.25864,363.3313L533.021,362.85604L532.78336,363.09367
				L532.30809,363.09367L532.07045,363.09367L531.59517,363.3313L531.83281,363.56892L531.59517,364.04418L531.35754,364.2818L530.40699,364.2818
				L530.16935,364.2818L529.69407,364.51943L528.98116,364.75706L527.79297,364.04418L527.3177,364.04418L527.08006,364.04418L526.60479,364.04418
				L526.12951,364.04418L525.89187,364.04418L525.65423,364.2818L525.4166,364.2818L525.17896,364.04418L524.46605,364.04418L524.22841,364.04418
				L523.99077,363.80655L523.5155,363.3313L523.04022,363.09367L522.80258,363.3313L522.56495,363.80655L522.32731,363.80655L522.08967,364.04418
				L521.6144,363.80655L521.13912,364.04418L521.13912,364.51943L520.66385,364.51943L520.18857,364.75706L520.18857,364.99468L
				520.18857,364.75706L519.47566,364.51943L519.23802,364.2818L519.00038,364.04418L518.52511,363.80655L518.28747,363.3313L518.28747,362.85604
				L518.52511,362.38079L518.28747,361.90554L518.04983,361.90554L517.8122,361.66791L517.33692,361.66791L517.09928,361.43028L
				516.86165,361.19266L516.38637,361.19266L515.9111,361.43028L515.67346,361.43028L515.43582,361.43028L515.19818,361.66791L514.96055,362.38079
				L514.48527,362.38079L514.01,362.85604L513.77236,362.85604L513.29708,362.85604L513.05945,363.09367L512.58417,363.3313L512.34653,363.80655
				L511.87126,364.04418L511.39598,364.2818L511.15835,364.51943L511.15835,364.75706L510.92071,364.99468L510.68307,365.23231L
				509.01961,365.23231L508.78197,364.99468L508.54433,364.75706L508.30669,364.2818L507.83142,364.04418L507.35614,364.2818L506.88087,364.75706
				L506.64323,364.99468L506.16796,365.23231L505.69268,364.99468L504.97977,364.75706L504.26686,364.2818L503.55394,364.51943L
				501.65284,364.51943L500.46466,364.2818L499.51411,364.04418L498.56356,364.04418L497.85064,363.56892L496.42482,362.85604L495.94954,362.61842
				L494.04844,362.38079L493.09789,362.38079L492.14734,362.14316L491.67207,361.90554L491.67207,361.19266L491.9097,360.95503L
				491.67207,360.47978L492.38498,359.29164L492.86025,357.86588L493.57317,356.67775L494.52372,355.96487L494.99899,355.25199L
				495.71191,354.77673L497.37537,355.25199L498.32592,355.01436L499.51411,354.30148L500.22702,353.35097L500.46466,352.63809L
				500.46466,351.68759L500.70229,350.26183L500.70229,349.78657L500.70229,349.07369L499.98938,346.69742L499.51411,345.98454L
				499.03883,345.74692L498.80119,345.27166L498.80119,344.79641L499.27647,343.8459L499.51411,343.37065L499.51411,342.8954L499.51411,340.04388
				L499.51411,339.09337L499.51411,338.38049L499.27647,337.66761L498.80119,337.19235L497.61301,337.42998L496.66246,337.19235
				L495.94954,337.19235L495.71191,336.95473L494.76135,336.7171L494.28608,336.47947L494.04844,336.24185L494.28608,335.52897L
				494.76135,334.57846L496.18718,332.20219L496.18718,331.96457L496.42482,331.48931L496.66246,331.01406L496.66246,330.53881L
				496.66246,329.82593L496.42482,329.35067L495.94954,329.11305L494.99899,328.87542L494.76135,328.87542L494.28608,328.63779L
				493.57317,328.63779L493.09789,328.63779L493.09789,328.40017L492.62262,328.40017L492.38498,328.63779L492.14734,328.63779L
				491.9097,328.40017L491.43443,328.87542L491.19679,328.87542L490.95915,328.63779L490.24624,328.16254L489.53333,327.92491L489.05805,328.16254
				L488.58278,329.35067L488.34514,329.5883L488.1075,329.5883L487.63223,329.5883L487.39459,328.87542L486.91932,328.63779L486.44404,328.40017
				L485.96877,328.40017L485.96877,327.68728L485.73113,327.44966L485.49349,327.21203L485.01822,326.9744L484.54294,326.73678L
				483.59239,326.9744L482.16657,326.26152L481.92893,326.0239L482.16657,325.78627L482.4042,325.54864L482.4042,325.07339L482.64184,324.83576
				L482.64184,324.36051L482.4042,324.12288L480.74074,322.69712L479.79019,322.69712L479.07728,321.98424L478.602,321.74662L478.12673,321.50899
				L477.88909,321.27136L477.41381,321.03374L476.93854,321.03374L476.7009,320.79611L475.98799,320.55848L475.75035,320.08323L
				475.51271,319.37035L474.7998,318.8951L474.32453,318.41984L474.56216,318.18221L474.56216,317.70696L474.08689,317.23171L474.08689,316.2812
				L474.32453,315.09307L473.84925,314.85544L473.61161,314.85544L473.37398,314.61781L473.13634,314.38019L472.18579,313.66731
				L472.66106,313.66731L472.8987,313.42968L472.66106,313.19205L472.66106,312.47917L472.8987,312.24155L472.8987,312.00392L472.66106,311.52867
				L472.8987,311.29104L473.37398,310.81579L473.84925,310.10291L473.84925,309.86528L473.13634,309.62765L472.42343,309.39003L
				471.94815,308.91477L471.23524,308.91477L470.75996,309.1524L470.04705,309.1524L469.80941,308.67715L469.57178,308.43952L467.43304,307.25138
				L467.67068,306.77613L468.38359,303.44936L468.62123,302.73648L468.62123,301.31072L468.62123,300.83546L468.38359,300.36021
				L468.14595,299.88496L467.90831,299.17208L467.67068,298.93445L467.43304,298.45919L467.43304,298.22157L467.43304,297.74631
				L467.1954,297.50869L467.1954,297.27106L467.1954,296.55818L467.43304,295.60767L467.1954,295.13242L466.72013,294.65717L466.24485,294.65717
				L466.00721,294.65717L465.53194,294.89479L465.2943,294.65717L465.05666,294.89479L464.81903,294.65717L464.58139,294.65717L
				464.10611,294.89479L463.86847,294.89479L463.63084,294.89479L463.3932,294.65717L463.15556,294.65717L462.91792,294.65717L462.68029,294.65717
				L462.44265,294.65717L462.20501,294.65717L461.96737,294.41954L461.4921,294.41954L461.01682,294.41954L460.77919,294.18191L
				460.54155,294.41954L460.30391,294.41954L460.30391,294.18191L460.06627,294.41954L459.82864,294.18191L459.82864,293.94429L
				459.82864,293.70666L459.35336,293.70666L459.11572,293.46903L459.35336,293.46903L459.35336,293.23141L459.35336,292.99378L
				459.11572,292.99378L459.11572,292.75615L459.11572,292.51853L458.87809,292.2809L458.64045,292.2809L458.40281,292.04327L458.64045,292.04327
				L458.87809,292.04327L458.87809,291.80565L458.64045,291.80565L458.64045,291.56802L458.87809,290.85514L458.16517,290.85514
				L457.6899,291.09277L457.45226,290.85514L456.73935,290.85514L456.73935,290.61751L456.50171,290.37989L456.26407,290.37989L
				456.26407,290.61751L456.26407,290.85514L456.02644,290.85514L455.7888,290.85514L455.55116,290.61751L455.55116,290.85514L455.31352,291.09277
				L455.07589,290.85514L455.07589,290.61751L455.07589,290.37989L454.83825,289.90463L454.60061,289.90463L454.36297,289.66701
				L454.36297,289.42938L454.12534,289.66701L453.8877,289.42938L453.65006,289.19175L453.17479,289.42938L452.93715,289.19175L
				452.69951,289.42938L452.22424,289.42938L451.9866,289.19175L451.51132,289.19175L451.27369,288.95412L451.27369,288.24124L451.27369,288.00362
				L451.03605,287.76599L451.03605,287.52836L450.79841,287.29074L450.79841,287.05311L450.79841,286.81548L450.56077,286.57786
				L450.32314,286.57786L450.0855,286.1026L449.84786,285.86498L449.61022,285.62735L449.84786,285.38972L449.61022,285.38972L449.61022,285.1521
				L449.61022,284.67684L449.37259,284.67684L449.13495,284.43922L448.89731,284.20159L448.89731,283.96396L448.89731,283.72634
				L449.13495,283.96396L449.13495,283.72634L449.13495,283.48871L448.65967,283.25108L448.89731,281.5877L448.89731,280.87482L
				448.65967,280.87482L448.65967,280.39956L449.13495,279.92431L449.37259,279.44906L449.61022,278.9738L449.61022,278.49855L449.61022,278.02329
				L449.84786,277.78567L449.84786,277.31041L449.37259,276.83516L449.13495,277.07279L449.13495,276.59753L449.13495,276.35991
				L448.89731,276.12228L448.65967,276.12228L448.65967,275.88465L449.13495,275.64703L449.37259,275.4094L449.37259,274.93415L
				449.61022,274.69652L449.61022,274.45889L449.13495,274.45889L449.61022,274.22127L449.61022,273.98364L449.84786,273.74601L
				449.61022,273.50839L449.61022,273.27076L449.37259,272.79551L449.13495,272.79551L448.89731,272.55788L448.65967,272.32025L
				448.65967,272.08263L448.42204,271.60737L448.42204,271.36975L448.1844,271.36975L447.94676,271.60737L447.94676,271.36975L447.94676,271.13212
				L448.1844,270.89449L447.94676,270.65687L447.70912,270.65687L447.47148,270.65687L447.47148,270.41924L447.47148,270.18161L
				447.23385,269.94399L446.99621,269.70636L446.75857,269.70636L446.2833,269.46873L446.2833,269.2311L446.04566,269.2311L445.80802,269.46873
				L445.80802,269.2311L445.33275,269.2311L445.09511,268.99348L444.85747,269.2311L444.85747,268.99348L444.3822,269.2311L444.14456,268.99348
				L443.90692,268.99348L443.66928,269.46873L443.43165,269.46873L443.19401,269.70636L443.19401,269.94399L442.95637,270.18161
				"/>
			<path clip-path="url(#SVG_CP_1)" fill="none" stroke="#000000" stroke-width="0.47528" stroke-miterlimit="10" stroke-linecap="round" stroke-linejoin="round" d="
				M442.95637,270.18161L442.95637,269.94399L442.71873,269.70636L442.4811,269.94399L442.24346,269.94399L442.00582,269.94399L
				442.00582,270.18161L442.00582,270.41924L441.76818,270.65687L441.05527,270.89449L440.81763,270.89449L440.81763,271.13212L
				439.86708,271.60737L439.86708,271.845L439.86708,272.32025L439.62945,272.32025L439.39181,271.845L439.15417,272.08263L438.91653,272.32025
				L438.44126,272.32025L438.20362,272.08263L437.96598,272.32025L437.72835,272.32025L437.49071,272.55788L437.25307,272.55788
				L437.25307,272.32025L437.25307,272.08263L436.7778,272.08263L436.7778,272.32025L436.06488,272.32025L435.82725,272.08263L435.82725,271.845
				L434.8767,271.60737L434.40142,271.36975L433.92615,271.60737L433.45087,271.36975L433.21323,271.60737L432.73796,271.36975L
				432.50032,271.13212L432.26268,271.13212L431.78741,271.13212L431.31213,271.13212L431.07449,271.36975L430.83686,271.36975L
				430.12394,271.13212L429.88631,271.36975L429.64867,271.13212L429.17339,271.13212L428.93576,271.13212L428.46048,271.36975L
				428.22284,271.36975L427.74757,271.36975L427.50993,271.60737L427.03466,271.60737L426.79702,271.60737L426.55938,271.845L426.32174,271.845
				L426.08411,271.60737L426.08411,271.36975L426.32174,271.13212L426.32174,270.89449L426.08411,270.89449L425.84647,271.13212
				L425.60883,271.36975L425.60883,271.60737L425.13356,271.60737L424.89592,271.60737L424.65828,271.36975L424.42064,271.13212
				L424.18301,271.36975L423.94537,271.60737L423.47009,271.60737L423.47009,271.845L423.70773,272.08263L424.18301,272.32025L424.42064,272.32025
				L423.70773,272.32025L423.23246,272.55788L422.51954,272.79551L422.04427,272.55788L421.80663,272.32025L421.33136,272.32025
				L420.61844,273.03313L420.61844,273.27076L420.14317,273.50839L419.90553,273.27076L419.90553,273.03313L419.66789,272.79551
				L419.43026,272.79551L419.43026,272.55788L419.19262,272.32025L418.95498,272.32025L418.71734,272.32025L418.24207,272.32025
				L418.00443,272.08263L417.52916,271.845L417.05388,271.845L416.5786,271.845L416.34097,271.845L416.34097,271.60737L416.10333,271.36975
				L415.86569,270.89449L415.62805,270.65687L415.62805,270.41924L415.86569,270.18161L415.62805,270.18161L415.39042,269.70636
				L415.15278,269.46873L415.15278,268.99348L415.15278,268.75585L415.15278,268.51822L415.15278,268.2806L414.91514,268.04297L
				414.6775,267.80534L414.43987,267.80534L414.20223,267.80534L413.96459,267.56772L413.25168,267.80534L413.01404,267.80534L412.7764,267.33009
				L412.53877,267.56772L412.30113,267.33009L411.82585,267.33009L411.58822,267.33009L410.63767,267.09246L410.16239,267.09246
				L409.92475,267.33009L409.68712,267.33009L409.21184,267.33009L409.21184,267.09246L408.9742,266.85484L408.49893,266.85484L
				408.26129,266.85484L408.02365,267.09246L407.54838,267.56772L407.31074,267.09246L407.0731,266.61721L406.83547,266.61721L406.59783,266.37958
				L406.12255,265.90433L405.88492,265.90433L405.64728,265.6667L405.40964,265.42908L405.172,265.19145L404.93437,265.19145L404.69673,265.42908
				L404.45909,265.19145L403.98382,264.95382L403.50854,264.95382L403.2709,264.95382L403.03327,264.7162L402.55799,264.47857L402.32035,264.47857
				L401.60744,265.19145L401.3698,264.95382L401.13216,264.7162L400.65689,264.7162L400.18161,264.7162L399.94398,264.7162L399.70634,264.7162
				L399.4687,264.7162L399.4687,264.95382L398.99343,264.7162L398.99343,264.95382L398.75579,265.19145L398.51815,265.19145L398.51815,264.95382
				L398.51815,264.47857L398.28051,264.24094L398.04288,264.24094L397.80524,264.00332L396.61705,264.00332L396.37941,263.76569
				L396.61705,263.76569L396.61705,263.52806L396.85469,263.29044L396.61705,263.29044L396.37941,263.29044L395.90414,263.29044
				L395.90414,263.05281L395.42886,262.57756L395.19123,262.33993L395.19123,262.1023L394.95359,261.86468L394.71595,261.86468L
				394.47831,261.86468L394.47831,261.62705L394.00304,261.62705L393.52776,261.38942L393.05249,261.1518L393.05249,260.67654L392.57721,260.43892
				L392.10194,259.72604L391.62666,259.01315L391.15139,259.01315L390.67611,259.01315L390.20084,259.01315L389.9632,258.77553L
				389.48793,258.30027L389.48793,257.82502L389.48793,257.34977L389.25029,257.11214L389.48793,256.87451L389.72556,256.39926L
				390.20084,256.16163L390.43848,255.92401L390.67611,255.21113L390.91375,254.9735L391.38903,254.73587L391.38903,254.26062L391.62666,253.78537
				L392.10194,253.78537L392.33958,253.54774L392.57721,253.31011L392.81485,253.07249L393.05249,253.07249L392.81485,252.59723
				L393.05249,252.12198L393.29013,251.64673L393.52776,250.69622L393.52776,249.98334L393.05249,249.50808L393.05249,249.27046
				L392.57721,248.7952L392.33958,248.31995L392.10194,247.8447L391.8643,247.36944L390.91375,246.89419L390.20084,246.18131L389.72556,245.70606
				L389.72556,244.75555L390.43848,244.04267L391.62666,242.61691L392.10194,241.6664L391.8643,241.19115L391.62666,240.7159L392.10194,240.24064
				L392.10194,239.52776L392.10194,238.81488L391.62666,238.33963L390.91375,238.102L389.9632,238.102L389.25029,238.102L389.01265,238.102
				L388.77501,238.102L388.29974,238.102L388.29974,237.86437L388.0621,237.38912L387.11155,237.38912L386.63628,237.15149L386.39864,236.91387
				L386.39864,236.43861L385.92336,236.43861L385.68572,236.20099L385.44809,235.96336L385.44809,235.72573L384.97281,235.48811
				L384.73517,235.25048L384.73517,234.77523L384.2599,234.77523L384.02226,234.5376L383.30935,234.5376L382.83407,234.29997L382.59644,234.06235
				L382.12116,233.82472L381.88352,233.34947L382.12116,233.11184L382.12116,232.63659L382.12116,232.39896L381.64589,232.16133
				L381.40825,231.92371L380.93297,231.68608L380.22006,231.68608L379.74479,231.44845L379.50715,231.21083L379.26951,230.49795
				L379.03187,230.26032L379.03187,229.54744L378.31896,229.30981L377.84369,229.07218L377.13077,229.07218L376.6555,229.07218L
				376.41786,229.30981L375.94259,229.54744L375.46731,229.54744L375.46731,229.07218L375.22967,229.07218L374.51676,229.07218L
				374.04149,229.07218L373.80385,229.07218L373.56621,228.59693L373.32857,228.3593L373.09094,227.88405L372.8533,227.64642L372.61566,227.64642
				L372.14039,227.64642L371.90275,227.17117L371.42747,226.69592L371.18984,226.45829L370.47692,226.45829L370.00165,226.45829
				L369.76401,226.22066L369.76401,225.98304L369.76401,225.74541L369.52637,225.27016L369.28873,224.7949L369.28873,224.55728L
				369.0511,224.31965L369.0511,223.8444L369.0511,223.36914L368.57582,223.36914L368.10055,223.36914L367.38763,222.41864L366.91236,221.70576
				L366.91236,221.2305L367.38763,220.99288L367.38763,220.75525L367.38763,220.04237L367.15,220.04237L366.67472,220.04237L366.19945,219.80474
				L366.67472,219.56711L366.67472,219.32949L366.43708,219.09186L366.19945,219.09186L365.96181,218.61661L365.48653,218.37898
				L365.2489,217.6661L365.01126,217.19085L365.2489,216.95322L365.2489,216.71559L365.72417,216.24034L365.48653,216.00271L365.01126,215.52746
				L365.01126,214.81458L364.77362,214.33933L365.01126,213.62645L364.77362,213.62645L364.29835,213.62645L364.06071,212.91357
				L363.82307,212.20069L363.3478,212.20069L363.11016,211.72543L363.11016,211.48781L362.63488,210.77493L362.39725,210.5373L361.92197,210.29967
				L361.68433,209.82442L361.68433,209.58679L361.4467,208.87391L361.4467,208.63628L361.20906,208.39866L360.97142,208.16103L360.49615,207.9234
				L359.78323,206.9729L359.5456,206.49764L359.07032,206.49764L358.83268,206.26002L358.83268,205.78476L358.59505,205.07188L358.59505,204.359
				L358.35741,204.12138L358.11977,203.64612L358.35741,202.69562L358.59505,202.22036L358.83268,201.50748L359.07032,200.7946L
				359.30796,200.08172L360.02087,198.89359L360.25851,198.65596L360.25851,198.18071L360.25851,197.70545L360.02087,197.2302L360.25851,196.27969
				L360.25851,195.56681L360.25851,195.09156L359.78323,194.85393L359.78323,194.37868L359.78323,193.42817L360.02087,192.71529
				L360.49615,192.24004L360.25851,191.52716L360.25851,191.28953L359.78323,191.05191L359.5456,190.81428L359.07032,190.57665L
				358.83268,190.33902L358.35741,190.1014L358.11977,189.62614L357.16922,189.38852L356.45631,188.91326L356.21867,188.67564L355.98103,188.20038
				L355.7434,187.72513L355.50576,187.96276L354.79284,188.20038L354.31757,188.20038L354.07993,187.96276L353.60466,187.24988L
				353.36702,186.77462L352.89174,186.537L352.65411,186.06174L352.89174,185.34886L353.60466,184.87361L353.60466,184.39836L353.36702,184.16073
				L353.12938,183.9231L352.65411,183.68548L352.41647,183.44785L352.17883,182.9726L351.94119,182.73497L351.22828,182.49734L350.75301,182.25972
				L350.04009,182.02209L349.56482,182.49734L348.85191,182.73497L348.37663,182.9726L347.90136,183.21022L347.42608,183.44785L
				346.95081,183.68548L347.18844,184.16073L347.18844,184.87361L346.47553,185.34886L346.00026,185.34886L345.52498,185.58649L
				345.28734,185.82412L345.28734,186.29937L344.57443,186.537L344.09916,186.537L343.38624,186.77462L342.91097,187.24988L342.43569,187.4875
				L341.72278,187.72513L340.77223,187.96276L340.29696,187.96276L339.82168,188.20038L338.87113,187.96276L338.15822,187.72513
				L337.4453,187.72513L336.97003,187.96276L336.25712,188.67564L335.78184,189.15089L335.30657,189.38852L334.35602,189.15089L
				333.88074,189.15089L333.40547,189.38852L333.40547,189.15089L333.16783,188.91326L332.69255,188.91326L332.69255,188.43801L
				332.45492,188.67564L331.742,189.15089L331.26673,189.15089L330.55382,189.15089L329.8409,188.67564L329.12799,188.91326L328.65272,189.15089
				L327.9398,189.38852L326.98925,189.62614L326.51398,189.38852L326.0387,189.15089L325.56343,188.91326L325.32579,188.91326L325.08815,188.67564
				L324.61288,188.91326L324.1376,189.38852L323.66233,190.1014L323.18705,190.1014L322.94941,190.81428L322.71178,191.76479L322.2365,192.24004
				L321.76123,192.47767L321.52359,192.71529L320.81068,193.19055L320.3354,193.19055L320.09776,193.19055L319.62249,193.19055L
				319.14721,192.95292L318.67194,192.71529L317.95903,192.47767L317.24611,192.24004L316.77084,192.00241L316.5332,191.76479L316.05793,191.52716
				L315.10738,191.52716L314.6321,191.28953L314.15683,191.28953L313.20628,191.28953L312.731,191.28953L312.01809,191.28953L311.54281,191.28953
				L311.30518,191.05191L310.59226,191.05191L309.87935,191.05191L309.40408,190.81428L308.69116,190.81428L308.45353,190.33902
				L307.74061,189.86377L307.74061,189.62614L307.0277,189.38852L306.55242,189.38852L305.60187,189.62614L304.88896,189.86377L
				303.93841,190.1014L302.27495,190.57665L301.79967,190.81428L301.08676,191.05191L300.37385,191.05191L299.66094,191.05191L298.71039,191.28953
				L298.23511,191.52716L297.5222,191.76479L296.57165,192.00241L296.09637,192.24004L294.67055,192.24004L294.19527,192.47767L
				293.00709,192.24004L292.05653,192.47767L290.63071,192.24004L289.68016,192.00241L288.72961,191.52716L287.54142,191.05191L
				287.06615,190.57665L286.82851,189.86377L286.82851,189.62614L286.82851,188.91326L286.82851,188.43801L287.06615,188.20038L
				287.06615,187.96276L287.54142,187.01225L287.54142,186.77462L287.54142,186.29937L287.77906,185.82412L287.77906,185.58649L
				288.0167,184.87361L287.54142,184.16073L287.30378,183.9231L287.06615,183.9231L286.82851,182.9726L285.87796,182.25972L285.64032,182.02209
				L285.40268,181.30921L285.40268,181.07158L284.92741,180.83396L284.45213,180.59633L283.73922,180.3587L283.50158,180.3587L283.02631,180.59633
				L282.78867,180.59633L282.55103,180.3587L282.07576,180.3587L281.83812,180.3587L281.60048,180.12107L281.36285,180.12107L280.88757,179.88345
				L280.4123,179.88345L279.93702,179.64582L279.69938,179.40819L279.46175,179.40819L278.74883,179.40819L278.27356,179.40819L
				278.03592,179.40819L278.03592,179.17057L277.56065,178.93294L277.32301,179.17057L276.84773,179.17057L276.61009,179.17057L
				276.37246,179.17057L276.13482,179.40819L275.89718,179.40819L275.42191,179.17057L274.70899,178.93294L274.23372,178.93294L
				273.99608,178.69531L273.52081,178.69531L273.28317,178.93294L273.04553,179.64582L272.57026,179.88345L271.61971,179.88345L
				271.38207,179.40819L270.43152,179.17057L270.19388,179.40819L269.48097,179.17057L268.76806,178.93294L268.76806,178.45769L
				268.53042,178.45769L268.29278,177.98243L268.05514,177.74481L267.57987,177.98243L267.10459,177.98243L266.62932,177.98243L
				266.15404,177.74481L265.67877,177.74481L264.96586,177.98243L264.72822,178.45769L264.49058,178.45769L264.01531,178.22006L
				263.30239,178.45769L262.58948,178.69531L262.35184,178.93294L261.87657,178.93294L261.40129,178.69531L260.45074,179.17057L
				259.97547,179.17057L259.50019,178.69531L259.50019,178.45769L258.78728,178.22006L258.54964,178.45769L258.07437,178.69531L
				257.59909,178.93294L257.36145,178.93294L256.88618,179.17057L256.4109,178.93294L255.93563,178.69531L255.69799,178.93294L255.22272,179.17057
				L254.74744,179.40819L254.27217,178.93294L254.03453,178.93294L253.55925,178.93294L253.08398,179.40819L252.84634,179.64582
				L252.37107,179.64582L251.42052,179.40819L250.94524,179.17057L250.23233,179.17057L249.75705,178.69531L249.04414,178.69531
				L248.09359,178.45769L247.61832,178.45769L247.14304,178.45769L246.66777,178.69531L246.43013,178.45769L245.95485,178.45769
				L245.47958,178.45769L244.76666,178.22006L244.29139,178.22006L243.34084,178.69531L242.86556,178.69531L242.39029,178.93294
				L242.15265,178.93294L241.67738,178.69531L240.96446,178.45769L240.48919,178.45769L240.01391,177.98243L239.77628,177.74481
				L239.06336,177.50718L238.58809,177.50718L237.87518,177.50718L237.3999,177.50718L237.16226,177.50718L236.68699,177.74481L
				236.21171,177.50718L235.4988,177.50718L234.78589,177.26955L233.83534,177.03193L233.12243,176.7943L232.64715,176.7943L232.40951,177.03193
				L232.17188,177.26955L231.93424,177.50718L231.6966,177.50718L231.45896,177.03193L231.45896,176.7943L231.22133,176.31905L230.98369,175.84379
				L230.74605,175.84379L230.27077,175.84379L230.03314,176.08142L229.55786,176.08142L229.08259,176.08142L228.60731,176.08142
				L228.13204,176.08142L227.65676,176.08142L227.18149,175.84379L226.94385,175.13091L226.94385,174.65566L226.94385,174.18041
				L226.70621,173.70515L226.46857,173.2299L226.70621,172.51702L226.70621,172.04177L226.23094,172.04177L225.51802,171.80414L
				225.28039,171.32889L224.32984,171.09126L223.85456,171.09126L223.37929,170.85363L222.90401,170.616L222.42874,170.616L221.95346,170.37838
				L221.47819,170.37838L220.76527,170.14075L220.29,169.90312L220.29,169.6655L219.81472,169.42787L219.57709,169.19024L219.33945,168.95262
				L218.86417,168.71499L218.3889,168.71499L218.15126,168.71499L217.67599,168.71499L217.43835,168.47736L216.96307,168.23974L
				216.72544,167.76448L216.01252,167.0516L215.77489,166.57635L215.29961,166.1011L214.82433,165.86347L214.34906,165.62584L213.87378,165.62584
				L213.39851,165.86347L212.92323,165.86347L212.44796,165.86347L212.21032,165.86347L211.73505,165.86347L211.25977,165.62584
				L210.7845,165.62584L210.30922,165.86347L209.83395,165.86347L209.35867,165.86347L208.8834,165.86347L208.40812,165.38822L207.93285,165.38822
				L207.69521,164.91296L207.21993,164.67534L206.74466,164.43771L206.74466,164.20008L206.26938,163.72483L206.03175,163.4872L
				205.55647,163.4872L204.84356,162.77432L204.36828,162.29907L203.89301,162.06144L202.94246,161.58619L202.46718,161.34856L202.22955,161.11094
				L201.99191,160.63568L201.75427,160.39805L201.51663,160.39805L201.04136,159.9228L201.04136,159.44755L200.80372,158.97229L
				201.04136,158.25941L201.04136,157.78416L201.04136,157.07128L201.279,156.3584L201.279,155.88315L201.51663,155.64552L201.99191,154.93264
				L202.22955,154.69501L202.22955,154.45739L202.22955,153.98213L201.75427,153.50688L201.75427,153.26925L201.75427,152.794L201.51663,152.08112
				L201.279,151.36824L201.04136,150.89298L200.56608,150.65536L200.09081,150.1801L199.61553,149.70485L199.14026,148.99197L198.66498,148.75434
				L198.18971,148.27909L197.47679,147.80384L196.76388,147.56621L196.28861,147.32858L195.81333,147.09096L195.33806,145.90282
				L195.10042,145.42757L195.10042,144.95232L195.10042,144.47706L194.86278,143.76418L194.62514,143.52656L194.62514,142.81368
				L194.38751,142.57605L194.14987,142.1008L194.38751,141.62554L194.38751,140.91266L194.14987,140.43741L193.19932,139.4869L193.19932,139.24927
				L192.72404,139.01165L192.01113,138.29877L192.01113,137.82351L192.01113,137.34826L192.01113,136.87301L192.24877,136.39775
				L192.24877,135.9225L192.48641,135.20962L192.24877,134.97199L192.48641,134.25911L192.48641,133.78386L192.96168,133.07098L
				192.96168,132.83335L193.19932,132.59573L193.43696,132.59573L193.91223,132.3581L194.14987,132.12047L194.38751,131.88285L194.62514,131.40759
				L194.86278,130.93234L194.86278,130.69471L195.33806,130.45708L195.57569,131.16996L195.57569,131.64522L195.57569,131.88285
				L195.81333,131.88285L196.05097,132.12047L196.05097,132.59573L196.52624,132.59573L197.00152,132.59573L197.23916,132.59573
				L197.47679,132.3581L197.71443,132.59573L197.71443,133.07098L197.71443,133.54623L197.47679,134.02149L197.00152,134.25911L
				197.00152,134.49674L197.23916,135.20962L197.23916,135.44725L197.23916,135.9225L197.00152,136.39775L197.00152,136.87301L197.23916,137.11063
				L197.71443,137.34826L198.18971,137.34826L198.90262,137.58589L199.14026,137.82351L199.61553,138.06114L200.09081,138.06114
				L200.32845,138.29877L200.80372,138.53639L201.04136,138.77402L201.04136,139.01165L201.51663,139.24927L201.99191,139.24927
				L202.46718,139.4869L203.41773,139.96215L203.41773,140.43741L203.89301,140.43741L204.13065,140.67503L204.36828,140.91266L
				204.13065,141.15029L203.89301,141.15029L203.89301,141.38792L203.89301,141.62554L204.13065,141.86317L204.36828,141.86317L
				204.36828,141.62554L204.60592,141.62554L204.84356,142.1008L204.84356,142.57605L204.84356,143.0513L205.31883,143.52656L205.79411,143.76418
				L205.79411,144.00181L206.03175,144.23944L206.26938,144.23944L206.50702,144.00181L206.74466,144.00181L207.21993,144.00181
				L207.45757,144.00181L207.21993,144.23944L207.45757,144.95232L207.93285,145.18994L208.40812,145.18994L208.64576,145.6652L
				209.12103,145.6652L209.35867,146.14045L209.83395,146.37808L210.07158,146.6157L210.54686,146.85333L210.7845,146.85333L210.7845,147.32858
				L210.7845,147.56621L211.02213,147.80384L211.49741,147.56621L211.73505,147.80384L212.21032,148.04146L212.6856,148.27909L213.16087,148.51672
				L213.63615,148.51672L213.63615,148.75434L213.87378,148.99197L214.11142,148.75434L214.34906,148.99197L214.5867,149.2296L215.29961,149.46722
				L215.53725,149.70485L216.01252,149.70485L215.77489,149.46722L216.01252,149.46722L216.4878,149.46722L216.72544,149.46722L
				216.96307,149.46722L217.20071,149.46722L217.20071,149.2296L217.43835,149.46722L217.91362,149.46722L218.3889,149.46722L218.62654,149.46722
				L219.10181,149.46722L219.33945,149.2296L219.81472,149.2296L219.81472,148.99197L220.29,148.99197L220.52764,149.2296L220.52764,149.46722
				L221.00291,149.46722L221.24055,149.46722L221.47819,149.46722L221.71582,149.2296L222.1911,148.99197L222.42874,149.2296L223.14165,149.46722
				L223.37929,149.46722L223.61692,149.70485L223.61692,150.1801L223.85456,150.1801L224.0922,150.1801L224.32984,150.65536L224.80511,150.65536
				L225.28039,150.89298L225.75566,150.89298L226.23094,150.41773L226.46857,150.1801L226.70621,149.94248L226.94385,149.94248L
				227.18149,150.41773L227.41912,150.41773L227.8944,150.65536L228.13204,151.13061L228.13204,151.36824L228.60731,151.36824L229.08259,151.13061
				L229.55786,151.13061L229.7955,151.13061L230.27077,151.13061L230.50841,151.13061L230.50841,150.89298L230.98369,150.89298L
				231.22133,151.13061L231.6966,151.13061L232.17188,151.13061L232.40951,150.89298L232.64715,150.89298L233.12243,150.89298L233.36006,150.89298
				L233.5977,150.65536L233.83534,150.41773L234.07298,150.1801L234.78589,150.41773L235.4988,150.65536L235.97408,150.41773L236.44935,150.41773
				L236.92463,150.1801L237.3999,150.41773L237.63754,150.1801L237.63754,149.70485L237.63754,149.46722L238.35045,149.70485L238.82573,148.99197
				L238.82573,148.27909L239.77628,148.27909L240.01391,148.51672L240.48919,148.51672L240.72683,148.04146L240.96446,147.80384
				L241.43974,147.80384L241.67738,147.56621L241.91501,147.32858L242.39029,145.18994L243.81611,140.19978L244.76666,137.11063
				L245.0043,136.87301L245.71721,136.87301L245.71721,137.11063L245.95485,137.34826L246.43013,137.58589L246.66777,137.82351L
				246.9054,137.58589L247.14304,137.58589L247.38068,137.82351L247.85595,137.82351L248.09359,138.06114L248.56887,138.06114L248.8065,138.06114
				L249.28178,137.82351L249.75705,137.58589L250.94524,136.87301L251.65815,137.11063L252.13343,137.11063L252.6087,137.11063L
				253.08398,136.87301L253.08398,136.63538L252.84634,136.39775L253.08398,135.9225L253.32162,135.44725L253.55925,135.20962L254.03453,134.73437
				L254.5098,134.25911L254.74744,134.49674L254.74744,134.25911L255.22272,134.25911L255.46035,134.02149L255.93563,134.25911L
				256.17327,134.02149L256.64854,134.02149L256.88618,134.02149L257.36145,134.02149L258.07437,134.02149L258.78728,134.25911L
				259.02492,134.02149L259.02492,133.54623L259.50019,133.30861L259.97547,132.83335L260.92602,132.83335L261.16365,132.83335L
				261.40129,132.59573L261.87657,132.12047L262.11421,131.88285"/>
			<path clip-path="url(#SVG_CP_1)" fill="none" stroke="#000000" stroke-width="0.47528" stroke-miterlimit="10" stroke-linecap="round" stroke-linejoin="round" d="
				M262.11421,131.88285L262.35184,131.64522L262.58948,131.40759L263.06476,131.40759L264.01531,131.16996L264.25294,130.93234
				L264.72822,130.45708L264.72822,130.21946L264.96586,129.7442L265.44113,129.03132L266.39168,127.84319L267.57987,126.65506L
				267.57987,126.1798L267.57987,125.70455L267.34223,125.2293L266.86696,124.27879L267.10459,123.80354L267.34223,123.09066L267.34223,122.37778
				L267.10459,121.6649L266.86696,120.47676L266.86696,119.52625L267.34223,119.051L267.10459,118.81337L266.86696,118.57575L266.62932,117.86287
				L266.62932,116.43711L266.86696,115.24897L266.62932,115.01135L266.62932,114.53609L266.62932,113.82321L266.39168,112.63508
				L266.15404,111.68457L266.39168,110.97169L266.39168,110.49644L266.39168,109.54593L266.39168,109.3083L268.05514,108.12017L
				269.00569,108.83305L269.71861,108.59542L270.19388,109.3083L271.85734,109.78356L272.57026,109.3083L273.04553,109.07068L273.52081,108.83305
				L273.52081,108.59542L273.52081,107.88254L274.23372,107.64492L274.47136,107.40729L274.47136,106.21916L274.23372,105.98153
				L273.99608,105.7439L274.47136,105.26865L275.18427,105.03102L275.18427,104.7934L275.65954,104.08052L276.37246,103.36764L276.13482,103.13001
				L275.89718,102.89238L276.13482,102.65476L277.32301,102.1795L277.32301,101.94188L276.61009,100.99137L277.08537,100.75374L
				277.08537,100.04086L277.08537,99.32798L277.08537,99.09035L277.56065,98.6151L277.79828,98.37747L278.27356,97.90222L278.27356,97.18934
				L278.98647,96.71409L278.98647,95.52595L279.22411,95.52595L279.69938,95.0507L280.64993,95.0507L281.60048,94.10019L280.64993,93.38731
				L280.4123,93.14969L281.83812,91.4863L282.3134,91.4863L283.02631,91.24867L283.26395,91.4863L283.73922,91.4863L284.2145,91.24867
				L285.16505,91.4863L285.64032,91.4863L286.1156,91.72392L286.59087,91.96155L287.06615,91.96155L287.54142,91.24867L287.77906,91.24867
				L288.49197,91.24867L288.96725,91.24867L289.68016,91.01104L290.15543,90.29816L290.63071,89.82291L290.86835,89.34766L291.8189,89.11003
				L293.00709,89.11003L293.72,88.8724L294.43291,88.8724L295.38346,88.8724L296.09637,88.8724L296.33401,88.8724L296.80929,88.15952
				L297.28456,87.9219L298.71039,87.68427L299.18566,87.20902L299.4233,86.25851L299.66094,86.25851L300.37385,86.25851L301.08676,86.25851
				L302.03731,86.25851L302.75022,86.25851L302.98786,86.02088L303.2255,85.54563L303.2255,85.07038L303.93841,85.308L304.65132,85.07038
				L305.36424,85.308L305.83951,85.308L306.31479,85.07038L306.79006,84.59512L307.74061,84.3575L308.45353,83.64462L308.9288,83.16936
				L309.16644,82.45648L309.87935,81.98123L310.11699,81.7436L311.78045,80.55547L312.49336,80.31784L312.96864,80.08021L313.20628,79.84259
				L313.68155,79.84259L314.39446,80.31784L314.86974,80.79309L315.58265,80.79309L315.82029,80.79309L316.29556,80.31784L317.00848,79.84259
				L317.72139,79.36733L317.95903,78.89208L319.14721,78.41683L320.81068,77.22869L321.99886,76.27819L322.71178,75.32768L322.94941,74.6148
				L323.42469,73.90192L323.89997,73.18904L324.1376,72.71379L324.1376,72.23853L323.66233,71.52565L323.42469,71.0504L323.42469,70.57514
				L323.42469,70.09989L323.42469,69.62464L323.66233,68.91176L323.66233,68.4365L323.66233,67.72362L323.89997,67.24837L324.1376,66.77312
				L324.37524,66.77312L324.37524,66.53549L324.37524,66.06024L324.61288,65.58498L325.08815,65.34736L324.85052,64.8721L324.85052,64.39685
				L325.08815,63.9216L325.32579,63.44634L326.0387,63.20872L326.27634,62.97109L326.27634,62.73346L326.27634,62.49583L326.51398,62.25821
				L326.98925,62.02058L327.46453,61.78295L327.70217,61.3077L328.17744,61.3077L328.17744,61.54533L328.41508,62.02058L328.65272,62.25821
				L329.12799,62.25821L329.60327,62.02058L330.07854,61.78295L330.31618,61.3077L330.79145,61.07007L331.26673,60.83245L331.26673,60.35719
				L331.02909,59.88194L330.79145,57.7433L332.93019,43.4857L336.73239,37.3074L340.77223,33.03012L347.42608,20.19827L346.71317,18.53489
				L348.61427,19.48539L349.32718,19.48539L349.80246,19.96065L349.80246,20.67353L350.27773,20.91115L351.22828,20.91115L352.17883,21.38641
				L353.60466,22.09929L354.07993,22.57454L354.55521,22.57454L355.50576,22.33691L355.98103,21.86166L356.45631,21.38641L356.93158,21.38641
				L357.40686,22.09929L357.88213,22.81217L359.07032,22.57454L359.5456,22.57454L360.02087,22.81217L361.20906,22.81217L361.68433,23.04979
				L362.15961,23.52505L362.87252,24.0003L363.58543,24.47556L363.82307,24.95081L364.53598,25.66369L365.48653,26.13894L366.43708,25.66369
				L367.15,25.90132L367.62527,26.37657L368.57582,26.6142L369.0511,26.85182L370.00165,27.32708L370.9522,27.08945L372.14039,27.08945
				L372.8533,27.5647L373.80385,28.03996L374.27912,28.75284L374.99204,29.70334L375.22967,30.65385L376.18022,30.41622L377.36841,30.1786
				L378.08132,29.94097L379.26951,29.94097L380.22006,29.70334L381.40825,28.99046L382.83407,28.75284L384.49754,28.75284L385.44809,29.46572
				L386.161,30.41622L386.39864,31.1291L386.87391,31.1291L387.34919,31.1291L388.29974,31.36673L389.48793,31.84198L389.9632,32.31724
				L390.20084,33.03012L390.43848,33.743L390.91375,34.45588L392.10194,34.69351L393.29013,34.69351L394.24068,33.98063L395.42886,33.743
				L396.61705,32.79249L397.09233,32.31724L398.51815,32.55486L399.70634,33.50537L401.13216,33.50537L401.84508,33.743L402.32035,33.50537
				L403.50854,33.743L404.69673,33.26775L405.64728,32.79249L406.59783,32.07961L407.78602,32.07961L410.16239,32.79249L413.72695,34.45588
				L416.81624,36.11927L418.24207,36.83215L418.71734,36.83215L419.90553,37.3074L420.85608,38.02028L422.28191,38.73316L423.23246,38.97079
				L423.94537,39.20841L424.89592,39.44604L426.08411,39.68367L427.03466,39.68367L427.98521,39.68367L429.64867,39.44604L430.36158,38.97079
				L431.07449,38.49553L431.78741,38.02028L432.26268,37.54503L432.73796,37.3074L433.45087,37.3074L434.16378,37.54503L435.11433,38.02028
				L438.44126,39.44604L439.39181,39.68367L440.58,40.15892L442.00582,40.8718L443.43165,41.34705L447.23385,42.53519L449.13495,43.24807
				L451.9866,44.4362L455.7888,45.62434L456.73935,46.09959L458.16517,46.57484L459.591,47.0501L460.77919,47.28772L462.20501,47.76298
				L464.58139,48.47586L465.76958,48.71348L466.72013,48.95111L467.1954,48.95111L467.90831,49.42636L469.80941,50.13924L472.8987,51.08975
				L475.51271,52.04026L477.17618,52.51551L478.83964,52.99077L480.97838,53.94127L482.16657,54.65415L483.59239,55.12941L484.78058,55.60466
				L486.44404,56.55517L487.63223,57.03042L489.53333,57.7433L492.14734,59.16906L493.57317,59.64431L494.52372,60.11957L495.94954,60.83245
				L497.85064,61.54533L499.51411,62.25821L500.46466,62.49583L501.65284,62.97109L503.31631,63.68397L506.40559,64.63448L507.35614,65.10973
				L508.78197,65.58498L509.97016,65.82261L511.63362,66.06024L512.1089,66.06024L512.58417,66.29786L513.05945,66.53549L514.01,67.24837
				L515.19818,67.96125L516.14873,68.67413L517.09928,69.14938L517.57456,69.14938L518.76275,69.62464L519.00038,70.09989L519.23802,70.81277
				L519.7133,71.52565L520.18857,72.23853L520.42621,72.47616L521.13912,72.0009L522.08967,71.28802L522.80258,70.81277L523.5155,70.33752
				L525.17896,69.62464L526.36715,69.62464L528.03061,70.09989L529.45644,70.81277L530.64462,70.81277L532.07045,70.81277L533.021,70.57514
				L533.49627,70.57514L533.49627,70.33752L533.97155,70.33752L534.44682,70.33752L535.15974,70.33752L535.63501,70.57514L536.34792,70.81277
				L536.8232,70.81277L537.06084,69.86226L537.29847,68.91176L538.01139,67.72362L539.19957,67.24837L540.86304,67.01074L541.81359,67.01074
				L542.76414,67.72362L543.47705,68.4365L544.4276,68.91176L545.61579,69.62464L546.3287,70.09989L547.75453,70.33752L548.94271,70.81277
				L550.1309,70.81277L552.032,71.0504L552.50728,71.28802L552.74491,72.0009L552.98255,72.95141L553.69546,73.90192L554.40838,74.37717
				L555.12129,74.85243L555.8342,75.32768L556.78475,75.32768L558.21058,75.56531L559.16113,76.04056L560.11168,76.51581L561.29987,76.51581
				L562.48805,76.75344L562.96333,76.75344L563.91388,76.99107L564.38915,76.99107L565.3397,76.99107L566.76553,77.22869L567.47844,77.22869
				L568.19135,77.70395L569.1419,78.41683L569.61718,78.65445L570.56773,79.60496L571.28064,79.84259L571.75592,80.08021L572.46883,80.31784
				L573.65702,80.31784L574.36993,80.08021L575.32048,80.08021L576.03339,80.08021L577.22158,80.31784L577.69686,80.79309L578.64741,81.03072
				L579.36032,81.50597L580.07323,81.7436L580.78614,81.7436L581.26142,81.98123L581.97433,81.98123L582.92488,82.45648"/>
		</g>
	</g>
</svg>
