<?xml version="1.0" encoding="utf-8" standalone="no"?>
<!-- Creator: Esri ArcMap 10.8.0.12790 -->
<!DOCTYPE svg PUBLIC "-//W3C//DTD SVG 1.1//EN"  "http://www.w3.org/Graphics/SVG/1.1/DTD/svg11.dtd">
<svg width="774.73701pt" height="404.24882pt" viewBox="0 0 774.73701 404.24882" enable-background="new 0 0 774.73701 404.24882"
	version="1.1" xmlns="http://www.w3.org/2000/svg" xmlns:xlink="http://www.w3.org/1999/xlink" >
	<g id="Layers">
		<g id="Touboro">
			<clipPath id="SVG_CP_1">
				<path d="M0,404.24882L0,0L774.73701,0L774.73701,404.24882L0,404.24882z"/>
			</clipPath>
			<path clip-path="url(#SVG_CP_1)" fill="none" stroke="#000000" stroke-width="0.47528" stroke-miterlimit="10" stroke-linecap="round" stroke-linejoin="round" d="
				M270.19388,372.12349L270.90679,372.12349L271.61971,372.12349L272.09498,371.41061L272.09498,370.22247L271.61971,368.55909
				L270.66916,366.8957L270.43152,365.46994L270.19388,364.2818L268.76806,363.3313L268.76806,362.14316L266.86696,359.7669L265.67877,358.81639
				L265.44113,356.67775L264.96586,355.48961L264.96586,354.30148L264.49058,352.87572L264.25294,352.40047L262.58948,348.12319
				L262.35184,347.4103L260.92602,344.32116L260.45074,342.8954L260.2131,342.42014L259.73783,340.51913L259.02492,338.85574L258.54964,337.42998
				L258.07437,336.00422L257.12382,334.10321L256.64854,332.43982L256.17327,331.01406L255.93563,329.5883L255.93563,328.40017L
				255.46035,326.49915L255.22272,325.07339L254.74744,323.17238L254.74744,321.27136L254.98508,319.37035L254.5098,318.65747L253.79689,318.18221
				L251.89579,316.2812L250.94524,315.56832L250.23233,314.85544L250.23233,313.66731L249.28178,312.24155L248.8065,310.57816L248.33123,309.39003
				L247.85595,308.67715L246.66777,307.96426L246.19249,307.72664L245.95485,305.82562L245.71721,304.39986L245.47958,303.92461
				L245.24194,301.31072L245.24194,300.83546L244.29139,299.64733L243.57848,298.69682L242.15265,297.98394L240.96446,297.03343
				L240.25155,295.60767L239.77628,294.41954L239.06336,294.65717L238.82573,295.37005L237.16226,294.41954L235.4988,293.23141L
				234.07298,291.80565L233.5977,290.37989L234.54825,288.47887L235.73644,287.52836L236.21171,286.1026L235.97408,284.67684L235.26116,283.25108
				L233.12243,281.5877L232.40951,280.16194L231.45896,278.49855L230.50841,276.35991L229.55786,274.93415L228.60731,273.27076L
				228.36967,272.32025L228.84495,270.89449L229.08259,269.70636L229.32022,268.2806L229.7955,267.56772L229.55786,265.6667L229.32022,263.52806
				L228.60731,263.05281L228.13204,262.81518L227.65676,262.57756L227.41912,261.38942L227.18149,260.67654L227.65676,260.20129
				L228.13204,259.96366L227.8944,259.25078L227.8944,258.06265L227.8944,257.34977L227.8944,256.87451L228.13204,256.39926L228.13204,256.16163
				L228.60731,255.44875L228.36967,254.02299L228.60731,253.31011L229.08259,253.54774L229.32022,253.78537L229.7955,253.54774L
				229.7955,253.07249L230.03314,253.31011L230.27077,253.54774L230.50841,253.07249L230.98369,253.07249L231.22133,252.83486L231.22133,252.12198
				L231.6966,252.12198L231.93424,251.88435L232.40951,251.64673L232.64715,251.17147L233.12243,251.17147L233.5977,251.17147L234.07298,250.93385
				L234.07298,250.69622L234.07298,250.22097L234.54825,250.22097L235.02353,250.45859L235.26116,250.45859L235.4988,250.22097L
				235.26116,249.98334L235.26116,249.50808L235.73644,249.50808L235.97408,249.27046L235.97408,249.03283L235.73644,249.03283L
				235.97408,248.7952L236.44935,248.55758L236.44935,248.08232L237.3999,248.08232L238.11281,247.36944L239.301,246.65656L240.25155,246.18131
				L240.96446,245.94368L241.43974,245.94368L241.67738,245.70606L241.91501,244.99318L242.62793,244.75555L243.34084,244.2803L
				243.57848,244.04267L243.81611,243.80504L244.05375,243.80504L244.05375,243.32979L244.05375,243.09216L244.29139,243.09216L
				244.29139,242.85454L244.05375,242.61691L244.05375,242.37928L244.29139,242.14166L244.76666,241.90403L244.76666,241.6664L244.52903,241.42878
				L244.76666,241.19115L245.0043,241.19115L245.0043,240.95352L245.0043,240.7159L245.0043,240.24064L244.76666,240.00302L244.29139,240.00302
				L244.05375,240.00302L244.05375,239.76539L244.29139,239.52776L244.29139,239.05251L244.29139,238.81488L244.05375,238.33963
				L243.81611,238.102L243.57848,237.86437L243.1032,237.62675L243.1032,237.38912L242.86556,236.91387L242.15265,236.43861L242.39029,235.96336
				L242.15265,235.48811L242.15265,235.25048L242.39029,235.01285L242.62793,234.77523L242.15265,234.5376L241.91501,234.29997L
				242.15265,234.06235L241.91501,233.58709L241.67738,233.34947L241.43974,232.63659L241.43974,231.68608L241.2021,229.78506L240.25155,227.64642
				L239.53864,224.7949L236.92463,217.19085L236.21171,216.47797L235.4988,216.24034L234.78589,215.76509L234.31061,215.28983L234.07298,214.81458
				L233.36006,214.1017L233.36006,213.62645L232.64715,213.62645L232.64715,213.15119L232.88479,212.67594L232.88479,212.43831L
				232.88479,211.96306L232.40951,211.48781L232.40951,211.25018L232.88479,211.25018L232.88479,211.01255L232.64715,210.77493L
				232.88479,210.29967L233.36006,210.06204L233.5977,209.82442L233.5977,209.58679L233.83534,209.11154L233.83534,208.63628L233.5977,208.16103
				L233.36006,207.9234L233.36006,207.21052L233.36006,206.73527L233.5977,206.26002L233.83534,205.54714L233.83534,205.30951L234.07298,204.83426
				L234.07298,203.88375L234.07298,203.17087L234.07298,202.69562L234.54825,202.22036L234.54825,201.74511L234.78589,201.50748
				L235.02353,201.03223L235.02353,200.7946L235.02353,200.08172L234.78589,199.60647L235.02353,199.13121L235.26116,198.89359L
				235.26116,198.41833L235.26116,197.94308L235.26116,197.46783L235.26116,196.99257L235.4988,196.75495L235.26116,196.04207L235.4988,195.56681
				L235.73644,195.09156L235.73644,194.85393L235.73644,194.61631L236.21171,193.90343L236.68699,193.42817L236.68699,192.95292
				L236.68699,192.47767L236.68699,192.24004L236.92463,191.76479L237.16226,191.76479L237.63754,191.76479L237.87518,191.52716
				L238.11281,191.28953L238.11281,190.33902L238.35045,190.1014L238.82573,189.62614L239.06336,189.15089L239.06336,188.67564L
				239.53864,187.72513L239.77628,186.77462L239.77628,185.11124L239.53864,184.63598L239.06336,182.49734L238.82573,181.30921L
				238.58809,180.83396L238.11281,180.83396L237.87518,180.59633L238.11281,180.3587L238.35045,180.12107L238.35045,179.88345L238.58809,179.40819
				L238.58809,178.69531L238.58809,177.98243L238.58809,177.26955L238.35045,176.7943L238.11281,176.31905L238.11281,175.84379L
				238.11281,175.13091L238.35045,174.65566L238.82573,174.18041L238.35045,173.94278L238.58809,173.46753L239.06336,173.2299L239.53864,172.75465
				L240.01391,172.51702L239.77628,172.27939L240.01391,171.80414L239.77628,171.32889L239.77628,171.09126L239.77628,170.37838
				L239.77628,169.90312L239.77628,169.6655L239.53864,169.42787L239.301,169.42787L239.06336,168.95262L238.82573,168.95262L238.58809,168.95262
				L238.58809,168.47736L238.58809,168.23974L239.06336,168.00211L239.53864,167.76448L239.77628,167.76448L240.25155,167.52686
				L240.25155,167.28923L240.48919,167.0516L240.25155,166.81398L240.01391,166.81398L240.01391,166.57635L240.01391,166.33872L
				240.25155,166.1011L240.72683,166.33872L240.96446,166.33872L241.2021,166.33872L241.2021,166.1011L241.2021,165.86347L241.2021,165.62584
				L241.91501,165.62584L242.15265,165.62584L242.62793,165.62584L243.1032,165.62584L243.34084,165.86347L243.57848,166.1011L243.81611,165.86347
				L244.05375,165.62584L244.29139,165.62584L244.76666,165.62584L245.0043,165.38822L245.0043,164.91296L245.0043,164.43771L245.24194,163.96246
				L245.71721,163.72483L245.95485,163.72483L246.19249,163.4872L246.43013,163.4872L245.95485,163.01195L245.71721,162.5367L245.47958,162.29907
				L245.71721,162.06144L245.95485,161.82382L245.71721,161.58619L245.47958,161.34856L245.47958,161.11094L245.24194,161.11094
				L245.47958,160.63568L245.71721,160.63568L246.19249,160.39805L246.43013,160.16043L246.43013,159.9228L246.19249,159.44755L
				246.19249,158.97229L246.19249,158.49704L245.95485,158.25941L245.95485,158.02179L246.19249,157.78416L246.66777,157.78416L
				246.66777,157.30891L246.43013,157.07128L246.43013,156.3584L246.43013,156.12077L246.43013,155.64552L245.95485,155.17027L245.47958,154.45739
				L245.0043,153.98213L244.76666,153.74451L244.52903,153.26925L244.29139,152.794L244.05375,152.31875L244.05375,152.08112L244.05375,151.60587
				L243.81611,151.36824L243.57848,151.13061L243.34084,150.65536L243.1032,150.41773L242.86556,150.1801L242.39029,149.94248L242.39029,148.04146
				L242.15265,146.85333L241.91501,145.6652L242.15265,144.71469L242.15265,144.23944L242.86556,142.81368L243.57848,142.1008L244.05375,141.38792
				L244.05375,140.67503L244.05375,140.19978L244.29139,139.72453L243.81611,139.24927L243.57848,138.77402L243.57848,138.06114
				L243.34084,137.58589L242.86556,137.58589L243.1032,137.11063L242.86556,136.63538L242.62793,136.16013L242.15265,135.44725L
				241.67738,134.73437L241.2021,133.54623L241.43974,132.83335L241.67738,132.12047L241.91501,131.40759L241.67738,130.69471L241.43974,129.98183
				L241.2021,129.50658L241.43974,127.84319L241.2021,127.13031L241.43974,126.65506L241.67738,126.1798L242.15265,125.70455L242.39029,125.2293
				L242.39029,124.75404L242.39029,123.80354L242.39029,123.09066L242.62793,122.6154L242.62793,122.37778L242.62793,121.6649L242.62793,121.18964
				L242.15265,120.47676L241.91501,120.23913L241.43974,119.76388L241.2021,119.28863L240.96446,118.81337L240.48919,118.33812L
				240.25155,117.86287L240.01391,117.38761L239.77628,116.91236L239.53864,116.67473L239.301,116.43711L238.82573,116.19948L238.58809,115.96185
				L238.82573,115.4866L238.82573,114.06084L238.58809,113.11033L238.58809,112.63508L238.35045,111.68457L238.35045,111.20932L
				238.35045,110.97169L237.87518,110.73406L238.11281,110.25881L238.11281,109.78356L238.11281,108.83305L238.11281,107.40729L
				238.35045,106.93204L238.11281,105.98153L238.11281,105.26865L237.87518,103.60526L237.63754,102.65476L237.3999,102.1795L237.16226,101.94188
				L236.44935,101.94188L236.21171,101.46662L235.97408,101.22899L235.73644,100.99137L235.73644,100.51611L235.4988,100.27849L
				235.26116,99.80323L235.02353,99.56561L234.78589,99.09035L234.31061,98.85273L234.07298,98.85273L233.5977,98.37747L233.12243,97.90222
				L232.64715,97.42697L231.6966,96.95171L231.45896,96.71409L231.6966,96.47646L232.17188,95.76358L233.12243,95.28833L233.5977,94.81307
				L233.5977,93.86257L234.31061,93.62494L235.73644,93.38731L236.44935,93.62494L236.92463,93.38731L237.63754,93.14969L238.58809,92.91206
				L239.301,92.43681L239.53864,92.19918L240.01391,91.4863L240.25155,90.77342L242.39029,85.07038L243.34084,82.93174L244.05375,81.98123
				L244.05375,80.55547L244.52903,79.12971L245.0043,77.70395L245.24194,76.04056L245.95485,73.90192L246.43013,72.23853L246.66777,71.28802
				L249.99469,72.95141L254.98508,75.09005L258.54964,76.51581L260.92602,77.70395L262.82712,78.89208L264.49058,79.84259L269.24333,82.93174
				L272.33262,85.07038L274.94663,86.73376L276.13482,87.20902L277.08537,87.9219L278.5112,88.39715L280.4123,89.11003L281.83812,89.82291
				L283.26395,90.29816L285.64032,91.24867L290.15543,92.91206L291.34362,93.38731L291.8189,93.86257L291.8189,94.57545L292.53181,95.0507
				L293.48236,95.28833L294.19527,95.76358L294.43291,96.23883L295.38346,96.95171L296.09637,97.42697L296.80929,97.66459L297.28456,97.66459
				L298.23511,98.13985L301.3244,98.85273L305.36424,98.85273L309.16644,99.09035L312.49336,99.32798L314.6321,99.80323L315.82029,100.51611
				L316.77084,100.75374L318.19666,101.46662L319.14721,102.1795L319.86013,103.36764L322.47414,105.50628L323.18705,105.7439L323.18705,106.93204
				L324.37524,107.64492L326.51398,109.78356L327.22689,110.97169L328.89035,111.68457L329.36563,112.87271L330.07854,113.82321
				L331.50437,114.77372L335.30657,116.91236L341.24751,120.95201L342.19806,121.6649L344.33679,123.56591L346.47553,125.46692L
				350.75301,128.31844L354.07993,130.93234L356.21867,132.3581L357.16922,132.3581L357.40686,131.64522L357.6445,131.40759L357.88213,131.16996
				L357.88213,130.93234L358.11977,130.45708L358.35741,130.21946L358.11977,129.7442L358.11977,129.26895L358.11977,128.7937L358.11977,128.31844
				L358.35741,127.84319L358.59505,127.60556L359.07032,127.60556L359.30796,127.13031L359.5456,126.65506L360.02087,126.65506L
				360.02087,126.41743L359.78323,125.94218L360.25851,125.46692L360.49615,124.99167L360.49615,124.75404L360.73378,124.51642L
				361.20906,124.75404L361.68433,124.51642L361.68433,124.27879L361.20906,124.04116L361.4467,123.80354L362.15961,123.56591L362.39725,123.09066
				L362.63488,122.6154L363.11016,122.37778L363.82307,122.14015L363.82307,121.6649L364.06071,121.42727L364.29835,121.18964L364.29835,120.23913
				L364.06071,120.00151L364.06071,119.52625L364.06071,119.28863L364.29835,119.051L364.53598,118.81337L364.77362,118.57575L365.2489,118.57575
				L365.48653,118.33812L365.2489,118.10049L365.01126,118.10049L365.01126,117.62524L365.2489,117.62524L365.48653,117.38761L365.72417,117.14999
				L365.48653,116.91236L365.2489,116.67473L365.48653,116.43711L365.96181,116.43711L365.96181,115.96185L366.43708,115.72423L
				366.43708,115.24897L367.15,114.77372L367.62527,114.29847L368.10055,113.82321L368.81346,113.34796L369.28873,113.11033L369.52637,112.87271
				L369.52637,112.63508L370.00165,112.39745L370.47692,112.39745L370.71456,112.15983L370.9522,111.68457L371.18984,111.20932L
				371.66511,110.73406L372.14039,110.73406L372.61566,110.73406L373.09094,110.25881L373.56621,109.54593L373.80385,109.07068L
				374.7544,108.59542L374.51676,105.50628L374.51676,101.22899L374.51676,99.09035L374.51676,97.66459L375.94259,97.66459L385.68572,97.42697
				L387.82446,97.66459L388.29974,97.18934L389.01265,96.47646L389.72556,96.00121L390.91375,95.28833L392.10194,95.0507L392.81485,94.33782
				L393.7654,93.38731L394.47831,92.43681L394.95359,91.24867L395.6665,91.01104L396.14178,90.06054L396.61705,89.34766L397.80524,88.39715
				L399.70634,86.73376L401.84508,84.59512L405.172,81.98123L407.0731,81.03072L408.26129,80.08021L409.92475,79.12971L411.35058,78.65445
				L413.48932,77.70395L414.91514,77.22869L416.10333,76.75344L417.05388,75.09005L417.52916,73.66429L417.76679,71.76328L418.24207,70.09989
				L419.43026,68.91176L420.38081,67.24837L420.38081,65.82261L420.14317,64.15922L420.38081,63.20872L421.56899,62.49583L422.75718,62.25821
				L424.18301,61.78295L425.13356,61.3077L426.55938,60.83245L427.03466,59.88194L427.98521,58.45618L429.17339,57.26805L430.12394,56.55517
				L431.54977,55.84229L432.73796,55.60466L435.58961,55.36703L436.54016,54.65415L437.72835,53.94127L438.6789,52.99077L439.86708,52.04026
				L441.29291,50.85212L442.00582,49.90162L444.3822,47.52535L445.09511,46.33722L445.57038,45.62434L445.80802,44.4362L446.04566,43.96095
				L446.99621,43.72332L447.70912,42.53519L449.37259,40.39655L451.03605,37.78265L451.9866,36.35689L453.65006,33.98063L455.55116,31.36673
				L456.26407,30.41622L460.77919,24.23793L463.63084,20.91115L466.00721,18.53489L469.0965,24.47556L473.84925,34.93113L478.83964,45.38671
				L486.2064,61.07007L489.77097,68.67413L490.24624,69.86226L489.77097,81.26835L489.77097,82.69411L490.0086,83.88224L490.48388,84.83275
				L493.33553,92.91206L495.23663,97.42697L506.88087,130.93234L522.80258,158.25941L546.56634,163.72483L547.75453,165.86347L547.51689,166.57635
				L547.27925,167.52686L546.3287,168.71499L546.09106,170.616L545.61579,171.56651L545.61579,171.80414L545.37815,172.27939L545.37815,172.51702
				L545.37815,172.75465L545.61579,172.99227L545.85343,173.2299L546.3287,173.46753L546.56634,173.46753L546.56634,173.70515L546.80398,173.94278
				L546.80398,174.18041L546.56634,174.65566L546.56634,175.13091L546.3287,175.60617L546.3287,175.84379L546.3287,176.55667L546.09106,176.7943
				L546.09106,177.03193L545.85343,177.50718L545.85343,177.74481L545.85343,178.22006L546.09106,178.45769L546.3287,178.45769L
				546.56634,178.69531L546.80398,178.93294L546.80398,179.40819L546.80398,179.64582L546.56634,180.12107L546.3287,181.07158L546.3287,182.02209
				L546.3287,182.9726L546.56634,183.68548L546.56634,184.16073L546.80398,184.63598L546.80398,185.34886L546.56634,186.29937L546.80398,187.01225
				L546.80398,187.24988L547.27925,187.72513L547.27925,187.96276L547.51689,188.20038L547.51689,188.67564L547.27925,189.38852
				L547.27925,190.33902L547.04161,191.05191L547.04161,192.00241L546.80398,192.47767L546.3287,192.71529L546.3287,192.95292L546.09106,193.90343
				L546.09106,194.61631L545.85343,194.85393L545.61579,195.09156L544.90288,195.32919L544.66524,195.56681L544.4276,196.27969L
				544.18996,196.75495L543.95233,196.99257L543.71469,197.2302L543.00178,197.46783L542.76414,197.46783L542.76414,197.70545L542.5265,197.94308
				L542.76414,198.18071L542.76414,198.41833L543.00178,198.65596L543.47705,198.89359L543.71469,199.13121L543.95233,199.13121
				L544.18996,199.36884L544.18996,199.60647L543.95233,200.31935L544.18996,201.03223L544.4276,201.50748L544.4276,202.22036L544.4276,202.45799
				L544.4276,202.93324L544.18996,203.17087L543.71469,203.64612L543.47705,203.88375L543.23941,204.359L543.23941,205.54714L543.23941,206.49764
				L543.23941,206.9729L542.76414,207.21052L542.28886,207.9234L541.81359,208.16103L541.33831,208.63628L541.33831,209.11154L541.10067,209.58679
				L540.6254,209.82442L540.38776,210.06204L539.43721,210.29967L539.19957,210.77493L538.96194,211.01255L538.7243,212.20069L538.7243,212.67594
				L538.7243,213.15119L538.96194,213.62645L539.43721,214.33933L539.67485,214.33933L540.15012,215.05221L540.15012,215.28983L
				540.6254,215.52746L540.6254,215.76509L540.6254,216.24034L540.38776,216.47797L540.38776,216.71559L539.91249,217.19085L539.67485,217.42847
				L539.67485,217.6661L539.67485,217.90373L539.43721,218.14135L539.43721,218.37898L539.19957,218.85423L538.96194,219.09186L
				538.48666,219.32949L537.77375,219.32949L537.53611,219.56711L536.34792,220.75525L536.34792,220.99288L536.34792,221.46813L
				536.11029,221.94338L535.87265,222.65626L535.63501,222.65626L535.15974,222.41864L534.68446,222.65626L533.97155,222.89389L
				533.25864,223.60677L532.54572,224.08202L532.07045,224.7949L531.83281,225.03253L531.83281,225.50778L531.83281,225.74541L531.35754,226.22066
				L531.35754,226.45829L531.1199,226.45829L530.64462,226.69592L530.16935,226.93354L530.16935,227.17117L529.69407,227.4088L529.45644,227.4088
				L529.45644,227.64642L529.2188,227.88405L528.98116,227.88405L528.74352,228.12168L528.26825,228.3593L528.26825,228.59693L527.79297,229.30981
				L527.55534,229.78506L527.3177,230.02269L527.08006,230.02269L526.84242,230.02269L526.12951,229.78506L525.65423,229.78506L
				525.4166,230.02269L525.4166,230.26032L524.94132,230.73557L524.94132,231.21083L523.99077,232.16133L523.99077,232.63659L524.22841,233.34947
				L523.99077,233.82472L523.04022,234.29997L522.32731,234.29997L522.08967,234.5376L521.6144,234.77523L521.13912,235.01285L520.66385,235.48811
				L520.42621,235.48811L519.7133,235.25048L519.23802,235.25048L519.00038,235.48811L519.00038,235.72573L519.00038,236.20099L
				519.00038,236.43861L519.00038,236.91387L519.00038,237.15149L518.76275,237.15149L518.52511,237.38912L517.57456,238.33963L
				517.57456,238.81488L517.33692,238.81488L517.33692,239.05251L517.57456,239.52776L518.04983,240.00302L518.52511,240.47827L
				518.28747,240.95352L518.04983,241.42878L517.57456,241.42878L517.09928,241.90403L517.09928,242.37928L516.86165,242.61691L
				515.9111,242.61691L515.67346,242.61691L514.72291,243.80504L514.01,244.04267L513.53472,244.51792L513.53472,244.99318L514.01,246.18131
				L513.53472,246.89419L512.58417,247.36944L512.34653,247.8447L511.39598,248.08232L511.15835,248.55758L510.68307,248.55758L
				509.73252,248.55758L508.30669,249.50808L508.06906,249.98334L508.06906,250.93385L507.83142,251.4091L508.30669,251.4091L508.54433,251.17147
				L508.54433,250.45859L508.78197,250.22097L509.01961,250.22097L509.25724,250.45859L509.25724,251.4091L508.78197,252.12198L
				508.06906,252.59723L507.83142,253.07249L507.59378,254.02299L507.35614,254.9735L507.35614,256.16163L507.11851,256.63689L506.88087,256.87451
				L506.16796,256.63689L505.93032,256.63689L504.97977,256.87451L504.26686,257.34977L503.07867,257.34977L502.60339,257.58739
				L502.60339,259.25078L502.36576,260.43892L502.12812,260.91417L502.36576,261.62705L501.41521,262.81518L501.41521,263.29044
				L501.17757,263.29044L500.70229,263.52806L499.98938,264.00332L499.03883,264.00332L498.80119,264.47857L498.32592,264.95382
				L498.32592,265.90433L498.08828,266.85484L498.08828,267.09246L498.32592,267.33009L498.32592,267.80534L498.32592,268.04297
				L497.37537,268.99348L496.66246,269.2311L495.94954,269.70636L495.23663,270.65687L494.52372,271.13212L492.62262,272.55788L
				492.38498,273.03313L491.9097,273.50839L491.43443,273.50839L490.72152,273.50839L489.77097,273.50839L488.58278,274.22127L488.1075,274.69652
				L488.1075,275.17177L488.1075,275.64703L487.15695,276.35991L486.68168,278.02329L485.96877,278.73617L485.49349,279.44906L485.01822,279.92431
				L484.3053,279.68668L483.59239,280.16194L483.35475,280.39956L482.87948,281.11244L481.92893,281.82532L481.21602,282.30058L
				480.74074,282.30058L479.79019,283.48871L479.31491,284.43922L478.602,284.67684L477.65145,285.38972L477.41381,285.62735L476.93854,285.86498
				L476.22563,286.57786L475.75035,286.57786L475.03744,286.81548L474.32453,287.52836L473.84925,287.52836L472.8987,287.76599L
				472.8987,288.00362L473.13634,288.7165L472.8987,289.19175L471.94815,290.37989L471.23524,290.37989L470.52233,290.85514L470.04705,291.56802
				L469.33414,292.04327L468.62123,292.51853L467.90831,292.99378L467.67068,293.70666L466.95776,294.41954L465.76958,294.65717
				L464.81903,295.37005L464.10611,295.8453L462.68029,297.03343L462.20501,297.74631L461.96737,297.74631"/>
			<path clip-path="url(#SVG_CP_1)" fill="none" stroke="#000000" stroke-width="0.47528" stroke-miterlimit="10" stroke-linecap="round" stroke-linejoin="round" d="
				M461.96737,297.74631L461.72974,298.22157L461.4921,298.22157L461.25446,298.22157L460.77919,297.98394L460.54155,297.74631L
				460.30391,297.74631L460.30391,297.98394L459.35336,298.45919L459.35336,298.69682L459.35336,298.93445L459.591,298.93445L459.82864,299.17208
				L459.591,299.64733L459.11572,299.88496L459.11572,300.12258L458.87809,300.12258L458.87809,300.36021L457.92754,300.36021L457.45226,300.83546
				L457.21462,300.83546L456.97699,301.54834L456.50171,302.0236L456.02644,302.73648L455.7888,303.21173L455.55116,303.21173L455.07589,303.44936
				L454.60061,303.68698L454.36297,303.92461L454.12534,304.16224L453.8877,304.87512L453.8877,305.11274L453.65006,305.35037L452.46187,306.06325
				L451.27369,306.30088L450.56077,306.77613L450.56077,307.25138L450.79841,307.48901L450.56077,308.20189L450.0855,308.20189L
				449.84786,308.67715L448.89731,309.1524L447.23385,309.62765L446.04566,309.62765L445.80802,309.86528L445.33275,310.57816L445.57038,311.29104
				L445.57038,312.00392L445.09511,312.47917L444.3822,313.66731L444.14456,313.66731L443.90692,314.14256L444.14456,314.85544L
				443.66928,315.09307L443.66928,316.04357L442.4811,316.75645L442.24346,317.46933L442.00582,317.94459L441.53055,317.94459L441.05527,317.70696
				L440.34236,317.94459L439.62945,317.94459L438.91653,318.65747L438.6789,319.13272L438.20362,319.60798L438.20362,320.79611L
				437.72835,321.27136L437.72835,321.74662L437.96598,322.22187L438.20362,322.22187L438.6789,321.50899L438.91653,321.50899L438.91653,321.98424
				L438.91653,322.22187L438.6789,322.4595L437.96598,322.69712L437.49071,322.69712L437.25307,322.69712L437.01543,322.93475L436.7778,323.64763
				L436.54016,324.12288L436.54016,324.59814L436.30252,324.83576L436.06488,325.07339L435.82725,325.07339L435.58961,325.54864
				L434.8767,326.26152L433.92615,326.26152L433.45087,326.73678L433.45087,327.44966L433.45087,327.92491L432.9756,328.16254L432.50032,327.92491
				L432.02504,328.16254L431.54977,328.16254L431.07449,328.40017L430.83686,329.11305L430.36158,329.5883L429.88631,330.06355L
				429.17339,330.06355L429.17339,329.82593L429.17339,329.5883L428.93576,329.5883L428.22284,330.06355L427.98521,330.30118L428.22284,330.77643
				L427.98521,331.01406L427.50993,331.48931L427.27229,331.72694L427.03466,332.20219L426.55938,332.91507L426.08411,333.39033
				L425.37119,333.86558L424.65828,333.86558L423.70773,333.86558L423.23246,334.10321L422.51954,334.81609L422.04427,334.81609
				L421.56899,334.81609L421.33136,335.05371L421.09372,335.52897L420.61844,335.76659L419.43026,336.95473L419.19262,337.90523
				L418.47971,337.90523L418.00443,338.38049L417.52916,339.09337L417.29152,339.56862L417.05388,339.80625L416.10333,340.04388
				L415.62805,340.04388L415.39042,340.51913L414.43987,340.75676L413.96459,341.23201L413.01404,342.18252L412.30113,342.42014
				L411.58822,342.42014L411.35058,342.8954L411.35058,343.13302L410.8753,343.37065L410.63767,343.37065L410.16239,344.08353L409.68712,344.55878
				L409.68712,345.50929L408.73657,345.98454L408.26129,345.74692L408.02365,345.50929L407.54838,345.27166L406.83547,345.27166
				L406.59783,345.27166L403.98382,344.32116L403.74618,344.32116L403.2709,344.08353L402.79563,344.08353L401.13216,343.13302L
				399.70634,342.42014L399.23106,342.18252L398.51815,340.99438L397.80524,339.331L397.5676,338.38049L397.09233,337.90523L396.85469,337.90523
				L394.71595,337.66761L391.15139,338.38049L388.53738,338.85574L386.63628,339.80625L383.07171,341.94489L380.22006,344.32116
				L379.74479,344.55878L379.26951,345.03404L378.79424,345.27166L378.5566,345.50929L378.31896,345.98454L378.31896,346.22217L
				378.08132,346.4598L374.99204,348.36081L374.27912,349.31132L372.8533,350.26183L371.90275,350.49945L368.57582,350.49945L367.15,351.21233
				L365.96181,351.44996L363.3478,352.63809L360.97142,354.06385L358.35741,355.01436L356.93158,356.44012L355.03048,357.39063L
				352.89174,357.62825L350.75301,357.62825L350.04009,357.86588L349.08954,358.57876L348.37663,358.81639L348.37663,360.00452L
				345.76262,360.00452L343.14861,360.00452L339.3464,364.2818L337.4453,366.8957L335.5442,366.65807L334.35602,365.94519L331.26673,365.70756
				L328.41508,365.94519L326.0387,365.46994L324.61288,365.94519L320.3354,368.08383L317.72139,369.03434L313.20628,373.07399L310.59226,374.0245
				L308.69116,374.26213L307.50297,375.45026L305.60187,378.77704L304.17605,378.77704L299.89857,381.39093L297.28456,381.86618
				L294.67055,383.52957L291.34362,383.52957L289.20488,384.48008L285.40268,384.24245L279.69938,385.66821L276.84773,385.66821
				L274.47136,385.90584L272.09498,385.90584L271.38207,385.66821L270.90679,384.24245L270.66916,383.52957L270.90679,382.57906
				L272.09498,380.67805L271.61971,379.01466L271.85734,378.53941L273.52081,377.35127L273.28317,376.63839L271.38207,374.0245L
				270.19388,372.12349"/>
		</g>
	</g>
</svg>
