<?xml version="1.0" encoding="utf-8" standalone="no"?>
<!-- Creator: Esri ArcMap 10.8.0.12790 -->
<!DOCTYPE svg PUBLIC "-//W3C//DTD SVG 1.1//EN"  "http://www.w3.org/Graphics/SVG/1.1/DTD/svg11.dtd">
<svg width="774.73701pt" height="404.24882pt" viewBox="0 0 774.73701 404.24882" enable-background="new 0 0 774.73701 404.24882"
	version="1.1" xmlns="http://www.w3.org/2000/svg" xmlns:xlink="http://www.w3.org/1999/xlink" >
	<g id="Layers">
		<g id="Touroua">
			<clipPath id="SVG_CP_1">
				<path d="M0,404.24882L0,0L774.73701,0L774.73701,404.24882L0,404.24882z"/>
			</clipPath>
			<path clip-path="url(#SVG_CP_1)" fill="none" stroke="#000000" stroke-width="0.47528" stroke-miterlimit="10" stroke-linecap="round" stroke-linejoin="round" d="
				M467.43304,104.08052L464.34375,108.12017L462.44265,120.47676L461.4921,129.26895L456.73935,135.68487L448.65967,141.15029L
				439.39181,153.50688L438.91653,166.81398L437.96598,172.27939L437.25307,189.38852L437.25307,191.28953L435.35197,204.359L434.63906,210.77493
				L431.78741,229.54744L427.50993,246.89419L423.47009,264.24094L420.61844,283.72634L416.5786,302.0236L410.8753,321.27136L406.83547,340.51913
				L403.98382,348.12319L398.99343,347.64793L396.37941,347.64793L394.00304,347.17268L391.38903,346.93505L389.25029,346.93505
				L386.87391,346.4598L384.73517,345.98454L383.07171,345.74692L351.70356,343.37065L349.56482,346.69742L338.63349,360.24215L
				333.88074,367.13332L331.02909,370.4601L328.41508,373.07399L326.51398,374.26213L323.89997,374.0245L322.71178,373.07399L321.52359,373.07399
				L321.52359,375.45026L322.71178,377.35127L322.47414,379.72754L321.04831,382.57906L318.90958,385.43058L317.72139,385.90584
				L316.05793,383.52957L314.39446,380.67805L313.20628,377.82653L311.54281,375.21263L310.8299,374.26213L310.35463,373.54925L
				309.16644,370.69773L308.21589,369.74722L307.74061,368.08383L307.74061,365.46994L308.45353,363.3313L310.35463,356.67775L311.06754,355.72724
				L311.06754,353.5886L310.35463,351.44996L309.40408,349.07369L308.69116,345.98454L308.21589,343.60828L308.45353,341.23201L
				309.16644,339.331L311.54281,336.24185L312.731,333.86558L313.68155,330.77643L314.39446,328.40017L313.91919,326.0239L312.49336,323.88526
				L311.06754,321.98424L309.40408,319.60798L307.74061,316.04357L307.50297,314.61781L307.74061,312.47917L308.9288,309.62765L
				309.64171,306.5385L310.11699,303.68698L310.11699,295.60767L310.35463,293.70666L310.35463,290.14226L309.87935,286.57786L309.40408,281.5877
				L309.64171,278.9738L310.35463,275.64703L311.06754,272.79551L312.25573,269.46873L313.44391,265.90433L315.58265,262.57756L
				317.24611,260.67654L322.2365,255.44875L324.61288,251.88435L325.80107,249.03283L326.75162,246.89419L329.12799,243.80504L331.26673,241.90403
				L334.11838,239.52776L335.30657,237.38912L336.97003,234.77523L338.15822,233.11184L338.87113,231.21083L338.63349,229.07218
				L338.87113,227.4088L338.87113,225.27016L339.3464,223.60677L339.82168,221.94338L340.29696,220.28L340.53459,219.56711L340.77223,219.56711
				L341.96042,217.90373L342.67333,216.47797L345.04971,213.15119L346.23789,211.01255L347.66372,207.68578L347.42608,205.07188
				L346.47553,201.74511L346.00026,197.2302L346.23789,194.37868L346.71317,191.28953L347.42608,187.72513L347.90136,186.77462L
				349.80246,185.58649L349.80246,184.16073L349.56482,182.73497L350.27773,181.30921L350.99064,180.12107L351.22828,178.45769L
				351.70356,177.26955L353.12938,176.55667L354.31757,175.13091L353.84229,172.75465L352.89174,170.616L351.94119,168.47736L351.46592,165.62584
				L350.75301,162.77432L350.04009,159.9228L348.85191,157.54653L347.42608,154.93264L345.52498,152.794L343.38624,150.65536L340.77223,148.27909
				L340.29696,146.37808L341.00987,144.47706L342.19806,142.81368L342.91097,142.1008L343.14861,140.19978L342.43569,138.53639L
				341.96042,136.87301L340.77223,135.44725L339.58404,133.54623L339.58404,132.12047L340.05932,131.16996L340.53459,129.98183L
				340.29696,129.03132L339.58404,128.31844L338.15822,128.08082L336.49475,128.55607L334.83129,128.08082L333.6431,127.13031L332.69255,126.1798
				L331.97964,124.27879L331.97964,122.85303L332.69255,121.6649L332.21728,120.71439L332.45492,118.81337L332.45492,117.62524L
				331.50437,117.14999L331.02909,116.19948L331.50437,115.01135L332.69255,113.82321L332.69255,110.73406L332.93019,107.40729L
				332.45492,104.55577L331.97964,101.94188L332.21728,99.56561L333.40547,96.95171L333.6431,94.33782L333.6431,92.43681L333.16783,90.06054
				L332.69255,87.44664L333.40547,86.73376L334.59365,85.308L335.30657,83.16936L335.78184,79.12971L336.49475,75.56531L335.5442,70.09989
				L333.16783,67.72362L331.97964,67.486L331.50437,67.24837L331.02909,66.53549L330.55382,65.58498L330.31618,63.9216L330.31618,63.20872
				L330.55382,62.49583L330.79145,62.02058L331.02909,61.3077L331.02909,61.07007L330.79145,60.35719L330.55382,59.88194L330.31618,59.16906
				L330.07854,58.45618L329.8409,58.21855L329.60327,57.7433L329.60327,57.50567L329.60327,57.03042L330.55382,56.31754L331.26673,55.84229
				L331.742,55.36703L332.21728,55.12941L332.93019,55.12941L333.40547,54.89178L333.6431,54.41653L333.6431,53.70365L333.88074,52.04026
				L333.88074,50.85212L333.6431,49.42636L333.6431,48.71348L333.16783,48.0006L333.16783,47.28772L332.69255,47.0501L332.21728,46.81247
				L331.742,46.81247L331.02909,46.81247L330.55382,46.57484L330.31618,46.33722L330.31618,45.86196L330.31618,45.14908L330.07854,43.4857
				L329.36563,41.82231L329.12799,39.92129L328.89035,38.97079L328.89035,38.25791L329.36563,37.54503L329.8409,36.59452L330.07854,35.64401
				L330.31618,35.16876L330.31618,34.21825L330.07854,33.26775L329.60327,32.31724L329.36563,31.84198L329.12799,31.36673L329.12799,30.41622
				L329.36563,29.70334L330.07854,28.99046L330.31618,28.27758L330.79145,27.5647L331.02909,27.32708L331.50437,27.08945L332.21728,27.08945
				L332.45492,27.08945L332.93019,27.08945L333.16783,26.37657L333.40547,25.90132L333.6431,25.66369L334.11838,24.95081L334.35602,24.47556
				L334.35602,23.76268L334.11838,22.81217L334.35602,20.19827L337.4453,18.53489L338.87113,19.96065L340.29696,20.67353L342.67333,20.91115
				L342.91097,20.91115L346.47553,20.67353L349.08954,21.14878L350.27773,21.62403L351.94119,22.57454L353.60466,24.0003L356.45631,29.70334
				L357.6445,30.65385L358.59505,30.89148L361.20906,30.65385L363.3478,29.22809L365.48653,27.32708L366.91236,26.37657L367.62527,26.37657
				L368.33818,27.32708L368.33818,29.46572L367.62527,32.55486L367.38763,35.64401L367.86291,38.73316L368.57582,40.8718L369.28873,41.58468
				L370.47692,42.29756L372.37802,42.05993L374.27912,40.15892L377.13077,36.11927L378.5566,34.93113L379.98242,34.69351L381.40825,34.45588
				L384.02226,34.93113L387.58683,36.35689L391.38903,38.97079L393.05249,39.92129L393.52776,40.63417L394.00304,41.34705L394.00304,42.77281
				L395.19123,47.28772L395.6665,49.18874L396.14178,50.6145L397.09233,52.75314L398.75579,54.65415L399.94398,55.60466L401.13216,55.60466
				L405.64728,54.65415L412.53877,54.1789L416.5786,53.94127L419.19262,53.94127L421.33136,54.41653L422.99482,55.60466L424.42064,57.03042
				L426.79702,62.49583L427.27229,63.68397L428.69812,65.34736L429.64867,66.53549L431.78741,70.33752L432.02504,71.76328L432.02504,72.23853
				L431.78741,72.71379L431.78741,74.13955L432.26268,75.56531L433.21323,76.27819L433.21323,76.51581L435.11433,77.46632L437.01543,78.1792
				L438.6789,77.94157L439.39181,78.1792L440.10472,78.41683L440.81763,78.89208L441.53055,79.60496L442.95637,80.31784L445.09511,81.03072
				L446.52093,81.26835L447.94676,81.03072L449.61022,80.79309L450.56077,80.79309L451.27369,81.26835L451.74896,82.45648L453.41242,83.64462
				L453.65006,84.11987L454.36297,85.07038L455.07589,85.78326L456.02644,87.44664L456.73935,88.8724L457.6899,91.72392L458.40281,94.57545
				L459.11572,96.23883L459.82864,97.66459L461.25446,99.32798L463.3932,101.94188L463.86847,102.41713L464.10611,103.36764L464.81903,103.84289
				L466.24485,104.08052L467.43304,104.08052"/>
		</g>
	</g>
</svg>
