<svg width="23" height="24" viewBox="0 0 23 24" fill="none" xmlns="http://www.w3.org/2000/svg">
<g id="Frame">
<path id="Vector" d="M17.9061 12.6911C17.8667 9.83855 20.2292 8.49543 20.308 8.41668C19.0042 6.50043 16.9261 6.21605 16.1955 6.21605C14.4455 6.05418 12.7742 7.23543 11.9211 7.23543C11.0242 7.23543 9.6811 6.21605 8.21547 6.2598C6.29922 6.29918 4.54922 7.35793 3.5736 9.06855C1.5786 12.4898 3.0836 17.5823 4.99985 20.3517C5.9361 21.6948 7.07797 23.2436 8.5436 23.2042C9.96985 23.1648 10.4992 22.2679 12.2098 22.2679C13.9205 22.2679 14.4105 23.2042 15.9155 23.1648C17.4205 23.1254 18.4005 21.7823 19.3367 20.3954C20.4348 18.8073 20.8417 17.3023 20.8855 17.2192C20.8811 17.2104 17.9498 16.0729 17.9061 12.6911ZM15.0973 4.38293C15.8717 3.44668 16.4011 2.10355 16.2786 0.799805C15.1367 0.83918 13.7936 1.5348 12.9798 2.51043C12.2448 3.36355 11.6367 4.71105 11.7986 5.97105C13.0192 6.05418 14.323 5.31918 15.0973 4.38293Z" fill="black"/>
</g>
</svg>
