<svg width="30" height="30" viewBox="0 0 30 30" fill="none" xmlns="http://www.w3.org/2000/svg">
<g id="Video Clip">
<path id="Shape" d="M12.5 12.3845V17.6162C12.5 18.1858 13.1099 18.5475 13.6097 18.2743L18.3959 15.6582C18.9163 15.3737 18.9162 14.6263 18.3958 14.3419L13.6097 11.7264C13.1099 11.4533 12.5 11.815 12.5 12.3845ZM8.25 6C6.45507 6 5 7.45507 5 9.25V20.75C5 22.5449 6.45507 24 8.25 24H21.75C23.5449 24 25 22.5449 25 20.75V9.25C25 7.45507 23.5449 6 21.75 6H8.25ZM6.5 9.25C6.5 8.2835 7.2835 7.5 8.25 7.5H21.75C22.7165 7.5 23.5 8.2835 23.5 9.25V20.75C23.5 21.7165 22.7165 22.5 21.75 22.5H8.25C7.2835 22.5 6.5 21.7165 6.5 20.75V9.25Z" fill="#7AA64E"/>
</g>
</svg>
