<svg version="1.1" id="Layer_1" xmlns="http://www.w3.org/2000/svg" xmlns:xlink="http://www.w3.org/1999/xlink" x="0px" y="0px"
	 width="100%" viewBox="0 0 2301 2583" enable-background="new 0 0 2301 2583" xml:space="preserve">

<path data-name="Messondo" style="fill: {#DC71DE}" fill="#DC71DE" opacity="1.000000" stroke="none" 
	d="
M160.507965,2214.415283 
	C160.390030,2212.131348 160.272110,2209.847168 160.824890,2206.174316 
	C163.075729,2203.667725 164.603516,2201.676514 166.244751,2201.578125 
	C175.111252,2201.046875 184.105911,2200.043213 192.867966,2200.974609 
	C207.096024,2202.487061 221.167145,2204.379395 235.253128,2200.361084 
	C238.706726,2199.376221 242.551147,2199.092773 245.562820,2197.354980 
	C253.898941,2192.544922 261.926697,2187.192871 269.987152,2181.918701 
	C271.579468,2180.876709 273.172455,2179.450684 274.088623,2177.821289 
	C282.045105,2163.671143 292.256622,2150.701172 296.776550,2134.739502 
	C298.222595,2129.632568 301.218658,2126.409912 306.495392,2124.397217 
	C318.309631,2119.890869 329.650574,2114.197510 338.650421,2105.025391 
	C342.740265,2100.857178 347.099945,2098.341064 351.050812,2099.188965 
	C354.745667,2093.536377 357.669739,2089.062988 360.184326,2085.216064 
	C360.560425,2078.495117 361.160187,2072.024658 361.161835,2065.554199 
	C361.162445,2063.132080 360.480194,2059.965332 358.873932,2058.433105 
	C354.809082,2054.555664 355.828308,2050.929443 357.387085,2047.871582 
	C361.718292,2046.407471 365.162109,2045.243286 369.411438,2043.806763 
	C366.696991,2039.235596 364.728485,2035.920654 362.864380,2032.781494 
	C363.400726,2031.586182 363.589661,2030.448730 364.255005,2029.799438 
	C368.395386,2025.758911 371.512787,2021.625977 370.024231,2015.106934 
	C369.649323,2013.464966 372.244965,2010.820801 373.956848,2009.122314 
	C375.509949,2007.581421 377.718353,2006.700806 379.493500,2005.617310 
	C376.989166,1996.614502 376.865845,1996.536621 381.280640,1989.551880 
	C384.026001,1985.208130 384.811584,1981.105957 381.755646,1976.611206 
	C380.303986,1974.476196 379.196350,1972.107178 378.303925,1970.508789 
	C383.439972,1960.880737 388.252075,1951.859863 393.284973,1942.425171 
	C387.828552,1936.871338 389.669159,1929.647583 389.870483,1922.874756 
	C390.009552,1918.196533 393.907776,1915.926270 398.077087,1915.969238 
	C401.495728,1916.004517 405.133850,1917.144531 408.254852,1918.659790 
	C413.623596,1921.266113 415.230408,1920.963867 416.875458,1915.473755 
	C417.342926,1913.913574 417.935699,1912.058350 417.510162,1910.623291 
	C415.986572,1905.484619 418.455261,1902.177612 422.385284,1899.908081 
	C426.916077,1897.291626 428.174377,1893.048096 429.595642,1888.565308 
	C431.661346,1882.050293 432.569641,1874.189453 436.869293,1869.643188 
	C440.979858,1865.296875 442.732544,1860.483032 445.252594,1855.706299 
	C447.884277,1850.718018 447.206879,1843.451050 454.888367,1841.902100 
	C455.390320,1841.800781 455.612274,1840.296021 455.958801,1839.441650 
	C457.399780,1835.889404 458.838562,1832.336060 460.548676,1828.115601 
	C455.974731,1824.603149 453.769623,1818.951050 453.339050,1812.426880 
	C453.035126,1807.821655 450.438019,1801.585449 452.511353,1798.985474 
	C456.526978,1793.950073 450.975128,1790.603638 452.389099,1786.449097 
	C453.106445,1784.341553 453.085846,1780.823975 451.797302,1779.484131 
	C450.162903,1777.784912 446.901276,1777.650757 444.503784,1776.893066 
	C443.974823,1770.920288 443.300842,1765.023926 443.021301,1759.108887 
	C442.937500,1757.335205 443.586121,1755.285278 444.525818,1753.743896 
	C450.736908,1743.556885 453.288757,1732.427368 453.747162,1720.639771 
	C453.830505,1718.496826 454.202759,1715.563599 455.605194,1714.412109 
	C461.687897,1709.416992 461.459045,1701.980225 460.691193,1696.154175 
	C459.864288,1689.879639 462.029175,1685.246948 463.730927,1680.026001 
	C464.626312,1677.279053 465.986145,1674.559326 466.234375,1671.747681 
	C467.176453,1661.079224 470.155243,1651.698486 479.879913,1645.591797 
	C482.412781,1644.001465 484.419373,1641.572876 488.278168,1638.065063 
	C473.506836,1640.258423 470.254211,1637.988647 470.045471,1628.455078 
	C475.342896,1623.733521 480.205383,1619.399536 486.041412,1614.197998 
	C487.608856,1617.167725 489.290558,1620.354004 490.868317,1623.343262 
	C493.699371,1621.654663 497.250061,1620.311279 499.684692,1617.859497 
	C501.966461,1615.561890 505.036621,1611.465942 504.333038,1609.249023 
	C501.804047,1601.280518 506.905029,1597.946167 511.280853,1593.438232 
	C514.426086,1595.696777 517.065552,1597.592163 519.431519,1599.291138 
	C529.750488,1595.995605 521.443542,1587.405518 525.292725,1581.652100 
	C527.198792,1582.813721 528.966431,1583.890869 530.675354,1584.932251 
	C535.549622,1580.656616 540.414978,1576.388916 545.077942,1572.298706 
	C547.988708,1573.314575 550.435608,1573.690552 552.331238,1574.917969 
	C558.591125,1578.970337 563.939697,1579.485962 569.575623,1573.367676 
	C576.121826,1566.261230 583.929382,1562.915771 593.091675,1569.416260 
	C593.572021,1569.757080 594.361755,1569.661743 595.280212,1569.815186 
	C597.986084,1568.415771 600.874146,1566.922241 603.860107,1565.378052 
	C602.396667,1560.685913 602.771057,1557.060303 608.141174,1556.251099 
	C616.974060,1554.919922 625.811279,1553.565674 634.690186,1552.637817 
	C636.320801,1552.467529 638.248230,1554.137451 639.876160,1555.205566 
	C641.730042,1556.421997 643.401794,1557.915894 644.997681,1559.167725 
	C648.477722,1556.939331 651.476929,1555.018921 655.364746,1552.529541 
	C657.274414,1556.613037 658.876648,1560.038940 660.527405,1563.568726 
	C657.109558,1565.529541 654.357971,1567.108154 650.686035,1569.214844 
	C660.167969,1573.563232 665.172607,1583.631104 676.569885,1583.243530 
	C678.360535,1581.166992 680.472778,1578.717407 682.762390,1576.062256 
	C685.476929,1577.908691 687.803894,1579.491455 690.247925,1581.153809 
	C693.981995,1577.806030 691.557983,1570.195068 699.176331,1569.846802 
	C703.684387,1574.360840 710.820740,1577.777466 705.127991,1586.735229 
	C703.193787,1589.778809 705.691162,1592.356323 709.435242,1591.986206 
	C715.646606,1591.372559 721.853271,1590.710327 728.809631,1589.991211 
	C729.936584,1598.826172 731.264526,1607.626587 732.123840,1616.472534 
	C732.834473,1623.787842 736.825500,1628.197144 743.142578,1631.431396 
	C749.701355,1623.750732 751.038269,1614.958130 751.062988,1603.494019 
	C757.361389,1609.865479 762.207825,1614.768066 767.584106,1620.206787 
	C769.261230,1616.525757 770.371155,1614.089478 771.620605,1611.347046 
	C781.874939,1614.650757 781.254028,1624.074097 783.743591,1631.040283 
	C788.172180,1628.311279 792.040771,1625.927490 797.643799,1622.474731 
	C796.051819,1632.752197 799.832520,1637.190186 807.521973,1637.878662 
	C809.733337,1648.496216 809.733337,1648.496216 822.580505,1648.442749 
	C823.775940,1652.197388 825.329956,1656.172119 826.290894,1660.285400 
	C828.305664,1668.909058 830.334717,1670.120850 839.386169,1669.235962 
	C843.154785,1668.867676 848.380005,1668.687256 850.678833,1670.839478 
	C856.814758,1676.584229 864.568787,1679.658081 870.841614,1684.661255 
	C876.587097,1689.244019 881.638977,1693.545044 889.878967,1694.167114 
	C884.130493,1698.349854 878.381958,1702.532471 873.503296,1706.082275 
	C875.898376,1712.023682 878.267822,1717.901489 880.176331,1722.635742 
	C885.742188,1721.084595 891.120422,1719.585571 896.633179,1718.049072 
	C898.616760,1731.680664 903.602478,1736.692993 915.434753,1739.236328 
	C913.780701,1744.004761 912.138184,1748.740112 910.495667,1753.475342 
	C910.985657,1753.793701 911.475586,1754.111938 911.965576,1754.430298 
	C916.978882,1749.257080 921.992249,1744.083984 926.582764,1739.347046 
	C931.422668,1741.838379 935.305115,1743.837036 939.350220,1745.919312 
	C940.654297,1748.912964 937.249817,1753.799438 942.006897,1755.655151 
	C945.037598,1750.586304 947.900635,1745.797729 951.953857,1739.018555 
	C952.089417,1732.702637 942.915833,1723.363403 953.341675,1714.987061 
	C955.874695,1715.547852 958.682922,1716.169556 961.810242,1716.861938 
	C963.457703,1714.183472 964.740540,1711.901855 966.209290,1709.747070 
	C970.562500,1703.360474 969.587952,1695.768921 971.814453,1689.052734 
	C989.329041,1691.828735 1006.118042,1694.184082 1022.862061,1696.824219 
	C1026.749878,1697.437256 1030.724854,1698.525757 1034.251099,1700.237305 
	C1058.495117,1712.004517 1082.533203,1724.198120 1106.836548,1735.839355 
	C1121.815063,1743.013916 1136.891846,1749.106323 1154.423828,1748.317261 
	C1169.107422,1747.656372 1183.578369,1746.215210 1197.997559,1743.815063 
	C1223.287842,1739.605835 1248.193115,1733.983032 1271.770386,1723.443237 
	C1286.942383,1716.660645 1302.296143,1710.284912 1317.633911,1704.541016 
	C1314.310913,1717.832764 1311.736572,1730.616577 1307.207764,1742.665527 
	C1304.758301,1749.182739 1299.981689,1755.808838 1294.429077,1759.919800 
	C1287.925293,1764.734741 1283.299805,1770.219482 1280.123779,1777.288696 
	C1264.535034,1811.985718 1244.058228,1843.952881 1224.932251,1876.684326 
	C1220.859619,1883.654053 1215.557495,1886.424805 1207.788940,1885.996216 
	C1203.179321,1885.741943 1198.290039,1885.380005 1193.953735,1886.593506 
	C1187.793213,1888.317261 1182.153442,1887.505249 1176.332764,1885.870972 
	C1174.003540,1885.217041 1171.625854,1884.735474 1169.270264,1884.175415 
	C1171.340576,1890.326904 1174.042480,1895.396729 1177.951416,1899.238525 
	C1182.159424,1903.374268 1182.491577,1907.482544 1181.447021,1912.775879 
	C1179.908203,1920.573120 1178.783691,1928.479004 1177.982788,1936.389160 
	C1176.578125,1950.262695 1175.308594,1964.159790 1174.449585,1978.075684 
	C1173.818115,1988.308716 1173.328003,1998.612061 1180.981812,2007.259644 
	C1182.300659,2008.749878 1181.802246,2012.307617 1181.377808,2014.779053 
	C1180.649658,2019.019531 1179.241089,2023.138428 1178.257812,2027.341064 
	C1176.816528,2033.502563 1176.229858,2039.393677 1178.773682,2045.765503 
	C1180.185791,2049.302490 1179.376343,2054.282959 1178.173584,2058.182861 
	C1176.135254,2064.791992 1172.389282,2070.888428 1170.494263,2077.523926 
	C1168.801392,2083.452393 1164.983398,2085.363281 1159.732300,2086.148438 
	C1153.001099,2087.155029 1146.268799,2088.153320 1138.352783,2089.331543 
	C1132.150269,2083.002441 1132.024414,2071.614502 1123.941528,2062.080566 
	C1122.883301,2067.411865 1122.282959,2070.531982 1121.642944,2073.643799 
	C1119.682739,2083.175293 1118.221924,2084.262695 1107.530518,2083.468262 
	C1107.003784,2086.534668 1105.907471,2089.717285 1106.032471,2092.851562 
	C1106.296021,2099.466309 1106.980103,2106.086914 1107.932129,2112.641357 
	C1108.399780,2115.862061 1109.347290,2119.229492 1110.957153,2122.023926 
	C1114.553711,2128.266846 1116.402954,2134.633057 1116.036621,2141.958252 
	C1115.887939,2144.931396 1117.845581,2148.186523 1119.364380,2151.036621 
	C1127.179810,2165.702881 1135.280640,2180.217285 1143.042725,2194.911133 
	C1147.234741,2202.846924 1150.737427,2211.146484 1154.915405,2219.090088 
	C1170.558594,2248.833008 1186.352051,2278.496826 1201.567871,2308.689453 
	C1163.483398,2322.499756 1126.046509,2336.182373 1088.322510,2349.021240 
	C1048.098389,2362.710449 1009.043030,2379.472412 968.005127,2391.148438 
	C867.075378,2419.864258 766.690796,2450.489502 665.928772,2479.803223 
	C603.407288,2497.991943 540.597290,2515.188721 477.915833,2532.827393 
	C433.162018,2545.421631 388.404083,2558.000977 343.654144,2570.608643 
	C330.557861,2574.298584 317.460663,2577.989014 304.423157,2581.878174 
	C302.548920,2582.437500 298.662964,2581.666748 300.000000,2586.000000 
	C296.571259,2586.000000 293.142487,2586.000000 289.204468,2585.298828 
	C280.375214,2567.252686 272.167236,2549.852783 263.712067,2532.574219 
	C245.326202,2495.001221 226.728546,2457.531738 208.489807,2419.887695 
	C206.726395,2416.248291 206.230972,2411.681885 206.259628,2407.553467 
	C206.314636,2399.627197 207.190140,2391.707520 207.685776,2383.782715 
	C208.698624,2367.587402 209.350296,2351.360596 210.803986,2335.205322 
	C211.727798,2324.938721 209.574448,2319.234131 200.497986,2314.095947 
	C195.303406,2311.155273 190.198334,2307.609619 184.576355,2305.960938 
	C171.431625,2302.104980 171.087296,2280.929199 181.090912,2271.142090 
	C173.334259,2260.266846 168.972809,2248.399902 171.784286,2234.936523 
	C173.463196,2226.896729 171.204895,2221.400391 163.700409,2217.921631 
	C162.378525,2217.308594 161.559326,2215.611572 160.507965,2214.415283 
z"/>
<path data-name="Makak" style="fill: {#58F4CE}" fill="#58F4CE" opacity="1.000000" stroke="none" 
	d="
M2304.000000,2160.000000 
	C2304.000000,2162.778076 2304.000000,2165.555908 2303.440430,2169.549805 
	C2300.284180,2173.239502 2297.803955,2175.852051 2295.061279,2178.152100 
	C2291.510498,2181.130371 2290.476074,2183.977295 2291.073242,2189.188232 
	C2292.265869,2199.593018 2294.222168,2210.264648 2290.512207,2220.790039 
	C2287.365234,2229.718262 2277.629639,2233.989990 2269.085938,2229.690918 
	C2267.579346,2228.932861 2266.095947,2228.128662 2262.442871,2226.214355 
	C2264.205811,2231.324463 2264.940918,2234.406982 2266.295166,2237.187500 
	C2269.305908,2243.368164 2267.031738,2248.119629 2260.100586,2248.972168 
	C2256.815918,2249.375977 2253.427979,2249.326416 2250.120605,2249.061768 
	C2245.552002,2248.696045 2242.687500,2250.972656 2242.637695,2255.063232 
	C2242.580566,2259.756592 2240.373047,2261.902588 2236.819824,2264.296875 
	C2234.266846,2266.017090 2232.822510,2269.411621 2230.954590,2272.108887 
	C2229.826904,2273.737061 2229.231689,2276.253418 2227.717529,2277.008301 
	C2219.467285,2281.121826 2211.332031,2286.020020 2202.547852,2288.391846 
	C2185.397949,2293.022461 2170.559814,2302.657471 2154.211670,2308.900879 
	C2153.304199,2309.247559 2152.504395,2309.927002 2151.718750,2310.534424 
	C2144.960693,2315.760498 2137.169434,2318.342285 2128.878906,2319.940430 
	C2126.111084,2320.473877 2123.459961,2321.968506 2120.944092,2323.363281 
	C2117.858154,2325.073730 2115.111328,2327.421387 2111.970947,2329.002930 
	C2100.152344,2334.954590 2087.885742,2340.104736 2076.452393,2346.707520 
	C2065.629395,2352.957520 2055.764648,2360.843994 2045.241943,2367.644775 
	C2038.245850,2372.166260 2036.006958,2378.104004 2037.302979,2386.137451 
	C2038.819458,2395.538086 2026.665283,2417.819092 2018.018555,2422.146973 
	C2016.839600,2422.736572 2015.538696,2423.222412 2014.243164,2423.416992 
	C2005.334351,2424.756836 1998.082275,2428.693604 1992.165527,2435.701904 
	C1986.983276,2441.840332 1980.136353,2443.641113 1972.321655,2440.696045 
	C1962.740112,2437.085205 1953.092285,2433.650635 1943.520752,2430.014404 
	C1935.158325,2426.837402 1932.462891,2427.074707 1927.647583,2434.480225 
	C1922.940186,2441.719727 1916.147949,2443.996338 1908.388916,2445.097900 
	C1905.436523,2445.516846 1902.187744,2445.324463 1899.594482,2446.530518 
	C1890.276611,2450.863037 1883.889771,2447.047852 1876.599609,2441.048584 
	C1862.808350,2429.699463 1847.944092,2419.654297 1833.358154,2408.944092 
	C1821.810913,2417.989746 1808.707153,2417.062256 1796.388184,2418.859131 
	C1791.803223,2419.527832 1786.388794,2418.437012 1782.101196,2416.495117 
	C1768.064453,2410.137695 1763.756592,2414.281982 1759.039795,2424.273438 
	C1753.978760,2434.993652 1748.076050,2445.513916 1747.296143,2457.879883 
	C1746.745239,2466.614746 1741.437622,2471.549316 1732.940918,2473.210449 
	C1720.884766,2475.567383 1708.844360,2478.004883 1696.783203,2480.335693 
	C1691.493164,2481.358154 1686.168335,2482.200928 1679.898071,2483.292480 
	C1681.870239,2474.339844 1681.576904,2466.891113 1687.423584,2460.567627 
	C1691.538208,2456.117676 1693.517456,2449.693115 1696.456543,2444.138184 
	C1688.773926,2433.031250 1681.297363,2422.463867 1674.111084,2411.702393 
	C1671.589355,2407.926025 1668.623291,2407.932129 1664.658447,2408.565918 
	C1632.852417,2413.650635 1601.021729,2418.583252 1569.176025,2423.413574 
	C1563.976074,2424.201904 1558.575684,2425.062012 1553.424316,2424.486572 
	C1542.694580,2423.288818 1539.597778,2424.471924 1534.051880,2433.764160 
	C1532.451660,2436.445557 1530.269775,2438.779785 1528.297241,2441.347168 
	C1520.912964,2434.672607 1516.313721,2434.349365 1511.601440,2441.479492 
	C1508.059937,2446.838379 1505.456787,2452.224609 1498.517334,2453.711182 
	C1497.616577,2453.904297 1497.044556,2455.777588 1496.380859,2456.907959 
	C1490.797363,2466.416992 1482.029419,2468.410400 1473.279663,2461.440430 
	C1468.396606,2457.550781 1464.336792,2452.610840 1460.007202,2448.048096 
	C1455.146729,2442.925293 1450.654053,2441.733887 1444.851562,2444.248291 
	C1437.703125,2447.345947 1437.361328,2447.316650 1432.639771,2441.579590 
	C1430.535278,2439.022217 1428.545288,2436.357422 1426.674438,2433.624268 
	C1422.108887,2426.953369 1416.499756,2422.311768 1407.780518,2422.856689 
	C1406.691284,2422.924561 1405.524780,2421.757568 1404.490479,2421.213623 
	C1405.656006,2415.622314 1405.656006,2415.622314 1411.434570,2408.238281 
	C1418.768677,2398.866455 1418.561768,2397.244629 1409.151611,2390.338867 
	C1409.878662,2381.348877 1407.790771,2376.541748 1401.003784,2375.160156 
	C1394.227051,2373.781006 1390.929077,2369.784668 1391.055786,2363.668213 
	C1391.175781,2357.879639 1381.968750,2355.553223 1386.217896,2348.787598 
	C1386.395020,2348.505615 1386.697388,2348.218018 1386.703613,2347.927734 
	C1386.731201,2346.649414 1386.762939,2345.359619 1386.628662,2344.091309 
	C1385.723877,2335.552490 1384.777100,2327.018066 1384.536621,2318.661133 
	C1390.146973,2324.252930 1396.498779,2325.276611 1403.380981,2324.332764 
	C1405.671143,2327.601318 1407.661255,2330.679199 1409.910034,2333.554932 
	C1411.101440,2335.078613 1412.542969,2337.031006 1414.211670,2337.456787 
	C1426.259277,2340.533203 1438.500732,2346.297607 1450.002930,2335.781494 
	C1453.119995,2332.931396 1457.991089,2331.233398 1459.771729,2327.816162 
	C1468.986328,2310.132568 1477.850586,2292.236816 1485.975098,2274.030518 
	C1488.743286,2267.827393 1491.325806,2262.985596 1498.480469,2261.632568 
	C1509.835327,2259.485596 1517.358643,2252.661865 1521.342041,2241.863037 
	C1521.455933,2241.553955 1521.655518,2241.276367 1521.817993,2240.985596 
	C1527.944824,2230.034668 1529.254028,2229.232666 1541.487183,2230.896729 
	C1544.331177,2231.283691 1547.367920,2232.415039 1549.689209,2234.078857 
	C1556.692627,2239.097656 1563.393555,2244.539307 1570.199097,2249.833008 
	C1572.408081,2251.551025 1574.576904,2253.320557 1576.528320,2254.878174 
	C1591.541992,2238.010010 1605.755859,2222.040527 1620.107544,2205.916260 
	C1608.735596,2188.889893 1608.650269,2169.186279 1604.377319,2150.192383 
	C1611.355103,2142.841309 1617.521240,2134.752197 1625.229370,2128.592773 
	C1637.173950,2119.048340 1645.576294,2106.753174 1654.804932,2095.002686 
	C1657.495239,2091.577148 1658.681885,2088.176758 1657.613403,2083.953857 
	C1651.190186,2058.570068 1651.920288,2032.489258 1650.347534,2006.651733 
	C1649.830933,1998.167114 1649.222046,1990.293945 1642.649170,1983.894897 
	C1640.368042,1981.674194 1639.281006,1978.213623 1637.696411,1975.293335 
	C1629.288940,1959.798706 1620.582153,1944.456177 1612.578979,1928.755127 
	C1602.618896,1909.214844 1593.236450,1889.379761 1583.621094,1869.663940 
	C1580.326294,1862.908081 1578.649292,1855.178833 1571.187744,1851.055542 
	C1569.330200,1850.029053 1568.312256,1847.463989 1566.939575,1845.583374 
	C1563.875610,1841.384644 1563.724854,1837.467773 1566.744751,1832.834839 
	C1570.896851,1826.464722 1574.239746,1819.567261 1578.066284,1812.648071 
	C1582.724854,1811.789795 1587.570679,1810.178833 1592.419800,1810.168701 
	C1600.044189,1810.152832 1604.009644,1806.583496 1605.855713,1799.933350 
	C1603.735596,1796.849243 1601.714355,1794.210327 1600.022095,1791.375122 
	C1597.591064,1787.301880 1597.204956,1783.206421 1600.909180,1779.538330 
	C1608.357544,1772.162598 1609.667847,1764.374512 1601.610352,1756.100098 
	C1605.803833,1752.787354 1609.346558,1749.988647 1612.652222,1747.377319 
	C1611.821655,1742.243286 1611.092285,1737.734985 1610.297363,1732.821777 
	C1608.549805,1731.787842 1606.305664,1730.460327 1604.446533,1729.360352 
	C1604.446533,1720.225708 1603.802490,1711.553711 1604.624878,1703.023315 
	C1605.472778,1694.229736 1607.748413,1685.573730 1609.405884,1676.823608 
	C1615.050781,1675.398926 1621.429688,1677.953979 1626.335449,1672.806152 
	C1635.819702,1673.874146 1644.475830,1674.285034 1650.935181,1681.458496 
	C1652.138794,1682.795166 1654.427368,1683.372559 1656.328369,1683.827881 
	C1668.438232,1686.729858 1680.524780,1687.364380 1692.648682,1683.601196 
	C1700.822021,1681.064453 1709.120483,1678.931519 1717.221558,1676.657715 
	C1722.549316,1680.040649 1724.923828,1684.120361 1724.524414,1690.781738 
	C1723.794067,1702.961792 1729.512329,1707.135010 1742.600586,1704.477173 
	C1744.045898,1709.288818 1745.519287,1714.193970 1746.963135,1719.000488 
	C1744.568359,1720.679688 1742.479980,1722.143921 1740.289185,1723.680054 
	C1742.137451,1729.003784 1743.825806,1733.866821 1745.740967,1739.352417 
	C1753.331787,1751.063843 1761.019287,1761.954102 1767.976807,1773.292114 
	C1776.491943,1787.168457 1785.212524,1801.017700 1792.390259,1815.594727 
	C1806.500854,1844.251343 1819.758911,1873.333008 1833.012085,1902.401978 
	C1836.001587,1908.958862 1838.143555,1916.060791 1839.554199,1923.135498 
	C1841.038330,1930.578613 1841.209351,1938.286987 1841.898926,1945.884521 
	C1843.610107,1964.735718 1847.160522,1983.211426 1851.128540,2001.743774 
	C1854.596313,2017.940063 1862.063477,2030.341553 1874.038208,2041.282471 
	C1880.445435,2047.136475 1886.937500,2049.645020 1895.361694,2050.068604 
	C1916.749023,2051.143799 1937.849487,2048.962891 1958.905762,2045.795654 
	C1974.661499,2043.425781 1990.276123,2040.960083 2004.678833,2033.088013 
	C2015.146973,2027.366333 2026.656250,2023.586792 2037.449585,2018.415649 
	C2067.994385,2003.781006 2099.628418,1991.205933 2127.024658,1970.595093 
	C2139.772949,1961.003906 2153.588623,1952.763428 2165.866455,1942.633179 
	C2178.675781,1932.064819 2190.395020,1920.141113 2202.270264,1908.483276 
	C2220.344238,1890.740479 2238.121338,1872.695801 2256.079346,1854.834473 
	C2258.654297,1852.273560 2261.535889,1850.021484 2264.800537,1848.112793 
	C2266.985107,1851.797363 2268.644531,1854.995483 2270.324951,1858.233276 
	C2272.114502,1858.233276 2273.417480,1858.217529 2274.719971,1858.235718 
	C2281.847412,1858.335449 2286.273193,1861.356323 2288.081299,1868.745483 
	C2289.627686,1875.064697 2291.466309,1881.688232 2294.912842,1887.063110 
	C2298.531494,1892.705933 2299.026367,1898.465942 2298.074707,1904.178223 
	C2296.852295,1911.515869 2293.820801,1918.532349 2292.017090,1925.798462 
	C2290.204102,1933.102295 2287.554443,1940.648804 2294.048828,1947.302246 
	C2294.888428,1948.162598 2295.352539,1949.577759 2295.586670,1950.812500 
	C2298.410645,1965.709717 2289.300293,1980.368286 2275.346924,1981.942383 
	C2273.718262,1982.126221 2271.582520,1982.207764 2270.621582,1983.224609 
	C2263.216309,1991.062866 2256.447266,1986.200928 2249.548828,1982.506592 
	C2247.793213,1981.566528 2245.876953,1980.901611 2244.196045,1979.851807 
	C2239.726318,1977.060181 2235.773438,1977.842651 2231.693359,1980.808716 
	C2242.080811,1993.207520 2245.904785,1996.623413 2257.789551,2002.318115 
	C2265.419434,2005.974121 2269.020996,2013.055298 2271.373047,2019.958862 
	C2272.610352,2023.590820 2268.833496,2029.004761 2267.104492,2033.531372 
	C2266.547363,2034.990234 2265.301270,2036.185791 2264.501221,2037.316650 
	C2264.944824,2038.696289 2265.055664,2039.772827 2265.585449,2040.571655 
	C2269.726807,2046.815674 2270.549316,2052.018066 2263.561035,2057.520508 
	C2259.218506,2060.939941 2261.177002,2070.584717 2265.698242,2074.193848 
	C2273.645996,2080.537842 2273.593018,2080.519287 2270.042236,2090.617188 
	C2269.292480,2092.749512 2268.416016,2095.178467 2268.749023,2097.289551 
	C2270.083740,2105.759521 2272.413818,2114.097656 2273.360596,2122.597656 
	C2274.703369,2134.651611 2277.212158,2147.203125 2266.391113,2157.218994 
	C2272.777344,2160.058838 2277.661377,2164.751465 2285.526123,2158.857910 
	C2290.105957,2155.425781 2298.144531,2154.570068 2304.000000,2160.000000 
z"/>
<path data-name="Nguibassal" style="fill: {#729BF6}" fill="#729BF6" opacity="1.000000" stroke="none" 
	d="
M2304.000000,743.500000 
	C2301.010254,743.887146 2298.020752,743.676025 2295.031006,743.675598 
	C2175.472656,743.658997 2055.914062,743.661438 1936.355713,743.661499 
	C1933.113159,743.661499 1929.870728,743.661499 1926.442749,743.661499 
	C1926.442749,754.475220 1926.208252,764.353210 1926.499512,774.215698 
	C1926.900635,787.799927 1927.780518,801.369690 1928.245605,814.952881 
	C1928.321777,817.181824 1927.402466,819.469055 1926.806396,821.692688 
	C1923.981934,832.230103 1931.261475,843.438538 1941.965088,844.027100 
	C1944.819458,844.184082 1948.132935,842.183105 1950.655151,840.366821 
	C1952.964722,838.703552 1954.490479,835.951721 1956.151978,833.934387 
	C1962.607788,836.084290 1968.807129,837.393188 1974.293945,840.130188 
	C1986.445923,846.192261 1995.185669,853.921997 1990.310669,868.718384 
	C1989.063721,872.503235 1988.507568,876.681152 1986.527100,880.022278 
	C1983.071167,885.852722 1985.303833,889.981812 1989.227173,894.063049 
	C1991.764893,896.702820 1994.347412,899.299500 1996.888916,901.935608 
	C2002.507446,907.763245 2009.909058,912.200623 2010.488892,921.720886 
	C2010.751587,926.034790 2014.823120,926.936646 2018.484985,927.940735 
	C2026.022949,930.007568 2032.070801,933.519897 2036.169312,941.098450 
	C2038.353516,945.137207 2044.311646,947.134888 2049.308594,950.562805 
	C2048.128418,964.777405 2060.821045,972.506470 2067.940186,983.970032 
	C2060.520508,989.345764 2057.147705,996.414307 2058.235352,1005.454590 
	C2058.416016,1006.956970 2057.669434,1008.671692 2057.037354,1010.154480 
	C2053.312500,1018.891785 2053.540527,1020.502502 2059.706787,1026.695190 
	C2068.533936,1035.560669 2069.928955,1055.056885 2062.352783,1064.501587 
	C2061.540527,1065.514160 2060.474609,1066.724976 2059.324219,1067.000977 
	C2049.775391,1069.291382 2040.614136,1073.705688 2030.392944,1072.443359 
	C2021.109253,1071.296631 2016.178589,1073.810547 2011.606445,1081.976685 
	C2008.334961,1087.819702 2005.679199,1093.687256 2006.143066,1100.800049 
	C2006.362915,1104.171021 2004.566772,1107.693604 2003.583496,1111.118530 
	C2002.072144,1116.383911 2000.474243,1121.624634 1998.701660,1127.586426 
	C2002.022827,1128.108521 2003.957031,1128.928589 2005.669189,1128.598267 
	C2017.060913,1126.400757 2028.449097,1124.145386 2039.749512,1121.525635 
	C2047.016724,1119.840942 2047.540405,1118.840942 2047.645020,1111.245117 
	C2047.727661,1105.251587 2047.549072,1099.253540 2047.691772,1093.262207 
	C2047.911621,1084.023682 2049.493408,1083.591187 2058.392578,1085.282715 
	C2070.378174,1087.560913 2075.294678,1097.477783 2082.628662,1105.001587 
	C2089.595459,1112.148560 2093.182129,1120.510254 2094.460938,1130.237793 
	C2094.677002,1131.881470 2096.825684,1133.270996 2098.173828,1135.935303 
	C2079.228516,1155.470337 2056.426025,1167.825928 2031.841309,1176.573608 
	C2008.597412,1184.844238 1985.525757,1193.143066 1964.571289,1206.481567 
	C1960.116333,1209.317505 1955.240112,1212.552246 1950.225830,1213.264526 
	C1929.023438,1216.276123 1908.525757,1223.678589 1886.277222,1220.367676 
	C1866.031738,1217.354736 1852.236450,1207.584961 1843.555420,1189.591675 
	C1839.953003,1182.125000 1837.056030,1174.167847 1832.443481,1167.381714 
	C1828.005127,1160.851929 1821.680420,1155.622681 1816.349487,1149.674316 
	C1813.001343,1145.938232 1809.046753,1143.684204 1804.040039,1144.437134 
	C1792.567993,1146.162598 1783.539551,1139.820068 1773.996704,1135.413452 
	C1772.107666,1134.541138 1770.459717,1131.512817 1770.105835,1129.258057 
	C1769.077759,1122.709717 1768.273804,1116.051147 1768.249023,1109.432617 
	C1768.088257,1066.458374 1768.564209,1023.478333 1768.019653,980.510376 
	C1767.605591,947.850952 1769.310059,915.344604 1772.270386,882.865723 
	C1773.204468,872.615967 1774.355103,862.385864 1775.942139,851.669250 
	C1789.143555,844.111938 1800.478760,834.735291 1814.916626,830.735413 
	C1836.450439,824.769653 1853.562622,810.356689 1872.441895,799.336304 
	C1874.113403,798.360596 1875.398438,796.663940 1876.738281,795.188843 
	C1885.890991,785.112061 1895.036377,775.028381 1904.130859,764.899048 
	C1910.000366,758.361572 1915.779297,751.742676 1922.924194,743.661133 
	C1916.954224,743.661133 1913.066772,743.661133 1909.179443,743.661133 
	C1603.038208,743.661133 1296.897095,743.662964 990.755920,743.640930 
	C986.776917,743.640686 982.797913,743.337219 978.818909,743.175232 
	C982.069824,742.855042 985.320618,742.254822 988.571594,742.254333 
	C1297.135620,742.211609 1605.699707,742.219055 1914.263794,742.212463 
	C2043.553101,742.209717 2172.842285,742.183472 2303.065918,742.083984 
	C2304.000000,742.000000 2304.000000,743.000000 2304.000000,743.500000 
z"/>
<path data-name="Eseka" style="fill: {#804553}" fill="#804553" opacity="1.000000" stroke="none" 
	d="
M1384.536621,2318.661133 
	C1349.277466,2308.819336 1314.685913,2299.244873 1280.169678,2289.405273 
	C1274.491577,2287.786621 1269.329712,2287.593262 1263.633667,2289.442627 
	C1243.719360,2295.906494 1223.671021,2301.957275 1202.881348,2308.177734 
	C1186.352051,2278.496826 1170.558594,2248.833008 1154.915405,2219.090088 
	C1150.737427,2211.146484 1147.234741,2202.846924 1143.042725,2194.911133 
	C1135.280640,2180.217285 1127.179810,2165.702881 1119.364380,2151.036621 
	C1117.845581,2148.186523 1115.887939,2144.931396 1116.036621,2141.958252 
	C1116.402954,2134.633057 1114.553711,2128.266846 1110.957153,2122.023926 
	C1109.347290,2119.229492 1108.399780,2115.862061 1107.932129,2112.641357 
	C1106.980103,2106.086914 1106.296021,2099.466309 1106.032471,2092.851562 
	C1105.907471,2089.717285 1107.003784,2086.534668 1107.530518,2083.468262 
	C1118.221924,2084.262695 1119.682739,2083.175293 1121.642944,2073.643799 
	C1122.282959,2070.531982 1122.883301,2067.411865 1123.941528,2062.080566 
	C1132.024414,2071.614502 1132.150269,2083.002441 1138.352783,2089.331543 
	C1146.268799,2088.153320 1153.001099,2087.155029 1159.732300,2086.148438 
	C1164.983398,2085.363281 1168.801392,2083.452393 1170.494263,2077.523926 
	C1172.389282,2070.888428 1176.135254,2064.791992 1178.173584,2058.182861 
	C1179.376343,2054.282959 1180.185791,2049.302490 1178.773682,2045.765503 
	C1176.229858,2039.393677 1176.816528,2033.502563 1178.257812,2027.341064 
	C1179.241089,2023.138428 1180.649658,2019.019531 1181.377808,2014.779053 
	C1181.802246,2012.307617 1182.300659,2008.749878 1180.981812,2007.259644 
	C1173.328003,1998.612061 1173.818115,1988.308716 1174.449585,1978.075684 
	C1175.308594,1964.159790 1176.578125,1950.262695 1177.982788,1936.389160 
	C1178.783691,1928.479004 1179.908203,1920.573120 1181.447021,1912.775879 
	C1182.491577,1907.482544 1182.159424,1903.374268 1177.951416,1899.238525 
	C1174.042480,1895.396729 1171.340576,1890.326904 1169.270264,1884.175415 
	C1171.625854,1884.735474 1174.003540,1885.217041 1176.332764,1885.870972 
	C1182.153442,1887.505249 1187.793213,1888.317261 1193.953735,1886.593506 
	C1198.290039,1885.380005 1203.179321,1885.741943 1207.788940,1885.996216 
	C1215.557495,1886.424805 1220.859619,1883.654053 1224.932251,1876.684326 
	C1244.058228,1843.952881 1264.535034,1811.985718 1280.123779,1777.288696 
	C1283.299805,1770.219482 1287.925293,1764.734741 1294.429077,1759.919800 
	C1299.981689,1755.808838 1304.758301,1749.182739 1307.207764,1742.665527 
	C1311.736572,1730.616577 1314.310913,1717.832764 1317.834106,1703.772949 
	C1326.815674,1664.655884 1330.289185,1626.359253 1334.034546,1588.108765 
	C1335.268311,1575.510742 1336.448364,1563.057617 1344.677368,1552.504272 
	C1346.868530,1549.694336 1348.068237,1546.054199 1349.458374,1542.686035 
	C1358.485840,1520.812378 1355.488525,1521.635376 1381.820435,1522.165283 
	C1384.531738,1524.571777 1386.568481,1526.721680 1388.713135,1528.985718 
	C1387.945068,1532.027222 1383.176147,1536.159790 1388.869995,1537.872437 
	C1398.106812,1540.650879 1405.552979,1549.377563 1415.281372,1546.199829 
	C1418.642700,1550.991699 1421.492798,1555.054932 1424.805054,1559.777222 
	C1424.720947,1560.714478 1424.528076,1562.861572 1424.302246,1565.376221 
	C1429.636719,1567.628296 1434.386230,1570.112183 1439.424194,1571.653687 
	C1448.070679,1574.299316 1456.418945,1575.051025 1465.611938,1571.492432 
	C1472.713013,1568.743652 1481.350952,1568.280273 1489.030396,1569.171875 
	C1497.190063,1570.119019 1504.860107,1569.906494 1512.685303,1567.940186 
	C1518.475342,1566.485229 1524.292358,1565.113281 1530.142212,1563.925537 
	C1538.375732,1562.254150 1543.602417,1555.976196 1549.639526,1551.085327 
	C1551.270630,1549.763794 1551.626465,1546.288208 1551.730347,1543.766724 
	C1552.087280,1535.117676 1551.862793,1526.442993 1552.286255,1517.798950 
	C1552.504883,1513.334106 1553.622314,1508.913330 1554.479492,1503.562500 
	C1558.660767,1504.707275 1561.423340,1505.668091 1564.266357,1506.201294 
	C1571.094849,1507.481689 1577.967529,1509.571533 1584.810669,1509.526978 
	C1603.091431,1509.408203 1621.366089,1508.338013 1639.722168,1508.518311 
	C1640.131714,1512.663574 1639.406128,1516.637085 1641.014771,1519.062378 
	C1644.260132,1523.955078 1643.757080,1529.054565 1644.182007,1534.296143 
	C1644.872437,1542.812256 1645.089600,1551.563721 1647.341064,1559.708740 
	C1650.496582,1571.124146 1655.431274,1582.040039 1659.392334,1593.244873 
	C1660.536865,1596.482666 1661.490601,1599.141968 1665.317383,1600.444580 
	C1667.266724,1601.108032 1669.398560,1603.911011 1669.783936,1606.046997 
	C1671.866577,1617.592163 1660.546143,1635.841675 1648.896484,1636.896240 
	C1638.960571,1637.795410 1634.998535,1643.585083 1631.940674,1650.771484 
	C1629.007690,1657.663696 1627.567993,1665.191040 1625.472168,1672.439331 
	C1621.429688,1677.953979 1615.050781,1675.398926 1609.405884,1676.823608 
	C1607.748413,1685.573730 1605.472778,1694.229736 1604.624878,1703.023315 
	C1603.802490,1711.553711 1604.446533,1720.225708 1604.446533,1729.360352 
	C1606.305664,1730.460327 1608.549805,1731.787842 1610.297363,1732.821777 
	C1611.092285,1737.734985 1611.821655,1742.243286 1612.652222,1747.377319 
	C1609.346558,1749.988647 1605.803833,1752.787354 1601.610352,1756.100098 
	C1609.667847,1764.374512 1608.357544,1772.162598 1600.909180,1779.538330 
	C1597.204956,1783.206421 1597.591064,1787.301880 1600.022095,1791.375122 
	C1601.714355,1794.210327 1603.735596,1796.849243 1605.855713,1799.933350 
	C1604.009644,1806.583496 1600.044189,1810.152832 1592.419800,1810.168701 
	C1587.570679,1810.178833 1582.724854,1811.789795 1578.066284,1812.648071 
	C1574.239746,1819.567261 1570.896851,1826.464722 1566.744751,1832.834839 
	C1563.724854,1837.467773 1563.875610,1841.384644 1566.939575,1845.583374 
	C1568.312256,1847.463989 1569.330200,1850.029053 1571.187744,1851.055542 
	C1578.649292,1855.178833 1580.326294,1862.908081 1583.621094,1869.663940 
	C1593.236450,1889.379761 1602.618896,1909.214844 1612.578979,1928.755127 
	C1620.582153,1944.456177 1629.288940,1959.798706 1637.696411,1975.293335 
	C1639.281006,1978.213623 1640.368042,1981.674194 1642.649170,1983.894897 
	C1649.222046,1990.293945 1649.830933,1998.167114 1650.347534,2006.651733 
	C1651.920288,2032.489258 1651.190186,2058.570068 1657.613403,2083.953857 
	C1658.681885,2088.176758 1657.495239,2091.577148 1654.804932,2095.002686 
	C1645.576294,2106.753174 1637.173950,2119.048340 1625.229370,2128.592773 
	C1617.521240,2134.752197 1611.355103,2142.841309 1604.377319,2150.192383 
	C1608.650269,2169.186279 1608.735596,2188.889893 1620.107544,2205.916260 
	C1605.755859,2222.040527 1591.541992,2238.010010 1576.528320,2254.878174 
	C1574.576904,2253.320557 1572.408081,2251.551025 1570.199097,2249.833008 
	C1563.393555,2244.539307 1556.692627,2239.097656 1549.689209,2234.078857 
	C1547.367920,2232.415039 1544.331177,2231.283691 1541.487183,2230.896729 
	C1529.254028,2229.232666 1527.944824,2230.034668 1521.817993,2240.985596 
	C1521.655518,2241.276367 1521.455933,2241.553955 1521.342041,2241.863037 
	C1517.358643,2252.661865 1509.835327,2259.485596 1498.480469,2261.632568 
	C1491.325806,2262.985596 1488.743286,2267.827393 1485.975098,2274.030518 
	C1477.850586,2292.236816 1468.986328,2310.132568 1459.771729,2327.816162 
	C1457.991089,2331.233398 1453.119995,2332.931396 1450.002930,2335.781494 
	C1438.500732,2346.297607 1426.259277,2340.533203 1414.211670,2337.456787 
	C1412.542969,2337.031006 1411.101440,2335.078613 1409.910034,2333.554932 
	C1407.661255,2330.679199 1405.671143,2327.601318 1403.380981,2324.332764 
	C1396.498779,2325.276611 1390.146973,2324.252930 1384.536621,2318.661133 
z"/>
<path data-name="Biyouha" style="fill: {#58E576}" fill="#58E576" opacity="1.000000" stroke="none" 
	d="
M1381.145752,1521.908691 
	C1355.488525,1521.635376 1358.485840,1520.812378 1349.458374,1542.686035 
	C1348.068237,1546.054199 1346.868530,1549.694336 1344.677368,1552.504272 
	C1336.448364,1563.057617 1335.268311,1575.510742 1334.034546,1588.108765 
	C1330.289185,1626.359253 1326.815674,1664.655884 1317.768555,1702.958740 
	C1302.296143,1710.284912 1286.942383,1716.660645 1271.770386,1723.443237 
	C1248.193115,1733.983032 1223.287842,1739.605835 1197.997559,1743.815063 
	C1183.578369,1746.215210 1169.107422,1747.656372 1154.423828,1748.317261 
	C1136.891846,1749.106323 1121.815063,1743.013916 1106.836548,1735.839355 
	C1082.533203,1724.198120 1058.495117,1712.004517 1034.251099,1700.237305 
	C1030.724854,1698.525757 1026.749878,1697.437256 1022.862061,1696.824219 
	C1006.118042,1694.184082 989.329041,1691.828735 971.814453,1689.052734 
	C972.033875,1687.847534 972.916626,1686.850708 973.969299,1686.088501 
	C982.058777,1680.230957 982.624023,1680.051636 979.467896,1670.991333 
	C976.050964,1661.182129 977.798218,1651.619263 978.721741,1641.362671 
	C981.975342,1640.399780 986.824280,1643.128540 988.378723,1637.681641 
	C989.323547,1634.370850 990.948059,1631.254028 992.800110,1626.755737 
	C1002.606323,1624.404175 1013.726929,1621.818359 1026.356445,1624.815674 
	C1028.027588,1626.141846 1028.715820,1626.549927 1029.404053,1626.958008 
	C1028.958374,1625.954468 1028.512817,1624.950806 1028.067139,1623.947266 
	C1026.087524,1620.324219 1024.107910,1616.701050 1021.515137,1611.955933 
	C1025.057861,1611.050415 1028.030640,1610.290649 1031.429565,1609.421997 
	C1032.826904,1616.135620 1030.993286,1623.574341 1038.102783,1627.427979 
	C1038.665894,1627.266235 1039.404541,1627.276489 1039.765015,1626.912354 
	C1048.812622,1617.769043 1048.799683,1617.771118 1038.243896,1610.861694 
	C1035.758057,1609.234497 1033.326538,1607.524414 1031.061523,1604.876709 
	C1037.904541,1597.702759 1046.785156,1593.159668 1046.480835,1582.605835 
	C1050.117676,1581.795288 1053.701904,1581.984497 1055.632690,1580.289917 
	C1057.587402,1578.574219 1057.906372,1574.994873 1058.941895,1572.231934 
	C1059.262573,1572.145630 1059.601807,1571.942871 1059.901367,1571.990356 
	C1066.010864,1572.961548 1070.837769,1581.159180 1078.259277,1575.259644 
	C1078.506226,1575.063232 1079.785278,1576.511475 1080.699219,1576.751587 
	C1086.507568,1578.277466 1092.134888,1579.579102 1097.750610,1575.432983 
	C1103.673340,1571.060181 1105.130005,1565.845215 1102.381592,1560.196167 
	C1116.964233,1546.785522 1133.483154,1536.841553 1144.472778,1520.728271 
	C1146.035156,1522.733765 1147.079956,1524.074951 1148.299072,1525.640015 
	C1152.662964,1521.177002 1155.046631,1515.378662 1160.806763,1516.785889 
	C1166.174316,1509.864014 1153.225464,1509.055298 1157.425293,1502.793091 
	C1167.113281,1503.371704 1165.073364,1513.345825 1170.076782,1518.415405 
	C1172.850586,1517.273193 1175.543457,1516.126953 1178.265259,1515.053955 
	C1180.949951,1513.995850 1183.650879,1512.207642 1186.367798,1512.163330 
	C1192.043213,1512.070679 1194.348999,1509.176880 1196.340698,1504.287354 
	C1200.710938,1493.560181 1208.324097,1484.623169 1217.848755,1478.771118 
	C1224.388062,1474.753174 1229.424683,1469.189453 1235.801758,1465.194214 
	C1237.912720,1463.871704 1239.026123,1460.956909 1240.940552,1458.289551 
	C1244.448853,1461.317627 1248.235229,1464.585693 1252.294189,1468.088989 
	C1255.283203,1457.491455 1257.873901,1448.306519 1260.424316,1439.264160 
	C1262.783447,1439.289917 1266.399048,1438.150269 1267.905884,1436.607178 
	C1270.415649,1434.036743 1272.150513,1435.432129 1273.196655,1437.723633 
	C1273.770508,1438.980225 1273.169678,1440.773071 1273.120483,1441.848145 
	C1288.593506,1441.233887 1303.777466,1440.630981 1318.552002,1440.044434 
	C1319.846069,1443.160645 1320.682007,1445.173340 1321.155273,1446.313110 
	C1325.911499,1446.581055 1330.653198,1445.456543 1333.439453,1447.295166 
	C1339.220947,1451.109985 1343.964478,1456.497803 1349.101318,1461.208252 
	C1357.277222,1460.219360 1357.277222,1460.219360 1360.740845,1468.992310 
	C1363.691650,1470.074341 1366.643921,1471.155762 1369.820557,1472.319580 
	C1362.248901,1482.132324 1356.802368,1491.463379 1363.296387,1503.550537 
	C1364.407471,1505.618774 1362.733887,1509.183105 1362.328735,1512.189697 
	C1367.304321,1512.572632 1370.040161,1504.881226 1375.909668,1509.100464 
	C1383.988159,1515.050903 1383.988159,1515.050903 1381.145752,1521.908691 
z"/>
<path data-name="Matomb" style="fill: {#363E8F}" fill="#363E8F" opacity="1.000000" stroke="none" 
	d="
M1626.335449,1672.806152 
	C1627.567993,1665.191040 1629.007690,1657.663696 1631.940674,1650.771484 
	C1634.998535,1643.585083 1638.960571,1637.795410 1648.896484,1636.896240 
	C1660.546143,1635.841675 1671.866577,1617.592163 1669.783936,1606.046997 
	C1669.398560,1603.911011 1667.266724,1601.108032 1665.317383,1600.444580 
	C1661.490601,1599.141968 1660.536865,1596.482666 1659.392334,1593.244873 
	C1655.431274,1582.040039 1650.496582,1571.124146 1647.341064,1559.708740 
	C1645.089600,1551.563721 1644.872437,1542.812256 1644.182007,1534.296143 
	C1643.757080,1529.054565 1644.260132,1523.955078 1641.014771,1519.062378 
	C1639.406128,1516.637085 1640.131714,1512.663574 1639.983643,1507.877075 
	C1645.733398,1492.733154 1654.555420,1485.387695 1670.614258,1486.044556 
	C1678.688477,1486.375122 1688.335571,1483.160278 1694.762085,1478.258545 
	C1700.291992,1474.040894 1705.580444,1471.236328 1711.970947,1469.637695 
	C1717.296387,1468.305420 1721.647583,1466.346313 1723.540039,1460.199707 
	C1724.628540,1456.663940 1727.670166,1453.502319 1730.410278,1450.746582 
	C1737.557617,1443.558960 1737.574951,1443.734985 1733.463379,1434.676392 
	C1730.911865,1429.055176 1726.916504,1423.707153 1729.077271,1415.915527 
	C1735.588379,1414.894409 1739.094482,1409.754883 1743.653687,1405.097656 
	C1748.142212,1400.512695 1749.637817,1396.102417 1750.871826,1390.756104 
	C1751.618286,1387.521973 1752.043701,1384.209351 1752.878174,1381.000854 
	C1754.177246,1376.006104 1757.463135,1373.010864 1762.624268,1372.270508 
	C1765.256592,1371.892944 1767.906494,1371.611084 1770.557373,1371.395386 
	C1779.457886,1370.671021 1786.087524,1366.578369 1790.974365,1358.964111 
	C1794.364258,1353.682251 1798.688477,1348.999756 1803.267334,1344.196533 
	C1807.432617,1346.140869 1810.925903,1347.938477 1814.483887,1349.769287 
	C1829.208496,1343.487915 1844.690186,1340.690308 1859.567261,1340.415405 
	C1868.967529,1333.767822 1877.811523,1327.513672 1887.118286,1320.932373 
	C1893.057495,1328.196045 1900.645508,1328.180176 1908.326294,1328.076782 
	C1910.611694,1328.046143 1913.036011,1328.283447 1915.174438,1329.032593 
	C1929.340698,1333.994751 1935.213501,1330.015137 1935.792358,1314.936279 
	C1935.840820,1313.674561 1936.369629,1312.431274 1937.020874,1309.763306 
	C1947.546021,1307.233276 1958.368286,1304.413940 1969.289917,1302.053711 
	C1989.722412,1297.637451 2010.080322,1292.879395 2029.220703,1284.323853 
	C2034.952637,1281.761719 2038.685303,1282.127686 2043.503906,1286.076416 
	C2053.463623,1294.237915 2064.561279,1299.243896 2078.210449,1298.558960 
	C2087.004150,1298.117554 2096.268066,1299.171021 2104.724854,1301.616577 
	C2119.696777,1305.946045 2132.703125,1314.861572 2146.361572,1322.197876 
	C2145.759033,1324.430054 2145.473145,1326.812256 2144.499512,1328.868774 
	C2139.979004,1338.415649 2135.322998,1347.899902 2130.580811,1357.338867 
	C2129.556885,1359.376953 2127.890137,1361.081787 2126.673340,1363.035767 
	C2125.107910,1365.549194 2122.716553,1368.043701 2122.398193,1370.748535 
	C2121.278076,1380.254883 2120.534180,1389.841187 2120.357666,1399.410156 
	C2120.241943,1405.708130 2121.706055,1406.562622 2128.248291,1406.144897 
	C2132.879883,1405.849121 2137.513916,1405.454346 2142.115479,1404.859985 
	C2148.766602,1404.001343 2154.091309,1407.124023 2155.420166,1413.625977 
	C2157.121582,1421.950195 2159.364014,1430.047241 2154.518555,1438.661743 
	C2151.563477,1443.915894 2150.632568,1450.715210 2150.296631,1456.902222 
	C2150.044434,1461.539795 2152.189941,1466.307739 2153.614014,1472.529419 
	C2152.665039,1473.656616 2151.156494,1476.412964 2148.849365,1478.027832 
	C2136.486328,1486.681030 2126.380859,1498.912231 2110.604736,1502.284912 
	C2109.042480,1502.618896 2107.092773,1504.548218 2106.653076,1506.111328 
	C2105.097900,1511.639771 2101.143555,1513.932007 2096.197510,1515.780884 
	C2089.102539,1518.432861 2088.819092,1520.053101 2092.144287,1526.729858 
	C2093.739014,1529.932129 2094.144287,1533.761719 2095.905029,1536.840088 
	C2101.050293,1545.835571 2103.822266,1556.119385 2109.647217,1564.501343 
	C2112.256348,1568.255493 2114.125488,1571.162598 2114.324219,1575.678345 
	C2114.552490,1580.858154 2112.228027,1583.173584 2107.763916,1585.399414 
	C2101.030762,1588.756470 2097.128418,1601.867554 2099.539062,1611.900513 
	C2102.808105,1611.556885 2107.650391,1612.502563 2109.444092,1610.589722 
	C2115.099365,1604.558594 2122.001221,1604.596313 2128.509033,1606.066162 
	C2137.541748,1608.106079 2146.190918,1605.211548 2155.077393,1605.732788 
	C2162.359619,1606.159790 2168.715820,1607.242065 2174.447266,1612.048096 
	C2176.856689,1614.068604 2180.298828,1614.858032 2183.248291,1616.196655 
	C2189.896240,1611.487061 2195.098633,1606.653931 2194.795410,1597.792358 
	C2202.270996,1596.821045 2209.302246,1595.907349 2217.220703,1594.878296 
	C2221.087158,1596.225708 2223.698242,1599.553955 2225.241211,1604.370117 
	C2229.614746,1618.024170 2234.983398,1631.288086 2243.660156,1642.876587 
	C2247.344238,1647.797241 2246.069580,1652.769165 2243.342285,1656.831543 
	C2238.764160,1663.650635 2240.935547,1669.118042 2244.802979,1674.970093 
	C2252.509521,1686.631592 2259.845703,1698.542480 2267.739746,1710.073242 
	C2271.135986,1715.034058 2273.005127,1720.022461 2271.994873,1725.948730 
	C2270.906250,1732.332031 2273.228271,1737.757568 2276.731445,1742.792725 
	C2283.475098,1752.485107 2283.045654,1756.947021 2274.401611,1764.596191 
	C2273.404785,1765.478149 2272.366943,1766.314209 2270.703857,1766.712280 
	C2266.954346,1753.441162 2256.759766,1745.969360 2248.075928,1737.425781 
	C2246.905762,1736.274414 2244.318359,1736.031494 2242.467041,1736.207275 
	C2237.524414,1736.676636 2232.317871,1736.808594 2227.789795,1738.558716 
	C2222.670654,1740.537598 2216.317139,1743.015747 2213.776367,1747.244873 
	C2207.501221,1757.690186 2198.670166,1763.566040 2187.660156,1767.310181 
	C2184.856689,1768.263550 2182.008545,1769.605469 2179.724609,1771.444214 
	C2176.170166,1774.305542 2172.582764,1774.454102 2168.501709,1773.233398 
	C2158.007812,1770.093994 2147.448486,1767.169189 2136.987305,1763.926880 
	C2132.773926,1762.621094 2128.902588,1761.652954 2124.452393,1763.481079 
	C2114.474609,1767.579956 2105.008545,1766.646118 2096.567383,1759.376587 
	C2096.156006,1759.022339 2095.321289,1759.159790 2092.747070,1758.790527 
	C2090.269531,1761.685181 2087.309082,1765.750732 2083.736572,1769.178101 
	C2078.140137,1774.546997 2073.207520,1775.440430 2067.829590,1770.302734 
	C2055.975586,1758.978027 2040.304932,1755.797852 2026.177368,1749.447266 
	C2014.480347,1744.189453 2007.275024,1747.977783 2003.201172,1759.931885 
	C2002.356201,1762.411255 2002.324219,1765.155640 2001.659546,1767.710815 
	C1999.877197,1774.563721 1994.906982,1779.130493 1988.419067,1779.595459 
	C1979.240601,1780.253296 1969.892212,1779.315674 1960.679321,1778.416138 
	C1955.514404,1777.911865 1951.084473,1778.305786 1946.367676,1780.876343 
	C1935.808472,1786.630615 1924.538818,1790.194458 1912.242432,1790.025269 
	C1903.029907,1789.898438 1894.507324,1787.696167 1886.499390,1783.248291 
	C1876.010864,1777.422729 1865.927490,1777.270386 1855.872803,1784.640991 
	C1852.756226,1786.925415 1848.713379,1788.128418 1844.920532,1789.222656 
	C1843.314941,1789.685791 1840.576538,1789.231201 1839.517700,1788.101929 
	C1831.384277,1779.426880 1820.442749,1773.075928 1815.787109,1761.494873 
	C1808.947510,1744.480957 1794.500732,1739.444458 1778.436523,1738.066895 
	C1767.561279,1737.134277 1756.494995,1738.430542 1745.514160,1738.729858 
	C1743.825806,1733.866821 1742.137451,1729.003784 1740.289185,1723.680054 
	C1742.479980,1722.143921 1744.568359,1720.679688 1746.963135,1719.000488 
	C1745.519287,1714.193970 1744.045898,1709.288818 1742.600586,1704.477173 
	C1729.512329,1707.135010 1723.794067,1702.961792 1724.524414,1690.781738 
	C1724.923828,1684.120361 1722.549316,1680.040649 1717.221558,1676.657715 
	C1709.120483,1678.931519 1700.822021,1681.064453 1692.648682,1683.601196 
	C1680.524780,1687.364380 1668.438232,1686.729858 1656.328369,1683.827881 
	C1654.427368,1683.372559 1652.138794,1682.795166 1650.935181,1681.458496 
	C1644.475830,1674.285034 1635.819702,1673.874146 1626.335449,1672.806152 
z"/>
<path data-name="Bondjock" style="fill: {#5194A8}" fill="#5194A8" opacity="1.000000" stroke="none" 
	d="
M1745.741089,1739.352417 
	C1756.494995,1738.430542 1767.561279,1737.134277 1778.436523,1738.066895 
	C1794.500732,1739.444458 1808.947510,1744.480957 1815.787109,1761.494873 
	C1820.442749,1773.075928 1831.384277,1779.426880 1839.517700,1788.101929 
	C1840.576538,1789.231201 1843.314941,1789.685791 1844.920532,1789.222656 
	C1848.713379,1788.128418 1852.756226,1786.925415 1855.872803,1784.640991 
	C1865.927490,1777.270386 1876.010864,1777.422729 1886.499390,1783.248291 
	C1894.507324,1787.696167 1903.029907,1789.898438 1912.242432,1790.025269 
	C1924.538818,1790.194458 1935.808472,1786.630615 1946.367676,1780.876343 
	C1951.084473,1778.305786 1955.514404,1777.911865 1960.679321,1778.416138 
	C1969.892212,1779.315674 1979.240601,1780.253296 1988.419067,1779.595459 
	C1994.906982,1779.130493 1999.877197,1774.563721 2001.659546,1767.710815 
	C2002.324219,1765.155640 2002.356201,1762.411255 2003.201172,1759.931885 
	C2007.275024,1747.977783 2014.480347,1744.189453 2026.177368,1749.447266 
	C2040.304932,1755.797852 2055.975586,1758.978027 2067.829590,1770.302734 
	C2073.207520,1775.440430 2078.140137,1774.546997 2083.736572,1769.178101 
	C2087.309082,1765.750732 2090.269531,1761.685181 2092.747070,1758.790527 
	C2095.321289,1759.159790 2096.156006,1759.022339 2096.567383,1759.376587 
	C2105.008545,1766.646118 2114.474609,1767.579956 2124.452393,1763.481079 
	C2128.902588,1761.652954 2132.773926,1762.621094 2136.987305,1763.926880 
	C2147.448486,1767.169189 2158.007812,1770.093994 2168.501709,1773.233398 
	C2172.582764,1774.454102 2176.170166,1774.305542 2179.724609,1771.444214 
	C2182.008545,1769.605469 2184.856689,1768.263550 2187.660156,1767.310181 
	C2198.670166,1763.566040 2207.501221,1757.690186 2213.776367,1747.244873 
	C2216.317139,1743.015747 2222.670654,1740.537598 2227.789795,1738.558716 
	C2232.317871,1736.808594 2237.524414,1736.676636 2242.467041,1736.207275 
	C2244.318359,1736.031494 2246.905762,1736.274414 2248.075928,1737.425781 
	C2256.759766,1745.969360 2266.954346,1753.441162 2270.094482,1766.973633 
	C2266.633545,1771.442261 2269.612549,1773.800049 2272.219727,1775.708618 
	C2276.117920,1778.562500 2282.645020,1779.755615 2281.879639,1785.738281 
	C2281.351318,1789.867676 2277.520264,1793.518433 2275.427979,1797.520264 
	C2273.488525,1801.229614 2271.194824,1804.962646 2270.291504,1808.963867 
	C2267.969727,1819.247192 2266.291992,1829.677856 2264.457031,1840.067383 
	C2264.114502,1842.009155 2264.238525,1844.033325 2264.211426,1846.822998 
	C2261.535889,1850.021484 2258.654297,1852.273560 2256.079346,1854.834473 
	C2238.121338,1872.695801 2220.344238,1890.740479 2202.270264,1908.483276 
	C2190.395020,1920.141113 2178.675781,1932.064819 2165.866455,1942.633179 
	C2153.588623,1952.763428 2139.772949,1961.003906 2127.024658,1970.595093 
	C2099.628418,1991.205933 2067.994385,2003.781006 2037.449585,2018.415649 
	C2026.656250,2023.586792 2015.146973,2027.366333 2004.678833,2033.088013 
	C1990.276123,2040.960083 1974.661499,2043.425781 1958.905762,2045.795654 
	C1937.849487,2048.962891 1916.749023,2051.143799 1895.361694,2050.068604 
	C1886.937500,2049.645020 1880.445435,2047.136475 1874.038208,2041.282471 
	C1862.063477,2030.341553 1854.596313,2017.940063 1851.128540,2001.743774 
	C1847.160522,1983.211426 1843.610107,1964.735718 1841.898926,1945.884521 
	C1841.209351,1938.286987 1841.038330,1930.578613 1839.554199,1923.135498 
	C1838.143555,1916.060791 1836.001587,1908.958862 1833.012085,1902.401978 
	C1819.758911,1873.333008 1806.500854,1844.251343 1792.390259,1815.594727 
	C1785.212524,1801.017700 1776.491943,1787.168457 1767.976807,1773.292114 
	C1761.019287,1761.954102 1753.331787,1751.063843 1745.741089,1739.352417 
z"/>
<path data-name="Bot-Makak" style="fill: {#6E9159}" fill="#6E9159" opacity="1.000000" stroke="none" 
	d="
M2147.025635,1321.892090 
	C2132.703125,1314.861572 2119.696777,1305.946045 2104.724854,1301.616577 
	C2096.268066,1299.171021 2087.004150,1298.117554 2078.210449,1298.558960 
	C2064.561279,1299.243896 2053.463623,1294.237915 2043.503906,1286.076416 
	C2038.685303,1282.127686 2034.952637,1281.761719 2029.220703,1284.323853 
	C2010.080322,1292.879395 1989.722412,1297.637451 1969.289917,1302.053711 
	C1958.368286,1304.413940 1947.546021,1307.233276 1937.020874,1309.763306 
	C1936.369629,1312.431274 1935.840820,1313.674561 1935.792358,1314.936279 
	C1935.213501,1330.015137 1929.340698,1333.994751 1915.174438,1329.032593 
	C1913.036011,1328.283447 1910.611694,1328.046143 1908.326294,1328.076782 
	C1900.645508,1328.180176 1893.057495,1328.196045 1887.118286,1320.932373 
	C1877.811523,1327.513672 1868.967529,1333.767822 1859.567261,1340.415405 
	C1844.690186,1340.690308 1829.208496,1343.487915 1814.483887,1349.769287 
	C1810.925903,1347.938477 1807.432617,1346.140869 1802.534424,1343.927246 
	C1785.573364,1338.703247 1770.084839,1333.660034 1754.436890,1329.172607 
	C1744.552002,1326.337891 1734.535156,1323.553833 1724.383545,1322.171387 
	C1713.801392,1320.730225 1705.510620,1311.968262 1694.198853,1313.492920 
	C1693.357422,1313.606323 1692.265503,1312.916382 1691.493164,1312.331665 
	C1680.751953,1304.199219 1668.170898,1304.288818 1655.137573,1304.293335 
	C1652.978149,1301.232178 1650.525269,1298.090698 1648.444092,1294.719849 
	C1645.827393,1290.481567 1643.833252,1285.833618 1640.997070,1281.761841 
	C1636.673950,1275.555420 1634.284180,1275.156982 1627.565063,1278.269043 
	C1623.775513,1280.024292 1619.962769,1281.729492 1615.365967,1283.818115 
	C1613.529297,1277.916504 1612.084473,1273.274536 1610.595581,1268.490601 
	C1609.497314,1268.490601 1608.471191,1268.271973 1607.578003,1268.524048 
	C1597.339600,1271.414062 1587.940063,1270.497314 1579.589478,1263.162354 
	C1575.171753,1259.281860 1569.372070,1259.194214 1564.358643,1260.665405 
	C1558.406128,1262.411987 1554.092773,1261.561035 1550.896118,1256.413696 
	C1545.706543,1257.482544 1540.672852,1262.780029 1536.463867,1255.839233 
	C1537.697266,1247.577515 1537.178467,1246.446655 1532.349243,1246.805176 
	C1520.826538,1247.660522 1520.820557,1247.660889 1519.984863,1236.686646 
	C1519.883911,1235.359863 1520.109497,1233.972290 1519.807373,1232.702515 
	C1518.211914,1225.998291 1511.692993,1222.888794 1505.356567,1225.698608 
	C1503.979980,1226.308960 1502.570312,1226.844604 1501.145020,1227.427246 
	C1496.736206,1214.839844 1489.013672,1210.087402 1473.691895,1209.572754 
	C1470.340332,1205.407349 1467.259155,1201.877319 1464.212891,1198.387207 
	C1468.027710,1198.090454 1471.878052,1197.790894 1476.744141,1197.412354 
	C1475.246094,1189.886475 1473.980469,1183.528076 1472.732788,1177.259521 
	C1475.415161,1175.318237 1477.907593,1173.514404 1480.229248,1171.834106 
	C1477.144653,1164.755859 1471.002686,1164.486938 1464.098511,1163.110840 
	C1468.951294,1160.570190 1472.355835,1159.168335 1475.276733,1157.087646 
	C1476.607910,1156.139526 1477.835449,1153.686035 1477.551392,1152.216431 
	C1477.272095,1150.770874 1475.206177,1149.234009 1473.585815,1148.594604 
	C1471.544678,1147.788940 1469.160278,1147.853271 1466.442627,1147.475464 
	C1466.569336,1141.068848 1465.551880,1134.321533 1472.856445,1132.234131 
	C1481.761963,1129.689087 1485.021362,1123.141357 1487.990845,1115.539795 
	C1491.824829,1105.725464 1490.596313,1096.063721 1487.491943,1085.937622 
	C1496.056763,1083.038452 1494.659668,1076.973999 1495.194458,1069.946167 
	C1495.864014,1061.144653 1489.586060,1057.910767 1485.837402,1051.937378 
	C1491.345337,1046.963745 1493.721680,1041.376099 1490.493774,1034.174805 
	C1489.740723,1032.494873 1490.451660,1029.258179 1491.704468,1027.742188 
	C1496.128540,1022.389160 1491.513550,1017.617493 1491.047729,1012.665588 
	C1490.976196,1011.905273 1487.128540,1010.730286 1485.338501,1011.132568 
	C1483.758667,1011.487610 1482.613281,1013.777222 1481.146851,1015.351440 
	C1477.486572,1013.757446 1473.976807,1012.228943 1470.680054,1010.793213 
	C1472.753906,1004.608398 1474.969482,999.069397 1476.432617,993.338318 
	C1477.918579,987.518372 1475.637573,984.657776 1469.704346,984.061340 
	C1466.739502,983.763306 1463.502930,984.543152 1460.792114,983.634216 
	C1451.348145,980.467285 1443.222778,981.667786 1437.455688,989.170715 
	C1429.727051,987.993896 1422.882935,986.951782 1416.038940,985.909668 
	C1429.895386,977.464783 1431.010010,961.704773 1437.042114,948.496643 
	C1447.726440,947.046387 1458.194092,944.884705 1468.742554,944.365845 
	C1484.949951,943.568481 1500.089844,938.682373 1515.287354,933.904236 
	C1521.853638,931.839722 1528.078491,932.007385 1534.863403,932.762695 
	C1546.056396,934.008545 1557.430786,933.638489 1568.729858,933.900452 
	C1570.050171,933.931030 1571.410889,933.391479 1572.696655,933.555847 
	C1590.314331,935.807739 1606.087280,929.836853 1621.746338,922.936340 
	C1634.232178,917.434326 1647.141846,912.854553 1659.442871,906.984070 
	C1671.721680,901.124268 1684.570679,899.043396 1697.894775,897.879028 
	C1705.031128,897.255493 1712.350952,895.825012 1718.995483,893.237122 
	C1726.802368,890.196472 1733.304565,884.963440 1735.181519,875.831299 
	C1736.293945,870.418579 1740.312988,867.820679 1745.110352,865.712463 
	C1754.858398,861.428772 1764.437500,856.760681 1774.746460,852.198853 
	C1774.355103,862.385864 1773.204468,872.615967 1772.270386,882.865723 
	C1769.310059,915.344604 1767.605591,947.850952 1768.019653,980.510376 
	C1768.564209,1023.478333 1768.088257,1066.458374 1768.249023,1109.432617 
	C1768.273804,1116.051147 1769.077759,1122.709717 1770.105835,1129.258057 
	C1770.459717,1131.512817 1772.107666,1134.541138 1773.996704,1135.413452 
	C1783.539551,1139.820068 1792.567993,1146.162598 1804.040039,1144.437134 
	C1809.046753,1143.684204 1813.001343,1145.938232 1816.349487,1149.674316 
	C1821.680420,1155.622681 1828.005127,1160.851929 1832.443481,1167.381714 
	C1837.056030,1174.167847 1839.953003,1182.125000 1843.555420,1189.591675 
	C1852.236450,1207.584961 1866.031738,1217.354736 1886.277222,1220.367676 
	C1908.525757,1223.678589 1929.023438,1216.276123 1950.225830,1213.264526 
	C1955.240112,1212.552246 1960.116333,1209.317505 1964.571289,1206.481567 
	C1985.525757,1193.143066 2008.597412,1184.844238 2031.841309,1176.573608 
	C2056.426025,1167.825928 2079.228516,1155.470337 2098.694824,1136.504883 
	C2101.088867,1135.741455 2103.218506,1135.991699 2104.989746,1135.310425 
	C2110.340820,1133.252319 2115.156982,1136.035400 2117.100586,1139.485474 
	C2119.554688,1143.841675 2122.546875,1145.673340 2126.879150,1145.901001 
	C2128.504883,1151.845947 2127.685791,1158.124878 2134.682861,1160.649658 
	C2136.145752,1161.177734 2136.692383,1165.748901 2136.702637,1168.460449 
	C2136.719482,1172.976074 2134.188965,1178.538086 2138.985840,1181.262573 
	C2143.989502,1184.104370 2147.260742,1178.728149 2150.883301,1176.141846 
	C2152.761963,1174.800781 2154.178711,1172.791626 2156.098145,1171.532104 
	C2161.798340,1167.792358 2165.688965,1169.294189 2168.429688,1175.550171 
	C2170.403809,1180.055542 2172.975098,1184.296997 2175.211914,1188.690918 
	C2176.106201,1190.447510 2177.673096,1192.401367 2177.468018,1194.087036 
	C2176.422852,1202.672119 2180.738281,1210.929688 2178.522461,1219.671875 
	C2177.771729,1222.632935 2179.565918,1226.238892 2180.333496,1230.265259 
	C2184.545410,1228.402100 2187.337891,1227.166992 2190.718506,1225.671753 
	C2191.839844,1228.772705 2193.422119,1231.179443 2193.466797,1233.614258 
	C2193.653076,1243.798706 2199.838867,1251.508301 2203.554932,1260.267822 
	C2205.810059,1265.583740 2206.667725,1271.570923 2207.549805,1277.348755 
	C2207.864258,1279.406494 2207.088867,1282.534790 2205.624023,1283.798950 
	C2200.226807,1288.456177 2201.272217,1293.998413 2201.491211,1300.107300 
	C2201.795410,1308.598877 2201.272461,1317.064575 2201.998779,1325.643799 
	C2202.974121,1337.166626 2195.854736,1341.970337 2184.866455,1338.684570 
	C2174.241455,1335.507446 2164.188965,1331.411133 2157.278564,1322.078491 
	C2154.281006,1318.030151 2151.000244,1319.522705 2147.025635,1321.892090 
z"/>
<path data-name="Dibang" style="fill: {#E2965B}" fill="#E2965B" opacity="1.000000" stroke="none" 
	d="
M1415.396118,986.189392 
	C1422.882935,986.951782 1429.727051,987.993896 1437.455688,989.170715 
	C1443.222778,981.667786 1451.348145,980.467285 1460.792114,983.634216 
	C1463.502930,984.543152 1466.739502,983.763306 1469.704346,984.061340 
	C1475.637573,984.657776 1477.918579,987.518372 1476.432617,993.338318 
	C1474.969482,999.069397 1472.753906,1004.608398 1470.680054,1010.793213 
	C1473.976807,1012.228943 1477.486572,1013.757446 1481.146851,1015.351440 
	C1482.613281,1013.777222 1483.758667,1011.487610 1485.338501,1011.132568 
	C1487.128540,1010.730286 1490.976196,1011.905273 1491.047729,1012.665588 
	C1491.513550,1017.617493 1496.128540,1022.389160 1491.704468,1027.742188 
	C1490.451660,1029.258179 1489.740723,1032.494873 1490.493774,1034.174805 
	C1493.721680,1041.376099 1491.345337,1046.963745 1485.837402,1051.937378 
	C1489.586060,1057.910767 1495.864014,1061.144653 1495.194458,1069.946167 
	C1494.659668,1076.973999 1496.056763,1083.038452 1487.491943,1085.937622 
	C1490.596313,1096.063721 1491.824829,1105.725464 1487.990845,1115.539795 
	C1485.021362,1123.141357 1481.761963,1129.689087 1472.856445,1132.234131 
	C1465.551880,1134.321533 1466.569336,1141.068848 1466.442627,1147.475464 
	C1469.160278,1147.853271 1471.544678,1147.788940 1473.585815,1148.594604 
	C1475.206177,1149.234009 1477.272095,1150.770874 1477.551392,1152.216431 
	C1477.835449,1153.686035 1476.607910,1156.139526 1475.276733,1157.087646 
	C1472.355835,1159.168335 1468.951294,1160.570190 1464.098511,1163.110840 
	C1471.002686,1164.486938 1477.144653,1164.755859 1480.229248,1171.834106 
	C1477.907593,1173.514404 1475.415161,1175.318237 1472.732788,1177.259521 
	C1473.980469,1183.528076 1475.246094,1189.886475 1476.744141,1197.412354 
	C1471.878052,1197.790894 1468.027710,1198.090454 1464.212891,1198.387207 
	C1467.259155,1201.877319 1470.340332,1205.407349 1473.422729,1210.174072 
	C1467.219604,1221.565918 1459.559937,1228.816528 1446.309937,1228.221436 
	C1439.809570,1227.929565 1432.851685,1228.835938 1426.729736,1230.988281 
	C1414.197388,1235.394775 1401.480713,1236.255493 1388.422729,1236.145142 
	C1383.709229,1236.105225 1378.981689,1237.749268 1374.168701,1238.641968 
	C1374.951904,1249.949951 1374.613647,1260.045410 1376.531250,1269.692505 
	C1380.764282,1290.988525 1381.598999,1312.443726 1382.022461,1334.014893 
	C1382.230469,1344.612305 1383.193848,1355.195801 1383.854004,1365.783203 
	C1384.508423,1376.276245 1387.874512,1386.727539 1383.982788,1397.271973 
	C1379.295654,1409.970825 1381.981323,1422.509644 1384.564697,1435.204712 
	C1387.798706,1451.096680 1387.015137,1467.108398 1381.392090,1482.314941 
	C1378.222290,1490.887329 1377.122192,1499.603882 1375.811646,1508.416138 
	C1370.040161,1504.881226 1367.304321,1512.572632 1362.328735,1512.189697 
	C1362.733887,1509.183105 1364.407471,1505.618774 1363.296387,1503.550537 
	C1356.802368,1491.463379 1362.248901,1482.132324 1369.820557,1472.319580 
	C1366.643921,1471.155762 1363.691650,1470.074341 1360.740845,1468.992310 
	C1357.277222,1460.219360 1357.277222,1460.219360 1349.101318,1461.208252 
	C1343.964478,1456.497803 1339.220947,1451.109985 1333.439453,1447.295166 
	C1330.653198,1445.456543 1325.911499,1446.581055 1321.155273,1446.313110 
	C1320.682007,1445.173340 1319.846069,1443.160645 1318.552002,1440.044434 
	C1303.777466,1440.630981 1288.593506,1441.233887 1273.120483,1441.848145 
	C1273.169678,1440.773071 1273.770508,1438.980225 1273.196655,1437.723633 
	C1272.150513,1435.432129 1270.415649,1434.036743 1267.905884,1436.607178 
	C1266.399048,1438.150269 1262.783447,1439.289917 1260.424316,1439.264160 
	C1257.873901,1448.306519 1255.283203,1457.491455 1252.294189,1468.088989 
	C1248.235229,1464.585693 1244.448853,1461.317627 1240.940552,1458.289551 
	C1239.026123,1460.956909 1237.912720,1463.871704 1235.801758,1465.194214 
	C1229.424683,1469.189453 1224.388062,1474.753174 1217.848755,1478.771118 
	C1208.324097,1484.623169 1200.710938,1493.560181 1196.340698,1504.287354 
	C1194.348999,1509.176880 1192.043213,1512.070679 1186.367798,1512.163330 
	C1183.650879,1512.207642 1180.949951,1513.995850 1178.265259,1515.053955 
	C1175.543457,1516.126953 1172.850586,1517.273193 1170.076782,1518.415405 
	C1165.073364,1513.345825 1167.113281,1503.371704 1157.425293,1502.793091 
	C1153.225464,1509.055298 1166.174316,1509.864014 1160.806763,1516.785889 
	C1155.046631,1515.378662 1152.662964,1521.177002 1148.299072,1525.640015 
	C1147.079956,1524.074951 1146.035156,1522.733765 1144.472778,1520.728271 
	C1133.483154,1536.841553 1116.964233,1546.785522 1102.381592,1560.196167 
	C1105.130005,1565.845215 1103.673340,1571.060181 1097.750610,1575.432983 
	C1092.134888,1579.579102 1086.507568,1578.277466 1080.699219,1576.751587 
	C1079.785278,1576.511475 1078.506226,1575.063232 1078.259277,1575.259644 
	C1070.837769,1581.159180 1066.010864,1572.961548 1059.901367,1571.990356 
	C1059.601807,1571.942871 1059.262573,1572.145630 1058.941895,1572.231934 
	C1057.906372,1574.994873 1057.587402,1578.574219 1055.632690,1580.289917 
	C1053.701904,1581.984497 1050.117676,1581.795288 1046.480835,1582.605835 
	C1046.785156,1593.159668 1037.904541,1597.702759 1030.710449,1604.343018 
	C1028.771851,1602.241821 1026.810425,1599.844849 1026.106445,1597.122559 
	C1024.898438,1592.452148 1024.475952,1587.578613 1023.511475,1581.439453 
	C1028.510376,1576.396729 1028.808228,1569.130127 1025.998535,1561.460449 
	C1024.468262,1557.283203 1025.595215,1554.009521 1028.251221,1550.459595 
	C1034.019287,1542.750366 1039.243042,1534.633789 1044.893555,1526.385620 
	C1048.490845,1529.817627 1051.828369,1533.001953 1056.120117,1537.096436 
	C1059.115967,1533.360352 1061.899414,1529.889160 1064.969971,1526.060059 
	C1066.911133,1526.436279 1069.064087,1526.853638 1071.852539,1527.394043 
	C1069.905273,1518.496704 1077.017090,1507.597900 1063.219971,1502.850952 
	C1067.297729,1495.126831 1065.830322,1487.793701 1064.397827,1480.331665 
	C1063.086914,1473.503418 1062.527588,1466.532959 1061.554199,1459.636963 
	C1060.615845,1452.990967 1059.111206,1446.636230 1053.265625,1442.240479 
	C1051.716431,1441.075562 1050.447021,1439.346436 1049.481689,1437.632812 
	C1046.435669,1432.225342 1042.738647,1426.870483 1047.811890,1420.494385 
	C1048.595947,1419.508911 1047.921387,1417.362793 1047.921387,1415.361450 
	C1046.125366,1414.846313 1044.615234,1414.332642 1043.067871,1413.985229 
	C1039.250977,1413.128174 1037.149536,1410.866943 1037.723145,1406.900757 
	C1039.484375,1394.720581 1035.187500,1384.048828 1029.741089,1373.623901 
	C1029.282104,1372.745361 1028.566284,1371.769287 1028.629761,1370.885986 
	C1029.203979,1362.903076 1024.445923,1358.131714 1018.129517,1354.348877 
	C1020.726624,1350.214111 1023.005371,1346.631592 1025.239258,1343.021362 
	C1032.294312,1331.619873 1032.169434,1319.534912 1027.319336,1307.670288 
	C1025.145752,1302.353516 1025.578613,1297.617920 1026.032715,1292.318970 
	C1027.073364,1280.173584 1027.439941,1267.970459 1028.147217,1254.518921 
	C1043.455322,1246.647583 1058.347656,1235.158936 1072.271240,1222.301514 
	C1073.762085,1220.924805 1076.420532,1220.564575 1078.612549,1220.240479 
	C1085.821289,1219.174316 1093.056641,1218.269897 1100.298462,1217.452148 
	C1103.522339,1217.088135 1106.827637,1216.667847 1110.024170,1216.988647 
	C1119.091064,1217.898804 1124.532104,1214.209351 1126.157104,1205.331909 
	C1126.870361,1201.435303 1126.888794,1197.396729 1127.781250,1193.552490 
	C1128.402100,1190.877930 1129.412720,1187.896240 1131.224243,1185.967896 
	C1137.563232,1179.219971 1138.223389,1172.542847 1132.638672,1165.024170 
	C1131.858521,1163.973999 1131.042358,1162.950317 1130.057007,1161.673584 
	C1134.369507,1157.068359 1139.876953,1153.249634 1142.298706,1148.005737 
	C1144.599487,1143.023560 1143.672974,1136.550903 1144.109375,1131.396851 
	C1136.210693,1127.176514 1129.583252,1123.635376 1121.921143,1119.541504 
	C1136.663086,1099.833496 1150.549561,1081.269165 1164.696899,1062.356201 
	C1167.662720,1063.838867 1170.189697,1065.315063 1172.881348,1066.371216 
	C1174.618530,1067.052734 1176.761719,1067.769409 1178.439331,1067.346313 
	C1185.512329,1065.562378 1192.635864,1063.775513 1199.454102,1061.223267 
	C1217.787476,1054.360229 1235.850586,1046.763672 1254.255371,1040.106079 
	C1270.690063,1034.161011 1282.359253,1022.957275 1291.371582,1008.608704 
	C1295.831665,1001.507629 1301.376953,997.981018 1310.104492,998.000366 
	C1323.025269,998.029053 1335.995361,997.289062 1348.851807,995.971436 
	C1355.707275,995.268860 1362.516724,993.091309 1369.073608,990.797974 
	C1375.303711,988.618774 1381.284058,988.323914 1387.489380,990.237610 
	C1388.441040,990.531067 1389.432983,990.709656 1390.361206,991.060425 
	C1399.431030,994.487000 1407.740356,993.940247 1415.396118,986.189392 
z"/>
<path data-name="Ngog-Mapubi" style="fill: {#CACF4C}" fill="#CACF4C" opacity="1.000000" stroke="none" 
	d="
M1375.909668,1509.100464 
	C1377.122192,1499.603882 1378.222290,1490.887329 1381.392090,1482.314941 
	C1387.015137,1467.108398 1387.798706,1451.096680 1384.564697,1435.204712 
	C1381.981323,1422.509644 1379.295654,1409.970825 1383.982788,1397.271973 
	C1387.874512,1386.727539 1384.508423,1376.276245 1383.854004,1365.783203 
	C1383.193848,1355.195801 1382.230469,1344.612305 1382.022461,1334.014893 
	C1381.598999,1312.443726 1380.764282,1290.988525 1376.531250,1269.692505 
	C1374.613647,1260.045410 1374.951904,1249.949951 1374.168701,1238.641968 
	C1378.981689,1237.749268 1383.709229,1236.105225 1388.422729,1236.145142 
	C1401.480713,1236.255493 1414.197388,1235.394775 1426.729736,1230.988281 
	C1432.851685,1228.835938 1439.809570,1227.929565 1446.309937,1228.221436 
	C1459.559937,1228.816528 1467.219604,1221.565918 1473.693359,1210.809448 
	C1489.013672,1210.087402 1496.736206,1214.839844 1501.145020,1227.427246 
	C1502.570312,1226.844604 1503.979980,1226.308960 1505.356567,1225.698608 
	C1511.692993,1222.888794 1518.211914,1225.998291 1519.807373,1232.702515 
	C1520.109497,1233.972290 1519.883911,1235.359863 1519.984863,1236.686646 
	C1520.820557,1247.660889 1520.826538,1247.660522 1532.349243,1246.805176 
	C1537.178467,1246.446655 1537.697266,1247.577515 1536.463867,1255.839233 
	C1540.672852,1262.780029 1545.706543,1257.482544 1550.896118,1256.413696 
	C1554.092773,1261.561035 1558.406128,1262.411987 1564.358643,1260.665405 
	C1569.372070,1259.194214 1575.171753,1259.281860 1579.589478,1263.162354 
	C1587.940063,1270.497314 1597.339600,1271.414062 1607.578003,1268.524048 
	C1608.471191,1268.271973 1609.497314,1268.490601 1610.595581,1268.490601 
	C1612.084473,1273.274536 1613.529297,1277.916504 1615.365967,1283.818115 
	C1619.962769,1281.729492 1623.775513,1280.024292 1627.565063,1278.269043 
	C1634.284180,1275.156982 1636.673950,1275.555420 1640.997070,1281.761841 
	C1643.833252,1285.833618 1645.827393,1290.481567 1648.444092,1294.719849 
	C1650.525269,1298.090698 1652.978149,1301.232178 1655.137573,1304.293335 
	C1668.170898,1304.288818 1680.751953,1304.199219 1691.493164,1312.331665 
	C1692.265503,1312.916382 1693.357422,1313.606323 1694.198853,1313.492920 
	C1705.510620,1311.968262 1713.801392,1320.730225 1724.383545,1322.171387 
	C1734.535156,1323.553833 1744.552002,1326.337891 1754.436890,1329.172607 
	C1770.084839,1333.660034 1785.573364,1338.703247 1801.862305,1343.780396 
	C1798.688477,1348.999756 1794.364258,1353.682251 1790.974365,1358.964111 
	C1786.087524,1366.578369 1779.457886,1370.671021 1770.557373,1371.395386 
	C1767.906494,1371.611084 1765.256592,1371.892944 1762.624268,1372.270508 
	C1757.463135,1373.010864 1754.177246,1376.006104 1752.878174,1381.000854 
	C1752.043701,1384.209351 1751.618286,1387.521973 1750.871826,1390.756104 
	C1749.637817,1396.102417 1748.142212,1400.512695 1743.653687,1405.097656 
	C1739.094482,1409.754883 1735.588379,1414.894409 1729.077271,1415.915527 
	C1726.916504,1423.707153 1730.911865,1429.055176 1733.463379,1434.676392 
	C1737.574951,1443.734985 1737.557617,1443.558960 1730.410278,1450.746582 
	C1727.670166,1453.502319 1724.628540,1456.663940 1723.540039,1460.199707 
	C1721.647583,1466.346313 1717.296387,1468.305420 1711.970947,1469.637695 
	C1705.580444,1471.236328 1700.291992,1474.040894 1694.762085,1478.258545 
	C1688.335571,1483.160278 1678.688477,1486.375122 1670.614258,1486.044556 
	C1654.555420,1485.387695 1645.733398,1492.733154 1639.904541,1507.004883 
	C1621.366089,1508.338013 1603.091431,1509.408203 1584.810669,1509.526978 
	C1577.967529,1509.571533 1571.094849,1507.481689 1564.266357,1506.201294 
	C1561.423340,1505.668091 1558.660767,1504.707275 1554.479492,1503.562500 
	C1553.622314,1508.913330 1552.504883,1513.334106 1552.286255,1517.798950 
	C1551.862793,1526.442993 1552.087280,1535.117676 1551.730347,1543.766724 
	C1551.626465,1546.288208 1551.270630,1549.763794 1549.639526,1551.085327 
	C1543.602417,1555.976196 1538.375732,1562.254150 1530.142212,1563.925537 
	C1524.292358,1565.113281 1518.475342,1566.485229 1512.685303,1567.940186 
	C1504.860107,1569.906494 1497.190063,1570.119019 1489.030396,1569.171875 
	C1481.350952,1568.280273 1472.713013,1568.743652 1465.611938,1571.492432 
	C1456.418945,1575.051025 1448.070679,1574.299316 1439.424194,1571.653687 
	C1434.386230,1570.112183 1429.636719,1567.628296 1424.302246,1565.376221 
	C1424.528076,1562.861572 1424.720947,1560.714478 1424.805054,1559.777222 
	C1421.492798,1555.054932 1418.642700,1550.991699 1415.281372,1546.199829 
	C1405.552979,1549.377563 1398.106812,1540.650879 1388.869995,1537.872437 
	C1383.176147,1536.159790 1387.945068,1532.027222 1388.713135,1528.985718 
	C1386.568481,1526.721680 1384.531738,1524.571777 1381.820435,1522.165283 
	C1383.988159,1515.050903 1383.988159,1515.050903 1375.909668,1509.100464 
z"/>

</svg>