<svg version="1.1" id="Layer_1" xmlns="http://www.w3.org/2000/svg" xmlns:xlink="http://www.w3.org/1999/xlink" x="0px" y="0px"
	 width="100%" viewBox="0 0 2281 2589" enable-background="new 0 0 2281 2589" xml:space="preserve">


<path 
	data-name="Wabena"
fill="#A84845" opacity="1.000000" stroke="none" 
	d="
M1311.411133,98.344437 
	C1325.776489,98.185410 1340.141724,98.026390 1355.840820,98.617859 
	C1375.017578,105.668320 1392.858643,111.973930 1410.704346,118.266136 
	C1421.194458,121.964828 1430.612549,127.193398 1438.359985,135.486267 
	C1442.345215,139.752167 1447.215210,143.301422 1452.068848,146.612411 
	C1456.167847,149.408691 1461.025635,151.078766 1465.189941,153.795624 
	C1480.355591,163.689972 1493.708008,175.065369 1501.620239,192.226044 
	C1507.706787,205.427231 1510.383057,220.203094 1519.956299,231.849747 
	C1524.167114,236.972351 1527.479980,242.822189 1531.424683,248.176712 
	C1536.759155,255.417709 1542.756592,261.874786 1550.255737,267.186279 
	C1562.442871,275.818420 1574.108643,285.204010 1585.780884,294.538635 
	C1591.741577,299.305542 1596.991455,304.968353 1603.000732,309.665833 
	C1612.897339,317.402069 1615.708862,317.186462 1626.049316,310.504852 
	C1631.876343,306.739655 1637.599731,302.312286 1644.027588,300.062866 
	C1676.882202,288.565216 1710.774658,290.335938 1744.647217,293.552032 
	C1756.830200,294.708740 1768.606689,298.745361 1781.156006,297.797272 
	C1794.154785,296.815216 1807.017090,298.599976 1819.596313,302.246796 
	C1822.429077,303.068054 1825.449707,303.287109 1828.400391,303.647308 
	C1838.601929,304.892883 1848.850342,305.815948 1859.008423,307.343964 
	C1877.509155,310.126984 1896.036865,311.563751 1914.483521,307.674866 
	C1938.298218,302.654327 1962.282593,299.694092 1986.631592,300.237976 
	C1993.246826,300.385712 1999.860474,301.706635 2006.452515,301.550385 
	C2019.535156,301.240265 2030.245239,306.066925 2040.033203,314.415771 
	C2049.366699,322.376862 2058.709717,330.592896 2069.098145,336.993652 
	C2088.904053,349.196869 2109.278809,360.520020 2129.800537,371.492340 
	C2136.526123,375.088318 2140.154297,380.115540 2143.202393,386.611328 
	C2159.309570,420.933807 2175.552002,455.194519 2192.085449,489.312836 
	C2194.002441,493.268768 2197.473633,497.006927 2201.143555,499.483368 
	C2215.745850,509.336914 2230.633301,518.777527 2245.580811,528.105591 
	C2252.236328,532.258972 2259.284668,535.782593 2266.448486,539.754944 
	C2265.422119,543.382996 2264.170898,546.497131 2263.708252,549.724243 
	C2262.868652,555.583740 2261.113770,561.783325 2262.212158,567.353760 
	C2264.707031,580.010681 2267.541260,592.844421 2272.382568,604.732910 
	C2278.283691,619.225464 2279.508301,633.547729 2276.834473,648.616150 
	C2275.656006,655.257263 2276.395508,656.243408 2284.000000,660.000000 
	C2284.000000,668.713806 2284.000000,677.427612 2284.000000,687.070679 
	C2279.197266,687.911926 2277.450928,691.785217 2275.484619,694.975403 
	C2266.235352,709.981628 2257.205322,725.122620 2248.027100,740.172729 
	C2240.403320,752.673767 2232.794434,765.186401 2224.968994,777.560974 
	C2218.729248,787.427368 2211.392334,796.097229 2201.008057,802.245361 
	C2190.436768,808.504089 2180.354004,815.675964 2170.547363,823.096008 
	C2166.462158,826.186829 2163.455811,830.812561 2160.317139,835.008484 
	C2158.141846,837.916809 2156.971436,841.609436 2154.667725,844.383545 
	C2148.016357,852.393677 2140.958740,858.503357 2128.952637,858.522278 
	C2110.417969,858.551514 2091.884277,860.844238 2073.357666,862.276123 
	C2071.066895,862.453125 2068.778564,863.090881 2066.563965,863.761597 
	C2044.733643,870.373413 2021.962891,871.916931 1999.620361,872.122498 
	C1982.507080,872.280090 1964.517700,869.901001 1948.781372,860.528076 
	C1943.669189,857.483215 1937.825073,855.693604 1932.552124,852.885925 
	C1926.377686,849.598206 1920.824585,849.761414 1914.656128,853.298401 
	C1901.745361,860.701538 1886.876709,862.123779 1872.769897,865.677856 
	C1844.425903,872.818665 1815.877930,879.148743 1785.898315,885.631226 
	C1767.638672,882.981506 1750.906982,880.426086 1734.147949,878.066345 
	C1707.170898,874.267883 1680.190796,870.483459 1653.181885,866.921692 
	C1639.019653,865.054077 1624.823853,862.751282 1610.588989,862.280029 
	C1587.291504,861.508789 1563.949707,862.037964 1540.626831,862.114502 
	C1537.658203,862.124268 1534.678345,862.618591 1531.725952,863.043701 
	C1515.613525,865.363586 1499.480957,867.562805 1483.409912,870.143799 
	C1472.950562,871.823730 1461.932495,872.484741 1452.308350,876.407532 
	C1430.449219,885.317383 1409.236816,895.835327 1387.906982,906.004578 
	C1383.809326,907.958313 1380.015625,910.927002 1376.697144,914.075989 
	C1357.125977,932.647583 1338.070190,951.773499 1318.216553,970.034241 
	C1276.550293,1008.357727 1233.954468,1045.682495 1194.735962,1086.601929 
	C1191.073975,1090.422729 1186.825562,1093.720337 1182.640137,1096.993164 
	C1169.265503,1107.451782 1155.662354,1117.621704 1142.395996,1128.214233 
	C1130.610840,1137.623901 1118.385986,1144.908569 1102.888306,1147.680176 
	C1076.647827,1152.372925 1050.619019,1157.478760 1023.768311,1155.679688 
	C1018.129395,1155.301880 1012.417603,1155.966309 1006.786072,1155.537476 
	C999.870850,1155.010986 992.879150,1154.389771 986.140320,1152.848267 
	C964.118774,1147.811035 942.402405,1141.108887 920.176453,1137.393433 
	C899.913879,1134.006226 879.140381,1133.675781 858.467834,1131.167725 
	C857.048401,1122.595337 856.666199,1122.044678 850.299011,1121.739258 
	C847.336365,1121.597168 844.165955,1121.517212 841.396484,1122.386475 
	C831.628296,1125.452637 822.277100,1122.981567 813.159241,1120.224365 
	C802.676819,1117.054565 792.338379,1113.248169 782.247131,1108.985229 
	C769.633545,1103.656616 757.673828,1097.228027 749.919312,1085.066650 
	C745.148865,1077.585205 745.077576,1070.638794 749.279663,1062.697998 
	C755.638489,1050.681885 761.517151,1038.358765 766.716248,1025.800293 
	C770.097290,1017.633240 774.282104,1010.215027 780.529663,1004.120117 
	C786.927124,997.878906 793.764893,992.088196 800.427612,986.120056 
	C812.346069,975.444336 824.767456,965.528198 839.227417,958.331116 
	C847.550842,954.188293 856.134705,950.133850 863.489258,944.569763 
	C878.827820,932.965271 893.428772,920.385620 908.331604,908.205200 
	C917.615295,900.617371 924.248901,891.034485 927.547424,879.635010 
	C932.746521,861.667480 939.483154,844.465881 948.560242,828.066101 
	C955.654968,815.247864 962.858154,802.668579 972.710999,791.656128 
	C979.099548,784.515808 984.719299,776.665771 990.423523,768.941711 
	C995.158997,762.529419 998.710693,755.053345 1004.196838,749.422241 
	C1017.991638,735.263245 1026.195312,717.824524 1034.351807,700.405701 
	C1041.008789,686.189514 1040.134155,671.963257 1030.659668,658.858032 
	C1027.349487,654.279236 1024.351685,649.385437 1020.502441,645.303894 
	C1012.229309,636.531616 1005.157043,627.004883 999.513794,616.348389 
	C990.331482,599.008911 980.754883,581.927429 978.715332,561.771545 
	C977.786926,552.597229 979.885742,545.007385 987.637085,540.186707 
	C1004.912109,529.443176 1018.372131,515.000122 1030.465332,498.906616 
	C1037.326538,489.775635 1040.138550,479.945770 1037.599854,468.950928 
	C1033.762451,452.332184 1035.035522,436.201172 1040.176758,420.039978 
	C1045.928223,401.960266 1050.718994,383.566406 1049.997681,364.378143 
	C1049.625000,354.460663 1054.055176,347.241852 1060.586426,340.692993 
	C1062.468384,338.805939 1064.362793,336.930969 1066.233398,335.032837 
	C1076.383301,324.733887 1077.212646,317.777863 1069.244995,306.015198 
	C1061.899414,295.170898 1056.297241,283.546661 1052.862427,270.924652 
	C1052.137085,268.259491 1052.267700,265.361420 1052.083130,263.408112 
	C1058.917480,261.552734 1064.697144,260.361267 1070.197510,258.390076 
	C1076.395508,256.168915 1082.185913,252.762955 1088.435425,250.745300 
	C1096.958008,247.993805 1105.801392,246.250519 1114.395020,243.697296 
	C1117.809692,242.682755 1121.384155,241.216919 1124.091797,238.990738 
	C1133.392944,231.343170 1142.970947,224.252090 1154.439941,220.181961 
	C1159.096680,218.529388 1161.305786,215.210236 1161.703979,210.474136 
	C1162.061646,206.220123 1162.373535,201.962265 1162.749878,197.139542 
	C1167.319458,195.918823 1171.446289,193.862183 1175.536865,193.931747 
	C1182.964233,194.058044 1188.141357,190.849579 1192.887573,185.718811 
	C1203.049561,174.733780 1212.720825,163.165558 1223.825928,153.211700 
	C1241.953857,136.963120 1262.385010,123.828720 1284.214722,112.913902 
	C1293.409668,108.316429 1302.353271,103.216171 1311.411133,98.344437 
z"/>
<path 
	data-name="Alou"
fill="#F7F768" opacity="1.000000" stroke="none" 
	d="
M140.387451,1939.641357 
	C140.367935,1938.771362 140.348434,1937.901489 140.929626,1935.949951 
	C146.897964,1927.283325 152.524200,1919.861938 157.485168,1912.019653 
	C159.103958,1909.460693 159.427658,1905.825562 159.575912,1902.646851 
	C159.880692,1896.111694 159.667511,1889.552490 159.667511,1882.571899 
	C167.760345,1882.134399 174.666260,1881.481567 181.570999,1881.493774 
	C185.632584,1881.500854 188.555679,1880.116577 191.103653,1877.170166 
	C204.209412,1862.015259 220.011093,1849.765747 230.147720,1831.283813 
	C239.353271,1814.499634 254.335663,1800.796997 273.292938,1793.294067 
	C276.053101,1792.201660 278.711578,1790.704834 281.175262,1789.037842 
	C289.265076,1783.563843 295.224976,1776.942627 293.718781,1766.059570 
	C292.495880,1757.223511 291.534698,1748.339722 290.839172,1739.447144 
	C290.511749,1735.261597 290.481506,1730.875488 291.365784,1726.808472 
	C293.341919,1717.719238 299.590302,1712.032959 307.803955,1708.204956 
	C313.781342,1705.419189 320.578400,1703.507202 325.416412,1699.350586 
	C334.691254,1691.382080 343.433533,1682.596191 351.273041,1673.210815 
	C358.834412,1664.158447 367.436859,1657.901001 379.016449,1655.337158 
	C389.272888,1653.066284 398.353210,1648.342041 405.208038,1640.012085 
	C414.283417,1628.983765 425.546326,1623.157104 440.188477,1625.362305 
	C441.490570,1625.558350 442.864471,1625.251587 444.176636,1625.411499 
	C450.611755,1626.195557 455.645386,1623.432129 460.600555,1619.682251 
	C475.183319,1608.646606 482.371948,1594.208984 481.677856,1575.885010 
	C481.500336,1571.198730 481.360138,1566.473633 487.502838,1563.135010 
	C501.143677,1574.122681 517.092468,1579.077393 536.025940,1574.556885 
	C537.357056,1569.046997 538.742126,1563.313721 540.834961,1557.742676 
	C558.746826,1565.456787 574.833313,1574.656494 586.775879,1589.646362 
	C597.542297,1603.160034 611.940674,1610.193604 627.938232,1616.042603 
	C646.371094,1622.781982 664.742249,1626.725464 684.355164,1626.159668 
	C690.778076,1625.974365 697.502991,1627.651245 703.695007,1629.680908 
	C722.335144,1635.791016 740.752686,1642.577393 759.324829,1648.900879 
	C763.377563,1650.280762 767.671021,1651.353638 771.922485,1651.685913 
	C802.793640,1654.097656 833.451233,1657.613647 863.381897,1666.112915 
	C873.247253,1668.914185 883.080933,1668.640259 891.953552,1662.127930 
	C894.816406,1660.026611 898.210388,1658.649048 902.036560,1656.574341 
	C903.233032,1659.851318 904.643311,1662.497192 905.149353,1665.305786 
	C907.650452,1679.185303 914.554871,1690.850952 923.581909,1701.240601 
	C929.009094,1707.486694 935.747131,1712.583374 941.291504,1718.740967 
	C946.815002,1724.875122 953.543823,1727.409058 961.436340,1728.049438 
	C973.195129,1729.003906 983.756409,1732.858521 994.089294,1738.932617 
	C1019.157593,1753.669434 1041.543945,1772.093750 1065.181396,1788.786255 
	C1077.947876,1797.801758 1089.639526,1809.003418 1103.541626,1815.559937 
	C1117.438354,1822.114014 1133.526733,1823.961304 1148.584229,1828.125732 
	C1188.917603,1839.280884 1230.161499,1847.330811 1268.888672,1863.973022 
	C1282.317139,1869.743530 1296.185791,1874.489868 1309.853516,1879.704102 
	C1311.190674,1886.129761 1310.046875,1892.249634 1307.576416,1898.207397 
	C1300.327515,1915.689209 1292.837769,1933.076904 1285.952271,1950.700806 
	C1283.208496,1957.723755 1281.065063,1965.156616 1279.928955,1972.598267 
	C1276.907593,1992.387573 1277.832520,2012.106689 1280.884155,2031.964600 
	C1282.254272,2040.880493 1281.625000,2050.911621 1278.881104,2059.467529 
	C1274.459839,2073.253418 1268.928467,2086.854736 1259.650757,2098.556396 
	C1242.868408,2119.723633 1228.863770,2142.837158 1218.716064,2167.731201 
	C1209.925293,2189.296631 1199.399170,2209.912842 1189.208740,2230.741211 
	C1185.479126,2238.364502 1183.096680,2245.962646 1183.510254,2254.612549 
	C1183.776123,2260.170654 1183.056763,2265.929688 1181.754150,2271.352295 
	C1180.957153,2274.669678 1178.904663,2278.470459 1176.225220,2280.402344 
	C1168.448242,2286.008789 1160.551270,2291.937500 1151.802124,2295.579346 
	C1141.605469,2299.823730 1135.392334,2307.384277 1129.276489,2315.663574 
	C1114.796997,2335.266602 1118.876831,2355.827881 1126.191650,2376.437256 
	C1129.961548,2387.059082 1133.262573,2397.573486 1134.722778,2408.948486 
	C1136.160889,2420.150879 1134.452271,2430.708252 1132.884155,2441.476318 
	C1130.787476,2455.873535 1128.616699,2470.261475 1126.310669,2484.626221 
	C1124.894287,2493.449463 1123.420288,2502.281250 1121.425903,2510.983887 
	C1120.810425,2513.668945 1118.771973,2516.329834 1116.723022,2518.320801 
	C1112.682129,2522.246826 1108.081177,2525.588867 1103.891235,2529.371338 
	C1098.809326,2533.959473 1093.836304,2538.158691 1090.443481,2544.840820 
	C1086.395630,2552.813477 1077.973633,2557.531250 1069.029907,2560.024902 
	C1065.528564,2561.000732 1061.896362,2561.820557 1058.284424,2562.028564 
	C1045.750000,2562.750977 1037.363525,2569.339355 1031.685303,2580.055664 
	C1029.824219,2583.567871 1027.931396,2587.062744 1026.026611,2591.282715 
	C1025.111084,2592.000000 1024.222168,2592.000000 1023.041931,2591.327637 
	C1014.673645,2576.902100 1006.857666,2562.984863 998.382568,2549.481689 
	C995.290527,2544.554932 991.180420,2539.902344 986.589111,2536.345459 
	C968.985596,2522.707764 950.890686,2509.706543 933.193665,2496.187012 
	C922.219910,2487.803711 910.493713,2486.431885 897.761414,2490.909668 
	C894.940186,2491.901611 892.066895,2492.812988 889.377991,2494.097168 
	C885.638428,2495.883301 882.551270,2495.353760 879.323608,2492.767334 
	C874.868530,2489.197021 869.849182,2487.293945 863.883423,2486.918457 
	C852.321472,2486.190918 840.814941,2484.592041 829.282715,2483.380615 
	C821.371033,2482.549561 812.672485,2483.526367 805.760254,2480.460693 
	C798.841492,2477.392090 793.733643,2470.272461 787.779541,2464.987549 
	C782.126282,2459.969727 776.405090,2455.028564 770.839600,2450.163574 
	C742.649231,2462.198242 715.210510,2473.990479 687.703369,2485.620605 
	C674.856873,2491.052490 662.111023,2496.877686 648.895386,2501.239502 
	C634.404236,2506.021973 619.435974,2509.367432 604.652222,2513.250000 
	C597.916077,2515.018799 591.152954,2517.804443 584.350403,2517.967041 
	C570.433655,2518.300049 556.465698,2517.430908 542.549805,2516.561768 
	C531.859253,2515.894043 521.722107,2515.629639 511.759338,2521.385742 
	C498.828033,2528.856689 484.902985,2534.586426 471.775940,2541.744873 
	C456.496033,2550.077148 440.901489,2553.437744 423.213806,2551.734863 
	C397.804932,2549.288818 372.173187,2549.053955 346.625122,2548.230957 
	C340.231140,2548.024658 335.337341,2545.416992 330.726349,2542.146240 
	C331.863770,2527.425781 333.525146,2513.275879 333.897888,2499.092041 
	C334.293732,2484.030518 337.604553,2471.167480 348.688934,2459.592041 
	C357.445221,2450.447510 357.468964,2433.455811 341.208557,2427.039307 
	C333.802856,2424.116943 326.906006,2419.757080 319.360931,2417.367188 
	C302.910004,2412.156494 291.996460,2400.775391 282.832611,2387.026367 
	C276.079803,2376.894531 273.089111,2365.672363 271.472656,2353.659424 
	C269.938354,2342.256348 266.936432,2331.027832 264.104492,2319.842773 
	C263.538849,2317.608887 261.022247,2315.690186 259.069031,2314.019043 
	C252.764359,2308.624756 246.376511,2303.320068 239.866867,2298.175537 
	C237.101105,2295.989990 235.638687,2293.725830 235.502640,2289.948730 
	C235.351669,2285.757812 234.728851,2281.166992 232.824799,2277.528320 
	C224.983353,2262.542969 215.912491,2248.172607 208.597260,2232.949707 
	C203.110107,2221.531006 196.859039,2211.520020 185.220627,2205.669189 
	C181.471680,2203.784180 178.513367,2200.573242 178.608582,2196.407227 
	C178.792053,2188.379150 174.779572,2183.494873 167.637772,2180.306152 
	C172.116806,2165.840332 176.492981,2151.938965 180.719986,2137.992432 
	C185.350677,2122.714111 185.290695,2122.695801 199.852798,2115.020752 
	C208.137268,2110.654297 208.565079,2110.148926 207.582504,2101.160156 
	C207.227219,2097.910156 206.207611,2094.662109 205.039703,2091.584717 
	C201.741592,2082.894531 198.384659,2074.218018 194.734558,2065.671143 
	C186.067047,2045.376099 178.443375,2024.907715 181.654968,2002.177490 
	C181.793335,2001.198242 181.896072,2000.113159 181.624893,1999.192505 
	C179.025909,1990.366699 177.426071,1980.717041 166.252579,1978.238892 
	C161.185074,1977.115112 158.649460,1973.695435 156.415451,1969.318481 
	C151.305649,1959.307251 145.757538,1949.519775 140.387451,1939.641357 
z"/>


<path 
	data-name="Fontem"
fill="#7651DB" opacity="1.000000" stroke="none" 
	d="
M1310.041382,1878.806519 
	C1296.185791,1874.489868 1282.317139,1869.743530 1268.888672,1863.973022 
	C1230.161499,1847.330811 1188.917603,1839.280884 1148.584229,1828.125732 
	C1133.526733,1823.961304 1117.438354,1822.114014 1103.541626,1815.559937 
	C1089.639526,1809.003418 1077.947876,1797.801758 1065.181396,1788.786255 
	C1041.543945,1772.093750 1019.157593,1753.669434 994.089294,1738.932617 
	C983.756409,1732.858521 973.195129,1729.003906 961.436340,1728.049438 
	C953.543823,1727.409058 946.815002,1724.875122 941.291504,1718.740967 
	C935.747131,1712.583374 929.009094,1707.486694 923.581909,1701.240601 
	C914.554871,1690.850952 907.650452,1679.185303 905.149353,1665.305786 
	C904.643311,1662.497192 903.233032,1659.851318 902.036560,1656.574341 
	C898.210388,1658.649048 894.816406,1660.026611 891.953552,1662.127930 
	C883.080933,1668.640259 873.247253,1668.914185 863.381897,1666.112915 
	C833.451233,1657.613647 802.793640,1654.097656 771.922485,1651.685913 
	C767.671021,1651.353638 763.377563,1650.280762 759.324829,1648.900879 
	C740.752686,1642.577393 722.335144,1635.791016 703.695007,1629.680908 
	C697.502991,1627.651245 690.778076,1625.974365 684.355164,1626.159668 
	C664.742249,1626.725464 646.371094,1622.781982 627.938232,1616.042603 
	C611.940674,1610.193604 597.542297,1603.160034 586.775879,1589.646362 
	C574.833313,1574.656494 558.746826,1565.456787 540.441467,1557.187012 
	C536.263672,1551.508667 532.197937,1546.893921 530.318298,1541.515259 
	C526.513306,1530.627563 522.478943,1520.502808 508.503998,1517.793335 
	C515.989685,1511.603271 522.406006,1506.251343 528.898804,1500.994019 
	C529.610413,1500.417847 530.776001,1500.099976 531.707397,1500.145630 
	C539.379089,1500.520386 543.555542,1495.310303 545.700745,1489.499268 
	C548.515442,1481.874878 553.148499,1476.393066 559.592102,1471.957764 
	C564.377991,1468.663696 567.551697,1464.567505 568.787903,1458.444702 
	C570.513123,1449.900391 573.024292,1448.997803 581.901672,1447.938721 
	C594.897339,1446.388428 607.213623,1442.962158 616.102356,1432.103271 
	C621.480652,1425.532837 629.949280,1421.874146 633.577087,1413.488281 
	C634.205139,1412.036621 636.820679,1411.331665 638.625244,1410.519775 
	C654.608826,1403.328613 671.599915,1400.834106 688.907959,1400.128906 
	C693.628784,1399.936646 698.500916,1400.348267 701.729919,1396.283691 
	C706.915833,1389.755615 713.229919,1387.670532 721.619446,1387.627319 
	C727.371948,1387.597778 735.529236,1386.228149 737.461121,1379.640869 
	C739.751709,1371.831177 744.274780,1369.016846 751.347351,1367.847656 
	C753.596375,1367.475708 755.867188,1366.543457 757.855896,1365.395874 
	C779.504761,1352.904175 800.042969,1338.754272 818.711121,1322.146362 
	C827.729614,1314.123169 836.393066,1306.074097 848.603516,1303.332031 
	C849.096619,1303.221313 849.421692,1302.362549 849.946960,1301.698120 
	C849.946960,1300.858521 850.127014,1299.832397 849.920837,1298.890991 
	C844.231628,1272.907227 843.102234,1246.335693 839.625488,1220.069824 
	C836.953918,1199.887085 836.197693,1180.445557 842.891418,1160.384155 
	C846.537964,1149.455078 849.498352,1139.383667 858.592041,1131.998047 
	C879.140381,1133.675781 899.913879,1134.006226 920.176453,1137.393433 
	C942.402405,1141.108887 964.118774,1147.811035 986.140320,1152.848267 
	C992.879150,1154.389771 999.870850,1155.010986 1006.786072,1155.537476 
	C1012.417603,1155.966309 1018.129395,1155.301880 1023.768311,1155.679688 
	C1050.619019,1157.478760 1076.647827,1152.372925 1102.888306,1147.680176 
	C1118.385986,1144.908569 1130.610840,1137.623901 1142.395996,1128.214233 
	C1155.662354,1117.621704 1169.265503,1107.451782 1182.640137,1096.993164 
	C1186.825562,1093.720337 1191.073975,1090.422729 1194.735962,1086.601929 
	C1233.954468,1045.682495 1276.550293,1008.357727 1318.216553,970.034241 
	C1338.070190,951.773499 1357.125977,932.647583 1376.697144,914.075989 
	C1380.015625,910.927002 1383.809326,907.958313 1387.906982,906.004578 
	C1409.236816,895.835327 1430.449219,885.317383 1452.308350,876.407532 
	C1461.932495,872.484741 1472.950562,871.823730 1483.409912,870.143799 
	C1499.480957,867.562805 1515.613525,865.363586 1531.725952,863.043701 
	C1534.678345,862.618591 1537.658203,862.124268 1540.626831,862.114502 
	C1563.949707,862.037964 1587.291504,861.508789 1610.588989,862.280029 
	C1624.823853,862.751282 1639.019653,865.054077 1653.181885,866.921692 
	C1680.190796,870.483459 1707.170898,874.267883 1734.147949,878.066345 
	C1750.906982,880.426086 1767.638672,882.981506 1785.093872,885.799072 
	C1779.947876,914.076477 1773.917236,941.969482 1768.392944,969.962402 
	C1767.392700,975.030762 1765.138062,978.414246 1761.274902,981.321960 
	C1757.286377,984.324341 1753.679443,987.885437 1749.501099,990.573486 
	C1739.842651,996.786865 1734.233643,1005.819092 1729.522583,1016.002808 
	C1712.066895,1053.735596 1693.744385,1091.075439 1676.809204,1129.036499 
	C1671.066284,1141.909668 1662.065186,1149.726074 1649.341553,1152.290527 
	C1630.876465,1156.012573 1624.618774,1169.525635 1619.675049,1184.801025 
	C1617.524902,1191.444458 1615.692627,1198.191528 1613.753540,1204.902344 
	C1612.256104,1210.084106 1609.111938,1212.175293 1603.484253,1212.177612 
	C1588.438843,1212.183838 1573.799683,1209.790405 1559.112305,1206.809326 
	C1547.770386,1204.507202 1536.149292,1203.578247 1524.649780,1202.057373 
	C1523.004028,1201.839600 1521.344360,1201.727417 1519.691040,1201.565308 
	C1499.555786,1199.590576 1499.555786,1199.590454 1484.441528,1213.165894 
	C1466.623291,1201.913330 1447.927612,1191.721802 1433.158813,1176.132202 
	C1427.443970,1170.099731 1420.389038,1166.637329 1412.787842,1164.059814 
	C1403.669312,1160.967773 1394.357056,1158.429443 1385.310791,1155.149658 
	C1381.205811,1153.661377 1378.256348,1154.153442 1375.632202,1157.449219 
	C1373.376587,1160.282471 1370.769531,1162.912476 1368.949951,1166.004150 
	C1354.103638,1191.231323 1339.871948,1216.834717 1324.458252,1241.707031 
	C1317.160889,1253.482422 1307.707886,1263.924683 1299.192993,1274.941284 
	C1296.164062,1278.859985 1293.021240,1282.690918 1289.052979,1287.660767 
	C1293.840698,1291.920166 1298.236694,1295.961548 1302.774292,1299.837036 
	C1309.486938,1305.570312 1313.867676,1312.946289 1318.267822,1320.450562 
	C1322.466064,1327.610474 1327.115723,1334.581299 1332.276489,1341.071045 
	C1335.077759,1344.593506 1339.056396,1348.844238 1343.024658,1349.471558 
	C1356.576904,1351.613525 1367.861084,1360.225708 1381.682007,1361.596313 
	C1393.496338,1362.767822 1396.689209,1365.814331 1397.267944,1377.087891 
	C1398.163452,1394.532227 1402.415771,1411.130127 1407.621582,1427.526489 
	C1406.841309,1428.565308 1406.417114,1429.766357 1405.652222,1430.050781 
	C1397.292358,1433.158325 1392.430664,1438.347046 1393.448608,1448.009155 
	C1393.623535,1449.670288 1391.500366,1452.142090 1389.802490,1453.329224 
	C1383.824585,1457.508789 1377.569580,1461.291870 1371.107422,1465.424927 
	C1369.592896,1464.160645 1368.252563,1462.652954 1366.586548,1461.739136 
	C1363.863892,1460.245605 1359.331421,1457.358643 1358.386597,1458.206543 
	C1355.677002,1460.638306 1354.288330,1464.602905 1352.621948,1468.080566 
	C1352.313599,1468.724121 1352.942139,1470.034668 1353.462280,1470.823853 
	C1360.600464,1481.654175 1355.603271,1491.884766 1351.906982,1502.135742 
	C1349.919067,1507.648682 1346.470459,1512.002319 1340.892212,1514.341797 
	C1332.968262,1517.664917 1330.049194,1524.639526 1328.401489,1532.201050 
	C1326.729736,1539.873047 1326.388550,1540.813110 1318.274292,1541.199219 
	C1314.035645,1541.401001 1311.330078,1543.077759 1309.500122,1546.576904 
	C1304.586914,1555.971558 1298.930908,1565.031006 1298.169189,1576.102051 
	C1297.876343,1580.360352 1296.682983,1584.613159 1295.467041,1588.740967 
	C1292.031982,1600.402588 1295.256104,1611.212158 1300.132935,1621.493286 
	C1301.652344,1624.696167 1305.709351,1626.919800 1308.978638,1629.005737 
	C1312.303711,1631.127075 1316.089478,1632.526001 1320.951660,1634.852905 
	C1319.675293,1639.584839 1318.317871,1644.208740 1317.195435,1648.888916 
	C1315.976318,1653.971680 1314.233887,1659.077881 1314.032349,1664.225220 
	C1313.596313,1675.355713 1318.882202,1683.319946 1329.527344,1687.075439 
	C1338.000977,1690.065063 1341.547729,1695.270264 1342.700195,1704.645020 
	C1344.753784,1721.349487 1347.961670,1737.925049 1354.519165,1753.831787 
	C1359.029053,1764.771973 1357.625122,1775.903320 1347.642700,1784.640015 
	C1339.042603,1792.166504 1330.370605,1799.266846 1318.792847,1801.684692 
	C1316.570435,1802.148926 1314.480713,1803.248169 1312.849976,1803.859497 
	C1306.929443,1828.753052 1311.299438,1853.413330 1310.041382,1878.806519 
z"/>

</svg>