<svg version="1.1" id="Layer_1" xmlns="http://www.w3.org/2000/svg" xmlns:xlink="http://www.w3.org/1999/xlink" x="0px" y="0px"
	 width="100%" viewBox="0 0 2212 2908" enable-background="new 0 0 2212 2908" xml:space="preserve">


<path 
	data-name="Petté"
fill="#3D6194" opacity="1.000000" stroke="none" 
	d="
M1147.967773,388.494781 
	C1150.375488,387.389404 1152.986206,386.579834 1155.138916,385.102844 
	C1157.756470,383.307007 1161.125244,381.396393 1162.167847,378.747742 
	C1164.979858,371.604034 1169.953491,368.403961 1177.202759,367.786743 
	C1178.151611,367.705933 1179.062378,367.176392 1180.601929,366.642914 
	C1181.057373,358.421570 1187.289429,353.751617 1192.928711,348.709320 
	C1196.146606,345.832153 1199.380005,342.897827 1202.951172,340.503632 
	C1214.860962,332.519165 1215.040405,320.896820 1213.247437,308.590637 
	C1212.865234,305.967712 1212.105225,303.393341 1211.820190,300.763977 
	C1211.060547,293.761322 1213.161743,288.326447 1220.322998,285.669342 
	C1222.808716,284.747040 1225.065308,283.211487 1227.545898,282.270233 
	C1231.204346,280.881927 1233.657593,278.922058 1234.482788,274.670654 
	C1235.019409,271.906708 1236.558350,268.812866 1238.626099,266.955536 
	C1252.404419,254.579895 1261.304688,238.349777 1272.964722,224.362762 
	C1285.288330,209.579681 1299.048950,195.949921 1312.698486,182.334229 
	C1320.203125,174.848175 1328.891479,168.561600 1336.786499,161.446060 
	C1339.145752,159.319794 1341.023804,156.411240 1342.421021,153.521957 
	C1344.732422,148.741989 1346.716797,143.767044 1348.387939,138.724823 
	C1350.024902,133.785538 1352.457886,129.698654 1357.139282,127.146027 
	C1357.994751,126.679565 1358.944214,126.006050 1359.366333,125.180603 
	C1368.772583,106.787285 1388.261841,99.292747 1402.233154,85.778831 
	C1422.513672,66.162308 1444.464355,48.271786 1465.715942,29.660200 
	C1473.713013,22.656595 1481.788818,15.742379 1489.730225,8.676496 
	C1491.431885,7.162447 1492.706421,5.168398 1494.088867,2.697741 
	C1496.133423,2.000000 1498.266724,2.000000 1500.876587,2.672894 
	C1508.779785,9.901205 1516.036865,16.661673 1523.662231,22.977264 
	C1560.273804,53.300148 1596.870117,83.643753 1633.697388,113.703514 
	C1663.054565,137.666107 1692.979492,160.936142 1722.218140,185.040161 
	C1766.838623,221.824692 1811.243896,258.875214 1855.396118,296.220093 
	C1869.256226,307.943298 1884.527588,315.363068 1902.394043,318.400452 
	C1914.150391,320.399078 1925.766357,323.480438 1937.235718,326.800354 
	C1942.910645,328.443024 1947.347656,327.683411 1952.275879,324.709076 
	C1965.082886,316.979614 1978.184937,309.740784 1991.108398,302.201843 
	C1993.664307,300.710907 1995.926147,298.722290 1998.360962,297.016510 
	C2010.044067,288.831299 2021.672485,280.564575 2033.496094,272.587158 
	C2035.520386,271.221222 2038.396362,271.117401 2040.189087,270.621399 
	C2046.415405,275.410797 2051.949707,279.648865 2057.461670,283.916077 
	C2060.009033,285.888367 2062.512451,287.917572 2064.617188,290.527710 
	C2041.810669,312.550690 2019.686157,334.251434 1996.953857,355.295441 
	C1977.835693,372.993744 1960.524536,392.229095 1943.771484,412.141174 
	C1910.326904,451.892761 1876.390015,491.233856 1842.369385,530.495789 
	C1818.817627,557.676147 1794.716309,584.379700 1770.988037,611.408203 
	C1749.896362,635.433289 1728.980103,659.612366 1707.485107,683.939209 
	C1706.622314,684.753174 1706.260864,685.351440 1705.956787,685.957214 
	C1706.014038,685.964661 1705.929077,685.886169 1705.207031,685.897339 
	C1700.420410,688.153870 1696.220459,690.187134 1692.314209,692.680298 
	C1671.840576,705.746948 1651.382568,718.840454 1631.062622,732.143555 
	C1626.661987,735.024536 1622.227905,736.250305 1617.018188,736.174866 
	C1599.360107,735.919189 1581.694946,735.757874 1564.039185,736.015442 
	C1559.546509,736.080994 1554.767334,737.122437 1550.653442,738.930054 
	C1533.900269,746.290894 1517.319092,754.048096 1500.762695,761.846497 
	C1497.507446,763.379761 1494.204834,765.296570 1491.664185,767.790466 
	C1456.254395,802.548523 1421.342773,837.788635 1388.354492,874.890625 
	C1361.395752,905.210938 1334.272949,935.385620 1307.183594,965.589661 
	C1289.417847,985.398071 1271.603516,1005.163147 1253.750366,1024.892700 
	C1251.528076,1027.348755 1249.271484,1030.077637 1246.454346,1031.641357 
	C1229.868530,1040.848022 1213.097778,1049.721069 1196.423340,1058.768921 
	C1192.664185,1060.808838 1189.615723,1060.117065 1186.430908,1057.393311 
	C1178.851318,1050.910522 1171.210571,1044.483154 1163.332153,1038.371948 
	C1158.464111,1034.595703 1157.440674,1030.040894 1158.357544,1024.296997 
	C1159.819702,1015.136963 1160.734863,1005.890015 1162.176025,996.726135 
	C1163.770020,986.589478 1164.868286,976.272156 1167.635376,966.442566 
	C1175.108887,939.894531 1183.132202,913.494141 1191.381348,887.174377 
	C1195.890991,872.785645 1199.589966,858.455872 1197.948242,843.176575 
	C1197.062744,834.933777 1196.520386,826.641479 1196.165283,818.356873 
	C1195.296875,798.092651 1194.628662,777.819946 1193.873413,757.550903 
	C1193.836182,756.553406 1193.787598,755.551758 1193.659912,754.562988 
	C1189.839111,724.978394 1185.854248,695.414062 1182.225952,665.805969 
	C1179.200806,641.120728 1176.779541,616.361450 1173.751099,591.676697 
	C1170.078247,561.739685 1165.882812,531.866699 1162.219727,501.928497 
	C1158.555176,471.978668 1155.344482,441.973572 1151.764282,412.013062 
	C1150.822754,404.134918 1149.250366,396.332184 1147.967773,388.494781 
z"/>
<path 
	data-name="Ndoukoula"
fill="#8D5AF1" opacity="1.000000" stroke="none" 
	d="
M2.000000,2174.937256 
	C3.812421,2176.641113 5.327147,2175.754395 5.985821,2173.327393 
	C10.669167,2156.067627 15.159208,2138.755127 19.843636,2121.495605 
	C22.531023,2111.593994 25.519333,2101.774414 28.276737,2091.891602 
	C30.949072,2082.313477 33.377800,2072.666504 36.146919,2063.117188 
	C37.899708,2057.072754 39.618340,2050.947266 42.161194,2045.217041 
	C48.079002,2031.882080 51.993023,2017.925293 56.074432,2003.993042 
	C56.802135,2001.508789 58.527542,1999.306885 59.853012,1997.009644 
	C64.322220,1989.264160 68.868774,1981.562378 73.256760,1973.771240 
	C74.013184,1972.428223 74.922119,1970.397583 74.433388,1969.249878 
	C70.773033,1960.654785 74.987778,1952.487183 75.248405,1944.138184 
	C75.463173,1937.258179 74.613800,1930.199341 73.154373,1923.453613 
	C71.667992,1916.583496 72.746384,1910.548584 75.017693,1904.061768 
	C77.497124,1896.980347 79.513763,1889.465332 79.999413,1882.026123 
	C80.608955,1872.689209 83.607483,1865.396729 91.225929,1859.860840 
	C93.210854,1858.418579 94.711769,1856.044678 95.890869,1853.811401 
	C98.773911,1848.350586 101.339104,1842.722168 105.079094,1834.999634 
	C101.824486,1827.765747 97.459427,1818.527954 93.526649,1809.109619 
	C91.789841,1804.950195 90.818336,1800.453003 89.703751,1796.057373 
	C88.651390,1791.906860 88.240807,1787.561035 86.867676,1783.532959 
	C85.241653,1778.762695 85.271797,1774.728516 88.376396,1770.425903 
	C91.865585,1765.590210 94.702484,1760.275146 97.710312,1755.102905 
	C102.282166,1747.241211 110.030090,1743.074341 117.358093,1738.648926 
	C127.685593,1732.411987 138.917877,1731.360718 150.959839,1732.965820 
	C168.373810,1735.287109 185.920853,1736.935059 203.576797,1735.701294 
	C213.760986,1734.989502 223.382523,1736.895508 232.407532,1741.953613 
	C234.017899,1742.856079 236.554535,1742.105957 239.884018,1742.420166 
	C242.832748,1745.694458 244.894104,1747.738525 248.753525,1748.236328 
	C260.569092,1749.760010 272.310028,1751.855835 284.115082,1753.473145 
	C286.292328,1753.771362 288.675659,1753.044434 290.892548,1752.500366 
	C314.712952,1746.653931 338.435333,1740.370117 362.378357,1735.083740 
	C369.896393,1733.423828 375.930450,1730.239502 381.454224,1725.361084 
	C382.949158,1724.040771 384.516693,1722.787842 385.897430,1721.355957 
	C388.710144,1718.438965 391.772766,1717.767944 395.817566,1718.787476 
	C406.096222,1721.378052 416.589172,1723.149780 426.804382,1725.949707 
	C432.991821,1727.645752 438.136597,1726.777100 443.838043,1724.031006 
	C459.080139,1716.689819 474.563812,1709.837036 490.068390,1703.057373 
	C507.349152,1695.501099 525.555237,1689.500610 537.461060,1673.408813 
	C540.457031,1669.359375 543.780212,1669.595703 547.903564,1671.744873 
	C551.376709,1673.555298 555.251892,1674.594482 559.280884,1676.615723 
	C566.974060,1688.297607 577.174194,1693.812378 590.553955,1694.247437 
	C600.872559,1694.582642 610.765930,1697.143677 620.426819,1701.190308 
	C630.044861,1705.218750 639.025513,1709.986816 646.980286,1716.721558 
	C651.668396,1720.691040 656.642517,1722.526123 662.299622,1718.352661 
	C666.586670,1715.190186 670.222290,1717.515991 675.129578,1720.114502 
	C671.400146,1725.471680 666.690857,1730.767334 672.717285,1737.205078 
	C680.234009,1737.843628 688.108032,1739.317505 695.894958,1738.949341 
	C703.801331,1738.575684 707.833801,1743.922485 712.428223,1748.171265 
	C716.469727,1751.908691 710.766846,1755.195679 710.276489,1758.871582 
	C710.192017,1759.504761 710.378662,1760.174194 710.456177,1760.998291 
	C713.637268,1766.491455 725.368774,1764.579956 722.462280,1774.700928 
	C725.831543,1776.222412 728.690979,1777.176147 731.195923,1778.709351 
	C738.150146,1782.965454 738.091919,1783.060669 744.249817,1778.526611 
	C749.673645,1784.101318 754.683716,1790.134277 760.603088,1795.078857 
	C766.186768,1799.743042 772.922729,1799.290527 779.475464,1796.304565 
	C786.450012,1793.126465 793.484497,1792.248291 800.372437,1796.969482 
	C799.153931,1804.077026 795.059021,1807.909058 789.702332,1811.116943 
	C781.998474,1815.730347 774.487488,1820.693115 767.110229,1825.817871 
	C756.189697,1833.403320 745.628662,1841.276733 741.288574,1854.903320 
	C736.692932,1869.332642 727.410522,1881.303101 719.892944,1894.201660 
	C718.041687,1897.378052 717.230530,1901.160522 715.567871,1905.679077 
	C716.156311,1905.352173 715.617188,1905.779541 715.004211,1905.974365 
	C635.526978,1931.235962 556.075806,1956.580811 476.517090,1981.583252 
	C467.766541,1984.333374 459.183167,1987.596802 449.517426,1987.951294 
	C428.651611,1988.715820 407.831604,1990.857788 387.008057,1992.616211 
	C357.608704,1995.098877 328.234863,1997.895142 298.820984,2000.183105 
	C293.456909,2000.600342 289.140594,2001.226318 286.363098,2006.486328 
	C285.419373,2008.273560 283.085541,2009.572632 281.112152,2010.525757 
	C274.195801,2013.865601 267.134399,2016.601807 259.125702,2015.767456 
	C256.397369,2015.483154 253.555344,2016.290039 251.839157,2016.479614 
	C251.425446,2025.318237 251.025024,2032.859619 250.752090,2040.405640 
	C250.682404,2042.331909 250.263443,2044.980835 251.298462,2046.081787 
	C255.300659,2050.339111 254.465576,2055.407715 254.244980,2060.260742 
	C253.883865,2068.204590 252.530319,2076.118652 252.423294,2084.056396 
	C252.046738,2111.985840 248.366150,2139.554932 243.395157,2166.943848 
	C242.148254,2173.813721 242.748093,2180.111816 244.398987,2186.546631 
	C249.836212,2207.739746 255.331741,2228.917969 260.902374,2250.076172 
	C263.517395,2260.008789 265.716949,2270.119385 269.279205,2279.713135 
	C272.559845,2288.548584 272.581085,2297.235840 271.421326,2306.204834 
	C267.595856,2335.789307 263.722504,2365.367920 259.900665,2394.952881 
	C257.353302,2414.672363 254.660126,2434.376465 252.479095,2454.136719 
	C251.885361,2459.515625 249.643417,2461.739502 244.551758,2462.359375 
	C235.695145,2463.437500 226.880005,2464.856201 217.152130,2466.051758 
	C210.533752,2466.972656 204.316803,2463.854248 198.975906,2468.042969 
	C191.927704,2468.163818 184.879501,2468.284668 176.452026,2467.626465 
	C169.765762,2465.107910 163.159363,2464.791504 159.398651,2461.358154 
	C148.700653,2451.591553 137.156418,2442.314209 130.333130,2428.704102 
	C131.128220,2427.757568 131.886124,2426.654053 132.838318,2425.756592 
	C136.706589,2422.111084 140.643265,2418.538330 144.539032,2414.921875 
	C157.021240,2403.334717 157.026398,2403.328857 151.230927,2387.253662 
	C151.030746,2386.698242 150.335587,2386.321289 149.492279,2385.486328 
	C142.607773,2388.797119 138.342819,2383.539062 133.315186,2379.990234 
	C130.190125,2377.784668 126.415215,2374.412354 123.264954,2374.742188 
	C115.480789,2375.556885 111.497993,2372.071045 108.735306,2365.772461 
	C106.820274,2361.406250 103.213112,2357.972900 98.881096,2358.651123 
	C90.625641,2359.943604 83.944000,2355.614990 76.520462,2354.121338 
	C69.670647,2352.743408 67.920654,2348.648926 71.002167,2342.490234 
	C74.655014,2335.189697 73.021072,2330.912354 65.585640,2328.199707 
	C63.119759,2327.300293 60.016495,2326.946777 58.375965,2325.226562 
	C54.483345,2321.144531 49.847637,2321.308350 45.567142,2322.767334 
	C35.887241,2326.066162 29.431839,2321.791260 24.333931,2314.515625 
	C19.777102,2308.012451 15.732471,2301.129883 11.793807,2294.225586 
	C10.543581,2292.033691 9.974029,2289.266357 9.756498,2286.706055 
	C8.915067,2276.802246 8.475252,2266.863770 7.584877,2256.965088 
	C7.324812,2254.073730 6.203833,2251.218262 5.136842,2248.479248 
	C4.944980,2247.986816 3.088123,2248.143066 2.000005,2248.000000 
	C2.000000,2223.958252 2.000000,2199.916260 2.000000,2174.937256 
z"/>

<path 
	data-name="Bogo"
fill="#E7A167" opacity="1.000000" stroke="none" 
	d="
M2146.188965,520.965515 
	C2134.353271,538.062195 2122.626709,554.176636 2111.245117,570.531128 
	C2109.507080,573.028809 2108.283203,576.772827 2108.652588,579.710144 
	C2112.043701,606.669250 2115.804932,633.582153 2119.532471,660.498230 
	C2121.105957,671.858521 2119.807617,682.992371 2117.801270,694.194336 
	C2109.846191,738.608154 2102.070801,783.054321 2094.369141,827.512878 
	C2093.636963,831.739929 2093.703613,836.136536 2093.702393,840.454529 
	C2093.670410,971.408142 2093.590576,1102.361816 2093.864258,1233.314941 
	C2093.883057,1242.307007 2090.885010,1248.007812 2083.920166,1253.385986 
	C2005.487915,1313.949585 1927.250488,1374.765503 1847.577148,1435.797363 
	C1835.041992,1432.894043 1823.928711,1429.564819 1812.731323,1426.548218 
	C1786.138672,1419.383911 1759.475220,1412.482056 1732.902710,1405.245117 
	C1718.891357,1401.429199 1706.136841,1400.992310 1691.716919,1407.199951 
	C1670.708496,1416.243896 1647.547729,1417.539307 1624.557251,1416.216553 
	C1622.572266,1416.102295 1620.565063,1416.203125 1618.577393,1416.339355 
	C1610.981934,1416.859619 1603.341309,1418.254395 1595.808838,1417.802368 
	C1583.956665,1417.090820 1571.786255,1416.409424 1561.838989,1408.499878 
	C1553.782959,1402.094238 1546.005371,1395.337524 1537.922485,1388.967285 
	C1528.018433,1381.161499 1518.697632,1372.177490 1507.755493,1366.216309 
	C1483.509766,1353.007568 1458.408936,1341.368652 1433.775513,1328.378174 
	C1438.474609,1313.792236 1443.034546,1299.910645 1447.644043,1286.045532 
	C1449.782471,1279.613281 1449.003296,1274.247437 1444.247925,1268.750977 
	C1431.644165,1254.182983 1419.391968,1239.290649 1407.502075,1224.133423 
	C1401.272583,1216.191895 1393.381958,1209.445801 1390.851318,1198.672974 
	C1388.992065,1190.757446 1384.868530,1183.380615 1381.837402,1175.730591 
	C1379.913818,1170.876221 1377.626587,1166.082886 1376.439819,1161.041504 
	C1375.079956,1155.264526 1374.931885,1149.214111 1373.948120,1143.334351 
	C1371.979858,1131.569336 1370.167847,1119.757202 1367.561646,1108.128052 
	C1366.154785,1101.850586 1361.085205,1095.726807 1361.585327,1089.868164 
	C1362.136108,1083.419312 1367.182129,1077.354248 1370.270752,1071.122559 
	C1370.418579,1070.824219 1370.575806,1070.530518 1370.727173,1070.234009 
	C1372.999390,1065.777588 1374.997559,1061.125977 1380.776245,1060.003418 
	C1381.876953,1059.789551 1383.351196,1058.670532 1383.661011,1057.663940 
	C1386.080688,1049.801025 1393.183594,1046.980957 1399.159058,1043.174316 
	C1397.845581,1032.871216 1400.063354,1027.606079 1407.414307,1020.159485 
	C1411.312622,1016.210388 1415.491699,1011.900452 1417.553955,1006.928162 
	C1420.566895,999.664001 1421.640747,991.613953 1423.863281,983.992798 
	C1424.565186,981.585693 1425.834717,978.978821 1427.631592,977.311890 
	C1448.345581,958.095642 1469.203613,939.034668 1490.038818,919.949463 
	C1502.540039,908.498291 1515.044922,897.050964 1527.597656,885.656555 
	C1532.012207,881.649353 1536.039795,876.717896 1541.210938,874.173096 
	C1547.138062,871.256042 1553.014282,865.113342 1561.177002,871.117371 
	C1564.510986,873.569641 1573.023438,868.865845 1575.453979,864.704773 
	C1576.763428,862.463257 1577.923218,860.134216 1579.442993,857.298950 
	C1572.560425,850.347229 1580.679688,845.306702 1581.797485,838.315308 
	C1587.264404,840.665405 1591.409790,840.809570 1593.343994,834.523743 
	C1593.739746,833.238037 1596.700073,832.741577 1599.012695,831.622681 
	C1599.788574,835.733093 1600.320190,838.549316 1600.927246,841.765442 
	C1609.579712,840.854187 1611.193481,834.004333 1613.827881,828.238403 
	C1615.148193,825.349182 1615.697388,822.052490 1617.297119,819.356445 
	C1622.038452,811.365967 1626.890625,803.420105 1632.123047,795.745667 
	C1656.275635,760.320496 1680.580444,724.999146 1704.775269,689.602722 
	C1705.474976,688.579224 1705.558350,687.134521 1705.929077,685.886169 
	C1705.929077,685.886169 1706.014038,685.964661 1706.486816,685.796143 
	C1707.302002,684.992981 1707.644287,684.358276 1707.986328,683.723511 
	C1728.980103,659.612366 1749.896362,635.433289 1770.988037,611.408203 
	C1794.716309,584.379700 1818.817627,557.676147 1842.369385,530.495789 
	C1876.390015,491.233856 1910.326904,451.892761 1943.771484,412.141174 
	C1960.524536,392.229095 1977.835693,372.993744 1996.953857,355.295441 
	C2019.686157,334.251434 2041.810669,312.550690 2064.617188,290.527710 
	C2074.141846,296.427094 2084.242920,301.772430 2090.454834,311.830078 
	C2104.596191,312.529297 2118.780029,313.230591 2134.094727,313.987823 
	C2137.649170,334.449677 2141.199463,354.887207 2145.423828,375.764709 
	C2146.145264,380.346680 2146.228271,384.488586 2146.234619,388.630615 
	C2146.300293,432.440948 2146.354004,476.251312 2146.188965,520.965515 
z"/>
<path 
	data-name="Muyuka"
fill="#22153A" opacity="1.000000" stroke="none" 
	d="
M217.152130,2466.051758 
	C218.047501,2466.132324 218.002243,2467.035645 217.992661,2467.487793 
	C212.301086,2468.078857 206.619110,2468.217773 199.956512,2468.199951 
	C204.316803,2463.854248 210.533752,2466.972656 217.152130,2466.051758 
z"/>
<path 
	data-name="Maroua III"
fill="#AB5BA1" opacity="1.000000" stroke="none" 
	d="
M1705.207031,685.897339 
	C1705.558350,687.134521 1705.474976,688.579224 1704.775269,689.602722 
	C1680.580444,724.999146 1656.275635,760.320496 1632.123047,795.745667 
	C1626.890625,803.420105 1622.038452,811.365967 1617.297119,819.356445 
	C1615.697388,822.052490 1615.148193,825.349182 1613.827881,828.238403 
	C1611.193481,834.004333 1609.579712,840.854187 1600.927246,841.765442 
	C1600.320190,838.549316 1599.788574,835.733093 1599.012695,831.622681 
	C1596.700073,832.741577 1593.739746,833.238037 1593.343994,834.523743 
	C1591.409790,840.809570 1587.264404,840.665405 1581.797485,838.315308 
	C1580.679688,845.306702 1572.560425,850.347229 1579.442993,857.298950 
	C1577.923218,860.134216 1576.763428,862.463257 1575.453979,864.704773 
	C1573.023438,868.865845 1564.510986,873.569641 1561.177002,871.117371 
	C1553.014282,865.113342 1547.138062,871.256042 1541.210938,874.173096 
	C1536.039795,876.717896 1532.012207,881.649353 1527.597656,885.656555 
	C1515.044922,897.050964 1502.540039,908.498291 1490.038818,919.949463 
	C1469.203613,939.034668 1448.345581,958.095642 1427.631592,977.311890 
	C1425.834717,978.978821 1424.565186,981.585693 1423.863281,983.992798 
	C1421.640747,991.613953 1420.566895,999.664001 1417.553955,1006.928162 
	C1415.491699,1011.900452 1411.312622,1016.210388 1407.414307,1020.159485 
	C1400.063354,1027.606079 1397.845581,1032.871216 1399.159058,1043.174316 
	C1393.183594,1046.980957 1386.080688,1049.801025 1383.661011,1057.663940 
	C1383.351196,1058.670532 1381.876953,1059.789551 1380.776245,1060.003418 
	C1374.997559,1061.125977 1372.999390,1065.777588 1370.727173,1070.234009 
	C1370.575806,1070.530518 1370.418579,1070.824219 1370.270752,1071.122559 
	C1367.182129,1077.354248 1362.136108,1083.419312 1361.585327,1089.868164 
	C1361.085205,1095.726807 1366.154785,1101.850586 1367.561646,1108.128052 
	C1370.167847,1119.757202 1371.979858,1131.569336 1373.948120,1143.334351 
	C1374.931885,1149.214111 1375.079956,1155.264526 1376.439819,1161.041504 
	C1377.626587,1166.082886 1379.913818,1170.876221 1381.837402,1175.730591 
	C1384.868530,1183.380615 1388.992065,1190.757446 1390.851318,1198.672974 
	C1393.381958,1209.445801 1401.272583,1216.191895 1407.502075,1224.133423 
	C1419.391968,1239.290649 1431.644165,1254.182983 1444.247925,1268.750977 
	C1449.003296,1274.247437 1449.782471,1279.613281 1447.644043,1286.045532 
	C1443.034546,1299.910645 1438.474609,1313.792236 1433.093506,1328.649048 
	C1425.473145,1333.120239 1418.673706,1336.649170 1411.830688,1340.091553 
	C1384.608887,1353.785278 1355.825195,1360.752563 1325.287231,1359.872681 
	C1311.029175,1359.462036 1296.711304,1357.959351 1282.575928,1360.570557 
	C1272.161865,1362.494263 1262.136841,1363.163574 1252.513550,1357.822998 
	C1249.319580,1356.050537 1246.240479,1356.102051 1243.180298,1358.242065 
	C1236.145386,1363.162109 1227.958862,1364.800659 1219.727783,1366.096436 
	C1206.892822,1368.116943 1196.808838,1374.546021 1188.934204,1384.685791 
	C1187.096924,1387.051636 1185.387817,1389.516968 1182.737549,1391.934082 
	C1175.940063,1392.477173 1170.031738,1393.127197 1164.106445,1393.526489 
	C1160.812378,1393.748413 1157.479980,1393.714722 1154.182983,1393.507568 
	C1148.912964,1393.176392 1143.660889,1392.570190 1138.396118,1392.142578 
	C1130.492920,1391.500854 1122.583496,1390.413086 1114.680420,1390.444214 
	C1106.939941,1390.474731 1098.650391,1387.590210 1091.571167,1393.091553 
	C1082.363892,1400.246704 1071.356567,1403.732178 1060.395996,1405.242920 
	C1047.212402,1407.060059 1034.023438,1407.655396 1021.430847,1398.817139 
	C1010.675903,1391.268677 998.166077,1384.694458 983.413086,1387.489136 
	C977.355591,1376.831909 978.162964,1373.816406 988.023926,1369.072266 
	C991.850769,1367.231445 995.718079,1365.474487 1000.422424,1363.280151 
	C998.524231,1359.816650 996.900269,1357.029907 995.441833,1354.159180 
	C991.117676,1345.647461 984.723938,1337.960571 984.246582,1327.869385 
	C983.415039,1310.289795 982.291260,1292.703613 982.201965,1275.115601 
	C982.129639,1260.871948 979.754028,1247.476074 973.469727,1234.622437 
	C970.883057,1229.331909 969.293213,1223.461426 967.901672,1217.697388 
	C964.300659,1202.780762 960.360657,1188.056641 951.374390,1174.844238 
	C953.244690,1171.369141 955.125732,1168.664551 956.123779,1165.666138 
	C959.653381,1155.061523 956.771484,1144.496704 954.933228,1134.106812 
	C953.346436,1125.138306 953.030090,1116.573730 955.089600,1107.581299 
	C958.872070,1091.065796 962.129333,1074.407593 964.877625,1057.689209 
	C965.935425,1051.254639 966.666565,1043.915405 964.610535,1038.010620 
	C961.141174,1028.046387 955.936401,1018.525391 950.376831,1009.485046 
	C939.923523,992.486694 928.531982,976.068542 917.836914,959.214661 
	C906.243774,940.945679 895.375061,922.294250 880.066223,906.556702 
	C875.611938,901.977722 873.755859,894.321228 872.059082,887.727966 
	C868.840393,875.221069 868.229736,861.812744 863.516357,849.981812 
	C858.193054,836.619690 854.989685,823.490417 855.758240,809.258850 
	C856.646301,792.816040 854.307678,776.708862 850.009827,760.914001 
	C848.635315,755.862671 846.862061,750.377014 843.600098,746.493958 
	C836.549255,738.100586 832.726501,728.227295 828.630249,718.446533 
	C823.144226,705.347351 815.337708,692.980286 815.567627,677.954651 
	C815.599731,675.860413 813.900208,673.656616 812.758362,671.641785 
	C807.832642,662.949890 802.656433,654.395630 797.912842,645.607056 
	C796.070374,642.193420 794.898132,638.359314 793.821838,634.601868 
	C790.451050,622.833618 787.271301,611.010620 784.017639,599.208862 
	C788.379761,591.588074 794.411560,585.755859 801.717529,580.793884 
	C806.510315,577.538757 809.615784,571.591187 814.582764,568.861633 
	C819.171692,566.339783 825.244141,566.549133 830.636475,565.426758 
	C831.549500,565.236755 832.327087,564.395813 833.304626,563.767212 
	C834.555969,558.456055 835.431274,552.902588 837.294250,547.703125 
	C838.082764,545.502441 840.947449,544.045715 842.758057,542.354065 
	C849.603821,543.475403 855.272400,545.333740 858.740662,551.683960 
	C860.875061,555.592163 864.046387,555.089966 866.709167,551.705261 
	C867.530884,550.660889 868.253662,549.539307 869.054749,548.478088 
	C872.121338,544.415527 875.703674,543.235962 880.250244,546.258179 
	C881.571045,547.136169 883.224182,547.514282 885.482361,548.427979 
	C889.997070,541.789734 894.359253,535.267822 898.848877,528.834778 
	C900.361328,526.667603 901.948486,524.433838 903.936523,522.741516 
	C908.276184,519.047119 910.888306,514.794312 909.228577,507.763275 
	C913.810913,506.244781 918.149109,504.999237 922.337158,503.368195 
	C927.026123,501.541962 930.837524,502.132751 933.545959,506.607513 
	C936.450073,511.405670 940.370605,512.124756 945.464844,510.357178 
	C952.032959,508.078094 959.277222,507.200653 965.265503,503.945099 
	C971.777527,500.404846 977.632690,500.480499 984.300720,502.259338 
	C993.576599,504.733795 993.688232,504.550598 998.885803,496.777252 
	C1002.028809,492.076660 1005.094238,487.315460 1007.985718,482.457214 
	C1013.582703,473.053070 1013.521606,473.016693 1025.233643,475.464966 
	C1028.449829,471.862762 1031.259888,466.694214 1035.602051,464.272522 
	C1044.674683,459.212555 1047.251831,453.500793 1043.588135,443.359985 
	C1041.440918,437.416748 1046.036499,431.983856 1051.434326,428.524048 
	C1065.721313,419.366486 1079.624023,409.469910 1094.555542,401.510223 
	C1103.441406,396.773254 1113.885010,394.759583 1123.809814,392.234955 
	C1131.171631,390.362244 1138.825562,389.637634 1147.158569,388.448181 
	C1149.250366,396.332184 1150.822754,404.134918 1151.764282,412.013062 
	C1155.344482,441.973572 1158.555176,471.978668 1162.219727,501.928497 
	C1165.882812,531.866699 1170.078247,561.739685 1173.751099,591.676697 
	C1176.779541,616.361450 1179.200806,641.120728 1182.225952,665.805969 
	C1185.854248,695.414062 1189.839111,724.978394 1193.659912,754.562988 
	C1193.787598,755.551758 1193.836182,756.553406 1193.873413,757.550903 
	C1194.628662,777.819946 1195.296875,798.092651 1196.165283,818.356873 
	C1196.520386,826.641479 1197.062744,834.933777 1197.948242,843.176575 
	C1199.589966,858.455872 1195.890991,872.785645 1191.381348,887.174377 
	C1183.132202,913.494141 1175.108887,939.894531 1167.635376,966.442566 
	C1164.868286,976.272156 1163.770020,986.589478 1162.176025,996.726135 
	C1160.734863,1005.890015 1159.819702,1015.136963 1158.357544,1024.296997 
	C1157.440674,1030.040894 1158.464111,1034.595703 1163.332153,1038.371948 
	C1171.210571,1044.483154 1178.851318,1050.910522 1186.430908,1057.393311 
	C1189.615723,1060.117065 1192.664185,1060.808838 1196.423340,1058.768921 
	C1213.097778,1049.721069 1229.868530,1040.848022 1246.454346,1031.641357 
	C1249.271484,1030.077637 1251.528076,1027.348755 1253.750366,1024.892700 
	C1271.603516,1005.163147 1289.417847,985.398071 1307.183594,965.589661 
	C1334.272949,935.385620 1361.395752,905.210938 1388.354492,874.890625 
	C1421.342773,837.788635 1456.254395,802.548523 1491.664185,767.790466 
	C1494.204834,765.296570 1497.507446,763.379761 1500.762695,761.846497 
	C1517.319092,754.048096 1533.900269,746.290894 1550.653442,738.930054 
	C1554.767334,737.122437 1559.546509,736.080994 1564.039185,736.015442 
	C1581.694946,735.757874 1599.360107,735.919189 1617.018188,736.174866 
	C1622.227905,736.250305 1626.661987,735.024536 1631.062622,732.143555 
	C1651.382568,718.840454 1671.840576,705.746948 1692.314209,692.680298 
	C1696.220459,690.187134 1700.420410,688.153870 1705.207031,685.897339 
z"/>
<path 
	data-name="Meri"
fill="#56E85D" opacity="1.000000" stroke="none" 
	d="
M783.403870,599.587891 
	C787.271301,611.010620 790.451050,622.833618 793.821838,634.601868 
	C794.898132,638.359314 796.070374,642.193420 797.912842,645.607056 
	C802.656433,654.395630 807.832642,662.949890 812.758362,671.641785 
	C813.900208,673.656616 815.599731,675.860413 815.567627,677.954651 
	C815.337708,692.980286 823.144226,705.347351 828.630249,718.446533 
	C832.726501,728.227295 836.549255,738.100586 843.600098,746.493958 
	C846.862061,750.377014 848.635315,755.862671 850.009827,760.914001 
	C854.307678,776.708862 856.646301,792.816040 855.758240,809.258850 
	C854.989685,823.490417 858.193054,836.619690 863.516357,849.981812 
	C868.229736,861.812744 868.840393,875.221069 872.059082,887.727966 
	C873.755859,894.321228 875.611938,901.977722 880.066223,906.556702 
	C895.375061,922.294250 906.243774,940.945679 917.836914,959.214661 
	C928.531982,976.068542 939.923523,992.486694 950.376831,1009.485046 
	C955.936401,1018.525391 961.141174,1028.046387 964.610535,1038.010620 
	C966.666565,1043.915405 965.935425,1051.254639 964.877625,1057.689209 
	C962.129333,1074.407593 958.872070,1091.065796 955.089600,1107.581299 
	C953.030090,1116.573730 953.346436,1125.138306 954.933228,1134.106812 
	C956.771484,1144.496704 959.653381,1155.061523 956.123779,1165.666138 
	C955.125732,1168.664551 953.244690,1171.369141 950.674988,1174.972412 
	C935.452881,1179.056030 921.384094,1182.444214 920.062073,1200.833984 
	C920.039124,1201.153320 919.948425,1201.593140 919.727478,1201.753296 
	C917.729797,1203.200562 915.668213,1205.840820 913.677368,1205.796509 
	C904.664490,1205.596069 897.671265,1210.553589 890.952148,1214.982544 
	C880.590027,1221.812988 873.095520,1231.006592 875.939392,1244.947266 
	C876.729431,1248.819702 878.036804,1252.856689 877.623230,1256.656738 
	C876.064148,1270.980713 869.545654,1282.848511 858.963562,1292.745361 
	C850.154785,1300.983765 838.593201,1306.499756 833.647400,1318.681152 
	C831.678223,1323.531006 828.508301,1327.893311 825.037048,1332.369873 
	C807.495911,1329.748901 790.771973,1326.031250 774.368835,1333.751709 
	C773.524597,1334.149048 772.390015,1334.063599 771.403076,1334.002197 
	C763.377686,1333.502563 758.862854,1337.933838 754.663086,1344.286499 
	C749.395874,1352.253662 743.608826,1360.260986 733.960266,1363.684448 
	C712.348145,1371.353516 690.712463,1378.959595 669.015076,1386.382812 
	C663.377625,1388.311646 657.536438,1389.775146 651.684326,1390.917114 
	C641.892578,1392.827515 630.900818,1384.793213 631.987732,1375.750488 
	C633.017029,1367.187256 630.720581,1360.195435 626.397095,1353.244507 
	C624.122864,1349.588135 622.132202,1345.673340 620.617798,1341.647827 
	C618.895386,1337.069824 619.138184,1331.033813 616.158997,1327.841064 
	C612.900879,1324.349243 606.879150,1323.501343 602.174805,1321.263794 
	C600.096069,1320.275024 598.323914,1318.656982 596.361267,1317.404907 
	C593.560608,1315.618164 590.920715,1313.075928 587.848816,1312.306396 
	C575.596375,1309.236572 568.234802,1300.358521 561.361511,1290.899292 
	C550.937012,1276.552856 530.618469,1272.529419 515.347900,1281.707031 
	C505.545349,1287.598389 499.328339,1296.476929 492.969635,1306.116455 
	C483.759094,1308.168823 475.942169,1311.454834 468.367218,1315.860718 
	C463.330078,1318.790527 457.185516,1321.490112 451.573425,1321.418091 
	C438.913086,1321.255981 426.258240,1319.458008 413.642242,1317.975342 
	C410.827606,1317.644653 407.764862,1316.410156 405.528046,1314.674438 
	C392.675659,1304.701660 379.484131,1295.052002 367.560974,1284.043579 
	C361.631012,1278.568604 356.261871,1276.963135 349.815094,1280.412720 
	C335.776672,1287.924438 320.115662,1289.903564 305.209625,1294.433228 
	C304.026917,1288.273315 302.620880,1282.144775 301.745148,1275.941528 
	C301.219513,1272.217896 299.737183,1269.444946 296.153168,1268.525269 
	C288.886505,1266.661011 284.243134,1261.320557 279.624115,1256.172852 
	C268.973511,1244.302979 256.989990,1234.664062 241.235779,1230.435669 
	C238.391479,1229.672363 235.654648,1228.251831 233.092651,1226.751587 
	C228.848801,1224.266235 222.267441,1222.239502 221.169907,1218.645508 
	C218.837906,1211.009155 216.308151,1202.662842 219.738022,1194.272827 
	C221.750198,1189.350708 223.497940,1184.434692 219.166275,1179.312134 
	C217.934967,1177.856079 218.753586,1174.232544 219.324966,1171.763428 
	C221.435562,1162.643799 222.348572,1154.231689 218.695221,1144.632446 
	C215.961227,1137.448853 213.954086,1127.743652 221.517197,1120.431519 
	C222.613556,1119.371582 223.316620,1117.532104 223.508209,1115.968384 
	C224.996735,1103.817505 226.662338,1091.670410 227.529816,1079.469360 
	C227.923355,1073.934326 229.109116,1070.427002 233.673248,1066.195679 
	C240.785858,1059.601807 247.349762,1052.780640 256.433746,1048.937134 
	C257.317963,1048.562988 258.479034,1047.927368 258.747009,1047.149536 
	C262.971436,1034.890015 274.450714,1025.223022 271.716400,1010.451416 
	C270.568146,1004.248352 275.201385,1000.910095 279.673553,999.186523 
	C289.277466,995.485107 294.078979,988.098572 298.188904,979.421692 
	C301.015839,973.453308 304.458374,967.648682 308.443604,962.390625 
	C313.002045,956.376343 313.576935,950.170105 310.913757,943.662598 
	C306.765778,933.526672 302.122070,923.593506 297.688477,913.574463 
	C295.597870,908.850037 293.507355,904.125549 290.833862,898.083801 
	C301.622437,896.686523 310.747498,895.368408 319.910645,894.417419 
	C322.094666,894.190796 324.801208,894.573120 326.596863,895.722778 
	C342.438995,905.865051 360.694000,908.176270 378.446381,912.236328 
	C392.735565,915.504333 406.673981,919.892883 419.624084,926.998535 
	C421.642181,928.105896 423.913788,929.512268 426.056366,929.492676 
	C433.233063,929.426697 438.598816,932.888611 443.980499,937.021179 
	C448.764374,940.694763 450.779236,940.102600 452.757538,934.603516 
	C454.195923,930.605286 455.354340,926.316589 455.566040,922.103638 
	C456.117035,911.138855 458.868622,901.132507 466.309448,892.800049 
	C477.806335,879.925598 485.632233,865.168457 489.906860,848.418152 
	C491.843689,840.828613 498.650787,836.994385 504.023193,832.190125 
	C506.478333,829.994568 509.365448,828.135986 512.331299,826.686523 
	C519.703186,823.083923 525.129150,817.556458 530.016479,811.082581 
	C532.315186,808.037720 535.956238,805.908630 539.225037,803.716553 
	C544.162598,800.405579 549.297913,797.388489 554.369629,794.279785 
	C555.481262,793.598389 556.753662,792.424622 557.824402,792.551880 
	C565.712402,793.489197 571.801880,788.987366 578.448059,786.121582 
	C585.201538,783.209595 591.830444,782.593567 598.418335,786.925354 
	C605.742981,791.741516 614.421631,790.381409 622.508972,791.718201 
	C629.903931,792.940613 637.300842,794.151550 646.385925,795.645203 
	C652.274902,791.055237 659.729797,785.175842 664.591675,776.448792 
	C668.558350,769.328796 674.318726,763.827332 682.485168,761.454102 
	C686.546692,760.273804 689.333801,757.688354 691.246826,753.908813 
	C695.700928,745.108521 701.555237,737.177490 702.313232,726.514526 
	C702.720398,720.786316 707.957886,716.234680 713.976440,713.915771 
	C719.557312,711.765564 725.072998,709.446045 731.564331,706.817627 
	C732.440552,701.049866 733.384155,694.876953 734.312500,688.701721 
	C734.557861,687.069702 734.375549,685.255005 735.036804,683.822998 
	C739.774353,673.564453 743.544067,663.023682 745.943054,651.941650 
	C747.175171,646.249817 749.367615,640.765869 751.449463,634.162476 
	C753.501831,633.945374 756.710449,633.605896 760.850830,633.167847 
	C764.029053,619.747986 774.569519,610.654236 783.403870,599.587891 
z"/>
<path 
	data-name="Gazawa"
fill="#8EE8F4" opacity="1.000000" stroke="none" 
	d="
M305.337708,1295.296021 
	C320.115662,1289.903564 335.776672,1287.924438 349.815094,1280.412720 
	C356.261871,1276.963135 361.631012,1278.568604 367.560974,1284.043579 
	C379.484131,1295.052002 392.675659,1304.701660 405.528046,1314.674438 
	C407.764862,1316.410156 410.827606,1317.644653 413.642242,1317.975342 
	C426.258240,1319.458008 438.913086,1321.255981 451.573425,1321.418091 
	C457.185516,1321.490112 463.330078,1318.790527 468.367218,1315.860718 
	C475.942169,1311.454834 483.759094,1308.168823 493.190125,1306.848267 
	C497.871704,1319.172241 501.990723,1330.786255 505.250366,1342.636841 
	C517.330933,1386.556030 529.553650,1430.444214 540.863892,1474.564209 
	C547.129089,1499.004028 552.563354,1523.656738 554.599731,1549.014282 
	C556.488098,1572.527344 559.550232,1595.979370 563.013550,1619.321899 
	C565.727539,1637.613525 567.693726,1655.570923 559.786804,1673.100952 
	C559.380615,1674.001709 559.222656,1675.014526 558.949097,1675.975098 
	C555.251892,1674.594482 551.376709,1673.555298 547.903564,1671.744873 
	C543.780212,1669.595703 540.457031,1669.359375 537.461060,1673.408813 
	C525.555237,1689.500610 507.349152,1695.501099 490.068390,1703.057373 
	C474.563812,1709.837036 459.080139,1716.689819 443.838043,1724.031006 
	C438.136597,1726.777100 432.991821,1727.645752 426.804382,1725.949707 
	C416.589172,1723.149780 406.096222,1721.378052 395.817566,1718.787476 
	C391.772766,1717.767944 388.710144,1718.438965 385.897430,1721.355957 
	C384.516693,1722.787842 382.949158,1724.040771 381.454224,1725.361084 
	C375.930450,1730.239502 369.896393,1733.423828 362.378357,1735.083740 
	C338.435333,1740.370117 314.712952,1746.653931 290.892548,1752.500366 
	C288.675659,1753.044434 286.292328,1753.771362 284.115082,1753.473145 
	C272.310028,1751.855835 260.569092,1749.760010 248.753525,1748.236328 
	C244.894104,1747.738525 242.832748,1745.694458 240.550140,1742.236816 
	C248.633240,1727.957031 257.066315,1714.027466 265.998077,1700.425415 
	C270.211761,1694.008423 275.696320,1688.595703 283.143585,1685.696045 
	C284.067108,1685.336426 284.964905,1684.848877 285.781616,1684.285767 
	C298.442047,1675.555298 310.597992,1675.140015 324.739044,1682.678101 
	C339.706482,1690.656860 350.964081,1685.469604 358.979187,1671.481689 
	C361.849884,1666.471802 362.564423,1661.626953 360.183228,1656.307861 
	C357.032867,1649.270508 355.189270,1642.039429 355.537994,1634.142578 
	C355.838684,1627.333984 352.968719,1622.829346 345.590240,1620.326782 
	C337.542664,1617.597168 330.237244,1612.679443 322.372528,1608.593018 
	C322.900696,1598.358398 320.118408,1589.524902 316.987366,1580.298218 
	C313.037292,1568.657959 314.701721,1556.078735 320.952301,1544.626709 
	C326.188782,1535.032715 330.408691,1524.865234 335.937561,1515.456421 
	C339.232330,1509.849487 344.351440,1505.343140 348.332184,1500.100464 
	C350.876190,1496.749878 353.244995,1493.130493 354.877625,1489.285645 
	C355.605133,1487.572632 354.984924,1484.539673 353.832916,1482.917969 
	C350.509888,1478.240356 335.135712,1474.603760 329.914459,1477.415527 
	C320.407440,1482.535034 312.179840,1480.870850 304.420471,1473.971680 
	C296.661438,1467.072510 288.032715,1461.803711 277.967316,1458.677002 
	C270.673035,1456.411011 270.340668,1454.011719 270.601074,1446.969971 
	C271.085907,1433.859375 275.464905,1422.457764 284.509827,1411.970093 
	C279.854065,1407.994507 275.729706,1404.296021 271.407837,1400.844971 
	C268.581116,1398.587524 267.438385,1396.035645 267.581818,1392.321289 
	C268.064301,1379.826172 271.603119,1368.597656 277.499207,1357.379639 
	C285.275574,1342.584351 294.444336,1328.898193 304.164612,1315.431030 
	C308.449615,1309.494141 306.159637,1302.669312 305.337708,1295.296021 
z"/>
<path 
	data-name="Muyuka"
fill="#AB5BA1" opacity="1.000000" stroke="none" 
	d="
M1707.485107,683.939209 
	C1707.644287,684.358276 1707.302002,684.992981 1706.429565,685.788696 
	C1706.260864,685.351440 1706.622314,684.753174 1707.485107,683.939209 
z"/>
<path 
	data-name="Maroua I"
fill="#82423D" opacity="1.000000" stroke="none" 
	d="
M559.280884,1676.615723 
	C559.222656,1675.014526 559.380615,1674.001709 559.786804,1673.100952 
	C567.693726,1655.570923 565.727539,1637.613525 563.013550,1619.321899 
	C559.550232,1595.979370 556.488098,1572.527344 554.599731,1549.014282 
	C552.563354,1523.656738 547.129089,1499.004028 540.863892,1474.564209 
	C529.553650,1430.444214 517.330933,1386.556030 505.250366,1342.636841 
	C501.990723,1330.786255 497.871704,1319.172241 493.926666,1306.717773 
	C499.328339,1296.476929 505.545349,1287.598389 515.347900,1281.707031 
	C530.618469,1272.529419 550.937012,1276.552856 561.361511,1290.899292 
	C568.234802,1300.358521 575.596375,1309.236572 587.848816,1312.306396 
	C590.920715,1313.075928 593.560608,1315.618164 596.361267,1317.404907 
	C598.323914,1318.656982 600.096069,1320.275024 602.174805,1321.263794 
	C606.879150,1323.501343 612.900879,1324.349243 616.158997,1327.841064 
	C619.138184,1331.033813 618.895386,1337.069824 620.617798,1341.647827 
	C622.132202,1345.673340 624.122864,1349.588135 626.397095,1353.244507 
	C630.720581,1360.195435 633.017029,1367.187256 631.987732,1375.750488 
	C630.900818,1384.793213 641.892578,1392.827515 651.684326,1390.917114 
	C657.536438,1389.775146 663.377625,1388.311646 669.015076,1386.382812 
	C690.712463,1378.959595 712.348145,1371.353516 733.960266,1363.684448 
	C743.608826,1360.260986 749.395874,1352.253662 754.663086,1344.286499 
	C758.862854,1337.933838 763.377686,1333.502563 771.403076,1334.002197 
	C772.390015,1334.063599 773.524597,1334.149048 774.368835,1333.751709 
	C790.771973,1326.031250 807.495911,1329.748901 825.094788,1333.024048 
	C832.987854,1340.300415 839.878296,1346.924683 847.035706,1353.246582 
	C848.674500,1354.694092 851.261169,1355.899780 853.362549,1355.825684 
	C858.323853,1355.650635 860.588623,1358.334229 862.163513,1362.330933 
	C864.057556,1367.137817 867.489868,1369.419067 872.738220,1369.975464 
	C883.537842,1371.120483 894.405273,1372.202515 905.004028,1374.447510 
	C911.305176,1375.782349 918.117676,1377.624756 922.399353,1383.293823 
	C929.321655,1392.459106 938.337708,1393.913574 947.999756,1389.450562 
	C954.363586,1386.510986 960.011536,1387.250977 966.152344,1388.993042 
	C972.005554,1390.653809 977.909546,1391.031982 983.612915,1388.206787 
	C998.166077,1384.694458 1010.675903,1391.268677 1021.430847,1398.817139 
	C1034.023438,1407.655396 1047.212402,1407.060059 1060.395996,1405.242920 
	C1071.356567,1403.732178 1082.363892,1400.246704 1091.571167,1393.091553 
	C1098.650391,1387.590210 1106.939941,1390.474731 1114.680420,1390.444214 
	C1122.583496,1390.413086 1130.492920,1391.500854 1138.396118,1392.142578 
	C1143.660889,1392.570190 1148.912964,1393.176392 1154.182983,1393.507568 
	C1157.479980,1393.714722 1160.812378,1393.748413 1164.106445,1393.526489 
	C1170.031738,1393.127197 1175.940063,1392.477173 1182.927002,1392.724121 
	C1185.380493,1399.660767 1186.669434,1405.827759 1188.160522,1411.945557 
	C1193.807129,1435.114136 1198.259277,1458.636475 1209.308594,1480.162964 
	C1212.146240,1485.691406 1214.021729,1491.713989 1216.339355,1497.509521 
	C1214.259521,1499.028076 1212.356201,1500.931763 1210.062134,1501.982422 
	C1205.640015,1504.007935 1202.421265,1506.886963 1200.101562,1511.261963 
	C1196.749146,1517.584595 1192.267334,1522.085571 1184.095581,1518.482544 
	C1180.589111,1516.936401 1177.227173,1518.241089 1175.502563,1521.515747 
	C1170.898926,1530.257080 1165.000000,1536.134399 1154.119141,1536.578003 
	C1149.582153,1536.762939 1145.394165,1541.305420 1140.699585,1542.670410 
	C1129.886230,1545.813965 1118.645142,1547.572754 1107.971069,1551.088013 
	C1092.561157,1556.162842 1077.313843,1561.847656 1062.325317,1568.063599 
	C1020.875671,1585.253052 979.595764,1602.851807 938.249573,1620.290771 
	C907.010010,1633.466919 875.819336,1646.761353 844.488159,1659.715820 
	C839.022644,1661.975708 836.258301,1665.419312 834.418335,1670.886963 
	C822.854309,1705.251099 814.019226,1740.335449 806.067871,1775.668457 
	C804.609863,1782.146973 802.963501,1788.583008 800.954285,1795.643066 
	C793.484497,1792.248291 786.450012,1793.126465 779.475464,1796.304565 
	C772.922729,1799.290527 766.186768,1799.743042 760.603088,1795.078857 
	C754.683716,1790.134277 749.673645,1784.101318 744.249817,1778.526611 
	C738.091919,1783.060669 738.150146,1782.965454 731.195923,1778.709351 
	C728.690979,1777.176147 725.831543,1776.222412 722.462280,1774.700928 
	C725.368774,1764.579956 713.637268,1766.491455 710.456177,1760.998291 
	C710.378662,1760.174194 710.192017,1759.504761 710.276489,1758.871582 
	C710.766846,1755.195679 716.469727,1751.908691 712.428223,1748.171265 
	C707.833801,1743.922485 703.801331,1738.575684 695.894958,1738.949341 
	C688.108032,1739.317505 680.234009,1737.843628 672.717285,1737.205078 
	C666.690857,1730.767334 671.400146,1725.471680 675.129578,1720.114502 
	C670.222290,1717.515991 666.586670,1715.190186 662.299622,1718.352661 
	C656.642517,1722.526123 651.668396,1720.691040 646.980286,1716.721558 
	C639.025513,1709.986816 630.044861,1705.218750 620.426819,1701.190308 
	C610.765930,1697.143677 600.872559,1694.582642 590.553955,1694.247437 
	C577.174194,1693.812378 566.974060,1688.297607 559.280884,1676.615723 
z"/>
<path 
	data-name="Dargala"
fill="#EBF969" opacity="1.000000" stroke="none" 
	d="
M1217.180908,1497.607056 
	C1214.021729,1491.713989 1212.146240,1485.691406 1209.308594,1480.162964 
	C1198.259277,1458.636475 1193.807129,1435.114136 1188.160522,1411.945557 
	C1186.669434,1405.827759 1185.380493,1399.660767 1183.809082,1392.726318 
	C1185.387817,1389.516968 1187.096924,1387.051636 1188.934204,1384.685791 
	C1196.808838,1374.546021 1206.892822,1368.116943 1219.727783,1366.096436 
	C1227.958862,1364.800659 1236.145386,1363.162109 1243.180298,1358.242065 
	C1246.240479,1356.102051 1249.319580,1356.050537 1252.513550,1357.822998 
	C1262.136841,1363.163574 1272.161865,1362.494263 1282.575928,1360.570557 
	C1296.711304,1357.959351 1311.029175,1359.462036 1325.287231,1359.872681 
	C1355.825195,1360.752563 1384.608887,1353.785278 1411.830688,1340.091553 
	C1418.673706,1336.649170 1425.473145,1333.120239 1432.974731,1329.360352 
	C1458.408936,1341.368652 1483.509766,1353.007568 1507.755493,1366.216309 
	C1518.697632,1372.177490 1528.018433,1381.161499 1537.922485,1388.967285 
	C1546.005371,1395.337524 1553.782959,1402.094238 1561.838989,1408.499878 
	C1571.786255,1416.409424 1583.956665,1417.090820 1595.808838,1417.802368 
	C1603.341309,1418.254395 1610.981934,1416.859619 1618.577393,1416.339355 
	C1620.565063,1416.203125 1622.572266,1416.102295 1624.557251,1416.216553 
	C1647.547729,1417.539307 1670.708496,1416.243896 1691.716919,1407.199951 
	C1706.136841,1400.992310 1718.891357,1401.429199 1732.902710,1405.245117 
	C1759.475220,1412.482056 1786.138672,1419.383911 1812.731323,1426.548218 
	C1823.928711,1429.564819 1835.041992,1432.894043 1846.955933,1436.095703 
	C1849.144653,1455.951660 1850.536133,1475.795776 1852.015015,1495.633301 
	C1852.580688,1503.220947 1853.346313,1510.793579 1854.082886,1519.069824 
	C1889.814331,1538.765259 1925.825806,1558.614990 1961.773804,1578.429810 
	C1959.290649,1586.517944 1902.928589,1667.168457 1872.651733,1706.096924 
	C1856.075928,1706.831055 1839.171387,1707.478394 1822.278564,1708.354736 
	C1803.407227,1709.333740 1784.548950,1710.567139 1765.679688,1711.592651 
	C1758.707275,1711.971558 1751.719116,1712.053101 1744.739380,1712.306641 
	C1726.485352,1712.969849 1708.227783,1713.561157 1689.979004,1714.349365 
	C1660.798218,1715.609619 1631.621826,1716.974976 1602.446289,1718.354370 
	C1575.265503,1719.639282 1548.086792,1720.971680 1520.911377,1722.363037 
	C1517.288574,1722.548462 1513.695312,1723.521729 1510.079102,1723.582764 
	C1498.506592,1723.777832 1487.204102,1723.799561 1475.771240,1719.796997 
	C1445.686523,1709.265015 1415.205200,1699.862305 1384.839722,1690.141357 
	C1380.842896,1688.861938 1378.015869,1686.797485 1375.571777,1683.274536 
	C1345.238525,1639.550415 1314.932739,1595.803833 1284.126587,1552.413574 
	C1277.483643,1543.057129 1268.881104,1535.092163 1259.895020,1527.456055 
	C1259.895020,1524.200317 1259.895020,1520.944580 1259.895020,1518.520996 
	C1252.879028,1512.905273 1246.647339,1507.467041 1239.947876,1502.683716 
	C1233.472046,1498.060059 1225.833618,1497.168335 1217.180908,1497.607056 
z"/>
<path 
	data-name="Maroua II"
fill="#5A8C51" opacity="1.000000" stroke="none" 
	d="
M983.413086,1387.489136 
	C977.909546,1391.031982 972.005554,1390.653809 966.152344,1388.993042 
	C960.011536,1387.250977 954.363586,1386.510986 947.999756,1389.450562 
	C938.337708,1393.913574 929.321655,1392.459106 922.399353,1383.293823 
	C918.117676,1377.624756 911.305176,1375.782349 905.004028,1374.447510 
	C894.405273,1372.202515 883.537842,1371.120483 872.738220,1369.975464 
	C867.489868,1369.419067 864.057556,1367.137817 862.163513,1362.330933 
	C860.588623,1358.334229 858.323853,1355.650635 853.362549,1355.825684 
	C851.261169,1355.899780 848.674500,1354.694092 847.035706,1353.246582 
	C839.878296,1346.924683 832.987854,1340.300415 825.942749,1333.131836 
	C828.508301,1327.893311 831.678223,1323.531006 833.647400,1318.681152 
	C838.593201,1306.499756 850.154785,1300.983765 858.963562,1292.745361 
	C869.545654,1282.848511 876.064148,1270.980713 877.623230,1256.656738 
	C878.036804,1252.856689 876.729431,1248.819702 875.939392,1244.947266 
	C873.095520,1231.006592 880.590027,1221.812988 890.952148,1214.982544 
	C897.671265,1210.553589 904.664490,1205.596069 913.677368,1205.796509 
	C915.668213,1205.840820 917.729797,1203.200562 919.727478,1201.753296 
	C919.948425,1201.593140 920.039124,1201.153320 920.062073,1200.833984 
	C921.384094,1182.444214 935.452881,1179.056030 950.280762,1175.608154 
	C960.360657,1188.056641 964.300659,1202.780762 967.901672,1217.697388 
	C969.293213,1223.461426 970.883057,1229.331909 973.469727,1234.622437 
	C979.754028,1247.476074 982.129639,1260.871948 982.201965,1275.115601 
	C982.291260,1292.703613 983.415039,1310.289795 984.246582,1327.869385 
	C984.723938,1337.960571 991.117676,1345.647461 995.441833,1354.159180 
	C996.900269,1357.029907 998.524231,1359.816650 1000.422424,1363.280151 
	C995.718079,1365.474487 991.850769,1367.231445 988.023926,1369.072266 
	C978.162964,1373.816406 977.355591,1376.831909 983.413086,1387.489136 
z"/>
</svg>