<svg version="1.1" id="Layer_1" xmlns="http://www.w3.org/2000/svg" xmlns:xlink="http://www.w3.org/1999/xlink" x="0px" y="0px"
	 width="100%" viewBox="0 0 2259 2857" enable-background="new 0 0 2259 2857" xml:space="preserve">

<path data-name="Endom" style="fill: {#B957F6}" fill="#B957F6" opacity="1.000000" stroke="none" 
	d="
M1087.890503,2496.445068 
	C1083.014771,2517.440918 1078.251831,2538.463623 1073.241943,2559.427490 
	C1058.808228,2619.824707 1044.236084,2680.188721 1029.859497,2740.599609 
	C1028.805298,2745.029541 1027.093140,2748.038818 1023.077515,2750.729736 
	C1017.497925,2754.468506 1013.758240,2759.891357 1014.195801,2767.492432 
	C1014.538513,2773.444336 1013.979736,2779.458984 1013.645020,2785.436035 
	C1013.202087,2793.345947 1012.649109,2793.708496 1004.413635,2794.532471 
	C1002.630615,2794.710938 1000.988831,2796.077148 999.192139,2796.405518 
	C997.346558,2796.743408 995.391174,2796.480469 992.368958,2796.480469 
	C993.313171,2799.002686 994.054749,2800.983154 994.966797,2803.419434 
	C991.261414,2806.880859 987.169556,2810.759521 990.060059,2817.422607 
	C978.750671,2819.420166 978.069397,2808.220459 971.872559,2804.615723 
	C965.763794,2808.245361 966.142029,2814.339355 966.492737,2821.316895 
	C964.043762,2820.510498 962.143982,2820.317871 960.800354,2819.351807 
	C958.005432,2817.342529 954.840088,2815.341797 953.082825,2812.547607 
	C951.522522,2810.066162 950.545898,2806.216553 951.279358,2803.503174 
	C952.785339,2797.932373 955.634521,2792.728760 957.880554,2787.352783 
	C959.334045,2783.873779 960.698364,2780.357422 962.311279,2776.338379 
	C959.411133,2777.208008 957.786194,2777.745361 956.134460,2778.181641 
	C948.748657,2780.132080 941.230469,2781.581787 939.225037,2791.006592 
	C938.445129,2794.671875 934.440186,2794.975586 931.738647,2793.652588 
	C925.341370,2790.518555 916.833252,2790.468262 913.718506,2782.115967 
	C913.573242,2781.726318 912.556519,2781.505127 911.939697,2781.492676 
	C911.326416,2781.479980 910.705566,2781.829346 909.496521,2782.202637 
	C909.948730,2784.484131 910.415405,2786.838135 911.029602,2789.936523 
	C903.238281,2786.717773 896.206055,2783.812500 888.173157,2780.493896 
	C890.015625,2787.985840 883.997803,2790.683350 878.883667,2795.863770 
	C886.757507,2794.844727 892.043335,2795.151611 895.496948,2801.796143 
	C897.018677,2804.723633 901.783447,2805.965332 906.425110,2808.794678 
	C898.448853,2812.125244 889.915955,2812.604004 889.126831,2823.510254 
	C884.334717,2819.818604 880.808533,2817.282715 876.410950,2819.327148 
	C873.506409,2820.677490 869.220398,2821.381104 868.087524,2823.643555 
	C866.588135,2826.637451 867.078735,2830.941895 867.596313,2834.556396 
	C868.319702,2839.608154 869.857422,2844.543457 870.759216,2848.323486 
	C866.754578,2854.162354 859.486511,2852.580078 857.760132,2859.255859 
	C856.500000,2860.000000 855.000000,2860.000000 853.020752,2859.223145 
	C851.033020,2854.883789 845.584045,2856.271973 844.683533,2850.908936 
	C842.646729,2838.778076 838.659180,2835.982910 826.584351,2835.263672 
	C823.926392,2835.105713 820.189636,2836.342041 819.880066,2830.924316 
	C828.239685,2830.187256 834.191223,2825.842041 838.019531,2818.721436 
	C837.192810,2815.140381 832.054321,2817.049561 832.183167,2812.471191 
	C832.400879,2804.737061 831.590271,2797.060547 839.173035,2791.853027 
	C841.333374,2790.368896 842.913452,2788.066895 844.894653,2786.290283 
	C851.967712,2779.946777 853.096863,2772.344727 849.809143,2763.773438 
	C846.282227,2754.578613 845.590149,2745.213623 847.062256,2735.446045 
	C847.729004,2731.022461 847.649353,2726.057373 846.271240,2721.877930 
	C844.966675,2717.921631 843.884155,2714.502441 845.230896,2710.407471 
	C846.737183,2705.827393 844.755554,2702.682861 840.399536,2700.922852 
	C836.086060,2699.180176 831.852600,2697.187256 827.437195,2695.757324 
	C790.160828,2683.684570 752.837708,2671.756104 715.554016,2659.705566 
	C667.508606,2644.177002 619.487732,2628.572266 571.450378,2613.018799 
	C569.559692,2612.406494 567.388428,2611.168213 565.722656,2611.615967 
	C558.923035,2613.443115 554.350830,2609.431152 549.436279,2606.149170 
	C544.458557,2602.824707 539.508423,2599.458984 534.550293,2596.105469 
	C525.216980,2589.791504 520.991028,2580.993652 521.761719,2569.772461 
	C521.943542,2567.124268 522.040039,2564.465332 522.351868,2561.831787 
	C523.235352,2554.369141 520.436890,2549.390381 513.606384,2545.724854 
	C503.960541,2540.548584 494.918610,2534.258545 485.405273,2528.817627 
	C480.970093,2526.281006 476.033813,2524.620361 469.813873,2521.902588 
	C467.532990,2515.564453 460.087921,2513.270996 453.179535,2510.352539 
	C452.448975,2510.969482 451.667053,2511.303955 451.484711,2511.841553 
	C450.766357,2513.959473 450.424927,2516.215820 449.605988,2518.287354 
	C444.094910,2532.225586 437.888397,2540.407715 420.414673,2533.760986 
	C415.763123,2531.991455 411.296936,2529.518555 406.505188,2528.386719 
	C400.106445,2526.875000 397.680237,2523.471191 398.185364,2517.040283 
	C398.691406,2510.598145 396.263672,2505.920898 389.887329,2502.849854 
	C383.337799,2499.695312 377.398499,2495.260986 371.236298,2491.317627 
	C358.932648,2483.444580 346.658966,2475.524658 333.664276,2467.168457 
	C334.528320,2455.418701 335.387421,2443.735840 336.282593,2431.562256 
	C327.911469,2432.835449 321.277344,2428.643555 314.489227,2424.279297 
	C308.636902,2420.516357 302.071777,2417.876709 296.110626,2414.263916 
	C292.636841,2412.158691 289.550873,2412.137207 285.738190,2413.005859 
	C240.682220,2423.270996 195.542374,2433.172363 150.536667,2443.650391 
	C141.345276,2445.790527 132.931717,2444.860107 124.791557,2442.478760 
	C122.968414,2438.928955 121.476639,2436.024170 119.984879,2433.119629 
	C119.851051,2426.630615 119.717216,2420.141846 120.338654,2412.206543 
	C122.876678,2401.665527 123.940804,2392.342529 126.723007,2383.564453 
	C128.287216,2378.629150 127.852135,2375.274658 124.582207,2371.958252 
	C120.819984,2368.142578 120.637009,2364.378418 124.506882,2360.731445 
	C130.306534,2355.265869 128.487991,2347.859375 129.642532,2341.249512 
	C130.809784,2334.566895 134.710098,2327.905762 130.390106,2320.972900 
	C129.874847,2320.146240 129.500031,2319.121582 129.418579,2318.158447 
	C129.265564,2316.349365 129.374481,2314.518311 129.374481,2312.857910 
	C130.473618,2312.463379 131.200363,2311.911865 131.674911,2312.078369 
	C135.724228,2313.500488 139.931152,2316.723145 143.708069,2316.263428 
	C156.700668,2314.681396 159.365997,2324.318115 162.965515,2332.731689 
	C165.532059,2338.730713 169.249161,2345.625488 168.233307,2351.375244 
	C167.233215,2357.035645 169.228256,2361.899658 168.611298,2367.843018 
	C175.201843,2355.788330 186.632065,2354.191162 199.581665,2353.234375 
	C196.536942,2348.037354 192.778305,2344.281250 192.347198,2340.175537 
	C191.868408,2335.615723 194.743805,2330.793701 195.598251,2325.986328 
	C197.901047,2313.030029 202.560440,2301.901123 216.120163,2296.955078 
	C217.031982,2296.622559 218.012314,2296.121582 218.636002,2295.413086 
	C222.275909,2291.276611 226.635437,2288.938965 232.193787,2287.898438 
	C237.399231,2286.924316 239.641068,2281.853516 238.277557,2276.562988 
	C237.804443,2274.727051 237.220215,2272.919922 236.656372,2270.995850 
	C237.961563,2270.460693 238.918716,2269.674316 239.757248,2269.784912 
	C248.495728,2270.939941 255.507675,2267.206543 262.244537,2262.312988 
	C265.693756,2259.807617 269.309601,2261.104248 272.519440,2263.022949 
	C274.776825,2264.372314 276.711853,2266.264648 278.775909,2267.933350 
	C288.278931,2275.614990 298.449432,2278.629395 311.120026,2276.537842 
	C326.335022,2274.025879 341.567505,2273.438965 356.717743,2280.567139 
	C367.213989,2285.505859 371.636841,2291.635254 370.365356,2302.651611 
	C370.137878,2304.622559 370.375397,2306.643311 370.325073,2308.639160 
	C370.063690,2319.001709 368.244446,2321.195557 358.189911,2323.349609 
	C351.006531,2324.888672 349.542999,2329.040039 354.398041,2334.519775 
	C359.998199,2340.840820 366.815948,2342.999512 375.062408,2340.363770 
	C378.119354,2339.386719 381.481323,2338.014648 384.459259,2338.460205 
	C388.760132,2339.103516 390.942169,2337.182617 392.108398,2333.961914 
	C393.317963,2330.621826 393.941345,2326.983154 394.264587,2323.424561 
	C395.129486,2313.903076 395.456207,2304.326660 396.556122,2294.836914 
	C396.819641,2292.562988 398.985870,2290.274658 400.750488,2288.451416 
	C407.461731,2281.516357 413.985474,2274.320801 421.312805,2268.084717 
	C427.916962,2262.463867 431.519409,2255.426270 434.847595,2247.762451 
	C437.255493,2242.217773 440.964905,2237.238281 444.093933,2232.006592 
	C444.483215,2232.238037 444.872498,2232.469482 445.261780,2232.700928 
	C445.644043,2229.088623 446.026276,2225.476318 447.002472,2222.143066 
	C452.505127,2226.402832 457.455963,2230.333008 462.310547,2234.378906 
	C466.995544,2238.283691 471.950226,2239.368896 478.058990,2237.815186 
	C483.105774,2236.531738 488.539368,2236.223633 493.766205,2236.420898 
	C496.436554,2236.521729 500.404510,2237.990723 501.423615,2240.024902 
	C506.350220,2249.858398 514.740662,2249.228027 522.994080,2247.472168 
	C535.246216,2244.865723 547.294434,2241.301270 560.357056,2237.903076 
	C560.357056,2227.711182 560.357056,2217.162598 560.357056,2206.854248 
	C573.256287,2203.663818 573.374084,2203.267334 582.679932,2206.032959 
	C594.437805,2209.527344 605.987976,2213.724121 617.601501,2217.694580 
	C618.827026,2218.113770 620.119507,2218.828125 620.971313,2219.774170 
	C630.743774,2230.627197 640.657043,2228.004395 650.694153,2220.243896 
	C651.479919,2219.636475 652.428528,2219.242432 653.230652,2218.652832 
	C656.188416,2216.478271 659.142883,2216.989258 662.601990,2217.678711 
	C671.686829,2219.489014 680.939392,2221.808594 690.080566,2221.630859 
	C700.624146,2221.426270 706.828674,2226.352051 711.991943,2234.290527 
	C715.075012,2239.030518 717.967957,2243.930420 721.441895,2248.371094 
	C726.207397,2254.462402 729.545166,2255.904297 736.097656,2252.602051 
	C743.799438,2248.720703 750.333679,2250.899170 756.963013,2254.180176 
	C768.874146,2260.075195 780.539062,2266.471436 792.491821,2272.277100 
	C802.192078,2276.989014 809.531433,2283.634521 813.033142,2294.053467 
	C816.601135,2304.669434 824.366943,2311.894531 832.934814,2318.388916 
	C842.300049,2325.487549 852.185791,2326.719482 862.612732,2320.566162 
	C868.813416,2316.907227 875.100891,2314.923828 882.519104,2317.621582 
	C887.946411,2319.594971 893.322388,2318.984375 898.250793,2314.701660 
	C901.395447,2311.969238 905.583191,2309.827637 909.644165,2308.875732 
	C920.617859,2306.304688 931.751038,2304.379639 942.866699,2302.463867 
	C948.787476,2301.443359 953.934814,2302.706543 957.730042,2308.161133 
	C961.714966,2313.888672 966.594116,2319.002441 970.476074,2324.791016 
	C974.024780,2330.082764 978.336365,2332.490723 984.694641,2331.657959 
	C992.952454,2330.576172 1000.403198,2332.716797 1007.294739,2337.475098 
	C1009.961548,2339.316650 1013.344666,2341.420166 1016.301025,2341.280518 
	C1023.119141,2340.958252 1026.531128,2345.258545 1030.283691,2349.465576 
	C1035.254761,2355.038330 1034.853149,2358.920166 1028.726562,2363.299316 
	C1026.849365,2364.641357 1024.772339,2366.052734 1022.586365,2366.548096 
	C1016.178345,2368.000732 1014.569275,2372.622559 1013.783997,2378.232666 
	C1013.004700,2383.800293 1012.329834,2389.454590 1010.751770,2394.818359 
	C1009.250122,2399.922363 1009.750916,2403.700684 1014.138000,2407.055420 
	C1021.332764,2412.557617 1023.677002,2420.343750 1023.746887,2429.062744 
	C1023.762878,2431.055664 1023.982544,2433.049316 1024.160034,2435.037842 
	C1025.469971,2449.712402 1031.688843,2460.644287 1045.883911,2466.978760 
	C1061.686768,2474.030762 1076.620728,2482.735107 1087.890503,2496.445068 
z"/>
<path data-name="Nyakokombo" style="fill: {#8ED377}" fill="#8ED377" opacity="1.000000" stroke="none" 
	d="
M2262.000000,1241.143066 
	C2260.753174,1242.319092 2258.969482,1242.219360 2258.343262,1243.022339 
	C2252.474609,1250.550659 2250.343750,1259.596191 2248.337646,1268.672607 
	C2247.341064,1273.181763 2246.284912,1277.677490 2245.125732,1282.747681 
	C2241.950195,1282.938965 2239.035156,1283.208496 2236.116699,1283.253540 
	C2234.471436,1283.279053 2232.687012,1282.436157 2231.193604,1282.836670 
	C2220.418213,1285.725952 2209.770508,1289.118164 2198.937500,1291.755493 
	C2193.231934,1293.144531 2187.212891,1294.060181 2181.375244,1293.881836 
	C2174.278564,1293.664917 2168.614990,1294.967285 2163.952637,1300.844849 
	C2162.156982,1303.108765 2158.377930,1305.199097 2155.615234,1305.063843 
	C2140.315918,1304.314697 2129.229492,1312.354248 2118.587402,1321.622070 
	C2116.834717,1323.148438 2115.128418,1324.777710 2113.660156,1326.571655 
	C2109.605957,1331.524292 2104.840332,1334.227661 2098.086670,1333.438354 
	C2095.900635,1333.182861 2092.539062,1334.363647 2091.296143,1336.051514 
	C2082.923584,1347.420288 2070.312500,1353.223755 2059.405518,1361.265747 
	C2055.809326,1363.917480 2052.776123,1367.334106 2049.497314,1370.413940 
	C2049.037354,1370.846191 2048.550049,1371.824341 2048.241699,1371.759399 
	C2039.424561,1369.902344 2040.610474,1377.859741 2037.992554,1382.092896 
	C2034.085205,1388.410522 2029.676514,1394.328003 2022.649170,1397.461548 
	C2018.717651,1399.214600 2014.627075,1400.678833 2010.500122,1401.911377 
	C2001.112671,1404.714966 1995.385010,1410.703369 1993.630005,1420.398804 
	C1993.512451,1421.048096 1993.550537,1421.965576 1993.143799,1422.287231 
	C1985.467529,1428.356445 1986.153931,1438.559204 1981.391235,1445.928223 
	C1977.845093,1451.415039 1972.900269,1455.997803 1967.980469,1461.673096 
	C1966.041992,1461.673096 1963.115723,1461.673096 1959.836792,1461.673096 
	C1953.544312,1470.837158 1950.210327,1482.266113 1939.218750,1488.760742 
	C1937.478394,1487.890137 1935.225220,1486.762817 1932.985962,1485.642700 
	C1923.018799,1492.162354 1921.553711,1489.204834 1919.636597,1481.472168 
	C1914.147583,1479.727661 1908.662964,1478.747070 1903.991089,1476.247314 
	C1900.541504,1474.401733 1897.859497,1475.783569 1894.785889,1475.669312 
	C1885.302124,1475.316772 1877.773560,1478.239990 1871.825806,1485.680908 
	C1870.969727,1486.751709 1868.787842,1486.762695 1866.428711,1486.520996 
	C1864.520752,1475.230225 1863.174194,1464.700562 1862.347778,1454.130127 
	C1861.416504,1442.218750 1860.195068,1430.252319 1860.483765,1418.343384 
	C1860.829102,1404.104736 1863.747559,1389.887329 1863.565674,1375.686157 
	C1863.268066,1352.427124 1868.071289,1330.184448 1873.711060,1307.926147 
	C1879.906372,1283.475098 1885.538818,1258.953979 1888.484863,1233.785278 
	C1890.478760,1216.751831 1892.314087,1199.408936 1900.390381,1183.658203 
	C1902.811768,1178.936035 1904.476929,1173.832520 1906.714844,1169.008545 
	C1912.577759,1156.370361 1917.594360,1143.202148 1924.769653,1131.347534 
	C1932.314819,1118.882446 1941.848511,1107.599976 1950.792358,1096.016235 
	C1953.143921,1092.970703 1956.180786,1090.122437 1959.493774,1088.203491 
	C1985.976196,1072.862915 2012.584473,1057.739136 2039.210205,1042.647705 
	C2041.467529,1041.368286 2044.082642,1040.214966 2046.614868,1040.003906 
	C2072.098389,1037.882935 2097.605713,1036.050049 2123.091797,1033.962158 
	C2133.671387,1033.095459 2144.230957,1031.930298 2154.774414,1030.687256 
	C2172.559570,1028.590332 2190.324219,1026.323486 2207.859375,1024.759766 
	C2203.217041,1031.200439 2198.724365,1036.945312 2194.438965,1042.840698 
	C2191.424805,1046.987427 2191.229492,1051.790283 2193.626709,1056.052368 
	C2196.521729,1061.199341 2199.854004,1066.232666 2203.753174,1070.647583 
	C2208.304688,1075.801514 2206.706055,1081.453491 2205.506104,1086.636475 
	C2204.551514,1090.760132 2200.090332,1091.861816 2195.792969,1092.095703 
	C2178.589600,1093.031616 2162.953125,1099.485962 2147.257324,1105.871704 
	C2142.585449,1107.772461 2139.830811,1110.438232 2138.056396,1115.202881 
	C2136.436279,1119.552734 2136.135254,1123.418579 2137.669189,1127.719727 
	C2138.656738,1130.488647 2140.240479,1133.787842 2139.542725,1136.287231 
	C2136.419434,1147.480957 2141.401367,1157.062622 2144.458252,1167.137451 
	C2146.317383,1173.264771 2150.222656,1176.596313 2156.160889,1177.999878 
	C2164.874756,1180.059692 2173.654785,1181.868530 2182.293457,1184.203979 
	C2186.311279,1185.290283 2190.035889,1187.430908 2193.943604,1188.965698 
	C2196.695312,1190.046509 2199.477051,1191.139648 2202.341553,1191.825684 
	C2208.146729,1193.215942 2213.970459,1194.711792 2219.875977,1195.437622 
	C2224.213867,1195.970947 2227.120605,1198.108276 2229.981201,1201.020752 
	C2238.822266,1210.021729 2247.733154,1218.956543 2256.781250,1227.748169 
	C2258.051025,1228.982178 2260.237793,1229.272705 2262.000000,1230.000000 
	C2262.000000,1233.428711 2262.000000,1236.857422 2262.000000,1241.143066 
z"/>
<path data-name="Ayos" style="fill: {#97EAF7}" fill="#97EAF7" opacity="1.000000" stroke="none" 
	d="
M1725.478027,569.545532 
	C1754.602173,562.372864 1783.726807,555.201538 1812.850464,548.026917 
	C1824.407593,545.179871 1835.963013,542.325562 1848.011108,538.870117 
	C1849.874268,538.203491 1851.245605,538.141357 1853.282227,538.289551 
	C1857.980469,541.379517 1861.801147,544.647583 1866.118530,547.006592 
	C1869.148193,548.661926 1872.822021,549.745605 1876.265747,549.915283 
	C1884.571777,550.324646 1892.925171,549.753235 1901.234253,550.132019 
	C1909.348145,550.501892 1916.819580,548.818420 1924.496704,546.227661 
	C1930.252930,544.285156 1936.957886,543.593872 1942.979004,544.371155 
	C1951.442261,545.463684 1960.115234,547.411804 1967.878174,550.847412 
	C1978.596924,555.591187 1989.457397,559.288940 2000.969727,561.073914 
	C2006.033447,561.859070 2010.231323,563.902222 2014.418701,566.873230 
	C2060.753906,599.748413 2107.213379,632.448181 2153.654053,665.174316 
	C2154.450684,665.735779 2155.432129,666.034973 2156.994385,666.770691 
	C2172.212158,658.282166 2187.752686,649.613525 2204.454834,640.297058 
	C2204.138428,645.798767 2204.093994,650.020813 2203.619629,654.193970 
	C2201.979492,668.625916 2200.088379,683.030151 2198.567139,697.473938 
	C2198.346191,699.572693 2199.335693,701.959412 2200.256592,703.990112 
	C2204.169189,712.619812 2202.912842,716.209229 2194.348145,720.466064 
	C2190.253906,722.501038 2186.219482,724.661438 2182.206055,726.852783 
	C2178.403076,728.929199 2176.882080,732.220947 2179.289062,735.922424 
	C2181.656494,739.563354 2184.973389,742.939514 2189.971191,741.629639 
	C2193.453369,740.716980 2196.750000,738.977722 2200.014160,737.373779 
	C2207.694824,733.599609 2215.306885,729.685242 2222.445557,726.080566 
	C2231.929688,731.154541 2235.816650,738.460815 2236.241455,748.136169 
	C2236.516846,754.408813 2237.547119,760.653992 2238.375732,766.893311 
	C2238.632568,768.826782 2238.825928,771.098083 2239.934814,772.526794 
	C2243.222656,776.762329 2243.239746,780.904053 2242.864990,786.239929 
	C2242.456055,792.066650 2245.738525,798.139343 2247.335449,804.125244 
	C2248.277832,807.657043 2249.402344,811.189148 2249.828125,814.794006 
	C2250.164062,817.635010 2250.248535,820.850830 2249.259277,823.448608 
	C2241.113770,844.834045 2232.716797,866.123901 2224.343750,887.422119 
	C2219.015625,900.974792 2213.711914,914.539307 2208.161621,928.001221 
	C2206.123291,932.944885 2206.727295,937.465515 2208.173828,942.404785 
	C2211.796387,954.773254 2214.534424,967.415527 2218.539551,979.649353 
	C2219.958252,983.983215 2224.017090,987.452820 2227.814697,992.595703 
	C2225.996094,994.486755 2223.882812,998.548523 2220.774414,999.564026 
	C2211.762451,1002.508179 2209.364502,1008.743774 2209.637451,1017.144226 
	C2209.702148,1019.131470 2209.476318,1021.128052 2208.740723,1023.624268 
	C2190.324219,1026.323486 2172.559570,1028.590332 2154.774414,1030.687256 
	C2144.230957,1031.930298 2133.671387,1033.095459 2123.091797,1033.962158 
	C2097.605713,1036.050049 2072.098389,1037.882935 2046.614868,1040.003906 
	C2044.082642,1040.214966 2041.467529,1041.368286 2039.210205,1042.647705 
	C2012.584473,1057.739136 1985.976196,1072.862915 1959.493774,1088.203491 
	C1956.180786,1090.122437 1953.143921,1092.970703 1950.792358,1096.016235 
	C1941.848511,1107.599976 1932.314819,1118.882446 1924.769653,1131.347534 
	C1917.594360,1143.202148 1912.577759,1156.370361 1906.714844,1169.008545 
	C1904.476929,1173.832520 1902.811768,1178.936035 1900.390381,1183.658203 
	C1892.314087,1199.408936 1890.478760,1216.751831 1888.484863,1233.785278 
	C1885.538818,1258.953979 1879.906372,1283.475098 1873.711060,1307.926147 
	C1868.071289,1330.184448 1863.268066,1352.427124 1863.565674,1375.686157 
	C1863.747559,1389.887329 1860.829102,1404.104736 1860.483765,1418.343384 
	C1860.195068,1430.252319 1861.416504,1442.218750 1862.347778,1454.130127 
	C1863.174194,1464.700562 1864.520752,1475.230225 1865.727417,1486.568359 
	C1865.004150,1495.201660 1857.943237,1498.836060 1853.962280,1504.531372 
	C1853.030273,1505.864990 1849.798828,1505.888794 1847.600952,1505.990723 
	C1835.374146,1506.557983 1823.350220,1505.398071 1811.367188,1502.598145 
	C1805.014160,1501.113647 1798.673218,1501.104248 1792.843750,1506.433228 
	C1788.615845,1510.298096 1780.567627,1509.479126 1779.021973,1517.346680 
	C1778.876343,1518.087646 1776.085815,1518.463745 1774.477051,1518.735352 
	C1767.751953,1519.870972 1762.622070,1522.733643 1761.841187,1531.687012 
	C1756.385010,1526.778564 1751.054443,1524.688965 1744.595703,1524.682007 
	C1742.069214,1524.679443 1739.315430,1521.308472 1737.072266,1519.064697 
	C1732.930664,1514.921875 1731.615112,1515.047974 1728.050781,1519.734253 
	C1726.044067,1522.372559 1723.363647,1524.498535 1720.066772,1527.767578 
	C1720.340576,1532.561523 1720.340576,1532.561523 1715.409180,1536.558838 
	C1720.024780,1541.641602 1724.764648,1546.861328 1729.094360,1551.629272 
	C1725.689575,1561.176025 1718.623413,1561.488892 1711.116211,1561.481812 
	C1709.195312,1569.179321 1703.327026,1572.366699 1696.687256,1575.138428 
	C1689.976929,1577.939697 1687.809814,1583.015259 1689.120361,1590.234985 
	C1690.661743,1598.726440 1687.208740,1603.290039 1678.242798,1603.961792 
	C1673.301392,1604.331909 1668.309448,1604.028076 1663.736572,1604.028076 
	C1660.903076,1607.936401 1658.462036,1611.303467 1654.863525,1616.267090 
	C1653.128906,1612.195312 1652.098022,1609.775269 1650.683960,1606.455933 
	C1645.400391,1605.098877 1639.097534,1603.806763 1632.909180,1608.046143 
	C1631.887573,1608.745850 1629.255005,1608.557007 1628.347290,1607.717896 
	C1623.139771,1602.904053 1616.148438,1599.351196 1615.874756,1590.777466 
	C1615.791382,1588.167847 1614.885010,1585.584595 1614.473145,1581.566528 
	C1616.654053,1571.591431 1624.131714,1565.204712 1625.031738,1556.170288 
	C1617.720337,1552.691772 1612.007446,1552.646729 1605.131470,1556.871948 
	C1599.549561,1560.301880 1592.037109,1560.992798 1585.249390,1561.818970 
	C1583.138550,1562.075684 1580.356201,1559.053589 1578.323975,1557.077393 
	C1576.361206,1555.168945 1574.969238,1552.673584 1572.880371,1549.828125 
	C1571.187012,1551.877808 1569.993896,1552.732300 1569.627197,1553.856445 
	C1565.707153,1565.873291 1557.484619,1575.213867 1550.102783,1585.014404 
	C1546.208618,1590.184570 1543.954468,1595.121094 1548.098267,1601.262329 
	C1544.740112,1604.013306 1542.036865,1606.463135 1539.094849,1608.581299 
	C1535.024292,1611.511719 1533.593018,1614.817993 1533.587036,1620.252441 
	C1533.577515,1628.928223 1531.172607,1637.366089 1520.954346,1640.300293 
	C1518.807739,1640.916626 1516.847900,1642.183716 1515.676025,1642.737793 
	C1515.265503,1646.310425 1514.810425,1649.085327 1514.673340,1651.875732 
	C1514.580811,1653.756470 1514.303223,1656.055176 1515.197388,1657.486694 
	C1520.233032,1665.548950 1518.100952,1672.239136 1512.647705,1679.251343 
	C1506.574951,1687.059937 1501.429443,1695.553467 1505.761841,1706.251709 
	C1505.847656,1706.463623 1504.912109,1707.089355 1503.936646,1708.008911 
	C1495.456665,1701.232178 1482.799927,1706.183472 1475.274170,1697.572021 
	C1465.989624,1703.310425 1457.350708,1708.649658 1448.088257,1714.374390 
	C1443.248413,1710.768066 1436.566406,1709.038086 1435.225220,1701.837891 
	C1433.895752,1694.699951 1430.768188,1688.584717 1425.207520,1682.750854 
	C1427.674438,1682.252441 1429.250366,1682.040161 1430.760864,1681.602417 
	C1432.666260,1681.049805 1434.610718,1680.498779 1436.374878,1679.619141 
	C1440.677368,1677.473633 1443.212036,1670.701660 1441.289795,1666.911865 
	C1438.239624,1660.898560 1431.570435,1656.962891 1427.652344,1660.434937 
	C1419.287842,1667.847534 1411.176514,1666.485229 1401.471558,1664.301025 
	C1396.850098,1663.260864 1391.386597,1664.518677 1385.300781,1660.334473 
	C1382.449341,1672.956421 1368.157349,1669.251831 1362.671753,1678.388184 
	C1356.483154,1678.825317 1349.977783,1680.651855 1344.190063,1679.331543 
	C1337.655762,1677.840698 1331.572510,1673.836182 1325.722900,1670.227783 
	C1324.088135,1669.219482 1323.113159,1665.679565 1323.297363,1663.420044 
	C1324.566284,1647.851196 1326.447144,1632.330811 1327.612183,1616.755859 
	C1327.946411,1612.287109 1327.334717,1607.418945 1325.834351,1603.204590 
	C1321.705688,1591.607910 1316.618042,1580.353516 1312.460571,1568.765991 
	C1310.946045,1564.544678 1310.415039,1559.759155 1310.463379,1555.241943 
	C1310.523315,1549.622681 1310.739746,1543.707031 1312.515503,1538.470947 
	C1315.520508,1529.610229 1310.550903,1525.258301 1304.292480,1521.790161 
	C1301.315186,1520.140381 1297.333130,1519.880493 1293.786133,1519.790771 
	C1289.427734,1519.680420 1286.137939,1518.537598 1283.761353,1514.636230 
	C1275.818115,1501.595947 1266.086060,1489.476074 1262.603516,1474.150269 
	C1261.307495,1468.447144 1257.853760,1464.473755 1253.061157,1461.981934 
	C1249.310425,1460.032104 1244.897217,1459.359497 1240.782593,1458.105835 
	C1223.333130,1452.788574 1205.885376,1447.466309 1188.402222,1442.135254 
	C1188.402222,1438.248291 1188.246582,1435.274780 1188.448120,1432.325806 
	C1188.629150,1429.678101 1189.145142,1427.047119 1189.614014,1424.426636 
	C1190.777466,1417.925049 1186.885010,1412.993652 1184.532227,1407.552856 
	C1179.802368,1396.615479 1180.525391,1393.969604 1189.640869,1386.552368 
	C1190.599243,1385.772583 1191.213379,1384.569458 1192.230347,1383.246582 
	C1187.529785,1374.941772 1183.266235,1366.642334 1178.280396,1358.802124 
	C1172.560913,1349.807983 1169.948853,1340.229614 1169.600342,1329.612549 
	C1169.111084,1314.705933 1165.255493,1300.749268 1155.783691,1288.723877 
	C1152.492676,1284.545776 1149.577881,1280.050659 1146.753296,1275.536255 
	C1145.580933,1273.662476 1144.000977,1271.051147 1144.491821,1269.305176 
	C1146.349731,1262.695679 1147.747192,1256.051880 1152.943115,1250.533081 
	C1168.317383,1234.202881 1184.608765,1219.176636 1204.443359,1208.332764 
	C1208.814697,1205.942993 1213.007935,1203.143921 1216.981445,1200.134888 
	C1220.671387,1197.340698 1224.137695,1194.190186 1227.382690,1190.882812 
	C1232.960205,1185.198120 1237.911865,1178.845825 1243.836060,1173.571045 
	C1249.013672,1168.960815 1251.142212,1163.441895 1251.716553,1156.985474 
	C1251.981323,1154.008911 1252.049072,1150.962524 1251.740356,1147.996094 
	C1250.248291,1133.655396 1257.984741,1123.618774 1269.398071,1118.226440 
	C1283.079956,1111.762207 1297.860718,1106.879150 1313.351074,1106.172729 
	C1331.647461,1105.338135 1349.978149,1105.248779 1368.272705,1104.385742 
	C1380.049438,1103.830322 1391.465576,1104.013062 1402.084839,1110.170288 
	C1405.502075,1112.151733 1409.370850,1113.554321 1413.205444,1114.572144 
	C1419.919434,1116.354126 1426.894409,1119.292358 1433.531250,1118.780029 
	C1447.393433,1117.710327 1461.046387,1114.171753 1474.894287,1112.619141 
	C1498.768799,1109.942383 1518.321411,1099.192505 1535.311035,1082.747559 
	C1538.489990,1079.670654 1541.289917,1076.968018 1542.455688,1072.393433 
	C1544.389893,1064.805176 1549.369507,1060.079224 1557.194824,1057.660889 
	C1566.074829,1054.916748 1574.733398,1051.320190 1583.239014,1047.534302 
	C1594.054443,1042.720581 1594.978271,1037.785400 1587.428345,1028.715210 
	C1582.667480,1022.995728 1582.306641,1018.078308 1587.705566,1012.954102 
	C1592.011353,1008.867615 1593.508667,1004.230103 1593.711914,998.767639 
	C1593.947266,992.442810 1593.682251,986.074524 1594.319824,979.794739 
	C1595.524414,967.929871 1592.797119,958.173035 1581.503418,952.222412 
	C1581.022705,951.969116 1580.855713,951.120300 1580.416870,950.319397 
	C1583.771606,938.000916 1582.448608,926.444214 1574.679077,915.502930 
	C1570.061157,908.999634 1569.124146,901.688171 1574.297607,894.264587 
	C1580.956177,884.709778 1586.829346,874.610535 1593.386108,864.980957 
	C1601.036133,853.745544 1611.140747,846.261353 1625.342285,845.603088 
	C1633.645752,845.218201 1641.935059,844.350586 1650.239380,844.208374 
	C1659.208374,844.054932 1663.030640,848.576843 1661.569702,857.280762 
	C1660.194336,865.475159 1658.216919,873.570496 1656.911377,881.774231 
	C1653.333984,904.257935 1649.811035,897.065369 1666.695557,912.010132 
	C1684.228394,927.528748 1702.765869,940.441895 1728.170288,936.230774 
	C1732.386963,935.531799 1736.820679,936.204407 1741.150879,936.103455 
	C1743.616821,936.045959 1746.076294,935.705688 1750.527588,935.320801 
	C1746.849976,930.203796 1744.604736,926.193909 1741.531738,922.973633 
	C1733.021606,914.054810 1724.160034,905.471436 1715.450195,896.742615 
	C1711.500366,892.784180 1707.580933,888.795288 1703.719604,884.892883 
	C1707.206543,874.225891 1710.742920,864.519714 1713.475830,854.592407 
	C1714.907959,849.389709 1717.829834,848.173706 1722.677979,847.568298 
	C1732.888794,846.293396 1742.967285,843.981018 1753.168335,842.597473 
	C1758.096191,841.929077 1760.454834,839.251892 1762.887329,835.278992 
	C1767.345459,827.998047 1767.115356,819.986084 1767.605103,812.111816 
	C1768.514526,797.494751 1769.144775,782.854004 1769.546875,768.213684 
	C1769.847046,757.282532 1769.605957,746.336609 1769.605957,735.157593 
	C1767.343872,734.275269 1765.278320,733.140747 1763.071167,732.670288 
	C1756.438477,731.256897 1752.087280,726.811218 1750.768555,720.826782 
	C1748.058960,708.530518 1741.229858,699.153076 1732.558838,690.615662 
	C1728.768188,686.883423 1725.513672,682.611389 1721.800415,678.794067 
	C1719.085449,676.003235 1717.619629,673.091187 1717.986084,669.023560 
	C1719.150269,656.104126 1720.070923,643.162415 1721.033203,630.225342 
	C1722.537598,610.000427 1723.998657,589.772278 1725.478027,569.545532 
z"/>
<path data-name="Akonolinga" style="fill: {#0084A8}" fill="#0084A8" opacity="1.000000" stroke="none" 
	d="
M1724.695679,569.641113 
	C1723.998657,589.772278 1722.537598,610.000427 1721.033203,630.225342 
	C1720.070923,643.162415 1719.150269,656.104126 1717.986084,669.023560 
	C1717.619629,673.091187 1719.085449,676.003235 1721.800415,678.794067 
	C1725.513672,682.611389 1728.768188,686.883423 1732.558838,690.615662 
	C1741.229858,699.153076 1748.058960,708.530518 1750.768555,720.826782 
	C1752.087280,726.811218 1756.438477,731.256897 1763.071167,732.670288 
	C1765.278320,733.140747 1767.343872,734.275269 1769.605957,735.157593 
	C1769.605957,746.336609 1769.847046,757.282532 1769.546875,768.213684 
	C1769.144775,782.854004 1768.514526,797.494751 1767.605103,812.111816 
	C1767.115356,819.986084 1767.345459,827.998047 1762.887329,835.278992 
	C1760.454834,839.251892 1758.096191,841.929077 1753.168335,842.597473 
	C1742.967285,843.981018 1732.888794,846.293396 1722.677979,847.568298 
	C1717.829834,848.173706 1714.907959,849.389709 1713.475830,854.592407 
	C1710.742920,864.519714 1707.206543,874.225891 1703.719604,884.892883 
	C1707.580933,888.795288 1711.500366,892.784180 1715.450195,896.742615 
	C1724.160034,905.471436 1733.021606,914.054810 1741.531738,922.973633 
	C1744.604736,926.193909 1746.849976,930.203796 1750.527588,935.320801 
	C1746.076294,935.705688 1743.616821,936.045959 1741.150879,936.103455 
	C1736.820679,936.204407 1732.386963,935.531799 1728.170288,936.230774 
	C1702.765869,940.441895 1684.228394,927.528748 1666.695557,912.010132 
	C1649.811035,897.065369 1653.333984,904.257935 1656.911377,881.774231 
	C1658.216919,873.570496 1660.194336,865.475159 1661.569702,857.280762 
	C1663.030640,848.576843 1659.208374,844.054932 1650.239380,844.208374 
	C1641.935059,844.350586 1633.645752,845.218201 1625.342285,845.603088 
	C1611.140747,846.261353 1601.036133,853.745544 1593.386108,864.980957 
	C1586.829346,874.610535 1580.956177,884.709778 1574.297607,894.264587 
	C1569.124146,901.688171 1570.061157,908.999634 1574.679077,915.502930 
	C1582.448608,926.444214 1583.771606,938.000916 1580.416870,950.319397 
	C1580.855713,951.120300 1581.022705,951.969116 1581.503418,952.222412 
	C1592.797119,958.173035 1595.524414,967.929871 1594.319824,979.794739 
	C1593.682251,986.074524 1593.947266,992.442810 1593.711914,998.767639 
	C1593.508667,1004.230103 1592.011353,1008.867615 1587.705566,1012.954102 
	C1582.306641,1018.078308 1582.667480,1022.995728 1587.428345,1028.715210 
	C1594.978271,1037.785400 1594.054443,1042.720581 1583.239014,1047.534302 
	C1574.733398,1051.320190 1566.074829,1054.916748 1557.194824,1057.660889 
	C1549.369507,1060.079224 1544.389893,1064.805176 1542.455688,1072.393433 
	C1541.289917,1076.968018 1538.489990,1079.670654 1535.311035,1082.747559 
	C1518.321411,1099.192505 1498.768799,1109.942383 1474.894287,1112.619141 
	C1461.046387,1114.171753 1447.393433,1117.710327 1433.531250,1118.780029 
	C1426.894409,1119.292358 1419.919434,1116.354126 1413.205444,1114.572144 
	C1409.370850,1113.554321 1405.502075,1112.151733 1402.084839,1110.170288 
	C1391.465576,1104.013062 1380.049438,1103.830322 1368.272705,1104.385742 
	C1349.978149,1105.248779 1331.647461,1105.338135 1313.351074,1106.172729 
	C1297.860718,1106.879150 1283.079956,1111.762207 1269.398071,1118.226440 
	C1257.984741,1123.618774 1250.248291,1133.655396 1251.740356,1147.996094 
	C1252.049072,1150.962524 1251.981323,1154.008911 1251.716553,1156.985474 
	C1251.142212,1163.441895 1249.013672,1168.960815 1243.836060,1173.571045 
	C1237.911865,1178.845825 1232.960205,1185.198120 1227.382690,1190.882812 
	C1224.137695,1194.190186 1220.671387,1197.340698 1216.981445,1200.134888 
	C1213.007935,1203.143921 1208.814697,1205.942993 1204.443359,1208.332764 
	C1184.608765,1219.176636 1168.317383,1234.202881 1152.943115,1250.533081 
	C1147.747192,1256.051880 1146.349731,1262.695679 1144.491821,1269.305176 
	C1144.000977,1271.051147 1145.580933,1273.662476 1146.753296,1275.536255 
	C1149.577881,1280.050659 1152.492676,1284.545776 1155.783691,1288.723877 
	C1165.255493,1300.749268 1169.111084,1314.705933 1169.600342,1329.612549 
	C1169.948853,1340.229614 1172.560913,1349.807983 1178.280396,1358.802124 
	C1183.266235,1366.642334 1187.529785,1374.941772 1192.230347,1383.246582 
	C1191.213379,1384.569458 1190.599243,1385.772583 1189.640869,1386.552368 
	C1180.525391,1393.969604 1179.802368,1396.615479 1184.532227,1407.552856 
	C1186.885010,1412.993652 1190.777466,1417.925049 1189.614014,1424.426636 
	C1189.145142,1427.047119 1188.629150,1429.678101 1188.448120,1432.325806 
	C1188.246582,1435.274780 1188.402222,1438.248291 1188.402222,1442.135254 
	C1205.885376,1447.466309 1223.333130,1452.788574 1240.782593,1458.105835 
	C1244.897217,1459.359497 1249.310425,1460.032104 1253.061157,1461.981934 
	C1257.853760,1464.473755 1261.307495,1468.447144 1262.603516,1474.150269 
	C1266.086060,1489.476074 1275.818115,1501.595947 1283.761353,1514.636230 
	C1286.137939,1518.537598 1289.427734,1519.680420 1293.786133,1519.790771 
	C1297.333130,1519.880493 1301.315186,1520.140381 1304.292480,1521.790161 
	C1310.550903,1525.258301 1315.520508,1529.610229 1312.515503,1538.470947 
	C1310.739746,1543.707031 1310.523315,1549.622681 1310.463379,1555.241943 
	C1310.415039,1559.759155 1310.946045,1564.544678 1312.460571,1568.765991 
	C1316.618042,1580.353516 1321.705688,1591.607910 1325.834351,1603.204590 
	C1327.334717,1607.418945 1327.946411,1612.287109 1327.612183,1616.755859 
	C1326.447144,1632.330811 1324.566284,1647.851196 1323.297363,1663.420044 
	C1323.113159,1665.679565 1324.088135,1669.219482 1325.722900,1670.227783 
	C1331.572510,1673.836182 1337.655762,1677.840698 1344.190063,1679.331543 
	C1349.977783,1680.651855 1356.483154,1678.825317 1362.671753,1678.388184 
	C1368.157349,1669.251831 1382.449341,1672.956421 1385.300781,1660.334473 
	C1391.386597,1664.518677 1396.850098,1663.260864 1401.471558,1664.301025 
	C1411.176514,1666.485229 1419.287842,1667.847534 1427.652344,1660.434937 
	C1431.570435,1656.962891 1438.239624,1660.898560 1441.289795,1666.911865 
	C1443.212036,1670.701660 1440.677368,1677.473633 1436.374878,1679.619141 
	C1434.610718,1680.498779 1432.666260,1681.049805 1430.760864,1681.602417 
	C1429.250366,1682.040161 1427.674438,1682.252441 1425.207520,1682.750854 
	C1430.768188,1688.584717 1433.895752,1694.699951 1435.225220,1701.837891 
	C1436.566406,1709.038086 1443.248413,1710.768066 1448.088257,1714.374390 
	C1457.350708,1708.649658 1465.989624,1703.310425 1475.274170,1697.572021 
	C1482.799927,1706.183472 1495.456665,1701.232178 1503.936646,1708.008911 
	C1504.912109,1707.089355 1505.847656,1706.463623 1505.761841,1706.251709 
	C1501.429443,1695.553467 1506.574951,1687.059937 1512.647705,1679.251343 
	C1518.100952,1672.239136 1520.233032,1665.548950 1515.197388,1657.486694 
	C1514.303223,1656.055176 1514.580811,1653.756470 1514.673340,1651.875732 
	C1514.810425,1649.085327 1515.265503,1646.310425 1515.676025,1642.737793 
	C1516.847900,1642.183716 1518.807739,1640.916626 1520.954346,1640.300293 
	C1531.172607,1637.366089 1533.577515,1628.928223 1533.587036,1620.252441 
	C1533.593018,1614.817993 1535.024292,1611.511719 1539.094849,1608.581299 
	C1542.036865,1606.463135 1544.740112,1604.013306 1548.098267,1601.262329 
	C1543.954468,1595.121094 1546.208618,1590.184570 1550.102783,1585.014404 
	C1557.484619,1575.213867 1565.707153,1565.873291 1569.627197,1553.856445 
	C1569.993896,1552.732300 1571.187012,1551.877808 1572.880371,1549.828125 
	C1574.969238,1552.673584 1576.361206,1555.168945 1578.323975,1557.077393 
	C1580.356201,1559.053589 1583.138550,1562.075684 1585.249390,1561.818970 
	C1592.037109,1560.992798 1599.549561,1560.301880 1605.131470,1556.871948 
	C1612.007446,1552.646729 1617.720337,1552.691772 1625.031738,1556.170288 
	C1624.131714,1565.204712 1616.654053,1571.591431 1614.342773,1580.758545 
	C1603.720947,1584.106323 1600.509033,1591.592285 1600.227661,1601.468018 
	C1599.718628,1619.331177 1603.469604,1636.470825 1608.782349,1653.305298 
	C1613.420776,1668.003296 1616.214233,1682.968384 1615.608398,1698.337036 
	C1615.110840,1710.959106 1619.281982,1720.568115 1629.344482,1728.549683 
	C1635.195312,1733.190674 1640.209961,1739.473022 1644.056885,1745.935913 
	C1653.129761,1761.178589 1667.084229,1771.672485 1679.276611,1783.860962 
	C1681.680054,1786.263672 1685.643799,1787.456421 1689.108643,1788.376709 
	C1697.394897,1790.577637 1705.840820,1792.171509 1714.160156,1794.258057 
	C1716.673218,1794.888306 1718.982544,1796.330078 1720.875854,1797.173462 
	C1719.719482,1808.734497 1718.609619,1819.831421 1717.505615,1830.869629 
	C1725.507568,1833.781860 1732.286255,1836.175049 1739.010132,1838.713623 
	C1748.920898,1842.455566 1756.408813,1849.552979 1763.798950,1856.788574 
	C1780.677490,1873.313721 1797.527222,1889.869751 1814.547607,1906.247925 
	C1817.872070,1909.447021 1821.836060,1912.012817 1825.643921,1914.671753 
	C1834.077393,1920.560303 1840.075317,1927.771973 1842.195679,1938.371948 
	C1843.181396,1943.299927 1846.225220,1948.293823 1849.586060,1952.175537 
	C1858.136597,1962.050781 1861.333374,1971.902832 1858.334595,1985.620728 
	C1850.683838,2020.619507 1844.907715,2056.032471 1838.608398,2091.320312 
	C1835.459473,2108.959961 1831.888550,2126.600342 1830.182617,2144.400879 
	C1828.425293,2162.738037 1822.039062,2178.931152 1813.286865,2194.818848 
	C1795.151855,2227.739258 1777.867432,2261.127686 1759.804565,2294.088867 
	C1755.015747,2302.827637 1753.477539,2312.007568 1752.160400,2321.552734 
	C1751.325317,2327.604492 1749.321411,2333.495117 1747.844971,2339.445312 
	C1741.343872,2338.035645 1741.349976,2333.355469 1740.670044,2329.737793 
	C1738.273560,2316.987549 1732.362427,2306.088379 1724.433838,2296.036377 
	C1718.468750,2288.473633 1712.425049,2280.928223 1707.098999,2272.921143 
	C1703.436768,2267.415527 1698.526489,2264.871582 1692.466797,2263.771729 
	C1687.564087,2262.881836 1682.600220,2262.319092 1677.711060,2261.366943 
	C1671.597534,2260.176270 1668.885498,2256.909912 1667.681885,2250.728027 
	C1666.102173,2242.615234 1663.261475,2234.635254 1662.656372,2226.472656 
	C1661.799194,2214.911621 1661.475586,2203.122559 1662.763672,2191.637207 
	C1664.496582,2176.184814 1668.076538,2160.945068 1670.615967,2145.572998 
	C1671.006104,2143.210205 1670.695068,2140.321289 1669.651611,2138.194092 
	C1655.437500,2109.214844 1641.169434,2080.259766 1626.585205,2051.465576 
	C1623.151855,2044.686768 1618.706055,2038.381104 1614.340210,2032.126953 
	C1610.841797,2027.115601 1606.697876,2025.802979 1601.505127,2028.647095 
	C1593.382324,2033.096069 1585.406982,2037.930054 1577.878662,2043.313354 
	C1571.492676,2047.879883 1565.859863,2050.345215 1557.846436,2046.453613 
	C1550.160522,2042.721191 1541.690552,2040.301147 1533.317871,2038.384766 
	C1527.041382,2036.948120 1520.902710,2037.669067 1517.216187,2044.915527 
	C1515.700439,2047.895020 1512.031738,2049.944092 1509.045288,2051.980469 
	C1498.538940,2059.145752 1497.532837,2067.479248 1502.421265,2077.847168 
	C1503.939697,2081.067383 1505.012817,2084.497559 1506.989990,2089.659668 
	C1499.998901,2088.353516 1494.640869,2087.352295 1488.597412,2086.222900 
	C1487.399170,2088.177979 1485.095337,2090.282471 1484.858154,2092.598389 
	C1483.543945,2105.425781 1477.514526,2117.412354 1478.249146,2130.580566 
	C1478.450195,2134.183350 1479.085083,2138.058350 1475.495850,2140.640625 
	C1470.537109,2144.208252 1469.798706,2149.240479 1470.244995,2154.826416 
	C1470.509766,2158.139648 1469.619507,2161.768311 1470.669189,2164.755615 
	C1474.428101,2175.451660 1468.925903,2180.929932 1460.061646,2185.131104 
	C1444.275513,2178.319824 1430.608887,2182.138672 1416.452637,2191.768799 
	C1383.894897,2213.916504 1355.470825,2240.988770 1325.215088,2265.859863 
	C1285.914917,2298.165527 1247.223999,2331.211670 1208.007690,2363.620605 
	C1175.708130,2390.313721 1142.925293,2416.421387 1110.580322,2443.059814 
	C1101.970825,2450.150391 1096.109985,2459.305420 1093.972168,2470.633057 
	C1092.433960,2478.783447 1090.275024,2486.816406 1088.141846,2495.673340 
	C1076.620728,2482.735107 1061.686768,2474.030762 1045.883911,2466.978760 
	C1031.688843,2460.644287 1025.469971,2449.712402 1024.160034,2435.037842 
	C1023.982544,2433.049316 1023.762878,2431.055664 1023.746887,2429.062744 
	C1023.677002,2420.343750 1021.332764,2412.557617 1014.138000,2407.055420 
	C1009.750916,2403.700684 1009.250122,2399.922363 1010.751770,2394.818359 
	C1012.329834,2389.454590 1013.004700,2383.800293 1013.783997,2378.232666 
	C1014.569275,2372.622559 1016.178345,2368.000732 1022.586365,2366.548096 
	C1024.772339,2366.052734 1026.849365,2364.641357 1028.726562,2363.299316 
	C1034.853149,2358.920166 1035.254761,2355.038330 1030.283691,2349.465576 
	C1026.531128,2345.258545 1023.119141,2340.958252 1016.301025,2341.280518 
	C1013.344666,2341.420166 1009.961548,2339.316650 1007.294739,2337.475098 
	C1000.403198,2332.716797 992.952454,2330.576172 984.694641,2331.657959 
	C978.336365,2332.490723 974.024780,2330.082764 970.476074,2324.791016 
	C966.594116,2319.002441 961.714966,2313.888672 957.730042,2308.161133 
	C953.934814,2302.706543 948.787476,2301.443359 942.866699,2302.463867 
	C931.751038,2304.379639 920.617859,2306.304688 909.644165,2308.875732 
	C905.583191,2309.827637 901.395447,2311.969238 898.250793,2314.701660 
	C893.322388,2318.984375 887.946411,2319.594971 882.519104,2317.621582 
	C875.100891,2314.923828 868.813416,2316.907227 862.612732,2320.566162 
	C852.185791,2326.719482 842.300049,2325.487549 832.934814,2318.388916 
	C824.366943,2311.894531 816.601135,2304.669434 813.033142,2294.053467 
	C809.531433,2283.634521 802.192078,2276.989014 792.491821,2272.277100 
	C780.539062,2266.471436 768.874146,2260.075195 756.963013,2254.180176 
	C750.333679,2250.899170 743.799438,2248.720703 736.097656,2252.602051 
	C729.545166,2255.904297 726.207397,2254.462402 721.441895,2248.371094 
	C717.967957,2243.930420 715.075012,2239.030518 711.991943,2234.290527 
	C706.828674,2226.352051 700.624146,2221.426270 690.080566,2221.630859 
	C680.939392,2221.808594 671.686829,2219.489014 662.601990,2217.678711 
	C659.142883,2216.989258 656.188416,2216.478271 653.230652,2218.652832 
	C652.428528,2219.242432 651.479919,2219.636475 650.694153,2220.243896 
	C640.657043,2228.004395 630.743774,2230.627197 620.971313,2219.774170 
	C620.119507,2218.828125 618.827026,2218.113770 617.601501,2217.694580 
	C605.987976,2213.724121 594.437805,2209.527344 582.679932,2206.032959 
	C573.374084,2203.267334 573.256287,2203.663818 560.357056,2206.854248 
	C560.357056,2217.162598 560.357056,2227.711182 560.357056,2237.903076 
	C547.294434,2241.301270 535.246216,2244.865723 522.994080,2247.472168 
	C514.740662,2249.228027 506.350220,2249.858398 501.423615,2240.024902 
	C500.404510,2237.990723 496.436554,2236.521729 493.766205,2236.420898 
	C488.539368,2236.223633 483.105774,2236.531738 478.058990,2237.815186 
	C471.950226,2239.368896 466.995544,2238.283691 462.310547,2234.378906 
	C457.455963,2230.333008 452.505127,2226.402832 447.002441,2222.143066 
	C448.085693,2218.684082 449.809326,2215.527344 451.423279,2212.315430 
	C452.445007,2210.282471 454.277985,2208.060303 454.063873,2206.107666 
	C453.196136,2198.194092 457.498627,2192.707031 462.310120,2187.678223 
	C468.256256,2181.463135 471.677521,2174.194824 473.455017,2165.962158 
	C467.281006,2156.564697 461.249451,2147.069092 454.858673,2137.821777 
	C452.415222,2134.285889 451.305969,2131.089844 452.537445,2126.735352 
	C453.558136,2123.126221 453.380463,2119.178223 453.746063,2115.248047 
	C461.390442,2110.228760 469.569336,2104.858398 478.392975,2099.064697 
	C484.073425,2104.579102 490.319427,2101.003174 496.980835,2098.744385 
	C504.751678,2096.109131 512.883484,2094.538330 522.019897,2092.209717 
	C523.656982,2081.560059 531.289062,2072.703369 537.872620,2063.223877 
	C545.397827,2052.388428 556.252869,2047.113281 568.713013,2045.002441 
	C571.934387,2044.456787 575.588135,2046.463257 580.223511,2047.582275 
	C580.673828,2045.372192 581.669312,2042.967651 581.532959,2040.629028 
	C581.264404,2036.025269 580.341309,2031.461548 579.737183,2026.875000 
	C578.940002,2020.821655 575.468872,2016.539795 569.339722,2015.374146 
	C560.872253,2013.763672 552.288452,2011.569214 543.781189,2011.679565 
	C534.124268,2011.804810 528.727539,2006.506104 525.437378,1999.364990 
	C519.903625,1987.354370 515.492249,1974.894775 515.506714,1961.144775 
	C515.512390,1955.798218 512.528870,1950.448486 510.650391,1943.681396 
	C510.657196,1936.981812 512.036072,1931.456909 510.945312,1926.472656 
	C508.852814,1916.911133 515.542786,1910.177612 517.363037,1901.960938 
	C517.565857,1901.045410 519.385254,1900.361816 520.567200,1899.812134 
	C524.492065,1897.987305 528.344666,1895.872314 532.452026,1894.603394 
	C539.929138,1892.293335 549.331055,1894.056885 550.224426,1905.869995 
	C550.668823,1911.746948 551.954590,1917.560303 552.754639,1922.723755 
	C562.554993,1925.610596 571.386719,1928.212158 581.722473,1931.256714 
	C581.589050,1931.316650 583.116272,1930.697510 584.584167,1929.960083 
	C590.712646,1926.881104 594.926331,1918.883911 603.861877,1922.715454 
	C604.711609,1923.079834 606.983643,1920.622681 608.335449,1919.224243 
	C611.781799,1915.659302 614.750793,1912.036621 620.563965,1911.596802 
	C625.138916,1911.250732 626.630310,1906.938110 623.870178,1902.562988 
	C620.166870,1896.692749 616.005432,1891.052002 611.505127,1885.768921 
	C609.167603,1883.024902 606.965942,1880.895752 610.040222,1875.823853 
	C614.463501,1876.270142 619.687561,1876.391846 624.732422,1877.405396 
	C631.570496,1878.779297 638.300110,1880.735107 645.020691,1882.637451 
	C649.371399,1883.869263 652.871277,1882.759644 655.706909,1879.428955 
	C658.369934,1876.301147 658.066772,1873.128296 656.683350,1869.247681 
	C652.693787,1858.057617 649.318237,1846.648438 645.756470,1835.497192 
	C654.614929,1825.534912 664.295044,1823.403320 676.412598,1828.541382 
	C689.040039,1833.895752 696.241089,1845.258911 695.030701,1857.942749 
	C694.730957,1861.084229 694.391785,1864.221802 694.093567,1867.137085 
	C700.468201,1868.976318 705.456482,1870.157349 710.490051,1866.462036 
	C711.974670,1865.372192 714.985229,1865.486694 716.953491,1866.118164 
	C720.648315,1867.303711 724.093140,1869.268433 726.957581,1870.592651 
	C729.761963,1881.932007 727.219543,1891.438354 722.845642,1900.661987 
	C720.847595,1904.875366 718.931274,1909.131226 716.804016,1913.278687 
	C714.112183,1918.526855 715.356384,1922.945068 719.404236,1926.792480 
	C724.550354,1931.683472 729.986755,1935.805298 737.810242,1935.076416 
	C739.761780,1934.894653 741.859436,1936.281250 744.454163,1937.131958 
	C742.764404,1940.072266 741.517273,1942.242310 739.701965,1945.401001 
	C744.916077,1947.056885 749.385010,1948.476196 753.331665,1949.729614 
	C756.274536,1957.371094 751.609497,1961.723267 748.310608,1966.646118 
	C743.989502,1973.094727 747.393555,1980.817261 755.044739,1982.174316 
	C758.901001,1982.858154 762.799194,1983.305786 766.820740,1983.880493 
	C770.427368,1978.569458 768.742188,1970.227783 778.609253,1969.641235 
	C787.927124,1969.087524 787.516479,1978.079102 793.364929,1981.682129 
	C799.536560,1975.639893 805.596497,1969.706787 812.410034,1963.036011 
	C812.164978,1960.492188 811.844360,1957.164673 811.393799,1952.488770 
	C808.238892,1954.498291 806.431702,1955.267700 805.135376,1956.552490 
	C802.201294,1959.460205 798.198730,1961.130737 795.358215,1958.581665 
	C792.719910,1956.213867 789.666809,1950.383423 790.809326,1948.455078 
	C794.400024,1942.393921 793.451477,1935.563477 795.872314,1929.512939 
	C799.236633,1921.104370 798.626221,1918.921997 792.068604,1913.209717 
	C789.701538,1911.148071 787.398254,1908.665527 786.018372,1905.899902 
	C783.956299,1901.767090 782.736816,1897.213745 781.077515,1892.613770 
	C788.939941,1891.510132 794.987244,1888.755981 795.009460,1879.137451 
	C795.020569,1874.310303 798.731445,1871.856201 803.317017,1870.446289 
	C810.210388,1868.326538 816.147888,1864.833130 818.219238,1857.148193 
	C818.696655,1855.376709 819.294800,1853.637817 820.054810,1851.181396 
	C823.424438,1852.869507 826.250732,1853.868408 828.565613,1855.565308 
	C830.765503,1857.177979 832.430603,1859.520386 834.330811,1861.541870 
	C835.033997,1861.351685 835.737122,1861.161499 836.440308,1860.971313 
	C836.440308,1854.785400 836.440308,1848.599609 836.440308,1842.614746 
	C847.238647,1840.017700 842.035950,1849.013550 844.203613,1850.908569 
	C851.424744,1850.487671 857.839539,1850.113770 864.492798,1849.725830 
	C865.505188,1855.130127 866.254517,1859.129883 867.225769,1864.314331 
	C871.142639,1861.803589 873.786804,1860.108643 876.907471,1858.108276 
	C879.330994,1859.860229 881.848267,1861.679932 884.666565,1863.717285 
	C881.974976,1867.042847 880.002747,1869.479614 877.780396,1872.225464 
	C884.620117,1879.170288 891.622498,1884.477417 901.503052,1886.673828 
	C901.918518,1882.867065 902.257751,1879.758911 902.683777,1875.854980 
	C918.290649,1878.541870 926.019653,1869.959717 929.994568,1857.346680 
	C935.653442,1856.725708 940.466248,1856.197632 944.694580,1855.733643 
	C945.463928,1854.228516 945.987976,1853.660156 946.025818,1853.061157 
	C946.605774,1843.872559 942.099609,1833.926636 950.151794,1825.835083 
	C950.512634,1825.472412 950.272034,1824.541992 950.372559,1823.885254 
	C951.665344,1815.443970 953.034851,1814.074707 961.210083,1812.229736 
	C967.360229,1810.841919 973.476624,1809.293335 979.573914,1807.686646 
	C983.999390,1806.520386 986.475647,1803.994873 984.732239,1797.694092 
	C976.826477,1800.627808 973.626404,1795.468872 970.457031,1789.463745 
	C968.575073,1785.897827 965.087646,1784.262817 960.524170,1783.951416 
	C954.694519,1783.553467 952.456360,1779.661011 954.081787,1774.231689 
	C954.786255,1771.878540 956.427490,1769.805664 957.724182,1767.459106 
	C961.378113,1768.947510 964.306519,1770.140259 968.215454,1771.732544 
	C969.424683,1767.276733 970.216675,1763.488159 971.515808,1759.882202 
	C972.357910,1757.544678 973.460327,1754.902832 975.271790,1753.379272 
	C984.944153,1745.245605 990.589050,1735.403198 990.344604,1722.428711 
	C989.930115,1700.436157 989.885864,1678.435913 989.403198,1656.445190 
	C989.148010,1644.820801 988.061401,1633.465088 983.506470,1622.308594 
	C971.215820,1592.205078 955.614990,1564.221802 935.513733,1538.569824 
	C922.849121,1522.407959 908.226196,1508.215454 892.205505,1495.898560 
	C866.618713,1476.227051 840.391418,1457.246582 811.445679,1442.497925 
	C805.833984,1439.638428 799.929260,1436.752563 795.354065,1432.571777 
	C780.845886,1419.315186 766.902954,1405.439941 752.741455,1391.803955 
	C761.446960,1387.002197 770.040466,1381.979370 778.903320,1377.488037 
	C783.626892,1375.094482 786.378052,1371.770630 788.719910,1366.972534 
	C799.518066,1344.848755 803.697510,1320.999634 808.001038,1297.140503 
	C808.285950,1295.561157 808.755859,1294.015137 809.212158,1292.158813 
	C810.879211,1292.158813 812.293335,1291.814941 813.449280,1292.215698 
	C820.026306,1294.495972 826.595581,1294.279663 832.989929,1291.923950 
	C841.427246,1288.815430 849.422363,1291.923218 857.480652,1293.334106 
	C866.798523,1294.965210 875.884949,1295.177368 886.018982,1291.801758 
	C882.831055,1284.145264 880.143250,1276.761108 876.741455,1269.721924 
	C870.508057,1256.823364 871.606323,1243.192871 871.991150,1229.588379 
	C872.009644,1228.934082 872.075195,1228.172485 872.413086,1227.651855 
	C882.366089,1212.314941 881.324097,1193.260498 889.752502,1177.249634 
	C896.345947,1164.724609 903.452087,1152.807617 914.766846,1144.244385 
	C930.941956,1132.002808 947.550659,1120.326538 964.158447,1108.671387 
	C967.018066,1106.664429 970.692383,1105.527344 974.160583,1104.722656 
	C1023.355469,1093.309570 1072.558960,1081.930786 1121.823242,1070.822632 
	C1128.044067,1069.420044 1132.701172,1067.466187 1135.765137,1061.259155 
	C1137.891602,1056.951172 1142.094116,1053.640259 1145.479248,1049.986084 
	C1161.298096,1032.910156 1176.902344,1015.625244 1193.091919,998.907410 
	C1203.031372,988.643677 1213.758301,979.122681 1224.437378,969.611389 
	C1226.659424,967.632324 1230.239380,966.178894 1233.173706,966.212585 
	C1238.774292,966.276917 1243.589355,964.661194 1248.313354,962.070740 
	C1255.895142,957.913208 1263.652832,954.053772 1271.068726,949.620850 
	C1282.270630,942.924744 1291.945068,926.585510 1287.009644,913.999573 
	C1285.326538,909.707336 1286.454956,906.278687 1290.177002,903.601318 
	C1290.978027,903.025146 1291.608398,902.210632 1292.312866,901.501465 
	C1333.402832,860.141846 1374.574219,818.862671 1415.557495,777.397522 
	C1452.776245,739.741089 1489.842407,701.933350 1526.872803,664.091370 
	C1545.024658,645.541687 1562.815918,626.637451 1581.098511,608.219238 
	C1583.911621,605.385254 1588.303345,603.551025 1592.291138,602.537781 
	C1632.891357,592.221558 1673.558594,582.169189 1714.209229,572.051270 
	C1717.436035,571.248108 1720.678223,570.506714 1724.695679,569.641113 
z"/>
<path data-name="Mengang" style="fill: {#DA6758}" fill="#DA6758" opacity="1.000000" stroke="none" 
	d="
M752.158264,1392.013306 
	C766.902954,1405.439941 780.845886,1419.315186 795.354065,1432.571777 
	C799.929260,1436.752563 805.833984,1439.638428 811.445679,1442.497925 
	C840.391418,1457.246582 866.618713,1476.227051 892.205505,1495.898560 
	C908.226196,1508.215454 922.849121,1522.407959 935.513733,1538.569824 
	C955.614990,1564.221802 971.215820,1592.205078 983.506470,1622.308594 
	C988.061401,1633.465088 989.148010,1644.820801 989.403198,1656.445190 
	C989.885864,1678.435913 989.930115,1700.436157 990.344604,1722.428711 
	C990.589050,1735.403198 984.944153,1745.245605 975.271790,1753.379272 
	C973.460327,1754.902832 972.357910,1757.544678 971.515808,1759.882202 
	C970.216675,1763.488159 969.424683,1767.276733 968.215454,1771.732544 
	C964.306519,1770.140259 961.378113,1768.947510 957.724182,1767.459106 
	C956.427490,1769.805664 954.786255,1771.878540 954.081787,1774.231689 
	C952.456360,1779.661011 954.694519,1783.553467 960.524170,1783.951416 
	C965.087646,1784.262817 968.575073,1785.897827 970.457031,1789.463745 
	C973.626404,1795.468872 976.826477,1800.627808 984.732239,1797.694092 
	C986.475647,1803.994873 983.999390,1806.520386 979.573914,1807.686646 
	C973.476624,1809.293335 967.360229,1810.841919 961.210083,1812.229736 
	C953.034851,1814.074707 951.665344,1815.443970 950.372559,1823.885254 
	C950.272034,1824.541992 950.512634,1825.472412 950.151794,1825.835083 
	C942.099609,1833.926636 946.605774,1843.872559 946.025818,1853.061157 
	C945.987976,1853.660156 945.463928,1854.228516 944.694580,1855.733643 
	C940.466248,1856.197632 935.653442,1856.725708 929.994568,1857.346680 
	C926.019653,1869.959717 918.290649,1878.541870 902.683777,1875.854980 
	C902.257751,1879.758911 901.918518,1882.867065 901.503052,1886.673828 
	C891.622498,1884.477417 884.620117,1879.170288 877.780396,1872.225464 
	C880.002747,1869.479614 881.974976,1867.042847 884.666565,1863.717285 
	C881.848267,1861.679932 879.330994,1859.860229 876.907471,1858.108276 
	C873.786804,1860.108643 871.142639,1861.803589 867.225769,1864.314331 
	C866.254517,1859.129883 865.505188,1855.130127 864.492798,1849.725830 
	C857.839539,1850.113770 851.424744,1850.487671 844.203613,1850.908569 
	C842.035950,1849.013550 847.238647,1840.017700 836.440308,1842.614746 
	C836.440308,1848.599609 836.440308,1854.785400 836.440308,1860.971313 
	C835.737122,1861.161499 835.033997,1861.351685 834.330811,1861.541870 
	C832.430603,1859.520386 830.765503,1857.177979 828.565613,1855.565308 
	C826.250732,1853.868408 823.424438,1852.869507 820.054810,1851.181396 
	C819.294800,1853.637817 818.696655,1855.376709 818.219238,1857.148193 
	C816.147888,1864.833130 810.210388,1868.326538 803.317017,1870.446289 
	C798.731445,1871.856201 795.020569,1874.310303 795.009460,1879.137451 
	C794.987244,1888.755981 788.939941,1891.510132 781.077515,1892.613770 
	C782.736816,1897.213745 783.956299,1901.767090 786.018372,1905.899902 
	C787.398254,1908.665527 789.701538,1911.148071 792.068604,1913.209717 
	C798.626221,1918.921997 799.236633,1921.104370 795.872314,1929.512939 
	C793.451477,1935.563477 794.400024,1942.393921 790.809326,1948.455078 
	C789.666809,1950.383423 792.719910,1956.213867 795.358215,1958.581665 
	C798.198730,1961.130737 802.201294,1959.460205 805.135376,1956.552490 
	C806.431702,1955.267700 808.238892,1954.498291 811.393799,1952.488770 
	C811.844360,1957.164673 812.164978,1960.492188 812.410034,1963.036011 
	C805.596497,1969.706787 799.536560,1975.639893 793.364929,1981.682129 
	C787.516479,1978.079102 787.927124,1969.087524 778.609253,1969.641235 
	C768.742188,1970.227783 770.427368,1978.569458 766.820740,1983.880493 
	C762.799194,1983.305786 758.901001,1982.858154 755.044739,1982.174316 
	C747.393555,1980.817261 743.989502,1973.094727 748.310608,1966.646118 
	C751.609497,1961.723267 756.274536,1957.371094 753.331665,1949.729614 
	C749.385010,1948.476196 744.916077,1947.056885 739.701965,1945.401001 
	C741.517273,1942.242310 742.764404,1940.072266 744.454163,1937.131958 
	C741.859436,1936.281250 739.761780,1934.894653 737.810242,1935.076416 
	C729.986755,1935.805298 724.550354,1931.683472 719.404236,1926.792480 
	C715.356384,1922.945068 714.112183,1918.526855 716.804016,1913.278687 
	C718.931274,1909.131226 720.847595,1904.875366 722.845642,1900.661987 
	C727.219543,1891.438354 729.761963,1881.932007 726.957581,1870.592651 
	C724.093140,1869.268433 720.648315,1867.303711 716.953491,1866.118164 
	C714.985229,1865.486694 711.974670,1865.372192 710.490051,1866.462036 
	C705.456482,1870.157349 700.468201,1868.976318 694.093567,1867.137085 
	C694.391785,1864.221802 694.730957,1861.084229 695.030701,1857.942749 
	C696.241089,1845.258911 689.040039,1833.895752 676.412598,1828.541382 
	C664.295044,1823.403320 654.614929,1825.534912 645.756470,1835.497192 
	C649.318237,1846.648438 652.693787,1858.057617 656.683350,1869.247681 
	C658.066772,1873.128296 658.369934,1876.301147 655.706909,1879.428955 
	C652.871277,1882.759644 649.371399,1883.869263 645.020691,1882.637451 
	C638.300110,1880.735107 631.570496,1878.779297 624.732422,1877.405396 
	C619.687561,1876.391846 614.463501,1876.270142 610.040222,1875.823853 
	C606.965942,1880.895752 609.167603,1883.024902 611.505127,1885.768921 
	C616.005432,1891.052002 620.166870,1896.692749 623.870178,1902.562988 
	C626.630310,1906.938110 625.138916,1911.250732 620.563965,1911.596802 
	C614.750793,1912.036621 611.781799,1915.659302 608.335449,1919.224243 
	C606.983643,1920.622681 604.711609,1923.079834 603.861877,1922.715454 
	C594.926331,1918.883911 590.712646,1926.881104 584.584167,1929.960083 
	C583.116272,1930.697510 581.589050,1931.316650 581.722473,1931.256714 
	C571.386719,1928.212158 562.554993,1925.610596 552.754639,1922.723755 
	C551.954590,1917.560303 550.668823,1911.746948 550.224426,1905.869995 
	C549.331055,1894.056885 539.929138,1892.293335 532.452026,1894.603394 
	C528.344666,1895.872314 524.492065,1897.987305 520.567200,1899.812134 
	C519.385254,1900.361816 517.565857,1901.045410 517.363037,1901.960938 
	C515.542786,1910.177612 508.852814,1916.911133 510.945312,1926.472656 
	C512.036072,1931.456909 510.657196,1936.981812 510.277710,1943.041626 
	C506.870575,1945.411865 503.441437,1946.771484 500.313782,1948.636475 
	C490.319855,1954.596436 485.788849,1953.882690 478.541626,1944.818970 
	C480.196960,1937.307007 488.203888,1931.800415 485.609039,1922.092285 
	C477.059296,1924.174683 471.083008,1920.050781 466.480347,1913.457886 
	C461.048157,1905.676758 461.287628,1902.302979 467.721497,1893.445435 
	C463.453186,1888.462158 461.425476,1881.456543 454.273346,1878.552734 
	C452.687378,1877.908813 450.940277,1875.919434 450.582794,1874.265259 
	C447.448975,1859.764282 444.007874,1845.285645 441.901672,1830.621826 
	C440.487274,1820.774658 439.993134,1810.272095 451.645142,1804.452637 
	C449.726898,1798.072144 448.036011,1792.447876 446.045532,1785.826904 
	C456.433228,1779.721313 466.671936,1773.689453 476.927887,1767.687012 
	C478.937378,1766.510742 480.927277,1765.234009 483.074005,1764.371338 
	C491.620087,1760.937012 498.231659,1756.010986 497.715057,1747.001343 
	C504.498474,1743.454468 510.453278,1740.804932 515.903564,1737.357666 
	C521.107788,1734.065796 524.609863,1739.295044 528.797852,1737.822144 
	C534.108032,1736.614258 539.448059,1735.520996 544.715210,1734.148071 
	C547.189941,1733.502930 549.601135,1732.471558 551.889771,1731.315918 
	C553.019592,1730.745361 553.896118,1729.568359 554.734070,1728.540894 
	C563.751831,1717.484253 575.444946,1713.282837 589.298767,1715.762939 
	C596.254761,1717.008301 601.340393,1714.736938 606.467529,1710.353027 
	C610.966492,1706.506226 616.290588,1703.624390 622.364563,1699.572998 
	C619.992188,1694.332642 617.976257,1688.427368 614.809448,1683.222534 
	C609.974304,1675.275513 605.020020,1667.211548 598.876160,1660.299561 
	C591.574890,1652.085327 591.604553,1642.968628 592.748840,1633.286255 
	C593.058533,1630.665649 593.501831,1627.888550 594.656982,1625.568359 
	C601.961853,1610.896484 601.008667,1595.121094 599.999817,1579.678833 
	C599.405396,1570.579712 595.838562,1561.656860 593.448792,1552.697388 
	C590.369568,1541.153076 586.772766,1529.735352 584.050110,1518.110474 
	C580.596985,1503.366821 590.375244,1486.179565 605.059937,1484.089233 
	C618.384155,1482.192139 628.300476,1475.455078 638.656555,1468.155640 
	C658.029663,1454.500732 676.392456,1439.776123 692.834839,1422.630859 
	C700.022217,1415.136353 708.574829,1409.499878 719.025574,1407.004517 
	C730.780823,1404.197510 741.392883,1398.623657 752.158264,1392.013306 
z"/>
</svg>