<svg version="1.1" id="Layer_1" xmlns="http://www.w3.org/2000/svg" xmlns:xlink="http://www.w3.org/1999/xlink" x="0px" y="0px"
	 width="100%" viewBox="0 0 2167 2708" enable-background="new 0 0 2167 2708" xml:space="preserve">

<path 
data-name="Nguti"
fill="#988BF0" opacity="1.000000" stroke="none" 
	d="
M761.268433,1494.835205 
	C757.080200,1496.718140 752.892029,1498.600952 748.848206,1500.418945 
	C743.636658,1493.541138 743.204590,1485.378540 750.920166,1479.347900 
	C760.366455,1471.964722 760.156738,1463.903809 758.539551,1453.954956 
	C757.693176,1448.747437 758.218750,1443.422607 755.160034,1438.645020 
	C751.869751,1433.505859 750.745178,1428.225830 756.519043,1423.555054 
	C749.552124,1417.822754 755.163696,1406.955933 745.784180,1402.258789 
	C739.170227,1403.805786 735.284424,1415.848389 723.302368,1406.785278 
	C719.824829,1402.882935 715.168030,1395.544434 706.850891,1392.080444 
	C705.465637,1391.503540 704.036133,1390.109863 703.427246,1388.738403 
	C698.628418,1377.930176 688.455933,1376.387695 678.715271,1374.577271 
	C665.183228,1372.062012 658.599976,1366.189819 655.615234,1352.822021 
	C655.254089,1351.204590 654.668335,1349.629028 654.408447,1347.998779 
	C652.980713,1339.041992 653.404846,1338.509644 662.278381,1335.018433 
	C665.345337,1333.811523 668.131775,1331.885254 671.207275,1330.708130 
	C674.520386,1329.440186 677.987488,1328.514893 681.450806,1327.714844 
	C685.300110,1326.825684 689.229980,1326.291992 693.108337,1325.520630 
	C697.642761,1324.618774 700.168091,1321.832642 702.546570,1317.726685 
	C708.581055,1307.309326 713.949158,1296.695679 717.148499,1285.064331 
	C717.665344,1283.185425 717.858459,1281.217529 718.280151,1278.846436 
	C710.537415,1273.779785 705.802734,1266.927002 706.064209,1257.310181 
	C698.956482,1254.740723 693.552612,1257.568604 688.660217,1261.919800 
	C682.687073,1267.232422 676.415588,1270.262695 668.150757,1267.062866 
	C666.174561,1266.297974 663.092834,1267.317505 660.910950,1268.346313 
	C652.860474,1272.142456 644.959778,1276.258545 637.035278,1280.317505 
	C634.739868,1281.493286 632.553223,1282.881348 629.706665,1284.523926 
	C618.765808,1270.877808 601.600647,1266.931030 587.501709,1257.966187 
	C575.952576,1250.622925 563.721375,1250.463013 551.019043,1253.899292 
	C543.004211,1256.067505 534.787048,1257.658447 527.007019,1260.467651 
	C521.158997,1262.579468 515.825684,1266.151855 510.344421,1269.219116 
	C508.923584,1270.014282 507.888123,1271.467651 506.537659,1272.423950 
	C498.697662,1277.976074 491.877106,1275.701416 490.610138,1266.300903 
	C489.398407,1257.310425 486.029724,1249.346680 480.204193,1243.005371 
	C473.082336,1235.252930 465.233521,1227.873413 456.639526,1221.842529 
	C445.806458,1214.240479 434.114319,1207.764038 422.389954,1201.563843 
	C413.924591,1197.087158 404.728271,1194.013916 395.999969,1190.005371 
	C390.609894,1187.529907 384.504608,1185.479126 380.424164,1181.493408 
	C367.293274,1168.667725 350.867035,1161.339844 335.298309,1152.519897 
	C326.076141,1147.295288 316.931702,1141.933472 307.754120,1136.630371 
	C302.230652,1133.438599 300.568512,1128.130493 300.390045,1122.307373 
	C300.023010,1110.329224 299.911377,1098.343140 299.755554,1086.359497 
	C299.738495,1085.048218 299.922455,1083.663818 300.347992,1082.428711 
	C303.042114,1074.608887 306.030457,1066.885132 308.537506,1059.007568 
	C311.714172,1049.025513 306.835663,1041.264282 301.412720,1033.419922 
	C295.864410,1025.394287 288.387360,1018.451355 285.596802,1007.816650 
	C288.871643,1006.546997 291.768585,1005.423828 295.846802,1003.842712 
	C292.890411,997.668030 290.375854,991.558960 287.107513,985.883972 
	C284.837799,981.942871 284.806915,977.894287 288.527435,974.870728 
	C290.823700,973.004639 293.350647,971.422485 296.397614,969.273010 
	C290.537231,960.176331 293.056183,951.722534 297.991669,943.338257 
	C300.001678,939.923706 301.589325,936.184021 302.815308,932.412354 
	C303.592896,930.019897 304.415894,926.714905 303.383087,924.818970 
	C298.434937,915.735840 296.214813,906.589111 301.383575,895.929199 
	C296.613983,896.207214 293.087158,896.412842 289.793701,896.604797 
	C286.755829,891.742737 292.456512,891.897034 292.950134,889.270081 
	C290.343994,887.143616 287.545746,884.860474 283.742554,881.757263 
	C282.969727,882.056213 280.949066,882.837952 278.353455,883.842041 
	C276.087219,882.278015 273.412781,880.432251 270.777527,878.613525 
	C266.813080,879.644165 263.036316,880.626038 259.146637,881.637268 
	C258.152740,880.272217 257.051178,879.331726 256.681793,878.160400 
	C253.975494,869.578369 251.267303,867.846924 242.759613,867.818420 
	C237.551361,867.800842 232.362564,866.382202 227.136124,866.055969 
	C222.629211,865.774597 218.040131,865.801453 213.563721,866.333862 
	C209.401031,866.828918 205.339172,868.171631 200.706238,869.265503 
	C193.013489,859.476501 182.367950,858.546265 170.631805,859.953064 
	C162.946869,860.874207 155.032791,850.816223 156.570221,843.149841 
	C158.029572,835.872803 156.928680,833.346924 150.932983,829.729675 
	C143.685684,825.357178 136.401001,821.037781 129.294968,816.444153 
	C126.157379,814.415894 123.770645,811.608643 124.320587,807.340576 
	C124.869797,803.078125 125.566109,798.813965 125.754860,794.531067 
	C125.993347,789.119812 121.980560,786.432190 118.304626,789.934204 
	C112.817986,795.161194 106.055504,795.851929 99.483299,797.765686 
	C96.397018,798.664307 93.534943,800.403137 90.655083,801.920349 
	C87.879250,803.382751 85.211449,805.050232 82.087654,806.864929 
	C79.767822,802.164429 79.732887,799.109924 82.733414,795.929077 
	C84.855484,793.679504 86.327583,790.816895 88.327965,787.877991 
	C83.982193,784.965210 80.517349,782.642883 76.151833,779.716919 
	C87.111992,772.732849 87.522446,763.147644 85.056938,751.218384 
	C81.593491,753.924744 78.995201,755.955017 76.395958,757.986023 
	C70.954201,750.943481 70.954201,750.943481 74.511726,741.418945 
	C69.500305,735.641418 64.142067,729.775024 59.179703,723.590881 
	C57.177849,721.096130 54.673145,717.866150 54.755905,715.039856 
	C55.068722,704.356262 51.125786,695.148621 46.598957,685.948975 
	C45.592354,683.903259 44.884453,681.554199 44.695477,679.289978 
	C43.901535,669.777527 39.070381,663.245239 30.633305,659.094971 
	C29.475695,658.525452 28.573587,657.436523 26.761023,655.632446 
	C26.147440,653.746582 26.326017,652.816284 27.249027,651.956421 
	C32.060955,653.238831 36.730305,653.570435 40.067192,655.851379 
	C46.476635,660.232544 53.328262,660.841614 60.062756,658.930725 
	C68.144135,656.637634 75.808533,652.875000 84.051590,649.590088 
	C86.289391,652.749634 88.732880,656.199585 91.569336,660.204346 
	C102.038193,656.516174 112.208755,652.933105 123.024460,649.122803 
	C127.099571,649.586487 133.525223,648.461975 137.208359,651.127258 
	C144.634048,656.500854 150.406357,652.944641 156.685425,650.331909 
	C167.088501,646.003235 176.759827,638.959351 189.141296,642.717529 
	C190.811218,643.224304 192.985779,641.847168 194.958023,641.638245 
	C197.156143,641.405396 199.508011,641.034729 201.588242,641.550232 
	C211.061493,643.897583 219.254166,640.681274 227.232101,636.183777 
	C230.102127,634.565857 232.827103,632.525391 235.889648,631.451904 
	C240.808289,629.727600 244.642090,626.990967 247.563660,622.664978 
	C249.968521,619.104004 252.602859,616.200623 257.579468,615.310364 
	C260.563751,614.776428 264.103577,611.571350 265.411713,608.672485 
	C267.969391,603.004517 271.925262,599.785339 278.011261,597.501038 
	C284.638977,604.740112 292.751038,605.529602 301.686005,602.335083 
	C304.161133,601.450073 306.877716,600.746460 309.473022,600.779602 
	C319.289276,600.905029 330.024658,595.318909 338.420593,605.120483 
	C338.768677,605.526794 339.666382,605.571289 340.315002,605.595215 
	C354.382050,606.114624 359.104645,615.966125 362.347229,627.439636 
	C362.957855,629.600220 363.832214,631.988892 365.337921,633.542480 
	C372.731445,641.171082 382.478119,646.599060 386.814575,657.096924 
	C387.361511,658.420898 389.257904,659.227478 390.598358,660.175842 
	C394.156738,662.693298 397.752991,665.157166 402.188477,668.235229 
	C403.475220,667.716980 405.834564,666.766724 408.125153,665.844116 
	C414.930298,673.548401 422.981049,679.529480 433.097473,675.160461 
	C441.608704,671.484802 447.539886,672.117188 452.433685,679.829895 
	C459.519440,673.879456 459.519440,673.879456 477.229797,677.575806 
	C477.391693,678.798218 477.415619,680.136292 477.758972,681.386536 
	C480.354126,690.835754 490.896790,698.312744 500.113037,696.315796 
	C506.063568,695.026489 509.348694,697.582520 513.017517,701.388367 
	C517.551514,706.091736 521.023621,705.555786 525.649536,701.267456 
	C531.256104,696.070190 530.782654,690.542542 527.244080,685.462524 
	C533.616211,676.017273 540.449829,668.342651 550.291565,664.132507 
	C549.938416,660.400940 549.640198,657.249939 549.298035,653.633911 
	C554.869202,653.721008 557.924561,652.100891 558.336182,646.385132 
	C558.654785,641.959595 561.604370,638.722961 566.546021,637.941406 
	C571.319946,637.186523 576.050964,636.160339 581.546143,635.111023 
	C578.823364,629.954102 577.269897,624.153992 581.552673,620.862793 
	C591.367676,613.320190 601.346497,605.261169 614.929871,605.827332 
	C619.177734,606.004272 622.510803,604.896973 625.293396,601.388672 
	C629.565308,596.002563 635.556091,593.254517 642.028076,591.101685 
	C674.830688,580.190613 707.575378,569.104919 740.309692,557.990112 
	C744.382507,556.607239 748.476196,555.051453 752.216614,552.961060 
	C783.562378,535.442383 814.750549,517.641113 846.131592,500.186218 
	C955.399475,439.408783 1063.782227,377.091064 1171.714966,313.976257 
	C1285.103882,247.671005 1398.735962,181.782028 1512.207520,115.617928 
	C1519.024170,111.643188 1525.360352,106.844521 1532.785767,102.243080 
	C1537.176270,102.183540 1540.701294,102.310143 1544.873535,102.783234 
	C1549.684692,104.114967 1553.813110,105.298492 1558.018555,106.051910 
	C1578.906372,109.794029 1599.808594,113.457314 1620.716797,117.084091 
	C1661.558350,124.168480 1702.410156,131.193253 1743.251099,138.280411 
	C1754.574463,140.245361 1765.874512,142.343002 1776.891479,144.326843 
	C1778.140381,156.477844 1778.381836,156.644028 1774.451660,162.354385 
	C1771.630005,166.454117 1769.530884,170.350998 1772.735596,174.970642 
	C1775.493286,178.946045 1774.993042,185.321289 1780.694458,187.014679 
	C1786.921387,188.864120 1787.920776,193.697144 1787.534668,198.711349 
	C1786.788818,208.393295 1789.573975,217.039352 1793.540771,225.594696 
	C1795.632324,230.105621 1797.317993,234.824051 1798.907227,239.542984 
	C1800.524780,244.346176 1800.453491,248.888428 1794.947388,251.313828 
	C1790.482422,253.280502 1788.874756,257.086670 1787.708130,261.381989 
	C1786.752686,264.899384 1785.687012,268.401154 1784.417603,271.815918 
	C1781.691650,279.148956 1784.874146,285.650543 1789.560303,289.906830 
	C1800.846436,300.157379 1805.375244,314.174500 1811.936035,326.987366 
	C1813.465820,329.975281 1814.583984,333.029236 1817.310303,334.635376 
	C1825.672974,339.561829 1828.010620,346.799683 1828.592773,356.194183 
	C1829.440552,369.877899 1835.614502,380.936584 1849.496216,386.086731 
	C1852.294312,387.124817 1854.986938,388.453156 1857.708252,389.691528 
	C1867.577393,394.182648 1868.984863,400.069763 1862.598511,409.277069 
	C1860.749390,411.943115 1858.546509,414.740082 1857.893677,417.775421 
	C1856.789307,422.911133 1856.649170,428.276733 1856.355469,433.559662 
	C1855.695190,445.437714 1856.233276,445.958984 1867.977661,446.338562 
	C1869.636719,446.392181 1871.311768,446.369080 1872.949829,446.594818 
	C1892.630493,449.306732 1911.962036,449.921112 1929.279297,437.672272 
	C1930.353149,436.912842 1931.710938,436.564362 1932.824585,435.850098 
	C1938.688354,432.089142 1944.963013,430.986694 1951.887207,431.966003 
	C1957.741943,432.794037 1964.027832,434.265259 1969.553833,432.988434 
	C1982.777344,429.932953 1995.930542,426.126678 2008.621826,421.327209 
	C2024.399170,415.360657 2039.682861,408.089050 2055.171387,401.384674 
	C2058.452148,404.085083 2061.818848,405.963623 2063.936523,408.781067 
	C2068.707520,415.128204 2075.209961,415.814514 2082.348633,416.508881 
	C2090.146484,417.267334 2097.795410,419.480194 2105.551025,420.815979 
	C2107.332520,421.122833 2109.519531,420.911743 2111.116943,420.122894 
	C2116.878418,417.277222 2122.682861,418.274170 2127.144775,421.680054 
	C2140.973389,432.236023 2157.754639,439.717560 2165.442383,457.020752 
	C2166.141113,458.593994 2166.588379,461.963501 2170.000000,460.000000 
	C2170.000000,464.083344 2170.000000,468.166656 2169.445801,472.526245 
	C2167.716553,473.929321 2166.145996,474.849121 2165.429932,476.216339 
	C2160.484131,485.658844 2152.520508,492.108429 2144.202637,498.292145 
	C2138.332031,502.656555 2132.450684,507.040710 2126.921143,511.817963 
	C2123.162842,515.065063 2119.262451,516.410706 2114.280762,516.443176 
	C2103.665771,516.512268 2093.045166,517.078979 2082.449219,517.782288 
	C2079.580078,517.972717 2076.351074,518.739563 2074.036133,520.331116 
	C2055.738281,532.910156 2035.147949,540.583252 2014.616943,548.327454 
	C2007.683350,550.942932 2002.390747,554.592041 1999.737061,561.793396 
	C1998.884277,564.107544 1996.806763,565.970398 1995.502930,567.748535 
	C1986.518799,565.296326 1978.225464,563.032715 1969.933594,560.762329 
	C1958.148560,569.264771 1956.260498,569.703125 1940.053589,572.221191 
	C1934.446167,573.092407 1928.054443,572.923706 1923.875244,577.861755 
	C1925.440308,584.363647 1927.385620,590.370300 1928.282349,596.529541 
	C1932.244629,623.744446 1935.988281,650.992371 1939.591919,678.257324 
	C1940.182617,682.726257 1939.674927,687.340393 1939.674927,693.028564 
	C1933.588135,693.028564 1928.078857,693.041626 1922.569702,693.024902 
	C1916.955200,693.007812 1911.339600,692.880859 1905.726807,692.963135 
	C1903.090454,693.001709 1900.262451,694.162109 1897.863037,693.525757 
	C1890.439941,691.557129 1883.450562,694.204895 1876.269165,694.705383 
	C1872.041138,695.000061 1867.710571,695.185791 1863.537354,694.612305 
	C1855.617798,693.523987 1848.482544,695.187439 1842.429077,700.171875 
	C1837.035767,704.612915 1831.660156,706.641602 1824.303345,706.061096 
	C1808.592163,704.821411 1792.557251,714.702393 1786.969971,727.782837 
	C1784.232300,734.191956 1782.014404,740.836243 1779.039795,747.127625 
	C1775.782837,754.016235 1772.128418,760.742981 1768.207642,767.276489 
	C1766.974976,769.330322 1764.322021,771.892700 1762.319702,771.892090 
	C1752.799805,771.889221 1743.017334,773.143433 1734.223267,767.606506 
	C1720.719604,759.104065 1707.086060,750.806763 1693.470581,742.482910 
	C1688.289795,739.315674 1682.616211,738.036926 1676.278564,737.976868 
	C1675.566528,740.694275 1674.396973,742.925476 1674.523926,745.080261 
	C1674.951904,752.347107 1675.500000,759.640259 1676.627075,766.825317 
	C1678.683105,779.933716 1676.198486,792.541565 1673.080200,805.099487 
	C1671.882812,809.921936 1670.337280,814.687195 1668.557861,819.328064 
	C1666.680542,824.225037 1668.344482,828.809937 1672.110229,830.597412 
	C1676.258179,832.566284 1679.221436,837.384766 1685.335327,835.985352 
	C1689.421875,835.049927 1692.574585,838.398010 1694.060669,842.636780 
	C1694.783936,844.699768 1695.430786,847.371094 1697.010864,848.445618 
	C1702.193726,851.970276 1703.966797,856.697266 1704.642212,862.703857 
	C1705.343262,868.938538 1708.703735,874.215759 1713.640259,878.274658 
	C1717.156372,881.165710 1720.971436,883.734131 1724.233154,886.881714 
	C1727.175293,889.721008 1729.759644,893.002258 1732.114990,896.360107 
	C1734.905640,900.338562 1737.545044,904.471436 1739.777100,908.782227 
	C1743.194946,915.383057 1743.755859,923.443176 1751.047119,928.077759 
	C1752.875488,929.239929 1753.153198,933.274170 1753.605225,936.075378 
	C1754.442993,941.265747 1754.883667,946.520203 1754.885986,952.237427 
	C1747.645996,955.587158 1741.201416,960.072083 1734.323242,960.883728 
	C1726.278076,961.833069 1719.863281,964.816467 1713.277954,968.875061 
	C1707.360840,972.521851 1700.854614,975.214478 1694.600220,978.311768 
	C1691.956543,979.620972 1689.292603,980.889099 1687.145874,981.929688 
	C1686.025513,989.651917 1685.379517,996.618896 1683.928223,1003.413879 
	C1682.428589,1010.435974 1678.546265,1013.825195 1671.292725,1013.916138 
	C1662.006348,1014.032593 1652.689331,1013.476013 1643.420776,1012.754822 
	C1633.498535,1011.982849 1623.622192,1009.933960 1613.716797,1009.870850 
	C1606.882935,1009.827332 1599.968140,1013.565796 1593.204346,1013.238770 
	C1577.563354,1012.482544 1565.287842,1021.185913 1552.025879,1026.703491 
	C1546.255981,1029.104248 1541.829346,1029.884521 1536.132324,1027.953979 
	C1532.530396,1026.733276 1527.604126,1025.339111 1524.746094,1026.836548 
	C1518.364746,1030.180054 1511.896606,1033.314087 1505.494141,1036.593384 
	C1496.379761,1041.261597 1488.134766,1047.622803 1479.496094,1053.226196 
	C1475.825317,1055.607056 1473.729370,1058.383423 1475.185181,1063.187500 
	C1477.303101,1070.174927 1476.924316,1077.568604 1472.974121,1083.460083 
	C1469.151001,1089.162231 1463.653442,1093.864746 1458.352661,1098.373047 
	C1456.892212,1099.615112 1452.813721,1099.600464 1451.118286,1098.438354 
	C1442.447388,1092.495239 1433.329590,1093.638916 1424.224487,1096.176880 
	C1416.664307,1098.284180 1409.823608,1098.153809 1403.528564,1092.965088 
	C1402.873169,1092.424927 1401.689453,1092.525635 1400.585571,1092.294312 
	C1397.738159,1095.572266 1395.105835,1098.949829 1392.106567,1101.961914 
	C1388.834473,1105.247925 1385.222778,1108.195923 1381.758545,1111.290405 
	C1372.962646,1119.147339 1366.645752,1127.801270 1372.368896,1140.355103 
	C1372.642578,1140.955566 1372.811035,1141.617188 1372.941406,1142.267822 
	C1374.189941,1148.500244 1372.993164,1150.373779 1366.533447,1149.716553 
	C1360.009644,1149.052979 1353.623291,1147.112305 1347.148926,1145.876709 
	C1326.968872,1142.025269 1306.158691,1141.447021 1286.628784,1134.147583 
	C1284.998535,1133.538330 1282.942749,1134.067017 1281.947266,1134.067017 
	C1281.947266,1143.174438 1281.704956,1151.403564 1282.021729,1159.611084 
	C1282.287720,1166.500854 1280.971313,1173.010498 1277.556152,1178.804932 
	C1274.207886,1184.486084 1270.176025,1189.814819 1265.968262,1194.904907 
	C1264.828857,1196.283325 1261.739502,1197.135010 1259.935059,1196.680542 
	C1253.863647,1195.151367 1247.956543,1192.958008 1242.008911,1190.952515 
	C1238.054932,1189.619507 1234.091797,1188.477661 1231.458618,1193.051270 
	C1226.171997,1202.233521 1220.209717,1211.145752 1216.041016,1220.822021 
	C1211.009521,1232.500610 1202.791504,1237.632324 1190.526489,1237.733643 
	C1187.656250,1237.757324 1183.380371,1237.823608 1182.186035,1239.552246 
	C1178.118042,1245.440552 1173.574707,1244.300415 1168.271362,1242.334473 
	C1156.673828,1238.035156 1146.675171,1240.490112 1138.738281,1250.103516 
	C1136.044556,1253.366211 1132.930542,1254.049316 1128.963867,1253.273560 
	C1127.184326,1252.925415 1124.155151,1252.835693 1123.505493,1253.822266 
	C1118.725586,1261.080444 1110.108765,1261.492920 1103.591309,1265.545898 
	C1102.226562,1266.394653 1100.379395,1267.859619 1099.262939,1267.492920 
	C1091.119507,1264.818237 1085.430176,1269.398682 1079.514526,1273.582031 
	C1074.685425,1276.997070 1069.798584,1280.330811 1066.125610,1282.876953 
	C1060.133423,1281.672119 1055.334961,1281.095215 1050.795532,1279.684692 
	C1046.308960,1278.290771 1042.084229,1276.054565 1037.147949,1273.931030 
	C1037.147949,1278.357910 1037.147949,1281.518433 1037.147949,1286.042236 
	C1033.375488,1285.693115 1029.972656,1285.195557 1026.559326,1285.108765 
	C1022.342102,1285.001465 1017.166260,1283.702393 1014.076477,1285.616821 
	C1005.638855,1290.844604 995.945068,1291.151611 986.974243,1293.836182 
	C968.563782,1299.345581 949.526733,1302.720337 930.899414,1307.558228 
	C913.831055,1311.991455 913.675049,1313.167358 899.865112,1309.143066 
	C889.295654,1306.063110 878.833435,1306.599609 868.239929,1306.107422 
	C860.288940,1305.737793 853.108154,1308.045288 846.116272,1311.263184 
	C837.879639,1315.054077 837.976746,1316.314697 840.399536,1325.004395 
	C842.106934,1331.128052 845.342712,1335.510986 849.917664,1339.508545 
	C852.392456,1341.671021 854.849426,1344.249023 856.259827,1347.151855 
	C859.135315,1353.070190 862.247314,1359.158569 863.430664,1365.517578 
	C864.272156,1370.039551 862.118347,1375.118896 861.096802,1381.159302 
	C854.993469,1382.753418 848.057739,1384.347656 841.288208,1386.471680 
	C839.371277,1387.073120 837.378418,1388.927002 836.428223,1390.735962 
	C835.247131,1392.984375 835.111938,1395.782104 834.566650,1398.161377 
	C844.286316,1407.327026 843.299377,1421.468994 833.116394,1429.296021 
	C828.467285,1432.869629 823.968323,1436.968750 820.466431,1441.629761 
	C814.748718,1449.239990 810.092285,1450.080811 803.067078,1443.612427 
	C801.225342,1449.688599 799.369080,1455.812622 797.539612,1461.848267 
	C800.964539,1463.883545 803.940918,1465.304077 806.512268,1467.257690 
	C810.945374,1470.626221 815.100525,1471.852173 821.110352,1470.674561 
	C828.122986,1469.300415 835.774414,1469.870483 842.938293,1470.968994 
	C849.579956,1471.987549 856.731079,1472.806396 862.713257,1478.297852 
	C858.229858,1484.120972 859.790894,1489.018066 863.794434,1494.446777 
	C865.476562,1496.727661 864.145752,1501.230591 863.288452,1504.682861 
	C840.832703,1501.350586 819.342712,1497.437744 797.686218,1495.012085 
	C785.690857,1493.668579 773.416809,1494.812622 761.268433,1494.835205 
z"/>

<path 
data-name="Tombel"
fill="#5EEB54" opacity="1.000000" stroke="none" 
	d="
M1725.055664,1729.962280 
	C1728.404663,1734.257568 1732.526123,1738.185913 1734.807251,1742.988525 
	C1736.133179,1745.780273 1734.880249,1750.062988 1734.069702,1753.505737 
	C1733.569336,1755.630981 1731.761963,1757.467773 1730.466553,1759.383301 
	C1723.712646,1769.369629 1725.289917,1776.693604 1735.729858,1782.191650 
	C1740.690674,1784.804321 1745.782104,1787.387451 1751.108276,1789.033936 
	C1758.153442,1791.211914 1765.381104,1789.132080 1771.285522,1785.737915 
	C1781.772949,1779.709351 1792.719971,1779.173340 1804.063721,1780.431763 
	C1807.546143,1780.818115 1811.217285,1781.993286 1814.210815,1783.791626 
	C1820.897461,1787.808228 1821.602173,1790.696899 1818.212646,1797.829102 
	C1815.440674,1803.662109 1814.150879,1809.542725 1815.565796,1815.980957 
	C1816.694092,1821.114624 1814.855469,1825.530029 1810.230957,1827.771851 
	C1804.161011,1830.714355 1802.373901,1835.859009 1802.450562,1841.630859 
	C1802.575317,1851.008789 1794.322021,1854.868286 1790.260254,1861.447388 
	C1789.789185,1862.210693 1787.770752,1862.358643 1786.521240,1862.241699 
	C1781.715210,1861.791992 1778.093384,1863.826172 1775.208008,1867.374268 
	C1772.453979,1870.760986 1769.018799,1871.722778 1764.714111,1871.854736 
	C1761.261597,1871.960571 1757.413452,1872.869263 1754.520386,1874.672241 
	C1748.423462,1878.471924 1747.466797,1882.398804 1750.726074,1888.933594 
	C1753.484009,1894.463379 1755.679565,1899.769165 1751.616821,1905.410522 
	C1755.028320,1908.759399 1758.129517,1907.286011 1761.364136,1906.768677 
	C1766.509277,1905.945557 1771.785522,1905.100220 1776.936890,1905.411621 
	C1781.389160,1905.680786 1785.401855,1908.488525 1786.082886,1913.262207 
	C1786.842285,1918.587036 1782.837402,1920.419312 1778.374023,1922.028564 
	C1774.734253,1923.340820 1770.821045,1925.261963 1768.322144,1928.065430 
	C1764.102295,1932.800049 1759.139893,1934.333008 1753.250366,1934.304077 
	C1749.918579,1934.287720 1746.276978,1935.111084 1743.310181,1934.053955 
	C1731.767456,1929.940674 1723.182129,1935.792358 1715.158325,1942.272217 
	C1707.974365,1948.073975 1701.591187,1954.888794 1695.026245,1961.428833 
	C1690.299316,1966.137451 1690.282593,1969.504395 1695.550537,1973.682861 
	C1701.670044,1978.536865 1707.391846,1983.656982 1709.557129,1991.342163 
	C1710.879761,1996.037231 1711.105103,2001.061279 1711.579468,2005.961182 
	C1711.691650,2007.119629 1711.121582,2008.616455 1710.362061,2009.546143 
	C1699.069214,2023.368774 1688.744019,2037.978516 1674.078613,2048.839355 
	C1666.158691,2054.704590 1659.461914,2062.222168 1652.218384,2068.999756 
	C1647.521729,2073.394043 1641.794434,2075.206543 1635.631470,2074.227051 
	C1617.002319,2071.266357 1605.502197,2083.627930 1593.012085,2093.736084 
	C1589.430786,2096.634277 1587.040283,2101.026611 1583.409180,2103.835693 
	C1575.286499,2110.119385 1573.857910,2118.408203 1577.029541,2127.027588 
	C1582.547363,2142.022705 1579.900513,2156.538330 1576.209839,2171.106445 
	C1573.681030,2181.088135 1570.238770,2190.838379 1567.717651,2200.821777 
	C1565.536377,2209.460449 1563.389160,2218.209229 1562.464233,2227.039062 
	C1561.151489,2239.572510 1561.042236,2252.229004 1560.253174,2264.822510 
	C1560.090332,2267.422363 1559.076904,2269.957520 1558.673828,2272.555908 
	C1557.812012,2278.111328 1556.637573,2283.670166 1556.408081,2289.261230 
	C1555.890137,2301.877686 1554.512573,2314.220947 1550.363281,2326.298584 
	C1546.919800,2336.322021 1544.412720,2346.679443 1541.762207,2356.958984 
	C1539.535034,2365.596191 1536.275024,2373.334961 1527.612427,2377.487305 
	C1526.435181,2378.051514 1525.236450,2378.875244 1524.442505,2379.888184 
	C1514.866333,2392.106689 1501.830200,2400.104248 1489.535767,2409.093750 
	C1477.032959,2418.235596 1468.270996,2430.938721 1459.129883,2443.222412 
	C1456.408691,2446.879150 1453.479126,2450.675049 1449.846802,2453.304932 
	C1438.224121,2461.720215 1427.068970,2470.357422 1418.169556,2481.959473 
	C1413.198730,2488.439941 1405.814697,2493.020264 1399.845947,2498.795654 
	C1390.267700,2508.063477 1380.894043,2517.546387 1371.567017,2527.068604 
	C1366.295044,2532.451172 1366.420654,2532.915283 1371.592773,2539.283203 
	C1373.058105,2541.086914 1374.208496,2543.283203 1375.995483,2544.661133 
	C1379.968262,2547.724609 1380.853394,2551.279785 1379.710693,2556.081787 
	C1379.005127,2559.046875 1379.579956,2562.316406 1379.579956,2566.979492 
	C1391.189209,2562.703857 1398.483276,2570.398193 1407.516235,2573.904785 
	C1407.426758,2581.681152 1404.822388,2588.781738 1400.063110,2594.851318 
	C1397.148438,2598.568604 1395.510010,2601.832275 1397.223755,2606.602539 
	C1398.711914,2610.745361 1397.005615,2613.661621 1392.467041,2614.706787 
	C1388.615845,2615.593750 1384.815308,2616.699463 1380.987061,2617.687012 
	C1377.522461,2618.581055 1374.050903,2619.447754 1370.670044,2620.303955 
	C1369.730469,2625.254883 1369.056152,2629.484863 1368.108032,2633.652344 
	C1366.506714,2640.690430 1363.472778,2643.827637 1356.594971,2643.507568 
	C1349.621460,2643.182617 1343.679565,2645.851562 1337.324219,2647.683594 
	C1324.943604,2651.252441 1312.405884,2654.283691 1299.897583,2657.393799 
	C1298.370972,2657.773193 1296.426514,2657.717285 1295.018311,2657.092041 
	C1290.962769,2655.290527 1287.564697,2656.491699 1285.179199,2659.542969 
	C1279.837280,2666.375488 1272.190186,2667.168945 1264.647705,2667.568359 
	C1253.657593,2668.149902 1242.959351,2669.888184 1232.287598,2672.533447 
	C1227.581055,2673.700439 1222.351440,2673.810547 1217.512451,2673.195557 
	C1202.573730,2671.297607 1191.777100,2676.524658 1184.811646,2689.896729 
	C1182.351318,2694.620117 1180.075928,2699.439453 1177.765503,2704.114990 
	C1174.138916,2705.628174 1170.632812,2707.091309 1167.563354,2709.277100 
	C1164.571289,2710.000000 1161.142578,2710.000000 1156.856934,2710.000000 
	C1156.104858,2707.007324 1156.271606,2704.015381 1156.304199,2701.021973 
	C1156.450806,2687.525391 1157.108765,2686.393799 1169.381226,2679.016357 
	C1168.826416,2670.292969 1166.985596,2668.250977 1159.359619,2667.684082 
	C1153.473877,2667.246094 1147.595581,2666.707764 1141.029785,2666.156494 
	C1136.707886,2667.411865 1131.477173,2668.931396 1126.782837,2670.294922 
	C1122.496216,2661.313232 1118.820190,2653.591309 1115.122437,2645.879883 
	C1114.409668,2644.393311 1113.987305,2642.424316 1112.792969,2641.564941 
	C1101.456543,2633.410400 1104.507324,2623.529053 1108.849609,2613.434082 
	C1122.792114,2611.273193 1124.033936,2602.768799 1121.249756,2593.454102 
	C1119.059692,2586.127441 1119.936279,2579.904785 1124.165405,2573.711182 
	C1126.593262,2570.155518 1128.477295,2566.221924 1130.530273,2562.417480 
	C1135.144897,2553.866455 1138.870850,2545.051514 1137.896973,2535.954834 
	C1145.148926,2532.814209 1151.754761,2530.095947 1158.240845,2527.116943 
	C1176.126831,2518.901367 1178.666504,2503.471436 1177.550537,2486.169434 
	C1176.916992,2476.348389 1172.098267,2470.446289 1162.644287,2468.023682 
	C1160.789307,2467.548096 1157.995239,2466.851562 1157.507324,2465.553223 
	C1154.168335,2456.667236 1144.426514,2453.788330 1140.293945,2446.527832 
	C1128.223389,2444.246094 1116.632568,2441.987793 1105.006592,2439.927734 
	C1103.204102,2439.608154 1100.748291,2439.512451 1099.431152,2440.467285 
	C1089.111450,2447.946045 1080.822021,2443.648682 1074.348633,2437.558838 
	C1067.975952,2437.074707 1063.174072,2436.489014 1058.363159,2436.401123 
	C1052.451294,2436.292725 1045.945679,2432.969727 1041.403076,2440.756104 
	C1040.426025,2442.430908 1033.286621,2442.488770 1030.588623,2440.772217 
	C1024.863892,2437.130127 1019.059631,2436.106201 1012.622009,2436.138672 
	C1001.255249,2436.196045 991.031189,2432.953125 982.105164,2424.141602 
	C982.105164,2422.781250 981.745667,2420.443604 982.171326,2418.259033 
	C983.555176,2411.155762 985.223389,2404.107666 986.790405,2397.040283 
	C987.004761,2396.073486 987.728394,2394.936035 987.434387,2394.183105 
	C983.362793,2383.757080 988.798096,2374.010986 989.465759,2363.939697 
	C989.531738,2362.943604 989.898987,2361.859375 989.630127,2360.965332 
	C985.956421,2348.745117 991.776733,2337.686279 993.823486,2326.177002 
	C994.795288,2320.712158 993.947205,2316.123779 990.625305,2311.213623 
	C986.596252,2305.258057 981.627930,2298.206299 981.649902,2291.644043 
	C981.683655,2281.560059 981.495117,2270.450195 986.908020,2261.303711 
	C992.274109,2252.236084 1001.018372,2246.210693 1010.483643,2241.712402 
	C1016.417725,2238.892334 1018.707886,2234.858887 1018.341187,2228.307861 
	C1018.176880,2225.373291 1019.855652,2222.072754 1021.440796,2219.375000 
	C1023.097717,2216.555176 1025.735474,2214.329346 1027.790649,2211.722656 
	C1034.282471,2203.488525 1034.594116,2201.981934 1032.313232,2191.141846 
	C1039.342163,2187.639404 1039.167603,2182.009033 1036.934570,2175.243652 
	C1033.820801,2165.810547 1028.309204,2158.854492 1019.592712,2155.397217 
	C1018.211975,2149.160645 1016.951477,2143.467041 1015.594238,2137.336426 
	C1021.411011,2132.295898 1027.546753,2134.211426 1034.608887,2138.103516 
	C1037.291992,2134.804443 1040.483521,2131.873047 1042.419189,2128.267578 
	C1045.342041,2122.823242 1043.791382,2120.101807 1037.968750,2117.653320 
	C1035.612793,2116.662354 1033.309204,2115.349121 1031.296631,2113.778809 
	C1025.880981,2109.552979 1021.040588,2108.958740 1014.941345,2112.176025 
	C1012.882202,2113.262451 1010.966187,2114.707764 1008.805054,2115.496094 
	C1001.992126,2117.981689 997.434143,2115.934326 994.423584,2109.279541 
	C993.189209,2106.550781 991.844116,2103.853027 990.873962,2101.029785 
	C989.834839,2098.005127 987.459229,2097.014160 985.094116,2095.240234 
	C979.483276,2091.031982 975.123840,2085.155029 968.968384,2078.572998 
	C965.895264,2078.372559 960.595154,2078.237061 955.350342,2077.626465 
	C950.114075,2077.016602 944.918579,2076.008057 939.731934,2075.032715 
	C933.650330,2073.888916 927.597534,2072.592529 921.513550,2071.358154 
	C919.476074,2075.013428 918.073364,2077.529785 916.484436,2080.380127 
	C912.481812,2078.309570 908.820984,2076.416016 904.472168,2074.166748 
	C904.014954,2070.532715 903.489258,2066.354492 902.796692,2060.849854 
	C899.556030,2060.849854 895.650757,2059.770020 892.841858,2061.066162 
	C886.259888,2064.103271 881.401184,2062.584473 875.545776,2058.847412 
	C869.890808,2055.238525 864.375977,2051.918457 860.110718,2045.969238 
	C862.308960,2044.370117 864.308777,2042.915283 866.705505,2041.171631 
	C865.185974,2038.016846 863.783264,2035.104614 862.789734,2033.041870 
	C866.175293,2014.647827 873.674194,1997.657227 869.161560,1976.509521 
	C874.562927,1980.083496 877.897583,1982.289795 882.141724,1985.098022 
	C884.195496,1979.706909 885.807373,1974.337891 888.254517,1969.381348 
	C890.564514,1964.702759 893.721436,1960.437500 896.571533,1956.032959 
	C897.636536,1954.386719 900.020386,1952.736938 899.863831,1951.300049 
	C899.021790,1943.572388 905.076233,1941.548706 909.675659,1937.967041 
	C915.128174,1933.720947 920.063904,1928.814941 925.269531,1924.247070 
	C929.599731,1920.447266 932.670410,1914.894043 939.913696,1915.287109 
	C941.679321,1915.382935 944.022888,1912.435059 945.408752,1910.412476 
	C948.760254,1905.521362 951.230835,1900.453125 958.534302,1899.618164 
	C961.545288,1899.273926 964.062317,1894.608398 968.096863,1890.635254 
	C960.139160,1888.037231 954.031189,1885.732300 947.753784,1884.065552 
	C937.931519,1881.457764 928.746582,1877.985596 923.186951,1870.418335 
	C925.136719,1864.141357 926.580811,1858.606689 928.596619,1853.288818 
	C930.156616,1849.173828 932.432190,1845.330078 935.419739,1839.279785 
	C934.103149,1837.278076 932.409668,1831.455811 929.058960,1830.254028 
	C920.960999,1827.349365 920.207275,1820.157471 916.977600,1814.344971 
	C913.470642,1808.033447 912.267029,1801.371826 914.182617,1794.234131 
	C914.595825,1792.694702 914.242920,1790.949585 914.242920,1789.081177 
	C912.751831,1788.063110 911.396423,1787.178223 910.083313,1786.234375 
	C904.339966,1782.106445 900.525635,1778.165894 900.982849,1769.388794 
	C901.368408,1761.986938 901.716614,1754.495239 902.788879,1747.166504 
	C903.611938,1741.541016 905.839172,1736.121094 907.773315,1729.469849 
	C909.344971,1728.745483 912.487732,1727.356567 915.576660,1725.857056 
	C918.785950,1724.298950 921.943298,1722.633911 925.993896,1720.572632 
	C927.329895,1712.474609 933.321106,1708.307739 941.944519,1707.887939 
	C944.573975,1698.966309 945.416382,1698.444824 955.494629,1699.169800 
	C957.442078,1694.173950 959.055237,1688.996338 961.433838,1684.198120 
	C964.380188,1678.254761 971.268250,1683.617065 977.593628,1679.106812 
	C970.263367,1677.980103 965.021240,1677.174438 960.033875,1676.407959 
	C958.012512,1671.051147 956.839050,1665.849609 954.201233,1661.545166 
	C951.616821,1657.328003 947.541687,1654.024292 943.519165,1649.667969 
	C941.141052,1653.529297 938.851379,1657.126465 933.656067,1656.716553 
	C932.678955,1656.639404 931.421570,1660.113281 930.931213,1660.911133 
	C923.795410,1660.156250 917.174438,1659.054321 910.531311,1658.898926 
	C906.325928,1658.800537 904.690247,1662.684692 903.174988,1666.103882 
	C901.744080,1669.332764 899.733032,1671.014282 895.738892,1667.750732 
	C897.551208,1663.131348 899.443665,1658.307983 901.266113,1653.662842 
	C898.198303,1651.312012 895.318420,1649.105225 891.555115,1646.221436 
	C886.164001,1650.197510 879.223206,1652.089722 870.500854,1647.999146 
	C870.857422,1644.876709 871.169250,1641.429077 871.657104,1638.006348 
	C873.273926,1626.664062 872.909790,1626.209229 862.701538,1620.781006 
	C858.840149,1618.728027 856.326843,1616.731567 854.248474,1613.252686 
	C853.116028,1611.357056 851.264954,1609.890869 849.672119,1608.159302 
	C853.113831,1598.399048 862.755127,1589.082397 850.161255,1579.313599 
	C851.462463,1576.461060 852.648987,1573.860107 854.019836,1570.854858 
	C851.384521,1570.333252 848.997559,1569.860840 846.470886,1569.360718 
	C846.230896,1562.421143 855.121094,1558.930298 852.114136,1551.735962 
	C851.523987,1550.323975 850.567322,1549.065308 849.857544,1547.867310 
	C848.648804,1548.183838 847.522217,1548.265503 847.481506,1548.520508 
	C846.309692,1555.854492 841.230652,1557.718628 834.725281,1558.363892 
	C828.182922,1559.012573 821.511658,1559.704834 815.262268,1561.589478 
	C808.922302,1563.501587 806.111145,1559.595093 802.291382,1555.169800 
	C798.981140,1558.170898 795.934021,1560.933472 792.119690,1564.391479 
	C788.659302,1560.107788 785.505981,1556.204102 781.425720,1551.152954 
	C777.403259,1551.152954 771.513306,1551.152954 766.689209,1551.152954 
	C763.089539,1547.068481 760.028442,1543.517944 756.880127,1540.046265 
	C754.141418,1537.026489 751.941589,1534.172607 753.156616,1529.453979 
	C754.027161,1526.073364 753.249878,1522.291870 753.431580,1518.700684 
	C753.524902,1516.855713 753.869385,1514.946533 754.513794,1513.220703 
	C756.591431,1507.656494 758.861145,1502.163940 761.162598,1495.739502 
	C773.416809,1494.812622 785.690857,1493.668579 797.686218,1495.012085 
	C819.342712,1497.437744 840.832703,1501.350586 863.816711,1505.042847 
	C869.048889,1505.990112 870.444336,1508.823120 872.112427,1511.883423 
	C876.100586,1519.200195 880.276428,1519.875244 887.621155,1515.423340 
	C890.382324,1513.749634 893.419800,1512.134277 896.534302,1511.517944 
	C904.910278,1509.860229 912.088989,1506.290527 918.710083,1500.859863 
	C928.259033,1493.027710 939.130798,1488.317627 951.903809,1490.033447 
	C957.808228,1490.826660 963.682312,1491.845215 969.569824,1492.763916 
	C972.507507,1493.222290 975.868958,1494.838867 978.305847,1493.941406 
	C987.380737,1490.598755 994.979614,1494.138062 1003.235535,1497.107788 
	C1017.520142,1502.245605 1031.250000,1501.700928 1043.098999,1490.169189 
	C1046.835449,1486.532837 1051.644531,1483.875000 1056.256226,1481.293823 
	C1061.731934,1478.229004 1064.094360,1479.103271 1068.142090,1483.928223 
	C1071.985840,1488.510010 1075.943481,1493.017578 1080.131592,1497.282104 
	C1083.322632,1500.531616 1087.134033,1501.812622 1091.956421,1500.494507 
	C1114.485840,1494.336914 1136.497681,1486.730591 1157.084717,1475.672729 
	C1169.254028,1469.136353 1180.320801,1468.448730 1191.067871,1477.859741 
	C1196.920654,1482.984985 1203.610474,1485.021362 1211.323364,1484.001831 
	C1230.308472,1481.492676 1232.928345,1476.284424 1232.839355,1457.526367 
	C1232.787231,1446.560669 1231.680908,1435.574219 1232.120728,1424.640137 
	C1232.467896,1416.006958 1235.461670,1408.218384 1240.992310,1400.836304 
	C1248.529419,1390.776367 1254.258179,1379.357422 1260.706665,1368.488159 
	C1262.739990,1365.060791 1264.139526,1361.157959 1266.615234,1358.111206 
	C1274.381714,1348.553101 1278.426880,1337.327271 1281.275146,1325.695068 
	C1282.305664,1321.486572 1284.299438,1319.041504 1287.911377,1317.930176 
	C1301.215210,1313.836792 1314.579224,1309.932983 1327.973755,1306.145996 
	C1329.791504,1305.632080 1332.342285,1305.473511 1333.819214,1306.365723 
	C1341.635010,1311.087891 1350.609375,1309.984985 1358.978394,1311.795410 
	C1367.843994,1313.713257 1375.906128,1316.261963 1382.824951,1323.035400 
	C1387.313354,1327.429321 1393.967041,1330.103271 1400.108643,1332.217285 
	C1414.109985,1337.036743 1415.940674,1339.533081 1413.143677,1354.005981 
	C1412.765503,1355.963623 1412.400024,1357.931152 1411.873047,1359.851440 
	C1409.894531,1367.062500 1410.238037,1374.121338 1411.588013,1381.522827 
	C1414.156860,1395.605957 1416.582031,1409.630981 1423.999390,1422.121094 
	C1421.953735,1424.432983 1420.593018,1426.359497 1418.861450,1427.857422 
	C1412.635986,1433.244019 1410.340332,1439.958496 1409.985229,1448.154663 
	C1409.687378,1455.028687 1407.517578,1461.819824 1406.198608,1468.651978 
	C1405.510132,1472.219360 1404.566406,1475.770874 1404.270508,1479.373413 
	C1403.664307,1486.752808 1404.956421,1493.662476 1408.042969,1500.652466 
	C1412.429199,1510.585693 1415.464111,1521.115479 1418.787842,1530.569458 
	C1433.081299,1532.287109 1446.898682,1533.723999 1460.643921,1535.670288 
	C1471.569214,1537.217285 1480.677124,1541.525635 1486.401489,1552.079224 
	C1489.662354,1558.090942 1495.129517,1562.872925 1499.308350,1568.430542 
	C1502.456543,1572.617554 1506.011597,1576.818604 1507.860596,1581.602661 
	C1513.413940,1595.971436 1520.305908,1609.586426 1529.073853,1622.194824 
	C1531.442017,1625.600342 1534.666016,1629.235352 1538.326782,1630.721191 
	C1543.623657,1632.871094 1546.327026,1636.140991 1547.683105,1641.317139 
	C1549.945190,1649.950562 1554.049072,1657.935425 1561.678833,1662.508179 
	C1569.041382,1666.920898 1573.102417,1673.434692 1577.036377,1680.328491 
	C1580.004517,1685.529785 1582.636475,1690.935791 1585.192505,1696.356934 
	C1591.513550,1709.762939 1599.828491,1721.651001 1610.830444,1731.686157 
	C1616.435425,1736.798462 1621.592041,1742.400391 1627.000122,1747.731323 
	C1632.788696,1753.437378 1639.913696,1753.802490 1647.304321,1752.419922 
	C1658.395996,1750.345215 1669.371704,1747.460083 1680.538818,1746.022949 
	C1696.667603,1743.947266 1711.282349,1738.266846 1725.055664,1729.962280 
z"/>


<path 
data-name="Bangem"
fill="#F2AB5E" opacity="1.000000" stroke="none" 
	d="
M1724.543701,1729.453491 
	C1711.282349,1738.266846 1696.667603,1743.947266 1680.538818,1746.022949 
	C1669.371704,1747.460083 1658.395996,1750.345215 1647.304321,1752.419922 
	C1639.913696,1753.802490 1632.788696,1753.437378 1627.000122,1747.731323 
	C1621.592041,1742.400391 1616.435425,1736.798462 1610.830444,1731.686157 
	C1599.828491,1721.651001 1591.513550,1709.762939 1585.192505,1696.356934 
	C1582.636475,1690.935791 1580.004517,1685.529785 1577.036377,1680.328491 
	C1573.102417,1673.434692 1569.041382,1666.920898 1561.678833,1662.508179 
	C1554.049072,1657.935425 1549.945190,1649.950562 1547.683105,1641.317139 
	C1546.327026,1636.140991 1543.623657,1632.871094 1538.326782,1630.721191 
	C1534.666016,1629.235352 1531.442017,1625.600342 1529.073853,1622.194824 
	C1520.305908,1609.586426 1513.413940,1595.971436 1507.860596,1581.602661 
	C1506.011597,1576.818604 1502.456543,1572.617554 1499.308350,1568.430542 
	C1495.129517,1562.872925 1489.662354,1558.090942 1486.401489,1552.079224 
	C1480.677124,1541.525635 1471.569214,1537.217285 1460.643921,1535.670288 
	C1446.898682,1533.723999 1433.081299,1532.287109 1418.787842,1530.569458 
	C1415.464111,1521.115479 1412.429199,1510.585693 1408.042969,1500.652466 
	C1404.956421,1493.662476 1403.664307,1486.752808 1404.270508,1479.373413 
	C1404.566406,1475.770874 1405.510132,1472.219360 1406.198608,1468.651978 
	C1407.517578,1461.819824 1409.687378,1455.028687 1409.985229,1448.154663 
	C1410.340332,1439.958496 1412.635986,1433.244019 1418.861450,1427.857422 
	C1420.593018,1426.359497 1421.953735,1424.432983 1423.999390,1422.121094 
	C1416.582031,1409.630981 1414.156860,1395.605957 1411.588013,1381.522827 
	C1410.238037,1374.121338 1409.894531,1367.062500 1411.873047,1359.851440 
	C1412.400024,1357.931152 1412.765503,1355.963623 1413.143677,1354.005981 
	C1415.940674,1339.533081 1414.109985,1337.036743 1400.108643,1332.217285 
	C1393.967041,1330.103271 1387.313354,1327.429321 1382.824951,1323.035400 
	C1375.906128,1316.261963 1367.843994,1313.713257 1358.978394,1311.795410 
	C1350.609375,1309.984985 1341.635010,1311.087891 1333.819214,1306.365723 
	C1332.342285,1305.473511 1329.791504,1305.632080 1327.973755,1306.145996 
	C1314.579224,1309.932983 1301.215210,1313.836792 1287.911377,1317.930176 
	C1284.299438,1319.041504 1282.305664,1321.486572 1281.275146,1325.695068 
	C1278.426880,1337.327271 1274.381714,1348.553101 1266.615234,1358.111206 
	C1264.139526,1361.157959 1262.739990,1365.060791 1260.706665,1368.488159 
	C1254.258179,1379.357422 1248.529419,1390.776367 1240.992310,1400.836304 
	C1235.461670,1408.218384 1232.467896,1416.006958 1232.120728,1424.640137 
	C1231.680908,1435.574219 1232.787231,1446.560669 1232.839355,1457.526367 
	C1232.928345,1476.284424 1230.308472,1481.492676 1211.323364,1484.001831 
	C1203.610474,1485.021362 1196.920654,1482.984985 1191.067871,1477.859741 
	C1180.320801,1468.448730 1169.254028,1469.136353 1157.084717,1475.672729 
	C1136.497681,1486.730591 1114.485840,1494.336914 1091.956421,1500.494507 
	C1087.134033,1501.812622 1083.322632,1500.531616 1080.131592,1497.282104 
	C1075.943481,1493.017578 1071.985840,1488.510010 1068.142090,1483.928223 
	C1064.094360,1479.103271 1061.731934,1478.229004 1056.256226,1481.293823 
	C1051.644531,1483.875000 1046.835449,1486.532837 1043.098999,1490.169189 
	C1031.250000,1501.700928 1017.520142,1502.245605 1003.235535,1497.107788 
	C994.979614,1494.138062 987.380737,1490.598755 978.305847,1493.941406 
	C975.868958,1494.838867 972.507507,1493.222290 969.569824,1492.763916 
	C963.682312,1491.845215 957.808228,1490.826660 951.903809,1490.033447 
	C939.130798,1488.317627 928.259033,1493.027710 918.710083,1500.859863 
	C912.088989,1506.290527 904.910278,1509.860229 896.534302,1511.517944 
	C893.419800,1512.134277 890.382324,1513.749634 887.621155,1515.423340 
	C880.276428,1519.875244 876.100586,1519.200195 872.112427,1511.883423 
	C870.444336,1508.823120 869.048889,1505.990112 864.712891,1505.083496 
	C864.145752,1501.230591 865.476562,1496.727661 863.794434,1494.446777 
	C859.790894,1489.018066 858.229858,1484.120972 862.713257,1478.297852 
	C856.731079,1472.806396 849.579956,1471.987549 842.938293,1470.968994 
	C835.774414,1469.870483 828.122986,1469.300415 821.110352,1470.674561 
	C815.100525,1471.852173 810.945374,1470.626221 806.512268,1467.257690 
	C803.940918,1465.304077 800.964539,1463.883545 797.539612,1461.848267 
	C799.369080,1455.812622 801.225342,1449.688599 803.067078,1443.612427 
	C810.092285,1450.080811 814.748718,1449.239990 820.466431,1441.629761 
	C823.968323,1436.968750 828.467285,1432.869629 833.116394,1429.296021 
	C843.299377,1421.468994 844.286316,1407.327026 834.566650,1398.161377 
	C835.111938,1395.782104 835.247131,1392.984375 836.428223,1390.735962 
	C837.378418,1388.927002 839.371277,1387.073120 841.288208,1386.471680 
	C848.057739,1384.347656 854.993469,1382.753418 861.096802,1381.159302 
	C862.118347,1375.118896 864.272156,1370.039551 863.430664,1365.517578 
	C862.247314,1359.158569 859.135315,1353.070190 856.259827,1347.151855 
	C854.849426,1344.249023 852.392456,1341.671021 849.917664,1339.508545 
	C845.342712,1335.510986 842.106934,1331.128052 840.399536,1325.004395 
	C837.976746,1316.314697 837.879639,1315.054077 846.116272,1311.263184 
	C853.108154,1308.045288 860.288940,1305.737793 868.239929,1306.107422 
	C878.833435,1306.599609 889.295654,1306.063110 899.865112,1309.143066 
	C913.675049,1313.167358 913.831055,1311.991455 930.899414,1307.558228 
	C949.526733,1302.720337 968.563782,1299.345581 986.974243,1293.836182 
	C995.945068,1291.151611 1005.638855,1290.844604 1014.076477,1285.616821 
	C1017.166260,1283.702393 1022.342102,1285.001465 1026.559326,1285.108765 
	C1029.972656,1285.195557 1033.375488,1285.693115 1037.147949,1286.042236 
	C1037.147949,1281.518433 1037.147949,1278.357910 1037.147949,1273.931030 
	C1042.084229,1276.054565 1046.308960,1278.290771 1050.795532,1279.684692 
	C1055.334961,1281.095215 1060.133423,1281.672119 1066.125610,1282.876953 
	C1069.798584,1280.330811 1074.685425,1276.997070 1079.514526,1273.582031 
	C1085.430176,1269.398682 1091.119507,1264.818237 1099.262939,1267.492920 
	C1100.379395,1267.859619 1102.226562,1266.394653 1103.591309,1265.545898 
	C1110.108765,1261.492920 1118.725586,1261.080444 1123.505493,1253.822266 
	C1124.155151,1252.835693 1127.184326,1252.925415 1128.963867,1253.273560 
	C1132.930542,1254.049316 1136.044556,1253.366211 1138.738281,1250.103516 
	C1146.675171,1240.490112 1156.673828,1238.035156 1168.271362,1242.334473 
	C1173.574707,1244.300415 1178.118042,1245.440552 1182.186035,1239.552246 
	C1183.380371,1237.823608 1187.656250,1237.757324 1190.526489,1237.733643 
	C1202.791504,1237.632324 1211.009521,1232.500610 1216.041016,1220.822021 
	C1220.209717,1211.145752 1226.171997,1202.233521 1231.458618,1193.051270 
	C1234.091797,1188.477661 1238.054932,1189.619507 1242.008911,1190.952515 
	C1247.956543,1192.958008 1253.863647,1195.151367 1259.935059,1196.680542 
	C1261.739502,1197.135010 1264.828857,1196.283325 1265.968262,1194.904907 
	C1270.176025,1189.814819 1274.207886,1184.486084 1277.556152,1178.804932 
	C1280.971313,1173.010498 1282.287720,1166.500854 1282.021729,1159.611084 
	C1281.704956,1151.403564 1281.947266,1143.174438 1281.947266,1134.067017 
	C1282.942749,1134.067017 1284.998535,1133.538330 1286.628784,1134.147583 
	C1306.158691,1141.447021 1326.968872,1142.025269 1347.148926,1145.876709 
	C1353.623291,1147.112305 1360.009644,1149.052979 1366.533447,1149.716553 
	C1372.993164,1150.373779 1374.189941,1148.500244 1372.941406,1142.267822 
	C1372.811035,1141.617188 1372.642578,1140.955566 1372.368896,1140.355103 
	C1366.645752,1127.801270 1372.962646,1119.147339 1381.758545,1111.290405 
	C1385.222778,1108.195923 1388.834473,1105.247925 1392.106567,1101.961914 
	C1395.105835,1098.949829 1397.738159,1095.572266 1400.585571,1092.294312 
	C1401.689453,1092.525635 1402.873169,1092.424927 1403.528564,1092.965088 
	C1409.823608,1098.153809 1416.664307,1098.284180 1424.224487,1096.176880 
	C1433.329590,1093.638916 1442.447388,1092.495239 1451.118286,1098.438354 
	C1452.813721,1099.600464 1456.892212,1099.615112 1458.352661,1098.373047 
	C1463.653442,1093.864746 1469.151001,1089.162231 1472.974121,1083.460083 
	C1476.924316,1077.568604 1477.303101,1070.174927 1475.185181,1063.187500 
	C1473.729370,1058.383423 1475.825317,1055.607056 1479.496094,1053.226196 
	C1488.134766,1047.622803 1496.379761,1041.261597 1505.494141,1036.593384 
	C1511.896606,1033.314087 1518.364746,1030.180054 1524.746094,1026.836548 
	C1527.604126,1025.339111 1532.530396,1026.733276 1536.132324,1027.953979 
	C1541.829346,1029.884521 1546.255981,1029.104248 1552.025879,1026.703491 
	C1565.287842,1021.185913 1577.563354,1012.482544 1593.204346,1013.238770 
	C1599.968140,1013.565796 1606.882935,1009.827332 1613.716797,1009.870850 
	C1623.622192,1009.933960 1633.498535,1011.982849 1643.420776,1012.754822 
	C1652.689331,1013.476013 1662.006348,1014.032593 1671.292725,1013.916138 
	C1678.546265,1013.825195 1682.428589,1010.435974 1683.928223,1003.413879 
	C1685.379517,996.618896 1686.025513,989.651917 1687.145874,981.929688 
	C1689.292603,980.889099 1691.956543,979.620972 1694.600220,978.311768 
	C1700.854614,975.214478 1707.360840,972.521851 1713.277954,968.875061 
	C1719.863281,964.816467 1726.278076,961.833069 1734.323242,960.883728 
	C1741.201416,960.072083 1747.645996,955.587158 1754.885986,952.237427 
	C1762.557373,964.520569 1763.912109,977.810669 1759.309448,991.726746 
	C1756.321045,1000.762207 1757.014648,1001.806274 1763.522095,1007.962280 
	C1770.906738,1014.948059 1776.003540,1023.192566 1775.756104,1034.033569 
	C1775.588623,1041.373047 1775.262695,1048.475098 1772.768311,1055.588501 
	C1768.281372,1068.383545 1771.022339,1081.139160 1774.425415,1093.762817 
	C1776.316895,1100.778931 1778.214966,1107.809692 1779.651245,1114.926514 
	C1780.684082,1120.043701 1783.292603,1122.648926 1788.497070,1122.285645 
	C1791.775391,1122.056763 1795.070801,1121.710815 1798.290771,1121.074219 
	C1810.572266,1118.646362 1822.669800,1118.290527 1834.359253,1123.706299 
	C1835.551880,1124.258911 1836.814575,1124.771484 1837.832642,1125.572266 
	C1846.080566,1132.061279 1846.065186,1132.080933 1855.754639,1133.090454 
	C1855.878906,1134.838745 1856.568115,1136.889038 1856.042603,1138.556763 
	C1854.379639,1143.835083 1854.310791,1147.634521 1858.240601,1152.962280 
	C1861.318848,1157.135864 1862.175659,1163.660645 1865.645386,1168.621216 
	C1866.792725,1170.261353 1866.496216,1174.842407 1865.124023,1175.973999 
	C1859.665649,1180.475098 1862.123901,1185.431274 1863.010132,1190.544556 
	C1864.078247,1196.707275 1865.865234,1203.005493 1865.434082,1209.110474 
	C1864.675903,1219.843140 1868.784912,1228.516357 1874.433716,1236.871826 
	C1876.098633,1239.334351 1878.179932,1241.548218 1880.261841,1243.690063 
	C1886.798340,1250.414307 1890.600708,1257.861084 1889.828369,1267.786499 
	C1888.751953,1281.620605 1892.570312,1294.806030 1897.547974,1307.585327 
	C1899.590332,1312.828125 1903.730957,1316.449585 1907.528198,1320.588501 
	C1914.680054,1328.384399 1924.567749,1333.191040 1929.740601,1343.553589 
	C1932.520996,1349.123657 1935.754883,1353.869995 1936.175293,1360.359863 
	C1936.488892,1365.202881 1939.528076,1368.947998 1944.042480,1371.191406 
	C1953.555176,1375.919312 1963.064697,1380.653809 1972.585815,1385.364624 
	C1973.173706,1385.655518 1973.968872,1386.091187 1974.469849,1385.910645 
	C1984.063232,1382.451782 1991.222778,1389.921509 1999.669312,1391.630005 
	C2009.817017,1393.682861 2015.798218,1399.698120 2018.212646,1410.897705 
	C2019.848022,1418.484253 2025.957764,1425.260498 2030.648438,1431.993774 
	C2036.141357,1439.878418 2042.667847,1447.011963 2045.294312,1456.669556 
	C2046.258423,1460.214844 2046.451172,1462.903076 2043.839966,1465.786011 
	C2036.292480,1474.118774 2029.027222,1482.708618 2021.424561,1490.989380 
	C2019.981445,1492.561157 2017.473022,1494.125366 2015.500488,1494.071533 
	C2007.319824,1493.848145 1999.180420,1495.486816 1990.945068,1492.133301 
	C1980.394287,1487.836914 1969.531250,1488.501343 1959.382935,1494.500977 
	C1955.376709,1496.869629 1951.275879,1499.078491 1947.210449,1501.346313 
	C1933.704834,1508.880005 1920.351318,1506.812256 1909.623901,1495.582275 
	C1904.125000,1489.825928 1898.541870,1484.150024 1893.046387,1478.390381 
	C1890.093018,1475.295288 1886.948975,1473.430542 1882.485229,1475.330566 
	C1879.141602,1476.753784 1875.619995,1477.752441 1872.216797,1479.042969 
	C1864.791016,1481.858643 1857.425537,1484.836670 1849.967285,1487.561523 
	C1844.693481,1489.488525 1839.648926,1491.149780 1835.399048,1495.551758 
	C1832.173340,1498.893066 1827.039673,1500.767212 1822.426147,1502.313232 
	C1813.855713,1505.184814 1807.176758,1510.066040 1802.259155,1517.654541 
	C1800.953003,1519.670166 1798.713623,1521.128784 1796.767944,1522.673340 
	C1790.346802,1527.770752 1781.898926,1530.341919 1777.820312,1538.379517 
	C1776.015625,1541.936157 1774.937134,1545.006958 1775.280029,1549.453735 
	C1776.968384,1571.342285 1777.449585,1593.302734 1773.493164,1615.062378 
	C1772.972290,1617.927002 1771.940918,1621.090088 1770.119873,1623.250000 
	C1765.572876,1628.643066 1764.703003,1635.197632 1762.887817,1641.564331 
	C1761.558960,1646.224731 1759.734741,1650.885498 1757.278564,1655.042236 
	C1754.928955,1659.018921 1753.290039,1662.638916 1755.308105,1667.146851 
	C1758.135254,1673.461914 1756.644043,1678.267212 1752.492920,1684.196045 
	C1746.979126,1692.070801 1742.351929,1700.243774 1734.449829,1706.266479 
	C1732.091675,1708.063843 1731.864258,1712.656982 1730.196533,1717.246826 
	C1728.383545,1718.404175 1725.097778,1720.044067 1722.380493,1722.352905 
	C1719.031372,1725.198730 1720.508667,1727.481689 1724.543701,1729.453491 
z"/>

</svg>