<svg version="1.1" id="Layer_1" xmlns="http://www.w3.org/2000/svg" xmlns:xlink="http://www.w3.org/1999/xlink" x="0px" y="0px"
	 width="100%" viewBox="0 0 2209 2830" enable-background="new 0 0 2209 2830" xml:space="preserve">

<path 
	data-name="Bogo"
fill="#BF5FE8" opacity="1.000000" stroke="none" 
	d="
M1271.409546,1894.459473 
	C1256.743774,1906.916382 1242.077271,1919.372192 1227.413086,1931.831055 
	C1224.397095,1934.393433 1221.390503,1936.967041 1218.562988,1939.378784 
	C1220.997070,1953.811035 1228.123657,1965.087036 1238.207397,1974.785767 
	C1251.623291,1987.689697 1264.863892,2000.776245 1278.287964,2013.671631 
	C1280.909180,2016.189941 1283.870361,2018.434814 1286.936646,2020.396362 
	C1309.985718,2035.140137 1330.860840,2052.705322 1351.531494,2070.486084 
	C1356.193970,2074.497070 1360.565063,2079.643555 1363.103027,2085.170654 
	C1369.502563,2099.106445 1373.301025,2113.902100 1374.384399,2129.333252 
	C1374.917603,2136.928711 1375.517090,2144.588379 1377.046631,2152.021240 
	C1378.111572,2157.197510 1377.060913,2161.028076 1373.728271,2164.788574 
	C1345.731934,2196.381348 1317.799194,2228.030029 1289.812622,2259.631104 
	C1278.794067,2272.072754 1267.647095,2284.400635 1256.635132,2296.847900 
	C1248.648560,2305.875488 1238.907593,2311.251709 1227.004761,2313.914307 
	C1215.606567,2316.463623 1205.142822,2321.421875 1197.718506,2331.442871 
	C1192.936890,2337.896484 1190.970215,2344.972656 1190.345337,2352.684082 
	C1190.264771,2353.677246 1190.222656,2354.696289 1190.345825,2355.680420 
	C1193.884399,2383.957520 1178.451538,2390.281494 1155.648804,2399.678711 
	C1136.469482,2400.801758 1120.375000,2410.727783 1103.402710,2418.093018 
	C1093.645264,2422.327393 1083.971680,2426.789795 1074.484253,2431.592285 
	C1071.127197,2433.291260 1067.963257,2435.903320 1065.519531,2438.784180 
	C1054.878174,2451.329834 1047.446289,2465.651611 1041.706909,2481.098877 
	C1033.538574,2503.083740 1013.253296,2515.514404 990.022156,2513.579102 
	C987.151123,2513.340088 984.309326,2512.083740 981.574341,2510.995850 
	C970.385071,2506.546143 958.824524,2503.773193 946.771973,2504.531006 
	C943.589111,2504.731201 939.584351,2506.521973 937.654419,2508.938232 
	C933.619019,2513.990723 935.397766,2518.593994 942.072083,2522.707275 
	C948.865173,2526.893311 955.831238,2530.798584 962.625671,2534.982666 
	C973.376038,2541.603027 975.794800,2547.526367 972.871216,2559.862793 
	C972.262451,2562.431396 971.488892,2565.009766 970.403992,2567.408447 
	C961.370911,2587.382324 964.733582,2606.859131 972.651733,2626.151367 
	C976.010498,2634.334717 981.452026,2639.318848 991.059204,2637.705322 
	C992.255005,2637.504639 993.559448,2637.950195 995.103699,2638.130127 
	C995.519958,2648.966309 996.169250,2659.455811 996.151550,2669.944092 
	C996.147156,2672.547607 994.350708,2675.413574 992.711426,2677.675781 
	C990.985229,2680.057861 988.660095,2682.137939 986.253296,2683.873291 
	C969.382324,2696.038574 965.305969,2713.164062 968.488403,2732.316895 
	C970.363525,2743.602295 969.479126,2753.897705 964.841431,2764.291016 
	C960.932922,2773.049805 957.847595,2781.975586 957.944092,2792.069092 
	C957.997498,2797.657227 954.753113,2803.396973 952.472534,2808.849854 
	C950.591248,2813.347656 947.503235,2816.400146 941.745422,2815.783936 
	C936.242432,2815.194824 933.315491,2818.912109 931.731873,2823.690186 
	C931.006287,2825.879883 930.696594,2828.207031 930.099121,2831.235840 
	C927.222229,2832.000000 924.444397,2832.000000 921.191284,2831.348877 
	C912.017090,2822.491943 902.756714,2814.792725 894.769409,2805.944580 
	C885.909851,2796.130127 876.208801,2795.724854 865.088318,2800.385010 
	C856.194763,2804.112305 847.216309,2807.645264 838.397949,2811.541748 
	C832.806335,2814.012207 827.717773,2814.110352 823.185730,2810.606689 
	C822.639709,2800.160400 830.279968,2794.782471 835.511353,2788.174561 
	C838.790466,2784.032715 841.313782,2780.126953 839.627380,2774.393799 
	C836.587158,2772.617432 833.579529,2770.477539 830.271484,2769.018555 
	C825.524170,2766.925049 820.076538,2766.061035 816.227600,2769.992920 
	C810.675171,2775.665527 805.570251,2774.264404 800.493042,2770.279785 
	C797.803650,2768.169189 795.310364,2765.320312 793.813843,2762.271729 
	C789.714905,2753.921875 786.038452,2752.855469 778.768616,2758.760498 
	C776.447815,2760.645508 773.968933,2762.442871 772.051025,2764.696533 
	C766.938171,2770.703857 759.511108,2771.684814 753.889832,2768.818359 
	C748.225220,2765.930176 742.574036,2760.447754 744.240601,2751.915039 
	C744.804871,2749.025635 744.156738,2745.920410 744.371155,2742.936279 
	C744.637268,2739.231689 743.440918,2736.686279 740.071899,2734.788574 
	C736.021240,2732.506592 732.541992,2728.986328 728.296814,2727.335449 
	C723.928101,2725.636475 718.934998,2725.542725 713.288147,2724.590088 
	C718.427002,2717.435791 716.771301,2708.173340 723.619019,2701.967773 
	C726.667603,2699.205078 725.113525,2694.257324 721.348633,2692.008057 
	C717.644348,2689.794922 713.471130,2688.349854 709.832275,2686.048340 
	C703.555664,2682.078369 697.866028,2677.142334 698.306091,2668.943848 
	C698.579102,2663.858154 700.509399,2658.861572 701.731140,2653.675049 
	C706.624451,2653.675049 710.271423,2653.793457 713.907959,2653.649170 
	C720.327637,2653.394775 722.249512,2651.633789 722.209167,2645.208496 
	C722.191345,2642.362305 721.425964,2639.302979 720.197083,2636.722900 
	C716.579712,2629.127930 713.857605,2621.385010 714.307495,2612.841064 
	C714.486450,2609.441895 713.163086,2607.449219 710.011597,2605.857666 
	C691.901062,2596.710205 672.537537,2591.597900 652.794434,2587.667725 
	C647.215820,2586.557129 643.097839,2583.897461 640.502441,2578.628662 
	C638.777466,2575.126953 636.297180,2571.999023 634.172607,2568.692383 
	C630.962524,2563.696289 627.741638,2558.706543 624.575928,2553.682373 
	C622.637939,2550.606934 620.928345,2547.380127 618.879578,2544.383301 
	C615.138977,2538.911377 611.088013,2533.649170 607.412964,2528.135498 
	C602.467529,2520.715820 597.567078,2513.253418 593.002991,2505.597168 
	C589.394897,2499.544678 583.930542,2497.308350 577.409241,2496.245361 
	C574.209778,2495.723877 570.457092,2495.154541 568.163757,2493.193115 
	C562.427917,2488.287842 555.366089,2485.150391 550.786621,2478.559326 
	C546.892212,2472.954102 540.218384,2469.409180 538.543030,2461.971436 
	C538.234192,2460.600098 536.530334,2459.391357 535.236145,2458.419434 
	C528.334229,2453.236328 525.393799,2447.096924 529.328735,2438.562744 
	C531.303284,2434.280273 530.973022,2429.754150 526.351562,2427.217773 
	C519.200684,2423.293457 518.619934,2416.024414 516.845703,2409.448975 
	C516.331848,2407.544678 516.915894,2404.266113 518.268494,2403.124756 
	C523.754944,2398.494629 522.340698,2393.382080 520.854675,2387.648682 
	C519.361145,2381.886475 517.373169,2376.348389 511.596619,2374.338135 
	C505.558899,2372.236572 505.251953,2368.065918 505.946106,2363.296387 
	C506.465881,2359.725098 507.390869,2356.056885 508.957153,2352.830811 
	C511.184265,2348.244141 510.428192,2344.399658 507.292480,2340.889160 
	C503.124146,2336.222656 498.828857,2331.657471 494.393463,2327.244629 
	C490.031097,2322.904297 486.593170,2318.933350 489.004272,2311.732422 
	C491.350006,2304.727051 488.856995,2298.333984 483.527008,2292.661865 
	C480.267944,2289.193604 477.840820,2284.444824 476.434906,2279.844727 
	C474.022705,2271.952637 475.953522,2268.939453 483.676392,2266.241455 
	C488.652100,2264.503174 493.786896,2263.219482 498.759918,2261.474121 
	C502.351746,2260.213623 504.804169,2256.846436 503.178497,2253.697998 
	C499.484985,2246.543945 502.536896,2240.322021 505.107849,2233.770264 
	C517.848572,2231.868652 529.875488,2228.036133 541.940369,2235.517090 
	C541.940369,2237.808594 541.716492,2240.427002 541.982666,2242.994629 
	C542.756958,2250.465088 548.615234,2255.388428 553.715820,2252.179443 
	C562.768677,2246.484375 572.852783,2245.281494 583.372620,2243.832520 
	C584.753113,2236.734619 592.363159,2231.380371 587.556152,2222.792725 
	C586.699280,2221.262207 588.781921,2217.969727 589.744141,2215.586426 
	C590.216553,2214.416504 591.859314,2213.491211 591.903442,2212.411621 
	C592.332886,2201.917969 593.083313,2191.390625 592.613220,2180.923584 
	C592.292908,2173.792236 592.697998,2167.204102 595.443909,2160.516602 
	C597.415405,2155.715088 599.665527,2150.139160 598.988159,2145.301270 
	C596.697815,2128.940674 605.280762,2115.994141 609.762695,2100.904053 
	C616.254761,2104.601074 618.338013,2109.906250 621.087952,2114.630859 
	C625.153625,2121.615967 633.189880,2123.183594 639.186096,2117.804443 
	C647.857971,2110.025146 656.449036,2102.148926 664.890198,2094.120361 
	C679.547119,2080.179688 679.500793,2080.115479 676.422974,2059.797607 
	C675.554260,2054.063232 675.383667,2048.527832 679.605225,2043.793091 
	C683.152832,2039.814331 684.250916,2035.036011 683.687805,2029.850098 
	C683.214478,2025.490601 684.768921,2022.120972 688.093140,2019.330322 
	C690.889099,2016.983276 693.490540,2014.404541 696.983704,2012.069092 
	C700.739868,2012.712891 703.677551,2013.546143 706.643188,2013.661865 
	C720.188782,2014.191162 732.841370,2017.006592 744.087158,2025.317505 
	C746.959290,2027.440063 751.532776,2027.944702 755.341675,2027.999512 
	C773.666992,2028.263184 791.998352,2028.155640 810.327148,2028.080688 
	C813.292725,2028.068604 816.567566,2028.278198 819.168213,2027.155029 
	C832.249329,2021.506104 845.154236,2015.448975 858.081909,2009.552979 
	C858.180176,1995.463867 847.520508,1984.506836 849.251892,1970.401733 
	C867.307373,1970.401733 884.929749,1970.496826 902.549805,1970.336426 
	C907.108582,1970.294922 911.800110,1970.003052 916.191528,1968.886230 
	C939.816284,1962.877930 962.265259,1953.534424 984.613464,1943.991821 
	C991.179016,1941.188477 997.768066,1940.010742 1004.915955,1940.013550 
	C1028.956299,1940.023071 1052.687012,1937.311401 1075.980835,1931.031860 
	C1082.038452,1929.398804 1088.336304,1928.448120 1094.587402,1927.780029 
	C1114.426025,1925.660034 1134.291992,1923.793945 1154.152466,1921.882080 
	C1173.833984,1919.987305 1192.892944,1916.030396 1210.157227,1905.716187 
	C1213.289307,1903.844971 1216.712402,1902.450562 1220.036621,1900.912964 
	C1244.634521,1889.534424 1244.637451,1889.540649 1271.409546,1894.459473 
z"/>

<path 
	data-name="Bogo"
fill="#8F4775" opacity="1.000000" stroke="none" 
	d="
M1899.360962,1459.948730 
	C1903.724976,1471.085205 1908.204712,1482.178101 1912.426636,1493.368408 
	C1919.154297,1511.200562 1932.612183,1522.098755 1949.849121,1528.171021 
	C1970.205933,1535.342529 1991.061157,1541.086426 2011.535889,1547.940186 
	C2029.561523,1553.974121 2045.267700,1563.323364 2054.574219,1580.986572 
	C2056.726318,1585.071533 2059.676514,1588.750610 2062.389648,1592.522949 
	C2069.220703,1602.020874 2074.655518,1612.109863 2078.424561,1623.318237 
	C2081.250977,1631.723022 2085.862305,1639.541626 2089.839111,1647.541504 
	C2092.859375,1653.617432 2097.985840,1657.015381 2104.590820,1658.258057 
	C2114.513672,1660.125000 2122.031006,1665.432251 2128.486816,1673.209595 
	C2134.733643,1680.735229 2135.288330,1688.770630 2133.242920,1697.548218 
	C2132.643555,1700.120117 2131.342285,1702.520874 2130.601074,1705.069336 
	C2129.198486,1709.893188 2129.828369,1713.745483 2134.249756,1717.360229 
	C2138.805908,1721.084839 2142.198486,1726.205933 2146.289795,1730.536743 
	C2148.290283,1732.654297 2150.541016,1734.657349 2153.007812,1736.178345 
	C2155.524902,1737.730347 2158.343994,1739.039917 2161.206055,1739.744629 
	C2179.135010,1744.159180 2194.353027,1754.382446 2211.277832,1762.246582 
	C2212.000000,1766.741089 2212.000000,1771.482300 2212.000000,1777.111694 
	C2210.748047,1779.000000 2208.577393,1779.855347 2208.393311,1781.023438 
	C2207.260498,1788.220337 2205.929932,1795.480957 2205.855469,1802.732666 
	C2205.554932,1832.025635 2207.509766,1822.762085 2193.449463,1848.751221 
	C2192.506104,1850.494751 2191.456543,1852.180786 2190.221191,1854.296265 
	C2196.895264,1866.393433 2197.339600,1878.789551 2190.651611,1891.188965 
	C2190.494141,1891.480713 2190.239258,1891.832031 2190.289795,1892.107544 
	C2192.841064,1905.962280 2184.295654,1918.503540 2185.586426,1932.293945 
	C2185.996094,1936.670776 2184.606934,1941.216064 2183.825195,1947.389893 
	C2174.558105,1941.031250 2169.442871,1933.310425 2164.176758,1926.003174 
	C2160.128906,1920.385986 2157.177490,1913.916748 2154.185547,1907.614136 
	C2149.098145,1896.897583 2141.982666,1889.831543 2129.044434,1890.048218 
	C2123.152344,1890.146973 2117.225830,1888.417603 2111.320557,1887.481201 
	C2096.266357,1885.094116 2081.288330,1881.517456 2066.145264,1880.572021 
	C2045.451172,1879.280518 2025.427979,1875.176636 2005.268677,1870.884277 
	C1988.666016,1867.349121 1972.136230,1863.800415 1956.326050,1857.607788 
	C1949.908691,1855.093994 1943.990356,1851.946533 1939.710205,1845.620850 
	C1934.409668,1837.787109 1925.052246,1836.412231 1916.500244,1836.517578 
	C1906.053711,1836.646362 1896.881470,1833.677002 1887.858398,1829.149048 
	C1885.189453,1827.809814 1882.255005,1826.982788 1879.636963,1825.562012 
	C1870.337036,1820.515259 1858.179443,1826.169434 1853.167480,1833.329712 
	C1850.132690,1837.665039 1846.301025,1841.433716 1843.062500,1845.638062 
	C1841.072021,1848.221924 1838.876221,1850.938599 1837.902954,1853.959717 
	C1835.161011,1862.470947 1830.122925,1869.153198 1823.625977,1875.119995 
	C1818.250488,1880.057007 1814.249146,1885.835449 1811.098267,1892.783691 
	C1806.351318,1903.252197 1799.879639,1913.027832 1793.390625,1922.588623 
	C1788.281982,1930.115967 1785.739136,1938.102051 1786.369751,1946.943115 
	C1786.855957,1953.761963 1785.220825,1959.077881 1779.868896,1963.671143 
	C1774.346313,1968.411255 1771.690063,1974.876587 1772.031616,1983.558838 
	C1766.710083,1984.956665 1761.417358,1987.260742 1756.013672,1987.560059 
	C1747.043091,1988.056763 1740.547974,1992.270630 1736.544189,1999.536865 
	C1733.510010,2005.043579 1729.471924,2008.317383 1723.789429,2009.659790 
	C1718.589966,2010.888062 1715.137817,2013.874512 1711.821533,2017.896729 
	C1707.613525,2023.000244 1702.888306,2027.797852 1697.791870,2032.008179 
	C1694.031250,2035.114990 1693.095947,2038.073853 1694.989624,2042.364258 
	C1697.252930,2047.492065 1699.351074,2052.692871 1701.500610,2057.814453 
	C1698.900146,2061.839355 1695.625488,2062.777344 1692.397827,2059.445068 
	C1688.967407,2055.903320 1686.116577,2051.785889 1683.133911,2047.828613 
	C1680.148926,2043.868408 1677.467407,2039.672485 1674.375000,2035.801880 
	C1670.232910,2030.617798 1664.870972,2028.224854 1658.047607,2027.485840 
	C1649.562378,2026.566650 1641.243774,2024.109009 1631.759888,2022.082153 
	C1627.828125,2026.475952 1622.878296,2025.364502 1616.823486,2022.399780 
	C1599.165649,2013.754395 1585.329102,2001.688110 1576.822754,1983.609375 
	C1573.299194,1976.120850 1568.227295,1969.376709 1564.214478,1962.098267 
	C1559.732178,1953.968506 1556.156738,1945.304321 1551.280640,1937.434082 
	C1543.936035,1925.579224 1535.837524,1914.189697 1527.979126,1902.656860 
	C1526.490234,1900.471558 1524.462402,1898.654541 1522.963379,1896.474854 
	C1501.279053,1864.946655 1479.542969,1833.453003 1458.072876,1801.779297 
	C1453.336548,1794.792114 1448.262207,1789.812012 1439.047119,1789.457397 
	C1432.864746,1789.219604 1426.657349,1787.161133 1420.660034,1785.282593 
	C1414.653076,1783.401123 1410.100342,1784.043213 1405.479126,1788.910156 
	C1397.930786,1796.860352 1389.619995,1804.086548 1380.677979,1811.301514 
	C1377.761597,1807.899780 1375.604736,1804.915649 1373.916016,1801.686768 
	C1373.073975,1800.076660 1372.243408,1797.660767 1372.852905,1796.221313 
	C1376.757690,1786.999268 1380.933960,1777.739502 1391.128662,1773.676880 
	C1403.448242,1768.767334 1415.680786,1763.495728 1428.320435,1759.570068 
	C1443.197876,1754.948975 1458.529297,1751.811157 1473.548706,1747.617188 
	C1481.173218,1745.488159 1488.567627,1742.516357 1496.021851,1739.803711 
	C1500.759644,1738.079590 1503.009766,1734.551758 1504.527832,1729.650635 
	C1508.255493,1717.616821 1512.849854,1705.854126 1516.865601,1693.905029 
	C1517.794067,1691.142090 1517.897095,1688.080322 1518.218262,1685.138306 
	C1520.379395,1665.347290 1522.525879,1645.507935 1528.958618,1626.560547 
	C1532.026733,1617.523438 1536.512817,1608.967896 1540.918213,1599.839355 
	C1550.459595,1586.736084 1559.421997,1573.975220 1568.429810,1561.246460 
	C1571.294189,1557.198853 1575.681519,1553.639648 1576.966675,1549.165771 
	C1582.526978,1529.809814 1589.779541,1510.843140 1588.083252,1489.888916 
	C1586.424805,1469.400879 1586.857056,1448.749390 1585.446899,1428.233276 
	C1584.559937,1415.329224 1585.283325,1403.175781 1593.032959,1392.370117 
	C1597.778687,1385.752686 1600.619019,1378.489502 1602.307007,1370.554932 
	C1603.809570,1363.492065 1606.047852,1356.585693 1608.652588,1349.778809 
	C1610.991943,1351.050903 1612.643188,1352.150024 1614.288208,1353.258667 
	C1625.907593,1361.088989 1637.723389,1368.218262 1652.082275,1370.261353 
	C1660.581055,1371.470825 1669.073730,1373.516724 1677.225342,1376.222534 
	C1701.643555,1384.328003 1726.621826,1388.980835 1752.305786,1390.120239 
	C1762.644653,1390.578857 1767.154297,1396.482178 1764.781128,1406.667847 
	C1763.249268,1413.243286 1763.957153,1418.937622 1768.099609,1424.485718 
	C1771.867188,1429.531860 1775.022217,1435.048340 1778.276001,1440.460693 
	C1780.878174,1444.788940 1784.642212,1447.680542 1789.536133,1447.698975 
	C1801.140991,1447.742432 1811.718750,1451.391235 1822.228760,1455.684448 
	C1827.547852,1457.857178 1832.843262,1458.323120 1838.737915,1456.888672 
	C1859.165405,1451.918091 1879.477295,1452.524780 1899.360962,1459.948730 
z"/>
<path 
	data-name="Bogo"
fill="#6A85C4" opacity="1.000000" stroke="none" 
	d="
M1899.659546,1459.250244 
	C1879.477295,1452.524780 1859.165405,1451.918091 1838.737915,1456.888672 
	C1832.843262,1458.323120 1827.547852,1457.857178 1822.228760,1455.684448 
	C1811.718750,1451.391235 1801.140991,1447.742432 1789.536133,1447.698975 
	C1784.642212,1447.680542 1780.878174,1444.788940 1778.276001,1440.460693 
	C1775.022217,1435.048340 1771.867188,1429.531860 1768.099609,1424.485718 
	C1763.957153,1418.937622 1763.249268,1413.243286 1764.781128,1406.667847 
	C1767.154297,1396.482178 1762.644653,1390.578857 1752.305786,1390.120239 
	C1726.621826,1388.980835 1701.643555,1384.328003 1677.225342,1376.222534 
	C1669.073730,1373.516724 1660.581055,1371.470825 1652.082275,1370.261353 
	C1637.723389,1368.218262 1625.907593,1361.088989 1614.288208,1353.258667 
	C1612.643188,1352.150024 1610.991943,1351.050903 1608.334229,1349.229004 
	C1604.110962,1345.649658 1601.308594,1341.998291 1597.608154,1340.071533 
	C1584.961914,1333.485718 1575.790039,1322.753540 1565.178711,1313.774292 
	C1558.635132,1308.237183 1553.178955,1301.418701 1546.659546,1295.848389 
	C1534.415527,1285.386963 1524.070801,1272.263428 1507.644043,1267.438599 
	C1504.153320,1266.413452 1503.717163,1263.181030 1504.456177,1259.988403 
	C1505.504028,1255.462280 1507.014160,1251.025513 1507.797363,1246.459717 
	C1509.396240,1237.138794 1505.951904,1232.581177 1496.892334,1229.254639 
	C1491.716797,1227.354126 1487.862427,1229.988770 1483.539185,1231.246826 
	C1478.467773,1232.722412 1473.559814,1235.320068 1468.089355,1232.947876 
	C1463.518066,1230.965820 1458.705078,1229.373535 1454.479248,1226.815308 
	C1451.040283,1224.733521 1448.170898,1224.605469 1444.255127,1225.239014 
	C1439.187256,1226.059204 1433.304077,1226.371826 1428.713135,1224.541870 
	C1421.887573,1221.820923 1415.912964,1216.987549 1409.508301,1213.167114 
	C1408.421143,1212.518677 1406.990845,1212.449219 1405.722168,1212.100952 
	C1392.636597,1208.509277 1379.485596,1205.136475 1366.488403,1201.248779 
	C1356.745728,1198.334595 1347.351196,1196.942139 1337.239624,1200.258301 
	C1325.932617,1203.966675 1314.278931,1206.699829 1302.660278,1209.348755 
	C1293.933960,1211.338013 1284.965698,1210.944336 1278.174561,1204.483887 
	C1271.909424,1198.523682 1264.713867,1196.721313 1256.618408,1195.826294 
	C1244.947021,1194.535889 1242.452515,1190.576294 1245.332275,1179.096680 
	C1248.962891,1164.623657 1252.435913,1150.104736 1256.418823,1135.728027 
	C1260.702026,1120.266602 1266.182495,1104.841187 1275.719238,1092.130737 
	C1284.418945,1080.536011 1287.654907,1067.891235 1289.585938,1054.452271 
	C1290.091431,1050.934570 1288.644775,1046.517212 1286.685791,1043.397949 
	C1283.003174,1037.533936 1278.525024,1032.111694 1273.938477,1026.891602 
	C1270.273315,1022.720276 1267.457397,1018.548645 1267.980469,1012.681702 
	C1268.145630,1010.828796 1267.498291,1008.903503 1267.214233,1006.952637 
	C1256.241333,1005.317688 1247.511230,1000.125488 1238.930786,994.253540 
	C1230.750366,988.655273 1222.332764,983.208435 1213.431030,978.915100 
	C1204.819946,974.762024 1195.204346,972.722778 1187.811279,966.046143 
	C1186.710205,965.051758 1184.870605,964.875244 1182.435059,963.973145 
	C1179.499878,968.135864 1176.042236,971.832275 1173.975952,976.188660 
	C1166.879517,991.150574 1153.258789,998.008362 1139.362061,1004.181335 
	C1135.165894,1006.045227 1129.432129,1006.024414 1124.817261,1004.999695 
	C1117.879517,1003.459412 1112.675293,1005.029175 1107.346680,1009.376465 
	C1098.853760,1016.305176 1089.978882,1022.775208 1081.136475,1029.263184 
	C1074.524902,1034.114502 1066.886719,1037.596436 1058.885254,1035.166504 
	C1052.231812,1033.145874 1047.949219,1035.442383 1043.590820,1039.277588 
	C1040.846436,1041.692627 1037.763428,1044.061523 1035.929810,1047.110962 
	C1029.719727,1057.438721 1019.706665,1061.303955 1008.911926,1064.092529 
	C1006.031677,1064.836670 1002.983276,1065.107788 1000.246277,1066.188843 
	C995.673584,1067.994873 990.847168,1069.673096 986.945679,1072.524658 
	C982.711121,1075.619507 979.575256,1080.064941 973.890869,1081.220825 
	C972.386353,1081.526611 970.213074,1083.860107 970.192932,1085.288574 
	C970.060608,1094.693359 963.834595,1095.734253 956.633423,1096.022217 
	C951.691528,1096.219849 947.445190,1098.047607 945.519958,1103.022583 
	C943.187561,1109.049683 938.790283,1111.447510 932.539429,1112.178101 
	C930.089844,1112.464478 927.408630,1114.760498 925.727295,1116.858276 
	C921.158447,1122.558350 917.319275,1128.849121 912.676270,1134.481445 
	C910.509949,1137.109497 907.434021,1139.792236 904.281860,1140.645386 
	C896.273621,1142.813354 887.999329,1143.458374 880.189026,1139.702148 
	C883.393188,1133.737427 883.735718,1128.502197 880.795898,1122.991699 
	C878.931335,1119.496948 877.652039,1115.688721 876.125549,1112.014893 
	C873.183655,1104.934692 868.762024,1100.092041 860.619934,1098.348999 
	C852.182617,1096.542480 851.589294,1094.853516 852.261536,1086.538696 
	C852.393921,1084.901855 852.693481,1083.239380 853.197937,1081.679932 
	C854.346802,1078.128662 853.786438,1075.550781 850.539856,1073.069092 
	C844.598328,1068.527222 842.857605,1061.672852 842.160400,1054.625977 
	C841.736206,1050.338501 842.341919,1045.918945 841.653137,1041.694336 
	C840.398499,1033.999268 840.628418,1026.046143 834.698547,1019.399414 
	C828.584351,1012.545898 823.527161,1004.698425 818.427307,997.007568 
	C814.583862,991.211548 811.347656,985.007263 807.937927,978.930420 
	C800.090698,964.944946 787.496460,955.589600 775.954102,944.977417 
	C780.757690,936.498108 780.810913,929.342041 773.921509,924.012207 
	C766.060242,917.930542 761.438049,908.110962 751.208496,904.744385 
	C749.705627,904.249817 748.521545,901.072693 748.222839,898.988770 
	C747.589905,894.573059 745.551575,891.698181 741.492859,889.872253 
	C739.813232,889.116638 738.518982,887.504395 735.918335,885.340576 
	C740.103455,881.333191 743.785889,877.807068 747.720886,874.039246 
	C747.163391,871.833313 746.094177,869.325623 746.022522,866.789795 
	C745.961975,864.645569 746.356995,861.469849 747.764709,860.483276 
	C753.143982,856.713318 758.613770,853.275879 762.034668,847.329773 
	C762.574341,846.391785 765.010132,846.660095 766.468323,846.105469 
	C768.239929,845.431824 770.001160,844.628357 771.595459,843.612122 
	C774.880310,841.518494 778.067993,839.270386 781.264771,837.041565 
	C785.660645,833.976685 792.050049,833.373962 793.615662,826.697449 
	C793.827454,825.794250 796.297241,825.420471 796.320496,825.410400 
	C796.320496,819.783813 796.275574,814.936890 796.333069,810.091125 
	C796.390259,805.274353 799.330200,802.096680 803.040344,799.788269 
	C807.223572,797.185608 810.011169,800.999634 813.291443,803.246826 
	C816.597412,800.286438 821.803772,797.904419 822.433594,794.639587 
	C824.446594,784.204224 830.693115,779.786194 839.777161,775.428467 
	C845.145691,772.853088 849.819397,771.835083 855.240967,771.709656 
	C858.486755,771.634460 861.735596,771.695862 864.877075,771.695862 
	C865.909180,769.019653 866.947083,767.227478 867.277954,765.313110 
	C868.604370,757.640015 870.791748,750.981567 880.521240,751.163330 
	C881.344543,751.178772 882.210693,750.192261 883.017029,749.615479 
	C888.675476,745.567627 895.452393,747.101013 901.634888,746.499329 
	C905.307983,746.141907 909.682007,748.717224 913.085510,750.965881 
	C917.139038,753.643921 920.455322,757.424866 924.155518,760.653931 
	C928.276367,764.250122 931.833435,761.308838 934.910156,759.085876 
	C938.302795,756.634583 942.341858,754.119080 941.998291,748.997681 
	C941.925476,747.913025 940.813965,746.505920 939.796265,745.942749 
	C934.627747,743.082764 933.715088,738.829529 934.258484,733.273682 
	C934.755249,728.195068 932.346008,722.579224 937.715820,719.754395 
	C936.895142,714.525146 936.195007,710.063965 935.789490,707.480042 
	C946.161438,699.336487 955.562195,692.815247 963.787476,685.049133 
	C966.823486,682.182617 969.463928,680.063171 973.229553,679.814392 
	C975.090515,672.231567 977.518616,665.952759 986.395142,665.533813 
	C987.789001,665.468018 989.033875,663.780457 990.487000,663.180054 
	C997.918640,660.109802 1003.734985,650.765747 1013.690979,657.138062 
	C1014.256409,657.499939 1015.585632,656.861938 1016.476929,656.491333 
	C1025.245117,652.845032 1034.000610,649.168335 1042.740112,645.453857 
	C1043.316406,645.208923 1044.122925,644.617737 1044.162842,644.133240 
	C1044.667480,638.022095 1050.514893,637.725952 1054.061279,635.552307 
	C1053.358643,611.997192 1053.358643,611.997192 1060.821289,611.383850 
	C1061.640625,614.564026 1062.182983,617.848816 1063.339355,620.901123 
	C1065.099609,625.547302 1068.469727,627.265320 1071.589111,624.169556 
	C1080.125366,615.697632 1093.813354,613.244324 1098.643921,600.264954 
	C1099.795776,597.170044 1102.708740,593.548584 1105.034058,591.450378 
	C1110.981323,586.083862 1112.244385,580.431396 1110.705688,573.225464 
	C1110.483887,572.187195 1111.238770,570.554077 1112.073242,569.743591 
	C1115.548584,566.368164 1118.244385,562.336975 1123.568848,560.841370 
	C1131.867065,558.510437 1139.751587,554.732849 1148.015381,552.245789 
	C1155.499268,549.993652 1161.895142,546.231812 1168.145752,541.659485 
	C1172.632446,538.377502 1175.487183,534.903198 1174.229980,529.321655 
	C1172.931763,523.557922 1176.139893,520.623413 1180.476562,518.273132 
	C1182.803955,517.011902 1185.442871,516.279541 1187.656006,514.862976 
	C1191.942505,512.119202 1195.244995,512.485168 1200.271484,514.619751 
	C1206.189209,517.132751 1214.363037,518.305237 1219.871948,513.255371 
	C1223.344971,510.071686 1226.656250,508.070099 1230.968872,507.630310 
	C1244.261597,506.274750 1253.871826,499.740265 1259.917725,487.846069 
	C1260.138062,487.412476 1261.051758,487.331177 1261.519165,487.136841 
	C1264.693848,488.221832 1267.761108,489.270111 1272.360229,490.841919 
	C1274.774780,487.859375 1277.089844,484.556885 1279.883179,481.726440 
	C1281.400757,480.188721 1283.611572,478.907104 1285.715088,478.445343 
	C1299.114746,475.503479 1311.589722,470.777222 1322.297241,461.826385 
	C1329.170166,456.080994 1329.605713,456.176849 1326.653809,447.733398 
	C1324.340942,441.117584 1322.318359,434.934540 1329.435669,429.867188 
	C1330.430908,429.158569 1331.283813,427.714172 1331.473633,426.496582 
	C1332.787964,418.072998 1339.295288,413.736908 1345.021729,408.710632 
	C1349.249756,404.999634 1353.309082,401.093140 1357.380859,397.208160 
	C1364.605713,390.314819 1371.632568,383.203644 1379.070557,376.550415 
	C1381.343018,374.517670 1384.557251,373.084900 1387.570312,372.420074 
	C1395.738770,370.617706 1399.704590,367.275238 1399.506470,359.227448 
	C1399.317017,351.527954 1402.843384,346.299988 1408.623047,342.621277 
	C1414.887329,338.634094 1418.760864,333.133759 1421.507568,326.594330 
	C1425.320190,317.517181 1434.698730,312.539093 1438.460205,303.397614 
	C1438.813232,302.539978 1440.780396,302.346527 1442.833130,301.954803 
	C1449.864868,301.260834 1456.062012,300.460938 1462.257812,299.650848 
	C1465.467896,299.231171 1468.675537,298.793518 1471.884277,298.363983 
	C1476.720825,298.318268 1481.557251,298.272522 1487.275635,298.388489 
	C1492.687988,311.264954 1502.174072,320.046326 1511.827271,328.795776 
	C1521.228638,337.317047 1530.432373,346.149384 1532.625488,359.549957 
	C1533.148560,362.747162 1533.879517,366.380432 1532.907227,369.272675 
	C1528.150513,383.422333 1523.501465,397.671539 1517.574829,411.348358 
	C1510.305908,428.122955 1501.401245,444.185059 1494.003784,460.909027 
	C1489.991577,469.979553 1486.956055,479.628021 1484.736572,489.304016 
	C1482.574341,498.730194 1485.817749,507.766663 1490.284058,516.119873 
	C1504.394897,542.510803 1519.088379,568.602722 1532.615601,595.287170 
	C1538.409668,606.716797 1542.930908,618.876038 1543.918945,632.170044 
	C1544.826904,644.385193 1548.338257,656.444580 1548.808105,668.645630 
	C1549.483765,686.190674 1548.635864,703.809326 1547.944458,721.377258 
	C1547.829102,724.308838 1545.926514,728.072693 1543.617065,729.852295 
	C1535.481445,736.121460 1526.682861,741.520935 1518.376831,747.580750 
	C1510.356812,753.431946 1502.593262,759.639038 1494.803711,765.799500 
	C1491.942627,768.062256 1488.827271,770.270996 1486.715088,773.154236 
	C1483.051636,778.155579 1479.421387,783.378235 1476.975586,789.026917 
	C1473.576294,796.876953 1471.962769,805.528503 1468.306396,813.230042 
	C1465.226562,819.717957 1465.311035,825.229492 1468.761719,831.169800 
	C1472.270874,837.210571 1475.400146,843.482544 1479.104004,849.397644 
	C1493.052124,871.672546 1507.155762,893.850037 1521.223511,916.049927 
	C1528.707764,927.860535 1533.727173,929.395691 1546.985229,924.263123 
	C1552.869995,921.984924 1558.842285,919.932190 1564.779297,917.789307 
	C1573.554077,914.622253 1580.235596,918.702820 1586.184082,924.376953 
	C1589.045898,927.106567 1591.038086,930.727905 1593.767578,933.621460 
	C1596.695679,936.725403 1599.689087,939.987366 1603.253784,942.225220 
	C1610.542114,946.800964 1615.938354,953.018677 1620.060913,960.301880 
	C1621.597656,963.017090 1622.080688,966.577942 1622.214355,969.787720 
	C1622.519165,977.108215 1622.921387,984.513367 1622.168945,991.768494 
	C1621.013550,1002.907898 1625.957153,1009.851501 1635.025635,1015.446655 
	C1645.496460,1021.907104 1655.320801,1029.406860 1665.674561,1036.068848 
	C1672.157593,1040.240356 1676.134521,1046.131714 1679.242432,1052.851685 
	C1685.510376,1066.404419 1695.337524,1077.233643 1706.504639,1086.679932 
	C1719.174927,1097.397583 1732.577148,1107.092773 1744.246216,1119.157227 
	C1753.693604,1128.924805 1765.933960,1135.696045 1779.549316,1138.910889 
	C1785.287720,1140.265625 1789.622070,1142.937744 1793.492310,1147.637695 
	C1796.750977,1151.595093 1801.433105,1154.953003 1806.166992,1156.998779 
	C1814.981934,1160.808594 1824.230591,1163.672241 1833.427612,1166.512573 
	C1837.171265,1167.668945 1841.298706,1168.439941 1845.169800,1168.178345 
	C1861.765625,1167.056641 1878.059570,1164.711182 1893.833130,1158.606689 
	C1901.712402,1155.557373 1910.595703,1154.529541 1919.124146,1153.868530 
	C1931.192749,1152.932983 1935.724854,1156.683716 1939.266113,1168.349487 
	C1939.933960,1170.549316 1940.395752,1172.811646 1941.005615,1175.257324 
	C1945.310791,1176.549316 1949.408081,1177.778931 1953.030884,1178.866211 
	C1960.894043,1188.665649 1960.584595,1200.303955 1961.529541,1211.435059 
	C1962.288208,1220.370483 1961.899902,1229.429810 1961.558105,1238.416504 
	C1961.451782,1241.212769 1960.173462,1244.129761 1958.833740,1246.676880 
	C1956.513916,1251.087646 1954.050781,1255.496948 1951.057617,1259.461548 
	C1946.971924,1264.872803 1946.964966,1270.415527 1949.007812,1276.431030 
	C1952.430664,1286.510376 1955.290161,1296.811768 1959.279175,1306.658325 
	C1962.535400,1314.696167 1961.355835,1321.943237 1956.493774,1328.166016 
	C1946.114136,1341.450439 1938.187988,1356.537231 1924.517822,1367.470459 
	C1914.987061,1375.093140 1910.541504,1386.400879 1910.144897,1399.210571 
	C1909.848389,1408.788208 1908.040039,1418.319702 1906.885376,1427.869385 
	C1906.526367,1430.839233 1905.525146,1433.859619 1905.818481,1436.755493 
	C1906.638916,1444.855225 1903.726562,1451.778809 1899.659546,1459.250244 
z"/>

<path 
	data-name="Bogo"
fill="#E36D59" opacity="1.000000" stroke="none" 
	d="
M129.990250,1472.033936 
	C127.596725,1470.186035 124.440033,1468.102539 126.468620,1464.865356 
	C127.579956,1463.092041 130.835449,1462.306763 133.272903,1461.818115 
	C135.793747,1461.312622 138.494781,1461.705688 140.920380,1461.705688 
	C142.609528,1456.564697 144.101700,1452.023193 145.727371,1447.075439 
	C138.799164,1445.562622 131.661331,1452.062622 125.546600,1445.442139 
	C127.085991,1440.983398 130.565720,1440.123291 134.280518,1440.389038 
	C143.442139,1441.044312 149.375793,1436.462036 153.801758,1429.081177 
	C154.828033,1427.369629 156.120438,1425.813354 157.095337,1424.076172 
	C161.441162,1416.331909 165.407730,1408.632568 174.817291,1405.189575 
	C178.878448,1403.703613 181.848740,1399.239502 185.317688,1396.131592 
	C198.443253,1384.372437 211.409332,1372.427124 224.786728,1360.961792 
	C229.260040,1357.127686 234.831497,1354.591553 239.817123,1351.333862 
	C245.369995,1347.705444 251.524353,1344.626221 256.123077,1340.016968 
	C260.401276,1335.729004 264.792542,1335.239868 269.677094,1336.497314 
	C277.356110,1338.474121 284.707733,1338.821777 292.031830,1335.271118 
	C293.433380,1334.591675 295.458191,1334.138672 296.826202,1334.623535 
	C304.925659,1337.493652 310.843292,1333.672485 316.824158,1328.977417 
	C331.881348,1317.157227 348.474731,1308.621094 367.173828,1303.623657 
	C372.991241,1302.068848 377.967590,1296.312866 382.610291,1291.749023 
	C386.357941,1288.065063 388.884521,1283.169678 392.203247,1279.011475 
	C397.455994,1272.430054 403.497986,1267.614014 412.197906,1265.167725 
	C425.244965,1261.499390 435.708130,1253.292847 444.069916,1242.274170 
	C450.825256,1233.372192 460.326630,1228.238647 471.629974,1230.235718 
	C484.448273,1232.500122 495.066162,1228.578125 505.250397,1221.682495 
	C511.025238,1217.772461 516.673950,1213.618408 522.737549,1210.211548 
	C527.222961,1207.691406 532.286133,1206.199707 538.750305,1203.576660 
	C542.893616,1197.671631 549.400269,1194.376953 559.407593,1195.269653 
	C570.395752,1196.250122 579.370728,1189.267822 585.273438,1180.658325 
	C591.101135,1172.158447 599.092590,1166.441772 606.339478,1159.702393 
	C609.995667,1156.302246 613.860474,1153.065063 617.108337,1149.302979 
	C621.026428,1144.764404 623.945190,1139.600586 622.880615,1133.137939 
	C622.724976,1132.192749 622.525757,1131.085083 622.855713,1130.255005 
	C628.317505,1116.515259 631.361267,1101.693726 644.208313,1091.698120 
	C652.532593,1085.221191 659.260681,1076.732788 667.119385,1069.603394 
	C672.275696,1064.925659 678.122925,1060.996826 683.749939,1056.853516 
	C692.786377,1050.199951 699.809387,1041.965454 703.744690,1031.371704 
	C705.939514,1025.463379 709.500916,1021.263489 715.344727,1018.415466 
	C719.024658,1016.622070 721.987793,1013.236023 725.060303,1010.339294 
	C737.590393,998.526123 747.399597,984.918030 752.746887,968.326416 
	C756.257385,957.434143 764.635071,951.047363 774.904419,945.752502 
	C787.496460,955.589600 800.090698,964.944946 807.937927,978.930420 
	C811.347656,985.007263 814.583862,991.211548 818.427307,997.007568 
	C823.527161,1004.698425 828.584351,1012.545898 834.698547,1019.399414 
	C840.628418,1026.046143 840.398499,1033.999268 841.653137,1041.694336 
	C842.341919,1045.918945 841.736206,1050.338501 842.160400,1054.625977 
	C842.857605,1061.672852 844.598328,1068.527222 850.539856,1073.069092 
	C853.786438,1075.550781 854.346802,1078.128662 853.197937,1081.679932 
	C852.693481,1083.239380 852.393921,1084.901855 852.261536,1086.538696 
	C851.589294,1094.853516 852.182617,1096.542480 860.619934,1098.348999 
	C868.762024,1100.092041 873.183655,1104.934692 876.125549,1112.014893 
	C877.652039,1115.688721 878.931335,1119.496948 880.795898,1122.991699 
	C883.735718,1128.502197 883.393188,1133.737427 879.631226,1140.004150 
	C874.881042,1144.460571 871.467834,1148.931152 866.949280,1151.218018 
	C854.507629,1157.514648 854.869080,1170.217163 850.661621,1180.738281 
	C847.964966,1187.481323 855.039001,1188.895874 856.569214,1193.241821 
	C856.894165,1194.164673 857.198792,1195.094727 857.874268,1197.088501 
	C853.387451,1201.227905 848.655518,1205.593384 842.837158,1210.961304 
	C847.664185,1212.982422 851.470764,1214.631836 855.320374,1216.173706 
	C859.934326,1218.021606 864.687927,1219.377441 867.330078,1224.372803 
	C876.138184,1241.025635 890.963013,1250.912598 906.971985,1259.615967 
	C913.935608,1263.401978 920.551819,1267.956177 926.879395,1272.750610 
	C935.040894,1278.934692 937.676086,1287.584595 935.788086,1297.523926 
	C935.237549,1300.422119 934.062439,1303.230957 932.942566,1305.986938 
	C925.711670,1323.782593 912.570618,1336.819824 898.813904,1349.649780 
	C889.632141,1358.213135 881.009460,1367.689697 873.717102,1377.887573 
	C864.059509,1391.392944 855.641418,1405.824585 847.254272,1420.187134 
	C839.115601,1434.124268 827.423584,1444.116699 814.247681,1452.879150 
	C809.029541,1456.349487 804.418945,1460.733276 798.836060,1464.935547 
	C782.688354,1471.991333 771.219543,1482.946899 764.888489,1498.644409 
	C762.721924,1504.016235 760.949341,1510.114868 761.225159,1515.772827 
	C761.657654,1524.648071 763.634705,1533.509644 765.610840,1542.229004 
	C767.278381,1549.586914 769.874329,1556.734497 771.147095,1564.003784 
	C762.299561,1564.651367 754.373779,1565.471924 746.426941,1565.847412 
	C729.498047,1566.647339 712.555664,1567.155518 695.623596,1567.893188 
	C666.087036,1569.179932 636.564880,1570.913330 607.016846,1571.791504 
	C571.423157,1572.849365 535.801086,1572.947266 500.206818,1573.991821 
	C484.085663,1574.464844 468.634735,1578.539551 455.201721,1587.933716 
	C439.130859,1599.172729 423.347504,1610.823975 407.507324,1622.389282 
	C405.952667,1623.524414 404.746277,1625.217651 403.593689,1626.807983 
	C399.104614,1633.002441 394.142883,1638.941650 390.379242,1645.557251 
	C381.332855,1661.458496 372.833221,1677.671631 364.170868,1693.790039 
	C357.585480,1706.043945 349.024139,1715.981689 336.047455,1722.236694 
	C327.133514,1726.533325 318.904694,1732.401611 310.773346,1738.139404 
	C295.291840,1749.063965 280.624908,1761.221802 264.680023,1771.394775 
	C228.737701,1794.326294 191.222427,1814.496704 152.241043,1831.852051 
	C149.847534,1832.917725 147.230362,1833.480835 144.717255,1834.277710 
	C143.925827,1825.174438 136.636139,1820.823486 130.564087,1816.010010 
	C123.657143,1810.535034 122.345734,1809.208008 127.139473,1802.802124 
	C134.227432,1793.330566 130.743408,1784.902222 125.788574,1776.527710 
	C123.837677,1773.230469 122.782089,1770.468384 123.360359,1766.425171 
	C124.324066,1759.687012 122.945305,1752.851562 125.779343,1746.044067 
	C127.977249,1740.764648 126.187569,1737.910034 120.313705,1736.596924 
	C114.471222,1735.290771 112.801033,1731.693359 112.331909,1726.770752 
	C111.882660,1722.056763 109.923935,1719.259277 104.812752,1719.565308 
	C104.486839,1719.584961 104.154999,1719.469482 103.823830,1719.442871 
	C98.470207,1719.011841 96.840805,1713.764526 93.223305,1711.371338 
	C89.646408,1709.004883 84.074577,1709.700317 80.413528,1707.402466 
	C76.112183,1704.702881 73.447365,1699.032837 75.475388,1694.387329 
	C78.913765,1686.511108 77.718765,1681.024292 71.010384,1677.293945 
	C72.720657,1667.971680 74.313629,1659.288940 76.051498,1649.816284 
	C67.844406,1647.646362 70.222946,1640.778442 68.920616,1634.543457 
	C68.467842,1632.952271 68.361633,1632.069458 68.463821,1630.539062 
	C73.557518,1627.873291 78.264679,1626.533447 83.925758,1627.403809 
	C92.665840,1628.747192 97.784073,1621.852661 93.720116,1613.593140 
	C90.750992,1607.558838 95.832008,1604.348511 96.178185,1599.621826 
	C96.608940,1593.740356 100.662689,1592.316895 106.572685,1591.593140 
	C112.933029,1590.814087 119.028290,1587.276855 125.053749,1584.535522 
	C130.417877,1582.094971 135.499008,1579.039551 140.758926,1576.361450 
	C146.729126,1573.321777 148.093323,1567.048706 147.864151,1561.966919 
	C147.546051,1554.913818 150.246735,1551.614746 155.987778,1549.034546 
	C159.072052,1547.648315 161.524200,1545.281128 159.867371,1540.252686 
	C157.520798,1540.593262 155.070953,1541.308350 152.657913,1541.200439 
	C150.112228,1541.086548 147.601669,1540.187500 144.947098,1539.603149 
	C143.884674,1535.419678 142.929535,1531.658691 141.925751,1527.706177 
	C146.889420,1526.530029 151.315964,1525.724854 155.541397,1524.316406 
	C156.659546,1523.943726 157.158386,1521.713135 158.213425,1519.857422 
	C149.157806,1515.889648 140.708939,1512.187744 130.317627,1507.634766 
	C134.590714,1506.913574 137.042923,1506.714233 139.368942,1506.063599 
	C144.645584,1504.588135 145.744781,1499.962646 141.518768,1496.431274 
	C139.532700,1494.771606 137.009140,1493.557861 134.534042,1492.715210 
	C124.478096,1489.291626 123.537117,1485.620117 132.067352,1476.204834 
	C137.616821,1476.306641 141.710770,1476.656128 145.623535,1476.990112 
	C147.146332,1473.164062 145.269852,1472.181885 142.630569,1472.094849 
	C138.421036,1471.956177 134.204071,1472.042725 129.990250,1472.033936 
z"/>
<path 
	data-name="Bogo"
fill="#404041" opacity="1.000000" stroke="none" 
	d="
M1442.833130,301.954834 
	C1441.920532,301.113586 1441.843018,300.382446 1441.795898,299.098572 
	C1451.224854,298.445465 1460.623413,298.345123 1470.953125,298.304382 
	C1468.675537,298.793518 1465.467896,299.231171 1462.257812,299.650848 
	C1456.062012,300.460938 1449.864868,301.260834 1442.833130,301.954834 
z"/>
<path 
	data-name="Bogo"
fill="#7CF255" opacity="1.000000" stroke="none" 
	d="
M772.059326,1563.975098 
	C769.874329,1556.734497 767.278381,1549.586914 765.610840,1542.229004 
	C763.634705,1533.509644 761.657654,1524.648071 761.225159,1515.772827 
	C760.949341,1510.114868 762.721924,1504.016235 764.888489,1498.644409 
	C771.219543,1482.946899 782.688354,1471.991333 799.430786,1465.447021 
	C812.056152,1473.252197 822.729858,1482.168701 834.891724,1487.960327 
	C850.420959,1495.355469 867.334961,1499.781616 883.301331,1506.341309 
	C894.298523,1510.859253 905.487671,1511.099487 916.658020,1509.536865 
	C935.807434,1506.858398 954.955750,1505.296753 974.280396,1505.766235 
	C977.601379,1505.846802 981.055969,1506.143188 984.235107,1505.411377 
	C1003.325439,1501.017578 1022.740784,1497.544922 1041.314819,1491.509644 
	C1072.316895,1481.436279 1103.424438,1471.877808 1135.202881,1464.672363 
	C1143.203613,1462.858276 1151.619995,1462.534180 1159.865479,1462.328003 
	C1162.748047,1462.255981 1166.557007,1463.833740 1168.448364,1465.977051 
	C1174.794556,1473.168823 1180.247559,1481.141724 1186.465820,1488.455811 
	C1191.451050,1494.319458 1189.828125,1498.633423 1185.437622,1504.131470 
	C1175.914673,1516.056274 1167.579346,1528.614014 1161.864868,1543.179077 
	C1157.889771,1553.311279 1158.609619,1561.416260 1163.127808,1570.576904 
	C1165.574951,1575.538208 1168.740356,1578.308350 1173.934204,1579.660767 
	C1185.829712,1582.758667 1197.568481,1586.483154 1209.513184,1589.361938 
	C1225.914185,1593.314697 1241.840698,1599.400757 1259.311768,1598.454468 
	C1269.179199,1597.920166 1279.159912,1599.873779 1289.106934,1600.324097 
	C1303.368286,1600.969604 1317.663452,1601.938110 1331.911743,1601.557251 
	C1354.818481,1600.944946 1377.698486,1598.365967 1400.589966,1598.363037 
	C1447.178833,1598.357178 1493.767822,1599.515503 1540.356689,1600.194214 
	C1536.512817,1608.967896 1532.026733,1617.523438 1528.958618,1626.560547 
	C1522.525879,1645.507935 1520.379395,1665.347290 1518.218262,1685.138306 
	C1517.897095,1688.080322 1517.794067,1691.142090 1516.865601,1693.905029 
	C1512.849854,1705.854126 1508.255493,1717.616821 1504.527832,1729.650635 
	C1503.009766,1734.551758 1500.759644,1738.079590 1496.021851,1739.803711 
	C1488.567627,1742.516357 1481.173218,1745.488159 1473.548706,1747.617188 
	C1458.529297,1751.811157 1443.197876,1754.948975 1428.320435,1759.570068 
	C1415.680786,1763.495728 1403.448242,1768.767334 1391.128662,1773.676880 
	C1380.933960,1777.739502 1376.757690,1786.999268 1372.852905,1796.221313 
	C1372.243408,1797.660767 1373.073975,1800.076660 1373.916016,1801.686768 
	C1375.604736,1804.915649 1377.761597,1807.899780 1380.092041,1811.599976 
	C1368.421143,1821.522949 1356.466064,1830.940308 1344.328003,1840.115601 
	C1320.525879,1858.107544 1296.621704,1875.964478 1272.084717,1894.168457 
	C1244.637451,1889.540649 1244.634521,1889.534424 1220.036621,1900.912964 
	C1216.712402,1902.450562 1213.289307,1903.844971 1210.157227,1905.716187 
	C1192.892944,1916.030396 1173.833984,1919.987305 1154.152466,1921.882080 
	C1134.291992,1923.793945 1114.426025,1925.660034 1094.587402,1927.780029 
	C1088.336304,1928.448120 1082.038452,1929.398804 1075.980835,1931.031860 
	C1052.687012,1937.311401 1028.956299,1940.023071 1004.915955,1940.013550 
	C997.768066,1940.010742 991.179016,1941.188477 984.613464,1943.991821 
	C962.265259,1953.534424 939.816284,1962.877930 916.191528,1968.886230 
	C911.800110,1970.003052 907.108582,1970.294922 902.549805,1970.336426 
	C884.929749,1970.496826 867.307373,1970.401733 849.251892,1970.401733 
	C847.520508,1984.506836 858.180176,1995.463867 858.081909,2009.552979 
	C845.154236,2015.448975 832.249329,2021.506104 819.168213,2027.155029 
	C816.567566,2028.278198 813.292725,2028.068604 810.327148,2028.080688 
	C791.998352,2028.155640 773.666992,2028.263184 755.341675,2027.999512 
	C751.532776,2027.944702 746.959290,2027.440063 744.087158,2025.317505 
	C732.841370,2017.006592 720.188782,2014.191162 706.643188,2013.661865 
	C703.677551,2013.546143 700.739868,2012.712891 697.248291,2011.425415 
	C697.287231,2009.827271 698.279968,2009.062622 698.383362,2008.192383 
	C699.430115,1999.385010 705.896729,1995.725220 712.809509,1992.021851 
	C724.011230,1986.020752 729.443665,1976.079956 730.033813,1963.591553 
	C730.245422,1959.114380 732.545227,1956.364990 735.402100,1953.391357 
	C739.260254,1949.375366 744.195984,1945.389893 745.836365,1940.450439 
	C749.614502,1929.073608 756.413818,1919.659424 763.315552,1910.419678 
	C769.305054,1902.401001 773.246826,1894.150635 774.221497,1884.197876 
	C775.068848,1875.545166 777.415649,1867.377319 783.821167,1860.790771 
	C790.179504,1854.252930 791.437134,1845.814575 789.607300,1837.468628 
	C787.130554,1826.171997 789.386902,1815.616089 793.296204,1805.407349 
	C796.926270,1795.927490 796.837891,1786.449829 795.148682,1776.955811 
	C791.831848,1758.313843 788.676880,1739.748535 791.817505,1720.738525 
	C794.949463,1701.780273 798.030334,1682.812500 800.952637,1663.821167 
	C802.058472,1656.634644 804.328125,1649.083252 803.145142,1642.200562 
	C800.613281,1627.470581 804.019775,1613.822266 807.825134,1600.095459 
	C811.309143,1587.527954 811.010864,1584.884033 799.526001,1577.888306 
	C790.787781,1572.565430 781.244507,1568.564209 772.059326,1563.975098 
z"/>
<path 
	data-name="Bogo"
fill="#E0C34F" opacity="1.000000" stroke="none" 
	d="
M771.147095,1564.003784 
	C781.244507,1568.564209 790.787781,1572.565430 799.526001,1577.888306 
	C811.010864,1584.884033 811.309143,1587.527954 807.825134,1600.095459 
	C804.019775,1613.822266 800.613281,1627.470581 803.145142,1642.200562 
	C804.328125,1649.083252 802.058472,1656.634644 800.952637,1663.821167 
	C798.030334,1682.812500 794.949463,1701.780273 791.817505,1720.738525 
	C788.676880,1739.748535 791.831848,1758.313843 795.148682,1776.955811 
	C796.837891,1786.449829 796.926270,1795.927490 793.296204,1805.407349 
	C789.386902,1815.616089 787.130554,1826.171997 789.607300,1837.468628 
	C791.437134,1845.814575 790.179504,1854.252930 783.821167,1860.790771 
	C777.415649,1867.377319 775.068848,1875.545166 774.221497,1884.197876 
	C773.246826,1894.150635 769.305054,1902.401001 763.315552,1910.419678 
	C756.413818,1919.659424 749.614502,1929.073608 745.836365,1940.450439 
	C744.195984,1945.389893 739.260254,1949.375366 735.402100,1953.391357 
	C732.545227,1956.364990 730.245422,1959.114380 730.033813,1963.591553 
	C729.443665,1976.079956 724.011230,1986.020752 712.809509,1992.021851 
	C705.896729,1995.725220 699.430115,1999.385010 698.383362,2008.192383 
	C698.279968,2009.062622 697.287231,2009.827271 696.442627,2011.284546 
	C693.490540,2014.404541 690.889099,2016.983276 688.093140,2019.330322 
	C684.768921,2022.120972 683.214478,2025.490601 683.687805,2029.850098 
	C684.250916,2035.036011 683.152832,2039.814331 679.605225,2043.793091 
	C675.383667,2048.527832 675.554260,2054.063232 676.422974,2059.797607 
	C679.500793,2080.115479 679.547119,2080.179688 664.890198,2094.120361 
	C656.449036,2102.148926 647.857971,2110.025146 639.186096,2117.804443 
	C633.189880,2123.183594 625.153625,2121.615967 621.087952,2114.630859 
	C618.338013,2109.906250 616.254761,2104.601074 609.762695,2100.904053 
	C605.280762,2115.994141 596.697815,2128.940674 598.988159,2145.301270 
	C599.665527,2150.139160 597.415405,2155.715088 595.443909,2160.516602 
	C592.697998,2167.204102 592.292908,2173.792236 592.613220,2180.923584 
	C593.083313,2191.390625 592.332886,2201.917969 591.903442,2212.411621 
	C591.859314,2213.491211 590.216553,2214.416504 589.744141,2215.586426 
	C588.781921,2217.969727 586.699280,2221.262207 587.556152,2222.792725 
	C592.363159,2231.380371 584.753113,2236.734619 583.372620,2243.832520 
	C572.852783,2245.281494 562.768677,2246.484375 553.715820,2252.179443 
	C548.615234,2255.388428 542.756958,2250.465088 541.982666,2242.994629 
	C541.716492,2240.427002 541.940369,2237.808594 541.940369,2235.517090 
	C529.875488,2228.036133 517.848572,2231.868652 505.107849,2233.770264 
	C497.104492,2221.114258 499.447906,2218.991943 509.672729,2210.713867 
	C513.783081,2207.386230 517.881775,2204.043945 521.602844,2201.019775 
	C521.760010,2199.682617 522.145813,2198.823730 521.868164,2198.409668 
	C513.976257,2186.631348 516.501587,2173.792236 517.503601,2160.914551 
	C518.394165,2149.468994 518.325989,2137.928955 518.240356,2126.433594 
	C518.180115,2118.340576 514.645691,2114.203613 507.005188,2112.011230 
	C505.425079,2111.557617 503.755096,2111.266846 502.114227,2111.198975 
	C488.260254,2110.627930 476.961151,2103.420898 465.400208,2097.002930 
	C456.735718,2092.192871 447.719543,2087.856689 441.211792,2079.885986 
	C438.356293,2076.388672 434.722290,2076.469238 431.912811,2079.925049 
	C422.405090,2091.620117 410.450836,2092.039551 397.363647,2087.895752 
	C397.083160,2087.807129 396.714569,2087.996582 395.673828,2088.186768 
	C394.842651,2089.297363 393.636414,2090.794434 392.554047,2092.376221 
	C388.289673,2098.608154 387.373199,2098.762939 381.153748,2094.310791 
	C380.119507,2093.570557 379.009766,2092.619385 377.833496,2092.443115 
	C367.420990,2090.883301 363.351868,2082.941650 359.656006,2074.611572 
	C357.928650,2070.718262 356.157074,2066.833740 354.673523,2062.845459 
	C352.409027,2056.757812 349.980652,2051.096436 342.062653,2050.905518 
	C341.028778,2050.880615 339.794861,2049.474609 339.055573,2048.425049 
	C332.863800,2039.634155 322.686584,2039.176392 313.697845,2036.405640 
	C310.980042,2035.567993 307.727020,2035.797852 304.844788,2036.283691 
	C294.782135,2037.979858 286.104126,2036.280518 279.101959,2028.081909 
	C274.496002,2022.688843 265.050385,2021.677979 257.657104,2025.125000 
	C255.552109,2026.106323 253.508606,2027.237915 251.508850,2028.422241 
	C248.448318,2030.234131 245.315140,2030.086060 243.648605,2027.060547 
	C240.002884,2020.441406 235.502609,2021.619873 230.390686,2024.750122 
	C229.905472,2025.047241 229.169464,2024.934692 227.934875,2025.089600 
	C226.426208,2021.438354 225.400009,2017.268188 223.136597,2013.939087 
	C220.745499,2010.421997 217.261826,2007.614136 214.102295,2004.660278 
	C207.291733,1998.293579 202.576904,1998.588501 194.623047,2003.659912 
	C189.215652,2007.107788 182.988007,2009.500366 176.841385,2011.475342 
	C172.851669,2012.757080 169.236343,2011.070068 166.759186,2006.976685 
	C165.183868,2004.373413 162.778748,2001.768799 160.110641,2000.441162 
	C155.386765,1998.090454 153.224594,1994.387451 152.238968,1989.643066 
	C150.890778,1983.153442 153.167023,1979.477295 159.501053,1977.743042 
	C160.451126,1977.482910 161.507126,1977.614258 162.461258,1977.363403 
	C171.411072,1975.011230 173.888626,1971.330811 170.230408,1963.072876 
	C167.166855,1956.157104 167.757462,1950.322144 171.651566,1944.315674 
	C177.029785,1936.019775 176.608551,1927.618164 172.807770,1918.736816 
	C170.785690,1914.011963 169.252228,1909.466553 163.671005,1907.889648 
	C162.479233,1907.552856 161.097504,1906.673950 160.500320,1905.641602 
	C156.206848,1898.219604 151.934906,1890.775879 147.988022,1883.166870 
	C145.962479,1879.261841 147.581772,1876.000000 150.074997,1872.364014 
	C154.275894,1866.237183 151.775757,1860.229614 144.919357,1857.679810 
	C134.156601,1853.677246 132.943115,1849.028687 140.318375,1840.188232 
	C141.591873,1838.661743 142.746826,1837.036255 144.336945,1834.867188 
	C147.230362,1833.480835 149.847534,1832.917725 152.241043,1831.852051 
	C191.222427,1814.496704 228.737701,1794.326294 264.680023,1771.394775 
	C280.624908,1761.221802 295.291840,1749.063965 310.773346,1738.139404 
	C318.904694,1732.401611 327.133514,1726.533325 336.047455,1722.236694 
	C349.024139,1715.981689 357.585480,1706.043945 364.170868,1693.790039 
	C372.833221,1677.671631 381.332855,1661.458496 390.379242,1645.557251 
	C394.142883,1638.941650 399.104614,1633.002441 403.593689,1626.807983 
	C404.746277,1625.217651 405.952667,1623.524414 407.507324,1622.389282 
	C423.347504,1610.823975 439.130859,1599.172729 455.201721,1587.933716 
	C468.634735,1578.539551 484.085663,1574.464844 500.206818,1573.991821 
	C535.801086,1572.947266 571.423157,1572.849365 607.016846,1571.791504 
	C636.564880,1570.913330 666.087036,1569.179932 695.623596,1567.893188 
	C712.555664,1567.155518 729.498047,1566.647339 746.426941,1565.847412 
	C754.373779,1565.471924 762.299561,1564.651367 771.147095,1564.003784 
z"/>
<path 
	data-name="Bogo"
fill="#3C856F" opacity="1.000000" stroke="none" 
	d="
M1540.918213,1599.839355 
	C1493.767822,1599.515503 1447.178833,1598.357178 1400.589966,1598.363037 
	C1377.698486,1598.365967 1354.818481,1600.944946 1331.911743,1601.557251 
	C1317.663452,1601.938110 1303.368286,1600.969604 1289.106934,1600.324097 
	C1279.159912,1599.873779 1269.179199,1597.920166 1259.311768,1598.454468 
	C1241.840698,1599.400757 1225.914185,1593.314697 1209.513184,1589.361938 
	C1197.568481,1586.483154 1185.829712,1582.758667 1173.934204,1579.660767 
	C1168.740356,1578.308350 1165.574951,1575.538208 1163.127808,1570.576904 
	C1158.609619,1561.416260 1157.889771,1553.311279 1161.864868,1543.179077 
	C1167.579346,1528.614014 1175.914673,1516.056274 1185.437622,1504.131470 
	C1189.828125,1498.633423 1191.451050,1494.319458 1186.465820,1488.455811 
	C1180.247559,1481.141724 1174.794556,1473.168823 1168.448364,1465.977051 
	C1166.557007,1463.833740 1162.748047,1462.255981 1159.865479,1462.328003 
	C1151.619995,1462.534180 1143.203613,1462.858276 1135.202881,1464.672363 
	C1103.424438,1471.877808 1072.316895,1481.436279 1041.314819,1491.509644 
	C1022.740784,1497.544922 1003.325439,1501.017578 984.235107,1505.411377 
	C981.055969,1506.143188 977.601379,1505.846802 974.280396,1505.766235 
	C954.955750,1505.296753 935.807434,1506.858398 916.658020,1509.536865 
	C905.487671,1511.099487 894.298523,1510.859253 883.301331,1506.341309 
	C867.334961,1499.781616 850.420959,1495.355469 834.891724,1487.960327 
	C822.729858,1482.168701 812.056152,1473.252197 800.126587,1465.212646 
	C804.418945,1460.733276 809.029541,1456.349487 814.247681,1452.879150 
	C827.423584,1444.116699 839.115601,1434.124268 847.254272,1420.187134 
	C855.641418,1405.824585 864.059509,1391.392944 873.717102,1377.887573 
	C881.009460,1367.689697 889.632141,1358.213135 898.813904,1349.649780 
	C912.570618,1336.819824 925.711670,1323.782593 932.942566,1305.986938 
	C934.062439,1303.230957 935.237549,1300.422119 935.788086,1297.523926 
	C937.676086,1287.584595 935.040894,1278.934692 926.879395,1272.750610 
	C920.551819,1267.956177 913.935608,1263.401978 906.971985,1259.615967 
	C890.963013,1250.912598 876.138184,1241.025635 867.330078,1224.372803 
	C864.687927,1219.377441 859.934326,1218.021606 855.320374,1216.173706 
	C851.470764,1214.631836 847.664185,1212.982422 842.837158,1210.961304 
	C848.655518,1205.593384 853.387451,1201.227905 857.874268,1197.088501 
	C857.198792,1195.094727 856.894165,1194.164673 856.569214,1193.241821 
	C855.039001,1188.895874 847.964966,1187.481323 850.661621,1180.738281 
	C854.869080,1170.217163 854.507629,1157.514648 866.949280,1151.218018 
	C871.467834,1148.931152 874.881042,1144.460571 879.356445,1140.684326 
	C887.999329,1143.458374 896.273621,1142.813354 904.281860,1140.645386 
	C907.434021,1139.792236 910.509949,1137.109497 912.676270,1134.481445 
	C917.319275,1128.849121 921.158447,1122.558350 925.727295,1116.858276 
	C927.408630,1114.760498 930.089844,1112.464478 932.539429,1112.178101 
	C938.790283,1111.447510 943.187561,1109.049683 945.519958,1103.022583 
	C947.445190,1098.047607 951.691528,1096.219849 956.633423,1096.022217 
	C963.834595,1095.734253 970.060608,1094.693359 970.192932,1085.288574 
	C970.213074,1083.860107 972.386353,1081.526611 973.890869,1081.220825 
	C979.575256,1080.064941 982.711121,1075.619507 986.945679,1072.524658 
	C990.847168,1069.673096 995.673584,1067.994873 1000.246277,1066.188843 
	C1002.983276,1065.107788 1006.031677,1064.836670 1008.911926,1064.092529 
	C1019.706665,1061.303955 1029.719727,1057.438721 1035.929810,1047.110962 
	C1037.763428,1044.061523 1040.846436,1041.692627 1043.590820,1039.277588 
	C1047.949219,1035.442383 1052.231812,1033.145874 1058.885254,1035.166504 
	C1066.886719,1037.596436 1074.524902,1034.114502 1081.136475,1029.263184 
	C1089.978882,1022.775208 1098.853760,1016.305176 1107.346680,1009.376465 
	C1112.675293,1005.029175 1117.879517,1003.459412 1124.817261,1004.999695 
	C1129.432129,1006.024414 1135.165894,1006.045227 1139.362061,1004.181335 
	C1153.258789,998.008362 1166.879517,991.150574 1173.975952,976.188660 
	C1176.042236,971.832275 1179.499878,968.135864 1182.435059,963.973145 
	C1184.870605,964.875244 1186.710205,965.051758 1187.811279,966.046143 
	C1195.204346,972.722778 1204.819946,974.762024 1213.431030,978.915100 
	C1222.332764,983.208435 1230.750366,988.655273 1238.930786,994.253540 
	C1247.511230,1000.125488 1256.241333,1005.317688 1267.214233,1006.952637 
	C1267.498291,1008.903503 1268.145630,1010.828796 1267.980469,1012.681702 
	C1267.457397,1018.548645 1270.273315,1022.720276 1273.938477,1026.891602 
	C1278.525024,1032.111694 1283.003174,1037.533936 1286.685791,1043.397949 
	C1288.644775,1046.517212 1290.091431,1050.934570 1289.585938,1054.452271 
	C1287.654907,1067.891235 1284.418945,1080.536011 1275.719238,1092.130737 
	C1266.182495,1104.841187 1260.702026,1120.266602 1256.418823,1135.728027 
	C1252.435913,1150.104736 1248.962891,1164.623657 1245.332275,1179.096680 
	C1242.452515,1190.576294 1244.947021,1194.535889 1256.618408,1195.826294 
	C1264.713867,1196.721313 1271.909424,1198.523682 1278.174561,1204.483887 
	C1284.965698,1210.944336 1293.933960,1211.338013 1302.660278,1209.348755 
	C1314.278931,1206.699829 1325.932617,1203.966675 1337.239624,1200.258301 
	C1347.351196,1196.942139 1356.745728,1198.334595 1366.488403,1201.248779 
	C1379.485596,1205.136475 1392.636597,1208.509277 1405.722168,1212.100952 
	C1406.990845,1212.449219 1408.421143,1212.518677 1409.508301,1213.167114 
	C1415.912964,1216.987549 1421.887573,1221.820923 1428.713135,1224.541870 
	C1433.304077,1226.371826 1439.187256,1226.059204 1444.255127,1225.239014 
	C1448.170898,1224.605469 1451.040283,1224.733521 1454.479248,1226.815308 
	C1458.705078,1229.373535 1463.518066,1230.965820 1468.089355,1232.947876 
	C1473.559814,1235.320068 1478.467773,1232.722412 1483.539185,1231.246826 
	C1487.862427,1229.988770 1491.716797,1227.354126 1496.892334,1229.254639 
	C1505.951904,1232.581177 1509.396240,1237.138794 1507.797363,1246.459717 
	C1507.014160,1251.025513 1505.504028,1255.462280 1504.456177,1259.988403 
	C1503.717163,1263.181030 1504.153320,1266.413452 1507.644043,1267.438599 
	C1524.070801,1272.263428 1534.415527,1285.386963 1546.659546,1295.848389 
	C1553.178955,1301.418701 1558.635132,1308.237183 1565.178711,1313.774292 
	C1575.790039,1322.753540 1584.961914,1333.485718 1597.608154,1340.071533 
	C1601.308594,1341.998291 1604.110962,1345.649658 1607.643188,1349.060547 
	C1606.047852,1356.585693 1603.809570,1363.492065 1602.307007,1370.554932 
	C1600.619019,1378.489502 1597.778687,1385.752686 1593.032959,1392.370117 
	C1585.283325,1403.175781 1584.559937,1415.329224 1585.446899,1428.233276 
	C1586.857056,1448.749390 1586.424805,1469.400879 1588.083252,1489.888916 
	C1589.779541,1510.843140 1582.526978,1529.809814 1576.966675,1549.165771 
	C1575.681519,1553.639648 1571.294189,1557.198853 1568.429810,1561.246460 
	C1559.421997,1573.975220 1550.459595,1586.736084 1540.918213,1599.839355 
z"/>
<path 
	data-name="Bogo"
fill="#3C1D17" opacity="1.000000" stroke="none" 
	d="
M130.197327,1472.512939 
	C134.204071,1472.042725 138.421036,1471.956177 142.630569,1472.094849 
	C145.269852,1472.181885 147.146332,1473.164062 145.623535,1476.990112 
	C141.710770,1476.656128 137.616821,1476.306641 132.695053,1475.852783 
	C131.379623,1474.829590 130.892029,1473.910767 130.197327,1472.512939 
z"/>
</svg>