<svg version="1.1" id="Layer_1" xmlns="http://www.w3.org/2000/svg" xmlns:xlink="http://www.w3.org/1999/xlink" x="0px" y="0px"
	 width="100%" viewBox="0 0 2155 2258" enable-background="new 0 0 2155 2258" xml:space="preserve">

<path data-name="Galim" style="fill: {#74E2E8}" fill="#74E2E8" opacity="1.000000" stroke="none" 
	d="
M1975.510132,794.576294 
	C1976.054688,794.512878 1976.599121,794.449524 1978.427002,794.915039 
	C1997.363037,810.339661 2015.015747,825.235413 2031.839355,839.431458 
	C2043.068970,836.631042 2053.143311,834.659119 2062.852051,831.547363 
	C2072.792725,828.361389 2081.347168,829.933716 2090.157959,835.217590 
	C2100.360596,841.335999 2111.128662,846.930908 2123.334717,847.455994 
	C2130.516846,847.764954 2135.604248,850.925354 2140.789307,855.323669 
	C2148.441406,861.814819 2156.365234,867.758789 2154.607666,879.582703 
	C2154.424561,880.816284 2154.836182,884.063965 2158.000000,882.000000 
	C2158.000000,910.708435 2158.000000,939.416931 2157.359863,968.461670 
	C2156.029785,969.475891 2154.983887,970.031189 2154.701660,970.849731 
	C2146.153564,995.638245 2137.607910,1020.428223 2129.281982,1045.291748 
	C2128.151611,1048.666992 2127.631592,1052.451050 2127.766846,1056.010010 
	C2128.321533,1070.601196 2129.170410,1085.182617 2130.041016,1099.759888 
	C2131.187500,1118.956177 2133.427490,1138.145874 2133.415527,1157.337280 
	C2133.401855,1179.521973 2131.498779,1201.708008 2130.327637,1223.888916 
	C2129.050781,1248.073730 2126.883789,1272.247437 2126.707275,1296.437744 
	C2126.631348,1306.830688 2122.914551,1313.317993 2115.093262,1318.772827 
	C2112.933105,1320.279663 2111.138428,1322.332886 2109.262451,1324.221313 
	C2100.526123,1333.015991 2090.899658,1340.475586 2079.273438,1345.183228 
	C2073.736816,1347.425171 2068.512451,1350.454224 2062.939697,1352.586060 
	C2059.019531,1354.085571 2054.741943,1355.552490 2050.638916,1355.511353 
	C2035.037964,1355.355713 2019.443970,1354.557617 2003.845703,1354.047607 
	C1995.535034,1353.775879 1987.166382,1354.126831 1978.920898,1353.266235 
	C1965.279053,1351.842407 1951.880249,1351.794067 1938.378540,1354.880371 
	C1927.752930,1357.309204 1916.807495,1360.222778 1906.084717,1359.933960 
	C1886.453979,1359.405273 1889.201416,1359.793457 1883.712280,1377.273804 
	C1883.416382,1378.216553 1883.348145,1379.228760 1883.088989,1380.185547 
	C1881.095947,1387.541992 1879.052612,1394.884766 1877.081421,1402.247070 
	C1874.638672,1411.370850 1866.264893,1414.858276 1859.223145,1415.583740 
	C1852.841919,1416.241333 1847.759277,1417.743896 1842.199097,1420.506470 
	C1834.949097,1424.109009 1831.724121,1429.650513 1831.816406,1437.096558 
	C1831.881470,1442.347046 1829.497314,1445.785767 1826.233887,1449.298096 
	C1821.956421,1453.901733 1817.900635,1458.722046 1813.928589,1463.595215 
	C1810.024658,1468.385010 1810.849487,1473.568604 1813.666992,1478.434692 
	C1815.313232,1481.277832 1817.340942,1484.123291 1819.828369,1486.217896 
	C1830.962158,1495.593018 1826.624146,1511.905762 1819.081665,1521.243896 
	C1814.115234,1527.392944 1807.764893,1532.476074 1801.753418,1537.714233 
	C1795.776978,1542.921753 1792.716553,1543.445312 1786.880249,1539.025391 
	C1782.978638,1536.070435 1780.032227,1536.469604 1775.971680,1538.074463 
	C1771.108643,1539.996826 1765.765259,1540.672241 1760.816162,1542.416138 
	C1755.679810,1544.225952 1749.366943,1545.443970 1746.122681,1549.154297 
	C1742.375732,1553.439331 1738.006592,1555.353394 1733.471924,1557.841064 
	C1730.126587,1559.676392 1725.460815,1561.992432 1724.636475,1564.989014 
	C1722.237305,1573.711914 1719.563843,1582.720825 1724.082764,1591.951050 
	C1726.879150,1597.663208 1725.458008,1601.549438 1720.706055,1605.810181 
	C1714.920654,1610.997437 1706.120117,1612.729370 1703.125854,1621.191162 
	C1702.911255,1621.797485 1701.328125,1621.849365 1700.457764,1622.305054 
	C1690.615479,1627.457397 1685.799438,1643.482422 1691.035522,1653.579834 
	C1695.567627,1662.319580 1695.083252,1666.056763 1688.497803,1674.077759 
	C1687.454346,1675.348877 1686.513428,1676.739990 1685.738281,1678.189575 
	C1682.266479,1684.682373 1682.906250,1686.724609 1689.909180,1689.062744 
	C1695.168945,1690.819092 1699.533813,1693.329834 1702.035767,1698.371338 
	C1699.244019,1705.345337 1696.300659,1712.015137 1693.982056,1718.895508 
	C1693.260010,1721.037964 1694.228149,1723.750000 1694.368286,1726.867432 
	C1695.533936,1732.722168 1696.754028,1737.910767 1698.382080,1744.834717 
	C1693.474487,1741.421997 1689.695557,1741.403198 1686.033447,1744.047852 
	C1685.907471,1743.916138 1685.647583,1743.660034 1685.588501,1742.960693 
	C1685.529419,1740.524536 1685.529419,1738.787964 1685.529419,1735.742432 
	C1679.977905,1740.821167 1675.511353,1744.907227 1670.737671,1749.274292 
	C1668.248413,1747.943604 1667.254883,1741.928101 1661.909912,1745.427002 
	C1661.032593,1746.001343 1658.319336,1744.240356 1656.728394,1743.156494 
	C1653.482544,1740.945312 1650.423218,1738.460449 1647.015991,1735.883423 
	C1643.799072,1738.030640 1640.713501,1739.856689 1637.894897,1742.029175 
	C1634.156006,1744.910522 1631.407837,1744.273071 1628.809326,1740.458984 
	C1623.027710,1731.972534 1613.790161,1728.204590 1605.909424,1723.306519 
	C1601.553345,1725.702637 1597.513428,1729.823975 1594.193481,1729.308472 
	C1589.149170,1728.525635 1590.455322,1733.205566 1587.997803,1733.981445 
	C1588.027954,1734.024292 1588.097778,1734.102539 1587.988525,1733.326050 
	C1586.637207,1727.896118 1585.395020,1723.242798 1584.407593,1719.543701 
	C1580.999146,1719.287476 1579.172485,1719.064941 1577.343506,1719.043701 
	C1576.182129,1719.030396 1574.174316,1719.001587 1573.982178,1719.515991 
	C1571.675415,1725.694214 1565.072388,1724.979858 1561.414185,1728.406128 
	C1560.297729,1727.591675 1559.665405,1727.289551 1559.270020,1726.797119 
	C1558.874390,1726.304199 1558.460815,1725.608398 1558.490601,1725.023682 
	C1558.956421,1715.883423 1555.671265,1709.790161 1545.967407,1707.747681 
	C1542.858154,1707.093384 1541.391357,1704.030151 1543.325073,1700.609009 
	C1544.028198,1700.549561 1544.811035,1700.228638 1545.267578,1700.486328 
	C1548.122925,1702.096436 1550.754272,1701.966919 1551.455688,1698.503540 
	C1552.146606,1695.092896 1549.427368,1694.085083 1546.488892,1693.772827 
	C1544.351196,1693.545532 1542.232178,1693.143433 1538.292603,1692.543091 
	C1542.151855,1688.387695 1544.887451,1685.442261 1547.490356,1682.639526 
	C1540.230103,1667.980591 1536.238037,1662.546631 1529.251953,1657.974487 
	C1526.151611,1666.455688 1519.154175,1670.523071 1511.598877,1674.408569 
	C1507.332764,1676.602539 1503.301636,1680.083862 1500.420410,1683.926880 
	C1496.903809,1688.617065 1492.161255,1690.235352 1487.447266,1689.442383 
	C1482.634644,1688.632935 1478.272705,1688.781982 1473.853394,1690.194092 
	C1466.855347,1692.430176 1460.549927,1691.691284 1454.150024,1687.766479 
	C1450.647583,1685.618408 1446.087646,1685.260742 1442.147095,1683.728882 
	C1440.539795,1683.104248 1438.462646,1681.686401 1438.170898,1680.298950 
	C1437.927246,1679.139404 1439.913208,1677.447876 1441.032227,1676.091431 
	C1441.619385,1675.379517 1442.465332,1674.881104 1442.056396,1675.214722 
	C1442.752808,1669.817383 1443.176880,1665.648560 1443.848145,1661.520142 
	C1445.077393,1653.960938 1442.228271,1649.192749 1434.716675,1647.906982 
	C1431.429688,1647.344238 1429.074341,1646.456299 1427.743896,1643.344849 
	C1427.646362,1643.117188 1426.740479,1643.235107 1426.017212,1643.176758 
	C1424.937500,1645.374390 1423.830933,1647.626343 1422.099731,1651.149902 
	C1418.338379,1647.754272 1415.730835,1644.013062 1412.165649,1642.433716 
	C1399.970947,1637.032471 1392.151733,1626.382812 1382.098877,1618.456421 
	C1380.747437,1617.390869 1379.749268,1615.048950 1379.737671,1613.290527 
	C1379.715698,1609.955566 1377.793701,1608.150879 1376.104614,1605.644897 
	C1371.652954,1599.040527 1371.031372,1590.184204 1364.217896,1584.826538 
	C1365.194824,1577.952515 1360.109131,1573.984375 1356.811279,1569.103027 
	C1354.183105,1565.212524 1351.672119,1563.303955 1346.192871,1564.171021 
	C1341.767456,1564.871338 1335.651001,1563.619995 1332.359741,1560.806885 
	C1326.735840,1556.000122 1320.875366,1553.357788 1313.731323,1553.267700 
	C1312.466797,1549.855225 1311.373047,1546.903442 1310.079590,1543.412842 
	C1305.266479,1544.756470 1301.039551,1545.936401 1296.972046,1547.071899 
	C1297.379272,1550.642822 1297.709106,1553.536255 1298.039429,1556.433472 
	C1291.233276,1557.154419 1289.422485,1555.951782 1290.496216,1550.330322 
	C1291.320190,1546.017212 1292.044067,1542.527832 1286.759766,1540.175415 
	C1284.404419,1541.355225 1281.839600,1542.639893 1279.341187,1543.891357 
	C1271.846924,1533.940552 1271.849365,1533.958740 1259.672485,1535.601807 
	C1253.920654,1536.377808 1248.382080,1536.660034 1244.568481,1530.833496 
	C1243.783081,1529.633423 1241.677979,1528.473267 1240.314209,1528.611084 
	C1232.068115,1529.444336 1224.075195,1525.392334 1215.628418,1527.822388 
	C1213.080200,1528.555542 1209.447266,1526.676392 1206.710938,1525.234985 
	C1204.478271,1524.058838 1202.841064,1521.751831 1200.692505,1519.711304 
	C1192.120850,1524.435913 1184.752319,1530.723022 1182.105347,1539.592529 
	C1177.736328,1554.232788 1170.430908,1565.236206 1155.938599,1571.338379 
	C1150.226440,1573.743774 1144.786987,1577.480591 1140.215820,1581.688965 
	C1136.750732,1584.878784 1134.088745,1589.518799 1132.578979,1594.019897 
	C1131.780151,1596.401245 1134.310303,1599.833862 1135.136353,1602.847046 
	C1135.747681,1605.076416 1135.879517,1607.437622 1136.498657,1609.664062 
	C1137.642944,1613.778564 1138.560425,1618.035645 1140.342163,1621.876343 
	C1143.637573,1628.980225 1140.509888,1636.603149 1132.896851,1635.882080 
	C1125.065430,1635.140015 1120.734131,1639.034668 1115.424194,1642.933960 
	C1104.778687,1650.750977 1096.413818,1650.026245 1086.234741,1641.171143 
	C1085.793213,1640.787354 1084.997070,1640.811279 1084.063110,1640.565430 
	C1078.358643,1642.417725 1079.609253,1648.143555 1078.548218,1652.221313 
	C1076.127808,1661.524048 1072.763672,1664.473755 1063.415894,1662.808228 
	C1059.579712,1662.124756 1055.700073,1660.672974 1052.297485,1658.758057 
	C1042.142212,1653.043457 1032.002930,1647.247437 1022.264709,1640.862061 
	C1014.991089,1636.092773 1007.457703,1633.794189 998.778992,1634.071899 
	C994.234619,1634.217285 989.202698,1634.034180 985.170288,1632.244019 
	C976.066284,1628.201782 967.487610,1622.988892 958.613159,1618.411499 
	C954.116394,1616.092163 951.658691,1612.541748 950.483643,1607.695190 
	C948.421692,1599.190674 944.469055,1596.038696 936.055481,1595.907959 
	C932.728210,1595.856201 929.376221,1596.338501 926.074341,1596.080444 
	C923.870422,1595.908325 920.704285,1595.530884 919.756653,1594.078735 
	C916.539856,1589.149048 911.908447,1589.920166 907.292908,1589.684326 
	C903.998230,1589.515869 900.662109,1589.113647 897.463501,1588.330078 
	C890.450317,1586.612183 890.119568,1586.104736 891.397644,1578.856812 
	C892.263123,1573.948853 891.940002,1569.659912 887.793030,1566.175903 
	C886.598389,1565.172363 885.601501,1563.510986 885.257263,1561.983521 
	C882.045715,1547.734741 877.794006,1533.581543 876.206116,1519.140869 
	C874.247437,1501.328003 874.079285,1483.270020 873.967285,1465.312744 
	C873.759277,1431.988892 874.212891,1398.661255 874.239258,1365.335205 
	C874.243774,1359.625000 875.774841,1354.882935 880.865051,1351.619873 
	C886.226562,1356.577759 890.910767,1361.271240 895.806030,1365.733032 
	C899.378296,1368.988770 903.548096,1369.367798 907.773132,1366.988037 
	C919.751770,1360.241211 930.645203,1352.182861 938.659607,1340.765869 
	C950.709473,1323.599731 964.863708,1317.782349 985.493530,1322.128540 
	C991.767517,1312.604126 1002.562256,1309.891235 1012.953186,1306.445068 
	C1013.900146,1306.131104 1014.916321,1306.004028 1015.834595,1305.629028 
	C1022.218750,1303.021484 1026.240967,1298.642700 1026.310425,1291.385986 
	C1026.339111,1288.386353 1026.688843,1285.331909 1026.257568,1282.395874 
	C1024.590332,1271.045044 1020.900208,1260.366211 1012.442627,1252.295410 
	C1006.215271,1246.352905 999.195679,1241.216675 992.358887,1235.941772 
	C979.257996,1225.833618 967.835205,1213.365723 951.920959,1207.185791 
	C946.356934,1205.025269 939.552063,1203.887451 935.757690,1199.936035 
	C931.732239,1195.744019 930.653870,1188.745117 928.200073,1183.009766 
	C927.155518,1180.568115 925.636230,1178.308105 924.782715,1175.811646 
	C923.722595,1172.711060 922.463867,1169.443604 922.500061,1166.261963 
	C922.546326,1162.195190 920.714111,1159.510498 918.495239,1156.489014 
	C912.424561,1148.222412 906.738281,1139.674683 900.840271,1131.280029 
	C891.309204,1117.714355 893.963318,1102.805054 896.322388,1088.056030 
	C896.675110,1085.850220 899.276123,1083.820923 901.174927,1082.078003 
	C908.275330,1075.561401 915.613831,1069.303345 922.682190,1062.753174 
	C934.396118,1051.898193 945.941040,1040.861206 957.609131,1029.956421 
	C982.395752,1006.791321 1007.187134,983.631165 1032.031616,960.528015 
	C1049.810913,943.994629 1067.580322,927.447876 1085.561646,911.135742 
	C1092.002075,905.293152 1099.538452,902.319275 1108.516113,905.255737 
	C1111.647583,906.279907 1115.008545,907.182800 1118.256104,907.154785 
	C1125.479248,907.092651 1133.631714,908.362732 1139.676392,905.473145 
	C1146.941162,902.000366 1152.531372,901.733948 1159.180908,905.334778 
	C1163.418701,907.629578 1167.700684,908.599426 1171.991699,904.625427 
	C1173.758545,902.989014 1176.626099,902.354126 1179.108521,901.708191 
	C1193.327759,898.008301 1207.343872,900.195435 1221.482788,902.792664 
	C1228.106812,904.009521 1232.907715,906.578735 1236.988647,911.962463 
	C1240.738892,916.909851 1244.881348,921.892334 1251.414673,923.740234 
	C1260.203735,926.226013 1269.514160,927.048889 1277.020874,933.428650 
	C1279.235352,935.310791 1283.313965,935.133728 1286.579956,935.621277 
	C1301.669434,937.873657 1316.874146,939.503113 1331.842407,942.373230 
	C1345.229736,944.940186 1358.197632,944.538147 1371.144653,940.719604 
	C1374.661011,933.541138 1378.155396,926.370300 1381.684448,919.216492 
	C1383.867065,914.792297 1386.835205,911.716003 1392.338257,911.608826 
	C1398.955078,911.479858 1405.563599,910.426208 1412.170532,910.473938 
	C1416.368530,910.504272 1420.760620,911.244751 1424.706665,912.664612 
	C1432.345093,915.412964 1439.880127,915.274719 1446.812866,911.681091 
	C1450.826172,909.600769 1454.230957,909.637451 1458.217529,910.501343 
	C1464.683960,911.902710 1471.171753,913.936462 1477.703125,914.158997 
	C1492.346558,914.657837 1507.046753,913.661804 1521.677490,914.312256 
	C1533.808472,914.851624 1545.823242,915.740051 1557.466675,921.083252 
	C1570.051270,926.858582 1583.564941,930.794678 1596.938477,934.601440 
	C1606.073120,937.201599 1612.491943,931.170105 1611.560913,921.699341 
	C1611.110840,917.120850 1609.328491,912.687317 1608.623291,908.115051 
	C1608.128662,904.907288 1607.142334,900.743713 1608.618408,898.450745 
	C1613.743408,890.489441 1617.859619,881.857300 1627.139526,876.879822 
	C1649.153809,865.072205 1670.508179,852.091492 1687.379761,833.131165 
	C1690.783081,829.306396 1695.039307,829.260925 1699.305908,829.760559 
	C1708.520386,830.839600 1717.653076,832.923462 1726.883545,833.436218 
	C1731.893188,833.714478 1734.817505,835.879456 1737.635620,839.240784 
	C1748.893066,852.668396 1748.894653,852.665039 1744.102417,870.066650 
	C1743.661743,871.666870 1743.381470,873.321472 1742.821777,874.876953 
	C1740.863281,880.319824 1741.752930,885.228699 1745.545654,890.013428 
	C1747.966064,889.147705 1750.482422,888.361023 1752.911377,887.362183 
	C1816.535400,861.200562 1880.170166,835.064392 1943.748291,808.791504 
	C1954.463745,804.363403 1964.929199,799.330017 1975.510132,794.576294 
z"/>

<path data-name="Batcham" style="fill: {#6F4FE3}" fill="#6F4FE3" opacity="1.000000" stroke="none" 
	d="
M1102.402466,2144.998779 
	C1099.762939,2145.227295 1097.126831,2145.520752 1094.482666,2145.663574 
	C1092.489380,2145.771484 1090.404907,2145.324951 1088.500244,2145.749512 
	C1077.582520,2148.182861 1066.588379,2150.398193 1055.864624,2153.525635 
	C1050.319580,2155.142578 1045.714478,2158.813232 1046.260376,2165.845215 
	C1046.310547,2166.492432 1046.325195,2167.323486 1045.980347,2167.793213 
	C1041.033447,2174.532471 1043.411865,2180.945068 1045.368896,2188.183105 
	C1046.513916,2192.418457 1044.435303,2199.492920 1041.206665,2202.467285 
	C1036.739380,2206.582275 1032.412354,2210.198486 1030.216187,2216.012939 
	C1029.833740,2217.025635 1028.223999,2217.574707 1026.134888,2219.103271 
	C1024.085083,2215.327881 1021.933899,2212.115479 1020.518372,2208.606201 
	C1017.358521,2200.772705 1004.782471,2194.916504 996.999084,2197.835205 
	C993.664551,2199.085693 990.212341,2200.022461 986.366821,2201.243652 
	C986.163513,2202.794678 985.715881,2204.395508 985.787292,2205.972900 
	C986.128845,2213.514893 983.730347,2218.302002 976.568176,2219.498779 
	C969.364929,2220.702393 961.273804,2222.394775 955.781189,2214.503174 
	C954.495422,2212.655762 952.496948,2211.155762 950.548035,2209.943848 
	C941.939575,2204.590576 936.190125,2206.566895 932.016479,2215.854004 
	C931.126892,2217.833496 929.545654,2219.630127 927.926086,2221.124023 
	C925.494385,2223.366699 922.618225,2225.124512 920.158386,2227.341064 
	C912.644287,2234.110840 903.912231,2234.516846 896.546143,2227.838379 
	C893.575439,2225.145020 890.822937,2224.014404 886.721436,2224.726807 
	C878.964417,2226.073975 871.412903,2226.872559 864.010315,2230.725098 
	C858.510742,2233.587402 851.128296,2233.529053 844.583313,2233.535645 
	C831.976929,2233.548340 819.370728,2232.659424 806.762451,2232.197754 
	C800.445496,2231.966309 794.101379,2232.129639 787.810852,2231.612305 
	C780.593628,2231.018555 773.422974,2229.862061 766.230347,2228.964600 
	C764.261780,2228.718994 762.282959,2228.308105 760.315125,2228.341553 
	C739.986755,2228.689209 719.890015,2226.576660 699.919495,2222.929199 
	C698.388916,2222.649658 696.623413,2222.783447 695.139465,2223.261230 
	C684.385986,2226.720703 675.674683,2222.577393 667.559875,2216.073975 
	C666.783508,2215.451660 666.198730,2214.575195 665.389465,2214.011719 
	C649.681763,2203.073975 655.824707,2202.737061 636.905151,2206.991699 
	C619.576782,2210.888184 602.076172,2211.794434 585.199768,2203.600586 
	C578.748474,2200.468506 571.905396,2203.312256 568.247375,2209.624512 
	C563.376892,2218.028809 557.015930,2224.972412 550.119568,2231.861328 
	C542.216064,2239.756104 536.274902,2249.615723 529.740601,2259.311035 
	C525.916687,2260.000000 521.833313,2260.000000 517.243103,2259.349609 
	C511.655060,2253.945801 505.581024,2249.879883 501.710724,2244.288574 
	C494.813019,2234.323486 485.951752,2226.772705 475.266052,2222.179932 
	C461.040344,2216.065674 447.166718,2210.112793 438.688721,2196.189209 
	C429.704834,2192.156738 429.105042,2184.418213 429.647675,2176.060547 
	C429.904938,2172.097900 430.345703,2167.853271 426.587708,2165.049316 
	C421.303802,2161.106934 416.378479,2155.742920 410.398254,2153.877686 
	C399.262787,2150.405029 390.300507,2143.846924 380.964417,2137.542969 
	C376.502228,2134.529785 373.542786,2131.161377 374.241516,2125.292725 
	C374.901276,2119.751465 371.902679,2117.706543 366.483948,2117.602051 
	C356.282349,2117.404785 349.426483,2111.414307 346.290405,2102.455811 
	C344.581451,2097.573975 342.242920,2096.248535 337.949097,2095.895508 
	C335.645447,2095.706299 333.362244,2094.863525 331.079041,2094.899658 
	C319.842804,2095.076660 307.866150,2093.089600 297.559753,2096.337402 
	C284.044739,2100.596191 269.747742,2097.238037 255.783661,2105.091797 
	C255.567169,2099.924561 254.468872,2096.467773 255.470566,2093.799805 
	C260.639038,2080.032471 259.511688,2065.494873 259.089539,2051.592285 
	C258.630005,2036.458008 253.489960,2021.643188 244.188416,2008.846924 
	C241.690674,2005.410767 239.953613,2001.349731 238.279739,1997.400879 
	C234.391663,1988.228271 231.238419,1978.713989 226.890167,1969.774658 
	C221.826813,1959.364746 221.353287,1948.780151 223.181320,1937.723389 
	C223.531967,1935.602661 223.231659,1933.374268 223.231659,1930.368408 
	C217.688156,1930.117554 212.764618,1929.890503 207.840698,1929.672852 
	C199.143234,1929.288330 192.950226,1925.880371 189.652100,1917.089600 
	C185.942184,1907.201416 181.187805,1897.703491 176.831299,1888.061279 
	C176.155121,1886.564819 175.088211,1885.248779 174.357071,1883.772583 
	C172.617035,1880.259521 170.958954,1876.705688 169.287704,1873.158936 
	C166.629822,1867.518311 164.140518,1861.791992 161.300705,1856.244995 
	C157.838928,1849.483154 154.041046,1842.894165 150.483154,1836.180420 
	C148.775543,1832.958130 147.460007,1829.521973 145.667862,1826.351807 
	C136.969330,1810.964722 126.593910,1796.922119 114.776299,1783.642822 
	C102.892342,1770.289307 92.980316,1755.188599 82.086624,1740.943481 
	C73.611465,1729.861084 64.675064,1719.120483 56.486023,1707.834473 
	C51.627327,1701.138306 48.571682,1693.061279 43.354927,1686.715454 
	C36.432949,1678.295288 33.805805,1668.817383 32.436882,1657.658569 
	C41.739929,1651.018555 51.485397,1644.663574 60.499870,1637.401245 
	C65.820801,1633.114624 70.730835,1627.889893 74.522202,1622.216064 
	C84.302353,1607.580322 93.357819,1592.460083 103.333282,1577.968262 
	C117.211128,1588.465942 130.374435,1598.641846 143.726547,1608.563721 
	C161.300354,1621.622925 177.955444,1636.343140 200.509521,1640.685181 
	C202.717331,1641.110352 204.843185,1642.445190 206.781464,1643.704712 
	C216.794022,1650.210938 226.694824,1656.889282 236.714569,1663.384399 
	C241.445648,1666.451294 246.050598,1670.123779 251.264297,1671.927612 
	C257.299927,1674.015747 261.777039,1677.546387 265.528961,1682.266113 
	C268.610840,1686.143066 271.178223,1690.424194 274.118805,1694.419434 
	C277.419495,1698.903687 280.148010,1704.246582 284.437561,1707.469849 
	C292.094177,1713.223389 300.907043,1717.410034 308.902374,1722.751831 
	C313.782745,1726.012451 318.572327,1728.436035 324.606964,1727.753540 
	C329.687988,1727.178955 333.417236,1729.475220 336.713104,1733.304565 
	C343.265381,1740.917480 348.949585,1748.548584 350.770081,1759.082886 
	C352.805634,1770.861694 360.409454,1778.730347 372.849609,1780.125366 
	C380.027802,1780.930176 387.377625,1781.222534 394.569702,1780.679443 
	C411.127930,1779.429077 427.310822,1778.708984 439.901062,1792.485107 
	C441.221771,1793.930176 443.236938,1794.719116 444.676331,1796.080566 
	C451.725616,1802.747681 460.094482,1803.025391 468.967377,1801.462769 
	C472.175812,1800.897705 475.738800,1799.807251 478.657745,1800.642334 
	C485.683014,1802.651611 491.708557,1800.289795 498.001709,1798.068115 
	C502.198608,1796.586548 504.331787,1793.851562 505.405975,1789.614380 
	C507.527191,1781.247314 510.705078,1773.094971 512.194946,1764.633545 
	C514.571716,1751.134766 520.242371,1740.320435 532.786987,1733.849365 
	C533.075806,1733.700317 533.300232,1733.427856 533.557678,1733.216797 
	C542.648804,1725.763062 547.408264,1716.348267 546.401550,1704.421143 
	C545.988953,1699.533936 545.315491,1694.668579 544.598816,1688.370361 
	C558.679443,1682.026978 572.779724,1675.464111 587.062317,1669.325439 
	C594.643799,1666.067017 602.991028,1664.486450 608.455688,1657.316895 
	C609.733521,1655.640381 612.328125,1654.044800 614.340271,1654.015503 
	C621.822144,1653.906494 629.443726,1652.185547 636.445312,1657.398560 
	C641.537659,1661.190063 647.648254,1663.556030 654.929932,1660.034180 
	C661.184204,1657.327637 666.718262,1654.604736 672.415527,1651.801636 
	C679.887207,1658.792358 683.387878,1667.353027 686.096252,1676.295776 
	C689.223694,1686.622192 690.209656,1687.748535 700.925354,1684.644165 
	C718.491211,1679.555542 734.265625,1685.074951 750.026184,1691.542603 
	C750.708801,1691.822754 750.945740,1693.188843 751.789062,1694.820557 
	C747.532166,1699.202637 743.442139,1703.989746 738.749084,1708.086304 
	C733.770874,1712.432007 733.164246,1717.302490 734.594910,1723.338257 
	C739.765259,1745.152222 742.278687,1767.171509 738.291077,1789.502563 
	C736.923401,1797.161743 739.405518,1803.226318 745.213684,1808.119995 
	C749.026550,1811.332153 752.997803,1814.366333 756.688416,1817.711670 
	C766.019714,1826.170288 771.000305,1835.995850 765.877747,1848.786011 
	C765.386963,1850.011353 764.968079,1851.331665 764.864136,1852.635498 
	C764.101868,1862.189331 762.944763,1871.747192 762.889099,1881.309570 
	C762.848755,1888.246216 766.379822,1892.309937 774.254944,1893.411255 
	C784.783997,1894.883667 795.361572,1897.916992 803.588501,1905.086304 
	C818.580017,1918.150269 833.165771,1931.691650 847.641602,1945.330322 
	C854.195618,1951.505371 860.450989,1957.742188 868.823059,1961.682983 
	C876.684631,1965.383545 880.811523,1972.057007 880.186707,1981.052490 
	C879.681824,1988.321045 878.736084,1995.566284 878.448059,2002.840332 
	C878.226135,2008.447388 878.098694,2014.186646 879.016663,2019.685669 
	C881.652100,2035.473511 883.814331,2051.152832 880.293762,2067.129639 
	C878.814514,2073.842285 880.569946,2076.826660 886.578430,2080.189697 
	C890.353210,2082.302490 894.469421,2083.855469 898.080383,2086.201172 
	C910.507507,2094.274902 925.182251,2099.503174 933.047424,2113.453857 
	C935.144775,2117.174072 938.679260,2116.630127 941.915283,2115.865967 
	C949.998657,2113.957520 957.979309,2111.605225 966.080750,2109.785156 
	C969.902588,2108.927002 974.080200,2107.952393 977.796631,2108.643555 
	C988.843506,2110.697998 999.481689,2109.997559 1010.247620,2106.912598 
	C1013.833557,2105.885010 1018.019775,2106.525391 1021.872131,2106.946533 
	C1029.096191,2107.736572 1036.279785,2108.901367 1043.474121,2109.952881 
	C1047.064819,2110.477539 1049.573364,2109.466064 1052.011108,2106.393066 
	C1054.141846,2103.706787 1057.498291,2100.706055 1060.617432,2100.323242 
	C1071.460327,2098.993164 1082.432007,2098.342041 1093.361938,2098.244385 
	C1098.950684,2098.194336 1102.730713,2102.165283 1101.717651,2107.136230 
	C1100.015381,2115.489990 1101.897461,2124.326660 1097.430420,2132.361084 
	C1094.261719,2138.060547 1095.770752,2140.680664 1102.402466,2144.998779 
z"/>
<path data-name="Babadjou" style="fill: {#5FED55}" fill="#5FED55" opacity="1.000000" stroke="none" 
	d="
M15.915863,1350.529297 
	C22.295427,1343.614746 30.657808,1343.386963 38.364307,1342.592773 
	C46.336544,1341.771118 52.962917,1338.287598 59.687614,1334.817505 
	C61.661854,1333.798828 63.398880,1331.107544 64.007141,1328.849487 
	C68.324760,1312.820801 71.878281,1296.574829 76.578133,1280.664795 
	C79.614777,1270.385010 88.133499,1263.798218 96.120628,1257.325317 
	C104.014381,1250.928101 113.273041,1247.461426 123.432487,1246.177368 
	C125.731651,1245.886841 128.132660,1244.210083 129.917389,1242.556763 
	C132.581100,1240.089233 134.774979,1237.105591 137.105988,1234.289551 
	C143.238510,1226.880981 149.165665,1219.293213 155.520279,1212.081299 
	C158.798218,1208.361206 160.211029,1204.419434 160.578156,1199.516968 
	C161.219482,1190.952759 162.558716,1182.439697 163.649979,1173.910767 
	C164.493118,1167.320923 167.783539,1162.448364 172.915466,1158.042725 
	C190.944275,1142.565430 210.661728,1129.677124 231.511002,1118.447388 
	C256.457611,1105.010986 279.628204,1088.824341 302.982422,1072.894165 
	C310.664886,1067.653809 318.873169,1063.183105 326.860687,1058.393188 
	C327.999420,1057.710327 329.246429,1056.716309 330.449188,1056.707886 
	C342.660339,1056.623413 354.980225,1054.497559 366.932434,1059.189453 
	C372.353516,1061.317627 373.730865,1066.094849 375.729248,1070.564209 
	C379.925812,1079.949951 383.788971,1089.492432 388.258057,1098.744141 
	C389.898743,1102.140747 392.864899,1104.897095 394.279999,1106.723755 
	C400.612122,1104.169189 405.398682,1101.333862 410.537231,1100.364624 
	C419.561768,1098.662231 427.494019,1095.452271 434.838867,1089.791870 
	C441.070465,1084.989380 448.124237,1081.184448 455.061859,1077.390869 
	C460.096405,1074.638062 465.295410,1075.384521 470.278992,1078.291382 
	C489.527405,1089.518677 508.099884,1100.817993 520.871155,1120.591797 
	C531.250549,1136.662231 545.259094,1150.391357 557.699951,1165.123413 
	C558.983521,1166.643311 560.357910,1168.799805 562.021179,1169.168823 
	C571.907593,1171.362183 577.247742,1179.080688 583.453491,1185.861328 
	C584.988647,1187.538452 587.159180,1188.634155 589.335938,1190.213501 
	C600.954163,1184.415405 610.870422,1176.314697 621.149292,1166.098633 
	C624.335693,1175.982056 627.078796,1184.680542 629.948975,1193.337036 
	C632.550415,1201.182861 635.290466,1208.982666 638.120605,1218.382812 
	C637.490356,1234.232178 636.842407,1248.511230 635.833618,1262.764771 
	C635.580444,1266.341431 634.619751,1270.027466 633.216736,1273.337891 
	C623.226562,1296.909302 612.947510,1320.358398 602.978821,1343.938721 
	C600.682434,1349.370850 598.467834,1355.043091 597.577454,1360.814819 
	C596.317261,1368.983643 597.081726,1377.490356 595.560730,1385.585815 
	C594.190979,1392.875977 595.929932,1399.232300 597.733154,1405.985596 
	C603.447510,1427.385498 613.183655,1447.022461 623.270264,1466.563232 
	C625.677002,1471.225952 627.695007,1476.303223 628.727661,1481.424683 
	C633.722351,1506.195435 639.411926,1530.760132 647.653748,1554.690552 
	C648.830200,1558.106567 649.616272,1561.794189 649.795898,1565.395386 
	C651.368713,1596.931152 652.762634,1628.475830 654.209595,1660.017944 
	C647.648254,1663.556030 641.537659,1661.190063 636.445312,1657.398560 
	C629.443726,1652.185547 621.822144,1653.906494 614.340271,1654.015503 
	C612.328125,1654.044800 609.733521,1655.640381 608.455688,1657.316895 
	C602.991028,1664.486450 594.643799,1666.067017 587.062317,1669.325439 
	C572.779724,1675.464111 558.679443,1682.026978 544.598816,1688.370361 
	C545.315491,1694.668579 545.988953,1699.533936 546.401550,1704.421143 
	C547.408264,1716.348267 542.648804,1725.763062 533.557678,1733.216797 
	C533.300232,1733.427856 533.075806,1733.700317 532.786987,1733.849365 
	C520.242371,1740.320435 514.571716,1751.134766 512.194946,1764.633545 
	C510.705078,1773.094971 507.527191,1781.247314 505.405975,1789.614380 
	C504.331787,1793.851562 502.198608,1796.586548 498.001709,1798.068115 
	C491.708557,1800.289795 485.683014,1802.651611 478.657745,1800.642334 
	C475.738800,1799.807251 472.175812,1800.897705 468.967377,1801.462769 
	C460.094482,1803.025391 451.725616,1802.747681 444.676331,1796.080566 
	C443.236938,1794.719116 441.221771,1793.930176 439.901062,1792.485107 
	C427.310822,1778.708984 411.127930,1779.429077 394.569702,1780.679443 
	C387.377625,1781.222534 380.027802,1780.930176 372.849609,1780.125366 
	C360.409454,1778.730347 352.805634,1770.861694 350.770081,1759.082886 
	C348.949585,1748.548584 343.265381,1740.917480 336.713104,1733.304565 
	C333.417236,1729.475220 329.687988,1727.178955 324.606964,1727.753540 
	C318.572327,1728.436035 313.782745,1726.012451 308.902374,1722.751831 
	C300.907043,1717.410034 292.094177,1713.223389 284.437561,1707.469849 
	C280.148010,1704.246582 277.419495,1698.903687 274.118805,1694.419434 
	C271.178223,1690.424194 268.610840,1686.143066 265.528961,1682.266113 
	C261.777039,1677.546387 257.299927,1674.015747 251.264297,1671.927612 
	C246.050598,1670.123779 241.445648,1666.451294 236.714569,1663.384399 
	C226.694824,1656.889282 216.794022,1650.210938 206.781464,1643.704712 
	C204.843185,1642.445190 202.717331,1641.110352 200.509521,1640.685181 
	C177.955444,1636.343140 161.300354,1621.622925 143.726547,1608.563721 
	C130.374435,1598.641846 117.211128,1588.465942 103.333267,1577.968262 
	C105.069977,1573.576294 107.122490,1569.383301 109.872147,1565.712524 
	C115.055710,1558.792603 115.889450,1550.963501 110.674042,1544.120239 
	C108.466080,1541.223022 108.662392,1538.979126 109.421677,1535.964966 
	C111.683876,1526.984131 109.628876,1518.712646 106.720039,1509.937012 
	C101.772369,1495.010498 96.611938,1479.705566 101.290993,1463.608765 
	C86.695419,1454.544800 72.340446,1445.742554 58.138496,1436.699829 
	C55.767796,1435.190308 53.350887,1432.979126 52.160080,1430.510742 
	C40.345844,1406.023315 28.785152,1381.413574 16.612869,1356.381958 
	C15.953683,1354.380737 15.834464,1352.836060 15.915863,1350.529297 
z"/>
<path data-name="Mbouda" style="fill: {#A18760}" fill="#A18760" opacity="1.000000" stroke="none" 
	d="
M654.929932,1660.034180 
	C652.762634,1628.475830 651.368713,1596.931152 649.795898,1565.395386 
	C649.616272,1561.794189 648.830200,1558.106567 647.653748,1554.690552 
	C639.411926,1530.760132 633.722351,1506.195435 628.727661,1481.424683 
	C627.695007,1476.303223 625.677002,1471.225952 623.270264,1466.563232 
	C613.183655,1447.022461 603.447510,1427.385498 597.733154,1405.985596 
	C595.929932,1399.232300 594.190979,1392.875977 595.560730,1385.585815 
	C597.081726,1377.490356 596.317261,1368.983643 597.577454,1360.814819 
	C598.467834,1355.043091 600.682434,1349.370850 602.978821,1343.938721 
	C612.947510,1320.358398 623.226562,1296.909302 633.216736,1273.337891 
	C634.619751,1270.027466 635.580444,1266.341431 635.833618,1262.764771 
	C636.842407,1248.511230 637.490356,1234.232178 638.431641,1219.074219 
	C654.909119,1218.220581 671.226929,1218.228394 687.544373,1218.318359 
	C690.160095,1218.332764 693.023010,1218.094727 695.347046,1219.029297 
	C708.251343,1224.219360 721.132385,1229.499756 733.775757,1235.285889 
	C737.491455,1236.986328 741.165161,1239.893433 743.532593,1243.197388 
	C748.732361,1250.453857 753.025818,1258.354980 757.815857,1265.912720 
	C759.568420,1268.677979 761.266296,1271.705322 763.705261,1273.764893 
	C770.539795,1279.536133 777.747742,1284.864990 785.136963,1290.624512 
	C789.910950,1288.120117 794.493286,1286.136475 798.614746,1283.446655 
	C803.660706,1280.153442 808.142151,1279.998169 813.261963,1283.362183 
	C817.688049,1286.270386 822.732971,1288.218140 827.311768,1290.917114 
	C832.834778,1294.172607 837.574585,1293.655151 842.978088,1290.080078 
	C849.023804,1286.080200 855.834351,1283.242676 862.282410,1279.843018 
	C868.593445,1276.515747 874.244812,1279.117432 878.931580,1282.777466 
	C880.946716,1284.351074 881.591858,1288.659424 881.561401,1291.712402 
	C881.369324,1310.975220 880.812744,1330.234253 880.327393,1350.375366 
	C875.774841,1354.882935 874.243774,1359.625000 874.239258,1365.335205 
	C874.212891,1398.661255 873.759277,1431.988892 873.967285,1465.312744 
	C874.079285,1483.270020 874.247437,1501.328003 876.206116,1519.140869 
	C877.794006,1533.581543 882.045715,1547.734741 885.257263,1561.983521 
	C885.601501,1563.510986 886.598389,1565.172363 887.793030,1566.175903 
	C891.940002,1569.659912 892.263123,1573.948853 891.397644,1578.856812 
	C890.119568,1586.104736 890.450317,1586.612183 897.463501,1588.330078 
	C900.662109,1589.113647 903.998230,1589.515869 907.292908,1589.684326 
	C911.908447,1589.920166 916.539856,1589.149048 919.756653,1594.078735 
	C920.704285,1595.530884 923.870422,1595.908325 926.074341,1596.080444 
	C929.376221,1596.338501 932.728210,1595.856201 936.055481,1595.907959 
	C944.469055,1596.038696 948.421692,1599.190674 950.483643,1607.695190 
	C951.658691,1612.541748 954.116394,1616.092163 958.613159,1618.411499 
	C967.487610,1622.988892 976.066284,1628.201782 985.170288,1632.244019 
	C989.202698,1634.034180 994.234619,1634.217285 998.778992,1634.071899 
	C1007.457703,1633.794189 1014.991089,1636.092773 1022.264709,1640.862061 
	C1032.002930,1647.247437 1042.142212,1653.043457 1052.297485,1658.758057 
	C1055.700073,1660.672974 1059.579712,1662.124756 1063.415894,1662.808228 
	C1072.763672,1664.473755 1076.127808,1661.524048 1078.548218,1652.221313 
	C1079.609253,1648.143555 1078.358643,1642.417725 1084.063110,1640.565430 
	C1084.997070,1640.811279 1085.793213,1640.787354 1086.234741,1641.171143 
	C1096.413818,1650.026245 1104.778687,1650.750977 1115.424194,1642.933960 
	C1120.734131,1639.034668 1125.065430,1635.140015 1132.896851,1635.882080 
	C1140.509888,1636.603149 1143.637573,1628.980225 1140.342163,1621.876343 
	C1138.560425,1618.035645 1137.642944,1613.778564 1136.498657,1609.664062 
	C1135.879517,1607.437622 1135.747681,1605.076416 1135.136353,1602.847046 
	C1134.310303,1599.833862 1131.780151,1596.401245 1132.578979,1594.019897 
	C1134.088745,1589.518799 1136.750732,1584.878784 1140.215820,1581.688965 
	C1144.786987,1577.480591 1150.226440,1573.743774 1155.938599,1571.338379 
	C1170.430908,1565.236206 1177.736328,1554.232788 1182.105347,1539.592529 
	C1184.752319,1530.723022 1192.120850,1524.435913 1200.692505,1519.711304 
	C1202.841064,1521.751831 1204.478271,1524.058838 1206.710938,1525.234985 
	C1209.447266,1526.676392 1213.080200,1528.555542 1215.628418,1527.822388 
	C1224.075195,1525.392334 1232.068115,1529.444336 1240.314209,1528.611084 
	C1241.677979,1528.473267 1243.783081,1529.633423 1244.568481,1530.833496 
	C1248.382080,1536.660034 1253.920654,1536.377808 1259.672485,1535.601807 
	C1271.849365,1533.958740 1271.846924,1533.940552 1279.341187,1543.891357 
	C1281.839600,1542.639893 1284.404419,1541.355225 1286.759766,1540.175415 
	C1292.044067,1542.527832 1291.320190,1546.017212 1290.496216,1550.330322 
	C1289.422485,1555.951782 1291.233276,1557.154419 1298.039429,1556.433472 
	C1297.709106,1553.536255 1297.379272,1550.642822 1296.972046,1547.071899 
	C1301.039551,1545.936401 1305.266479,1544.756470 1310.079590,1543.412842 
	C1311.373047,1546.903442 1312.466797,1549.855225 1313.731323,1553.267700 
	C1320.875366,1553.357788 1326.735840,1556.000122 1332.359741,1560.806885 
	C1335.651001,1563.619995 1341.767456,1564.871338 1346.192871,1564.171021 
	C1351.672119,1563.303955 1354.183105,1565.212524 1356.811279,1569.103027 
	C1360.109131,1573.984375 1365.194824,1577.952515 1364.217896,1584.826538 
	C1371.031372,1590.184204 1371.652954,1599.040527 1376.104614,1605.644897 
	C1377.793701,1608.150879 1379.715698,1609.955566 1379.737671,1613.290527 
	C1379.749268,1615.048950 1380.747437,1617.390869 1382.098877,1618.456421 
	C1392.151733,1626.382812 1399.970947,1637.032471 1412.165649,1642.433716 
	C1415.730835,1644.013062 1418.338379,1647.754272 1422.099731,1651.149902 
	C1423.830933,1647.626343 1424.937500,1645.374390 1426.017212,1643.176758 
	C1426.740479,1643.235107 1427.646362,1643.117188 1427.743896,1643.344849 
	C1429.074341,1646.456299 1431.429688,1647.344238 1434.716675,1647.906982 
	C1442.228271,1649.192749 1445.077393,1653.960938 1443.848145,1661.520142 
	C1443.176880,1665.648560 1442.752808,1669.817383 1442.056396,1675.214722 
	C1442.465332,1674.881104 1441.619385,1675.379517 1441.032227,1676.091431 
	C1439.913208,1677.447876 1437.927246,1679.139404 1438.170898,1680.298950 
	C1438.462646,1681.686401 1440.539795,1683.104248 1442.147095,1683.728882 
	C1446.087646,1685.260742 1450.647583,1685.618408 1454.150024,1687.766479 
	C1460.549927,1691.691284 1466.855347,1692.430176 1473.853394,1690.194092 
	C1478.272705,1688.781982 1482.634644,1688.632935 1487.447266,1689.442383 
	C1492.161255,1690.235352 1496.903809,1688.617065 1500.420410,1683.926880 
	C1503.301636,1680.083862 1507.332764,1676.602539 1511.598877,1674.408569 
	C1519.154175,1670.523071 1526.151611,1666.455688 1529.251953,1657.974487 
	C1536.238037,1662.546631 1540.230103,1667.980591 1547.490356,1682.639526 
	C1544.887451,1685.442261 1542.151855,1688.387695 1538.292603,1692.543091 
	C1542.232178,1693.143433 1544.351196,1693.545532 1546.488892,1693.772827 
	C1549.427368,1694.085083 1552.146606,1695.092896 1551.455688,1698.503540 
	C1550.754272,1701.966919 1548.122925,1702.096436 1545.267578,1700.486328 
	C1544.811035,1700.228638 1544.028198,1700.549561 1543.325073,1700.609009 
	C1541.391357,1704.030151 1542.858154,1707.093384 1545.967407,1707.747681 
	C1555.671265,1709.790161 1558.956421,1715.883423 1558.490601,1725.023682 
	C1558.460815,1725.608398 1558.874390,1726.304199 1559.270020,1726.797119 
	C1559.665405,1727.289551 1560.297729,1727.591675 1561.414185,1728.406128 
	C1565.072388,1724.979858 1571.675415,1725.694214 1573.982178,1719.515991 
	C1574.174316,1719.001587 1576.182129,1719.030396 1577.343506,1719.043701 
	C1579.172485,1719.064941 1580.999146,1719.287476 1584.407593,1719.543701 
	C1585.395020,1723.242798 1586.637207,1727.896118 1587.500244,1733.226807 
	C1586.535034,1734.115845 1585.948975,1734.327515 1585.362915,1734.539062 
	C1585.515991,1734.808716 1585.668945,1735.078247 1585.822021,1735.347656 
	C1586.537231,1734.877930 1587.252441,1734.408203 1587.967651,1733.938477 
	C1590.455322,1733.205566 1589.149170,1728.525635 1594.193481,1729.308472 
	C1597.513428,1729.823975 1601.553345,1725.702637 1605.909424,1723.306519 
	C1613.790161,1728.204590 1623.027710,1731.972534 1628.809326,1740.458984 
	C1631.407837,1744.273071 1634.156006,1744.910522 1637.894897,1742.029175 
	C1640.713501,1739.856689 1643.799072,1738.030640 1647.015991,1735.883423 
	C1650.423218,1738.460449 1653.482544,1740.945312 1656.728394,1743.156494 
	C1658.319336,1744.240356 1661.032593,1746.001343 1661.909912,1745.427002 
	C1667.254883,1741.928101 1668.248413,1747.943604 1670.737671,1749.274292 
	C1675.511353,1744.907227 1679.977905,1740.821167 1685.529419,1735.742432 
	C1685.529419,1738.787964 1685.529419,1740.524536 1685.255737,1743.109131 
	C1685.374512,1744.031250 1685.766968,1744.105469 1686.159424,1744.179688 
	C1689.695557,1741.403198 1693.474487,1741.421997 1698.382080,1744.834717 
	C1696.754028,1737.910767 1695.533936,1732.722168 1694.368286,1726.867432 
	C1702.546875,1722.735840 1707.354980,1725.935181 1714.093018,1731.706909 
	C1724.596313,1740.703979 1727.789307,1749.389893 1723.317505,1762.023560 
	C1721.708252,1766.569946 1723.924194,1768.516235 1729.470703,1769.784058 
	C1735.847656,1771.241699 1742.167969,1772.947388 1749.255005,1774.732300 
	C1749.846191,1774.041382 1750.817017,1771.952271 1752.418945,1771.191040 
	C1761.883057,1766.694458 1761.869019,1757.676880 1762.891357,1749.341431 
	C1763.173340,1747.041626 1761.967529,1744.077393 1760.494873,1742.139771 
	C1756.892700,1737.401001 1757.681152,1733.063843 1760.126221,1728.393188 
	C1768.687866,1728.079102 1766.093018,1737.307129 1771.232666,1740.147217 
	C1773.275513,1739.160767 1775.484009,1737.435425 1777.881958,1737.111084 
	C1780.578369,1736.746460 1784.111450,1736.787842 1786.023926,1738.271973 
	C1787.501709,1739.418945 1787.601807,1743.129639 1787.310181,1745.581055 
	C1786.881104,1749.188965 1785.557983,1752.690674 1784.267334,1757.549194 
	C1782.126343,1759.047974 1775.000732,1757.192017 1776.696167,1765.310181 
	C1783.851562,1765.842041 1789.871826,1768.901978 1790.860596,1777.501465 
	C1803.061646,1774.980103 1808.301025,1778.748535 1807.506592,1789.909790 
	C1801.209839,1790.287476 1794.157959,1784.707153 1788.822021,1790.372070 
	C1791.352905,1796.769531 1793.649414,1802.574707 1796.468140,1809.699585 
	C1798.428711,1810.738281 1800.585815,1808.287354 1802.457275,1806.036011 
	C1805.500488,1802.375366 1808.898926,1801.988037 1813.091675,1803.708008 
	C1818.299805,1805.844727 1823.675415,1807.573364 1828.884033,1809.708862 
	C1835.901733,1812.586426 1842.717285,1814.154907 1849.788208,1809.611816 
	C1851.569458,1808.467285 1854.206543,1808.438232 1856.471313,1808.328857 
	C1858.426270,1808.234497 1860.437134,1809.096191 1862.377930,1808.946411 
	C1874.080200,1808.043823 1880.505371,1814.113647 1885.247925,1824.216431 
	C1887.354004,1828.702881 1891.857910,1832.993530 1896.342163,1835.234863 
	C1904.928467,1839.526611 1908.811279,1845.690674 1907.855835,1855.210083 
	C1911.756226,1857.628418 1915.281128,1860.119507 1919.073242,1862.098633 
	C1926.102051,1865.767334 1928.966675,1863.759766 1928.754517,1855.684082 
	C1928.739990,1855.132935 1929.289795,1854.567017 1929.831055,1853.514038 
	C1940.383423,1853.915283 1945.904541,1865.831543 1957.974243,1865.919922 
	C1958.891357,1862.307373 1959.887207,1858.384644 1961.185425,1853.271118 
	C1965.628418,1855.100342 1969.875122,1856.848755 1975.127930,1859.011475 
	C1972.175659,1862.431519 1970.314697,1864.587402 1968.385132,1866.822754 
	C1970.750244,1875.968384 1981.944824,1875.260620 1985.719482,1883.360596 
	C1979.148682,1895.391724 1989.472900,1901.483643 1997.123169,1909.953003 
	C1993.554199,1912.616577 1990.354126,1915.004883 1987.196899,1917.361206 
	C1987.511597,1919.159180 1987.841553,1921.045166 1987.983398,1921.855225 
	C1983.288940,1925.039062 1979.392700,1927.681519 1974.163574,1931.227905 
	C1974.720703,1927.698120 1975.747314,1925.443604 1975.165771,1923.737061 
	C1974.527954,1921.865967 1972.407104,1920.500122 1970.447754,1918.392700 
	C1970.861450,1917.000732 1971.555420,1914.911987 1972.066162,1912.779419 
	C1972.199951,1912.220459 1971.764038,1911.525146 1971.200195,1909.477783 
	C1968.960327,1910.184692 1965.266235,1910.385132 1964.854004,1911.652832 
	C1963.304443,1916.417236 1959.968506,1916.006348 1956.224121,1916.383545 
	C1952.458618,1916.763184 1948.807007,1918.274292 1944.872925,1919.353394 
	C1939.865601,1918.007324 1934.310547,1916.514160 1927.823730,1914.770386 
	C1929.043091,1912.126343 1930.444824,1909.087036 1931.893066,1905.946899 
	C1929.361084,1902.145020 1920.995605,1902.788574 1924.351685,1894.914062 
	C1913.631348,1898.185425 1907.079468,1892.538086 1900.503784,1885.984985 
	C1898.673462,1887.086548 1896.763550,1888.236084 1895.408691,1889.051514 
	C1891.077637,1887.879028 1887.191406,1886.827026 1883.305298,1885.775024 
	C1882.635986,1886.728516 1881.966675,1887.682007 1881.297363,1888.635498 
	C1882.965576,1889.016968 1884.633789,1889.398315 1886.832397,1889.901001 
	C1884.376099,1892.648560 1882.928345,1894.267944 1881.116577,1896.294556 
	C1878.134888,1892.669678 1875.471069,1889.431030 1872.574585,1885.909790 
	C1865.606934,1890.769165 1857.778809,1888.221802 1850.446655,1889.385620 
	C1847.999268,1883.244629 1842.689209,1886.722656 1838.668701,1885.821289 
	C1837.231689,1885.499146 1835.540405,1884.967041 1834.617432,1883.942993 
	C1831.624756,1880.622070 1827.705200,1879.864746 1824.114502,1881.294067 
	C1819.440430,1883.154419 1818.167725,1880.543335 1817.341797,1877.410645 
	C1814.881836,1880.487793 1812.633545,1883.300171 1809.705322,1886.963013 
	C1807.771362,1884.006348 1806.281738,1881.729248 1804.790039,1879.449707 
	C1801.682373,1881.885864 1796.964600,1881.548340 1795.082031,1886.582153 
	C1794.249268,1888.808472 1789.440796,1891.044312 1786.728760,1890.733398 
	C1782.249268,1890.219849 1776.568481,1888.829590 1773.974609,1885.682007 
	C1769.159058,1879.838623 1762.503174,1879.832520 1756.600098,1878.099609 
	C1751.944824,1876.733032 1749.419800,1875.407593 1749.836914,1870.355957 
	C1750.277710,1865.016602 1746.966553,1863.829224 1742.427368,1863.381348 
	C1737.557617,1862.900757 1732.721924,1861.871094 1727.934937,1860.797607 
	C1717.294678,1858.411499 1706.702637,1855.811279 1696.072510,1853.379150 
	C1692.666016,1852.599731 1689.201294,1852.073975 1685.612915,1851.403931 
	C1684.038818,1852.749634 1682.108887,1854.399414 1678.506470,1857.479004 
	C1678.506470,1851.770752 1678.506470,1848.558472 1678.506470,1844.731567 
	C1668.257446,1850.774170 1658.705688,1854.434692 1647.829956,1850.375000 
	C1642.989624,1855.535767 1639.110962,1863.218140 1633.376953,1865.030518 
	C1622.176392,1868.570679 1616.359741,1877.103271 1609.124146,1884.599731 
	C1608.445801,1885.302734 1608.191650,1886.855225 1607.493042,1887.031250 
	C1600.268921,1888.850952 1593.066162,1891.163574 1585.710815,1891.926880 
	C1579.579468,1892.563232 1577.853516,1889.362183 1579.424683,1883.067017 
	C1579.904297,1881.145752 1580.339111,1879.213379 1581.012085,1876.364258 
	C1577.261475,1875.056641 1573.609497,1873.763916 1569.943848,1872.511230 
	C1566.515869,1871.339478 1562.866333,1870.614990 1559.677124,1868.984009 
	C1550.782227,1864.435303 1541.419922,1860.990479 1532.752808,1855.782837 
	C1519.410278,1847.765869 1504.973022,1842.658569 1488.176270,1848.618408 
	C1489.052368,1844.239502 1489.725464,1840.874878 1490.500244,1837.002441 
	C1479.532227,1836.915405 1472.009155,1841.212524 1464.453979,1846.472412 
	C1460.071045,1849.523926 1454.206421,1850.446777 1449.399658,1852.186035 
	C1446.192871,1849.847656 1443.477783,1847.867798 1440.172485,1845.457642 
	C1442.375610,1841.812134 1442.343018,1838.953735 1436.858276,1836.919678 
	C1434.267822,1835.958862 1432.990234,1831.458374 1430.678467,1827.882324 
	C1432.808838,1823.811768 1435.188477,1819.264893 1437.704224,1814.458008 
	C1436.689453,1814.237915 1434.763916,1813.820435 1433.131226,1813.466431 
	C1434.420776,1809.399780 1435.592407,1805.704712 1436.783325,1801.949219 
	C1430.277954,1798.890381 1423.373047,1798.410645 1423.450073,1791.912598 
	C1414.150635,1791.912598 1405.840942,1791.912598 1397.645386,1791.912598 
	C1393.635986,1797.271606 1393.458862,1796.593628 1383.786255,1799.121094 
	C1376.561401,1801.008911 1374.392578,1793.883911 1368.016602,1792.498291 
	C1368.684326,1796.058472 1369.241577,1799.029175 1370.037231,1803.271118 
	C1367.670776,1802.888550 1365.551758,1802.981201 1363.836304,1802.194214 
	C1356.008301,1798.603394 1352.948975,1799.037842 1347.945557,1805.885254 
	C1345.460938,1809.285278 1343.376709,1810.095459 1338.878174,1809.249756 
	C1333.994873,1808.331787 1328.530518,1809.885742 1323.459717,1810.999512 
	C1322.126221,1811.292725 1320.899658,1813.811646 1320.342285,1815.539917 
	C1319.155151,1819.221802 1316.663330,1820.829712 1313.642090,1818.728638 
	C1308.678955,1815.277222 1304.943115,1817.267212 1299.970215,1818.995483 
	C1294.220215,1820.993774 1287.504028,1820.211182 1280.497437,1820.683838 
	C1280.827148,1822.867920 1281.135620,1824.911255 1281.474243,1827.154785 
	C1276.468506,1830.296021 1273.933105,1824.520386 1268.928345,1823.726562 
	C1264.308838,1825.618286 1258.816162,1827.867676 1252.864136,1830.305176 
	C1245.799072,1824.262939 1237.913818,1820.620361 1226.850220,1825.319824 
	C1230.214844,1828.902222 1232.478394,1831.312134 1236.224609,1835.300781 
	C1224.589478,1834.107422 1224.963135,1844.879028 1218.767456,1848.605957 
	C1218.185791,1848.955811 1217.896851,1850.538574 1218.123901,1851.370850 
	C1220.198853,1858.974854 1213.732788,1862.230225 1210.334961,1867.539551 
	C1211.944946,1881.676636 1227.002930,1881.498779 1235.770508,1890.562012 
	C1234.986572,1893.251221 1234.410645,1897.146606 1232.765137,1900.520386 
	C1227.324341,1911.674438 1226.346924,1923.038696 1231.777466,1934.183716 
	C1239.352051,1949.728760 1237.553833,1965.015625 1231.957153,1980.414185 
	C1231.186401,1982.534790 1229.774780,1984.572266 1228.215820,1986.231201 
	C1221.160400,1993.739868 1213.509644,2000.470703 1204.221558,2005.277344 
	C1201.488403,2006.691772 1198.824707,2009.282837 1197.420532,2012.001587 
	C1194.656982,2017.351685 1190.594604,2019.811401 1184.841064,2020.324463 
	C1181.217896,2020.647339 1177.593018,2021.155762 1174.027466,2021.872314 
	C1167.780029,2023.127686 1164.094604,2027.282715 1163.760254,2033.501343 
	C1163.546021,2037.488403 1163.523315,2041.510742 1163.812256,2045.488525 
	C1163.944946,2047.315186 1164.498169,2049.845947 1165.777710,2050.729980 
	C1171.999878,2055.029297 1170.546631,2060.461182 1168.193604,2065.741943 
	C1164.001343,2075.150146 1159.602295,2084.484375 1154.816162,2093.601074 
	C1152.826660,2097.390869 1151.573364,2100.722900 1153.441650,2104.843994 
	C1157.009888,2112.715332 1153.280640,2120.444092 1150.477783,2126.926270 
	C1148.128418,2132.359375 1141.641846,2136.737305 1134.542358,2137.651611 
	C1131.576782,2138.033447 1128.462280,2138.681152 1125.599609,2138.171631 
	C1117.032715,2136.647949 1110.053467,2139.691895 1102.990234,2144.882324 
	C1095.770752,2140.680664 1094.261719,2138.060547 1097.430420,2132.361084 
	C1101.897461,2124.326660 1100.015381,2115.489990 1101.717651,2107.136230 
	C1102.730713,2102.165283 1098.950684,2098.194336 1093.361938,2098.244385 
	C1082.432007,2098.342041 1071.460327,2098.993164 1060.617432,2100.323242 
	C1057.498291,2100.706055 1054.141846,2103.706787 1052.011108,2106.393066 
	C1049.573364,2109.466064 1047.064819,2110.477539 1043.474121,2109.952881 
	C1036.279785,2108.901367 1029.096191,2107.736572 1021.872131,2106.946533 
	C1018.019775,2106.525391 1013.833557,2105.885010 1010.247620,2106.912598 
	C999.481689,2109.997559 988.843506,2110.697998 977.796631,2108.643555 
	C974.080200,2107.952393 969.902588,2108.927002 966.080750,2109.785156 
	C957.979309,2111.605225 949.998657,2113.957520 941.915283,2115.865967 
	C938.679260,2116.630127 935.144775,2117.174072 933.047424,2113.453857 
	C925.182251,2099.503174 910.507507,2094.274902 898.080383,2086.201172 
	C894.469421,2083.855469 890.353210,2082.302490 886.578430,2080.189697 
	C880.569946,2076.826660 878.814514,2073.842285 880.293762,2067.129639 
	C883.814331,2051.152832 881.652100,2035.473511 879.016663,2019.685669 
	C878.098694,2014.186646 878.226135,2008.447388 878.448059,2002.840332 
	C878.736084,1995.566284 879.681824,1988.321045 880.186707,1981.052490 
	C880.811523,1972.057007 876.684631,1965.383545 868.823059,1961.682983 
	C860.450989,1957.742188 854.195618,1951.505371 847.641602,1945.330322 
	C833.165771,1931.691650 818.580017,1918.150269 803.588501,1905.086304 
	C795.361572,1897.916992 784.783997,1894.883667 774.254944,1893.411255 
	C766.379822,1892.309937 762.848755,1888.246216 762.889099,1881.309570 
	C762.944763,1871.747192 764.101868,1862.189331 764.864136,1852.635498 
	C764.968079,1851.331665 765.386963,1850.011353 765.877747,1848.786011 
	C771.000305,1835.995850 766.019714,1826.170288 756.688416,1817.711670 
	C752.997803,1814.366333 749.026550,1811.332153 745.213684,1808.119995 
	C739.405518,1803.226318 736.923401,1797.161743 738.291077,1789.502563 
	C742.278687,1767.171509 739.765259,1745.152222 734.594910,1723.338257 
	C733.164246,1717.302490 733.770874,1712.432007 738.749084,1708.086304 
	C743.442139,1703.989746 747.532166,1699.202637 751.789062,1694.820557 
	C750.945740,1693.188843 750.708801,1691.822754 750.026184,1691.542603 
	C734.265625,1685.074951 718.491211,1679.555542 700.925354,1684.644165 
	C690.209656,1687.748535 689.223694,1686.622192 686.096252,1676.295776 
	C683.387878,1667.353027 679.887207,1658.792358 672.415527,1651.801636 
	C666.718262,1654.604736 661.184204,1657.327637 654.929932,1660.034180 
z"/>
</svg>