<svg version="1.1" id="Layer_1" xmlns="http://www.w3.org/2000/svg" xmlns:xlink="http://www.w3.org/1999/xlink" x="0px" y="0px"
	 width="100%" viewBox="0 0 2180 2858" enable-background="new 0 0 2180 2858" xml:space="preserve">
<path data-name="Moloundou" fill="#F07360" opacity="1.000000" stroke="none" 
	d="
M2182.000000,2060.000000 
	C2182.000000,2066.061279 2182.000000,2072.122314 2181.401367,2078.578125 
	C2180.060059,2079.638184 2179.057373,2080.164307 2178.615234,2080.990234 
	C2172.911621,2091.646484 2164.357422,2097.700195 2152.126953,2099.293945 
	C2144.597900,2100.275391 2138.535400,2104.131592 2136.375732,2112.491455 
	C2135.059326,2117.587646 2130.380615,2118.223633 2125.928711,2118.214844 
	C2121.308105,2118.205811 2120.097900,2114.259766 2118.754883,2110.978271 
	C2118.041504,2109.236084 2118.447754,2107.041748 2118.317871,2105.053467 
	C2117.842285,2097.761963 2116.033691,2094.904297 2109.408203,2094.011230 
	C2097.593018,2092.418457 2085.703369,2091.271484 2073.811768,2090.380127 
	C2061.592285,2089.464844 2059.021484,2091.518066 2056.396729,2106.543457 
	C2055.944824,2109.131348 2056.497559,2111.878174 2056.284180,2114.527100 
	C2055.619629,2122.778076 2055.952881,2131.330566 2053.796387,2139.189209 
	C2050.328613,2151.826416 2052.439209,2163.375732 2056.674072,2175.198975 
	C2061.549316,2188.810059 2063.606445,2202.934082 2061.520264,2217.356445 
	C2060.168213,2226.702637 2055.470947,2233.107178 2045.281006,2234.832520 
	C2039.412842,2235.825928 2033.892822,2238.367920 2031.564575,2244.839355 
	C2034.315186,2249.955811 2038.026611,2253.240723 2043.675049,2254.564697 
	C2046.845337,2255.307617 2050.044678,2256.704102 2052.741943,2258.529053 
	C2058.806885,2262.632568 2059.337402,2266.017334 2055.946045,2272.893555 
	C2054.626465,2275.569580 2053.231934,2278.275146 2052.421631,2281.123535 
	C2050.112549,2289.242676 2045.451416,2295.210449 2037.989380,2299.330322 
	C2034.560547,2301.223633 2031.593872,2304.080811 2028.711304,2306.811279 
	C2022.563721,2312.633545 2020.268188,2319.071289 2024.682861,2327.352539 
	C2027.629761,2332.880859 2027.485962,2338.645020 2022.775635,2343.937012 
	C2018.423950,2348.825684 2018.889526,2349.693848 2023.807861,2354.414551 
	C2029.669312,2360.040527 2034.303711,2366.869385 2041.498047,2371.232422 
	C2043.776978,2372.614258 2045.417603,2375.753662 2046.409668,2378.436523 
	C2052.534424,2394.998047 2057.393555,2411.874268 2058.335938,2429.673340 
	C2059.038330,2442.942871 2065.701172,2447.689697 2078.897705,2444.783691 
	C2081.612549,2444.185547 2084.455811,2444.170654 2088.449707,2443.763672 
	C2087.984619,2448.971680 2088.871826,2453.585938 2087.058594,2456.546875 
	C2082.103271,2464.638916 2084.172607,2471.489746 2088.281982,2478.884033 
	C2093.292480,2487.899658 2095.752441,2497.775146 2097.966309,2507.886230 
	C2100.613525,2519.973877 2107.922852,2530.206543 2113.817627,2541.010498 
	C2117.852539,2548.405518 2121.007568,2556.914062 2121.899658,2565.210693 
	C2122.775391,2573.359131 2121.484863,2581.657227 2125.575439,2589.377930 
	C2127.093506,2592.243408 2127.942627,2595.469971 2129.029297,2598.555664 
	C2131.003906,2604.162598 2131.169434,2609.135742 2126.700195,2614.197998 
	C2118.967529,2622.957031 2119.042969,2625.003418 2124.599121,2635.167969 
	C2126.027344,2637.781006 2128.030762,2640.073486 2129.569336,2642.633789 
	C2135.254639,2652.094727 2135.974121,2662.132812 2131.982910,2672.268799 
	C2128.459229,2681.216797 2119.579102,2682.690918 2113.175293,2675.713623 
	C2111.382080,2673.759521 2109.864990,2671.552979 2108.212646,2669.468994 
	C2101.496338,2661.000000 2095.190186,2660.444824 2086.041504,2666.626709 
	C2082.612549,2668.943604 2078.023438,2671.543701 2074.331543,2671.081055 
	C2064.792725,2669.884277 2059.207275,2674.949219 2055.527832,2681.909424 
	C2048.505859,2695.193115 2040.552246,2707.618896 2029.007568,2718.167969 
	C2027.675293,2718.223877 2026.902588,2718.074463 2025.896973,2717.200195 
	C2021.736450,2715.089844 2017.900757,2713.078613 2013.856934,2712.485107 
	C2009.299194,2711.816162 2004.542236,2712.639404 1999.896118,2712.379639 
	C1997.783936,2712.261719 1994.884888,2711.743896 1993.788330,2710.305420 
	C1987.244385,2701.720215 1981.721680,2692.689697 1985.512085,2681.053223 
	C1987.157715,2676.001709 1988.655762,2670.883545 1989.860718,2665.711670 
	C1991.675659,2657.923340 1990.315918,2654.490234 1984.687622,2651.229736 
	C1977.634399,2647.143799 1976.982910,2646.401611 1980.401733,2639.074219 
	C1985.299438,2628.577393 1990.665527,2618.270020 1996.375366,2608.189697 
	C2000.848022,2600.293457 1996.963257,2591.229980 1987.960205,2590.424072 
	C1985.045166,2590.162842 1982.047485,2590.994385 1979.078979,2591.124268 
	C1972.460938,2591.414062 1965.823730,2591.947754 1959.218872,2591.708740 
	C1948.283081,2591.312500 1937.353149,2589.711426 1926.446411,2589.924561 
	C1919.472778,2590.060791 1913.670654,2588.741699 1907.665283,2585.274902 
	C1896.435791,2578.792725 1885.017578,2572.979004 1871.107056,2574.041748 
	C1862.844360,2574.672852 1859.909424,2570.690674 1859.716309,2562.407959 
	C1859.665161,2560.208496 1859.708740,2558.006836 1859.708740,2555.647217 
	C1845.461060,2550.980225 1835.972778,2559.116455 1825.412964,2568.040771 
	C1824.646362,2562.717285 1824.660889,2558.446045 1823.357422,2554.623779 
	C1820.060669,2544.957275 1816.080566,2535.526123 1812.543579,2525.938232 
	C1808.571411,2515.170654 1807.529419,2514.225098 1796.520508,2513.735840 
	C1793.539673,2513.603760 1790.488159,2513.599609 1787.558960,2514.081787 
	C1781.991455,2514.998047 1778.638672,2513.275146 1775.348267,2508.250000 
	C1769.544800,2499.387207 1762.517822,2492.868652 1750.369629,2490.976562 
	C1735.119385,2488.601562 1725.104858,2477.472900 1720.192017,2462.529053 
	C1717.549194,2454.490234 1713.980225,2447.362305 1706.361938,2442.564941 
	C1702.542847,2440.160156 1698.923462,2436.653564 1696.612305,2432.805176 
	C1692.082886,2425.262695 1685.420654,2420.723145 1678.031616,2416.690186 
	C1673.296509,2414.105225 1668.747070,2413.733398 1663.721802,2415.888184 
	C1658.570679,2418.096924 1653.203369,2419.802002 1647.353760,2421.937988 
	C1645.672485,2419.726562 1643.707886,2417.861572 1642.630615,2415.577881 
	C1640.289307,2410.614990 1636.368042,2408.328125 1631.301147,2406.775391 
	C1624.368042,2404.650879 1617.331909,2402.412598 1610.948486,2399.063232 
	C1603.631348,2395.224121 1597.105957,2394.500000 1590.665649,2400.096924 
	C1584.888916,2405.117432 1579.101196,2404.273438 1572.110229,2402.241943 
	C1560.083984,2398.747070 1547.663696,2396.391602 1535.270630,2394.432373 
	C1520.322388,2392.069580 1505.898315,2388.666504 1494.148926,2378.520996 
	C1490.593628,2375.451172 1487.041870,2375.225342 1483.074829,2376.211182 
	C1479.859375,2377.010742 1476.833374,2378.710693 1473.595947,2379.256836 
	C1464.572388,2380.779297 1455.583130,2381.657471 1450.132568,2371.717773 
	C1449.504395,2370.572266 1448.364990,2369.719482 1447.613647,2368.627197 
	C1443.632690,2362.840820 1438.567139,2359.973877 1431.892822,2362.275391 
	C1429.993164,2364.956787 1428.684082,2367.722168 1426.573730,2369.574707 
	C1423.150391,2372.579590 1419.131226,2372.829834 1415.995972,2369.033691 
	C1405.231567,2356.000488 1389.132446,2351.163574 1375.472290,2342.603271 
	C1374.071289,2341.725342 1370.915894,2342.391602 1369.267700,2343.435547 
	C1366.217896,2345.367432 1363.346802,2347.825684 1361.008545,2350.580078 
	C1357.417358,2354.810303 1352.805664,2356.392334 1347.710449,2356.121826 
	C1340.791626,2355.754395 1334.951294,2358.860352 1328.604858,2360.514404 
	C1311.613037,2364.941895 1297.381958,2372.909180 1286.429443,2386.779785 
	C1285.053101,2388.522949 1281.372559,2390.304199 1279.739746,2389.644043 
	C1274.561401,2387.550049 1270.791016,2390.158691 1266.586304,2391.936035 
	C1250.880615,2398.575195 1236.286743,2407.142822 1222.480469,2417.105469 
	C1220.592651,2418.467773 1218.657715,2419.796631 1216.618896,2420.911377 
	C1211.596191,2423.657715 1209.069092,2423.100830 1205.760254,2418.325928 
	C1203.113159,2414.506104 1200.851807,2410.419434 1198.214844,2406.592285 
	C1195.280029,2402.332520 1194.681396,2398.218018 1197.614258,2393.642090 
	C1198.608521,2392.090820 1198.699097,2389.960693 1199.202637,2388.094971 
	C1195.313110,2390.031494 1192.930054,2392.667969 1190.223755,2394.915283 
	C1184.430054,2399.726074 1174.010010,2399.749756 1167.900146,2395.180908 
	C1162.319580,2391.008057 1162.414307,2387.489990 1165.134399,2377.712402 
	C1167.343750,2369.770752 1168.448120,2361.229492 1162.359985,2353.952393 
	C1156.813354,2347.322998 1151.574463,2340.368164 1145.450928,2334.314697 
	C1141.821899,2330.727295 1137.031006,2327.244873 1132.229248,2326.224121 
	C1127.699951,2325.261475 1124.304199,2323.911865 1121.154907,2320.687500 
	C1114.389160,2313.760498 1107.216919,2307.531006 1096.355469,2311.783691 
	C1096.167358,2311.857422 1095.807251,2311.492188 1095.001221,2311.029785 
	C1093.200806,2306.689453 1095.705566,2304.207275 1099.392090,2301.848389 
	C1105.474121,2297.956299 1105.095459,2291.740967 1098.586060,2288.341553 
	C1092.278320,2285.047363 1085.522461,2284.091797 1078.356689,2284.145020 
	C1073.594238,2284.180420 1068.016479,2283.674316 1064.205933,2281.227051 
	C1054.568970,2275.037842 1046.199951,2276.569580 1037.625854,2282.740234 
	C1035.206909,2284.480957 1032.254395,2285.527832 1029.990845,2287.423340 
	C1027.791382,2289.265381 1025.125122,2291.528809 1024.491577,2294.063965 
	C1023.047668,2299.840820 1019.258911,2302.152344 1013.500488,2303.746094 
	C1004.575439,2296.083008 1002.552917,2284.950439 999.327820,2273.069824 
	C994.192139,2274.259277 989.246338,2275.404541 984.769409,2276.441162 
	C983.450806,2285.027344 982.553223,2292.583252 981.088806,2300.027344 
	C978.585083,2312.754639 971.931702,2315.445312 960.756531,2308.564697 
	C955.632751,2305.410156 951.803467,2305.366943 948.295776,2309.620605 
	C946.092407,2312.292480 944.661499,2315.911621 943.836731,2319.334961 
	C942.679016,2324.140869 942.816711,2329.265381 941.590393,2334.045654 
	C940.934692,2336.601562 938.824890,2340.457764 936.948181,2340.722168 
	C930.528931,2341.625732 923.514709,2342.625244 917.494324,2340.904541 
	C910.572754,2338.926514 904.145447,2337.555664 897.518372,2339.859619 
	C891.472778,2333.998291 896.102112,2328.465088 897.326233,2323.340576 
	C889.542053,2315.399414 888.110962,2315.448730 882.109680,2323.976074 
	C878.300842,2329.387939 875.052185,2335.229492 870.921448,2340.371338 
	C864.601379,2348.239014 861.527039,2348.029053 855.888184,2339.873291 
	C853.647217,2336.631836 850.311951,2332.968994 850.369934,2329.546875 
	C850.519226,2320.724365 844.429810,2317.272461 838.582520,2313.844971 
	C833.775635,2311.027344 828.317993,2308.734375 822.869019,2307.735596 
	C814.726318,2306.243164 810.428955,2302.019287 807.388977,2294.410400 
	C804.931824,2288.260742 801.111633,2282.043945 793.948425,2279.834961 
	C784.350525,2288.922852 784.026123,2289.705811 784.193909,2302.787109 
	C784.286499,2310.009766 782.311890,2312.300049 775.547668,2313.744141 
	C771.696838,2314.566406 768.029114,2316.240967 764.180298,2317.078369 
	C759.057373,2318.193359 753.846985,2318.924072 748.657837,2319.712158 
	C744.087646,2320.406006 739.488342,2320.906494 734.913879,2321.574707 
	C727.611206,2322.641602 720.171509,2323.761719 713.585388,2319.436768 
	C706.367859,2314.697021 699.338867,2309.625977 692.549744,2304.289551 
	C684.973389,2298.334473 685.812622,2290.640137 694.595032,2286.533936 
	C703.100342,2282.557617 708.224060,2276.287109 710.297729,2267.248535 
	C710.738159,2265.328613 711.400024,2263.349365 712.437866,2261.697754 
	C715.339417,2257.080566 714.476685,2252.935059 711.511414,2248.740723 
	C698.083801,2248.179443 685.131042,2246.285400 674.103516,2238.377686 
	C674.237366,2227.028809 670.569397,2216.408936 673.405640,2205.325439 
	C674.734131,2200.133789 670.840637,2194.330566 667.191284,2194.133545 
	C663.337219,2193.925293 659.189148,2194.589355 655.584473,2195.962158 
	C653.221313,2196.862061 651.595154,2199.696777 649.713867,2201.589600 
	C652.831909,2206.460449 655.645447,2210.204590 657.764282,2214.307373 
	C661.616577,2221.766602 661.234863,2222.890869 654.214539,2230.214111 
	C650.206299,2228.542236 646.008118,2226.628906 641.694275,2225.027100 
	C633.911804,2222.136719 630.205811,2223.457764 625.821106,2230.566162 
	C624.430420,2232.820557 623.580994,2235.437012 622.031494,2237.557129 
	C620.099304,2240.200684 618.155457,2243.454346 615.413330,2244.767334 
	C608.006042,2248.315186 600.173096,2250.974365 591.296997,2254.462158 
	C587.953125,2249.602539 584.709473,2244.738281 581.309692,2239.986084 
	C577.145752,2234.165039 572.337952,2233.950195 567.625916,2239.195801 
	C566.078613,2240.918213 564.615723,2242.784668 562.809570,2244.194824 
	C554.288696,2250.845703 550.485779,2250.239014 543.019958,2241.148193 
	C545.579651,2237.385986 548.191528,2233.579590 550.769653,2229.750244 
	C554.578918,2224.092285 553.251282,2213.312012 548.217957,2208.851807 
	C543.720825,2204.867188 538.283142,2205.268311 533.366272,2209.654541 
	C530.409058,2212.292969 527.346680,2214.909180 523.988281,2216.978516 
	C519.372131,2219.822510 516.108215,2218.521484 512.159180,2212.968262 
	C517.189453,2208.492920 517.189453,2208.492920 525.682129,2209.981934 
	C526.943298,2208.059082 529.438965,2205.931152 529.519714,2203.715332 
	C529.625549,2200.812988 528.676025,2196.194824 526.701721,2195.173828 
	C516.171570,2189.727783 506.035248,2183.900146 497.413116,2175.625977 
	C496.411346,2174.664551 494.458496,2174.694092 493.167572,2174.327148 
	C486.933319,2182.451172 486.782166,2183.891846 493.271576,2189.482422 
	C496.406342,2192.183105 499.105194,2194.633545 499.011902,2198.987305 
	C494.174225,2201.644775 489.874603,2199.901367 486.511841,2197.425537 
	C482.127716,2194.198242 477.583313,2193.459961 472.477570,2193.602783 
	C470.583099,2193.655518 468.667633,2192.957031 466.288757,2192.512939 
	C466.065918,2189.648926 466.154114,2186.998047 465.575745,2184.502197 
	C465.080750,2182.365967 464.147827,2180.159424 462.829559,2178.423828 
	C460.448029,2175.288574 457.696564,2172.422363 454.974335,2169.562988 
	C453.663940,2168.186279 452.095337,2166.067627 450.597870,2166.028809 
	C444.126404,2165.858643 437.406372,2163.983154 431.536774,2169.031982 
	C421.133728,2177.979980 402.597992,2173.343994 400.545288,2156.516846 
	C401.519226,2155.598633 402.614563,2154.379883 403.890900,2153.395508 
	C409.014343,2149.444336 409.216125,2148.223877 406.641724,2142.870361 
	C404.615906,2138.657715 401.488708,2137.625000 397.033691,2137.579346 
	C382.427551,2137.430664 378.570435,2134.122559 374.654022,2119.628906 
	C373.745270,2116.265625 373.821533,2112.383057 369.073395,2111.181641 
	C367.836731,2110.868652 366.443390,2107.991699 366.492188,2106.332764 
	C366.704620,2099.104736 362.934784,2094.453125 357.415039,2090.702637 
	C351.636841,2086.776611 350.066559,2081.395020 350.187134,2074.464111 
	C350.910858,2032.866089 351.379028,1991.261963 351.643280,1949.657959 
	C352.005157,1892.688721 352.103394,1835.717651 352.341339,1778.747559 
	C352.351074,1776.427612 352.633728,1774.108887 353.671143,1771.801270 
	C366.504700,1771.288574 378.451721,1770.493164 390.408875,1770.287720 
	C436.349243,1769.498901 482.292938,1768.902588 528.235291,1768.227173 
	C572.845032,1767.571411 617.454651,1766.902954 662.064392,1766.247192 
	C708.006775,1765.571777 753.949341,1764.907349 799.891724,1764.233398 
	C844.834473,1763.573975 889.777161,1762.906738 934.719849,1762.246460 
	C980.329041,1761.576660 1025.938232,1760.911011 1071.547363,1760.243286 
	C1117.156494,1759.575562 1162.765747,1758.906982 1208.374878,1758.240234 
	C1254.317383,1757.568726 1300.260010,1756.902832 1346.202515,1756.227661 
	C1390.812256,1755.572144 1435.421753,1754.899780 1480.031616,1754.250122 
	C1527.306763,1753.561646 1574.582153,1752.903687 1621.857300,1752.209473 
	C1665.134033,1751.573853 1708.410034,1750.881836 1751.687012,1750.260986 
	C1801.961182,1749.539551 1852.236328,1748.874390 1902.510864,1748.174438 
	C1954.117676,1747.456177 2005.724121,1746.725220 2057.736328,1746.705322 
	C2061.709473,1759.072266 2058.593994,1769.504028 2052.466797,1779.490967 
	C2050.637939,1782.472046 2047.740845,1786.089966 2048.202148,1788.953979 
	C2049.950439,1799.806152 2053.057861,1810.109741 2063.067871,1817.091064 
	C2068.108643,1820.606934 2072.768799,1825.407715 2075.988525,1830.622925 
	C2080.822266,1838.453003 2084.529297,1847.033325 2088.174561,1855.526855 
	C2091.614258,1863.541382 2095.394531,1871.100098 2102.245117,1876.876099 
	C2108.988525,1882.561768 2113.369629,1889.935425 2116.542480,1898.151611 
	C2117.568848,1900.809570 2119.259033,1903.507690 2121.358643,1905.393921 
	C2125.916260,1909.488770 2128.136963,1914.394653 2127.630615,1920.343994 
	C2126.667236,1931.662354 2128.907959,1942.099854 2135.037109,1951.739868 
	C2136.441162,1953.948486 2137.051270,1956.648438 2138.156738,1959.062744 
	C2143.680420,1971.125854 2148.646729,1983.501465 2155.051025,1995.080078 
	C2158.280273,2000.918335 2159.337158,2006.439819 2157.345703,2012.093994 
	C2154.969238,2018.841797 2151.215820,2025.104492 2147.316895,2033.098633 
	C2153.421387,2038.844116 2160.044189,2045.735962 2167.391846,2051.741211 
	C2171.659912,2055.229492 2177.091797,2057.294434 2182.000000,2060.000000 
z"/>

<path data-name="Gari-Gombo" fill="#406C85" opacity="1.000000" stroke="none" 
	d="
M903.200012,1.999998 
	C905.251099,4.804940 905.939148,8.084073 907.840393,10.341478 
	C926.896118,32.967533 946.141174,55.434242 965.352356,77.929184 
	C1005.720581,125.197556 1046.120728,172.438675 1086.469849,219.723389 
	C1123.362305,262.957123 1160.192749,306.243683 1197.073120,349.487793 
	C1222.312012,379.081573 1247.669067,408.574799 1272.829468,438.235199 
	C1303.575195,474.479889 1334.159668,510.861481 1364.834717,547.166199 
	C1381.138916,566.462646 1397.487427,585.721619 1413.057617,605.722900 
	C1388.625488,603.004944 1364.944824,599.608154 1341.279541,596.107483 
	C1304.133545,590.612732 1266.987061,585.119324 1229.860718,579.493652 
	C1187.811890,573.122070 1145.796143,566.530273 1103.745117,560.173157 
	C1062.017944,553.864990 1020.249756,547.828674 978.526917,541.492981 
	C929.254272,534.010803 880.013733,526.317810 830.746338,518.800842 
	C828.521667,518.461426 826.112366,518.667786 823.885010,519.106750 
	C773.341736,529.067322 722.810181,539.087524 672.279968,549.114319 
	C623.703186,558.753479 575.129761,568.408936 526.556152,578.064270 
	C464.294312,590.440369 402.038422,602.846680 339.770874,615.194153 
	C307.167969,621.659180 274.545715,628.026428 241.891190,633.525024 
	C242.438126,625.648010 244.123901,617.547852 238.442474,612.789429 
	C232.151627,607.520569 231.686218,601.375122 230.669800,594.619873 
	C236.301422,591.943359 241.358856,589.539734 246.416290,587.136108 
	C239.206268,585.751343 232.551559,585.804504 225.898071,585.737915 
	C217.606934,585.654907 217.424500,585.667236 214.944077,577.417664 
	C213.735657,573.398621 213.826050,568.975037 212.513321,565.004028 
	C208.634003,553.268799 208.264648,541.759155 213.852371,530.511841 
	C216.255066,525.675537 218.310196,521.197205 216.550232,515.399719 
	C215.547379,512.096191 215.724747,507.835846 216.922607,504.576752 
	C220.303268,495.378815 215.232285,488.902100 209.773773,483.525574 
	C205.183029,479.003815 202.610138,474.373444 201.672073,468.265686 
	C201.228104,465.375061 200.232834,462.490753 199.030212,459.808563 
	C193.868225,448.295959 185.894455,439.006683 175.631012,431.788513 
	C170.275772,428.022278 167.390518,424.243866 169.370911,416.933289 
	C170.565582,412.523224 169.403183,407.006897 167.889633,402.456787 
	C166.234421,397.480743 165.496307,392.928253 167.108154,387.916412 
	C169.630157,380.074585 165.214645,373.467651 161.624725,367.627014 
	C158.491104,362.528748 152.815353,358.690491 147.630188,355.248413 
	C143.235016,352.330719 143.560043,348.830841 144.326645,344.848022 
	C145.468857,338.913788 146.790039,333.013947 148.152435,326.541779 
	C149.930557,326.459595 152.225449,326.367035 154.518799,326.245300 
	C170.447540,325.399506 186.388672,324.734985 202.301498,323.654205 
	C226.796173,321.990601 251.265808,319.961273 275.756866,318.240906 
	C290.339813,317.216553 304.953583,316.629272 319.535431,315.591644 
	C343.028992,313.919769 366.499481,311.921692 389.995392,310.286346 
	C405.574432,309.202026 421.192657,308.681366 436.772217,307.602814 
	C460.601013,305.953186 484.411499,304.039642 508.229828,302.238556 
	C525.105408,300.962463 541.968872,299.484467 558.860168,298.470947 
	C574.342346,297.541992 589.854614,297.114777 606.729675,296.408905 
	C607.934937,294.523254 610.677979,291.720886 611.648438,288.400452 
	C613.614929,281.671844 618.428711,277.167175 622.544617,272.042908 
	C624.592285,269.493622 626.960999,266.994690 628.201843,264.057800 
	C629.730286,260.440460 632.193604,258.502747 635.318420,256.306763 
	C644.153320,250.098053 653.528320,244.158371 654.843140,231.586700 
	C655.132507,228.819611 658.059143,225.929352 660.441406,223.871506 
	C664.226501,220.601868 665.583435,217.513840 663.364929,212.588486 
	C662.317688,210.263535 662.026428,206.050217 663.416504,204.443573 
	C669.380371,197.550659 675.230042,190.384552 684.581055,187.330261 
	C687.348389,186.426376 689.634216,183.409180 691.647888,180.955902 
	C697.813660,173.444000 696.907715,163.086945 702.920471,154.920578 
	C710.192139,145.044464 722.149170,137.432892 733.642517,140.966019 
	C746.566772,144.939041 758.990723,144.527817 771.828674,140.765961 
	C775.941833,139.560669 779.006897,138.542252 781.144775,134.581879 
	C784.893555,127.637558 790.763733,123.752655 798.985535,124.240578 
	C803.684387,124.519447 807.005737,122.232704 810.386841,119.145691 
	C816.743286,113.342232 823.622314,108.114311 830.205811,102.554474 
	C832.223389,100.850578 834.411743,99.109116 835.772400,96.919182 
	C838.300598,92.850006 841.563660,90.129745 845.729187,87.646255 
	C851.933167,83.947487 858.046448,79.569992 855.942810,70.313744 
	C854.960449,65.991165 857.835022,62.594181 861.400208,60.401794 
	C865.748657,57.727757 867.273804,54.079060 868.237488,49.077721 
	C869.719055,41.388668 872.684265,33.971996 875.210144,26.504087 
	C876.266907,23.379614 878.210388,20.525595 879.046997,17.362505 
	C880.580383,11.565062 883.479553,7.941229 889.942566,7.653859 
	C893.190613,7.509439 896.995117,7.090890 896.000000,2.000000 
	C898.133362,2.000000 900.266663,2.000000 903.200012,1.999998 
z"/>
<path data-name="Salapoumbé" fill="#BFDE59" opacity="1.000000" stroke="none" 
	d="
M353.671143,1771.801270 
	C352.634735,1765.485229 352.365234,1759.181274 352.347015,1752.876465 
	C352.289368,1732.926392 352.235596,1712.975464 352.341492,1693.025757 
	C352.773773,1611.614868 353.265991,1530.204224 354.649536,1448.079102 
	C359.947510,1450.516235 364.498077,1452.955444 370.229797,1452.689697 
	C372.393524,1452.589355 374.885498,1453.299805 376.759491,1454.422485 
	C381.917633,1457.512207 386.879822,1459.133057 392.673584,1455.871948 
	C394.451660,1454.871338 396.954956,1455.159180 399.053986,1454.867065 
	C399.576172,1456.925171 399.959351,1458.435425 400.336334,1459.921143 
	C403.426788,1459.734741 407.241211,1458.376587 408.530151,1459.625244 
	C413.690796,1464.624512 420.040100,1467.044678 427.557831,1469.627441 
	C425.601776,1476.200928 430.102814,1478.932251 434.690552,1481.974854 
	C438.153076,1484.271240 441.037567,1487.439209 445.158539,1491.085815 
	C448.135162,1484.706665 453.317932,1486.291260 457.800293,1488.437134 
	C461.927246,1490.412964 457.803192,1493.676392 457.307007,1496.215820 
	C473.509399,1501.487183 473.507080,1501.479614 488.042633,1497.034180 
	C512.544067,1489.541260 537.071472,1482.132202 561.548401,1474.559937 
	C681.720642,1437.381958 801.879150,1400.159790 922.043945,1362.957642 
	C979.584167,1345.143677 1037.110718,1327.284790 1094.705566,1309.649170 
	C1098.651978,1308.440674 1103.325562,1307.950195 1107.315063,1308.782959 
	C1194.562134,1326.997803 1281.756104,1345.467041 1368.968994,1363.845581 
	C1433.729736,1377.492676 1498.506958,1391.061035 1563.269531,1404.700195 
	C1625.426514,1417.790771 1687.572876,1430.931396 1749.725708,1444.041748 
	C1821.315063,1459.142578 1892.906372,1474.234009 1964.496704,1489.330322 
	C1992.156494,1495.162964 2019.816040,1500.997314 2047.475708,1506.830811 
	C2052.654297,1509.739502 2057.833008,1512.648315 2063.946045,1516.081787 
	C2061.922852,1519.209839 2060.363281,1521.938110 2058.502197,1524.442017 
	C2051.477783,1533.893677 2045.739136,1543.768799 2045.554077,1556.092407 
	C2045.511719,1558.917603 2044.164795,1561.855103 2042.918945,1564.506348 
	C2038.669678,1573.548340 2037.722412,1582.515991 2041.129150,1592.217896 
	C2045.085327,1603.483643 2048.266602,1615.006348 2054.393311,1625.401123 
	C2057.508057,1630.686035 2058.221924,1636.457153 2058.461426,1642.594482 
	C2059.167480,1660.715942 2055.232666,1677.311890 2045.613037,1692.886353 
	C2040.411621,1701.307617 2036.818481,1710.681274 2039.687378,1721.246826 
	C2041.204224,1726.833130 2043.252930,1731.728516 2047.920654,1735.513062 
	C2051.258057,1738.218872 2054.013428,1741.642578 2057.179688,1745.372803 
	C2005.724121,1746.725220 1954.117676,1747.456177 1902.510864,1748.174438 
	C1852.236328,1748.874390 1801.961182,1749.539551 1751.687012,1750.260986 
	C1708.410034,1750.881836 1665.134033,1751.573853 1621.857300,1752.209473 
	C1574.582153,1752.903687 1527.306763,1753.561646 1480.031616,1754.250122 
	C1435.421753,1754.899780 1390.812256,1755.572144 1346.202515,1756.227661 
	C1300.260010,1756.902832 1254.317383,1757.568726 1208.374878,1758.240234 
	C1162.765747,1758.906982 1117.156494,1759.575562 1071.547363,1760.243286 
	C1025.938232,1760.911011 980.329041,1761.576660 934.719849,1762.246460 
	C889.777161,1762.906738 844.834473,1763.573975 799.891724,1764.233398 
	C753.949341,1764.907349 708.006775,1765.571777 662.064392,1766.247192 
	C617.454651,1766.902954 572.845032,1767.571411 528.235291,1768.227173 
	C482.292938,1768.902588 436.349243,1769.498901 390.408875,1770.287720 
	C378.451721,1770.493164 366.504700,1771.288574 353.671143,1771.801270 
z"/>
<path data-name="Yokadouma" fill="#DC53E0" opacity="1.000000" stroke="none" 
	d="
M2047.555542,1505.862549 
	C2019.816040,1500.997314 1992.156494,1495.162964 1964.496704,1489.330322 
	C1892.906372,1474.234009 1821.315063,1459.142578 1749.725708,1444.041748 
	C1687.572876,1430.931396 1625.426514,1417.790771 1563.269531,1404.700195 
	C1498.506958,1391.061035 1433.729736,1377.492676 1368.968994,1363.845581 
	C1281.756104,1345.467041 1194.562134,1326.997803 1107.315063,1308.782959 
	C1103.325562,1307.950195 1098.651978,1308.440674 1094.705566,1309.649170 
	C1037.110718,1327.284790 979.584167,1345.143677 922.043945,1362.957642 
	C801.879150,1400.159790 681.720642,1437.381958 561.548401,1474.559937 
	C537.071472,1482.132202 512.544067,1489.541260 488.042633,1497.034180 
	C473.507080,1501.479614 473.509399,1501.487183 457.307007,1496.215820 
	C457.803192,1493.676392 461.927246,1490.412964 457.800293,1488.437134 
	C453.317932,1486.291260 448.135162,1484.706665 445.158539,1491.085815 
	C441.037567,1487.439209 438.153076,1484.271240 434.690552,1481.974854 
	C430.102814,1478.932251 425.601776,1476.200928 427.557831,1469.627441 
	C420.040100,1467.044678 413.690796,1464.624512 408.530151,1459.625244 
	C407.241211,1458.376587 403.426788,1459.734741 400.336334,1459.921143 
	C399.959351,1458.435425 399.576172,1456.925171 399.053986,1454.867065 
	C396.954956,1455.159180 394.451660,1454.871338 392.673584,1455.871948 
	C386.879822,1459.133057 381.917633,1457.512207 376.759491,1454.422485 
	C374.885498,1453.299805 372.393524,1452.589355 370.229797,1452.689697 
	C364.498077,1452.955444 359.947510,1450.516235 354.801605,1447.075439 
	C346.697479,1442.954712 339.216736,1441.470581 331.494171,1445.652222 
	C329.778870,1446.581055 327.372284,1447.438354 326.732117,1448.944214 
	C323.493256,1456.562256 316.671600,1459.634033 310.049530,1463.028809 
	C303.314453,1457.436890 297.473907,1450.815063 290.042084,1446.023682 
	C288.810455,1445.229858 288.291412,1443.406128 287.250946,1442.228027 
	C281.517944,1435.737427 276.869904,1428.019043 265.587585,1430.994385 
	C261.378540,1432.104492 255.606262,1430.411499 251.525772,1428.194702 
	C244.373001,1424.308594 237.875198,1423.235474 231.353989,1428.542480 
	C227.812149,1431.424805 224.502075,1430.632324 221.235703,1428.707520 
	C211.608917,1423.034668 200.868088,1420.892456 190.173920,1418.561401 
	C188.878632,1418.279175 186.902863,1418.620361 186.339005,1417.859741 
	C179.063248,1408.043701 170.010284,1415.035645 161.889709,1415.466309 
	C155.288467,1415.816284 149.396912,1415.433472 142.759644,1413.877686 
	C135.026550,1412.064941 126.334259,1406.803223 117.474808,1413.453003 
	C112.537674,1417.158936 98.765236,1411.605591 96.143112,1405.259155 
	C93.139648,1397.989868 88.174210,1393.284790 81.369972,1389.844238 
	C77.023659,1387.646484 74.556641,1383.946045 73.604248,1378.909058 
	C71.712212,1368.902710 68.663536,1367.374634 59.501156,1370.962036 
	C58.330490,1371.420410 57.046597,1371.589478 55.272251,1372.026123 
	C54.654312,1370.155151 54.076897,1368.710327 53.713661,1367.213501 
	C53.410057,1365.962280 53.357056,1364.650024 53.158413,1363.093140 
	C50.230488,1362.098145 47.453354,1361.154297 45.037956,1360.333496 
	C40.897953,1355.402100 42.711025,1349.113525 50.604439,1341.231934 
	C47.383717,1339.972900 44.438484,1338.821533 40.744041,1337.539062 
	C39.846020,1335.433472 39.697212,1333.458984 39.804726,1330.780396 
	C41.334644,1326.374146 42.498451,1322.629395 43.912952,1318.981934 
	C45.307228,1315.386597 46.955338,1311.889893 48.305428,1308.779785 
	C53.758522,1308.378906 58.060703,1308.076050 62.360149,1307.738403 
	C63.664082,1307.635986 64.960472,1307.437500 66.235748,1307.285889 
	C71.777405,1286.956177 84.641281,1272.429199 101.427795,1260.531128 
	C103.873878,1245.915405 103.873390,1245.867554 119.775932,1245.705688 
	C123.830345,1245.664429 127.843170,1245.904785 130.568527,1242.072021 
	C130.753082,1241.812378 131.052307,1241.537964 131.346024,1241.466553 
	C139.254349,1239.539429 147.119797,1236.460693 155.098999,1236.127563 
	C160.842026,1235.888062 165.397491,1234.815063 169.320679,1231.553833 
	C167.823929,1227.413696 165.874420,1223.433594 165.004669,1219.230225 
	C164.078384,1214.753662 164.173920,1210.065674 163.827057,1205.518921 
	C155.024307,1202.098877 148.848312,1194.213379 139.157608,1193.354736 
	C135.070709,1186.683960 126.356644,1183.774658 124.427856,1175.403687 
	C123.781784,1172.599609 122.304062,1171.368774 119.781105,1169.795776 
	C108.583160,1162.814209 97.174942,1155.659668 95.792366,1139.845337 
	C97.591118,1138.420776 99.563927,1136.858276 102.113083,1134.839355 
	C101.012337,1128.678833 99.837555,1122.202393 98.706070,1115.718384 
	C98.308266,1113.438721 97.744209,1111.142944 97.723564,1108.850464 
	C97.634064,1098.909546 101.295158,1094.684570 110.175774,1090.151978 
	C116.132408,1087.111816 121.257210,1082.282104 126.333374,1077.778931 
	C127.760490,1076.512939 128.140579,1073.589844 128.240326,1071.392212 
	C128.569916,1064.130371 128.642731,1057.060791 130.771164,1049.798096 
	C132.732910,1043.104126 132.605698,1035.428467 131.721375,1028.396240 
	C131.103806,1023.485107 126.887329,1019.202332 127.811584,1013.541260 
	C128.761063,1007.725769 129.463135,1001.868835 130.215332,996.022644 
	C130.541412,993.488220 131.412643,990.762024 130.827148,988.425964 
	C129.535004,983.270325 129.359482,979.678833 135.726532,977.663269 
	C138.208893,976.877441 141.233887,972.855042 141.299622,970.238770 
	C141.591812,958.611328 146.292664,949.242676 154.315918,941.384155 
	C170.152802,925.872620 177.558960,905.548340 186.400314,886.024963 
	C207.504776,839.422180 228.592880,792.812073 249.714401,746.216980 
	C252.732635,739.558655 255.965378,732.997437 258.982330,726.338501 
	C262.847168,717.808228 261.855835,710.199158 254.935867,704.083740 
	C251.466965,701.018127 250.319717,698.413940 251.110825,693.935913 
	C252.212494,687.699768 248.452759,681.198181 251.865097,674.885498 
	C252.272812,674.131287 251.406265,672.344543 250.678406,671.375916 
	C245.847763,664.947571 244.283371,657.998108 246.098175,650.050476 
	C246.889603,646.584534 247.010315,642.812744 243.138275,640.259216 
	C242.063660,639.550537 241.938995,637.401489 241.655365,635.175537 
	C274.545715,628.026428 307.167969,621.659180 339.770874,615.194153 
	C402.038422,602.846680 464.294312,590.440369 526.556152,578.064270 
	C575.129761,568.408936 623.703186,558.753479 672.279968,549.114319 
	C722.810181,539.087524 773.341736,529.067322 823.885010,519.106750 
	C826.112366,518.667786 828.521667,518.461426 830.746338,518.800842 
	C880.013733,526.317810 929.254272,534.010803 978.526917,541.492981 
	C1020.249756,547.828674 1062.017944,553.864990 1103.745117,560.173157 
	C1145.796143,566.530273 1187.811890,573.122070 1229.860718,579.493652 
	C1266.987061,585.119324 1304.133545,590.612732 1341.279541,596.107483 
	C1364.944824,599.608154 1388.625488,603.004944 1413.201782,606.410278 
	C1419.500977,612.205078 1425.137207,617.835754 1430.257446,623.901917 
	C1483.606689,687.107605 1536.878174,750.379028 1590.160278,813.641418 
	C1610.702271,838.031067 1631.214355,862.445740 1651.747559,886.842896 
	C1653.449707,888.865417 1655.207642,890.840942 1657.460693,893.439026 
	C1665.487183,888.355957 1673.011475,883.643372 1680.480591,878.844849 
	C1686.919434,874.708313 1693.380859,870.597046 1699.667480,866.237000 
	C1703.457520,863.608459 1706.485474,863.264771 1710.235596,866.648560 
	C1735.148071,889.127319 1760.189819,911.463257 1785.253784,933.773376 
	C1817.758789,962.706970 1850.360840,991.531494 1882.851196,1020.481323 
	C1911.627808,1046.121948 1940.286499,1071.895020 1969.040771,1097.560547 
	C1986.141113,1112.824097 2003.258057,1128.070557 2020.513428,1143.157959 
	C2025.767212,1147.751465 2028.477173,1152.544556 2028.610596,1160.115112 
	C2028.972290,1180.656860 2030.725830,1201.172485 2031.858765,1221.702271 
	C2032.736694,1237.609985 2033.376587,1253.531616 2034.361450,1269.432373 
	C2036.021606,1296.231934 2037.992920,1323.012451 2039.599365,1349.815186 
	C2040.711670,1368.373901 2041.360107,1386.959839 2042.344238,1405.526855 
	C2043.520508,1427.719482 2044.865723,1449.902954 2046.073730,1472.093872 
	C2046.668579,1483.023315 2047.119385,1493.960571 2047.555542,1505.862549 
z"/>
</svg>