<svg version="1.1" id="Layer_1" xmlns="http://www.w3.org/2000/svg" xmlns:xlink="http://www.w3.org/1999/xlink" x="0px" y="0px"
	 width="100%" viewBox="0 0 2212 2526" enable-background="new 0 0 2212 2526" xml:space="preserve">
<path data-name="Garoua-Boulaï" fill="#393E80" opacity="1.000000" stroke="none" 
	d="
M1942.774414,133.025955 
	C1942.149170,128.225540 1940.486816,124.559174 1935.799316,121.772972 
	C1931.680786,119.324997 1929.198608,114.472534 1925.852051,110.837051 
	C1921.139282,105.717468 1925.978516,99.907280 1927.434814,95.979118 
	C1924.688599,87.770638 1921.905151,80.537018 1919.950439,73.085968 
	C1919.142334,70.006187 1918.151978,68.038780 1915.575806,65.939209 
	C1907.444702,59.312458 1899.661011,52.229477 1892.125244,44.928337 
	C1890.641357,43.490589 1890.049438,40.144154 1890.449585,37.931789 
	C1891.742676,30.780674 1893.946045,23.795919 1895.287354,16.651031 
	C1896.075928,12.451087 1895.894775,8.069097 1896.074951,2.884493 
	C1898.133423,2.000000 1900.266724,2.000000 1903.226562,2.746703 
	C1905.859985,6.004665 1907.667236,8.515924 1909.331421,10.828448 
	C1908.287598,20.164669 1907.078369,29.337193 1906.310547,38.546513 
	C1905.930908,43.099579 1907.027222,46.769703 1912.717041,48.060452 
	C1921.758667,50.111603 1927.349121,56.596767 1931.287109,64.694672 
	C1933.321167,68.877159 1935.024902,73.362846 1937.806641,77.001472 
	C1940.957153,81.122459 1943.147705,86.972290 1948.848145,88.034355 
	C1956.775635,89.511398 1960.745972,94.732185 1963.597412,101.326363 
	C1966.078857,107.064682 1967.689209,113.220116 1970.553467,118.740326 
	C1973.127686,123.701607 1974.508423,128.698105 1973.728882,134.060074 
	C1972.265625,144.125702 1977.095825,150.185608 1985.282959,155.038544 
	C1993.513428,159.917160 2001.650269,165.110214 2009.134766,171.040482 
	C2014.971924,175.665421 2021.558472,180.270905 2022.207153,189.009750 
	C2022.697266,195.611298 2023.370239,202.207367 2024.249146,208.767380 
	C2024.540405,210.941757 2025.092163,213.902634 2026.604126,214.959106 
	C2036.670410,221.992203 2039.424194,233.146912 2043.551270,243.576218 
	C2044.264404,245.378311 2044.875122,247.663010 2046.286133,248.674500 
	C2054.871094,254.828857 2064.515137,258.539032 2075.134521,257.113922 
	C2089.179688,255.229034 2102.583496,254.016281 2115.284668,262.975922 
	C2121.016602,267.019318 2128.301758,268.052368 2134.070557,260.925537 
	C2135.497314,259.162720 2138.757324,257.835510 2141.040771,258.014557 
	C2147.396973,258.512848 2151.740967,255.639297 2155.843750,251.412842 
	C2157.885986,249.309296 2160.325684,247.497757 2162.833252,245.957108 
	C2170.300781,241.369431 2180.729248,242.866776 2185.403809,250.212570 
	C2191.598633,259.946991 2196.816406,270.312714 2202.233887,280.523834 
	C2203.269775,282.476624 2203.947754,285.061737 2203.650879,287.196716 
	C2202.744873,293.713074 2201.218262,300.140564 2200.054199,306.624359 
	C2198.774902,313.747375 2196.464600,320.941101 2196.746826,328.018585 
	C2197.044189,335.473877 2199.402588,342.979004 2201.708252,350.191406 
	C2205.196777,361.103790 2203.361328,372.868622 2207.619385,383.633179 
	C2208.416748,385.648254 2208.488770,388.588928 2207.610107,390.516327 
	C2203.962646,398.516876 2206.721436,406.753052 2206.067139,414.823517 
	C2205.000244,427.984100 2210.915527,441.073120 2206.327881,454.250641 
	C2206.040283,455.077057 2206.536621,456.198547 2206.736084,457.168671 
	C2207.856934,462.619354 2209.034424,468.058594 2210.115234,473.517090 
	C2210.567871,475.802643 2210.539551,478.376129 2214.000000,478.000000 
	C2214.000000,484.061188 2214.000000,490.122375 2213.255859,496.947845 
	C2211.831787,498.392975 2210.864258,498.951752 2210.515869,499.773010 
	C2205.905273,510.648224 2200.766113,521.352722 2197.000244,532.518555 
	C2192.808594,544.947327 2186.841309,557.011719 2187.638184,570.820007 
	C2187.826416,574.081482 2185.675537,577.525696 2184.410156,580.812561 
	C2182.311523,586.264404 2179.934570,591.610779 2177.907471,597.087891 
	C2176.095459,601.983643 2174.943604,607.144104 2172.891357,611.926392 
	C2168.266602,622.701599 2169.125244,633.654358 2171.312256,644.658813 
	C2171.669678,646.456970 2173.021240,648.466980 2174.512939,649.563293 
	C2183.837646,656.415833 2186.622803,666.538208 2187.649414,677.041382 
	C2189.388428,694.836609 2198.123535,708.429260 2211.235352,719.742004 
	C2211.806152,720.234436 2213.062988,719.932068 2214.000000,720.000000 
	C2214.000000,724.083313 2214.000000,728.166687 2214.000000,733.125000 
	C2208.042480,734.167664 2206.068848,739.076843 2203.614014,743.105042 
	C2201.072510,747.275757 2199.110840,751.800049 2196.641113,756.672058 
	C2198.036621,759.441956 2199.642334,762.628662 2201.421875,766.160461 
	C2194.974121,773.968018 2188.526855,781.774841 2181.919922,789.775391 
	C2187.784424,795.481934 2185.833984,802.935059 2182.593750,809.842651 
	C2179.662109,816.092834 2178.555908,822.080444 2179.947754,828.851318 
	C2181.677490,837.267212 2179.195801,844.456421 2173.247803,849.042664 
	C2167.769287,849.540405 2162.846191,848.882446 2159.041748,850.642700 
	C2155.197754,852.421204 2152.462646,856.596130 2148.996094,859.959656 
	C2148.646240,865.833069 2148.502197,872.357178 2147.730469,878.806213 
	C2147.486816,880.843994 2145.627197,882.721436 2144.399414,884.601746 
	C2141.547363,888.968750 2138.518799,893.225525 2135.809570,897.677673 
	C2135.055420,898.917175 2134.541016,900.902405 2134.985352,902.171021 
	C2137.260742,908.666748 2134.530762,913.989624 2132.785889,920.117798 
	C2130.844971,926.932678 2128.090088,932.044678 2122.351807,935.363953 
	C2123.070557,937.699829 2123.545898,939.245239 2123.242676,941.337891 
	C2116.633789,939.421204 2113.782715,935.296692 2113.868164,928.698608 
	C2113.908447,925.609497 2112.463623,922.377319 2111.188232,919.427734 
	C2109.763428,916.132385 2107.767334,913.083984 2106.031494,909.948975 
	C2108.303467,906.917725 2110.216553,904.365295 2112.505615,901.311340 
	C2109.348389,898.569580 2105.929688,896.699829 2104.127197,893.818970 
	C2099.638672,886.644043 2095.756592,879.075195 2091.886963,871.533081 
	C2089.620117,867.115051 2088.878418,861.404541 2085.595947,858.140869 
	C2081.057373,853.628540 2079.258545,848.607605 2078.144287,842.819153 
	C2077.404053,838.974609 2075.345215,836.618530 2071.330566,835.171387 
	C2068.108643,834.009888 2065.397217,831.221130 2062.687744,828.888916 
	C2055.942139,823.082153 2051.708984,815.056030 2042.827271,810.849731 
	C2034.653564,806.978577 2027.912109,799.931152 2020.839233,793.929810 
	C2013.811035,787.966125 2007.048340,781.675903 2000.364014,775.323914 
	C1991.470947,766.873291 1982.133911,758.768677 1974.161865,749.504944 
	C1966.447266,740.540283 1960.391113,730.166443 1953.236450,720.691040 
	C1951.119263,717.887085 1947.725708,716.056824 1944.958740,713.730652 
	C1942.705444,711.836426 1939.960693,710.234253 1938.395752,707.866760 
	C1932.725708,699.289062 1927.386108,690.488647 1922.063721,681.686523 
	C1916.286499,672.132263 1911.615112,670.940369 1901.869507,675.781311 
	C1898.236206,677.586060 1893.738647,679.124023 1889.867676,678.693481 
	C1879.341187,677.522827 1869.004028,682.552124 1864.112427,692.480347 
	C1861.025024,698.746704 1857.669800,700.858337 1851.104980,699.211365 
	C1843.673340,697.346985 1836.863525,697.758240 1829.848389,701.048401 
	C1823.889771,703.842957 1819.249023,701.102051 1818.113770,694.662476 
	C1817.663086,692.105408 1817.575073,689.168762 1818.386353,686.763977 
	C1820.864502,679.418823 1819.643188,673.088135 1813.740601,667.634827 
	C1818.981934,660.054199 1817.016357,653.002686 1813.415405,645.975342 
	C1812.372925,643.940979 1810.546387,641.438660 1811.008911,639.649658 
	C1813.309448,630.750671 1806.846924,628.981506 1801.109985,626.236877 
	C1791.600464,621.687378 1782.175293,616.959290 1772.765747,612.205322 
	C1771.017090,611.321899 1768.835083,610.324524 1767.997314,608.765015 
	C1761.779541,597.190063 1752.900391,590.183655 1737.863403,591.732666 
	C1739.420776,588.893005 1740.027832,586.978638 1741.268921,585.661316 
	C1747.068848,579.504639 1754.949951,574.512817 1752.435547,564.046021 
	C1752.312866,563.534851 1752.764526,562.649536 1753.223267,562.272278 
	C1756.876709,559.267822 1756.217041,555.443604 1755.983398,551.328369 
	C1755.552368,543.735413 1757.722778,541.702393 1765.606079,540.222107 
	C1768.124512,539.749146 1770.707764,539.036316 1772.960938,537.858643 
	C1777.363525,535.557373 1781.522827,532.795593 1785.840820,530.325806 
	C1792.947388,526.260864 1793.061768,523.171631 1789.330444,515.963867 
	C1785.807007,509.157776 1779.426270,503.561432 1779.794556,494.756165 
	C1779.881470,492.675171 1777.141113,490.482635 1775.718262,488.330292 
	C1773.062622,484.313110 1770.745239,480.878113 1770.567139,475.127625 
	C1770.124268,460.825836 1772.040039,445.620087 1761.162231,433.074371 
	C1763.442017,430.503326 1765.364624,428.281433 1767.344604,426.111908 
	C1774.924194,417.806854 1771.840210,407.219025 1760.791382,404.276367 
	C1756.020264,403.005646 1751.068970,402.423676 1746.217163,401.440918 
	C1739.820557,400.145233 1737.598267,397.522675 1738.472046,392.077576 
	C1739.776245,383.949371 1741.242065,375.847076 1742.152344,370.561127 
	C1747.264404,364.308838 1750.860718,360.243073 1754.060913,355.886353 
	C1756.440674,352.646729 1755.453003,349.665833 1752.349609,347.216614 
	C1750.031006,345.386871 1746.518921,343.753418 1745.849487,341.380524 
	C1743.121948,331.712341 1735.925537,328.013947 1727.327515,325.543213 
	C1725.490601,325.015350 1723.816162,323.922302 1721.717896,322.923431 
	C1721.717896,318.979187 1720.493286,314.704681 1721.983032,311.843689 
	C1724.741577,306.546448 1725.917603,301.272675 1726.610596,295.454407 
	C1727.103760,291.313263 1730.692017,288.221375 1735.200439,288.595795 
	C1740.025879,288.996552 1739.901855,292.953491 1740.094971,296.884796 
	C1740.353027,302.137085 1744.583984,304.026550 1749.137085,301.396301 
	C1750.972412,300.336121 1752.595215,298.510803 1754.538208,298.105927 
	C1761.538208,296.647522 1767.693481,292.099731 1775.232300,292.551025 
	C1776.153564,292.606201 1777.163330,291.184540 1778.190796,290.402618 
	C1777.535034,289.049347 1777.108154,288.178955 1776.690186,287.304230 
	C1773.923462,281.511688 1768.502808,252.591858 1768.662109,245.646576 
	C1768.693970,244.254410 1768.093750,242.148712 1767.087036,241.554520 
	C1763.023560,239.155975 1763.778198,235.539001 1763.811279,231.876266 
	C1763.834229,229.356339 1763.980347,226.378815 1762.773071,224.396317 
	C1759.688110,219.330032 1759.277588,214.068695 1759.296387,208.366852 
	C1759.306396,205.352432 1757.894775,202.082321 1756.339966,199.379242 
	C1754.520996,196.217255 1751.847168,193.547119 1749.159180,190.181732 
	C1742.014771,189.201721 1742.035400,189.183701 1736.211792,182.529373 
	C1735.384521,181.584106 1734.284790,180.282684 1733.243530,180.216949 
	C1726.969360,179.820877 1725.345093,174.800018 1723.280273,170.388275 
	C1721.387329,166.343567 1719.560791,162.510452 1714.511230,161.769745 
	C1709.965820,161.102966 1710.179077,157.406631 1709.734253,154.144821 
	C1718.386475,154.030960 1727.038818,153.822708 1735.691040,153.818436 
	C1794.634644,153.789368 1853.578369,153.803207 1912.521973,153.803207 
	C1916.026001,153.803207 1919.530029,153.803223 1924.624878,153.803223 
	C1922.804321,148.707901 1921.628296,145.416412 1920.323486,141.764297 
	C1921.512695,138.042831 1924.300537,136.469315 1928.394409,136.153107 
	C1932.321411,135.849808 1936.203247,134.962112 1941.231934,134.869064 
	C1946.123657,137.204010 1946.123657,137.204010 1948.330811,134.606155 
	C1946.467407,134.076218 1944.620972,133.551086 1942.774414,133.025955 
z"/>
<path data-name="Bélabo" fill="#DBD35C" opacity="1.000000" stroke="none" 
	d="
M71.929626,1000.361633 
	C76.242256,996.445984 80.258072,992.986572 84.507179,989.842468 
	C93.557014,983.145996 102.690582,976.560303 111.885559,970.064697 
	C113.455620,968.955505 115.548981,967.774231 117.318947,967.888733 
	C132.209961,968.851990 143.105759,960.423828 153.996292,952.323486 
	C169.011505,941.155212 183.397537,940.280579 197.213394,952.322632 
	C209.597717,963.117004 231.524124,963.111877 243.705338,951.550171 
	C249.264359,946.273804 254.426193,941.162048 258.011780,934.117737 
	C261.743378,926.786682 267.096252,920.266541 271.868622,913.482178 
	C289.460297,888.474365 305.814178,862.715088 320.134766,835.667542 
	C340.013885,798.121399 360.108917,760.689636 381.283997,722.572632 
	C384.122040,721.992310 385.789124,722.019165 387.452881,722.108643 
	C406.878113,723.152954 425.008789,718.937378 441.978912,709.297852 
	C444.254883,708.005127 447.768921,708.050415 450.512482,708.552856 
	C477.597443,713.512451 504.608246,718.879150 531.703857,723.777710 
	C567.298401,730.212708 602.973816,736.199890 638.571350,742.618896 
	C676.778503,749.508484 714.906799,756.836426 753.121582,763.682434 
	C807.344482,773.396179 861.626953,782.776123 915.861145,792.427002 
	C959.310120,800.158752 1002.721313,808.102661 1046.156494,815.912170 
	C1075.547852,821.196594 1104.945679,826.444580 1134.351807,831.646118 
	C1158.207642,835.865784 1182.094727,839.910522 1205.940674,844.184509 
	C1226.514038,847.871826 1247.007446,852.023682 1267.623901,855.441528 
	C1274.728638,856.619324 1278.657227,861.414429 1282.513184,866.205933 
	C1286.058472,870.611389 1284.160400,875.724121 1278.965210,878.443604 
	C1276.869141,879.540833 1274.746216,880.586670 1272.436768,881.756592 
	C1276.075684,883.207031 1280.059937,883.543274 1281.314697,885.569641 
	C1283.564697,889.203430 1281.908691,893.269775 1278.770874,896.359192 
	C1278.296265,896.826355 1277.830566,897.305847 1277.396118,897.809998 
	C1274.636963,901.010742 1271.914795,904.243713 1269.126709,907.418884 
	C1266.904785,909.949402 1264.606445,912.412842 1262.056519,915.220642 
	C1257.866699,902.883179 1252.921265,900.848450 1241.672485,906.121399 
	C1239.588745,907.098145 1237.577881,908.335449 1235.754395,909.739563 
	C1232.148438,912.516052 1228.812622,915.650574 1225.149292,918.343567 
	C1221.369507,921.122253 1218.799561,924.088379 1220.872925,928.985840 
	C1224.098877,929.231445 1227.205933,928.763367 1229.628906,929.837769 
	C1232.416992,931.074097 1234.600220,933.674377 1237.698242,936.217529 
	C1238.680420,940.613953 1237.546143,945.468689 1233.672607,949.074280 
	C1229.923950,952.563538 1230.287842,955.827942 1232.461426,960.400208 
	C1224.386230,991.759094 1215.695557,1022.130920 1208.802246,1052.905396 
	C1197.917236,1101.499878 1188.227783,1150.362183 1178.052612,1199.115479 
	C1168.895996,1242.989624 1159.781006,1286.872437 1150.621826,1330.746094 
	C1140.443970,1379.499146 1130.223999,1428.243286 1120.045776,1476.996338 
	C1108.239746,1533.545532 1096.430786,1590.094116 1084.678955,1646.654663 
	C1077.927734,1679.147949 1071.287720,1711.664185 1063.981201,1744.678467 
	C1062.062866,1745.415283 1060.769287,1745.761597 1059.457764,1745.853394 
	C1048.119263,1746.649292 1043.747437,1750.560669 1041.615479,1761.845093 
	C1041.121948,1764.457031 1040.668823,1767.087524 1039.971313,1769.647949 
	C1037.985718,1776.936646 1036.441284,1784.414673 1033.670532,1791.400757 
	C1030.890381,1798.410156 1026.312744,1804.706177 1023.524536,1811.713379 
	C1021.487671,1816.832153 1020.505371,1822.552246 1020.072205,1828.084229 
	C1019.450500,1836.023804 1020.245422,1844.080322 1019.528259,1852.004761 
	C1018.822815,1859.800537 1019.170654,1868.171753 1012.283691,1873.789795 
	C989.876221,1852.334473 967.893250,1831.461182 945.992981,1810.501343 
	C913.017517,1778.941406 880.101807,1747.318726 847.156494,1715.727173 
	C814.932678,1684.827271 782.661743,1653.976196 750.528503,1622.982300 
	C746.520569,1619.116577 742.229492,1616.881348 736.692749,1615.870728 
	C705.964966,1610.260986 675.332336,1604.129272 644.601318,1598.538452 
	C625.021301,1594.976196 605.327271,1592.041260 584.955811,1588.471436 
	C583.279846,1587.282227 582.332458,1586.446777 580.906555,1585.189331 
	C577.947632,1587.451782 576.047485,1593.997681 569.958618,1588.792480 
	C570.777527,1586.340210 571.673462,1583.657227 572.342651,1581.653198 
	C576.083008,1580.051514 579.223083,1578.706787 583.215332,1576.997192 
	C580.363708,1572.234741 578.197327,1568.616699 576.871338,1566.402222 
	C578.022339,1562.664307 580.228149,1559.258911 579.314331,1557.777222 
	C576.341003,1552.955566 577.541199,1548.392090 579.068054,1542.979126 
	C571.387451,1541.716553 569.200867,1535.070190 565.739136,1529.996826 
	C560.944702,1522.969849 554.767395,1519.841675 546.527039,1520.003418 
	C545.979797,1520.014282 545.420349,1519.404907 544.714905,1518.995972 
	C544.021606,1516.710571 543.294373,1514.313110 542.432312,1511.471191 
	C538.731812,1512.037109 535.562622,1512.521851 532.406311,1513.004517 
	C529.852966,1506.011353 529.852966,1506.011353 538.632812,1501.385742 
	C538.632812,1497.338989 538.632812,1493.372925 538.632812,1489.375244 
	C534.792786,1489.588013 532.054138,1489.739746 529.368591,1489.888672 
	C527.565369,1477.211548 525.872864,1465.269531 524.151611,1453.331543 
	C524.058594,1452.686646 523.770142,1452.055542 523.494507,1451.453857 
	C521.553650,1447.216309 520.799988,1443.112427 521.289307,1438.156494 
	C522.107178,1429.873047 517.281738,1426.066528 509.623505,1428.700806 
	C502.088654,1431.292725 497.301178,1429.231812 492.216614,1423.519897 
	C488.097565,1418.892334 482.100189,1415.215454 475.477142,1416.782104 
	C464.923706,1419.278442 455.054810,1417.206299 445.316467,1413.811890 
	C440.043396,1411.973877 435.204254,1411.633301 429.836578,1413.403687 
	C424.510162,1415.160522 418.755615,1417.419067 413.406128,1416.954712 
	C399.662476,1415.761353 386.039337,1413.180542 372.255371,1411.137695 
	C368.770111,1402.468262 363.616730,1396.365845 355.324829,1391.970093 
	C347.405579,1387.771851 339.923431,1385.038940 330.911652,1385.502441 
	C324.956787,1385.808594 319.155060,1383.971191 314.721771,1379.459106 
	C318.050568,1374.005615 321.486267,1368.892700 324.380859,1363.489868 
	C327.286530,1358.066284 335.402130,1354.689209 330.298584,1346.220337 
	C341.979431,1342.686646 343.752960,1332.066040 348.708679,1324.004517 
	C351.458435,1319.531250 353.570496,1314.623047 355.590240,1309.753418 
	C359.374023,1300.630615 366.010803,1292.597656 366.702911,1282.302490 
	C367.362122,1272.496460 368.279938,1262.617188 367.676056,1252.857422 
	C367.398376,1248.370117 364.870758,1242.472168 361.391937,1240.076050 
	C355.320465,1235.893921 351.596924,1230.337280 347.594025,1224.669067 
	C343.571014,1218.972534 339.510376,1213.291260 335.187286,1207.823853 
	C333.616608,1205.837280 331.492798,1203.791504 329.192017,1202.958252 
	C312.459106,1196.897705 299.628326,1185.218262 287.066772,1173.424438 
	C261.847107,1149.745972 237.217972,1125.439575 212.081451,1101.671143 
	C202.444733,1092.558960 192.710953,1083.328125 181.929871,1075.692749 
	C158.598572,1059.168945 134.651077,1043.505981 110.778976,1027.758789 
	C98.039795,1019.355347 84.933075,1011.508972 71.992218,1003.411255 
	C71.907639,1002.594421 71.823067,1001.777527 71.929626,1000.361633 
z"/>
<path data-name="Mandjou" fill="#855E38" opacity="1.000000" stroke="none" 
	d="
M1182.661865,2106.077393 
	C1177.003052,2099.102051 1171.525757,2093.032715 1164.277954,2088.792236 
	C1161.991211,2087.454346 1159.806274,2085.407471 1157.351074,2084.986084 
	C1147.200562,2083.242188 1142.014893,2075.694824 1136.191650,2068.451660 
	C1129.906616,2060.633789 1121.809570,2054.869629 1112.002319,2052.251953 
	C1107.715698,2051.107666 1105.455933,2049.170410 1106.015259,2044.758911 
	C1106.432129,2041.472168 1105.757324,2038.859009 1102.382446,2035.619629 
	C1102.448730,2029.908936 1102.250977,2025.474731 1103.512085,2021.503784 
	C1106.837524,2011.032837 1108.707520,2000.421753 1107.791504,1989.490234 
	C1107.566528,1986.806030 1106.313721,1983.181152 1104.308228,1981.884766 
	C1099.993408,1979.095947 1099.126709,1974.777466 1098.789307,1970.842773 
	C1098.273071,1964.823853 1095.523804,1960.340332 1091.953613,1955.231934 
	C1094.525513,1943.139771 1098.654663,1932.982300 1110.743530,1928.512817 
	C1111.907715,1928.082397 1113.179443,1927.105713 1113.747925,1926.035522 
	C1117.643188,1918.703003 1125.392700,1916.006714 1131.853638,1912.804199 
	C1141.097656,1908.221924 1145.774292,1900.957397 1147.790894,1892.089355 
	C1149.674316,1883.806396 1148.765869,1874.921509 1150.219116,1866.496826 
	C1151.289551,1860.290527 1151.297852,1855.259155 1147.471436,1849.718140 
	C1143.497681,1843.963623 1145.774780,1835.888428 1151.115112,1831.338623 
	C1158.463623,1825.078003 1160.149780,1819.880859 1155.107910,1811.261597 
	C1152.483887,1806.775757 1152.690186,1803.034302 1154.230103,1799.234497 
	C1157.910034,1790.154053 1162.379639,1781.396240 1166.195923,1772.366699 
	C1167.106323,1770.212646 1167.775635,1766.835327 1166.729126,1765.165405 
	C1161.571045,1756.934692 1149.975098,1754.229370 1140.398071,1758.344238 
	C1138.940063,1758.970581 1136.818848,1760.016968 1135.829834,1759.444092 
	C1130.377686,1756.285522 1125.459717,1759.826172 1120.231934,1759.282349 
	C1120.054932,1754.728638 1119.777100,1751.067505 1119.932983,1747.425171 
	C1120.141724,1742.546997 1117.479370,1739.848022 1113.268555,1738.817871 
	C1106.228149,1737.095215 1099.090088,1735.740356 1091.947510,1734.492432 
	C1090.476562,1734.235474 1088.207764,1734.588623 1087.322266,1735.573486 
	C1081.173584,1742.411987 1072.554688,1742.355103 1064.597656,1744.170166 
	C1071.287720,1711.664185 1077.927734,1679.147949 1084.678955,1646.654663 
	C1096.430786,1590.094116 1108.239746,1533.545532 1120.045776,1476.996338 
	C1130.223999,1428.243286 1140.443970,1379.499146 1150.621826,1330.746094 
	C1159.781006,1286.872437 1168.895996,1242.989624 1178.052612,1199.115479 
	C1188.227783,1150.362183 1197.917236,1101.499878 1208.802246,1052.905396 
	C1215.695557,1022.130920 1224.386230,991.759094 1233.058228,960.640381 
	C1244.337769,971.575195 1254.864868,983.044434 1265.312866,994.585449 
	C1278.459473,1009.107483 1291.578613,1023.654663 1304.641846,1038.251587 
	C1323.902954,1059.773682 1342.971313,1081.469971 1362.366699,1102.869873 
	C1383.995361,1126.733765 1405.749878,1150.488281 1427.785156,1173.975708 
	C1433.376343,1179.935425 1440.241333,1184.700073 1446.780273,1190.613525 
	C1450.001587,1192.714478 1453.133667,1193.958008 1455.888672,1195.773804 
	C1460.821289,1199.024902 1466.389038,1201.752563 1467.609375,1208.559326 
	C1469.219604,1217.540649 1473.388672,1226.197388 1470.148071,1235.733398 
	C1469.340698,1238.109619 1470.355957,1241.045044 1469.998169,1243.650024 
	C1469.599243,1246.555054 1469.128906,1249.676025 1467.739502,1252.174561 
	C1464.346436,1258.275879 1460.341675,1264.033691 1456.710205,1270.007080 
	C1454.779053,1273.183716 1452.175659,1274.758667 1448.448975,1274.352661 
	C1441.943237,1273.643921 1435.218140,1275.362305 1428.914551,1271.756226 
	C1427.180420,1270.764282 1423.654663,1271.535156 1421.760254,1272.754272 
	C1420.775635,1273.388306 1421.291260,1276.805176 1421.610840,1278.891235 
	C1421.956299,1281.145874 1423.789917,1283.507324 1423.376709,1285.489258 
	C1420.487549,1299.345215 1419.534302,1314.559937 1401.521973,1319.375854 
	C1403.606079,1332.422363 1400.027954,1343.395874 1391.094849,1352.529663 
	C1390.657471,1352.976929 1390.512451,1353.714355 1390.244629,1354.322388 
	C1384.770508,1366.742554 1378.650269,1378.927734 1374.021118,1391.655273 
	C1369.955933,1402.832397 1361.303345,1411.668335 1358.776123,1423.509277 
	C1358.459961,1424.990234 1357.097168,1426.408203 1355.903931,1427.515137 
	C1348.895874,1434.015747 1348.845459,1442.692139 1347.442993,1450.580811 
	C1350.803955,1453.151733 1353.315918,1455.073120 1355.539551,1456.774048 
	C1353.523682,1461.434570 1350.616943,1465.203125 1350.447266,1469.091187 
	C1349.901855,1481.582520 1348.051636,1494.142334 1352.969116,1506.531494 
	C1354.408081,1510.156982 1352.125610,1515.410400 1351.078369,1519.805420 
	C1350.588623,1521.861206 1348.979858,1523.650269 1347.193237,1526.747681 
	C1351.017822,1528.033936 1354.070190,1528.772461 1356.844727,1530.094116 
	C1358.720947,1530.987915 1361.699219,1532.787109 1361.628418,1534.036133 
	C1361.102295,1543.309326 1368.773682,1547.925781 1372.602783,1554.675537 
	C1376.138916,1560.908325 1381.490601,1564.241333 1388.363525,1565.717041 
	C1391.221436,1566.330566 1394.411743,1567.037109 1396.617065,1568.765381 
	C1405.945190,1576.074829 1412.940674,1586.176147 1424.014893,1591.482666 
	C1425.605225,1592.244751 1426.563599,1594.408081 1427.709961,1595.998413 
	C1430.935913,1600.473755 1433.234009,1606.229370 1437.486816,1609.222534 
	C1445.661987,1614.976318 1449.307251,1623.767212 1456.373291,1631.738525 
	C1460.207153,1631.830688 1464.161621,1633.566406 1466.058838,1639.369141 
	C1466.903076,1641.951538 1470.321777,1644.210693 1473.088623,1645.549438 
	C1481.534668,1649.636841 1488.143799,1654.960083 1490.768311,1664.562622 
	C1491.584839,1667.550171 1493.952881,1670.435913 1496.300781,1672.629761 
	C1510.358398,1685.765625 1525.267822,1697.778564 1542.720337,1706.263184 
	C1545.410156,1707.570923 1549.186523,1708.483643 1550.378174,1710.699097 
	C1554.489624,1718.343384 1562.115723,1721.011719 1568.676147,1725.238647 
	C1559.656860,1729.295288 1550.635742,1732.711548 1542.515625,1739.213745 
	C1536.193481,1744.276123 1528.107666,1748.963501 1518.187500,1747.995361 
	C1505.043213,1746.712646 1491.684082,1746.206299 1478.524414,1747.045898 
	C1470.695312,1747.545410 1462.544067,1747.326294 1455.022461,1752.906006 
	C1446.628052,1759.133545 1436.235352,1762.623413 1426.861938,1767.587280 
	C1417.290527,1772.656128 1414.465454,1781.315796 1418.620239,1791.639160 
	C1418.866333,1792.250366 1419.406738,1792.856201 1419.382568,1793.446899 
	C1418.910400,1804.944336 1422.548096,1816.419312 1419.745483,1827.894653 
	C1418.969727,1831.070557 1418.102661,1834.827393 1415.935181,1836.941162 
	C1410.551758,1842.191284 1411.197510,1848.660767 1409.834229,1855.132568 
	C1407.159180,1867.832397 1409.896606,1879.261719 1413.172241,1891.220703 
	C1414.415283,1895.758911 1412.587280,1901.762573 1410.597900,1906.433350 
	C1406.278442,1916.573975 1404.932983,1926.679688 1407.271606,1937.445801 
	C1407.965698,1940.641479 1407.885498,1944.084717 1407.670166,1947.382690 
	C1407.172852,1955.000854 1410.269653,1961.561768 1415.638062,1965.975342 
	C1420.956177,1970.347290 1424.599121,1976.179810 1425.255127,1981.690674 
	C1427.010864,1996.439087 1437.431396,2005.613647 1444.744995,2016.810303 
	C1447.260986,2020.662109 1450.218506,2024.226807 1452.705200,2028.095581 
	C1458.754272,2037.505981 1464.645264,2047.017822 1471.026123,2057.166504 
	C1471.132446,2056.475830 1471.134033,2056.825195 1471.015991,2057.128418 
	C1470.899536,2057.427246 1470.699097,2057.716064 1470.469849,2057.943359 
	C1470.001099,2058.408203 1469.547485,2058.945801 1468.976807,2059.234863 
	C1468.407715,2059.523682 1467.708740,2059.588867 1467.056519,2059.677979 
	C1375.347778,2072.237793 1285.261230,2094.639160 1192.593262,2105.376465 
	C1189.181641,2106.054688 1186.338745,2106.184814 1182.661865,2106.077393 
z"/>
<path data-name="Bétaré-Oya" fill="#65E66B" opacity="1.000000" stroke="none" 
	d="
M1446.520996,1190.013916 
	C1440.241333,1184.700073 1433.376343,1179.935425 1427.785156,1173.975708 
	C1405.749878,1150.488281 1383.995361,1126.733765 1362.366699,1102.869873 
	C1342.971313,1081.469971 1323.902954,1059.773682 1304.641846,1038.251587 
	C1291.578613,1023.654663 1278.459473,1009.107483 1265.312866,994.585449 
	C1254.864868,983.044434 1244.337769,971.575195 1233.248901,959.833862 
	C1230.287842,955.827942 1229.923950,952.563538 1233.672607,949.074280 
	C1237.546143,945.468689 1238.680420,940.613953 1237.698242,936.217529 
	C1234.600220,933.674377 1232.416992,931.074097 1229.628906,929.837769 
	C1227.205933,928.763367 1224.098877,929.231445 1220.872925,928.985840 
	C1218.799561,924.088379 1221.369507,921.122253 1225.149292,918.343567 
	C1228.812622,915.650574 1232.148438,912.516052 1235.754395,909.739563 
	C1237.577881,908.335449 1239.588745,907.098145 1241.672485,906.121399 
	C1252.921265,900.848450 1257.866699,902.883179 1262.056519,915.220642 
	C1264.606445,912.412842 1266.904785,909.949402 1269.126709,907.418884 
	C1271.914795,904.243713 1274.636963,901.010742 1277.396118,897.809998 
	C1277.830566,897.305847 1278.296265,896.826355 1278.770874,896.359192 
	C1281.908691,893.269775 1283.564697,889.203430 1281.314697,885.569641 
	C1280.059937,883.543274 1276.075684,883.207031 1272.436768,881.756592 
	C1274.746216,880.586670 1276.869141,879.540833 1278.965210,878.443604 
	C1284.160400,875.724121 1286.058472,870.611389 1282.513184,866.205933 
	C1278.657227,861.414429 1274.728638,856.619324 1267.623901,855.441528 
	C1247.007446,852.023682 1226.514038,847.871826 1205.940674,844.184509 
	C1182.094727,839.910522 1158.207642,835.865784 1134.351807,831.646118 
	C1104.945679,826.444580 1075.547852,821.196594 1046.156494,815.912170 
	C1002.721313,808.102661 959.310120,800.158752 915.861145,792.427002 
	C861.626953,782.776123 807.344482,773.396179 753.121582,763.682434 
	C714.906799,756.836426 676.778503,749.508484 638.571350,742.618896 
	C602.973816,736.199890 567.298401,730.212708 531.703857,723.777710 
	C504.608246,718.879150 477.597443,713.512451 450.512482,708.552856 
	C447.768921,708.050415 444.254883,708.005127 441.978912,709.297852 
	C425.008789,718.937378 406.878113,723.152954 387.452881,722.108643 
	C385.789124,722.019165 384.122040,721.992310 381.571411,721.889709 
	C377.765076,715.953674 376.690735,710.226074 379.535706,703.675232 
	C380.854736,700.638000 380.107117,696.440125 379.523285,692.895813 
	C378.392029,686.028198 376.713593,679.250732 375.245422,672.358582 
	C370.766571,670.021301 366.194641,667.999329 362.005005,665.368530 
	C354.679688,660.768738 352.924255,654.791016 355.962891,646.577087 
	C358.930634,638.554749 356.610413,633.555664 348.513092,632.480103 
	C344.235504,631.911865 342.084778,629.545044 339.842133,626.630005 
	C335.768646,621.335327 331.475922,616.305847 323.602417,615.142944 
	C326.119507,606.014038 321.866028,599.672241 316.584595,593.451660 
	C312.288208,588.391357 308.542053,582.841248 304.800720,577.339172 
	C301.555298,572.566284 299.322083,567.082458 301.266602,561.448242 
	C303.173431,555.923340 302.934326,550.756592 302.768585,545.056702 
	C302.573242,538.340271 302.555054,532.159607 299.148376,526.126404 
	C298.209320,524.463379 298.888397,521.632935 299.379517,519.463684 
	C300.847992,512.977539 297.064087,507.931671 294.710602,502.618286 
	C294.046082,501.118042 290.709198,499.717865 288.881561,500.015198 
	C282.883026,500.990997 277.828644,499.049194 272.548157,496.741516 
	C269.284363,495.315186 265.533966,494.795654 261.942566,494.368134 
	C254.247650,493.452118 251.082092,490.801483 250.363556,483.535156 
	C248.866180,468.392731 243.606171,453.639648 245.640656,438.128326 
	C245.725082,437.484497 245.747375,436.687195 245.448471,436.159912 
	C239.704269,426.026978 237.829376,415.320801 240.122208,403.824890 
	C240.386780,402.498383 239.263168,400.588104 238.268600,399.367889 
	C232.447327,392.225769 225.774948,385.670654 220.719894,378.036682 
	C213.788177,367.568695 207.993729,356.342651 201.814240,345.383759 
	C199.065567,340.509247 196.899460,335.277313 193.858551,330.604858 
	C190.977066,326.177399 187.064896,322.431702 184.033081,318.088074 
	C180.886963,313.580688 177.289230,311.408112 171.477219,312.017487 
	C162.933029,312.913269 161.497574,311.550903 160.404144,303.428192 
	C158.837723,291.791687 156.959839,280.465759 146.570862,272.661316 
	C145.173965,271.611908 144.808716,267.748810 145.452881,265.643707 
	C152.571854,242.379456 152.042007,218.399933 152.166656,194.529297 
	C152.207993,186.614563 150.284348,178.709396 149.764328,170.766800 
	C149.130188,161.081589 154.461472,154.914093 164.294876,153.730087 
	C170.535980,152.978622 176.842682,152.379089 183.120102,152.377975 
	C542.091492,152.314819 901.062866,152.321701 1260.034302,152.321701 
	C1264.263550,152.321701 1268.492676,152.321701 1273.211304,152.321701 
	C1265.373291,136.220444 1270.260864,132.382462 1281.558960,128.774765 
	C1280.951416,122.596802 1284.198608,119.280388 1290.504883,118.983475 
	C1296.417725,118.705109 1300.104248,114.847847 1303.656128,110.853630 
	C1306.659424,107.476212 1309.921997,105.653816 1314.798096,105.525719 
	C1325.304688,105.249718 1334.511230,103.515175 1339.487061,91.343849 
	C1342.215210,84.670792 1350.154541,80.799004 1358.985474,82.660500 
	C1362.366699,83.373215 1366.043457,82.777962 1369.579956,82.637466 
	C1374.808960,82.429741 1379.892090,81.270576 1384.589111,85.611183 
	C1386.918579,87.763916 1391.074463,87.940308 1396.308960,89.623306 
	C1394.983154,86.671486 1394.763794,85.445183 1394.042969,84.711609 
	C1391.521606,82.145508 1391.043213,79.305244 1393.514771,76.774323 
	C1396.325806,73.895935 1400.071167,73.248711 1403.587402,75.375832 
	C1408.885864,78.581192 1413.648804,82.797340 1419.179199,85.464828 
	C1427.463867,89.460861 1436.354248,91.173119 1445.393799,87.602646 
	C1448.156128,86.511589 1451.551270,85.528877 1453.198730,83.379234 
	C1458.948242,75.876884 1466.678223,78.173706 1475.244019,77.911232 
	C1476.877319,102.913834 1472.650635,127.625771 1474.420044,153.588959 
	C1552.203613,153.669022 1630.064331,153.749176 1708.829712,153.987061 
	C1710.179077,157.406631 1709.965820,161.102966 1714.511230,161.769745 
	C1719.560791,162.510452 1721.387329,166.343567 1723.280273,170.388275 
	C1725.345093,174.800018 1726.969360,179.820877 1733.243530,180.216949 
	C1734.284790,180.282684 1735.384521,181.584106 1736.211792,182.529373 
	C1742.035400,189.183701 1742.014771,189.201721 1749.159180,190.181732 
	C1751.847168,193.547119 1754.520996,196.217255 1756.339966,199.379242 
	C1757.894775,202.082321 1759.306396,205.352432 1759.296387,208.366852 
	C1759.277588,214.068695 1759.688110,219.330032 1762.773071,224.396317 
	C1763.980347,226.378815 1763.834229,229.356339 1763.811279,231.876266 
	C1763.778198,235.539001 1763.023560,239.155975 1767.087036,241.554520 
	C1768.093750,242.148712 1768.693970,244.254410 1768.662109,245.646576 
	C1768.502808,252.591858 1773.923462,281.511688 1776.690186,287.304230 
	C1777.108154,288.178955 1777.535034,289.049347 1778.190796,290.402618 
	C1777.163330,291.184540 1776.153564,292.606201 1775.232300,292.551025 
	C1767.693481,292.099731 1761.538208,296.647522 1754.538208,298.105927 
	C1752.595215,298.510803 1750.972412,300.336121 1749.137085,301.396301 
	C1744.583984,304.026550 1740.353027,302.137085 1740.094971,296.884796 
	C1739.901855,292.953491 1740.025879,288.996552 1735.200439,288.595795 
	C1730.692017,288.221375 1727.103760,291.313263 1726.610596,295.454407 
	C1725.917603,301.272675 1724.741577,306.546448 1721.983032,311.843689 
	C1720.493286,314.704681 1721.717896,318.979187 1721.717896,322.923431 
	C1723.816162,323.922302 1725.490601,325.015350 1727.327515,325.543213 
	C1735.925537,328.013947 1743.121948,331.712341 1745.849487,341.380524 
	C1746.518921,343.753418 1750.031006,345.386871 1752.349609,347.216614 
	C1755.453003,349.665833 1756.440674,352.646729 1754.060913,355.886353 
	C1750.860718,360.243073 1747.264404,364.308838 1742.152344,370.561127 
	C1741.242065,375.847076 1739.776245,383.949371 1738.472046,392.077576 
	C1737.598267,397.522675 1739.820557,400.145233 1746.217163,401.440918 
	C1751.068970,402.423676 1756.020264,403.005646 1760.791382,404.276367 
	C1771.840210,407.219025 1774.924194,417.806854 1767.344604,426.111908 
	C1765.364624,428.281433 1763.442017,430.503326 1761.162231,433.074371 
	C1772.040039,445.620087 1770.124268,460.825836 1770.567139,475.127625 
	C1770.745239,480.878113 1773.062622,484.313110 1775.718262,488.330292 
	C1777.141113,490.482635 1779.881470,492.675171 1779.794556,494.756165 
	C1779.426270,503.561432 1785.807007,509.157776 1789.330444,515.963867 
	C1793.061768,523.171631 1792.947388,526.260864 1785.840820,530.325806 
	C1781.522827,532.795593 1777.363525,535.557373 1772.960938,537.858643 
	C1770.707764,539.036316 1768.124512,539.749146 1765.606079,540.222107 
	C1757.722778,541.702393 1755.552368,543.735413 1755.983398,551.328369 
	C1756.217041,555.443604 1756.876709,559.267822 1753.223267,562.272278 
	C1752.764526,562.649536 1752.312866,563.534851 1752.435547,564.046021 
	C1754.949951,574.512817 1747.068848,579.504639 1741.268921,585.661316 
	C1740.027832,586.978638 1739.420776,588.893005 1737.863403,591.732666 
	C1752.900391,590.183655 1761.779541,597.190063 1767.997314,608.765015 
	C1768.835083,610.324524 1771.017090,611.321899 1772.765747,612.205322 
	C1782.175293,616.959290 1791.600464,621.687378 1801.109985,626.236877 
	C1806.846924,628.981506 1813.309448,630.750671 1811.008911,639.649658 
	C1810.546387,641.438660 1812.372925,643.940979 1813.415405,645.975342 
	C1817.016357,653.002686 1818.981934,660.054199 1813.740601,667.634827 
	C1819.643188,673.088135 1820.864502,679.418823 1818.386353,686.763977 
	C1817.575073,689.168762 1817.663086,692.105408 1818.113770,694.662476 
	C1819.249023,701.102051 1823.889771,703.842957 1829.848389,701.048401 
	C1836.863525,697.758240 1843.673340,697.346985 1851.104980,699.211365 
	C1857.669800,700.858337 1861.025024,698.746704 1864.112427,692.480347 
	C1869.004028,682.552124 1879.341187,677.522827 1889.867676,678.693481 
	C1893.738647,679.124023 1898.236206,677.586060 1901.869507,675.781311 
	C1911.615112,670.940369 1916.286499,672.132263 1922.063721,681.686523 
	C1927.386108,690.488647 1932.725708,699.289062 1938.395752,707.866760 
	C1939.960693,710.234253 1942.705444,711.836426 1944.958740,713.730652 
	C1947.725708,716.056824 1951.119263,717.887085 1953.236450,720.691040 
	C1960.391113,730.166443 1966.447266,740.540283 1974.161865,749.504944 
	C1982.133911,758.768677 1991.470947,766.873291 2000.364014,775.323914 
	C2007.048340,781.675903 2013.811035,787.966125 2020.839233,793.929810 
	C2027.912109,799.931152 2034.653564,806.978577 2042.827271,810.849731 
	C2051.708984,815.056030 2055.942139,823.082153 2062.687744,828.888916 
	C2065.397217,831.221130 2068.108643,834.009888 2071.330566,835.171387 
	C2075.345215,836.618530 2077.404053,838.974609 2078.144287,842.819153 
	C2079.258545,848.607605 2081.057373,853.628540 2085.595947,858.140869 
	C2088.878418,861.404541 2089.620117,867.115051 2091.886963,871.533081 
	C2095.756592,879.075195 2099.638672,886.644043 2104.127197,893.818970 
	C2105.929688,896.699829 2109.348389,898.569580 2112.505615,901.311340 
	C2110.216553,904.365295 2108.303467,906.917725 2106.031494,909.948975 
	C2107.767334,913.083984 2109.763428,916.132385 2111.188232,919.427734 
	C2112.463623,922.377319 2113.908447,925.609497 2113.868164,928.698608 
	C2113.782715,935.296692 2116.633789,939.421204 2123.165771,942.043213 
	C2123.974854,943.904785 2124.840576,946.218140 2124.050781,947.200806 
	C2121.355713,950.552856 2118.078125,953.436340 2115.629639,955.890320 
	C2117.192383,958.620850 2118.461182,960.838013 2119.764893,963.622070 
	C2119.600342,964.240906 2119.400879,964.292786 2119.201660,964.344666 
	C2119.311768,964.399536 2119.430908,964.513000 2119.530273,964.497803 
	C2119.780273,964.459717 2120.021973,964.363647 2120.266846,964.290771 
	C2124.057129,968.959595 2121.117920,972.696533 2117.397217,974.182922 
	C2107.070312,978.308594 2101.724854,987.839722 2093.739990,994.440369 
	C2092.504395,995.461914 2091.699951,997.566284 2090.399170,997.860962 
	C2078.042969,1000.660645 2070.880371,1010.633850 2062.381348,1018.477966 
	C2059.029053,1021.572083 2056.326172,1023.411499 2052.127197,1022.320984 
	C2045.112671,1020.499207 2039.190430,1023.178040 2033.204956,1026.217407 
	C2029.270752,1028.214966 2025.134033,1029.813599 2019.677002,1032.210571 
	C2015.226562,1041.128540 2015.286255,1041.555176 2023.349854,1047.492188 
	C2021.335205,1054.260376 2019.270386,1061.196899 2016.762573,1069.622192 
	C2017.421753,1070.459229 2019.210327,1072.730469 2021.063965,1075.084106 
	C2017.015015,1077.623779 2015.250854,1081.287720 2016.991333,1085.874390 
	C2017.545410,1087.334717 2019.750977,1089.426147 2020.830078,1089.226318 
	C2028.151001,1087.871094 2030.562866,1094.039917 2031.988892,1098.138306 
	C2033.983643,1103.872070 2037.229126,1106.604370 2042.419067,1108.386597 
	C2046.541870,1109.802612 2053.313965,1122.362061 2051.940186,1126.312256 
	C2051.227783,1128.360596 2049.360840,1130.007324 2047.095459,1133.085693 
	C2048.140381,1136.487305 2049.739746,1141.541992 2044.206177,1146.697510 
	C2041.753174,1148.982666 2043.005005,1155.244263 2042.551147,1159.949829 
	C2047.279907,1162.505005 2052.395020,1164.013672 2053.845459,1170.244507 
	C2054.731934,1174.053955 2058.355469,1175.890869 2062.965820,1173.786987 
	C2064.660400,1178.410400 2066.217285,1182.658203 2067.838135,1187.080688 
	C2066.006836,1187.525146 2064.196777,1187.964478 2062.972168,1188.261841 
	C2065.222656,1194.917114 2067.739014,1201.253662 2069.354980,1207.812012 
	C2069.837402,1209.770996 2067.799316,1212.350830 2066.903076,1214.679932 
	C2071.002197,1222.336182 2075.510742,1230.056396 2074.793213,1239.447632 
	C2073.985352,1250.021973 2074.358398,1252.644653 2063.363037,1255.024048 
	C2061.916504,1258.572021 2060.460449,1262.142822 2058.842285,1266.112305 
	C2049.521729,1263.091064 2041.433838,1264.128418 2036.188110,1269.750977 
	C2034.612549,1278.770020 2033.328491,1286.119751 2032.110596,1293.091064 
	C2017.723145,1297.575073 2017.359009,1298.075928 2019.163696,1309.522339 
	C2014.381226,1312.992310 2009.750488,1316.352295 2003.673462,1319.998047 
	C1991.086182,1318.626587 1979.831787,1317.510010 1968.828247,1315.198364 
	C1946.754150,1310.560791 1924.839844,1305.168579 1902.819336,1300.269043 
	C1846.477417,1287.732788 1790.110840,1275.307007 1733.758911,1262.815186 
	C1696.187622,1254.486572 1658.607422,1246.197144 1621.062744,1237.750000 
	C1584.165771,1229.448730 1547.324585,1220.897949 1510.411743,1212.668335 
	C1506.222534,1211.734131 1503.200317,1210.308960 1500.939331,1206.449585 
	C1494.320068,1195.150879 1481.729858,1194.533203 1471.127075,1190.387817 
	C1462.872314,1193.731689 1454.736206,1189.270386 1446.520996,1190.013916 
z"/>
<path data-name="Ngoura" fill="#54AFD5" opacity="1.000000" stroke="none" 
	d="
M1446.780273,1190.613525 
	C1454.736206,1189.270386 1462.872314,1193.731689 1471.127075,1190.387817 
	C1481.729858,1194.533203 1494.320068,1195.150879 1500.939331,1206.449585 
	C1503.200317,1210.308960 1506.222534,1211.734131 1510.411743,1212.668335 
	C1547.324585,1220.897949 1584.165771,1229.448730 1621.062744,1237.750000 
	C1658.607422,1246.197144 1696.187622,1254.486572 1733.758911,1262.815186 
	C1790.110840,1275.307007 1846.477417,1287.732788 1902.819336,1300.269043 
	C1924.839844,1305.168579 1946.754150,1310.560791 1968.828247,1315.198364 
	C1979.831787,1317.510010 1991.086182,1318.626587 2003.100830,1320.454590 
	C2003.974365,1324.807251 2003.974365,1328.989014 2003.974365,1334.404663 
	C2000.710083,1331.922241 1998.297729,1330.087646 1994.881714,1327.489868 
	C1994.881714,1331.111450 1994.881714,1333.513916 1994.881714,1335.385498 
	C1991.138184,1338.155762 1986.526978,1340.102783 1984.378418,1343.574097 
	C1982.273193,1346.975708 1982.674927,1351.928955 1981.759277,1357.528076 
	C1982.169312,1357.370239 1980.952881,1358.312134 1979.869019,1358.178711 
	C1972.889648,1357.318604 1968.815308,1361.305542 1965.151733,1366.372437 
	C1962.532715,1369.994629 1960.840576,1374.613281 1954.859009,1374.632690 
	C1953.474854,1374.637085 1952.102417,1378.246826 1950.383545,1380.680298 
	C1948.641602,1379.513428 1946.782227,1378.267822 1945.006592,1377.078247 
	C1945.885986,1366.667236 1945.329102,1365.638550 1937.199097,1362.843384 
	C1936.359863,1364.152100 1935.451416,1365.516357 1934.598267,1366.914429 
	C1933.749634,1368.305298 1932.956543,1369.730103 1931.783447,1371.753906 
	C1930.166016,1371.079590 1928.607544,1370.738892 1927.425171,1369.880127 
	C1923.647095,1367.135498 1921.499023,1368.611572 1919.786133,1372.322754 
	C1915.480103,1381.651489 1908.129761,1383.198730 1901.008545,1376.361450 
	C1897.292480,1372.793579 1892.703613,1372.776978 1888.005615,1376.844849 
	C1885.011963,1379.436890 1882.693237,1382.804199 1879.722168,1385.427856 
	C1877.533325,1387.360840 1874.778809,1388.653320 1871.180786,1390.921753 
	C1867.594360,1402.534912 1863.600464,1415.723145 1859.394043,1428.843384 
	C1858.668579,1431.105957 1857.041016,1433.079346 1855.632202,1435.530273 
	C1856.205444,1436.466064 1857.202515,1438.093750 1857.996338,1439.389526 
	C1855.263794,1442.081055 1852.170898,1444.088989 1850.619141,1446.936646 
	C1848.934570,1450.028076 1848.684082,1453.900879 1847.825317,1457.363770 
	C1824.005371,1460.709961 1800.672485,1456.622803 1776.569092,1454.275757 
	C1777.437744,1457.114014 1778.078491,1459.828491 1779.099976,1462.391235 
	C1780.423096,1465.710693 1780.453491,1468.431274 1778.156006,1471.629639 
	C1775.052490,1475.950195 1775.614746,1480.471069 1780.211548,1484.112549 
	C1778.683960,1489.010742 1771.072754,1491.946289 1774.704590,1496.922485 
	C1771.653198,1500.713013 1768.852905,1503.994019 1766.306152,1507.461304 
	C1765.402466,1508.691895 1764.204956,1510.885254 1764.698853,1511.768188 
	C1767.386719,1516.573120 1764.507935,1519.879028 1762.308960,1522.860962 
	C1763.465576,1530.404663 1765.724976,1536.234497 1774.495117,1536.319824 
	C1775.796265,1536.332397 1777.071289,1539.030273 1778.276611,1540.393311 
	C1773.171997,1548.769165 1773.171997,1548.769165 1783.305176,1555.637085 
	C1784.619873,1563.617920 1776.462036,1566.774170 1774.327881,1573.506836 
	C1772.192017,1573.162476 1770.028809,1572.813843 1767.161133,1572.351440 
	C1766.741211,1575.574097 1766.330566,1578.724976 1765.914673,1581.916016 
	C1765.485840,1582.243896 1764.957764,1582.965454 1764.564697,1582.898193 
	C1761.056641,1582.297363 1758.494263,1583.389160 1758.044922,1587.084595 
	C1757.593018,1590.801392 1760.443970,1593.122803 1763.371460,1593.088867 
	C1770.789917,1593.002808 1774.741211,1598.620117 1782.123657,1602.127441 
	C1770.622192,1606.772095 1769.249756,1614.065063 1774.024414,1623.281860 
	C1768.960327,1629.943359 1766.099365,1636.965454 1764.643921,1645.472900 
	C1763.040649,1654.844604 1756.920166,1663.448730 1752.724731,1672.367065 
	C1752.021362,1673.862183 1750.988647,1675.203857 1750.299194,1676.704224 
	C1745.625122,1686.874023 1745.755615,1686.174805 1735.312134,1684.491577 
	C1727.215820,1683.186768 1718.777832,1684.142090 1710.512085,1683.705444 
	C1703.305176,1683.324707 1696.872803,1684.610107 1690.906860,1689.047119 
	C1688.413574,1690.901245 1684.371216,1692.750732 1681.780884,1692.004883 
	C1674.133789,1689.802856 1667.551025,1692.569092 1660.624756,1694.473999 
	C1658.512207,1695.055054 1656.171997,1694.808105 1654.003052,1694.936401 
	C1643.284058,1712.063110 1632.531372,1729.243652 1621.161743,1747.410034 
	C1617.790527,1744.857056 1614.440186,1742.857666 1611.759277,1740.186646 
	C1604.341797,1732.795776 1595.769897,1728.423584 1585.150513,1729.809326 
	C1579.383911,1730.561890 1574.872803,1727.929565 1569.366943,1725.524658 
	C1562.115723,1721.011719 1554.489624,1718.343384 1550.378174,1710.699097 
	C1549.186523,1708.483643 1545.410156,1707.570923 1542.720337,1706.263184 
	C1525.267822,1697.778564 1510.358398,1685.765625 1496.300781,1672.629761 
	C1493.952881,1670.435913 1491.584839,1667.550171 1490.768311,1664.562622 
	C1488.143799,1654.960083 1481.534668,1649.636841 1473.088623,1645.549438 
	C1470.321777,1644.210693 1466.903076,1641.951538 1466.058838,1639.369141 
	C1464.161621,1633.566406 1460.207153,1631.830688 1456.373291,1631.738525 
	C1449.307251,1623.767212 1445.661987,1614.976318 1437.486816,1609.222534 
	C1433.234009,1606.229370 1430.935913,1600.473755 1427.709961,1595.998413 
	C1426.563599,1594.408081 1425.605225,1592.244751 1424.014893,1591.482666 
	C1412.940674,1586.176147 1405.945190,1576.074829 1396.617065,1568.765381 
	C1394.411743,1567.037109 1391.221436,1566.330566 1388.363525,1565.717041 
	C1381.490601,1564.241333 1376.138916,1560.908325 1372.602783,1554.675537 
	C1368.773682,1547.925781 1361.102295,1543.309326 1361.628418,1534.036133 
	C1361.699219,1532.787109 1358.720947,1530.987915 1356.844727,1530.094116 
	C1354.070190,1528.772461 1351.017822,1528.033936 1347.193237,1526.747681 
	C1348.979858,1523.650269 1350.588623,1521.861206 1351.078369,1519.805420 
	C1352.125610,1515.410400 1354.408081,1510.156982 1352.969116,1506.531494 
	C1348.051636,1494.142334 1349.901855,1481.582520 1350.447266,1469.091187 
	C1350.616943,1465.203125 1353.523682,1461.434570 1355.539551,1456.774048 
	C1353.315918,1455.073120 1350.803955,1453.151733 1347.442993,1450.580811 
	C1348.845459,1442.692139 1348.895874,1434.015747 1355.903931,1427.515137 
	C1357.097168,1426.408203 1358.459961,1424.990234 1358.776123,1423.509277 
	C1361.303345,1411.668335 1369.955933,1402.832397 1374.021118,1391.655273 
	C1378.650269,1378.927734 1384.770508,1366.742554 1390.244629,1354.322388 
	C1390.512451,1353.714355 1390.657471,1352.976929 1391.094849,1352.529663 
	C1400.027954,1343.395874 1403.606079,1332.422363 1401.521973,1319.375854 
	C1419.534302,1314.559937 1420.487549,1299.345215 1423.376709,1285.489258 
	C1423.789917,1283.507324 1421.956299,1281.145874 1421.610840,1278.891235 
	C1421.291260,1276.805176 1420.775635,1273.388306 1421.760254,1272.754272 
	C1423.654663,1271.535156 1427.180420,1270.764282 1428.914551,1271.756226 
	C1435.218140,1275.362305 1441.943237,1273.643921 1448.448975,1274.352661 
	C1452.175659,1274.758667 1454.779053,1273.183716 1456.710205,1270.007080 
	C1460.341675,1264.033691 1464.346436,1258.275879 1467.739502,1252.174561 
	C1469.128906,1249.676025 1469.599243,1246.555054 1469.998169,1243.650024 
	C1470.355957,1241.045044 1469.340698,1238.109619 1470.148071,1235.733398 
	C1473.388672,1226.197388 1469.219604,1217.540649 1467.609375,1208.559326 
	C1466.389038,1201.752563 1460.821289,1199.024902 1455.888672,1195.773804 
	C1453.133667,1193.958008 1450.001587,1192.714478 1446.780273,1190.613525 
z"/>
<path data-name="Diang" fill="#C062CB" opacity="1.000000" stroke="none" 
	d="
M1024.102905,1975.826904 
	C1014.688904,1976.687500 1007.203003,1973.486572 1001.928772,1965.445801 
	C1001.026855,1964.070435 999.531799,1963.075562 998.673401,1961.681641 
	C990.954773,1949.146362 978.711731,1942.890015 965.622803,1937.878662 
	C963.205322,1936.953003 960.398621,1936.183594 957.904724,1936.476196 
	C949.843140,1937.422119 941.716064,1938.391113 933.870911,1940.369141 
	C929.574158,1941.452515 926.801147,1940.604858 924.207581,1937.620117 
	C922.029541,1935.113403 919.351440,1932.777710 918.014343,1929.854248 
	C914.184448,1921.480225 907.539246,1919.486450 898.971252,1918.293823 
	C889.465027,1916.970703 879.355591,1914.952637 873.736206,1905.151001 
	C872.800598,1903.519043 871.133606,1901.510254 869.509399,1901.194458 
	C855.750854,1898.519775 846.285461,1888.339111 834.747498,1881.821289 
	C832.815308,1880.729858 830.496887,1879.938477 828.297241,1879.764893 
	C809.782837,1878.302856 791.237549,1877.215698 772.734436,1875.630859 
	C746.981445,1873.425293 721.265381,1870.791504 695.516846,1868.530273 
	C682.292603,1867.368896 669.032104,1866.620483 655.788452,1865.679932 
	C639.916626,1864.552856 623.822754,1864.676270 608.240051,1861.915405 
	C594.339722,1859.452637 580.654114,1861.191284 566.903564,1860.385742 
	C560.677429,1860.020874 554.412170,1860.323975 547.197021,1860.323975 
	C545.034424,1855.489990 542.579285,1851.236206 541.300781,1846.654053 
	C540.599915,1844.142334 540.899109,1840.257568 542.442261,1838.399902 
	C549.721558,1829.636597 549.341431,1819.829468 546.352783,1810.139526 
	C542.990295,1799.237305 545.488403,1789.638184 550.019592,1779.892944 
	C552.352661,1774.875000 554.573486,1769.635376 555.680664,1764.256226 
	C557.420105,1755.804810 559.648376,1747.728149 564.456970,1740.426758 
	C565.351501,1739.068604 565.204407,1736.664185 564.817139,1734.900879 
	C564.118713,1731.720703 563.482910,1728.260132 561.746704,1725.624268 
	C556.458740,1717.596436 560.792847,1709.245361 560.433228,1701.089111 
	C560.390808,1700.128052 562.558777,1699.069580 564.375977,1697.458984 
	C562.166504,1695.353027 560.505249,1693.361328 558.460388,1691.910522 
	C554.842163,1689.343628 553.612732,1685.695557 554.159485,1681.750244 
	C554.789001,1677.207397 558.849792,1676.747925 562.547241,1676.259033 
	C565.157837,1675.914185 567.766602,1675.555176 570.475830,1675.188965 
	C575.697937,1662.009521 564.572937,1657.345337 558.866577,1651.316406 
	C558.566650,1642.979736 557.237366,1635.430176 558.393555,1628.282837 
	C559.224609,1623.144897 559.305054,1618.150146 559.755676,1613.084839 
	C559.990601,1610.443726 562.245544,1607.602417 564.303711,1605.579834 
	C569.011780,1600.953003 570.906128,1605.697388 573.425232,1609.629639 
	C573.832703,1602.038574 576.186218,1596.769897 583.652405,1595.059204 
	C584.622620,1594.836914 584.976074,1591.922852 585.649780,1589.540283 
	C605.327271,1592.041260 625.021301,1594.976196 644.601318,1598.538452 
	C675.332336,1604.129272 705.964966,1610.260986 736.692749,1615.870728 
	C742.229492,1616.881348 746.520569,1619.116577 750.528503,1622.982300 
	C782.661743,1653.976196 814.932678,1684.827271 847.156494,1715.727173 
	C880.101807,1747.318726 913.017517,1778.941406 945.992981,1810.501343 
	C967.893250,1831.461182 989.876221,1852.334473 1012.115112,1874.523560 
	C1008.286865,1885.259521 1005.444946,1894.708984 1007.487671,1905.430420 
	C1009.932251,1918.261108 1011.180664,1931.318726 1013.000732,1944.270630 
	C1013.135193,1945.227539 1013.733765,1946.112549 1014.061584,1947.050049 
	C1017.415283,1956.640137 1020.757446,1966.234009 1024.102905,1975.826904 
z"/>
<path data-name="Bertoua I" fill="#4E8249" opacity="1.000000" stroke="none" 
	d="
M1024.606934,1976.287842 
	C1020.757446,1966.234009 1017.415283,1956.640137 1014.061584,1947.050049 
	C1013.733765,1946.112549 1013.135193,1945.227539 1013.000732,1944.270630 
	C1011.180664,1931.318726 1009.932251,1918.261108 1007.487671,1905.430420 
	C1005.444946,1894.708984 1008.286865,1885.259521 1012.576599,1875.066772 
	C1019.170654,1868.171753 1018.822815,1859.800537 1019.528259,1852.004761 
	C1020.245422,1844.080322 1019.450500,1836.023804 1020.072205,1828.084229 
	C1020.505371,1822.552246 1021.487671,1816.832153 1023.524536,1811.713379 
	C1026.312744,1804.706177 1030.890381,1798.410156 1033.670532,1791.400757 
	C1036.441284,1784.414673 1037.985718,1776.936646 1039.971313,1769.647949 
	C1040.668823,1767.087524 1041.121948,1764.457031 1041.615479,1761.845093 
	C1043.747437,1750.560669 1048.119263,1746.649292 1059.457764,1745.853394 
	C1060.769287,1745.761597 1062.062866,1745.415283 1063.981201,1744.678467 
	C1072.554688,1742.355103 1081.173584,1742.411987 1087.322266,1735.573486 
	C1088.207764,1734.588623 1090.476562,1734.235474 1091.947510,1734.492432 
	C1099.090088,1735.740356 1106.228149,1737.095215 1113.268555,1738.817871 
	C1117.479370,1739.848022 1120.141724,1742.546997 1119.932983,1747.425171 
	C1119.777100,1751.067505 1120.054932,1754.728638 1119.852051,1759.893311 
	C1114.164917,1766.018921 1112.475342,1770.906128 1115.887939,1778.019531 
	C1121.079834,1788.841553 1115.036133,1798.364136 1102.955322,1799.975464 
	C1101.402954,1800.182617 1099.917236,1800.890381 1097.135986,1801.763306 
	C1098.154297,1808.489380 1099.271729,1814.920898 1100.067871,1821.391968 
	C1100.872070,1827.928833 1101.442505,1834.498291 1101.951660,1841.066284 
	C1102.249512,1844.908203 1100.634521,1847.207642 1096.481079,1847.926880 
	C1090.303589,1848.996826 1084.229614,1850.650269 1078.079834,1851.898682 
	C1073.936035,1852.739868 1069.928955,1853.876343 1070.046997,1859.036621 
	C1070.270874,1868.837036 1068.608643,1879.501099 1071.950684,1888.181274 
	C1075.353760,1897.019775 1078.234863,1904.894409 1076.115601,1914.230713 
	C1075.771729,1915.745850 1076.629272,1917.495361 1076.676880,1919.143921 
	C1077.000854,1930.380493 1083.540161,1939.779053 1086.015503,1950.407471 
	C1086.528809,1952.612061 1089.889648,1954.153442 1091.938110,1956.000488 
	C1095.523804,1960.340332 1098.273071,1964.823853 1098.789307,1970.842773 
	C1099.126709,1974.777466 1099.993408,1979.095947 1104.308228,1981.884766 
	C1106.313721,1983.181152 1107.566528,1986.806030 1107.791504,1989.490234 
	C1108.707520,2000.421753 1106.837524,2011.032837 1103.512085,2021.503784 
	C1102.250977,2025.474731 1102.448730,2029.908936 1101.960205,2034.985107 
	C1096.815674,2034.075928 1094.861206,2029.339233 1094.162354,2025.035156 
	C1093.130981,2018.683716 1089.803345,2015.315186 1084.643188,2012.071045 
	C1076.412842,2006.896729 1069.198853,2000.055664 1060.820923,1995.181152 
	C1053.176880,1990.733643 1044.434692,1988.216919 1036.420044,1984.344849 
	C1032.371948,1982.389038 1028.863403,1979.316406 1024.606934,1976.287842 
z"/>
<path data-name="Bertoua II" fill="#AF405D" opacity="1.000000" stroke="none" 
	d="
M1091.953613,1955.231934 
	C1089.889648,1954.153442 1086.528809,1952.612061 1086.015503,1950.407471 
	C1083.540161,1939.779053 1077.000854,1930.380493 1076.676880,1919.143921 
	C1076.629272,1917.495361 1075.771729,1915.745850 1076.115601,1914.230713 
	C1078.234863,1904.894409 1075.353760,1897.019775 1071.950684,1888.181274 
	C1068.608643,1879.501099 1070.270874,1868.837036 1070.046997,1859.036621 
	C1069.928955,1853.876343 1073.936035,1852.739868 1078.079834,1851.898682 
	C1084.229614,1850.650269 1090.303589,1848.996826 1096.481079,1847.926880 
	C1100.634521,1847.207642 1102.249512,1844.908203 1101.951660,1841.066284 
	C1101.442505,1834.498291 1100.872070,1827.928833 1100.067871,1821.391968 
	C1099.271729,1814.920898 1098.154297,1808.489380 1097.135986,1801.763306 
	C1099.917236,1800.890381 1101.402954,1800.182617 1102.955322,1799.975464 
	C1115.036133,1798.364136 1121.079834,1788.841553 1115.887939,1778.019531 
	C1112.475342,1770.906128 1114.164917,1766.018921 1119.944336,1760.794434 
	C1125.459717,1759.826172 1130.377686,1756.285522 1135.829834,1759.444092 
	C1136.818848,1760.016968 1138.940063,1758.970581 1140.398071,1758.344238 
	C1149.975098,1754.229370 1161.571045,1756.934692 1166.729126,1765.165405 
	C1167.775635,1766.835327 1167.106323,1770.212646 1166.195923,1772.366699 
	C1162.379639,1781.396240 1157.910034,1790.154053 1154.230103,1799.234497 
	C1152.690186,1803.034302 1152.483887,1806.775757 1155.107910,1811.261597 
	C1160.149780,1819.880859 1158.463623,1825.078003 1151.115112,1831.338623 
	C1145.774780,1835.888428 1143.497681,1843.963623 1147.471436,1849.718140 
	C1151.297852,1855.259155 1151.289551,1860.290527 1150.219116,1866.496826 
	C1148.765869,1874.921509 1149.674316,1883.806396 1147.790894,1892.089355 
	C1145.774292,1900.957397 1141.097656,1908.221924 1131.853638,1912.804199 
	C1125.392700,1916.006714 1117.643188,1918.703003 1113.747925,1926.035522 
	C1113.179443,1927.105713 1111.907715,1928.082397 1110.743530,1928.512817 
	C1098.654663,1932.982300 1094.525513,1943.139771 1091.953613,1955.231934 
z"/>
</svg>