<svg version="1.1" id="Layer_1" xmlns="http://www.w3.org/2000/svg" xmlns:xlink="http://www.w3.org/1999/xlink" x="0px" y="0px"
	 width="100%" viewBox="0 0 2143 2532" enable-background="new 0 0 2143 2532" xml:space="preserve">

<path data-name="Mbang" fill="#B34F52" opacity="1.000000" stroke="none" 
	d="
M640.000000,2534.000000 
	C637.866394,2534.000000 635.732849,2534.000000 632.906128,2533.207031 
	C630.008606,2526.961426 625.179932,2528.088135 621.066711,2528.360840 
	C614.279602,2528.811035 609.135254,2526.629150 604.127747,2521.846680 
	C599.493225,2517.420410 600.669128,2512.439209 599.700928,2507.356689 
	C598.711914,2502.164551 595.193848,2497.456543 592.821594,2492.517822 
	C592.716492,2492.299316 593.110901,2491.883789 593.080017,2491.579834 
	C592.373962,2484.637939 586.983276,2481.008545 580.141907,2482.682129 
	C577.991089,2483.208008 575.265137,2484.204346 573.603210,2483.377197 
	C568.635193,2480.903809 563.672852,2478.103027 559.427246,2474.566895 
	C552.716370,2468.977051 546.868591,2462.732422 547.535645,2452.712646 
	C547.790100,2448.890137 546.383179,2444.886963 545.366821,2441.063477 
	C543.087891,2432.490723 540.533447,2423.991699 538.216492,2415.428467 
	C537.891541,2414.227539 537.955200,2412.721436 538.377502,2411.550781 
	C541.319580,2403.395752 539.763306,2395.928223 535.125244,2388.443604 
	C526.427185,2387.776611 521.626648,2381.895264 517.293274,2374.856689 
	C511.447845,2365.362061 504.753693,2356.637695 491.547882,2357.954590 
	C490.124084,2358.096680 487.818878,2357.336426 487.194855,2356.258301 
	C483.548553,2349.957764 476.319336,2349.108887 471.500641,2345.063965 
	C469.046814,2346.020996 466.964172,2346.833496 464.277222,2347.881592 
	C461.853577,2344.872314 459.514221,2342.156738 457.386993,2339.284180 
	C453.882843,2334.552002 450.204437,2330.832764 443.368835,2332.059570 
	C439.534760,2332.747803 435.379974,2332.361572 431.469757,2331.782959 
	C418.150482,2329.812744 404.875671,2327.541992 391.077301,2325.303711 
	C390.184723,2323.531006 389.196594,2321.464111 388.119110,2319.445068 
	C381.297974,2306.664062 373.502502,2294.816650 359.165070,2289.216309 
	C358.271149,2288.867188 357.187988,2288.302002 356.776642,2287.527344 
	C352.914001,2280.252686 348.902008,2273.178955 340.247894,2270.599609 
	C335.717377,2261.200928 326.106873,2258.985840 317.794189,2255.287354 
	C311.089569,2252.304688 302.823975,2250.208984 297.655365,2256.932129 
	C291.391937,2265.079346 283.399963,2265.396973 274.745972,2265.678223 
	C270.795959,2265.806641 266.402069,2265.362305 263.001953,2266.914062 
	C251.988327,2271.940674 241.750641,2269.679199 231.213562,2265.605225 
	C228.112823,2264.406250 224.207001,2264.327881 220.871887,2264.903809 
	C214.636169,2265.981201 208.849976,2264.452637 205.807419,2258.939941 
	C202.795639,2253.482910 200.627747,2247.560303 198.468994,2241.305420 
	C201.911560,2236.825928 205.390884,2233.133545 207.950027,2228.886475 
	C213.048386,2220.426514 216.059753,2211.092285 213.297607,2201.321289 
	C212.004807,2196.747803 213.007355,2194.029541 215.378891,2190.459961 
	C217.820404,2186.784912 219.091522,2182.332275 220.967392,2178.006104 
	C214.291733,2174.030762 209.491486,2170.098145 208.221466,2162.784912 
	C209.715698,2162.561768 210.996078,2162.040039 212.143311,2162.249268 
	C227.837189,2165.107178 235.336258,2157.882324 233.294022,2142.219971 
	C232.900604,2139.202637 233.271484,2135.383789 234.850021,2132.944336 
	C239.278336,2126.099609 240.731094,2119.610596 238.426483,2111.352783 
	C236.956360,2106.084961 235.544449,2099.189209 240.148483,2094.213135 
	C250.200317,2083.348389 257.593414,2071.017334 262.716248,2057.168457 
	C264.782776,2051.582031 267.027222,2045.906982 270.197235,2040.911011 
	C281.967041,2022.360962 294.359161,2004.272217 312.247559,1990.782349 
	C314.531372,1989.060059 316.565308,1986.492920 317.707031,1983.877319 
	C320.040405,1978.531738 321.687897,1972.886841 324.063141,1966.091431 
	C331.059082,1970.202393 333.934265,1964.669434 337.751556,1960.516113 
	C339.667175,1958.431885 342.455139,1957.169434 344.753662,1955.411255 
	C347.083923,1953.628906 349.639069,1951.979614 351.490448,1949.765869 
	C355.330719,1945.173950 358.873749,1940.320435 362.350281,1935.440063 
	C367.737366,1927.877930 372.932068,1920.179199 378.274536,1912.584839 
	C382.068695,1907.191528 386.327972,1902.089966 389.727661,1896.464233 
	C393.243591,1890.646240 392.891113,1884.650513 389.472076,1878.456421 
	C387.480377,1874.848145 386.278198,1870.427979 386.071899,1866.305542 
	C385.816193,1861.195557 390.448578,1857.086182 395.172974,1858.195068 
	C401.887115,1859.770752 408.866119,1861.490356 414.786865,1864.826050 
	C421.052612,1868.355957 426.090698,1874.010132 431.904236,1878.421021 
	C434.731720,1880.566284 438.060333,1883.377319 441.239471,1883.479492 
	C450.110931,1883.764648 458.840240,1882.894409 467.266815,1878.759888 
	C474.918365,1875.005615 483.256836,1871.700806 491.607788,1870.608521 
	C498.927948,1869.651001 506.760101,1871.644287 514.232910,1873.044678 
	C525.302185,1875.119263 536.340576,1877.497192 547.215759,1880.405518 
	C552.061951,1881.701782 555.842773,1881.060059 558.901733,1877.504639 
	C564.096436,1871.466309 570.388184,1865.807495 573.636230,1858.793213 
	C578.299011,1848.723877 586.997192,1842.706665 593.609070,1833.714355 
	C601.180725,1842.119019 607.619629,1835.092407 614.145325,1832.468384 
	C619.672729,1838.334961 611.343445,1841.581421 612.437012,1846.841431 
	C617.409546,1851.067017 622.097412,1856.783813 630.059326,1852.629761 
	C632.001953,1854.457886 633.448120,1856.471680 635.409668,1857.536743 
	C640.361877,1860.226196 645.319519,1862.401733 648.405884,1867.829956 
	C650.499634,1871.512451 655.063232,1870.935913 658.263062,1868.875732 
	C664.297852,1864.989990 670.175354,1865.433105 676.216370,1868.315186 
	C679.424561,1869.845703 682.295654,1870.738770 685.301331,1867.686523 
	C686.114563,1866.860840 688.933655,1866.596191 689.487610,1867.236816 
	C690.503845,1868.411865 690.673096,1870.429565 690.917480,1872.135864 
	C691.265686,1874.566406 690.560303,1877.528442 691.712097,1879.395142 
	C695.827332,1886.064697 699.518738,1893.564575 705.300537,1898.480347 
	C711.358337,1903.630615 719.487549,1906.521973 727.003113,1909.713989 
	C731.571106,1911.654175 735.329224,1909.465698 735.856689,1904.825806 
	C736.331055,1900.653564 737.794495,1897.527954 740.288208,1894.142822 
	C742.634460,1890.958130 744.675171,1886.815430 741.683716,1882.185913 
	C740.377930,1880.165161 740.305481,1877.131958 740.261841,1874.548584 
	C740.073303,1863.377319 737.601074,1852.895508 732.116150,1843.066895 
	C727.938354,1835.580444 729.154846,1830.748657 736.024170,1826.014771 
	C739.030396,1823.942993 742.172852,1821.983887 745.469299,1820.432251 
	C764.437622,1811.503174 783.238098,1802.159058 802.548523,1794.032104 
	C821.167969,1786.195923 837.462341,1774.854736 853.948059,1763.558960 
	C868.981262,1753.258423 884.543396,1743.729858 900.560425,1733.677612 
	C903.436462,1733.373901 906.500671,1732.260620 907.671753,1733.293579 
	C915.783997,1740.448608 925.450378,1746.162354 930.787537,1756.043701 
	C933.833862,1761.683594 938.424561,1763.455444 944.492432,1764.325317 
	C949.912476,1765.102417 955.127869,1767.579468 960.317017,1769.604980 
	C964.304871,1771.161621 968.135132,1773.133911 971.992554,1775.009521 
	C976.736206,1777.315796 982.249451,1778.832031 985.972595,1782.268677 
	C992.404236,1788.206177 999.984802,1791.831421 1007.468201,1795.844727 
	C1014.558472,1799.647461 1021.612488,1802.630249 1030.138428,1802.169556 
	C1036.817871,1801.808716 1043.908691,1802.503418 1050.271240,1804.482788 
	C1058.361084,1806.999512 1065.808350,1811.510986 1073.703979,1814.744263 
	C1080.835083,1817.664429 1083.105225,1816.612061 1086.082031,1809.604004 
	C1087.095337,1807.218384 1087.983887,1804.489014 1087.863892,1801.967407 
	C1087.517456,1794.683960 1090.019897,1788.301758 1092.937744,1781.894531 
	C1094.290771,1778.923584 1095.779907,1775.687134 1095.853516,1772.539307 
	C1095.957886,1768.077271 1098.196045,1765.347046 1100.745728,1762.126099 
	C1107.299316,1753.846924 1114.622437,1745.769165 1119.130493,1736.404053 
	C1122.908691,1728.555054 1128.380493,1725.270874 1135.728516,1724.223877 
	C1141.239746,1723.438477 1147.001465,1724.240356 1152.639160,1724.557739 
	C1159.154541,1724.924438 1165.656006,1725.535156 1173.088745,1726.111816 
	C1174.117188,1734.573120 1182.558594,1731.101440 1188.240112,1732.538940 
	C1191.983887,1740.932495 1191.999878,1740.997314 1199.873047,1739.062378 
	C1204.854614,1737.837891 1209.780029,1736.384888 1215.113037,1734.930054 
	C1214.251831,1740.292480 1211.162598,1746.628174 1213.073120,1750.490967 
	C1216.388550,1757.193848 1206.381836,1761.280518 1211.670776,1767.372070 
	C1216.286255,1768.800903 1222.371338,1767.731689 1225.282471,1773.467407 
	C1223.162476,1784.463989 1223.659668,1785.385620 1234.358521,1790.342773 
	C1240.012695,1792.962402 1241.137573,1797.000610 1236.885864,1802.072388 
	C1232.442017,1807.373169 1230.735840,1812.904907 1232.750732,1819.609009 
	C1233.192261,1821.077759 1233.182861,1822.897095 1232.755493,1824.374023 
	C1231.005859,1830.421753 1235.514404,1832.774170 1239.280151,1835.211670 
	C1242.052246,1837.005859 1245.408325,1837.898071 1249.000610,1839.399780 
	C1255.078857,1836.299438 1261.458618,1833.016968 1265.219238,1826.100708 
	C1267.141846,1822.565063 1270.729492,1820.978394 1274.640259,1822.643311 
	C1278.739014,1824.388306 1280.902588,1827.460938 1279.029419,1832.272339 
	C1278.609131,1833.351929 1278.967651,1834.734985 1278.967651,1836.179199 
	C1281.607178,1837.479736 1283.929199,1838.623657 1286.233521,1839.758911 
	C1291.083862,1836.037598 1295.600220,1832.572632 1299.840332,1829.319458 
	C1298.620483,1823.970581 1290.109863,1828.129395 1291.107178,1821.137573 
	C1299.471069,1818.764404 1307.826050,1816.393799 1316.181030,1814.023071 
	C1316.067993,1813.552246 1315.955078,1813.081421 1315.842041,1812.610474 
	C1318.816895,1813.546387 1321.791748,1814.482178 1324.710571,1815.400391 
	C1325.255981,1812.509766 1324.918213,1809.474854 1326.163696,1808.532349 
	C1331.583984,1804.430420 1337.037231,1799.283325 1344.632324,1805.049927 
	C1346.635986,1806.571411 1349.549561,1807.415039 1352.108276,1807.577271 
	C1357.425903,1807.914429 1360.494629,1811.182739 1363.350586,1814.949951 
	C1365.753418,1818.119263 1368.042603,1821.374634 1370.023682,1825.215088 
	C1367.149048,1831.830322 1364.454956,1837.754883 1362.158936,1843.829956 
	C1358.871704,1852.527466 1363.103027,1859.878052 1372.339111,1862.333618 
	C1374.117065,1862.806152 1375.689819,1864.051025 1377.636841,1865.088623 
	C1377.107910,1867.085571 1376.646973,1868.628174 1376.293213,1870.194946 
	C1374.717896,1877.173462 1371.337891,1883.898560 1375.393433,1891.420288 
	C1376.225098,1892.962646 1373.149170,1896.612061 1371.165039,1900.780640 
	C1369.872925,1895.311401 1369.079468,1891.952881 1367.840576,1886.708862 
	C1362.710815,1890.599976 1358.764648,1893.317993 1355.204102,1896.471558 
	C1354.211548,1897.350586 1353.781372,1899.637817 1354.083008,1901.070801 
	C1355.375488,1907.211182 1356.653564,1913.404785 1358.676636,1919.326294 
	C1360.552612,1924.817261 1363.600342,1929.986450 1357.683594,1935.009155 
	C1360.206787,1936.993652 1362.297485,1938.166992 1363.744019,1939.883545 
	C1366.051514,1942.621948 1368.491333,1945.487183 1369.845337,1948.729004 
	C1371.456665,1952.586792 1367.073975,1953.269409 1365.170166,1955.257568 
	C1364.752197,1955.693970 1364.426270,1956.465576 1364.467041,1957.054565 
	C1364.753174,1961.197266 1362.833984,1963.723389 1359.353760,1965.906860 
	C1357.675659,1966.959473 1356.614868,1969.591309 1356.055664,1971.713867 
	C1354.705322,1976.839355 1353.644287,1982.058716 1352.805054,1987.294556 
	C1352.336670,1990.216919 1351.810059,1993.455688 1352.584717,1996.190918 
	C1355.019775,2004.790405 1358.167480,2013.185425 1360.816284,2021.728638 
	C1362.068115,2025.766235 1363.191772,2029.915161 1363.700439,2034.095581 
	C1364.537109,2040.973389 1363.479614,2048.374512 1365.636230,2054.736084 
	C1369.717285,2066.772705 1366.774292,2077.633057 1362.079346,2088.143066 
	C1355.321411,2103.271484 1350.918701,2118.232666 1354.976440,2135.118896 
	C1356.693726,2142.265625 1359.159912,2148.205078 1364.388184,2153.242676 
	C1377.303711,2165.686768 1388.973267,2179.461426 1404.769043,2188.748291 
	C1408.060181,2190.683350 1410.990112,2194.964355 1412.004028,2198.725586 
	C1415.433838,2211.447998 1417.797119,2224.454102 1420.896362,2237.272461 
	C1421.477539,2239.676270 1423.063721,2242.730469 1425.062744,2243.728760 
	C1430.758423,2246.572266 1432.785767,2251.477783 1434.873047,2256.869629 
	C1436.148682,2260.165527 1438.425781,2263.217529 1440.777832,2265.923340 
	C1445.976562,2271.903564 1451.132324,2277.936523 1459.048096,2280.795654 
	C1461.357056,2281.629883 1463.090820,2284.155518 1464.989258,2286.007080 
	C1469.476196,2290.383545 1474.224609,2294.546875 1478.284912,2299.294189 
	C1485.531006,2307.765869 1493.859375,2307.907715 1503.479248,2304.171143 
	C1516.571899,2299.085938 1527.062744,2302.817871 1533.714966,2315.065186 
	C1537.529053,2322.087158 1542.991821,2326.048828 1550.625122,2327.687256 
	C1557.769531,2329.220947 1564.793457,2331.338623 1571.960083,2332.741211 
	C1584.284058,2335.153076 1596.510986,2337.376221 1609.356567,2336.184082 
	C1622.030640,2335.007324 1634.812988,2335.988037 1642.145508,2349.326904 
	C1642.610718,2350.173340 1643.565796,2350.734131 1644.169800,2351.522461 
	C1651.219604,2360.722168 1658.680664,2369.649902 1665.102661,2379.270508 
	C1668.540894,2384.421387 1669.590210,2391.124023 1672.782837,2396.492676 
	C1676.549683,2402.827637 1678.035278,2409.279541 1676.427979,2416.440186 
	C1670.315430,2416.855957 1665.045166,2417.314209 1659.768311,2417.676025 
	C1630.306274,2419.697021 1600.841919,2421.680176 1571.380127,2423.705322 
	C1542.582153,2425.684326 1513.787231,2427.706055 1484.989746,2429.693848 
	C1455.860718,2431.705078 1426.729614,2433.689453 1397.600342,2435.699951 
	C1368.802979,2437.687256 1340.007568,2439.700684 1311.210327,2441.688721 
	C1282.081055,2443.699707 1252.964111,2445.923828 1223.816650,2447.624023 
	C1198.966309,2449.073486 1174.118530,2450.250488 1149.438477,2453.811768 
	C1127.436523,2456.986816 1105.369873,2459.712158 1083.339478,2462.692383 
	C1056.059082,2466.383057 1028.790283,2470.158691 1001.509521,2473.846436 
	C979.478516,2476.825195 957.430237,2479.675781 935.402527,2482.677734 
	C907.794006,2486.440674 880.207031,2490.361572 852.595276,2494.100098 
	C830.896484,2497.038086 809.163513,2499.723877 787.465088,2502.664307 
	C759.853882,2506.405762 732.263977,2510.304688 704.661316,2514.109375 
	C687.577271,2516.464355 670.516968,2519.039551 653.385559,2520.983154 
	C645.111877,2521.921875 641.115051,2526.219238 640.000000,2534.000000 
z"/>

<path data-name="Ndelele" fill="#FAF56E" opacity="1.000000" stroke="none" 
	d="
M2070.340088,1968.477661 
	C2073.869385,1970.987915 2078.570801,1966.656738 2082.233398,1971.059814 
	C2084.704102,1974.030029 2087.048340,1976.411743 2086.322021,1980.489502 
	C2085.221436,1986.668945 2086.320068,1991.048828 2091.653320,1996.011230 
	C2095.741943,1999.815674 2095.864258,2007.931885 2097.629150,2014.164795 
	C2098.522705,2017.320801 2099.147949,2020.552979 2100.065186,2024.481934 
	C2102.996826,2023.358032 2104.821533,2023.158813 2105.911377,2022.158936 
	C2112.721436,2015.909668 2120.381836,2015.463257 2128.979004,2017.544556 
	C2135.386475,2019.095581 2138.733887,2020.810181 2139.428223,2027.240356 
	C2139.867432,2031.307617 2142.302490,2032.894165 2145.339844,2034.528687 
	C2146.000000,2036.133423 2146.000000,2038.266724 2145.393066,2040.611328 
	C2138.013916,2043.553101 2131.273438,2046.366089 2124.459961,2048.989258 
	C2118.302490,2051.359863 2112.208496,2054.201904 2105.815430,2055.554688 
	C2101.055176,2056.562012 2097.322510,2058.083496 2093.720459,2061.438965 
	C2090.745361,2064.210205 2086.734863,2066.509277 2082.801270,2067.494629 
	C2069.618408,2070.796875 2056.137939,2072.942627 2043.016235,2076.447754 
	C2032.483154,2079.261230 2022.085815,2082.895752 2012.078247,2087.209717 
	C2008.040161,2088.950439 2005.208862,2092.625000 1999.863525,2092.561279 
	C1993.389282,2092.483643 1990.302124,2097.568604 1988.374146,2103.241699 
	C1986.689819,2108.197510 1985.536255,2113.483643 1982.975220,2117.951660 
	C1980.077515,2123.006592 1978.621826,2127.956299 1978.054199,2133.784668 
	C1977.363159,2140.882568 1975.836914,2148.393555 1968.728149,2152.531494 
	C1964.359009,2155.074707 1963.131592,2158.725830 1963.654785,2163.422363 
	C1964.156738,2167.927979 1963.325195,2172.338135 1959.911865,2175.360352 
	C1951.625854,2182.697266 1941.729370,2188.322998 1936.014526,2198.338623 
	C1935.864990,2198.601074 1935.517944,2198.784424 1935.224976,2198.926758 
	C1925.876953,2203.463135 1918.470825,2210.491455 1911.637939,2218.047119 
	C1908.949463,2221.019775 1906.400024,2222.142090 1902.427734,2222.511230 
	C1892.335938,2223.448242 1882.646729,2225.642578 1877.746338,2236.375732 
	C1876.939331,2238.143311 1874.644165,2239.926514 1872.728760,2240.368408 
	C1865.687744,2241.992676 1858.561646,2243.492920 1851.384521,2244.227295 
	C1840.374146,2245.354492 1829.529541,2243.592285 1818.899780,2240.692383 
	C1814.773682,2239.566895 1811.626099,2239.983154 1808.033936,2243.027100 
	C1801.998779,2248.141357 1792.702881,2249.851074 1791.590576,2259.803955 
	C1791.561523,2260.064941 1791.183960,2260.331787 1790.914185,2260.514893 
	C1786.595825,2263.444092 1786.012085,2267.695068 1785.457886,2272.607178 
	C1784.547852,2280.673340 1780.059570,2287.385254 1773.574219,2292.181152 
	C1768.581909,2295.873291 1762.421631,2298.038818 1757.621216,2301.922119 
	C1753.400146,2305.336914 1750.117554,2310.031738 1746.934570,2314.525635 
	C1746.131226,2315.659668 1746.962769,2318.308350 1747.608398,2320.051514 
	C1750.606934,2328.147461 1750.392212,2330.852295 1743.588135,2335.054443 
	C1739.556763,2337.544189 1738.575806,2340.313477 1738.096680,2344.631348 
	C1737.684204,2348.349609 1736.187866,2352.516602 1733.805176,2355.328125 
	C1728.955933,2361.049805 1723.185547,2365.990967 1717.794434,2371.253662 
	C1706.801025,2371.133301 1710.777588,2383.743896 1704.134399,2387.330811 
	C1703.852661,2387.482910 1703.667725,2387.804443 1703.411499,2388.015381 
	C1697.520142,2392.870361 1692.962402,2398.592285 1690.575928,2406.030762 
	C1689.684326,2408.809814 1688.028076,2411.535889 1686.094604,2413.736572 
	C1683.894409,2416.240967 1681.437012,2419.636963 1677.267212,2416.437988 
	C1678.035278,2409.279541 1676.549683,2402.827637 1672.782837,2396.492676 
	C1669.590210,2391.124023 1668.540894,2384.421387 1665.102661,2379.270508 
	C1658.680664,2369.649902 1651.219604,2360.722168 1644.169800,2351.522461 
	C1643.565796,2350.734131 1642.610718,2350.173340 1642.145508,2349.326904 
	C1634.812988,2335.988037 1622.030640,2335.007324 1609.356567,2336.184082 
	C1596.510986,2337.376221 1584.284058,2335.153076 1571.960083,2332.741211 
	C1564.793457,2331.338623 1557.769531,2329.220947 1550.625122,2327.687256 
	C1542.991821,2326.048828 1537.529053,2322.087158 1533.714966,2315.065186 
	C1527.062744,2302.817871 1516.571899,2299.085938 1503.479248,2304.171143 
	C1493.859375,2307.907715 1485.531006,2307.765869 1478.284912,2299.294189 
	C1474.224609,2294.546875 1469.476196,2290.383545 1464.989258,2286.007080 
	C1463.090820,2284.155518 1461.357056,2281.629883 1459.048096,2280.795654 
	C1451.132324,2277.936523 1445.976562,2271.903564 1440.777832,2265.923340 
	C1438.425781,2263.217529 1436.148682,2260.165527 1434.873047,2256.869629 
	C1432.785767,2251.477783 1430.758423,2246.572266 1425.062744,2243.728760 
	C1423.063721,2242.730469 1421.477539,2239.676270 1420.896362,2237.272461 
	C1417.797119,2224.454102 1415.433838,2211.447998 1412.004028,2198.725586 
	C1410.990112,2194.964355 1408.060181,2190.683350 1404.769043,2188.748291 
	C1388.973267,2179.461426 1377.303711,2165.686768 1364.388184,2153.242676 
	C1359.159912,2148.205078 1356.693726,2142.265625 1354.976440,2135.118896 
	C1350.918701,2118.232666 1355.321411,2103.271484 1362.079346,2088.143066 
	C1366.774292,2077.633057 1369.717285,2066.772705 1365.636230,2054.736084 
	C1363.479614,2048.374512 1364.537109,2040.973389 1363.700439,2034.095581 
	C1363.191772,2029.915161 1362.068115,2025.766235 1360.816284,2021.728638 
	C1358.167480,2013.185425 1355.019775,2004.790405 1352.584717,1996.190918 
	C1351.810059,1993.455688 1352.336670,1990.216919 1352.805054,1987.294556 
	C1353.644287,1982.058716 1354.705322,1976.839355 1356.055664,1971.713867 
	C1356.614868,1969.591309 1357.675659,1966.959473 1359.353760,1965.906860 
	C1362.833984,1963.723389 1364.753174,1961.197266 1364.467041,1957.054565 
	C1364.426270,1956.465576 1364.752197,1955.693970 1365.170166,1955.257568 
	C1367.073975,1953.269409 1371.456665,1952.586792 1369.845337,1948.729004 
	C1368.491333,1945.487183 1366.051514,1942.621948 1363.744019,1939.883545 
	C1362.297485,1938.166992 1360.206787,1936.993652 1357.683594,1935.009155 
	C1363.600342,1929.986450 1360.552612,1924.817261 1358.676636,1919.326294 
	C1356.653564,1913.404785 1355.375488,1907.211182 1354.083008,1901.070801 
	C1353.781372,1899.637817 1354.211548,1897.350586 1355.204102,1896.471558 
	C1358.764648,1893.317993 1362.710815,1890.599976 1367.840576,1886.708862 
	C1369.079468,1891.952881 1369.872925,1895.311401 1371.165039,1900.780640 
	C1373.149170,1896.612061 1376.225098,1892.962646 1375.393433,1891.420288 
	C1371.337891,1883.898560 1374.717896,1877.173462 1376.293213,1870.194946 
	C1376.646973,1868.628174 1377.107910,1867.085571 1377.636841,1865.088623 
	C1375.689819,1864.051025 1374.117065,1862.806152 1372.339111,1862.333618 
	C1363.103027,1859.878052 1358.871704,1852.527466 1362.158936,1843.829956 
	C1364.454956,1837.754883 1367.149048,1831.830322 1370.763184,1825.128052 
	C1380.033813,1826.078979 1387.583740,1823.829712 1394.988281,1820.712524 
	C1398.661133,1819.166382 1402.264771,1816.374756 1405.986938,1816.217896 
	C1420.737305,1815.596313 1434.672974,1811.111206 1448.914795,1808.123291 
	C1456.043213,1806.627930 1463.431885,1805.405884 1470.011230,1802.496216 
	C1479.143188,1798.457520 1490.085205,1796.120361 1493.184448,1783.733765 
	C1496.469482,1785.224365 1499.062500,1787.245850 1501.806030,1787.476318 
	C1508.229980,1788.016113 1512.556763,1791.402466 1517.282837,1795.380249 
	C1521.704102,1799.101685 1527.655762,1801.012939 1532.952515,1803.683960 
	C1538.201538,1806.330811 1543.746094,1808.507324 1548.664307,1811.663940 
	C1554.360962,1815.319946 1553.847412,1821.579102 1552.826294,1827.271362 
	C1557.221069,1828.168457 1560.746460,1829.173218 1564.337036,1829.540283 
	C1567.880371,1829.902466 1571.489624,1829.619507 1574.937134,1829.619507 
	C1576.765747,1826.167358 1578.346436,1823.251709 1579.863770,1820.303223 
	C1582.237061,1815.690918 1585.954102,1813.791382 1591.164185,1813.640625 
	C1606.052979,1813.210205 1620.932007,1812.443237 1636.614258,1811.959229 
	C1641.963989,1812.911133 1646.514404,1813.712646 1651.064819,1814.514038 
	C1654.012085,1819.607056 1657.336792,1824.830933 1662.028809,1826.805420 
	C1670.047974,1830.179688 1676.310791,1834.551514 1681.049438,1841.949707 
	C1684.541870,1847.402100 1690.699585,1848.358398 1697.043457,1848.287231 
	C1702.078369,1848.230957 1705.092529,1846.525146 1706.595703,1841.506836 
	C1707.029541,1840.058594 1709.640503,1839.214111 1711.317993,1838.199585 
	C1713.286011,1837.009155 1716.345581,1836.424438 1717.158325,1834.727661 
	C1720.913696,1826.886108 1728.013916,1828.225830 1734.440186,1827.823608 
	C1738.338135,1827.579590 1741.753174,1829.010620 1743.317261,1832.930786 
	C1744.690430,1836.372559 1742.297485,1841.106567 1738.166992,1843.649170 
	C1737.322021,1844.169434 1736.374023,1844.521606 1735.475464,1844.955322 
	C1730.852661,1847.186401 1729.008301,1850.632446 1731.192749,1855.529053 
	C1732.784058,1859.096191 1734.438232,1862.674805 1736.481079,1865.991577 
	C1739.268188,1870.517090 1742.764893,1874.620605 1745.382568,1879.231201 
	C1748.364014,1884.482910 1751.164551,1889.550537 1756.672363,1892.837280 
	C1758.522827,1893.941650 1759.609497,1897.064941 1760.167847,1899.469238 
	C1762.711426,1910.420288 1764.789062,1921.479736 1767.351196,1932.426147 
	C1768.618164,1937.839600 1770.828369,1943.030151 1772.138428,1948.436401 
	C1773.350952,1953.439941 1773.932373,1958.596436 1774.636230,1962.765259 
	C1778.776611,1964.243408 1782.044556,1964.612427 1784.227539,1966.346924 
	C1789.627930,1970.638184 1794.819580,1975.281250 1799.564331,1980.286255 
	C1806.036377,1987.113037 1811.860474,1987.871704 1819.569702,1982.361084 
	C1823.609863,1979.473145 1827.608154,1976.135132 1832.161499,1974.442993 
	C1840.268188,1971.430054 1846.463013,1968.120117 1849.448242,1958.593994 
	C1852.827393,1947.810547 1864.005493,1947.477905 1870.717651,1956.757568 
	C1872.580200,1959.332642 1874.933960,1961.552124 1876.427490,1963.224121 
	C1881.409668,1961.862915 1885.796265,1959.050415 1888.677734,1960.157227 
	C1901.021484,1964.897949 1909.728271,1960.136597 1918.127197,1951.714722 
	C1920.706543,1949.128540 1925.487427,1946.273071 1928.406494,1946.994629 
	C1934.817993,1948.579590 1939.112793,1945.536499 1942.720459,1942.106567 
	C1947.577759,1937.488403 1952.518677,1938.744263 1957.534302,1940.139282 
	C1959.148071,1940.588135 1961.546997,1943.767090 1961.172363,1944.894165 
	C1959.023193,1951.357178 1963.152466,1955.392212 1965.420410,1960.047363 
	C1971.475586,1959.186523 1976.874268,1958.418945 1983.775391,1957.437866 
	C1983.775391,1963.420288 1983.409912,1967.986694 1983.887329,1972.463257 
	C1984.293579,1976.273804 1984.720947,1980.680054 1986.845947,1983.565674 
	C1989.857422,1987.655151 1993.302979,1991.988892 1999.553589,1992.265381 
	C2005.152100,1992.513062 2006.424438,1987.690918 2009.502441,1984.999023 
	C2015.293457,1979.934448 2024.547729,1980.795898 2028.367676,1986.867920 
	C2034.344727,1996.368652 2041.427490,1996.291992 2047.770752,1986.363647 
	C2049.900879,1983.029785 2052.208496,1981.634399 2055.985596,1982.934814 
	C2057.783691,1983.553955 2059.605957,1984.102661 2062.510986,1985.034058 
	C2063.718018,1981.055908 2064.432861,1977.565918 2065.857422,1974.394897 
	C2066.845703,1972.195190 2068.811035,1970.434448 2070.340088,1968.477661 
z"/>

<path data-name="Ndem-Nam" fill="#419E3A" opacity="1.000000" stroke="none" 
	d="
M899.872437,1733.861084 
	C884.543396,1743.729858 868.981262,1753.258423 853.948059,1763.558960 
	C837.462341,1774.854736 821.167969,1786.195923 802.548523,1794.032104 
	C783.238098,1802.159058 764.437622,1811.503174 745.469299,1820.432251 
	C742.172852,1821.983887 739.030396,1823.942993 736.024170,1826.014771 
	C729.154846,1830.748657 727.938354,1835.580444 732.116150,1843.066895 
	C737.601074,1852.895508 740.073303,1863.377319 740.261841,1874.548584 
	C740.305481,1877.131958 740.377930,1880.165161 741.683716,1882.185913 
	C744.675171,1886.815430 742.634460,1890.958130 740.288208,1894.142822 
	C737.794495,1897.527954 736.331055,1900.653564 735.856689,1904.825806 
	C735.329224,1909.465698 731.571106,1911.654175 727.003113,1909.713989 
	C719.487549,1906.521973 711.358337,1903.630615 705.300537,1898.480347 
	C699.518738,1893.564575 695.827332,1886.064697 691.712097,1879.395142 
	C690.560303,1877.528442 691.265686,1874.566406 690.917480,1872.135864 
	C690.673096,1870.429565 690.503845,1868.411865 689.487610,1867.236816 
	C688.933655,1866.596191 686.114563,1866.860840 685.301331,1867.686523 
	C682.295654,1870.738770 679.424561,1869.845703 676.216370,1868.315186 
	C670.175354,1865.433105 664.297852,1864.989990 658.263062,1868.875732 
	C655.063232,1870.935913 650.499634,1871.512451 648.405884,1867.829956 
	C645.319519,1862.401733 640.361877,1860.226196 635.409668,1857.536743 
	C633.448120,1856.471680 632.001953,1854.457886 630.059326,1852.629761 
	C622.097412,1856.783813 617.409546,1851.067017 612.437012,1846.841431 
	C611.343445,1841.581421 619.672729,1838.334961 614.145325,1832.468384 
	C607.619629,1835.092407 601.180725,1842.119019 593.609070,1833.714355 
	C586.997192,1842.706665 578.299011,1848.723877 573.636230,1858.793213 
	C570.388184,1865.807495 564.096436,1871.466309 558.901733,1877.504639 
	C555.842773,1881.060059 552.061951,1881.701782 547.215759,1880.405518 
	C536.340576,1877.497192 525.302185,1875.119263 514.232910,1873.044678 
	C506.760101,1871.644287 498.927948,1869.651001 491.607788,1870.608521 
	C483.256836,1871.700806 474.918365,1875.005615 467.266815,1878.759888 
	C458.840240,1882.894409 450.110931,1883.764648 441.239471,1883.479492 
	C438.060333,1883.377319 434.731720,1880.566284 431.904236,1878.421021 
	C426.090698,1874.010132 421.052612,1868.355957 414.786865,1864.826050 
	C408.866119,1861.490356 401.887115,1859.770752 395.172974,1858.195068 
	C390.448578,1857.086182 385.816193,1861.195557 386.071899,1866.305542 
	C386.278198,1870.427979 387.480377,1874.848145 389.472076,1878.456421 
	C392.891113,1884.650513 393.243591,1890.646240 389.727661,1896.464233 
	C386.327972,1902.089966 382.068695,1907.191528 378.274536,1912.584839 
	C372.932068,1920.179199 367.737366,1927.877930 362.350281,1935.440063 
	C358.873749,1940.320435 355.330719,1945.173950 351.490448,1949.765869 
	C349.639069,1951.979614 347.083923,1953.628906 344.753662,1955.411255 
	C342.455139,1957.169434 339.667175,1958.431885 337.751556,1960.516113 
	C333.934265,1964.669434 331.059082,1970.202393 324.063141,1966.091431 
	C321.687897,1972.886841 320.040405,1978.531738 317.707031,1983.877319 
	C316.565308,1986.492920 314.531372,1989.060059 312.247559,1990.782349 
	C294.359161,2004.272217 281.967041,2022.360962 270.197235,2040.911011 
	C267.027222,2045.906982 264.782776,2051.582031 262.716248,2057.168457 
	C257.593414,2071.017334 250.200317,2083.348389 240.148483,2094.213135 
	C235.544449,2099.189209 236.956360,2106.084961 238.426483,2111.352783 
	C240.731094,2119.610596 239.278336,2126.099609 234.850021,2132.944336 
	C233.271484,2135.383789 232.900604,2139.202637 233.294022,2142.219971 
	C235.336258,2157.882324 227.837189,2165.107178 212.143311,2162.249268 
	C210.996078,2162.040039 209.715698,2162.561768 208.221466,2162.784912 
	C209.491486,2170.098145 214.291733,2174.030762 220.967392,2178.006104 
	C219.091522,2182.332275 217.820404,2186.784912 215.378891,2190.459961 
	C213.007355,2194.029541 212.004807,2196.747803 213.297607,2201.321289 
	C216.059753,2211.092285 213.048386,2220.426514 207.950027,2228.886475 
	C205.390884,2233.133545 201.911560,2236.825928 197.805145,2241.096680 
	C186.704010,2234.230225 175.948318,2229.603516 163.182999,2232.113525 
	C159.634003,2232.811768 156.042831,2233.295654 154.070114,2233.617188 
	C144.904724,2227.265381 137.033005,2221.688721 128.992111,2216.367188 
	C127.767838,2215.556885 125.753250,2215.976074 124.114532,2215.751221 
	C113.962479,2214.356689 103.081558,2216.663330 94.097015,2209.179932 
	C92.428772,2207.790527 89.046394,2208.296875 86.446304,2208.217773 
	C76.983429,2207.928223 68.148933,2206.812012 61.319057,2198.752930 
	C56.903946,2193.542969 50.210663,2190.178711 43.441582,2192.485352 
	C34.557652,2195.512695 26.410669,2192.030518 17.960285,2191.614746 
	C11.063603,2191.275146 9.538797,2189.028076 9.885393,2181.895996 
	C9.996008,2179.620117 10.473515,2177.361816 10.788362,2175.057129 
	C14.084908,2174.293457 16.991545,2173.800537 19.785820,2172.941650 
	C32.305374,2169.093750 37.941380,2164.699219 35.086151,2150.377930 
	C39.190575,2144.948486 42.994980,2139.474365 47.269615,2134.395996 
	C50.944950,2130.029541 50.432541,2126.471191 47.291782,2121.943115 
	C34.014324,2102.799805 21.127876,2083.385742 7.905342,2064.203857 
	C6.616474,2062.334229 4.000131,2061.379395 1.999994,2060.000000 
	C2.000000,2058.500000 2.000000,2057.000000 2.000000,2054.750000 
	C3.988378,2053.123047 6.402764,2052.700195 7.897294,2051.297119 
	C19.297455,2040.595459 30.622084,2029.808105 41.768295,2018.842285 
	C55.543194,2005.290405 69.210228,1991.625977 82.763031,1977.851929 
	C95.832634,1964.569336 108.477074,1950.862671 121.707138,1937.744507 
	C138.948517,1920.649170 156.674484,1904.042969 173.959656,1886.990967 
	C176.900238,1884.090210 178.922577,1880.143555 180.945374,1876.448242 
	C188.435287,1862.765381 195.854095,1849.040894 203.088226,1835.221558 
	C207.672577,1826.463867 213.869751,1818.387573 214.542526,1807.884521 
	C214.668594,1805.916260 216.560608,1802.649048 218.002945,1802.434326 
	C222.902069,1801.704834 224.157043,1797.563599 226.464859,1794.621704 
	C253.150177,1760.602173 279.755157,1726.518921 306.199493,1692.312012 
	C310.231201,1687.096924 313.341400,1681.169556 317.426727,1674.702759 
	C336.088745,1671.942871 355.754974,1669.187866 375.368530,1666.098389 
	C406.178284,1661.245483 437.007263,1656.480225 467.729004,1651.110840 
	C514.480591,1642.939941 561.144104,1634.265137 607.854614,1625.857666 
	C614.366394,1624.685547 620.932739,1623.816650 628.951782,1622.385376 
	C634.371948,1622.362427 638.497742,1622.155762 642.219666,1623.282837 
	C650.798584,1625.880981 659.149719,1629.220703 667.652588,1632.083496 
	C676.218140,1634.967651 683.509766,1640.101807 687.642334,1647.794556 
	C694.208557,1660.017822 704.438721,1663.924072 717.190735,1664.053467 
	C727.452576,1664.157593 737.800232,1662.844604 747.678101,1667.412354 
	C750.184265,1668.571289 753.579468,1667.851562 756.567871,1667.915527 
	C765.884094,1668.114746 775.311462,1667.438965 784.491699,1668.649658 
	C797.929260,1670.421631 811.332642,1672.962402 824.485413,1676.239868 
	C837.349915,1679.445557 852.041748,1678.795288 861.097351,1691.464233 
	C862.966309,1694.078979 865.262756,1696.390869 867.392395,1698.815796 
	C870.438721,1702.284424 873.309143,1705.939453 876.617554,1709.139648 
	C883.696167,1715.986938 891.070435,1722.528564 898.155029,1729.369751 
	C899.199280,1730.378418 899.322876,1732.340210 899.872437,1733.861084 
z"/>

<path data-name="Mbotoro" fill="#484BB7" opacity="1.000000" stroke="none" 
	d="
M1310.739746,464.346161 
	C1310.258911,475.076782 1315.800293,481.705048 1323.824219,487.544769 
	C1334.931763,495.628510 1345.585205,504.341766 1356.322998,512.923279 
	C1358.643921,514.778137 1361.300903,516.872131 1362.413330,519.454712 
	C1365.649658,526.968201 1371.984253,528.731506 1379.009399,529.771973 
	C1381.306152,530.112183 1383.561401,530.743713 1385.861084,531.050781 
	C1391.464722,531.799072 1395.976929,534.072632 1397.605103,538.553467 
	C1403.901611,540.487976 1409.195312,542.211548 1414.552856,543.706665 
	C1416.382935,544.217346 1418.559937,544.763489 1420.256226,544.243225 
	C1426.093506,542.453064 1431.636353,542.573608 1437.633423,544.004700 
	C1441.581299,544.946777 1444.871826,545.482422 1448.093506,548.567749 
	C1450.248291,550.631348 1454.726440,551.190857 1458.050171,550.934509 
	C1467.107300,550.235779 1470.886353,552.483887 1472.172974,561.574097 
	C1472.762451,565.739075 1474.448608,568.612610 1478.234497,569.851868 
	C1484.524048,571.910828 1486.405884,576.970459 1488.053101,582.576294 
	C1498.644897,618.621033 1509.346436,654.633545 1520.010864,690.656921 
	C1521.048584,694.162598 1522.079102,697.670471 1523.153687,701.314880 
	C1519.019287,711.528625 1514.111694,721.110596 1500.859009,719.966919 
	C1498.732056,730.524414 1499.322754,739.264160 1507.414429,746.348511 
	C1510.989136,749.478210 1511.073608,754.241577 1509.592651,758.502136 
	C1507.577637,764.298889 1507.725098,769.565308 1511.517822,774.551086 
	C1512.117676,775.339478 1513.152832,776.459412 1512.950073,777.095886 
	C1509.984131,786.402588 1518.496094,793.834229 1516.875610,803.963074 
	C1513.759521,804.952209 1510.157593,806.095642 1505.778442,807.485779 
	C1508.673462,811.778137 1513.630249,816.142029 1506.694702,820.600647 
	C1506.458496,820.752502 1506.174683,821.239502 1506.254517,821.414795 
	C1509.878174,829.361267 1502.548340,835.030884 1501.063232,842.943542 
	C1481.215088,844.561646 1462.268066,845.101929 1443.351929,846.183777 
	C1432.445068,846.807678 1421.593384,848.357544 1410.708130,849.400085 
	C1394.534424,850.948975 1378.364746,852.560181 1362.171509,853.876526 
	C1348.604980,854.979431 1334.647827,854.052124 1321.497681,856.925964 
	C1293.297241,863.088745 1265.557739,871.331299 1237.528809,878.318848 
	C1220.487549,882.567139 1203.299072,886.261230 1186.086670,889.761414 
	C1181.607666,890.672119 1176.534668,890.879456 1172.188843,889.714722 
	C1165.408936,887.897644 1157.135864,889.667358 1152.263062,882.511414 
	C1154.255859,879.239380 1154.025024,873.639404 1160.624023,875.207703 
	C1161.693481,875.461853 1163.605591,872.914429 1164.869019,871.440063 
	C1167.028809,868.919678 1168.818115,866.070862 1171.064941,863.638794 
	C1174.124146,860.327087 1176.932739,856.106445 1182.682495,859.066467 
	C1183.415283,859.443665 1185.012085,858.142273 1185.979858,857.718689 
	C1182.426514,847.221802 1191.962769,841.629272 1194.455566,833.326782 
	C1195.730347,834.019836 1196.959351,834.688110 1199.194580,835.903503 
	C1198.843262,832.494324 1198.564575,829.790955 1198.220215,826.449097 
	C1202.566406,825.594543 1206.370361,825.791382 1209.596802,830.775330 
	C1205.025513,815.335083 1216.801147,811.758728 1225.879272,806.790588 
	C1225.885742,791.582886 1226.180054,791.197510 1241.023071,787.229126 
	C1237.629150,779.319641 1249.146851,773.170044 1243.099487,765.117188 
	C1248.365356,757.267090 1257.089355,757.255859 1264.226074,754.296204 
	C1265.696777,753.686340 1268.460815,756.195740 1271.163208,757.531677 
	C1272.392944,750.864807 1274.357422,745.531250 1281.584961,743.105225 
	C1284.265869,742.205322 1285.476196,736.924072 1287.422241,733.527405 
	C1285.899658,732.400635 1284.417358,731.303589 1282.641235,729.989197 
	C1284.521729,728.677368 1286.038940,727.618896 1287.208374,726.803040 
	C1285.942017,722.027344 1285.361206,717.350220 1283.442993,713.307800 
	C1281.547974,709.314087 1278.301025,705.961853 1275.439087,702.043396 
	C1277.223633,700.933899 1279.616943,699.445862 1282.161743,697.863708 
	C1280.876953,692.297119 1275.898804,688.558533 1277.485962,682.244324 
	C1277.949829,680.398499 1273.055664,677.205750 1269.953003,673.928589 
	C1272.976196,672.411499 1275.424072,671.183167 1278.169434,669.805603 
	C1277.153198,666.804932 1276.135132,663.799133 1274.933105,660.250000 
	C1269.865967,662.764709 1266.623169,660.772400 1263.738647,656.099304 
	C1261.097778,651.820740 1257.321533,648.243042 1252.793213,642.870850 
	C1253.196045,637.486145 1249.051880,628.988220 1258.576782,622.841187 
	C1257.469604,619.182068 1256.276245,615.237854 1254.990112,610.987305 
	C1257.076660,609.279114 1259.363770,607.406677 1261.896851,605.332886 
	C1260.709839,602.264893 1259.143555,599.364014 1258.501221,596.271240 
	C1257.665405,592.247253 1255.458496,590.063354 1251.850708,588.348999 
	C1245.981567,585.559937 1239.932495,582.951965 1239.309448,574.747009 
	C1239.128296,572.359802 1235.855469,570.207275 1233.784302,567.684570 
	C1231.547119,568.508850 1229.490967,569.266296 1227.655151,569.942688 
	C1222.796265,566.939514 1222.531616,558.226196 1226.769043,551.107971 
	C1225.151855,548.273010 1223.530518,545.440369 1221.418823,541.751282 
	C1228.700684,539.055908 1227.523193,532.302673 1229.222534,526.903198 
	C1231.524536,519.589233 1225.151123,517.772827 1221.003052,514.622803 
	C1222.774780,510.804840 1224.375244,506.910156 1226.393311,503.245422 
	C1227.110718,501.943024 1229.083374,500.142426 1230.073975,500.367706 
	C1238.123169,502.198212 1243.027100,495.902649 1249.017334,492.959015 
	C1253.822144,490.597809 1258.000854,489.246490 1263.005249,491.227783 
	C1267.225586,492.898590 1270.276245,491.637115 1273.606689,488.434113 
	C1281.934814,480.424927 1290.787720,472.961639 1300.004395,464.865723 
	C1303.711548,464.354980 1306.844238,464.257843 1310.739746,464.346161 
z"/>
<path data-name="Batouri" fill="#857834" opacity="1.000000" stroke="none" 
	d="
M900.560425,1733.677490 
	C899.322876,1732.340210 899.199280,1730.378418 898.155029,1729.369751 
	C891.070435,1722.528564 883.696167,1715.986938 876.617554,1709.139648 
	C873.309143,1705.939453 870.438721,1702.284424 867.392395,1698.815796 
	C865.262756,1696.390869 862.966309,1694.078979 861.097351,1691.464233 
	C852.041748,1678.795288 837.349915,1679.445557 824.485413,1676.239868 
	C811.332642,1672.962402 797.929260,1670.421631 784.491699,1668.649658 
	C775.311462,1667.438965 765.884094,1668.114746 756.567871,1667.915527 
	C753.579468,1667.851562 750.184265,1668.571289 747.678101,1667.412354 
	C737.800232,1662.844604 727.452576,1664.157593 717.190735,1664.053467 
	C704.438721,1663.924072 694.208557,1660.017822 687.642334,1647.794556 
	C683.509766,1640.101807 676.218140,1634.967651 667.652588,1632.083496 
	C659.149719,1629.220703 650.798584,1625.880981 642.219666,1623.282837 
	C638.497742,1622.155762 634.371948,1622.362427 629.648071,1621.883301 
	C622.926086,1612.651001 616.545227,1603.749756 611.153564,1594.284912 
	C603.940247,1581.622192 593.874756,1571.220703 585.301453,1559.649902 
	C583.600403,1557.354126 582.824463,1554.319458 581.860474,1551.542603 
	C580.029480,1546.268188 578.497070,1540.888550 576.605347,1535.637207 
	C574.690308,1530.321045 571.700378,1525.913330 567.139709,1522.155396 
	C561.208496,1517.268066 559.139343,1510.563354 559.668884,1502.528198 
	C560.141052,1495.364746 558.266602,1488.071411 558.397400,1480.853027 
	C558.509583,1474.656372 558.807495,1467.992188 561.127075,1462.408813 
	C565.384521,1452.160767 566.662354,1442.545410 563.056763,1431.738525 
	C560.256287,1423.344360 558.704346,1414.387207 561.672424,1405.299438 
	C562.666626,1402.255615 562.254822,1398.700684 562.212830,1395.382812 
	C562.151184,1390.518433 563.858887,1387.032837 567.242432,1383.126709 
	C573.483215,1375.922119 575.181763,1366.803345 573.491760,1357.137085 
	C572.826172,1353.329834 572.815308,1349.306885 573.180298,1345.445923 
	C573.650269,1340.473389 573.881348,1336.216919 570.954285,1331.322998 
	C566.311890,1323.561279 571.272583,1310.039795 579.846558,1305.422729 
	C589.156860,1300.409302 599.858582,1297.462891 608.145630,1291.216431 
	C615.900452,1285.371216 623.828247,1283.813843 632.666199,1283.418823 
	C636.178406,1283.261963 639.709473,1283.553345 643.232483,1283.609863 
	C656.183655,1283.817749 669.136292,1283.950073 682.085815,1284.230713 
	C693.397339,1284.475952 702.402588,1278.795288 710.325378,1271.986694 
	C717.469482,1265.847412 725.799500,1263.247559 734.254395,1260.433838 
	C735.434204,1260.041016 737.094788,1259.928711 738.134155,1260.462646 
	C746.210144,1264.611816 754.926208,1263.227783 763.422974,1264.156982 
	C770.329285,1264.912109 776.794434,1269.031738 781.955994,1274.434082 
	C784.825500,1277.437378 788.204407,1279.954224 792.153381,1283.385132 
	C804.496582,1263.817627 816.120972,1245.389648 827.834290,1226.820679 
	C833.787231,1225.729248 840.219543,1224.554443 846.649841,1223.368652 
	C848.920959,1222.949829 851.578003,1221.523315 853.386292,1222.244019 
	C860.288025,1224.994873 865.583740,1222.046387 870.848694,1218.387817 
	C876.596069,1214.394043 883.240112,1213.252319 889.830994,1213.849731 
	C900.669373,1214.832153 911.690002,1211.693481 922.425964,1215.872803 
	C926.930298,1217.626221 929.929260,1214.118896 931.744141,1210.340942 
	C936.463257,1200.517944 941.110291,1190.654907 945.505005,1180.683838 
	C947.705322,1175.691772 950.399475,1170.949829 950.331604,1164.972900 
	C950.293762,1161.643799 952.465820,1157.894897 954.584595,1155.032959 
	C957.419373,1151.203979 957.730957,1147.890015 956.628357,1143.201294 
	C954.617188,1134.649170 957.465332,1130.026367 965.467712,1128.412842 
	C972.975037,1131.971069 978.639648,1136.933228 986.528687,1134.550537 
	C987.558594,1134.239624 989.009155,1135.328979 990.266907,1135.763916 
	C997.839478,1138.383423 1006.733704,1135.946655 1013.498474,1141.905762 
	C1014.273682,1142.588623 1016.087646,1142.235107 1017.402954,1142.135864 
	C1022.062134,1141.783447 1025.609741,1143.540039 1028.900024,1146.890137 
	C1032.437866,1150.492310 1036.715088,1152.991577 1042.271606,1152.191895 
	C1049.724365,1151.119507 1053.757324,1155.817993 1057.461182,1161.326660 
	C1061.688232,1167.613525 1066.274536,1173.659546 1070.731812,1179.790527 
	C1073.123535,1183.080322 1076.466553,1183.923096 1080.388794,1183.795776 
	C1085.040771,1183.644897 1089.712036,1184.074585 1094.362793,1183.909302 
	C1100.369385,1183.695801 1103.813110,1186.390259 1107.086426,1191.522461 
	C1113.064087,1200.894409 1116.881226,1212.056641 1127.264526,1218.210938 
	C1128.496094,1218.941040 1129.492920,1220.893188 1129.688599,1222.397217 
	C1130.406006,1227.907959 1131.572266,1233.554443 1131.011963,1238.989258 
	C1130.260498,1246.278198 1130.885864,1252.178589 1136.222778,1258.059326 
	C1140.031860,1262.256592 1142.276978,1268.289673 1143.991089,1273.880493 
	C1147.083252,1283.966187 1148.726440,1294.503052 1151.938965,1304.543091 
	C1156.431885,1318.584351 1154.145386,1332.044067 1149.728638,1345.364014 
	C1147.004761,1353.578491 1147.549438,1361.341797 1149.237427,1367.586182 
	C1155.059204,1370.431152 1159.784424,1371.683716 1163.075684,1374.570923 
	C1169.720825,1380.400146 1176.367554,1384.500610 1185.716431,1380.221558 
	C1194.305298,1393.362183 1208.603271,1397.472900 1221.048584,1404.125732 
	C1226.285156,1406.924927 1233.108398,1406.899536 1239.263794,1407.788330 
	C1243.829712,1408.447388 1249.130859,1407.226196 1252.936401,1409.151611 
	C1258.091553,1411.759644 1262.985962,1411.958374 1268.315308,1411.824463 
	C1270.586548,1411.767334 1273.179932,1411.840820 1275.103760,1412.851196 
	C1283.608765,1417.316772 1293.371216,1417.969604 1301.387817,1415.223755 
	C1314.146484,1410.854004 1327.116943,1413.103149 1339.789307,1410.705078 
	C1346.592773,1409.417725 1353.820923,1410.417358 1360.648071,1409.205444 
	C1388.422363,1404.275513 1416.146606,1399.046509 1443.822998,1393.591553 
	C1454.535522,1391.480103 1465.084839,1388.526733 1475.682739,1385.854858 
	C1480.451050,1384.652832 1485.089233,1382.839844 1489.905762,1381.946167 
	C1497.228271,1380.587646 1504.162476,1379.260376 1508.255371,1371.796387 
	C1510.637451,1367.452271 1515.084961,1365.976562 1520.114624,1365.630127 
	C1523.570312,1365.392090 1527.753906,1364.898193 1530.185791,1362.836182 
	C1535.532104,1358.303101 1541.198242,1357.537109 1547.800049,1357.903442 
	C1554.713135,1358.286743 1562.578613,1359.597290 1568.395264,1356.935181 
	C1575.232300,1353.805908 1580.902832,1354.058838 1587.455078,1355.678589 
	C1591.616455,1356.707397 1595.937744,1357.089966 1600.187256,1357.762329 
	C1602.539917,1360.932373 1605.571899,1362.099487 1609.594604,1361.848877 
	C1614.676147,1361.532349 1617.749023,1362.893433 1620.947266,1368.508911 
	C1625.885498,1377.178711 1634.194824,1383.920166 1641.018921,1391.529297 
	C1642.709839,1393.414795 1644.484253,1395.325073 1645.707642,1397.510864 
	C1648.973267,1403.346558 1652.370361,1409.040527 1659.761963,1409.967651 
	C1663.866577,1410.482422 1664.989868,1412.939087 1666.118896,1416.404053 
	C1668.025391,1422.255493 1670.634155,1427.878052 1673.243896,1434.329468 
	C1686.171997,1427.825439 1692.204956,1439.950317 1701.985352,1442.130249 
	C1701.553101,1444.826660 1701.215088,1446.934692 1700.723511,1450.000854 
	C1705.822144,1449.682495 1712.314819,1447.457764 1714.275513,1449.527100 
	C1718.575806,1454.065186 1723.059937,1450.938843 1728.355713,1452.350830 
	C1728.860596,1455.141479 1729.414062,1458.235840 1729.981323,1461.327637 
	C1731.164429,1467.777710 1733.652710,1470.857056 1740.191162,1471.651245 
	C1748.422363,1472.651001 1754.059082,1475.797119 1757.527710,1483.972290 
	C1759.450195,1488.503418 1764.360718,1491.766846 1767.750977,1496.995361 
	C1762.690430,1503.125000 1756.344727,1502.903809 1750.605591,1502.033203 
	C1739.469238,1500.343750 1732.386230,1505.657593 1726.124878,1513.663452 
	C1723.703491,1516.759644 1721.117310,1520.000977 1717.920166,1522.161255 
	C1710.455566,1527.205078 1703.894775,1532.995361 1697.551514,1539.467407 
	C1691.411499,1545.732178 1689.974976,1552.881104 1688.187988,1560.615967 
	C1684.579346,1576.235229 1688.936279,1586.633179 1705.059448,1591.926636 
	C1712.633423,1594.413208 1713.716919,1600.058350 1709.472534,1607.141968 
	C1707.348267,1610.686890 1703.741577,1613.354980 1701.685181,1616.926392 
	C1698.770386,1621.988403 1697.353882,1627.987549 1694.088501,1632.759155 
	C1684.765137,1646.383423 1675.048950,1659.748535 1662.700195,1670.952148 
	C1659.029175,1674.282593 1655.764648,1678.118286 1652.654419,1681.995483 
	C1648.626221,1687.017090 1648.418213,1692.502441 1652.547607,1697.528687 
	C1660.142822,1706.773193 1661.255859,1717.081055 1658.512817,1728.288452 
	C1655.444824,1740.824219 1652.023438,1753.199219 1646.656738,1765.025024 
	C1643.144409,1772.764648 1638.611572,1780.422974 1641.475220,1789.735718 
	C1642.066406,1791.657959 1640.713501,1794.226196 1640.111206,1796.457642 
	C1638.726685,1801.587402 1637.252686,1806.693115 1635.814941,1811.808594 
	C1620.932007,1812.443237 1606.052979,1813.210205 1591.164185,1813.640625 
	C1585.954102,1813.791382 1582.237061,1815.690918 1579.863770,1820.303223 
	C1578.346436,1823.251709 1576.765747,1826.167358 1574.937134,1829.619507 
	C1571.489624,1829.619507 1567.880371,1829.902466 1564.337036,1829.540283 
	C1560.746460,1829.173218 1557.221069,1828.168457 1552.826294,1827.271362 
	C1553.847412,1821.579102 1554.360962,1815.319946 1548.664307,1811.663940 
	C1543.746094,1808.507324 1538.201538,1806.330811 1532.952515,1803.683960 
	C1527.655762,1801.012939 1521.704102,1799.101685 1517.282837,1795.380249 
	C1512.556763,1791.402466 1508.229980,1788.016113 1501.806030,1787.476318 
	C1499.062500,1787.245850 1496.469482,1785.224365 1493.184448,1783.733765 
	C1490.085205,1796.120361 1479.143188,1798.457520 1470.011230,1802.496216 
	C1463.431885,1805.405884 1456.043213,1806.627930 1448.914795,1808.123291 
	C1434.672974,1811.111206 1420.737305,1815.596313 1405.986938,1816.217896 
	C1402.264771,1816.374756 1398.661133,1819.166382 1394.988281,1820.712524 
	C1387.583740,1823.829712 1380.033813,1826.078979 1371.121460,1824.504883 
	C1368.042603,1821.374634 1365.753418,1818.119263 1363.350586,1814.949951 
	C1360.494629,1811.182739 1357.425903,1807.914429 1352.108276,1807.577271 
	C1349.549561,1807.415039 1346.635986,1806.571411 1344.632324,1805.049927 
	C1337.037231,1799.283325 1331.583984,1804.430420 1326.163696,1808.532349 
	C1324.918213,1809.474854 1325.255981,1812.509766 1324.710571,1815.400391 
	C1321.791748,1814.482178 1318.816895,1813.546387 1315.842041,1812.610474 
	C1315.955078,1813.081421 1316.067993,1813.552246 1316.181030,1814.023071 
	C1307.826050,1816.393799 1299.471069,1818.764404 1291.107178,1821.137573 
	C1290.109863,1828.129395 1298.620483,1823.970581 1299.840332,1829.319458 
	C1295.600220,1832.572632 1291.083862,1836.037598 1286.233521,1839.758911 
	C1283.929199,1838.623657 1281.607178,1837.479736 1278.967651,1836.179199 
	C1278.967651,1834.734985 1278.609131,1833.351929 1279.029419,1832.272339 
	C1280.902588,1827.460938 1278.739014,1824.388306 1274.640259,1822.643311 
	C1270.729492,1820.978394 1267.141846,1822.565063 1265.219238,1826.100708 
	C1261.458618,1833.016968 1255.078857,1836.299438 1249.000610,1839.399780 
	C1245.408325,1837.898071 1242.052246,1837.005859 1239.280151,1835.211670 
	C1235.514404,1832.774170 1231.005859,1830.421753 1232.755493,1824.374023 
	C1233.182861,1822.897095 1233.192261,1821.077759 1232.750732,1819.609009 
	C1230.735840,1812.904907 1232.442017,1807.373169 1236.885864,1802.072388 
	C1241.137573,1797.000610 1240.012695,1792.962402 1234.358521,1790.342773 
	C1223.659668,1785.385620 1223.162476,1784.463989 1225.282471,1773.467407 
	C1222.371338,1767.731689 1216.286255,1768.800903 1211.670776,1767.372070 
	C1206.381836,1761.280518 1216.388550,1757.193848 1213.073120,1750.490967 
	C1211.162598,1746.628174 1214.251831,1740.292480 1215.113037,1734.930054 
	C1209.780029,1736.384888 1204.854614,1737.837891 1199.873047,1739.062378 
	C1191.999878,1740.997314 1191.983887,1740.932495 1188.240112,1732.538940 
	C1182.558594,1731.101440 1174.117188,1734.573120 1173.088745,1726.111816 
	C1165.656006,1725.535156 1159.154541,1724.924438 1152.639160,1724.557739 
	C1147.001465,1724.240356 1141.239746,1723.438477 1135.728516,1724.223877 
	C1128.380493,1725.270874 1122.908691,1728.555054 1119.130493,1736.404053 
	C1114.622437,1745.769165 1107.299316,1753.846924 1100.745728,1762.126099 
	C1098.196045,1765.347046 1095.957886,1768.077271 1095.853516,1772.539307 
	C1095.779907,1775.687134 1094.290771,1778.923584 1092.937744,1781.894531 
	C1090.019897,1788.301758 1087.517456,1794.683960 1087.863892,1801.967407 
	C1087.983887,1804.489014 1087.095337,1807.218384 1086.082031,1809.604004 
	C1083.105225,1816.612061 1080.835083,1817.664429 1073.703979,1814.744263 
	C1065.808350,1811.510986 1058.361084,1806.999512 1050.271240,1804.482788 
	C1043.908691,1802.503418 1036.817871,1801.808716 1030.138428,1802.169556 
	C1021.612488,1802.630249 1014.558472,1799.647461 1007.468201,1795.844727 
	C999.984802,1791.831421 992.404236,1788.206177 985.972595,1782.268677 
	C982.249451,1778.832031 976.736206,1777.315796 971.992554,1775.009521 
	C968.135132,1773.133911 964.304871,1771.161621 960.317017,1769.604980 
	C955.127869,1767.579468 949.912476,1765.102417 944.492432,1764.325317 
	C938.424561,1763.455444 933.833862,1761.683594 930.787537,1756.043701 
	C925.450378,1746.162354 915.783997,1740.448608 907.671753,1733.293579 
	C906.500671,1732.260620 903.436462,1733.373901 900.560425,1733.677490 
z"/>
<path data-name="Kette" fill="#3EACAD" opacity="1.000000" stroke="none" 
	d="
M1600.042725,1357.079102 
	C1595.937744,1357.089966 1591.616455,1356.707397 1587.455078,1355.678589 
	C1580.902832,1354.058838 1575.232300,1353.805908 1568.395264,1356.935181 
	C1562.578613,1359.597290 1554.713135,1358.286743 1547.800049,1357.903442 
	C1541.198242,1357.537109 1535.532104,1358.303101 1530.185791,1362.836182 
	C1527.753906,1364.898193 1523.570312,1365.392090 1520.114624,1365.630127 
	C1515.084961,1365.976562 1510.637451,1367.452271 1508.255371,1371.796387 
	C1504.162476,1379.260376 1497.228271,1380.587646 1489.905762,1381.946167 
	C1485.089233,1382.839844 1480.451050,1384.652832 1475.682739,1385.854858 
	C1465.084839,1388.526733 1454.535522,1391.480103 1443.822998,1393.591553 
	C1416.146606,1399.046509 1388.422363,1404.275513 1360.648071,1409.205444 
	C1353.820923,1410.417358 1346.592773,1409.417725 1339.789307,1410.705078 
	C1327.116943,1413.103149 1314.146484,1410.854004 1301.387817,1415.223755 
	C1293.371216,1417.969604 1283.608765,1417.316772 1275.103760,1412.851196 
	C1273.179932,1411.840820 1270.586548,1411.767334 1268.315308,1411.824463 
	C1262.985962,1411.958374 1258.091553,1411.759644 1252.936401,1409.151611 
	C1249.130859,1407.226196 1243.829712,1408.447388 1239.263794,1407.788330 
	C1233.108398,1406.899536 1226.285156,1406.924927 1221.048584,1404.125732 
	C1208.603271,1397.472900 1194.305298,1393.362183 1185.716431,1380.221558 
	C1176.367554,1384.500610 1169.720825,1380.400146 1163.075684,1374.570923 
	C1159.784424,1371.683716 1155.059204,1370.431152 1149.237427,1367.586182 
	C1147.549438,1361.341797 1147.004761,1353.578491 1149.728638,1345.364014 
	C1154.145386,1332.044067 1156.431885,1318.584351 1151.938965,1304.543091 
	C1148.726440,1294.503052 1147.083252,1283.966187 1143.991089,1273.880493 
	C1142.276978,1268.289673 1140.031860,1262.256592 1136.222778,1258.059326 
	C1130.885864,1252.178589 1130.260498,1246.278198 1131.011963,1238.989258 
	C1131.572266,1233.554443 1130.406006,1227.907959 1129.688599,1222.397217 
	C1129.492920,1220.893188 1128.496094,1218.941040 1127.264526,1218.210938 
	C1116.881226,1212.056641 1113.064087,1200.894409 1107.086426,1191.522461 
	C1103.813110,1186.390259 1100.369385,1183.695801 1094.362793,1183.909302 
	C1089.712036,1184.074585 1085.040771,1183.644897 1080.388794,1183.795776 
	C1076.466553,1183.923096 1073.123535,1183.080322 1070.731812,1179.790527 
	C1066.274536,1173.659546 1061.688232,1167.613525 1057.461182,1161.326660 
	C1053.757324,1155.817993 1049.724365,1151.119507 1042.271606,1152.191895 
	C1036.715088,1152.991577 1032.437866,1150.492310 1028.900024,1146.890137 
	C1025.609741,1143.540039 1022.062134,1141.783447 1017.402954,1142.135864 
	C1016.087646,1142.235107 1014.273682,1142.588623 1013.498474,1141.905762 
	C1006.733704,1135.946655 997.839478,1138.383423 990.266907,1135.763916 
	C989.009155,1135.328979 987.558594,1134.239624 986.528687,1134.550537 
	C978.639648,1136.933228 972.975037,1131.971069 966.245239,1128.373779 
	C966.187256,1126.995361 966.616455,1126.131836 967.230164,1124.897095 
	C959.929565,1122.940552 954.660950,1116.842041 946.266846,1117.153931 
	C941.932556,1117.314941 941.344482,1112.403809 941.931946,1108.538330 
	C942.458313,1105.074829 943.454651,1101.841919 948.225037,1102.904663 
	C949.144287,1103.109497 950.148254,1102.934204 951.240356,1102.934204 
	C951.607849,1099.333374 951.969177,1095.793457 952.394287,1091.628784 
	C955.164612,1091.907837 957.313354,1092.124268 959.757507,1092.370361 
	C963.133057,1087.316284 966.567078,1082.174561 970.269836,1076.630615 
	C966.670227,1074.382446 963.901611,1072.653442 960.252014,1070.374146 
	C960.688293,1067.631348 960.731628,1064.341675 961.791138,1061.420410 
	C963.291016,1057.285156 961.982727,1055.133667 958.035950,1054.293335 
	C953.666565,1053.362915 948.525269,1054.260620 948.107483,1047.179810 
	C947.846191,1042.749878 947.275574,1038.912598 948.255371,1034.097534 
	C949.952454,1025.757446 952.902588,1019.279358 958.587708,1013.125916 
	C961.126831,1010.377563 961.185913,1005.383057 962.537659,1001.465637 
	C962.954956,1000.256470 963.924011,999.237793 964.937805,997.672791 
	C960.044922,993.879089 960.734741,987.758850 962.813782,983.785828 
	C966.363403,977.002258 963.958679,971.970520 961.247253,966.372803 
	C960.852783,965.558350 960.915405,964.522461 960.659973,962.920776 
	C987.023743,965.128540 1012.901062,970.266479 1039.123657,967.033081 
	C1043.123657,961.095154 1039.450195,950.770508 1050.171509,949.000916 
	C1048.786133,945.370850 1047.538086,943.203430 1050.237671,939.063843 
	C1054.639404,932.314575 1056.495850,923.847717 1059.088623,915.994141 
	C1061.229858,909.507996 1062.744995,902.816772 1064.813965,896.304260 
	C1065.744507,893.375000 1066.088013,889.581848 1071.172974,890.476501 
	C1072.456909,890.702332 1074.348145,888.498047 1075.692505,887.144348 
	C1078.478760,884.338501 1080.923584,881.182007 1083.800537,878.480042 
	C1089.398560,873.222534 1094.346802,873.255554 1100.121704,878.256836 
	C1107.419800,884.577332 1114.604370,883.544739 1118.073853,874.951233 
	C1120.257202,869.543152 1122.647949,868.160339 1127.590576,871.313782 
	C1128.617188,871.968811 1130.093506,871.918884 1131.832153,872.295654 
	C1132.787720,870.924988 1133.739380,869.653992 1134.587402,868.317017 
	C1135.457275,866.945862 1136.225464,865.510376 1136.897095,864.347290 
	C1146.452881,864.062012 1148.973633,866.760742 1148.785034,875.590637 
	C1148.744995,877.463867 1150.465576,879.374695 1151.819092,881.889771 
	C1157.135864,889.667358 1165.408936,887.897644 1172.188843,889.714722 
	C1176.534668,890.879456 1181.607666,890.672119 1186.086670,889.761414 
	C1203.299072,886.261230 1220.487549,882.567139 1237.528809,878.318848 
	C1265.557739,871.331299 1293.297241,863.088745 1321.497681,856.925964 
	C1334.647827,854.052124 1348.604980,854.979431 1362.171509,853.876526 
	C1378.364746,852.560181 1394.534424,850.948975 1410.708130,849.400085 
	C1421.593384,848.357544 1432.445068,846.807678 1443.351929,846.183777 
	C1462.268066,845.101929 1481.215088,844.561646 1501.065430,843.674255 
	C1506.063721,843.941345 1509.271240,845.840271 1509.400024,850.127747 
	C1509.633545,857.902954 1515.133545,860.692078 1520.910034,863.351257 
	C1521.599854,866.347046 1521.510742,869.749695 1523.075073,872.005798 
	C1526.955200,877.601746 1525.935303,882.384460 1522.445679,887.526428 
	C1518.360718,893.545715 1516.357544,899.887817 1521.734131,906.335205 
	C1517.479370,910.290039 1513.674194,913.826904 1510.560547,916.720947 
	C1517.055786,926.604492 1523.418701,935.247131 1528.559814,944.563965 
	C1531.002686,948.990601 1531.509277,954.652161 1532.178467,959.846313 
	C1532.902100,965.462463 1532.910889,971.063416 1537.815796,975.170715 
	C1538.911743,976.088318 1538.983032,978.162109 1539.690918,979.623657 
	C1541.820190,984.019531 1543.501221,988.757446 1546.319092,992.668884 
	C1552.295898,1000.965149 1550.222412,1009.249939 1540.420776,1013.543945 
	C1541.088257,1016.369812 1542.170410,1019.193115 1542.317749,1022.064453 
	C1542.468628,1025.001587 1541.703125,1027.985962 1541.253174,1031.644287 
	C1547.235107,1036.100098 1549.495728,1042.698486 1549.912964,1050.229370 
	C1550.037964,1052.485229 1550.744873,1054.918823 1551.874756,1056.871826 
	C1556.179321,1064.312744 1553.968750,1073.282837 1557.811401,1080.945679 
	C1558.793823,1082.904419 1556.475830,1086.518188 1553.990845,1089.118774 
	C1555.135132,1092.564819 1556.495361,1095.959351 1557.333252,1099.478271 
	C1557.758301,1101.262817 1558.005737,1104.218506 1557.017944,1105.016602 
	C1552.601562,1108.584595 1552.724854,1113.708984 1551.266968,1118.387329 
	C1549.524048,1123.979614 1545.890137,1128.216064 1540.101074,1130.254639 
	C1538.254761,1130.905029 1536.496826,1131.806152 1534.733032,1132.577515 
	C1536.494873,1140.249268 1551.644897,1138.544434 1544.945801,1150.690796 
	C1555.680176,1152.659546 1556.819946,1159.333130 1556.428955,1167.396729 
	C1556.179077,1172.550415 1554.923950,1178.106079 1558.742676,1182.778198 
	C1559.104004,1183.220337 1559.275879,1184.088623 1559.119873,1184.641846 
	C1555.640015,1196.989502 1558.761963,1208.826782 1561.723511,1220.707886 
	C1562.187988,1222.570679 1562.598999,1224.904541 1561.896118,1226.527100 
	C1556.970825,1237.896484 1560.686157,1249.281860 1561.201538,1260.703247 
	C1561.449951,1266.212280 1560.568726,1271.933472 1559.211426,1277.309082 
	C1557.818481,1282.825562 1558.771362,1286.206543 1563.318726,1290.203979 
	C1571.675293,1297.550171 1573.457886,1308.092163 1573.723511,1318.791626 
	C1573.763062,1320.382324 1573.354126,1321.984009 1573.157349,1323.542969 
	C1587.301758,1330.605103 1593.397461,1343.662964 1600.042725,1357.079102 
z"/>
<path data-name="Bomb" fill="#F96EED" opacity="1.000000" stroke="none" 
	d="
M1636.614258,1811.959229 
	C1637.252686,1806.693115 1638.726685,1801.587402 1640.111206,1796.457642 
	C1640.713501,1794.226196 1642.066406,1791.657959 1641.475220,1789.735718 
	C1638.611572,1780.422974 1643.144409,1772.764648 1646.656738,1765.025024 
	C1652.023438,1753.199219 1655.444824,1740.824219 1658.512817,1728.288452 
	C1661.255859,1717.081055 1660.142822,1706.773193 1652.547607,1697.528687 
	C1648.418213,1692.502441 1648.626221,1687.017090 1652.654419,1681.995483 
	C1655.764648,1678.118286 1659.029175,1674.282593 1662.700195,1670.952148 
	C1675.048950,1659.748535 1684.765137,1646.383423 1694.088501,1632.759155 
	C1697.353882,1627.987549 1698.770386,1621.988403 1701.685181,1616.926392 
	C1703.741577,1613.354980 1707.348267,1610.686890 1709.472534,1607.141968 
	C1713.716919,1600.058350 1712.633423,1594.413208 1705.059448,1591.926636 
	C1688.936279,1586.633179 1684.579346,1576.235229 1688.187988,1560.615967 
	C1689.974976,1552.881104 1691.411499,1545.732178 1697.551514,1539.467407 
	C1703.894775,1532.995361 1710.455566,1527.205078 1717.920166,1522.161255 
	C1721.117310,1520.000977 1723.703491,1516.759644 1726.124878,1513.663452 
	C1732.386230,1505.657593 1739.469238,1500.343750 1750.605591,1502.033203 
	C1756.344727,1502.903809 1762.690430,1503.125000 1767.932251,1497.609009 
	C1785.837646,1503.834961 1803.546143,1510.477539 1820.869141,1518.007080 
	C1829.000122,1521.541260 1836.442505,1526.694580 1844.075562,1531.314819 
	C1846.013794,1532.487793 1848.258179,1534.121094 1849.033936,1536.071289 
	C1851.573486,1542.455566 1856.296753,1543.927979 1862.520874,1543.738892 
	C1870.995361,1543.481445 1878.463379,1546.870850 1883.577759,1553.284668 
	C1892.758301,1564.797852 1905.826050,1566.806396 1918.806763,1569.465576 
	C1919.438721,1569.594849 1920.192993,1569.695679 1920.760376,1569.475220 
	C1923.486328,1568.415771 1926.720825,1566.057373 1928.715576,1569.590820 
	C1930.852173,1573.375977 1933.470703,1578.080933 1932.889282,1581.933228 
	C1931.985596,1587.919800 1931.135864,1592.621460 1936.663330,1596.937866 
	C1938.201782,1598.139038 1940.347656,1602.002197 1936.789551,1604.688110 
	C1933.336060,1607.294922 1935.064819,1610.848511 1937.134766,1612.166748 
	C1944.681152,1616.972656 1944.793823,1625.201172 1947.525635,1632.243774 
	C1948.234619,1634.071533 1948.932739,1635.965576 1950.015503,1637.573242 
	C1952.312378,1640.983154 1953.927979,1640.518677 1956.456421,1636.596191 
	C1957.925415,1634.317139 1960.092041,1632.487793 1962.214111,1630.161133 
	C1966.122803,1635.377441 1969.552246,1639.954102 1973.157471,1644.765259 
	C1971.165894,1647.896973 1969.459717,1650.580078 1967.724854,1653.308105 
	C1970.620728,1655.528564 1971.068237,1661.686890 1977.067261,1661.343384 
	C1979.477661,1668.366699 1987.841309,1670.516602 1990.031494,1678.347412 
	C1991.624390,1684.041748 1996.476562,1688.824463 2000.024414,1694.221680 
	C1999.779663,1694.337769 1999.386108,1694.245483 1998.992432,1694.153320 
	C1999.548340,1694.569946 2000.104248,1694.986694 2000.660156,1695.403320 
	C2001.367310,1695.217163 2002.637695,1694.756836 2002.699829,1694.884399 
	C2004.712402,1699.020874 2006.608643,1703.214111 2008.794189,1707.993774 
	C2011.222168,1707.309204 2013.566162,1706.648438 2016.782593,1705.741455 
	C2016.812622,1709.257446 2016.265991,1712.946899 2019.823853,1714.810425 
	C2020.031982,1714.919556 2027.559448,1730.505493 2027.738037,1730.768433 
	C2028.619263,1732.066162 2029.782837,1733.228394 2030.402588,1734.634277 
	C2031.287354,1736.641235 2032.814941,1739.151367 2032.261475,1740.862305 
	C2030.398560,1746.620972 2031.973633,1752.140991 2032.383911,1757.750854 
	C2032.449951,1758.654785 2032.949585,1759.627075 2032.739868,1760.435791 
	C2030.369995,1769.575439 2030.457031,1769.791016 2038.993042,1772.774536 
	C2035.882324,1780.564819 2032.671875,1788.316895 2037.210205,1797.358643 
	C2035.050415,1798.688965 2032.904175,1800.010742 2029.701172,1801.983521 
	C2031.038574,1804.569458 2032.371338,1807.675659 2034.209473,1810.446289 
	C2034.968994,1811.590942 2038.076294,1812.372314 2037.979126,1812.716309 
	C2035.471680,1821.605225 2045.193848,1824.717163 2046.684570,1831.592163 
	C2046.793091,1832.092041 2046.258545,1832.924927 2045.784912,1833.318726 
	C2037.669067,1840.066772 2036.628906,1844.656860 2042.839233,1853.280518 
	C2044.798950,1856.001709 2046.622192,1858.469482 2044.961304,1861.036499 
	C2040.953613,1867.230713 2043.164795,1873.058594 2045.043457,1879.801514 
	C2046.760864,1879.478760 2048.547119,1878.791992 2050.265381,1878.932739 
	C2051.602539,1879.042236 2053.141602,1879.937134 2054.024658,1880.968018 
	C2054.467529,1881.485229 2054.018799,1883.659424 2053.337158,1884.099976 
	C2049.312988,1886.700195 2050.000977,1890.079346 2051.209229,1893.753540 
	C2051.714600,1895.290894 2052.656982,1897.420898 2052.033936,1898.469360 
	C2048.840576,1903.843750 2052.682617,1907.851196 2054.564209,1912.966064 
	C2051.698975,1916.159058 2048.676270,1919.527344 2044.652100,1924.011963 
	C2044.689819,1930.313110 2044.689697,1938.024780 2052.313232,1943.346924 
	C2053.546631,1944.208130 2053.719482,1946.767334 2054.121582,1948.599121 
	C2054.732178,1951.380615 2055.114746,1954.212158 2055.637939,1957.280151 
	C2060.210449,1957.280151 2064.071289,1957.280151 2069.174316,1957.280151 
	C2069.458740,1960.510742 2069.727783,1963.565674 2070.168457,1967.549072 
	C2068.811035,1970.434448 2066.845703,1972.195190 2065.857422,1974.394897 
	C2064.432861,1977.565918 2063.718018,1981.055908 2062.510986,1985.034058 
	C2059.605957,1984.102661 2057.783691,1983.553955 2055.985596,1982.934814 
	C2052.208496,1981.634399 2049.900879,1983.029785 2047.770752,1986.363647 
	C2041.427490,1996.291992 2034.344727,1996.368652 2028.367676,1986.867920 
	C2024.547729,1980.795898 2015.293457,1979.934448 2009.502441,1984.999023 
	C2006.424438,1987.690918 2005.152100,1992.513062 1999.553589,1992.265381 
	C1993.302979,1991.988892 1989.857422,1987.655151 1986.845947,1983.565674 
	C1984.720947,1980.680054 1984.293579,1976.273804 1983.887329,1972.463257 
	C1983.409912,1967.986694 1983.775391,1963.420288 1983.775391,1957.437866 
	C1976.874268,1958.418945 1971.475586,1959.186523 1965.420410,1960.047363 
	C1963.152466,1955.392212 1959.023193,1951.357178 1961.172363,1944.894165 
	C1961.546997,1943.767090 1959.148071,1940.588135 1957.534302,1940.139282 
	C1952.518677,1938.744263 1947.577759,1937.488403 1942.720459,1942.106567 
	C1939.112793,1945.536499 1934.817993,1948.579590 1928.406494,1946.994629 
	C1925.487427,1946.273071 1920.706543,1949.128540 1918.127197,1951.714722 
	C1909.728271,1960.136597 1901.021484,1964.897949 1888.677734,1960.157227 
	C1885.796265,1959.050415 1881.409668,1961.862915 1876.427490,1963.224121 
	C1874.933960,1961.552124 1872.580200,1959.332642 1870.717651,1956.757568 
	C1864.005493,1947.477905 1852.827393,1947.810547 1849.448242,1958.593994 
	C1846.463013,1968.120117 1840.268188,1971.430054 1832.161499,1974.442993 
	C1827.608154,1976.135132 1823.609863,1979.473145 1819.569702,1982.361084 
	C1811.860474,1987.871704 1806.036377,1987.113037 1799.564331,1980.286255 
	C1794.819580,1975.281250 1789.627930,1970.638184 1784.227539,1966.346924 
	C1782.044556,1964.612427 1778.776611,1964.243408 1774.636230,1962.765259 
	C1773.932373,1958.596436 1773.350952,1953.439941 1772.138428,1948.436401 
	C1770.828369,1943.030151 1768.618164,1937.839600 1767.351196,1932.426147 
	C1764.789062,1921.479736 1762.711426,1910.420288 1760.167847,1899.469238 
	C1759.609497,1897.064941 1758.522827,1893.941650 1756.672363,1892.837280 
	C1751.164551,1889.550537 1748.364014,1884.482910 1745.382568,1879.231201 
	C1742.764893,1874.620605 1739.268188,1870.517090 1736.481079,1865.991577 
	C1734.438232,1862.674805 1732.784058,1859.096191 1731.192749,1855.529053 
	C1729.008301,1850.632446 1730.852661,1847.186401 1735.475464,1844.955322 
	C1736.374023,1844.521606 1737.322021,1844.169434 1738.166992,1843.649170 
	C1742.297485,1841.106567 1744.690430,1836.372559 1743.317261,1832.930786 
	C1741.753174,1829.010620 1738.338135,1827.579590 1734.440186,1827.823608 
	C1728.013916,1828.225830 1720.913696,1826.886108 1717.158325,1834.727661 
	C1716.345581,1836.424438 1713.286011,1837.009155 1711.317993,1838.199585 
	C1709.640503,1839.214111 1707.029541,1840.058594 1706.595703,1841.506836 
	C1705.092529,1846.525146 1702.078369,1848.230957 1697.043457,1848.287231 
	C1690.699585,1848.358398 1684.541870,1847.402100 1681.049438,1841.949707 
	C1676.310791,1834.551514 1670.047974,1830.179688 1662.028809,1826.805420 
	C1657.336792,1824.830933 1654.012085,1819.607056 1651.064819,1814.514038 
	C1646.514404,1813.712646 1641.963989,1812.911133 1636.614258,1811.959229 
z"/>
</svg>