<svg version="1.1" id="Layer_1" xmlns="http://www.w3.org/2000/svg" xmlns:xlink="http://www.w3.org/1999/xlink" x="0px" y="0px"
	 width="100%" viewBox="0 0 2215 2546" enable-background="new 0 0 2215 2546" xml:space="preserve">

<path data-name="Touboro" fill="#BFFA5A" opacity="1.000000" stroke="none" 
	d="
M1986.489014,1508.673584 
	C1993.483154,1522.228516 2000.766724,1535.643433 2007.406250,1549.369995 
	C2018.401611,1572.101685 2028.988525,1595.031006 2039.731323,1617.884644 
	C2041.567505,1621.791016 2042.851562,1626.045288 2045.195190,1629.609741 
	C2057.124756,1647.752686 2057.393066,1667.609619 2054.647461,1688.098877 
	C2054.275879,1690.871094 2055.252441,1694.006470 2056.231689,1696.750000 
	C2071.078857,1738.348633 2085.803223,1779.994141 2101.139648,1821.412842 
	C2104.444092,1830.337402 2109.853027,1838.521729 2114.628174,1846.854736 
	C2124.212891,1863.580811 2134.252441,1880.050049 2143.621338,1896.894043 
	C2146.667480,1902.370117 2150.796143,1904.845337 2156.580078,1906.091187 
	C2176.681885,1910.420898 2196.729980,1915.000122 2217.399170,1918.742188 
	C2218.000000,1922.741089 2218.000000,1927.482300 2217.340332,1932.598633 
	C2215.118408,1936.831299 2213.555908,1940.688599 2211.616943,1945.475464 
	C2214.012695,1946.422974 2216.006348,1947.211548 2218.000000,1948.000000 
	C2218.000000,1948.888916 2218.000000,1949.777832 2217.275879,1950.814087 
	C2215.572266,1953.537842 2214.041504,1956.062256 2213.792236,1958.707397 
	C2213.603271,1960.712891 2214.282471,1963.886230 2218.000000,1962.000000 
	C2218.000000,1962.888916 2218.000000,1963.777832 2217.298828,1964.812012 
	C2213.181641,1968.179443 2214.115723,1972.043213 2215.174072,1975.822510 
	C2215.258057,1976.121948 2217.018555,1975.951904 2218.000000,1976.000000 
	C2218.000000,1984.049072 2218.000000,1992.098145 2217.379150,2000.556152 
	C2212.940918,2006.557495 2209.123535,2012.149780 2205.172852,2017.937012 
	C2208.623535,2021.914917 2211.164307,2026.918579 2207.482178,2033.133057 
	C2206.815918,2034.257812 2205.857910,2035.548340 2205.922852,2036.712646 
	C2206.329346,2044.012207 2201.381592,2047.907227 2196.548096,2051.831543 
	C2192.897949,2054.795166 2192.210693,2057.661377 2194.823242,2061.978271 
	C2199.231445,2069.262207 2197.820068,2073.229004 2190.827148,2078.291016 
	C2188.671631,2079.851318 2187.338135,2082.541504 2185.608398,2084.698486 
	C2184.847656,2085.646729 2184.109619,2087.278809 2183.239014,2087.364502 
	C2177.822021,2087.900391 2175.737061,2092.172607 2172.737793,2095.713623 
	C2169.152344,2099.946777 2165.425293,2106.013184 2160.833740,2107.006348 
	C2152.967773,2108.708008 2152.718018,2114.605713 2150.597412,2119.389648 
	C2144.237061,2121.704834 2137.306152,2122.659424 2135.314209,2130.039795 
	C2134.560059,2132.834961 2135.016113,2135.956543 2134.907715,2139.319336 
	C2130.441162,2144.181152 2121.739258,2145.735107 2120.955811,2155.019531 
	C2120.795654,2156.914307 2116.601074,2158.669189 2114.044678,2160.089844 
	C2112.414062,2160.995850 2110.375488,2161.168213 2108.765625,2161.603271 
	C2108.765625,2164.565918 2109.404541,2167.226807 2108.635010,2169.385742 
	C2106.933838,2174.157471 2104.524170,2178.676514 2102.334717,2183.448242 
	C2098.872314,2184.341797 2094.827148,2185.385254 2090.399170,2186.527832 
	C2091.057373,2196.007568 2088.439941,2203.381104 2078.834229,2206.094727 
	C2078.485352,2209.930908 2078.187744,2213.203613 2077.844238,2216.977783 
	C2068.964111,2220.633301 2064.456787,2231.371338 2053.341309,2231.817139 
	C2052.327637,2231.857666 2050.930908,2233.293213 2050.468994,2234.397461 
	C2046.957397,2242.790283 2040.752808,2248.532959 2033.244507,2253.372803 
	C2025.271606,2258.512451 2019.933838,2267.343262 2010.102661,2270.003662 
	C2008.923828,2270.322510 2007.595947,2271.246094 2006.971191,2272.274414 
	C2001.689697,2280.968262 1992.924194,2285.533691 1985.213989,2291.482178 
	C1976.815552,2297.961182 1967.694458,2303.463623 1960.247803,2311.342529 
	C1951.506714,2320.591064 1943.617310,2331.332764 1930.974731,2333.916504 
	C1928.129761,2340.233643 1926.074585,2345.806396 1923.134766,2350.865234 
	C1921.822510,2353.123047 1918.965942,2355.002930 1916.404419,2355.917480 
	C1908.775635,2358.640625 1907.935303,2359.748535 1909.663818,2367.555908 
	C1907.509888,2370.173096 1905.626953,2372.842041 1903.359375,2375.129639 
	C1899.765747,2378.755127 1896.173584,2382.470703 1892.107910,2385.517578 
	C1886.883179,2389.433105 1879.861328,2390.828125 1876.234497,2397.070312 
	C1875.432861,2398.449951 1874.021240,2400.185547 1872.661865,2400.417480 
	C1862.803345,2402.099854 1856.789429,2409.073242 1850.533203,2415.814453 
	C1849.659546,2416.755859 1848.473267,2417.431396 1847.368286,2418.129639 
	C1842.937256,2420.928955 1838.624512,2423.962646 1833.992920,2426.383545 
	C1829.606934,2428.676025 1828.636230,2435.975586 1822.688354,2435.072754 
	C1817.525269,2434.289062 1812.693481,2431.523682 1807.603271,2430.010986 
	C1801.145752,2428.092285 1796.174805,2424.662109 1794.263428,2417.950684 
	C1792.698730,2412.456787 1788.556152,2412.018066 1784.036133,2412.371094 
	C1771.088989,2413.381836 1759.766968,2418.150391 1749.807495,2426.621338 
	C1737.341919,2437.224365 1725.809814,2448.492432 1707.656982,2450.649658 
	C1697.793701,2451.821533 1688.719849,2459.477539 1679.237183,2464.100830 
	C1676.014648,2465.672119 1672.706787,2467.818848 1669.303833,2468.104492 
	C1663.268311,2468.611328 1657.318237,2468.129639 1653.602539,2474.414307 
	C1653.039062,2475.367432 1650.591675,2475.833740 1649.198975,2475.567627 
	C1641.008667,2474.001465 1636.013916,2478.163574 1631.922974,2484.477295 
	C1630.305420,2486.974121 1628.538330,2489.538574 1626.287231,2491.407227 
	C1624.509155,2492.882812 1621.285400,2494.700684 1619.742188,2494.018311 
	C1612.679810,2490.895264 1605.435547,2491.771973 1598.183105,2491.783203 
	C1594.995728,2491.788086 1591.181641,2490.442139 1588.730713,2491.742432 
	C1578.886353,2496.965576 1567.479736,2499.418945 1559.686646,2508.512451 
	C1557.292114,2511.306885 1553.083496,2512.989014 1549.381348,2514.118896 
	C1543.441406,2515.930908 1538.214722,2518.070801 1535.764771,2524.408447 
	C1535.215088,2525.830811 1533.861328,2527.569336 1532.524170,2527.963623 
	C1518.730835,2532.031982 1507.267578,2542.338379 1492.156250,2542.898193 
	C1486.591919,2543.104248 1481.035400,2543.768066 1475.503174,2544.449219 
	C1473.676392,2544.673828 1470.482544,2544.199707 1472.000000,2548.000000 
	C1460.623901,2548.000000 1449.247925,2548.000000 1436.935913,2548.000000 
	C1432.055786,2538.398682 1437.954224,2530.920654 1441.215942,2521.778076 
	C1439.188721,2518.924316 1436.551392,2515.211426 1434.431030,2510.529541 
	C1435.951050,2506.976074 1438.425537,2503.848145 1437.706055,2501.900146 
	C1434.339478,2492.783203 1432.360596,2482.946777 1424.898926,2475.662354 
	C1422.476074,2473.297119 1420.959595,2469.713867 1419.773804,2466.419189 
	C1412.923340,2447.385498 1406.890503,2428.033691 1399.398315,2409.261963 
	C1393.764404,2395.145752 1390.730469,2380.701416 1389.965088,2365.738037 
	C1389.704590,2360.644043 1388.519287,2356.777344 1384.461182,2353.682373 
	C1377.858154,2348.646240 1373.976196,2341.837158 1371.950317,2333.847168 
	C1371.558472,2332.301758 1370.965698,2330.373779 1369.805420,2329.530762 
	C1364.522461,2325.692627 1364.649292,2319.832764 1363.878296,2314.409424 
	C1362.694214,2306.080078 1352.216187,2294.637451 1344.183228,2291.041748 
	C1339.012329,2288.727295 1334.920776,2284.000977 1330.345581,2280.355713 
	C1332.202881,2276.649902 1333.794678,2272.777588 1335.985352,2269.280518 
	C1338.661987,2265.007812 1337.136597,2260.364990 1334.425171,2258.416016 
	C1327.371216,2253.345215 1325.870972,2245.119629 1321.228149,2238.844238 
	C1315.972534,2231.740967 1315.034912,2224.748291 1317.287720,2216.375244 
	C1318.888306,2210.426270 1320.142090,2203.816895 1313.522705,2199.141357 
	C1312.524414,2198.436279 1312.201538,2196.080078 1312.357178,2194.569092 
	C1312.795410,2190.310791 1313.295898,2185.998047 1314.439087,2181.892334 
	C1315.440796,2178.294189 1316.591675,2175.310059 1320.785522,2172.779541 
	C1332.637451,2165.627441 1343.602417,2156.991211 1354.819824,2148.806641 
	C1361.931396,2143.617432 1362.976807,2137.361816 1358.760010,2129.962891 
	C1356.521484,2126.034912 1354.452515,2121.884521 1353.136108,2117.580566 
	C1349.071045,2104.292236 1345.457275,2090.866211 1341.554077,2077.527100 
	C1340.244385,2073.051270 1338.437866,2069.150146 1333.913574,2066.421387 
	C1328.260376,2063.011475 1326.982788,2057.687500 1328.518921,2050.832275 
	C1331.035889,2039.600098 1332.054688,2028.040283 1334.266602,2016.728271 
	C1335.392700,2010.969116 1336.373291,2004.356934 1339.817017,2000.044922 
	C1347.299072,1990.676270 1347.808105,1981.484375 1344.921509,1970.351318 
	C1343.124023,1963.418335 1340.081543,1955.241821 1344.902588,1948.296265 
	C1348.768433,1942.726807 1348.445435,1938.019043 1343.958496,1931.900879 
	C1347.871216,1929.748291 1351.338257,1926.442749 1355.076416,1926.100464 
	C1361.228271,1925.537109 1363.108154,1921.828857 1364.045288,1917.192749 
	C1367.448608,1900.358154 1367.242310,1899.819580 1358.343994,1884.515991 
	C1357.844482,1883.656738 1357.240967,1882.858398 1356.690796,1882.028442 
	C1352.660400,1875.949341 1351.837646,1868.739746 1355.708984,1863.269409 
	C1360.969360,1855.836914 1359.072388,1849.545654 1355.686157,1842.949463 
	C1350.605835,1833.052368 1350.009399,1823.053833 1353.354736,1812.533081 
	C1355.629028,1805.381348 1356.293823,1798.318481 1350.216553,1792.272095 
	C1345.231323,1787.312256 1343.592041,1781.156860 1343.650513,1774.152832 
	C1343.700073,1768.227051 1342.631836,1762.300049 1342.286011,1756.360352 
	C1341.988892,1751.256348 1341.151611,1746.693481 1337.006714,1742.909912 
	C1332.673828,1738.954590 1329.018921,1734.256592 1325.014771,1729.824585 
	C1329.634888,1723.277832 1329.746582,1723.626343 1336.798706,1721.366455 
	C1340.706787,1720.114380 1346.056274,1718.350708 1347.488647,1715.289062 
	C1352.508667,1704.558228 1356.383667,1693.255371 1360.149902,1681.987793 
	C1362.523560,1674.886353 1363.927612,1667.460815 1365.857056,1659.822266 
	C1368.556152,1660.304565 1370.290283,1660.241821 1371.663086,1660.915527 
	C1391.619019,1670.710327 1412.905029,1677.856323 1430.781250,1691.779175 
	C1444.280762,1702.293579 1459.846802,1708.992676 1476.815430,1714.208496 
	C1483.016479,1717.240112 1489.461670,1718.900269 1494.021240,1722.777710 
	C1502.375366,1729.882690 1511.280884,1734.853394 1522.231567,1735.656860 
	C1528.531250,1736.119263 1534.864990,1736.188354 1541.185669,1736.280151 
	C1559.015625,1736.539307 1572.442017,1744.698608 1583.748779,1758.164917 
	C1591.107666,1766.929199 1598.915405,1776.299194 1608.539917,1781.978149 
	C1629.893677,1794.577881 1648.325073,1810.859375 1668.185913,1825.310425 
	C1671.216797,1827.515625 1674.813110,1828.943359 1677.959839,1830.629883 
	C1682.209717,1822.659668 1685.016602,1815.175415 1689.733398,1809.198242 
	C1694.111938,1803.649658 1699.420166,1799.043823 1701.100342,1791.731201 
	C1703.567871,1780.991699 1713.153076,1776.106567 1720.771606,1770.298218 
	C1726.343994,1766.049805 1728.499512,1761.969116 1728.293579,1755.491821 
	C1728.055176,1747.992310 1728.300537,1740.477173 1728.338989,1732.289551 
	C1739.377563,1732.289551 1748.986328,1732.327148 1758.594727,1732.279541 
	C1769.380493,1732.226074 1777.571899,1726.737671 1783.769653,1718.687866 
	C1796.983276,1701.525513 1812.641235,1687.686646 1832.775513,1679.157593 
	C1837.619629,1677.105591 1844.234741,1675.275757 1846.277588,1671.375488 
	C1850.852783,1662.640991 1853.608521,1652.886230 1857.751953,1643.801147 
	C1857.996338,1643.265137 1857.744507,1642.485229 1857.671021,1641.824585 
	C1857.088989,1636.588013 1859.706177,1633.533447 1864.545044,1632.443359 
	C1871.043335,1630.979126 1875.867554,1627.458130 1879.644531,1622.007080 
	C1883.475952,1616.477173 1888.903442,1613.680298 1895.796021,1613.640747 
	C1898.020142,1613.628052 1900.827148,1613.344727 1902.362183,1612.020020 
	C1910.859497,1604.688477 1920.829224,1598.183228 1926.864014,1589.112427 
	C1933.570557,1579.031616 1941.104736,1569.516968 1947.854370,1559.479126 
	C1959.706299,1541.853882 1973.505371,1525.537842 1986.489014,1508.673584 
z"/>
<path data-name="Tcholliré" fill="#E07051" opacity="1.000000" stroke="none" 
	d="
M1476.209106,1713.837280 
	C1459.846802,1708.992676 1444.280762,1702.293579 1430.781250,1691.779175 
	C1412.905029,1677.856323 1391.619019,1670.710327 1371.663086,1660.915527 
	C1370.290283,1660.241821 1368.556152,1660.304565 1365.857056,1659.822266 
	C1363.927612,1667.460815 1362.523560,1674.886353 1360.149902,1681.987793 
	C1356.383667,1693.255371 1352.508667,1704.558228 1347.488647,1715.289062 
	C1346.056274,1718.350708 1340.706787,1720.114380 1336.798706,1721.366455 
	C1329.746582,1723.626343 1329.634888,1723.277832 1325.014771,1729.824585 
	C1329.018921,1734.256592 1332.673828,1738.954590 1337.006714,1742.909912 
	C1341.151611,1746.693481 1341.988892,1751.256348 1342.286011,1756.360352 
	C1342.631836,1762.300049 1343.700073,1768.227051 1343.650513,1774.152832 
	C1343.592041,1781.156860 1345.231323,1787.312256 1350.216553,1792.272095 
	C1356.293823,1798.318481 1355.629028,1805.381348 1353.354736,1812.533081 
	C1350.009399,1823.053833 1350.605835,1833.052368 1355.686157,1842.949463 
	C1359.072388,1849.545654 1360.969360,1855.836914 1355.708984,1863.269409 
	C1351.837646,1868.739746 1352.660400,1875.949341 1356.690796,1882.028442 
	C1357.240967,1882.858398 1357.844482,1883.656738 1358.343994,1884.515991 
	C1367.242310,1899.819580 1367.448608,1900.358154 1364.045288,1917.192749 
	C1363.108154,1921.828857 1361.228271,1925.537109 1355.076416,1926.100464 
	C1351.338257,1926.442749 1347.871216,1929.748291 1343.958496,1931.900879 
	C1348.445435,1938.019043 1348.768433,1942.726807 1344.902588,1948.296265 
	C1340.081543,1955.241821 1343.124023,1963.418335 1344.921509,1970.351318 
	C1347.808105,1981.484375 1347.299072,1990.676270 1339.817017,2000.044922 
	C1336.373291,2004.356934 1335.392700,2010.969116 1334.266602,2016.728271 
	C1332.054688,2028.040283 1331.035889,2039.600098 1328.518921,2050.832275 
	C1326.982788,2057.687500 1328.260376,2063.011475 1333.913574,2066.421387 
	C1338.437866,2069.150146 1340.244385,2073.051270 1341.554077,2077.527100 
	C1345.457275,2090.866211 1349.071045,2104.292236 1353.136108,2117.580566 
	C1354.452515,2121.884521 1356.521484,2126.034912 1358.760010,2129.962891 
	C1362.976807,2137.361816 1361.931396,2143.617432 1354.819824,2148.806641 
	C1343.602417,2156.991211 1332.637451,2165.627441 1320.785522,2172.779541 
	C1316.591675,2175.310059 1315.440796,2178.294189 1314.439087,2181.892334 
	C1313.295898,2185.998047 1312.795410,2190.310791 1312.357178,2194.569092 
	C1312.201538,2196.080078 1312.524414,2198.436279 1313.522705,2199.141357 
	C1320.142090,2203.816895 1318.888306,2210.426270 1317.287720,2216.375244 
	C1315.034912,2224.748291 1315.972534,2231.740967 1321.228149,2238.844238 
	C1325.870972,2245.119629 1327.371216,2253.345215 1334.425171,2258.416016 
	C1337.136597,2260.364990 1338.661987,2265.007812 1335.985352,2269.280518 
	C1333.794678,2272.777588 1332.202881,2276.649902 1330.345581,2280.355713 
	C1334.920776,2284.000977 1339.012329,2288.727295 1344.183228,2291.041748 
	C1352.216187,2294.637451 1362.694214,2306.080078 1363.878296,2314.409424 
	C1364.649292,2319.832764 1364.522461,2325.692627 1369.805420,2329.530762 
	C1370.965698,2330.373779 1371.558472,2332.301758 1371.950317,2333.847168 
	C1373.976196,2341.837158 1377.858154,2348.646240 1384.461182,2353.682373 
	C1388.519287,2356.777344 1389.704590,2360.644043 1389.965088,2365.738037 
	C1390.730469,2380.701416 1393.764404,2395.145752 1399.398315,2409.261963 
	C1406.890503,2428.033691 1412.923340,2447.385498 1419.773804,2466.419189 
	C1420.959595,2469.713867 1422.476074,2473.297119 1424.898926,2475.662354 
	C1432.360596,2482.946777 1434.339478,2492.783203 1437.706055,2501.900146 
	C1438.425537,2503.848145 1435.951050,2506.976074 1434.220581,2509.862793 
	C1429.124878,2508.694824 1424.849609,2506.529541 1420.364868,2505.929688 
	C1414.800171,2505.184814 1408.917236,2506.519287 1403.439575,2505.507080 
	C1398.025635,2504.506836 1392.945312,2501.701416 1387.859253,2499.742188 
	C1377.444458,2511.240967 1375.948608,2512.100586 1367.458618,2511.450439 
	C1368.928345,2508.599121 1371.036499,2505.970947 1371.633179,2503.035400 
	C1372.748901,2497.546143 1371.075195,2492.511719 1366.746216,2488.682617 
	C1362.905762,2485.285645 1359.237305,2481.580322 1354.976929,2478.802246 
	C1350.151123,2475.655518 1347.093262,2471.842773 1347.022217,2466.032715 
	C1346.981934,2462.723633 1345.633545,2460.835693 1342.777100,2458.912354 
	C1340.780884,2457.568604 1340.827393,2452.569824 1338.922974,2451.811523 
	C1327.140625,2447.119385 1332.628052,2437.382324 1331.694458,2428.894531 
	C1329.508423,2428.210693 1327.077759,2427.450195 1324.185059,2426.545166 
	C1322.852295,2428.276123 1321.518188,2430.008545 1319.904907,2432.103516 
	C1317.038208,2431.080322 1313.863159,2427.954834 1311.059082,2432.924316 
	C1310.275635,2434.312744 1306.783936,2434.704346 1304.558105,2434.645996 
	C1298.351685,2434.483643 1291.484375,2435.370605 1286.129761,2433.007080 
	C1279.511230,2430.085938 1275.507446,2432.676514 1270.849854,2436.111084 
	C1266.868286,2434.663086 1264.099365,2432.726562 1262.956543,2428.136963 
	C1261.796387,2423.477295 1257.997925,2422.050049 1253.865234,2424.235352 
	C1248.624023,2427.006592 1243.440674,2429.994385 1238.626709,2433.439941 
	C1232.146606,2438.078125 1232.307983,2438.303711 1224.876587,2433.879395 
	C1221.321899,2435.757568 1217.751465,2438.826172 1212.764526,2435.064453 
	C1210.570801,2433.409668 1206.324463,2434.397461 1203.007080,2434.327881 
	C1197.002197,2434.201904 1191.292725,2433.680908 1185.986572,2430.042969 
	C1183.468628,2428.316895 1179.700806,2428.410889 1176.497559,2427.687988 
	C1173.089111,2426.918701 1169.678711,2426.158691 1165.343994,2425.187500 
	C1167.507690,2416.347900 1170.823730,2409.282471 1174.942139,2402.540771 
	C1177.344360,2398.608154 1181.071655,2398.175049 1185.319580,2398.306641 
	C1193.825073,2398.570068 1197.135132,2395.325684 1198.364990,2387.058105 
	C1199.433594,2379.873535 1198.747803,2373.229004 1194.023315,2367.432861 
	C1191.939453,2364.876221 1191.709961,2362.566895 1192.902588,2359.244873 
	C1195.539795,2351.900146 1194.636353,2344.283447 1193.191162,2336.518311 
	C1187.074341,2334.977051 1180.183960,2336.850830 1175.111450,2331.579590 
	C1176.618774,2323.117432 1185.464966,2317.200195 1183.059082,2306.231445 
	C1175.554321,2305.044678 1167.642334,2303.793701 1158.781616,2302.392578 
	C1157.570923,2303.476807 1155.665283,2305.183594 1153.363892,2307.244629 
	C1146.138062,2302.687012 1140.104248,2295.812012 1130.818970,2295.776367 
	C1132.597900,2285.593506 1132.241455,2286.240723 1124.633301,2282.050293 
	C1117.968384,2278.379395 1109.395874,2277.077393 1105.646118,2269.048096 
	C1104.699585,2267.021484 1103.167114,2265.011963 1103.023071,2262.917480 
	C1102.641357,2257.371094 1101.037231,2252.719971 1095.268799,2249.890625 
	C1096.729614,2244.826172 1098.063477,2240.201904 1099.421753,2235.492920 
	C1092.620117,2232.758545 1085.561768,2229.920898 1078.177734,2226.952393 
	C1078.892700,2222.526367 1079.074585,2218.899170 1080.104492,2215.531250 
	C1082.479248,2207.764160 1081.369751,2200.676025 1077.956543,2193.380127 
	C1076.421631,2190.099609 1076.940430,2185.858398 1076.454590,2181.381592 
	C1069.779907,2180.861328 1062.717163,2180.060547 1055.637085,2179.851807 
	C1051.283447,2179.723389 1049.200439,2177.546143 1047.393066,2173.976318 
	C1043.275024,2165.843262 1043.138916,2165.912109 1036.501709,2166.781006 
	C1029.796021,2163.592529 1024.981812,2161.303467 1019.723328,2158.803223 
	C1017.879272,2155.581787 1015.425293,2151.748779 1013.420166,2147.694092 
	C1009.631958,2140.033203 1007.295776,2132.280273 1011.586731,2123.796631 
	C1012.650940,2121.692871 1012.725708,2118.338867 1011.812134,2116.166260 
	C1010.551575,2113.168701 1010.478760,2110.970459 1011.601868,2107.840820 
	C1014.560059,2099.598389 1007.110413,2095.466553 1003.136047,2090.447510 
	C999.981750,2086.464111 993.794434,2087.552490 988.029541,2091.197266 
	C984.950439,2093.144043 981.845337,2095.102295 978.568176,2096.671143 
	C973.218994,2099.231934 968.221863,2100.897949 961.874817,2097.664551 
	C957.214172,2095.290283 951.048096,2095.133545 945.576782,2095.238525 
	C933.144714,2095.476318 920.691284,2096.620850 908.999878,2101.208740 
	C906.414673,2102.223389 904.905090,2102.442871 902.902039,2100.881592 
	C901.879822,2100.084717 900.802185,2098.940430 899.647339,2098.801025 
	C892.487305,2097.937012 888.152893,2094.648193 887.461243,2086.932373 
	C887.315735,2085.309082 884.794739,2083.101562 882.968018,2082.588379 
	C878.877686,2081.439453 874.546936,2081.088623 870.292969,2080.594482 
	C864.537720,2079.926270 858.833618,2080.309326 853.755798,2075.939697 
	C848.834106,2071.704346 842.140869,2071.344482 835.783569,2072.030518 
	C829.155090,2072.746338 823.669250,2070.234863 818.701294,2066.480225 
	C814.238037,2063.106934 810.291870,2059.056885 805.916504,2055.556885 
	C803.428223,2053.566406 800.612915,2051.941406 797.809265,2050.398438 
	C793.260742,2047.894897 792.115784,2044.281494 795.041565,2040.009644 
	C797.256348,2036.775757 799.656860,2033.639893 802.238525,2030.691528 
	C811.930359,2019.622437 808.501526,2016.186646 800.717834,2007.239258 
	C799.215027,2005.511475 797.161072,2004.273682 795.533081,2002.638794 
	C794.896240,2001.999390 794.732422,2000.888794 794.119751,1999.441406 
	C795.877563,1997.285645 797.485779,1994.759766 799.620239,1992.809937 
	C804.172424,1988.651123 801.719910,1982.921387 803.070557,1978.062256 
	C803.273682,1977.331543 799.855530,1974.459351 798.205688,1974.537598 
	C789.439697,1974.953979 783.141357,1970.953125 777.346924,1964.938477 
	C775.201599,1962.711548 769.789978,1962.247314 769.243530,1960.114380 
	C767.321472,1952.611938 758.304871,1952.109375 755.954407,1945.214111 
	C755.393921,1943.569702 751.538391,1941.678589 749.681091,1942.088379 
	C742.434570,1943.687378 737.797485,1939.460693 731.940491,1936.628052 
	C722.572876,1932.097534 720.021851,1922.342651 713.018250,1916.300415 
	C713.947754,1907.609497 704.866699,1902.619385 705.136047,1893.621704 
	C705.313538,1887.693604 702.012024,1881.791992 697.407104,1876.903687 
	C692.055481,1871.222656 686.963806,1865.041992 683.064270,1858.321045 
	C679.290405,1851.816895 679.343201,1844.027954 683.444824,1837.590820 
	C687.580078,1831.100586 686.463013,1824.419312 686.434998,1817.626953 
	C686.418945,1813.738159 686.432068,1809.849243 686.432068,1804.053467 
	C682.398010,1798.976074 675.218872,1795.167114 667.747192,1792.017822 
	C662.713623,1789.895996 660.057556,1786.452271 660.739014,1781.105591 
	C661.333740,1776.440063 658.380127,1772.295044 653.945129,1771.570923 
	C649.758667,1770.887451 642.889771,1774.220703 640.376587,1777.742798 
	C633.408264,1787.509399 623.274780,1791.308350 611.819458,1792.316040 
	C609.208374,1792.545776 605.592346,1791.102173 604.082764,1792.376343 
	C598.251099,1797.298950 591.916260,1795.973267 585.313843,1795.748169 
	C579.893860,1795.563721 574.432251,1797.253540 568.970520,1797.395142 
	C565.804626,1797.477295 562.602051,1796.141479 558.281860,1795.195435 
	C556.561279,1797.505371 554.181152,1800.183228 552.387756,1803.208740 
	C547.643555,1811.212280 543.616333,1812.867798 535.534180,1808.918823 
	C528.252930,1805.361328 521.098633,1802.765991 512.636047,1803.924316 
	C508.587097,1804.478394 502.973938,1803.953369 500.222168,1801.501221 
	C494.328217,1796.248901 488.666290,1797.814087 482.585693,1799.457153 
	C473.023438,1802.041016 463.634979,1805.897583 453.913483,1807.077515 
	C445.013123,1808.157837 435.538269,1810.093140 426.763672,1804.581177 
	C420.244049,1800.485840 417.428284,1797.583130 420.781433,1791.404419 
	C426.815948,1780.285278 419.907227,1774.015137 413.934845,1766.948853 
	C413.310547,1766.210083 412.444366,1765.332886 411.580414,1765.191284 
	C398.953583,1763.122559 386.540161,1759.671387 373.657318,1759.248779 
	C369.398438,1763.778687 364.596222,1761.820679 359.914062,1760.286133 
	C357.813232,1759.597656 355.858459,1758.468018 353.827515,1757.560791 
	C349.411072,1755.588135 345.601654,1754.248901 340.100830,1756.297729 
	C333.786865,1758.649292 326.881226,1760.289429 319.258575,1758.302490 
	C313.595398,1756.826538 306.542938,1757.972290 300.883911,1760.055176 
	C296.446167,1761.688354 293.136841,1760.276123 289.419556,1759.642700 
	C279.711578,1757.988403 270.087341,1755.402588 260.193634,1758.506836 
	C259.307007,1758.785156 258.132812,1758.864624 257.309509,1758.518921 
	C245.564529,1753.586548 233.080795,1753.185913 220.654556,1752.410645 
	C216.509125,1745.840088 208.907242,1750.689331 203.842316,1747.377563 
	C203.427414,1746.779907 202.745743,1746.254517 202.738953,1745.720581 
	C202.602783,1735.006836 195.182236,1731.369751 186.581024,1728.376099 
	C177.304810,1725.147339 167.680389,1722.516968 160.858124,1714.388184 
	C159.300476,1712.532349 155.774582,1711.805176 153.063568,1711.558472 
	C148.559418,1711.148560 143.868332,1712.183960 139.471466,1711.400879 
	C136.084442,1710.797607 132.855972,1708.601074 129.862137,1706.645752 
	C124.384186,1703.067871 119.211632,1699.024658 113.763031,1695.398804 
	C108.190804,1691.690430 104.916260,1682.417236 108.848236,1674.943237 
	C113.636520,1665.841797 109.493004,1659.672119 104.059914,1653.825806 
	C100.515793,1650.012207 95.535919,1647.572510 91.521355,1644.140625 
	C89.392921,1642.321167 87.101089,1639.938599 86.377693,1637.386475 
	C84.871384,1632.072388 85.046181,1626.228882 83.192711,1621.084839 
	C81.994217,1617.758667 78.425301,1615.286377 75.293205,1612.174072 
	C74.435699,1607.308960 74.203621,1602.701172 74.625549,1596.707520 
	C78.955086,1590.947144 82.630600,1586.572632 85.619370,1583.015503 
	C89.627319,1586.042847 92.724747,1588.382446 95.959465,1590.825806 
	C95.383606,1595.412964 94.747696,1600.478516 94.139748,1605.321411 
	C98.002594,1606.802612 101.013496,1607.508057 103.548531,1609.014404 
	C110.879723,1613.370850 120.244919,1615.430908 122.595917,1625.686401 
	C122.973724,1627.334351 124.845192,1628.885376 126.384048,1629.976440 
	C131.345520,1633.493896 136.793594,1636.387817 141.465927,1640.236206 
	C149.113983,1646.535645 157.500381,1650.194580 167.485046,1650.056519 
	C173.782867,1649.969482 180.429932,1648.805298 186.282166,1650.427002 
	C191.845123,1651.968750 196.410873,1657.410767 202.904938,1653.085205 
	C203.022400,1653.006836 203.558899,1653.330566 203.722382,1653.582031 
	C207.003403,1658.629517 211.942719,1656.490112 216.238220,1656.222046 
	C222.789261,1655.813232 229.675339,1655.889771 235.735062,1653.787964 
	C242.567123,1651.418213 248.723801,1646.996582 254.966431,1643.131592 
	C256.046448,1642.463013 256.123108,1640.135376 256.613007,1638.558472 
	C259.272766,1629.997192 261.856964,1621.411987 264.598633,1612.877075 
	C265.555298,1609.899048 266.886871,1607.041382 268.485382,1603.028931 
	C277.955200,1612.644165 286.791595,1605.217163 295.406342,1605.088379 
	C298.614258,1600.080811 301.042877,1593.641724 307.770905,1594.600220 
	C314.605408,1595.573730 319.661316,1592.120483 325.165771,1589.901489 
	C329.894409,1587.995483 334.712524,1585.347168 338.298126,1581.815674 
	C342.692139,1577.488037 345.844513,1571.899658 348.737885,1567.944214 
	C348.570007,1561.438232 348.654846,1556.005127 348.244110,1550.609741 
	C347.368134,1539.103149 346.424591,1527.595215 345.158203,1516.126587 
	C343.661377,1502.571411 348.000244,1498.914429 360.419495,1503.700439 
	C360.727509,1503.819092 361.005096,1504.017822 361.314362,1504.131836 
	C367.647583,1506.468262 369.946136,1506.201660 371.761200,1499.684570 
	C373.724060,1492.636475 379.213531,1487.744385 381.204895,1480.934814 
	C381.997162,1478.225708 383.416565,1475.685303 384.071136,1472.953125 
	C386.248138,1463.867188 390.280823,1456.021973 398.117920,1450.478516 
	C397.465820,1441.529785 398.776093,1439.923340 407.227936,1439.716431 
	C410.550690,1439.635010 413.998352,1440.397217 417.179016,1439.747070 
	C422.220245,1438.717041 427.937683,1437.944702 431.804871,1435.005371 
	C436.470764,1431.459106 440.998596,1430.199097 446.457275,1430.283691 
	C450.372467,1430.344360 453.795410,1430.133423 457.438599,1427.172119 
	C464.967682,1421.051880 474.756348,1418.873413 483.903290,1416.715942 
	C491.052399,1415.029663 496.354126,1412.212891 501.802216,1407.442261 
	C507.481262,1402.469604 512.983826,1394.130493 523.060791,1399.783813 
	C524.075623,1400.353149 526.393616,1399.520508 527.614258,1398.648804 
	C534.355896,1393.835205 541.462646,1389.352905 547.427612,1383.686890 
	C552.535522,1378.835083 557.898926,1373.092407 553.338440,1364.657837 
	C552.678284,1363.436890 552.900757,1361.443359 553.322327,1359.982666 
	C555.318665,1353.064209 556.623047,1345.725586 559.949219,1339.482544 
	C562.520691,1334.656006 565.644348,1328.058105 574.300232,1331.793945 
	C577.746338,1333.281250 581.735046,1327.847046 581.661743,1323.268799 
	C581.594177,1319.052979 581.308838,1314.783569 581.827820,1310.626221 
	C583.183655,1299.764893 584.837280,1288.937744 586.556824,1278.126221 
	C587.333557,1273.242798 587.527100,1267.884399 589.763428,1263.689453 
	C595.669067,1252.612061 600.776672,1240.889404 610.818848,1232.476562 
	C613.564575,1230.176270 615.958740,1227.141113 617.678833,1223.987427 
	C624.682739,1211.146973 631.281250,1198.086060 638.214294,1185.205933 
	C640.111938,1181.680664 640.521484,1178.356567 639.708191,1174.839844 
	C644.109436,1177.163330 647.499146,1179.785767 651.290039,1181.542847 
	C656.661621,1184.032593 662.901917,1188.444336 667.725830,1187.364746 
	C673.842285,1185.995972 678.337097,1187.911987 683.471985,1189.144897 
	C687.304871,1190.065186 692.265869,1189.860596 694.721497,1192.231445 
	C700.602234,1197.909180 707.116638,1200.989990 715.046448,1202.148682 
	C719.842163,1202.849365 724.432068,1204.991089 729.228882,1205.642456 
	C733.540344,1206.228027 736.796692,1207.745117 739.156128,1211.377075 
	C740.571167,1213.555298 742.185547,1215.604126 743.811584,1217.850952 
	C749.649048,1216.588745 755.196411,1215.621216 760.610229,1214.159546 
	C767.293091,1212.355469 773.555359,1209.335449 780.220032,1215.126831 
	C785.272583,1219.517456 791.444763,1222.618286 797.101501,1226.319336 
	C797.342041,1226.476685 797.451172,1226.885132 797.551331,1227.198975 
	C799.512451,1233.346436 804.378540,1232.837158 809.004211,1231.763062 
	C812.187195,1231.023682 815.490356,1229.750122 818.101562,1227.842163 
	C822.209839,1224.840210 825.826904,1224.971313 830.091370,1227.309204 
	C837.453247,1231.345215 845.209412,1230.816040 851.994934,1226.527710 
	C858.622681,1222.339233 864.820190,1223.367920 870.945007,1226.241699 
	C883.571289,1232.166138 895.962036,1238.592896 908.445068,1244.822144 
	C922.520081,1251.845581 936.524231,1255.651611 950.311462,1244.131104 
	C951.280762,1243.321167 952.578308,1242.904053 953.244019,1242.555298 
	C968.329285,1248.335571 982.822388,1253.948364 997.363220,1259.434570 
	C1004.210205,1262.017822 1011.130127,1264.412598 1018.050293,1266.795898 
	C1028.739624,1270.476929 1039.406860,1274.233521 1050.173950,1277.675049 
	C1072.634766,1284.854248 1095.502808,1290.919922 1117.548462,1299.189453 
	C1138.040161,1306.876099 1157.571899,1317.086670 1177.736328,1325.694214 
	C1190.240479,1331.031860 1203.400635,1334.865234 1215.783325,1340.445679 
	C1228.936401,1346.373047 1244.008057,1346.553345 1256.180664,1356.152466 
	C1261.479248,1360.330933 1267.693848,1363.067627 1270.444336,1369.984131 
	C1273.371704,1368.417847 1276.007690,1367.527588 1277.983032,1365.856567 
	C1284.820801,1360.072021 1291.872925,1359.407715 1300.256592,1362.634155 
	C1304.677246,1364.335327 1310.025635,1363.948730 1314.952148,1363.923584 
	C1320.088867,1363.897461 1325.221924,1363.171875 1330.974854,1362.701538 
	C1330.862061,1362.836182 1331.432251,1362.398682 1331.681641,1361.822510 
	C1337.156006,1349.167114 1343.028076,1347.210571 1354.395630,1354.966675 
	C1362.288208,1360.352173 1370.695923,1363.694214 1380.230469,1364.412231 
	C1385.144409,1364.782349 1388.617920,1366.691284 1390.696167,1372.005493 
	C1391.965942,1375.252686 1395.759033,1378.758179 1399.114014,1379.718018 
	C1410.489258,1382.972046 1422.070679,1386.026367 1433.779419,1387.396729 
	C1440.749756,1388.212524 1446.415527,1389.711060 1451.784546,1394.291016 
	C1456.610352,1398.407715 1462.251099,1401.474731 1469.209961,1398.294678 
	C1470.843872,1397.548218 1473.323853,1397.643921 1475.057983,1398.297729 
	C1483.379517,1401.434570 1491.578735,1404.895752 1499.762207,1409.057129 
	C1498.580444,1421.434814 1497.217651,1432.979858 1496.380981,1444.562744 
	C1494.059204,1476.705566 1491.966187,1508.864624 1489.761719,1541.015991 
	C1489.080078,1550.958496 1488.376831,1560.900146 1487.605225,1570.836060 
	C1485.085205,1603.282837 1482.549072,1635.728516 1479.977539,1668.171265 
	C1478.770752,1683.397217 1477.468262,1698.615479 1476.209106,1713.837280 
z"/>
<path data-name="Rey-Bouba" fill="#78A8F5" opacity="1.000000" stroke="none" 
	d="
M1499.821411,1408.241577 
	C1491.578735,1404.895752 1483.379517,1401.434570 1475.057983,1398.297729 
	C1473.323853,1397.643921 1470.843872,1397.548218 1469.209961,1398.294678 
	C1462.251099,1401.474731 1456.610352,1398.407715 1451.784546,1394.291016 
	C1446.415527,1389.711060 1440.749756,1388.212524 1433.779419,1387.396729 
	C1422.070679,1386.026367 1410.489258,1382.972046 1399.114014,1379.718018 
	C1395.759033,1378.758179 1391.965942,1375.252686 1390.696167,1372.005493 
	C1388.617920,1366.691284 1385.144409,1364.782349 1380.230469,1364.412231 
	C1370.695923,1363.694214 1362.288208,1360.352173 1354.395630,1354.966675 
	C1343.028076,1347.210571 1337.156006,1349.167114 1331.681641,1361.822510 
	C1331.432251,1362.398682 1330.862061,1362.836182 1330.974854,1362.701538 
	C1325.221924,1363.171875 1320.088867,1363.897461 1314.952148,1363.923584 
	C1310.025635,1363.948730 1304.677246,1364.335327 1300.256592,1362.634155 
	C1291.872925,1359.407715 1284.820801,1360.072021 1277.983032,1365.856567 
	C1276.007690,1367.527588 1273.371704,1368.417847 1270.444336,1369.984131 
	C1267.693848,1363.067627 1261.479248,1360.330933 1256.180664,1356.152466 
	C1244.008057,1346.553345 1228.936401,1346.373047 1215.783325,1340.445679 
	C1203.400635,1334.865234 1190.240479,1331.031860 1177.736328,1325.694214 
	C1157.571899,1317.086670 1138.040161,1306.876099 1117.548462,1299.189453 
	C1095.502808,1290.919922 1072.634766,1284.854248 1050.173950,1277.675049 
	C1039.406860,1274.233521 1028.739624,1270.476929 1018.050293,1266.795898 
	C1011.130127,1264.412598 1004.210205,1262.017822 997.363220,1259.434570 
	C982.822388,1253.948364 968.329285,1248.335571 953.244019,1242.555298 
	C952.578308,1242.904053 951.280762,1243.321167 950.311462,1244.131104 
	C936.524231,1255.651611 922.520081,1251.845581 908.445068,1244.822144 
	C895.962036,1238.592896 883.571289,1232.166138 870.945007,1226.241699 
	C864.820190,1223.367920 858.622681,1222.339233 851.994934,1226.527710 
	C845.209412,1230.816040 837.453247,1231.345215 830.091370,1227.309204 
	C825.826904,1224.971313 822.209839,1224.840210 818.101562,1227.842163 
	C815.490356,1229.750122 812.187195,1231.023682 809.004211,1231.763062 
	C804.378540,1232.837158 799.512451,1233.346436 797.551331,1227.198975 
	C797.451172,1226.885132 797.342041,1226.476685 797.101501,1226.319336 
	C791.444763,1222.618286 785.272583,1219.517456 780.220032,1215.126831 
	C773.555359,1209.335449 767.293091,1212.355469 760.610229,1214.159546 
	C755.196411,1215.621216 749.649048,1216.588745 743.811584,1217.850952 
	C742.185547,1215.604126 740.571167,1213.555298 739.156128,1211.377075 
	C736.796692,1207.745117 733.540344,1206.228027 729.228882,1205.642456 
	C724.432068,1204.991089 719.842163,1202.849365 715.046448,1202.148682 
	C707.116638,1200.989990 700.602234,1197.909180 694.721497,1192.231445 
	C692.265869,1189.860596 687.304871,1190.065186 683.471985,1189.144897 
	C678.337097,1187.911987 673.842285,1185.995972 667.725830,1187.364746 
	C662.901917,1188.444336 656.661621,1184.032593 651.290039,1181.542847 
	C647.499146,1179.785767 644.109436,1177.163330 639.249084,1174.706543 
	C636.901672,1173.426514 635.494934,1172.538696 634.873962,1171.267090 
	C633.983948,1169.444702 634.178650,1166.949097 633.011841,1165.431885 
	C629.283081,1160.583618 626.804138,1155.476074 627.846924,1150.609985 
	C624.748169,1147.426270 622.086853,1145.446289 620.415344,1142.833008 
	C615.458252,1135.083008 614.098877,1126.743896 616.096130,1117.524536 
	C617.288025,1112.022949 619.217285,1108.121338 624.145996,1104.912476 
	C637.766846,1096.044434 650.951660,1086.508423 664.373474,1077.330933 
	C666.265442,1076.037231 668.466858,1075.144287 670.611450,1074.280029 
	C687.236694,1067.579834 703.930420,1061.046021 720.478210,1054.161011 
	C723.373901,1052.956177 726.425476,1050.845459 728.146118,1048.301636 
	C740.781128,1029.621826 754.266418,1011.531677 761.015442,989.348450 
	C763.523254,981.105774 764.381287,973.262695 764.210876,964.967346 
	C764.114929,960.298645 762.438416,957.250916 757.826172,954.987793 
	C745.067688,948.727478 732.640747,941.791321 719.047546,934.572449 
	C722.920349,929.911621 726.250793,925.873840 729.613831,921.863281 
	C734.292236,916.283997 738.024658,909.024536 743.961060,905.637451 
	C749.855713,902.274170 757.977905,902.811707 765.124573,901.647217 
	C769.655090,900.908936 771.850342,898.459351 772.397400,893.687927 
	C773.324707,885.600037 774.923035,877.589111 776.427490,868.395691 
	C773.474670,863.546631 769.736694,857.408386 765.863220,851.047546 
	C775.480713,843.612854 784.613464,836.552979 794.396851,828.990112 
	C796.548706,831.772339 798.496826,833.928894 800.031921,836.347595 
	C803.741272,842.192505 809.835693,844.626526 815.877319,845.640320 
	C818.983398,846.161438 822.757507,842.836853 826.195312,841.178589 
	C827.616821,840.492920 828.947876,839.619751 831.078735,838.396179 
	C827.137024,832.935181 824.959045,827.182007 822.676270,821.431885 
	C820.758850,816.602051 821.150208,812.874695 824.436462,809.695923 
	C829.405518,804.889343 834.703552,800.361450 840.237427,796.216614 
	C846.283997,791.687744 853.413330,788.487915 854.197693,779.364136 
	C854.352722,777.561340 857.676758,775.805786 859.809753,774.455750 
	C862.422607,772.802063 865.320068,771.597961 867.903015,770.295959 
	C864.632019,759.202271 867.443909,738.431274 872.137634,728.754089 
	C876.527466,719.703552 885.248047,712.641907 884.345825,701.236145 
	C891.078369,699.604614 897.421021,697.480835 902.172119,703.851807 
	C906.242920,709.310608 911.608398,710.501831 917.932495,710.390442 
	C929.681580,710.183411 941.436890,710.459717 952.398315,705.064941 
	C954.105774,704.224670 956.879211,703.276855 958.082886,704.051636 
	C966.553345,709.504211 971.872925,702.990112 975.806702,698.194702 
	C981.414917,691.357971 988.820007,689.369995 996.283997,686.925232 
	C998.252563,686.280457 1001.367615,686.375183 1002.864014,687.537109 
	C1008.707520,692.074402 1014.187073,694.353210 1020.280945,688.116028 
	C1020.827393,687.556702 1022.309021,688.037170 1023.149963,687.619324 
	C1029.496582,684.465149 1036.570435,685.749023 1043.179199,684.226440 
	C1053.021851,681.958801 1062.787842,681.535583 1072.673096,684.531799 
	C1075.756470,685.466370 1079.362183,684.677368 1083.213501,684.677368 
	C1079.759399,673.417053 1076.793945,663.359802 1073.557983,653.390259 
	C1072.249634,649.359436 1072.537354,645.748169 1076.570312,644.144714 
	C1082.685303,641.713745 1086.377441,637.095337 1090.761719,632.528198 
	C1096.935547,626.097046 1108.421143,628.297302 1114.473511,620.196838 
	C1115.311768,619.074829 1118.099365,619.349121 1120.000488,619.094421 
	C1123.565308,618.616760 1127.141602,618.224976 1131.425659,617.712219 
	C1130.923462,607.307800 1136.064209,600.938782 1145.637329,597.900757 
	C1146.495361,597.628479 1147.147461,596.707520 1147.895264,596.087769 
	C1149.449219,595.988586 1151.003174,595.889465 1153.328857,595.939880 
	C1157.490234,602.900024 1160.879150,609.710938 1164.272705,616.519531 
	C1164.420898,616.816711 1164.551025,617.169373 1164.794678,617.365906 
	C1172.701050,623.742676 1174.604736,633.300781 1178.342407,641.988342 
	C1179.591675,644.892151 1183.282104,647.211487 1186.375732,648.763245 
	C1193.773804,652.474182 1201.480347,655.569946 1209.459717,659.089172 
	C1210.083618,669.773132 1213.628540,680.468079 1206.563354,690.384277 
	C1206.032715,691.129150 1205.465454,692.159546 1205.555786,692.987366 
	C1206.536987,701.984863 1201.668579,708.371948 1196.901978,715.291077 
	C1194.406372,718.913879 1194.908569,723.927063 1189.483398,726.591125 
	C1186.116943,728.244141 1188.377808,736.109985 1192.870239,737.994263 
	C1195.608887,739.142883 1197.514771,739.976257 1197.931641,743.126099 
	C1198.597656,748.158264 1202.267090,749.961182 1206.634766,751.507019 
	C1209.860840,752.648743 1213.109131,754.538696 1215.558838,756.910095 
	C1222.662598,763.786560 1228.628662,772.054077 1236.426636,777.940430 
	C1245.274292,784.619141 1252.784424,793.213928 1263.670654,797.333435 
	C1270.446533,799.897522 1276.650269,804.037842 1282.957031,807.732910 
	C1284.523804,808.650879 1286.034180,810.388855 1286.654297,812.084839 
	C1291.752563,826.026306 1302.383789,837.296448 1305.822021,852.083069 
	C1306.319336,854.222168 1308.805298,856.345215 1310.897217,857.596069 
	C1326.589600,866.979309 1342.465454,876.055542 1358.175659,885.409546 
	C1366.162842,890.165222 1374.304443,894.790344 1381.732300,900.336853 
	C1450.494019,951.683228 1519.124268,1003.205688 1587.752563,1054.730591 
	C1591.539673,1057.573975 1595.155762,1059.712280 1600.273682,1059.923340 
	C1604.694580,1060.105713 1605.583252,1057.333740 1607.414429,1054.432617 
	C1611.879761,1056.190308 1615.725464,1056.654175 1620.210083,1053.102295 
	C1622.687134,1051.140259 1628.067139,1052.062744 1631.915894,1052.818604 
	C1636.337891,1053.687012 1640.513794,1055.808716 1643.610596,1056.949219 
	C1646.807861,1063.479370 1649.643921,1068.854980 1652.087158,1074.403442 
	C1653.828369,1078.357788 1657.065674,1080.182007 1660.574951,1082.159180 
	C1665.296997,1084.819702 1665.367920,1086.736084 1661.505005,1090.364136 
	C1658.869263,1092.839844 1656.092407,1095.165527 1653.241699,1097.678955 
	C1660.770386,1105.826538 1668.956177,1109.212769 1679.531372,1104.770386 
	C1683.154663,1103.248413 1686.138428,1105.132568 1689.303101,1107.765991 
	C1692.903564,1110.761963 1697.597290,1113.239380 1702.162476,1114.096802 
	C1709.271362,1115.431885 1712.263062,1121.167236 1716.662109,1125.353516 
	C1722.030029,1130.462036 1719.396484,1136.120605 1717.125366,1141.810303 
	C1714.681152,1147.933716 1712.261719,1154.209106 1714.586182,1161.947632 
	C1728.936768,1163.601929 1745.266113,1158.745483 1756.798706,1171.701172 
	C1769.031494,1165.717651 1779.975708,1168.191284 1790.830933,1173.198486 
	C1799.562622,1177.225952 1808.391235,1181.043335 1817.558838,1185.124023 
	C1817.695923,1185.584351 1818.364502,1186.601929 1818.197754,1187.456177 
	C1816.380493,1196.763306 1821.100708,1203.652832 1827.165894,1209.424316 
	C1833.362671,1215.320801 1840.226807,1220.609375 1847.265015,1225.492188 
	C1851.405029,1228.364258 1854.134277,1231.198975 1854.357178,1236.518066 
	C1854.634155,1243.125977 1855.634644,1249.703613 1855.813721,1257.680054 
	C1850.259521,1261.622437 1845.274414,1264.306885 1840.159424,1266.715088 
	C1807.972534,1281.868408 1775.525513,1296.493530 1743.653442,1312.280029 
	C1728.857422,1319.608643 1713.340698,1323.587769 1699.190674,1327.098511 
	C1696.513062,1324.998901 1694.966431,1322.993042 1692.984863,1322.369995 
	C1684.574097,1319.725708 1676.034302,1317.491699 1667.062500,1314.973267 
	C1663.318848,1317.201782 1659.311646,1321.147339 1654.734009,1321.988770 
	C1645.079346,1323.763184 1637.414551,1328.632324 1629.898804,1334.273438 
	C1626.577393,1336.766357 1623.118896,1339.076904 1619.253174,1341.800903 
	C1627.021973,1353.071167 1638.241699,1358.515259 1647.992676,1365.532959 
	C1653.947876,1369.818604 1657.209106,1373.053101 1655.369751,1379.785278 
	C1653.889526,1385.203125 1654.672241,1389.159180 1657.676880,1393.687500 
	C1660.788940,1398.377808 1659.989380,1400.215088 1654.456421,1402.835693 
	C1649.980347,1404.955811 1645.294312,1407.110840 1640.477661,1407.922241 
	C1633.226440,1409.143677 1628.409912,1413.208008 1624.586426,1418.881470 
	C1621.064819,1424.107056 1617.495361,1429.356934 1614.613281,1434.940063 
	C1612.148926,1439.714233 1608.705566,1440.715454 1603.937012,1439.811890 
	C1601.062866,1439.267334 1597.756226,1437.957520 1595.296997,1438.830811 
	C1587.327271,1441.661743 1581.972290,1437.711670 1576.388794,1433.187012 
	C1573.085693,1430.510132 1569.545288,1427.921631 1565.715332,1426.149658 
	C1560.697632,1423.827881 1554.631104,1423.313477 1550.202026,1420.286133 
	C1543.529907,1415.725220 1536.608643,1414.473999 1528.841187,1413.948608 
	C1519.011475,1413.283936 1508.945557,1412.888794 1499.821411,1408.241577 
z"/>
<path data-name="Madingring" fill="#E85CF7" opacity="1.000000" stroke="none" 
	d="
M1499.762207,1409.057129 
	C1508.945557,1412.888794 1519.011475,1413.283936 1528.841187,1413.948608 
	C1536.608643,1414.473999 1543.529907,1415.725220 1550.202026,1420.286133 
	C1554.631104,1423.313477 1560.697632,1423.827881 1565.715332,1426.149658 
	C1569.545288,1427.921631 1573.085693,1430.510132 1576.388794,1433.187012 
	C1581.972290,1437.711670 1587.327271,1441.661743 1595.296997,1438.830811 
	C1597.756226,1437.957520 1601.062866,1439.267334 1603.937012,1439.811890 
	C1608.705566,1440.715454 1612.148926,1439.714233 1614.613281,1434.940063 
	C1617.495361,1429.356934 1621.064819,1424.107056 1624.586426,1418.881470 
	C1628.409912,1413.208008 1633.226440,1409.143677 1640.477661,1407.922241 
	C1645.294312,1407.110840 1649.980347,1404.955811 1654.456421,1402.835693 
	C1659.989380,1400.215088 1660.788940,1398.377808 1657.676880,1393.687500 
	C1654.672241,1389.159180 1653.889526,1385.203125 1655.369751,1379.785278 
	C1657.209106,1373.053101 1653.947876,1369.818604 1647.992676,1365.532959 
	C1638.241699,1358.515259 1627.021973,1353.071167 1619.253174,1341.800903 
	C1623.118896,1339.076904 1626.577393,1336.766357 1629.898804,1334.273438 
	C1637.414551,1328.632324 1645.079346,1323.763184 1654.734009,1321.988770 
	C1659.311646,1321.147339 1663.318848,1317.201782 1667.062500,1314.973267 
	C1676.034302,1317.491699 1684.574097,1319.725708 1692.984863,1322.369995 
	C1694.966431,1322.993042 1696.513062,1324.998901 1699.190674,1327.098511 
	C1713.340698,1323.587769 1728.857422,1319.608643 1743.653442,1312.280029 
	C1775.525513,1296.493530 1807.972534,1281.868408 1840.159424,1266.715088 
	C1845.274414,1264.306885 1850.259521,1261.622437 1855.797852,1258.579346 
	C1863.046021,1264.269287 1867.767334,1271.524658 1869.723145,1280.687256 
	C1871.973145,1291.228394 1877.895386,1299.365234 1888.214844,1303.223145 
	C1892.519287,1304.832397 1894.331543,1307.755493 1896.009521,1311.450073 
	C1908.342651,1338.603271 1920.649780,1365.768921 1933.155518,1392.842651 
	C1946.913330,1422.626831 1960.892700,1452.308716 1974.735107,1482.053955 
	C1978.646484,1490.458984 1982.415771,1498.930054 1986.369507,1508.022217 
	C1973.505371,1525.537842 1959.706299,1541.853882 1947.854370,1559.479126 
	C1941.104736,1569.516968 1933.570557,1579.031616 1926.864014,1589.112427 
	C1920.829224,1598.183228 1910.859497,1604.688477 1902.362183,1612.020020 
	C1900.827148,1613.344727 1898.020142,1613.628052 1895.796021,1613.640747 
	C1888.903442,1613.680298 1883.475952,1616.477173 1879.644531,1622.007080 
	C1875.867554,1627.458130 1871.043335,1630.979126 1864.545044,1632.443359 
	C1859.706177,1633.533447 1857.088989,1636.588013 1857.671021,1641.824585 
	C1857.744507,1642.485229 1857.996338,1643.265137 1857.751953,1643.801147 
	C1853.608521,1652.886230 1850.852783,1662.640991 1846.277588,1671.375488 
	C1844.234741,1675.275757 1837.619629,1677.105591 1832.775513,1679.157593 
	C1812.641235,1687.686646 1796.983276,1701.525513 1783.769653,1718.687866 
	C1777.571899,1726.737671 1769.380493,1732.226074 1758.594727,1732.279541 
	C1748.986328,1732.327148 1739.377563,1732.289551 1728.338989,1732.289551 
	C1728.300537,1740.477173 1728.055176,1747.992310 1728.293579,1755.491821 
	C1728.499512,1761.969116 1726.343994,1766.049805 1720.771606,1770.298218 
	C1713.153076,1776.106567 1703.567871,1780.991699 1701.100342,1791.731201 
	C1699.420166,1799.043823 1694.111938,1803.649658 1689.733398,1809.198242 
	C1685.016602,1815.175415 1682.209717,1822.659668 1677.959839,1830.629883 
	C1674.813110,1828.943359 1671.216797,1827.515625 1668.185913,1825.310425 
	C1648.325073,1810.859375 1629.893677,1794.577881 1608.539917,1781.978149 
	C1598.915405,1776.299194 1591.107666,1766.929199 1583.748779,1758.164917 
	C1572.442017,1744.698608 1559.015625,1736.539307 1541.185669,1736.280151 
	C1534.864990,1736.188354 1528.531250,1736.119263 1522.231567,1735.656860 
	C1511.280884,1734.853394 1502.375366,1729.882690 1494.021240,1722.777710 
	C1489.461670,1718.900269 1483.016479,1717.240112 1476.815430,1714.208496 
	C1477.468262,1698.615479 1478.770752,1683.397217 1479.977539,1668.171265 
	C1482.549072,1635.728516 1485.085205,1603.282837 1487.605225,1570.836060 
	C1488.376831,1560.900146 1489.080078,1550.958496 1489.761719,1541.015991 
	C1491.966187,1508.864624 1494.059204,1476.705566 1496.380981,1444.562744 
	C1497.217651,1432.979858 1498.580444,1421.434814 1499.762207,1409.057129 
z"/>
</svg>