<svg version="1.1" id="Layer_1" xmlns="http://www.w3.org/2000/svg" xmlns:xlink="http://www.w3.org/1999/xlink" x="0px" y="0px"
	 width="100%" viewBox="0 0 2174 2537" enable-background="new 0 0 2174 2537" xml:space="preserve">
<path data-name="Yoko" style="fill: {#D180D9}" fill="#D180D9" opacity="1.000000" stroke="none" 
	d="
M2176.000000,494.000000 
	C2176.000000,494.000000 2176.000000,495.000000 2175.069336,495.380676 
	C2172.471924,495.748871 2170.805420,495.725494 2169.138916,495.725494 
	C1793.542969,495.723846 1417.947144,495.723846 1042.351196,495.723907 
	C1040.684814,495.723907 1039.012329,495.637268 1037.353760,495.751282 
	C1035.556885,495.874817 1033.772949,496.186340 1030.069580,496.661377 
	C1033.589111,499.946503 1035.704712,501.921204 1037.514526,503.610565 
	C1034.345581,512.534668 1031.992432,521.183289 1028.255249,529.185425 
	C1023.345520,539.697937 1023.722717,545.343872 1033.219604,552.085205 
	C1040.782227,557.453491 1049.100464,561.768921 1057.154297,566.428955 
	C1061.135498,568.732544 1065.420166,570.177917 1066.830933,575.671387 
	C1067.406006,577.910828 1070.822998,580.033569 1073.403198,581.039307 
	C1084.785889,585.475952 1093.683716,594.723206 1105.848755,597.610413 
	C1107.007324,597.885315 1107.831421,599.360657 1108.958984,600.028809 
	C1110.323975,600.837524 1112.035278,602.187378 1113.268188,601.898926 
	C1118.708252,600.625732 1122.217041,604.106689 1125.758545,606.836975 
	C1131.379395,611.170349 1137.209473,613.192322 1144.290894,611.555908 
	C1147.495728,610.815308 1150.875366,610.444275 1154.162231,610.516846 
	C1165.114380,610.758545 1176.416504,605.606262 1186.993286,612.641724 
	C1188.217651,613.456177 1190.217651,613.234375 1191.862183,613.262878 
	C1196.755859,613.347839 1201.651367,613.326294 1206.546265,613.331238 
	C1213.835693,613.338684 1221.125244,613.333191 1226.695312,613.333191 
	C1231.707520,605.375549 1237.122192,599.197571 1239.750977,592.001831 
	C1243.148682,582.701599 1250.502686,580.584229 1257.836426,577.622681 
	C1259.067871,578.599854 1259.851685,579.199646 1260.611572,579.828430 
	C1268.831177,586.630737 1268.796997,586.573669 1278.071411,581.298035 
	C1279.741699,580.347839 1281.794312,580.035095 1283.699097,579.538391 
	C1287.871338,578.450684 1292.307983,577.994141 1296.200562,576.286072 
	C1309.644653,570.387085 1323.718506,566.815430 1338.115479,564.544250 
	C1341.478516,564.013794 1345.792847,564.435120 1348.538696,566.188965 
	C1353.397949,569.292786 1358.057617,573.228455 1361.618652,577.747559 
	C1372.208252,591.186279 1384.227539,603.052490 1399.104858,611.442261 
	C1413.469360,619.542664 1428.046143,627.347961 1443.321411,633.730408 
	C1445.642456,634.700134 1447.630737,636.794128 1449.384399,638.721619 
	C1452.508911,642.155701 1455.164917,646.022339 1458.351440,649.391663 
	C1460.359009,651.514404 1462.904297,654.475525 1465.331299,654.596497 
	C1472.021606,654.929932 1475.741577,659.727722 1480.768677,662.670654 
	C1488.735107,667.334167 1497.282593,671.018555 1505.647583,674.983521 
	C1511.834961,677.916321 1518.122925,680.636536 1523.432983,683.030762 
	C1523.692139,687.903809 1522.874146,691.567627 1524.198608,694.119751 
	C1529.815674,704.945068 1532.832031,717.059448 1541.415527,726.476929 
	C1546.927490,732.524414 1548.846191,733.746582 1556.456543,730.078918 
	C1560.994019,733.191162 1563.776978,737.347961 1564.511719,742.986023 
	C1565.406738,749.854919 1566.523438,756.698975 1567.719360,763.523132 
	C1568.440674,767.639771 1569.494873,771.698059 1570.546631,776.447998 
	C1705.610840,776.447998 1839.696167,776.447998 1974.186646,776.447998 
	C1973.847900,778.385742 1973.944702,779.969849 1973.482666,780.154297 
	C1966.478516,782.950134 1967.553711,788.932983 1967.703857,794.505432 
	C1967.775391,797.161743 1968.107422,799.813293 1968.372070,802.461914 
	C1971.021729,828.967896 1970.145874,855.216675 1963.031372,881.391907 
	C1973.150146,893.003906 1973.138916,893.006042 1976.520264,910.585083 
	C1976.831665,912.204163 1977.397949,913.774902 1977.859863,915.364075 
	C1978.979370,919.215942 1981.511230,921.141846 1985.358521,919.630310 
	C1990.441528,917.633301 1993.423462,920.222839 1996.385498,923.641785 
	C1999.431885,927.157837 2002.894775,930.343201 2005.684814,934.043213 
	C2008.644287,937.967773 2011.263428,942.199890 2013.599365,946.530579 
	C2016.245361,951.436035 2018.388062,956.611572 2020.791382,961.649719 
	C2026.698120,974.031555 2036.990479,983.261230 2044.451416,994.526306 
	C2046.090454,997.001099 2049.065918,999.584900 2048.983643,1002.036499 
	C2048.592041,1013.680420 2050.924805,1024.742676 2054.224365,1035.755859 
	C2054.761475,1037.548950 2053.699951,1039.767456 2053.994629,1041.695068 
	C2055.891357,1054.108154 2057.771240,1066.531738 2060.159912,1078.854248 
	C2060.552734,1080.880615 2063.168701,1083.522705 2065.201416,1084.004272 
	C2074.157471,1086.126343 2083.226318,1088.247070 2092.360596,1088.913574 
	C2096.110596,1089.187256 2098.718506,1090.660889 2099.250244,1092.965332 
	C2100.545654,1098.576294 2105.646729,1103.430054 2102.871826,1109.991089 
	C2102.331299,1111.268921 2102.700928,1113.359497 2103.406006,1114.667969 
	C2108.506592,1124.128906 2107.126953,1134.409790 2105.499512,1143.962402 
	C2104.362305,1150.638794 2105.577881,1155.592407 2108.814453,1160.656250 
	C2111.318115,1164.572754 2114.564453,1168.023926 2116.969482,1171.991699 
	C2121.064453,1178.747559 2128.606689,1184.125610 2125.860840,1192.675171 
	C2130.975342,1197.197388 2135.246826,1201.318970 2139.900879,1204.949463 
	C2142.372314,1206.877075 2145.385986,1208.302368 2148.368408,1209.342285 
	C2154.984131,1211.649170 2157.154053,1215.516968 2155.037109,1222.153076 
	C2152.263428,1230.847046 2153.205078,1235.671387 2160.377197,1240.120728 
	C2166.023438,1243.623291 2171.870361,1246.527954 2175.214844,1252.619141 
	C2175.476562,1252.412598 2175.738281,1252.206299 2176.000000,1252.000000 
	C2176.000000,1266.041870 2176.000000,1280.083862 2175.455322,1295.512207 
	C2174.208252,1298.751953 2173.701172,1300.710083 2172.772705,1302.442261 
	C2164.448486,1317.971436 2155.922607,1333.393677 2147.697510,1348.974731 
	C2121.925293,1397.796265 2095.083252,1445.985352 2062.535889,1490.710571 
	C2054.110840,1502.287842 2043.933472,1511.549316 2027.732910,1510.243530 
	C2019.906250,1509.612671 2013.481445,1506.054565 2008.113037,1501.367188 
	C1998.646729,1493.101929 1988.413696,1494.170654 1978.222778,1497.724731 
	C1972.773438,1499.625488 1968.016357,1503.821533 1963.301758,1507.443604 
	C1956.782471,1512.452026 1950.029907,1515.916748 1941.413574,1515.551392 
	C1937.991089,1515.406128 1933.846924,1516.513794 1931.119873,1518.526245 
	C1920.719116,1526.200928 1910.853516,1534.596313 1900.583496,1542.455078 
	C1897.505371,1544.810547 1893.969116,1547.068848 1890.289307,1548.059937 
	C1850.842896,1558.682495 1811.451294,1569.550415 1771.795898,1579.344238 
	C1722.810791,1591.442261 1673.726196,1603.312378 1623.285645,1607.947510 
	C1615.903076,1608.625854 1611.262329,1612.427246 1608.256714,1619.016846 
	C1607.086548,1621.582520 1605.323975,1624.157593 1603.180786,1625.951660 
	C1593.499878,1634.055298 1584.268677,1642.417114 1579.099854,1654.374268 
	C1578.232056,1656.381714 1576.375244,1658.552368 1574.432739,1659.391113 
	C1569.126221,1661.682373 1566.595947,1666.300171 1563.448120,1670.564819 
	C1559.519287,1675.887695 1555.730469,1681.215942 1548.200317,1682.484619 
	C1545.359619,1682.963013 1541.520264,1685.826416 1540.687500,1688.421387 
	C1537.654663,1697.870361 1532.099976,1706.218628 1528.868530,1715.270264 
	C1525.222290,1725.483765 1520.226196,1733.090454 1510.445190,1737.088135 
	C1506.137451,1738.848755 1503.256470,1741.501343 1500.850342,1745.210693 
	C1499.043091,1747.996704 1497.063232,1750.705078 1494.887695,1753.211426 
	C1487.662231,1761.536743 1479.175049,1764.941772 1468.328247,1760.218628 
	C1465.398438,1758.942627 1461.635742,1757.825439 1458.745239,1758.560913 
	C1451.730225,1760.345947 1445.013184,1763.290405 1438.156494,1765.713013 
	C1434.424194,1767.031860 1430.724121,1768.936646 1426.880981,1769.333862 
	C1420.931885,1769.948730 1416.981445,1773.057861 1414.173096,1777.732422 
	C1411.454834,1782.257446 1409.446045,1787.203247 1407.002563,1791.900146 
	C1400.427734,1804.538086 1393.730835,1817.112793 1387.201904,1829.774292 
	C1384.770386,1834.489868 1381.301025,1839.215698 1380.713745,1844.219360 
	C1379.608032,1853.642944 1376.696533,1862.304199 1373.306396,1870.981812 
	C1372.492188,1873.065674 1372.701294,1875.533447 1372.316162,1877.803711 
	C1371.049072,1885.275513 1369.789307,1892.749878 1368.369263,1900.193237 
	C1368.086792,1901.673706 1367.424438,1903.913208 1366.396362,1904.277832 
	C1361.581665,1905.985718 1359.596069,1909.853516 1356.986572,1913.791992 
	C1354.322388,1917.812988 1350.357544,1921.489014 1346.136108,1923.820312 
	C1341.649902,1926.297729 1337.553711,1928.450073 1335.250000,1933.346069 
	C1333.677368,1936.687988 1330.074097,1938.828491 1326.976685,1936.878174 
	C1319.726562,1932.313477 1313.693237,1936.213501 1307.114136,1938.118408 
	C1304.496460,1938.876465 1301.394775,1938.096191 1298.529297,1937.839111 
	C1292.086060,1937.260742 1290.624756,1938.382568 1287.471313,1944.592163 
	C1286.422852,1946.657104 1284.148804,1948.538208 1281.988159,1949.529785 
	C1266.343750,1956.709595 1250.160400,1956.802856 1233.721924,1952.693604 
	C1232.175781,1952.307007 1229.634644,1951.617798 1229.053223,1952.316284 
	C1223.279297,1959.250732 1215.498779,1958.734619 1207.743164,1958.676025 
	C1206.850952,1958.669312 1205.996338,1959.679688 1205.049072,1959.913818 
	C1201.329834,1960.833008 1197.314697,1961.044189 1193.897217,1962.593994 
	C1186.692383,1965.861694 1177.593994,1966.776245 1174.908081,1976.393188 
	C1173.398682,1981.797852 1170.134277,1985.318481 1164.810913,1987.792725 
	C1159.473389,1990.273438 1156.379517,1996.839600 1149.335449,1996.752319 
	C1148.881592,1996.746582 1148.517944,1998.434082 1147.921021,1999.181030 
	C1146.581909,2000.856812 1145.210205,2003.654541 1143.690674,2003.764160 
	C1141.511108,2003.921265 1139.188110,2002.088989 1136.925781,2001.107422 
	C1130.467041,2009.070312 1121.870239,2010.968872 1117.235107,2003.970947 
	C1113.308960,1998.043701 1106.926514,1995.613892 1102.916626,1989.364624 
	C1099.544678,1993.556030 1096.148071,1997.375488 1093.026245,1989.907959 
	C1091.870117,1990.786621 1091.087769,1991.372681 1090.314453,1991.970459 
	C1083.004883,1997.621094 1078.479980,2007.636230 1066.774170,2006.485840 
	C1064.907227,2006.302246 1062.911377,2008.862305 1060.780029,2009.479492 
	C1059.145264,2009.952759 1057.203003,2009.363525 1054.900269,2009.214722 
	C1055.414673,2006.346680 1055.793823,2004.233032 1056.381348,2000.957764 
	C1051.593018,2001.234497 1047.499146,2001.471191 1043.558594,2001.698975 
	C1039.768555,1998.938232 1035.979736,1996.178467 1032.339233,1993.526855 
	C1022.968262,2005.337158 1030.813110,2013.868896 1035.338867,2022.286621 
	C1032.830322,2025.626831 1030.678833,2028.491821 1027.870605,2032.230957 
	C1025.277100,2030.626221 1022.849609,2029.124268 1020.004272,2027.363647 
	C1020.925537,2030.861328 1021.745605,2033.975098 1022.563843,2037.081787 
	C1026.992188,2038.487549 1031.060425,2039.779175 1036.242310,2041.424194 
	C1032.826416,2048.950928 1029.561035,2056.146240 1026.130127,2063.706299 
	C1029.023071,2064.849854 1031.094238,2065.668701 1033.932617,2066.790771 
	C1030.952026,2072.394287 1028.107300,2077.742676 1024.939331,2083.698730 
	C1036.102539,2083.611328 1036.981445,2084.895996 1033.205811,2093.788330 
	C1027.969482,2094.038086 1022.626465,2094.292969 1015.396912,2094.637939 
	C1026.221802,2100.442627 1026.870850,2105.841064 1018.185974,2111.096680 
	C1019.035095,2113.537842 1019.648499,2115.301514 1020.248230,2117.025879 
	C1018.078857,2117.993408 1016.499756,2118.697510 1015.014282,2119.359863 
	C1015.592529,2121.957031 1016.060913,2124.061279 1016.584656,2126.414062 
	C1021.777832,2123.519531 1026.369751,2120.959961 1030.813843,2118.482910 
	C1038.403198,2125.680420 1038.200806,2126.770996 1029.546631,2130.252930 
	C1027.773804,2130.966309 1026.381348,2132.570801 1024.670166,2133.500977 
	C1019.378418,2136.377441 1014.927307,2140.969482 1007.961975,2140.315186 
	C1004.936768,2140.030762 1001.736206,2141.612793 998.968994,2142.264160 
	C1000.301270,2149.148926 1001.507019,2155.380127 1002.842102,2162.279297 
	C1004.731628,2161.287354 1006.046509,2160.233643 1007.526611,2159.888428 
	C1011.937256,2158.860107 1016.525940,2159.144775 1019.155396,2163.093506 
	C1020.532410,2165.161133 1020.628784,2168.711182 1020.053101,2171.315186 
	C1018.946533,2176.320068 1014.625793,2176.245850 1010.472534,2176.145020 
	C1005.071228,2176.013916 999.664368,2176.113037 994.031250,2176.113037 
	C994.385071,2183.438965 1004.294983,2182.210205 1003.765503,2189.918701 
	C1001.093872,2189.641602 998.767944,2189.400391 996.410767,2189.156006 
	C995.647949,2192.877930 995.003845,2196.020508 994.205627,2199.915283 
	C997.689819,2197.913574 1000.552307,2196.431641 1003.240906,2194.682373 
	C1006.409119,2192.620850 1009.441833,2192.708496 1012.397095,2194.866699 
	C1015.704163,2197.281738 1017.228455,2200.348389 1015.159973,2204.354004 
	C1014.882080,2204.892090 1014.233093,2205.238525 1013.364990,2206.030273 
	C1011.191589,2205.932861 1008.654175,2205.819092 1006.164551,2205.707520 
	C1004.877258,2207.580322 1003.611267,2209.422119 1002.427490,2211.144531 
	C996.683228,2209.096191 991.445435,2207.228760 986.059265,2205.308105 
	C983.624878,2207.559326 981.522400,2209.503418 979.965820,2210.942871 
	C974.026428,2210.942871 969.003723,2210.942871 963.580383,2210.942871 
	C966.222595,2220.097656 970.663208,2226.259277 979.665588,2227.270264 
	C979.957703,2228.940430 980.332703,2229.928223 980.265930,2230.885498 
	C979.735962,2238.492188 977.944336,2239.427246 971.020020,2236.385498 
	C968.386292,2235.228516 965.428162,2234.774902 962.588196,2234.131836 
	C959.066772,2233.334717 955.373047,2233.072998 952.002502,2231.878418 
	C942.185425,2228.397949 933.266052,2229.859619 925.104065,2236.106934 
	C917.375305,2242.022461 908.707458,2241.712158 902.052368,2234.511719 
	C895.715332,2227.655273 887.815613,2223.834717 878.675781,2220.799805 
	C875.089722,2219.458984 871.954041,2218.538818 868.858521,2217.499268 
	C866.371826,2216.663818 863.860168,2214.786621 861.491943,2214.981445 
	C858.127686,2215.258545 855.064026,2215.421143 854.445190,2211.712158 
	C853.931213,2208.632080 854.242798,2205.086182 855.329224,2202.171631 
	C856.185059,2199.875977 859.491150,2198.511719 860.406006,2196.215088 
	C861.379028,2193.772461 861.684021,2190.313232 860.634033,2188.068359 
	C859.882690,2186.461914 856.152832,2185.001221 854.218506,2185.456787 
	C850.241943,2186.393066 847.359070,2186.392090 844.462036,2183.019531 
	C843.234924,2181.590820 840.492920,2181.463867 837.882202,2180.550049 
	C841.852844,2173.324951 837.350464,2168.789795 833.833801,2163.200684 
	C831.828003,2156.794189 830.372314,2150.900635 827.816956,2145.530273 
	C824.745056,2139.074219 824.227844,2133.009033 827.341858,2126.538330 
	C828.006226,2125.157715 828.581360,2122.668945 827.869629,2121.862793 
	C822.896179,2116.227539 818.502808,2108.998779 812.156189,2105.897461 
	C801.230774,2100.558594 789.118591,2097.501953 777.316406,2094.149658 
	C767.738281,2091.428711 757.859924,2089.779053 748.169861,2087.427002 
	C745.773193,2086.845459 743.590515,2085.381348 742.208557,2084.739990 
	C742.685181,2077.793945 744.379700,2071.726074 743.143555,2066.329346 
	C741.648438,2059.802490 741.594055,2054.039795 743.913147,2047.874390 
	C744.765930,2045.607178 745.376526,2042.050415 744.215454,2040.432983 
	C739.387817,2033.707886 734.024414,2025.800781 724.857971,2026.733765 
	C716.782166,2027.555908 710.178528,2024.595703 702.918396,2023.041382 
	C698.170715,2022.025024 692.975708,2021.882080 688.186584,2022.642090 
	C684.013367,2023.304443 681.260864,2022.257202 678.301392,2019.681274 
	C667.898865,2010.626221 668.339600,1997.906982 666.197205,1985.900757 
	C665.203247,1980.331055 667.817688,1977.254028 670.928589,1973.652222 
	C672.046997,1972.357178 672.197327,1969.885986 672.130859,1967.974487 
	C671.961548,1963.103516 674.368347,1960.575317 678.850342,1959.563110 
	C684.309937,1958.329956 687.818115,1955.108643 688.097839,1949.388672 
	C688.405212,1943.104492 684.006653,1936.131836 677.798035,1934.187378 
	C670.046875,1931.759766 663.460266,1928.156982 657.654846,1922.281616 
	C654.784363,1919.376709 652.518860,1917.246216 653.810547,1913.148804 
	C655.402466,1908.098755 652.916077,1905.127441 649.120728,1902.301636 
	C645.982483,1899.965088 641.930115,1897.471313 640.758789,1894.168945 
	C638.384644,1887.475708 633.667175,1886.259033 627.768005,1885.402222 
	C610.302124,1882.865356 593.657104,1878.808594 586.729858,1859.481567 
	C586.508362,1858.863647 586.110840,1858.302246 585.754761,1857.740234 
	C581.435364,1850.924805 577.247559,1849.287598 569.904297,1853.073486 
	C563.460938,1856.395386 557.306763,1860.482056 551.608032,1864.971313 
	C547.913025,1867.882202 544.828125,1868.799438 540.860413,1866.278198 
	C538.899597,1865.032227 537.009644,1863.582642 534.891357,1862.691650 
	C523.670898,1857.971924 513.456116,1850.803833 500.729706,1849.757080 
	C490.711578,1848.932983 486.910370,1844.349609 486.249237,1834.178467 
	C485.407867,1821.234619 484.746948,1808.275635 483.659424,1795.352417 
	C482.824341,1785.429321 480.857330,1775.804810 477.519684,1766.244385 
	C464.257782,1728.256714 451.669525,1690.034180 438.774780,1651.917847 
	C433.246338,1635.575928 429.991028,1618.499390 421.627075,1603.072144 
	C405.602539,1573.515259 389.986633,1543.735718 374.327454,1513.982178 
	C367.045532,1500.145996 360.059082,1486.154297 353.680084,1471.980103 
	C356.248779,1470.918579 358.046844,1470.034668 359.907623,1469.312378 
	C402.403839,1452.818481 444.871307,1436.249512 487.423706,1419.901733 
	C508.535034,1411.791260 529.505554,1403.134521 551.064392,1396.406006 
	C597.409485,1381.941895 644.431396,1369.595215 690.554565,1354.484131 
	C747.456970,1335.841431 803.765625,1315.378296 860.262634,1295.507812 
	C961.960510,1259.739502 1063.606567,1223.823608 1165.276733,1187.976685 
	C1191.008179,1178.904297 1216.720947,1169.777466 1242.511597,1160.876465 
	C1247.045654,1159.311646 1250.129517,1157.742310 1249.737183,1152.006958 
	C1248.376099,1132.110596 1247.238037,1112.194946 1246.340942,1092.272095 
	C1245.412842,1071.662720 1244.927124,1051.033936 1244.127197,1030.418335 
	C1243.650024,1018.124390 1242.892578,1005.841431 1242.366333,993.549011 
	C1242.210083,989.896973 1241.981201,986.163147 1242.534180,982.582458 
	C1243.851562,974.052795 1245.473877,965.562744 1247.226196,957.109131 
	C1252.422729,932.040955 1249.255005,906.757263 1250.288574,881.379639 
	C1241.742554,877.503235 1233.974487,873.785583 1226.056641,870.420105 
	C1178.559814,850.232178 1131.225708,829.705505 1085.509399,805.643372 
	C1080.277344,802.889648 1076.487671,799.524353 1073.828247,794.071411 
	C1058.934937,763.535278 1043.671875,733.179688 1028.616211,702.722351 
	C1022.714294,690.783081 1016.819946,678.831787 1011.322510,666.704468 
	C1008.679565,660.873962 1005.021179,658.507324 998.431580,657.895508 
	C987.788452,656.907471 978.953003,659.415283 970.699219,666.076599 
	C967.240234,668.868286 962.748169,671.365112 958.448181,671.947876 
	C944.638611,673.819519 930.711426,674.889465 916.806824,675.976257 
	C903.211304,677.038818 889.780457,678.336243 876.792908,683.201721 
	C864.343689,687.865540 851.562988,691.687012 838.804749,695.461914 
	C834.096436,696.854980 829.056274,697.507385 824.133057,697.727417 
	C801.859314,698.723083 779.572266,699.419739 757.292969,700.297913 
	C754.983704,700.388855 752.694031,701.267700 750.394775,701.270264 
	C741.116394,701.280518 731.372498,702.867371 722.660950,700.586243 
	C706.948181,696.471802 691.825867,690.072388 676.534607,684.417175 
	C674.631897,683.713440 673.201660,681.732361 671.832214,679.536438 
	C674.105713,672.918884 679.945679,677.166626 683.143555,674.658936 
	C683.205261,670.552307 688.701294,657.361938 692.653381,655.221069 
	C696.395996,653.193665 701.206848,653.138245 706.259583,652.064270 
	C706.596069,648.634949 707.607117,645.291443 713.262817,645.837585 
	C717.617126,646.258057 719.293213,642.909363 717.335999,639.132751 
	C715.142456,634.900208 715.243530,631.026978 716.854858,626.499268 
	C730.256836,626.021118 741.030640,620.797363 748.282471,610.174561 
	C757.557129,611.942566 764.348511,606.476685 771.949951,604.167358 
	C775.567017,595.799805 781.822083,596.873413 786.709229,599.341431 
	C790.225098,596.768433 792.471069,594.695984 795.079163,593.300415 
	C801.671021,589.773254 806.552979,585.417664 805.036987,576.992432 
	C804.988647,576.723694 805.948242,576.273621 806.702942,575.710266 
	C808.892883,576.540039 811.250854,577.433411 814.222351,578.559326 
	C818.080139,568.467407 827.707092,569.005432 835.506226,566.150330 
	C841.765503,570.635620 849.400574,566.384766 856.036255,570.201721 
	C857.335449,566.464844 858.387634,563.438354 859.036194,561.572754 
	C869.858337,555.811462 878.499390,546.189758 891.666931,551.072754 
	C892.639954,552.948364 893.688110,554.968689 894.698853,556.917053 
	C904.584534,555.328186 913.851013,548.852844 923.385925,554.997192 
	C929.665588,550.777161 930.546753,544.982727 930.358887,539.171936 
	C938.347595,534.392029 945.152954,534.734680 950.907288,541.744019 
	C952.028381,540.467468 952.863770,539.516113 953.679626,538.587097 
	C964.688660,543.112732 965.074280,541.979309 969.880737,530.397095 
	C971.848267,525.655884 965.823730,525.186096 968.108948,521.222046 
	C969.863525,518.178650 969.380127,513.845154 970.045288,508.959503 
	C975.455078,507.971436 981.271912,506.909058 987.326599,505.803223 
	C990.675903,500.214050 996.271912,497.956421 1003.406982,498.922058 
	C1007.744629,499.509094 1012.021179,500.034546 1016.238220,495.721985 
	C1011.978882,495.721985 1008.656860,495.721985 1005.334900,495.721985 
	C829.355896,495.721985 653.376953,495.720367 477.397949,495.733185 
	C473.734619,495.733459 470.071289,495.900574 466.793579,495.275879 
	C471.145111,494.336090 475.110931,493.913391 479.076843,493.912689 
	C665.730347,493.880249 852.383850,493.884430 1039.037354,493.884430 
	C1414.025757,493.884430 1789.014282,493.884064 2164.002686,493.889221 
	C2168.001709,493.889282 2172.000977,493.961456 2176.000000,494.000000 
z"/>
<path data-name="Ntui" style="fill: {#D0924B}" fill="#D0924B" opacity="1.000000" stroke="none" 
	d="
M640.899963,2540.000000 
	C637.475708,2532.136475 630.299072,2528.299072 624.042786,2525.546631 
	C608.037170,2518.504639 591.304688,2513.092773 574.759033,2507.326904 
	C572.594482,2506.572754 569.642212,2507.052979 567.359558,2507.842529 
	C557.916565,2511.108398 548.023743,2506.956787 547.003662,2497.274414 
	C545.933838,2487.121338 540.155640,2480.400635 534.599670,2473.029053 
	C514.189270,2445.948242 490.898468,2421.454102 467.078888,2397.424561 
	C465.214020,2395.543213 463.489960,2393.522461 462.160645,2390.854492 
	C472.124939,2382.942383 482.078583,2376.257080 491.039062,2368.434082 
	C509.564056,2352.260986 528.007141,2335.941162 545.617493,2318.791748 
	C557.409851,2307.308105 569.261719,2295.246826 571.215210,2277.388428 
	C571.358765,2276.077148 571.682495,2274.759033 572.112610,2273.509766 
	C575.781372,2262.853027 578.029114,2251.383545 583.483765,2241.729248 
	C596.889404,2218.002930 611.777527,2195.114014 626.999878,2171.810303 
	C651.843872,2172.386475 675.753906,2173.257324 699.671692,2173.635498 
	C724.283325,2174.024658 748.942871,2173.106201 773.506165,2174.304443 
	C794.631042,2175.334717 814.268433,2170.287842 833.896851,2163.945557 
	C837.350464,2168.789795 841.852844,2173.324951 837.882202,2180.550049 
	C840.492920,2181.463867 843.234924,2181.590820 844.462036,2183.019531 
	C847.359070,2186.392090 850.241943,2186.393066 854.218506,2185.456787 
	C856.152832,2185.001221 859.882690,2186.461914 860.634033,2188.068359 
	C861.684021,2190.313232 861.379028,2193.772461 860.406006,2196.215088 
	C859.491150,2198.511719 856.185059,2199.875977 855.329224,2202.171631 
	C854.242798,2205.086182 853.931213,2208.632080 854.445190,2211.712158 
	C855.064026,2215.421143 858.127686,2215.258545 861.491943,2214.981445 
	C863.860168,2214.786621 866.371826,2216.663818 868.858521,2217.499268 
	C871.954041,2218.538818 875.089722,2219.458984 878.675659,2220.799805 
	C878.001038,2222.524902 875.949402,2223.852295 875.906067,2225.242188 
	C875.816040,2228.128662 876.791199,2231.048584 877.501526,2234.890869 
	C875.585815,2237.006592 873.340576,2239.827637 870.747803,2242.281738 
	C864.392761,2248.296875 863.652283,2254.261719 868.689453,2260.961914 
	C872.816772,2266.451660 872.676880,2266.571777 867.208435,2271.080566 
	C865.035278,2272.872314 862.364319,2275.087646 861.749268,2277.564453 
	C859.053650,2288.418945 851.131775,2293.901123 842.024292,2298.568359 
	C831.816223,2303.799316 830.934631,2304.185059 834.440735,2315.253418 
	C838.762878,2328.898193 836.400757,2342.032471 833.831909,2355.226074 
	C833.241638,2358.257812 829.505920,2360.742920 827.060059,2363.330322 
	C823.955933,2366.614746 820.871704,2369.961914 817.422974,2372.858154 
	C815.566650,2374.417236 813.052307,2375.677979 810.681274,2376.025879 
	C807.098999,2376.550781 803.378784,2376.267822 799.723755,2376.139893 
	C785.761719,2375.652100 777.281250,2382.246094 774.491577,2395.882812 
	C773.895264,2398.798096 773.257568,2401.710938 772.825012,2404.652344 
	C771.743835,2412.004883 768.017029,2416.761475 760.418579,2418.223877 
	C758.532532,2418.586914 756.540955,2419.517822 755.075317,2420.753662 
	C749.310181,2425.614746 743.735657,2430.701660 737.628235,2436.114258 
	C737.890930,2437.037354 737.878906,2438.995605 738.847656,2440.065430 
	C744.101807,2445.868164 744.949585,2451.989746 741.786316,2459.193115 
	C740.511230,2462.096924 739.986267,2465.783936 740.447205,2468.919434 
	C742.827759,2485.114502 731.787292,2496.155518 725.501892,2509.006592 
	C724.977356,2510.079102 723.673096,2511.127686 722.516418,2511.477539 
	C711.323059,2514.860840 703.178284,2522.893799 694.473206,2529.962646 
	C689.555786,2533.955811 684.532104,2536.205566 678.106079,2535.590820 
	C673.820862,2535.180420 669.426392,2535.176758 665.152527,2535.645264 
	C662.379456,2535.949463 659.735535,2537.431641 657.516846,2539.192871 
	C652.599976,2540.000000 647.199951,2540.000000 640.899963,2540.000000 
z"/>
<path data-name="Ngambè-Tikar" style="fill: {#4795A1}" fill="#4795A1" opacity="1.000000" stroke="none" 
	d="
M221.713959,1610.149048 
	C216.824829,1610.986816 211.957214,1611.989868 207.042328,1612.629639 
	C194.981567,1614.199463 187.701202,1621.774902 182.245575,1631.835938 
	C181.225037,1633.718018 179.807312,1635.384644 177.843353,1638.194458 
	C171.633041,1628.923584 163.837021,1621.959229 167.464661,1610.093628 
	C168.321243,1607.291626 166.764633,1603.751831 166.335876,1600.678467 
	C164.693283,1600.240845 163.607620,1599.549072 162.856369,1599.811890 
	C152.656876,1603.384033 142.854507,1600.227661 134.238770,1595.963989 
	C124.208954,1591.000244 116.992920,1595.774414 109.485390,1600.071899 
	C106.131569,1601.991699 103.586967,1603.340332 99.539391,1602.672852 
	C94.941681,1601.914673 90.044037,1602.013306 85.425125,1602.715454 
	C82.763100,1603.119995 80.225380,1605.229370 77.923958,1606.960205 
	C69.657509,1613.176270 61.515663,1619.557983 53.436848,1625.792114 
	C47.109737,1622.059448 39.014118,1622.683838 34.668938,1615.358887 
	C33.827412,1613.893677 33.792873,1612.431519 34.541737,1609.890381 
	C39.104794,1605.913818 43.055923,1602.770508 42.059376,1597.439453 
	C40.788929,1590.643188 42.962795,1585.180786 46.558449,1579.677490 
	C48.709381,1576.385498 50.163925,1572.547485 51.390697,1568.778809 
	C52.067978,1566.698120 52.299690,1564.009399 51.573551,1562.017090 
	C48.788364,1554.375854 45.387238,1546.961548 42.489803,1539.358154 
	C38.187828,1528.069092 38.500378,1526.578369 48.052845,1519.091431 
	C57.929432,1511.350220 68.032433,1503.889160 78.227859,1496.572266 
	C79.905327,1495.368408 82.810974,1494.680054 84.729919,1495.226074 
	C91.199547,1497.067627 96.263405,1494.128540 99.630440,1492.668091 
	C103.272560,1485.668335 106.122963,1480.554077 108.577850,1475.256348 
	C109.341942,1473.607422 109.800201,1471.093994 109.084755,1469.609131 
	C106.178848,1463.578247 109.120087,1459.981812 113.806496,1457.215820 
	C126.866966,1449.507446 139.886749,1441.706665 153.224121,1434.500366 
	C160.008148,1430.834961 163.082367,1424.394165 159.223892,1417.813843 
	C156.848984,1413.763672 157.580841,1411.150146 161.140625,1408.566895 
	C165.094971,1405.697388 168.879669,1402.594116 173.788681,1398.775391 
	C169.732956,1393.562988 166.412277,1389.124268 162.908646,1384.834961 
	C158.286789,1379.176514 153.360046,1373.761475 148.861786,1368.009277 
	C144.077438,1361.891357 146.401779,1355.936401 154.087387,1354.118774 
	C156.018311,1353.662109 158.036209,1353.475586 160.024582,1353.378052 
	C165.550476,1353.107056 169.131989,1350.565918 171.480865,1345.381714 
	C174.490051,1338.740234 178.360535,1332.493774 181.549698,1325.926392 
	C182.660172,1323.639648 183.831802,1320.667847 183.289749,1318.414551 
	C180.690155,1307.608521 182.606277,1298.144653 189.539261,1289.372314 
	C193.895966,1283.859619 192.487000,1278.534302 188.223755,1273.077881 
	C181.937790,1265.032471 182.295395,1260.952759 188.358093,1252.631958 
	C188.890045,1251.901978 189.207794,1251.015869 189.808395,1249.844727 
	C181.374603,1243.075806 180.323196,1234.255981 182.767487,1226.302734 
	C175.856079,1216.509888 169.839981,1207.985596 163.490906,1198.989502 
	C167.422119,1193.465332 171.303024,1187.767090 170.303192,1180.328613 
	C170.160248,1179.265259 171.272263,1177.887085 172.073212,1176.866089 
	C178.540955,1168.620728 185.073242,1160.426025 191.665909,1152.114990 
	C187.171890,1145.722412 182.464050,1139.025635 177.115723,1131.417847 
	C180.391434,1128.235718 182.726151,1124.842407 185.951767,1123.074463 
	C192.186050,1119.657349 198.922729,1117.156982 205.125671,1114.420288 
	C207.080841,1101.331909 213.934280,1091.683960 221.430206,1082.320679 
	C224.182831,1078.882446 227.129654,1079.444092 230.119583,1081.400757 
	C231.980606,1082.618652 233.455078,1084.427368 236.036545,1086.845215 
	C242.573792,1078.920898 248.851456,1071.311279 255.656418,1063.062500 
	C260.564819,1064.681030 263.810303,1062.263184 266.020477,1056.702148 
	C267.701569,1052.472168 271.211823,1048.998535 273.168274,1044.840332 
	C275.060486,1040.818726 276.498627,1036.429321 277.187775,1032.052124 
	C277.616211,1029.331177 276.280975,1026.332520 275.471619,1022.054077 
	C279.902039,1021.286072 283.631409,1020.627075 287.365295,1019.994873 
	C295.273743,1018.655823 299.011627,1013.237610 301.424561,1006.175354 
	C303.767029,999.319458 297.615112,998.813782 294.396332,996.061829 
	C293.130981,994.980103 291.918640,993.836487 290.678619,992.724976 
	C287.370758,989.759949 283.733521,988.553162 279.851013,991.430908 
	C274.124817,995.675415 269.247192,993.850586 264.679504,989.601013 
	C260.687225,985.886658 255.274612,983.496887 255.513519,976.337646 
	C255.678757,971.385132 253.926071,966.368652 252.747696,959.806274 
	C258.859894,950.423462 263.352448,939.288940 252.020248,927.436768 
	C255.065842,921.922546 258.071991,916.479736 261.099274,910.998657 
	C259.380096,906.814758 256.883789,904.253601 251.656616,903.764160 
	C246.020325,903.236572 244.557205,898.190857 248.081528,893.850891 
	C249.251617,892.409912 250.576920,891.094971 252.184052,889.336304 
	C250.217102,888.042664 248.872009,886.406738 247.543701,886.420288 
	C242.917252,886.467346 240.293045,883.477478 237.541931,880.628357 
	C233.129807,876.058899 233.947083,870.393433 239.790939,868.022705 
	C243.392593,866.561523 247.491379,866.218262 251.409363,865.684265 
	C253.799026,865.358643 256.269257,865.624207 259.822205,865.624207 
	C257.409851,860.392029 254.153336,856.521484 254.280563,852.765564 
	C254.426865,848.445984 257.596710,844.240295 259.381897,839.955383 
	C259.759827,839.048340 259.667664,837.940796 260.065918,837.047668 
	C263.152130,830.126587 260.529236,824.882446 255.290619,820.366272 
	C250.799667,816.494507 246.311615,812.619385 241.515717,808.481262 
	C242.592865,806.823303 243.158432,804.795166 244.376602,804.264099 
	C252.855301,800.568359 261.231079,795.560669 270.121735,794.254944 
	C276.294586,793.348389 281.183563,792.064758 285.797455,786.591187 
	C287.294067,790.015686 288.304779,792.328369 289.280579,794.561218 
	C295.090393,790.214783 290.888672,780.708313 298.971741,777.577942 
	C301.657440,779.220520 304.392242,780.893188 307.476654,782.779602 
	C310.577057,780.115234 311.903717,772.865540 317.119934,776.668274 
	C327.690430,784.374573 336.669861,773.603027 346.512299,775.219116 
	C351.721191,769.669067 357.897858,769.207642 364.784668,772.360168 
	C369.002808,767.016113 373.835724,762.908020 380.826050,764.616455 
	C386.439850,765.988464 391.256470,764.503967 396.207275,762.236267 
	C398.853821,761.024048 402.382690,759.048828 404.508118,759.907166 
	C410.224854,762.215637 414.584961,758.162231 419.678101,757.939880 
	C424.731995,757.719238 429.694733,755.799744 434.760834,755.366638 
	C440.338318,754.889893 445.987976,755.257935 449.693512,755.257935 
	C454.521942,751.706482 457.847809,748.705383 461.676270,746.632751 
	C464.383545,745.167175 467.796936,745.047607 470.850281,744.171082 
	C478.023407,742.111938 485.095001,739.047974 492.521851,743.084290 
	C495.286316,739.850891 497.641388,737.096375 499.544647,734.870300 
	C503.784332,734.615234 509.207306,735.751038 510.493835,733.943298 
	C514.710022,728.018677 519.456787,729.588440 524.913391,731.395447 
	C528.144470,725.881958 533.185791,725.328369 538.778320,725.783997 
	C541.653320,726.018127 546.024048,726.581482 547.197571,725.056335 
	C549.522644,722.034424 551.276855,723.832275 553.622314,723.612183 
	C560.021240,723.011719 567.942444,722.853149 572.233154,719.078308 
	C579.599426,712.597717 585.897705,711.486511 594.477966,715.281799 
	C599.539185,717.520508 603.235046,714.751465 603.678467,708.829407 
	C604.114563,703.003052 606.844543,699.836914 612.021240,698.277527 
	C615.783142,701.493835 614.142639,709.668701 621.963989,707.640625 
	C625.063110,698.404419 631.957275,693.710083 642.376953,696.260986 
	C647.625671,697.545959 651.327515,696.287659 655.224548,694.254395 
	C659.689819,691.924805 663.843018,691.197083 668.506592,693.453918 
	C669.759155,694.059998 671.483093,693.691895 673.078430,693.775635 
	C673.005737,692.494263 673.219543,691.650024 672.891052,691.227783 
	C670.894043,688.661072 668.773499,686.190552 666.275818,683.184204 
	C668.208557,682.143555 669.880554,681.243347 671.552490,680.343140 
	C673.201660,681.732361 674.631897,683.713440 676.534607,684.417175 
	C691.825867,690.072388 706.948181,696.471802 722.660950,700.586243 
	C731.372498,702.867371 741.116394,701.280518 750.394775,701.270264 
	C752.694031,701.267700 754.983704,700.388855 757.292969,700.297913 
	C779.572266,699.419739 801.859314,698.723083 824.133057,697.727417 
	C829.056274,697.507385 834.096436,696.854980 838.804749,695.461914 
	C851.562988,691.687012 864.343689,687.865540 876.792908,683.201721 
	C889.780457,678.336243 903.211304,677.038818 916.806824,675.976257 
	C930.711426,674.889465 944.638611,673.819519 958.448181,671.947876 
	C962.748169,671.365112 967.240234,668.868286 970.699219,666.076599 
	C978.953003,659.415283 987.788452,656.907471 998.431580,657.895508 
	C1005.021179,658.507324 1008.679565,660.873962 1011.322510,666.704468 
	C1016.819946,678.831787 1022.714294,690.783081 1028.616211,702.722351 
	C1043.671875,733.179688 1058.934937,763.535278 1073.828247,794.071411 
	C1076.487671,799.524353 1080.277344,802.889648 1085.509399,805.643372 
	C1131.225708,829.705505 1178.559814,850.232178 1226.056641,870.420105 
	C1233.974487,873.785583 1241.742554,877.503235 1250.288574,881.379639 
	C1249.255005,906.757263 1252.422729,932.040955 1247.226196,957.109131 
	C1245.473877,965.562744 1243.851562,974.052795 1242.534180,982.582458 
	C1241.981201,986.163147 1242.210083,989.896973 1242.366333,993.549011 
	C1242.892578,1005.841431 1243.650024,1018.124390 1244.127197,1030.418335 
	C1244.927124,1051.033936 1245.412842,1071.662720 1246.340942,1092.272095 
	C1247.238037,1112.194946 1248.376099,1132.110596 1249.737183,1152.006958 
	C1250.129517,1157.742310 1247.045654,1159.311646 1242.511597,1160.876465 
	C1216.720947,1169.777466 1191.008179,1178.904297 1165.276733,1187.976685 
	C1063.606567,1223.823608 961.960510,1259.739502 860.262634,1295.507812 
	C803.765625,1315.378296 747.456970,1335.841431 690.554565,1354.484131 
	C644.431396,1369.595215 597.409485,1381.941895 551.064392,1396.406006 
	C529.505554,1403.134521 508.535034,1411.791260 487.423706,1419.901733 
	C444.871307,1436.249512 402.403839,1452.818481 359.907623,1469.312378 
	C358.046844,1470.034668 356.248779,1470.918579 353.030579,1472.056885 
	C328.444000,1481.499756 305.453705,1491.194580 281.967560,1499.484497 
	C269.908875,1503.740967 260.345764,1508.996460 257.631012,1522.531982 
	C257.055878,1525.399170 255.275558,1528.013428 254.142914,1530.781982 
	C243.321838,1557.233032 232.520767,1583.692261 221.713959,1610.149048 
z"/>
<path data-name="Ngoro" style="fill: {#68F668}" fill="#68F668" opacity="1.000000" stroke="none" 
	d="
M222.011002,1610.780884 
	C232.520767,1583.692261 243.321838,1557.233032 254.142914,1530.781982 
	C255.275558,1528.013428 257.055878,1525.399170 257.631012,1522.531982 
	C260.345764,1508.996460 269.908875,1503.740967 281.967560,1499.484497 
	C305.453705,1491.194580 328.444000,1481.499756 352.289185,1472.309814 
	C360.059082,1486.154297 367.045532,1500.145996 374.327454,1513.982178 
	C389.986633,1543.735718 405.602539,1573.515259 421.627075,1603.072144 
	C429.991028,1618.499390 433.246338,1635.575928 438.774780,1651.917847 
	C451.669525,1690.034180 464.257782,1728.256714 477.519684,1766.244385 
	C480.857330,1775.804810 482.824341,1785.429321 483.659424,1795.352417 
	C484.746948,1808.275635 485.407867,1821.234619 486.249237,1834.178467 
	C486.910370,1844.349609 490.711578,1848.932983 500.729706,1849.757080 
	C513.456116,1850.803833 523.670898,1857.971924 534.891357,1862.691650 
	C537.009644,1863.582642 538.899597,1865.032227 540.860413,1866.278198 
	C544.828125,1868.799438 547.913025,1867.882202 551.608032,1864.971313 
	C557.306763,1860.482056 563.460938,1856.395386 569.904297,1853.073486 
	C577.247559,1849.287598 581.435364,1850.924805 585.754761,1857.740234 
	C586.110840,1858.302246 586.508362,1858.863647 586.729858,1859.481567 
	C593.657104,1878.808594 610.302124,1882.865356 627.768005,1885.402222 
	C633.667175,1886.259033 638.384644,1887.475708 640.758789,1894.168945 
	C641.930115,1897.471313 645.982483,1899.965088 649.120728,1902.301636 
	C652.916077,1905.127441 655.402466,1908.098755 653.810547,1913.148804 
	C652.518860,1917.246216 654.784363,1919.376709 657.654846,1922.281616 
	C663.460266,1928.156982 670.046875,1931.759766 677.798035,1934.187378 
	C684.006653,1936.131836 688.405212,1943.104492 688.097839,1949.388672 
	C687.818115,1955.108643 684.309937,1958.329956 678.850342,1959.563110 
	C674.368347,1960.575317 671.961548,1963.103516 672.130859,1967.974487 
	C672.197327,1969.885986 672.046997,1972.357178 670.928589,1973.652222 
	C667.817688,1977.254028 665.203247,1980.331055 666.197205,1985.900757 
	C668.339600,1997.906982 667.898865,2010.626221 678.301392,2019.681274 
	C681.260864,2022.257202 684.013367,2023.304443 688.186584,2022.642090 
	C692.975708,2021.882080 698.170715,2022.025024 702.918396,2023.041382 
	C710.178528,2024.595703 716.782166,2027.555908 724.857971,2026.733765 
	C734.024414,2025.800781 739.387817,2033.707886 744.215454,2040.432983 
	C745.376526,2042.050415 744.765930,2045.607178 743.913147,2047.874390 
	C741.594055,2054.039795 741.648438,2059.802490 743.143555,2066.329346 
	C744.379700,2071.726074 742.685181,2077.793945 742.208557,2084.739990 
	C743.590515,2085.381348 745.773193,2086.845459 748.169861,2087.427002 
	C757.859924,2089.779053 767.738281,2091.428711 777.316406,2094.149658 
	C789.118591,2097.501953 801.230774,2100.558594 812.156189,2105.897461 
	C818.502808,2108.998779 822.896179,2116.227539 827.869629,2121.862793 
	C828.581360,2122.668945 828.006226,2125.157715 827.341858,2126.538330 
	C824.227844,2133.009033 824.745056,2139.074219 827.816956,2145.530273 
	C830.372314,2150.900635 831.828003,2156.794189 833.833801,2163.200684 
	C814.268433,2170.287842 794.631042,2175.334717 773.506165,2174.304443 
	C748.942871,2173.106201 724.283325,2174.024658 699.671692,2173.635498 
	C675.753906,2173.257324 651.843872,2172.386475 626.323486,2171.337402 
	C618.741882,2170.635010 612.760925,2169.979004 606.793823,2170.086426 
	C590.679626,2170.376221 575.077087,2168.278564 559.774170,2162.853027 
	C547.257141,2158.415039 534.412415,2154.812744 521.550232,2151.465332 
	C511.260315,2148.787354 502.514404,2144.023926 495.142822,2136.362793 
	C491.719238,2132.804688 487.648071,2129.869629 483.618103,2126.437012 
	C475.995331,2134.473145 467.829895,2126.696289 460.849884,2127.945068 
	C456.859344,2130.858154 453.458588,2133.340576 450.097778,2135.793945 
	C448.638428,2144.476562 452.011658,2150.274658 459.750336,2154.545410 
	C464.288574,2157.050049 468.036285,2161.119873 471.794281,2164.834961 
	C473.152649,2166.177979 473.504456,2168.538818 474.282440,2170.357910 
	C464.662598,2168.325195 455.738007,2166.439697 444.979095,2164.166504 
	C449.268799,2171.577881 457.630554,2173.104248 458.303253,2180.577881 
	C454.262085,2184.689209 451.298737,2181.312988 448.404388,2179.640625 
	C444.227386,2177.227295 440.929565,2178.304932 437.525543,2181.174072 
	C434.228058,2183.953613 433.355591,2187.223389 435.180389,2190.933350 
	C436.900879,2194.431152 439.083313,2197.707275 441.137604,2201.034424 
	C443.444092,2204.770020 442.632233,2207.053955 438.646912,2208.819824 
	C434.721130,2210.559326 431.269714,2209.363037 428.425690,2206.962158 
	C421.837677,2201.399902 414.364014,2197.473633 406.704163,2193.683350 
	C403.240082,2191.969238 400.282135,2191.482422 395.616119,2193.164551 
	C401.819092,2198.482910 407.155243,2203.058105 413.647125,2208.624268 
	C408.903534,2212.562500 405.628021,2215.641113 401.996399,2218.217773 
	C395.580963,2222.769531 394.705536,2230.260254 399.946594,2236.179688 
	C401.767700,2238.236572 403.007019,2240.808350 404.512085,2243.145020 
	C404.029541,2243.139404 403.547058,2243.134033 402.111115,2242.949707 
	C401.157654,2242.770996 400.500305,2242.854004 400.500305,2242.854004 
	C395.476654,2239.079102 390.377686,2235.399658 385.449249,2231.504395 
	C379.828705,2227.061768 378.054413,2221.049805 377.499664,2213.982666 
	C376.829987,2205.451172 375.227448,2196.930176 373.261688,2188.585205 
	C371.869293,2182.673828 372.489288,2177.593018 375.363220,2172.323730 
	C380.906708,2162.160156 382.665955,2151.092285 382.337677,2139.605469 
	C382.076752,2130.477051 377.099304,2124.412354 367.864502,2124.238770 
	C360.111237,2124.093262 354.660431,2120.969482 349.936066,2115.343994 
	C348.494873,2113.627686 346.540924,2112.026855 344.488739,2111.195312 
	C336.970093,2108.149902 329.336212,2105.381104 321.698578,2102.639404 
	C312.736969,2099.422363 312.706818,2099.482178 312.198669,2090.317871 
	C312.126343,2089.012939 312.188690,2087.700684 312.188690,2086.587402 
	C315.424774,2084.252441 320.421753,2082.537598 321.127808,2079.739746 
	C322.546722,2074.117188 321.876404,2067.887207 321.477631,2061.947510 
	C321.387360,2060.603271 318.849976,2058.309814 317.496857,2058.351318 
	C310.484192,2058.564453 305.718842,2054.346191 300.603424,2050.699707 
	C293.427216,2045.584473 293.084015,2044.160645 297.020813,2036.038696 
	C300.805328,2028.230713 300.128235,2023.073486 294.061157,2016.430908 
	C291.507599,2017.897339 288.837646,2019.430664 285.109985,2021.571411 
	C283.437805,2014.953491 281.069855,2009.084839 280.659882,2003.082275 
	C280.135223,1995.400635 286.710052,1990.906372 291.498260,1986.294922 
	C295.077911,1982.847412 299.913971,1980.290283 305.800476,1980.937134 
	C307.862457,1981.163574 310.200867,1978.873779 313.460938,1977.192383 
	C310.834320,1974.126953 308.834351,1972.033936 307.108551,1969.735107 
	C300.985779,1961.579224 303.680328,1948.716675 312.637024,1944.120239 
	C314.854706,1942.982056 317.950867,1941.889160 320.079132,1942.561279 
	C326.029297,1944.440796 329.496399,1940.663086 331.478577,1936.959106 
	C333.760895,1932.694580 336.633057,1931.613525 340.793396,1930.948975 
	C343.963531,1930.442627 346.964478,1928.877319 350.852844,1927.494141 
	C349.122192,1924.036133 347.740417,1921.275146 346.299133,1918.395264 
	C346.705261,1917.507202 346.973999,1916.525879 347.533813,1915.756470 
	C352.719604,1908.631958 353.227112,1903.757690 347.018921,1897.567139 
	C342.513000,1893.074097 343.810852,1888.689941 344.369446,1883.910034 
	C344.475403,1883.003540 345.340973,1882.205811 345.760712,1881.313110 
	C351.303192,1869.526001 353.075043,1867.535767 339.629730,1858.991333 
	C338.852448,1858.497437 338.399292,1857.493286 337.341400,1856.150513 
	C341.804382,1853.065308 341.197083,1849.046753 339.911041,1844.371948 
	C338.823730,1840.419678 340.236145,1835.669067 338.797119,1831.946533 
	C335.541504,1823.524658 335.103271,1823.694092 325.856049,1819.004639 
	C326.152130,1816.676758 326.471252,1814.167969 326.787628,1811.680542 
	C321.098938,1807.614014 314.162140,1804.593628 310.092529,1799.348511 
	C301.218567,1787.911133 292.663574,1775.904541 286.286713,1762.990723 
	C283.224945,1756.790161 281.778259,1751.555664 274.436981,1749.039551 
	C266.525055,1746.327759 264.048004,1740.127808 265.176178,1731.575562 
	C265.608795,1728.295898 265.313660,1724.916626 265.789551,1721.646729 
	C266.635773,1715.832153 265.202148,1711.995361 259.693512,1708.523315 
	C253.975891,1704.919678 249.140884,1699.567871 244.835022,1694.240967 
	C243.077560,1692.067017 242.777756,1687.731079 243.457520,1684.753662 
	C245.575287,1675.477539 245.124252,1665.750732 249.323441,1656.785522 
	C252.394638,1650.228760 246.767273,1633.289185 240.883072,1628.688843 
	C237.234558,1625.836548 233.105209,1623.549805 229.700226,1620.450562 
	C226.852875,1617.859009 224.743988,1614.456299 222.011002,1610.780884 
z"/>
<path data-name="Mbangassina" style="fill: {#933B41}" fill="#933B41" opacity="1.000000" stroke="none" 
	d="
M404.992798,2243.591553 
	C403.007019,2240.808350 401.767700,2238.236572 399.946594,2236.179688 
	C394.705536,2230.260254 395.580963,2222.769531 401.996399,2218.217773 
	C405.628021,2215.641113 408.903534,2212.562500 413.647125,2208.624268 
	C407.155243,2203.058105 401.819092,2198.482910 395.616119,2193.164551 
	C400.282135,2191.482422 403.240082,2191.969238 406.704163,2193.683350 
	C414.364014,2197.473633 421.837677,2201.399902 428.425690,2206.962158 
	C431.269714,2209.363037 434.721130,2210.559326 438.646912,2208.819824 
	C442.632233,2207.053955 443.444092,2204.770020 441.137604,2201.034424 
	C439.083313,2197.707275 436.900879,2194.431152 435.180389,2190.933350 
	C433.355591,2187.223389 434.228058,2183.953613 437.525543,2181.174072 
	C440.929565,2178.304932 444.227386,2177.227295 448.404388,2179.640625 
	C451.298737,2181.312988 454.262085,2184.689209 458.303253,2180.577881 
	C457.630554,2173.104248 449.268799,2171.577881 444.979095,2164.166504 
	C455.738007,2166.439697 464.662598,2168.325195 474.282440,2170.357910 
	C473.504456,2168.538818 473.152649,2166.177979 471.794281,2164.834961 
	C468.036285,2161.119873 464.288574,2157.050049 459.750336,2154.545410 
	C452.011658,2150.274658 448.638428,2144.476562 450.097778,2135.793945 
	C453.458588,2133.340576 456.859344,2130.858154 460.849884,2127.945068 
	C467.829895,2126.696289 475.995331,2134.473145 483.618103,2126.437012 
	C487.648071,2129.869629 491.719238,2132.804688 495.142822,2136.362793 
	C502.514404,2144.023926 511.260315,2148.787354 521.550232,2151.465332 
	C534.412415,2154.812744 547.257141,2158.415039 559.774170,2162.853027 
	C575.077087,2168.278564 590.679626,2170.376221 606.793823,2170.086426 
	C612.760925,2169.979004 618.741882,2170.635010 625.392944,2171.415527 
	C611.777527,2195.114014 596.889404,2218.002930 583.483765,2241.729248 
	C578.029114,2251.383545 575.781372,2262.853027 572.112610,2273.509766 
	C571.682495,2274.759033 571.358765,2276.077148 571.215210,2277.388428 
	C569.261719,2295.246826 557.409851,2307.308105 545.617493,2318.791748 
	C528.007141,2335.941162 509.564056,2352.260986 491.039062,2368.434082 
	C482.078583,2376.257080 472.124939,2382.942383 461.846558,2390.237305 
	C455.076447,2387.574951 448.760590,2385.342529 443.165314,2381.928955 
	C436.046173,2377.585938 429.327026,2375.432861 420.630310,2377.320312 
	C409.337494,2379.771484 397.430573,2379.415771 386.156860,2381.925293 
	C374.871094,2384.437500 363.893158,2388.620605 353.106415,2392.894775 
	C350.221558,2394.037598 347.943756,2397.900391 346.409210,2401.017578 
	C343.129944,2407.678955 339.060822,2413.186768 333.029785,2417.914551 
	C321.826904,2426.696289 314.750824,2438.741211 309.773804,2452.051514 
	C301.320099,2474.659912 284.807373,2487.956055 262.383331,2493.586426 
	C262.383331,2489.965088 262.559845,2486.692383 262.348083,2483.444824 
	C261.843689,2475.711182 262.427551,2468.203857 265.591675,2460.981201 
	C266.773468,2458.283447 267.612885,2455.373535 268.168396,2452.475830 
	C269.584290,2445.090332 274.096252,2440.212402 280.134369,2436.190186 
	C283.626221,2433.863770 287.267822,2431.319336 289.772064,2428.052734 
	C294.054749,2422.466064 298.098938,2416.944336 304.632050,2413.658936 
	C308.938477,2411.493408 310.394287,2407.930664 309.457214,2402.825195 
	C308.448639,2397.330322 308.668365,2391.618164 308.202423,2386.013184 
	C307.870697,2382.022705 309.776978,2379.295166 312.135040,2376.242676 
	C316.978119,2369.973389 321.333893,2363.296631 325.502380,2356.547852 
	C328.382507,2351.885498 329.423218,2346.019043 336.090149,2344.367432 
	C337.713379,2343.965088 338.933197,2340.882812 339.823090,2338.811279 
	C341.264282,2335.456543 342.588501,2331.989746 343.405396,2328.441895 
	C344.831757,2322.247314 347.277161,2317.309814 354.171112,2315.665039 
	C355.947510,2315.241211 357.989746,2313.733643 358.881439,2312.146240 
	C366.165070,2299.178955 381.519745,2293.405273 387.823364,2279.510010 
	C388.563629,2277.878174 391.516479,2277.061523 393.597260,2276.271973 
	C396.576385,2275.141602 400.702972,2275.281006 402.513092,2273.250244 
	C405.007446,2270.451416 406.269348,2266.247559 407.188843,2262.435547 
	C408.157990,2258.417725 408.480682,2254.139648 408.333710,2250.001953 
	C408.261963,2247.982422 406.480896,2246.024170 404.992798,2243.591553 
z"/>
</svg>