<svg version="1.1" id="Layer_1" xmlns="http://www.w3.org/2000/svg" xmlns:xlink="http://www.w3.org/1999/xlink" x="0px" y="0px"
	 width="100%" viewBox="0 0 2241 2403" enable-background="new 0 0 2241 2403" xml:space="preserve">

<path 
	data-name="Moulvoudaye"
fill="#636499" opacity="1.000000" stroke="none" 
	d="
M956.504944,757.900879 
	C960.339722,757.377197 964.174194,756.398193 968.009338,756.395813 
	C1097.928223,756.316467 1227.847046,756.329895 1357.765991,756.329895 
	C1499.011108,756.329956 1640.256226,756.337952 1781.501343,756.327820 
	C1935.047974,756.316772 2088.594482,756.288757 2243.070557,756.134033 
	C2244.000000,756.000000 2244.000000,757.000000 2243.064209,757.558655 
	C2096.541992,758.125549 1950.955566,758.133179 1805.369141,758.148315 
	C1803.039917,758.148560 1800.710205,758.226074 1798.382324,758.312256 
	C1798.159180,758.320557 1797.879395,758.609863 1797.748901,758.838806 
	C1797.596680,759.106140 1797.579712,759.450562 1797.407227,760.158752 
	C1813.114014,769.917053 1828.914429,779.771057 1844.761475,789.549316 
	C1848.186035,791.662292 1851.516724,793.387329 1851.786621,798.315796 
	C1852.947632,819.515259 1854.533936,840.691956 1855.610107,861.895020 
	C1855.843994,866.502808 1857.093750,869.949768 1860.175049,873.460693 
	C1877.049683,892.688477 1893.686890,912.125671 1910.322876,931.561829 
	C1955.709839,984.588074 2001.022461,1037.677856 2046.428101,1090.687988 
	C2077.348877,1126.787476 2108.392090,1162.781738 2139.351807,1198.847778 
	C2172.894287,1237.922729 2206.392578,1277.035889 2239.986328,1316.066650 
	C2240.874512,1317.098267 2242.642334,1317.372437 2244.000000,1318.000000 
	C2244.000000,1320.133423 2244.000000,1322.266724 2243.354004,1324.807617 
	C2242.143311,1325.564819 2241.502197,1325.832520 2241.023682,1326.275879 
	C2212.494141,1352.714600 2184.007568,1379.199951 2155.451904,1405.610107 
	C2129.822754,1429.313354 2104.293457,1453.128784 2078.408203,1476.550293 
	C2036.580200,1514.397461 2036.466797,1514.269043 1987.092773,1543.690796 
	C1982.028320,1546.708740 1977.076050,1549.915161 1972.254272,1552.920288 
	C1972.955078,1555.596558 1973.452393,1557.495483 1973.086182,1559.592773 
	C1957.681885,1563.463257 1947.926758,1553.686768 1937.253540,1546.401245 
	C1928.541016,1556.192871 1920.546875,1565.546143 1912.158813,1574.531616 
	C1891.471313,1596.692383 1871.031616,1619.108887 1849.709229,1640.647339 
	C1815.484131,1675.219360 1780.804199,1709.347412 1745.988770,1743.327148 
	C1708.551636,1779.865356 1670.736694,1816.016602 1632.230713,1852.316406 
	C1613.198730,1850.590942 1594.973389,1849.289917 1576.859375,1847.075928 
	C1555.466553,1844.461060 1534.176025,1841.013550 1512.829712,1838.008545 
	C1494.768677,1835.465942 1476.710083,1832.888916 1458.614746,1830.609863 
	C1443.806274,1828.744751 1428.945068,1827.296387 1413.489258,1825.180176 
	C1396.853638,1822.359253 1380.823486,1820.102051 1364.822754,1817.653442 
	C1355.174072,1816.176758 1353.653931,1814.064819 1351.956421,1804.289551 
	C1348.451294,1784.106201 1344.528320,1763.995972 1340.902832,1743.833008 
	C1337.804565,1726.602539 1334.881714,1709.340698 1332.468994,1691.750732 
	C1336.833374,1687.227905 1341.494873,1683.554443 1344.233521,1678.778442 
	C1355.987305,1658.280518 1367.258789,1637.503540 1378.526733,1616.730957 
	C1382.813110,1608.828979 1386.751465,1600.728516 1390.582520,1592.593384 
	C1392.419067,1588.693970 1394.869141,1586.246460 1399.240723,1585.224365 
	C1405.379761,1583.788940 1411.322632,1581.533813 1417.428589,1579.931152 
	C1421.800415,1578.783569 1424.139282,1576.280884 1425.058350,1571.849121 
	C1426.474976,1565.018433 1428.534180,1558.318726 1429.886719,1551.477539 
	C1435.427979,1523.448608 1440.954346,1495.414673 1446.141357,1467.318970 
	C1447.516357,1459.871216 1450.510742,1454.689453 1457.970825,1451.935059 
	C1472.693970,1446.498291 1484.557739,1437.319214 1493.087402,1423.887329 
	C1496.105347,1419.134766 1499.846680,1414.790405 1503.608032,1410.572266 
	C1510.461304,1402.886597 1514.576904,1394.039917 1516.156250,1383.901855 
	C1516.615234,1380.955933 1517.490723,1378.070923 1518.239502,1375.174683 
	C1522.483154,1358.760864 1525.875000,1342.063721 1531.191528,1326.004150 
	C1541.013916,1296.333374 1551.878540,1267.004883 1562.526245,1237.612549 
	C1564.663696,1231.712280 1567.438721,1225.978271 1570.498291,1220.490356 
	C1576.820679,1209.150391 1583.548706,1198.037231 1590.074463,1186.810303 
	C1592.146973,1183.244751 1594.674438,1179.501099 1588.663818,1177.094971 
	C1592.034668,1173.596802 1595.439209,1170.910400 1597.862915,1167.522217 
	C1613.349121,1145.874023 1628.646118,1124.089966 1643.950928,1102.312378 
	C1652.906738,1089.568970 1661.761963,1076.754761 1671.247314,1063.132446 
	C1637.685059,1044.401855 1604.963501,1026.140381 1572.775879,1008.176880 
	C1570.810791,981.939392 1568.929321,956.817810 1567.025879,931.402344 
	C1604.388916,902.474670 1641.448486,873.775818 1678.514771,845.085754 
	C1715.345093,816.578308 1752.377075,788.325806 1790.661865,758.140869 
	C1784.411377,758.140869 1780.756226,758.140808 1777.100952,758.140808 
	C1506.894531,758.140808 1236.688110,758.141663 966.481750,758.130859 
	C963.156128,758.130737 959.830566,757.980896 956.504944,757.900879 
z"/>

<path 
	data-name="Taibong"
fill="#B3497E" opacity="1.000000" stroke="none" 
	d="
M2017.393433,2084.331055 
	C2018.289795,2094.537842 2013.392212,2103.190918 2008.751099,2111.371338 
	C1990.393555,2143.728027 1971.753418,2175.942383 1952.336304,2207.669678 
	C1946.354370,2217.444336 1937.758667,2225.675537 1930.013184,2234.302002 
	C1918.695190,2246.907227 1907.049438,2259.218018 1895.587891,2271.695312 
	C1894.258179,2273.143066 1892.903198,2274.705078 1892.077637,2276.458008 
	C1871.984619,2319.122803 1851.961914,2361.821045 1831.963135,2405.256348 
	C1825.938843,2406.000000 1819.877563,2406.000000 1812.908203,2406.000000 
	C1813.554199,2401.505615 1809.732178,2402.332031 1807.689575,2401.950439 
	C1793.324463,2399.267090 1778.915405,2396.819336 1764.543701,2394.169922 
	C1707.699341,2383.689697 1650.805908,2373.463135 1594.040527,2362.570068 
	C1535.946655,2351.422607 1477.980347,2339.610107 1419.961426,2328.072266 
	C1416.379272,2327.359863 1412.825439,2326.504395 1409.268921,2325.051025 
	C1412.973877,2318.923096 1417.372437,2313.804199 1420.243164,2307.937744 
	C1433.881104,2280.066406 1448.011353,2252.591064 1471.160278,2231.043701 
	C1473.088135,2229.249023 1474.700073,2226.729004 1476.976074,2225.755615 
	C1494.286377,2218.349854 1510.692627,2209.058105 1530.355347,2207.459229 
	C1546.766235,2206.125000 1563.389038,2204.420654 1579.265381,2198.639160 
	C1585.891846,2196.226318 1589.860962,2193.095947 1591.711304,2186.215820 
	C1597.959839,2162.979736 1607.673096,2141.135498 1619.170654,2120.039795 
	C1622.831909,2113.322021 1626.244507,2106.457764 1629.507812,2099.536621 
	C1636.088989,2085.579102 1644.095703,2072.793701 1656.161133,2062.721924 
	C1662.529907,2057.405518 1667.882446,2050.887451 1674.099121,2045.368408 
	C1678.016235,2041.890747 1682.406982,2038.718750 1687.059204,2036.334229 
	C1716.424438,2021.282715 1746.861328,2008.871826 1778.734253,2000.142456 
	C1785.780029,1998.212769 1792.755615,1995.395630 1799.931030,1994.690430 
	C1820.427368,1992.675903 1841.002441,1991.416016 1861.562744,1990.116699 
	C1869.524658,1989.613525 1877.530396,1989.801514 1885.723877,1990.609131 
	C1885.978394,1998.533569 1886.266357,2005.533325 1885.992310,2012.510742 
	C1885.788086,2017.710938 1887.394409,2021.368652 1892.035522,2024.034180 
	C1902.685425,2030.150879 1912.843994,2037.212524 1923.814331,2042.656860 
	C1934.703857,2048.061279 1944.745117,2054.234375 1952.623535,2063.535645 
	C1957.373047,2069.142822 1963.515747,2071.989990 1970.435791,2073.795654 
	C1981.665405,2076.725342 1992.791626,2080.059082 2004.050659,2082.864258 
	C2008.363892,2083.938721 2012.621460,2086.943359 2017.393433,2084.331055 
z"/>


<path 
	data-name="Moutourwa"
fill="#E55CF9" opacity="1.000000" stroke="none" 
	d="
M103.684952,1586.033447 
	C107.508713,1569.774048 107.742500,1553.192749 108.437004,1536.618042 
	C108.879288,1526.062622 110.570061,1515.564819 111.303383,1505.013672 
	C111.657898,1499.912720 113.459343,1494.377441 108.875671,1489.928467 
	C108.247635,1489.319092 107.867790,1488.113403 107.908806,1487.208008 
	C108.304840,1478.468018 108.815620,1469.733154 109.325325,1460.416870 
	C122.917732,1460.253662 136.780273,1460.118774 144.425842,1447.302856 
	C182.521118,1443.578247 219.760986,1439.811523 257.031738,1436.380005 
	C266.608032,1435.498291 276.298676,1435.923706 285.904297,1435.270874 
	C291.804230,1434.869751 297.873749,1434.301147 303.473541,1432.549683 
	C380.118988,1408.575195 456.695770,1384.381348 534.324768,1360.221680 
	C535.842896,1360.563354 536.336182,1360.908325 537.060547,1362.063965 
	C536.820068,1366.852417 536.504089,1370.837524 535.873596,1374.772095 
	C532.510315,1395.759521 529.486816,1416.814819 525.461243,1437.676147 
	C523.688965,1446.860474 521.878174,1455.857544 522.199829,1465.266357 
	C522.859131,1484.556274 523.697449,1503.859131 523.560181,1523.150146 
	C523.479004,1534.559692 526.314331,1544.359009 532.333618,1554.091309 
	C544.207031,1573.289185 556.419861,1592.432129 561.072388,1615.167480 
	C562.173401,1620.547485 562.756226,1625.415405 561.006226,1630.731323 
	C553.102844,1654.740479 545.474304,1678.839966 537.651917,1702.876099 
	C530.757996,1724.059082 522.106201,1744.836426 517.272034,1766.472534 
	C513.134705,1784.989746 508.289581,1803.256348 503.282928,1821.507446 
	C501.505219,1827.987915 500.450470,1834.122070 501.593353,1840.989014 
	C503.389648,1851.781982 504.101349,1862.772339 504.861298,1873.707642 
	C505.021851,1876.017700 503.966309,1878.878906 502.521362,1880.754639 
	C495.530670,1889.828125 487.630127,1897.736694 475.574707,1899.849121 
	C472.330933,1900.417480 469.071808,1901.510010 466.132935,1902.985718 
	C464.258514,1903.926880 462.113739,1905.756104 461.540955,1907.630615 
	C457.969940,1919.317261 454.808289,1931.129028 451.522308,1942.859131 
	C454.712708,1945.588013 457.060333,1947.976685 459.770782,1949.836670 
	C465.832123,1953.996582 469.510376,1959.191528 470.658142,1966.794312 
	C472.043335,1975.969971 474.667694,1984.964355 476.864624,1994.010742 
	C481.421356,2012.773926 479.711487,2031.453979 476.269867,2050.123535 
	C444.951904,2034.168701 410.487549,2027.318726 377.505768,2016.202393 
	C333.752411,2001.455566 289.659668,1987.715576 245.703857,1973.570557 
	C243.239029,1972.777344 240.693161,1972.235962 237.688797,1971.447021 
	C235.019440,1978.569092 230.833374,1984.621094 233.432190,1992.517090 
	C233.928238,1994.024170 232.252686,1997.271973 230.670349,1998.257080 
	C224.266403,2002.243652 217.703873,2007.182861 209.973206,2000.472778 
	C208.779465,1999.436523 206.974991,1999.104004 205.903687,1998.640869 
	C198.804428,2003.027832 191.946548,2007.084961 185.293579,2011.454102 
	C182.010590,2013.610229 179.136871,2013.550781 176.154007,2011.249756 
	C175.102051,2010.438110 174.109146,2008.749146 173.123169,2008.774658 
	C161.033112,2009.086304 159.053314,1999.513550 155.618393,1991.272583 
	C153.903595,1987.158447 152.466522,1983.379150 152.936630,1978.451294 
	C153.295105,1974.693604 150.982986,1969.222656 143.965256,1973.980469 
	C146.806610,1958.340210 140.411102,1948.014404 129.530029,1939.313232 
	C131.494904,1920.211182 125.907959,1904.753052 105.663452,1896.258057 
	C106.919739,1885.510254 108.070267,1874.790771 109.452240,1864.101196 
	C110.724037,1854.264038 112.380524,1844.476318 113.631760,1834.636841 
	C118.349121,1797.540039 122.959763,1760.429810 127.638245,1723.328125 
	C128.396011,1717.318726 127.894745,1711.617310 126.033928,1705.701660 
	C122.754936,1695.277710 120.425560,1684.554932 117.696220,1673.957886 
	C117.204170,1672.047241 117.068748,1669.936401 116.144402,1668.262695 
	C109.091949,1655.494141 107.537308,1641.160522 104.213966,1627.325806 
	C103.368332,1623.805542 102.177727,1620.368164 100.803169,1616.169434 
	C100.371040,1612.214478 100.281380,1608.982788 100.734085,1604.302734 
	C102.079285,1597.247192 102.882118,1591.640381 103.684952,1586.033447 
z"/>
<path 
	data-name="Guider"
fill="#424142" opacity="1.000000" stroke="none" 
	d="
M103.163849,1585.945068 
	C102.882118,1591.640381 102.079285,1597.247192 100.825256,1603.466431 
	C100.268364,1598.579834 100.162659,1593.080933 100.303101,1586.703491 
	C101.247086,1585.835571 101.944923,1585.846191 103.163849,1585.945068 
z"/>
<path 
	data-name="Guider"
fill="#424142" opacity="1.000000" stroke="none" 
	d="
M103.798241,1035.346313 
	C103.347298,1036.023071 102.569321,1036.199341 101.196548,1036.288818 
	C101.558235,1035.750122 102.514717,1035.297974 103.798241,1035.346313 
z"/>
<path 
	data-name="Kaélé"
fill="#858239" opacity="1.000000" stroke="none" 
	d="
M476.736298,2050.614258 
	C479.711487,2031.453979 481.421356,2012.773926 476.864624,1994.010742 
	C474.667694,1984.964355 472.043335,1975.969971 470.658142,1966.794312 
	C469.510376,1959.191528 465.832123,1953.996582 459.770782,1949.836670 
	C457.060333,1947.976685 454.712708,1945.588013 451.522308,1942.859131 
	C454.808289,1931.129028 457.969940,1919.317261 461.540955,1907.630615 
	C462.113739,1905.756104 464.258514,1903.926880 466.132935,1902.985718 
	C469.071808,1901.510010 472.330933,1900.417480 475.574707,1899.849121 
	C487.630127,1897.736694 495.530670,1889.828125 502.521362,1880.754639 
	C503.966309,1878.878906 505.021851,1876.017700 504.861298,1873.707642 
	C504.101349,1862.772339 503.389648,1851.781982 501.593353,1840.989014 
	C500.450470,1834.122070 501.505219,1827.987915 503.282928,1821.507446 
	C508.289581,1803.256348 513.134705,1784.989746 517.272034,1766.472534 
	C522.106201,1744.836426 530.757996,1724.059082 537.651917,1702.876099 
	C545.474304,1678.839966 553.102844,1654.740479 561.006226,1630.731323 
	C562.756226,1625.415405 562.173401,1620.547485 561.072388,1615.167480 
	C556.419861,1592.432129 544.207031,1573.289185 532.333618,1554.091309 
	C526.314331,1544.359009 523.479004,1534.559692 523.560181,1523.150146 
	C523.697449,1503.859131 522.859131,1484.556274 522.199829,1465.266357 
	C521.878174,1455.857544 523.688965,1446.860474 525.461243,1437.676147 
	C529.486816,1416.814819 532.510315,1395.759521 535.873596,1374.772095 
	C536.504089,1370.837524 536.820068,1366.852417 537.896667,1362.267578 
	C561.262207,1372.646118 584.012329,1383.647095 606.761963,1394.649414 
	C619.040588,1400.587646 631.364075,1406.435547 643.580322,1412.499512 
	C652.165833,1416.761353 660.613647,1418.254639 670.387634,1415.971680 
	C707.592407,1407.281982 744.958557,1399.280640 782.285339,1391.117554 
	C791.842285,1389.027588 801.476013,1387.288574 811.502991,1385.303467 
	C816.488403,1409.045166 821.121521,1431.463257 825.925720,1453.844727 
	C828.505798,1465.864624 831.487854,1477.797852 834.100952,1489.811157 
	C842.223511,1527.152222 850.457886,1564.471313 858.190796,1601.893555 
	C860.276855,1611.989014 864.827881,1617.463989 875.222900,1620.802979 
	C951.808044,1645.404175 1028.208862,1670.585693 1104.528076,1696.003784 
	C1121.153198,1701.540894 1137.537598,1706.147705 1155.178833,1702.279419 
	C1156.780518,1701.928223 1158.499634,1702.133301 1160.161133,1702.030518 
	C1183.403564,1700.592285 1206.661255,1699.357300 1229.883789,1697.648193 
	C1260.399780,1695.402222 1290.882202,1692.699097 1321.396973,1690.436157 
	C1324.831909,1690.181396 1328.383789,1691.502441 1331.881348,1692.092773 
	C1334.881714,1709.340698 1337.804565,1726.602539 1340.902832,1743.833008 
	C1344.528320,1763.995972 1348.451294,1784.106201 1351.956421,1804.289551 
	C1353.653931,1814.064819 1355.174072,1816.176758 1364.822754,1817.653442 
	C1380.823486,1820.102051 1396.853638,1822.359253 1413.379639,1825.986328 
	C1411.925659,1834.991699 1409.735840,1842.658081 1408.043091,1850.432861 
	C1402.630127,1875.296387 1393.593018,1898.607544 1379.477051,1919.908325 
	C1378.253906,1921.754028 1378.511963,1924.968262 1378.891479,1927.421509 
	C1380.460815,1937.565186 1382.241943,1947.679321 1384.134766,1957.768799 
	C1386.270630,1969.154541 1387.732788,1980.764771 1391.041016,1991.812256 
	C1398.182129,2015.659180 1406.015503,2039.298828 1410.789185,2063.780518 
	C1413.057617,2075.414795 1412.878662,2086.860352 1407.167969,2097.743164 
	C1403.494385,2104.743652 1397.968384,2108.111328 1390.388428,2107.567139 
	C1382.783813,2107.020996 1375.175415,2106.239746 1367.564087,2106.182861 
	C1362.830322,2106.147461 1359.387573,2104.584717 1356.212158,2101.204346 
	C1350.059082,2094.654785 1344.321045,2087.408203 1337.143066,2082.197021 
	C1325.112183,2073.463623 1312.562622,2065.165283 1299.337280,2058.442383 
	C1288.061401,2052.710449 1276.174805,2051.900146 1263.260620,2057.428223 
	C1250.611206,2062.843018 1237.784668,2066.740967 1229.802246,2079.044434 
	C1227.660767,2082.344971 1223.628296,2084.742920 1222.373657,2088.240234 
	C1216.008179,2105.986572 1207.899048,2123.114258 1205.622192,2142.284912 
	C1203.720947,2158.291992 1200.464966,2173.668457 1189.616089,2187.369873 
	C1170.920166,2210.981689 1149.875000,2232.015381 1127.431396,2251.866943 
	C1122.820557,2255.945312 1118.630249,2260.499512 1114.246216,2264.834473 
	C1098.331177,2261.563721 1082.445923,2258.135986 1066.484619,2255.108887 
	C1061.012329,2254.070557 1055.352173,2254.010742 1049.773560,2253.556152 
	C1048.449951,2253.448242 1047.109375,2253.548828 1045.776611,2253.553711 
	C995.473083,2253.736816 945.168823,2253.805176 894.866211,2254.128418 
	C804.963440,2254.705811 715.062012,2255.490967 625.159180,2256.059326 
	C606.178101,2256.179199 587.189392,2255.420898 568.211914,2255.666748 
	C555.946899,2255.825684 543.698853,2257.620361 531.437988,2257.684326 
	C518.846008,2257.750000 506.241119,2256.710693 493.654785,2255.943115 
	C486.705963,2255.519775 479.757080,2254.861084 472.856659,2253.943848 
	C465.691254,2252.991211 464.301056,2250.458984 465.014374,2243.213867 
	C465.664276,2236.612549 465.575531,2229.939941 465.853271,2223.300537 
	C466.644775,2204.378906 467.400055,2185.455078 468.292236,2166.538086 
	C468.604340,2159.919434 469.101868,2153.297363 469.877502,2146.719727 
	C470.132751,2144.555420 471.063232,2142.108643 472.490662,2140.511230 
	C477.112640,2135.339111 479.474884,2129.249268 480.780945,2122.626709 
	C481.808014,2117.418457 484.695282,2113.886719 489.220032,2110.986816 
	C497.858276,2105.450439 506.119873,2099.326172 515.121277,2093.038330 
	C507.282654,2080.857178 500.561371,2068.927246 492.233551,2058.250488 
	C489.183258,2054.339600 482.324310,2053.399902 476.736298,2050.614258 
z"/>
<path 
	data-name="Mindif"
fill="#72E8DE" opacity="1.000000" stroke="none" 
	d="
M1332.468994,1691.750732 
	C1328.383789,1691.502441 1324.831909,1690.181396 1321.396973,1690.436157 
	C1290.882202,1692.699097 1260.399780,1695.402222 1229.883789,1697.648193 
	C1206.661255,1699.357300 1183.403564,1700.592285 1160.161133,1702.030518 
	C1158.499634,1702.133301 1156.780518,1701.928223 1155.178833,1702.279419 
	C1137.537598,1706.147705 1121.153198,1701.540894 1104.528076,1696.003784 
	C1028.208862,1670.585693 951.808044,1645.404175 875.222900,1620.802979 
	C864.827881,1617.463989 860.276855,1611.989014 858.190796,1601.893555 
	C850.457886,1564.471313 842.223511,1527.152222 834.100952,1489.811157 
	C831.487854,1477.797852 828.505798,1465.864624 825.925720,1453.844727 
	C821.121521,1431.463257 816.488403,1409.045166 811.502991,1385.303467 
	C801.476013,1387.288574 791.842285,1389.027588 782.285339,1391.117554 
	C744.958557,1399.280640 707.592407,1407.281982 670.387634,1415.971680 
	C660.613647,1418.254639 652.165833,1416.761353 643.580322,1412.499512 
	C631.364075,1406.435547 619.040588,1400.587646 606.761963,1394.649414 
	C584.012329,1383.647095 561.262207,1372.646118 537.676086,1361.440918 
	C536.336182,1360.908325 535.842896,1360.563354 535.099487,1360.023682 
	C535.322815,1356.708862 534.929260,1353.050415 536.433960,1350.521362 
	C545.775024,1334.822510 554.737732,1318.962524 562.100586,1302.204224 
	C563.336731,1299.390747 566.080872,1296.946167 568.664734,1295.069946 
	C579.153198,1287.453735 589.572510,1279.675171 600.583069,1272.872314 
	C606.501770,1269.215454 609.714661,1264.428589 611.274902,1258.184692 
	C616.189697,1238.515991 620.576965,1218.708618 625.841675,1199.136108 
	C630.921570,1180.250122 637.016174,1161.638672 642.270935,1142.796753 
	C643.732422,1137.556396 647.917053,1136.587158 651.708862,1134.986938 
	C674.952454,1125.177856 698.287659,1115.586182 721.565613,1105.858032 
	C773.317322,1084.230347 824.995422,1062.424561 876.855408,1041.060181 
	C885.053467,1037.682861 894.162048,1036.587036 902.637146,1033.791870 
	C912.347290,1030.589600 921.822937,1026.675171 931.390747,1023.044495 
	C932.002258,1022.812439 932.497009,1022.131592 933.101807,1022.044006 
	C944.019043,1020.462097 951.623596,1014.401245 955.550720,1003.953552 
	C958.634277,1004.798218 960.483337,1005.392944 962.372314,1005.805298 
	C967.835693,1006.997986 971.979553,1005.104980 975.312439,1000.621765 
	C977.635864,997.496338 979.985657,993.985718 983.163391,991.972717 
	C994.701355,984.663269 1005.160034,983.900391 1017.247437,995.131775 
	C1021.329956,998.925232 1026.416260,1001.638489 1031.740967,1005.328491 
	C1031.355591,1011.273376 1035.263428,1015.449219 1039.718384,1020.255615 
	C1049.159058,1030.441040 1057.730835,1041.531250 1065.822388,1052.848633 
	C1089.399048,1085.824707 1112.614502,1119.059937 1135.839844,1152.285522 
	C1139.593750,1157.655640 1143.956421,1161.318848 1150.440430,1163.403687 
	C1177.606567,1172.138306 1204.670532,1181.208984 1231.606201,1190.630005 
	C1239.010864,1193.219971 1246.313721,1194.444214 1254.025269,1194.030396 
	C1284.189819,1192.411865 1314.350952,1190.726196 1344.520996,1189.217896 
	C1361.444824,1188.371704 1378.390015,1187.952637 1395.314087,1187.111450 
	C1419.179932,1185.925537 1443.029541,1184.411865 1466.896729,1183.256592 
	C1485.148682,1182.372925 1503.421387,1181.924683 1521.677002,1181.106079 
	C1543.240479,1180.139038 1564.795532,1178.981934 1587.299316,1177.744629 
	C1594.674438,1179.501099 1592.146973,1183.244751 1590.074463,1186.810303 
	C1583.548706,1198.037231 1576.820679,1209.150391 1570.498291,1220.490356 
	C1567.438721,1225.978271 1564.663696,1231.712280 1562.526245,1237.612549 
	C1551.878540,1267.004883 1541.013916,1296.333374 1531.191528,1326.004150 
	C1525.875000,1342.063721 1522.483154,1358.760864 1518.239502,1375.174683 
	C1517.490723,1378.070923 1516.615234,1380.955933 1516.156250,1383.901855 
	C1514.576904,1394.039917 1510.461304,1402.886597 1503.608032,1410.572266 
	C1499.846680,1414.790405 1496.105347,1419.134766 1493.087402,1423.887329 
	C1484.557739,1437.319214 1472.693970,1446.498291 1457.970825,1451.935059 
	C1450.510742,1454.689453 1447.516357,1459.871216 1446.141357,1467.318970 
	C1440.954346,1495.414673 1435.427979,1523.448608 1429.886719,1551.477539 
	C1428.534180,1558.318726 1426.474976,1565.018433 1425.058350,1571.849121 
	C1424.139282,1576.280884 1421.800415,1578.783569 1417.428589,1579.931152 
	C1411.322632,1581.533813 1405.379761,1583.788940 1399.240723,1585.224365 
	C1394.869141,1586.246460 1392.419067,1588.693970 1390.582520,1592.593384 
	C1386.751465,1600.728516 1382.813110,1608.828979 1378.526733,1616.730957 
	C1367.258789,1637.503540 1355.987305,1658.280518 1344.233521,1678.778442 
	C1341.494873,1683.554443 1336.833374,1687.227905 1332.468994,1691.750732 
z"/>
<path 
	data-name="Guidiguis"
fill="#59DE54" opacity="1.000000" stroke="none" 
	d="
M1115.012329,2265.149414 
	C1118.630249,2260.499512 1122.820557,2255.945312 1127.431396,2251.866943 
	C1149.875000,2232.015381 1170.920166,2210.981689 1189.616089,2187.369873 
	C1200.464966,2173.668457 1203.720947,2158.291992 1205.622192,2142.284912 
	C1207.899048,2123.114258 1216.008179,2105.986572 1222.373657,2088.240234 
	C1223.628296,2084.742920 1227.660767,2082.344971 1229.802246,2079.044434 
	C1237.784668,2066.740967 1250.611206,2062.843018 1263.260620,2057.428223 
	C1276.174805,2051.900146 1288.061401,2052.710449 1299.337280,2058.442383 
	C1312.562622,2065.165283 1325.112183,2073.463623 1337.143066,2082.197021 
	C1344.321045,2087.408203 1350.059082,2094.654785 1356.212158,2101.204346 
	C1359.387573,2104.584717 1362.830322,2106.147461 1367.564087,2106.182861 
	C1375.175415,2106.239746 1382.783813,2107.020996 1390.388428,2107.567139 
	C1397.968384,2108.111328 1403.494385,2104.743652 1407.167969,2097.743164 
	C1412.878662,2086.860352 1413.057617,2075.414795 1410.789185,2063.780518 
	C1406.015503,2039.298828 1398.182129,2015.659180 1391.041016,1991.812256 
	C1387.732788,1980.764771 1386.270630,1969.154541 1384.134766,1957.768799 
	C1382.241943,1947.679321 1380.460815,1937.565186 1378.891479,1927.421509 
	C1378.511963,1924.968262 1378.253906,1921.754028 1379.477051,1919.908325 
	C1393.593018,1898.607544 1402.630127,1875.296387 1408.043091,1850.432861 
	C1409.735840,1842.658081 1411.925659,1834.991699 1413.997559,1826.469482 
	C1428.945068,1827.296387 1443.806274,1828.744751 1458.614746,1830.609863 
	C1476.710083,1832.888916 1494.768677,1835.465942 1512.829712,1838.008545 
	C1534.176025,1841.013550 1555.466553,1844.461060 1576.859375,1847.075928 
	C1594.973389,1849.289917 1613.198730,1850.590942 1632.634277,1852.921631 
	C1639.402100,1859.447144 1646.040771,1861.985107 1654.252930,1862.359863 
	C1664.172729,1862.812744 1674.181152,1864.043213 1683.870728,1866.197998 
	C1699.437134,1869.659790 1714.790405,1874.094238 1730.192017,1878.271484 
	C1733.049438,1879.046387 1735.794434,1880.381104 1738.448242,1881.737549 
	C1751.785156,1888.554565 1765.486450,1894.782227 1778.278198,1902.510620 
	C1795.061035,1912.649902 1812.214600,1922.674683 1827.211548,1935.149536 
	C1847.634033,1952.137451 1866.170776,1971.391968 1885.516113,1989.674683 
	C1877.530396,1989.801514 1869.524658,1989.613525 1861.562744,1990.116699 
	C1841.002441,1991.416016 1820.427368,1992.675903 1799.931030,1994.690430 
	C1792.755615,1995.395630 1785.780029,1998.212769 1778.734253,2000.142456 
	C1746.861328,2008.871826 1716.424438,2021.282715 1687.059204,2036.334229 
	C1682.406982,2038.718750 1678.016235,2041.890747 1674.099121,2045.368408 
	C1667.882446,2050.887451 1662.529907,2057.405518 1656.161133,2062.721924 
	C1644.095703,2072.793701 1636.088989,2085.579102 1629.507812,2099.536621 
	C1626.244507,2106.457764 1622.831909,2113.322021 1619.170654,2120.039795 
	C1607.673096,2141.135498 1597.959839,2162.979736 1591.711304,2186.215820 
	C1589.860962,2193.095947 1585.891846,2196.226318 1579.265381,2198.639160 
	C1563.389038,2204.420654 1546.766235,2206.125000 1530.355347,2207.459229 
	C1510.692627,2209.058105 1494.286377,2218.349854 1476.976074,2225.755615 
	C1474.700073,2226.729004 1473.088135,2229.249023 1471.160278,2231.043701 
	C1448.011353,2252.591064 1433.881104,2280.066406 1420.243164,2307.937744 
	C1417.372437,2313.804199 1412.973877,2318.923096 1408.634521,2324.711426 
	C1369.526978,2317.271240 1331.051392,2309.568848 1292.604492,2301.725586 
	C1244.393799,2291.890625 1196.207153,2281.937012 1148.008789,2272.041016 
	C1137.268066,2269.835693 1126.521973,2267.656250 1115.012329,2265.149414 
z"/>
<path 
	data-name="Porhi"
fill="#F66159" opacity="1.000000" stroke="none" 
	d="
M1885.723877,1990.609131 
	C1866.170776,1971.391968 1847.634033,1952.137451 1827.211548,1935.149536 
	C1812.214600,1922.674683 1795.061035,1912.649902 1778.278198,1902.510620 
	C1765.486450,1894.782227 1751.785156,1888.554565 1738.448242,1881.737549 
	C1735.794434,1880.381104 1733.049438,1879.046387 1730.192017,1878.271484 
	C1714.790405,1874.094238 1699.437134,1869.659790 1683.870728,1866.197998 
	C1674.181152,1864.043213 1664.172729,1862.812744 1654.252930,1862.359863 
	C1646.040771,1861.985107 1639.402100,1859.447144 1633.489990,1852.941895 
	C1670.736694,1816.016602 1708.551636,1779.865356 1745.988770,1743.327148 
	C1780.804199,1709.347412 1815.484131,1675.219360 1849.709229,1640.647339 
	C1871.031616,1619.108887 1891.471313,1596.692383 1912.158813,1574.531616 
	C1920.546875,1565.546143 1928.541016,1556.192871 1937.253540,1546.401245 
	C1947.926758,1553.686768 1957.681885,1563.463257 1973.086182,1559.592773 
	C1980.468140,1571.727173 1987.091187,1584.005859 1993.480469,1596.405029 
	C2003.078247,1615.030640 2012.713257,1633.642822 2021.887207,1652.477539 
	C2024.481689,1657.804077 2027.880737,1660.813110 2033.602905,1661.815918 
	C2037.470581,1662.493530 2041.229980,1663.787720 2045.925293,1665.043579 
	C2044.687134,1671.225830 2043.707031,1677.008179 2042.336792,1682.696411 
	C2041.109985,1687.789062 2042.430786,1691.486450 2046.479736,1694.970093 
	C2069.644775,1714.900146 2092.580322,1735.096802 2115.733154,1755.041504 
	C2120.122803,1758.822876 2122.326904,1762.942017 2121.745850,1768.845581 
	C2120.614746,1780.338013 2119.861328,1791.867432 2118.928223,1803.680054 
	C2110.304932,1804.728882 2102.109619,1805.725708 2093.086670,1806.823120 
	C2087.110352,1823.587158 2081.104004,1840.748413 2074.834961,1857.812988 
	C2073.143799,1862.416382 2071.089600,1867.004639 2068.456787,1871.123291 
	C2057.166992,1888.784180 2045.662842,1906.309570 2034.081543,1923.781372 
	C2031.614868,1927.502441 2030.537598,1931.240601 2030.164673,1935.751831 
	C2027.817017,1964.158691 2024.944214,1992.521484 2022.463867,2020.917969 
	C2020.674316,2041.408569 2019.223755,2061.928711 2017.507690,2083.383301 
	C2012.621460,2086.943359 2008.363892,2083.938721 2004.050659,2082.864258 
	C1992.791626,2080.059082 1981.665405,2076.725342 1970.435791,2073.795654 
	C1963.515747,2071.989990 1957.373047,2069.142822 1952.623535,2063.535645 
	C1944.745117,2054.234375 1934.703857,2048.061279 1923.814331,2042.656860 
	C1912.843994,2037.212524 1902.685425,2030.150879 1892.035522,2024.034180 
	C1887.394409,2021.368652 1885.788086,2017.710938 1885.992310,2012.510742 
	C1886.266357,2005.533325 1885.978394,1998.533569 1885.723877,1990.609131 
z"/>
</svg>