<svg version="1.1" id="Layer_1" xmlns="http://www.w3.org/2000/svg" xmlns:xlink="http://www.w3.org/1999/xlink" x="0px" y="0px"
	 width="100%" viewBox="0 0 2272 2370" enable-background="new 0 0 2272 2370" xml:space="preserve">
C131.678467,2368.023193 131.888168,2370.011475 132.000000,2372.000000 
z"/>

<path
data-name="Minta"
 fill="#60C452" style="fill: {#60C452}" opacity="1.000000" stroke="none" 
	d="
M2274.000000,1335.100098 
	C2263.549805,1336.896484 2261.685791,1339.724854 2263.279541,1353.070068 
	C2261.040527,1351.957642 2258.733887,1351.392944 2257.322266,1349.951904 
	C2255.810547,1348.408569 2255.141602,1346.039917 2254.184082,1344.184937 
	C2246.159180,1350.602417 2241.384521,1355.629272 2245.594971,1364.135864 
	C2246.133301,1365.223511 2245.091553,1367.165649 2244.619141,1368.660645 
	C2244.142822,1370.166992 2242.541748,1372.087402 2243.017578,1373.005249 
	C2247.402100,1381.462646 2242.507324,1389.590942 2242.482910,1398.303467 
	C2252.914795,1405.416260 2261.904785,1413.699219 2257.379150,1429.155762 
	C2251.618408,1430.589966 2245.348145,1432.151001 2238.813721,1433.777832 
	C2238.547119,1438.939575 2236.938721,1443.245972 2242.976318,1446.042725 
	C2245.880371,1447.387939 2248.382568,1450.775757 2249.815918,1453.826172 
	C2251.622070,1457.669678 2246.230957,1458.982666 2245.601807,1461.128662 
	C2243.813477,1467.229980 2242.577881,1473.766479 2245.274658,1480.338745 
	C2247.374756,1485.457031 2248.788330,1490.894653 2250.104492,1496.288818 
	C2252.175781,1504.776489 2247.031494,1511.543945 2244.209229,1518.839478 
	C2243.512939,1520.640015 2241.943604,1522.318848 2241.858887,1524.104980 
	C2241.287109,1536.156494 2234.958008,1546.279907 2231.257812,1557.284058 
	C2228.071777,1566.759766 2224.850342,1575.679932 2228.517334,1586.812134 
	C2232.250488,1598.146240 2232.901123,1611.056519 2224.882080,1622.252686 
	C2220.389893,1628.524780 2222.183838,1634.766479 2226.147217,1640.732056 
	C2227.146729,1642.236328 2227.628662,1644.084351 2228.687744,1646.571777 
	C2220.161133,1649.034302 2212.524902,1649.143677 2204.792480,1646.637329 
	C2199.742188,1645.000244 2194.705078,1642.936279 2189.363281,1645.831421 
	C2188.557617,1646.268311 2187.271240,1646.441284 2186.443604,1646.122437 
	C2170.064697,1639.813110 2154.913330,1649.048340 2139.105225,1649.785522 
	C2132.517578,1654.635742 2125.030273,1654.986938 2117.442871,1653.589111 
	C2113.996094,1652.954102 2109.676270,1652.058228 2107.676514,1649.669556 
	C2104.110596,1645.410034 2100.142334,1644.436157 2095.014893,1643.303101 
	C2084.038574,1640.877441 2073.059082,1637.640259 2062.821289,1633.074219 
	C2058.179688,1631.004272 2055.055176,1625.164795 2051.682861,1620.702393 
	C2046.520264,1613.871460 2042.609863,1605.850464 2036.555908,1600.004028 
	C2030.238892,1593.903564 2022.166138,1589.520874 2014.510010,1584.979126 
	C2012.651978,1583.876831 2009.400146,1584.968506 2006.815796,1585.275757 
	C1999.431763,1586.153198 1993.293213,1585.652954 1986.814575,1579.955933 
	C1974.302734,1568.953613 1959.183838,1566.667847 1942.450195,1572.833618 
	C1944.422241,1581.746704 1932.040405,1581.343872 1932.229858,1589.280029 
	C1921.674438,1592.737061 1910.609253,1586.312256 1901.248291,1591.772827 
	C1902.755249,1602.251099 1904.112671,1611.890503 1905.541504,1621.519287 
	C1906.067993,1625.066895 1904.468384,1627.072998 1901.353638,1628.522217 
	C1893.808472,1632.032471 1886.398560,1635.833618 1878.852661,1639.342651 
	C1841.142578,1656.879761 1803.435913,1674.425415 1765.629028,1691.751709 
	C1762.201416,1693.322510 1760.539062,1695.127441 1759.668091,1698.774780 
	C1751.175903,1734.339600 1742.425659,1769.842651 1733.870483,1805.392578 
	C1727.340698,1832.526489 1720.780151,1859.656494 1714.723633,1886.897461 
	C1713.475220,1892.512817 1710.544922,1895.468872 1705.909668,1897.876343 
	C1685.822021,1908.309082 1665.741821,1918.758301 1645.759888,1929.391357 
	C1629.902710,1937.829468 1614.192017,1946.542847 1597.039307,1955.883911 
	C1587.826050,1949.362061 1577.863281,1942.309814 1567.931152,1934.112305 
	C1572.665161,1925.454834 1578.502686,1918.397827 1581.753052,1910.302002 
	C1584.998047,1902.219849 1585.210449,1893.223755 1578.516113,1885.694458 
	C1576.865967,1883.838379 1575.949707,1881.329834 1574.507446,1878.788818 
	C1578.377197,1876.818604 1581.522095,1874.925293 1584.884521,1873.572998 
	C1590.121582,1871.467163 1592.550293,1868.278442 1592.363159,1862.223999 
	C1592.214844,1857.430664 1594.020752,1852.582886 1594.903564,1847.749146 
	C1595.377441,1845.154419 1595.889282,1842.551758 1596.118530,1839.929443 
	C1597.312500,1826.273193 1593.931396,1813.505127 1587.948242,1801.413086 
	C1586.784424,1799.060791 1584.252075,1796.735718 1581.812988,1795.799561 
	C1576.672241,1793.826294 1573.800049,1790.581177 1572.052856,1785.408691 
	C1571.221436,1782.947021 1568.678955,1780.734131 1566.389038,1779.176270 
	C1563.393677,1777.138062 1559.982788,1775.584351 1556.565918,1774.322632 
	C1552.124390,1772.682739 1549.241333,1769.844238 1548.091675,1765.300171 
	C1545.846558,1756.425781 1541.152344,1749.907837 1532.373657,1746.058960 
	C1526.833008,1743.629639 1526.420166,1738.046143 1531.065674,1734.050049 
	C1534.289795,1731.276978 1538.209106,1729.256348 1541.970215,1727.174805 
	C1549.842407,1722.818237 1550.284302,1722.406738 1547.163940,1714.129639 
	C1544.219604,1706.319824 1543.289185,1699.263184 1551.329346,1694.570068 
	C1551.329346,1690.368286 1550.552490,1686.599976 1551.465820,1683.299805 
	C1555.127930,1670.068848 1547.650513,1654.566772 1534.845215,1649.304810 
	C1530.557007,1647.542725 1526.354614,1645.395508 1522.464233,1642.880859 
	C1515.568359,1638.423340 1514.605103,1634.681885 1517.564087,1626.865112 
	C1518.030151,1625.634033 1518.476807,1624.395630 1518.880981,1623.300049 
	C1514.465332,1621.457275 1510.193481,1619.789795 1506.022949,1617.898926 
	C1502.453735,1616.280762 1499.892944,1613.638306 1500.169434,1609.442261 
	C1500.450439,1605.176025 1503.846924,1603.682251 1507.202148,1601.927246 
	C1513.352295,1598.710449 1519.366699,1595.195557 1525.202271,1591.438965 
	C1526.983765,1590.292114 1529.524414,1587.386475 1529.105591,1586.240479 
	C1526.562744,1579.281128 1531.474365,1575.074951 1533.899780,1569.775024 
	C1535.260986,1566.800537 1535.105957,1562.845459 1534.752808,1559.423218 
	C1533.325195,1545.586670 1530.968628,1531.822876 1530.082153,1517.960327 
	C1529.255005,1505.026855 1529.580566,1491.994873 1529.924194,1479.020264 
	C1530.153198,1470.373779 1526.400635,1464.500122 1519.344116,1460.191284 
	C1516.277466,1458.318726 1513.279297,1456.334106 1510.445435,1454.525146 
	C1510.972900,1446.322266 1511.565552,1438.736694 1511.922363,1431.140137 
	C1512.368164,1421.652344 1512.266113,1421.541992 1521.893799,1419.890869 
	C1557.300293,1413.819336 1591.832520,1404.299805 1626.559937,1393.551636 
	C1627.766479,1393.232056 1628.113770,1392.732422 1628.029785,1391.971924 
	C1627.976196,1391.973389 1627.981689,1392.080322 1628.764404,1392.174072 
	C1638.344971,1389.259155 1647.105347,1386.133179 1655.957764,1383.294678 
	C1660.024292,1381.990845 1664.316162,1380.260498 1668.428345,1380.445679 
	C1679.531006,1380.946045 1687.079712,1375.849121 1694.030396,1367.803589 
	C1700.484863,1360.332397 1707.683960,1354.004639 1718.961304,1353.307373 
	C1735.931030,1352.258179 1750.837036,1345.650635 1763.724243,1333.902222 
	C1769.985962,1328.194092 1777.913818,1323.986328 1785.661987,1320.310791 
	C1798.102051,1314.409790 1807.164673,1306.086670 1811.063721,1292.132568 
	C1834.086304,1284.072144 1850.886719,1270.218750 1860.948364,1248.271606 
	C1866.066162,1237.108276 1872.454834,1226.465820 1882.716187,1218.920654 
	C1896.619995,1208.697266 1910.483765,1198.418457 1924.467285,1188.305420 
	C1929.853027,1184.410645 1935.911743,1181.367920 1940.957153,1177.101685 
	C1946.751831,1172.201782 1953.705811,1167.250244 1956.638916,1160.737061 
	C1960.589233,1151.965088 1965.750122,1144.716919 1972.228394,1137.993774 
	C1973.581299,1136.589844 1974.779663,1134.823486 1975.444458,1133.003296 
	C1981.139771,1117.410156 1986.695801,1101.766235 1992.960693,1086.239990 
	C1994.752075,1087.056885 1995.836182,1087.845825 1997.006836,1088.473511 
	C2007.332153,1094.011108 2017.442505,1099.647827 2021.387329,1111.950317 
	C2022.604248,1115.745361 2026.378662,1115.546021 2029.817871,1115.795776 
	C2034.342896,1116.124512 2038.803833,1117.253174 2043.324219,1117.742188 
	C2057.006348,1119.222046 2070.567139,1123.939819 2084.473145,1118.382446 
	C2094.468262,1114.387939 2104.376465,1115.843018 2114.564209,1119.096802 
	C2121.352295,1121.265015 2129.409668,1123.078857 2136.009277,1121.448853 
	C2148.928711,1118.257812 2158.129639,1123.258423 2166.536377,1131.326538 
	C2171.886475,1136.461426 2176.508057,1138.902710 2184.067871,1135.119751 
	C2192.783691,1130.758057 2198.289551,1134.693604 2198.214600,1144.330933 
	C2198.159424,1151.411743 2198.253418,1158.220459 2202.691650,1164.322144 
	C2203.711426,1165.724243 2204.051514,1168.412231 2203.451660,1170.048950 
	C2201.793213,1174.572632 2203.530029,1178.251465 2204.732178,1182.469482 
	C2207.033447,1190.545410 2208.185303,1198.948975 2209.906006,1207.682617 
	C2212.613281,1207.052124 2215.384277,1206.406738 2219.620605,1205.420166 
	C2220.312744,1211.666260 2220.930908,1217.244751 2221.494141,1222.326660 
	C2216.744385,1226.195190 2207.940674,1225.595947 2211.073975,1234.951538 
	C2215.680420,1234.050293 2220.091064,1233.187256 2224.889160,1232.248535 
	C2225.483643,1236.301758 2225.950928,1239.489502 2226.398438,1242.541870 
	C2248.188232,1245.184448 2250.775391,1252.103638 2257.519775,1265.489502 
	C2268.197998,1269.062744 2268.076904,1269.043457 2266.392334,1279.608276 
	C2266.054443,1281.728027 2266.421631,1284.420166 2267.506836,1286.219238 
	C2270.536133,1291.241699 2270.043945,1295.499878 2265.561523,1298.983521 
	C2267.595703,1302.805786 2269.206787,1306.093262 2271.114746,1309.198364 
	C2271.497314,1309.821289 2273.009033,1309.750732 2274.000000,1310.000000 
	C2274.000000,1310.888916 2274.000000,1311.777832 2273.291992,1312.895264 
	C2270.893555,1314.101074 2269.187012,1315.938965 2267.516113,1315.907227 
	C2260.111572,1315.766479 2258.526611,1320.982788 2256.432373,1326.598755 
	C2260.446533,1328.062256 2262.640381,1326.888306 2265.153320,1324.008667 
	C2267.420166,1321.410645 2270.999512,1319.957764 2274.000000,1318.000000 
	C2274.000000,1323.400024 2274.000000,1328.800049 2274.000000,1335.100098 
z"/>

<path
data-name="Lembe-Yezoum"
 fill="#82C2E7" style="fill: {#82C2E7}" opacity="1.000000" stroke="none" 
	d="
M702.937317,2372.000000 
	C700.407837,2367.126221 698.815674,2362.252441 697.049988,2356.847412 
	C705.778381,2353.132812 718.003723,2357.190918 722.648010,2344.865967 
	C717.986206,2333.319336 711.028137,2322.920898 702.693848,2313.374512 
	C694.040894,2303.462891 687.000610,2292.843750 686.047119,2279.085938 
	C685.903625,2277.015381 683.559387,2274.705322 681.661255,2273.254395 
	C679.610046,2271.686523 676.837708,2271.095947 674.468689,2269.902588 
	C669.084167,2267.190430 668.754333,2264.241943 673.365540,2260.135986 
	C678.820129,2255.278809 684.266724,2250.409180 689.834534,2245.683594 
	C697.938293,2238.806152 706.112427,2232.010254 714.322510,2225.259521 
	C720.496155,2220.183350 722.558533,2213.310059 722.230957,2205.825195 
	C721.756226,2194.977783 723.791199,2184.760254 728.258972,2174.091064 
	C741.761414,2176.551270 755.642456,2179.370117 764.865906,2164.930420 
	C764.648865,2164.446533 764.550537,2163.598877 764.093750,2163.301270 
	C752.617493,2155.822998 751.996582,2144.701172 753.197144,2132.613525 
	C753.525574,2129.306641 752.655273,2125.111572 750.741821,2122.484863 
	C742.651978,2111.379639 731.516602,2107.020508 717.707825,2108.442627 
	C710.219421,2109.213623 702.585999,2108.690918 695.020691,2108.573242 
	C684.041992,2108.402588 672.389221,2105.633057 662.264832,2108.442871 
	C650.410828,2111.732666 637.358398,2114.660156 629.215698,2126.799805 
	C621.315735,2138.578125 609.485229,2143.042969 595.247681,2138.368652 
	C594.306580,2138.059570 593.296814,2137.933594 592.308533,2137.798584 
	C579.554382,2136.055420 567.257385,2133.805420 555.389221,2127.587158 
	C548.253418,2123.848633 539.246704,2120.406494 529.692078,2125.026367 
	C526.839722,2126.405518 521.367676,2122.367188 517.535461,2120.970947 
	C516.945557,2119.187988 516.430969,2118.291016 516.375793,2117.366943 
	C515.509888,2102.874268 507.515076,2092.458252 496.368439,2084.512451 
	C487.748627,2078.367920 483.492432,2070.063721 482.591522,2060.269287 
	C481.539032,2048.827148 477.677277,2039.197632 469.763367,2030.604614 
	C471.823608,2028.386475 473.318359,2027.082764 474.734039,2025.698120 
	C483.958344,2016.677734 492.823700,2007.254150 502.467621,1998.708740 
	C513.606140,1988.838501 525.459167,1979.777344 536.933594,1970.282227 
	C541.301575,1966.667725 545.695618,1962.940186 545.241211,1956.149902 
	C553.006592,1953.435791 560.054260,1950.838745 568.282654,1947.806763 
	C572.030396,1957.161743 575.689209,1966.294800 579.171021,1974.985962 
	C591.597107,1974.985962 603.578430,1974.985962 617.074219,1974.985962 
	C613.012817,1965.566406 609.946045,1957.177246 605.843445,1949.329590 
	C602.361389,1942.668945 604.099182,1937.972900 609.325317,1933.714844 
	C611.373657,1932.045776 613.482971,1930.387329 615.771912,1929.089722 
	C623.591370,1924.656372 631.423767,1920.232666 639.403442,1916.099121 
	C646.342896,1912.504395 652.018616,1907.748047 656.630127,1901.349121 
	C661.292542,1894.879517 666.497253,1888.761475 671.858093,1882.846191 
	C677.138550,1877.019775 684.075500,1873.186890 691.756653,1872.444092 
	C700.318481,1871.616089 709.038391,1872.474365 717.689880,1872.502563 
	C722.254578,1872.517456 726.955261,1872.997681 731.360291,1872.108032 
	C746.128601,1869.125244 760.850098,1868.305420 775.831970,1870.367920 
	C799.688721,1873.651855 823.598145,1872.795654 847.515503,1870.630737 
	C858.418762,1869.644043 869.430176,1868.314087 880.299438,1868.891602 
	C892.920471,1869.562134 905.415894,1871.371948 918.046021,1868.237061 
	C920.268127,1874.247070 922.386475,1879.489136 924.199585,1884.834961 
	C925.613770,1889.005005 928.125000,1891.482300 932.557739,1892.338257 
	C941.340820,1894.034424 950.201721,1895.537842 958.799438,1897.945923 
	C988.866699,1906.367920 1018.921814,1914.911377 1046.080566,1931.046875 
	C1047.502930,1931.891846 1049.050171,1932.546631 1050.584473,1933.180420 
	C1071.460693,1941.805298 1092.424316,1950.224854 1113.199463,1959.086182 
	C1127.229370,1965.070312 1140.996704,1971.670044 1154.881348,1977.994507 
	C1152.870605,1980.202026 1150.937256,1982.486084 1148.837646,1984.605469 
	C1107.821167,2026.014160 1066.824707,2067.442627 1025.692383,2108.736084 
	C1021.646790,2112.797363 1019.685486,2116.323975 1021.038696,2122.599365 
	C1022.714294,2130.369629 1018.167542,2137.283691 1011.855408,2141.139893 
	C1002.711731,2146.725830 994.329590,2154.536621 982.448364,2154.497314 
	C980.761536,2154.491699 978.745361,2155.925537 977.428345,2157.240479 
	C961.431458,2173.214111 945.427368,2189.184326 929.684082,2205.406494 
	C925.122620,2210.106689 921.687134,2215.900391 917.121277,2220.595459 
	C915.260559,2222.508789 911.842590,2223.153809 909.003235,2223.832520 
	C877.684937,2231.319824 846.317932,2238.604492 815.030579,2246.217529 
	C810.633789,2247.287354 806.301697,2249.353760 802.445618,2251.767090 
	C793.707886,2257.236328 785.275269,2263.194580 776.737488,2268.981689 
	C760.834961,2279.760254 753.156372,2295.392578 750.197998,2313.851562 
	C749.784241,2316.433105 749.354492,2319.215332 748.090515,2321.422607 
	C742.129456,2331.831543 742.888062,2342.402832 746.879395,2353.080566 
	C749.072388,2358.947266 751.609070,2364.685303 753.995422,2371.240723 
	C737.291565,2372.000000 720.583069,2372.000000 702.937317,2372.000000 
z"/>

<path
data-name="Bibey" style="fill: {#A14ED9}"
 fill="#A14ED9" opacity="1.000000" stroke="none" 
	d="
M1555.947388,659.582397 
	C1569.162842,655.653015 1582.341431,651.593384 1595.602661,647.825256 
	C1614.621216,642.421265 1633.708130,637.257629 1652.742798,631.910278 
	C1654.924805,631.297363 1656.961182,630.166199 1659.694946,628.875549 
	C1661.787842,628.383301 1663.250854,628.290894 1665.431885,628.418579 
	C1679.923462,637.900146 1693.704346,647.150879 1707.469482,656.424927 
	C1738.917969,677.612732 1770.466675,698.654846 1801.714478,720.134949 
	C1808.224854,724.610352 1813.726807,730.600464 1819.491089,736.104553 
	C1837.050293,752.871277 1854.167114,770.117798 1872.089844,786.483582 
	C1898.808716,810.881592 1924.257812,836.777771 1954.064087,857.629517 
	C1955.971069,858.963623 1957.671631,860.928345 1959.783203,861.581421 
	C1976.813721,866.849060 1984.798828,881.433899 1993.973145,894.674255 
	C1998.304443,900.925354 2002.016846,906.839600 2009.491089,910.694824 
	C2017.660034,914.908264 2017.803833,924.524170 2017.566162,932.915344 
	C2017.266235,943.514221 2016.627197,954.125000 2015.543579,964.669922 
	C2015.084229,969.138855 2013.713135,973.744751 2011.724243,977.779602 
	C2007.028931,987.305054 2000.185181,996.053223 1997.110718,1006.011169 
	C1994.422974,1014.716492 1988.649902,1021.338623 1985.299438,1029.459595 
	C1983.523438,1033.764526 1978.023193,1036.533081 1973.383179,1040.739502 
	C1975.130371,1046.349487 1974.463013,1052.397095 1967.674683,1056.601318 
	C1966.233643,1057.493774 1965.928833,1060.074097 1964.829102,1061.692261 
	C1961.687866,1066.314575 1958.406250,1070.841675 1953.883911,1075.790894 
	C1945.544189,1075.159668 1943.812866,1068.532227 1940.180542,1064.084473 
	C1930.799561,1052.597656 1923.065674,1040.138306 1908.251465,1033.629395 
	C1885.935059,1023.824158 1865.984741,1027.182007 1850.238037,1045.410034 
	C1847.818848,1048.210571 1843.996948,1051.197266 1840.598022,1051.491577 
	C1830.409180,1052.373413 1820.281616,1052.428101 1809.925293,1050.133667 
	C1795.425293,1046.921021 1780.491089,1044.819336 1765.664551,1044.239258 
	C1756.316528,1043.873291 1746.548950,1046.197144 1740.159180,1055.177856 
	C1738.710938,1057.213257 1735.171021,1058.356323 1732.423584,1058.765015 
	C1722.371338,1060.260376 1713.468994,1064.532959 1704.420654,1068.821045 
	C1693.692383,1073.905396 1682.603760,1075.862305 1670.564209,1072.243286 
	C1656.475220,1068.008179 1642.941895,1063.116821 1630.393921,1055.129150 
	C1612.841919,1043.955933 1596.223267,1050.008667 1589.336182,1069.231201 
	C1588.779419,1070.785278 1588.392334,1072.400146 1587.367432,1074.350830 
	C1580.723389,1081.668457 1573.242065,1085.844971 1564.243896,1088.473633 
	C1558.855957,1090.047852 1554.182983,1094.480835 1549.542603,1098.084717 
	C1545.158691,1101.489502 1541.706421,1106.277588 1537.017822,1109.068970 
	C1526.569336,1115.289673 1517.509033,1122.755127 1510.067627,1132.430054 
	C1502.446777,1142.338013 1492.051147,1146.237183 1479.982178,1142.700562 
	C1469.505493,1139.630615 1459.499023,1134.982544 1449.077271,1131.688965 
	C1443.621582,1129.964844 1440.860840,1127.298462 1439.968018,1121.498657 
	C1439.276489,1117.006470 1437.007446,1112.715698 1435.173950,1108.449707 
	C1431.625977,1100.194092 1428.072144,1091.931152 1424.164795,1083.843384 
	C1421.820923,1078.991821 1422.385010,1074.970825 1426.021729,1071.202515 
	C1429.255127,1067.852173 1432.491699,1064.505005 1435.736450,1061.165405 
	C1438.515259,1058.305420 1441.596680,1055.684692 1444.038696,1052.562866 
	C1450.801514,1043.916870 1457.487427,1035.197021 1463.828857,1026.240967 
	C1467.271484,1021.378906 1471.577515,1018.400696 1477.147339,1016.443848 
	C1494.904053,1010.205139 1494.864502,1010.078491 1502.447998,992.748291 
	C1503.247437,990.921082 1503.733765,988.934631 1504.692749,987.203308 
	C1509.681885,978.194153 1514.353149,969.011963 1523.391479,963.013123 
	C1532.738159,956.809875 1539.870483,948.881287 1542.549316,937.413635 
	C1543.747437,932.284485 1546.257568,927.451172 1548.277710,922.526855 
	C1553.957886,908.680786 1559.124023,894.579773 1565.672241,881.154541 
	C1568.484375,875.388794 1571.403931,869.887207 1571.571411,863.559387 
	C1571.732788,857.460327 1574.154663,853.755432 1579.656372,851.137451 
	C1585.641968,848.289246 1590.583252,843.953735 1593.975220,837.943909 
	C1590.212769,833.778625 1586.934448,830.149414 1583.621094,826.481323 
	C1586.395142,821.180847 1589.751831,816.714478 1591.073730,811.710632 
	C1592.483398,806.373596 1591.857178,800.518555 1592.351318,794.910095 
	C1592.553345,792.618286 1593.584106,790.406616 1593.859985,788.112976 
	C1595.448242,774.916687 1593.998535,762.351807 1584.977417,751.813293 
	C1576.125000,741.471863 1566.737183,731.632568 1564.348511,717.305664 
	C1563.666382,713.214600 1560.533325,709.587341 1559.306885,705.511902 
	C1558.538940,702.960083 1558.096680,699.084778 1559.465210,697.326599 
	C1565.510742,689.559814 1563.568115,681.750000 1560.849609,673.721924 
	C1559.249634,668.997192 1557.583618,664.294800 1555.947388,659.582397 
z"/>
<path
data-name="Mbandjock" style="fill: {#454480}"
 fill="#454480" opacity="1.000000" stroke="none" 
	d="
M131.755127,1888.799194 
	C138.346497,1877.246826 144.873093,1866.495972 150.909744,1855.476685 
	C152.236832,1853.054199 152.105988,1849.683350 152.160675,1846.740234 
	C152.357742,1836.134033 151.393661,1825.476929 155.659561,1815.250244 
	C157.264069,1811.403931 156.527756,1807.440063 153.115601,1804.291260 
	C151.423798,1802.730103 149.761292,1800.899658 148.781082,1798.857178 
	C147.052872,1795.256104 147.334274,1792.069824 151.102478,1789.314331 
	C158.048279,1784.234863 164.500916,1778.478394 171.475021,1773.441528 
	C174.614105,1771.174438 178.364792,1769.420654 182.101730,1768.394409 
	C187.495834,1766.912964 190.808243,1763.894165 192.216858,1758.575317 
	C194.084854,1751.521729 196.338425,1744.550293 197.813278,1737.416870 
	C200.685455,1723.524780 212.744156,1713.504150 226.840469,1713.838623 
	C229.501801,1713.901733 232.164673,1714.026367 234.819336,1714.223633 
	C243.707001,1714.883911 251.596390,1714.737183 256.547577,1704.745972 
	C258.840179,1700.119629 264.809540,1697.264038 269.237061,1693.763916 
	C272.597748,1691.107422 274.560333,1688.112427 274.101868,1683.532227 
	C273.847717,1680.992676 274.223785,1678.148804 275.158081,1675.773438 
	C279.211456,1665.467407 279.125427,1655.071045 276.572601,1644.514771 
	C275.713379,1640.961792 274.874725,1637.403687 274.030273,1633.847046 
	C271.467316,1623.052612 273.270935,1619.212891 283.038300,1613.623901 
	C289.078033,1610.168091 294.879486,1606.296753 300.904938,1602.814575 
	C305.990570,1599.875610 308.829315,1594.830566 309.276215,1589.822876 
	C309.979370,1581.943115 314.282593,1577.955322 320.485992,1574.754883 
	C321.633087,1574.163086 322.599762,1573.221680 324.764160,1571.613403 
	C319.761261,1564.940796 314.412628,1558.619629 315.547333,1549.123535 
	C316.763794,1538.943481 326.785797,1537.477661 331.068756,1530.078247 
	C330.038330,1524.933838 328.900085,1519.251099 327.557800,1512.549561 
	C332.731171,1512.549561 337.215973,1511.250610 340.255554,1512.795410 
	C349.046936,1517.263550 358.589935,1520.755859 365.212311,1528.798950 
	C371.961639,1536.996216 385.104309,1539.595215 392.557312,1532.564697 
	C400.048492,1525.498047 409.721680,1526.456665 417.935730,1522.621460 
	C419.604248,1521.842163 422.350372,1523.285278 424.577087,1523.801758 
	C433.264923,1525.816772 441.983551,1527.719971 450.603027,1529.996826 
	C453.411316,1530.738647 455.952301,1532.492432 459.246429,1535.053101 
	C457.370972,1552.268188 464.011688,1564.074707 476.607422,1573.142578 
	C479.029480,1574.886230 481.789185,1576.197632 484.062866,1578.102539 
	C487.861786,1581.285400 492.183105,1584.255737 494.877136,1588.261841 
	C500.697144,1596.916748 508.633636,1602.837891 517.900452,1606.501587 
	C527.296143,1610.216187 534.463623,1616.015381 540.235229,1624.594604 
	C540.875793,1625.450439 541.429138,1625.774658 541.979370,1626.042725 
	C541.976257,1625.986572 541.880066,1626.045044 541.675232,1626.887939 
	C541.736511,1632.250977 543.770386,1636.929077 539.954346,1641.037842 
	C536.369202,1644.898071 535.317627,1649.655273 535.184875,1654.802979 
	C535.039490,1660.437988 534.202698,1666.073608 534.341919,1671.692261 
	C534.479614,1677.248657 533.547791,1682.078857 529.755432,1686.406250 
	C528.110229,1688.283691 526.173462,1691.241943 526.547668,1693.316162 
	C527.989441,1701.308228 526.727417,1709.841187 532.227295,1717.161865 
	C534.562256,1720.269775 535.349487,1725.183838 535.353699,1729.278564 
	C535.366394,1741.555664 534.432983,1753.831421 534.319946,1766.111816 
	C534.276611,1770.816528 532.808228,1774.231079 529.472290,1777.476929 
	C521.057861,1785.663818 514.149658,1795.055786 510.136993,1806.156494 
	C508.745605,1810.005371 508.024109,1814.612549 508.676331,1818.598511 
	C512.262939,1840.517456 516.838928,1862.280273 520.150513,1884.236206 
	C522.797302,1901.783936 527.147522,1918.477295 535.932495,1934.089355 
	C539.780640,1940.927979 541.718262,1948.841675 544.523438,1956.267212 
	C545.695618,1962.940186 541.301575,1966.667725 536.933594,1970.282227 
	C525.459167,1979.777344 513.606140,1988.838501 502.467621,1998.708740 
	C492.823700,2007.254150 483.958344,2016.677734 474.734039,2025.698120 
	C473.318359,2027.082764 471.823608,2028.386475 469.639618,2029.861450 
	C466.829529,2026.694946 464.745270,2023.394409 462.247955,2019.439941 
	C460.184143,2020.661011 457.714600,2021.338867 456.527283,2022.957397 
	C450.644165,2030.976440 442.508911,2030.936890 434.000732,2029.778809 
	C431.377258,2029.421509 428.818695,2028.610474 426.211273,2028.106445 
	C421.572815,2027.210327 418.243958,2028.242065 415.393097,2032.765503 
	C409.679199,2041.832397 399.903961,2046.106201 390.976257,2051.197510 
	C389.377319,2052.109375 386.871338,2052.581299 385.195557,2052.022705 
	C373.669647,2048.180664 366.025146,2055.932373 356.192078,2061.115479 
	C352.244202,2055.593994 348.200073,2049.379150 343.532471,2043.674683 
	C341.560516,2041.264404 338.513031,2039.171387 335.544861,2038.242432 
	C325.942505,2035.237183 317.452271,2030.185791 308.576447,2025.666382 
	C297.772644,2020.165405 286.297455,2015.553223 273.999817,2013.684204 
	C267.108521,2012.636963 261.756134,2009.383301 260.130096,2001.702881 
	C259.613861,1999.264404 258.161072,1996.676270 256.386993,1994.909790 
	C246.520111,1985.085693 236.989960,1974.780151 226.142639,1966.150024 
	C221.371552,1962.354126 213.828934,1960.965698 207.419037,1960.581787 
	C199.620499,1960.114624 194.027420,1965.468506 189.994598,1971.917358 
	C188.416763,1974.440430 187.452408,1977.339111 186.090729,1980.006592 
	C180.279053,1991.391357 178.797577,1991.950073 166.667465,1987.323120 
	C165.162170,1986.748901 163.767380,1985.884888 162.233017,1985.110718 
	C162.494873,1972.349487 161.311264,1960.108521 163.010742,1947.432739 
	C164.916870,1933.215088 162.330276,1918.405029 156.433075,1904.732788 
	C154.311584,1899.814209 150.517014,1897.783325 145.270157,1898.208740 
	C140.813202,1898.570190 136.593353,1898.161011 132.718842,1894.167480 
	C131.837494,1892.437256 131.675812,1890.970825 131.755127,1888.799194 
z"/>
<path
data-name="Nanga-Eboko" style="fill: {#AB5C44}"
 fill="#AB5C44" opacity="1.000000" stroke="none" 
	d="
M540.148071,1624.062988 
	C534.463623,1616.015381 527.296143,1610.216187 517.900452,1606.501587 
	C508.633636,1602.837891 500.697144,1596.916748 494.877136,1588.261841 
	C492.183105,1584.255737 487.861786,1581.285400 484.062866,1578.102539 
	C481.789185,1576.197632 479.029480,1574.886230 476.607422,1573.142578 
	C464.011688,1564.074707 457.370972,1552.268188 459.894287,1535.468018 
	C464.163757,1533.733276 467.695068,1531.819824 467.319122,1526.883545 
	C466.957367,1522.133911 463.399200,1520.437378 459.070679,1519.667358 
	C456.487946,1519.208008 454.024323,1518.079224 452.289154,1517.508667 
	C449.870087,1513.584595 447.429443,1510.461426 445.948273,1506.935181 
	C444.926544,1504.502686 444.294647,1501.093872 445.267700,1498.916260 
	C445.939240,1497.413696 449.646881,1496.679321 452.005585,1496.661987 
	C455.258240,1496.637939 458.530426,1498.086304 461.771301,1498.003540 
	C464.148071,1497.942993 467.312714,1497.110718 468.681274,1495.439209 
	C472.065399,1491.306030 475.593964,1491.050049 480.161652,1492.784424 
	C485.070557,1494.648071 490.145905,1496.073486 495.668518,1497.858154 
	C497.049438,1495.360352 498.442566,1492.840454 500.096283,1489.849243 
	C502.022705,1490.429321 503.849854,1491.453979 505.641479,1491.395386 
	C507.746033,1491.326294 511.163330,1490.809814 511.606110,1489.604126 
	C512.354919,1487.565186 511.979767,1484.286255 510.708923,1482.504517 
	C508.030670,1478.749390 504.258942,1477.111206 499.476288,1479.656006 
	C494.811249,1482.138062 489.915802,1484.186890 485.064331,1486.452759 
	C482.336853,1482.992188 482.336853,1482.992188 488.605438,1468.489868 
	C490.714050,1469.668457 492.795837,1470.831909 495.207794,1472.179932 
	C497.610474,1466.383057 492.798798,1465.411133 490.330444,1463.569092 
	C486.832855,1460.958862 482.715637,1459.113892 484.685974,1452.103027 
	C491.477844,1452.103027 498.676758,1451.696167 505.806732,1452.222778 
	C512.325012,1452.704346 516.723206,1450.495972 519.368896,1444.613892 
	C514.568298,1432.249146 509.704254,1430.633911 498.119843,1438.075195 
	C489.133392,1430.094727 495.056152,1418.109497 489.005035,1408.790283 
	C494.633423,1407.770264 498.826202,1406.291748 502.975861,1406.404297 
	C512.337524,1406.657715 519.021606,1401.949585 525.410583,1396.076538 
	C527.024231,1394.593384 529.037598,1392.979248 531.076355,1392.623535 
	C539.489868,1391.155151 540.221924,1389.389526 534.120728,1380.903076 
	C527.638733,1383.953857 520.941528,1387.105835 513.454895,1390.629517 
	C512.219543,1385.887451 511.185516,1381.918213 509.962555,1377.223633 
	C512.875977,1377.223633 515.230164,1377.223633 518.436401,1377.223633 
	C517.347473,1373.710083 516.504395,1370.989868 515.475769,1367.670776 
	C518.123840,1365.542725 520.867981,1363.337646 523.120361,1361.527710 
	C524.618835,1352.797974 514.619873,1353.221069 511.679688,1346.196899 
	C519.934692,1345.342407 527.053650,1345.833984 534.693481,1346.052246 
	C536.787415,1342.868652 539.700867,1339.441772 536.454346,1335.791870 
	C535.274170,1334.464966 531.350525,1335.578369 528.153076,1335.578369 
	C523.949158,1328.778809 524.198059,1327.862915 533.037354,1320.634033 
	C533.037354,1317.491211 533.037354,1314.267700 533.037354,1310.972656 
	C530.787659,1310.167114 528.396240,1309.310791 525.126160,1308.139893 
	C527.690918,1302.255981 528.990051,1295.923462 532.697571,1291.710449 
	C536.420837,1287.479614 536.193481,1283.657471 535.768494,1278.655640 
	C526.986023,1275.176514 517.454163,1271.979614 517.965454,1258.765869 
	C518.161987,1257.839478 518.457275,1257.559937 518.457275,1257.559937 
	C521.599670,1259.589355 524.742126,1261.618652 528.480774,1264.033081 
	C531.135010,1260.312134 533.680847,1256.743286 536.776245,1252.403931 
	C531.101990,1240.788574 522.869080,1228.702515 533.499817,1214.594116 
	C541.174683,1213.672974 544.956360,1220.748535 549.692932,1223.923096 
	C555.982178,1223.395874 561.391235,1222.942505 567.312012,1222.446167 
	C567.572815,1227.372437 567.777283,1231.233765 568.016663,1235.753662 
	C575.029297,1232.364624 581.390381,1229.440918 588.861755,1229.600220 
	C591.283081,1229.651855 593.990173,1226.897461 596.182251,1224.985962 
	C601.288696,1220.532837 606.110657,1215.755127 611.161499,1211.235840 
	C612.577087,1209.969360 614.387756,1209.144531 616.734192,1207.664917 
	C617.583618,1210.541992 618.194519,1212.611328 618.955566,1215.189209 
	C620.094849,1214.514404 621.238525,1214.052856 622.111938,1213.284180 
	C627.583679,1208.469238 627.585205,1208.445801 632.112793,1213.331787 
	C632.338440,1213.575317 632.608337,1213.823608 632.718994,1214.121216 
	C634.669250,1219.367920 642.674744,1215.857910 644.132385,1222.285767 
	C645.238953,1227.165405 648.960754,1229.668823 653.849731,1231.230347 
	C662.253052,1233.914673 664.760132,1233.354858 669.259888,1225.986694 
	C669.935486,1224.880371 670.664246,1223.806519 671.768494,1222.098999 
	C673.272583,1223.153076 674.532776,1224.004272 675.757874,1224.903442 
	C677.049255,1225.851074 678.307068,1226.844604 679.883667,1228.050659 
	C681.148438,1227.103516 682.771729,1226.533813 683.064087,1225.563232 
	C684.875244,1219.549072 687.836609,1215.289429 695.007507,1216.173340 
	C695.630005,1216.250122 696.601318,1216.174683 696.903442,1215.781006 
	C704.538025,1205.830688 719.710083,1202.857788 722.272766,1188.149048 
	C723.142212,1183.158447 726.671265,1180.233154 731.427185,1178.520020 
	C734.528503,1177.403198 737.416260,1175.698975 740.417419,1174.295776 
	C741.897888,1173.603394 743.857483,1172.046509 744.849792,1172.505005 
	C751.455566,1175.557007 756.035217,1171.484619 761.329834,1168.861572 
	C764.069763,1167.504028 767.806641,1167.526367 770.999573,1167.849609 
	C777.240723,1168.481445 782.771851,1168.231567 787.105652,1162.690918 
	C788.644958,1160.723022 791.444946,1159.741455 794.526123,1157.758301 
	C803.990112,1167.088501 816.820312,1162.742676 828.270752,1164.910034 
	C835.770386,1166.329590 844.390076,1162.110718 852.444336,1160.154663 
	C854.969971,1159.541260 857.195801,1157.564087 859.721130,1157.106323 
	C864.661987,1156.210693 866.943604,1153.380981 868.361755,1148.759644 
	C870.256714,1142.585205 877.252197,1138.010742 882.850281,1140.978149 
	C890.326294,1144.940918 895.760803,1141.062012 901.596191,1138.829468 
	C907.193176,1136.688354 911.910828,1135.895752 917.682312,1138.733276 
	C924.664429,1142.166138 927.936584,1140.041992 932.021484,1133.019775 
	C933.916748,1129.761841 936.680908,1126.301392 939.924927,1124.668701 
	C949.660339,1119.769043 957.582336,1113.618164 962.712158,1103.557617 
	C964.348755,1100.347900 969.607849,1098.985352 972.633789,1097.130493 
	C974.353516,1090.781372 976.027649,1084.804199 977.577881,1078.795044 
	C978.403259,1075.595947 979.813904,1072.281128 979.576172,1069.122803 
	C978.776489,1058.498657 980.979126,1048.691650 985.766724,1039.273071 
	C986.948364,1036.948608 987.931641,1034.228760 987.977966,1031.672119 
	C988.190002,1019.979431 992.770569,1009.737122 997.997925,999.676147 
	C1006.730774,982.868713 1016.927795,966.651917 1023.903442,949.148254 
	C1031.187378,930.871155 1042.458374,920.495361 1062.050415,917.450928 
	C1070.928101,916.071472 1079.315430,911.074280 1087.709106,907.244202 
	C1091.694214,905.425659 1095.225220,905.425171 1099.205933,906.772278 
	C1102.957764,908.042114 1106.929565,908.650085 1110.716309,909.831604 
	C1124.995728,914.286987 1133.644531,905.556519 1142.156006,896.519165 
	C1143.284302,895.321106 1144.242432,893.893494 1145.000610,892.427979 
	C1148.702026,885.273926 1154.717407,881.035461 1161.921753,877.781189 
	C1174.377563,872.154663 1180.365845,861.387878 1183.815674,848.772156 
	C1184.398560,846.640564 1185.281738,844.249573 1186.801270,842.779724 
	C1191.359619,838.370422 1193.399414,833.100159 1194.387207,826.937988 
	C1196.231689,815.431885 1201.990723,807.309875 1214.550415,805.629395 
	C1216.317017,805.393066 1218.284058,804.119934 1219.495728,802.743469 
	C1223.224976,798.507202 1226.842773,794.137085 1230.108032,789.538086 
	C1233.578735,784.649780 1236.652832,779.759399 1242.659424,777.197205 
	C1245.440430,776.010864 1248.101074,772.975220 1249.395020,770.131348 
	C1256.220581,755.129761 1267.588623,744.186707 1279.993408,733.938721 
	C1283.159668,731.322998 1286.046143,727.799927 1287.744873,724.090820 
	C1291.732422,715.384460 1298.010376,710.907288 1307.515503,709.796204 
	C1357.013672,704.010315 1406.082153,695.962158 1454.351562,683.167664 
	C1485.494385,674.912842 1516.984741,667.968628 1548.329468,660.478943 
	C1550.263184,660.016907 1552.284424,659.921570 1555.106201,659.618958 
	C1557.583618,664.294800 1559.249634,668.997192 1560.849609,673.721924 
	C1563.568115,681.750000 1565.510742,689.559814 1559.465210,697.326599 
	C1558.096680,699.084778 1558.538940,702.960083 1559.306885,705.511902 
	C1560.533325,709.587341 1563.666382,713.214600 1564.348511,717.305664 
	C1566.737183,731.632568 1576.125000,741.471863 1584.977417,751.813293 
	C1593.998535,762.351807 1595.448242,774.916687 1593.859985,788.112976 
	C1593.584106,790.406616 1592.553345,792.618286 1592.351318,794.910095 
	C1591.857178,800.518555 1592.483398,806.373596 1591.073730,811.710632 
	C1589.751831,816.714478 1586.395142,821.180847 1583.621094,826.481323 
	C1586.934448,830.149414 1590.212769,833.778625 1593.975220,837.943909 
	C1590.583252,843.953735 1585.641968,848.289246 1579.656372,851.137451 
	C1574.154663,853.755432 1571.732788,857.460327 1571.571411,863.559387 
	C1571.403931,869.887207 1568.484375,875.388794 1565.672241,881.154541 
	C1559.124023,894.579773 1553.957886,908.680786 1548.277710,922.526855 
	C1546.257568,927.451172 1543.747437,932.284485 1542.549316,937.413635 
	C1539.870483,948.881287 1532.738159,956.809875 1523.391479,963.013123 
	C1514.353149,969.011963 1509.681885,978.194153 1504.692749,987.203308 
	C1503.733765,988.934631 1503.247437,990.921082 1502.447998,992.748291 
	C1494.864502,1010.078491 1494.904053,1010.205139 1477.147339,1016.443848 
	C1471.577515,1018.400696 1467.271484,1021.378906 1463.828857,1026.240967 
	C1457.487427,1035.197021 1450.801514,1043.916870 1444.038696,1052.562866 
	C1441.596680,1055.684692 1438.515259,1058.305420 1435.736450,1061.165405 
	C1432.491699,1064.505005 1429.255127,1067.852173 1426.021729,1071.202515 
	C1422.385010,1074.970825 1421.820923,1078.991821 1424.164795,1083.843384 
	C1428.072144,1091.931152 1431.625977,1100.194092 1435.173950,1108.449707 
	C1437.007446,1112.715698 1439.276489,1117.006470 1439.968018,1121.498657 
	C1440.860840,1127.298462 1443.621582,1129.964844 1449.077271,1131.688965 
	C1459.499023,1134.982544 1469.505493,1139.630615 1479.982178,1142.700562 
	C1492.051147,1146.237183 1502.446777,1142.338013 1510.067627,1132.430054 
	C1517.509033,1122.755127 1526.569336,1115.289673 1537.017822,1109.068970 
	C1541.706421,1106.277588 1545.158691,1101.489502 1549.542603,1098.084717 
	C1554.182983,1094.480835 1558.855957,1090.047852 1564.243896,1088.473633 
	C1573.242065,1085.844971 1580.723389,1081.668457 1588.230103,1074.461182 
	C1599.509888,1075.025269 1609.368164,1075.842773 1619.834351,1076.710815 
	C1619.474365,1089.357666 1626.683105,1097.787354 1633.664795,1106.312622 
	C1636.405273,1109.658936 1639.716309,1112.620972 1641.994385,1116.244141 
	C1646.001343,1122.617065 1651.972290,1122.154785 1657.906738,1121.376709 
	C1661.865112,1120.857544 1665.306763,1114.689575 1665.546143,1108.597412 
	C1665.726318,1104.012085 1665.581787,1099.414062 1665.581787,1095.303345 
	C1675.056396,1091.013794 1675.056396,1091.013794 1683.777954,1093.510376 
	C1683.640991,1095.718140 1683.788696,1098.066772 1683.310059,1100.279907 
	C1680.410767,1113.685669 1679.025024,1127.186279 1680.135620,1140.902832 
	C1680.698242,1147.851929 1681.125244,1154.812012 1681.004395,1162.086426 
	C1679.563354,1162.956665 1678.733887,1163.510620 1677.900146,1164.058105 
	C1666.634644,1171.455933 1657.474365,1173.466431 1650.863037,1159.585815 
	C1649.340942,1156.390137 1646.694092,1155.664307 1643.411743,1155.991943 
	C1640.437744,1156.288940 1637.362549,1155.966309 1634.465088,1156.563477 
	C1623.851929,1158.750366 1613.494629,1158.396729 1602.955566,1155.571655 
	C1598.779663,1154.452271 1593.910278,1155.293579 1589.464233,1155.959351 
	C1583.269409,1156.886963 1577.148804,1158.375977 1571.044800,1159.828491 
	C1562.988892,1161.744995 1554.921631,1163.657715 1546.970337,1165.956299 
	C1541.358765,1167.578491 1539.164551,1171.528687 1540.625366,1177.781616 
	C1547.502686,1179.682129 1554.245972,1181.328735 1560.845703,1183.427124 
	C1568.133423,1185.744263 1569.154053,1187.961304 1567.188843,1195.173828 
	C1566.671143,1197.074219 1566.071777,1198.984619 1565.852173,1200.929077 
	C1563.732422,1219.694824 1561.750977,1238.476196 1559.591187,1257.237183 
	C1558.496216,1266.749146 1566.118652,1279.543579 1575.312988,1281.645996 
	C1582.403564,1283.267334 1586.100464,1287.067871 1587.960815,1293.886963 
	C1590.407227,1302.853394 1593.259766,1311.729370 1596.384888,1320.484619 
	C1600.146240,1331.022095 1606.982544,1337.979492 1619.048462,1338.062866 
	C1621.023438,1338.076538 1623.027588,1338.388062 1624.962891,1338.813477 
	C1632.840454,1340.544922 1634.295898,1341.591309 1633.981201,1349.291504 
	C1633.391602,1363.714478 1633.756958,1378.353882 1627.981689,1392.080322 
	C1627.981689,1392.080322 1627.976196,1391.973389 1627.569824,1392.059814 
	C1626.623291,1392.511963 1626.261597,1393.007812 1626.078247,1393.633911 
	C1591.832520,1404.299805 1557.300293,1413.819336 1521.893799,1419.890869 
	C1512.266113,1421.541992 1512.368164,1421.652344 1511.922363,1431.140137 
	C1511.565552,1438.736694 1510.972900,1446.322266 1510.445435,1454.525146 
	C1513.279297,1456.334106 1516.277466,1458.318726 1519.344116,1460.191284 
	C1526.400635,1464.500122 1530.153198,1470.373779 1529.924194,1479.020264 
	C1529.580566,1491.994873 1529.255005,1505.026855 1530.082153,1517.960327 
	C1530.968628,1531.822876 1533.325195,1545.586670 1534.752808,1559.423218 
	C1535.105957,1562.845459 1535.260986,1566.800537 1533.899780,1569.775024 
	C1531.474365,1575.074951 1526.562744,1579.281128 1529.105591,1586.240479 
	C1529.524414,1587.386475 1526.983765,1590.292114 1525.202271,1591.438965 
	C1519.366699,1595.195557 1513.352295,1598.710449 1507.202148,1601.927246 
	C1503.846924,1603.682251 1500.450439,1605.176025 1500.169434,1609.442261 
	C1499.892944,1613.638306 1502.453735,1616.280762 1506.022949,1617.898926 
	C1510.193481,1619.789795 1514.465332,1621.457275 1518.880981,1623.300049 
	C1518.476807,1624.395630 1518.030151,1625.634033 1517.564087,1626.865112 
	C1514.605103,1634.681885 1515.568359,1638.423340 1522.464233,1642.880859 
	C1526.354614,1645.395508 1530.557007,1647.542725 1534.845215,1649.304810 
	C1547.650513,1654.566772 1555.127930,1670.068848 1551.465820,1683.299805 
	C1550.552490,1686.599976 1551.329346,1690.368286 1551.329346,1694.570068 
	C1543.289185,1699.263184 1544.219604,1706.319824 1547.163940,1714.129639 
	C1550.284302,1722.406738 1549.842407,1722.818237 1541.970215,1727.174805 
	C1538.209106,1729.256348 1534.289795,1731.276978 1531.065674,1734.050049 
	C1526.420166,1738.046143 1526.833008,1743.629639 1532.373657,1746.058960 
	C1541.152344,1749.907837 1545.846558,1756.425781 1548.091675,1765.300171 
	C1549.241333,1769.844238 1552.124390,1772.682739 1556.565918,1774.322632 
	C1559.982788,1775.584351 1563.393677,1777.138062 1566.389038,1779.176270 
	C1568.678955,1780.734131 1571.221436,1782.947021 1572.052856,1785.408691 
	C1573.800049,1790.581177 1576.672241,1793.826294 1581.812988,1795.799561 
	C1584.252075,1796.735718 1586.784424,1799.060791 1587.948242,1801.413086 
	C1593.931396,1813.505127 1597.312500,1826.273193 1596.118530,1839.929443 
	C1595.889282,1842.551758 1595.377441,1845.154419 1594.903564,1847.749146 
	C1594.020752,1852.582886 1592.214844,1857.430664 1592.363159,1862.223999 
	C1592.550293,1868.278442 1590.121582,1871.467163 1584.884521,1873.572998 
	C1581.522095,1874.925293 1578.377197,1876.818604 1574.507446,1878.788818 
	C1575.949707,1881.329834 1576.865967,1883.838379 1578.516113,1885.694458 
	C1585.210449,1893.223755 1584.998047,1902.219849 1581.753052,1910.302002 
	C1578.502686,1918.397827 1572.665161,1925.454834 1567.500244,1933.545898 
	C1549.836914,1922.220459 1532.532349,1910.460938 1515.472534,1898.356689 
	C1505.433228,1891.233765 1495.681763,1884.485718 1482.693237,1882.965210 
	C1474.684082,1882.027710 1467.137207,1877.486572 1459.264038,1874.929443 
	C1453.438843,1873.037354 1447.645508,1873.401978 1441.707275,1875.573486 
	C1430.125366,1879.808960 1418.016602,1877.237183 1406.129395,1877.366455 
	C1404.668701,1877.382446 1402.927979,1876.251099 1401.768799,1875.167847 
	C1396.530029,1870.271240 1390.788452,1870.687012 1384.320801,1872.317627 
	C1331.181274,1885.714966 1277.968506,1898.822266 1224.845337,1912.283081 
	C1220.575806,1913.364990 1215.995605,1915.623169 1212.940430,1918.703857 
	C1193.735474,1938.070068 1174.921875,1957.824463 1155.429932,1977.722412 
	C1140.996704,1971.670044 1127.229370,1965.070312 1113.199463,1959.086182 
	C1092.424316,1950.224854 1071.460693,1941.805298 1050.584473,1933.180420 
	C1049.050171,1932.546631 1047.502930,1931.891846 1046.080566,1931.046875 
	C1018.921814,1914.911377 988.866699,1906.367920 958.799438,1897.945923 
	C950.201721,1895.537842 941.340820,1894.034424 932.557739,1892.338257 
	C928.125000,1891.482300 925.613770,1889.005005 924.199585,1884.834961 
	C922.386475,1879.489136 920.268127,1874.247070 918.200134,1867.586426 
	C922.148132,1859.726685 926.560608,1853.440430 930.078491,1846.687988 
	C932.637390,1841.776489 934.825806,1836.389648 935.763367,1830.969727 
	C938.354065,1815.993774 940.287964,1800.954956 938.241638,1785.612305 
	C937.279358,1778.397705 938.737183,1770.846313 937.658691,1763.663818 
	C934.461243,1742.369873 930.423096,1721.203857 926.956421,1699.948120 
	C924.449219,1684.574707 921.274170,1669.263550 922.050354,1653.513916 
	C922.456604,1645.269775 924.032104,1636.327026 930.163147,1631.691040 
	C938.989868,1625.016724 949.257446,1619.554932 961.342041,1619.903442 
	C970.319824,1620.162354 973.079956,1618.587891 975.409485,1610.459839 
	C981.349609,1589.734253 978.335754,1569.649902 969.081665,1550.515259 
	C966.930725,1546.067871 962.574646,1543.069946 957.331177,1542.651123 
	C956.537842,1543.231812 955.889221,1543.529053 955.488464,1544.026123 
	C947.685486,1553.705933 942.240356,1554.509277 931.914612,1548.064941 
	C928.632996,1546.016602 924.812195,1544.779541 921.151550,1543.401367 
	C912.163818,1540.017700 903.709412,1536.592041 896.967224,1528.672729 
	C890.861328,1521.500732 882.491760,1516.089233 874.595032,1510.666260 
	C869.135193,1506.916748 867.397339,1505.028564 868.709717,1498.761719 
	C869.389099,1495.517456 870.591248,1492.383667 871.287598,1489.141968 
	C872.875183,1481.751831 870.323242,1478.435791 863.013367,1478.085693 
	C855.639526,1477.732422 848.609863,1479.059814 841.416016,1480.885010 
	C834.702759,1482.588135 830.475403,1486.377930 826.277832,1491.285156 
	C821.685425,1496.653809 819.277100,1501.798218 821.826843,1509.145874 
	C823.030762,1512.615112 821.848083,1517.053345 821.247070,1520.975952 
	C820.293640,1527.198853 819.461731,1533.529907 817.559814,1539.490234 
	C815.951965,1544.529175 816.731689,1548.448975 819.658630,1552.514526 
	C823.325989,1557.608398 823.566101,1563.333984 820.203125,1568.386719 
	C816.724548,1573.613037 812.509888,1578.450928 808.026611,1582.857788 
	C806.214294,1584.639526 802.585205,1586.041992 800.212585,1585.548950 
	C783.544434,1582.085449 772.085205,1590.135742 762.712341,1602.251099 
	C756.435730,1610.364380 751.897278,1619.858887 743.089417,1625.867310 
	C731.899841,1633.500244 723.453186,1643.700684 715.995056,1654.833984 
	C715.073242,1656.210083 714.053650,1657.638916 712.757874,1658.617432 
	C711.023132,1659.927246 708.838745,1661.918823 707.084717,1661.701660 
	C700.057556,1660.831543 696.033447,1664.981812 691.705566,1669.309814 
	C688.197021,1672.818237 684.119568,1675.751709 680.376892,1679.034180 
	C676.660645,1682.293213 672.648682,1685.330200 669.469482,1689.063354 
	C662.156921,1697.649780 652.030457,1699.140381 643.259583,1691.926636 
	C639.711487,1689.008545 636.738403,1685.306274 633.860657,1681.677612 
	C629.531616,1676.218750 626.510193,1669.160522 621.144836,1665.211792 
	C612.111572,1658.563232 601.945984,1653.235229 591.722290,1648.507446 
	C586.000366,1645.861328 581.025757,1643.351074 578.612244,1637.289673 
	C577.079163,1633.439209 574.371521,1631.451904 570.100220,1631.912720 
	C560.063843,1632.995361 550.444885,1632.049438 541.880066,1626.045044 
	C541.880066,1626.045044 541.976257,1625.986572 541.817505,1625.589844 
	C541.299011,1624.624146 540.795471,1624.247437 540.148071,1624.062988 
z"/>
<path style="fill: {#F9A5F3}"
data-name="Nsem"
 fill="#F9A5F3" opacity="1.000000" stroke="none" 
	d="
M1681.613770,1161.767212 
	C1681.125244,1154.812012 1680.698242,1147.851929 1680.135620,1140.902832 
	C1679.025024,1127.186279 1680.410767,1113.685669 1683.310059,1100.279907 
	C1683.788696,1098.066772 1683.640991,1095.718140 1683.777954,1093.510376 
	C1675.056396,1091.013794 1675.056396,1091.013794 1665.581787,1095.303345 
	C1665.581787,1099.414062 1665.726318,1104.012085 1665.546143,1108.597412 
	C1665.306763,1114.689575 1661.865112,1120.857544 1657.906738,1121.376709 
	C1651.972290,1122.154785 1646.001343,1122.617065 1641.994385,1116.244141 
	C1639.716309,1112.620972 1636.405273,1109.658936 1633.664795,1106.312622 
	C1626.683105,1097.787354 1619.474365,1089.357666 1619.834351,1076.710815 
	C1609.368164,1075.842773 1599.509888,1075.025269 1588.788940,1074.097168 
	C1588.392334,1072.400146 1588.779419,1070.785278 1589.336182,1069.231201 
	C1596.223267,1050.008667 1612.841919,1043.955933 1630.393921,1055.129150 
	C1642.941895,1063.116821 1656.475220,1068.008179 1670.564209,1072.243286 
	C1682.603760,1075.862305 1693.692383,1073.905396 1704.420654,1068.821045 
	C1713.468994,1064.532959 1722.371338,1060.260376 1732.423584,1058.765015 
	C1735.171021,1058.356323 1738.710938,1057.213257 1740.159180,1055.177856 
	C1746.548950,1046.197144 1756.316528,1043.873291 1765.664551,1044.239258 
	C1780.491089,1044.819336 1795.425293,1046.921021 1809.925293,1050.133667 
	C1820.281616,1052.428101 1830.409180,1052.373413 1840.598022,1051.491577 
	C1843.996948,1051.197266 1847.818848,1048.210571 1850.238037,1045.410034 
	C1865.984741,1027.182007 1885.935059,1023.824158 1908.251465,1033.629395 
	C1923.065674,1040.138306 1930.799561,1052.597656 1940.180542,1064.084473 
	C1943.812866,1068.532227 1945.544189,1075.159668 1953.326416,1076.176880 
	C1960.119385,1082.834473 1968.386719,1082.868896 1976.409912,1083.680542 
	C1981.207520,1084.165649 1985.994019,1084.761353 1991.539429,1085.722412 
	C1986.695801,1101.766235 1981.139771,1117.410156 1975.444458,1133.003296 
	C1974.779663,1134.823486 1973.581299,1136.589844 1972.228394,1137.993774 
	C1965.750122,1144.716919 1960.589233,1151.965088 1956.638916,1160.737061 
	C1953.705811,1167.250244 1946.751831,1172.201782 1940.957153,1177.101685 
	C1935.911743,1181.367920 1929.853027,1184.410645 1924.467285,1188.305420 
	C1910.483765,1198.418457 1896.619995,1208.697266 1882.716187,1218.920654 
	C1872.454834,1226.465820 1866.066162,1237.108276 1860.948364,1248.271606 
	C1850.886719,1270.218750 1834.086304,1284.072144 1810.728760,1291.457031 
	C1805.524902,1280.850220 1801.903564,1270.481201 1797.053711,1260.722778 
	C1791.329102,1249.204468 1785.851074,1237.151611 1777.847900,1227.293457 
	C1769.821899,1217.407227 1759.277954,1209.333130 1749.022217,1201.537476 
	C1728.150757,1185.672241 1706.291748,1171.275879 1681.613770,1161.767212 
z"/>
<path
data-name="Bibey" style="fill: {#A14ED8}"
 fill="#A14ED8" opacity="1.000000" stroke="none" 
	d="
M1681.004395,1162.086426 
	C1706.291748,1171.275879 1728.150757,1185.672241 1749.022217,1201.537476 
	C1759.277954,1209.333130 1769.821899,1217.407227 1777.847900,1227.293457 
	C1785.851074,1237.151611 1791.329102,1249.204468 1797.053711,1260.722778 
	C1801.903564,1270.481201 1805.524902,1280.850220 1810.024902,1291.624512 
	C1807.164673,1306.086670 1798.102051,1314.409790 1785.661987,1320.310791 
	C1777.913818,1323.986328 1769.985962,1328.194092 1763.724243,1333.902222 
	C1750.837036,1345.650635 1735.931030,1352.258179 1718.961304,1353.307373 
	C1707.683960,1354.004639 1700.484863,1360.332397 1694.030396,1367.803589 
	C1687.079712,1375.849121 1679.531006,1380.946045 1668.428345,1380.445679 
	C1664.316162,1380.260498 1660.024292,1381.990845 1655.957764,1383.294678 
	C1647.105347,1386.133179 1638.344971,1389.259155 1628.764404,1392.174072 
	C1633.756958,1378.353882 1633.391602,1363.714478 1633.981201,1349.291504 
	C1634.295898,1341.591309 1632.840454,1340.544922 1624.962891,1338.813477 
	C1623.027588,1338.388062 1621.023438,1338.076538 1619.048462,1338.062866 
	C1606.982544,1337.979492 1600.146240,1331.022095 1596.384888,1320.484619 
	C1593.259766,1311.729370 1590.407227,1302.853394 1587.960815,1293.886963 
	C1586.100464,1287.067871 1582.403564,1283.267334 1575.312988,1281.645996 
	C1566.118652,1279.543579 1558.496216,1266.749146 1559.591187,1257.237183 
	C1561.750977,1238.476196 1563.732422,1219.694824 1565.852173,1200.929077 
	C1566.071777,1198.984619 1566.671143,1197.074219 1567.188843,1195.173828 
	C1569.154053,1187.961304 1568.133423,1185.744263 1560.845703,1183.427124 
	C1554.245972,1181.328735 1547.502686,1179.682129 1540.625366,1177.781616 
	C1539.164551,1171.528687 1541.358765,1167.578491 1546.970337,1165.956299 
	C1554.921631,1163.657715 1562.988892,1161.744995 1571.044800,1159.828491 
	C1577.148804,1158.375977 1583.269409,1156.886963 1589.464233,1155.959351 
	C1593.910278,1155.293579 1598.779663,1154.452271 1602.955566,1155.571655 
	C1613.494629,1158.396729 1623.851929,1158.750366 1634.465088,1156.563477 
	C1637.362549,1155.966309 1640.437744,1156.288940 1643.411743,1155.991943 
	C1646.694092,1155.664307 1649.340942,1156.390137 1650.863037,1159.585815 
	C1657.474365,1173.466431 1666.634644,1171.455933 1677.900146,1164.058105 
	C1678.733887,1163.510620 1679.563354,1162.956665 1681.004395,1162.086426 
z"/>
<path
data-name="Bibey"
 fill="#A14ED8" style="fill: {#A14ED8}" opacity="1.000000" stroke="none" 
	d="
M1626.559937,1393.551636 
	C1626.261597,1393.007812 1626.623291,1392.511963 1627.623413,1392.058350 
	C1628.113770,1392.732422 1627.766479,1393.232056 1626.559937,1393.551636 
z"/>
<path
data-name="Nkoteng" style="fill: {#C9B74F}"
 fill="#C9B74F" opacity="1.000000" stroke="none" 
	d="
M541.675232,1626.887939 
	C550.444885,1632.049438 560.063843,1632.995361 570.100220,1631.912720 
	C574.371521,1631.451904 577.079163,1633.439209 578.612244,1637.289673 
	C581.025757,1643.351074 586.000366,1645.861328 591.722290,1648.507446 
	C601.945984,1653.235229 612.111572,1658.563232 621.144836,1665.211792 
	C626.510193,1669.160522 629.531616,1676.218750 633.860657,1681.677612 
	C636.738403,1685.306274 639.711487,1689.008545 643.259583,1691.926636 
	C652.030457,1699.140381 662.156921,1697.649780 669.469482,1689.063354 
	C672.648682,1685.330200 676.660645,1682.293213 680.376892,1679.034180 
	C684.119568,1675.751709 688.197021,1672.818237 691.705566,1669.309814 
	C696.033447,1664.981812 700.057556,1660.831543 707.084717,1661.701660 
	C708.838745,1661.918823 711.023132,1659.927246 712.757874,1658.617432 
	C714.053650,1657.638916 715.073242,1656.210083 715.995056,1654.833984 
	C723.453186,1643.700684 731.899841,1633.500244 743.089417,1625.867310 
	C751.897278,1619.858887 756.435730,1610.364380 762.712341,1602.251099 
	C772.085205,1590.135742 783.544434,1582.085449 800.212585,1585.548950 
	C802.585205,1586.041992 806.214294,1584.639526 808.026611,1582.857788 
	C812.509888,1578.450928 816.724548,1573.613037 820.203125,1568.386719 
	C823.566101,1563.333984 823.325989,1557.608398 819.658630,1552.514526 
	C816.731689,1548.448975 815.951965,1544.529175 817.559814,1539.490234 
	C819.461731,1533.529907 820.293640,1527.198853 821.247070,1520.975952 
	C821.848083,1517.053345 823.030762,1512.615112 821.826843,1509.145874 
	C819.277100,1501.798218 821.685425,1496.653809 826.277832,1491.285156 
	C830.475403,1486.377930 834.702759,1482.588135 841.416016,1480.885010 
	C848.609863,1479.059814 855.639526,1477.732422 863.013367,1478.085693 
	C870.323242,1478.435791 872.875183,1481.751831 871.287598,1489.141968 
	C870.591248,1492.383667 869.389099,1495.517456 868.709717,1498.761719 
	C867.397339,1505.028564 869.135193,1506.916748 874.595032,1510.666260 
	C882.491760,1516.089233 890.861328,1521.500732 896.967224,1528.672729 
	C903.709412,1536.592041 912.163818,1540.017700 921.151550,1543.401367 
	C924.812195,1544.779541 928.632996,1546.016602 931.914612,1548.064941 
	C942.240356,1554.509277 947.685486,1553.705933 955.488464,1544.026123 
	C955.889221,1543.529053 956.537842,1543.231812 957.331177,1542.651123 
	C962.574646,1543.069946 966.930725,1546.067871 969.081665,1550.515259 
	C978.335754,1569.649902 981.349609,1589.734253 975.409485,1610.459839 
	C973.079956,1618.587891 970.319824,1620.162354 961.342041,1619.903442 
	C949.257446,1619.554932 938.989868,1625.016724 930.163147,1631.691040 
	C924.032104,1636.327026 922.456604,1645.269775 922.050354,1653.513916 
	C921.274170,1669.263550 924.449219,1684.574707 926.956421,1699.948120 
	C930.423096,1721.203857 934.461243,1742.369873 937.658691,1763.663818 
	C938.737183,1770.846313 937.279358,1778.397705 938.241638,1785.612305 
	C940.287964,1800.954956 938.354065,1815.993774 935.763367,1830.969727 
	C934.825806,1836.389648 932.637390,1841.776489 930.078491,1846.687988 
	C926.560608,1853.440430 922.148132,1859.726685 917.964844,1866.863281 
	C905.415894,1871.371948 892.920471,1869.562134 880.299438,1868.891602 
	C869.430176,1868.314087 858.418762,1869.644043 847.515503,1870.630737 
	C823.598145,1872.795654 799.688721,1873.651855 775.831970,1870.367920 
	C760.850098,1868.305420 746.128601,1869.125244 731.360291,1872.108032 
	C726.955261,1872.997681 722.254578,1872.517456 717.689880,1872.502563 
	C709.038391,1872.474365 700.318481,1871.616089 691.756653,1872.444092 
	C684.075500,1873.186890 677.138550,1877.019775 671.858093,1882.846191 
	C666.497253,1888.761475 661.292542,1894.879517 656.630127,1901.349121 
	C652.018616,1907.748047 646.342896,1912.504395 639.403442,1916.099121 
	C631.423767,1920.232666 623.591370,1924.656372 615.771912,1929.089722 
	C613.482971,1930.387329 611.373657,1932.045776 609.325317,1933.714844 
	C604.099182,1937.972900 602.361389,1942.668945 605.843445,1949.329590 
	C609.946045,1957.177246 613.012817,1965.566406 617.074219,1974.985962 
	C603.578430,1974.985962 591.597107,1974.985962 579.171021,1974.985962 
	C575.689209,1966.294800 572.030396,1957.161743 568.282654,1947.806763 
	C560.054260,1950.838745 553.006592,1953.435791 545.241211,1956.149902 
	C541.718262,1948.841675 539.780640,1940.927979 535.932495,1934.089355 
	C527.147522,1918.477295 522.797302,1901.783936 520.150513,1884.236206 
	C516.838928,1862.280273 512.262939,1840.517456 508.676331,1818.598511 
	C508.024109,1814.612549 508.745605,1810.005371 510.136993,1806.156494 
	C514.149658,1795.055786 521.057861,1785.663818 529.472290,1777.476929 
	C532.808228,1774.231079 534.276611,1770.816528 534.319946,1766.111816 
	C534.432983,1753.831421 535.366394,1741.555664 535.353699,1729.278564 
	C535.349487,1725.183838 534.562256,1720.269775 532.227295,1717.161865 
	C526.727417,1709.841187 527.989441,1701.308228 526.547668,1693.316162 
	C526.173462,1691.241943 528.110229,1688.283691 529.755432,1686.406250 
	C533.547791,1682.078857 534.479614,1677.248657 534.341919,1671.692261 
	C534.202698,1666.073608 535.039490,1660.437988 535.184875,1654.802979 
	C535.317627,1649.655273 536.369202,1644.898071 539.954346,1641.037842 
	C543.770386,1636.929077 541.736511,1632.250977 541.675232,1626.887939 
z"/>
<path
data-name="Nanga-Eboko" style="fill: {#AB5C44}"
 fill="#AB5C44" opacity="1.000000" stroke="none" 
	d="
M518.013977,1257.978760 
	C517.659851,1257.694336 517.453674,1257.270630 517.247498,1256.846802 
	C517.547058,1256.862183 517.846680,1256.877686 518.301758,1257.226562 
	C518.457275,1257.559937 518.161987,1257.839478 518.013977,1257.978760 
z"/>
<path
data-name="Nanga-Eboko" style="fill: {#C9B74F}"
 fill="#C9B74F" opacity="1.000000" stroke="none" 
	d="
M540.235229,1624.594604 
	C540.795471,1624.247437 541.299011,1624.624146 541.820618,1625.645996 
	C541.429138,1625.774658 540.875793,1625.450439 540.235229,1624.594604 
z"/>
</svg>