<svg version="1.1" id="Layer_1" xmlns="http://www.w3.org/2000/svg" xmlns:xlink="http://www.w3.org/1999/xlink" x="0px" y="0px"
	 width="100%" viewBox="0 0 2211 2102"  xml:space="preserve">

<path
	data-name="Meiganga" 
 fill="#57F779" opacity="1.000000" stroke="none" 
	d="
M1278.000000,2104.000000 
	C1137.958252,2104.000000 997.916443,2104.000000 856.804565,2103.068848 
	C855.734436,2079.572510 855.734436,2057.007080 855.734436,2034.085938 
	C849.537292,2034.514648 844.452393,2034.067383 838.980164,2038.616455 
	C833.788513,2042.932373 825.507385,2045.901123 818.887329,2045.407349 
	C813.223328,2044.984863 806.188416,2044.459717 800.797852,2038.922119 
	C796.842102,2034.858398 789.886292,2033.715088 784.148132,2030.531982 
	C786.406494,2021.640137 784.161621,2015.324829 777.521301,2009.776489 
	C771.602844,2004.831665 769.780273,1996.515259 772.697571,1990.563354 
	C778.407593,1978.913452 782.669922,1965.344727 796.666809,1959.912598 
	C802.052002,1957.822266 803.693604,1954.178589 801.463257,1948.858154 
	C799.975769,1945.309692 799.600769,1941.976318 801.780640,1938.412720 
	C807.095154,1929.724487 812.169922,1920.889893 818.149597,1910.742310 
	C817.155518,1899.856689 820.889954,1894.736572 833.049316,1891.167358 
	C839.964966,1889.137207 846.637268,1886.277588 853.110474,1883.904663 
	C851.054749,1866.681274 850.854309,1866.601685 835.192871,1861.898438 
	C831.186401,1860.695312 827.469543,1858.527832 822.390686,1856.252808 
	C829.159851,1846.309082 827.287903,1836.992920 823.723450,1827.359497 
	C822.068726,1822.887329 823.956726,1818.391724 827.520325,1814.642212 
	C832.315857,1809.596680 837.670166,1806.522949 844.787964,1805.791260 
	C854.910645,1804.751099 859.210388,1796.445679 854.715027,1787.216797 
	C853.296509,1784.304443 850.970398,1781.834229 848.974121,1779.042114 
	C849.987610,1776.473633 851.806030,1774.019409 851.776489,1771.587646 
	C851.595581,1756.681885 859.995850,1743.740112 861.140747,1729.170776 
	C861.551025,1723.950073 863.518921,1719.274902 868.646301,1717.089478 
	C872.604675,1715.402100 876.653076,1714.665405 878.296204,1709.569824 
	C879.597717,1705.533691 882.455139,1702.013428 884.502808,1698.200195 
	C886.976074,1693.594482 888.570557,1688.277344 891.878296,1684.407471 
	C899.433594,1675.567993 899.682251,1666.304443 894.979797,1656.540527 
	C890.803284,1647.868408 886.198914,1639.541626 879.176941,1632.490601 
	C871.866577,1625.150024 867.057617,1616.035034 866.184875,1603.782959 
	C869.980469,1603.587769 873.384338,1603.147827 876.760925,1603.302734 
	C881.548889,1603.522339 883.978943,1601.925049 886.638428,1597.333496 
	C892.358337,1587.458252 898.814026,1577.844482 911.781067,1575.383057 
	C915.934814,1574.594604 920.525696,1571.255981 923.066040,1567.745117 
	C930.258789,1557.804321 932.532776,1546.718872 927.263794,1534.889648 
	C925.701538,1531.382324 923.911743,1528.609497 919.578369,1528.014282 
	C913.086243,1527.122314 909.483398,1522.199585 908.479980,1516.586670 
	C907.429810,1510.712036 904.305664,1507.136719 900.010437,1503.858398 
	C898.723816,1502.876343 897.268982,1501.838745 896.514038,1500.480469 
	C891.497986,1491.455933 883.808044,1485.583496 874.721313,1481.136353 
	C866.316772,1477.023071 864.641785,1472.262207 867.992004,1461.938599 
	C870.239990,1462.634644 872.495667,1463.333130 873.672058,1463.697388 
	C880.035461,1455.742432 886.993774,1449.179932 891.194946,1441.171021 
	C895.134644,1433.660889 900.584778,1428.548340 906.948792,1423.676880 
	C909.535034,1421.697144 913.402405,1419.079468 913.504211,1416.620117 
	C913.760498,1410.433105 917.422974,1406.359985 921.050354,1401.308228 
	C918.750000,1398.586548 916.917419,1395.808716 914.505554,1393.690552 
	C909.345642,1389.158813 905.382019,1384.936646 907.426331,1376.819580 
	C909.147095,1369.987061 910.907104,1364.437134 917.798828,1361.059937 
	C921.513611,1359.239746 925.957214,1356.096924 927.181641,1352.552246 
	C930.354614,1343.366699 932.833679,1333.710815 933.716614,1324.071167 
	C934.104248,1319.839600 929.934204,1315.190552 927.787415,1310.632812 
	C921.047729,1310.854370 915.266052,1309.847046 911.237549,1304.743896 
	C911.237549,1300.417236 911.848877,1296.072021 911.094421,1291.978638 
	C909.960876,1285.828857 907.950378,1279.831299 906.148254,1273.818481 
	C905.406250,1271.342651 904.522705,1268.823730 903.203674,1266.624023 
	C900.315613,1261.807861 897.108276,1257.183350 894.425537,1252.078125 
	C897.874084,1248.282104 900.412415,1244.141968 904.066528,1241.615845 
	C927.334106,1225.531250 951.000122,1210.021851 974.235901,1193.892456 
	C996.071838,1178.734741 1019.204224,1165.338379 1038.636230,1146.852173 
	C1044.829834,1140.960205 1056.014282,1140.529785 1064.122437,1143.773560 
	C1073.627686,1147.576294 1082.802979,1152.513550 1094.109375,1150.458618 
	C1100.568970,1149.284546 1108.220825,1148.958252 1113.524048,1155.550537 
	C1114.497192,1156.760132 1117.189453,1157.020630 1119.072021,1156.979736 
	C1123.905396,1156.874756 1128.729492,1156.354248 1134.044800,1155.963989 
	C1140.664062,1161.594238 1147.394043,1167.335571 1151.585693,1176.292114 
	C1156.742432,1187.310547 1163.961182,1187.371948 1173.936890,1179.591064 
	C1179.537109,1175.222900 1186.081909,1171.931519 1192.526489,1168.831299 
	C1196.328125,1167.002319 1200.993286,1167.000000 1204.855225,1165.256836 
	C1209.061890,1163.358032 1212.043335,1164.223999 1214.327393,1167.698242 
	C1219.028687,1174.849243 1223.482178,1182.163086 1228.212769,1189.688354 
	C1232.590088,1186.978760 1236.965576,1184.270386 1241.702148,1181.338379 
	C1246.046143,1187.440796 1252.273682,1188.807495 1257.922852,1187.343140 
	C1265.672119,1185.334595 1270.503052,1188.609619 1274.882935,1193.719482 
	C1280.364380,1192.045532 1285.358887,1190.520264 1290.032227,1189.093140 
	C1294.498169,1192.276489 1294.762573,1195.284668 1292.445679,1199.695435 
	C1290.220581,1203.931152 1291.904175,1208.070312 1295.854614,1211.092651 
	C1299.523926,1213.899902 1301.975952,1214.635376 1306.957764,1211.520752 
	C1313.255615,1207.583374 1320.315674,1202.750366 1328.761230,1204.051636 
	C1334.396729,1204.920044 1339.238281,1203.164917 1344.667603,1200.816040 
	C1356.404541,1204.012451 1360.740479,1207.333740 1359.949585,1215.615967 
	C1358.908325,1226.520508 1361.716553,1235.983643 1366.875488,1245.134277 
	C1370.501099,1251.565308 1370.579956,1257.668701 1366.094238,1263.818848 
	C1365.084961,1265.202637 1364.670410,1267.459473 1364.880615,1269.206177 
	C1365.385864,1273.405273 1366.424316,1277.540283 1367.318970,1282.062378 
	C1371.435181,1282.779785 1375.357910,1283.419922 1379.263062,1284.152466 
	C1389.317261,1286.038086 1400.056030,1285.816040 1408.468994,1292.965454 
	C1415.441406,1298.890503 1423.875488,1300.425903 1432.506714,1301.470947 
	C1444.639648,1302.939941 1451.247559,1310.023315 1451.691040,1322.297241 
	C1451.821533,1325.909180 1451.711060,1329.530029 1451.711060,1331.877808 
	C1464.547485,1340.451904 1475.852417,1348.757935 1487.890503,1355.813110 
	C1498.154175,1361.828491 1508.899170,1367.420776 1520.072510,1371.399414 
	C1541.061768,1378.873657 1541.254272,1378.333008 1553.007446,1394.624268 
	C1572.824219,1397.189453 1592.257935,1399.812500 1611.729370,1402.117188 
	C1614.891479,1402.491455 1618.453369,1402.081421 1621.437012,1400.973999 
	C1656.876099,1387.820435 1656.855591,1387.766479 1687.652100,1363.761475 
	C1690.017090,1361.917969 1692.215820,1359.749878 1694.823730,1358.351929 
	C1700.360962,1355.383545 1705.966919,1352.427124 1711.825195,1350.205444 
	C1717.979126,1347.871460 1724.613525,1346.802490 1730.763184,1344.459229 
	C1739.775146,1341.025635 1748.542480,1336.949829 1758.100098,1333.613770 
	C1766.144409,1338.474609 1773.403076,1338.456909 1781.555420,1335.452515 
	C1791.135498,1331.922485 1801.330322,1330.094604 1811.155762,1327.181641 
	C1815.838623,1325.793213 1820.965698,1324.490845 1824.711792,1321.613525 
	C1837.027832,1312.153809 1848.759888,1301.937012 1860.810913,1292.127319 
	C1865.128662,1288.612671 1870.904907,1285.659668 1875.368042,1289.435913 
	C1882.907104,1295.814941 1891.689453,1297.867676 1900.300781,1300.750732 
	C1896.839478,1302.964844 1893.743408,1304.516846 1890.092163,1306.347290 
	C1890.730957,1307.786133 1890.973755,1309.645020 1892.029785,1310.503418 
	C1900.302856,1317.227051 1899.530396,1325.288574 1895.957886,1333.954346 
	C1891.906250,1343.782715 1888.193970,1353.756104 1883.947876,1363.498169 
	C1870.681396,1393.935181 1857.376709,1424.357300 1843.803345,1454.658203 
	C1835.112915,1474.058716 1825.579956,1493.084717 1817.032104,1512.545532 
	C1803.142456,1544.168213 1789.968994,1576.105835 1776.026245,1607.704468 
	C1771.351318,1618.299072 1765.738403,1628.563843 1759.672363,1638.437500 
	C1753.061279,1649.198120 1745.542358,1659.412720 1738.178833,1669.693115 
	C1735.307739,1673.701172 1734.032837,1677.268677 1735.362427,1682.515015 
	C1738.047363,1693.110840 1739.426392,1704.030396 1741.652954,1714.752319 
	C1742.961060,1721.050903 1741.783081,1726.207642 1737.717896,1731.404541 
	C1719.092896,1755.214600 1700.797119,1779.281982 1682.351196,1803.232422 
	C1677.095459,1810.056396 1671.802490,1816.327515 1663.104614,1819.766846 
	C1648.949463,1825.364136 1635.403198,1832.497803 1621.585571,1838.952271 
	C1605.038452,1846.682007 1588.541138,1854.523071 1571.904419,1862.055786 
	C1550.132446,1871.913574 1527.919922,1880.866333 1506.564209,1891.543457 
	C1497.804932,1895.922974 1489.780640,1896.723877 1480.719727,1895.142090 
	C1475.550537,1894.239746 1470.272339,1893.962036 1465.967773,1893.501953 
	C1460.817017,1901.476685 1456.497803,1908.538574 1451.744751,1915.295288 
	C1450.315796,1917.326660 1447.900635,1919.276733 1445.558838,1919.951782 
	C1432.519775,1923.711182 1423.062622,1930.490479 1421.959839,1945.297119 
	C1421.840576,1946.899536 1420.921509,1948.438232 1420.403076,1950.016235 
	C1417.073975,1960.149536 1416.334839,1960.755615 1405.837769,1961.638428 
	C1404.513672,1961.749756 1403.153442,1961.820801 1401.843628,1961.650757 
	C1391.766724,1960.342407 1386.457153,1966.701782 1382.475220,1974.308228 
	C1379.590820,1979.817871 1377.923706,1985.951782 1375.452637,1991.694946 
	C1373.497070,1996.240356 1370.067261,1999.275269 1364.906616,1999.609497 
	C1361.587769,1999.824341 1358.244507,1999.696289 1354.912598,1999.670288 
	C1345.601929,1999.597656 1337.239014,2002.152588 1329.442871,2009.041260 
	C1329.889404,2012.481812 1330.574097,2016.356689 1330.849854,2020.260376 
	C1331.151123,2024.525146 1332.637695,2029.675659 1330.852051,2032.926270 
	C1326.490723,2040.864990 1322.114258,2049.157471 1314.718384,2055.091797 
	C1308.734497,2051.197510 1306.353271,2042.608398 1297.577637,2044.048706 
	C1297.109741,2044.125488 1296.329590,2043.511719 1295.996582,2043.016479 
	C1291.883667,2036.899292 1286.593750,2031.209595 1284.056152,2024.485474 
	C1280.596191,2015.317139 1275.023071,2009.163208 1265.968750,2006.635132 
	C1260.470459,2005.099854 1259.315796,2001.974609 1259.667969,1997.138428 
	C1260.292725,1988.558838 1260.839111,1979.973389 1261.499634,1970.184204 
	C1259.719604,1968.463257 1257.152588,1965.981445 1253.938721,1962.874268 
	C1251.587646,1974.179321 1250.043213,1983.949463 1247.381714,1993.405151 
	C1246.070801,1998.062500 1247.065430,2001.224731 1250.162842,2004.075562 
	C1256.238525,2009.667603 1262.449707,2015.117065 1268.722168,2020.488403 
	C1271.755615,2023.086304 1274.446655,2025.193115 1274.630371,2030.083862 
	C1274.806641,2034.779297 1276.012695,2040.644775 1279.056519,2043.754517 
	C1284.280762,2049.091797 1281.457031,2055.017334 1280.138184,2059.002686 
	C1278.737915,2063.234375 1279.645874,2064.059570 1282.395020,2065.557129 
	C1283.509399,2066.164307 1285.523071,2066.192871 1285.852539,2067.003174 
	C1289.375122,2075.668213 1295.941162,2081.674561 1303.693359,2087.219971 
	C1294.554565,2092.882568 1283.069946,2082.632568 1275.446411,2092.535889 
	C1276.304199,2096.386963 1277.152100,2100.193359 1278.000000,2104.000000 
z"/>

<path
	data-name="Dir" 
 fill="#514CD4" opacity="1.000000" stroke="none" 
	d="
M894.031372,1252.480469 
	C897.108276,1257.183350 900.315613,1261.807861 903.203674,1266.624023 
	C904.522705,1268.823730 905.406250,1271.342651 906.148254,1273.818481 
	C907.950378,1279.831299 909.960876,1285.828857 911.094421,1291.978638 
	C911.848877,1296.072021 911.237549,1300.417236 911.237549,1304.743896 
	C915.266052,1309.847046 921.047729,1310.854370 927.787415,1310.632812 
	C929.934204,1315.190552 934.104248,1319.839600 933.716614,1324.071167 
	C932.833679,1333.710815 930.354614,1343.366699 927.181641,1352.552246 
	C925.957214,1356.096924 921.513611,1359.239746 917.798828,1361.059937 
	C910.907104,1364.437134 909.147095,1369.987061 907.426331,1376.819580 
	C905.382019,1384.936646 909.345642,1389.158813 914.505554,1393.690552 
	C916.917419,1395.808716 918.750000,1398.586548 921.050354,1401.308228 
	C917.422974,1406.359985 913.760498,1410.433105 913.504211,1416.620117 
	C913.402405,1419.079468 909.535034,1421.697144 906.948792,1423.676880 
	C900.584778,1428.548340 895.134644,1433.660889 891.194946,1441.171021 
	C886.993774,1449.179932 880.035461,1455.742432 873.672058,1463.697388 
	C872.495667,1463.333130 870.239990,1462.634644 867.992004,1461.938599 
	C864.641785,1472.262207 866.316772,1477.023071 874.721313,1481.136353 
	C883.808044,1485.583496 891.497986,1491.455933 896.514038,1500.480469 
	C897.268982,1501.838745 898.723816,1502.876343 900.010437,1503.858398 
	C904.305664,1507.136719 907.429810,1510.712036 908.479980,1516.586670 
	C909.483398,1522.199585 913.086243,1527.122314 919.578369,1528.014282 
	C923.911743,1528.609497 925.701538,1531.382324 927.263794,1534.889648 
	C932.532776,1546.718872 930.258789,1557.804321 923.066040,1567.745117 
	C920.525696,1571.255981 915.934814,1574.594604 911.781067,1575.383057 
	C898.814026,1577.844482 892.358337,1587.458252 886.638428,1597.333496 
	C883.978943,1601.925049 881.548889,1603.522339 876.760925,1603.302734 
	C873.384338,1603.147827 869.980469,1603.587769 866.184875,1603.782959 
	C867.057617,1616.035034 871.866577,1625.150024 879.176941,1632.490601 
	C886.198914,1639.541626 890.803284,1647.868408 894.979797,1656.540527 
	C899.682251,1666.304443 899.433594,1675.567993 891.878296,1684.407471 
	C888.570557,1688.277344 886.976074,1693.594482 884.502808,1698.200195 
	C882.455139,1702.013428 879.597717,1705.533691 878.296204,1709.569824 
	C876.653076,1714.665405 872.604675,1715.402100 868.646301,1717.089478 
	C863.518921,1719.274902 861.551025,1723.950073 861.140747,1729.170776 
	C859.995850,1743.740112 851.595581,1756.681885 851.776489,1771.587646 
	C851.806030,1774.019409 849.987610,1776.473633 848.974121,1779.042114 
	C850.970398,1781.834229 853.296509,1784.304443 854.715027,1787.216797 
	C859.210388,1796.445679 854.910645,1804.751099 844.787964,1805.791260 
	C837.670166,1806.522949 832.315857,1809.596680 827.520325,1814.642212 
	C823.956726,1818.391724 822.068726,1822.887329 823.723450,1827.359497 
	C827.287903,1836.992920 829.159851,1846.309082 822.390686,1856.252808 
	C827.469543,1858.527832 831.186401,1860.695312 835.192871,1861.898438 
	C850.854309,1866.601685 851.054749,1866.681274 853.110474,1883.904663 
	C846.637268,1886.277588 839.964966,1889.137207 833.049316,1891.167358 
	C820.889954,1894.736572 817.155518,1899.856689 818.149597,1910.742310 
	C812.169922,1920.889893 807.095154,1929.724487 801.780640,1938.412720 
	C799.600769,1941.976318 799.975769,1945.309692 801.463257,1948.858154 
	C803.693604,1954.178589 802.052002,1957.822266 796.666809,1959.912598 
	C782.669922,1965.344727 778.407593,1978.913452 772.697571,1990.563354 
	C769.780273,1996.515259 771.602844,2004.831665 777.521301,2009.776489 
	C784.161621,2015.324829 786.406494,2021.640137 783.481812,2030.828125 
	C779.677063,2033.557739 779.846680,2035.874756 781.891296,2038.354614 
	C783.703674,2040.552856 785.282898,2042.648560 781.214172,2046.177368 
	C777.219604,2043.970337 773.004517,2040.484131 768.223389,2039.317383 
	C763.191772,2038.089355 757.618286,2039.129639 752.282959,2039.063477 
	C750.987000,2039.047485 749.707520,2038.483398 748.401917,2038.333862 
	C740.515137,2037.430420 733.620300,2041.393066 731.015564,2047.491577 
	C726.819153,2057.316406 720.096313,2060.290283 710.770020,2059.575684 
	C705.063904,2059.138428 701.294067,2061.531738 697.863892,2065.495850 
	C694.312744,2069.599609 690.542236,2072.991455 684.307739,2072.557861 
	C682.461426,2072.429199 678.997375,2074.933105 678.730774,2076.619385 
	C677.957458,2081.510986 674.976746,2082.742432 671.000122,2084.411865 
	C665.334473,2086.790771 664.685547,2090.717773 667.421631,2096.657959 
	C668.501953,2099.003662 669.153320,2101.546875 670.000000,2104.000000 
	C499.958221,2104.000000 329.916412,2104.000000 158.884430,2103.214844 
	C163.365829,2083.308594 172.450043,2065.120850 173.403732,2044.391724 
	C181.985352,2044.058228 178.740936,2035.763672 181.620300,2029.762451 
	C185.381973,2030.660278 189.213608,2031.574707 194.084061,2032.737061 
	C193.767075,2027.430908 193.444534,2022.031860 193.148804,2017.081421 
	C194.875854,2015.789429 196.284912,2014.735352 197.775421,2013.620361 
	C195.087921,2012.039551 193.084381,2010.861084 189.779510,2008.917236 
	C193.023392,2007.726929 194.649307,2007.130371 197.667831,2006.022705 
	C191.432358,2000.640381 185.843719,1995.816284 180.117737,1990.873779 
	C180.337631,1989.635986 180.614365,1988.078247 180.886368,1986.547241 
	C177.415146,1985.587036 174.019058,1984.647583 170.014191,1983.539795 
	C172.353973,1976.705933 164.814926,1972.500244 167.152069,1966.703857 
	C162.940582,1962.649414 158.961319,1958.818481 154.982056,1954.987549 
	C145.252548,1957.279785 148.996124,1947.531250 145.425949,1944.329468 
	C144.703156,1943.681274 143.792053,1943.209595 142.907288,1942.781494 
	C139.379868,1941.074097 135.925949,1939.148926 132.259476,1937.812988 
	C128.436874,1936.420532 127.263168,1933.920288 127.478104,1931.643433 
	C131.942535,1926.459839 134.902863,1921.457886 139.245880,1918.456909 
	C142.966736,1915.885864 143.603989,1913.246582 143.771286,1909.442993 
	C144.222321,1899.189697 145.100723,1888.951660 145.365433,1878.696167 
	C145.426453,1876.332031 143.940414,1873.798462 142.748322,1871.565918 
	C141.398056,1869.037231 139.684174,1866.677124 137.927078,1864.399170 
	C136.575760,1862.646851 135.135223,1860.814331 133.348022,1859.574463 
	C127.014259,1855.180420 123.881401,1847.690063 125.248894,1839.796997 
	C125.520721,1838.228149 125.050293,1836.533813 125.300064,1834.957275 
	C126.272736,1828.817871 122.761436,1824.046143 120.053574,1818.788818 
	C122.018066,1816.653809 123.768990,1814.750854 125.039871,1813.369629 
	C124.706329,1807.492798 125.038979,1802.109131 123.937538,1797.036621 
	C122.782860,1791.718994 120.239510,1786.704956 118.339729,1781.544678 
	C118.114082,1780.931763 118.230499,1780.191772 117.999458,1779.582153 
	C116.033653,1774.394287 113.790771,1769.297119 112.111397,1764.020020 
	C111.029373,1760.620117 109.747925,1756.785156 110.334915,1753.459351 
	C111.462090,1747.072632 110.949112,1740.992676 109.394440,1734.896851 
	C107.735664,1728.392944 110.786186,1722.334106 114.530251,1718.787842 
	C123.739525,1710.064819 123.110474,1711.289062 117.824387,1700.694336 
	C115.144836,1695.323730 112.718697,1690.203003 111.836159,1684.034790 
	C111.043686,1678.495972 109.411064,1672.715210 101.629662,1671.101318 
	C98.244736,1670.399292 95.260414,1665.581421 93.119926,1662.016846 
	C92.101852,1660.321411 93.537270,1657.188599 93.764671,1654.697876 
	C93.939636,1652.781616 93.963615,1650.851685 94.057274,1648.874023 
	C92.148499,1648.018555 90.695755,1647.271973 89.176590,1646.702881 
	C82.690071,1644.272583 77.791008,1641.025146 76.965187,1632.963989 
	C76.542236,1628.835205 75.845329,1623.431152 70.484306,1621.415405 
	C70.396568,1618.229004 70.308823,1615.042725 70.893539,1610.580688 
	C78.480591,1603.253784 80.260963,1596.342896 75.592964,1587.989380 
	C74.581329,1586.179077 73.686852,1582.883057 74.599876,1581.654175 
	C79.537354,1575.008057 82.137100,1567.783691 82.463837,1559.542725 
	C82.519630,1558.135376 83.999626,1556.624756 85.121460,1555.447510 
	C89.661232,1550.683716 93.647408,1544.938354 99.091141,1541.597412 
	C107.018440,1536.732544 111.376869,1530.211426 114.317238,1521.764282 
	C115.360588,1518.766724 118.449402,1515.550537 121.395271,1514.306030 
	C134.693146,1508.687256 142.210434,1497.918945 145.880203,1485.082031 
	C148.190491,1477.000488 152.265472,1472.722534 159.403671,1469.609253 
	C163.512955,1467.816772 167.139053,1464.815674 170.793518,1462.103760 
	C177.051193,1457.460205 182.187332,1450.767334 191.414307,1451.957397 
	C192.707962,1452.124268 194.649734,1450.868774 195.565338,1449.701782 
	C198.537369,1445.914429 201.171722,1441.862061 205.123550,1436.214966 
	C204.204514,1436.514038 205.406372,1436.028076 206.653473,1435.734009 
	C211.524445,1434.585571 214.039886,1430.641235 214.698547,1426.569092 
	C215.306992,1422.807373 212.940552,1419.931519 209.059052,1417.212280 
	C204.663254,1414.132446 201.532852,1409.922729 195.421890,1409.250732 
	C192.893921,1408.972656 190.712082,1405.547363 188.465271,1403.632202 
	C193.624512,1399.873535 197.814774,1396.820801 202.597778,1393.336304 
	C208.463394,1400.656250 217.896652,1397.174805 225.406982,1400.330933 
	C227.894730,1398.733032 230.353592,1397.153564 233.751312,1394.971069 
	C238.204651,1399.537720 242.479019,1403.920776 246.735214,1408.285278 
	C239.496735,1415.740112 248.391327,1422.907959 244.461945,1429.366089 
	C253.950623,1432.984985 268.294556,1442.472900 275.244354,1449.542114 
	C280.256012,1449.308838 282.911163,1446.365234 283.665375,1441.548584 
	C284.321106,1437.360840 285.930328,1434.014038 291.576141,1431.091553 
	C293.407196,1432.974121 294.425018,1435.554810 296.175293,1437.464355 
	C303.490936,1445.445557 306.623596,1445.632080 317.051819,1439.021729 
	C316.435577,1437.301392 315.638611,1435.520386 315.159027,1433.657715 
	C313.436554,1426.967163 316.593262,1417.329712 321.772949,1416.738647 
	C328.487854,1415.972290 335.968445,1415.812866 342.173309,1418.034546 
	C352.880463,1421.868286 356.454102,1434.330444 352.371674,1446.803101 
	C347.955872,1448.417114 343.837067,1449.922607 339.314117,1451.575928 
	C344.219360,1459.569458 346.213806,1468.143066 355.392334,1470.612427 
	C357.707977,1467.567383 360.121368,1464.924194 361.904175,1461.908203 
	C363.902618,1458.527588 365.330444,1454.809692 367.103546,1451.032104 
	C369.701843,1450.260620 372.463287,1449.440674 375.764343,1448.460571 
	C377.368866,1451.858398 379.346893,1454.939941 380.290710,1458.311157 
	C381.632019,1463.102051 384.320648,1464.877686 389.037689,1463.861694 
	C389.402405,1463.783081 389.680786,1463.303467 389.794647,1463.198608 
	C388.036743,1462.241211 386.308533,1461.299927 384.580322,1460.358765 
	C393.706329,1461.216187 397.523071,1451.578003 405.065552,1450.747803 
	C409.493713,1461.875000 413.860535,1472.847900 417.829071,1482.820190 
	C422.488190,1483.491821 425.703644,1483.955444 430.557739,1484.655273 
	C428.288544,1489.324097 426.470703,1493.064331 424.771027,1496.561401 
	C431.716156,1501.707153 430.671478,1490.374512 436.571686,1491.880493 
	C436.697388,1494.652466 436.829834,1497.573486 437.016083,1501.680786 
	C442.266388,1501.945801 447.610107,1500.950562 451.768280,1502.728271 
	C457.676514,1505.254150 461.067749,1501.319946 465.374817,1499.821289 
	C471.052734,1506.718872 474.819244,1516.249146 486.694214,1514.068848 
	C487.532928,1513.914673 489.355530,1516.553345 489.916656,1518.172119 
	C490.481110,1519.800415 490.040833,1521.777100 490.040833,1524.114014 
	C496.384949,1522.384644 501.922272,1520.875244 506.354858,1519.666992 
	C508.785400,1521.335205 510.788574,1522.991699 513.039429,1524.178223 
	C515.430603,1525.438599 518.056763,1526.253540 521.202087,1527.511597 
	C527.557556,1523.847900 534.548218,1519.817993 541.547485,1515.783081 
	C549.105469,1519.226562 557.869690,1520.107422 565.112488,1528.578979 
	C567.164185,1524.402466 568.597290,1521.485107 570.848572,1516.902466 
	C573.523621,1522.116211 574.996765,1524.288574 575.792542,1526.685547 
	C577.397644,1531.520142 580.541870,1532.540283 585.132019,1531.430542 
	C592.933594,1529.544312 599.134766,1525.918701 602.090088,1517.880371 
	C602.958862,1515.517334 604.834717,1513.524658 606.222595,1511.402588 
	C612.578552,1511.634399 619.434082,1517.313843 623.913574,1509.767944 
	C627.293152,1504.075073 634.557983,1498.353271 626.017090,1490.761719 
	C630.164124,1485.683960 633.960938,1481.035156 637.434448,1476.782227 
	C641.240295,1478.510986 643.651733,1479.606445 647.280762,1481.254883 
	C647.280762,1474.502319 647.280762,1469.426270 647.280762,1462.510742 
	C655.450745,1461.840942 661.424011,1455.199219 668.054443,1448.942017 
	C679.862671,1457.642334 687.519958,1444.650391 697.493835,1444.961548 
	C698.075989,1438.724121 698.585388,1433.265869 699.144531,1427.274170 
	C692.227295,1420.384521 692.523804,1414.923218 700.675659,1412.313721 
	C707.105774,1410.255493 713.626648,1408.480957 720.107239,1406.580444 
	C721.943726,1402.209961 724.196411,1397.938965 727.659912,1396.409546 
	C733.713623,1393.735718 740.511536,1392.747192 747.126587,1391.018799 
	C746.112793,1385.024170 747.623901,1380.432861 751.491394,1376.138306 
	C754.020935,1373.329468 756.778625,1369.410156 756.807678,1365.965942 
	C756.854248,1360.445923 760.030579,1357.599121 764.604553,1354.381958 
	C758.279785,1351.608276 752.741516,1350.059326 751.380737,1343.363037 
	C749.373474,1333.485474 741.460510,1328.018311 733.814636,1323.149902 
	C728.607056,1319.833984 728.839478,1314.339233 725.976196,1310.235474 
	C729.811035,1299.838501 718.818787,1294.813354 717.322021,1286.348022 
	C711.848389,1284.216309 710.203491,1279.076904 707.457642,1274.568970 
	C705.092651,1270.686401 701.810791,1266.719482 697.947449,1264.535889 
	C691.309998,1260.784302 688.991089,1255.365845 691.788940,1245.469116 
	C693.544189,1239.260132 696.262634,1237.783447 705.007874,1239.320557 
	C709.892578,1240.179077 713.919250,1239.340698 715.861511,1234.715942 
	C717.207581,1231.510620 719.062317,1230.361938 722.257324,1229.445557 
	C728.510010,1227.652222 732.908752,1220.466309 740.899902,1223.179199 
	C741.755981,1223.469727 743.741760,1221.533325 744.693237,1220.251343 
	C748.799316,1214.718994 754.529846,1214.930786 760.119568,1214.857056 
	C761.671265,1218.819214 762.101196,1223.057373 764.439270,1225.344971 
	C774.687195,1235.370972 778.404114,1250.047241 790.025024,1259.250122 
	C800.355103,1267.430908 809.195862,1277.569702 820.941101,1283.910156 
	C825.728149,1286.494385 830.857727,1288.774780 836.932373,1286.070557 
	C840.707581,1284.389893 845.253418,1288.045654 846.089783,1292.642212 
	C846.611328,1295.508545 846.553894,1298.480347 846.738770,1301.151611 
	C851.497742,1303.455566 854.348206,1300.941162 856.921509,1298.316284 
	C858.525330,1296.680298 859.668274,1294.568970 860.902832,1292.598633 
	C865.459534,1285.326050 869.263916,1277.439697 874.689209,1270.893066 
	C880.329651,1264.086792 887.519226,1258.564331 894.031372,1252.480469 
z"/>
<path
	data-name="Djohong" 
 fill="#E25492" opacity="1.000000" stroke="none" 
	d="
M2214.000000,769.200012 
	C2208.466309,773.057495 2203.885254,775.631531 2202.772949,783.700867 
	C2201.948486,789.680115 2196.088135,795.798340 2191.000732,800.125732 
	C2185.761475,804.582214 2185.173340,809.341248 2185.738770,815.143921 
	C2186.375244,821.679016 2187.300049,828.198975 2187.617432,834.748840 
	C2188.009766,842.846802 2190.332520,849.162109 2199.329590,850.129028 
	C2200.066162,855.068298 2200.737549,859.570496 2201.549561,865.015137 
	C2199.623047,866.266663 2197.246338,867.810608 2194.331543,869.704102 
	C2201.141357,875.416626 2197.448486,880.496704 2192.988281,885.494568 
	C2192.323975,886.239258 2191.350098,886.892761 2191.067627,887.765869 
	C2186.165283,902.913391 2172.617676,911.345032 2163.621582,923.297607 
	C2160.597900,927.314941 2156.863037,929.599854 2151.869873,929.707336 
	C2139.047119,929.983459 2132.159912,936.868713 2128.607910,948.880005 
	C2126.086182,957.407288 2122.380127,965.675903 2118.395020,973.656616 
	C2112.914795,984.631775 2111.509277,996.535339 2110.115723,1008.285522 
	C2108.478760,1022.087280 2108.421387,1036.077026 2107.709717,1049.986816 
	C2107.659668,1050.970581 2107.744873,1051.994995 2107.968018,1052.953735 
	C2110.764160,1064.968994 2110.695557,1064.852051 2101.477783,1071.123047 
	C2099.142578,1072.711792 2097.195801,1075.088867 2095.552002,1077.440186 
	C2087.267578,1089.290894 2083.086426,1102.995972 2077.860352,1116.282349 
	C2073.876465,1126.411133 2068.419189,1135.960327 2062.142578,1146.015747 
	C2059.003906,1146.259644 2057.328857,1146.125000 2055.678223,1146.270264 
	C2033.884033,1148.188477 2012.073975,1149.959473 1990.314453,1152.217651 
	C1984.483154,1152.822998 1978.482422,1154.190674 1973.127075,1156.515869 
	C1959.706543,1162.342896 1946.643921,1168.989380 1933.364868,1175.150146 
	C1929.463013,1176.960327 1925.433716,1178.885254 1921.260376,1179.644043 
	C1911.158325,1181.481079 1900.836426,1182.176758 1890.794556,1184.256836 
	C1882.286987,1186.019165 1872.908081,1184.686768 1865.740112,1191.957886 
	C1858.993042,1198.801880 1851.210693,1204.612427 1844.075317,1211.088745 
	C1828.810913,1224.943115 1813.476562,1238.731567 1798.592529,1252.987305 
	C1793.894287,1257.487061 1789.685303,1262.951538 1786.730225,1268.730347 
	C1778.704712,1284.423950 1771.376221,1300.478638 1763.975098,1316.484375 
	C1761.473877,1321.893555 1759.583618,1327.585205 1757.414185,1333.147705 
	C1748.542480,1336.949829 1739.775146,1341.025635 1730.763184,1344.459229 
	C1724.613525,1346.802490 1717.979126,1347.871460 1711.825195,1350.205444 
	C1705.966919,1352.427124 1700.360962,1355.383545 1694.823730,1358.351929 
	C1692.215820,1359.749878 1690.017090,1361.917969 1687.652100,1363.761475 
	C1656.855591,1387.766479 1656.876099,1387.820435 1621.437012,1400.973999 
	C1618.453369,1402.081421 1614.891479,1402.491455 1611.729370,1402.117188 
	C1592.257935,1399.812500 1572.824219,1397.189453 1553.007446,1394.624268 
	C1541.254272,1378.333008 1541.061768,1378.873657 1520.072510,1371.399414 
	C1508.899170,1367.420776 1498.154175,1361.828491 1487.890503,1355.813110 
	C1475.852417,1348.757935 1464.547485,1340.451904 1451.711060,1331.877808 
	C1451.711060,1329.530029 1451.821533,1325.909180 1451.691040,1322.297241 
	C1451.247559,1310.023315 1444.639648,1302.939941 1432.506714,1301.470947 
	C1423.875488,1300.425903 1415.441406,1298.890503 1408.468994,1292.965454 
	C1400.056030,1285.816040 1389.317261,1286.038086 1379.263062,1284.152466 
	C1375.357910,1283.419922 1371.435181,1282.779785 1367.318970,1282.062378 
	C1366.424316,1277.540283 1365.385864,1273.405273 1364.880615,1269.206177 
	C1364.670410,1267.459473 1365.084961,1265.202637 1366.094238,1263.818848 
	C1370.579956,1257.668701 1370.501099,1251.565308 1366.875488,1245.134277 
	C1361.716553,1235.983643 1358.908325,1226.520508 1359.949585,1215.615967 
	C1360.740479,1207.333740 1356.404541,1204.012451 1344.587769,1200.209961 
	C1343.771118,1196.163330 1348.647583,1195.181763 1346.670532,1190.698486 
	C1345.368896,1187.746948 1347.921997,1184.740112 1351.566162,1183.269897 
	C1357.492310,1180.879272 1364.799194,1179.361572 1368.641479,1174.959839 
	C1374.246460,1168.538696 1377.900391,1170.188354 1383.777832,1173.595459 
	C1391.372803,1177.998169 1394.561646,1175.926147 1399.841797,1167.585327 
	C1401.986938,1164.196655 1405.951660,1161.409424 1409.710815,1159.826294 
	C1411.571411,1159.042603 1414.848511,1161.594971 1417.474121,1162.663940 
	C1419.856567,1163.633789 1422.224609,1164.638794 1423.736694,1165.268921 
	C1434.205078,1158.392822 1443.956421,1151.987671 1452.748535,1146.212524 
	C1458.625244,1150.086792 1463.461914,1152.866577 1467.789795,1156.289673 
	C1470.191284,1158.189087 1471.806641,1161.116699 1473.657104,1163.667480 
	C1475.113159,1165.674316 1475.985840,1168.325806 1477.835571,1169.773682 
	C1480.563477,1171.908813 1483.929443,1173.228882 1487.831909,1175.331665 
	C1501.588013,1174.477905 1512.475952,1163.741943 1525.000610,1161.396362 
	C1525.000610,1154.861816 1524.905640,1149.811523 1525.037231,1144.767090 
	C1525.112915,1141.864624 1525.943848,1138.944824 1525.746216,1136.080444 
	C1525.398926,1131.048584 1527.485718,1129.059570 1532.408447,1128.235596 
	C1543.944824,1126.303955 1551.059082,1119.532349 1550.606567,1108.980469 
	C1562.344604,1108.420532 1556.820312,1097.987793 1560.587280,1093.107300 
	C1554.354004,1091.016235 1548.698120,1089.688843 1543.576416,1087.242554 
	C1538.305908,1084.725220 1538.238403,1074.901123 1543.203613,1071.511963 
	C1553.270874,1064.640503 1564.705566,1062.122925 1576.675049,1061.702881 
	C1585.364258,1061.397827 1593.135986,1058.717285 1600.304810,1054.126831 
	C1598.283081,1048.371216 1596.279663,1042.573730 1590.548462,1041.802979 
	C1583.306396,1040.829346 1579.029663,1035.743286 1575.426025,1031.255249 
	C1571.018555,1025.765747 1565.986206,1023.744385 1559.797974,1022.812256 
	C1547.061279,1020.893738 1541.462769,1013.482239 1543.815308,1000.972534 
	C1544.692139,996.310547 1543.673218,993.245239 1538.983765,991.694458 
	C1537.114014,991.076294 1535.351685,990.133301 1533.096191,989.143188 
	C1530.722168,990.199890 1528.050903,991.388977 1525.599854,992.479980 
	C1517.179932,986.757019 1517.656982,978.415100 1518.422119,970.021179 
	C1518.540894,968.718994 1519.232178,967.475220 1519.404541,966.170837 
	C1520.284668,959.513733 1518.748535,957.905212 1512.040771,958.028870 
	C1507.097534,958.120117 1502.151123,958.046753 1497.402466,958.046753 
	C1495.130249,951.290039 1490.244873,947.738159 1484.484497,946.010132 
	C1480.248413,944.739380 1478.944458,942.395264 1477.991455,938.077759 
	C1491.739990,939.323303 1496.909424,928.205078 1504.214355,920.627075 
	C1508.651001,922.500610 1512.258301,924.163696 1515.966675,925.558350 
	C1522.096436,927.863708 1527.935059,929.389526 1535.053589,928.971924 
	C1543.588989,928.471313 1553.055420,928.463135 1561.163574,933.393188 
	C1562.819824,934.400330 1565.351562,934.596497 1566.330200,935.979736 
	C1570.505127,941.881226 1574.248901,948.087769 1577.962891,953.890625 
	C1571.238770,964.117737 1567.651123,974.201599 1569.935547,986.197998 
	C1585.092407,986.292969 1599.014771,986.658142 1612.666382,982.923340 
	C1618.404175,981.353516 1624.165527,981.335022 1630.143921,981.235474 
	C1639.789062,981.074951 1649.398682,978.219055 1658.994629,976.354126 
	C1660.211182,976.117676 1661.207397,974.898682 1662.389160,974.299316 
	C1664.444336,973.257080 1666.565552,972.344910 1668.657715,971.375122 
	C1674.618042,968.612183 1680.595825,965.885498 1686.526978,963.060974 
	C1688.319092,962.207520 1689.989258,960.217224 1691.701172,960.233337 
	C1698.042725,960.292908 1700.112061,956.258545 1701.870117,951.257507 
	C1703.938599,945.372986 1707.996216,942.122009 1714.629150,942.253174 
	C1720.537842,942.370056 1725.664795,940.035889 1729.779663,935.759827 
	C1738.443848,926.756042 1748.776489,920.377258 1760.426025,916.022888 
	C1761.047119,915.790771 1761.640747,915.471741 1762.221069,915.146667 
	C1769.005249,911.346497 1775.793701,908.065186 1783.902832,911.489441 
	C1785.583984,912.199402 1787.938965,911.894409 1789.827759,911.427612 
	C1796.533813,909.770203 1802.868042,911.120789 1809.088379,913.441772 
	C1814.147705,915.329590 1817.729492,914.184143 1821.058960,909.674438 
	C1826.539673,902.250977 1832.664795,895.303223 1838.266113,888.462708 
	C1847.353149,890.151245 1855.379639,891.760254 1861.485718,883.379578 
	C1863.916870,880.042786 1868.034180,879.435425 1872.399414,880.141113 
	C1878.108765,881.064087 1883.587280,879.977478 1888.690796,876.881897 
	C1896.579712,872.096680 1904.338135,866.941528 1912.687012,863.108826 
	C1922.811523,858.460876 1932.567139,852.058289 1944.705200,853.538147 
	C1947.113770,853.831787 1950.128540,852.891052 1952.197754,851.516724 
	C1957.969238,847.683105 1964.584106,844.239624 1968.653931,838.942444 
	C1973.929443,832.075745 1981.163696,828.244629 1987.526123,823.122864 
	C2003.729858,810.078979 2022.154297,804.110107 2043.052612,806.682007 
	C2044.111572,809.136230 2045.053955,811.252441 2045.942139,813.391235 
	C2048.433838,819.392090 2051.606201,824.312866 2058.547607,826.452209 
	C2067.913086,829.338440 2076.971924,833.218750 2084.234619,835.948120 
	C2090.529785,830.534668 2095.138428,826.061951 2100.255615,822.276672 
	C2110.945557,814.369324 2122.869385,808.262634 2131.804688,797.814941 
	C2135.078369,793.987000 2141.363281,792.737305 2146.267822,790.298462 
	C2147.965576,789.454224 2150.120117,788.971741 2151.246338,787.634033 
	C2155.683838,782.363159 2159.706787,777.209167 2166.521484,774.105530 
	C2172.866211,771.215942 2178.153809,765.911682 2183.687256,761.400696 
	C2185.076660,760.267944 2185.623535,758.101318 2186.557861,756.409790 
	C2191.283936,755.727478 2196.055908,759.937317 2201.790527,757.107666 
	C2204.835449,764.013733 2209.450439,762.916992 2214.000000,762.000000 
	C2214.000000,764.133362 2214.000000,766.266663 2214.000000,769.200012 
z"/>


<path
	data-name="Ngaoui" 
 fill="#8F875D" opacity="1.000000" stroke="none" 
	d="
M1758.100098,1333.613770 
	C1759.583618,1327.585205 1761.473877,1321.893555 1763.975098,1316.484375 
	C1771.376221,1300.478638 1778.704712,1284.423950 1786.730225,1268.730347 
	C1789.685303,1262.951538 1793.894287,1257.487061 1798.592529,1252.987305 
	C1813.476562,1238.731567 1828.810913,1224.943115 1844.075317,1211.088745 
	C1851.210693,1204.612427 1858.993042,1198.801880 1865.740112,1191.957886 
	C1872.908081,1184.686768 1882.286987,1186.019165 1890.794556,1184.256836 
	C1900.836426,1182.176758 1911.158325,1181.481079 1921.260376,1179.644043 
	C1925.433716,1178.885254 1929.463013,1176.960327 1933.364868,1175.150146 
	C1946.643921,1168.989380 1959.706543,1162.342896 1973.127075,1156.515869 
	C1978.482422,1154.190674 1984.483154,1152.822998 1990.314453,1152.217651 
	C2012.073975,1149.959473 2033.884033,1148.188477 2055.678223,1146.270264 
	C2057.328857,1146.125000 2059.003906,1146.259644 2061.550781,1146.388184 
	C2056.260010,1161.029907 2050.348877,1175.668091 2043.775757,1190.002563 
	C2041.348511,1195.295776 2037.223145,1199.788818 2034.147583,1204.815186 
	C2032.652222,1207.259033 2031.489868,1210.008911 2030.737549,1212.772827 
	C2030.141846,1214.961060 2030.294922,1217.382202 2030.298218,1219.699707 
	C2030.315186,1231.838989 2025.842651,1242.860352 2021.099121,1253.608398 
	C2017.445557,1261.887329 2004.783691,1266.907227 1995.962158,1264.862427 
	C1992.088745,1263.964722 1988.115479,1263.352417 1984.372681,1262.069946 
	C1978.358521,1260.009399 1973.296875,1260.693481 1967.402344,1263.713623 
	C1960.200073,1267.404419 1951.518433,1267.778320 1944.731079,1273.174683 
	C1943.106079,1274.466675 1939.594971,1273.507812 1936.963745,1273.361328 
	C1935.669067,1273.289185 1934.420654,1272.609497 1933.120728,1272.373169 
	C1920.895630,1270.150513 1917.122803,1272.459839 1915.899170,1284.871704 
	C1915.009888,1293.893311 1911.031250,1298.885742 1901.385498,1300.031250 
	C1891.689453,1297.867676 1882.907104,1295.814941 1875.368042,1289.435913 
	C1870.904907,1285.659668 1865.128662,1288.612671 1860.810913,1292.127319 
	C1848.759888,1301.937012 1837.027832,1312.153809 1824.711792,1321.613525 
	C1820.965698,1324.490845 1815.838623,1325.793213 1811.155762,1327.181641 
	C1801.330322,1330.094604 1791.135498,1331.922485 1781.555420,1335.452515 
	C1773.403076,1338.456909 1766.144409,1338.474609 1758.100098,1333.613770 
z"/>
</svg>