<svg version="1.1" id="Layer_1" xmlns="http://www.w3.org/2000/svg" xmlns:xlink="http://www.w3.org/1999/xlink" x="0px" y="0px"
	 width="100%" viewBox="0 0 2141 3087" enable-background="new 0 0 2141 3087" xml:space="preserve">
<path data-name="Bangou" fill="#704D94" opacity="1.000000" stroke="none" 
	d="
M2144.000000,2482.000000 
	C2144.000000,2488.061279 2144.000000,2494.122314 2143.619629,2501.370361 
	C2143.088135,2502.833740 2142.837891,2503.101562 2142.813232,2503.388916 
	C2142.789062,2503.674805 2142.915039,2504.135986 2143.115479,2504.234375 
	C2143.322266,2504.335693 2143.698242,2504.092285 2144.000000,2504.000000 
	C2144.000000,2504.888916 2144.000000,2505.777832 2143.311035,2507.006836 
	C2140.841309,2510.092285 2138.985840,2512.792236 2137.295654,2515.592285 
	C2133.686523,2521.571777 2130.822998,2528.132568 2126.494629,2533.524658 
	C2103.555420,2562.101562 2072.349365,2574.475830 2036.869995,2577.230225 
	C2029.618530,2577.793457 2023.054688,2579.194580 2017.000488,2582.684326 
	C2010.097046,2586.663330 2002.994141,2590.636719 1997.017578,2595.812988 
	C1984.050049,2607.043945 1968.629883,2610.501465 1952.487305,2609.794434 
	C1937.158813,2609.123047 1922.812500,2611.912109 1908.482178,2616.568604 
	C1884.783691,2624.268799 1860.962036,2631.592041 1837.298462,2639.395752 
	C1833.742310,2640.568359 1830.270386,2642.991211 1827.589600,2645.667480 
	C1803.547607,2669.666992 1779.049316,2693.127930 1751.532593,2713.211426 
	C1747.777344,2715.952393 1743.923340,2718.648193 1740.583862,2721.853271 
	C1727.843262,2734.081299 1714.795654,2745.921875 1699.885986,2755.497559 
	C1686.852783,2763.868408 1675.383179,2773.820801 1667.142700,2787.114502 
	C1664.799316,2790.895020 1661.595947,2791.918213 1657.179199,2792.225342 
	C1643.568481,2793.171631 1630.786499,2790.081055 1618.060913,2785.888428 
	C1613.052979,2784.238770 1607.614868,2781.818848 1602.686279,2782.401367 
	C1589.201660,2783.995117 1575.710571,2786.309082 1562.541748,2789.612305 
	C1544.818481,2794.057617 1527.429810,2799.821777 1509.827637,2804.771240 
	C1500.247925,2807.464844 1490.638062,2810.854248 1480.838623,2811.781006 
	C1464.984009,2813.280029 1448.964844,2813.224609 1433.010132,2813.425049 
	C1416.630615,2813.631104 1400.605835,2815.887451 1384.704102,2819.751465 
	C1380.536499,2820.764160 1378.891479,2822.732422 1377.185791,2826.424561 
	C1372.473999,2836.624023 1368.200073,2847.363281 1361.560303,2856.251221 
	C1352.834595,2867.931396 1346.776489,2880.653809 1341.771851,2894.031494 
	C1340.473999,2897.500488 1340.038452,2901.952393 1340.982422,2905.477295 
	C1343.986206,2916.693115 1347.550049,2927.781982 1351.412598,2938.738281 
	C1356.533081,2953.263672 1359.959106,2967.971680 1360.358032,2983.492920 
	C1360.915649,3005.196533 1357.808228,3026.056152 1346.962158,3045.051025 
	C1340.207642,3056.880127 1332.185303,3067.982422 1324.811890,3079.462158 
	C1322.867554,3082.489502 1320.457397,3084.101074 1316.712402,3084.304932 
	C1310.422974,3084.646729 1304.153076,3085.419189 1297.890747,3086.146729 
	C1295.743774,3086.395996 1292.763306,3086.172852 1294.000000,3090.000000 
	C1266.624878,3090.000000 1239.249756,3090.000000 1211.213135,3089.270996 
	C1207.125122,3076.756104 1201.151611,3066.533691 1191.562256,3058.735840 
	C1183.312256,3052.027100 1175.223511,3044.987549 1166.310791,3039.267090 
	C1158.568604,3034.297607 1150.103516,3029.962646 1141.382690,3027.098145 
	C1110.757812,3017.039795 1080.009399,3007.308838 1049.062622,2998.296143 
	C1028.065430,2992.180908 1008.169128,2984.152588 990.906555,2970.587891 
	C980.200317,2962.175537 969.748047,2953.425293 964.340576,2940.188477 
	C954.571960,2916.276855 944.545471,2892.470703 934.495300,2868.304443 
	C943.143738,2855.086426 948.492615,2841.016846 946.396179,2824.968262 
	C946.233459,2823.722656 946.931335,2822.383301 947.111755,2821.071289 
	C950.138367,2799.054932 953.675659,2777.092041 956.008545,2755.001953 
	C958.314453,2733.166992 965.589417,2714.401123 984.176025,2701.398193 
	C991.951355,2695.958984 998.051025,2689.073975 1003.217590,2681.183594 
	C1006.494202,2676.179688 1010.359924,2671.564209 1013.706543,2666.602051 
	C1023.175903,2652.561035 1032.491699,2638.416504 1041.915527,2624.344482 
	C1045.589478,2618.858398 1045.074829,2613.476807 1042.833618,2607.468750 
	C1035.977051,2589.088379 1029.753784,2570.472900 1022.946167,2552.073730 
	C1018.256714,2539.399902 1018.559448,2527.705078 1026.857422,2516.406982 
	C1031.767700,2509.721436 1035.467896,2502.156738 1040.222290,2495.343506 
	C1044.216675,2489.619629 1046.047974,2483.640869 1045.800415,2476.678955 
	C1045.139038,2458.082764 1044.411255,2439.475830 1044.422119,2420.873535 
	C1044.428101,2410.723145 1042.640625,2401.500244 1038.779053,2391.959717 
	C1034.283569,2380.853516 1028.655518,2372.930420 1015.939209,2372.218750 
	C1011.202271,2371.953369 1009.036926,2369.331055 1008.030151,2364.805176 
	C1007.023010,2360.277588 1005.886414,2355.551758 1003.641296,2351.569580 
	C997.205933,2340.153809 991.915588,2333.365234 978.058044,2333.193359 
	C957.058716,2332.933350 936.969177,2335.187744 918.175842,2345.162598 
	C915.861267,2346.391357 913.209290,2347.133789 910.624512,2347.679443 
	C895.017944,2350.974121 879.504700,2355.076904 863.728149,2357.097168 
	C847.968384,2359.115234 832.072510,2359.712646 816.536804,2353.367188 
	C803.037781,2347.854004 788.858276,2344.016602 775.025757,2339.302734 
	C771.947327,2338.253906 768.677490,2337.134033 766.162048,2335.186768 
	C759.340393,2329.905762 752.498901,2324.543457 746.387085,2318.485596 
	C741.259094,2313.403076 735.716675,2309.846924 728.805603,2307.734863 
	C719.293701,2304.828125 709.359924,2302.341553 700.771484,2297.575928 
	C683.640259,2288.070068 667.100342,2277.467041 653.925415,2262.428223 
	C649.796326,2257.715088 644.823486,2253.646484 639.843994,2249.790283 
	C623.293945,2236.973633 608.716553,2221.661377 590.591309,2210.834961 
	C589.478333,2210.170410 588.508423,2209.154785 587.687683,2208.129883 
	C576.495239,2194.151611 565.340576,2180.143555 555.061646,2166.110840 
	C563.899414,2165.532715 571.887329,2164.250244 579.796143,2164.627197 
	C589.729004,2165.100586 599.629150,2166.724121 609.485107,2168.231934 
	C621.872803,2170.127197 633.373413,2173.560791 640.854004,2185.133545 
	C644.063232,2190.097900 648.625183,2194.278564 652.970703,2198.394775 
	C658.199890,2203.348145 664.144409,2206.433350 671.913330,2204.628906 
	C678.049683,2203.203369 684.414062,2202.793213 690.620972,2201.631348 
	C705.691711,2198.810791 720.777832,2195.849365 734.147644,2187.785400 
	C748.118713,2179.358643 761.897949,2170.614014 775.810242,2162.088867 
	C778.336731,2160.540527 780.993652,2159.080322 783.772217,2158.090088 
	C795.368774,2153.957031 807.168823,2150.360596 818.619019,2145.865967 
	C824.386169,2143.602051 829.572632,2139.852295 835.007446,2136.749756 
	C840.160278,2133.808105 845.081970,2130.347900 850.486084,2127.986572 
	C858.711426,2124.392578 867.088074,2120.904053 875.720459,2118.538574 
	C889.058716,2114.883789 899.785828,2107.504883 909.293396,2097.876709 
	C911.400391,2095.743164 913.770142,2093.856201 915.770142,2091.632080 
	C931.311462,2074.348877 948.141846,2058.223145 957.344421,2035.957397 
	C965.093079,2017.209595 968.167419,1998.815308 963.451355,1978.641113 
	C957.772095,1954.346924 954.375549,1929.638184 955.647400,1904.439819 
	C956.888977,1879.839111 957.232727,1855.193848 958.077393,1830.571899 
	C958.702820,1812.339722 954.990356,1795.578613 942.570251,1781.443848 
	C939.282532,1777.702148 936.302185,1773.628662 933.627869,1769.422974 
	C928.290283,1761.029297 921.873779,1754.339966 911.529907,1752.424805 
	C908.975891,1751.952026 906.712524,1750.029053 904.160889,1749.401855 
	C895.951660,1747.384155 893.435730,1741.030884 892.276672,1733.890015 
	C891.212402,1727.334473 891.002136,1720.643188 890.020508,1714.070801 
	C886.632751,1691.386963 883.977661,1668.537598 879.248169,1646.130249 
	C876.275085,1632.044556 873.194641,1618.176270 873.941956,1603.777344 
	C874.230835,1598.211670 875.583374,1592.684814 876.664917,1587.182129 
	C877.453796,1583.168213 880.056396,1580.872070 884.177002,1580.302246 
	C900.313293,1578.069824 916.395630,1575.311646 932.592163,1573.686890 
	C950.259949,1571.914307 967.160645,1568.799072 983.402527,1560.668823 
	C1010.461548,1547.124023 1037.677002,1533.658691 1066.938232,1525.193848 
	C1072.371338,1523.622070 1076.098877,1520.356079 1079.078003,1515.587402 
	C1081.868774,1511.120361 1084.791992,1506.357544 1088.776611,1503.090820 
	C1098.034790,1495.501099 1107.968262,1488.734985 1118.157715,1482.088379 
	C1131.930176,1499.651611 1145.394653,1516.596924 1158.285522,1533.967773 
	C1162.367798,1539.468750 1165.625977,1545.841431 1168.035400,1552.274292 
	C1174.683105,1570.021851 1181.054077,1587.893921 1186.795898,1605.951660 
	C1190.101196,1616.347656 1195.062744,1625.220825 1202.744629,1633.028931 
	C1223.496338,1654.121338 1242.771118,1676.631470 1266.831665,1694.378906 
	C1298.785889,1717.949097 1327.814453,1744.891724 1354.921265,1773.906616 
	C1359.921021,1779.258301 1365.133545,1784.418335 1370.394409,1789.515259 
	C1372.767212,1791.814209 1375.315308,1794.034790 1378.099487,1795.790039 
	C1399.776855,1809.456299 1421.818604,1822.569092 1443.137573,1836.768921 
	C1453.371216,1843.585205 1463.863647,1846.270142 1475.917358,1846.146606 
	C1495.641357,1845.944458 1514.591431,1849.006470 1532.831421,1857.904419 
	C1552.817139,1867.654297 1573.452637,1876.398193 1594.476440,1883.628296 
	C1642.884277,1900.276245 1691.691162,1915.764404 1740.363770,1931.638794 
	C1744.120117,1932.863892 1748.092163,1933.427490 1752.647339,1934.720703 
	C1761.259033,1935.924194 1769.223633,1936.458130 1777.097534,1937.610840 
	C1780.166504,1938.060059 1783.589844,1939.249756 1785.895752,1941.220703 
	C1798.035767,1951.596191 1809.823120,1962.383057 1821.853760,1972.888794 
	C1824.029053,1974.788330 1826.578979,1976.724854 1829.280029,1977.470825 
	C1838.246704,1979.947632 1847.397827,1981.746338 1856.410278,1984.069336 
	C1869.892578,1987.544189 1883.547485,1990.078735 1896.346558,1996.276489 
	C1935.285278,2015.132568 1974.487549,2033.447998 2013.679932,2051.775391 
	C2033.243652,2060.923584 2053.688477,2068.665039 2065.539551,2088.634033 
	C2066.717529,2090.618896 2068.222656,2092.479980 2069.865723,2094.105713 
	C2075.502686,2099.683350 2078.512939,2106.502930 2080.425293,2114.102051 
	C2084.089355,2128.663086 2089.374512,2142.637451 2096.805908,2155.739014 
	C2101.101562,2163.312500 2104.243652,2171.253418 2105.755127,2179.910400 
	C2106.487549,2184.105469 2107.704834,2188.500000 2109.869629,2192.103027 
	C2114.534180,2199.865723 2116.128662,2208.109131 2115.730469,2216.932373 
	C2114.765137,2238.312500 2117.069336,2259.541504 2120.748047,2280.449463 
	C2125.218750,2305.860107 2124.094971,2330.654297 2117.605957,2355.425537 
	C2116.176758,2360.880371 2114.518311,2366.338135 2113.792480,2371.902344 
	C2112.034668,2385.379395 2111.776611,2399.130371 2109.026123,2412.379150 
	C2105.970947,2427.094482 2110.674805,2438.527100 2120.366699,2448.572021 
	C2129.012939,2457.533203 2136.648438,2466.936523 2140.171143,2479.180176 
	C2140.518555,2480.387207 2142.680420,2481.072510 2144.000000,2482.000000 
z"/>
<path data-name="Bamendjou" fill="#5CF264" opacity="1.000000" stroke="none" 
	d="
M1285.125000,2.000000 
	C1292.976074,15.046436 1289.778076,28.488558 1285.220581,40.777245 
	C1280.019775,54.799873 1277.824219,68.658989 1277.403076,83.516304 
	C1276.677246,109.120270 1281.928223,133.559982 1288.728394,157.846573 
	C1289.642212,161.110489 1292.207886,164.221939 1294.724609,166.667007 
	C1301.395996,173.148575 1307.736572,180.406555 1315.537842,185.186295 
	C1327.036621,192.231506 1339.201904,198.896622 1351.956787,203.024506 
	C1373.077759,209.859955 1395.125977,213.799728 1416.341187,220.384399 
	C1431.972778,225.236084 1447.421509,227.484207 1463.466064,224.647812 
	C1471.578491,223.213638 1479.362305,224.130600 1487.081543,226.413635 
	C1489.253296,227.055939 1491.556152,228.016464 1493.223877,229.484299 
	C1511.257202,245.357040 1524.070435,264.623627 1527.095947,288.722778 
	C1528.435547,299.392456 1527.099976,310.644928 1525.408569,321.385590 
	C1523.300659,334.770569 1519.501587,347.884735 1516.566040,361.145386 
	C1514.498535,370.484619 1515.462646,379.727051 1518.532349,388.675842 
	C1519.215210,390.666321 1521.248901,392.402466 1523.033325,393.769135 
	C1530.163086,399.229645 1537.223145,404.826965 1544.710815,409.764191 
	C1557.225952,418.016388 1565.110962,429.415100 1569.770996,444.168823 
	C1563.091675,450.893982 1556.389526,457.788910 1549.529541,464.522888 
	C1523.632080,489.944641 1495.456787,512.777771 1468.103271,536.554199 
	C1460.246338,543.383850 1454.109741,552.540894 1448.390503,561.408691 
	C1436.690796,579.548889 1425.708252,598.156799 1414.702271,616.733154 
	C1413.113525,619.414673 1412.828125,622.954651 1412.297607,626.156616 
	C1411.487671,631.045227 1410.434448,635.994751 1410.515381,640.901428 
	C1410.596436,645.821899 1408.680664,649.326660 1405.044678,651.935303 
	C1397.475342,657.365906 1396.312134,664.663208 1396.004150,673.571594 
	C1395.459595,689.318909 1397.963867,704.297791 1405.237915,717.905518 
	C1413.077637,732.571167 1406.342773,743.440063 1397.914429,753.892578 
	C1392.740723,760.308472 1386.098389,765.579773 1379.873901,771.092041 
	C1376.746216,773.861877 1375.896729,777.038025 1376.416382,780.893250 
	C1377.477417,788.764832 1379.182617,796.619751 1379.383911,804.513123 
	C1379.525269,810.059814 1381.705322,813.740845 1385.122681,817.628418 
	C1393.234741,826.856445 1400.408813,836.967224 1409.002686,845.696655 
	C1416.881592,853.700012 1425.952026,860.578796 1434.803589,867.565125 
	C1449.680054,879.306702 1464.966187,890.533325 1479.728394,902.413574 
	C1485.080811,906.721008 1489.642456,912.091553 1494.190186,917.304077 
	C1511.044678,936.622192 1521.761108,959.384460 1531.124146,982.982422 
	C1537.624634,999.366089 1544.776733,1015.499451 1551.980347,1031.591187 
	C1554.313232,1036.802612 1554.492798,1041.467896 1552.807129,1046.928467 
	C1548.792358,1059.933472 1545.435059,1073.141479 1540.977051,1087.028320 
	C1530.565674,1085.181030 1521.106445,1081.006714 1511.389771,1080.281616 
	C1489.199585,1078.625732 1466.886108,1078.415894 1444.616577,1078.163818 
	C1438.547974,1078.095093 1435.041626,1075.982422 1431.730103,1071.069946 
	C1425.107544,1061.245483 1419.476318,1050.347046 1408.082397,1044.743896 
	C1398.515137,1030.696899 1387.383179,1034.291748 1375.864136,1041.851440 
	C1374.480103,1042.759766 1372.767090,1043.214111 1371.493530,1044.236328 
	C1361.849731,1051.977295 1350.507202,1053.593384 1338.666016,1053.634766 
	C1322.357788,1053.691772 1306.037720,1053.497437 1289.747314,1054.090088 
	C1282.222046,1054.363892 1274.598389,1055.638062 1267.294556,1057.524292 
	C1251.871216,1061.507446 1236.638306,1066.225220 1221.301880,1070.551270 
	C1219.112793,1071.168701 1216.690552,1071.868408 1214.531494,1071.532349 
	C1202.738037,1069.696899 1191.018433,1067.383545 1179.218872,1065.594238 
	C1174.743286,1064.915649 1170.103394,1064.858154 1165.570679,1065.105347 
	C1152.009033,1065.844727 1138.271851,1068.682739 1124.966064,1067.274658 
	C1112.070068,1065.909790 1099.889038,1067.779663 1087.433716,1069.151367 
	C1072.263306,1070.821899 1057.126099,1072.832275 1041.932251,1074.241455 
	C1027.725586,1075.558960 1015.406616,1082.443359 1002.276123,1086.924194 
	C1000.835999,1087.415649 999.686401,1088.983643 998.588440,1090.218262 
	C985.559143,1104.869629 972.565247,1119.552490 958.693848,1134.181274 
	C942.546265,1133.480225 927.266602,1132.361328 911.987610,1132.369019 
	C904.528259,1132.372803 898.172485,1130.931274 892.963989,1125.726929 
	C882.647400,1115.418213 869.272156,1111.224731 855.952515,1106.974487 
	C847.586121,1104.304810 834.529114,1111.790405 832.504761,1120.269409 
	C830.189697,1129.966309 828.236633,1139.749878 825.892029,1149.439209 
	C825.123474,1152.615112 824.073669,1155.889282 822.386108,1158.650024 
	C807.956848,1182.256226 789.021057,1202.125977 766.957458,1218.253052 
	C742.583008,1236.069336 719.866577,1255.298706 701.560242,1279.274414 
	C692.088562,1291.679443 684.037354,1305.166016 675.257690,1318.105103 
	C673.404053,1320.836914 671.606079,1323.891968 669.042725,1325.809204 
	C655.183838,1336.174927 641.784851,1347.409912 626.927246,1356.129883 
	C601.117432,1371.277710 574.867126,1385.853638 546.353821,1395.642944 
	C544.856323,1396.157104 543.485107,1397.039429 541.704163,1397.924805 
	C541.704163,1405.496094 541.522400,1412.807861 541.770142,1420.104858 
	C541.926575,1424.713135 540.703430,1428.334839 537.411804,1431.741577 
	C528.390320,1441.078857 519.461914,1450.527588 510.947327,1460.324097 
	C506.322021,1465.645508 500.871185,1468.619263 494.121948,1470.060059 
	C467.625000,1475.717163 442.294312,1484.691162 418.507355,1497.720825 
	C414.564117,1499.880859 410.849884,1502.908569 407.854889,1506.270142 
	C396.351715,1519.182007 384.890533,1532.153442 373.966278,1545.553101 
	C360.471710,1562.105469 342.432526,1571.782593 323.559387,1580.357422 
	C321.560974,1581.265381 319.178284,1581.327393 317.188232,1580.974365 
	C318.215302,1574.610718 318.643585,1568.965576 319.905182,1563.513306 
	C326.462799,1535.173706 323.322754,1506.685791 320.904022,1478.313965 
	C319.526917,1462.160034 315.676270,1446.231567 313.817505,1430.100586 
	C311.256073,1407.871704 306.813782,1386.173218 298.401398,1365.400269 
	C295.795868,1358.966309 293.340515,1352.317017 289.661041,1346.496704 
	C259.913574,1299.440796 236.054077,1249.319336 212.630096,1198.983398 
	C210.054001,1193.447632 208.916290,1186.938232 208.456100,1180.779907 
	C207.137115,1163.128784 212.746414,1146.442505 218.736038,1130.426880 
	C226.867203,1108.685059 237.003448,1087.667236 246.810593,1066.585815 
	C255.363220,1048.201172 264.565338,1030.115601 273.639801,1011.977600 
	C282.049316,995.168579 284.570282,976.442322 291.132263,959.067200 
	C296.523651,944.791809 292.541870,931.843262 285.431061,920.085938 
	C277.714050,907.326294 268.154694,895.768860 256.442474,886.049927 
	C238.084122,870.815674 223.278610,852.585571 213.066101,830.687683 
	C221.291779,827.358765 229.553284,823.863037 237.936966,820.690063 
	C241.812820,819.223267 243.616013,817.065613 243.929962,812.717346 
	C244.512619,804.647583 244.932541,796.782349 240.747620,789.398010 
	C234.882019,779.048340 236.801315,769.602783 242.877487,759.703857 
	C247.150269,752.742981 249.860657,744.671387 252.371765,736.809265 
	C259.871826,713.327148 267.462738,689.985291 283.304626,670.364990 
	C286.618927,666.260315 288.979584,661.371765 291.670349,656.780334 
	C297.203918,647.337952 302.663605,637.852295 307.827911,628.946289 
	C312.105011,628.063416 315.338318,627.292053 318.608704,626.740112 
	C329.020477,624.982605 338.824219,625.163818 347.799652,632.378113 
	C356.067139,639.023376 364.936890,645.000305 373.946045,650.623169 
	C388.031250,659.414001 402.668823,667.329956 416.626923,676.309082 
	C421.604340,679.511047 426.468414,681.531189 432.215942,681.955811 
	C446.452820,683.007690 460.681061,684.178650 474.921082,685.184265 
	C486.210754,685.981445 496.734192,684.438416 505.474426,676.091370 
	C515.325562,666.683350 525.468506,657.574036 535.650330,648.521301 
	C544.090210,641.017395 552.353516,633.207336 561.473267,626.608337 
	C569.164490,621.043030 576.387390,613.853577 586.394226,612.590698 
	C598.693115,611.038574 609.210938,605.403564 619.290894,598.981018 
	C625.793396,594.837952 632.804932,593.000549 640.020996,592.952209 
	C670.674438,592.746765 701.333435,593.321594 731.986206,593.078918 
	C742.231567,592.997803 752.511108,591.675659 762.691467,590.302002 
	C776.240540,588.473694 784.601990,579.684814 792.098999,568.810791 
	C797.927979,560.356323 794.261597,553.024902 792.701111,545.084412 
	C792.127869,542.167542 791.340698,539.029175 791.869751,536.221497 
	C792.644836,532.108398 793.632263,527.533264 796.065002,524.316467 
	C811.035583,504.520996 827.986877,486.824677 851.284180,476.638947 
	C858.298645,473.572144 863.320374,468.585388 867.186584,462.123749 
	C872.312134,453.557251 877.113647,444.731079 882.988342,436.699646 
	C887.611389,430.379395 893.020630,424.269928 899.211304,419.549774 
	C907.542664,413.197327 914.661377,406.455353 919.873474,397.091644 
	C928.101929,382.308685 952.486572,367.942657 973.052124,378.001129 
	C976.030518,379.457855 979.176636,380.713989 982.380066,381.538940 
	C989.108215,383.271454 993.379578,380.047150 993.625183,373.134491 
	C993.730347,370.173553 993.448730,367.165771 993.026428,364.224731 
	C990.861694,349.149933 988.516907,334.100586 986.429138,319.015472 
	C986.025879,316.101898 985.481567,312.535278 986.727722,310.184723 
	C991.618591,300.959564 991.437500,290.938171 992.270142,281.072968 
	C993.060547,271.707336 994.727356,262.812805 1001.243408,255.417435 
	C1007.820679,247.952698 1013.892761,240.036057 1020.596008,232.691437 
	C1025.490967,227.328110 1030.861206,222.351349 1036.372559,217.612823 
	C1040.901001,213.719452 1045.881592,210.334702 1050.782593,206.896851 
	C1057.166626,202.418900 1061.237793,196.221237 1061.703979,188.680130 
	C1062.580566,174.502243 1065.112549,160.418884 1062.706299,146.002747 
	C1061.484131,138.680206 1062.187744,130.688385 1063.703979,123.346725 
	C1065.506836,114.617050 1069.181519,106.281288 1071.931396,97.738220 
	C1076.901245,82.298393 1086.012451,69.391525 1095.900146,56.716152 
	C1112.695801,61.250153 1127.828735,68.029922 1142.359985,76.068039 
	C1158.213257,84.837524 1175.156006,87.868614 1193.045776,88.195877 
	C1203.493774,88.387016 1211.847778,84.681458 1219.098511,77.868362 
	C1229.770752,67.840195 1240.117065,57.465549 1250.756470,47.401642 
	C1263.647217,35.208210 1267.939209,18.878246 1272.647583,2.721554 
	C1272.695190,2.557838 1272.227295,2.243843 1272.000000,2.000005 
	C1276.083374,2.000000 1280.166626,2.000000 1285.125000,2.000000 
z"/>
<path data-name="Baham" fill="#57EDF2" opacity="1.000000" stroke="none" 
	d="
M959.562134,1134.227173 
	C972.565247,1119.552490 985.559143,1104.869629 998.588440,1090.218262 
	C999.686401,1088.983643 1000.835999,1087.415649 1002.276123,1086.924194 
	C1015.406616,1082.443359 1027.725586,1075.558960 1041.932251,1074.241455 
	C1057.126099,1072.832275 1072.263306,1070.821899 1087.433716,1069.151367 
	C1099.889038,1067.779663 1112.070068,1065.909790 1124.966064,1067.274658 
	C1138.271851,1068.682739 1152.009033,1065.844727 1165.570679,1065.105347 
	C1170.103394,1064.858154 1174.743286,1064.915649 1179.218872,1065.594238 
	C1191.018433,1067.383545 1202.738037,1069.696899 1214.531494,1071.532349 
	C1216.690552,1071.868408 1219.112793,1071.168701 1221.301880,1070.551270 
	C1236.638306,1066.225220 1251.871216,1061.507446 1267.294556,1057.524292 
	C1274.598389,1055.638062 1282.222046,1054.363892 1289.747314,1054.090088 
	C1306.037720,1053.497437 1322.357788,1053.691772 1338.666016,1053.634766 
	C1350.507202,1053.593384 1361.849731,1051.977295 1371.493530,1044.236328 
	C1372.767090,1043.214111 1374.480103,1042.759766 1375.864136,1041.851440 
	C1387.383179,1034.291748 1398.515137,1030.696899 1408.082397,1044.743896 
	C1419.476318,1050.347046 1425.107544,1061.245483 1431.730103,1071.069946 
	C1435.041626,1075.982422 1438.547974,1078.095093 1444.616577,1078.163818 
	C1466.886108,1078.415894 1489.199585,1078.625732 1511.389771,1080.281616 
	C1521.106445,1081.006714 1530.565674,1085.181030 1540.871094,1087.808960 
	C1551.022217,1096.347412 1559.635986,1105.542725 1565.898193,1116.721436 
	C1568.270264,1120.955811 1571.879272,1123.107788 1576.482788,1124.994263 
	C1595.589478,1132.823730 1615.284058,1135.897583 1635.859009,1135.201050 
	C1654.163574,1134.581421 1672.517334,1134.283447 1690.812500,1134.915283 
	C1703.234497,1135.344238 1714.962891,1138.202271 1722.071289,1150.706543 
	C1728.901489,1162.721802 1739.796143,1171.478882 1750.377197,1179.855225 
	C1757.755615,1185.696045 1766.933960,1190.428589 1776.043823,1192.681030 
	C1796.880371,1197.833008 1813.168335,1210.022949 1829.028809,1223.241089 
	C1837.262939,1230.103394 1846.386597,1235.284790 1855.804932,1240.316162 
	C1891.306152,1259.280640 1928.820190,1273.718262 1965.527100,1289.971802 
	C1973.708984,1293.594849 1981.598999,1297.871704 1989.714722,1301.651855 
	C1993.894165,1303.598633 1998.174194,1305.449341 2002.581665,1306.765015 
	C2018.421509,1311.493774 2031.863647,1320.905884 2046.055054,1328.815063 
	C2058.212402,1335.590576 2070.050537,1342.938843 2082.069092,1350.057007 
	C2076.712646,1357.423584 2056.184082,1373.614380 2047.157227,1377.737549 
	C2040.204102,1380.913330 2033.448242,1384.726685 2026.214355,1387.030884 
	C2017.075439,1389.941895 2011.060181,1395.878296 2006.022583,1403.529785 
	C2001.451660,1410.472290 1996.978149,1417.554565 1991.686646,1423.932251 
	C1978.988647,1439.236816 1974.367065,1458.057129 1968.291504,1476.206055 
	C1964.187012,1488.467407 1961.062988,1501.058105 1957.549316,1513.515137 
	C1957.012451,1515.418457 1956.394043,1517.396851 1956.398071,1519.339233 
	C1956.434937,1537.270752 1955.179688,1555.292480 1959.080566,1573.003784 
	C1960.184570,1578.016113 1959.614502,1581.953491 1955.603394,1585.498413 
	C1942.603516,1596.988281 1937.177246,1612.681396 1932.562744,1628.635986 
	C1930.604126,1635.407349 1927.309814,1640.498169 1921.216797,1644.223389 
	C1909.675049,1651.279907 1901.707153,1661.427246 1894.618896,1673.046753 
	C1884.358154,1689.867188 1875.298828,1707.110107 1868.875000,1725.673340 
	C1864.251831,1739.033569 1857.782471,1751.146851 1848.099243,1761.511841 
	C1835.802246,1774.674438 1830.307617,1791.747070 1822.034302,1807.219849 
	C1820.786865,1809.552734 1820.023438,1812.150269 1818.722534,1814.447632 
	C1811.855713,1826.573242 1807.752686,1839.310059 1809.672974,1853.458618 
	C1810.441528,1859.122314 1808.443237,1863.583618 1804.661987,1867.886353 
	C1791.303345,1883.088135 1778.058716,1898.400513 1765.180420,1914.008667 
	C1760.360840,1919.849854 1756.664185,1926.617432 1752.209717,1933.630615 
	C1748.092163,1933.427490 1744.120117,1932.863892 1740.363770,1931.638794 
	C1691.691162,1915.764404 1642.884277,1900.276245 1594.476440,1883.628296 
	C1573.452637,1876.398193 1552.817139,1867.654297 1532.831421,1857.904419 
	C1514.591431,1849.006470 1495.641357,1845.944458 1475.917358,1846.146606 
	C1463.863647,1846.270142 1453.371216,1843.585205 1443.137573,1836.768921 
	C1421.818604,1822.569092 1399.776855,1809.456299 1378.099487,1795.790039 
	C1375.315308,1794.034790 1372.767212,1791.814209 1370.394409,1789.515259 
	C1365.133545,1784.418335 1359.921021,1779.258301 1354.921265,1773.906616 
	C1327.814453,1744.891724 1298.785889,1717.949097 1266.831665,1694.378906 
	C1242.771118,1676.631470 1223.496338,1654.121338 1202.744629,1633.028931 
	C1195.062744,1625.220825 1190.101196,1616.347656 1186.795898,1605.951660 
	C1181.054077,1587.893921 1174.683105,1570.021851 1168.035400,1552.274292 
	C1165.625977,1545.841431 1162.367798,1539.468750 1158.285522,1533.967773 
	C1145.394653,1516.596924 1131.930176,1499.651611 1118.085938,1481.350098 
	C1115.457031,1467.376221 1113.148315,1454.630981 1111.461792,1441.803833 
	C1108.127686,1416.444214 1104.943115,1391.061401 1102.088257,1365.644165 
	C1100.675293,1353.064697 1099.800537,1340.513794 1093.010132,1329.278198 
	C1086.485107,1318.481812 1080.548096,1307.321777 1073.805542,1296.667725 
	C1067.513550,1286.725464 1062.736572,1276.336060 1059.992188,1264.846191 
	C1055.586670,1246.401245 1050.376953,1228.192139 1041.514648,1211.242432 
	C1037.904053,1204.337036 1033.806885,1197.593628 1026.570435,1194.426514 
	C1012.939575,1188.460815 1001.631287,1179.398071 990.141663,1170.241333 
	C977.485229,1160.154541 965.994507,1149.435059 959.562134,1134.227173 
z"/>
<path data-name="Batié" fill="#F7D09C" opacity="1.000000" stroke="none" 
	d="
M958.693848,1134.181274 
	C965.994507,1149.435059 977.485229,1160.154541 990.141663,1170.241333 
	C1001.631287,1179.398071 1012.939575,1188.460815 1026.570435,1194.426514 
	C1033.806885,1197.593628 1037.904053,1204.337036 1041.514648,1211.242432 
	C1050.376953,1228.192139 1055.586670,1246.401245 1059.992188,1264.846191 
	C1062.736572,1276.336060 1067.513550,1286.725464 1073.805542,1296.667725 
	C1080.548096,1307.321777 1086.485107,1318.481812 1093.010132,1329.278198 
	C1099.800537,1340.513794 1100.675293,1353.064697 1102.088257,1365.644165 
	C1104.943115,1391.061401 1108.127686,1416.444214 1111.461792,1441.803833 
	C1113.148315,1454.630981 1115.457031,1467.376221 1117.556152,1480.896851 
	C1107.968262,1488.734985 1098.034790,1495.501099 1088.776611,1503.090820 
	C1084.791992,1506.357544 1081.868774,1511.120361 1079.078003,1515.587402 
	C1076.098877,1520.356079 1072.371338,1523.622070 1066.938232,1525.193848 
	C1037.677002,1533.658691 1010.461548,1547.124023 983.402527,1560.668823 
	C967.160645,1568.799072 950.259949,1571.914307 932.592163,1573.686890 
	C916.395630,1575.311646 900.313293,1578.069824 884.177002,1580.302246 
	C880.056396,1580.872070 877.453796,1583.168213 876.664917,1587.182129 
	C875.583374,1592.684814 874.230835,1598.211670 873.941956,1603.777344 
	C873.194641,1618.176270 876.275085,1632.044556 879.248169,1646.130249 
	C883.977661,1668.537598 886.632751,1691.386963 890.020508,1714.070801 
	C891.002136,1720.643188 891.212402,1727.334473 892.276672,1733.890015 
	C893.435730,1741.030884 895.951660,1747.384155 904.160889,1749.401855 
	C906.712524,1750.029053 908.975891,1751.952026 911.529907,1752.424805 
	C921.873779,1754.339966 928.290283,1761.029297 933.627869,1769.422974 
	C936.302185,1773.628662 939.282532,1777.702148 942.570251,1781.443848 
	C954.990356,1795.578613 958.702820,1812.339722 958.077393,1830.571899 
	C957.232727,1855.193848 956.888977,1879.839111 955.647400,1904.439819 
	C954.375549,1929.638184 957.772095,1954.346924 963.451355,1978.641113 
	C968.167419,1998.815308 965.093079,2017.209595 957.344421,2035.957397 
	C948.141846,2058.223145 931.311462,2074.348877 915.770142,2091.632080 
	C913.770142,2093.856201 911.400391,2095.743164 909.293396,2097.876709 
	C899.785828,2107.504883 889.058716,2114.883789 875.720459,2118.538574 
	C867.088074,2120.904053 858.711426,2124.392578 850.486084,2127.986572 
	C845.081970,2130.347900 840.160278,2133.808105 835.007446,2136.749756 
	C829.572632,2139.852295 824.386169,2143.602051 818.619019,2145.865967 
	C807.168823,2150.360596 795.368774,2153.957031 783.772217,2158.090088 
	C780.993652,2159.080322 778.336731,2160.540527 775.810242,2162.088867 
	C761.897949,2170.614014 748.118713,2179.358643 734.147644,2187.785400 
	C720.777832,2195.849365 705.691711,2198.810791 690.620972,2201.631348 
	C684.414062,2202.793213 678.049683,2203.203369 671.913330,2204.628906 
	C664.144409,2206.433350 658.199890,2203.348145 652.970703,2198.394775 
	C648.625183,2194.278564 644.063232,2190.097900 640.854004,2185.133545 
	C633.373413,2173.560791 621.872803,2170.127197 609.485107,2168.231934 
	C599.629150,2166.724121 589.729004,2165.100586 579.796143,2164.627197 
	C571.887329,2164.250244 563.899414,2165.532715 555.061646,2166.110840 
	C550.624084,2158.326416 547.085632,2150.503906 543.514709,2142.695801 
	C540.346436,2135.768066 534.695251,2131.297607 528.530273,2127.189209 
	C507.518982,2113.187256 486.556000,2099.110840 465.698883,2084.880859 
	C462.180206,2082.480225 459.148132,2079.305664 456.119263,2076.261719 
	C451.450378,2071.569580 450.562195,2066.451904 451.061523,2059.379883 
	C452.131500,2044.226318 450.004333,2028.871948 450.553833,2013.649048 
	C451.036133,2000.286377 445.432495,1989.714355 437.497742,1980.331787 
	C431.796600,1973.590698 424.689514,1967.764526 417.375702,1962.745605 
	C411.225159,1958.525146 406.095154,1953.635254 401.568085,1947.896729 
	C397.254517,1942.428711 393.086273,1936.840088 388.622650,1931.497925 
	C378.841461,1919.791382 366.652405,1914.634521 351.527771,1919.051758 
	C342.024719,1921.827148 332.706116,1925.228638 323.272034,1928.246948 
	C316.040833,1930.560425 308.844330,1933.068481 301.477875,1934.851929 
	C291.588623,1937.246338 283.982544,1933.373291 278.676514,1924.910400 
	C261.922516,1898.188965 245.333084,1871.363525 228.465149,1844.714478 
	C216.914566,1826.465942 204.600693,1808.689575 193.412109,1790.227051 
	C186.908615,1779.495361 181.966858,1767.818359 176.288589,1756.583862 
	C175.404434,1754.834473 174.339752,1753.176514 172.886841,1751.039673 
	C172.310272,1749.479980 172.205399,1748.356689 172.334000,1746.422241 
	C181.646942,1732.728027 185.274780,1717.338867 191.961456,1703.354980 
	C192.665833,1701.881714 193.540710,1700.170288 193.395447,1698.659790 
	C191.828720,1682.368042 202.355728,1671.814453 212.467361,1662.285278 
	C228.812180,1646.881958 246.216446,1632.491455 264.047363,1618.812500 
	C277.663391,1608.367188 292.675049,1599.749146 306.966858,1590.170654 
	C310.229736,1587.983887 313.084717,1585.188843 316.550659,1582.227783 
	C319.178284,1581.327393 321.560974,1581.265381 323.559387,1580.357422 
	C342.432526,1571.782593 360.471710,1562.105469 373.966278,1545.553101 
	C384.890533,1532.153442 396.351715,1519.182007 407.854889,1506.270142 
	C410.849884,1502.908569 414.564117,1499.880859 418.507355,1497.720825 
	C442.294312,1484.691162 467.625000,1475.717163 494.121948,1470.060059 
	C500.871185,1468.619263 506.322021,1465.645508 510.947327,1460.324097 
	C519.461914,1450.527588 528.390320,1441.078857 537.411804,1431.741577 
	C540.703430,1428.334839 541.926575,1424.713135 541.770142,1420.104858 
	C541.522400,1412.807861 541.704163,1405.496094 541.704163,1397.924805 
	C543.485107,1397.039429 544.856323,1396.157104 546.353821,1395.642944 
	C574.867126,1385.853638 601.117432,1371.277710 626.927246,1356.129883 
	C641.784851,1347.409912 655.183838,1336.174927 669.042725,1325.809204 
	C671.606079,1323.891968 673.404053,1320.836914 675.257690,1318.105103 
	C684.037354,1305.166016 692.088562,1291.679443 701.560242,1279.274414 
	C719.866577,1255.298706 742.583008,1236.069336 766.957458,1218.253052 
	C789.021057,1202.125977 807.956848,1182.256226 822.386108,1158.650024 
	C824.073669,1155.889282 825.123474,1152.615112 825.892029,1149.439209 
	C828.236633,1139.749878 830.189697,1129.966309 832.504761,1120.269409 
	C834.529114,1111.790405 847.586121,1104.304810 855.952515,1106.974487 
	C869.272156,1111.224731 882.647400,1115.418213 892.963989,1125.726929 
	C898.172485,1130.931274 904.528259,1132.372803 911.987610,1132.369019 
	C927.266602,1132.361328 942.546265,1133.480225 958.693848,1134.181274 
z"/>
</svg>