<svg version="1.1" id="Layer_1" xmlns="http://www.w3.org/2000/svg" xmlns:xlink="http://www.w3.org/1999/xlink" x="0px" y="0px"
	 width="100%" viewBox="0 0 2143 2916" enable-background="new 0 0 2143 2916" xml:space="preserve">


<path 
	data-name="Mbven"
fill="#5AFA72" opacity="1.000000" stroke="none" 
	d="
M1650.908203,2918.000000 
	C1651.643433,2914.380127 1648.101318,2913.680908 1646.435791,2912.493896 
	C1638.482422,2906.825928 1634.848267,2899.766113 1635.481567,2889.611816 
	C1636.433838,2874.343750 1636.110474,2858.995850 1636.310669,2843.681885 
	C1636.353760,2840.390381 1636.316895,2837.097900 1636.316895,2834.196777 
	C1629.159668,2828.286621 1622.407837,2826.936279 1614.760254,2831.605225 
	C1609.398438,2834.878662 1603.577271,2837.400146 1598.218384,2840.677734 
	C1593.179810,2843.759521 1588.584717,2844.280029 1583.376709,2840.993408 
	C1578.608154,2837.983643 1573.259888,2835.894287 1568.482910,2832.896240 
	C1563.874512,2830.003662 1559.529907,2830.106934 1555.667603,2833.447754 
	C1545.600220,2842.155518 1537.400146,2839.359863 1528.258057,2831.198486 
	C1520.789429,2824.531738 1513.890259,2818.258301 1508.853149,2809.132080 
	C1503.377563,2799.211914 1497.499146,2788.435059 1486.133057,2783.432861 
	C1473.744263,2777.980225 1461.205811,2772.830566 1448.527222,2768.099121 
	C1445.286743,2766.889893 1441.270508,2767.695068 1437.610474,2767.685791 
	C1425.281738,2767.654541 1412.952881,2767.693604 1400.624146,2767.667236 
	C1390.883667,2767.646484 1390.184570,2767.357422 1387.241699,2758.000732 
	C1383.854370,2747.230713 1380.938599,2736.312256 1377.793335,2725.465576 
	C1377.072144,2722.978760 1376.250610,2720.521240 1375.441162,2717.941162 
	C1364.871704,2725.421631 1354.642822,2732.660889 1344.928467,2739.536133 
	C1343.411133,2739.262939 1342.581665,2739.366699 1342.166748,2739.000977 
	C1335.520142,2733.134766 1329.768066,2725.454102 1322.092529,2721.772461 
	C1313.794556,2717.791992 1307.693115,2711.959473 1302.387817,2705.481445 
	C1290.426270,2690.875977 1276.801636,2677.584717 1267.162598,2661.062256 
	C1262.825317,2653.627686 1257.070557,2647.144775 1249.335815,2642.648682 
	C1242.150269,2638.471436 1235.106201,2634.009766 1228.269165,2629.283691 
	C1217.823486,2622.063232 1207.986206,2622.892090 1198.106323,2630.377197 
	C1193.072876,2634.190918 1187.938354,2637.993896 1182.413696,2641.000977 
	C1177.265747,2643.803467 1171.682129,2646.069092 1166.027344,2647.599365 
	C1160.927246,2648.979248 1155.792114,2649.087402 1152.005493,2653.944092 
	C1148.848389,2657.993652 1145.009521,2655.375977 1142.990601,2652.237549 
	C1138.877808,2645.843750 1135.219238,2639.128662 1131.787476,2632.336914 
	C1129.852661,2628.507324 1128.459473,2624.338867 1127.314941,2620.187500 
	C1124.177856,2608.809326 1116.094116,2605.245605 1105.147095,2604.148926 
	C1089.020020,2602.533447 1075.310547,2607.233643 1062.169434,2616.237061 
	C1040.767578,2630.900879 1019.049255,2645.124268 997.125610,2658.998291 
	C977.461426,2671.442383 957.437683,2683.329102 937.392334,2695.156250 
	C920.285400,2705.249268 912.484009,2720.498535 912.479553,2739.769043 
	C912.477234,2749.667236 909.847290,2757.720215 902.965698,2765.026123 
	C895.694458,2772.746094 889.414734,2781.399658 882.707336,2789.650146 
	C879.683167,2793.369873 876.112244,2795.003906 871.059814,2795.988770 
	C849.362061,2800.218018 833.537598,2812.684814 826.173706,2833.768311 
	C821.493225,2847.169189 818.494934,2861.195557 815.359375,2875.080811 
	C813.861084,2881.716064 810.256958,2885.769043 804.150818,2887.629395 
	C795.322021,2890.319092 786.311951,2892.413818 777.484253,2895.106934 
	C772.867188,2896.514893 768.474426,2898.657959 762.589355,2901.030029 
	C753.021423,2895.502930 742.350830,2888.760010 731.163452,2883.025391 
	C717.752625,2876.151367 705.774780,2867.552734 694.588379,2857.502930 
	C691.138916,2854.404053 685.876770,2853.024658 681.213867,2851.628174 
	C663.548340,2846.337891 645.813416,2848.720215 628.028564,2851.396484 
	C607.394043,2854.501221 587.068787,2856.711914 565.794128,2852.965332 
	C546.067017,2849.491455 526.187866,2845.261475 505.633728,2845.945801 
	C490.175934,2846.460205 474.625183,2842.897461 459.083160,2842.529053 
	C443.618469,2842.162598 428.875946,2846.209229 415.454712,2854.366943 
	C405.531860,2860.398193 400.339722,2859.574707 391.346924,2851.964355 
	C381.469482,2843.604980 371.192719,2835.719238 361.165619,2827.534424 
	C347.581360,2816.445801 335.954071,2803.908203 331.245331,2786.344482 
	C330.905273,2785.075928 330.332336,2783.799805 329.586670,2782.721191 
	C320.342865,2769.345947 321.496765,2754.501465 323.215637,2739.495117 
	C323.895264,2733.561768 324.383392,2727.547607 324.222137,2721.589844 
	C323.929688,2710.785400 325.516968,2700.400391 329.779144,2690.484863 
	C332.957245,2683.091553 332.777832,2676.780029 326.362061,2670.753174 
	C319.589661,2664.390869 316.547577,2655.916504 315.836243,2646.643311 
	C315.684753,2644.668457 315.751648,2642.483154 314.921448,2640.783936 
	C306.917206,2624.401367 299.227875,2607.833252 290.405609,2591.895508 
	C286.192474,2584.284668 286.026123,2576.923584 286.757446,2568.905029 
	C287.078278,2565.387207 287.050232,2561.644287 286.199860,2558.249268 
	C283.536285,2547.614746 282.777466,2537.665039 289.542023,2527.784668 
	C292.335999,2523.704102 292.819519,2517.800049 293.538452,2512.612305 
	C294.172791,2508.034912 293.824890,2503.294678 293.636108,2498.637207 
	C293.386963,2492.490479 294.271973,2486.957275 298.447540,2481.913330 
	C305.473663,2473.425781 303.796082,2463.205811 303.302582,2453.240479 
	C302.977234,2446.670410 303.208344,2440.072510 304.363403,2432.805908 
	C317.830627,2424.234375 330.306213,2416.608398 342.346008,2408.347412 
	C348.817322,2403.906982 355.580383,2401.168945 363.290131,2399.962402 
	C379.892303,2397.363770 394.285645,2390.429932 405.653320,2377.638672 
	C408.928711,2373.953369 412.718689,2370.576172 416.752197,2367.739502 
	C431.888092,2357.095215 448.353760,2350.974854 467.276245,2354.036621 
	C468.895203,2354.298340 470.662628,2354.307861 472.252869,2353.951660 
	C476.398041,2353.022705 480.779480,2352.440674 484.540802,2350.628662 
	C501.307373,2342.551514 517.822754,2333.953125 534.586975,2325.870850 
	C538.663513,2323.905518 543.523560,2323.606445 547.695984,2321.789307 
	C553.986755,2319.050049 560.844788,2316.651611 565.930664,2312.313721 
	C575.479858,2304.167969 583.893677,2294.697510 592.880371,2285.880371 
	C594.515747,2284.275879 596.533936,2282.989746 598.540527,2281.846436 
	C614.432373,2272.792969 630.454163,2263.964600 646.258057,2254.761230 
	C661.466553,2245.904541 677.591248,2237.996338 688.852112,2223.938965 
	C705.257019,2203.460205 721.460266,2182.779785 736.774719,2161.484375 
	C744.478149,2150.772705 748.893188,2138.739258 748.690186,2124.422119 
	C748.527161,2112.924072 753.418945,2101.354492 757.000366,2089.837158 
	C771.243225,2089.908203 784.566711,2089.599121 797.860352,2090.093750 
	C817.892456,2090.838867 837.554749,2088.325195 857.167542,2084.739502 
	C860.055664,2084.211426 863.112732,2084.321533 866.069275,2084.502441 
	C881.048401,2085.417725 895.293701,2089.900146 909.736389,2093.501709 
	C931.011047,2098.806641 952.454895,2103.133545 974.589478,2102.125244 
	C975.914246,2102.064697 977.362244,2101.878418 978.559326,2102.300293 
	C986.935547,2105.251465 994.907532,2103.130859 1002.928711,2100.728271 
	C1006.735474,2099.588135 1010.688354,2098.944824 1014.523621,2097.889160 
	C1035.293579,2092.173584 1056.460205,2087.666504 1076.662842,2077.846191 
	C1084.668335,2075.427246 1091.822754,2072.660156 1099.204468,2070.791260 
	C1129.722656,2063.063965 1159.766602,2064.928467 1189.270264,2075.898682 
	C1193.280273,2077.389893 1197.303467,2079.364990 1201.465332,2079.834717 
	C1216.988281,2081.588135 1232.589966,2082.631104 1248.126221,2084.280029 
	C1261.996948,2085.752441 1275.879517,2087.297119 1289.651611,2089.475342 
	C1315.901245,2093.626709 1341.893555,2099.853027 1368.809570,2097.847656 
	C1372.029785,2097.607910 1375.394409,2098.517090 1378.617310,2099.230957 
	C1397.730835,2103.464600 1416.297363,2110.268555 1436.135620,2111.096436 
	C1443.438110,2111.401123 1450.913818,2111.434814 1457.965088,2113.076416 
	C1472.823730,2116.535645 1487.538574,2120.698486 1502.135986,2125.151611 
	C1507.764404,2126.868652 1513.340698,2129.528320 1518.210205,2132.834717 
	C1547.958862,2153.033447 1577.220215,2173.961426 1607.214966,2193.782227 
	C1624.104004,2204.942871 1642.087158,2214.447021 1659.979492,2225.212158 
	C1676.881714,2246.421143 1699.073120,2256.987061 1724.447876,2262.241455 
	C1737.515381,2264.947754 1749.107422,2270.203125 1754.672363,2283.793213 
	C1757.819458,2291.478271 1761.691895,2298.891113 1764.424927,2306.710449 
	C1765.767090,2310.550049 1765.404907,2315.031494 1765.547363,2319.231689 
	C1765.689697,2323.433350 1764.856323,2327.759766 1765.575317,2331.833008 
	C1767.796997,2344.419189 1771.838745,2356.253174 1781.491089,2365.445068 
	C1784.116211,2367.944824 1786.254272,2370.987549 1788.438965,2373.913086 
	C1795.833496,2383.814209 1802.597412,2393.691406 1802.026733,2407.204346 
	C1801.581055,2417.754883 1802.819946,2428.417480 1803.851807,2438.977295 
	C1804.751587,2448.184814 1806.599731,2457.295898 1807.667480,2466.491699 
	C1808.459106,2473.308838 1808.078247,2480.415527 1817.153076,2485.562988 
	C1812.258301,2489.589600 1808.245117,2492.589844 1804.572998,2495.961182 
	C1782.775635,2515.974365 1761.077637,2536.095947 1739.306519,2556.137695 
	C1714.844849,2578.656250 1690.449463,2601.248779 1665.785889,2623.544189 
	C1658.815063,2629.845703 1653.000854,2635.435547 1652.516968,2646.328369 
	C1652.073242,2656.319824 1652.088501,2665.608643 1656.993530,2674.222412 
	C1661.578979,2682.274902 1666.851562,2689.957520 1672.138794,2697.583008 
	C1676.248291,2703.510742 1681.838501,2708.537354 1680.587769,2716.942139 
	C1680.294922,2718.909668 1682.142700,2721.197754 1683.011108,2723.335693 
	C1685.380981,2729.170654 1688.184326,2734.875244 1689.987549,2740.880371 
	C1691.399292,2745.581543 1694.021851,2747.957520 1698.528320,2749.480225 
	C1712.193848,2754.097656 1724.533691,2761.035400 1735.403198,2770.707031 
	C1744.835205,2779.098877 1754.712769,2786.994873 1764.500488,2794.979004 
	C1767.803345,2797.673096 1772.653320,2799.223633 1774.692261,2802.576172 
	C1781.454468,2813.695068 1786.697021,2825.512695 1785.725952,2839.152344 
	C1785.227051,2846.161377 1782.205688,2851.145264 1775.693237,2853.841797 
	C1771.394775,2855.621582 1767.055908,2857.310791 1762.690186,2858.918945 
	C1757.336182,2860.890381 1752.183838,2863.133057 1748.633911,2867.896484 
	C1745.077026,2872.669434 1740.665894,2873.073975 1735.366455,2871.023926 
	C1732.974243,2870.098877 1730.040405,2869.470947 1727.601318,2869.956787 
	C1715.826416,2872.302734 1705.415649,2877.695801 1698.519165,2887.628418 
	C1690.995239,2898.464600 1682.807861,2908.227539 1670.926392,2914.455566 
	C1670.198364,2914.837402 1670.289917,2916.782227 1670.000000,2918.000000 
	C1663.938843,2918.000000 1657.877563,2918.000000 1650.908203,2918.000000 
z"/>
<path 
	data-name="Bafut"
fill="#3E4F8C" opacity="1.000000" stroke="none" 
	d="
M410.130188,240.014069 
	C416.836121,239.869095 423.542053,239.724106 431.608704,240.359802 
	C445.224304,247.578537 457.728882,248.694046 471.281494,244.992020 
	C478.912659,242.907471 487.265625,243.706024 495.913605,244.847855 
	C494.816101,246.844604 494.490631,247.820541 493.860840,248.524002 
	C486.660980,256.565521 486.588715,257.745392 495.284546,263.561249 
	C498.790985,265.906342 499.650940,268.931305 500.581604,272.583710 
	C501.534393,276.322815 502.498871,281.122162 505.194916,283.161469 
	C514.598633,290.274597 523.755249,298.787079 537.619995,295.845093 
	C538.145386,301.804565 540.837158,304.781525 545.917175,306.538696 
	C548.668457,307.490295 550.929077,310.722565 552.720764,313.389709 
	C555.628113,317.717651 557.968201,322.426666 560.570190,327.014526 
	C563.539856,327.014526 566.343079,327.014526 569.287781,327.014526 
	C570.590576,331.212006 571.759705,334.978821 573.013916,339.019806 
	C575.642273,339.532806 578.174866,340.027100 580.635071,340.507263 
	C580.810852,348.706207 583.437012,351.490326 592.088379,353.704041 
	C595.868286,354.671265 599.763733,355.738495 603.146729,357.597473 
	C611.813965,362.360291 611.527527,363.355896 606.836121,372.195496 
	C601.709900,381.854095 596.649109,391.708893 593.150024,402.017883 
	C590.409607,410.091553 588.615845,420.182983 596.310974,426.261536 
	C604.572876,432.787933 609.733521,440.793457 614.202271,449.779053 
	C614.711121,450.802185 616.032288,451.421326 617.920349,453.033386 
	C619.957214,449.862396 622.483704,447.394958 623.147766,444.500275 
	C623.871399,441.345581 622.867737,437.794678 622.530457,433.248291 
	C625.479187,434.730286 627.809204,435.141449 628.754333,436.509399 
	C632.612854,442.094116 635.129944,447.976624 632.605164,455.165802 
	C630.792297,460.327972 628.727722,465.388855 632.978088,471.170258 
	C635.908752,475.156586 634.980042,480.725769 631.868652,485.265656 
	C628.347717,490.403168 624.930969,495.612061 620.752014,501.862030 
	C625.116516,504.115845 628.723328,505.978363 633.531189,508.461151 
	C634.663696,503.486816 635.465332,499.695740 636.394836,495.936279 
	C638.654114,486.798584 651.007690,481.277557 657.484619,486.895416 
	C661.356262,490.253479 664.728149,494.513947 667.191528,498.992096 
	C668.053101,500.558441 665.988281,504.349304 664.368591,506.430878 
	C663.425293,507.643250 660.691895,507.399628 658.804993,507.951569 
	C649.917908,510.551178 646.062378,517.249207 648.715088,525.390808 
	C651.091980,532.685852 662.653809,538.878662 669.133850,536.635498 
	C673.345032,535.177734 677.769043,534.334778 681.838440,533.283325 
	C688.848511,548.710266 686.885376,553.572876 672.060364,557.499695 
	C685.668152,563.193298 680.510803,575.692810 682.542908,585.075867 
	C687.260315,585.075867 691.073120,584.241821 694.325439,585.237854 
	C702.860962,587.851990 708.438843,584.414124 713.029480,577.762451 
	C713.927856,576.460815 715.117126,575.359863 716.401978,573.906555 
	C723.907959,577.227356 730.390808,580.224487 730.458069,589.973633 
	C730.500061,596.046448 732.392822,596.927490 739.683960,597.778809 
	C747.802429,598.726746 747.845032,598.781616 747.164551,608.193481 
	C747.085205,608.895447 747.394348,609.319885 747.703552,609.744324 
	C748.359680,609.147705 749.015747,608.551147 750.219238,607.455444 
	C753.801025,605.446960 756.477173,605.118958 758.062134,609.476196 
	C754.405945,615.002930 742.775879,614.455505 745.156372,625.845581 
	C752.575623,623.772888 758.796997,625.197327 763.230225,631.726135 
	C763.904602,632.719299 765.380310,633.717407 766.517029,633.754761 
	C772.104065,633.938538 775.333191,637.407410 778.781677,641.213440 
	C782.140381,644.920471 785.940796,644.292908 788.577698,640.043762 
	C790.027649,637.707214 790.811707,634.957397 791.898804,632.387329 
	C798.076721,634.409668 800.567627,636.804077 798.817200,643.569397 
	C796.594238,652.160522 796.155518,661.346130 806.121155,666.680054 
	C808.069275,667.722778 809.791260,669.186707 811.623901,670.446960 
	C815.203979,672.909058 817.102661,675.742798 813.986267,680.489990 
	C810.403442,677.984253 807.332458,675.836487 803.944458,673.188660 
	C802.760864,672.619751 801.894348,672.550903 801.027771,672.481995 
	C801.835693,673.213379 802.643677,673.944763 803.617065,675.397095 
	C804.619446,683.882568 798.503113,677.612854 796.478882,679.766785 
	C796.478882,684.508362 796.184998,689.337341 796.655762,694.090576 
	C796.799255,695.539185 799.048096,696.779297 800.332703,698.114929 
	C801.592224,696.855713 803.416382,695.805847 803.979126,694.288330 
	C804.824036,692.009644 804.784668,689.403076 805.413452,684.795776 
	C811.865662,692.225159 811.968323,699.600952 813.889465,706.016724 
	C807.999207,710.763062 803.843994,697.093201 798.023865,705.739929 
	C799.978333,708.851257 801.733093,712.040833 803.872009,714.947632 
	C806.447571,718.447815 805.083435,721.490540 802.578430,723.737366 
	C800.252563,725.823425 797.284607,726.160828 794.612976,723.346680 
	C790.693726,719.218262 786.516479,719.576477 782.398987,723.125977 
	C782.147644,725.529663 782.746277,728.519348 781.521667,729.976013 
	C776.763123,735.635986 778.172424,740.086304 783.019287,744.587585 
	C783.839233,745.348938 783.845825,746.986206 784.469604,748.996521 
	C782.528870,750.662415 780.615723,752.488403 778.516602,754.067200 
	C774.564148,757.039917 773.781128,761.025818 774.336243,765.615601 
	C775.557922,775.716003 775.526001,775.719849 765.442017,779.133484 
	C764.160156,777.595886 762.948792,776.142761 761.158325,773.995056 
	C760.954773,777.330017 760.829712,779.377930 760.700256,781.499146 
	C756.388245,780.943115 752.898376,780.493042 747.949768,779.854858 
	C752.585754,787.851318 746.531006,789.515198 741.856873,791.752747 
	C744.568481,794.336304 746.599426,796.271362 749.067627,798.623047 
	C746.527405,800.804993 744.499817,802.546631 743.246399,803.623230 
	C746.314880,809.350281 748.909241,814.192322 750.690002,817.515869 
	C756.522400,819.153748 761.267639,820.486267 766.770996,822.031677 
	C770.416809,820.948547 775.049316,819.572327 780.252380,818.026550 
	C780.948730,821.089417 781.607910,822.918396 781.733032,824.783325 
	C781.933350,827.768921 781.694336,830.781006 781.791016,833.777100 
	C782.115845,843.846436 784.486694,846.164978 794.280212,846.146851 
	C796.228699,846.143250 798.177124,846.146362 799.975647,846.146362 
	C802.660461,850.787781 805.075012,854.961975 807.606812,859.338928 
	C802.925110,863.806641 799.808594,868.677979 800.194946,875.903442 
	C806.433289,878.573059 812.609131,881.430969 818.951294,883.853516 
	C823.119202,885.445557 826.825439,888.806824 832.129211,886.844727 
	C833.608032,886.297668 836.786438,888.087769 838.081970,889.695007 
	C843.564819,896.496948 850.606506,897.682251 858.951233,898.847778 
	C869.187073,900.277344 875.401611,899.190369 880.761597,889.303955 
	C886.952759,877.884399 894.817871,878.812073 901.308228,890.264221 
	C907.448547,901.098633 913.280762,902.023682 922.658691,894.158203 
	C926.410461,891.011475 930.561035,887.027588 934.997620,886.308350 
	C942.201477,885.140320 947.624634,881.814270 951.805176,876.661377 
	C957.778015,869.299255 965.600342,866.832581 974.403870,865.804016 
	C979.676392,865.187988 985.008789,864.665161 990.144470,863.407104 
	C996.155701,861.934753 1002.670410,861.329712 1007.155762,856.660645 
	C1007.391052,855.623901 1007.713928,854.964172 1007.656433,854.339478 
	C1006.836060,845.431641 1008.740173,837.903320 1017.211365,833.014832 
	C1019.009460,831.977234 1020.153748,829.448730 1021.115173,827.381958 
	C1024.951904,819.134216 1031.582397,815.755432 1040.360107,815.766235 
	C1043.686890,815.770325 1047.426636,816.572205 1050.269653,815.355225 
	C1063.003540,809.903992 1077.841797,810.751465 1089.410889,801.672546 
	C1094.544434,797.644043 1100.617188,798.846680 1104.694336,803.674927 
	C1108.909058,808.666260 1112.556519,814.313110 1115.478638,820.159790 
	C1117.576050,824.356323 1119.546875,827.929749 1124.573242,828.112305 
	C1136.647949,828.550842 1148.337402,826.963196 1159.025146,821.182434 
	C1158.064575,810.126099 1158.838867,809.140442 1169.564087,805.781616 
	C1172.080444,804.993408 1174.432617,803.638672 1176.800903,802.428345 
	C1181.796143,799.875305 1186.532349,799.875549 1192.099243,801.571899 
	C1204.979126,805.496704 1217.832031,805.869568 1230.998169,800.843994 
	C1240.659790,797.156006 1251.043701,792.674377 1261.619385,799.383667 
	C1262.903320,800.198181 1264.859741,799.922729 1266.491333,800.224182 
	C1276.814453,802.131653 1285.540649,805.944885 1287.808350,817.733337 
	C1288.244629,820.001465 1289.393799,822.126465 1289.905518,824.387390 
	C1290.928467,828.907227 1293.593018,831.641479 1297.517090,834.213440 
	C1301.549438,836.856445 1304.929932,840.824219 1307.835938,844.771606 
	C1311.480835,849.722839 1310.121460,854.282959 1304.773682,857.169922 
	C1303.039795,858.106018 1301.031372,858.527649 1299.159546,859.214966 
	C1291.811035,861.913269 1289.843750,864.727783 1292.610596,871.703247 
	C1294.209229,875.733276 1297.359131,880.059814 1301.013550,882.166443 
	C1307.923828,886.149902 1311.793091,891.689087 1314.160278,898.932434 
	C1315.394409,902.708435 1317.108887,906.349426 1318.868652,909.922119 
	C1319.728271,911.667297 1320.977539,914.246033 1322.411255,914.513489 
	C1330.696411,916.059021 1338.611816,921.405029 1347.378662,918.203979 
	C1351.921997,916.544861 1355.897217,913.389526 1360.290527,911.240356 
	C1364.038696,909.406860 1368.248779,906.300903 1371.854126,906.778625 
	C1386.964355,908.781067 1398.958130,920.713135 1401.779785,936.157349 
	C1402.713379,941.267761 1404.696777,944.035767 1409.281982,945.508606 
	C1406.947266,958.716064 1400.878906,969.076599 1391.559204,977.673950 
	C1390.349365,978.789978 1389.391235,980.204468 1388.432007,981.562378 
	C1381.133301,991.893982 1373.599487,1002.074036 1366.697632,1012.665405 
	C1363.327759,1017.836914 1359.888184,1020.909851 1353.186279,1020.599609 
	C1346.257568,1020.278809 1339.228638,1021.168762 1332.310425,1022.053040 
	C1329.634277,1022.395020 1325.769531,1023.498596 1324.819092,1025.425537 
	C1321.773926,1031.599243 1316.414795,1034.612061 1311.073364,1037.999268 
	C1308.006104,1039.944458 1305.123291,1042.260376 1302.444214,1044.721558 
	C1297.085693,1049.644775 1292.426147,1055.482666 1286.571533,1059.678223 
	C1276.069946,1067.203979 1271.801147,1077.404907 1271.930420,1089.655396 
	C1271.985229,1094.860718 1273.254150,1100.170654 1274.713501,1105.218506 
	C1277.460327,1114.720459 1280.745850,1124.066772 1283.808105,1133.479736 
	C1288.987915,1133.717285 1292.958252,1133.917358 1296.930298,1134.078491 
	C1312.843018,1134.724121 1320.348145,1144.116211 1317.757446,1159.703613 
	C1317.244629,1162.788574 1317.164673,1166.461304 1318.372681,1169.208740 
	C1320.865845,1174.878174 1320.806274,1179.943359 1318.021362,1185.410889 
	C1311.604370,1198.010132 1312.677246,1211.072021 1315.932739,1224.282837 
	C1317.260254,1229.670044 1319.945557,1233.844727 1324.037720,1237.609741 
	C1332.584961,1245.473511 1341.290283,1253.373291 1342.094604,1266.263184 
	C1342.211914,1268.144165 1343.365723,1270.053833 1344.351440,1271.771484 
	C1348.814819,1279.548706 1353.464111,1287.219849 1357.885864,1295.020142 
	C1359.500366,1297.868286 1362.001953,1301.065430 1361.792603,1303.935303 
	C1361.170044,1312.475220 1361.286621,1321.838501 1357.721436,1329.247314 
	C1347.795288,1349.874634 1342.955322,1371.976562 1336.760132,1393.677979 
	C1335.249390,1398.969971 1333.158203,1403.266235 1329.989136,1407.644531 
	C1326.581909,1412.351440 1323.613892,1417.770630 1322.053589,1423.328247 
	C1319.649292,1431.890625 1318.104492,1440.778809 1317.110229,1449.631592 
	C1315.743042,1461.804321 1311.507080,1474.396484 1319.321289,1485.798828 
	C1288.895142,1479.680176 1259.089844,1475.331787 1228.733032,1475.671387 
	C1223.124023,1475.734131 1217.510986,1474.818115 1211.890259,1474.568604 
	C1197.747803,1473.940308 1183.589355,1471.432617 1169.508179,1475.714600 
	C1165.496826,1476.934448 1161.018311,1477.357178 1156.819092,1477.096924 
	C1133.664185,1475.661377 1110.546509,1473.567383 1087.381104,1472.382935 
	C1074.385742,1471.718262 1061.633301,1470.753296 1049.239136,1466.318237 
	C1039.563599,1462.855713 1029.607422,1460.177368 1019.148804,1456.835693 
	C1009.202515,1454.059082 999.938538,1451.356201 990.547607,1449.208496 
	C982.337769,1447.330688 974.859192,1444.056396 967.605103,1439.848511 
	C963.361511,1437.386963 958.689575,1435.180420 953.931946,1434.171997 
	C933.489929,1429.838623 912.884094,1426.273804 892.457397,1421.874023 
	C877.639832,1418.682373 862.283081,1417.037354 849.674255,1406.934692 
	C840.601868,1399.665283 829.375732,1397.384277 818.094666,1395.825806 
	C807.572449,1394.372314 797.015320,1393.151367 786.519775,1391.529419 
	C767.222900,1388.547119 747.972961,1384.800659 728.494751,1390.205200 
	C728.180054,1390.292603 727.825195,1390.224609 727.500427,1390.287598 
	C713.200989,1393.062988 698.192749,1391.506958 684.379578,1397.428589 
	C682.672668,1398.160278 680.427246,1397.757690 678.437988,1397.689453 
	C664.486328,1397.209473 650.536560,1396.309814 636.585876,1396.304688 
	C628.333252,1396.301636 619.843323,1396.725098 611.885254,1398.684082 
	C601.202637,1401.313843 591.524597,1399.105713 581.713989,1395.700439 
	C581.136108,1387.702515 573.446533,1387.564941 568.778931,1384.124146 
	C567.602417,1383.256592 565.864929,1383.150146 563.341187,1382.372070 
	C568.101013,1376.244507 571.662170,1370.330322 561.407043,1366.328003 
	C565.839600,1361.824341 569.655518,1358.744629 572.421021,1354.907715 
	C575.059998,1351.246460 576.604370,1346.796265 578.945068,1342.054565 
	C577.225403,1340.419434 574.004639,1338.603638 572.725037,1335.876831 
	C570.179932,1330.453369 568.992981,1324.749512 572.356140,1318.728760 
	C577.186157,1310.082153 581.372437,1301.076050 586.171509,1291.552612 
	C578.303528,1288.940186 570.821716,1287.595703 565.694580,1281.141602 
	C563.031982,1277.789917 560.994019,1274.920654 561.746704,1270.548218 
	C562.587341,1265.664917 563.009827,1260.694336 564.136475,1255.884033 
	C564.537537,1254.171997 566.263977,1252.573120 567.736572,1251.342896 
	C574.898132,1245.360718 575.392517,1243.933350 572.539307,1235.492676 
	C569.956177,1227.850830 569.978333,1227.883789 576.423340,1223.564331 
	C581.344055,1220.266357 586.300781,1217.003296 590.997925,1213.406738 
	C591.923157,1212.698364 591.736206,1210.537476 592.174744,1208.532104 
	C588.751465,1207.992432 585.905396,1207.543823 583.220825,1207.120605 
	C580.816589,1195.921753 582.859131,1190.994507 591.972961,1186.924438 
	C595.657776,1185.279053 598.040100,1183.186890 598.578003,1179.041016 
	C598.874329,1176.757446 599.451843,1174.401245 600.441040,1172.335571 
	C604.510620,1163.837036 603.671082,1156.196167 599.040894,1147.791260 
	C594.060425,1138.750732 587.590576,1132.741089 577.857056,1129.482422 
	C567.787598,1126.111206 558.051270,1121.754150 548.023376,1118.244995 
	C544.029114,1116.847168 539.657776,1116.478516 535.431946,1115.805664 
	C531.846313,1115.234619 528.160950,1115.183105 524.627747,1114.408691 
	C512.667053,1111.786987 512.770386,1111.611084 512.180176,1099.391602 
	C511.677612,1088.987183 507.628082,1080.722778 496.561401,1077.461060 
	C496.561401,1073.692993 495.972046,1070.281006 496.679352,1067.163086 
	C498.353760,1059.781860 498.099274,1052.928345 495.142456,1045.749878 
	C493.592834,1041.987793 494.217010,1037.230713 494.284271,1032.929688 
	C494.353180,1028.524902 493.069000,1024.811157 489.118805,1022.875366 
	C481.114197,1018.952637 480.139709,1011.580078 480.421753,1004.309265 
	C480.735748,996.214233 478.317352,989.321594 474.390839,982.606628 
	C468.543518,972.606567 464.278076,961.583801 454.772400,954.031311 
	C444.156860,945.596924 433.147247,938.974182 418.700256,939.568176 
	C410.825989,939.891907 402.748596,938.746399 394.989471,937.156860 
	C389.969666,936.128479 385.210052,933.378906 380.594330,930.913147 
	C366.476349,923.371094 356.801483,910.889648 346.257782,899.408081 
	C332.763458,884.713501 319.318237,869.973389 305.924377,855.187256 
	C303.706512,852.738708 301.295532,850.213867 299.944580,847.277710 
	C295.642426,837.927490 288.447266,831.200378 281.149109,824.287964 
	C263.264618,807.348389 245.905792,789.854553 228.070389,772.862000 
	C221.099014,766.220093 217.221603,758.827454 218.189529,749.013916 
	C219.787994,732.807800 216.571411,717.335266 211.097656,702.112122 
	C209.337570,697.217102 206.819794,693.327759 203.180084,689.773132 
	C186.973099,673.944946 171.045639,657.827393 154.681564,642.164978 
	C148.558640,636.304626 144.908707,629.615295 144.285858,621.320190 
	C143.738235,614.026855 139.962280,609.551636 133.037552,607.965820 
	C128.231323,606.865234 123.288269,606.057800 118.372459,605.820068 
	C112.734680,605.547363 106.770462,607.252686 101.457382,605.977112 
	C88.175499,602.788574 76.117012,607.750854 63.520706,609.613831 
	C57.199944,610.548706 50.467365,608.892395 43.943871,608.194336 
	C39.706581,607.740906 35.025463,605.370422 31.386621,606.522583 
	C20.340626,610.020325 13.784463,603.696533 6.917380,597.286499 
	C5.734281,596.182190 4.568292,595.059448 2.697206,593.972595 
	C2.000000,581.957703 2.000000,569.915405 2.773103,556.951172 
	C8.203883,549.705811 7.895257,542.766724 7.003032,535.333618 
	C5.487276,522.705688 2.438683,509.711060 13.399437,498.898773 
	C15.968891,496.364166 16.450062,491.677734 17.799997,487.947998 
	C22.438648,475.132111 26.361202,461.720612 36.436565,452.001465 
	C44.700623,444.029572 50.882206,435.936310 50.632881,423.680939 
	C50.571098,420.644043 54.088562,416.161896 57.086876,414.770203 
	C61.163017,412.878174 64.425247,416.296173 66.317322,420.288147 
	C66.881821,421.479156 67.981667,422.432159 68.467102,423.642273 
	C71.065163,430.119141 75.700821,431.983398 82.629608,431.973053 
	C96.227821,431.952759 109.822845,433.411926 123.428490,433.605835 
	C134.327103,433.761200 145.284515,434.992004 156.062531,431.207275 
	C176.226898,424.126434 192.035172,411.315216 205.258743,395.011139 
	C208.389038,391.151611 210.162292,386.675751 208.498413,381.117737 
	C206.989883,376.078705 206.531326,370.676849 206.025925,365.395111 
	C204.464127,349.073029 207.472549,344.143829 222.545120,337.657532 
	C223.759171,337.135101 225.087982,336.864777 226.270569,336.287109 
	C228.300919,335.295380 230.627411,334.532166 232.184906,333.012329 
	C241.229370,324.186676 252.724228,321.361877 264.592651,319.843323 
	C280.540680,317.802765 296.022278,314.655640 309.916351,305.942535 
	C317.481293,301.198456 321.703827,295.090759 322.406799,285.746704 
	C323.045349,277.258362 325.158081,268.761261 327.600616,260.559784 
	C330.428802,251.063370 338.052490,247.019913 347.697937,249.040268 
	C355.495361,250.673584 363.333496,252.280212 370.943726,254.590057 
	C377.875488,256.693970 384.350739,256.361633 389.840118,251.868622 
	C396.035858,246.797424 402.985077,243.307297 410.130188,240.014069 
M737.860657,615.992310 
	C739.639587,614.542358 741.418518,613.092407 743.197449,611.642456 
	C737.700439,609.762024 733.043640,609.548645 728.415222,609.819641 
	C723.394226,610.113647 722.676453,611.429871 723.477478,617.348633 
	C727.742737,616.977173 732.007935,616.605713 737.860657,615.992310 
z"/>
<path 
	data-name="Tubah"
fill="#F5D35B" opacity="1.000000" stroke="none" 
	d="
M1320.131714,1485.798218 
	C1311.507080,1474.396484 1315.743042,1461.804321 1317.110229,1449.631592 
	C1318.104492,1440.778809 1319.649292,1431.890625 1322.053589,1423.328247 
	C1323.613892,1417.770630 1326.581909,1412.351440 1329.989136,1407.644531 
	C1333.158203,1403.266235 1335.249390,1398.969971 1336.760132,1393.677979 
	C1342.955322,1371.976562 1347.795288,1349.874634 1357.721436,1329.247314 
	C1361.286621,1321.838501 1361.170044,1312.475220 1361.792603,1303.935303 
	C1362.001953,1301.065430 1359.500366,1297.868286 1357.885864,1295.020142 
	C1353.464111,1287.219849 1348.814819,1279.548706 1344.351440,1271.771484 
	C1343.365723,1270.053833 1342.211914,1268.144165 1342.094604,1266.263184 
	C1341.290283,1253.373291 1332.584961,1245.473511 1324.037720,1237.609741 
	C1319.945557,1233.844727 1317.260254,1229.670044 1315.932739,1224.282837 
	C1312.677246,1211.072021 1311.604370,1198.010132 1318.021362,1185.410889 
	C1320.806274,1179.943359 1320.865845,1174.878174 1318.372681,1169.208740 
	C1317.164673,1166.461304 1317.244629,1162.788574 1317.757446,1159.703613 
	C1320.348145,1144.116211 1312.843018,1134.724121 1296.930298,1134.078491 
	C1292.958252,1133.917358 1288.987915,1133.717285 1283.808105,1133.479736 
	C1280.745850,1124.066772 1277.460327,1114.720459 1274.713501,1105.218506 
	C1273.254150,1100.170654 1271.985229,1094.860718 1271.930420,1089.655396 
	C1271.801147,1077.404907 1276.069946,1067.203979 1286.571533,1059.678223 
	C1292.426147,1055.482666 1297.085693,1049.644775 1302.444214,1044.721558 
	C1305.123291,1042.260376 1308.006104,1039.944458 1311.073364,1037.999268 
	C1316.414795,1034.612061 1321.773926,1031.599243 1324.819092,1025.425537 
	C1325.769531,1023.498596 1329.634277,1022.395020 1332.310425,1022.053040 
	C1339.228638,1021.168762 1346.257568,1020.278809 1353.186279,1020.599609 
	C1359.888184,1020.909851 1363.327759,1017.836914 1366.697632,1012.665405 
	C1373.599487,1002.074036 1381.133301,991.893982 1388.432007,981.562378 
	C1389.391235,980.204468 1390.349365,978.789978 1391.559204,977.673950 
	C1400.878906,969.076599 1406.947266,958.716064 1409.978760,945.151611 
	C1416.628784,939.444214 1422.853271,935.867065 1430.068726,934.007751 
	C1431.878296,933.541443 1433.651367,932.356689 1435.082886,931.095398 
	C1443.029541,924.094116 1450.677734,916.742798 1458.796753,909.952148 
	C1465.707275,904.172119 1471.657104,904.306519 1479.571045,908.703979 
	C1482.356445,910.251770 1485.812134,911.684326 1488.848145,911.480103 
	C1497.075928,910.926758 1505.220825,909.251709 1513.438965,908.418518 
	C1525.904297,907.154724 1536.516846,900.799316 1547.713501,896.148010 
	C1552.385620,894.207092 1556.436646,893.734802 1561.082886,895.552063 
	C1563.807251,896.617676 1566.956543,897.882446 1569.669312,897.464478 
	C1580.086670,895.859253 1590.552856,894.162292 1600.716431,891.438232 
	C1609.944824,888.964844 1618.601562,890.274292 1626.776001,893.912354 
	C1634.559937,897.376526 1641.937012,901.932800 1649.050171,906.673401 
	C1655.453613,910.940979 1662.157349,912.794373 1669.719727,912.369934 
	C1673.374634,912.164795 1677.100220,911.949341 1680.706787,912.414185 
	C1689.162720,913.504211 1698.283691,912.675293 1705.476685,918.338684 
	C1719.766235,929.589661 1736.640991,932.466064 1753.965454,934.233887 
	C1758.822876,934.729553 1763.390991,934.159180 1766.851196,930.445435 
	C1774.114868,922.649292 1783.946045,922.171143 1793.433105,921.267395 
	C1798.623657,920.773010 1803.537109,923.068542 1805.419312,928.442993 
	C1808.463501,937.135620 1812.026611,945.858215 1813.416138,954.869568 
	C1815.570557,968.840576 1816.081421,983.065063 1817.121582,995.224060 
	C1830.007324,1002.718018 1843.829224,1005.494263 1845.928955,1021.380066 
	C1846.010498,1021.996948 1846.341309,1022.770691 1846.815063,1023.117432 
	C1853.707886,1028.161255 1852.605225,1035.247192 1851.650635,1042.212769 
	C1850.781494,1048.554688 1852.957397,1053.206177 1858.592651,1056.297729 
	C1860.624756,1057.412720 1862.435059,1058.950928 1864.505615,1059.973755 
	C1872.671631,1064.007324 1876.197876,1071.210205 1878.370239,1079.500488 
	C1879.020386,1081.981445 1880.221313,1084.327759 1881.263916,1086.694580 
	C1884.582153,1094.227295 1888.107788,1101.673950 1891.219604,1109.290161 
	C1892.713989,1112.947754 1893.477783,1116.906494 1894.539673,1120.737915 
	C1896.323975,1127.176147 1900.734253,1130.887329 1907.048462,1132.247681 
	C1920.957275,1135.244385 1933.082031,1141.962402 1944.833252,1149.640137 
	C1948.305298,1151.908569 1950.549194,1154.590210 1952.190674,1158.493652 
	C1959.176514,1175.105225 1964.461914,1192.246826 1967.490601,1209.941895 
	C1970.028931,1224.770996 1976.246338,1239.330933 1971.813843,1254.937866 
	C1971.133301,1257.333496 1971.937622,1260.236328 1972.378296,1262.850098 
	C1974.466064,1275.230835 1976.477905,1287.629761 1978.905396,1299.945435 
	C1980.112793,1306.071411 1981.324951,1312.429443 1983.981445,1317.991577 
	C1991.225220,1333.157715 2001.840698,1344.853027 2018.763062,1349.999023 
	C2024.252563,1351.668335 2030.028809,1354.738647 2033.930420,1358.830566 
	C2044.216309,1369.618042 2054.130615,1380.877197 2063.088135,1392.780151 
	C2071.707520,1404.233887 2079.709961,1415.923584 2091.565674,1424.539429 
	C2096.583252,1428.186035 2100.774414,1433.249390 2104.545410,1438.266968 
	C2110.538330,1446.240723 2116.022705,1454.614746 2121.393311,1463.029419 
	C2123.502930,1466.334961 2124.999268,1470.110229 2126.307617,1473.835571 
	C2131.593994,1488.887939 2136.675781,1504.011963 2141.899170,1519.086670 
	C2142.524170,1520.890869 2142.446533,1524.129028 2146.000000,1522.000000 
	C2146.000000,1531.378540 2146.000000,1540.756958 2145.334473,1550.469482 
	C2139.753906,1561.687500 2136.545166,1573.138672 2136.481934,1585.017822 
	C2136.390381,1602.133423 2134.677490,1618.775879 2127.475586,1634.521851 
	C2126.787109,1636.027222 2126.332520,1637.640869 2125.787842,1639.210571 
	C2117.728516,1662.427368 2110.477539,1685.965820 2101.388916,1708.772095 
	C2092.288086,1731.609009 2081.339844,1753.687988 2065.819824,1773.138794 
	C2061.088379,1779.068237 2056.946289,1785.467651 2052.013428,1792.381714 
	C2057.940674,1794.583374 2060.040039,1799.037476 2061.108643,1804.470947 
	C2062.384521,1810.959106 2064.523438,1817.276855 2065.814209,1823.762939 
	C2068.637939,1837.950317 2068.379639,1837.817383 2057.592773,1847.128662 
	C2053.493164,1850.667358 2049.289062,1851.043579 2044.658691,1849.490723 
	C2042.169922,1848.656128 2039.870361,1847.184937 2037.582764,1845.835693 
	C2027.838257,1840.088013 2027.750610,1839.948975 2019.530640,1847.070068 
	C2015.255859,1850.773438 2010.551392,1852.551636 2004.954224,1852.347290 
	C2001.628052,1852.225830 1998.239502,1851.946167 1994.974854,1852.411011 
	C1988.876587,1853.279663 1982.269287,1853.484253 1976.965698,1856.143188 
	C1972.351807,1858.456055 1968.136353,1860.212280 1963.024780,1860.380005 
	C1956.743286,1860.586060 1950.480103,1861.444946 1944.199829,1861.573120 
	C1936.890259,1861.722412 1929.157837,1862.852051 1922.347778,1860.933350 
	C1910.751221,1857.666016 1899.558472,1858.063965 1887.924805,1859.546875 
	C1883.287109,1860.137939 1877.437744,1859.694580 1873.702515,1857.292358 
	C1862.868042,1850.324829 1851.469849,1847.790771 1838.757324,1848.031128 
	C1825.706787,1848.277832 1814.763184,1851.913696 1806.483643,1862.419678 
	C1802.171265,1867.891602 1797.643555,1873.211914 1792.921997,1878.331909 
	C1791.481323,1879.894165 1788.740234,1881.844116 1787.158691,1881.435059 
	C1775.740723,1878.482666 1761.795288,1885.285156 1753.525879,1872.032715 
	C1742.474976,1880.317749 1733.229980,1871.097778 1723.307373,1870.744019 
	C1716.761597,1875.347900 1710.614014,1880.301514 1707.606567,1888.213501 
	C1706.929688,1889.994019 1705.658813,1891.900635 1704.116455,1892.942383 
	C1694.856079,1899.196411 1685.436523,1905.214966 1675.902588,1911.421753 
	C1676.195679,1912.649658 1676.522583,1913.917480 1676.799927,1915.196167 
	C1679.431885,1927.325317 1675.943604,1933.414062 1664.148438,1937.017578 
	C1661.948120,1937.689941 1659.570068,1938.377319 1657.331543,1938.222778 
	C1648.415527,1937.607544 1640.300293,1939.725098 1632.412109,1943.850342 
	C1629.654541,1945.292358 1626.030029,1945.597412 1622.816284,1945.542725 
	C1614.875854,1945.407959 1606.900146,1945.148926 1599.017212,1944.250244 
	C1579.269409,1941.998901 1564.976929,1953.294922 1550.148560,1963.358521 
	C1546.242188,1966.010010 1545.647949,1969.627808 1546.916016,1973.874268 
	C1543.610840,1973.432861 1540.720825,1973.495361 1538.596191,1972.250854 
	C1530.109009,1967.278809 1520.794434,1965.320435 1511.363159,1963.123291 
	C1503.038086,1961.183716 1495.040405,1957.678101 1487.064819,1954.452026 
	C1480.917114,1951.965454 1474.994385,1948.907593 1469.042358,1945.960815 
	C1467.037231,1944.968018 1464.232788,1943.941895 1463.549561,1942.230225 
	C1461.348511,1936.715820 1458.652344,1930.908325 1458.505005,1925.153564 
	C1457.986084,1904.865356 1457.943604,1884.529175 1458.864014,1864.263062 
	C1459.122681,1858.566040 1457.606201,1855.309814 1454.367920,1851.147827 
	C1443.883179,1837.672607 1430.477783,1825.885742 1427.511230,1807.707520 
	C1427.310303,1806.476318 1426.494873,1805.184326 1425.614502,1804.252075 
	C1421.149170,1799.524536 1422.581543,1794.507324 1424.639526,1789.393188 
	C1425.874634,1786.323730 1427.047119,1783.228882 1428.736572,1779.671875 
	C1433.474243,1769.842651 1438.624390,1760.777710 1441.759399,1751.062744 
	C1446.379150,1736.746826 1449.154053,1722.016602 1441.079102,1707.615356 
	C1440.005859,1705.701416 1440.005371,1703.130249 1439.723145,1700.837036 
	C1437.612061,1683.676147 1435.190552,1666.613770 1426.677979,1651.124146 
	C1421.656250,1641.986328 1418.790527,1632.200562 1417.710205,1621.802734 
	C1416.915405,1614.154419 1414.875122,1606.870972 1409.423950,1600.963745 
	C1402.848267,1593.838135 1400.233765,1584.702148 1398.494507,1575.677002 
	C1396.968262,1567.757324 1392.703979,1562.653198 1386.907715,1557.866455 
	C1382.857666,1554.521973 1378.234741,1551.079346 1375.894897,1546.617554 
	C1370.699585,1536.710938 1363.031860,1529.952393 1353.567749,1524.603882 
	C1351.440674,1523.401978 1348.479126,1521.033203 1348.472046,1519.191772 
	C1348.444824,1512.089966 1343.352539,1508.736572 1339.194336,1504.599121 
	C1332.868042,1498.304077 1326.488525,1492.062500 1320.131714,1485.798218 
z"/>


<path 
	data-name="Bamenda II"
fill="#5DC3C7" opacity="1.000000" stroke="none" 
	d="
M581.163147,1396.134033 
	C591.524597,1399.105713 601.202637,1401.313843 611.885254,1398.684082 
	C619.843323,1396.725098 628.333252,1396.301636 636.585876,1396.304688 
	C650.536560,1396.309814 664.486328,1397.209473 678.437988,1397.689453 
	C680.427246,1397.757690 682.672668,1398.160278 684.379578,1397.428589 
	C698.192749,1391.506958 713.200989,1393.062988 727.500427,1390.287598 
	C727.825195,1390.224609 728.180054,1390.292603 728.494751,1390.205200 
	C747.972961,1384.800659 767.222900,1388.547119 786.519775,1391.529419 
	C797.015320,1393.151367 807.572449,1394.372314 818.094666,1395.825806 
	C829.375732,1397.384277 840.601868,1399.665283 849.674255,1406.934692 
	C862.283081,1417.037354 877.639832,1418.682373 892.457397,1421.874023 
	C912.884094,1426.273804 933.489929,1429.838623 953.931946,1434.171997 
	C958.689575,1435.180420 963.361511,1437.386963 967.605103,1439.848511 
	C974.859192,1444.056396 982.337769,1447.330688 990.547607,1449.208496 
	C999.938538,1451.356201 1009.202515,1454.059082 1019.088989,1457.714966 
	C1020.237488,1461.495117 1020.678894,1464.122070 1021.421936,1466.660767 
	C1027.209229,1486.433960 1032.597534,1506.340088 1039.021851,1525.905640 
	C1044.485840,1542.546143 1046.535278,1559.287354 1046.471802,1576.808105 
	C1046.327271,1616.714478 1047.300293,1656.627930 1048.161377,1696.531128 
	C1048.279785,1702.016479 1049.609253,1707.753662 1051.642822,1712.871460 
	C1060.481934,1735.115723 1069.680908,1757.219604 1078.982056,1779.276123 
	C1082.458130,1787.519287 1085.740479,1796.033813 1090.577759,1803.470581 
	C1098.544067,1815.717896 1107.703979,1827.188843 1116.185059,1839.655151 
	C1104.318970,1866.027222 1092.551514,1891.696899 1081.021606,1917.472900 
	C1079.302734,1921.315552 1078.267334,1925.594604 1077.657715,1929.780029 
	C1075.030396,1947.818237 1072.927002,1965.935059 1070.137451,1983.946533 
	C1068.398438,1995.175293 1066.874756,2006.273804 1069.588623,2017.539429 
	C1070.048706,2019.448608 1069.795166,2021.518799 1070.008301,2023.500000 
	C1071.960449,2041.638916 1073.942627,2059.774414 1075.916138,2077.911133 
	C1056.460205,2087.666504 1035.293579,2092.173584 1014.523621,2097.889160 
	C1010.688354,2098.944824 1006.735474,2099.588135 1002.928711,2100.728271 
	C994.907532,2103.130859 986.935547,2105.251465 978.559326,2102.300293 
	C977.362244,2101.878418 975.914246,2102.064697 974.589478,2102.125244 
	C952.454895,2103.133545 931.011047,2098.806641 909.736389,2093.501709 
	C895.293701,2089.900146 881.048401,2085.417725 866.069275,2084.502441 
	C863.112732,2084.321533 860.055664,2084.211426 857.167542,2084.739502 
	C837.554749,2088.325195 817.892456,2090.838867 797.860352,2090.093750 
	C784.566711,2089.599121 771.243225,2089.908203 756.936279,2088.991943 
	C756.810303,2080.562256 754.468750,2073.775635 751.431030,2066.962891 
	C747.236206,2057.555420 742.986633,2048.087646 739.905701,2038.285645 
	C734.027710,2019.584961 728.294067,2000.786743 723.798889,1981.722778 
	C721.005188,1969.875000 717.269043,1957.999878 717.962646,1945.454590 
	C718.117737,1942.649048 717.116638,1939.528198 715.857300,1936.936646 
	C707.401001,1919.536743 694.450623,1906.739136 676.577393,1898.972412 
	C673.961243,1897.835693 671.844055,1895.550781 669.496033,1893.797119 
	C670.250183,1889.213379 671.105286,1884.643433 671.732971,1880.042358 
	C672.517212,1874.294800 674.553162,1868.697144 670.625305,1862.860107 
	C669.272278,1860.849609 670.463745,1856.454346 671.607544,1853.594238 
	C673.317200,1849.319336 676.012878,1845.438721 678.165649,1841.609985 
	C677.899780,1840.631714 677.931519,1839.668823 677.527832,1839.423950 
	C670.857605,1835.378052 669.253479,1828.730835 668.393433,1821.739258 
	C667.421326,1813.835449 666.370422,1805.932251 665.745178,1797.997803 
	C665.274597,1792.026978 665.295532,1786.007324 668.780029,1780.622437 
	C669.476135,1779.546753 669.948730,1778.147583 670.015442,1776.870850 
	C670.740479,1762.996216 671.364136,1749.116211 672.076599,1733.933472 
	C665.678955,1733.844849 659.492310,1733.799927 653.307739,1733.663818 
	C644.410767,1733.468018 641.899109,1729.944946 644.984619,1721.770020 
	C645.910034,1719.318115 647.414368,1717.084717 648.893250,1714.299805 
	C644.008301,1705.015503 645.781189,1694.546875 645.895081,1684.331421 
	C645.922729,1681.851562 648.151733,1679.071777 650.011719,1677.010132 
	C653.105347,1673.580688 656.719299,1670.620728 660.636963,1666.976562 
	C659.149963,1662.589111 657.588684,1658.342529 656.288452,1654.017456 
	C655.442993,1651.204834 654.747070,1648.306152 654.393188,1645.396240 
	C653.778503,1640.342163 653.911255,1640.326050 647.464600,1638.352173 
	C647.531433,1645.009766 647.531433,1645.009766 638.123230,1646.189087 
	C631.849182,1645.148926 637.402649,1632.999756 626.776733,1636.501831 
	C627.292908,1641.287109 621.473267,1645.679810 626.346619,1651.000854 
	C626.535034,1651.206665 623.719971,1654.163330 622.445984,1655.670776 
	C615.410400,1651.432495 609.011597,1647.577759 603.553589,1644.289917 
	C606.524963,1640.811035 609.419617,1637.421997 611.905457,1634.511597 
	C608.858521,1626.116333 600.778137,1627.696289 595.182617,1623.567139 
	C596.805054,1621.925659 598.123779,1620.794434 599.195618,1619.464478 
	C601.321899,1616.825806 603.231323,1614.210571 600.082947,1610.812378 
	C599.072571,1609.721802 598.919678,1607.781128 598.517578,1606.193359 
	C597.392395,1601.749878 599.296875,1598.971313 603.731140,1598.996704 
	C607.015808,1599.015503 610.297546,1599.551636 614.140198,1599.227661 
	C599.014343,1587.536987 588.291077,1572.845215 580.930481,1554.561279 
	C584.360718,1553.881226 587.226196,1553.313110 590.594482,1552.645386 
	C585.367615,1547.114136 580.579346,1542.047119 575.549927,1536.724854 
	C572.597107,1538.332153 570.090332,1539.696655 566.392944,1541.709106 
	C563.121521,1524.941650 564.036926,1508.433105 563.361328,1491.196289 
	C558.522705,1492.213013 554.991882,1488.840210 550.415405,1489.220825 
	C549.218750,1489.320557 546.859253,1487.141846 546.718506,1485.828979 
	C546.413513,1482.983643 547.197021,1480.021484 547.547424,1477.003296 
	C537.189148,1473.064331 536.693115,1471.804810 539.275940,1455.169312 
	C551.645630,1454.464478 551.645630,1454.464478 554.678040,1441.602051 
	C557.776184,1440.126709 561.062927,1438.561646 565.485168,1436.455688 
	C565.278748,1432.607788 565.038269,1428.125122 564.763245,1422.998291 
	C568.179993,1421.174927 571.135925,1420.522583 571.783875,1426.252563 
	C571.858276,1426.910278 571.789429,1427.582764 571.832153,1428.245605 
	C572.039246,1431.456299 572.964722,1434.468628 576.630432,1434.787354 
	C580.094727,1435.088501 582.115906,1432.940430 583.377136,1428.310181 
	C586.010925,1425.018799 588.419373,1422.881592 583.662598,1419.748047 
	C582.960205,1422.696289 582.405334,1425.025635 581.850464,1427.354736 
	C580.501099,1427.036255 578.394043,1427.155518 577.918518,1426.332275 
	C572.564392,1417.064087 572.106262,1407.899170 579.192627,1399.136963 
	C579.798523,1398.387817 580.145203,1397.429077 581.163147,1396.134033 
z"/>
<path 
	data-name="Bali"
fill="#4E944B" opacity="1.000000" stroke="none" 
	d="
M668.761841,1893.771240 
	C671.844055,1895.550781 673.961243,1897.835693 676.577393,1898.972412 
	C694.450623,1906.739136 707.401001,1919.536743 715.857300,1936.936646 
	C717.116638,1939.528198 718.117737,1942.649048 717.962646,1945.454590 
	C717.269043,1957.999878 721.005188,1969.875000 723.798889,1981.722778 
	C728.294067,2000.786743 734.027710,2019.584961 739.905701,2038.285645 
	C742.986633,2048.087646 747.236206,2057.555420 751.431030,2066.962891 
	C754.468750,2073.775635 756.810303,2080.562256 756.003540,2088.971436 
	C753.418945,2101.354492 748.527161,2112.924072 748.690186,2124.422119 
	C748.893188,2138.739258 744.478149,2150.772705 736.774719,2161.484375 
	C721.460266,2182.779785 705.257019,2203.460205 688.852112,2223.938965 
	C677.591248,2237.996338 661.466553,2245.904541 646.258057,2254.761230 
	C630.454163,2263.964600 614.432373,2272.792969 598.540527,2281.846436 
	C596.533936,2282.989746 594.515747,2284.275879 592.880371,2285.880371 
	C583.893677,2294.697510 575.479858,2304.167969 565.930664,2312.313721 
	C560.844788,2316.651611 553.986755,2319.050049 547.695984,2321.789307 
	C543.523560,2323.606445 538.663513,2323.905518 534.586975,2325.870850 
	C517.822754,2333.953125 501.307373,2342.551514 484.540802,2350.628662 
	C480.779480,2352.440674 476.398041,2353.022705 472.252869,2353.951660 
	C470.662628,2354.307861 468.895203,2354.298340 467.276245,2354.036621 
	C448.353760,2350.974854 431.888092,2357.095215 416.752197,2367.739502 
	C412.718689,2370.576172 408.928711,2373.953369 405.653320,2377.638672 
	C394.285645,2390.429932 379.892303,2397.363770 363.290131,2399.962402 
	C355.580383,2401.168945 348.817322,2403.906982 342.346008,2408.347412 
	C330.306213,2416.608398 317.830627,2424.234375 304.819092,2432.130859 
	C301.614594,2427.892334 299.520020,2423.349121 296.563263,2419.461670 
	C289.139282,2409.701172 280.655975,2400.669189 278.004578,2390.385498 
	C266.193481,2385.865479 255.738159,2382.586670 245.942902,2377.921631 
	C235.145340,2372.779785 228.368195,2364.252930 227.656586,2351.485352 
	C227.110382,2341.685303 223.623413,2339.925537 214.694366,2343.847656 
	C213.475937,2344.382568 212.284531,2344.982910 211.099487,2345.589844 
	C202.740067,2349.870361 194.837799,2349.213867 188.179184,2342.505371 
	C183.312027,2337.602051 177.829391,2335.715332 171.097458,2336.195557 
	C159.959702,2336.990234 153.410965,2330.254883 150.338562,2320.936768 
	C145.560471,2306.446045 138.639557,2293.608887 128.117523,2282.491699 
	C122.018982,2276.047852 123.479218,2267.512695 124.373817,2259.651611 
	C124.545280,2258.145020 128.138382,2256.435059 130.415680,2255.861572 
	C141.695786,2253.018799 141.729797,2253.142090 141.753448,2241.176270 
	C141.762543,2236.574707 141.754929,2231.973145 141.754929,2226.726318 
	C150.917023,2226.601562 158.033386,2218.899902 167.260513,2223.782715 
	C171.522522,2217.207764 175.744171,2210.568848 180.115326,2204.029785 
	C181.392151,2202.119873 182.924759,2200.304688 184.634445,2198.774902 
	C189.263290,2194.633789 193.100220,2194.617920 197.831390,2198.530518 
	C200.293427,2200.566895 202.670609,2202.705811 205.432510,2205.098145 
	C207.585541,2203.054443 208.763428,2201.241699 210.417145,2200.521240 
	C213.246475,2199.289062 216.930893,2197.283936 219.271423,2198.178955 
	C226.295715,2200.864502 233.774734,2203.712646 239.348618,2208.506104 
	C246.723389,2214.848389 254.097809,2217.531738 262.932556,2213.904541 
	C271.732391,2210.292236 279.119965,2213.020020 286.486938,2217.389893 
	C290.605621,2219.833008 293.533722,2223.066162 295.137604,2227.816162 
	C297.721100,2235.467285 301.764221,2242.279053 309.340698,2247.015381 
	C310.082001,2245.400391 311.095276,2244.036377 311.330536,2242.549561 
	C313.754303,2227.231689 322.127563,2215.649902 334.119385,2206.469482 
	C344.290710,2198.682617 351.686951,2189.328857 353.070251,2176.125488 
	C353.173401,2175.141113 353.836334,2174.078125 353.610413,2173.216553 
	C349.016907,2155.696777 351.230133,2136.187012 337.146057,2121.391357 
	C332.508118,2116.518799 329.776917,2109.621094 326.921997,2103.311035 
	C322.677063,2093.928223 319.083344,2084.250244 315.238556,2074.687500 
	C312.117676,2066.925293 313.096466,2063.695557 320.002563,2058.670166 
	C324.843872,2055.147217 330.133850,2052.093506 334.432892,2048.000000 
	C347.325012,2035.724487 362.995758,2034.880127 379.156860,2036.793457 
	C392.425415,2038.364258 394.071381,2037.490479 396.257233,2024.512817 
	C399.392517,2005.898315 402.747742,1987.320801 406.105774,1968.176392 
	C412.595642,1966.815308 418.684692,1965.454468 424.808258,1964.272217 
	C435.562866,1962.196045 446.285431,1959.847656 457.122437,1958.338745 
	C465.603607,1957.157959 472.737732,1954.242798 479.410004,1948.631348 
	C493.144684,1937.080322 507.450348,1926.200684 521.680908,1915.252686 
	C525.029968,1912.676025 528.859253,1910.573486 532.738342,1908.868774 
	C539.735840,1905.793701 546.969849,1903.262085 554.047546,1900.362915 
	C571.141602,1893.360840 589.525208,1892.037354 607.326721,1888.154785 
	C610.569702,1887.447510 613.921753,1887.130737 617.080566,1886.166016 
	C630.505554,1882.065430 643.239136,1884.077271 655.766052,1889.783447 
	C659.649109,1891.552124 663.929321,1892.449097 668.761841,1893.771240 
z"/>
<path 
	data-name="Bamenda I"
fill="#8A4638" opacity="1.000000" stroke="none" 
	d="
M1076.662842,2077.846191 
	C1073.942627,2059.774414 1071.960449,2041.638916 1070.008301,2023.500000 
	C1069.795166,2021.518799 1070.048706,2019.448608 1069.588623,2017.539429 
	C1066.874756,2006.273804 1068.398438,1995.175293 1070.137451,1983.946533 
	C1072.927002,1965.935059 1075.030396,1947.818237 1077.657715,1929.780029 
	C1078.267334,1925.594604 1079.302734,1921.315552 1081.021606,1917.472900 
	C1092.551514,1891.696899 1104.318970,1866.027222 1116.857178,1839.384766 
	C1119.459595,1837.494995 1121.270630,1836.633545 1122.960693,1835.578613 
	C1153.280029,1816.654785 1184.693848,1800.163452 1219.771484,1791.736572 
	C1221.693848,1791.274902 1223.481934,1790.274048 1225.355225,1789.585938 
	C1247.827637,1781.330566 1270.362061,1773.238770 1292.746948,1764.752563 
	C1299.967163,1762.015259 1306.735352,1762.145874 1314.067627,1764.210938 
	C1339.012085,1771.237183 1363.945557,1778.023193 1389.912231,1780.954224 
	C1402.959595,1782.426758 1415.512573,1782.870850 1428.247681,1780.145508 
	C1427.047119,1783.228882 1425.874634,1786.323730 1424.639526,1789.393188 
	C1422.581543,1794.507324 1421.149170,1799.524536 1425.614502,1804.252075 
	C1426.494873,1805.184326 1427.310303,1806.476318 1427.511230,1807.707520 
	C1430.477783,1825.885742 1443.883179,1837.672607 1454.367920,1851.147827 
	C1457.606201,1855.309814 1459.122681,1858.566040 1458.864014,1864.263062 
	C1457.943604,1884.529175 1457.986084,1904.865356 1458.505005,1925.153564 
	C1458.652344,1930.908325 1461.348511,1936.715820 1463.549561,1942.230225 
	C1464.232788,1943.941895 1467.037231,1944.968018 1469.042358,1945.960815 
	C1474.994385,1948.907593 1480.917114,1951.965454 1487.064819,1954.452026 
	C1495.040405,1957.678101 1503.038086,1961.183716 1511.363159,1963.123291 
	C1520.794434,1965.320435 1530.109009,1967.278809 1538.596191,1972.250854 
	C1540.720825,1973.495361 1543.610840,1973.432861 1546.916016,1973.874268 
	C1549.146851,1979.218018 1550.516602,1984.686035 1552.096069,1990.092896 
	C1554.546509,1998.481201 1558.591187,2005.586670 1564.981812,2012.071533 
	C1572.169556,2019.365234 1579.727539,2025.124268 1589.402344,2028.280640 
	C1594.088745,2029.809814 1596.429443,2033.192627 1595.761719,2038.216919 
	C1594.642090,2046.642578 1598.558472,2053.871094 1601.622192,2061.110352 
	C1604.513550,2067.942139 1610.416504,2072.266846 1618.021240,2072.049072 
	C1625.061035,2071.847656 1631.008301,2073.264893 1636.315674,2077.992920 
	C1638.247192,2079.713623 1640.832886,2080.920166 1643.323364,2081.755615 
	C1655.268311,2085.762939 1667.294434,2089.471680 1677.792603,2096.862305 
	C1679.510986,2098.072021 1682.257080,2097.769043 1684.495361,2098.302979 
	C1690.196289,2099.662598 1691.283691,2103.337158 1687.031006,2107.476074 
	C1684.662231,2109.781494 1681.947266,2111.769287 1679.224609,2113.665039 
	C1672.599976,2118.277832 1669.942139,2124.842773 1670.299438,2132.552490 
	C1670.666748,2140.481201 1670.615356,2148.651855 1672.589600,2156.236816 
	C1676.652100,2171.846680 1673.374268,2186.297119 1665.874390,2199.450439 
	C1661.512939,2207.099854 1659.053467,2214.308838 1659.636475,2223.762695 
	C1642.087158,2214.447021 1624.104004,2204.942871 1607.214966,2193.782227 
	C1577.220215,2173.961426 1547.958862,2153.033447 1518.210205,2132.834717 
	C1513.340698,2129.528320 1507.764404,2126.868652 1502.135986,2125.151611 
	C1487.538574,2120.698486 1472.823730,2116.535645 1457.965088,2113.076416 
	C1450.913818,2111.434814 1443.438110,2111.401123 1436.135620,2111.096436 
	C1416.297363,2110.268555 1397.730835,2103.464600 1378.617310,2099.230957 
	C1375.394409,2098.517090 1372.029785,2097.607910 1368.809570,2097.847656 
	C1341.893555,2099.853027 1315.901245,2093.626709 1289.651611,2089.475342 
	C1275.879517,2087.297119 1261.996948,2085.752441 1248.126221,2084.280029 
	C1232.589966,2082.631104 1216.988281,2081.588135 1201.465332,2079.834717 
	C1197.303467,2079.364990 1193.280273,2077.389893 1189.270264,2075.898682 
	C1159.766602,2064.928467 1129.722656,2063.063965 1099.204468,2070.791260 
	C1091.822754,2072.660156 1084.668335,2075.427246 1076.662842,2077.846191 
z"/>
<path 
	data-name="Bamenda III"
fill="#F75ED1" opacity="1.000000" stroke="none" 
	d="
M1428.736572,1779.671875 
	C1415.512573,1782.870850 1402.959595,1782.426758 1389.912231,1780.954224 
	C1363.945557,1778.023193 1339.012085,1771.237183 1314.067627,1764.210938 
	C1306.735352,1762.145874 1299.967163,1762.015259 1292.746948,1764.752563 
	C1270.362061,1773.238770 1247.827637,1781.330566 1225.355225,1789.585938 
	C1223.481934,1790.274048 1221.693848,1791.274902 1219.771484,1791.736572 
	C1184.693848,1800.163452 1153.280029,1816.654785 1122.960693,1835.578613 
	C1121.270630,1836.633545 1119.459595,1837.494995 1117.032715,1838.716797 
	C1107.703979,1827.188843 1098.544067,1815.717896 1090.577759,1803.470581 
	C1085.740479,1796.033813 1082.458130,1787.519287 1078.982056,1779.276123 
	C1069.680908,1757.219604 1060.481934,1735.115723 1051.642822,1712.871460 
	C1049.609253,1707.753662 1048.279785,1702.016479 1048.161377,1696.531128 
	C1047.300293,1656.627930 1046.327271,1616.714478 1046.471802,1576.808105 
	C1046.535278,1559.287354 1044.485840,1542.546143 1039.021851,1525.905640 
	C1032.597534,1506.340088 1027.209229,1486.433960 1021.421936,1466.660767 
	C1020.678894,1464.122070 1020.237488,1461.495117 1019.716187,1458.029785 
	C1029.607422,1460.177368 1039.563599,1462.855713 1049.239136,1466.318237 
	C1061.633301,1470.753296 1074.385742,1471.718262 1087.381104,1472.382935 
	C1110.546509,1473.567383 1133.664185,1475.661377 1156.819092,1477.096924 
	C1161.018311,1477.357178 1165.496826,1476.934448 1169.508179,1475.714600 
	C1183.589355,1471.432617 1197.747803,1473.940308 1211.890259,1474.568604 
	C1217.510986,1474.818115 1223.124023,1475.734131 1228.733032,1475.671387 
	C1259.089844,1475.331787 1288.895142,1479.680176 1319.321289,1485.798828 
	C1326.488525,1492.062500 1332.868042,1498.304077 1339.194336,1504.599121 
	C1343.352539,1508.736572 1348.444824,1512.089966 1348.472046,1519.191772 
	C1348.479126,1521.033203 1351.440674,1523.401978 1353.567749,1524.603882 
	C1363.031860,1529.952393 1370.699585,1536.710938 1375.894897,1546.617554 
	C1378.234741,1551.079346 1382.857666,1554.521973 1386.907715,1557.866455 
	C1392.703979,1562.653198 1396.968262,1567.757324 1398.494507,1575.677002 
	C1400.233765,1584.702148 1402.848267,1593.838135 1409.423950,1600.963745 
	C1414.875122,1606.870972 1416.915405,1614.154419 1417.710205,1621.802734 
	C1418.790527,1632.200562 1421.656250,1641.986328 1426.677979,1651.124146 
	C1435.190552,1666.613770 1437.612061,1683.676147 1439.723145,1700.837036 
	C1440.005371,1703.130249 1440.005859,1705.701416 1441.079102,1707.615356 
	C1449.154053,1722.016602 1446.379150,1736.746826 1441.759399,1751.062744 
	C1438.624390,1760.777710 1433.474243,1769.842651 1428.736572,1779.671875 
z"/>

<path 
	data-name="Santa"
fill="#265051" opacity="1.000000" stroke="none" 
	d="
M582.072998,1427.742554 
	C582.405334,1425.025635 582.960205,1422.696289 583.662598,1419.748047 
	C588.419373,1422.881592 586.010925,1425.018799 583.667603,1427.501221 
	C583.138733,1427.832764 582.295532,1428.130249 582.072998,1427.742554 
z"/>
</svg>