<svg version="1.1" id="Layer_1" xmlns="http://www.w3.org/2000/svg" xmlns:xlink="http://www.w3.org/1999/xlink" x="0px" y="0px"
	 width="100%" viewBox="0 0 2217 2838" enable-background="new 0 0 2217 2838" xml:space="preserve">
<path 
	data-name="Banyo"
fill="#FA5CFA" opacity="1.000000" stroke="none" 
	d="
M2220.000000,692.000000 
	C2220.000000,700.713806 2220.000000,709.427612 2219.368408,718.548462 
	C2215.097656,726.353271 2211.592285,733.820862 2207.783447,741.130188 
	C2203.497803,749.354492 2201.171387,757.552612 2205.513184,766.594360 
	C2206.454834,768.554932 2206.745117,771.397217 2206.086670,773.428467 
	C2205.007324,776.757385 2203.681885,781.264893 2201.084229,782.601868 
	C2193.942139,786.277588 2186.256348,789.292175 2178.446777,791.122131 
	C2173.940918,792.178040 2170.343506,793.562683 2167.523682,797.019531 
	C2159.752686,806.547302 2152.628418,816.688965 2144.143555,825.527039 
	C2132.528564,837.625488 2121.782227,843.674988 2108.963135,833.604248 
	C2107.480957,832.439941 2105.169678,832.331604 2102.653564,831.550781 
	C2103.521484,837.592102 2103.808838,842.537903 2105.011963,847.250061 
	C2106.642578,853.637817 2105.306885,858.790405 2101.094971,863.836609 
	C2097.165771,868.544189 2093.996338,873.886108 2089.998779,879.661743 
	C2099.979492,884.556274 2100.363770,892.720825 2099.713623,901.389526 
	C2099.390381,905.699951 2099.392090,910.046204 2099.481689,914.371399 
	C2099.526855,916.558716 2099.327148,919.420959 2100.558105,920.798889 
	C2106.089844,926.990784 2107.052002,934.230957 2105.933594,941.813416 
	C2112.990967,945.374573 2119.473389,948.645569 2126.675049,952.279419 
	C2126.049072,956.461975 2126.843994,961.647461 2124.640625,963.899719 
	C2118.116211,970.568542 2117.637451,979.562744 2113.969238,987.245789 
	C2109.393555,996.829407 2109.089111,1006.706238 2113.018066,1017.142151 
	C2116.348145,1025.986938 2117.620850,1035.606323 2119.909912,1045.333740 
	C2118.113037,1045.746216 2116.885498,1046.263062 2115.654541,1046.271729 
	C2108.437500,1046.322388 2103.883789,1050.114624 2101.048828,1056.413696 
	C2098.460205,1062.165039 2096.129883,1068.047241 2093.262207,1073.655151 
	C2088.173096,1083.606934 2083.177734,1093.653809 2077.266846,1103.113281 
	C2075.151611,1106.498901 2070.780518,1109.066162 2066.884521,1110.492676 
	C2064.999512,1111.182983 2061.852539,1108.327271 2059.234863,1107.172729 
	C2058.354492,1106.784424 2057.204102,1106.270508 2056.416748,1106.532837 
	C2052.222168,1107.929810 2050.502686,1104.911255 2048.315918,1102.425415 
	C2043.333984,1096.761963 2038.234863,1091.201782 2033.822021,1086.307861 
	C2019.986572,1093.937988 2007.158081,1100.880737 1994.466064,1108.064453 
	C1987.559570,1111.973633 1980.237427,1115.535889 1974.282959,1120.633179 
	C1968.024048,1125.990845 1961.739502,1128.428467 1953.593750,1127.851807 
	C1949.841553,1127.586182 1945.687256,1128.743408 1942.179321,1130.300659 
	C1937.216187,1132.504028 1932.629517,1132.309082 1927.842285,1130.377930 
	C1926.250000,1129.735718 1924.665771,1129.074097 1921.819214,1127.903931 
	C1924.810547,1139.031128 1927.546387,1148.545532 1929.875732,1158.158447 
	C1931.000610,1162.800903 1933.519287,1163.863159 1937.820801,1162.966187 
	C1940.827881,1162.338989 1943.939331,1162.212769 1947.119019,1161.849609 
	C1948.357788,1169.284302 1949.380981,1175.424805 1950.362671,1181.316772 
	C1953.687256,1182.661621 1956.401123,1183.759521 1957.609985,1184.248535 
	C1961.445068,1194.758789 1964.826782,1204.020386 1968.203247,1213.283936 
	C1968.771851,1214.844360 1969.487549,1216.375366 1969.844116,1217.984497 
	C1971.186646,1224.043335 1969.214600,1226.191406 1962.686768,1226.389282 
	C1956.078247,1226.589478 1949.412231,1226.561890 1942.886963,1227.466919 
	C1932.370117,1228.925781 1925.193970,1236.197021 1918.247925,1243.360962 
	C1914.479614,1247.247803 1910.568115,1250.258179 1905.256104,1251.912354 
	C1894.404785,1255.291992 1884.043701,1259.568481 1877.968506,1270.363403 
	C1876.394043,1273.161011 1873.528809,1275.327393 1870.992188,1277.471313 
	C1862.903198,1284.307739 1856.861938,1292.434692 1854.800537,1303.003418 
	C1853.938599,1307.422119 1851.430664,1309.706055 1847.451782,1311.551880 
	C1842.767456,1313.724976 1838.528442,1316.857910 1833.998413,1319.634644 
	C1834.733765,1322.282837 1834.799927,1324.080811 1835.660645,1325.332642 
	C1838.406616,1329.326660 1841.447632,1333.117920 1844.537476,1337.202637 
	C1841.963989,1341.133301 1840.138916,1345.777710 1836.771240,1348.543823 
	C1833.374268,1351.334106 1833.017578,1356.754028 1827.298340,1357.644165 
	C1820.942139,1358.633545 1826.156250,1366.891357 1821.906006,1368.918091 
	C1815.370972,1372.034546 1817.581177,1377.930054 1816.462646,1382.681274 
	C1815.584839,1386.410034 1815.745728,1390.383423 1815.413330,1394.656860 
	C1816.592407,1395.015625 1818.225220,1395.013550 1818.951782,1395.823853 
	C1821.480835,1398.645630 1823.347778,1402.136597 1826.129517,1404.634766 
	C1828.864136,1407.091064 1832.567261,1408.434814 1835.537720,1410.674805 
	C1837.523315,1412.171631 1838.705811,1414.743530 1840.705688,1416.209473 
	C1848.635254,1422.021362 1848.702026,1421.930176 1845.088867,1431.382568 
	C1843.190674,1436.348389 1848.010010,1450.303223 1852.872681,1452.118896 
	C1861.213501,1455.233276 1869.804810,1457.678101 1878.297607,1460.383545 
	C1880.965088,1461.233398 1883.653809,1462.016602 1887.148926,1463.078247 
	C1879.724731,1472.801392 1887.927612,1476.254150 1893.263306,1480.376587 
	C1886.772339,1497.394409 1888.681763,1503.394531 1903.846313,1512.570435 
	C1910.619629,1503.197144 1919.731567,1498.337524 1931.825806,1501.608276 
	C1933.533569,1507.139648 1931.038452,1509.689941 1925.701660,1510.315186 
	C1925.558960,1510.331787 1925.514282,1511.185303 1925.417969,1511.678955 
	C1928.036377,1511.946411 1930.536743,1512.201782 1934.491577,1512.605713 
	C1932.999146,1517.204102 1931.796509,1520.909302 1930.600830,1524.593262 
	C1938.648682,1529.009399 1944.408691,1537.101562 1953.936157,1539.456543 
	C1955.614014,1539.871094 1956.933105,1541.737183 1958.246826,1542.795166 
	C1957.641602,1545.152588 1957.181274,1546.945801 1956.620117,1549.131226 
	C1967.114990,1553.500488 1977.074341,1557.646729 1987.129517,1561.832886 
	C1984.548218,1563.735718 1981.971680,1565.634888 1979.574463,1567.401978 
	C1982.856323,1571.410400 1984.704590,1573.667969 1985.783691,1574.985962 
	C1980.339722,1581.952271 1975.409058,1588.261719 1969.497192,1595.826782 
	C1977.300293,1594.587158 1980.372192,1597.399170 1979.564819,1604.059814 
	C1982.353027,1602.070679 1984.332031,1600.658813 1987.435791,1598.444580 
	C1988.889404,1609.885498 1997.317749,1613.358765 2005.197388,1617.452881 
	C2006.945068,1618.360962 2008.753418,1619.380615 2010.110840,1620.764038 
	C2013.091675,1623.801636 2015.802002,1627.104614 2019.801270,1631.634399 
	C2025.751831,1631.698608 2033.488647,1637.306885 2041.856934,1632.451782 
	C2042.683472,1631.972168 2044.291870,1632.840576 2046.012817,1633.175781 
	C2045.282715,1640.678833 2048.740234,1645.311157 2054.778564,1647.530518 
	C2064.760254,1641.960693 2074.443115,1637.380737 2088.434570,1640.190430 
	C2077.601562,1645.967163 2090.874756,1651.598511 2084.875244,1657.404419 
	C2093.987549,1664.282349 2102.648682,1670.819702 2111.998047,1677.876587 
	C2111.998047,1679.963989 2111.998047,1683.137939 2111.998047,1686.696777 
	C2115.349854,1687.322998 2118.165283,1687.848999 2121.038574,1688.385742 
	C2121.401123,1693.483887 2121.743408,1698.296631 2122.067627,1702.856934 
	C2135.362793,1706.115356 2137.909668,1711.848511 2130.309326,1721.074829 
	C2127.123535,1718.074097 2123.964844,1715.098633 2120.063965,1711.424316 
	C2117.576416,1717.979614 2115.494629,1723.466431 2113.463623,1728.818481 
	C2110.433105,1729.487183 2107.301758,1729.342163 2105.469971,1730.814331 
	C2103.589844,1732.325562 2102.979492,1735.416992 2101.428955,1738.607666 
	C2092.003662,1735.622803 2084.687256,1738.878418 2078.845459,1747.640503 
	C2076.118408,1751.731079 2075.292725,1753.791626 2078.841797,1757.688599 
	C2083.584961,1762.896118 2082.951416,1764.098877 2076.939209,1768.792114 
	C2075.187012,1770.160034 2073.946533,1772.183594 2072.146973,1774.285645 
	C2072.989258,1776.527100 2073.386475,1779.347168 2074.906738,1781.286987 
	C2078.902832,1786.385986 2078.582520,1790.734741 2074.367188,1795.539673 
	C2073.085205,1797.000732 2072.375000,1800.079834 2072.985107,1801.882202 
	C2075.103027,1808.138306 2071.500244,1809.881226 2066.403809,1810.891968 
	C2067.491455,1812.502686 2068.386963,1813.829102 2069.314209,1815.202271 
	C2066.913574,1816.395508 2064.373535,1817.324219 2062.206299,1818.800659 
	C2056.715820,1822.541016 2056.604492,1827.148193 2061.635254,1831.697876 
	C2063.353760,1833.251953 2065.221191,1834.707397 2066.619873,1836.517700 
	C2067.234619,1837.313354 2067.373047,1839.420654 2066.798584,1839.982544 
	C2065.817139,1840.942505 2063.152100,1841.937500 2062.841797,1841.560791 
	C2058.929199,1836.811401 2054.625488,1840.034790 2050.232910,1841.291626 
	C2049.035400,1838.828125 2048.316406,1836.578735 2046.954956,1834.829468 
	C2046.096680,1833.726562 2044.277588,1833.371460 2042.889404,1832.680908 
	C2042.257080,1834.286743 2041.276611,1835.848389 2041.066284,1837.507812 
	C2040.649780,1840.791016 2040.658813,1844.128418 2040.464966,1847.984619 
	C2042.814575,1849.905396 2045.571533,1852.159180 2048.508789,1854.560303 
	C2047.452637,1858.712891 2050.799072,1864.334473 2045.238770,1866.208496 
	C2039.909546,1868.004517 2037.804077,1872.114990 2035.244751,1876.336670 
	C2028.733398,1874.110962 2026.425537,1865.601562 2018.084717,1866.154663 
	C2019.180298,1873.827881 2017.929932,1880.799316 2009.847046,1883.329590 
	C2004.602783,1884.971313 2002.233398,1888.296021 2000.809570,1892.931763 
	C1999.666870,1896.651978 1998.218994,1899.596680 1993.525879,1899.774658 
	C1988.888184,1899.950806 1986.757690,1903.531250 1985.185181,1907.370850 
	C1984.264648,1909.618286 1983.494019,1911.926880 1981.976807,1916.056396 
	C1980.032227,1911.658813 1979.223389,1908.919312 1977.709717,1906.649658 
	C1976.024658,1904.122559 1972.145386,1902.943359 1971.357178,1906.055786 
	C1969.080444,1915.047485 1961.047852,1919.384033 1956.544922,1926.333496 
	C1957.819580,1928.529785 1959.028809,1930.613281 1960.265015,1932.743286 
	C1952.590698,1936.879517 1945.351196,1940.269531 1938.666992,1944.530640 
	C1932.201660,1948.652100 1926.308350,1953.670532 1919.197388,1959.022461 
	C1925.747314,1962.465210 1925.830566,1969.101318 1926.003418,1975.778931 
	C1926.035156,1977.005005 1926.978027,1978.213379 1927.524170,1979.419067 
	C1930.815063,1986.683960 1934.126953,1993.939575 1937.399414,2001.212769 
	C1938.347290,2003.319336 1940.514893,2006.089966 1939.858032,2007.503906 
	C1936.280273,2015.205444 1941.404785,2019.068237 1945.905518,2022.730957 
	C1945.264282,2026.729248 1944.711182,2030.177490 1944.235107,2033.146240 
	C1945.626953,2034.177124 1946.228149,2034.972412 1946.669556,2034.892090 
	C1949.357422,2034.401978 1952.398804,2033.663940 1953.372314,2037.045288 
	C1954.326294,2040.358276 1951.621826,2041.634033 1948.883545,2042.453247 
	C1943.758911,2043.986328 1940.430786,2047.262085 1938.480835,2052.322021 
	C1937.944336,2053.713867 1935.790527,2055.008789 1934.201904,2055.269531 
	C1933.259155,2055.424316 1931.477417,2053.666260 1930.982056,2052.409912 
	C1930.525513,2051.252197 1931.283936,2049.615234 1931.244507,2049.866455 
	C1922.999878,2040.848267 1914.526489,2046.130371 1906.168213,2046.238647 
	C1907.072754,2050.204346 1907.860107,2053.655518 1908.313477,2055.643066 
	C1913.993896,2058.165039 1919.124512,2059.315186 1922.729980,2062.304688 
	C1928.288330,2066.913330 1933.134399,2072.515869 1937.675415,2078.183350 
	C1943.486450,2085.436035 1945.435913,2095.467041 1954.010864,2100.883789 
	C1955.051758,2101.541260 1954.903442,2104.081543 1955.272095,2105.607422 
	C1954.203979,2106.066406 1953.898804,2106.310059 1953.591431,2106.313232 
	C1944.649292,2106.402832 1935.087891,2103.300537 1927.703125,2111.422119 
	C1927.377197,2111.780762 1926.377319,2111.939941 1925.932739,2111.714844 
	C1920.003662,2108.712646 1916.738525,2112.900879 1913.121582,2116.308350 
	C1907.268433,2121.822754 1900.102417,2124.576660 1892.261475,2123.927734 
	C1887.268066,2123.514404 1884.173340,2125.295166 1880.835571,2128.416260 
	C1878.862061,2130.261719 1875.993530,2131.888916 1873.369751,2132.177002 
	C1859.286011,2133.722412 1845.103760,2134.667480 1831.857544,2140.307617 
	C1826.446045,2142.611816 1821.246216,2145.409912 1815.925659,2147.931885 
	C1804.992188,2153.114502 1804.231445,2155.788330 1810.753296,2167.087402 
	C1813.807983,2166.614502 1816.964233,2166.125488 1820.751221,2165.539062 
	C1822.313232,2176.436768 1830.775635,2177.409180 1838.293213,2178.412109 
	C1844.276245,2185.122070 1842.702515,2191.054443 1837.677124,2196.610352 
	C1833.246826,2201.508545 1828.646484,2206.253174 1824.050903,2211.140625 
	C1827.055542,2214.272949 1830.153931,2217.518555 1825.008057,2220.960693 
	C1820.834229,2223.752441 1816.308594,2226.018066 1812.169556,2228.385498 
	C1814.400391,2238.188721 1811.234131,2245.094482 1802.577515,2247.631592 
	C1798.734497,2248.758057 1793.680542,2248.389160 1790.043457,2246.760986 
	C1787.051880,2245.422119 1785.340576,2241.222168 1782.064331,2237.006836 
	C1776.169678,2237.897217 1769.229980,2238.365967 1762.613281,2240.081055 
	C1752.734985,2242.641846 1743.107910,2245.649902 1732.632690,2243.804688 
	C1728.790527,2243.127930 1724.364868,2243.077148 1720.755493,2244.327881 
	C1713.343018,2246.895996 1702.844971,2246.001221 1703.038208,2258.693359 
	C1703.093750,2262.336182 1699.546387,2263.054688 1696.191772,2261.496094 
	C1692.077026,2259.583740 1687.950806,2257.696533 1685.419556,2256.531006 
	C1677.899536,2259.669922 1671.966431,2262.146484 1665.437622,2264.871826 
	C1670.278198,2274.627930 1667.022461,2283.432617 1661.556641,2291.941406 
	C1665.106079,2294.144287 1667.764038,2295.793945 1670.876587,2297.725586 
	C1667.778076,2302.678955 1666.024170,2307.531738 1665.194214,2313.259033 
	C1663.411133,2325.562744 1649.110596,2330.477295 1638.755493,2323.310791 
	C1637.463745,2322.416992 1636.205688,2321.473877 1635.041382,2320.632812 
	C1631.127686,2324.665527 1639.943237,2331.100098 1632.147949,2334.327881 
	C1619.309570,2313.895020 1604.085938,2312.237061 1588.587158,2323.674072 
	C1591.333374,2332.427979 1587.051392,2345.838623 1579.740967,2350.982910 
	C1575.517334,2353.955078 1571.228516,2356.490723 1566.280884,2351.964111 
	C1565.187866,2350.963867 1563.308716,2350.764893 1561.752930,2350.336914 
	C1548.445801,2346.678711 1536.609863,2354.926758 1523.757690,2355.152100 
	C1522.738525,2355.170166 1521.847534,2356.943604 1520.718262,2357.587646 
	C1519.115234,2358.501953 1517.346069,2359.125000 1515.647827,2359.872559 
	C1514.926270,2357.955078 1513.715576,2356.074219 1513.570190,2354.114014 
	C1513.029175,2346.817383 1511.156738,2344.617676 1504.120239,2344.362305 
	C1499.460205,2344.193115 1494.536377,2343.385010 1490.180664,2344.548340 
	C1483.254639,2346.398438 1475.250122,2348.104736 1470.352905,2352.698242 
	C1463.838013,2358.809082 1456.801025,2362.806152 1449.134155,2365.178467 
	C1447.042114,2372.083008 1445.152466,2378.319336 1443.142822,2384.952393 
	C1440.190674,2384.136230 1437.998291,2384.084473 1436.531616,2383.026611 
	C1430.828003,2378.913330 1424.383545,2378.685791 1418.365479,2380.669922 
	C1412.364014,2382.648193 1408.946899,2380.474609 1406.081055,2375.468750 
	C1406.978882,2372.915527 1408.222534,2370.972412 1408.021851,2369.192383 
	C1406.577271,2356.382080 1391.875122,2348.702393 1380.372314,2354.617432 
	C1377.714355,2355.984375 1375.194458,2357.617188 1372.579712,2359.071045 
	C1369.493286,2360.787109 1366.373047,2362.442383 1364.556274,2363.426270 
	C1356.039185,2358.500000 1348.934204,2354.390625 1341.659790,2350.183350 
	C1336.934937,2353.105469 1332.523926,2355.833252 1328.166992,2358.527588 
	C1325.314697,2356.199707 1323.037598,2354.341309 1320.498901,2352.269287 
	C1313.221558,2356.197021 1307.837402,2353.215820 1303.046753,2347.666504 
	C1295.479492,2338.901123 1287.673096,2330.340088 1280.218994,2321.480957 
	C1278.870850,2319.878662 1278.513672,2317.305420 1278.064819,2315.105713 
	C1274.915527,2299.666992 1271.861938,2284.208740 1268.729126,2268.512695 
	C1255.925415,2267.923340 1254.633545,2256.582275 1249.154541,2249.318604 
	C1248.548950,2248.515869 1249.339722,2246.767578 1249.173096,2245.498535 
	C1248.965210,2243.916016 1248.818970,2242.123047 1247.984009,2240.858154 
	C1241.644531,2231.255127 1243.213501,2221.561035 1247.136963,2212.565674 
	C1244.933594,2208.197754 1243.108032,2204.337646 1241.068237,2200.594238 
	C1238.345581,2195.597900 1234.214233,2194.587891 1229.426392,2197.717529 
	C1228.049927,2198.617188 1226.979736,2199.970947 1225.677002,2201.000000 
	C1218.893188,2206.360107 1215.461426,2205.790283 1209.580444,2199.666016 
	C1206.730713,2196.698730 1203.059814,2193.302002 1199.316040,2192.648682 
	C1189.577393,2190.949951 1184.016479,2185.429932 1181.233887,2175.959961 
	C1216.791138,2101.612549 1251.926270,2027.980103 1287.063721,1954.348877 
	C1313.739380,1898.449341 1340.374146,1842.530273 1367.169312,1786.688232 
	C1369.609863,1781.601807 1370.177490,1777.011230 1368.739746,1771.417358 
	C1363.605957,1751.444580 1358.800903,1731.376221 1354.465576,1711.216309 
	C1353.197021,1705.317505 1350.283813,1702.105347 1345.236694,1699.343384 
	C1314.558838,1682.555542 1283.992554,1665.562012 1253.483765,1648.468384 
	C1247.410889,1645.065918 1241.394531,1641.377441 1235.953735,1637.062134 
	C1201.237671,1609.528687 1166.772949,1581.678345 1132.068237,1554.130615 
	C1072.841431,1507.117920 1013.527893,1460.213867 954.125000,1413.423950 
	C950.888245,1410.874390 946.666077,1408.998535 942.620789,1408.144897 
	C913.338989,1401.966431 883.984497,1396.131958 854.511841,1389.402832 
	C853.456238,1386.313843 853.158569,1382.702148 851.522034,1381.930420 
	C843.891357,1378.332642 843.227783,1371.519653 841.771912,1364.780884 
	C845.655518,1361.570557 849.136841,1358.692871 852.704651,1355.743652 
	C851.208069,1352.538452 850.727600,1349.276855 848.863464,1347.928955 
	C842.881104,1343.603271 842.590759,1337.652466 840.916565,1331.122314 
	C837.809753,1319.003784 842.648315,1310.817139 849.700989,1302.495850 
	C849.418945,1301.553833 849.184631,1300.604980 848.853516,1299.691284 
	C845.023193,1289.119873 844.936646,1288.931396 855.273010,1284.426636 
	C859.414734,1282.621460 861.073303,1280.432983 859.544128,1276.024902 
	C859.192627,1275.011597 859.717957,1273.694092 859.963196,1271.322998 
	C872.166870,1271.322998 883.957886,1271.322998 895.880737,1271.322998 
	C895.880737,1268.450684 896.303833,1266.684814 895.805908,1265.235474 
	C893.868164,1259.594849 896.396057,1256.234863 901.254456,1254.192749 
	C903.966187,1253.052734 906.877075,1252.177856 909.781860,1251.745361 
	C918.132202,1250.502197 921.992615,1244.111206 918.909119,1236.344238 
	C917.943726,1233.912598 916.531860,1231.412598 916.464294,1228.912964 
	C916.185120,1218.580444 912.470154,1209.663696 906.309570,1201.579956 
	C903.144958,1197.427368 900.030396,1193.236572 897.669373,1190.095703 
	C898.081726,1185.283203 899.923157,1180.550781 898.311646,1177.997925 
	C896.619812,1175.317993 891.619141,1174.726929 887.435242,1172.956909 
	C889.562866,1158.197388 892.337219,1144.041626 900.810425,1131.885864 
	C902.845886,1128.965820 907.238953,1127.668945 910.587097,1125.692017 
	C912.474915,1124.577515 915.466736,1124.062622 916.186768,1122.473511 
	C918.548889,1117.260254 922.918640,1116.737793 927.603516,1116.112427 
	C930.547302,1115.719238 933.571533,1115.197144 936.300842,1114.092896 
	C940.873352,1112.243286 942.365662,1108.407349 940.261414,1103.697144 
	C937.285217,1097.035156 933.980103,1090.514893 930.662903,1084.011963 
	C928.493103,1079.758423 925.048157,1077.789062 920.063721,1078.255737 
	C916.199219,1078.617432 912.273743,1078.327881 907.974365,1078.327881 
	C907.850159,1075.767700 907.820312,1073.822510 907.647583,1071.890015 
	C907.360840,1068.682861 908.799805,1059.834106 909.913391,1056.364868 
	C911.765564,1050.594360 912.897278,1044.821411 909.866028,1038.944702 
	C908.858704,1036.991821 908.017761,1034.469238 908.341919,1032.401733 
	C909.432068,1025.447876 905.717224,1023.001343 899.842773,1021.408447 
	C897.171387,1020.684204 893.522644,1018.905945 892.731812,1016.728699 
	C889.653442,1008.252747 883.070496,1007.664185 875.787048,1007.614685 
	C873.508972,1007.599182 871.244934,1006.873901 868.957153,1006.695557 
	C860.146790,1006.008362 856.587708,999.992676 854.632141,992.510742 
	C852.919373,985.957642 856.261108,981.343445 860.549133,976.771790 
	C866.873352,970.029053 872.728821,962.841736 878.682678,955.758606 
	C881.183533,952.783447 881.011169,949.734863 878.278809,946.855713 
	C876.055969,944.513550 873.913818,942.094727 871.282959,939.214050 
	C874.661926,934.689575 876.819580,929.359924 880.743530,927.107788 
	C886.912231,923.567200 889.561035,919.562744 887.425232,912.408813 
	C893.766846,909.897278 896.374817,905.448608 894.526489,897.820068 
	C901.577820,901.827271 905.612122,898.633972 908.212097,893.539307 
	C910.798889,888.470459 914.968201,887.409119 919.830383,887.742065 
	C923.714722,888.008118 927.558228,888.870361 929.659912,889.195679 
	C935.140564,887.756775 939.060242,885.887268 942.979736,885.887878 
	C949.511047,885.888794 955.437195,885.639709 959.979858,880.006897 
	C964.163086,874.819641 967.915466,869.702026 966.368835,862.442749 
	C965.611633,858.888855 965.068237,855.261230 964.790527,851.639160 
	C964.197937,843.908508 959.317993,836.457581 963.046387,828.795288 
	C966.126648,826.927185 968.919189,825.233582 971.666016,823.567749 
	C970.334412,820.334656 969.250732,817.703491 967.373718,813.146179 
	C972.286865,814.415344 975.554016,815.259277 978.727722,816.079102 
	C980.359070,813.461243 981.513245,809.133972 983.710388,808.516174 
	C992.717041,805.983887 996.346497,798.417725 1001.301941,792.385559 
	C998.014893,783.956970 995.847412,775.952454 997.447510,767.080200 
	C998.797302,759.595947 997.545105,752.489075 990.847290,747.348022 
	C989.520447,746.329529 988.847656,744.458923 986.474182,740.859680 
	C994.838074,743.443481 998.155762,739.875854 1001.174438,734.837341 
	C1003.109497,731.607422 1006.130615,727.539307 1009.318787,726.843628 
	C1017.152893,725.134155 1015.489319,719.933960 1014.541992,713.606812 
	C1019.636230,714.223938 1023.756592,714.833313 1027.898682,715.191406 
	C1031.458862,715.499084 1035.167114,716.179810 1038.594727,715.541138 
	C1048.187866,713.753540 1057.639282,711.704773 1067.036621,716.335205 
	C1068.964111,717.284973 1071.138062,717.735046 1073.166992,718.405029 
	C1080.261353,709.686768 1066.173950,705.883850 1069.914307,698.279602 
	C1078.310547,690.990967 1089.294067,698.203857 1097.310669,695.274841 
	C1099.062378,689.234619 1100.445435,684.465637 1101.689087,680.177002 
	C1103.832520,680.036133 1104.536865,679.812073 1105.134033,679.976807 
	C1116.618652,683.146301 1121.121826,678.675171 1118.336426,666.975464 
	C1117.743408,664.484619 1117.687012,661.866150 1117.426636,659.671387 
	C1126.286987,655.127197 1131.045898,645.114258 1141.717041,644.743408 
	C1142.193848,644.726746 1142.730347,643.898010 1143.087036,643.348877 
	C1145.904785,639.010071 1150.215698,638.056763 1154.996094,637.281860 
	C1158.012817,636.792847 1160.795044,634.698669 1163.617798,633.202759 
	C1171.605835,628.969360 1178.302246,621.344299 1188.902222,623.987000 
	C1190.097778,624.285095 1191.755493,622.729858 1193.528076,621.875366 
	C1192.653564,619.356079 1192.158081,617.079346 1191.120239,615.084717 
	C1186.521362,606.246643 1187.214966,603.269470 1195.274170,598.318359 
	C1197.799072,596.767151 1200.109131,594.159302 1202.796753,593.711731 
	C1211.014893,592.343384 1218.934937,589.381042 1226.947632,588.075073 
	C1242.875977,585.478821 1258.322144,591.840393 1274.056885,593.809265 
	C1275.643188,594.007812 1277.114502,595.038025 1278.667480,595.604431 
	C1288.557739,599.211792 1298.211060,602.999329 1309.295532,602.006165 
	C1320.807617,600.974792 1325.495850,598.186768 1329.129883,587.436768 
	C1329.947388,585.017944 1331.360107,582.703918 1332.902100,580.643616 
	C1338.326050,573.396545 1343.445068,566.450012 1340.593750,556.248901 
	C1338.912476,550.233948 1343.347900,546.024963 1349.480469,544.189087 
	C1354.381836,542.721863 1359.889038,540.926697 1363.333496,537.482971 
	C1368.812500,532.005005 1372.798096,525.033142 1377.629883,518.398499 
	C1382.831665,518.984314 1387.773682,520.042236 1391.743896,524.153442 
	C1393.273193,525.736938 1395.449951,527.429443 1397.491211,527.660156 
	C1407.596802,528.802307 1413.301270,536.877686 1420.421997,542.335510 
	C1428.061768,548.191162 1427.448242,548.983704 1434.983887,542.612000 
	C1435.487061,542.186584 1436.140381,541.938171 1436.641113,541.510498 
	C1443.332031,535.794678 1443.445190,533.770142 1437.512817,526.900391 
	C1436.656006,525.908264 1435.832642,524.887390 1434.811890,523.661438 
	C1436.770020,515.358337 1443.656372,511.943817 1449.593994,507.416718 
	C1452.946777,509.749451 1455.860352,511.776581 1458.943481,513.921692 
	C1462.189575,511.660583 1465.132690,509.610626 1468.005859,507.609344 
	C1475.847656,509.654510 1476.267334,516.128296 1476.857666,523.305237 
	C1489.134155,516.057739 1498.268677,519.428589 1505.817505,530.875427 
	C1507.734741,528.753296 1509.367554,527.420227 1510.362671,525.715027 
	C1511.422729,523.898560 1511.671753,521.622253 1512.648193,519.740479 
	C1514.140625,516.864319 1517.257690,514.165771 1517.282227,511.370667 
	C1517.309570,508.247192 1514.654663,505.100159 1513.054199,501.725433 
	C1516.976562,490.233734 1530.730713,491.927704 1537.717041,483.677826 
	C1534.244751,477.670776 1534.790283,471.425049 1538.441162,465.557220 
	C1540.179932,462.762299 1540.151855,459.867065 1537.722046,458.566284 
	C1533.028809,456.053802 1532.299072,449.885742 1526.903198,448.040131 
	C1525.068604,447.412628 1523.699585,444.786255 1522.582642,442.810486 
	C1518.223511,435.100098 1514.527954,426.964050 1509.612061,419.639923 
	C1507.068481,415.850494 1505.214844,412.536987 1505.604614,407.936127 
	C1505.907349,404.363953 1505.562866,401.589233 1501.681152,398.846649 
	C1496.374878,395.097382 1495.443604,388.540680 1495.469360,381.817749 
	C1495.492188,375.867279 1499.537842,374.406372 1502.985352,371.325653 
	C1505.371460,369.193268 1506.623657,364.381897 1506.243652,361.008545 
	C1505.937622,358.291687 1502.355469,355.991882 1500.355591,353.407379 
	C1496.596069,348.549103 1490.670776,343.973328 1489.831421,338.623413 
	C1488.910400,332.751984 1490.808838,325.444305 1496.076782,320.450562 
	C1498.735229,317.930573 1501.286499,315.295074 1503.837891,312.665009 
	C1507.091675,309.310608 1507.530762,305.895966 1504.252808,302.165649 
	C1501.081299,298.556335 1498.313110,294.711212 1493.828003,292.335846 
	C1489.936401,290.274597 1488.219727,287.606018 1488.993652,281.943939 
	C1490.035889,274.321686 1492.270142,267.724762 1497.219116,261.652679 
	C1488.702393,255.602173 1489.986328,246.716232 1488.250000,240.177704 
	C1495.689087,236.076279 1502.297729,232.432632 1508.108276,229.228989 
	C1506.929932,222.819031 1506.001587,217.769394 1504.975708,212.189346 
	C1514.936401,210.667664 1513.739990,202.753571 1515.493896,196.720932 
	C1520.607910,195.634583 1525.421143,194.612137 1530.036987,193.631638 
	C1533.369385,186.417053 1540.602539,181.274139 1538.360474,171.441696 
	C1541.915771,171.935944 1545.284668,171.369171 1546.799683,172.785400 
	C1555.670288,181.077591 1567.788940,177.899353 1577.816650,181.984573 
	C1579.729736,182.763977 1583.098511,181.402481 1585.164551,180.058563 
	C1588.798828,177.694717 1591.929321,178.044769 1595.369507,180.087524 
	C1600.521851,183.146927 1605.343018,186.268982 1608.737061,191.656219 
	C1612.656128,197.876984 1615.210571,197.787125 1620.560181,192.894241 
	C1622.981689,190.679489 1625.360962,188.418472 1628.399414,185.580612 
	C1632.525391,188.814026 1636.457886,191.717697 1640.178223,194.871460 
	C1642.834106,197.122910 1645.022217,197.495361 1648.896851,197.007370 
	C1658.788818,195.761520 1668.918457,196.344238 1678.952759,196.365738 
	C1680.154907,196.368317 1681.306885,197.589340 1682.566528,197.952362 
	C1684.600586,198.538467 1686.704834,198.880859 1688.511963,199.268814 
	C1692.508545,191.620575 1684.755127,187.243057 1684.725220,180.296921 
	C1689.263184,180.594376 1693.462646,180.869659 1698.146240,181.176666 
	C1702.348267,172.507095 1710.068115,167.104828 1719.029175,161.870483 
	C1732.348511,161.793549 1744.761963,161.908707 1757.489990,162.666443 
	C1763.691528,168.101334 1766.299683,174.950684 1769.812500,181.376312 
	C1772.928345,187.075790 1777.697754,191.911423 1782.050903,196.851929 
	C1782.720337,197.611694 1785.113525,197.087509 1786.648071,196.813141 
	C1799.708496,194.478058 1801.748047,195.454483 1806.641724,204.976196 
	C1813.570557,208.747131 1818.554565,211.789124 1823.823364,214.211258 
	C1827.328125,215.822449 1831.211060,217.358261 1834.975586,217.491577 
	C1841.561768,217.724854 1848.183472,216.771042 1854.797363,216.474136 
	C1859.083984,216.281677 1863.968140,215.023041 1867.570190,216.583435 
	C1879.509521,221.755402 1890.747314,219.980087 1902.362183,215.823837 
	C1912.118286,212.332687 1917.360596,200.831696 1912.850830,191.420609 
	C1912.297363,190.265793 1911.972900,189.001297 1911.631714,188.039780 
	C1914.189819,184.486877 1916.375000,181.203766 1918.809692,178.117432 
	C1926.056519,168.930923 1936.674438,168.487152 1948.835571,177.227829 
	C1958.780151,184.375259 1968.637817,191.680786 1978.105103,199.439636 
	C1982.958008,203.416733 1988.089966,205.603806 1994.185059,206.398895 
	C2003.017212,207.551117 2011.207031,209.248917 2017.784058,216.872330 
	C2025.843262,226.213470 2034.143555,225.972717 2044.114746,218.479752 
	C2046.461548,216.716171 2048.961670,214.951141 2051.670410,213.919128 
	C2056.765137,211.978119 2062.062744,210.570572 2068.698242,208.496658 
	C2079.427002,212.281006 2086.007080,223.310501 2093.170654,232.945923 
	C2097.930176,239.347412 2106.636230,244.542953 2104.756836,254.859222 
	C2104.616943,255.627960 2106.220947,257.045715 2107.300293,257.650970 
	C2113.856445,261.327057 2115.602051,267.487976 2114.142334,273.930786 
	C2112.003906,283.370117 2112.420166,291.782806 2118.805176,299.527008 
	C2119.932861,300.894501 2120.042236,303.239716 2120.280273,305.175446 
	C2120.845215,309.767029 2121.657471,314.394745 2121.546631,318.987976 
	C2121.359619,326.720703 2124.814941,331.798065 2130.703857,336.592743 
	C2135.607178,340.585175 2141.889648,344.406860 2141.760254,352.314789 
	C2141.745117,353.229126 2142.244629,354.151886 2142.470215,354.945648 
	C2145.102783,355.625977 2147.531006,356.253540 2150.540527,357.031311 
	C2147.562988,366.340271 2151.829834,372.244446 2157.513672,378.557739 
	C2162.205078,383.768738 2166.189697,390.601868 2167.747559,397.348816 
	C2169.087891,403.152924 2170.127930,408.851440 2172.651123,414.313202 
	C2173.250488,415.610504 2172.160645,417.688263 2171.887451,419.189575 
	C2166.141357,418.693909 2161.127686,418.261383 2155.398438,417.767151 
	C2155.821045,422.260132 2155.599854,425.372559 2156.479736,428.134125 
	C2158.346191,433.989380 2158.123047,439.046906 2153.760498,443.877899 
	C2152.484619,445.291138 2151.623535,448.798126 2152.476074,450.064026 
	C2154.378906,452.890564 2153.201660,454.680420 2152.337402,457.254700 
	C2150.232422,463.525116 2148.193604,469.927032 2147.261230,476.438232 
	C2146.755371,479.972198 2147.937012,486.746033 2149.439453,487.072205 
	C2157.844238,488.896393 2158.866943,495.131226 2160.621338,501.610260 
	C2161.251221,503.936340 2163.415771,506.100922 2165.364258,507.775269 
	C2179.461914,519.888489 2186.559570,536.374207 2193.758789,552.797668 
	C2196.686035,559.475952 2198.421143,566.915588 2202.444336,572.819458 
	C2208.609863,581.867249 2209.495361,591.698364 2207.980957,601.492737 
	C2206.887939,608.564026 2207.119141,613.574097 2213.838135,616.105469 
	C2211.828369,619.944641 2208.455322,623.354065 2208.816895,626.306213 
	C2209.660889,633.197144 2209.993164,639.362732 2204.761475,644.727844 
	C2204.229492,645.273254 2204.253174,646.714050 2204.496826,647.609436 
	C2208.404541,661.978455 2212.344727,676.339355 2216.486328,690.641602 
	C2216.697754,691.372314 2218.785645,691.559631 2220.000000,692.000000 
z"/>


<path 
	data-name="Bankim"
fill="#DE744E" opacity="1.000000" stroke="none" 
	d="
M76.428078,2205.578613 
	C76.322060,2203.618896 76.216049,2201.659180 76.790588,2198.433594 
	C81.383575,2191.788574 81.792702,2185.805908 81.424126,2179.326172 
	C80.842621,2169.102783 82.126633,2159.161865 88.074631,2150.217041 
	C89.538933,2148.015137 89.898201,2144.697266 89.797844,2141.927490 
	C89.657021,2138.041016 90.870903,2134.795410 94.455582,2134.152588 
	C101.089653,2132.963623 104.442879,2127.791748 108.666885,2123.746338 
	C111.879501,2120.669922 114.779510,2118.276123 119.673126,2117.946533 
	C122.881302,2117.730469 128.101608,2115.448242 128.605255,2113.226562 
	C129.921844,2107.418457 132.304672,2100.902100 128.441269,2095.106201 
	C125.045372,2090.011475 123.415138,2085.214844 127.449326,2079.717285 
	C128.908951,2077.727783 129.944199,2075.403320 131.013794,2073.156006 
	C134.037766,2066.802002 134.917007,2061.017334 131.563934,2053.786865 
	C126.418320,2042.691162 118.660103,2034.809692 108.517349,2029.042725 
	C107.612091,2020.294922 106.216896,2011.241089 111.625046,2004.551880 
	C117.059029,1997.831055 120.527443,1991.162598 121.655045,1982.623779 
	C122.698502,1974.722046 122.698357,1967.278442 117.944328,1960.666382 
	C114.220535,1955.486938 113.136421,1949.877686 113.549232,1943.739746 
	C113.817078,1939.757080 114.238281,1935.763916 114.164101,1931.783447 
	C114.033226,1924.760742 116.202904,1919.036133 121.288918,1913.907715 
	C126.092140,1909.064697 128.038345,1902.595459 128.324356,1895.691528 
	C128.533951,1890.632568 127.314011,1886.682617 122.297379,1884.202148 
	C119.390564,1882.764771 116.284050,1880.761353 114.519318,1878.162598 
	C108.778252,1869.708740 103.570862,1860.889038 98.283913,1852.134155 
	C97.645538,1851.077148 97.510773,1849.537476 97.594231,1848.250732 
	C98.394699,1835.909058 95.948418,1823.024048 105.118599,1812.220581 
	C109.155487,1807.464600 113.156013,1801.724609 112.125511,1795.072998 
	C110.653503,1785.571167 114.788330,1778.479980 119.603683,1771.079956 
	C121.821175,1767.672119 123.696495,1763.039795 123.357216,1759.170532 
	C122.551361,1749.980225 121.044456,1740.565063 112.992844,1734.235229 
	C106.718246,1729.302490 107.332787,1723.267212 110.554993,1717.307861 
	C114.001648,1710.933594 113.056763,1705.383423 109.071060,1699.851807 
	C107.726448,1697.985596 106.477859,1696.050049 104.777313,1693.545166 
	C108.342949,1689.759888 108.399506,1686.232178 105.437393,1681.426758 
	C101.898422,1675.685181 103.140694,1668.769531 105.216782,1660.937378 
	C109.341438,1662.042969 112.940369,1663.233887 116.631439,1663.949463 
	C123.933937,1665.365112 131.733063,1670.539307 137.849258,1661.191040 
	C138.613007,1660.023682 141.407898,1660.078735 143.295120,1659.775635 
	C146.829193,1659.207764 150.379089,1658.707642 153.939102,1658.342041 
	C156.473999,1658.081787 159.036316,1658.088623 161.229111,1657.992065 
	C163.400787,1662.324097 165.181366,1665.875977 167.110641,1669.724609 
	C168.995834,1670.030151 170.927017,1670.336426 172.855713,1670.657593 
	C175.012650,1671.016724 177.236725,1671.932495 179.311539,1671.667114 
	C191.578323,1670.098022 193.200714,1671.264282 194.339905,1683.254150 
	C194.462891,1684.548340 194.722290,1685.829468 194.970490,1687.458496 
	C200.038361,1689.124023 204.991180,1690.751953 209.593048,1692.264404 
	C223.399139,1679.941040 223.399139,1679.941040 233.199890,1684.522949 
	C234.560318,1681.915649 235.257919,1678.065796 237.391464,1676.942139 
	C244.995026,1672.937500 249.017883,1664.691895 258.613556,1662.366455 
	C266.967102,1660.342163 274.889038,1661.038574 282.985291,1660.797241 
	C284.772583,1660.744019 287.289886,1662.941650 288.352997,1664.757446 
	C292.521393,1671.876709 299.024384,1675.288330 306.553833,1677.398071 
	C312.485138,1679.059937 317.464844,1681.845093 320.775940,1687.480957 
	C321.987000,1689.542480 324.634277,1691.263062 326.991241,1692.059814 
	C336.229340,1695.182617 341.785431,1701.386230 344.397736,1710.666138 
	C344.981934,1712.741333 346.463928,1714.690796 347.915894,1716.365845 
	C350.246735,1719.054810 352.766296,1721.618164 355.456787,1723.944702 
	C357.356812,1725.587769 359.671478,1726.751343 361.627136,1728.016479 
	C364.359833,1725.515747 366.496735,1723.560181 368.830231,1721.424683 
	C372.143219,1723.687866 375.002045,1725.954712 378.148529,1727.704224 
	C381.502563,1729.569580 385.128601,1730.945679 388.991211,1732.696167 
	C390.074677,1731.176025 390.650574,1730.367310 391.226990,1729.558838 
	C397.222626,1721.148560 402.603027,1721.099365 407.584656,1729.767700 
	C409.680603,1733.414551 411.388489,1736.496704 416.394257,1736.446533 
	C420.610199,1736.404175 425.804077,1739.199463 428.844482,1737.555786 
	C434.146606,1734.689331 439.574432,1733.953857 446.278717,1733.562500 
	C441.292389,1724.546509 435.238281,1718.778809 424.576508,1716.740112 
	C426.506775,1711.371948 428.004150,1706.761230 429.830170,1702.284668 
	C431.066956,1699.252563 432.996826,1696.500854 434.207336,1693.460693 
	C436.371613,1688.025269 439.186279,1685.586792 444.509583,1686.778809 
	C448.786255,1687.736450 452.103851,1688.500366 454.809937,1683.929077 
	C455.470184,1682.813843 458.626312,1682.155762 460.102112,1682.708862 
	C469.891418,1686.377563 479.535675,1690.433350 490.700439,1694.960693 
	C491.556000,1693.844482 493.348480,1691.877319 494.718811,1689.650269 
	C499.263367,1682.264526 503.812775,1675.094238 514.383423,1679.713257 
	C520.922668,1673.643555 528.272461,1677.852905 535.578247,1678.813721 
	C537.120972,1685.029785 537.993469,1690.630249 539.784912,1695.919556 
	C541.332153,1700.487427 542.853821,1706.125000 546.314087,1708.726685 
	C551.113770,1712.335938 557.565125,1714.243408 563.597290,1715.553711 
	C567.988770,1716.507446 571.924377,1717.154053 574.838440,1720.923462 
	C579.640991,1727.136108 584.622559,1733.210327 590.008423,1739.942383 
	C594.941956,1736.052368 600.769287,1733.858398 606.990784,1737.607910 
	C611.531067,1740.344238 615.265442,1739.300781 620.004944,1737.466187 
	C625.411377,1735.373413 631.849731,1733.338623 638.059082,1738.488892 
	C633.486389,1744.824341 627.996460,1749.378296 621.837769,1753.190063 
	C616.356689,1756.582275 614.941284,1759.990112 616.978149,1765.413086 
	C618.778198,1770.205566 621.635864,1771.246704 628.516541,1769.564331 
	C629.151062,1769.409302 629.699707,1768.899658 630.334229,1768.749146 
	C638.639404,1766.780396 643.104980,1769.355713 646.409363,1777.333496 
	C647.721497,1780.501465 649.943542,1783.292603 651.522522,1785.880493 
	C653.449341,1785.395630 654.148804,1785.355347 654.712585,1785.057861 
	C666.007568,1779.096191 666.189636,1779.108032 675.514648,1787.077271 
	C682.288208,1792.866333 689.977417,1789.957275 692.638245,1780.599121 
	C694.422302,1774.324463 700.074524,1772.032471 705.276428,1775.688477 
	C706.837036,1776.785156 708.129822,1778.487305 709.091980,1780.171021 
	C712.752014,1786.575562 717.098022,1791.566040 725.511780,1790.612915 
	C727.385254,1790.400757 729.374695,1791.560303 731.345581,1791.791382 
	C736.461121,1792.390869 741.116821,1793.512939 746.573914,1790.537476 
	C752.060120,1787.546143 759.002014,1788.837524 764.737061,1792.367798 
	C769.901978,1795.547119 774.935852,1798.749512 774.098633,1806.294678 
	C773.891174,1808.163940 775.874390,1810.351807 777.039551,1812.279053 
	C778.557495,1814.789917 780.263855,1817.186646 781.355713,1818.829834 
	C777.707520,1829.026978 774.418884,1838.219360 770.610779,1848.863647 
	C775.661865,1847.947632 779.767090,1846.610718 783.880249,1846.585815 
	C791.450500,1846.539917 799.421509,1845.983154 806.449341,1848.153198 
	C810.635254,1849.445557 813.287537,1855.576538 816.737244,1859.435669 
	C818.481812,1861.387329 820.320496,1863.309448 822.369507,1864.923828 
	C828.295654,1869.593262 831.388611,1874.878418 829.066589,1882.915771 
	C827.922302,1886.876709 828.730774,1891.439941 828.880249,1895.722656 
	C828.972351,1898.359863 830.213257,1901.147949 829.658936,1903.576294 
	C828.594910,1908.237549 827.548950,1912.423218 830.741821,1916.865723 
	C831.580322,1918.032593 830.411987,1921.250977 829.332886,1923.019287 
	C828.199097,1924.877319 826.066650,1926.125977 824.463196,1927.558228 
	C825.439270,1933.997681 826.340393,1939.942627 827.324402,1946.434204 
	C833.058594,1941.230835 837.371216,1936.048462 842.804688,1932.667114 
	C852.350830,1926.726196 859.152283,1930.102173 864.175171,1940.235718 
	C867.339966,1946.620483 871.483948,1954.000610 877.253113,1957.137817 
	C881.742920,1959.579224 883.556763,1962.557983 886.354980,1965.905518 
	C891.652100,1972.242310 894.085876,1981.742188 904.799255,1982.736694 
	C907.254028,1982.964600 910.540222,1986.785156 911.351624,1989.563354 
	C913.057373,1995.403931 916.667969,1996.541626 921.848389,1996.337769 
	C923.672729,1996.265869 925.527649,1996.971924 927.207336,1997.292236 
	C927.697693,2003.757690 928.139954,2009.589722 928.638245,2016.159668 
	C931.604431,2015.572754 933.956543,2015.812134 935.154297,2014.750000 
	C940.794067,2009.748291 946.459961,2010.990234 951.300537,2015.129883 
	C954.945740,2018.247192 957.387451,2022.765259 960.396973,2026.634766 
	C963.071472,2030.073608 962.805969,2035.709595 968.328308,2037.675049 
	C969.467224,2036.009155 970.223145,2034.539307 971.308594,2033.377441 
	C976.621033,2027.691162 982.387573,2028.812378 985.062744,2035.905273 
	C987.469543,2042.286377 989.995911,2048.622314 992.933716,2056.171143 
	C990.044800,2058.187988 986.096802,2060.944336 981.870178,2063.895020 
	C982.408508,2068.943604 986.520264,2071.532227 989.762451,2074.706055 
	C997.407776,2082.190674 997.949158,2086.362549 992.535889,2095.572754 
	C992.062683,2096.377686 992.049683,2097.453369 991.866150,2098.221924 
	C994.384521,2104.075195 999.182434,2104.870850 1004.418518,2104.240723 
	C1012.914429,2103.218506 1018.363770,2106.881592 1021.963562,2115.191895 
	C1014.822632,2121.883789 1005.655334,2123.983398 996.815613,2125.760986 
	C990.964233,2126.937500 987.994141,2129.324219 986.832336,2134.726562 
	C990.459290,2139.625488 994.720947,2140.316406 1000.121704,2138.146729 
	C1006.906067,2135.420898 1013.818665,2132.926270 1020.840210,2130.900879 
	C1030.918091,2127.994385 1035.443970,2131.010010 1037.860352,2141.411621 
	C1039.089111,2146.700928 1041.399170,2150.989258 1046.234619,2154.313721 
	C1054.113647,2159.730713 1055.917847,2166.832764 1053.147095,2176.206787 
	C1052.714722,2177.669434 1052.530273,2179.205566 1052.220825,2180.759766 
	C1057.276001,2183.156494 1060.079468,2181.060303 1062.973877,2177.754395 
	C1068.356201,2171.606201 1074.763916,2166.913574 1083.335815,2166.343994 
	C1093.984619,2165.636230 1100.094360,2172.277100 1098.508789,2182.567383 
	C1098.279419,2184.056152 1098.833496,2185.665527 1098.999634,2187.013428 
	C1104.756348,2189.256592 1108.031372,2186.192383 1110.461792,2182.558350 
	C1114.026001,2177.229004 1118.662476,2174.738037 1124.872925,2175.925537 
	C1132.790771,2177.439453 1137.083618,2174.597412 1139.849976,2166.830566 
	C1142.679199,2158.887207 1146.290894,2157.969971 1153.790649,2161.846436 
	C1162.915405,2166.562500 1171.815430,2171.713135 1180.812744,2176.675781 
	C1184.016479,2185.429932 1189.577393,2190.949951 1199.316040,2192.648682 
	C1203.059814,2193.302002 1206.730713,2196.698730 1209.580444,2199.666016 
	C1215.461426,2205.790283 1218.893188,2206.360107 1225.677002,2201.000000 
	C1226.979736,2199.970947 1228.049927,2198.617188 1229.426392,2197.717529 
	C1234.214233,2194.587891 1238.345581,2195.597900 1241.068237,2200.594238 
	C1243.108032,2204.337646 1244.933594,2208.197754 1247.136963,2212.565674 
	C1243.213501,2221.561035 1241.644531,2231.255127 1247.984009,2240.858154 
	C1248.818970,2242.123047 1248.965210,2243.916016 1249.173096,2245.498535 
	C1249.339722,2246.767578 1248.548950,2248.515869 1249.154541,2249.318604 
	C1254.633545,2256.582275 1255.925415,2267.923340 1268.729126,2268.512695 
	C1271.861938,2284.208740 1274.915527,2299.666992 1278.064819,2315.105713 
	C1278.513672,2317.305420 1278.870850,2319.878662 1280.218994,2321.480957 
	C1287.673096,2330.340088 1295.479492,2338.901123 1303.046753,2347.666504 
	C1307.837402,2353.215820 1313.221558,2356.197021 1320.498901,2352.269287 
	C1323.037598,2354.341309 1325.314697,2356.199707 1328.166992,2358.527588 
	C1332.523926,2355.833252 1336.934937,2353.105469 1341.659790,2350.183350 
	C1348.934204,2354.390625 1356.039185,2358.500000 1364.556274,2363.426270 
	C1366.373047,2362.442383 1369.493286,2360.787109 1372.579712,2359.071045 
	C1375.194458,2357.617188 1377.714355,2355.984375 1380.372314,2354.617432 
	C1391.875122,2348.702393 1406.577271,2356.382080 1408.021851,2369.192383 
	C1408.222534,2370.972412 1406.978882,2372.915527 1406.081055,2375.468750 
	C1398.982544,2375.803467 1392.669189,2376.913818 1386.741821,2380.659668 
	C1384.047119,2382.362549 1380.534180,2383.518066 1377.369263,2383.572266 
	C1370.999268,2383.681396 1367.899170,2387.410889 1365.248901,2392.322266 
	C1360.218140,2401.645020 1358.066650,2402.024170 1349.949219,2395.554443 
	C1348.776001,2394.619385 1347.143066,2394.261230 1344.858643,2393.255615 
	C1343.522095,2401.801514 1346.116943,2410.811523 1338.102661,2416.516357 
	C1331.664795,2421.099365 1328.785645,2431.474854 1317.212646,2427.688721 
	C1314.801147,2433.323242 1312.651367,2438.346191 1310.133789,2444.228027 
	C1307.726685,2442.865723 1305.509888,2441.692139 1303.373291,2440.386963 
	C1295.623413,2435.653320 1289.032227,2436.567871 1283.124023,2443.408936 
	C1281.628662,2445.140381 1280.791260,2447.528076 1279.108643,2448.988770 
	C1276.743042,2451.042969 1273.969116,2453.788086 1271.196899,2454.002686 
	C1261.616333,2454.743408 1253.239502,2457.857178 1245.576904,2463.560791 
	C1241.194336,2466.822754 1240.261719,2466.499268 1232.752686,2462.976562 
	C1228.125366,2466.742188 1223.667358,2469.762695 1219.959717,2473.522949 
	C1213.617676,2479.955566 1207.674438,2486.715820 1197.568848,2486.603271 
	C1196.965698,2486.596680 1196.273560,2487.008057 1195.763184,2487.405273 
	C1187.996460,2493.446777 1179.676270,2497.318359 1169.574463,2493.111572 
	C1166.684082,2499.985840 1167.413696,2505.646484 1169.884277,2511.243652 
	C1170.413818,2512.443115 1171.440186,2513.454346 1171.826538,2514.681396 
	C1175.222534,2525.469727 1171.158203,2531.127930 1159.700073,2531.693848 
	C1151.397949,2532.104248 1151.398071,2532.104004 1151.375244,2540.713867 
	C1151.362671,2545.467285 1147.823242,2549.043701 1142.692505,2547.364014 
	C1128.519775,2542.723877 1120.655640,2548.393311 1115.554810,2561.232910 
	C1114.301147,2564.388428 1110.918701,2566.871338 1108.130127,2569.203369 
	C1104.043701,2572.620850 1103.133179,2576.527344 1104.229370,2581.635498 
	C1106.279175,2591.187988 1104.680298,2592.644531 1094.749512,2590.295654 
	C1089.132080,2588.967041 1085.561768,2590.300537 1082.204468,2595.347656 
	C1079.722534,2599.078613 1075.200439,2601.452393 1070.816284,2605.066406 
	C1072.384277,2606.555420 1074.462402,2608.468262 1076.470825,2610.451660 
	C1079.062378,2613.010742 1082.236328,2615.270752 1083.942139,2618.336914 
	C1085.151978,2620.512207 1085.319824,2624.298096 1084.215454,2626.489502 
	C1082.537598,2629.818604 1079.027466,2628.777832 1076.389282,2627.000977 
	C1071.686523,2623.833496 1066.324585,2622.573486 1061.136597,2623.858643 
	C1053.252686,2625.811035 1045.303833,2628.216797 1038.080688,2631.826660 
	C1034.338257,2633.697021 1031.534302,2634.437500 1027.986084,2632.810791 
	C1020.929016,2629.575928 1013.957947,2631.436035 1006.626709,2631.957275 
	C993.226685,2632.909912 987.383179,2640.038086 984.889832,2651.876709 
	C984.767944,2652.455811 984.095886,2652.918701 983.677856,2653.434082 
	C969.638672,2655.535156 968.582031,2654.570068 965.144043,2636.272217 
	C959.063660,2634.412842 954.857239,2638.010986 951.556335,2642.055664 
	C948.472229,2645.834473 945.662292,2650.323975 949.580994,2655.633789 
	C950.395142,2656.737061 950.338440,2658.943359 949.915222,2660.421143 
	C947.979187,2667.180176 932.800476,2672.931885 926.398376,2669.508789 
	C922.886353,2667.630615 919.272461,2664.140137 915.825928,2664.284180 
	C905.964661,2664.696289 895.164124,2663.132568 888.472961,2673.978027 
	C885.397705,2678.962646 879.302246,2680.188965 873.607727,2680.374023 
	C866.505554,2680.604980 859.743408,2681.213135 854.452087,2686.826660 
	C851.930359,2689.501953 848.883118,2688.595947 846.274780,2686.847168 
	C844.394836,2685.586426 842.864624,2683.803467 841.063049,2682.147705 
	C837.390930,2691.486816 835.448547,2692.629395 826.334595,2690.174561 
	C819.784546,2688.410400 813.213928,2687.672607 806.775146,2689.866943 
	C803.518372,2690.977051 799.925354,2692.706299 797.829163,2695.259521 
	C794.208923,2699.668701 790.508423,2699.972900 785.503479,2698.484619 
	C772.618835,2694.652588 772.574707,2694.801025 764.964233,2707.351318 
	C761.202820,2707.351318 756.784546,2708.131348 752.780823,2707.175293 
	C746.152527,2705.592773 741.815430,2706.353027 737.748962,2712.796875 
	C735.275513,2716.716553 732.402710,2722.447754 726.067871,2722.362549 
	C723.170044,2722.323486 720.287170,2721.405518 717.391296,2720.923584 
	C715.154663,2720.550781 712.887451,2719.845947 710.669922,2719.964355 
	C701.674438,2720.444092 693.440125,2724.361572 684.697571,2726.092285 
	C682.998230,2726.428711 681.717957,2728.544189 680.061890,2729.533447 
	C678.466125,2730.486816 676.346802,2732.005371 674.960754,2731.591064 
	C671.175964,2730.459717 667.981018,2732.523682 664.845947,2732.656982 
	C654.744934,2733.085693 651.919250,2738.722656 651.712463,2748.251709 
	C640.311157,2747.640625 629.421326,2746.665283 618.528259,2746.628662 
	C612.505066,2746.608398 606.614014,2746.590088 600.264526,2748.513184 
	C594.283264,2750.324463 587.848816,2751.309814 581.751221,2753.763672 
	C577.964661,2755.288086 573.727600,2754.680420 569.739563,2757.394287 
	C567.319702,2759.041016 561.931824,2757.557373 558.454895,2756.100830 
	C554.309265,2754.364502 551.011169,2754.580811 547.155579,2756.513672 
	C540.920044,2759.639648 534.354553,2762.109619 528.133789,2765.262207 
	C521.763489,2768.490234 515.306580,2768.920166 508.943848,2766.131836 
	C502.213257,2763.182129 496.027710,2767.252441 489.519501,2767.016602 
	C488.035980,2766.962891 486.148163,2769.912842 484.957092,2771.802246 
	C483.041046,2774.841553 481.550171,2778.148682 479.504456,2782.060059 
	C474.911255,2780.862305 469.892334,2780.669922 466.240326,2778.337158 
	C460.891357,2774.921143 457.045105,2776.327393 452.656555,2779.444580 
	C449.655304,2781.576416 429.505280,2786.907715 425.803650,2787.825684 
	C419.408661,2789.411133 412.729462,2790.884766 407.035858,2793.992676 
	C400.524475,2797.546387 395.225952,2797.298340 389.648102,2792.967773 
	C388.072968,2791.745117 386.488403,2790.512451 384.794464,2789.468750 
	C378.112518,2785.351562 372.773834,2787.461182 370.357056,2795.008545 
	C369.612183,2797.334473 368.580444,2799.568604 367.180939,2803.106445 
	C361.855164,2799.938965 357.575500,2797.619873 353.534302,2794.941162 
	C346.165314,2790.056396 342.775848,2791.518066 340.117249,2800.215088 
	C337.893646,2807.488770 335.089081,2814.597900 332.275482,2821.674072 
	C330.414795,2826.353760 326.455139,2828.473145 321.060150,2829.711914 
	C319.335785,2823.079834 332.234192,2816.607666 320.328644,2810.486084 
	C318.210938,2812.788818 316.096283,2815.282227 313.777252,2817.568359 
	C309.350952,2821.932129 304.645386,2825.184326 297.783875,2822.876465 
	C293.550354,2821.452637 289.542175,2822.224365 285.667358,2825.209717 
	C279.267975,2830.139893 271.820953,2832.847168 263.773926,2834.263428 
	C260.026398,2834.922607 256.552673,2837.138184 253.477417,2839.324219 
	C249.916672,2840.000000 245.833328,2840.000000 241.100662,2839.180664 
	C235.213028,2829.942627 236.519974,2822.115967 242.170166,2814.364258 
	C244.006744,2811.844482 246.717697,2807.579346 245.789978,2805.846191 
	C242.038071,2798.836914 246.115921,2793.082275 246.561737,2787.352051 
	C253.421143,2782.916992 262.999329,2789.942871 267.666412,2780.914795 
	C261.596497,2772.791992 261.596497,2772.791992 266.986145,2763.854248 
	C273.556488,2764.304199 278.892365,2762.187500 281.386169,2755.006592 
	C282.857605,2750.769287 286.750153,2749.951904 290.910004,2749.123291 
	C302.986908,2746.717773 306.985779,2739.996338 304.927399,2727.822266 
	C304.241669,2723.766602 304.819092,2719.497314 304.819092,2714.063232 
	C320.331940,2717.006836 328.731812,2707.061768 338.375702,2698.988770 
	C323.562897,2687.984131 317.902893,2678.241455 324.855194,2661.755615 
	C326.655243,2657.487305 324.964478,2654.030029 322.875977,2650.508057 
	C320.555878,2646.594727 318.464172,2642.542236 316.040894,2638.697021 
	C315.246613,2637.436279 313.752655,2635.868164 312.533142,2635.828125 
	C311.244507,2635.785889 309.233093,2637.119873 308.720276,2638.346924 
	C307.616058,2640.989502 307.270386,2643.948975 306.467041,2647.413818 
	C303.040405,2647.673828 299.893280,2647.912354 296.868195,2648.141846 
	C294.319397,2642.517822 292.150604,2637.732178 290.358124,2633.777100 
	C293.612457,2627.489502 296.451111,2622.005127 299.016266,2617.049316 
	C292.574768,2608.932617 286.779572,2601.630615 280.679565,2593.944336 
	C281.387238,2583.485107 281.381256,2574.023682 271.835602,2570.615723 
	C271.835602,2565.751953 271.012146,2561.166504 272.055603,2557.054688 
	C273.215057,2552.486084 278.031067,2548.916016 274.921448,2544.104736 
	C272.932159,2541.852539 270.942871,2539.600342 268.896881,2537.283936 
	C265.458282,2535.197266 260.333679,2533.769043 258.157013,2530.423096 
	C253.353256,2523.038818 250.568344,2514.358887 245.927490,2506.844971 
	C242.695877,2501.612549 243.876038,2497.532715 246.377884,2493.038330 
	C247.971603,2490.175537 249.698639,2487.386475 251.667465,2484.053955 
	C255.404541,2484.625732 258.903442,2485.161377 261.573639,2485.569824 
	C265.162567,2482.538330 268.446350,2479.764404 272.006042,2476.757324 
	C268.525848,2467.686523 272.287567,2460.860107 279.423065,2455.347656 
	C278.861816,2453.833496 277.866211,2452.533447 278.055878,2451.438965 
	C279.509399,2443.051514 274.026123,2438.100098 269.264862,2432.641846 
	C264.347412,2427.004395 259.377930,2422.194336 250.862869,2423.539307 
	C246.252670,2424.267334 245.720016,2420.634033 245.779938,2417.041260 
	C249.049484,2415.387695 252.207199,2413.790527 255.512863,2412.118652 
	C254.742157,2409.839844 254.152908,2408.097656 253.387634,2405.835205 
	C255.979721,2404.967285 258.255127,2404.205566 258.897705,2403.990479 
	C258.897705,2399.195312 257.358521,2393.584473 259.169617,2392.121582 
	C266.239441,2386.410889 262.840363,2381.013916 260.054718,2375.315918 
	C262.133667,2373.946533 263.986664,2372.726074 264.877014,2372.139648 
	C264.877014,2364.365967 264.877014,2357.616943 264.877014,2352.423340 
	C271.476105,2351.031982 276.833252,2350.037598 282.119415,2348.751221 
	C287.732727,2347.385986 293.265991,2345.720947 295.331482,2341.598633 
	C300.090546,2343.294189 303.709106,2344.583252 307.327698,2345.872559 
	C308.321472,2340.496338 314.876923,2342.572754 316.488647,2338.608398 
	C316.445312,2334.968018 315.563751,2329.821289 317.567535,2328.164795 
	C322.940033,2323.723145 317.375122,2321.547852 316.573822,2318.389648 
	C319.323578,2316.023682 322.015259,2313.708008 324.803680,2311.308838 
	C315.185730,2304.111084 315.082153,2302.717041 320.992188,2292.153564 
	C321.999023,2290.354004 321.134521,2287.507568 321.134521,2285.050781 
	C323.097107,2283.994141 325.320496,2282.796875 327.625824,2281.555664 
	C326.653381,2276.812256 325.801056,2272.654541 325.352905,2270.468506 
	C318.609283,2266.371582 313.318451,2263.195312 308.068115,2259.953613 
	C304.756683,2257.908936 301.750122,2256.693115 298.175720,2259.912354 
	C294.406006,2263.307861 290.232147,2266.306152 285.975372,2269.080078 
	C284.516846,2270.030518 282.122406,2270.388184 280.418915,2269.962646 
	C275.094940,2268.632324 269.330994,2267.716553 264.797241,2264.921143 
	C259.483307,2261.645020 255.282318,2256.563721 249.954773,2251.674561 
	C248.323776,2252.409668 243.984619,2252.948242 242.860962,2255.137451 
	C239.472565,2261.738037 235.225952,2259.812256 231.642975,2256.701904 
	C226.134033,2251.919678 219.947922,2249.926514 213.008148,2249.419189 
	C211.435242,2253.238770 209.286423,2255.614990 205.880493,2251.588623 
	C204.049011,2249.423584 202.944977,2246.595947 201.740387,2243.963135 
	C200.844559,2242.004883 200.314713,2239.879639 199.577988,2237.698730 
	C195.835342,2239.178223 192.937271,2240.323730 189.547424,2241.663574 
	C190.702499,2245.223145 191.669998,2248.204590 192.766907,2251.584717 
	C188.617050,2251.140625 184.122559,2249.324707 182.599487,2250.729980 
	C176.262650,2256.575928 171.942978,2251.304932 167.306107,2248.683105 
	C155.834885,2261.393799 145.388550,2252.786621 134.394180,2247.648926 
	C129.338455,2253.889160 123.949036,2253.478271 118.406059,2247.952148 
	C117.317215,2246.866699 115.469810,2245.714355 114.108429,2245.860352 
	C103.539009,2246.995361 95.077797,2240.679688 85.640144,2237.945557 
	C78.761894,2235.953125 77.609436,2234.219727 80.230522,2227.843994 
	C83.794876,2219.173340 81.252022,2212.383789 76.428078,2205.578613 
z"/>


<path 
	data-name="Mayo-Darl"
fill="#41AB96" opacity="1.000000" stroke="none" 
	d="
M535.578186,1678.813721 
	C536.809082,1677.422363 538.366272,1676.132812 539.803711,1676.254761 
	C545.600159,1676.746460 550.406311,1676.202271 556.151794,1673.179932 
	C562.679993,1669.745728 570.753113,1673.060669 577.395020,1678.744141 
	C578.242737,1676.139893 578.874084,1674.200073 579.352600,1672.730103 
	C583.495361,1670.004272 588.990479,1679.079224 592.363708,1669.272217 
	C587.705933,1667.447998 583.313843,1665.592773 578.828430,1664.000244 
	C570.149414,1660.918457 569.049805,1658.834106 571.606506,1648.468506 
	C573.701660,1648.904419 575.816101,1649.651367 577.950378,1649.713135 
	C580.829773,1649.796387 583.816406,1649.723022 586.587769,1649.035156 
	C589.628601,1648.280518 592.398193,1646.472046 595.425415,1645.615723 
	C602.148804,1643.714233 603.336609,1641.859375 602.259583,1634.166870 
	C601.944275,1631.915039 601.913147,1629.623413 601.745911,1627.267456 
	C598.497253,1625.896606 595.524536,1624.642212 592.387878,1623.318481 
	C593.220947,1609.809570 593.086304,1596.887451 586.979187,1584.634155 
	C585.900330,1582.469604 588.184753,1578.629028 589.019531,1575.128662 
	C585.488525,1572.522949 582.268799,1569.413696 581.958618,1563.622559 
	C581.703552,1558.860962 577.167847,1556.743164 572.726990,1555.881592 
	C570.182495,1555.387939 567.516479,1555.520874 564.352722,1555.340088 
	C563.969299,1547.605713 565.101990,1540.846558 568.654480,1534.609375 
	C572.582031,1535.645142 575.904358,1537.562866 578.611572,1536.914185 
	C580.877808,1536.370972 582.425354,1532.828735 584.926697,1529.860229 
	C595.881470,1533.680298 606.093445,1529.753540 616.449097,1525.056396 
	C619.150452,1523.831055 623.637390,1525.163086 626.754028,1526.553589 
	C631.494690,1528.668945 634.862671,1528.269043 638.007874,1524.050537 
	C639.298401,1522.319580 641.286377,1521.067627 643.072998,1519.755737 
	C646.722107,1517.076538 650.854736,1514.918335 654.050781,1511.791748 
	C658.942200,1507.006348 662.662292,1506.293701 667.698242,1510.610107 
	C669.449951,1512.111450 670.892578,1513.981445 672.428772,1515.724854 
	C677.184814,1521.122925 682.236694,1525.255127 690.361633,1523.850586 
	C696.276917,1522.828125 701.401855,1524.872437 704.526245,1530.720215 
	C706.081421,1533.630981 709.328491,1535.499756 712.060974,1533.338379 
	C718.368164,1528.350098 725.199768,1529.977905 732.369019,1530.901733 
	C734.642639,1527.163940 736.092407,1522.592163 739.213989,1520.224609 
	C742.795166,1517.508545 745.393066,1515.202271 746.812500,1510.673218 
	C747.291565,1509.144653 752.994690,1509.253540 757.210266,1508.440430 
	C757.562927,1506.577637 758.085999,1503.815186 758.608826,1501.053833 
	C765.407898,1500.001343 763.180969,1507.396973 766.665527,1509.430054 
	C768.342834,1508.005737 769.943359,1506.508911 771.683838,1505.197754 
	C775.161194,1502.578247 780.668640,1503.064697 782.012939,1497.082886 
	C783.814514,1489.066772 784.308044,1481.471069 779.764465,1474.204224 
	C779.251282,1473.383423 778.888855,1472.468384 777.822937,1470.319946 
	C780.610046,1466.971436 783.895325,1463.432129 786.672607,1459.531128 
	C788.282349,1457.270020 789.495728,1454.521484 790.102478,1451.816284 
	C790.589722,1449.643433 789.683105,1447.197876 789.768372,1444.887085 
	C789.990662,1438.863647 792.050781,1436.699707 797.956482,1435.720215 
	C800.555847,1435.289185 803.219788,1434.984253 805.702332,1434.162476 
	C812.088135,1432.048706 812.930725,1430.420044 811.680908,1423.836182 
	C809.286316,1411.222168 811.021606,1409.202393 823.589600,1409.882935 
	C824.554199,1409.935181 825.535645,1409.676392 827.275208,1409.472046 
	C828.328491,1400.060669 835.121643,1397.899658 843.395508,1397.665649 
	C847.959717,1397.536621 851.802673,1395.840820 854.320190,1390.832520 
	C883.984497,1396.131958 913.338989,1401.966431 942.620789,1408.144897 
	C946.666077,1408.998535 950.888245,1410.874390 954.125000,1413.423950 
	C1013.527893,1460.213867 1072.841431,1507.117920 1132.068237,1554.130615 
	C1166.772949,1581.678345 1201.237671,1609.528687 1235.953735,1637.062134 
	C1241.394531,1641.377441 1247.410889,1645.065918 1253.483765,1648.468384 
	C1283.992554,1665.562012 1314.558838,1682.555542 1345.236694,1699.343384 
	C1350.283813,1702.105347 1353.197021,1705.317505 1354.465576,1711.216309 
	C1358.800903,1731.376221 1363.605957,1751.444580 1368.739746,1771.417358 
	C1370.177490,1777.011230 1369.609863,1781.601807 1367.169312,1786.688232 
	C1340.374146,1842.530273 1313.739380,1898.449341 1287.063721,1954.348877 
	C1251.926270,2027.980103 1216.791138,2101.612549 1181.233887,2175.959961 
	C1171.815430,2171.713135 1162.915405,2166.562500 1153.790649,2161.846436 
	C1146.290894,2157.969971 1142.679199,2158.887207 1139.849976,2166.830566 
	C1137.083618,2174.597412 1132.790771,2177.439453 1124.872925,2175.925537 
	C1118.662476,2174.738037 1114.026001,2177.229004 1110.461792,2182.558350 
	C1108.031372,2186.192383 1104.756348,2189.256592 1098.999634,2187.013428 
	C1098.833496,2185.665527 1098.279419,2184.056152 1098.508789,2182.567383 
	C1100.094360,2172.277100 1093.984619,2165.636230 1083.335815,2166.343994 
	C1074.763916,2166.913574 1068.356201,2171.606201 1062.973877,2177.754395 
	C1060.079468,2181.060303 1057.276001,2183.156494 1052.220825,2180.759766 
	C1052.530273,2179.205566 1052.714722,2177.669434 1053.147095,2176.206787 
	C1055.917847,2166.832764 1054.113647,2159.730713 1046.234619,2154.313721 
	C1041.399170,2150.989258 1039.089111,2146.700928 1037.860352,2141.411621 
	C1035.443970,2131.010010 1030.918091,2127.994385 1020.840210,2130.900879 
	C1013.818665,2132.926270 1006.906067,2135.420898 1000.121704,2138.146729 
	C994.720947,2140.316406 990.459290,2139.625488 986.832336,2134.726562 
	C987.994141,2129.324219 990.964233,2126.937500 996.815613,2125.760986 
	C1005.655334,2123.983398 1014.822632,2121.883789 1021.963562,2115.191895 
	C1018.363770,2106.881592 1012.914429,2103.218506 1004.418518,2104.240723 
	C999.182434,2104.870850 994.384521,2104.075195 991.866150,2098.221924 
	C992.049683,2097.453369 992.062683,2096.377686 992.535889,2095.572754 
	C997.949158,2086.362549 997.407776,2082.190674 989.762451,2074.706055 
	C986.520264,2071.532227 982.408508,2068.943604 981.870178,2063.895020 
	C986.096802,2060.944336 990.044800,2058.187988 992.933716,2056.171143 
	C989.995911,2048.622314 987.469543,2042.286377 985.062744,2035.905273 
	C982.387573,2028.812378 976.621033,2027.691162 971.308594,2033.377441 
	C970.223145,2034.539307 969.467224,2036.009155 968.328308,2037.675049 
	C962.805969,2035.709595 963.071472,2030.073608 960.396973,2026.634766 
	C957.387451,2022.765259 954.945740,2018.247192 951.300537,2015.129883 
	C946.459961,2010.990234 940.794067,2009.748291 935.154297,2014.750000 
	C933.956543,2015.812134 931.604431,2015.572754 928.638245,2016.159668 
	C928.139954,2009.589722 927.697693,2003.757690 927.207336,1997.292236 
	C925.527649,1996.971924 923.672729,1996.265869 921.848389,1996.337769 
	C916.667969,1996.541626 913.057373,1995.403931 911.351624,1989.563354 
	C910.540222,1986.785156 907.254028,1982.964600 904.799255,1982.736694 
	C894.085876,1981.742188 891.652100,1972.242310 886.354980,1965.905518 
	C883.556763,1962.557983 881.742920,1959.579224 877.253113,1957.137817 
	C871.483948,1954.000610 867.339966,1946.620483 864.175171,1940.235718 
	C859.152283,1930.102173 852.350830,1926.726196 842.804688,1932.667114 
	C837.371216,1936.048462 833.058594,1941.230835 827.324402,1946.434204 
	C826.340393,1939.942627 825.439270,1933.997681 824.463196,1927.558228 
	C826.066650,1926.125977 828.199097,1924.877319 829.332886,1923.019287 
	C830.411987,1921.250977 831.580322,1918.032593 830.741821,1916.865723 
	C827.548950,1912.423218 828.594910,1908.237549 829.658936,1903.576294 
	C830.213257,1901.147949 828.972351,1898.359863 828.880249,1895.722656 
	C828.730774,1891.439941 827.922302,1886.876709 829.066589,1882.915771 
	C831.388611,1874.878418 828.295654,1869.593262 822.369507,1864.923828 
	C820.320496,1863.309448 818.481812,1861.387329 816.737244,1859.435669 
	C813.287537,1855.576538 810.635254,1849.445557 806.449341,1848.153198 
	C799.421509,1845.983154 791.450500,1846.539917 783.880249,1846.585815 
	C779.767090,1846.610718 775.661865,1847.947632 770.610779,1848.863647 
	C774.418884,1838.219360 777.707520,1829.026978 781.355713,1818.829834 
	C780.263855,1817.186646 778.557495,1814.789917 777.039551,1812.279053 
	C775.874390,1810.351807 773.891174,1808.163940 774.098633,1806.294678 
	C774.935852,1798.749512 769.901978,1795.547119 764.737061,1792.367798 
	C759.002014,1788.837524 752.060120,1787.546143 746.573914,1790.537476 
	C741.116821,1793.512939 736.461121,1792.390869 731.345581,1791.791382 
	C729.374695,1791.560303 727.385254,1790.400757 725.511780,1790.612915 
	C717.098022,1791.566040 712.752014,1786.575562 709.091980,1780.171021 
	C708.129822,1778.487305 706.837036,1776.785156 705.276428,1775.688477 
	C700.074524,1772.032471 694.422302,1774.324463 692.638245,1780.599121 
	C689.977417,1789.957275 682.288208,1792.866333 675.514648,1787.077271 
	C666.189636,1779.108032 666.007568,1779.096191 654.712585,1785.057861 
	C654.148804,1785.355347 653.449341,1785.395630 651.522522,1785.880493 
	C649.943542,1783.292603 647.721497,1780.501465 646.409363,1777.333496 
	C643.104980,1769.355713 638.639404,1766.780396 630.334229,1768.749146 
	C629.699707,1768.899658 629.151062,1769.409302 628.516541,1769.564331 
	C621.635864,1771.246704 618.778198,1770.205566 616.978149,1765.413086 
	C614.941284,1759.990112 616.356689,1756.582275 621.837769,1753.190063 
	C627.996460,1749.378296 633.486389,1744.824341 638.059082,1738.488892 
	C631.849731,1733.338623 625.411377,1735.373413 620.004944,1737.466187 
	C615.265442,1739.300781 611.531067,1740.344238 606.990784,1737.607910 
	C600.769287,1733.858398 594.941956,1736.052368 590.008423,1739.942383 
	C584.622559,1733.210327 579.640991,1727.136108 574.838440,1720.923462 
	C571.924377,1717.154053 567.988770,1716.507446 563.597290,1715.553711 
	C557.565125,1714.243408 551.113770,1712.335938 546.314087,1708.726685 
	C542.853821,1706.125000 541.332153,1700.487427 539.784912,1695.919556 
	C537.993469,1690.630249 537.120972,1685.029785 535.578186,1678.813721 
z"/>
</svg>