<svg version="1.1" id="Layer_1" xmlns="http://www.w3.org/2000/svg" xmlns:xlink="http://www.w3.org/1999/xlink" x="0px" y="0px"
	 width="100%" viewBox="0 0 2271 2781" enable-background="new 0 0 2271 2781" xml:space="preserve">

<path data-name="Sa'a" style="fill: {#82B7F9}" fill="#82B7F9" opacity="1.000000" stroke="none" 
	d="
M612.691589,473.177673 
	C615.925842,472.816193 619.159973,472.138977 622.394287,472.138245 
	C845.273010,472.088593 1068.151733,472.095703 1291.030396,472.092529 
	C1618.062378,472.087860 1945.094482,472.079132 2273.063232,472.036072 
	C2274.000000,472.000000 2274.000000,473.000000 2273.076660,473.325348 
	C2268.155273,473.631683 2264.157471,473.596100 2260.159424,473.596039 
	C2039.931152,473.593353 1819.702759,473.593658 1599.474487,473.593658 
	C1506.851929,473.593658 1414.229492,473.589447 1321.606934,473.610718 
	C1318.268433,473.611481 1314.929932,473.863556 1309.722046,474.074097 
	C1313.916138,476.736145 1316.055298,478.269043 1318.347656,479.521912 
	C1343.411621,493.220184 1368.523560,506.831329 1393.550903,520.596008 
	C1396.692261,522.323669 1399.813110,524.421814 1402.283447,526.984619 
	C1428.374756,554.051575 1454.214722,581.361084 1480.362793,608.372620 
	C1501.202515,629.900574 1522.383667,651.097717 1543.378784,672.475647 
	C1545.236084,674.366821 1546.907349,676.454285 1548.547852,678.542725 
	C1578.491455,716.667114 1608.170654,755.003174 1638.496338,792.821045 
	C1647.640991,804.225159 1654.915039,815.841064 1656.424316,830.699524 
	C1657.090576,837.259216 1659.068237,843.681641 1660.378296,850.181030 
	C1661.720947,856.841858 1664.003052,862.494629 1670.543579,866.254944 
	C1675.939575,869.357300 1680.563477,873.884033 1685.291016,878.050049 
	C1693.451294,885.241150 1702.835938,885.745239 1710.935181,879.897095 
	C1722.414429,871.608337 1733.745239,870.571655 1746.303711,875.821960 
	C1746.900635,876.071472 1747.626343,875.992188 1748.264038,876.167786 
	C1762.674561,880.135864 1777.516724,882.987244 1791.398071,888.332886 
	C1820.462891,899.525818 1849.033569,912.004089 1877.779053,924.022339 
	C1885.349243,927.187378 1892.815918,930.600220 1899.917847,934.462524 
	C1892.207031,946.563904 1885.164429,958.276001 1877.492920,969.560547 
	C1874.076050,974.586670 1873.383911,979.218079 1876.351562,984.262207 
	C1879.300781,989.274475 1878.960327,994.306885 1877.562988,999.622742 
	C1875.195679,1008.627625 1873.587524,1017.870361 1870.654053,1026.677979 
	C1867.289062,1036.780762 1868.211792,1045.925903 1872.683838,1055.496094 
	C1881.686646,1074.762329 1886.246094,1094.968262 1884.390869,1116.497681 
	C1883.829834,1123.007324 1882.670532,1128.783081 1878.247070,1134.368530 
	C1870.317261,1133.073853 1862.501709,1131.541870 1854.617188,1130.571289 
	C1843.160156,1129.161255 1832.665405,1130.479614 1826.335083,1142.085815 
	C1824.751831,1144.988647 1822.821899,1147.825317 1820.538086,1150.198608 
	C1814.942627,1156.013428 1807.087036,1160.341431 1800.127441,1156.792114 
	C1787.854126,1150.532715 1778.843140,1153.461060 1770.107056,1162.258057 
	C1769.642456,1162.725708 1769.025146,1163.037476 1768.518188,1163.467773 
	C1765.700684,1165.858276 1762.862061,1166.271973 1759.349854,1164.576050 
	C1756.256714,1163.082764 1752.769043,1162.407104 1748.180420,1160.971313 
	C1748.180420,1170.836060 1748.180420,1179.056641 1748.180420,1186.947510 
	C1743.827271,1189.194214 1740.298706,1191.015259 1736.044067,1193.211060 
	C1737.855591,1205.668335 1730.617432,1218.432983 1737.503296,1231.164429 
	C1736.961060,1232.250000 1736.603760,1233.651611 1735.740723,1234.586060 
	C1727.715210,1243.276978 1730.501587,1254.819580 1728.312012,1264.930420 
	C1727.246948,1269.848022 1729.847656,1275.744263 1726.711792,1281.030884 
	C1726.194824,1281.902588 1727.090454,1283.567505 1727.224121,1284.876953 
	C1728.234253,1294.778564 1724.145142,1298.718262 1714.074707,1296.901733 
	C1714.421143,1300.232788 1714.750366,1303.398926 1715.124512,1306.996094 
	C1710.770508,1308.465942 1707.214600,1310.502563 1707.833618,1316.141479 
	C1707.974609,1317.424438 1705.718140,1319.266724 1704.211426,1320.367065 
	C1701.803101,1322.125610 1699.046265,1323.397095 1696.528442,1325.017090 
	C1685.102417,1332.367310 1683.902344,1336.705078 1689.588745,1348.843018 
	C1692.367554,1354.774780 1696.338989,1360.453857 1693.613403,1367.755859 
	C1688.969971,1371.269775 1693.781250,1375.280396 1692.185913,1378.648071 
	C1690.390381,1382.438354 1687.075439,1385.722290 1686.094971,1389.644775 
	C1683.224731,1401.127197 1683.551514,1401.232788 1672.116211,1401.578247 
	C1668.124756,1401.698853 1664.124023,1401.811401 1660.135986,1401.677612 
	C1650.172852,1401.343140 1640.189819,1400.213135 1630.260010,1400.591309 
	C1613.674561,1401.223022 1597.123779,1402.772949 1580.559937,1403.956909 
	C1576.209961,1404.267822 1572.156860,1404.234497 1568.224609,1401.456055 
	C1545.983154,1385.740601 1521.352661,1373.534424 1500.868286,1355.196899 
	C1494.455811,1349.456543 1486.399902,1348.069702 1478.595947,1351.834351 
	C1471.175415,1355.413696 1464.176270,1359.962769 1457.297852,1364.544922 
	C1448.662720,1370.297241 1440.104492,1370.724731 1432.013672,1364.283447 
	C1425.798584,1359.335815 1419.918457,1353.886353 1414.403198,1348.164551 
	C1409.156982,1342.721680 1407.444702,1342.672363 1401.478027,1347.599731 
	C1395.893799,1352.211426 1389.692017,1356.087402 1383.671875,1360.153931 
	C1380.711426,1362.153442 1377.605347,1362.519897 1374.347656,1360.399292 
	C1372.128174,1358.954468 1369.671509,1357.858643 1367.271729,1356.709473 
	C1361.592041,1353.989136 1356.283691,1353.601929 1350.243408,1356.828979 
	C1343.560791,1360.398804 1336.195435,1362.786377 1328.970703,1365.224609 
	C1317.249878,1369.180420 1308.858643,1364.073608 1305.803101,1351.723267 
	C1305.457642,1350.327026 1304.021973,1349.200439 1302.672974,1347.363037 
	C1299.441895,1344.431763 1296.722290,1341.963623 1293.802612,1339.760498 
	C1277.123169,1327.173950 1253.883545,1321.070435 1232.685913,1339.618530 
	C1229.245728,1342.628662 1225.484741,1345.272583 1221.136353,1348.658569 
	C1218.538452,1339.534302 1211.900879,1337.141724 1204.521240,1335.659302 
	C1201.928467,1335.138428 1199.497681,1333.800903 1196.903564,1333.299194 
	C1185.617920,1331.116699 1174.336792,1330.241821 1164.253052,1337.236816 
	C1158.353271,1341.329468 1152.578613,1340.955444 1146.322021,1338.596558 
	C1144.578003,1331.933838 1145.348389,1326.128296 1148.905518,1320.285278 
	C1151.643555,1315.787598 1154.154297,1310.737305 1155.030762,1305.634644 
	C1155.941284,1300.334717 1156.818481,1293.045532 1154.036987,1289.544922 
	C1149.505493,1283.842163 1142.475342,1279.398560 1135.632568,1276.405518 
	C1120.165527,1269.639893 1112.283203,1257.475952 1107.997070,1242.084717 
	C1107.015503,1238.560181 1107.434692,1235.006226 1110.836548,1233.338257 
	C1114.931152,1231.330444 1119.560303,1228.780273 1123.817383,1229.015015 
	C1143.634399,1230.107544 1162.742432,1224.905640 1182.235962,1223.388306 
	C1191.301880,1216.937500 1201.273071,1218.653198 1211.398193,1219.616821 
	C1218.536499,1220.296021 1222.202515,1216.672119 1224.213501,1209.863770 
	C1225.613159,1205.125366 1226.846802,1200.183105 1229.215942,1195.922119 
	C1232.757568,1189.552490 1232.119995,1184.561157 1227.819092,1178.647339 
	C1221.582153,1170.071777 1216.521118,1160.648071 1210.768921,1151.708130 
	C1209.203125,1149.274536 1207.231079,1146.932495 1204.973145,1145.145020 
	C1197.310303,1139.078491 1188.373535,1136.710083 1178.760742,1137.859985 
	C1166.680786,1139.304932 1155.717529,1136.489014 1145.236694,1130.671265 
	C1133.903687,1124.380371 1122.442017,1118.321533 1111.398560,1111.508301 
	C1146.735352,1059.100342 1181.709961,1007.345398 1217.288574,954.696594 
	C1181.352173,934.468018 1146.416626,914.802795 1110.481689,894.575012 
	C1179.068237,793.492554 1246.988525,693.392029 1314.928711,593.262207 
	C1313.530029,591.509827 1312.856323,590.341431 1311.893311,589.506592 
	C1291.021362,571.412109 1270.064331,553.415283 1249.235107,535.271973 
	C1231.171997,519.538086 1213.246460,503.646240 1195.965088,487.347046 
	C1226.094849,483.075409 1255.519653,479.280945 1284.944580,475.486481 
	C1284.883911,474.854126 1284.823120,474.221771 1284.762451,473.589417 
	C1280.797852,473.589417 1276.833374,473.589417 1272.868774,473.589417 
	C1056.791748,473.589417 840.714722,473.591644 624.637695,473.572296 
	C620.655640,473.571930 616.673645,473.314911 612.691589,473.177673 
z"/>
<path data-name="Lobo" style="fill: {#AB639C}" fill="#AB639C" opacity="1.000000" stroke="none" 
	d="
M524.888306,2784.000000 
	C524.188721,2783.220459 524.808289,2782.068604 524.503235,2781.715576 
	C516.336121,2772.256836 505.904480,2766.504639 493.504303,2766.391357 
	C485.060394,2766.314209 476.607025,2768.731689 468.130798,2769.822998 
	C465.682800,2770.138428 463.123688,2769.881592 460.645874,2769.610352 
	C456.481445,2769.154053 452.356720,2768.292236 448.186646,2767.940674 
	C443.812897,2767.572266 439.405457,2767.603760 434.746979,2765.626465 
	C432.959167,2767.015137 431.205688,2768.450928 429.375793,2769.781982 
	C426.424316,2771.928955 423.705627,2774.941406 420.390991,2775.945068 
	C408.585297,2779.520020 400.466095,2778.656494 401.495361,2764.340576 
	C402.242371,2753.950439 407.092834,2745.298340 411.088135,2736.295898 
	C412.145081,2733.914062 416.424316,2732.659180 419.462494,2731.526855 
	C424.633698,2729.599854 428.420166,2727.300049 426.673065,2720.711914 
	C426.214508,2718.982910 427.261322,2716.862305 427.585693,2714.916260 
	C428.248688,2710.938477 427.295746,2707.594238 423.468628,2705.693359 
	C415.643188,2701.806396 413.126892,2694.617676 412.489838,2686.836914 
	C412.035797,2681.290771 409.031982,2677.977539 405.681885,2674.136230 
	C402.549927,2670.544922 399.443207,2666.008301 398.676422,2661.489258 
	C397.460663,2654.324219 394.766632,2648.254150 390.643402,2642.511475 
	C385.125885,2634.826904 387.363434,2627.230957 396.102325,2623.553955 
	C397.020477,2623.167480 397.967285,2622.621582 398.919647,2622.579834 
	C407.373901,2622.208984 412.156219,2617.601807 414.141418,2609.648926 
	C415.426758,2604.500000 418.637756,2601.732910 424.037018,2601.499756 
	C434.292664,2601.057617 441.799347,2595.209961 449.354523,2589.037598 
	C459.759521,2580.537109 470.604767,2572.575684 481.253296,2564.372803 
	C489.200409,2558.251221 488.982361,2557.913330 485.209656,2549.069336 
	C483.442139,2544.926025 481.885559,2539.903320 482.568726,2535.654541 
	C484.498718,2523.651367 484.745911,2511.182617 490.978241,2500.106201 
	C495.149597,2492.692627 497.167175,2485.019775 492.557922,2476.713623 
	C491.010529,2473.925293 490.863922,2470.330322 490.219879,2467.075684 
	C487.914703,2455.426514 481.699585,2451.634033 469.728699,2453.763916 
	C462.570068,2455.037354 455.241608,2455.440186 447.970428,2455.975342 
	C439.245392,2456.617676 435.090759,2453.336182 436.000702,2444.554443 
	C436.981995,2435.084229 433.192078,2425.187500 438.445374,2416.077637 
	C439.005646,2415.105957 438.849731,2413.422607 438.467255,2412.252197 
	C435.053619,2401.805908 440.286072,2394.180420 445.886871,2386.097168 
	C450.552277,2379.363770 453.756927,2371.593994 457.387787,2364.175293 
	C460.590881,2357.631104 463.401642,2350.895752 466.547516,2344.322266 
	C469.389435,2338.383789 472.204742,2332.407471 475.508240,2326.724854 
	C477.448303,2323.387695 479.830811,2319.920654 482.880188,2317.702393 
	C487.907288,2314.045654 493.469849,2315.815674 496.945953,2321.185059 
	C504.519836,2332.884277 515.840698,2339.464355 528.523071,2344.103027 
	C532.259827,2345.469482 536.128723,2346.474854 539.937683,2347.643311 
	C551.379944,2351.153564 562.827393,2343.637451 564.089539,2331.418213 
	C564.455261,2327.877197 563.502502,2324.200684 563.162354,2320.585693 
	C562.698792,2315.658447 561.156799,2310.531738 562.016418,2305.846191 
	C563.662354,2296.874268 563.984253,2288.138916 562.419312,2279.173340 
	C561.799377,2275.621582 562.317566,2271.871582 562.317566,2267.554688 
	C569.093933,2264.004639 573.677734,2257.446045 573.045959,2250.304443 
	C572.250000,2241.307373 571.106995,2231.909912 565.590698,2223.782959 
	C560.956116,2216.954590 556.881287,2209.639404 553.491333,2202.119385 
	C551.807373,2198.383545 552.736267,2193.552490 551.553772,2189.487305 
	C549.988647,2184.106934 552.186340,2177.086914 544.562866,2173.227051 
	C541.752380,2175.523682 538.782715,2177.950439 535.633362,2180.523926 
	C529.966553,2178.727295 527.054443,2175.164062 527.636169,2168.796875 
	C528.149719,2163.176270 529.507202,2157.163574 528.139343,2151.940186 
	C525.504639,2141.880371 527.190430,2131.758789 525.865295,2121.774658 
	C525.614075,2119.881836 524.749207,2117.685547 523.425415,2116.383057 
	C515.284363,2108.372070 512.491089,2097.633789 508.972351,2086.889648 
	C529.638000,2086.118164 549.630615,2086.074463 569.623108,2085.983643 
	C572.950195,2085.968506 576.286987,2085.875977 579.601196,2085.601318 
	C593.141296,2084.479492 606.654480,2082.735107 620.215088,2082.232910 
	C637.520996,2081.591797 654.863098,2081.870605 672.189636,2081.867920 
	C682.184692,2081.866211 692.195618,2081.776367 702.171509,2082.278809 
	C723.045166,2083.330078 743.895386,2084.841553 764.766052,2085.960938 
	C771.745361,2086.335205 778.782104,2085.754883 785.745911,2086.257568 
	C789.932251,2086.559814 794.380981,2087.396240 798.100464,2089.231445 
	C810.330627,2095.266357 822.106750,2102.229980 834.389709,2108.146484 
	C846.244080,2113.856445 855.043518,2122.087646 860.274109,2134.239990 
	C861.837708,2137.872803 864.208069,2141.174072 866.345215,2144.540771 
	C871.502319,2152.664307 876.156372,2161.194580 882.068237,2168.733643 
	C893.947876,2183.882812 906.360107,2198.626709 918.880981,2213.256836 
	C928.121765,2224.054199 935.711975,2236.289062 947.612671,2244.810791 
	C955.962708,2250.790039 963.476440,2257.925781 971.499939,2264.375488 
	C983.652710,2274.144287 995.721252,2283.925293 1009.266296,2291.928711 
	C1024.395020,2300.867920 1038.804077,2311.046387 1053.329346,2320.973877 
	C1058.246826,2324.334473 1062.242554,2328.261475 1062.498413,2335.394287 
	C1062.852539,2345.274170 1064.675049,2355.103516 1065.905518,2364.949951 
	C1066.447266,2369.285889 1064.859375,2372.579346 1061.686157,2375.558594 
	C1055.129272,2381.715088 1049.047363,2388.393311 1042.310181,2394.335449 
	C1038.675903,2397.540527 1034.366821,2400.341309 1029.890991,2402.173096 
	C1002.828857,2413.248779 975.634583,2424.002197 948.473389,2434.835449 
	C943.706482,2436.736816 939.744385,2439.214111 937.594177,2444.363525 
	C935.815857,2448.622314 932.396851,2452.238281 930.878784,2456.552002 
	C929.278870,2461.098389 928.416138,2466.134521 928.411987,2470.957520 
	C928.406067,2477.884033 929.427002,2484.816162 930.095276,2491.737305 
	C930.380615,2494.692627 930.668945,2497.675293 931.320618,2500.562988 
	C934.895325,2516.403076 938.583130,2532.217529 942.232056,2548.040771 
	C941.366882,2548.470947 940.519104,2549.237061 939.633972,2549.283203 
	C907.784424,2550.938232 875.927917,2552.460693 844.080444,2554.153564 
	C830.152100,2554.893799 816.241272,2555.963867 803.026794,2556.837402 
	C794.375793,2564.843018 785.895996,2572.645752 777.475586,2580.512207 
	C775.308350,2582.536865 773.342468,2584.775635 771.258057,2586.890625 
	C764.531250,2593.715576 757.590515,2600.343262 751.120850,2607.403076 
	C745.748108,2613.265869 740.735474,2619.490967 735.971497,2625.860840 
	C734.516602,2627.806152 734.140869,2630.719482 733.741821,2633.263428 
	C732.531189,2640.981201 730.848511,2642.398438 723.575745,2644.297119 
	C719.952148,2645.243164 716.023254,2647.211670 713.528992,2649.914307 
	C702.341614,2662.036133 686.491943,2665.060303 672.420654,2671.432617 
	C669.666748,2672.679688 665.283691,2671.138672 661.916016,2670.059570 
	C653.969116,2667.513428 646.093933,2665.103027 637.587524,2665.411377 
	C629.501587,2665.705078 628.984070,2665.851562 626.196899,2673.672119 
	C624.859314,2677.425537 623.330261,2681.197021 622.682983,2685.092529 
	C621.198486,2694.026855 615.051636,2697.572510 607.311035,2700.082520 
	C600.412537,2702.319824 593.744751,2705.268555 587.495850,2707.700439 
	C587.495850,2721.857666 587.495850,2734.990234 587.495850,2747.605225 
	C577.770935,2754.440186 567.031738,2752.852051 555.929871,2754.502686 
	C557.185242,2767.701416 545.902405,2773.604980 539.801025,2783.308594 
	C535.258850,2784.000000 530.517761,2784.000000 524.888306,2784.000000 
z"/>
<path data-name="Batchenga" style="fill: {#A18038}" fill="#A18038" opacity="1.000000" stroke="none" 
	d="
M1899.917847,934.462524 
	C1912.888428,943.657166 1925.846436,952.951965 1937.870728,963.328796 
	C1946.509277,970.783569 1957.104614,971.877319 1967.166504,974.780823 
	C1969.656372,975.499268 1972.936768,973.803894 1975.770752,972.944214 
	C1985.304688,970.052368 1994.695190,966.607544 2004.349976,964.221497 
	C2010.682983,962.656372 2017.392944,961.807617 2023.907104,961.941589 
	C2040.487793,962.282532 2057.060547,963.236145 2073.621094,964.204468 
	C2078.983154,964.517944 2083.096680,962.725830 2087.207275,959.425964 
	C2110.782471,940.499512 2134.475586,921.718750 2158.250000,903.042908 
	C2161.303467,900.644104 2164.863281,898.538635 2168.529541,897.338501 
	C2178.602295,894.041382 2188.856689,891.298218 2199.636475,888.162048 
	C2203.056396,891.816833 2206.529541,895.316956 2209.753662,899.033020 
	C2213.026123,902.804993 2216.597900,905.126526 2221.907471,903.748657 
	C2224.768066,903.006348 2227.832520,903.084656 2230.733643,902.460205 
	C2248.457275,898.644897 2259.895752,911.662537 2261.543457,927.808167 
	C2262.093262,933.192810 2262.744629,938.176697 2265.340088,943.012390 
	C2268.833496,949.520813 2270.728027,956.484375 2270.406982,964.064026 
	C2270.290527,966.812622 2271.667969,969.624512 2273.181885,972.203735 
	C2274.000000,978.061218 2274.000000,984.122375 2273.471680,990.950073 
	C2273.295654,992.477783 2273.647705,993.238892 2274.000000,994.000000 
	C2274.000000,1002.049072 2274.000000,1010.098206 2273.677734,1019.317017 
	C2273.219971,1020.718994 2272.922119,1021.098083 2272.976807,1021.158936 
	C2273.269043,1021.483337 2273.649902,1021.727844 2274.000000,1022.000000 
	C2274.000000,1022.888916 2274.000000,1023.777832 2273.441406,1025.414307 
	C2273.255127,1026.774536 2273.627441,1027.387329 2274.000000,1028.000000 
	C2274.000000,1031.428711 2274.000000,1034.857422 2273.225586,1038.864136 
	C2271.979736,1039.895508 2271.312500,1040.261597 2271.066162,1040.815063 
	C2266.308838,1051.501953 2269.840820,1062.263428 2270.975098,1072.984009 
	C2271.021729,1073.424561 2272.948975,1073.665894 2274.000000,1074.000000 
	C2274.000000,1080.061157 2274.000000,1086.122437 2274.000000,1093.091797 
	C2272.839355,1094.637695 2270.789062,1095.140625 2270.668457,1095.935669 
	C2270.073975,1099.864014 2269.832031,1103.867065 2269.760498,1107.848877 
	C2269.635254,1114.838989 2269.596680,1121.836060 2269.760010,1128.824463 
	C2269.927002,1135.953735 2268.177002,1142.087280 2261.429932,1145.612061 
	C2249.207520,1151.997559 2245.813477,1164.893799 2239.217773,1175.421997 
	C2238.558838,1176.473877 2238.182373,1178.035522 2238.384033,1179.242188 
	C2240.364502,1191.118286 2235.127197,1202.048218 2233.918213,1213.503052 
	C2233.551270,1216.980713 2231.551514,1220.286133 2230.074951,1224.278076 
	C2225.978271,1223.796021 2222.422363,1223.263184 2218.846680,1222.983276 
	C2213.241943,1222.544800 2207.367432,1221.090210 2202.075439,1222.233276 
	C2195.209229,1223.716431 2190.588867,1221.647217 2186.153076,1217.095581 
	C2184.305176,1215.199463 2182.291016,1213.401001 2180.116699,1211.899292 
	C2172.382080,1206.557861 2168.416748,1206.641968 2161.972656,1213.428833 
	C2157.349854,1218.297607 2152.909180,1219.314087 2146.945801,1216.220825 
	C2144.201904,1214.797363 2140.828857,1214.586060 2138.371826,1213.980591 
	C2130.086914,1222.370117 2131.049316,1230.033447 2138.489014,1238.356934 
	C2134.252197,1242.945801 2130.496338,1247.494873 2126.236816,1251.509277 
	C2120.507568,1256.908691 2119.832764,1259.989380 2125.276611,1265.514648 
	C2129.137451,1269.433350 2131.228027,1272.935425 2129.085938,1278.679565 
	C2128.034424,1281.499023 2129.273438,1285.128784 2129.267578,1288.391357 
	C2129.254639,1295.653198 2129.406250,1302.933350 2128.948242,1310.171875 
	C2128.321289,1320.080811 2126.714355,1329.945312 2126.456543,1339.853149 
	C2126.302734,1345.753296 2124.909668,1350.760010 2122.036133,1355.820068 
	C2119.113770,1360.966309 2115.476074,1363.903198 2109.362549,1363.725464 
	C2106.414551,1363.639526 2103.444092,1364.338745 2099.586426,1364.786621 
	C2098.540283,1368.010986 2096.892334,1371.332031 2096.427734,1374.811279 
	C2093.716797,1395.112549 2079.315430,1407.892334 2066.490479,1421.635986 
	C2064.852295,1423.391602 2061.880127,1424.235229 2059.368652,1424.788574 
	C2045.155762,1427.920410 2032.387451,1434.701416 2020.553711,1442.479492 
	C2011.801392,1448.232178 2003.410034,1448.572388 1994.078369,1447.274658 
	C1986.868896,1446.271973 1979.663574,1445.238647 1972.464966,1444.162354 
	C1967.489624,1443.418579 1963.424438,1444.917969 1959.872803,1448.500610 
	C1949.590454,1458.873535 1939.193970,1469.133301 1927.653442,1479.497314 
	C1921.349365,1477.143311 1916.212402,1474.774170 1911.122192,1472.308350 
	C1857.774292,1446.466064 1804.446411,1420.582520 1751.084839,1394.768799 
	C1732.203613,1385.635132 1713.244995,1376.661255 1694.321777,1367.614502 
	C1696.338989,1360.453857 1692.367554,1354.774780 1689.588745,1348.843018 
	C1683.902344,1336.705078 1685.102417,1332.367310 1696.528442,1325.017090 
	C1699.046265,1323.397095 1701.803101,1322.125610 1704.211426,1320.367065 
	C1705.718140,1319.266724 1707.974609,1317.424438 1707.833618,1316.141479 
	C1707.214600,1310.502563 1710.770508,1308.465942 1715.124512,1306.996094 
	C1714.750366,1303.398926 1714.421143,1300.232788 1714.074707,1296.901733 
	C1724.145142,1298.718262 1728.234253,1294.778564 1727.224121,1284.876953 
	C1727.090454,1283.567505 1726.194824,1281.902588 1726.711792,1281.030884 
	C1729.847656,1275.744263 1727.246948,1269.848022 1728.312012,1264.930420 
	C1730.501587,1254.819580 1727.715210,1243.276978 1735.740723,1234.586060 
	C1736.603760,1233.651611 1736.961060,1232.250000 1737.503296,1231.164429 
	C1730.617432,1218.432983 1737.855591,1205.668335 1736.044067,1193.211060 
	C1740.298706,1191.015259 1743.827271,1189.194214 1748.180420,1186.947510 
	C1748.180420,1179.056641 1748.180420,1170.836060 1748.180420,1160.971313 
	C1752.769043,1162.407104 1756.256714,1163.082764 1759.349854,1164.576050 
	C1762.862061,1166.271973 1765.700684,1165.858276 1768.518188,1163.467773 
	C1769.025146,1163.037476 1769.642456,1162.725708 1770.107056,1162.258057 
	C1778.843140,1153.461060 1787.854126,1150.532715 1800.127441,1156.792114 
	C1807.087036,1160.341431 1814.942627,1156.013428 1820.538086,1150.198608 
	C1822.821899,1147.825317 1824.751831,1144.988647 1826.335083,1142.085815 
	C1832.665405,1130.479614 1843.160156,1129.161255 1854.617188,1130.571289 
	C1862.501709,1131.541870 1870.317261,1133.073853 1878.247070,1134.368530 
	C1882.670532,1128.783081 1883.829834,1123.007324 1884.390869,1116.497681 
	C1886.246094,1094.968262 1881.686646,1074.762329 1872.683838,1055.496094 
	C1868.211792,1045.925903 1867.289062,1036.780762 1870.654053,1026.677979 
	C1873.587524,1017.870361 1875.195679,1008.627625 1877.562988,999.622742 
	C1878.960327,994.306885 1879.300781,989.274475 1876.351562,984.262207 
	C1873.383911,979.218079 1874.076050,974.586670 1877.492920,969.560547 
	C1885.164429,958.276001 1892.207031,946.563904 1899.917847,934.462524 
z"/>
<path data-name="Monatélé" style="fill: {#FA6469}" fill="#FA6469" opacity="1.000000" stroke="none" 
	d="
M212.718063,1572.092896 
	C202.519928,1569.580322 191.962326,1568.009888 182.951889,1560.380981 
	C180.560226,1563.045898 178.024155,1565.542603 175.870560,1568.334351 
	C169.935898,1576.027710 163.740768,1577.749146 154.489639,1576.116089 
	C144.146240,1574.290161 138.437698,1567.756592 133.865906,1557.793701 
	C133.322327,1551.670776 132.910080,1546.992676 133.021576,1541.738647 
	C134.500320,1535.338013 136.356323,1529.494751 136.237259,1523.692017 
	C135.911789,1507.830933 134.838028,1491.981689 133.879822,1476.138794 
	C133.549225,1470.672729 132.685501,1465.239014 132.202759,1458.881592 
	C131.711624,1448.050781 131.083023,1438.128906 130.454437,1428.207031 
	C130.438538,1425.415039 130.422638,1422.623047 131.292007,1418.956543 
	C139.993042,1422.062866 146.283173,1416.549805 153.000809,1414.428345 
	C155.841080,1413.531494 159.173462,1411.216797 160.381699,1408.651489 
	C165.187592,1398.447754 175.425491,1396.257935 184.029724,1391.854492 
	C189.491501,1389.059326 194.914886,1390.467651 199.112381,1395.441528 
	C200.108017,1396.621216 201.700943,1397.296753 203.365753,1398.442749 
	C212.874496,1390.527100 223.735504,1390.925781 234.842239,1392.562012 
	C237.050262,1392.887329 239.451508,1393.206421 241.557983,1392.689819 
	C250.770828,1390.430054 263.491272,1371.362549 259.006927,1361.673828 
	C256.171570,1355.547729 259.166351,1350.653320 263.269287,1347.617798 
	C270.904053,1341.969360 278.744171,1336.396729 289.168823,1336.104126 
	C305.143982,1335.655762 312.203857,1328.967041 317.587860,1314.346802 
	C326.132812,1291.142944 336.044006,1268.532837 358.636597,1254.856445 
	C359.757294,1254.177979 361.011627,1253.414673 361.691376,1252.360596 
	C368.721924,1241.458862 380.121033,1238.122070 391.657471,1236.813232 
	C400.495697,1235.810303 408.341797,1232.830078 416.430084,1229.888062 
	C426.397980,1226.262329 436.961853,1223.914429 446.388428,1219.240112 
	C463.213593,1210.897217 480.491608,1206.771362 499.261200,1208.102783 
	C506.864563,1208.642212 514.560852,1207.812866 522.216187,1207.691772 
	C533.141479,1207.518921 542.397705,1202.373657 550.177979,1195.851196 
	C565.805481,1182.750122 577.127563,1166.265015 581.039978,1145.854004 
	C584.081726,1129.985352 593.410034,1118.963379 605.874695,1109.921021 
	C614.390259,1103.743530 617.804382,1093.252441 614.423157,1082.892822 
	C611.621155,1074.307739 609.743713,1065.587646 610.302002,1056.457886 
	C610.848755,1047.518311 611.522522,1038.570435 611.582947,1029.622559 
	C611.627625,1023.014343 610.540955,1016.405396 610.391541,1009.787048 
	C610.242737,1003.194458 612.720520,998.146118 618.215210,993.617310 
	C634.516663,980.181458 651.973572,969.028564 671.611511,961.025757 
	C687.260193,954.648743 702.444702,947.132812 718.279663,940.632568 
	C728.754333,955.647644 737.535217,970.856628 744.008545,987.289001 
	C745.720703,991.635254 748.119873,994.966064 752.668152,996.104126 
	C759.206116,997.740112 763.359070,1002.454773 767.907166,1006.865173 
	C773.866577,1012.644348 780.205933,1018.029663 786.284302,1023.689148 
	C789.688293,1026.858521 793.152771,1030.022339 796.141113,1033.567139 
	C804.283203,1043.225220 812.338379,1052.965454 820.130005,1062.906616 
	C825.170105,1069.337158 831.548706,1072.511353 839.746643,1073.239014 
	C844.575256,1066.079956 849.701355,1059.475708 853.764343,1052.271973 
	C866.713135,1029.312988 887.832458,1013.320007 903.738098,992.908447 
	C904.139038,992.393799 904.771118,992.066345 905.233276,991.591248 
	C908.303101,988.435547 911.564392,987.879822 916.049316,989.007690 
	C926.091370,991.533142 933.950623,997.229248 941.731873,1003.657410 
	C949.486633,1010.063599 951.122009,1018.398865 948.449768,1026.756714 
	C945.549255,1035.828369 945.978760,1044.221924 947.864807,1053.158325 
	C948.763123,1057.414429 950.595520,1059.421875 954.660339,1060.464844 
	C959.972534,1061.828247 965.132996,1063.783203 970.886536,1065.655396 
	C968.975342,1070.636475 967.495850,1074.492432 966.298767,1077.612183 
	C970.932312,1082.086670 975.491211,1085.548340 978.872498,1089.920654 
	C991.989685,1106.882690 1010.810242,1108.408569 1029.316650,1106.738403 
	C1042.747925,1105.526123 1054.889038,1105.081177 1066.315430,1112.975952 
	C1068.759766,1114.664795 1071.461304,1116.413574 1074.281616,1117.008179 
	C1077.276489,1117.639648 1081.444458,1118.142334 1083.551880,1116.594116 
	C1092.140015,1110.284424 1101.332397,1110.211792 1111.036377,1112.161499 
	C1122.442017,1118.321533 1133.903687,1124.380371 1145.236694,1130.671265 
	C1155.717529,1136.489014 1166.680786,1139.304932 1178.760742,1137.859985 
	C1188.373535,1136.710083 1197.310303,1139.078491 1204.973145,1145.145020 
	C1207.231079,1146.932495 1209.203125,1149.274536 1210.768921,1151.708130 
	C1216.521118,1160.648071 1221.582153,1170.071777 1227.819092,1178.647339 
	C1232.119995,1184.561157 1232.757568,1189.552490 1229.215942,1195.922119 
	C1226.846802,1200.183105 1225.613159,1205.125366 1224.213501,1209.863770 
	C1222.202515,1216.672119 1218.536499,1220.296021 1211.398193,1219.616821 
	C1201.273071,1218.653198 1191.301880,1216.937500 1182.235962,1223.388306 
	C1162.742432,1224.905640 1143.634399,1230.107544 1123.817383,1229.015015 
	C1119.560303,1228.780273 1114.931152,1231.330444 1110.836548,1233.338257 
	C1107.434692,1235.006226 1107.015503,1238.560181 1107.997070,1242.084717 
	C1112.283203,1257.475952 1120.165527,1269.639893 1135.632568,1276.405518 
	C1142.475342,1279.398560 1149.505493,1283.842163 1154.036987,1289.544922 
	C1156.818481,1293.045532 1155.941284,1300.334717 1155.030762,1305.634644 
	C1154.154297,1310.737305 1151.643555,1315.787598 1148.905518,1320.285278 
	C1145.348389,1326.128296 1144.578003,1331.933838 1146.322021,1338.596558 
	C1152.578613,1340.955444 1158.353271,1341.329468 1164.253052,1337.236816 
	C1174.336792,1330.241821 1185.617920,1331.116699 1196.903564,1333.299194 
	C1199.497681,1333.800903 1201.928467,1335.138428 1204.521240,1335.659302 
	C1211.900879,1337.141724 1218.538452,1339.534302 1221.136353,1348.658569 
	C1225.484741,1345.272583 1229.245728,1342.628662 1232.685913,1339.618530 
	C1253.883545,1321.070435 1277.123169,1327.173950 1293.802612,1339.760498 
	C1296.722290,1341.963623 1299.441895,1344.431763 1301.733765,1347.490356 
	C1292.237305,1346.673950 1285.449341,1349.919312 1280.130127,1357.241089 
	C1277.254639,1361.198975 1273.645142,1364.623413 1269.708496,1368.473633 
	C1261.046631,1374.026978 1255.648926,1381.486938 1251.867920,1390.209229 
	C1249.929688,1394.680298 1247.193237,1398.472656 1242.264038,1399.631958 
	C1228.599976,1402.845459 1217.823364,1411.336304 1206.202148,1418.460938 
	C1192.560181,1426.824219 1178.659180,1433.261719 1161.236694,1430.518311 
	C1135.678833,1426.494019 1109.705811,1425.180176 1084.031616,1421.788696 
	C1071.296753,1420.106567 1058.357056,1420.095825 1045.903809,1415.076904 
	C1030.046265,1408.686279 1013.311523,1406.317139 996.158752,1410.920532 
	C992.497314,1411.903320 987.979614,1412.190063 984.534119,1410.935791 
	C978.392090,1408.699951 974.490723,1410.774902 970.426086,1414.936401 
	C962.179138,1423.380127 952.487549,1429.437866 941.254822,1433.539185 
	C932.973389,1436.562622 927.294922,1435.733032 921.204407,1428.807129 
	C911.568237,1417.849121 900.813599,1407.868042 890.408203,1397.599121 
	C888.329163,1395.547363 885.915283,1393.128418 883.270752,1392.500854 
	C877.496155,1391.130249 871.421448,1389.920410 865.566284,1390.269653 
	C858.047058,1390.718262 852.070374,1388.493042 846.151611,1384.225098 
	C842.277832,1381.431885 837.601013,1379.752319 833.283875,1377.574097 
	C833.270142,1378.356445 833.256470,1379.138916 833.242798,1379.921265 
	C823.057861,1384.669067 812.862061,1389.393921 802.694641,1394.179077 
	C799.721741,1395.578003 796.145691,1396.506226 794.029236,1398.760864 
	C787.891052,1405.299805 781.798218,1412.018188 776.710022,1419.373535 
	C768.958435,1430.578979 762.483826,1442.672485 754.650452,1453.814819 
	C749.987000,1460.448364 748.811462,1467.102295 750.721069,1474.499146 
	C752.627930,1481.885742 754.741516,1489.249146 757.323669,1496.421509 
	C759.304688,1501.924316 758.317932,1505.899170 753.713501,1509.501099 
	C745.735291,1515.742065 736.473389,1517.509888 726.742798,1518.112793 
	C711.363098,1519.065796 696.483093,1521.834351 682.656128,1529.245239 
	C679.332520,1531.026733 675.101990,1531.697754 671.256592,1531.812744 
	C660.658508,1532.129883 650.032715,1531.574951 639.438232,1531.945801 
	C629.321777,1532.299927 625.034485,1537.786255 626.405396,1547.828613 
	C626.715393,1550.098999 627.697754,1552.291870 628.480591,1554.481079 
	C631.532959,1563.017456 631.201233,1563.735596 623.914490,1569.364868 
	C620.814026,1571.759888 618.169800,1574.745239 614.506348,1577.525635 
	C608.159668,1577.986084 602.624939,1578.383301 597.885315,1578.723511 
	C594.466919,1572.131348 591.517334,1566.601074 588.714111,1560.997681 
	C585.171509,1553.916138 580.882202,1547.053101 578.483276,1539.591797 
	C575.177246,1529.309204 568.591736,1521.637695 561.462280,1514.197876 
	C558.622437,1511.234375 555.269104,1510.066406 550.669678,1511.478271 
	C547.139160,1512.562134 542.795959,1512.218384 539.122620,1511.289551 
	C535.095764,1510.271606 531.836975,1510.404785 529.208374,1513.580688 
	C519.432007,1525.392456 505.474701,1529.088623 491.614075,1532.432251 
	C480.453003,1535.124756 470.097687,1540.906250 458.206085,1540.929199 
	C455.748352,1540.933960 453.305939,1542.844116 450.835327,1543.822510 
	C448.060486,1544.921387 445.345703,1546.407104 442.459137,1546.949585 
	C427.518005,1549.757080 414.196289,1556.335693 401.202484,1563.877808 
	C385.447113,1573.022583 367.962982,1579.043579 353.615204,1590.836792 
	C350.546478,1593.359131 345.459229,1594.807007 341.448639,1594.540405 
	C329.892639,1593.772705 320.915405,1592.344360 325.635162,1575.962280 
	C327.616943,1569.083740 327.826691,1562.406006 326.273224,1555.386230 
	C323.568817,1543.166138 321.406006,1530.826050 319.293732,1519.963623 
	C312.029480,1517.408691 306.303131,1515.766968 300.914581,1513.366821 
	C297.404602,1511.803467 294.630829,1511.967896 291.666687,1514.143188 
	C289.792053,1515.519165 287.794678,1516.730957 285.827454,1517.977051 
	C276.843719,1523.666626 276.152100,1523.596069 267.620544,1516.593262 
	C266.625092,1515.776367 265.449554,1515.178833 264.357513,1514.479614 
	C264.260895,1515.053955 264.164276,1515.628296 264.067688,1516.202637 
	C256.718689,1515.748413 249.369705,1515.294189 241.652817,1514.817261 
	C240.426285,1517.271606 239.155304,1519.965210 237.755600,1522.590088 
	C231.369370,1534.567017 226.568756,1547.452515 216.371445,1557.180420 
	C212.334854,1561.031372 211.647217,1566.553711 212.718063,1572.092896 
z"/>
<path data-name="Okola" style="fill: {#A155ED}" fill="#A155ED" opacity="1.000000" stroke="none" 
	d="
M943.119507,2548.079102 
	C938.583130,2532.217529 934.895325,2516.403076 931.320618,2500.562988 
	C930.668945,2497.675293 930.380615,2494.692627 930.095276,2491.737305 
	C929.427002,2484.816162 928.406067,2477.884033 928.411987,2470.957520 
	C928.416138,2466.134521 929.278870,2461.098389 930.878784,2456.552002 
	C932.396851,2452.238281 935.815857,2448.622314 937.594177,2444.363525 
	C939.744385,2439.214111 943.706482,2436.736816 948.473389,2434.835449 
	C975.634583,2424.002197 1002.828857,2413.248779 1029.890991,2402.173096 
	C1034.366821,2400.341309 1038.675903,2397.540527 1042.310181,2394.335449 
	C1049.047363,2388.393311 1055.129272,2381.715088 1061.686157,2375.558594 
	C1064.859375,2372.579346 1066.447266,2369.285889 1065.905518,2364.949951 
	C1064.675049,2355.103516 1062.852539,2345.274170 1062.498413,2335.394287 
	C1062.242554,2328.261475 1058.246826,2324.334473 1053.329346,2320.973877 
	C1038.804077,2311.046387 1024.395020,2300.867920 1009.266296,2291.928711 
	C995.721252,2283.925293 983.652710,2274.144287 971.499939,2264.375488 
	C963.476440,2257.925781 955.962708,2250.790039 947.612671,2244.810791 
	C935.711975,2236.289062 928.121765,2224.054199 918.880981,2213.256836 
	C906.360107,2198.626709 893.947876,2183.882812 882.068237,2168.733643 
	C876.156372,2161.194580 871.502319,2152.664307 866.345215,2144.540771 
	C864.208069,2141.174072 861.837708,2137.872803 860.274109,2134.239990 
	C855.043518,2122.087646 846.244080,2113.856445 834.389709,2108.146484 
	C822.106750,2102.229980 810.330627,2095.266357 798.100464,2089.231445 
	C794.380981,2087.396240 789.932251,2086.559814 785.745911,2086.257568 
	C778.782104,2085.754883 771.745361,2086.335205 764.766052,2085.960938 
	C743.895386,2084.841553 723.045166,2083.330078 702.171509,2082.278809 
	C692.195618,2081.776367 682.184692,2081.866211 672.189636,2081.867920 
	C654.863098,2081.870605 637.520996,2081.591797 620.215088,2082.232910 
	C606.654480,2082.735107 593.141296,2084.479492 579.601196,2085.601318 
	C576.286987,2085.875977 572.950195,2085.968506 569.623108,2085.983643 
	C549.630615,2086.074463 529.638000,2086.118164 508.695496,2086.218750 
	C501.623779,2082.348877 497.091736,2085.904297 492.655884,2089.556885 
	C487.528046,2093.779541 482.843933,2098.671875 477.279541,2102.184082 
	C473.971436,2104.272217 468.727753,2105.977295 465.441711,2104.805176 
	C460.149475,2102.917725 460.716431,2096.544678 460.552216,2091.730957 
	C460.430786,2088.171631 461.866058,2084.579834 462.408630,2080.972656 
	C463.174561,2075.879883 460.774963,2071.228516 456.699463,2069.599609 
	C450.247589,2067.021240 448.712585,2062.263184 447.702484,2056.527100 
	C447.135803,2053.308838 446.380005,2050.123779 445.633392,2046.561035 
	C442.138885,2046.231201 438.911194,2045.926514 435.356598,2045.590942 
	C434.355713,2042.634277 433.417847,2039.864014 432.572845,2037.367798 
	C424.660645,2033.773560 417.293732,2030.716553 408.473114,2031.861938 
	C401.256927,2032.798950 396.318817,2029.004517 394.339020,2022.044800 
	C392.816772,2016.693481 392.375885,2011.008789 391.739410,2005.439575 
	C391.262451,2001.266113 389.934601,1998.256592 386.105743,1995.646606 
	C382.778809,1993.378662 379.736084,1989.559082 378.399658,1985.777832 
	C376.509399,1980.429565 373.562164,1976.475098 369.103363,1973.330078 
	C367.746704,1972.373291 366.241577,1971.505981 365.179260,1970.274292 
	C361.303467,1965.781982 358.386353,1959.776855 353.574554,1956.978638 
	C349.141449,1954.400635 342.817078,1955.747925 337.563141,1952.824097 
	C330.456696,1948.869141 326.099091,1951.546021 325.817383,1959.791992 
	C325.419495,1971.438232 325.721680,1983.107300 325.669312,1994.766479 
	C325.622803,2005.122192 324.397614,2007.096436 314.608917,2009.354004 
	C303.965851,2011.808716 293.172119,2013.606812 282.454041,2015.740967 
	C279.216187,2016.385620 275.984955,2017.098633 272.799042,2017.959106 
	C269.595795,2018.824341 266.494843,2020.087646 263.273376,2020.861206 
	C258.443054,2022.021118 253.203873,2023.855591 249.004898,2019.918091 
	C244.605911,2015.792725 246.922928,2010.536743 248.394913,2005.959229 
	C250.520630,1999.348633 253.576416,1993.039062 255.747803,1986.440674 
	C256.943298,1982.807495 257.676147,1978.848633 257.693756,1975.032349 
	C257.759827,1960.718018 262.953644,1948.584229 272.230835,1937.906128 
	C278.033997,1931.226685 285.433868,1928.718384 293.763977,1930.345947 
	C301.926605,1931.941040 309.470703,1930.918457 317.236450,1928.424927 
	C324.149750,1926.205078 331.425537,1925.138428 338.415497,1923.125488 
	C344.611633,1921.341431 348.400543,1917.151367 349.823700,1910.590942 
	C351.364288,1903.489136 353.519989,1896.520752 356.609772,1888.770264 
	C363.140228,1887.853149 368.599335,1888.337769 373.771576,1887.338013 
	C388.569611,1884.477783 403.449036,1883.713135 418.456970,1884.023682 
	C422.433716,1884.105957 426.467682,1883.883301 430.399384,1883.293823 
	C461.217468,1878.673950 490.530304,1866.592896 521.813416,1865.399902 
	C526.639160,1854.947021 531.217773,1845.029297 535.826721,1835.045898 
	C544.715881,1833.792236 553.511292,1832.551636 563.577026,1831.131958 
	C570.129822,1840.401611 580.644226,1843.119019 592.599854,1842.320801 
	C596.833496,1842.038086 601.106750,1842.224487 605.357239,1842.352783 
	C609.656250,1842.482300 614.098267,1842.179565 618.217285,1843.159912 
	C630.681274,1846.126099 642.556641,1847.135864 652.579712,1836.943481 
	C653.473450,1836.034668 654.846008,1835.550903 656.058167,1835.008179 
	C668.116028,1829.609863 675.386475,1821.296021 673.918152,1807.101074 
	C673.682739,1804.825684 674.715393,1801.031494 676.325073,1800.204834 
	C681.834595,1797.375732 687.418213,1794.892212 694.339661,1796.829956 
	C705.043396,1799.826904 710.767883,1807.939087 715.981262,1816.377319 
	C718.982666,1821.235474 722.530090,1824.084473 727.637817,1826.426392 
	C735.947205,1830.236328 743.996521,1830.818604 752.834412,1828.883057 
	C765.784058,1826.047119 778.206726,1826.278076 785.756226,1839.912476 
	C787.912354,1843.806519 790.989075,1844.552490 794.958679,1844.035889 
	C805.157166,1842.708252 815.375977,1841.535522 825.570374,1840.178467 
	C837.064819,1838.648315 839.285156,1836.014526 839.882874,1824.260254 
	C840.220154,1817.628662 840.941162,1811.017212 841.336426,1804.387451 
	C841.726990,1797.837524 840.756409,1792.388916 834.062744,1788.391846 
	C828.776184,1785.235229 823.672607,1779.788330 824.517944,1773.041260 
	C825.403748,1765.971313 823.861938,1759.963867 821.020630,1753.904297 
	C819.245972,1750.119629 820.335327,1747.119141 822.643494,1743.777954 
	C831.745239,1730.602783 855.410767,1723.663208 870.920715,1729.389771 
	C881.485962,1733.291016 892.214417,1736.957886 903.141846,1739.607788 
	C912.596375,1741.900635 921.780701,1740.852295 927.678345,1731.253296 
	C928.886414,1729.286865 930.827087,1727.774536 932.065674,1725.821777 
	C934.361816,1722.201538 937.661194,1721.149902 941.541016,1721.934448 
	C945.089783,1722.651978 948.691772,1723.492432 952.008301,1724.897339 
	C960.422485,1728.461914 969.070496,1729.947144 978.225708,1730.172119 
	C987.447449,1730.398438 995.741760,1727.930664 1002.146484,1721.938721 
	C1008.477295,1716.015991 1015.894226,1709.979614 1014.717041,1699.432495 
	C1014.507263,1697.552734 1015.484314,1695.540405 1016.538208,1693.916992 
	C1019.554443,1696.559570 1021.593567,1699.549927 1024.422607,1701.026123 
	C1028.345459,1703.072876 1033.586060,1706.135010 1036.993164,1704.988892 
	C1048.978394,1700.957275 1060.764893,1703.527588 1072.626465,1703.960938 
	C1080.686768,1704.255249 1083.836548,1706.708008 1086.080688,1714.552368 
	C1087.517456,1719.574707 1088.388794,1724.758667 1089.654541,1730.567505 
	C1094.452393,1738.947998 1101.202759,1744.160767 1109.365967,1747.610840 
	C1116.991211,1750.833740 1122.756104,1756.239746 1127.446289,1762.855469 
	C1139.746094,1780.205322 1151.926758,1797.640015 1164.230103,1814.987427 
	C1165.562500,1816.866333 1167.142334,1818.757568 1169.022339,1820.029907 
	C1181.968872,1828.791382 1194.651978,1838.032593 1208.143799,1845.873657 
	C1224.246216,1855.231934 1241.218994,1863.080444 1257.514282,1872.124268 
	C1264.423950,1875.959351 1271.083008,1880.609741 1276.905762,1885.929565 
	C1281.988647,1890.573364 1285.892334,1896.562866 1290.032837,1902.167725 
	C1294.114746,1907.693115 1298.928711,1910.977051 1306.151855,1909.535645 
	C1320.465454,1906.679443 1334.918091,1904.648315 1348.544556,1898.779541 
	C1357.273682,1895.019897 1366.904541,1894.254761 1375.861938,1897.763184 
	C1384.652954,1901.206543 1391.387939,1898.407959 1397.928833,1893.171631 
	C1400.000854,1891.512695 1401.695557,1889.388306 1403.734863,1887.682373 
	C1412.134033,1880.655762 1417.919312,1880.082642 1427.276855,1885.829956 
	C1435.215820,1890.706299 1442.733521,1896.282715 1450.766846,1900.987305 
	C1456.723267,1904.475708 1458.729614,1908.902710 1458.224487,1915.774536 
	C1457.089478,1931.213379 1450.785278,1944.544189 1443.034668,1957.479492 
	C1441.173340,1960.586060 1439.368408,1963.862671 1438.335083,1967.300659 
	C1436.140381,1974.603882 1434.483276,1982.067993 1432.580933,1989.459717 
	C1430.713257,1996.715942 1432.189575,2000.682983 1438.364624,2004.851562 
	C1440.820435,2006.509521 1444.832031,2007.710938 1445.466064,2009.895020 
	C1448.022705,2018.702271 1450.400146,2027.744873 1451.106079,2036.835449 
	C1451.514771,2042.097290 1449.061035,2047.793213 1447.032227,2052.954102 
	C1445.787231,2056.120361 1443.450073,2059.479492 1440.655884,2061.288818 
	C1434.172241,2065.487793 1431.469971,2071.535645 1430.101807,2078.583496 
	C1428.887329,2084.840088 1431.337402,2089.279053 1436.379517,2093.173096 
	C1441.023438,2096.759277 1445.198730,2101.102783 1448.972534,2105.620605 
	C1452.427734,2109.756836 1455.996460,2112.035400 1461.685303,2111.848633 
	C1473.999878,2111.444336 1486.363159,2112.233398 1498.657959,2111.595215 
	C1513.552856,2110.822266 1526.671875,2115.977783 1539.703247,2121.990723 
	C1547.976807,2133.344727 1554.641846,2145.384766 1556.214722,2159.764404 
	C1549.740601,2162.920654 1543.504028,2165.751221 1537.493408,2168.999756 
	C1535.254028,2170.210205 1533.288208,2172.185303 1531.632446,2174.173828 
	C1521.650024,2186.161621 1511.750488,2198.219482 1501.908325,2210.323242 
	C1493.145142,2221.100586 1484.380005,2231.879639 1475.834351,2242.828613 
	C1470.955566,2249.079346 1464.773193,2252.118408 1456.354370,2251.525146 
	C1452.869507,2258.487305 1449.266968,2265.199463 1446.176147,2272.139893 
	C1445.190552,2274.353027 1444.671631,2277.514893 1445.493164,2279.642822 
	C1447.387451,2284.550293 1445.097168,2289.353516 1442.651611,2291.554688 
	C1436.950439,2296.686279 1437.730469,2300.988770 1440.367920,2304.090576 
	C1440.040283,2310.883301 1439.810547,2315.600830 1439.589844,2320.318359 
	C1439.574341,2320.649170 1439.756348,2321.048584 1439.627075,2321.305908 
	C1433.692139,2333.124268 1439.967041,2345.386963 1438.275879,2357.340332 
	C1437.867676,2360.225586 1437.528076,2363.419922 1436.052124,2365.781494 
	C1434.096436,2368.910645 1433.184326,2371.636475 1434.841187,2375.049072 
	C1436.650635,2378.776123 1434.875977,2381.651855 1432.002563,2383.663574 
	C1424.575562,2388.862793 1416.963501,2393.797607 1408.783081,2399.267334 
	C1408.507690,2401.808105 1408.159668,2405.020020 1407.675293,2409.489502 
	C1404.389160,2409.489502 1401.248657,2409.753906 1398.170166,2409.430420 
	C1392.884033,2408.875244 1387.920654,2409.875977 1384.367432,2413.693359 
	C1376.181519,2422.488281 1364.807129,2424.349854 1354.310303,2427.745117 
	C1345.078369,2430.730713 1344.833008,2429.972168 1341.463501,2439.890869 
	C1339.474365,2439.890869 1337.223755,2440.026855 1334.994629,2439.865479 
	C1327.904663,2439.353027 1321.711670,2441.431152 1317.897339,2447.482910 
	C1313.322754,2454.740479 1307.380859,2459.202637 1298.780518,2460.145996 
	C1297.270996,2460.311523 1295.177979,2460.984375 1294.518799,2462.106689 
	C1290.859131,2468.338623 1284.349487,2469.864258 1278.388306,2470.846924 
	C1271.449341,2471.991211 1268.642700,2475.401611 1267.801880,2481.784180 
	C1267.562256,2483.602783 1266.340332,2485.291992 1265.321899,2487.600098 
	C1261.958374,2486.060303 1259.085693,2484.745361 1255.997192,2483.331299 
	C1248.925293,2490.012939 1241.977539,2496.561035 1235.049561,2503.129639 
	C1231.188843,2506.789795 1227.496704,2510.335449 1221.482178,2510.495850 
	C1218.707886,2510.569824 1215.776733,2512.351318 1213.279541,2513.931885 
	C1200.275024,2522.161133 1185.679932,2526.826904 1171.700928,2532.879395 
	C1166.831421,2534.987549 1162.213379,2537.671875 1157.450684,2540.032227 
	C1147.547729,2544.940674 1137.493896,2548.573730 1126.014038,2548.225586 
	C1107.762085,2547.671631 1089.480835,2548.084473 1071.212036,2548.075439 
	C1059.924438,2548.069824 1048.636841,2548.024414 1037.349243,2548.025635 
	C1024.766602,2548.026855 1012.167419,2548.479736 999.605286,2547.981934 
	C981.057922,2547.247314 962.536987,2545.988281 943.119507,2548.079102 
z"/>
<path data-name="Obala" style="fill: {#344194}" fill="#344194" opacity="1.000000" stroke="none" 
	d="
M1540.165771,2121.340820 
	C1526.671875,2115.977783 1513.552856,2110.822266 1498.657959,2111.595215 
	C1486.363159,2112.233398 1473.999878,2111.444336 1461.685303,2111.848633 
	C1455.996460,2112.035400 1452.427734,2109.756836 1448.972534,2105.620605 
	C1445.198730,2101.102783 1441.023438,2096.759277 1436.379517,2093.173096 
	C1431.337402,2089.279053 1428.887329,2084.840088 1430.101807,2078.583496 
	C1431.469971,2071.535645 1434.172241,2065.487793 1440.655884,2061.288818 
	C1443.450073,2059.479492 1445.787231,2056.120361 1447.032227,2052.954102 
	C1449.061035,2047.793213 1451.514771,2042.097290 1451.106079,2036.835449 
	C1450.400146,2027.744873 1448.022705,2018.702271 1445.466064,2009.895020 
	C1444.832031,2007.710938 1440.820435,2006.509521 1438.364624,2004.851562 
	C1432.189575,2000.682983 1430.713257,1996.715942 1432.580933,1989.459717 
	C1434.483276,1982.067993 1436.140381,1974.603882 1438.335083,1967.300659 
	C1439.368408,1963.862671 1441.173340,1960.586060 1443.034668,1957.479492 
	C1450.785278,1944.544189 1457.089478,1931.213379 1458.224487,1915.774536 
	C1458.729614,1908.902710 1456.723267,1904.475708 1450.766846,1900.987305 
	C1442.733521,1896.282715 1435.215820,1890.706299 1427.276855,1885.829956 
	C1417.919312,1880.082642 1412.134033,1880.655762 1403.734863,1887.682373 
	C1401.695557,1889.388306 1400.000854,1891.512695 1397.928833,1893.171631 
	C1391.387939,1898.407959 1384.652954,1901.206543 1375.861938,1897.763184 
	C1366.904541,1894.254761 1357.273682,1895.019897 1348.544556,1898.779541 
	C1334.918091,1904.648315 1320.465454,1906.679443 1306.151855,1909.535645 
	C1298.928711,1910.977051 1294.114746,1907.693115 1290.032837,1902.167725 
	C1285.892334,1896.562866 1281.988647,1890.573364 1276.905762,1885.929565 
	C1271.083008,1880.609741 1264.423950,1875.959351 1257.514282,1872.124268 
	C1241.218994,1863.080444 1224.246216,1855.231934 1208.143799,1845.873657 
	C1194.651978,1838.032593 1181.968872,1828.791382 1169.022339,1820.029907 
	C1167.142334,1818.757568 1165.562500,1816.866333 1164.230103,1814.987427 
	C1151.926758,1797.640015 1139.746094,1780.205322 1127.446289,1762.855469 
	C1122.756104,1756.239746 1116.991211,1750.833740 1109.365967,1747.610840 
	C1101.202759,1744.160767 1094.452393,1738.947998 1090.482910,1730.436768 
	C1098.503052,1727.208252 1105.536133,1727.783325 1112.415894,1731.388794 
	C1126.282959,1738.656616 1140.954956,1742.147705 1156.678711,1740.380493 
	C1157.336792,1740.306396 1158.016968,1740.431885 1158.676147,1740.362183 
	C1162.924927,1739.913208 1166.309814,1741.353882 1169.514648,1744.256592 
	C1174.939941,1749.170532 1180.789185,1753.613037 1186.359009,1758.372314 
	C1189.338501,1760.918457 1192.378296,1762.271851 1196.402100,1760.998535 
	C1198.585083,1760.307983 1201.018677,1759.944092 1203.294312,1760.097290 
	C1210.935425,1760.611572 1214.540039,1756.955811 1216.612061,1749.754883 
	C1221.386353,1733.163208 1229.126831,1718.342407 1244.327881,1708.594971 
	C1247.100220,1706.817261 1249.505005,1704.390869 1251.850952,1702.036255 
	C1271.114136,1682.701904 1290.873657,1663.821167 1309.358521,1643.766479 
	C1322.014038,1630.036133 1333.828003,1615.723877 1349.650513,1605.305054 
	C1359.093262,1599.087158 1367.960693,1591.987793 1376.994873,1585.163208 
	C1378.952148,1583.684814 1380.516968,1581.686768 1382.267456,1579.923218 
	C1371.613037,1570.322144 1358.511108,1568.274292 1346.522705,1564.745850 
	C1345.477539,1542.959106 1344.908569,1522.699463 1361.489136,1506.896240 
	C1362.671387,1505.769409 1363.550903,1504.265259 1364.349487,1502.814575 
	C1364.967896,1501.691528 1365.860474,1500.198975 1365.566284,1499.176636 
	C1363.282227,1491.234131 1362.674438,1481.761963 1357.794067,1475.875000 
	C1351.489624,1468.270264 1342.892578,1461.726929 1331.950684,1460.041138 
	C1324.094116,1458.830811 1315.649780,1458.159912 1308.750244,1454.694580 
	C1294.206055,1447.389526 1280.562988,1438.305176 1266.421875,1430.173828 
	C1261.864624,1427.553345 1261.251099,1424.394043 1262.152588,1419.406128 
	C1265.221191,1402.426636 1267.677002,1385.336548 1270.366699,1368.288574 
	C1273.645142,1364.623413 1277.254639,1361.198975 1280.130127,1357.241089 
	C1285.449341,1349.919312 1292.237305,1346.673950 1302.152832,1348.076050 
	C1304.021973,1349.200439 1305.457642,1350.327026 1305.803101,1351.723267 
	C1308.858643,1364.073608 1317.249878,1369.180420 1328.970703,1365.224609 
	C1336.195435,1362.786377 1343.560791,1360.398804 1350.243408,1356.828979 
	C1356.283691,1353.601929 1361.592041,1353.989136 1367.271729,1356.709473 
	C1369.671509,1357.858643 1372.128174,1358.954468 1374.347656,1360.399292 
	C1377.605347,1362.519897 1380.711426,1362.153442 1383.671875,1360.153931 
	C1389.692017,1356.087402 1395.893799,1352.211426 1401.478027,1347.599731 
	C1407.444702,1342.672363 1409.156982,1342.721680 1414.403198,1348.164551 
	C1419.918457,1353.886353 1425.798584,1359.335815 1432.013672,1364.283447 
	C1440.104492,1370.724731 1448.662720,1370.297241 1457.297852,1364.544922 
	C1464.176270,1359.962769 1471.175415,1355.413696 1478.595947,1351.834351 
	C1486.399902,1348.069702 1494.455811,1349.456543 1500.868286,1355.196899 
	C1521.352661,1373.534424 1545.983154,1385.740601 1568.224609,1401.456055 
	C1572.156860,1404.234497 1576.209961,1404.267822 1580.559937,1403.956909 
	C1597.123779,1402.772949 1613.674561,1401.223022 1630.260010,1400.591309 
	C1640.189819,1400.213135 1650.172852,1401.343140 1660.135986,1401.677612 
	C1664.124023,1401.811401 1668.124756,1401.698853 1672.116211,1401.578247 
	C1683.551514,1401.232788 1683.224731,1401.127197 1686.094971,1389.644775 
	C1687.075439,1385.722290 1690.390381,1382.438354 1692.185913,1378.648071 
	C1693.781250,1375.280396 1688.969971,1371.269775 1693.613403,1367.755859 
	C1713.244995,1376.661255 1732.203613,1385.635132 1751.084839,1394.768799 
	C1804.446411,1420.582520 1857.774292,1446.466064 1911.122192,1472.308350 
	C1916.212402,1474.774170 1921.349365,1477.143311 1927.081055,1479.881348 
	C1924.185059,1485.421021 1921.031982,1490.931641 1917.060059,1495.770020 
	C1913.009155,1500.704346 1908.045898,1504.359375 1900.890869,1504.248413 
	C1896.071777,1504.173706 1892.552612,1506.911255 1889.607666,1511.171997 
	C1883.381592,1520.180298 1876.129761,1528.477417 1869.858276,1537.457153 
	C1865.916260,1543.101685 1862.989502,1549.455444 1859.161377,1556.286621 
	C1862.349976,1557.725586 1864.529175,1559.364258 1866.878540,1559.662842 
	C1881.877441,1561.569458 1890.269775,1572.629272 1899.236084,1582.793091 
	C1902.072632,1586.008423 1904.063232,1589.966797 1906.466797,1593.567871 
	C1912.330566,1602.352295 1920.033325,1608.937134 1931.863403,1613.114014 
	C1927.659058,1617.101929 1924.722046,1620.520508 1921.176758,1623.104980 
	C1915.625732,1627.151611 1911.623535,1632.337769 1908.582153,1638.303223 
	C1905.470947,1644.405762 1900.948975,1649.025757 1895.409302,1652.954712 
	C1886.460205,1659.301880 1877.602539,1665.793213 1868.955200,1672.542480 
	C1865.613647,1675.150635 1862.465332,1678.296387 1860.081909,1681.780762 
	C1855.299561,1688.771362 1853.859131,1696.388550 1857.986450,1704.387573 
	C1858.589844,1705.557007 1858.851440,1706.902222 1859.273804,1708.165283 
	C1863.413818,1720.547241 1863.237793,1721.086792 1851.377686,1730.275879 
	C1845.665527,1726.486694 1839.331177,1722.860229 1833.644775,1718.406616 
	C1815.243530,1703.994629 1796.399048,1708.343262 1779.406006,1719.846436 
	C1777.768311,1720.954956 1776.628174,1722.869507 1774.923462,1723.796875 
	C1762.106445,1730.770386 1757.112915,1743.178711 1753.325928,1755.956909 
	C1750.977905,1763.879517 1750.724731,1771.965820 1756.751831,1779.476685 
	C1772.456421,1799.047607 1785.142090,1820.314209 1792.891479,1844.494507 
	C1795.255737,1851.871216 1800.896851,1858.169189 1804.806396,1865.091553 
	C1806.724609,1868.488037 1808.557373,1872.057007 1809.613647,1875.779297 
	C1810.573364,1879.161133 1809.233765,1882.049072 1805.872437,1884.166626 
	C1792.641235,1892.502319 1779.572388,1900.789429 1763.945679,1904.511475 
	C1746.517212,1908.662598 1729.523315,1914.656738 1712.070435,1918.677612 
	C1704.500488,1920.421753 1696.240356,1919.597900 1688.323730,1919.251465 
	C1683.398315,1919.035889 1678.538452,1917.477783 1673.633057,1916.614258 
	C1664.377686,1914.984863 1658.858398,1920.904541 1661.221313,1929.942017 
	C1661.892944,1932.510864 1663.318115,1934.972412 1663.536255,1937.555908 
	C1665.332520,1958.832520 1680.656128,1964.436768 1698.081543,1968.096802 
	C1713.305420,1971.294189 1729.158691,1971.346558 1743.738770,1977.970825 
	C1749.202026,1980.453125 1753.112793,1983.630981 1756.168213,1988.732788 
	C1765.973633,2005.105713 1766.016846,2004.999023 1760.337769,2023.336792 
	C1757.481445,2032.559814 1754.816406,2041.810669 1748.759521,2048.643066 
	C1737.798584,2050.694092 1727.420776,2052.322998 1717.210083,2054.676758 
	C1711.950562,2055.889160 1707.340088,2054.986572 1702.671875,2053.000977 
	C1692.567749,2048.703369 1682.410522,2044.520874 1672.414307,2039.984131 
	C1667.450317,2037.731323 1662.688599,2036.393555 1657.110596,2037.511475 
	C1647.032959,2039.531006 1636.841797,2040.979858 1626.704956,2042.708496 
	C1622.404053,2043.442017 1620.208252,2046.039795 1618.411133,2050.136475 
	C1614.281128,2059.550293 1609.860596,2068.929443 1604.523071,2077.692139 
	C1600.032593,2085.064209 1597.091064,2092.334473 1598.159790,2101.057129 
	C1598.553345,2104.269287 1598.223267,2107.570557 1598.223267,2110.849854 
	C1578.401855,2114.236572 1559.515137,2117.463623 1540.165771,2121.340820 
z"/>
<path data-name="Ebebda" style="fill: {#E7F26B}" fill="#E7F26B" opacity="1.000000" stroke="none" 
	d="
M718.279663,940.632568 
	C723.172302,935.202637 728.199951,929.886414 733.902588,925.434875 
	C753.512207,910.127502 764.171814,889.724976 767.953796,865.629395 
	C769.277161,857.197754 772.228455,849.527527 776.461304,842.528076 
	C778.606812,838.980164 783.135742,836.256531 787.176208,834.580933 
	C802.789062,828.106323 818.482300,821.747559 834.457336,816.251709 
	C844.768188,812.704468 853.542969,807.383362 861.351135,799.926819 
	C871.922119,789.831787 883.007507,780.267578 893.405945,770.003174 
	C898.066162,765.402893 901.403259,759.493774 905.671021,754.458557 
	C920.106812,737.426453 929.310913,717.732483 935.296509,696.442200 
	C938.956909,683.422485 946.250427,672.344727 953.239746,661.069092 
	C958.140991,653.162109 963.577576,645.542358 967.912292,637.338501 
	C975.553589,622.876404 985.989563,611.103821 999.904175,602.690430 
	C1017.312683,592.164429 1029.575439,577.698547 1036.894287,558.673950 
	C1039.982178,550.647034 1044.612549,543.225220 1048.261230,535.397583 
	C1050.213501,531.209229 1053.004395,528.518677 1057.440552,527.008362 
	C1089.478516,516.100952 1121.277466,504.441925 1153.565430,494.342651 
	C1166.395386,490.329590 1180.274658,489.671234 1194.468140,487.654907 
	C1213.246460,503.646240 1231.171997,519.538086 1249.235107,535.271973 
	C1270.064331,553.415283 1291.021362,571.412109 1311.893311,589.506592 
	C1312.856323,590.341431 1313.530029,591.509827 1314.928711,593.262207 
	C1246.988525,693.392029 1179.068237,793.492554 1110.481689,894.575012 
	C1146.416626,914.802795 1181.352173,934.468018 1217.288574,954.696594 
	C1181.709961,1007.345398 1146.735352,1059.100342 1111.398560,1111.508301 
	C1101.332397,1110.211792 1092.140015,1110.284424 1083.551880,1116.594116 
	C1081.444458,1118.142334 1077.276489,1117.639648 1074.281616,1117.008179 
	C1071.461304,1116.413574 1068.759766,1114.664795 1066.315430,1112.975952 
	C1054.889038,1105.081177 1042.747925,1105.526123 1029.316650,1106.738403 
	C1010.810242,1108.408569 991.989685,1106.882690 978.872498,1089.920654 
	C975.491211,1085.548340 970.932312,1082.086670 966.298767,1077.612183 
	C967.495850,1074.492432 968.975342,1070.636475 970.886536,1065.655396 
	C965.132996,1063.783203 959.972534,1061.828247 954.660339,1060.464844 
	C950.595520,1059.421875 948.763123,1057.414429 947.864807,1053.158325 
	C945.978760,1044.221924 945.549255,1035.828369 948.449768,1026.756714 
	C951.122009,1018.398865 949.486633,1010.063599 941.731873,1003.657410 
	C933.950623,997.229248 926.091370,991.533142 916.049316,989.007690 
	C911.564392,987.879822 908.303101,988.435547 905.233276,991.591248 
	C904.771118,992.066345 904.139038,992.393799 903.738098,992.908447 
	C887.832458,1013.320007 866.713135,1029.312988 853.764343,1052.271973 
	C849.701355,1059.475708 844.575256,1066.079956 839.746643,1073.239014 
	C831.548706,1072.511353 825.170105,1069.337158 820.130005,1062.906616 
	C812.338379,1052.965454 804.283203,1043.225220 796.141113,1033.567139 
	C793.152771,1030.022339 789.688293,1026.858521 786.284302,1023.689148 
	C780.205933,1018.029663 773.866577,1012.644348 767.907166,1006.865173 
	C763.359070,1002.454773 759.206116,997.740112 752.668152,996.104126 
	C748.119873,994.966064 745.720703,991.635254 744.008545,987.289001 
	C737.535217,970.856628 728.754333,955.647644 718.279663,940.632568 
z"/>
<path data-name="Evodoula" style="fill: {#3F9E9D}" fill="#3F9E9D" opacity="1.000000" stroke="none" 
	d="
M1015.913391,1693.589355 
	C1015.484314,1695.540405 1014.507263,1697.552734 1014.717041,1699.432495 
	C1015.894226,1709.979614 1008.477295,1716.015991 1002.146484,1721.938721 
	C995.741760,1727.930664 987.447449,1730.398438 978.225708,1730.172119 
	C969.070496,1729.947144 960.422485,1728.461914 952.008301,1724.897339 
	C948.691772,1723.492432 945.089783,1722.651978 941.541016,1721.934448 
	C937.661194,1721.149902 934.361816,1722.201538 932.065674,1725.821777 
	C930.827087,1727.774536 928.886414,1729.286865 927.678345,1731.253296 
	C921.780701,1740.852295 912.596375,1741.900635 903.141846,1739.607788 
	C892.214417,1736.957886 881.485962,1733.291016 870.920715,1729.389771 
	C855.410767,1723.663208 831.745239,1730.602783 822.643494,1743.777954 
	C820.335327,1747.119141 819.245972,1750.119629 821.020630,1753.904297 
	C823.861938,1759.963867 825.403748,1765.971313 824.517944,1773.041260 
	C823.672607,1779.788330 828.776184,1785.235229 834.062744,1788.391846 
	C840.756409,1792.388916 841.726990,1797.837524 841.336426,1804.387451 
	C840.941162,1811.017212 840.220154,1817.628662 839.882874,1824.260254 
	C839.285156,1836.014526 837.064819,1838.648315 825.570374,1840.178467 
	C815.375977,1841.535522 805.157166,1842.708252 794.958679,1844.035889 
	C790.989075,1844.552490 787.912354,1843.806519 785.756226,1839.912476 
	C778.206726,1826.278076 765.784058,1826.047119 752.834412,1828.883057 
	C743.996521,1830.818604 735.947205,1830.236328 727.637817,1826.426392 
	C722.530090,1824.084473 718.982666,1821.235474 715.981262,1816.377319 
	C710.767883,1807.939087 705.043396,1799.826904 694.339661,1796.829956 
	C687.418213,1794.892212 681.834595,1797.375732 676.325073,1800.204834 
	C674.715393,1801.031494 673.682739,1804.825684 673.918152,1807.101074 
	C675.386475,1821.296021 668.116028,1829.609863 656.058167,1835.008179 
	C654.846008,1835.550903 653.473450,1836.034668 652.579712,1836.943481 
	C642.556641,1847.135864 630.681274,1846.126099 618.217285,1843.159912 
	C614.098267,1842.179565 609.656250,1842.482300 605.357239,1842.352783 
	C601.106750,1842.224487 596.833496,1842.038086 592.599854,1842.320801 
	C580.644226,1843.119019 570.129822,1840.401611 563.577026,1831.131958 
	C553.511292,1832.551636 544.715881,1833.792236 535.826721,1835.045898 
	C531.217773,1845.029297 526.639160,1854.947021 521.813416,1865.399902 
	C490.530304,1866.592896 461.217468,1878.673950 430.399384,1883.293823 
	C426.467682,1883.883301 422.433716,1884.105957 418.456970,1884.023682 
	C403.449036,1883.713135 388.569611,1884.477783 373.771576,1887.338013 
	C368.599335,1888.337769 363.140228,1887.853149 356.898010,1888.072266 
	C350.277588,1881.728638 348.949066,1874.051270 349.724701,1864.989136 
	C342.316254,1865.245239 338.337494,1860.285522 335.178314,1854.975220 
	C331.682922,1849.099609 329.964081,1842.628296 334.657104,1836.310181 
	C338.578766,1831.030518 340.188354,1825.263306 339.795074,1818.614380 
	C339.174835,1808.128784 344.625824,1800.311523 352.473145,1793.655884 
	C351.547882,1788.187134 348.050842,1784.590088 344.311981,1781.439331 
	C335.855927,1774.313599 332.413452,1763.922607 326.749908,1755.002197 
	C325.525787,1753.074219 325.950195,1749.844238 326.218323,1747.276855 
	C326.787109,1741.831177 325.359222,1738.229980 319.343994,1737.254395 
	C316.422607,1736.780518 313.406647,1735.884521 310.852905,1734.438721 
	C308.425903,1733.064819 305.457886,1731.114380 304.610168,1728.744263 
	C300.628174,1717.610352 292.316803,1711.823364 281.657776,1708.481812 
	C279.753479,1707.884644 277.884705,1707.167603 275.966217,1706.623291 
	C266.012543,1703.798950 262.964844,1700.879028 262.534698,1690.263672 
	C262.288483,1684.187378 259.772766,1680.812378 255.435135,1677.082642 
	C246.395782,1669.309937 238.291809,1660.457153 229.362717,1652.545776 
	C222.970978,1646.882568 223.419266,1640.610596 225.810791,1633.597412 
	C228.159561,1626.709961 230.952118,1619.901123 232.470535,1612.826050 
	C233.699005,1607.102173 233.681702,1601.025757 233.542007,1595.121582 
	C233.438171,1590.733276 231.456177,1587.006836 227.543503,1584.239502 
	C222.666489,1580.790283 218.187805,1576.777710 213.127563,1572.550659 
	C211.647217,1566.553711 212.334854,1561.031372 216.371445,1557.180420 
	C226.568756,1547.452515 231.369370,1534.567017 237.755600,1522.590088 
	C239.155304,1519.965210 240.426285,1517.271606 241.652817,1514.817261 
	C249.369705,1515.294189 256.718689,1515.748413 264.067688,1516.202637 
	C264.164276,1515.628296 264.260895,1515.053955 264.357513,1514.479614 
	C265.449554,1515.178833 266.625092,1515.776367 267.620544,1516.593262 
	C276.152100,1523.596069 276.843719,1523.666626 285.827454,1517.977051 
	C287.794678,1516.730957 289.792053,1515.519165 291.666687,1514.143188 
	C294.630829,1511.967896 297.404602,1511.803467 300.914581,1513.366821 
	C306.303131,1515.766968 312.029480,1517.408691 319.293732,1519.963623 
	C321.406006,1530.826050 323.568817,1543.166138 326.273224,1555.386230 
	C327.826691,1562.406006 327.616943,1569.083740 325.635162,1575.962280 
	C320.915405,1592.344360 329.892639,1593.772705 341.448639,1594.540405 
	C345.459229,1594.807007 350.546478,1593.359131 353.615204,1590.836792 
	C367.962982,1579.043579 385.447113,1573.022583 401.202484,1563.877808 
	C414.196289,1556.335693 427.518005,1549.757080 442.459137,1546.949585 
	C445.345703,1546.407104 448.060486,1544.921387 450.835327,1543.822510 
	C453.305939,1542.844116 455.748352,1540.933960 458.206085,1540.929199 
	C470.097687,1540.906250 480.453003,1535.124756 491.614075,1532.432251 
	C505.474701,1529.088623 519.432007,1525.392456 529.208374,1513.580688 
	C531.836975,1510.404785 535.095764,1510.271606 539.122620,1511.289551 
	C542.795959,1512.218384 547.139160,1512.562134 550.669678,1511.478271 
	C555.269104,1510.066406 558.622437,1511.234375 561.462280,1514.197876 
	C568.591736,1521.637695 575.177246,1529.309204 578.483276,1539.591797 
	C580.882202,1547.053101 585.171509,1553.916138 588.714111,1560.997681 
	C591.517334,1566.601074 594.466919,1572.131348 597.885315,1578.723511 
	C602.624939,1578.383301 608.159668,1577.986084 615.169678,1577.886475 
	C618.597107,1580.391602 621.087097,1582.317627 622.412109,1584.852661 
	C629.790039,1598.968628 636.932434,1613.208862 644.060120,1627.454102 
	C648.209778,1635.747314 651.700684,1644.409790 656.356995,1652.399536 
	C661.949097,1661.995239 670.596313,1666.888916 682.089478,1666.068726 
	C694.316711,1665.196533 706.618896,1665.038452 718.775269,1663.608032 
	C729.876709,1662.301514 741.216675,1661.262939 751.264709,1655.408813 
	C753.556213,1654.073486 756.074341,1653.133545 758.425415,1651.892822 
	C773.005737,1644.198364 788.400818,1645.196899 804.088379,1646.940186 
	C814.484009,1648.095337 824.831665,1650.405884 835.549988,1648.325928 
	C843.291321,1646.823730 851.552429,1645.406860 859.206177,1646.524292 
	C883.734375,1650.105469 908.242493,1654.168335 932.463623,1659.407959 
	C954.783813,1664.236694 976.717041,1670.848755 998.833374,1676.627075 
	C1007.847900,1678.982178 1014.102539,1684.025269 1015.913391,1693.589355 
z"/>
<path data-name="Elig-Mfomo" style="fill: {#8BD991}" fill="#8BD991" opacity="1.000000" stroke="none" 
	d="
M1016.538208,1693.916992 
	C1014.102539,1684.025269 1007.847900,1678.982178 998.833374,1676.627075 
	C976.717041,1670.848755 954.783813,1664.236694 932.463623,1659.407959 
	C908.242493,1654.168335 883.734375,1650.105469 859.206177,1646.524292 
	C851.552429,1645.406860 843.291321,1646.823730 835.549988,1648.325928 
	C824.831665,1650.405884 814.484009,1648.095337 804.088379,1646.940186 
	C788.400818,1645.196899 773.005737,1644.198364 758.425415,1651.892822 
	C756.074341,1653.133545 753.556213,1654.073486 751.264709,1655.408813 
	C741.216675,1661.262939 729.876709,1662.301514 718.775269,1663.608032 
	C706.618896,1665.038452 694.316711,1665.196533 682.089478,1666.068726 
	C670.596313,1666.888916 661.949097,1661.995239 656.356995,1652.399536 
	C651.700684,1644.409790 648.209778,1635.747314 644.060120,1627.454102 
	C636.932434,1613.208862 629.790039,1598.968628 622.412109,1584.852661 
	C621.087097,1582.317627 618.597107,1580.391602 615.981567,1577.823364 
	C618.169800,1574.745239 620.814026,1571.759888 623.914490,1569.364868 
	C631.201233,1563.735596 631.532959,1563.017456 628.480591,1554.481079 
	C627.697754,1552.291870 626.715393,1550.098999 626.405396,1547.828613 
	C625.034485,1537.786255 629.321777,1532.299927 639.438232,1531.945801 
	C650.032715,1531.574951 660.658508,1532.129883 671.256592,1531.812744 
	C675.101990,1531.697754 679.332520,1531.026733 682.656128,1529.245239 
	C696.483093,1521.834351 711.363098,1519.065796 726.742798,1518.112793 
	C736.473389,1517.509888 745.735291,1515.742065 753.713501,1509.501099 
	C758.317932,1505.899170 759.304688,1501.924316 757.323669,1496.421509 
	C754.741516,1489.249146 752.627930,1481.885742 750.721069,1474.499146 
	C748.811462,1467.102295 749.987000,1460.448364 754.650452,1453.814819 
	C762.483826,1442.672485 768.958435,1430.578979 776.710022,1419.373535 
	C781.798218,1412.018188 787.891052,1405.299805 794.029236,1398.760864 
	C796.145691,1396.506226 799.721741,1395.578003 802.694641,1394.179077 
	C812.862061,1389.393921 823.057861,1384.669067 833.242798,1379.921265 
	C833.256470,1379.138916 833.270142,1378.356445 833.283875,1377.574097 
	C837.601013,1379.752319 842.277832,1381.431885 846.151611,1384.225098 
	C852.070374,1388.493042 858.047058,1390.718262 865.566284,1390.269653 
	C871.421448,1389.920410 877.496155,1391.130249 883.270752,1392.500854 
	C885.915283,1393.128418 888.329163,1395.547363 890.408203,1397.599121 
	C900.813599,1407.868042 911.568237,1417.849121 921.204407,1428.807129 
	C927.294922,1435.733032 932.973389,1436.562622 941.254822,1433.539185 
	C952.487549,1429.437866 962.179138,1423.380127 970.426086,1414.936401 
	C974.490723,1410.774902 978.392090,1408.699951 984.534119,1410.935791 
	C987.979614,1412.190063 992.497314,1411.903320 996.158752,1410.920532 
	C1013.311523,1406.317139 1030.046265,1408.686279 1045.903809,1415.076904 
	C1058.357056,1420.095825 1071.296753,1420.106567 1084.031616,1421.788696 
	C1109.705811,1425.180176 1135.678833,1426.494019 1161.236694,1430.518311 
	C1178.659180,1433.261719 1192.560181,1426.824219 1206.202148,1418.460938 
	C1217.823364,1411.336304 1228.599976,1402.845459 1242.264038,1399.631958 
	C1247.193237,1398.472656 1249.929688,1394.680298 1251.867920,1390.209229 
	C1255.648926,1381.486938 1261.046631,1374.026978 1269.708496,1368.473633 
	C1267.677002,1385.336548 1265.221191,1402.426636 1262.152588,1419.406128 
	C1261.251099,1424.394043 1261.864624,1427.553345 1266.421875,1430.173828 
	C1280.562988,1438.305176 1294.206055,1447.389526 1308.750244,1454.694580 
	C1315.649780,1458.159912 1324.094116,1458.830811 1331.950684,1460.041138 
	C1342.892578,1461.726929 1351.489624,1468.270264 1357.794067,1475.875000 
	C1362.674438,1481.761963 1363.282227,1491.234131 1365.566284,1499.176636 
	C1365.860474,1500.198975 1364.967896,1501.691528 1364.349487,1502.814575 
	C1363.550903,1504.265259 1362.671387,1505.769409 1361.489136,1506.896240 
	C1344.908569,1522.699463 1345.477539,1542.959106 1346.522705,1564.745850 
	C1358.511108,1568.274292 1371.613037,1570.322144 1382.267456,1579.923218 
	C1380.516968,1581.686768 1378.952148,1583.684814 1376.994873,1585.163208 
	C1367.960693,1591.987793 1359.093262,1599.087158 1349.650513,1605.305054 
	C1333.828003,1615.723877 1322.014038,1630.036133 1309.358521,1643.766479 
	C1290.873657,1663.821167 1271.114136,1682.701904 1251.850952,1702.036255 
	C1249.505005,1704.390869 1247.100220,1706.817261 1244.327881,1708.594971 
	C1229.126831,1718.342407 1221.386353,1733.163208 1216.612061,1749.754883 
	C1214.540039,1756.955811 1210.935425,1760.611572 1203.294312,1760.097290 
	C1201.018677,1759.944092 1198.585083,1760.307983 1196.402100,1760.998535 
	C1192.378296,1762.271851 1189.338501,1760.918457 1186.359009,1758.372314 
	C1180.789185,1753.613037 1174.939941,1749.170532 1169.514648,1744.256592 
	C1166.309814,1741.353882 1162.924927,1739.913208 1158.676147,1740.362183 
	C1158.016968,1740.431885 1157.336792,1740.306396 1156.678711,1740.380493 
	C1140.954956,1742.147705 1126.282959,1738.656616 1112.415894,1731.388794 
	C1105.536133,1727.783325 1098.503052,1727.208252 1090.342041,1729.739502 
	C1088.388794,1724.758667 1087.517456,1719.574707 1086.080688,1714.552368 
	C1083.836548,1706.708008 1080.686768,1704.255249 1072.626465,1703.960938 
	C1060.764893,1703.527588 1048.978394,1700.957275 1036.993164,1704.988892 
	C1033.586060,1706.135010 1028.345459,1703.072876 1024.422607,1701.026123 
	C1021.593567,1699.549927 1019.554443,1696.559570 1016.538208,1693.916992 
z"/>
</svg>