<svg version="1.1" id="Layer_1" xmlns="http://www.w3.org/2000/svg" xmlns:xlink="http://www.w3.org/1999/xlink" x="0px" y="0px"
	 width="100%" viewBox="0 0 2229 2471" enable-background="new 0 0 2229 2471" xml:space="preserve">


<path data-name="Edea I" style="fill: {#E797C5}" fill="#E797C5" opacity="1.000000" stroke="none" 
	d="
M642.936829,2474.000000 
	C642.299377,2473.241943 643.041138,2471.979980 642.834412,2471.798584 
	C633.421082,2463.538574 630.219788,2452.050049 626.434387,2440.876953 
	C628.916260,2439.112305 631.272095,2437.437012 633.508362,2435.846924 
	C632.411072,2422.927246 624.602905,2413.390869 619.124207,2402.991455 
	C614.665039,2394.527100 608.637695,2386.840576 602.866028,2379.138672 
	C600.343750,2375.772949 596.708008,2373.246094 593.607300,2370.307617 
	C590.997925,2367.834717 588.431091,2365.317383 585.916687,2361.577148 
	C590.700562,2357.408203 588.454529,2351.557617 591.084717,2347.936523 
	C596.379395,2340.647461 596.282776,2331.883301 598.687073,2323.797852 
	C600.725220,2316.943604 599.414001,2311.312988 595.747009,2305.866211 
	C592.113647,2300.469727 588.126038,2295.311523 584.355225,2290.133057 
	C584.947266,2288.877197 585.225708,2287.879395 585.808655,2287.113037 
	C591.775635,2279.267578 593.708374,2271.295898 587.562561,2262.456055 
	C586.182617,2260.471191 585.640381,2257.470215 585.728333,2254.973145 
	C586.117371,2243.938721 588.036255,2233.207764 594.334534,2223.804932 
	C597.110840,2219.660156 601.047607,2216.139648 603.119324,2211.709717 
	C606.822021,2203.792480 613.406250,2199.948242 620.768677,2196.592529 
	C627.969788,2193.310547 633.650818,2188.550781 635.626953,2180.350098 
	C635.982300,2178.875488 637.040771,2176.635986 638.114014,2176.417480 
	C645.885437,2174.835449 649.853455,2168.462646 654.641479,2163.385010 
	C659.763489,2157.952881 664.411743,2151.963867 668.469360,2145.701416 
	C669.776550,2143.683838 668.327759,2140.010498 668.563171,2137.129395 
	C668.761475,2134.701660 668.756958,2131.381592 670.253174,2130.086426 
	C677.135681,2124.127930 677.274292,2116.627686 675.335999,2109.025635 
	C673.198853,2100.643799 676.063416,2093.915771 680.929321,2087.804199 
	C687.288513,2079.816650 694.147705,2072.227295 700.897644,2064.343018 
	C703.357056,2064.170410 706.055115,2064.230225 708.657043,2063.759277 
	C728.593018,2060.150635 748.505310,2056.411133 768.440430,2052.797852 
	C770.702332,2052.387939 773.084229,2052.227783 775.369873,2052.424316 
	C802.215454,2054.733154 829.051025,2057.157715 855.896118,2059.472412 
	C858.922607,2059.733398 861.991089,2059.507568 865.155701,2059.507568 
	C862.701172,2055.314697 860.106567,2052.167480 858.933411,2048.558350 
	C857.414978,2043.887451 856.798645,2038.875366 856.214600,2033.960205 
	C855.403870,2027.137207 852.885071,2021.761597 847.850159,2016.565430 
	C841.964294,2010.490845 837.650269,2002.776489 833.324158,1995.381592 
	C832.099854,1993.288818 832.027039,1988.680786 833.464355,1987.186279 
	C840.280334,1980.098389 840.230347,1969.487427 847.430664,1962.433228 
	C852.675415,1957.294922 850.557373,1951.146973 843.779907,1947.993774 
	C840.578125,1946.504028 837.026794,1945.765869 833.794373,1944.738037 
	C831.584045,1939.825317 831.343384,1935.398193 834.555786,1931.237915 
	C842.152588,1921.398804 847.145813,1920.037598 859.149597,1924.451172 
	C859.461548,1924.565918 859.749146,1924.748779 860.063232,1924.855225 
	C866.279480,1926.960571 869.507080,1925.668945 871.956970,1919.746460 
	C873.902100,1915.044312 874.840454,1910.309326 872.541992,1905.256470 
	C868.232605,1895.782593 868.577759,1886.722534 874.987610,1877.970337 
	C876.535828,1875.856445 876.946289,1872.343140 876.706482,1869.574951 
	C874.695312,1846.358398 871.381165,1823.299805 864.678833,1800.949951 
	C861.378235,1789.944092 860.184814,1779.817871 867.957031,1770.286377 
	C868.343506,1769.812256 868.350830,1769.029053 868.952332,1768.248047 
	C869.369934,1768.106445 870.138245,1767.673096 870.594849,1767.569336 
	C871.673096,1767.145874 871.991394,1766.636475 872.006592,1765.975098 
	C872.006775,1766.012695 871.934814,1765.990112 872.708862,1766.049805 
	C891.716125,1760.090332 908.658203,1751.994507 920.017395,1735.615845 
	C922.741028,1731.688599 926.202698,1729.258789 930.570190,1728.991943 
	C936.828735,1728.609619 940.727783,1725.157715 944.450195,1720.786255 
	C947.715942,1716.951172 949.899353,1713.296631 950.336731,1707.708008 
	C951.286438,1695.571411 958.125183,1685.249023 963.614075,1674.704834 
	C967.567200,1667.110718 972.580688,1660.028809 977.541687,1653.015869 
	C980.043152,1649.479736 992.850708,1647.779419 994.834717,1651.005615 
	C999.010071,1657.795044 1007.359497,1661.327148 1009.105408,1669.843140 
	C1010.026245,1674.334839 1011.244751,1678.772339 1012.001526,1683.289062 
	C1012.934631,1688.858765 1015.067688,1691.408936 1019.550049,1689.578735 
	C1026.161133,1686.879272 1029.553467,1689.733765 1032.700195,1694.675903 
	C1032.927490,1695.032959 1033.879639,1694.928345 1034.395630,1695.020630 
	C1036.496582,1693.022095 1038.553711,1691.065063 1040.699463,1689.023926 
	C1041.844360,1690.865356 1042.654785,1692.168701 1043.612427,1693.708862 
	C1053.041748,1685.308960 1059.623291,1672.383545 1075.283813,1677.584839 
	C1076.068359,1677.845337 1077.190918,1676.867310 1078.136963,1676.908447 
	C1079.957397,1676.987427 1081.764160,1677.383545 1083.072754,1678.223633 
	C1081.739502,1682.005981 1080.678955,1685.173218 1080.119263,1688.426514 
	C1077.086060,1706.056152 1074.238159,1723.717651 1071.209961,1741.348145 
	C1066.892578,1766.485229 1062.399902,1791.592285 1058.118164,1816.735352 
	C1053.113159,1846.127441 1048.295166,1875.551514 1043.320435,1904.948853 
	C1038.899292,1931.076294 1034.459473,1957.201050 1029.856079,1983.296631 
	C1027.962158,1994.032959 1025.618286,2004.689819 1023.479004,2015.382812 
	C1018.691040,2020.264404 1013.977173,2025.222046 1009.084473,2029.996338 
	C1006.552429,2032.467407 1004.049805,2035.444702 1000.930054,2036.745728 
	C992.374390,2040.313843 985.187195,2044.692139 984.500305,2054.916992 
	C976.669739,2056.083984 976.669739,2056.083984 970.578308,2043.228638 
	C965.290833,2043.947754 959.430115,2044.327148 953.772827,2045.606323 
	C943.827332,2047.855103 938.159241,2046.000122 931.847412,2036.914062 
	C919.394470,2048.435791 923.067627,2063.840576 921.044739,2078.519043 
	C917.079773,2078.519043 912.992371,2078.519043 909.032959,2078.519043 
	C905.465088,2090.263428 902.587830,2102.359619 898.086487,2113.818359 
	C893.523254,2125.434570 887.355347,2136.420410 881.320007,2148.857422 
	C876.889526,2148.790527 870.727661,2147.961670 865.177551,2151.801514 
	C859.967346,2155.406494 857.496704,2158.130127 860.311829,2163.015381 
	C869.243469,2178.515137 864.364746,2194.060791 861.560120,2209.565918 
	C860.069275,2217.808594 861.517334,2225.090576 865.057800,2232.453857 
	C868.346619,2239.293701 874.571838,2245.849609 868.753357,2254.321289 
	C864.296997,2260.809570 861.099792,2268.322510 852.211853,2270.641357 
	C848.872559,2271.512695 845.749878,2274.089355 843.097107,2276.511230 
	C839.095825,2280.163574 838.711792,2286.217773 841.571228,2291.091553 
	C843.415894,2294.235107 845.568970,2297.222656 847.144836,2300.491943 
	C849.214966,2304.786621 849.169006,2309.621826 844.901917,2312.107666 
	C836.112610,2317.228027 833.885437,2325.777344 831.716064,2334.471924 
	C829.226379,2344.451172 827.220886,2354.499023 821.260437,2363.297363 
	C819.072937,2366.526611 816.583984,2368.424072 813.142517,2370.040039 
	C804.150513,2374.262695 795.245728,2378.732666 786.635986,2383.678223 
	C783.006042,2385.763428 779.763672,2388.938232 777.119995,2392.238525 
	C771.737976,2398.956787 765.172485,2403.426514 757.028992,2406.278564 
	C740.920471,2411.920410 740.331299,2411.864258 733.623779,2427.625977 
	C729.281921,2437.828369 722.470093,2444.131592 713.034302,2449.271240 
	C703.802368,2454.299805 694.001587,2458.904541 687.283264,2467.730225 
	C685.638000,2469.891357 682.891174,2471.214111 681.325439,2473.461182 
	C669.291199,2474.000000 656.582397,2474.000000 642.936829,2474.000000 
z"/>

<path data-name="Nyanon" style="fill: {#E758CA}" fill="#E758CA" opacity="1.000000" stroke="none" 
	d="
M2091.980713,1005.967712 
	C2094.512939,1010.990173 2097.616943,1015.106384 2103.624756,1016.675049 
	C2105.525146,1017.171265 2108.298828,1020.577454 2107.998047,1022.135437 
	C2106.888428,1027.880737 2112.762451,1029.352539 2114.033203,1033.483765 
	C2114.292725,1034.327271 2116.266602,1035.343506 2117.229736,1035.154785 
	C2122.696045,1034.083130 2124.771240,1036.335083 2125.992188,1041.607666 
	C2126.564697,1044.081787 2129.916016,1046.782715 2132.582764,1047.687988 
	C2136.141846,1048.895996 2140.260010,1048.456787 2144.426514,1048.745117 
	C2148.404297,1054.680176 2153.548096,1060.370239 2151.026123,1069.063721 
	C2150.506104,1070.856445 2152.768799,1073.959717 2154.463623,1075.801392 
	C2160.567139,1082.433838 2166.728027,1089.061890 2173.429443,1095.064087 
	C2175.301514,1096.740967 2179.108398,1096.257446 2182.592285,1096.863159 
	C2184.953613,1102.510864 2183.733398,1107.934937 2179.535645,1113.347900 
	C2184.421387,1117.867798 2187.705078,1124.484985 2196.077881,1124.165039 
	C2197.561279,1124.108276 2199.028076,1126.522461 2200.694824,1127.450195 
	C2202.003906,1128.178711 2204.042969,1129.185669 2205.009766,1128.668945 
	C2209.767090,1126.126831 2212.800781,1128.888306 2215.305664,1131.959717 
	C2219.396729,1136.975830 2224.295898,1140.472656 2231.260254,1142.075195 
	C2232.000000,1146.741089 2232.000000,1151.482300 2231.379883,1157.379639 
	C2229.279053,1159.697021 2227.798340,1160.858032 2224.654541,1163.323242 
	C2229.532959,1163.153687 2226.579102,1169.598511 2232.000000,1168.000000 
	C2232.000000,1170.777832 2232.000000,1173.555542 2232.000000,1177.166748 
	C2230.460693,1178.318237 2228.388428,1178.109497 2227.467773,1179.039917 
	C2221.150635,1185.424438 2214.541260,1191.631104 2209.035645,1198.683228 
	C2198.420166,1212.281006 2183.849121,1220.278564 2169.020752,1227.704956 
	C2159.649414,1232.398193 2149.558350,1235.029663 2140.922363,1241.928223 
	C2133.861816,1247.568115 2124.347656,1250.148682 2115.893555,1254.025513 
	C2112.219727,1255.710327 2109.203125,1257.590088 2107.930908,1262.026367 
	C2105.401367,1270.847168 2098.090820,1275.155396 2089.908691,1275.147339 
	C2075.159180,1275.132812 2061.967285,1279.455933 2048.886719,1285.492432 
	C2040.453857,1289.383911 2031.680054,1292.606323 2022.879150,1295.600098 
	C2018.555542,1297.070557 2013.831299,1297.970947 2009.274170,1298.029541 
	C1997.297607,1298.183716 1985.313843,1297.706787 1973.331909,1297.553467 
	C1971.349609,1297.528076 1969.322388,1297.671753 1967.383911,1298.068848 
	C1949.901855,1301.650146 1932.434937,1305.305298 1913.698486,1309.201782 
	C1912.697876,1312.205078 1911.051514,1316.498535 1909.854736,1320.914062 
	C1908.557129,1325.701782 1905.570679,1328.901855 1901.771484,1331.896973 
	C1895.865845,1336.553101 1889.765991,1338.984985 1882.521240,1335.569458 
	C1874.840576,1331.948486 1868.364136,1336.824097 1859.811279,1338.354370 
	C1854.322388,1338.187012 1850.424561,1337.970581 1846.402710,1337.747192 
	C1848.292236,1330.065796 1850.851807,1323.191162 1851.457886,1316.148315 
	C1852.003296,1309.812256 1853.337158,1303.866943 1854.813965,1297.750488 
	C1856.571045,1290.473022 1857.454834,1282.939453 1852.244507,1275.981689 
	C1850.571655,1273.747803 1851.066406,1269.893677 1850.559814,1266.782471 
	C1850.107544,1264.004883 1849.890747,1261.156250 1849.103149,1258.476318 
	C1848.481812,1256.361694 1846.696411,1254.557983 1846.219971,1252.437988 
	C1844.782593,1246.044312 1843.534668,1239.590698 1842.648682,1233.100952 
	C1842.379517,1231.129517 1842.840088,1227.952881 1844.144653,1227.070679 
	C1848.892212,1223.860352 1853.220459,1219.771973 1860.273804,1221.793335 
	C1866.904907,1223.693604 1869.213379,1221.133179 1869.795166,1214.252808 
	C1871.038330,1199.547241 1865.301880,1185.693604 1864.599243,1171.218994 
	C1864.513062,1169.443604 1863.071045,1167.734009 1861.960449,1165.359009 
	C1853.609253,1167.362183 1850.098511,1162.076416 1848.179321,1155.596680 
	C1845.998169,1148.232178 1844.478394,1140.661987 1842.886719,1133.135620 
	C1841.556885,1126.846558 1840.537842,1120.491943 1840.073486,1113.868164 
	C1843.508423,1112.394165 1846.220093,1111.139282 1848.998291,1110.054565 
	C1877.412842,1098.958984 1905.800537,1087.792969 1934.291748,1076.897583 
	C1940.108398,1074.673096 1946.229370,1072.795288 1952.373779,1071.955444 
	C1978.166260,1068.429932 2001.450317,1058.856201 2022.877930,1044.276123 
	C2033.298828,1037.185181 2044.280518,1030.892212 2054.475830,1023.503052 
	C2065.929443,1015.201965 2078.197510,1009.074768 2091.980713,1005.967712 
z"/>

<path data-name="Ndom" style="fill: {#735CF1}" fill="#735CF1" opacity="1.000000" stroke="none" 
	d="
M1778.584106,795.641785 
	C1780.063110,793.095459 1781.542114,790.549194 1783.147461,787.785400 
	C1789.913208,788.539368 1796.381958,790.135437 1802.648438,786.437134 
	C1804.130005,785.562683 1807.060059,787.406433 1809.357788,787.602173 
	C1816.534790,788.213379 1823.839111,789.454834 1827.623047,780.511230 
	C1828.697998,777.970520 1832.175171,776.543274 1833.781860,774.099915 
	C1835.092163,772.107544 1836.485962,768.831482 1835.714844,767.041077 
	C1832.398315,759.340271 1828.296875,751.977539 1824.120728,743.784546 
	C1825.319946,742.199341 1827.007690,740.235718 1828.392578,738.077759 
	C1830.798096,734.329468 1831.305298,730.786987 1827.218994,727.560486 
	C1822.477051,723.816406 1823.334106,720.125122 1827.058350,715.778259 
	C1831.241455,710.895935 1831.354980,704.663391 1829.268066,698.920349 
	C1826.586914,691.541382 1826.128906,684.375488 1829.484985,677.313660 
	C1832.225952,671.546570 1833.159912,666.151611 1829.698486,660.292664 
	C1826.140259,654.269836 1827.357666,647.972473 1830.194702,642.099609 
	C1831.276733,639.859802 1833.425537,636.969421 1835.495728,636.587891 
	C1842.178101,635.356506 1848.135864,630.932800 1855.689941,632.884949 
	C1859.231567,633.800171 1863.478882,631.984802 1867.972656,630.875732 
	C1874.423096,630.266846 1880.307129,630.189209 1887.621582,630.776123 
	C1892.720215,631.566833 1896.388672,631.692993 1900.057129,631.819092 
	C1905.069824,635.618835 1909.913452,639.672119 1915.137573,643.154480 
	C1921.739136,647.555054 1929.266235,650.762939 1935.255371,655.830994 
	C1941.263062,660.914673 1946.459717,666.920288 1953.835083,670.199585 
	C1956.731934,671.487610 1959.421509,674.205811 1963.796143,671.327454 
	C1962.955200,664.408264 1966.446289,658.846252 1971.237915,653.481262 
	C1973.441162,651.014526 1973.672363,646.836731 1974.980835,643.506714 
	C1976.340454,640.046692 1977.689697,637.007019 1982.706177,637.428223 
	C1993.942383,638.371582 2005.232056,638.674194 2016.497925,639.274780 
	C2018.094727,639.359924 2019.680542,639.652100 2021.558838,639.884033 
	C2022.239014,647.152771 2024.073853,654.139282 2023.203735,660.770874 
	C2022.194458,668.463440 2019.290161,676.037964 2016.354248,683.319397 
	C2010.625854,697.526733 2006.163452,711.571533 2008.860962,727.416687 
	C2011.157837,740.909119 2010.484985,754.436462 2004.156494,767.326660 
	C1999.663574,776.477844 1992.638062,781.623962 1983.144653,783.963684 
	C1975.652222,785.810120 1974.442017,786.676880 1977.925903,792.689331 
	C1982.657959,800.856018 1982.965820,808.625488 1980.369629,817.291504 
	C1978.507446,823.506897 1982.825562,827.838623 1987.389038,830.263611 
	C1991.948853,832.686646 1992.740601,835.596924 1993.717773,840.190247 
	C1994.800293,845.279663 1998.507690,849.826538 2001.159912,854.560547 
	C2002.937744,857.733582 2005.235352,860.664246 2006.653564,863.979980 
	C2009.561401,870.778931 2013.756714,874.602112 2021.814575,874.081482 
	C2024.455078,873.910889 2027.722778,876.513062 2029.972656,878.625732 
	C2035.237671,883.569824 2040.000366,889.044373 2045.082520,894.189514 
	C2048.633789,897.784729 2048.657471,900.477051 2044.728760,904.211243 
	C2043.312988,905.557007 2041.741699,906.739258 2039.886719,908.293213 
	C2044.102173,913.844116 2046.234009,919.610107 2045.723755,926.549194 
	C2045.301514,932.292358 2047.238647,937.481812 2052.891357,940.833130 
	C2055.116211,942.152161 2056.374512,945.101196 2058.387939,947.717163 
	C2066.837158,949.370483 2075.878418,951.139648 2085.936279,953.107666 
	C2086.436279,954.330383 2088.108643,956.459351 2087.967041,958.459900 
	C2087.613037,963.456055 2089.578125,966.689941 2092.684082,970.589111 
	C2097.328369,976.419434 2093.719482,983.882812 2093.557129,990.619751 
	C2093.447754,995.159485 2092.349365,999.675293 2091.836914,1005.084778 
	C2078.197510,1009.074768 2065.929443,1015.201965 2054.475830,1023.503052 
	C2044.280518,1030.892212 2033.298828,1037.185181 2022.877930,1044.276123 
	C2001.450317,1058.856201 1978.166260,1068.429932 1952.373779,1071.955444 
	C1946.229370,1072.795288 1940.108398,1074.673096 1934.291748,1076.897583 
	C1905.800537,1087.792969 1877.412842,1098.958984 1848.998291,1110.054565 
	C1846.220093,1111.139282 1843.508423,1112.394165 1839.359863,1113.833740 
	C1830.847290,1113.619629 1826.381836,1118.833618 1823.018066,1123.272095 
	C1819.393799,1128.054199 1816.109375,1130.825439 1810.238037,1129.186768 
	C1810.226807,1123.584839 1810.165161,1118.928101 1810.137451,1114.270996 
	C1810.103882,1108.648682 1810.782471,1102.999390 1805.945435,1098.434570 
	C1804.692627,1097.252197 1805.059814,1094.239380 1804.882935,1092.051147 
	C1804.305664,1084.912720 1802.176514,1077.559814 1807.730957,1071.194336 
	C1808.114868,1070.754150 1807.331543,1069.342041 1807.166992,1068.369141 
	C1806.103149,1062.075806 1804.692871,1055.968872 1798.529175,1052.883667 
	C1802.216309,1042.988525 1803.277344,1045.465820 1795.134033,1037.287354 
	C1795.839966,1035.871338 1796.559570,1034.428223 1797.505371,1032.531128 
	C1789.943359,1027.746460 1787.713135,1020.854065 1789.904907,1012.222778 
	C1790.457642,1010.046387 1789.925049,1007.604858 1789.971191,1005.286804 
	C1790.054199,1001.113037 1789.361694,997.773071 1785.068237,995.319946 
	C1781.135864,993.073120 1777.133179,989.766296 1777.878784,984.276367 
	C1779.314575,973.701721 1774.435913,967.439270 1763.937988,964.341248 
	C1768.399292,957.528931 1769.101685,951.178772 1764.681274,944.475525 
	C1763.520752,942.715637 1764.506348,939.540466 1764.506348,937.013489 
	C1766.537231,936.416931 1767.826050,936.137329 1769.040161,935.665344 
	C1775.600830,933.114746 1776.178833,932.259277 1773.597046,925.498840 
	C1772.273438,922.032959 1772.200806,919.334473 1774.365845,916.201782 
	C1775.316772,914.825623 1775.595459,912.249695 1774.996338,910.666077 
	C1772.502808,904.074463 1775.176758,899.915894 1780.496948,896.361755 
	C1783.514648,894.345825 1785.930786,891.427002 1788.955078,889.424072 
	C1793.552490,886.379211 1794.702393,882.856384 1792.868652,877.534180 
	C1788.018677,863.457825 1783.602295,849.232056 1779.127441,835.417847 
	C1780.114868,832.084473 1781.544434,828.755615 1782.030640,825.294250 
	C1782.943970,818.791382 1783.329468,812.213501 1783.901245,805.663818 
	C1784.291748,801.192566 1784.590698,796.734802 1778.584106,795.641785 
z"/>
<path data-name="Ngambe" style="fill: {#464D80}" fill="#464D80" opacity="1.000000" stroke="none" 
	d="
M1900.028076,631.451355 
	C1896.388672,631.692993 1892.720215,631.566833 1888.521851,630.870972 
	C1891.401123,630.195557 1894.810181,630.089905 1899.034668,630.172729 
	C1899.849854,630.361145 1899.999146,631.083618 1900.028076,631.451355 
z"/>
<path data-name="Ngwei" style="fill: {#F6606D}" fill="#F6606D" opacity="1.000000" stroke="none" 
	d="
M1024.205078,2015.731934 
	C1025.618286,2004.689819 1027.962158,1994.032959 1029.856079,1983.296631 
	C1034.459473,1957.201050 1038.899292,1931.076294 1043.320435,1904.948853 
	C1048.295166,1875.551514 1053.113159,1846.127441 1058.118164,1816.735352 
	C1062.399902,1791.592285 1066.892578,1766.485229 1071.209961,1741.348145 
	C1074.238159,1723.717651 1077.086060,1706.056152 1080.119263,1688.426514 
	C1080.678955,1685.173218 1081.739502,1682.005981 1083.775391,1678.630005 
	C1086.064575,1681.812012 1087.373657,1685.110840 1088.163208,1688.529663 
	C1088.885986,1691.659668 1089.712280,1694.275269 1091.948242,1692.410034 
	C1095.214355,1688.857178 1098.480591,1685.304199 1101.746826,1681.751221 
	C1102.692749,1682.452759 1103.638672,1683.154297 1104.584473,1683.855835 
	C1104.068848,1678.595093 1103.567505,1673.332764 1103.033447,1668.073853 
	C1102.503540,1662.853882 1105.231567,1659.621582 1110.304932,1660.002808 
	C1112.562500,1660.172607 1114.725830,1661.345947 1116.981812,1661.832031 
	C1125.720459,1663.715210 1129.623657,1662.191772 1134.029663,1654.229248 
	C1136.867554,1649.100952 1140.374146,1646.092773 1146.521240,1646.059204 
	C1151.297729,1646.033203 1155.369263,1644.273315 1158.210327,1639.766357 
	C1165.233032,1628.625854 1176.930420,1623.536865 1188.662842,1620.878174 
	C1196.400513,1619.124634 1201.182983,1616.073608 1204.939331,1609.842041 
	C1206.308838,1607.570190 1207.999146,1605.489746 1209.568604,1603.340576 
	C1216.816650,1593.415527 1224.406494,1583.720215 1231.241333,1573.518921 
	C1239.377563,1561.375366 1246.869873,1548.800293 1254.638550,1536.410522 
	C1256.401855,1533.598389 1258.287231,1530.852905 1259.890747,1527.952148 
	C1270.182617,1509.333740 1280.249634,1490.589233 1290.706665,1472.064575 
	C1301.003662,1453.823364 1312.310425,1436.130371 1319.692627,1416.367554 
	C1320.600952,1413.936157 1321.845093,1411.372070 1323.638184,1409.571167 
	C1335.594604,1397.561890 1343.348145,1382.941284 1350.431152,1367.817505 
	C1352.056763,1364.346436 1354.691162,1361.347656 1357.097900,1358.877930 
	C1359.988892,1365.564209 1362.643188,1371.504272 1365.214355,1377.258179 
	C1372.782471,1378.859253 1372.606934,1378.904297 1374.061646,1384.565918 
	C1375.125732,1388.707275 1376.961060,1392.650391 1378.024048,1396.791870 
	C1379.066650,1400.854126 1380.677124,1405.220093 1380.091309,1409.163574 
	C1378.554688,1419.506226 1376.385132,1429.792114 1370.560303,1438.888672 
	C1365.456421,1446.859497 1366.156494,1448.499878 1372.891113,1454.476196 
	C1375.295166,1456.609497 1377.990723,1461.003784 1377.317871,1463.490845 
	C1375.787476,1469.147339 1378.270386,1472.899048 1381.563477,1475.858643 
	C1388.573120,1482.158813 1391.398682,1490.711182 1395.344849,1498.687378 
	C1399.786255,1507.664551 1400.241455,1516.391479 1393.738037,1524.837402 
	C1390.909302,1528.511230 1388.805176,1532.733521 1386.150635,1536.552979 
	C1383.185425,1540.819702 1382.719238,1544.919922 1385.538818,1549.512939 
	C1387.217407,1552.247192 1387.989502,1554.677368 1385.908447,1558.509644 
	C1383.803345,1562.386475 1383.948120,1567.963013 1384.522949,1572.620239 
	C1384.820557,1575.030518 1388.276611,1576.987427 1390.139404,1579.284180 
	C1392.403931,1582.076294 1395.502319,1584.709351 1396.467407,1587.940552 
	C1399.277344,1597.349243 1401.598511,1606.957642 1403.175659,1616.640259 
	C1403.533447,1618.837280 1400.416260,1621.954956 1398.319092,1624.076050 
	C1396.839233,1625.572754 1394.381348,1626.102295 1392.568115,1626.964722 
	C1392.163452,1633.403076 1397.620972,1639.349609 1392.261353,1645.129272 
	C1391.954590,1645.460327 1392.244019,1646.410645 1392.357910,1647.054810 
	C1393.271362,1652.226318 1394.209351,1657.393555 1395.221680,1663.016602 
	C1397.623047,1664.042603 1400.332642,1665.200317 1403.341797,1666.486084 
	C1402.311646,1668.383057 1401.405762,1670.051514 1400.654053,1671.435913 
	C1402.741943,1676.424316 1404.743652,1681.206787 1406.878540,1686.307251 
	C1399.120850,1690.808960 1397.180542,1697.088013 1398.152466,1704.573975 
	C1392.345581,1701.824585 1386.114380,1701.600586 1380.003662,1702.448364 
	C1376.828857,1702.888672 1373.072998,1702.972534 1371.930298,1708.128906 
	C1370.866455,1712.928833 1365.905518,1712.779663 1361.966919,1711.512085 
	C1358.654053,1710.445679 1355.569092,1709.076294 1352.863037,1712.254517 
	C1347.160522,1718.951416 1340.793945,1719.458618 1334.142822,1714.225220 
	C1329.563965,1717.552368 1325.457520,1720.536255 1320.572266,1724.086182 
	C1319.526733,1730.781860 1319.528687,1730.630859 1311.824341,1730.530151 
	C1308.746460,1730.489868 1305.377441,1731.555664 1307.020630,1735.691040 
	C1309.054077,1740.808105 1307.315552,1743.069458 1302.437256,1744.436157 
	C1300.438110,1744.995972 1298.758301,1746.695312 1296.407837,1748.216187 
	C1295.610962,1746.037720 1295.000244,1744.368164 1294.229492,1742.261353 
	C1290.920166,1745.379517 1287.723145,1748.391846 1284.635010,1751.301514 
	C1286.055908,1758.458618 1291.270508,1754.494141 1296.418213,1754.628296 
	C1294.535034,1757.436035 1293.774780,1759.726807 1292.198242,1760.714478 
	C1286.254150,1764.437988 1283.984009,1770.340820 1282.789307,1776.554810 
	C1281.454712,1783.495850 1277.341797,1789.896240 1279.087158,1797.549561 
	C1279.595947,1799.781006 1278.468384,1803.257324 1276.830078,1804.922852 
	C1273.552734,1808.254395 1274.091675,1812.063599 1273.540161,1815.975708 
	C1272.953735,1820.135498 1271.892578,1824.482788 1269.900146,1828.125488 
	C1267.422119,1832.656616 1267.832764,1837.106812 1268.444336,1841.684937 
	C1268.620728,1843.006470 1269.779175,1844.428955 1270.869141,1845.356323 
	C1275.626343,1849.403809 1275.294312,1854.524414 1274.312988,1859.884644 
	C1272.996582,1867.076172 1272.255493,1874.165405 1279.390503,1879.825562 
	C1273.259644,1888.573730 1270.228638,1898.840698 1263.056641,1906.996094 
	C1260.245605,1910.192383 1259.861328,1915.482910 1258.211792,1919.758057 
	C1257.401855,1921.857300 1256.749268,1924.677368 1255.114624,1925.667603 
	C1251.094727,1928.102661 1250.119385,1931.296631 1250.146851,1935.641846 
	C1250.159424,1937.623535 1248.607178,1939.615112 1247.566162,1942.070190 
	C1242.642090,1939.394531 1238.317017,1934.936646 1233.651123,1940.029419 
	C1229.128418,1944.965820 1231.976562,1949.806274 1235.122925,1954.581665 
	C1232.242065,1960.441406 1229.340210,1966.343872 1226.312866,1972.501709 
	C1228.094238,1977.526855 1230.086670,1982.676636 1225.516602,1988.019409 
	C1224.291260,1989.451904 1225.331177,1992.822021 1225.331177,1995.977417 
	C1224.070435,1996.809692 1222.168579,1998.065308 1221.650513,1998.407349 
	C1219.783325,2004.098022 1218.334229,2008.514771 1216.448975,2014.260254 
	C1216.855713,2015.067871 1218.021851,2017.382935 1219.133179,2019.589355 
	C1218.585938,2020.306519 1218.309570,2021.067139 1217.813354,2021.258911 
	C1211.165039,2023.829224 1211.422729,2023.736084 1213.080322,2029.707764 
	C1214.965454,2036.499390 1214.674561,2043.289429 1211.543457,2049.809814 
	C1210.421143,2052.146973 1209.566406,2054.612793 1208.684937,2056.785156 
	C1205.667114,2058.059814 1202.583984,2058.979004 1199.898682,2060.569824 
	C1192.774048,2064.790771 1186.004639,2069.645264 1178.715088,2073.539062 
	C1175.518066,2075.246582 1173.156738,2076.920410 1172.245483,2080.424316 
	C1169.401855,2091.358643 1162.743652,2100.447510 1155.807495,2108.678467 
	C1148.617554,2117.210938 1139.155518,2124.085693 1126.797241,2123.995605 
	C1119.815552,2123.944824 1112.836670,2123.602539 1105.855103,2123.456543 
	C1100.626587,2123.347168 1095.379028,2123.065430 1090.171387,2123.379395 
	C1086.166626,2123.621094 1083.336792,2123.341553 1081.461670,2118.916504 
	C1077.151611,2108.745117 1076.922729,2093.750977 1081.614990,2083.732422 
	C1074.459473,2079.555664 1065.872681,2077.902588 1060.711792,2070.138672 
	C1059.058594,2067.651367 1054.410400,2066.856934 1050.958130,2065.956299 
	C1048.124268,2065.217041 1045.031860,2065.468506 1041.934448,2065.272949 
	C1037.518311,2059.693115 1037.634277,2053.964355 1040.178101,2047.593506 
	C1041.294067,2044.798340 1040.848511,2041.352051 1040.963379,2038.196045 
	C1041.022339,2036.576416 1040.516235,2034.921509 1040.672852,2033.322510 
	C1041.733154,2022.496826 1040.810913,2020.938354 1030.718628,2017.551758 
	C1028.836792,2016.920410 1026.862549,2016.564331 1024.205078,2015.731934 
z"/>
<path data-name="Pouma" style="fill: {#5EBEB9}" fill="#5EBEB9" opacity="1.000000" stroke="none" 
	d="
M1398.880371,1704.559204 
	C1397.180542,1697.088013 1399.120850,1690.808960 1406.878540,1686.307251 
	C1404.743652,1681.206787 1402.741943,1676.424316 1400.654053,1671.435913 
	C1401.405762,1670.051514 1402.311646,1668.383057 1403.341797,1666.486084 
	C1400.332642,1665.200317 1397.623047,1664.042603 1395.221680,1663.016602 
	C1394.209351,1657.393555 1393.271362,1652.226318 1392.357910,1647.054810 
	C1392.244019,1646.410645 1391.954590,1645.460327 1392.261353,1645.129272 
	C1397.620972,1639.349609 1392.163452,1633.403076 1392.568115,1626.964722 
	C1394.381348,1626.102295 1396.839233,1625.572754 1398.319092,1624.076050 
	C1400.416260,1621.954956 1403.533447,1618.837280 1403.175659,1616.640259 
	C1401.598511,1606.957642 1399.277344,1597.349243 1396.467407,1587.940552 
	C1395.502319,1584.709351 1392.403931,1582.076294 1390.139404,1579.284180 
	C1388.276611,1576.987427 1384.820557,1575.030518 1384.522949,1572.620239 
	C1383.948120,1567.963013 1383.803345,1562.386475 1385.908447,1558.509644 
	C1387.989502,1554.677368 1387.217407,1552.247192 1385.538818,1549.512939 
	C1382.719238,1544.919922 1383.185425,1540.819702 1386.150635,1536.552979 
	C1388.805176,1532.733521 1390.909302,1528.511230 1393.738037,1524.837402 
	C1400.241455,1516.391479 1399.786255,1507.664551 1395.344849,1498.687378 
	C1391.398682,1490.711182 1388.573120,1482.158813 1381.563477,1475.858643 
	C1378.270386,1472.899048 1375.787476,1469.147339 1377.317871,1463.490845 
	C1377.990723,1461.003784 1375.295166,1456.609497 1372.891113,1454.476196 
	C1366.156494,1448.499878 1365.456421,1446.859497 1370.560303,1438.888672 
	C1376.385132,1429.792114 1378.554688,1419.506226 1380.091309,1409.163574 
	C1380.677124,1405.220093 1379.066650,1400.854126 1378.024048,1396.791870 
	C1376.961060,1392.650391 1375.125732,1388.707275 1374.061646,1384.565918 
	C1372.606934,1378.904297 1372.782471,1378.859253 1365.214355,1377.258179 
	C1362.643188,1371.504272 1359.988892,1365.564209 1357.425049,1358.201904 
	C1363.793823,1348.429077 1370.072144,1340.078247 1376.909546,1332.093994 
	C1383.058838,1336.603271 1385.586792,1345.017822 1394.656250,1344.519165 
	C1395.684814,1344.462646 1397.268555,1347.254395 1397.928711,1348.980103 
	C1401.104126,1357.280396 1406.719971,1364.666992 1407.131714,1374.040649 
	C1407.211914,1375.870972 1408.602173,1377.710083 1409.599243,1379.422485 
	C1414.110474,1387.169312 1418.819824,1394.803345 1423.208740,1402.617920 
	C1425.622681,1406.915894 1428.098999,1410.017090 1433.870117,1409.950317 
	C1437.161499,1409.912109 1441.825928,1411.406738 1443.522095,1413.845581 
	C1447.659912,1419.795288 1452.865967,1421.780396 1459.607910,1421.830566 
	C1461.389282,1421.843750 1463.161743,1423.040039 1464.769287,1423.630981 
	C1464.486938,1432.375122 1467.770752,1438.596313 1474.761108,1441.124146 
	C1480.520996,1443.207275 1484.654419,1438.741211 1488.986084,1435.926636 
	C1490.625854,1434.860962 1491.866821,1433.179199 1493.281616,1431.770386 
	C1496.582642,1428.482544 1499.670654,1424.936523 1503.254395,1421.993408 
	C1505.431396,1420.205688 1508.436768,1418.153564 1510.955688,1418.292358 
	C1518.703613,1418.719604 1522.459106,1414.626709 1525.031372,1408.224487 
	C1527.184570,1402.865967 1530.640381,1399.798340 1537.088623,1399.750000 
	C1545.354492,1399.687988 1553.739624,1399.094482 1561.828491,1397.493408 
	C1567.409912,1396.388672 1572.290283,1396.835815 1577.334229,1398.867310 
	C1579.750000,1399.840332 1582.229004,1400.656006 1583.606445,1401.154541 
	C1590.022583,1395.586548 1595.187988,1389.762085 1601.557251,1385.947266 
	C1608.163940,1381.989990 1612.794556,1377.237305 1615.993286,1370.311646 
	C1619.687012,1362.314331 1625.036377,1359.762573 1633.658447,1360.593262 
	C1637.953247,1361.007080 1642.233521,1361.699097 1646.536255,1361.874268 
	C1653.099976,1362.141479 1659.629639,1361.288330 1665.031250,1366.932373 
	C1667.005127,1368.994751 1671.223145,1369.785767 1674.372192,1369.689087 
	C1685.579590,1369.344849 1696.875610,1369.350586 1707.662231,1365.309204 
	C1709.951172,1364.451538 1713.344604,1363.765991 1715.136597,1364.834106 
	C1723.327515,1369.716431 1731.693359,1374.636963 1736.096191,1383.792236 
	C1727.730713,1394.887573 1719.365234,1405.982910 1710.617798,1417.584595 
	C1713.084351,1419.414551 1714.749634,1420.957886 1716.678345,1422.026001 
	C1724.143555,1426.161743 1726.003540,1432.797729 1721.119629,1439.714966 
	C1719.837402,1441.531006 1717.451050,1442.567627 1716.013916,1443.634155 
	C1717.872559,1451.881348 1721.222778,1458.895630 1713.403320,1464.747314 
	C1711.770508,1465.969116 1712.536255,1470.362549 1712.147705,1473.287720 
	C1711.329468,1479.448120 1709.580811,1481.209473 1703.421143,1481.983887 
	C1702.107666,1482.149048 1700.750366,1481.943481 1699.429077,1482.071045 
	C1686.968140,1483.274414 1674.748047,1484.135254 1665.692871,1495.260254 
	C1661.491943,1500.421631 1654.546875,1503.349609 1648.277466,1507.682739 
	C1647.693604,1515.468994 1647.019287,1524.337402 1646.376587,1533.208252 
	C1646.304810,1534.199707 1646.098022,1535.349731 1646.483398,1536.180664 
	C1652.023193,1548.127563 1650.227783,1559.414185 1643.197266,1569.569580 
	C1649.735840,1581.697876 1655.416870,1593.225586 1654.354858,1606.947388 
	C1656.792603,1608.262939 1659.048462,1609.480347 1661.332397,1610.712891 
	C1661.332397,1611.974121 1661.691406,1613.140503 1661.273926,1613.849854 
	C1658.608398,1618.378906 1659.940063,1622.213745 1663.306885,1625.524414 
	C1668.070801,1630.208862 1670.140869,1635.785034 1670.480225,1642.426025 
	C1670.879395,1650.239990 1675.158447,1657.734741 1672.469360,1665.837158 
	C1677.268677,1670.518311 1676.682983,1676.351929 1675.959229,1682.468262 
	C1672.795654,1684.835449 1669.483032,1687.313965 1665.459595,1690.324463 
	C1663.566284,1689.056885 1661.215576,1687.482910 1658.714844,1685.808594 
	C1657.957153,1686.286865 1656.901489,1686.626465 1656.361938,1687.350586 
	C1654.180298,1690.279175 1652.208984,1693.363525 1650.063599,1696.320190 
	C1647.456299,1699.913208 1645.455200,1703.262085 1647.563721,1708.191528 
	C1648.580688,1710.569214 1647.755005,1714.044434 1646.999878,1716.814453 
	C1644.395020,1726.369507 1646.210815,1732.059692 1654.042725,1737.341064 
	C1662.075806,1742.757812 1662.049805,1743.238647 1652.539307,1749.354492 
	C1651.149414,1745.878418 1650.710693,1743.370483 1649.936768,1740.970825 
	C1648.814941,1737.492798 1646.822754,1737.882690 1644.516968,1739.460693 
	C1645.828491,1743.303345 1646.940552,1746.561523 1648.052612,1749.819702 
	C1640.858887,1743.737793 1633.070801,1747.834839 1627.044556,1748.360840 
	C1623.645264,1752.597534 1620.862183,1755.895386 1618.291748,1759.351074 
	C1617.203491,1760.814087 1616.043823,1762.545410 1615.831787,1764.267456 
	C1615.469727,1767.209839 1615.437012,1770.312256 1615.966187,1773.220093 
	C1617.094360,1779.418335 1619.517700,1785.665527 1611.586548,1789.519165 
	C1610.649536,1789.974365 1610.721313,1792.511475 1610.331055,1794.084839 
	C1608.793457,1800.283691 1608.871338,1807.543945 1599.643921,1808.234497 
	C1598.509399,1808.319458 1596.717529,1811.804443 1596.779297,1813.662354 
	C1597.111938,1823.643066 1597.281250,1823.637451 1591.076782,1833.207764 
	C1589.984863,1831.927368 1588.669067,1830.935425 1588.097046,1829.619995 
	C1585.350220,1823.302490 1582.678833,1822.485474 1577.427246,1826.723389 
	C1575.211548,1828.511597 1573.145142,1830.484863 1569.487427,1831.188599 
	C1570.262329,1828.485229 1571.037231,1825.781738 1571.872803,1822.866943 
	C1564.501587,1821.607544 1562.571167,1815.414185 1560.066895,1808.335693 
	C1556.704590,1810.231689 1554.044556,1811.731689 1550.784546,1813.570068 
	C1548.949219,1809.268311 1547.080688,1804.888672 1545.009888,1800.034790 
	C1547.796021,1797.968384 1550.895752,1795.669312 1554.285156,1793.155396 
	C1548.414551,1789.802856 1542.015381,1787.747559 1537.992432,1783.461792 
	C1532.489502,1777.599121 1526.056396,1777.221680 1519.199463,1776.572876 
	C1518.270020,1776.484985 1517.392334,1775.851318 1516.370483,1775.419434 
	C1515.744019,1772.851685 1515.409790,1770.196899 1514.410156,1767.822021 
	C1513.706665,1766.150269 1512.022583,1763.545776 1510.906738,1763.610474 
	C1503.414917,1764.044312 1503.129639,1754.617920 1496.715332,1753.572754 
	C1495.772461,1753.419067 1495.320801,1750.250732 1494.445801,1747.965454 
	C1492.275513,1749.544312 1490.418701,1750.895264 1488.364990,1752.389282 
	C1486.302612,1747.884277 1484.507568,1743.963013 1482.583008,1739.758911 
	C1476.282959,1744.866333 1476.282959,1744.866333 1468.887695,1738.750732 
	C1466.906616,1743.208008 1464.958008,1747.591797 1462.729736,1752.605103 
	C1450.099609,1747.079346 1456.095459,1734.536377 1450.765991,1726.382446 
	C1447.827393,1726.382446 1444.240601,1726.321899 1440.656494,1726.396729 
	C1435.279297,1726.508789 1434.312866,1725.612305 1436.552002,1720.491455 
	C1438.637329,1715.722412 1435.745605,1714.815063 1432.727539,1713.212280 
	C1429.551636,1714.904053 1429.023315,1721.633423 1423.349609,1717.764404 
	C1422.856934,1717.428467 1420.190552,1720.280029 1417.654907,1722.378296 
	C1412.153564,1718.705078 1406.380249,1714.850342 1400.474365,1710.906982 
	C1402.257690,1708.929321 1403.917358,1707.088623 1406.774536,1703.919800 
	C1403.187622,1704.232422 1401.397949,1704.388428 1398.880371,1704.559204 
z"/>
<path data-name="Massock-Songloulou" style="fill: {#87684D}" fill="#87684D" opacity="1.000000" stroke="none" 
	d="
M1736.854980,1383.870850 
	C1731.693359,1374.636963 1723.327515,1369.716431 1715.136597,1364.834106 
	C1713.344604,1363.765991 1709.951172,1364.451538 1707.662231,1365.309204 
	C1696.875610,1369.350586 1685.579590,1369.344849 1674.372192,1369.689087 
	C1671.223145,1369.785767 1667.005127,1368.994751 1665.031250,1366.932373 
	C1659.629639,1361.288330 1653.099976,1362.141479 1646.536255,1361.874268 
	C1642.233521,1361.699097 1637.953247,1361.007080 1633.658447,1360.593262 
	C1625.036377,1359.762573 1619.687012,1362.314331 1615.993286,1370.311646 
	C1612.794556,1377.237305 1608.163940,1381.989990 1601.557251,1385.947266 
	C1595.187988,1389.762085 1590.022583,1395.586548 1583.606445,1401.154541 
	C1582.229004,1400.656006 1579.750000,1399.840332 1577.334229,1398.867310 
	C1572.290283,1396.835815 1567.409912,1396.388672 1561.828491,1397.493408 
	C1553.739624,1399.094482 1545.354492,1399.687988 1537.088623,1399.750000 
	C1530.640381,1399.798340 1527.184570,1402.865967 1525.031372,1408.224487 
	C1522.459106,1414.626709 1518.703613,1418.719604 1510.955688,1418.292358 
	C1508.436768,1418.153564 1505.431396,1420.205688 1503.254395,1421.993408 
	C1499.670654,1424.936523 1496.582642,1428.482544 1493.281616,1431.770386 
	C1491.866821,1433.179199 1490.625854,1434.860962 1488.986084,1435.926636 
	C1484.654419,1438.741211 1480.520996,1443.207275 1474.761108,1441.124146 
	C1467.770752,1438.596313 1464.486938,1432.375122 1464.769287,1423.630981 
	C1463.161743,1423.040039 1461.389282,1421.843750 1459.607910,1421.830566 
	C1452.865967,1421.780396 1447.659912,1419.795288 1443.522095,1413.845581 
	C1441.825928,1411.406738 1437.161499,1409.912109 1433.870117,1409.950317 
	C1428.098999,1410.017090 1425.622681,1406.915894 1423.208740,1402.617920 
	C1418.819824,1394.803345 1414.110474,1387.169312 1409.599243,1379.422485 
	C1408.602173,1377.710083 1407.211914,1375.870972 1407.131714,1374.040649 
	C1406.719971,1364.666992 1401.104126,1357.280396 1397.928711,1348.980103 
	C1397.268555,1347.254395 1395.684814,1344.462646 1394.656250,1344.519165 
	C1385.586792,1345.017822 1383.058838,1336.603271 1376.808105,1331.328735 
	C1372.517090,1321.402466 1374.851685,1314.970947 1383.518066,1310.726440 
	C1387.133301,1308.955811 1387.917847,1305.721558 1387.887451,1301.659424 
	C1387.833496,1294.421021 1391.029297,1288.259399 1395.743286,1282.758179 
	C1398.976685,1278.984741 1401.657715,1274.743408 1404.766968,1270.856201 
	C1406.992188,1268.074097 1407.973145,1265.358765 1406.967773,1261.677368 
	C1405.282349,1255.505493 1407.803345,1250.770996 1413.001587,1247.285034 
	C1419.246216,1243.097534 1421.934082,1237.215576 1422.598511,1229.705078 
	C1423.015259,1224.992676 1425.276367,1220.429932 1426.806519,1215.831909 
	C1429.915405,1206.490112 1436.742676,1198.385010 1436.979736,1187.856689 
	C1443.087402,1188.591553 1448.329468,1189.296143 1453.578369,1189.945557 
	C1470.078735,1191.986816 1486.442505,1194.490112 1500.954590,1203.488281 
	C1506.774658,1207.096924 1513.017090,1208.415161 1519.936401,1208.159668 
	C1530.226685,1207.779663 1540.570679,1207.740967 1550.846313,1208.340088 
	C1565.698242,1209.205933 1580.488037,1211.198486 1595.342773,1211.939453 
	C1616.877686,1213.013550 1638.446777,1213.399292 1660.001343,1214.079468 
	C1660.666016,1214.100464 1661.351807,1214.033325 1661.991943,1214.172241 
	C1676.501587,1217.327637 1690.908569,1215.754150 1705.474487,1214.069824 
	C1724.437988,1211.876831 1742.071411,1206.241577 1756.247437,1193.549072 
	C1768.797119,1182.312744 1780.190674,1169.672119 1791.235840,1156.908325 
	C1798.359619,1148.676270 1803.933838,1139.103516 1810.202515,1130.131592 
	C1816.109375,1130.825439 1819.393799,1128.054199 1823.018066,1123.272095 
	C1826.381836,1118.833618 1830.847290,1113.619629 1838.667603,1114.131836 
	C1840.537842,1120.491943 1841.556885,1126.846558 1842.886719,1133.135620 
	C1844.478394,1140.661987 1845.998169,1148.232178 1848.179321,1155.596680 
	C1850.098511,1162.076416 1853.609253,1167.362183 1861.960449,1165.359009 
	C1863.071045,1167.734009 1864.513062,1169.443604 1864.599243,1171.218994 
	C1865.301880,1185.693604 1871.038330,1199.547241 1869.795166,1214.252808 
	C1869.213379,1221.133179 1866.904907,1223.693604 1860.273804,1221.793335 
	C1853.220459,1219.771973 1848.892212,1223.860352 1844.144653,1227.070679 
	C1842.840088,1227.952881 1842.379517,1231.129517 1842.648682,1233.100952 
	C1843.534668,1239.590698 1844.782593,1246.044312 1846.219971,1252.437988 
	C1846.696411,1254.557983 1848.481812,1256.361694 1849.103149,1258.476318 
	C1849.890747,1261.156250 1850.107544,1264.004883 1850.559814,1266.782471 
	C1851.066406,1269.893677 1850.571655,1273.747803 1852.244507,1275.981689 
	C1857.454834,1282.939453 1856.571045,1290.473022 1854.813965,1297.750488 
	C1853.337158,1303.866943 1852.003296,1309.812256 1851.457886,1316.148315 
	C1850.851807,1323.191162 1848.292236,1330.065796 1846.402710,1337.747192 
	C1850.424561,1337.970581 1854.322388,1338.187012 1859.044434,1338.590332 
	C1851.327881,1339.223145 1842.783691,1340.064697 1834.247559,1339.992065 
	C1827.176758,1339.931763 1822.525269,1342.636230 1818.631470,1348.496826 
	C1812.431519,1357.828369 1804.089966,1364.732666 1793.220703,1368.473999 
	C1778.475586,1373.549438 1763.945923,1379.262085 1749.134766,1384.125732 
	C1745.685547,1385.258179 1741.474243,1384.069946 1736.854980,1383.870850 
z"/>
<path data-name="Ngambe" style="fill: {#464D80}" fill="#464D80" opacity="1.000000" stroke="none" 
	d="
M1648.696533,1749.930664 
	C1646.940552,1746.561523 1645.828491,1743.303345 1644.516968,1739.460693 
	C1646.822754,1737.882690 1648.814941,1737.492798 1649.936768,1740.970825 
	C1650.710693,1743.370483 1651.149414,1745.878418 1651.841064,1749.074219 
	C1651.076416,1749.887695 1650.208496,1749.964722 1648.696533,1749.930664 
z"/>
<path data-name="Mouanko" style="fill: {#588234}" fill="#588234" opacity="1.000000" stroke="none" 
	d="
M154.481918,1716.266357 
	C149.966080,1712.740479 146.098251,1709.450195 141.829544,1705.818970 
	C155.722687,1703.740234 163.145523,1712.673584 171.303864,1720.077881 
	C173.757050,1722.304199 175.993378,1724.791870 178.162888,1727.303467 
	C181.602737,1731.285767 185.832748,1733.186768 191.096313,1733.862305 
	C208.623505,1736.111816 208.648361,1736.226929 217.913315,1751.424927 
	C226.896027,1766.160278 235.993195,1780.833374 244.574463,1795.800781 
	C247.204025,1800.387207 250.676956,1802.430176 255.457413,1803.280518 
	C271.095886,1806.062622 286.449707,1810.907593 302.645599,1809.638062 
	C304.611664,1809.483887 306.720154,1809.539551 308.593719,1810.081665 
	C318.605652,1812.978638 327.567261,1811.953125 334.843079,1803.709473 
	C335.267273,1803.228882 335.894196,1802.692749 336.479462,1802.622803 
	C351.987305,1800.767578 356.385498,1787.775635 364.052307,1776.233276 
	C374.944305,1777.534302 384.480194,1778.886108 393.836792,1781.022949 
	C401.348816,1782.738525 406.487335,1781.418457 410.219299,1773.964722 
	C413.369171,1767.673462 416.418701,1767.009277 423.559235,1768.956177 
	C428.647736,1770.343506 433.639282,1772.086426 438.835938,1773.721558 
	C441.012665,1771.744141 442.716461,1769.476807 444.986389,1768.346802 
	C447.050110,1767.319458 450.167969,1766.560181 452.039459,1767.408081 
	C455.248199,1768.861694 456.959320,1772.171265 454.980652,1775.767334 
	C453.259796,1778.894775 451.005371,1781.746094 448.832275,1784.601807 
	C447.167725,1786.789307 445.262207,1788.793213 442.705841,1791.757690 
	C446.422150,1793.589600 448.916107,1794.419800 450.930817,1795.901611 
	C454.330688,1798.402344 457.965210,1800.897705 460.506714,1804.167969 
	C463.310822,1807.776489 461.412048,1811.366577 456.831085,1812.032227 
	C453.630157,1812.497559 450.345490,1812.386475 445.925842,1812.585571 
	C446.338135,1816.403687 446.671234,1819.488525 446.883331,1821.452759 
	C444.656860,1825.297485 442.359344,1828.315552 441.089996,1831.717163 
	C439.756927,1835.289429 437.780731,1839.826294 438.910004,1842.905884 
	C443.999146,1856.783936 450.982849,1861.632202 462.436310,1861.033691 
	C464.458954,1857.542725 465.898895,1853.608276 468.554749,1850.840820 
	C471.865814,1847.390747 472.618805,1844.480225 470.315582,1840.247681 
	C469.345612,1838.465332 469.731140,1835.945190 469.500519,1833.760498 
	C471.902771,1833.591675 474.486053,1832.770142 476.673340,1833.376587 
	C483.250854,1835.200317 487.934448,1833.848999 492.207733,1828.041382 
	C495.665009,1823.342773 500.704254,1819.786255 505.171875,1815.871704 
	C506.091034,1815.066284 507.961365,1814.183105 508.756805,1814.587524 
	C514.097534,1817.303711 518.740784,1814.213623 524.076538,1812.263062 
	C525.824280,1818.558228 527.367554,1824.116943 529.118225,1830.422363 
	C534.956665,1830.422363 540.129028,1830.422363 545.077393,1830.422363 
	C547.556702,1842.069336 554.001465,1847.512451 565.207642,1848.237183 
	C577.789001,1849.050903 577.789001,1849.051025 581.525208,1861.314941 
	C586.342163,1862.817139 591.082703,1863.052246 595.511780,1859.644287 
	C600.932556,1855.473145 606.504822,1855.608398 612.235046,1859.073364 
	C613.936035,1860.102173 615.845276,1860.779663 617.609253,1861.712280 
	C626.880737,1866.612671 636.306396,1867.408691 646.534058,1864.446289 
	C659.884277,1860.579346 673.519531,1857.701172 687.009583,1854.307617 
	C689.212524,1853.753296 691.252563,1852.558105 693.452759,1851.984863 
	C695.535583,1851.441772 697.754944,1850.948120 699.870850,1851.088257 
	C709.400208,1851.718994 713.315430,1860.053467 717.180969,1866.398438 
	C719.485718,1870.181641 721.755798,1871.906128 725.779907,1872.793457 
	C724.757141,1874.705200 724.163818,1875.814209 723.530640,1876.997803 
	C725.422852,1878.095459 727.333740,1879.203857 729.880432,1880.681152 
	C727.136047,1882.958984 724.989990,1884.740356 723.016296,1886.378540 
	C728.455322,1889.104126 733.666992,1891.082642 738.172791,1894.111328 
	C746.414795,1899.651489 755.424866,1902.436157 765.140137,1903.430176 
	C770.655090,1903.994507 773.765930,1902.085815 773.747498,1896.665405 
	C773.717590,1887.859253 778.072388,1881.369263 783.725281,1875.647705 
	C788.253296,1871.064697 792.078064,1866.622070 793.360229,1859.906982 
	C794.137207,1855.837891 796.976746,1852.104980 799.147888,1848.371338 
	C804.314880,1839.485840 809.786255,1830.775024 814.843872,1821.829224 
	C818.611572,1815.165039 821.913025,1808.237793 825.441345,1801.437744 
	C834.645996,1783.697388 847.696289,1770.963867 868.534668,1768.389771 
	C868.350830,1769.029053 868.343506,1769.812256 867.957031,1770.286377 
	C860.184814,1779.817871 861.378235,1789.944092 864.678833,1800.949951 
	C871.381165,1823.299805 874.695312,1846.358398 876.706482,1869.574951 
	C876.946289,1872.343140 876.535828,1875.856445 874.987610,1877.970337 
	C868.577759,1886.722534 868.232605,1895.782593 872.541992,1905.256470 
	C874.840454,1910.309326 873.902100,1915.044312 871.956970,1919.746460 
	C869.507080,1925.668945 866.279480,1926.960571 860.063232,1924.855225 
	C859.749146,1924.748779 859.461548,1924.565918 859.149597,1924.451172 
	C847.145813,1920.037598 842.152588,1921.398804 834.555786,1931.237915 
	C831.343384,1935.398193 831.584045,1939.825317 833.794373,1944.738037 
	C837.026794,1945.765869 840.578125,1946.504028 843.779907,1947.993774 
	C850.557373,1951.146973 852.675415,1957.294922 847.430664,1962.433228 
	C840.230347,1969.487427 840.280334,1980.098389 833.464355,1987.186279 
	C832.027039,1988.680786 832.099854,1993.288818 833.324158,1995.381592 
	C837.650269,2002.776489 841.964294,2010.490845 847.850159,2016.565430 
	C852.885071,2021.761597 855.403870,2027.137207 856.214600,2033.960205 
	C856.798645,2038.875366 857.414978,2043.887451 858.933411,2048.558350 
	C860.106567,2052.167480 862.701172,2055.314697 865.155701,2059.507568 
	C861.991089,2059.507568 858.922607,2059.733398 855.896118,2059.472412 
	C829.051025,2057.157715 802.215454,2054.733154 775.369873,2052.424316 
	C773.084229,2052.227783 770.702332,2052.387939 768.440430,2052.797852 
	C748.505310,2056.411133 728.593018,2060.150635 708.657043,2063.759277 
	C706.055115,2064.230225 703.357056,2064.170410 700.897644,2064.343018 
	C694.147705,2072.227295 687.288513,2079.816650 680.929321,2087.804199 
	C676.063416,2093.915771 673.198853,2100.643799 675.335999,2109.025635 
	C677.274292,2116.627686 677.135681,2124.127930 670.253174,2130.086426 
	C668.756958,2131.381592 668.761475,2134.701660 668.563171,2137.129395 
	C668.327759,2140.010498 669.776550,2143.683838 668.469360,2145.701416 
	C664.411743,2151.963867 659.763489,2157.952881 654.641479,2163.385010 
	C649.853455,2168.462646 645.885437,2174.835449 638.114014,2176.417480 
	C637.040771,2176.635986 635.982300,2178.875488 635.626953,2180.350098 
	C633.650818,2188.550781 627.969788,2193.310547 620.768677,2196.592529 
	C613.406250,2199.948242 606.822021,2203.792480 603.119324,2211.709717 
	C601.047607,2216.139648 597.110840,2219.660156 594.334534,2223.804932 
	C588.036255,2233.207764 586.117371,2243.938721 585.728333,2254.973145 
	C585.640381,2257.470215 586.182617,2260.471191 587.562561,2262.456055 
	C593.708374,2271.295898 591.775635,2279.267578 585.808655,2287.113037 
	C585.225708,2287.879395 584.947266,2288.877197 584.355225,2290.133057 
	C588.126038,2295.311523 592.113647,2300.469727 595.747009,2305.866211 
	C599.414001,2311.312988 600.725220,2316.943604 598.687073,2323.797852 
	C596.282776,2331.883301 596.379395,2340.647461 591.084717,2347.936523 
	C588.454529,2351.557617 590.700562,2357.408203 585.590698,2360.919922 
	C575.449097,2349.804688 566.103699,2337.742188 555.880798,2326.476318 
	C531.541443,2299.653564 507.024719,2272.982910 482.126678,2246.679443 
	C461.781982,2225.186279 441.712830,2203.286865 419.823212,2183.440674 
	C395.738739,2161.604492 370.685272,2140.715332 343.078003,2123.132080 
	C325.142426,2111.709229 307.815399,2099.319336 290.394012,2087.108398 
	C286.536865,2084.405029 281.611877,2082.264648 281.852478,2075.792725 
	C281.921387,2073.940186 278.890472,2071.803467 277.017822,2070.083252 
	C273.187866,2066.565674 269.179626,2063.242432 266.082794,2060.563721 
	C271.944580,2041.985596 282.714203,2026.458984 282.660583,2007.984985 
	C282.636353,1999.624878 285.093109,1992.477783 287.976654,1985.334595 
	C290.349792,1979.455566 293.447723,1973.895752 295.734314,1967.868164 
	C297.922791,1962.099243 296.527008,1957.939697 294.016663,1953.240479 
	C292.506256,1950.413086 291.326447,1947.387207 290.226349,1944.367432 
	C288.556152,1939.782471 287.610474,1934.858643 285.427216,1930.549805 
	C279.430084,1918.714355 273.045258,1907.070923 266.639526,1895.447632 
	C252.682251,1870.121826 239.332733,1844.423706 224.400757,1819.682861 
	C208.448639,1793.251953 190.929657,1767.768066 174.161575,1741.827393 
	C168.410355,1732.930176 163.352615,1723.533325 154.481918,1716.266357 
z"/>
<path data-name="Dizangu" style="fill: {#56F056}" fill="#56F056" opacity="1.000000" stroke="none" 
	d="
M868.952271,1768.248047 
	C847.696289,1770.963867 834.645996,1783.697388 825.441345,1801.437744 
	C821.913025,1808.237793 818.611572,1815.165039 814.843872,1821.829224 
	C809.786255,1830.775024 804.314880,1839.485840 799.147888,1848.371338 
	C796.976746,1852.104980 794.137207,1855.837891 793.360229,1859.906982 
	C792.078064,1866.622070 788.253296,1871.064697 783.725281,1875.647705 
	C778.072388,1881.369263 773.717590,1887.859253 773.747498,1896.665405 
	C773.765930,1902.085815 770.655090,1903.994507 765.140137,1903.430176 
	C755.424866,1902.436157 746.414795,1899.651489 738.172791,1894.111328 
	C733.666992,1891.082642 728.455322,1889.104126 723.016296,1886.378540 
	C724.989990,1884.740356 727.136047,1882.958984 729.880432,1880.681152 
	C727.333740,1879.203857 725.422852,1878.095459 723.530640,1876.997803 
	C724.163818,1875.814209 724.757141,1874.705200 725.779907,1872.793457 
	C721.755798,1871.906128 719.485718,1870.181641 717.180969,1866.398438 
	C713.315430,1860.053467 709.400208,1851.718994 699.870850,1851.088257 
	C697.754944,1850.948120 695.535583,1851.441772 693.452759,1851.984863 
	C691.252563,1852.558105 689.212524,1853.753296 687.009583,1854.307617 
	C673.519531,1857.701172 659.884277,1860.579346 646.534058,1864.446289 
	C636.306396,1867.408691 626.880737,1866.612671 617.609253,1861.712280 
	C615.845276,1860.779663 613.936035,1860.102173 612.235046,1859.073364 
	C606.504822,1855.608398 600.932556,1855.473145 595.511780,1859.644287 
	C591.082703,1863.052246 586.342163,1862.817139 581.525208,1861.314941 
	C577.789001,1849.051025 577.789001,1849.050903 565.207642,1848.237183 
	C554.001465,1847.512451 547.556702,1842.069336 545.077393,1830.422363 
	C540.129028,1830.422363 534.956665,1830.422363 529.118225,1830.422363 
	C527.367554,1824.116943 525.824280,1818.558228 524.076538,1812.263062 
	C518.740784,1814.213623 514.097534,1817.303711 508.756805,1814.587524 
	C507.961365,1814.183105 506.091034,1815.066284 505.171875,1815.871704 
	C500.704254,1819.786255 495.665009,1823.342773 492.207733,1828.041382 
	C487.934448,1833.848999 483.250854,1835.200317 476.673340,1833.376587 
	C474.486053,1832.770142 471.902771,1833.591675 469.500519,1833.760498 
	C469.731140,1835.945190 469.345612,1838.465332 470.315582,1840.247681 
	C472.618805,1844.480225 471.865814,1847.390747 468.554749,1850.840820 
	C465.898895,1853.608276 464.458954,1857.542725 462.436310,1861.033691 
	C450.982849,1861.632202 443.999146,1856.783936 438.910004,1842.905884 
	C437.780731,1839.826294 439.756927,1835.289429 441.089996,1831.717163 
	C442.359344,1828.315552 444.656860,1825.297485 446.883331,1821.452759 
	C446.671234,1819.488525 446.338135,1816.403687 445.925842,1812.585571 
	C450.345490,1812.386475 453.630157,1812.497559 456.831085,1812.032227 
	C461.412048,1811.366577 463.310822,1807.776489 460.506714,1804.167969 
	C457.965210,1800.897705 454.330688,1798.402344 450.930817,1795.901611 
	C448.916107,1794.419800 446.422150,1793.589600 442.705841,1791.757690 
	C445.262207,1788.793213 447.167725,1786.789307 448.832275,1784.601807 
	C451.005371,1781.746094 453.259796,1778.894775 454.980652,1775.767334 
	C456.959320,1772.171265 455.248199,1768.861694 452.039459,1767.408081 
	C450.167969,1766.560181 447.050110,1767.319458 444.986389,1768.346802 
	C442.716461,1769.476807 441.012665,1771.744141 438.835938,1773.721558 
	C433.639282,1772.086426 428.647736,1770.343506 423.559235,1768.956177 
	C416.418701,1767.009277 413.369171,1767.673462 410.219299,1773.964722 
	C406.487335,1781.418457 401.348816,1782.738525 393.836792,1781.022949 
	C384.480194,1778.886108 374.944305,1777.534302 364.635254,1775.880859 
	C362.932068,1749.124268 357.912201,1723.300781 345.901978,1699.103760 
	C345.163086,1697.614990 344.716949,1695.899536 343.698578,1694.642944 
	C331.403809,1679.469360 326.776093,1661.005493 321.673431,1642.831665 
	C315.955170,1622.465332 310.822083,1601.934448 305.866394,1583.115845 
	C306.874329,1580.830078 306.942230,1580.472534 307.148865,1580.236328 
	C322.425812,1562.780884 322.428375,1562.211182 346.832642,1562.285278 
	C357.948395,1562.319214 367.971252,1560.114990 377.180817,1554.533447 
	C391.388611,1545.922485 406.988281,1543.671753 423.010376,1544.202637 
	C433.697021,1544.556519 440.609375,1539.880371 445.930695,1531.417603 
	C448.580505,1527.203369 451.073456,1522.831543 454.200256,1518.989014 
	C459.928680,1511.949219 466.618134,1510.814575 474.494629,1515.119629 
	C477.111481,1516.549927 479.863098,1517.987305 481.993591,1520.010620 
	C491.732452,1529.260620 503.906708,1532.158447 516.607239,1533.034058 
	C525.436218,1533.642578 533.627197,1535.630615 541.044434,1540.339844 
	C546.924072,1544.072998 551.837280,1543.164673 557.483093,1539.283325 
	C566.505615,1533.080566 576.273621,1527.907959 581.838928,1517.861328 
	C582.627686,1516.437500 583.096863,1514.836670 584.532532,1512.849365 
	C586.590820,1513.473389 587.807678,1514.593262 589.074097,1515.653809 
	C597.229797,1522.483765 602.887756,1531.992554 614.900879,1534.519165 
	C623.478577,1536.323120 627.161743,1547.348877 624.999634,1556.585205 
	C624.438171,1558.983765 624.814636,1561.656982 625.061951,1564.174316 
	C625.317993,1566.780518 626.548706,1569.413574 626.288513,1571.924683 
	C625.517334,1579.367310 629.003235,1585.106201 632.036194,1590.634644 
	C637.793335,1588.882080 642.695251,1586.844360 647.796570,1585.970459 
	C654.704529,1584.787109 661.934937,1583.244629 668.714722,1584.162598 
	C675.987244,1585.147339 682.333191,1584.405396 688.943970,1581.703003 
	C696.693909,1578.535034 704.139465,1577.151978 712.826355,1580.905029 
	C725.309753,1586.298218 734.796082,1582.293579 742.818237,1571.112305 
	C744.288696,1569.062988 746.305908,1566.753174 748.541931,1566.039062 
	C753.481018,1564.461548 754.172546,1561.072998 754.181824,1556.775024 
	C754.187073,1554.304443 754.658081,1551.834839 755.031860,1548.301636 
	C782.819580,1552.114136 809.753906,1555.767700 836.671265,1559.543213 
	C841.255615,1560.186157 845.766907,1561.349854 850.559143,1562.911621 
	C851.057861,1572.836426 850.269348,1581.412598 839.239258,1584.757446 
	C837.888611,1585.166992 836.356812,1588.612671 836.680847,1590.313843 
	C838.574341,1600.254517 840.202637,1610.374634 843.551636,1619.858154 
	C845.411194,1625.124023 846.295776,1629.787842 845.550537,1635.177368 
	C845.234070,1637.466553 846.005188,1640.090210 846.894836,1642.317017 
	C848.117859,1645.377808 850.279358,1648.073730 851.421936,1651.154907 
	C860.867065,1676.623657 870.481445,1702.038940 879.241699,1727.744141 
	C880.915649,1732.655762 879.788513,1738.931396 878.639587,1744.296387 
	C877.060974,1751.668213 874.229492,1758.771606 871.934814,1765.990112 
	C871.934814,1765.990112 872.006775,1766.012695 871.542053,1766.062744 
	C870.502197,1766.475220 870.189148,1766.995361 870.138245,1767.673096 
	C870.138245,1767.673096 869.369934,1768.106445 868.952271,1768.248047 
z"/>
<path data-name="Edea II" style="fill: {#B0F9A2}" fill="#B0F9A2" opacity="1.000000" stroke="none" 
	d="
M872.708862,1766.049805 
	C874.229492,1758.771606 877.060974,1751.668213 878.639587,1744.296387 
	C879.788513,1738.931396 880.915649,1732.655762 879.241699,1727.744141 
	C870.481445,1702.038940 860.867065,1676.623657 851.421936,1651.154907 
	C850.279358,1648.073730 848.117859,1645.377808 846.894836,1642.317017 
	C846.005188,1640.090210 845.234070,1637.466553 845.550537,1635.177368 
	C846.295776,1629.787842 845.411194,1625.124023 843.551636,1619.858154 
	C840.202637,1610.374634 838.574341,1600.254517 836.680847,1590.313843 
	C836.356812,1588.612671 837.888611,1585.166992 839.239258,1584.757446 
	C850.269348,1581.412598 851.057861,1572.836426 851.426453,1562.822876 
	C876.320190,1561.410278 900.591797,1560.277710 924.867798,1560.175171 
	C945.816345,1560.086914 966.768555,1561.235840 987.722473,1561.673096 
	C991.330444,1561.748413 995.066162,1561.438721 998.553101,1560.556763 
	C1012.081726,1557.134399 1025.559448,1553.500977 1038.993286,1549.722168 
	C1041.801392,1548.932129 1044.751953,1547.672119 1046.940796,1545.810425 
	C1066.454590,1529.213135 1085.889282,1512.520020 1105.138794,1495.617432 
	C1108.293945,1492.846802 1111.097290,1489.237061 1112.913940,1485.462036 
	C1118.393921,1474.073975 1123.416016,1462.459351 1128.377930,1450.831299 
	C1129.925537,1447.204834 1131.384766,1443.313477 1131.725098,1439.441528 
	C1132.800903,1427.198853 1133.122314,1414.890869 1134.137817,1402.641602 
	C1134.848999,1394.063721 1135.905396,1385.486572 1137.369019,1377.005981 
	C1139.400513,1365.235474 1141.958618,1353.555908 1144.291260,1341.837402 
	C1146.298950,1338.266602 1149.117065,1334.904785 1150.105591,1331.071167 
	C1151.291992,1326.470337 1150.919189,1321.467407 1151.282104,1315.672607 
	C1155.348999,1318.606201 1158.940063,1321.196533 1162.791626,1323.974731 
	C1167.047607,1318.151978 1158.354248,1310.043091 1167.958740,1305.844238 
	C1173.051025,1308.252563 1178.691895,1310.920410 1184.461304,1313.649170 
	C1186.099487,1310.730103 1188.439209,1306.560913 1191.341553,1301.389160 
	C1194.082275,1307.205200 1196.378784,1312.078735 1198.810425,1317.238892 
	C1202.274780,1316.876709 1205.637939,1316.525269 1210.196777,1316.048706 
	C1209.888794,1303.293579 1223.302368,1299.764282 1230.245972,1290.997437 
	C1237.692017,1281.596191 1247.064575,1274.420166 1257.418457,1268.267700 
	C1262.357910,1265.332764 1266.213867,1260.574219 1270.620850,1256.587158 
	C1267.463623,1252.356689 1264.979126,1249.012207 1262.478760,1245.679688 
	C1253.984131,1234.358032 1255.540771,1221.493896 1256.821655,1208.682861 
	C1256.985107,1207.048828 1257.786743,1205.404419 1257.640991,1203.825073 
	C1256.101807,1187.154907 1265.531860,1177.266479 1278.633545,1169.664673 
	C1281.550537,1167.972046 1283.844849,1166.306152 1284.908081,1162.620361 
	C1288.245728,1151.050781 1294.903442,1141.362793 1304.463379,1132.402344 
	C1313.087402,1135.551636 1320.253174,1140.103271 1328.079468,1142.484253 
	C1340.891968,1146.382080 1351.760254,1152.376099 1358.997192,1164.264404 
	C1361.876465,1162.839600 1364.497803,1160.395386 1366.951172,1160.553833 
	C1373.116943,1160.951660 1379.193970,1162.603638 1385.330444,1163.607544 
	C1392.668945,1164.807983 1398.723267,1171.308472 1407.112305,1168.683594 
	C1408.223389,1168.335693 1410.069092,1171.065552 1411.808228,1171.855347 
	C1416.883667,1174.160278 1421.904053,1177.053467 1427.266113,1178.148193 
	C1435.003906,1179.727905 1435.124023,1179.139404 1436.117188,1187.801025 
	C1436.742676,1198.385010 1429.915405,1206.490112 1426.806519,1215.831909 
	C1425.276367,1220.429932 1423.015259,1224.992676 1422.598511,1229.705078 
	C1421.934082,1237.215576 1419.246216,1243.097534 1413.001587,1247.285034 
	C1407.803345,1250.770996 1405.282349,1255.505493 1406.967773,1261.677368 
	C1407.973145,1265.358765 1406.992188,1268.074097 1404.766968,1270.856201 
	C1401.657715,1274.743408 1398.976685,1278.984741 1395.743286,1282.758179 
	C1391.029297,1288.259399 1387.833496,1294.421021 1387.887451,1301.659424 
	C1387.917847,1305.721558 1387.133301,1308.955811 1383.518066,1310.726440 
	C1374.851685,1314.970947 1372.517090,1321.402466 1376.249023,1330.962280 
	C1370.072144,1340.078247 1363.793823,1348.429077 1357.188477,1357.455688 
	C1354.691162,1361.347656 1352.056763,1364.346436 1350.431152,1367.817505 
	C1343.348145,1382.941284 1335.594604,1397.561890 1323.638184,1409.571167 
	C1321.845093,1411.372070 1320.600952,1413.936157 1319.692627,1416.367554 
	C1312.310425,1436.130371 1301.003662,1453.823364 1290.706665,1472.064575 
	C1280.249634,1490.589233 1270.182617,1509.333740 1259.890747,1527.952148 
	C1258.287231,1530.852905 1256.401855,1533.598389 1254.638550,1536.410522 
	C1246.869873,1548.800293 1239.377563,1561.375366 1231.241333,1573.518921 
	C1224.406494,1583.720215 1216.816650,1593.415527 1209.568604,1603.340576 
	C1207.999146,1605.489746 1206.308838,1607.570190 1204.939331,1609.842041 
	C1201.182983,1616.073608 1196.400513,1619.124634 1188.662842,1620.878174 
	C1176.930420,1623.536865 1165.233032,1628.625854 1158.210327,1639.766357 
	C1155.369263,1644.273315 1151.297729,1646.033203 1146.521240,1646.059204 
	C1140.374146,1646.092773 1136.867554,1649.100952 1134.029663,1654.229248 
	C1129.623657,1662.191772 1125.720459,1663.715210 1116.981812,1661.832031 
	C1114.725830,1661.345947 1112.562500,1660.172607 1110.304932,1660.002808 
	C1105.231567,1659.621582 1102.503540,1662.853882 1103.033447,1668.073853 
	C1103.567505,1673.332764 1104.068848,1678.595093 1104.584473,1683.855835 
	C1103.638672,1683.154297 1102.692749,1682.452759 1101.746826,1681.751221 
	C1098.480591,1685.304199 1095.214355,1688.857178 1091.948242,1692.410034 
	C1089.712280,1694.275269 1088.885986,1691.659668 1088.163208,1688.529663 
	C1087.373657,1685.110840 1086.064575,1681.812012 1084.279297,1678.054565 
	C1081.764160,1677.383545 1079.957397,1676.987427 1078.136963,1676.908447 
	C1077.190918,1676.867310 1076.068359,1677.845337 1075.283813,1677.584839 
	C1059.623291,1672.383545 1053.041748,1685.308960 1043.612427,1693.708862 
	C1042.654785,1692.168701 1041.844360,1690.865356 1040.699463,1689.023926 
	C1038.553711,1691.065063 1036.496582,1693.022095 1034.395630,1695.020630 
	C1033.879639,1694.928345 1032.927490,1695.032959 1032.700195,1694.675903 
	C1029.553467,1689.733765 1026.161133,1686.879272 1019.550049,1689.578735 
	C1015.067688,1691.408936 1012.934631,1688.858765 1012.001526,1683.289062 
	C1011.244751,1678.772339 1010.026245,1674.334839 1009.105408,1669.843140 
	C1007.359497,1661.327148 999.010071,1657.795044 994.834717,1651.005615 
	C992.850708,1647.779419 980.043152,1649.479736 977.541687,1653.015869 
	C972.580688,1660.028809 967.567200,1667.110718 963.614075,1674.704834 
	C958.125183,1685.249023 951.286438,1695.571411 950.336731,1707.708008 
	C949.899353,1713.296631 947.715942,1716.951172 944.450195,1720.786255 
	C940.727783,1725.157715 936.828735,1728.609619 930.570190,1728.991943 
	C926.202698,1729.258789 922.741028,1731.688599 920.017395,1735.615845 
	C908.658203,1751.994507 891.716125,1760.090332 872.708862,1766.049805 
z"/>
<path data-name="Edea II" style="fill: {#B0F9A2}" fill="#B0F9A2" opacity="1.000000" stroke="none" 
	d="
M870.594849,1767.569336 
	C870.189148,1766.995361 870.502197,1766.475220 871.541870,1766.025024 
	C871.991394,1766.636475 871.673096,1767.145874 870.594849,1767.569336 
z"/>
<path data-name="Ngambe" style="fill: {#464D80}" fill="#464D80" opacity="1.000000" stroke="none" 
	d="
M1436.979736,1187.856689 
	C1435.124023,1179.139404 1435.003906,1179.727905 1427.266113,1178.148193 
	C1421.904053,1177.053467 1416.883667,1174.160278 1411.808228,1171.855347 
	C1410.069092,1171.065552 1408.223389,1168.335693 1407.112305,1168.683594 
	C1398.723267,1171.308472 1392.668945,1164.807983 1385.330444,1163.607544 
	C1379.193970,1162.603638 1373.116943,1160.951660 1366.951172,1160.553833 
	C1364.497803,1160.395386 1361.876465,1162.839600 1358.997192,1164.264404 
	C1351.760254,1152.376099 1340.891968,1146.382080 1328.079468,1142.484253 
	C1320.253174,1140.103271 1313.087402,1135.551636 1304.906006,1131.874512 
	C1313.130005,1118.268799 1318.698486,1103.104614 1325.565796,1088.574219 
	C1326.621582,1086.340332 1328.610352,1083.991821 1330.772339,1082.944458 
	C1336.472778,1080.182617 1339.177490,1075.182129 1340.699219,1069.802856 
	C1343.567139,1059.664795 1345.594238,1049.289551 1347.998657,1039.019287 
	C1349.192749,1033.918335 1350.144287,1028.734009 1351.743774,1023.760498 
	C1354.457031,1015.323608 1357.777588,1007.082153 1360.493408,998.646057 
	C1362.298828,993.038025 1364.892334,988.461609 1370.317505,985.469116 
	C1373.313477,983.816650 1375.634644,980.940857 1378.320557,978.562805 
	C1381.958984,982.008606 1378.386353,984.951050 1378.449341,987.929932 
	C1378.528809,991.690796 1376.358643,996.238220 1380.863892,998.816101 
	C1383.566284,1000.362366 1387.153931,996.706848 1389.244141,990.634827 
	C1389.567505,989.695679 1389.778320,988.714905 1389.999878,987.744019 
	C1393.274414,973.390137 1401.942139,967.074463 1416.191162,963.689941 
	C1431.384033,960.081238 1444.833130,965.360535 1458.817749,968.363098 
	C1465.321411,969.759399 1481.168701,967.435303 1489.882812,962.183533 
	C1488.051147,950.183044 1486.022583,937.845825 1484.335205,925.462158 
	C1483.397705,918.581787 1482.884644,912.073853 1488.068726,905.713196 
	C1491.637207,901.334778 1492.635254,894.861389 1494.893799,889.036194 
	C1500.066650,889.372192 1505.206787,889.706055 1510.480225,890.048584 
	C1512.167847,885.801331 1513.610474,882.170532 1515.154053,878.285889 
	C1521.014771,878.285889 1526.527832,878.105774 1532.017090,878.387695 
	C1533.838013,878.481201 1535.962158,879.355957 1537.321411,880.572937 
	C1542.578369,885.279419 1548.169922,886.465332 1554.791626,883.714050 
	C1558.298584,882.256836 1561.872559,882.346924 1564.936035,885.369629 
	C1572.821167,893.149658 1581.470825,889.895874 1589.995605,886.808105 
	C1592.440063,885.922607 1594.597534,884.242920 1597.043213,883.363220 
	C1604.589111,880.648926 1610.557129,876.223755 1613.716187,868.639648 
	C1617.366089,859.877502 1625.519287,855.390442 1631.997437,849.345703 
	C1635.460693,846.114319 1639.366821,848.136230 1643.266235,849.221680 
	C1650.824585,851.325623 1653.897949,849.041565 1655.199707,840.620667 
	C1650.808838,839.899292 1646.411987,839.176941 1642.092163,838.467285 
	C1641.118408,833.840332 1642.738281,831.656616 1646.415161,830.239319 
	C1650.053833,828.836731 1653.481812,826.886169 1656.999756,825.170898 
	C1658.740845,824.321960 1660.632935,822.503662 1662.189575,822.758179 
	C1674.604248,824.787109 1679.585571,813.490234 1687.936279,808.406372 
	C1689.721558,807.319519 1689.737915,803.010010 1690.186768,800.125610 
	C1690.747681,796.520081 1690.884521,792.833923 1696.698120,791.587158 
	C1697.251831,794.231567 1698.101685,796.579468 1698.164429,798.948242 
	C1698.292480,803.787842 1701.481445,805.539551 1705.303101,805.470520 
	C1708.913696,805.405396 1711.302368,802.696594 1711.642700,798.929871 
	C1711.911377,795.954651 1711.752563,792.940796 1711.785156,789.944153 
	C1711.799683,788.612122 1711.338013,787.011536 1711.909424,785.989685 
	C1717.328003,776.302856 1714.696289,765.418091 1716.527222,754.036865 
	C1720.566772,754.036865 1724.496704,754.325256 1728.367920,753.971130 
	C1734.605469,753.400513 1740.858765,752.688538 1747.002563,751.502991 
	C1752.122803,750.515015 1754.842041,751.419250 1755.560059,756.454468 
	C1756.586426,763.652710 1761.036743,771.182312 1754.160645,778.094116 
	C1753.403687,778.855164 1754.004028,782.535828 1755.081299,783.297424 
	C1761.997681,788.187378 1767.765015,795.364319 1777.954590,795.525208 
	C1784.590698,796.734802 1784.291748,801.192566 1783.901245,805.663818 
	C1783.329468,812.213501 1782.943970,818.791382 1782.030640,825.294250 
	C1781.544434,828.755615 1780.114868,832.084473 1779.127441,835.417847 
	C1783.602295,849.232056 1788.018677,863.457825 1792.868652,877.534180 
	C1794.702393,882.856384 1793.552490,886.379211 1788.955078,889.424072 
	C1785.930786,891.427002 1783.514648,894.345825 1780.496948,896.361755 
	C1775.176758,899.915894 1772.502808,904.074463 1774.996338,910.666077 
	C1775.595459,912.249695 1775.316772,914.825623 1774.365845,916.201782 
	C1772.200806,919.334473 1772.273438,922.032959 1773.597046,925.498840 
	C1776.178833,932.259277 1775.600830,933.114746 1769.040161,935.665344 
	C1767.826050,936.137329 1766.537231,936.416931 1764.506348,937.013489 
	C1764.506348,939.540466 1763.520752,942.715637 1764.681274,944.475525 
	C1769.101685,951.178772 1768.399292,957.528931 1763.937988,964.341248 
	C1774.435913,967.439270 1779.314575,973.701721 1777.878784,984.276367 
	C1777.133179,989.766296 1781.135864,993.073120 1785.068237,995.319946 
	C1789.361694,997.773071 1790.054199,1001.113037 1789.971191,1005.286804 
	C1789.925049,1007.604858 1790.457642,1010.046387 1789.904907,1012.222778 
	C1787.713135,1020.854065 1789.943359,1027.746460 1797.505371,1032.531128 
	C1796.559570,1034.428223 1795.839966,1035.871338 1795.134033,1037.287354 
	C1803.277344,1045.465820 1802.216309,1042.988525 1798.529175,1052.883667 
	C1804.692871,1055.968872 1806.103149,1062.075806 1807.166992,1068.369141 
	C1807.331543,1069.342041 1808.114868,1070.754150 1807.730957,1071.194336 
	C1802.176514,1077.559814 1804.305664,1084.912720 1804.882935,1092.051147 
	C1805.059814,1094.239380 1804.692627,1097.252197 1805.945435,1098.434570 
	C1810.782471,1102.999390 1810.103882,1108.648682 1810.137451,1114.270996 
	C1810.165161,1118.928101 1810.226807,1123.584839 1810.238037,1129.186768 
	C1803.933838,1139.103516 1798.359619,1148.676270 1791.235840,1156.908325 
	C1780.190674,1169.672119 1768.797119,1182.312744 1756.247437,1193.549072 
	C1742.071411,1206.241577 1724.437988,1211.876831 1705.474487,1214.069824 
	C1690.908569,1215.754150 1676.501587,1217.327637 1661.991943,1214.172241 
	C1661.351807,1214.033325 1660.666016,1214.100464 1660.001343,1214.079468 
	C1638.446777,1213.399292 1616.877686,1213.013550 1595.342773,1211.939453 
	C1580.488037,1211.198486 1565.698242,1209.205933 1550.846313,1208.340088 
	C1540.570679,1207.740967 1530.226685,1207.779663 1519.936401,1208.159668 
	C1513.017090,1208.415161 1506.774658,1207.096924 1500.954590,1203.488281 
	C1486.442505,1194.490112 1470.078735,1191.986816 1453.578369,1189.945557 
	C1448.329468,1189.296143 1443.087402,1188.591553 1436.979736,1187.856689 
z"/>
<path data-name="Dibamba" style="fill: {#F1AF5C}" fill="#F1AF5C" opacity="1.000000" stroke="none" 
	d="
M1144.159302,1341.118652 
	C1141.958618,1353.555908 1139.400513,1365.235474 1137.369019,1377.005981 
	C1135.905396,1385.486572 1134.848999,1394.063721 1134.137817,1402.641602 
	C1133.122314,1414.890869 1132.800903,1427.198853 1131.725098,1439.441528 
	C1131.384766,1443.313477 1129.925537,1447.204834 1128.377930,1450.831299 
	C1123.416016,1462.459351 1118.393921,1474.073975 1112.913940,1485.462036 
	C1111.097290,1489.237061 1108.293945,1492.846802 1105.138794,1495.617432 
	C1085.889282,1512.520020 1066.454590,1529.213135 1046.940796,1545.810425 
	C1044.751953,1547.672119 1041.801392,1548.932129 1038.993286,1549.722168 
	C1025.559448,1553.500977 1012.081726,1557.134399 998.553101,1560.556763 
	C995.066162,1561.438721 991.330444,1561.748413 987.722473,1561.673096 
	C966.768555,1561.235840 945.816345,1560.086914 924.867798,1560.175171 
	C900.591797,1560.277710 876.320190,1561.410278 851.179321,1562.184326 
	C845.766907,1561.349854 841.255615,1560.186157 836.671265,1559.543213 
	C809.753906,1555.767700 782.819580,1552.114136 755.031860,1548.301636 
	C754.658081,1551.834839 754.187073,1554.304443 754.181824,1556.775024 
	C754.172546,1561.072998 753.481018,1564.461548 748.541931,1566.039062 
	C746.305908,1566.753174 744.288696,1569.062988 742.818237,1571.112305 
	C734.796082,1582.293579 725.309753,1586.298218 712.826355,1580.905029 
	C704.139465,1577.151978 696.693909,1578.535034 688.943970,1581.703003 
	C682.333191,1584.405396 675.987244,1585.147339 668.714722,1584.162598 
	C661.934937,1583.244629 654.704529,1584.787109 647.796570,1585.970459 
	C642.695251,1586.844360 637.793335,1588.882080 632.036194,1590.634644 
	C629.003235,1585.106201 625.517334,1579.367310 626.288513,1571.924683 
	C626.548706,1569.413574 625.317993,1566.780518 625.061951,1564.174316 
	C624.814636,1561.656982 624.438171,1558.983765 624.999634,1556.585205 
	C627.161743,1547.348877 623.478577,1536.323120 614.900879,1534.519165 
	C602.887756,1531.992554 597.229797,1522.483765 589.074097,1515.653809 
	C587.807678,1514.593262 586.590820,1513.473389 584.710388,1512.154541 
	C584.069641,1505.615601 584.125732,1499.302612 584.050903,1492.991089 
	C583.995850,1488.341187 584.047424,1483.663208 583.551086,1479.051758 
	C582.896301,1472.967041 579.782104,1468.772095 573.634094,1466.677734 
	C557.167480,1461.068481 557.734436,1463.320068 557.592590,1443.402222 
	C557.547974,1437.130493 556.509399,1430.870972 556.064026,1424.595947 
	C555.673767,1419.095581 552.121094,1416.528564 547.515259,1414.688965 
	C542.890564,1412.841797 538.312622,1410.872192 533.758362,1408.856567 
	C531.347839,1407.789673 529.031250,1406.510498 526.546082,1405.263794 
	C524.678101,1398.010742 527.528870,1393.097656 533.506775,1389.302856 
	C539.965332,1385.203003 546.273560,1380.863159 552.595520,1376.552124 
	C562.143188,1370.041626 572.454346,1366.114136 584.209106,1366.026611 
	C586.868713,1366.006836 589.749146,1364.497925 592.105713,1363.007080 
	C594.882263,1361.250244 597.541992,1359.053833 599.643127,1356.539062 
	C603.702576,1351.680420 608.771667,1350.264893 614.677185,1351.226685 
	C622.049072,1352.427124 628.476379,1350.435547 634.381836,1346.099487 
	C636.255310,1344.723633 638.257385,1343.493286 640.304138,1342.387939 
	C649.016052,1337.682739 650.381836,1337.903931 657.616455,1344.865356 
	C665.840332,1352.778564 670.796936,1353.440186 680.598572,1347.911255 
	C682.048645,1347.093506 683.455505,1346.199341 684.899414,1345.370361 
	C695.521667,1339.272095 696.925903,1339.442627 705.507568,1347.837891 
	C715.152771,1357.273560 720.117676,1357.700684 731.695251,1350.087891 
	C736.144409,1347.162354 740.561035,1344.186401 745.045166,1341.315796 
	C754.644165,1335.170776 761.946594,1335.806885 770.166016,1343.423706 
	C775.964050,1348.796631 776.058960,1348.971802 783.545837,1344.910889 
	C788.916443,1341.998291 794.135925,1341.309082 799.639648,1344.165283 
	C805.954224,1347.442261 812.236267,1349.969360 819.459167,1346.381470 
	C820.751099,1345.739868 823.062988,1347.151855 825.016418,1347.644043 
	C826.658325,1344.822754 828.137756,1342.280762 830.269226,1338.618408 
	C838.609863,1343.871460 850.259216,1342.158203 854.873474,1353.923828 
	C858.710876,1352.500000 861.985474,1351.285034 865.676392,1349.915649 
	C863.204346,1344.963257 854.639343,1345.197998 856.889038,1338.889526 
	C858.301025,1334.930176 862.387146,1331.924438 866.303162,1327.266113 
	C865.500793,1325.086182 864.186768,1321.516357 862.634399,1317.298950 
	C864.596252,1311.527832 869.039734,1308.017944 876.188293,1307.649048 
	C882.492065,1307.323608 886.749817,1304.186035 887.181213,1298.033936 
	C894.869202,1295.071289 902.151978,1292.812622 908.920349,1289.502075 
	C915.641907,1286.214478 921.000061,1289.956421 926.869385,1291.491577 
	C931.242310,1292.635498 935.627502,1293.732666 939.635559,1294.755859 
	C945.437927,1285.535034 945.287109,1286.874634 955.964783,1288.076660 
	C967.552368,1289.381104 973.195557,1297.879272 980.622192,1304.304565 
	C982.418335,1305.858521 982.216797,1309.721436 983.176086,1313.468750 
	C990.319580,1313.468750 997.803406,1313.547119 1005.284912,1313.450562 
	C1016.837341,1313.301514 1028.486816,1312.028198 1039.417114,1317.440674 
	C1040.815796,1318.133301 1043.251831,1318.702515 1044.218750,1317.989136 
	C1053.153076,1311.396240 1062.678833,1317.452271 1071.854492,1316.494629 
	C1078.680176,1315.782104 1080.342407,1315.138672 1083.103394,1307.707153 
	C1083.930908,1307.643188 1084.997925,1307.234253 1085.769165,1307.549316 
	C1099.048096,1312.973511 1112.347046,1318.310791 1126.225220,1322.089844 
	C1129.212891,1322.903320 1132.775391,1323.259033 1132.210815,1328.394287 
	C1132.043823,1329.914062 1135.425293,1332.590820 1137.670044,1333.433105 
	C1141.228760,1334.768311 1143.124390,1336.965454 1144.159302,1341.118652 
z"/>
</svg>