<svg version="1.1" id="Layer_1" xmlns="http://www.w3.org/2000/svg" xmlns:xlink="http://www.w3.org/1999/xlink" x="0px" y="0px"
	 width="100%" viewBox="0 0 2315 2479" enable-background="new 0 0 2315 2479" xml:space="preserve">


<path data-name="Dzeng" style="fill: {#5A80D0}" fill="#5A80D0" opacity="1.000000" stroke="none" 
	d="
M2318.000000,1201.100098 
	C2316.071533,1202.227051 2313.567871,1203.345337 2312.309570,1202.533447 
	C2305.287109,1198.002197 2298.485352,1200.995361 2292.288574,1203.506592 
	C2284.723877,1206.572144 2276.913330,1209.975342 2272.423828,1217.735840 
	C2270.933838,1220.311523 2268.932861,1222.586914 2267.235596,1225.048096 
	C2264.402344,1229.156128 2261.137695,1233.064819 2258.968262,1237.503906 
	C2256.968506,1241.595581 2256.170410,1246.274536 2255.062988,1249.962402 
	C2242.989502,1253.787354 2231.343262,1257.330811 2219.811768,1261.215698 
	C2216.157959,1262.446777 2213.377686,1261.572876 2210.540039,1259.493896 
	C2207.731934,1257.436768 2205.399658,1257.814819 2202.593262,1260.176514 
	C2196.307861,1265.465576 2189.621582,1270.277710 2182.404785,1275.816650 
	C2182.404785,1276.529663 2183.088867,1278.848755 2182.292480,1280.415405 
	C2177.550049,1289.745483 2182.036377,1296.751953 2187.316650,1303.936401 
	C2191.830078,1310.078003 2195.413818,1316.919189 2200.096191,1322.913818 
	C2202.551514,1326.057373 2202.637695,1328.859741 2201.728760,1332.130615 
	C2199.481934,1340.215088 2196.110596,1347.755249 2190.315918,1353.981323 
	C2185.881592,1358.746094 2183.268311,1364.267212 2182.497559,1370.755859 
	C2182.229736,1373.011108 2181.890137,1375.626953 2180.595703,1377.325439 
	C2175.633057,1383.836792 2172.651611,1390.954468 2172.108154,1399.147827 
	C2172.029785,1400.329102 2171.034180,1401.479614 2170.367188,1402.586792 
	C2167.323975,1407.637939 2163.293945,1412.332520 2161.374756,1417.774536 
	C2157.072754,1429.972900 2148.457764,1438.604614 2139.214355,1446.704102 
	C2119.383301,1464.080688 2118.338379,1465.947632 2118.313232,1492.510864 
	C2118.299805,1506.628540 2118.299561,1506.628540 2111.638428,1513.275513 
	C2105.396484,1514.672607 2100.612061,1515.372803 2096.074951,1516.838257 
	C2087.429932,1519.630493 2076.175049,1515.570312 2071.880615,1507.702393 
	C2068.189697,1500.940430 2070.118896,1496.905396 2077.461426,1496.030396 
	C2085.719238,1495.046143 2089.288574,1491.803955 2090.076660,1483.524414 
	C2090.579590,1478.242676 2090.579102,1472.847046 2090.134521,1467.558716 
	C2089.641602,1461.696289 2087.594727,1456.651489 2080.805664,1455.075073 
	C2078.279053,1454.488525 2075.795166,1453.124634 2073.644287,1451.613525 
	C2064.200439,1444.978149 2053.614502,1445.563232 2042.943970,1446.376099 
	C2035.333984,1446.955811 2027.686890,1447.202271 2020.114990,1448.094849 
	C2008.151733,1449.505127 1998.941040,1444.183838 1990.277100,1436.936646 
	C1983.062134,1430.901611 1978.610718,1429.927856 1971.707886,1435.007690 
	C1965.695801,1439.432251 1959.844849,1441.741821 1952.517212,1440.324951 
	C1951.744141,1440.175415 1950.765381,1441.088013 1949.541382,1441.669800 
	C1948.841797,1446.209351 1955.001587,1450.136353 1950.529541,1455.424316 
	C1948.100830,1458.296143 1946.579590,1461.517334 1942.341797,1461.498047 
	C1937.996704,1461.478271 1934.965820,1463.599731 1932.164551,1466.720459 
	C1930.698120,1468.354126 1928.542969,1469.647095 1926.449097,1470.395142 
	C1912.398926,1475.414307 1908.351929,1487.785278 1904.373047,1500.174683 
	C1903.572266,1502.667969 1903.932617,1505.584595 1902.922607,1507.949341 
	C1901.090698,1512.238892 1902.144653,1515.594971 1904.858643,1518.981323 
	C1907.375366,1522.121460 1909.766235,1525.438721 1907.219238,1530.686035 
	C1894.363770,1530.222900 1883.476562,1535.463989 1874.773682,1547.211670 
	C1873.500000,1544.630249 1872.049927,1543.084717 1872.150757,1541.648071 
	C1872.534302,1536.179688 1874.523560,1530.598511 1873.819092,1525.340088 
	C1873.045288,1519.564087 1869.967896,1514.095337 1867.884155,1508.496460 
	C1866.518433,1504.826904 1864.777344,1501.249878 1863.867920,1497.471680 
	C1863.072021,1494.164429 1861.650269,1492.028687 1858.273315,1491.357788 
	C1850.576294,1489.828857 1842.880981,1488.290649 1834.882446,1486.695923 
	C1832.532715,1490.208740 1835.764648,1493.295044 1836.220825,1496.680664 
	C1836.691528,1500.175415 1837.187134,1503.775024 1836.840210,1507.245605 
	C1836.352783,1512.123413 1834.218140,1516.951660 1834.367065,1521.752075 
	C1834.622314,1529.970947 1831.044434,1536.314209 1825.746460,1542.833374 
	C1822.029907,1539.873535 1819.500854,1536.264771 1816.271118,1533.463745 
	C1808.944214,1527.109375 1807.290649,1519.200928 1808.296509,1510.039062 
	C1808.675293,1506.588379 1808.339111,1502.869263 1807.433105,1499.514404 
	C1806.254761,1495.150635 1804.183838,1491.027954 1802.521606,1486.862793 
	C1796.417358,1487.229614 1793.531250,1489.528198 1791.226440,1495.775391 
	C1788.097656,1504.255249 1781.889771,1511.609375 1776.864746,1519.357056 
	C1776.519531,1519.889038 1775.026489,1519.676392 1774.620239,1519.732910 
	C1767.200073,1512.954834 1760.249390,1506.388672 1753.007568,1500.160889 
	C1751.433472,1498.807007 1748.721802,1497.868774 1746.697388,1498.110229 
	C1739.650391,1498.950073 1732.609619,1498.963379 1726.986938,1505.336914 
	C1720.740479,1512.417480 1713.340210,1511.489624 1707.917114,1503.609375 
	C1704.285278,1498.332031 1699.635254,1496.927368 1694.144531,1498.109863 
	C1690.044067,1498.992920 1685.968994,1500.737793 1682.332397,1502.867065 
	C1675.827271,1506.676147 1669.719116,1511.157715 1663.304810,1515.131958 
	C1662.017090,1515.929565 1660.046875,1516.123657 1658.487305,1515.906494 
	C1645.087769,1514.041504 1633.920044,1519.917480 1622.498291,1525.562988 
	C1616.348389,1528.603027 1609.675415,1530.840332 1603.005615,1532.509766 
	C1594.519287,1534.633545 1588.801758,1531.227661 1585.996704,1523.236328 
	C1583.574585,1516.336304 1581.120239,1509.423828 1579.214233,1502.372559 
	C1577.001343,1494.185425 1573.571655,1486.176636 1575.786987,1477.227783 
	C1577.062866,1472.074097 1574.245239,1468.286987 1569.902954,1464.933838 
	C1570.088745,1456.073853 1570.172852,1448.038452 1574.435303,1440.880005 
	C1578.021973,1434.856201 1580.044312,1428.383911 1582.134155,1421.699585 
	C1584.976929,1412.607300 1589.932373,1404.149292 1594.295166,1395.578857 
	C1595.258789,1393.685913 1597.433838,1392.330688 1599.222534,1390.950195 
	C1607.636841,1384.456665 1616.208008,1378.162720 1624.527832,1371.551758 
	C1629.717163,1367.428223 1634.584717,1363.213745 1641.537231,1361.919678 
	C1644.369019,1361.392334 1647.935059,1358.993164 1649.128174,1356.478394 
	C1654.546143,1345.059082 1664.367798,1341.727661 1675.686646,1339.854858 
	C1680.418457,1339.071899 1685.405640,1337.252319 1689.300049,1334.514771 
	C1697.964844,1328.423462 1706.024170,1321.469727 1714.306396,1314.837524 
	C1716.376587,1313.179810 1719.039551,1311.792969 1720.259033,1309.623413 
	C1725.693604,1299.954834 1734.933350,1294.179199 1743.203857,1287.753296 
	C1749.362427,1282.968506 1752.179565,1277.244507 1753.692505,1270.385498 
	C1755.819214,1260.745117 1750.457520,1253.334961 1740.533081,1252.107544 
	C1735.267822,1251.456177 1729.910889,1251.224731 1724.603516,1251.308838 
	C1716.369629,1251.439331 1708.856445,1249.495117 1701.922852,1245.036621 
	C1693.266602,1239.470459 1684.307617,1234.345581 1675.902222,1228.429443 
	C1670.280029,1224.472168 1664.287476,1221.336304 1658.464355,1217.883179 
	C1648.437988,1211.937256 1640.791260,1203.040405 1638.622192,1190.501709 
	C1637.198853,1182.273682 1632.154175,1177.039185 1623.308105,1176.015747 
	C1618.700317,1175.482666 1614.074097,1174.626343 1609.621094,1173.344116 
	C1601.849487,1171.106201 1599.977783,1165.086304 1605.191040,1159.070923 
	C1607.768066,1156.097412 1610.890991,1153.539307 1614.010010,1151.104736 
	C1621.481323,1145.273193 1626.302368,1138.266846 1625.741333,1128.270630 
	C1625.442993,1122.955078 1625.506836,1117.599609 1625.754272,1112.278198 
	C1626.006226,1106.859863 1629.376343,1103.486206 1634.532593,1101.964966 
	C1637.938721,1100.960205 1641.360840,1099.585571 1644.361206,1097.712646 
	C1651.646118,1093.165039 1656.165771,1086.142944 1660.173584,1078.764038 
	C1666.050415,1067.944214 1671.475098,1056.742554 1681.387207,1048.857422 
	C1685.751953,1045.385254 1691.351318,1043.270386 1695.180786,1039.356079 
	C1706.315308,1027.974731 1717.094238,1016.261169 1729.682861,1006.412842 
	C1729.942017,1006.210022 1730.168457,1005.949829 1730.362671,1005.681885 
	C1735.392334,998.745850 1734.350586,994.621887 1726.764526,990.513306 
	C1722.395874,988.147278 1717.946411,985.823181 1713.937012,982.922485 
	C1705.050415,976.493469 1705.944580,967.708496 1715.869873,963.217957 
	C1721.006836,960.893738 1726.218262,958.275879 1731.671143,957.243042 
	C1736.645508,956.301025 1742.489624,956.004700 1747.070801,957.742493 
	C1757.116089,961.553162 1766.932007,962.822510 1777.117920,959.455200 
	C1782.123047,957.800659 1786.958130,955.608704 1791.808594,953.517578 
	C1795.763428,951.812622 1799.488037,948.850586 1803.562256,948.309387 
	C1810.283081,947.416565 1814.924561,943.568665 1820.214111,940.111206 
	C1832.002441,932.406067 1842.714111,922.225769 1858.149414,921.908813 
	C1859.912354,921.872681 1861.899902,920.744934 1863.351685,919.583618 
	C1871.490479,913.073120 1873.667847,904.248779 1871.323486,894.627258 
	C1870.050049,889.400757 1872.267090,887.101501 1876.057373,885.169250 
	C1877.805542,884.278137 1879.815674,883.757385 1881.767456,883.435669 
	C1887.842163,882.434570 1892.686768,879.980896 1896.899780,875.036499 
	C1902.351562,868.638428 1909.095215,864.259094 1918.612671,865.896973 
	C1926.735840,867.294922 1935.096802,867.266418 1943.333496,868.064026 
	C1949.139404,868.626282 1953.266357,867.231628 1952.959595,860.060364 
	C1965.336914,860.162354 1977.451416,861.270691 1986.971924,849.872070 
	C1982.089966,849.872070 1978.454834,849.872070 1974.819702,849.872070 
	C1657.195312,849.872070 1339.570923,849.873352 1021.946472,849.856201 
	C1018.294800,849.855957 1014.643188,849.616699 1010.991516,849.489075 
	C1014.214417,849.098511 1017.437317,848.366333 1020.660278,848.365845 
	C1353.023071,848.314026 1685.385986,848.314270 2017.748779,848.356323 
	C2021.370850,848.356750 2024.992920,848.945374 2029.802002,850.183655 
	C2032.897095,853.269043 2034.804932,855.430176 2036.631592,857.499268 
	C2034.565796,861.379456 2032.568848,864.484192 2031.198364,867.844543 
	C2028.677979,874.024353 2028.206787,880.000549 2033.930054,885.062378 
	C2035.892456,886.797913 2037.361816,889.095459 2039.030273,891.157532 
	C2042.150391,895.013489 2045.935669,895.951416 2050.598145,894.173828 
	C2055.246094,892.401794 2059.950195,890.747620 2064.708496,889.300171 
	C2075.701172,885.956238 2088.450195,890.790466 2095.179932,900.031860 
	C2097.206055,902.814148 2100.443848,905.035645 2103.576416,906.630676 
	C2113.541748,911.704834 2119.846191,920.062683 2125.134033,929.441345 
	C2126.603516,932.048035 2127.720947,934.853821 2129.202637,937.452820 
	C2134.247314,946.301819 2140.610107,952.740479 2152.115234,951.378906 
	C2157.214600,950.775452 2162.470215,951.495422 2168.307617,951.629700 
	C2168.307617,956.374695 2168.265137,959.989197 2168.320801,963.602234 
	C2168.366699,966.590210 2167.624268,970.003418 2168.797607,972.488831 
	C2173.654541,982.778870 2174.876709,993.803284 2176.463135,1004.807373 
	C2177.453613,1011.677246 2178.711182,1018.488647 2185.970947,1021.971558 
	C2186.822998,1022.380310 2187.441162,1023.301331 2188.130615,1024.020508 
	C2197.503418,1033.798218 2197.499023,1033.798218 2190.543701,1045.444580 
	C2190.391357,1045.699707 2190.477783,1046.097534 2190.399658,1047.132202 
	C2192.054443,1050.382202 2193.548828,1054.500977 2196.042725,1057.882202 
	C2198.532227,1061.256958 2202.022705,1063.893066 2204.971924,1066.753662 
	C2208.641357,1066.209717 2212.119629,1065.694092 2215.517578,1065.190430 
	C2218.873535,1075.700928 2211.632080,1082.736694 2208.754395,1091.187012 
	C2209.523682,1092.137451 2210.256104,1093.260864 2211.196777,1094.169067 
	C2216.935303,1099.710205 2220.747803,1099.845459 2227.535400,1095.685425 
	C2231.931885,1092.991089 2236.733398,1090.958008 2241.532227,1088.538452 
	C2245.632568,1097.117554 2247.887695,1105.357300 2248.661621,1114.582031 
	C2249.767578,1127.762451 2253.544434,1140.782715 2260.755127,1152.117798 
	C2263.397705,1156.272217 2268.014648,1160.387573 2272.579102,1161.821777 
	C2279.701904,1164.059814 2287.526611,1164.271118 2295.091797,1164.837280 
	C2303.523926,1165.468262 2311.479736,1166.662964 2316.483887,1174.625854 
	C2316.532959,1174.703979 2317.474854,1174.221069 2318.000000,1174.000000 
	C2318.000000,1176.133423 2318.000000,1178.266724 2317.400879,1181.038818 
	C2317.201172,1182.451782 2317.600586,1183.225952 2318.000000,1184.000000 
	C2318.000000,1189.400024 2318.000000,1194.800049 2318.000000,1201.100098 
M1992.397461,849.963135 
	C1992.136230,850.168762 1991.836182,850.342163 1991.628418,850.592346 
	C1991.510742,850.734131 1991.544189,851.001526 1991.509644,851.212341 
	C1995.609863,851.413757 1999.710083,851.615112 2003.810425,851.816467 
	C2003.811523,851.316467 2003.812744,850.816467 2003.813843,850.316467 
	C2000.523682,850.117859 1997.233398,849.919250 1992.397461,849.963135 
z"/>
<path data-name="Ngomedzap" style="fill: {#508761}" fill="#508761" opacity="1.000000" stroke="none" 
	d="
M620.174194,2428.146729 
	C618.897278,2431.192139 617.546387,2434.209229 616.361389,2437.290039 
	C614.762756,2441.445557 611.829407,2443.491943 607.406616,2444.148682 
	C603.480591,2444.731934 599.713745,2446.396484 595.787048,2446.963623 
	C582.578918,2448.870850 572.319641,2454.361816 565.931519,2466.983398 
	C563.238953,2472.303467 557.616028,2476.140625 553.662598,2481.326172 
	C545.286194,2482.000000 536.572388,2482.000000 527.274475,2481.325195 
	C517.765747,2472.238770 509.960724,2462.921143 503.615204,2452.394531 
	C502.245544,2450.122559 500.442993,2448.114502 499.031586,2445.864502 
	C488.462463,2429.015381 474.399261,2414.309082 467.635010,2395.134766 
	C465.223572,2388.299072 463.294952,2381.293213 460.955963,2373.752686 
	C454.217987,2372.366943 447.172852,2370.917725 439.137207,2369.264893 
	C442.033630,2361.267334 444.901001,2354.233887 447.047180,2346.986572 
	C447.899872,2344.107666 447.514343,2340.699951 447.044159,2337.632324 
	C446.465149,2333.854248 444.226379,2330.124023 444.434540,2326.471680 
	C445.003510,2316.489014 443.062988,2307.418457 437.834015,2298.877686 
	C431.967621,2289.296387 432.527008,2279.508545 436.920898,2269.357666 
	C438.838013,2264.928711 440.486420,2259.676270 439.981659,2255.045898 
	C438.753845,2243.782715 435.499878,2232.963135 426.583374,2224.935303 
	C417.690613,2216.928955 409.795380,2206.982178 399.521606,2201.572998 
	C388.971832,2196.018799 376.114868,2194.748047 364.185303,2191.953857 
	C358.163483,2190.543213 353.124634,2188.108154 348.922638,2183.381836 
	C339.748047,2173.062500 328.055511,2167.433838 314.364197,2165.555420 
	C305.944275,2164.400146 299.200836,2160.975098 297.709290,2151.250977 
	C297.177521,2147.784180 295.417877,2144.505859 294.160828,2140.979004 
	C300.369476,2136.568604 302.867371,2130.695801 304.472260,2124.009766 
	C305.826141,2118.369385 308.333740,2113.006104 310.941284,2105.842529 
	C310.244202,2102.720459 309.945496,2097.518311 304.698273,2094.043213 
	C302.817627,2092.797363 302.015533,2088.942383 301.884674,2086.222412 
	C301.516907,2078.579102 301.839783,2070.905273 301.700348,2063.246826 
	C301.659668,2061.011963 301.774353,2057.760742 300.454773,2056.743164 
	C295.496857,2052.920166 294.789886,2047.133911 292.373962,2042.110229 
	C288.747467,2034.569458 284.353455,2027.851685 276.176117,2023.976196 
	C267.717865,2019.967651 268.156036,2019.496582 269.476257,2009.324463 
	C270.276703,2003.157104 271.351837,1997.003052 267.226196,1991.030762 
	C265.813385,1988.985352 266.763855,1984.700684 267.677185,1981.763184 
	C271.130096,1970.658325 267.836090,1964.319092 256.254791,1961.509277 
	C247.548538,1959.396973 238.746658,1957.676880 229.979904,1955.817261 
	C226.426102,1955.063477 223.428772,1953.955078 225.183731,1948.319946 
	C235.107651,1948.994873 239.603226,1942.917969 241.226578,1933.609863 
	C242.098221,1928.611938 243.102692,1923.939453 239.117767,1919.529053 
	C237.754593,1918.020264 237.999084,1915.132812 237.288071,1912.947144 
	C235.072113,1906.135498 232.750488,1899.358154 230.409103,1892.386597 
	C227.006439,1893.822998 223.704605,1896.329590 222.459839,1895.550293 
	C216.947281,1892.099487 213.769516,1896.626587 209.836716,1898.348389 
	C205.705582,1900.156616 201.728531,1902.317017 197.824890,1904.253662 
	C188.194077,1889.186890 181.953369,1874.508423 184.134552,1857.291504 
	C184.642151,1853.284912 184.931381,1849.789307 187.661621,1846.294189 
	C190.076263,1843.202881 190.804428,1838.794067 192.372375,1834.719482 
	C186.166290,1831.447510 181.187363,1828.822510 176.208435,1826.197510 
	C176.068558,1825.826538 175.928680,1825.455688 176.776459,1824.549316 
	C185.976761,1822.942993 194.254364,1822.217896 202.381683,1820.692139 
	C208.958511,1819.457520 214.750244,1816.956909 218.458252,1810.280762 
	C222.560242,1802.895386 226.924881,1801.286621 234.992569,1803.682129 
	C243.547928,1806.222290 251.889191,1809.576538 260.150482,1812.994507 
	C276.636505,1819.815186 282.301971,1817.830688 291.255981,1807.677979 
	C295.432861,1802.941895 300.454193,1800.044067 306.391602,1798.656006 
	C323.082550,1794.754150 330.017426,1781.567139 335.514771,1767.480957 
	C337.112823,1763.386108 335.609558,1758.184082 336.383331,1753.635254 
	C337.140198,1749.185913 337.816284,1743.825806 340.623047,1740.825684 
	C345.218933,1735.912842 351.459900,1732.512329 357.105225,1728.616333 
	C362.000092,1725.238159 366.972748,1721.963989 372.016876,1718.813232 
	C377.894318,1715.142090 383.832306,1711.559204 389.855072,1708.133423 
	C392.426361,1706.670776 395.313354,1705.775024 397.996643,1704.495239 
	C404.845490,1701.229004 411.668274,1697.907593 418.484619,1694.573730 
	C420.816711,1693.433105 424.305939,1692.750122 425.170044,1690.886108 
	C427.462738,1685.941162 431.878174,1685.393677 435.906311,1684.946533 
	C443.754944,1684.075439 450.508362,1680.737549 457.317841,1677.257202 
	C459.588654,1676.096802 461.987885,1675.187378 464.892609,1673.916260 
	C465.844757,1680.941406 466.549438,1687.106812 467.547272,1693.224609 
	C468.500885,1699.071289 467.764740,1705.621216 474.062500,1710.796875 
	C477.307617,1701.540161 484.885193,1700.177368 492.344147,1698.637207 
	C510.225403,1694.945312 528.125793,1691.343262 545.977539,1687.514038 
	C548.803894,1686.907593 551.934387,1685.896729 554.029541,1684.055054 
	C559.699280,1679.071167 564.745544,1680.640625 570.300964,1684.113037 
	C578.028015,1688.942871 581.222961,1696.683838 583.158142,1704.747559 
	C584.564026,1710.605469 587.401611,1712.391479 592.878418,1712.077026 
	C602.178711,1711.542969 611.418640,1711.199951 620.422791,1714.835083 
	C622.909790,1715.839111 626.449219,1715.318481 629.170166,1714.448242 
	C636.061646,1712.244141 642.762634,1709.444702 650.093018,1706.674683 
	C661.994751,1714.745483 677.171570,1718.533203 686.813354,1730.975464 
	C696.672302,1743.697998 709.909973,1751.682495 724.752197,1757.223511 
	C730.992249,1759.553223 735.159912,1762.919434 733.821045,1770.464478 
	C733.183716,1774.056152 734.458984,1776.917725 738.302246,1778.333130 
	C741.995789,1779.693237 745.591125,1780.076660 748.630798,1777.327393 
	C750.555847,1775.586426 752.302307,1773.387085 753.403748,1771.051392 
	C755.627747,1766.335449 757.357483,1761.386475 759.247375,1756.643188 
	C767.184143,1753.864258 773.672241,1755.953857 779.289429,1761.800537 
	C782.516846,1765.159546 786.134644,1768.144409 789.349487,1771.514404 
	C793.489624,1775.854370 792.345947,1782.781006 787.062378,1785.708496 
	C785.496704,1786.576172 783.630371,1786.901245 781.763489,1787.520752 
	C782.864014,1797.070312 786.559143,1803.820679 795.292969,1807.173218 
	C796.370422,1806.337280 797.166626,1805.773315 797.903259,1805.140137 
	C805.131042,1798.927490 806.370850,1798.827759 814.438110,1803.584473 
	C818.738403,1806.119995 823.142822,1808.481812 827.406128,1811.076660 
	C831.863037,1813.789551 836.413513,1817.957642 835.447937,1822.833984 
	C833.754700,1831.385742 837.458679,1837.856934 841.306030,1844.184082 
	C846.031555,1851.955566 847.912354,1859.124146 842.590576,1867.305420 
	C841.469910,1869.028320 841.902832,1871.815430 841.780640,1874.120728 
	C841.622253,1877.107788 842.416809,1880.403320 841.417053,1883.041626 
	C837.714050,1892.813599 841.210571,1901.207397 845.234680,1909.796021 
	C846.888062,1913.324829 847.500732,1917.341309 847.892761,1921.557861 
	C843.728638,1923.620239 839.386169,1924.459961 836.981995,1927.079102 
	C832.811707,1931.622314 829.690796,1937.174683 826.440491,1942.493774 
	C825.134155,1944.631714 823.978455,1947.252075 823.911987,1949.684570 
	C823.704712,1957.270752 819.508301,1962.439941 814.982239,1967.987915 
	C808.271729,1976.213867 798.017517,1982.777832 799.708923,1995.742798 
	C799.781982,1996.302979 799.370911,1997.117065 798.923157,1997.525391 
	C793.592041,2002.387329 788.597961,2007.753296 782.713440,2011.828979 
	C778.448914,2014.782593 773.085632,2016.320312 768.031494,2017.916748 
	C762.582397,2019.637695 759.929626,2023.192261 756.928772,2028.007446 
	C754.356140,2032.135742 746.861206,2032.910645 743.315002,2036.788818 
	C738.641846,2041.899780 735.128723,2048.007324 728.888977,2051.687012 
	C727.648804,2052.418213 726.697998,2054.161865 726.250793,2055.632568 
	C723.120850,2065.927490 716.664062,2074.424805 708.178955,2079.966309 
	C697.430176,2086.986328 690.319458,2096.550293 682.967163,2106.461426 
	C678.898926,2111.945801 673.862488,2117.210205 668.158203,2120.837158 
	C662.861572,2124.204834 658.587891,2127.726807 656.577515,2133.830811 
	C648.035828,2133.483398 642.819763,2138.837646 637.367188,2143.720215 
	C627.828552,2152.261963 618.209778,2160.391113 603.971375,2158.661133 
	C599.548218,2158.123535 596.916016,2160.516113 595.216553,2165.052734 
	C593.663025,2169.199707 591.152161,2173.756104 587.709473,2176.299072 
	C569.412903,2189.813721 574.344238,2209.872559 572.446716,2227.999023 
	C572.332458,2229.090088 573.752258,2230.276123 574.232727,2231.506348 
	C577.257568,2239.248779 581.305115,2246.798828 582.911072,2254.833252 
	C584.704346,2263.804688 588.022339,2270.400879 597.605347,2272.740234 
	C596.799438,2279.140381 596.063965,2284.981201 595.552673,2289.041504 
	C591.154236,2292.907471 587.819397,2295.468750 584.925720,2298.457275 
	C578.473083,2305.121582 580.225342,2312.977051 581.691711,2320.973633 
	C582.454163,2325.130859 583.832458,2327.571289 588.170410,2328.451904 
	C595.248474,2329.889404 602.239563,2331.754883 610.204895,2333.664551 
	C611.496338,2345.547119 613.268616,2357.708496 613.953979,2369.930908 
	C614.290283,2375.927490 615.617981,2380.227295 621.463196,2382.500244 
	C622.950623,2383.078125 624.224243,2384.206055 626.027771,2385.356934 
	C617.265991,2398.845459 613.052734,2412.802002 620.174194,2428.146729 
z"/>
<path data-name="Akoeman" style="fill: {#DE9A66}" fill="#DE9A66" opacity="1.000000" stroke="none" 
	d="
M1706.674316,1972.543213 
	C1706.615601,1973.539917 1706.266357,1974.627686 1706.545410,1975.518555 
	C1708.393555,1981.418213 1711.437134,1987.174194 1712.009888,1993.175537 
	C1712.554199,1998.880371 1709.759033,2004.838379 1709.839600,2010.665527 
	C1710.051880,2026.042480 1712.500488,2041.011108 1720.098755,2054.807373 
	C1722.086548,2058.416748 1724.650757,2063.193848 1723.744385,2066.574951 
	C1722.261230,2072.107666 1718.449097,2077.148926 1715.016846,2081.968506 
	C1713.365723,2084.287109 1710.107300,2085.387695 1707.984619,2087.458252 
	C1703.469727,2091.862061 1698.580811,2093.299316 1692.572876,2090.835449 
	C1687.626099,2088.806885 1683.011475,2089.728027 1678.313477,2092.368164 
	C1667.235352,2098.593750 1656.812988,2099.670654 1644.562012,2096.266602 
	C1643.282715,2104.052979 1638.630371,2110.166748 1633.521484,2115.643799 
	C1623.806274,2126.058350 1624.650879,2138.197754 1628.037354,2150.060791 
	C1630.148804,2157.457275 1630.579224,2164.252197 1628.974976,2171.503906 
	C1628.402588,2174.091309 1627.574219,2176.794922 1627.816406,2179.354980 
	C1628.366577,2185.171387 1626.145142,2189.777832 1622.408203,2193.780273 
	C1617.739502,2198.780762 1616.955811,2204.399170 1619.868408,2210.286865 
	C1621.996582,2214.588867 1621.701538,2218.475342 1619.915405,2222.649170 
	C1616.540649,2230.536133 1617.333008,2237.847656 1622.010986,2245.269775 
	C1627.114624,2253.366699 1622.953979,2268.106201 1615.239502,2273.618164 
	C1609.052002,2278.038818 1603.334106,2283.114014 1597.375854,2287.858643 
	C1588.766479,2294.714111 1579.790161,2298.782959 1569.229004,2291.693604 
	C1563.468872,2287.826904 1556.965210,2289.844971 1550.756470,2289.726562 
	C1549.131470,2289.695557 1547.395508,2290.839844 1545.877808,2290.554932 
	C1532.049683,2287.956055 1519.851929,2296.540283 1506.383179,2296.161377 
	C1504.057617,2296.096191 1501.531006,2296.494141 1499.445801,2295.728516 
	C1489.970459,2292.250732 1483.941406,2297.278564 1479.738770,2304.393311 
	C1475.841553,2310.991211 1470.609863,2314.374512 1463.424683,2315.927002 
	C1456.640991,2317.392578 1449.978516,2319.418945 1442.660156,2321.358154 
	C1441.178955,2323.948975 1439.415039,2327.129639 1437.562012,2330.257812 
	C1431.531738,2340.437256 1423.339966,2343.816895 1411.555542,2340.706787 
	C1406.845703,2339.463623 1402.561401,2339.313721 1398.126343,2341.874756 
	C1393.532715,2344.527832 1388.098755,2344.874023 1384.174805,2349.847656 
	C1381.863770,2352.777344 1375.762573,2353.341797 1371.256348,2353.745850 
	C1366.351807,2354.185303 1362.595337,2355.530273 1358.976562,2359.076172 
	C1355.286621,2362.691895 1350.415405,2365.072998 1346.290894,2368.289062 
	C1344.632812,2369.582031 1343.432129,2371.562988 1342.293091,2373.398193 
	C1340.040405,2377.026855 1338.556396,2381.325195 1335.690674,2384.333008 
	C1331.831787,2388.382812 1328.975342,2392.204834 1329.437866,2398.201660 
	C1329.569336,2399.905273 1327.496948,2402.274658 1325.822388,2403.502197 
	C1323.462402,2405.231689 1320.531372,2406.181641 1318.974121,2406.925537 
	C1309.590576,2402.820312 1301.388672,2398.502686 1292.707520,2395.636475 
	C1283.732056,2392.673096 1282.854492,2393.659668 1279.725708,2402.444092 
	C1278.838745,2404.934570 1277.876587,2407.398193 1276.631348,2410.721924 
	C1244.688843,2415.992188 1212.609619,2422.726318 1179.416992,2421.284424 
	C1177.562744,2418.138916 1175.897949,2415.314941 1174.032593,2412.150635 
	C1122.540894,2412.150635 1071.030518,2412.150635 1018.613342,2411.156738 
	C1017.099304,2366.219971 1016.703430,2322.272461 1015.756165,2278.336670 
	C1015.470581,2265.090332 1013.578186,2251.882812 1012.569580,2238.646240 
	C1012.070190,2232.092041 1009.926331,2224.810059 1011.960449,2219.075439 
	C1018.152832,2201.618408 1023.569946,2183.670654 1035.504883,2168.714600 
	C1042.340210,2160.148926 1047.844849,2150.532959 1054.441406,2141.760498 
	C1057.780762,2137.319824 1061.803101,2133.157227 1066.231323,2129.816406 
	C1077.919312,2120.998779 1090.088989,2112.822021 1101.859863,2104.110596 
	C1104.968994,2101.809326 1108.169556,2098.928223 1109.895264,2095.575928 
	C1120.553101,2074.871094 1130.843994,2053.976807 1141.174316,2033.104614 
	C1153.034424,2009.141479 1161.403809,1983.973145 1167.113892,1957.873047 
	C1168.460449,1951.717163 1170.420044,1945.695190 1172.695801,1939.369873 
	C1211.277466,1912.287109 1249.199341,1885.358032 1287.318726,1858.711304 
	C1292.386841,1855.168457 1298.229004,1852.359009 1304.114258,1850.443359 
	C1313.875854,1847.265869 1323.929810,1844.949219 1333.927979,1842.550781 
	C1339.064697,1841.318726 1344.361938,1839.848999 1349.560913,1839.941162 
	C1371.454956,1840.329102 1393.359619,1840.898438 1415.221069,1842.110596 
	C1434.569946,1843.183350 1453.112671,1847.292847 1470.042725,1857.774170 
	C1478.718262,1863.145020 1488.554321,1866.641357 1498.321777,1871.451660 
	C1506.043213,1875.879883 1513.586914,1879.409302 1520.526123,1883.877441 
	C1551.480713,1903.810059 1581.392456,1925.162231 1609.014160,1949.619141 
	C1612.855225,1953.019897 1617.534912,1956.803589 1622.298950,1957.607300 
	C1646.070679,1961.617432 1670.019653,1964.563477 1693.856445,1968.210815 
	C1698.247192,1968.882568 1702.407593,1971.060425 1706.674316,1972.543213 
z"/>
<path data-name="Mengueme" style="fill: {#6DD9F6}" fill="#6DD9F6" opacity="1.000000" stroke="none" 
	d="
M1172.097656,1939.611694 
	C1170.420044,1945.695190 1168.460449,1951.717163 1167.113892,1957.873047 
	C1161.403809,1983.973145 1153.034424,2009.141479 1141.174316,2033.104614 
	C1130.843994,2053.976807 1120.553101,2074.871094 1109.895264,2095.575928 
	C1108.169556,2098.928223 1104.968994,2101.809326 1101.859863,2104.110596 
	C1090.088989,2112.822021 1077.919312,2120.998779 1066.231323,2129.816406 
	C1061.803101,2133.157227 1057.780762,2137.319824 1054.441406,2141.760498 
	C1047.844849,2150.532959 1042.340210,2160.148926 1035.504883,2168.714600 
	C1023.569946,2183.670654 1018.152832,2201.618408 1011.960449,2219.075439 
	C1009.926331,2224.810059 1012.070190,2232.092041 1012.569580,2238.646240 
	C1013.578186,2251.882812 1015.470581,2265.090332 1015.756165,2278.336670 
	C1016.703430,2322.272461 1017.099304,2366.219971 1017.651917,2411.105469 
	C1005.037292,2412.701416 992.481689,2413.546143 979.913452,2413.825928 
	C977.738708,2413.874268 975.147583,2411.907227 973.380859,2410.212158 
	C969.319336,2406.314941 965.453308,2402.172119 961.873352,2397.827637 
	C958.531433,2393.772217 954.463318,2392.702393 949.488647,2393.157715 
	C925.060242,2395.393311 900.615906,2397.458252 876.193115,2399.752686 
	C871.365906,2400.206055 866.634644,2401.729492 861.807678,2402.116211 
	C859.445312,2402.304932 856.833252,2401.317383 854.569275,2400.325684 
	C851.363525,2398.921387 848.375061,2397.021240 844.952087,2395.145996 
	C841.794189,2411.661133 833.556458,2424.424561 824.892273,2436.973877 
	C824.332581,2437.784668 823.630981,2438.570312 822.829773,2439.130615 
	C812.790955,2446.150879 802.732788,2453.143311 792.638123,2460.082764 
	C791.864014,2460.614990 790.378967,2461.244385 789.895752,2460.896484 
	C783.743896,2456.465820 777.079468,2461.132812 770.844360,2459.687256 
	C764.411743,2458.196045 758.003723,2456.546631 751.693542,2454.612305 
	C749.932861,2454.072266 748.309082,2452.490967 747.044678,2451.023926 
	C739.023438,2441.716309 728.022461,2438.291016 716.632935,2435.280029 
	C712.435303,2430.538330 711.209473,2425.023682 713.795959,2418.653564 
	C695.711304,2416.791504 678.259033,2415.041504 660.819946,2413.169434 
	C655.901794,2412.641357 651.610291,2413.671387 647.982483,2417.118652 
	C647.017822,2418.035156 646.011047,2418.907471 645.035339,2419.812744 
	C638.497620,2425.877441 631.226868,2429.881836 621.027588,2428.108398 
	C613.052734,2412.802002 617.265991,2398.845459 626.027771,2385.356934 
	C624.224243,2384.206055 622.950623,2383.078125 621.463196,2382.500244 
	C615.617981,2380.227295 614.290283,2375.927490 613.953979,2369.930908 
	C613.268616,2357.708496 611.496338,2345.547119 610.204895,2333.664551 
	C602.239563,2331.754883 595.248474,2329.889404 588.170410,2328.451904 
	C583.832458,2327.571289 582.454163,2325.130859 581.691711,2320.973633 
	C580.225342,2312.977051 578.473083,2305.121582 584.925720,2298.457275 
	C587.819397,2295.468750 591.154236,2292.907471 595.552673,2289.041504 
	C596.063965,2284.981201 596.799438,2279.140381 597.605347,2272.740234 
	C588.022339,2270.400879 584.704346,2263.804688 582.911072,2254.833252 
	C581.305115,2246.798828 577.257568,2239.248779 574.232727,2231.506348 
	C573.752258,2230.276123 572.332458,2229.090088 572.446716,2227.999023 
	C574.344238,2209.872559 569.412903,2189.813721 587.709473,2176.299072 
	C591.152161,2173.756104 593.663025,2169.199707 595.216553,2165.052734 
	C596.916016,2160.516113 599.548218,2158.123535 603.971375,2158.661133 
	C618.209778,2160.391113 627.828552,2152.261963 637.367188,2143.720215 
	C642.819763,2138.837646 648.035828,2133.483398 656.577515,2133.830811 
	C658.587891,2127.726807 662.861572,2124.204834 668.158203,2120.837158 
	C673.862488,2117.210205 678.898926,2111.945801 682.967163,2106.461426 
	C690.319458,2096.550293 697.430176,2086.986328 708.178955,2079.966309 
	C716.664062,2074.424805 723.120850,2065.927490 726.250793,2055.632568 
	C726.697998,2054.161865 727.648804,2052.418213 728.888977,2051.687012 
	C735.128723,2048.007324 738.641846,2041.899780 743.315002,2036.788818 
	C746.861206,2032.910645 754.356140,2032.135742 756.928772,2028.007446 
	C759.929626,2023.192261 762.582397,2019.637695 768.031494,2017.916748 
	C773.085632,2016.320312 778.448914,2014.782593 782.713440,2011.828979 
	C788.597961,2007.753296 793.592041,2002.387329 798.923157,1997.525391 
	C799.370911,1997.117065 799.781982,1996.302979 799.708923,1995.742798 
	C798.017517,1982.777832 808.271729,1976.213867 814.982239,1967.987915 
	C819.508301,1962.439941 823.704712,1957.270752 823.911987,1949.684570 
	C823.978455,1947.252075 825.134155,1944.631714 826.440491,1942.493774 
	C829.690796,1937.174683 832.811707,1931.622314 836.981995,1927.079102 
	C839.386169,1924.459961 843.728638,1923.620239 847.892761,1921.557861 
	C850.599243,1923.302856 852.823547,1925.310791 854.586914,1927.664185 
	C861.888489,1937.409180 864.830444,1937.885132 874.889648,1930.141724 
	C878.602478,1932.349365 882.333923,1935.151245 886.512085,1936.862183 
	C889.675232,1938.157349 893.900330,1939.392822 896.792725,1938.325195 
	C904.493652,1935.482300 912.182617,1932.302124 918.172180,1926.065308 
	C921.062622,1923.055298 924.734436,1919.390503 928.468689,1918.838745 
	C944.867920,1916.415161 955.161743,1905.081421 966.301575,1894.770752 
	C970.678528,1890.719604 975.251770,1886.881104 979.668762,1882.872192 
	C981.368774,1881.329102 983.218872,1879.794067 984.425049,1877.890625 
	C990.588867,1868.163940 996.564880,1858.318115 1002.338135,1848.949341 
	C1007.514893,1848.014404 1009.000122,1851.215210 1010.053955,1854.338745 
	C1013.283630,1863.911987 1019.977356,1867.532715 1029.797852,1867.278931 
	C1039.541992,1867.026978 1048.503540,1869.984009 1057.223999,1874.544189 
	C1065.018066,1878.620117 1066.067383,1877.158936 1070.559448,1869.215088 
	C1074.266479,1862.659790 1079.310547,1856.804321 1084.159912,1850.969360 
	C1087.919189,1846.446045 1089.944580,1841.591187 1090.440552,1835.717041 
	C1090.769043,1831.825684 1092.732300,1828.087158 1093.204346,1824.188232 
	C1093.578369,1821.101196 1093.854858,1817.175293 1092.317505,1814.849487 
	C1088.692139,1809.364746 1084.406372,1804.129883 1079.586548,1799.657349 
	C1066.561890,1787.571167 1061.103516,1774.041992 1069.493164,1757.022583 
	C1070.351929,1755.280640 1070.838623,1753.355225 1072.607666,1751.208984 
	C1086.677734,1753.802612 1099.571411,1757.075073 1112.631714,1759.417603 
	C1117.849731,1760.353638 1120.916870,1762.751587 1123.387329,1767.007324 
	C1137.253906,1790.895386 1151.242188,1814.713013 1165.070068,1838.623413 
	C1166.531860,1841.150757 1167.857178,1844.061646 1168.145020,1846.906006 
	C1168.980591,1855.167969 1169.405029,1863.480835 1169.722900,1871.784058 
	C1170.588379,1894.390503 1171.315674,1917.002075 1172.097656,1939.611694 
z"/>
<path data-name="Nkolmetet" style="fill: {#AD51AC}" fill="#AD51AC" opacity="1.000000" stroke="none" 
	d="
M1707.129639,1972.942383 
	C1702.407593,1971.060425 1698.247192,1968.882568 1693.856445,1968.210815 
	C1670.019653,1964.563477 1646.070679,1961.617432 1622.298950,1957.607300 
	C1617.534912,1956.803589 1612.855225,1953.019897 1609.014160,1949.619141 
	C1581.392456,1925.162231 1551.480713,1903.810059 1520.526123,1883.877441 
	C1513.586914,1879.409302 1506.043213,1875.879883 1498.551392,1870.639771 
	C1502.212036,1856.296021 1506.046875,1843.215210 1509.998535,1830.169556 
	C1515.875610,1810.767090 1522.716553,1791.550171 1520.657593,1770.721802 
	C1520.562256,1769.756592 1521.023560,1768.749023 1521.034668,1767.759033 
	C1521.228271,1750.449463 1521.901611,1733.125244 1521.424194,1715.833130 
	C1520.910645,1697.234863 1519.464478,1678.655518 1518.124023,1660.089722 
	C1517.407471,1650.164551 1516.320923,1640.248047 1514.927124,1630.394653 
	C1512.927368,1616.257568 1509.008179,1602.230103 1508.548218,1588.070068 
	C1507.510620,1556.126099 1508.092407,1524.129517 1508.015381,1492.154419 
	C1515.072510,1492.852173 1522.129639,1493.549927 1530.969727,1494.424072 
	C1534.860840,1486.345947 1538.289185,1476.378906 1537.953003,1464.283447 
	C1548.232300,1463.375488 1558.213867,1462.071411 1568.981445,1465.445557 
	C1574.245239,1468.286987 1577.062866,1472.074097 1575.786987,1477.227783 
	C1573.571655,1486.176636 1577.001343,1494.185425 1579.214233,1502.372559 
	C1581.120239,1509.423828 1583.574585,1516.336304 1585.996704,1523.236328 
	C1588.801758,1531.227661 1594.519287,1534.633545 1603.005615,1532.509766 
	C1609.675415,1530.840332 1616.348389,1528.603027 1622.498291,1525.562988 
	C1633.920044,1519.917480 1645.087769,1514.041504 1658.487305,1515.906494 
	C1660.046875,1516.123657 1662.017090,1515.929565 1663.304810,1515.131958 
	C1669.719116,1511.157715 1675.827271,1506.676147 1682.332397,1502.867065 
	C1685.968994,1500.737793 1690.044067,1498.992920 1694.144531,1498.109863 
	C1699.635254,1496.927368 1704.285278,1498.332031 1707.917114,1503.609375 
	C1713.340210,1511.489624 1720.740479,1512.417480 1726.986938,1505.336914 
	C1732.609619,1498.963379 1739.650391,1498.950073 1746.697388,1498.110229 
	C1748.721802,1497.868774 1751.433472,1498.807007 1753.007568,1500.160889 
	C1760.249390,1506.388672 1767.200073,1512.954834 1774.620239,1519.732910 
	C1775.026489,1519.676392 1776.519531,1519.889038 1776.864746,1519.357056 
	C1781.889771,1511.609375 1788.097656,1504.255249 1791.226440,1495.775391 
	C1793.531250,1489.528198 1796.417358,1487.229614 1802.521606,1486.862793 
	C1804.183838,1491.027954 1806.254761,1495.150635 1807.433105,1499.514404 
	C1808.339111,1502.869263 1808.675293,1506.588379 1808.296509,1510.039062 
	C1807.290649,1519.200928 1808.944214,1527.109375 1816.271118,1533.463745 
	C1819.500854,1536.264771 1822.029907,1539.873535 1825.426270,1543.452393 
	C1827.161255,1545.394165 1828.195679,1547.143555 1829.561768,1548.576904 
	C1833.383911,1552.588135 1833.550537,1556.566284 1832.063232,1562.073730 
	C1828.623535,1574.811523 1826.467529,1587.899292 1823.905029,1600.867676 
	C1823.523560,1602.797485 1823.615234,1604.858154 1823.734009,1606.843628 
	C1824.629028,1621.802856 1835.334473,1629.446289 1850.009766,1626.093140 
	C1899.856567,1614.704224 1949.746704,1603.505493 1999.593872,1592.118164 
	C2005.002686,1590.882568 2009.752441,1591.108887 2014.658325,1594.132812 
	C2022.853638,1599.184082 2031.169434,1604.146851 2039.857544,1608.251465 
	C2045.039917,1610.699829 2051.029297,1611.440063 2057.622559,1613.207275 
	C2052.531982,1625.035522 2054.925293,1637.957397 2054.097656,1650.660889 
	C2053.951904,1652.897705 2052.940186,1655.161865 2051.973389,1657.249023 
	C2032.839844,1698.559082 2013.649536,1739.842651 1994.486572,1781.138916 
	C1992.949463,1784.451416 1991.884766,1788.037476 1989.986572,1791.118042 
	C1984.241943,1800.439941 1983.054321,1809.585815 1986.650391,1820.437378 
	C1988.658447,1826.497070 1986.738892,1834.111572 1985.651001,1840.874512 
	C1984.507080,1847.985474 1982.243652,1854.916382 1980.402710,1862.189453 
	C1975.842773,1866.283569 1970.448975,1870.555176 1965.827637,1875.542480 
	C1963.831909,1877.696045 1963.101318,1881.251221 1962.383789,1884.307861 
	C1961.210938,1889.303589 1960.518799,1894.412109 1959.274048,1901.450317 
	C1956.167480,1898.352539 1954.553589,1896.975708 1953.224243,1895.364136 
	C1951.114502,1892.806763 1949.381714,1889.922729 1947.157959,1887.478516 
	C1941.611816,1881.381958 1935.456055,1880.254883 1928.731079,1884.634155 
	C1923.761841,1887.870117 1919.491577,1892.164917 1914.601562,1895.541626 
	C1910.902588,1898.096191 1906.509155,1902.075806 1902.786377,1901.712524 
	C1891.301025,1900.592163 1884.274902,1907.367310 1876.638916,1913.647217 
	C1871.000977,1918.284302 1865.773560,1923.641602 1859.556396,1927.310913 
	C1842.735596,1937.238037 1829.577393,1951.416870 1815.126831,1964.098999 
	C1810.632202,1968.043701 1806.475586,1972.375244 1801.955933,1976.289429 
	C1790.783447,1985.965210 1790.096924,1992.675903 1796.120117,2008.302124 
	C1799.155029,2016.175659 1799.469360,2016.054443 1792.060425,2021.788818 
	C1783.885864,2019.779419 1778.369873,2015.187134 1778.232666,2006.241577 
	C1778.141479,2000.293335 1774.033081,1998.544189 1769.786255,1996.646973 
	C1769.088501,1996.811646 1768.364868,1996.807373 1767.845093,1997.130859 
	C1751.436035,2007.345093 1755.641357,2005.520264 1742.505005,1995.588623 
	C1738.262817,1992.381226 1734.519653,1989.011719 1728.478760,1989.134644 
	C1725.629395,1989.192627 1722.365479,1986.927368 1719.922241,1984.937744 
	C1715.557007,1981.382935 1711.671265,1977.239136 1707.129639,1972.942383 
z"/>
<path data-name="Mbalmayo" style="fill: {#5CC947}" fill="#5CC947" opacity="1.000000" stroke="none" 
	d="
M1507.482300,1491.729736 
	C1508.092407,1524.129517 1507.510620,1556.126099 1508.548218,1588.070068 
	C1509.008179,1602.230103 1512.927368,1616.257568 1514.927124,1630.394653 
	C1516.320923,1640.248047 1517.407471,1650.164551 1518.124023,1660.089722 
	C1519.464478,1678.655518 1520.910645,1697.234863 1521.424194,1715.833130 
	C1521.901611,1733.125244 1521.228271,1750.449463 1521.034668,1767.759033 
	C1521.023560,1768.749023 1520.562256,1769.756592 1520.657593,1770.721802 
	C1522.716553,1791.550171 1515.875610,1810.767090 1509.998535,1830.169556 
	C1506.046875,1843.215210 1502.212036,1856.296021 1498.095459,1870.173096 
	C1488.554321,1866.641357 1478.718262,1863.145020 1470.042725,1857.774170 
	C1453.112671,1847.292847 1434.569946,1843.183350 1415.221069,1842.110596 
	C1393.359619,1840.898438 1371.454956,1840.329102 1349.560913,1839.941162 
	C1344.361938,1839.848999 1339.064697,1841.318726 1333.927979,1842.550781 
	C1323.929810,1844.949219 1313.875854,1847.265869 1304.114258,1850.443359 
	C1298.229004,1852.359009 1292.386841,1855.168457 1287.318726,1858.711304 
	C1249.199341,1885.358032 1211.277466,1912.287109 1172.695801,1939.369873 
	C1171.315674,1917.002075 1170.588379,1894.390503 1169.722900,1871.784058 
	C1169.405029,1863.480835 1168.980591,1855.167969 1168.145020,1846.906006 
	C1167.857178,1844.061646 1166.531860,1841.150757 1165.070068,1838.623413 
	C1151.242188,1814.713013 1137.253906,1790.895386 1123.387329,1767.007324 
	C1120.916870,1762.751587 1117.849731,1760.353638 1112.631714,1759.417603 
	C1099.571411,1757.075073 1086.677734,1753.802612 1073.044434,1750.605347 
	C1068.953979,1746.895020 1065.964355,1742.826538 1062.005493,1740.243652 
	C1057.538696,1737.329346 1050.168457,1739.358521 1046.949341,1743.492920 
	C1044.826782,1746.219116 1043.779663,1749.230347 1045.726440,1752.718750 
	C1047.504517,1755.904907 1048.937866,1759.283325 1050.590698,1762.717285 
	C1048.830200,1767.340820 1045.909912,1769.951538 1040.758179,1769.024536 
	C1036.250366,1768.213135 1031.189819,1765.533691 1027.444702,1766.813843 
	C1023.699707,1768.093994 1021.283386,1773.261475 1017.524841,1777.602661 
	C1014.887939,1774.394043 1012.451538,1772.701050 1011.878418,1770.518921 
	C1008.879272,1759.098633 1007.830444,1748.129395 1014.885864,1737.074585 
	C1024.597412,1721.857788 1038.909790,1711.636108 1051.819214,1699.825928 
	C1061.263306,1691.186035 1069.917114,1682.069458 1069.762939,1667.965698 
	C1069.706787,1662.832397 1073.893677,1661.556152 1077.589233,1660.173340 
	C1087.678711,1656.397583 1088.345337,1654.728394 1083.086304,1645.285034 
	C1082.438721,1644.122314 1081.897705,1642.900635 1081.281616,1641.719849 
	C1077.066650,1633.640869 1077.049805,1633.624634 1083.997314,1627.761597 
	C1085.509888,1626.485229 1087.167847,1625.380859 1088.252808,1624.573608 
	C1080.946533,1614.593750 1074.903564,1605.047852 1067.525146,1596.678833 
	C1061.846558,1590.238159 1062.617798,1583.628174 1065.195557,1577.318848 
	C1068.011841,1570.425415 1068.777222,1564.218384 1066.576782,1557.054199 
	C1065.645996,1554.023926 1066.590332,1549.768799 1068.095215,1546.782227 
	C1070.764282,1541.484863 1074.188721,1536.473633 1077.895874,1531.819580 
	C1081.848633,1526.857422 1082.753174,1521.777100 1080.550293,1516.004272 
	C1078.417114,1510.413330 1076.669678,1504.613892 1073.938843,1499.326294 
	C1069.196533,1490.144653 1068.250000,1480.990601 1072.403198,1471.487915 
	C1076.108032,1463.010864 1076.437622,1454.267334 1076.032593,1445.122437 
	C1075.645996,1436.389526 1072.982910,1426.953247 1080.969360,1418.854004 
	C1073.705933,1411.146240 1073.399536,1402.213257 1075.667725,1392.710205 
	C1077.235107,1386.143677 1079.934326,1380.864990 1087.179688,1379.395020 
	C1095.352051,1377.736694 1103.683472,1373.537109 1111.310059,1381.044678 
	C1112.095581,1381.817993 1113.931641,1382.169434 1115.045654,1381.863159 
	C1125.481567,1378.994873 1135.365967,1383.463989 1145.439209,1384.452393 
	C1155.192993,1385.409790 1160.134644,1379.361084 1165.686523,1374.166138 
	C1170.541626,1369.623047 1168.477661,1363.887329 1165.777588,1358.529541 
	C1164.168457,1355.336670 1163.250977,1351.795166 1161.642944,1347.364624 
	C1178.332031,1349.462036 1179.583496,1332.249146 1191.201782,1326.910645 
	C1190.678101,1326.910645 1191.459717,1326.666626 1191.926270,1326.946899 
	C1199.876221,1331.723999 1207.423340,1330.765015 1215.301514,1326.305664 
	C1220.768188,1323.211182 1226.862183,1321.225342 1233.725586,1318.296143 
	C1239.359009,1329.295532 1250.900879,1332.371948 1261.310791,1337.251709 
	C1265.412476,1336.336792 1266.145142,1333.380981 1266.336304,1329.767090 
	C1266.633423,1324.144043 1267.144287,1318.525757 1267.768066,1312.928101 
	C1268.800903,1303.660522 1278.022827,1299.001099 1286.109131,1303.967163 
	C1290.610107,1306.731323 1294.495972,1310.489868 1298.699951,1313.747437 
	C1301.844849,1316.184326 1304.853760,1318.891479 1308.285889,1320.839111 
	C1312.849365,1323.428711 1315.251099,1327.031616 1317.514282,1331.825562 
	C1321.835083,1340.978027 1328.494263,1348.571045 1339.722168,1349.260620 
	C1344.869507,1349.576904 1347.035400,1352.028931 1348.974243,1356.584106 
	C1353.115112,1366.312988 1355.245728,1375.579468 1352.367920,1386.433838 
	C1350.482300,1393.546021 1352.045410,1401.636963 1352.440918,1409.269897 
	C1352.766479,1415.548706 1353.866699,1421.785645 1354.234497,1428.063965 
	C1354.924072,1439.839355 1361.388550,1448.191040 1372.950195,1451.636719 
	C1382.085205,1454.359497 1387.556274,1461.643311 1393.634399,1468.165894 
	C1395.401855,1470.062378 1396.743530,1472.460693 1398.762939,1473.993408 
	C1401.921021,1476.389893 1405.149780,1476.988525 1408.469116,1473.462036 
	C1412.489990,1469.190186 1417.567017,1467.093262 1423.692139,1467.249634 
	C1431.229370,1467.441772 1436.738403,1462.965576 1441.997559,1458.218750 
	C1448.889526,1451.998047 1449.628052,1451.855225 1456.846191,1457.978271 
	C1460.697510,1461.245361 1464.948975,1462.895020 1469.714111,1461.856689 
	C1475.287842,1460.642090 1479.394653,1462.774048 1483.286987,1466.200439 
	C1489.977173,1472.090454 1497.845093,1476.784424 1501.474609,1485.680054 
	C1502.390869,1487.925781 1505.076538,1489.449463 1507.482300,1491.729736 
z"/>
</svg>