<svg version="1.1" id="Layer_1" xmlns="http://www.w3.org/2000/svg" xmlns:xlink="http://www.w3.org/1999/xlink" x="0px" y="0px"
	 width="100%" viewBox="0 0 2143 2640" enable-background="new 0 0 2143 2640" xml:space="preserve">
<path data-name="Poumougne" style="fill: {#E09A5C}" fill="#E09A5C" opacity="1.000000" stroke="none" 
	d="
M2.000000,968.000000 
	C2.000000,964.571228 2.000000,961.142395 2.672633,957.184326 
	C11.233359,949.599976 20.217384,943.418518 26.720665,935.259766 
	C34.159386,925.927429 39.400173,915.146301 31.870131,902.450500 
	C24.703787,890.367920 23.098246,876.847229 24.291773,862.950012 
	C24.519032,860.303833 24.616407,857.582764 24.269098,854.963074 
	C23.264381,847.384766 25.491991,841.244690 31.790258,836.780823 
	C36.601288,833.371033 37.669083,828.618408 38.067837,822.986694 
	C38.622005,815.159912 38.688667,807.142456 42.754196,799.889465 
	C52.668831,782.201599 61.893963,764.098022 74.217827,747.880188 
	C80.630531,739.441223 86.159195,729.909241 93.993774,723.048096 
	C121.496048,698.962891 150.314636,676.385864 176.201752,650.452881 
	C182.240829,644.403015 188.763855,638.836304 195.526840,632.622253 
	C199.424423,639.755676 204.994751,641.101501 212.658691,638.637939 
	C214.504974,634.270081 216.403854,629.333191 218.654892,624.562439 
	C221.608170,618.303467 224.654510,612.072571 228.020370,606.029907 
	C230.019333,602.441162 233.022903,600.290894 237.681992,600.177307 
	C244.626099,600.007874 251.580673,599.217285 258.475037,598.280640 
	C272.518799,596.372803 286.192749,598.753479 299.952393,601.049744 
	C311.739899,603.016907 321.724426,599.635193 328.104340,588.915344 
	C333.097443,580.525635 336.223022,571.436584 336.309143,561.529053 
	C336.378662,553.532593 335.938385,545.507935 336.496155,537.549866 
	C336.758240,533.810608 337.894836,529.380432 340.251892,526.668579 
	C351.317841,513.936890 359.401825,499.716400 364.466553,483.646515 
	C365.879883,479.162262 368.414917,474.851440 373.519928,473.839630 
	C380.978455,472.361298 388.536133,470.706512 396.083130,470.537354 
	C403.985138,470.360321 411.190247,468.652893 418.121216,465.193909 
	C422.288147,463.114349 426.189056,459.842712 430.574066,458.996979 
	C439.568481,457.262329 440.803802,450.097595 442.019257,443.591980 
	C442.887451,438.945129 441.924133,433.612000 440.545410,428.949585 
	C434.831268,409.626343 424.929352,392.307251 413.434662,375.934784 
	C398.319916,354.406097 381.966553,333.874207 363.059998,315.462616 
	C360.066315,312.547272 357.967560,308.712921 355.426788,305.265106 
	C362.026520,300.052734 367.665588,300.552216 372.966736,305.587219 
	C375.358215,307.858612 377.345032,310.560547 379.768372,312.792572 
	C382.173676,315.007996 384.618866,317.538055 387.536499,318.767059 
	C394.250854,321.595428 401.089966,324.796417 408.184875,325.932617 
	C433.941467,330.057312 459.685242,330.615112 486.212463,321.866455 
	C491.747253,328.632385 498.140045,335.415222 503.319031,343.024200 
	C510.766602,353.966187 519.851379,362.889313 530.993958,369.933624 
	C534.362183,372.062988 537.802185,373.405121 541.264404,371.456818 
	C549.423035,366.865631 558.621399,367.605225 567.299438,365.744263 
	C574.159729,364.273163 579.658386,366.934662 584.323914,371.699585 
	C587.111084,374.546234 589.609802,377.676666 592.415283,380.503754 
	C600.094238,388.241760 605.947449,397.679352 615.480713,403.723022 
	C627.578186,411.392151 638.976990,420.016693 647.987244,431.418640 
	C660.086243,446.729248 675.372742,458.540100 691.198730,469.600708 
	C698.234192,474.517792 705.736328,479.128204 713.648621,482.350433 
	C727.847229,488.132751 741.704224,494.346039 754.538940,502.819214 
	C761.478821,507.400757 768.987793,510.573761 777.400146,512.111023 
	C795.061707,515.338257 812.417236,513.037170 829.915466,510.991394 
	C848.657288,508.800232 863.382690,500.452240 876.280518,486.536591 
	C886.582581,475.421509 898.793335,465.821655 911.139221,456.910156 
	C933.514771,440.758942 956.885315,425.989410 979.333740,409.934540 
	C994.914856,398.791260 1004.676086,383.128876 1009.764221,364.644592 
	C1011.703979,357.597656 1013.509033,350.513489 1015.356934,343.441437 
	C1018.503418,331.399567 1030.309448,320.998077 1042.841553,320.011078 
	C1054.415283,319.099579 1066.037964,318.732300 1077.646729,318.369415 
	C1086.017456,318.107758 1093.196045,315.333527 1099.134766,309.417358 
	C1103.619873,304.949219 1107.935303,300.296509 1112.605835,296.032043 
	C1119.481201,289.754425 1126.675537,284.105621 1136.434937,282.623627 
	C1150.760132,280.448273 1162.883545,274.024811 1172.673340,262.298798 
	C1174.229736,262.220917 1175.131226,262.341553 1176.371460,263.037842 
	C1185.771362,272.152802 1195.622559,274.998413 1207.542725,269.216125 
	C1211.831177,267.135803 1217.081787,267.038727 1222.270630,266.616150 
	C1228.609985,272.045227 1232.194336,277.960297 1231.980591,285.994873 
	C1231.803833,292.641602 1232.472900,299.313904 1232.224976,305.954620 
	C1232.052368,310.576385 1233.392212,313.771851 1237.885620,315.175262 
	C1241.005371,316.149719 1244.273071,317.732574 1247.363770,317.509186 
	C1255.575562,316.915649 1262.235718,319.537140 1268.362793,324.802399 
	C1273.212158,328.969788 1278.774780,331.837341 1285.542480,331.716309 
	C1294.535278,331.555511 1303.532715,331.670319 1312.528198,331.644714 
	C1327.627808,331.601746 1342.198853,333.900482 1355.733276,341.081390 
	C1365.515747,346.271729 1375.847534,346.041290 1385.515259,341.761627 
	C1394.144531,337.941681 1402.608643,337.292114 1411.715332,338.162842 
	C1420.945923,339.045410 1430.256470,339.517242 1439.525146,339.430573 
	C1445.954224,339.370483 1452.041626,341.211914 1455.789673,345.496887 
	C1465.699829,356.827087 1474.558105,369.077209 1484.245972,381.487305 
	C1480.244507,382.905853 1477.359009,383.719116 1474.650269,384.928345 
	C1466.488037,388.572052 1458.167725,391.952393 1450.332153,396.213654 
	C1440.661621,401.473114 1438.778442,405.763702 1440.760498,415.558716 
	C1444.381104,433.450317 1448.126953,451.317444 1451.983521,469.159607 
	C1452.571411,471.879181 1454.033081,474.409851 1455.295410,477.534882 
	C1459.728149,475.970367 1463.062622,474.598267 1466.512329,473.641052 
	C1469.018066,472.945831 1472.009888,471.828369 1474.206055,472.583313 
	C1482.016113,475.267914 1490.069214,477.841644 1497.118652,482.001953 
	C1507.586182,488.179443 1510.067139,496.787048 1506.782837,509.374146 
	C1505.911987,509.626221 1504.944092,510.205688 1504.036987,510.122437 
	C1495.711426,509.358246 1488.547363,511.549133 1482.159546,517.208313 
	C1477.820557,521.052246 1472.693115,520.887939 1467.183594,518.637939 
	C1460.893799,516.069336 1454.791992,511.672485 1447.208862,514.394775 
	C1440.794678,520.900818 1441.411255,528.703430 1443.480347,536.656555 
	C1445.069458,542.763855 1447.230469,548.734253 1448.571045,554.888855 
	C1449.146973,557.533264 1448.784424,560.637634 1447.996582,563.279053 
	C1444.723145,574.255249 1435.418335,579.888550 1427.188232,586.612610 
	C1422.650635,590.319885 1418.680420,594.942749 1415.258911,599.728149 
	C1412.288208,603.883240 1412.765869,608.516174 1416.826050,612.285278 
	C1421.701294,616.811096 1426.377441,621.566406 1431.430298,625.882141 
	C1437.522339,631.085449 1438.077881,638.632874 1440.302612,645.473755 
	C1440.661133,646.576172 1440.452759,648.479065 1439.713013,649.223755 
	C1434.412720,654.559326 1430.334351,661.224731 1422.311157,663.515808 
	C1412.866943,666.212646 1403.296753,666.838501 1393.653809,666.240906 
	C1382.998779,665.580627 1374.915039,669.170837 1369.655884,678.673767 
	C1368.892822,680.052673 1367.608276,681.142944 1366.867920,682.011536 
	C1360.315552,682.740845 1355.281372,681.003906 1350.234131,677.817810 
	C1346.740234,675.612305 1342.272339,674.203491 1338.145142,673.944641 
	C1333.441528,673.649658 1328.076416,674.115051 1326.069336,682.610596 
	C1328.555786,684.535767 1331.613403,687.147095 1334.910400,689.409546 
	C1344.364624,695.897217 1343.926392,705.434509 1341.493896,714.482666 
	C1336.874146,731.665344 1327.182983,745.603516 1312.272949,755.915466 
	C1306.676758,759.785950 1302.090576,765.116638 1296.180908,770.579407 
	C1300.026611,776.000122 1302.221069,782.502380 1306.523193,784.527771 
	C1320.247681,790.989014 1329.528564,802.393066 1340.467407,811.951538 
	C1350.095459,820.364563 1353.256958,830.431030 1349.654297,843.135559 
	C1347.952881,849.135742 1344.873047,852.362610 1339.366211,853.688293 
	C1327.907837,856.446716 1316.586548,858.632080 1306.504150,849.326050 
	C1302.552856,845.679199 1298.056274,846.190063 1292.716675,848.521973 
	C1281.788574,853.294434 1275.046387,862.082092 1267.588013,870.558350 
	C1260.397705,878.730164 1258.527710,887.348450 1263.388672,896.946533 
	C1270.584595,911.155090 1277.229004,925.785645 1285.889160,939.076111 
	C1298.598389,958.580383 1308.381592,978.981201 1311.488403,1002.132935 
	C1312.281372,1008.041565 1315.005493,1011.666504 1319.552124,1014.905396 
	C1331.724731,1023.577026 1343.720825,1032.496826 1355.056885,1041.526123 
	C1335.831665,1048.310303 1317.442383,1055.210571 1298.789429,1061.303589 
	C1291.302490,1063.749268 1283.255005,1064.533813 1275.425171,1065.852417 
	C1271.504395,1066.512817 1267.503540,1066.722656 1263.531982,1067.053833 
	C1244.673706,1068.627319 1225.827759,1071.217896 1206.949707,1071.484375 
	C1178.004028,1071.893066 1149.035522,1070.709229 1120.077515,1070.151367 
	C1117.762329,1070.106689 1115.406982,1069.889282 1113.150635,1069.389404 
	C1088.820312,1063.998291 1064.460449,1058.727783 1040.209229,1052.998291 
	C1030.064941,1050.601685 1019.974182,1049.267334 1009.585876,1050.213257 
	C994.370117,1051.599121 979.135498,1052.790527 963.936401,1054.335938 
	C959.338074,1054.803467 954.655945,1055.673706 950.312988,1057.209839 
	C933.062500,1063.311401 915.972046,1069.865356 898.727417,1075.984131 
	C894.246521,1077.574219 891.612854,1080.113403 889.993530,1084.613770 
	C884.249390,1100.578247 878.381775,1116.506104 872.143494,1132.282593 
	C866.843689,1145.685669 861.816711,1158.991455 865.797974,1173.755615 
	C865.881897,1174.066895 865.803650,1174.419678 865.817627,1174.752441 
	C866.631042,1194.031006 867.236145,1213.321655 868.331543,1232.584229 
	C869.123291,1246.506592 870.477356,1260.400146 871.747925,1274.291260 
	C872.738831,1285.124634 871.341614,1295.040039 865.542358,1304.821899 
	C845.515381,1338.602173 826.797607,1373.170410 806.318298,1406.666260 
	C794.554199,1425.907471 781.487732,1444.623047 766.900024,1461.783691 
	C754.691467,1476.145630 739.463135,1487.949829 725.494812,1500.802979 
	C716.433533,1509.140625 707.233704,1517.327637 697.674377,1525.599854 
	C697.252869,1525.617432 696.414246,1525.710693 695.997314,1525.167480 
	C674.952698,1512.525879 655.034302,1498.943726 633.536316,1488.665527 
	C598.497559,1471.913574 562.391907,1457.399902 526.802612,1441.791016 
	C492.407471,1426.705933 457.793365,1411.952271 429.701019,1385.901978 
	C424.258179,1380.854736 417.960968,1377.672485 410.857941,1375.320312 
	C400.474060,1371.881714 390.379028,1367.520020 380.313232,1363.197144 
	C376.404419,1361.518555 372.264893,1359.510254 369.348053,1356.550659 
	C360.493896,1347.566650 351.222076,1338.730835 343.953644,1328.526367 
	C337.520294,1319.494385 329.474609,1315.396851 319.251617,1314.023804 
	C316.300079,1313.627197 313.275146,1313.696289 310.283630,1313.691650 
	C292.634827,1313.664307 274.957306,1313.046753 257.344635,1313.844971 
	C237.332306,1314.751831 218.353867,1311.025269 199.965240,1303.727295 
	C196.510086,1302.356079 192.825699,1299.831909 190.845886,1296.796997 
	C184.808655,1287.541748 178.286911,1278.784912 169.978775,1271.476807 
	C166.509537,1268.425171 166.039337,1265.279907 167.392853,1260.841675 
	C170.683350,1250.052490 173.036758,1238.976196 176.368469,1228.201416 
	C178.350159,1221.792725 178.172745,1216.137085 175.372849,1209.952026 
	C168.115295,1193.919678 161.018204,1177.792725 154.552811,1161.428711 
	C145.831116,1139.353882 135.052078,1118.525269 119.906593,1100.158569 
	C115.922203,1095.326660 111.711151,1090.530273 106.912445,1086.552002 
	C95.916290,1077.435913 84.579384,1068.721924 73.224754,1060.049072 
	C54.196518,1045.514893 35.383541,1030.858765 20.756453,1011.482666 
	C13.999340,1002.531738 5.557616,994.760437 5.983311,982.253967 
	C6.019949,981.177673 4.989721,979.982117 4.216185,979.037659 
	C4.076909,978.867493 2.768584,979.654724 1.999997,980.000000 
	C2.000000,978.500000 2.000000,977.000000 2.546511,975.408569 
	C6.183631,972.263672 5.845375,969.999268 2.000000,968.000000 
z"/>

<path data-name="Djebem" style="fill: {#68F261}" fill="#68F261" opacity="1.000000" stroke="none" 
	d="
M698.095886,1525.582153 
	C707.233704,1517.327637 716.433533,1509.140625 725.494812,1500.802979 
	C739.463135,1487.949829 754.691467,1476.145630 766.900024,1461.783691 
	C781.487732,1444.623047 794.554199,1425.907471 806.318298,1406.666260 
	C826.797607,1373.170410 845.515381,1338.602173 865.542358,1304.821899 
	C871.341614,1295.040039 872.738831,1285.124634 871.747925,1274.291260 
	C870.477356,1260.400146 869.123291,1246.506592 868.331543,1232.584229 
	C867.236145,1213.321655 866.631042,1194.031006 865.817627,1174.752441 
	C865.803650,1174.419678 865.881897,1174.066895 865.797974,1173.755615 
	C861.816711,1158.991455 866.843689,1145.685669 872.143494,1132.282593 
	C878.381775,1116.506104 884.249390,1100.578247 889.993530,1084.613770 
	C891.612854,1080.113403 894.246521,1077.574219 898.727417,1075.984131 
	C915.972046,1069.865356 933.062500,1063.311401 950.312988,1057.209839 
	C954.655945,1055.673706 959.338074,1054.803467 963.936401,1054.335938 
	C979.135498,1052.790527 994.370117,1051.599121 1009.585876,1050.213257 
	C1019.974182,1049.267334 1030.064941,1050.601685 1040.209229,1052.998291 
	C1064.460449,1058.727783 1088.820312,1063.998291 1113.150635,1069.389404 
	C1115.406982,1069.889282 1117.762329,1070.106689 1120.077515,1070.151367 
	C1149.035522,1070.709229 1178.004028,1071.893066 1206.949707,1071.484375 
	C1225.827759,1071.217896 1244.673706,1068.627319 1263.531982,1067.053833 
	C1267.503540,1066.722656 1271.504395,1066.512817 1275.425171,1065.852417 
	C1283.255005,1064.533813 1291.302490,1063.749268 1298.789429,1061.303589 
	C1317.442383,1055.210571 1335.831665,1048.310303 1355.777588,1041.769287 
	C1370.781494,1048.877686 1383.900269,1056.205444 1394.732300,1067.655273 
	C1401.754395,1075.077881 1411.440552,1078.643799 1422.804077,1076.657349 
	C1433.872314,1074.722290 1445.246582,1074.352539 1456.511353,1073.852173 
	C1459.527466,1073.718140 1463.157715,1074.907349 1465.604370,1076.711670 
	C1474.069580,1082.953979 1483.615601,1086.770020 1493.442139,1089.894653 
	C1508.388794,1094.647827 1523.279419,1097.781494 1539.409546,1094.373169 
	C1552.605469,1091.584717 1566.411011,1090.413574 1579.902100,1090.689087 
	C1590.712646,1090.909790 1597.368774,1086.068604 1603.451050,1078.663208 
	C1604.712158,1077.127563 1605.870850,1075.438965 1606.731201,1073.654419 
	C1611.814575,1063.109375 1620.301025,1057.152954 1631.334961,1053.636963 
	C1641.748047,1050.318848 1655.644165,1052.818237 1663.255005,1060.736694 
	C1667.630859,1065.289429 1671.234253,1070.896973 1676.307739,1074.407227 
	C1690.774658,1084.416016 1705.830566,1093.571655 1720.625366,1103.108643 
	C1726.725708,1107.041016 1732.810181,1111.004028 1738.792725,1115.111938 
	C1743.983154,1118.676025 1748.825073,1122.791504 1754.216309,1125.998413 
	C1756.487427,1127.349487 1760.261108,1128.161621 1762.521118,1127.221802 
	C1777.208496,1121.112671 1793.223267,1121.731323 1808.236816,1117.623291 
	C1814.360107,1115.948120 1819.825806,1116.547852 1825.646484,1118.603149 
	C1839.978394,1123.663086 1846.267700,1134.625610 1842.595703,1149.286377 
	C1841.718262,1152.790161 1840.480225,1156.265381 1838.930420,1159.526733 
	C1835.078613,1167.632690 1830.953491,1175.608765 1826.934204,1183.635010 
	C1820.516357,1196.450806 1814.015015,1209.519287 1812.191650,1223.695435 
	C1810.680786,1235.441528 1807.482300,1245.387695 1798.480347,1253.218750 
	C1797.000488,1254.506226 1796.134766,1256.500366 1794.653320,1257.785156 
	C1791.395508,1260.610840 1790.418823,1264.033936 1790.043701,1268.292358 
	C1788.698975,1283.552368 1785.538696,1298.445679 1780.579712,1313.012939 
	C1778.145264,1320.164185 1777.441528,1327.889282 1775.268555,1335.149292 
	C1772.972168,1342.820679 1774.999023,1348.288696 1780.889526,1353.643066 
	C1798.343262,1369.508057 1815.354248,1385.859741 1832.599121,1401.956055 
	C1834.531616,1403.759766 1837.056885,1404.936890 1838.948242,1406.774292 
	C1841.911377,1409.653076 1845.318604,1409.882324 1849.111938,1409.523804 
	C1856.698608,1408.806396 1864.374878,1408.740112 1871.883179,1407.566528 
	C1880.694336,1406.189331 1887.262939,1409.599365 1893.683350,1416.139404 
	C1893.683350,1427.504028 1894.063965,1439.494507 1893.538208,1451.445312 
	C1893.230713,1458.435669 1895.081299,1463.039917 1901.153198,1467.169800 
	C1911.301392,1474.071899 1920.959229,1481.799683 1930.202759,1489.889282 
	C1936.093140,1495.044312 1942.855225,1501.086304 1941.404053,1509.815552 
	C1939.820923,1519.338135 1940.951172,1528.188477 1944.317383,1537.967529 
	C1938.371826,1542.362427 1932.928955,1547.343628 1926.647583,1550.801270 
	C1917.532837,1555.818481 1913.679077,1565.819336 1905.480957,1571.579224 
	C1904.495361,1572.271851 1904.135864,1574.739990 1904.418335,1576.205200 
	C1905.977295,1584.289673 1901.419556,1588.481201 1895.112793,1591.800537 
	C1893.380249,1592.712524 1891.850464,1594.009766 1889.679321,1595.508667 
	C1889.679321,1601.901123 1889.352783,1608.560913 1889.761353,1615.175537 
	C1890.282837,1623.620117 1882.169800,1626.395752 1878.445557,1633.611450 
	C1880.811890,1639.218628 1882.817871,1645.976074 1886.321411,1651.838501 
	C1892.739502,1662.577271 1893.695923,1672.475830 1886.255859,1683.275024 
	C1878.545532,1694.466064 1872.027466,1706.471680 1864.557739,1717.838379 
	C1860.571899,1723.903442 1855.378296,1729.166748 1851.273193,1735.164062 
	C1846.628418,1741.949463 1847.155396,1745.110229 1852.536987,1751.877930 
	C1853.556763,1753.160278 1854.621948,1754.511230 1855.217773,1756.008911 
	C1858.428223,1764.078613 1864.280273,1769.776367 1871.774414,1774.279175 
	C1871.578003,1777.372314 1871.393433,1780.280884 1871.145630,1784.184326 
	C1854.084595,1783.513916 1850.041016,1797.620850 1843.048950,1808.458130 
	C1841.793701,1810.403687 1840.938110,1812.608032 1839.907104,1814.697632 
	C1835.421143,1823.790283 1837.227051,1830.690918 1845.398071,1836.946533 
	C1854.124878,1843.627808 1863.416992,1847.668335 1874.860962,1846.430908 
	C1884.924194,1845.342896 1894.643921,1847.204224 1902.877563,1853.062500 
	C1904.968872,1858.944824 1903.211914,1862.965088 1898.878906,1866.605469 
	C1894.817017,1870.018066 1890.492798,1873.592896 1887.781250,1878.014404 
	C1884.623047,1883.164185 1880.620361,1889.658936 1881.365112,1894.953735 
	C1882.945923,1906.192505 1890.362549,1915.173218 1900.593628,1920.186279 
	C1910.089111,1924.838989 1920.260254,1928.590332 1930.542236,1930.984497 
	C1936.870483,1932.457764 1944.712158,1934.360596 1950.456421,1928.785034 
	C1957.580688,1921.869751 1964.426514,1914.741943 1968.037598,1904.946533 
	C1972.636230,1892.472412 1978.844604,1880.739746 1987.578003,1870.769653 
	C2000.908203,1869.915161 2000.908203,1869.915161 2012.289551,1876.072388 
	C2020.286987,1880.398926 2028.105347,1879.238525 2034.714233,1872.730103 
	C2036.613892,1870.859253 2038.159668,1868.192627 2040.435181,1867.223999 
	C2046.690063,1864.560913 2053.273682,1860.761597 2059.675537,1860.857422 
	C2066.940430,1860.965942 2074.149414,1864.811768 2080.664795,1866.812500 
	C2083.299072,1873.329956 2082.735352,1878.085327 2077.637207,1881.920410 
	C2076.117676,1883.063599 2074.665039,1884.801025 2074.055908,1886.567627 
	C2069.701660,1899.194946 2069.925049,1911.941162 2073.824463,1924.630615 
	C2074.265625,1926.066284 2075.408936,1927.631714 2076.674072,1928.409058 
	C2082.038330,1931.704956 2087.240967,1935.910767 2093.125244,1937.553711 
	C2100.848633,1939.710205 2105.573242,1944.432617 2110.058838,1950.359741 
	C2108.503662,1954.406006 2106.946533,1958.061157 2105.689209,1961.816650 
	C2103.392578,1968.675293 2105.766846,1976.070312 2111.748535,1979.913574 
	C2122.452393,1986.790649 2133.957031,1987.880127 2146.000000,1984.000000 
	C2146.000000,1991.385864 2146.000000,1998.771606 2145.348633,2006.558960 
	C2141.356689,2017.814087 2134.637939,2025.989868 2125.118896,2032.066406 
	C2123.491455,2033.105225 2122.242676,2034.848389 2121.050537,2036.439575 
	C2115.914062,2043.295410 2108.484375,2046.619141 2100.569824,2047.637207 
	C2095.074707,2048.344238 2091.289307,2050.470215 2088.140869,2054.441650 
	C2082.513184,2061.540527 2075.381836,2064.273193 2066.284912,2063.800049 
	C2051.990723,2063.056885 2037.730469,2063.712646 2023.553833,2066.348633 
	C2002.884521,2070.191895 1984.169922,2067.211914 1968.419678,2051.349365 
	C1960.609985,2043.484253 1950.771240,2042.047363 1940.073730,2047.605103 
	C1925.914185,2054.961426 1910.955811,2060.816162 1896.992676,2068.500977 
	C1886.876953,2074.068604 1877.307373,2075.862061 1866.675659,2071.157715 
	C1864.873169,2070.359863 1862.666382,2070.395996 1860.963013,2069.466553 
	C1852.562012,2064.882324 1843.697876,2060.869873 1836.070435,2055.209717 
	C1824.885498,2046.909546 1814.548218,2037.454956 1803.975464,2028.346436 
	C1797.984009,2023.184570 1791.302856,2022.147339 1784.558960,2025.697266 
	C1774.129150,2031.187256 1763.165649,2032.166992 1751.697021,2031.774902 
	C1743.396118,2031.491089 1735.040283,2031.785522 1726.752808,2032.406860 
	C1716.878540,2033.147095 1706.899292,2033.857544 1698.062012,2039.196167 
	C1692.949341,2042.284912 1687.799316,2045.311768 1682.671387,2048.375244 
	C1675.470459,2052.677246 1668.034058,2056.040527 1659.382935,2056.413574 
	C1653.791504,2056.654785 1648.073853,2057.250000 1642.706299,2058.742676 
	C1630.241943,2062.208740 1618.076172,2066.774170 1605.569580,2070.056396 
	C1585.936401,2075.208984 1566.416870,2076.791504 1547.442139,2066.641357 
	C1540.092041,2062.709473 1531.899536,2060.846436 1523.313843,2061.652832 
	C1510.478760,2062.858398 1499.093506,2058.468994 1488.349731,2052.050049 
	C1484.279907,2049.618652 1480.644287,2048.461914 1475.412231,2049.242188 
	C1463.249512,2051.055176 1452.488647,2047.963745 1445.120972,2036.647705 
	C1442.087036,2031.988037 1437.879395,2027.897339 1433.578857,2024.296387 
	C1423.491943,2015.850830 1409.246460,2014.878906 1399.428345,2025.076172 
	C1397.141602,2027.451172 1394.514893,2029.499023 1391.573364,2031.228027 
	C1371.280151,2021.139404 1356.889526,2006.864258 1351.378174,1984.821655 
	C1350.833740,1982.643555 1349.384521,1980.617432 1348.067627,1978.720215 
	C1343.259033,1971.792969 1340.800415,1970.763184 1333.054443,1974.122437 
	C1322.157349,1978.848145 1311.222534,1979.141846 1299.865112,1976.393677 
	C1292.436768,1974.596313 1284.794922,1973.659302 1277.401367,1971.747192 
	C1271.403564,1970.195801 1266.039429,1971.267212 1261.315552,1974.651123 
	C1247.484985,1984.557617 1233.044434,1985.949341 1216.827026,1980.793457 
	C1203.207764,1976.463867 1188.868652,1975.968506 1174.436646,1977.309082 
	C1169.549316,1977.763062 1162.714478,1976.752075 1159.674072,1973.604858 
	C1152.958740,1966.653687 1145.682495,1958.887329 1149.646851,1947.256714 
	C1150.582764,1944.511230 1149.610596,1941.121094 1150.524292,1938.361084 
	C1152.062866,1933.712524 1150.075562,1930.808105 1147.060791,1927.822632 
	C1141.378174,1922.195190 1136.118896,1916.115234 1130.201294,1910.755859 
	C1121.734619,1903.088013 1117.017090,1893.366577 1113.421387,1882.872070 
	C1106.735229,1863.358398 1100.136719,1843.814331 1093.322754,1824.345459 
	C1089.246948,1812.699951 1085.977295,1800.905762 1084.581909,1788.607056 
	C1083.236816,1776.751953 1090.605713,1762.380981 1100.977539,1756.631348 
	C1107.369751,1753.087891 1113.700684,1749.406128 1119.855225,1745.467896 
	C1131.734497,1737.866455 1132.884888,1727.718384 1123.207520,1717.788330 
	C1122.044800,1716.595093 1120.968750,1715.258545 1119.625000,1714.311157 
	C1113.171997,1709.761719 1111.347778,1704.161499 1113.110596,1696.179321 
	C1115.227295,1686.595093 1114.104370,1677.220825 1107.456665,1668.860840 
	C1103.571533,1663.974976 1101.547363,1657.649902 1097.945312,1652.489258 
	C1091.597900,1643.395142 1084.553101,1635.054443 1071.716309,1635.646240 
	C1068.835571,1635.779053 1065.677124,1635.026123 1063.016724,1633.846313 
	C1054.577271,1630.103516 1046.139282,1630.744629 1037.802856,1633.567017 
	C1032.165405,1635.475464 1026.737671,1638.056274 1021.331116,1640.582397 
	C1007.594482,1647.000244 993.775513,1647.814331 980.046570,1640.946777 
	C973.523438,1637.683716 967.016846,1634.159424 961.157288,1629.861328 
	C955.110535,1625.425659 949.261169,1623.616943 941.701843,1625.171631 
	C935.924072,1626.359985 929.744385,1625.475830 923.758850,1625.799072 
	C914.474792,1626.300293 905.139771,1626.567383 895.942993,1627.802246 
	C883.364136,1629.491333 870.885559,1631.313599 858.352295,1627.846191 
	C849.175598,1625.307373 839.121460,1626.064087 830.953918,1619.691406 
	C819.465820,1610.727661 805.858459,1605.587280 792.048401,1602.267090 
	C775.297302,1598.239990 758.008789,1596.443237 740.947021,1593.717651 
	C737.337891,1593.140991 733.682739,1592.177490 730.084961,1592.318115 
	C711.817627,1593.031616 704.302856,1579.978638 704.432312,1564.798706 
	C704.548096,1551.238647 701.695984,1538.410645 698.095886,1525.582153 
z"/>
<path data-name="Bayangam" style="fill: {#714691}" fill="#714691" opacity="1.000000" stroke="none" 
	d="
M697.674377,1525.599854 
	C701.695984,1538.410645 704.548096,1551.238647 704.432312,1564.798706 
	C704.302856,1579.978638 711.817627,1593.031616 730.084961,1592.318115 
	C733.682739,1592.177490 737.337891,1593.140991 740.947021,1593.717651 
	C758.008789,1596.443237 775.297302,1598.239990 792.048401,1602.267090 
	C805.858459,1605.587280 819.465820,1610.727661 830.953918,1619.691406 
	C839.121460,1626.064087 849.175598,1625.307373 858.352295,1627.846191 
	C870.885559,1631.313599 883.364136,1629.491333 895.942993,1627.802246 
	C905.139771,1626.567383 914.474792,1626.300293 923.758850,1625.799072 
	C929.744385,1625.475830 935.924072,1626.359985 941.701843,1625.171631 
	C949.261169,1623.616943 955.110535,1625.425659 961.157288,1629.861328 
	C967.016846,1634.159424 973.523438,1637.683716 980.046570,1640.946777 
	C993.775513,1647.814331 1007.594482,1647.000244 1021.331116,1640.582397 
	C1026.737671,1638.056274 1032.165405,1635.475464 1037.802856,1633.567017 
	C1046.139282,1630.744629 1054.577271,1630.103516 1063.016724,1633.846313 
	C1065.677124,1635.026123 1068.835571,1635.779053 1071.716309,1635.646240 
	C1084.553101,1635.054443 1091.597900,1643.395142 1097.945312,1652.489258 
	C1101.547363,1657.649902 1103.571533,1663.974976 1107.456665,1668.860840 
	C1114.104370,1677.220825 1115.227295,1686.595093 1113.110596,1696.179321 
	C1111.347778,1704.161499 1113.171997,1709.761719 1119.625000,1714.311157 
	C1120.968750,1715.258545 1122.044800,1716.595093 1123.207520,1717.788330 
	C1132.884888,1727.718384 1131.734497,1737.866455 1119.855225,1745.467896 
	C1113.700684,1749.406128 1107.369751,1753.087891 1100.977539,1756.631348 
	C1090.605713,1762.380981 1083.236816,1776.751953 1084.581909,1788.607056 
	C1085.977295,1800.905762 1089.246948,1812.699951 1093.322754,1824.345459 
	C1100.136719,1843.814331 1106.735229,1863.358398 1113.421387,1882.872070 
	C1117.017090,1893.366577 1121.734619,1903.088013 1130.201294,1910.755859 
	C1136.118896,1916.115234 1141.378174,1922.195190 1147.060791,1927.822632 
	C1150.075562,1930.808105 1152.062866,1933.712524 1150.524292,1938.361084 
	C1149.610596,1941.121094 1150.582764,1944.511230 1149.646851,1947.256714 
	C1145.682495,1958.887329 1152.958740,1966.653687 1159.674072,1973.604858 
	C1162.714478,1976.752075 1169.549316,1977.763062 1174.436646,1977.309082 
	C1188.868652,1975.968506 1203.207764,1976.463867 1216.827026,1980.793457 
	C1233.044434,1985.949341 1247.484985,1984.557617 1261.315552,1974.651123 
	C1266.039429,1971.267212 1271.403564,1970.195801 1277.401367,1971.747192 
	C1284.794922,1973.659302 1292.436768,1974.596313 1299.865112,1976.393677 
	C1311.222534,1979.141846 1322.157349,1978.848145 1333.054443,1974.122437 
	C1340.800415,1970.763184 1343.259033,1971.792969 1348.067627,1978.720215 
	C1349.384521,1980.617432 1350.833740,1982.643555 1351.378174,1984.821655 
	C1356.889526,2006.864258 1371.280151,2021.139404 1391.284180,2031.851074 
	C1386.026367,2038.756470 1380.245483,2044.291382 1375.224731,2050.446289 
	C1367.246338,2060.226807 1360.208740,2070.796875 1351.952515,2080.321777 
	C1345.299438,2087.996826 1336.963501,2093.391602 1325.841187,2092.330078 
	C1321.217285,2091.888672 1316.472778,2092.661377 1311.859497,2092.167480 
	C1303.745605,2091.299561 1296.574585,2093.834229 1290.250366,2098.254883 
	C1286.285522,2101.026367 1283.162598,2105.120605 1280.013672,2108.913818 
	C1274.734131,2115.273193 1268.744873,2121.332275 1264.881104,2128.502197 
	C1260.510254,2136.612793 1257.873291,2145.720947 1255.080200,2154.583740 
	C1254.173096,2157.461914 1254.442383,2161.164307 1255.401855,2164.086670 
	C1257.696655,2171.077393 1261.293701,2177.354492 1266.961914,2182.439453 
	C1279.321533,2193.527344 1291.614258,2204.644287 1302.250366,2217.552002 
	C1316.060303,2234.311768 1334.616211,2244.729248 1353.672363,2254.450684 
	C1360.984009,2258.180664 1368.748779,2262.256348 1374.201782,2268.129150 
	C1384.308716,2279.014160 1389.863037,2292.916260 1392.065186,2307.501953 
	C1394.338379,2322.558594 1395.570068,2337.847656 1396.077759,2353.074219 
	C1396.565552,2367.702637 1402.529175,2378.144775 1414.802490,2385.970459 
	C1422.597412,2390.940674 1431.371460,2392.557129 1439.656128,2395.814941 
	C1456.671143,2402.505859 1473.383057,2409.977783 1490.114624,2417.366455 
	C1492.719360,2418.516846 1495.171143,2420.588867 1497.012573,2422.801758 
	C1512.330444,2441.208008 1528.172974,2459.237305 1542.466309,2478.416748 
	C1552.916504,2492.439209 1566.367798,2499.960449 1582.733154,2503.875977 
	C1593.747192,2506.510986 1604.417725,2510.061035 1614.145874,2516.190674 
	C1624.901001,2522.967285 1625.337646,2527.522949 1616.341797,2537.138916 
	C1610.312500,2543.583740 1603.604492,2548.822266 1595.413086,2552.074219 
	C1583.087158,2556.968262 1577.166504,2565.750244 1578.189819,2579.206787 
	C1578.609863,2584.729736 1578.259399,2590.311035 1578.259399,2596.924072 
	C1569.634155,2594.391357 1561.108154,2593.953613 1555.514404,2589.678711 
	C1549.624268,2585.177490 1546.536987,2577.008545 1542.091675,2570.239014 
	C1538.739990,2570.239014 1534.962646,2569.575928 1531.509644,2570.352783 
	C1515.678467,2573.915771 1500.678467,2571.336670 1485.670654,2565.912354 
	C1477.493286,2562.956787 1468.735962,2563.007568 1460.113403,2565.024658 
	C1452.673706,2566.765137 1445.096313,2567.987793 1437.757446,2570.066162 
	C1431.773560,2571.760742 1426.020630,2574.303223 1420.222778,2576.614014 
	C1414.086914,2579.059814 1408.205322,2582.371094 1401.880859,2584.066650 
	C1390.389038,2587.147705 1378.702393,2589.582275 1367.003174,2591.788574 
	C1353.206055,2594.390381 1347.629395,2602.891602 1348.146118,2616.290771 
	C1348.373779,2622.192871 1346.135254,2626.234375 1340.420654,2628.786865 
	C1334.979736,2631.216553 1329.901123,2634.516113 1324.856689,2637.736084 
	C1323.535522,2638.579590 1322.932739,2640.548340 1322.000000,2642.000000 
	C1313.286255,2642.000000 1304.572388,2642.000000 1294.929321,2642.000000 
	C1293.438599,2640.325928 1293.350708,2638.183838 1292.236450,2637.056641 
	C1286.423462,2631.177246 1281.245728,2624.563477 1273.179321,2621.233398 
	C1270.978638,2620.324463 1269.309692,2617.771484 1267.777710,2615.692383 
	C1266.010376,2613.293945 1264.581665,2610.630127 1263.149536,2608.003418 
	C1255.864502,2594.641602 1246.479980,2583.249023 1233.530029,2574.878906 
	C1227.116455,2570.732910 1220.832520,2566.239990 1215.125732,2561.186035 
	C1208.870483,2555.645996 1201.771240,2552.908203 1193.720703,2551.694580 
	C1189.468628,2551.053467 1185.261719,2549.938232 1181.128174,2548.719727 
	C1170.785278,2545.670410 1162.046265,2539.962646 1157.944702,2529.820557 
	C1151.826172,2514.690430 1140.296265,2505.368896 1126.861450,2497.531494 
	C1123.446899,2495.539551 1120.331543,2492.997070 1117.227417,2490.520996 
	C1113.922607,2487.885010 1113.414307,2484.151367 1114.837402,2480.549561 
	C1116.903076,2475.321045 1118.792847,2469.745605 1122.117920,2465.346191 
	C1130.882446,2453.750488 1134.781250,2440.693848 1136.000122,2426.524658 
	C1136.339600,2422.578125 1136.975098,2418.657227 1137.542969,2414.188232 
	C1126.553711,2402.495605 1114.256348,2391.612793 1099.268555,2385.088135 
	C1086.461792,2379.512695 1075.738770,2371.567627 1065.549194,2362.497314 
	C1058.845093,2356.529541 1051.758301,2350.865479 1045.816528,2344.197510 
	C1036.751831,2334.025635 1025.529663,2330.592529 1012.661621,2331.947266 
	C996.446533,2333.654785 981.598328,2329.335693 967.432983,2322.346191 
	C959.108215,2318.238525 951.195862,2313.197021 943.432495,2308.069336 
	C927.083618,2297.271240 909.318970,2288.538330 894.732483,2275.162598 
	C890.231567,2271.035156 884.793335,2271.354736 879.626465,2271.878174 
	C866.424194,2273.216797 853.247070,2274.921143 840.125549,2276.911865 
	C817.211975,2280.387451 794.689209,2280.220215 772.186707,2273.421387 
	C758.248169,2269.209961 743.741943,2266.879395 729.495422,2263.682861 
	C726.903259,2263.101318 724.225891,2262.688721 721.776611,2261.720703 
	C714.399597,2258.805420 707.120300,2257.738037 700.020264,2262.269043 
	C694.929688,2265.517822 691.459412,2263.488037 688.106934,2259.367676 
	C683.071960,2253.179688 677.356934,2247.510010 672.682922,2241.073730 
	C667.993958,2234.617188 661.947510,2230.554688 654.898560,2227.208008 
	C605.303284,2203.661133 555.906738,2179.691406 506.148163,2156.496826 
	C497.273895,2152.360107 487.140808,2150.360840 477.361023,2148.846436 
	C456.350281,2145.592041 438.090881,2137.474854 423.508820,2121.758789 
	C411.594757,2108.917969 397.684418,2100.371582 379.439911,2100.799316 
	C377.504028,2100.844727 375.549805,2100.106689 372.354462,2099.491211 
	C376.542877,2091.172852 380.163574,2082.989502 386.646820,2076.920898 
	C401.077087,2063.413330 412.885956,2047.739380 424.831238,2032.172974 
	C427.137360,2029.167603 429.791534,2024.988892 429.457001,2021.633423 
	C427.417816,2001.178345 437.244354,1984.263672 444.908661,1966.722534 
	C448.636353,1958.190796 452.622498,1949.670288 457.514343,1941.778687 
	C462.021820,1934.507080 467.737396,1927.950806 473.219482,1921.326660 
	C478.154541,1915.363159 481.795563,1908.870239 484.505127,1901.577515 
	C493.315125,1877.866333 503.381226,1854.759888 517.532837,1833.573364 
	C521.679199,1827.365723 525.951660,1821.656128 532.397034,1817.867920 
	C543.224121,1811.504150 550.343018,1802.612915 553.185486,1790.118408 
	C556.279053,1776.520142 563.553345,1765.064941 573.427429,1755.355713 
	C577.165771,1751.679565 577.556946,1748.085449 577.035767,1742.905884 
	C575.839844,1731.021606 576.640137,1718.945190 575.623535,1707.032471 
	C573.519409,1682.376587 582.201294,1659.913208 588.767944,1636.969360 
	C596.372925,1610.397827 614.188293,1589.792847 629.243042,1567.584229 
	C630.434204,1565.827026 632.646973,1564.554321 634.643311,1563.592651 
	C639.432861,1561.285522 644.249695,1558.915771 649.280090,1557.249146 
	C667.456543,1551.226929 681.434875,1538.927246 696.006104,1526.284180 
	C696.414246,1525.710693 697.252869,1525.617432 697.674377,1525.599854 
z"/>
</svg>