<svg version="1.1" id="Layer_1" xmlns="http://www.w3.org/2000/svg" xmlns:xlink="http://www.w3.org/1999/xlink" x="0px" y="0px"
	 width="100%" viewBox="0 0 2251 2265" enable-background="new 0 0 2251 2265" xml:space="preserve">


<path 
	data-name="Mvangan"
fill="#4FCDDB" opacity="1.000000" stroke="none" 
	d="
M1633.173096,1591.256470 
	C1635.626709,1594.336304 1638.312988,1597.260132 1640.497192,1600.520508 
	C1659.375610,1628.698364 1678.238647,1656.887329 1696.906616,1685.204590 
	C1700.137939,1690.106079 1703.852295,1693.391968 1709.551025,1695.496582 
	C1779.001221,1721.144775 1848.294556,1747.218628 1917.798828,1772.717651 
	C1925.705933,1775.618774 1934.600220,1776.242554 1943.118652,1776.993774 
	C1983.443604,1780.549683 2023.850220,1783.267944 2064.110352,1787.421387 
	C2077.501953,1788.802856 2090.610840,1793.322021 2103.734131,1796.835693 
	C2153.451172,1810.147095 2203.121338,1823.634399 2253.404297,1837.528076 
	C2254.000000,1838.000000 2254.000000,1839.000000 2253.381348,1839.791992 
	C2248.683350,1845.742920 2245.428467,1852.024048 2240.318115,1855.781006 
	C2233.737305,1860.619019 2230.908936,1865.326538 2233.562500,1873.302856 
	C2235.813477,1880.068848 2233.806152,1885.823364 2227.563965,1889.668335 
	C2222.767578,1892.622925 2217.886963,1895.445435 2212.985107,1898.223267 
	C2205.648682,1902.380615 2198.953613,1906.765015 2197.153320,1916.135742 
	C2196.132080,1921.450928 2192.284424,1925.182861 2187.293213,1928.000732 
	C2180.103027,1932.060181 2173.309082,1936.838867 2166.462646,1941.482788 
	C2163.254395,1943.658569 2161.390381,1946.915649 2159.154297,1950.121704 
	C2153.072998,1958.839966 2145.234131,1966.416016 2137.949463,1974.191162 
	C2132.308594,1980.211548 2123.334717,1983.101929 2115.862793,1987.418213 
	C2113.890137,1988.557739 2111.636475,1989.489624 2110.122314,1991.093262 
	C2104.460938,1997.088745 2098.983887,2003.263306 2093.568359,2009.484375 
	C2088.079834,2015.789307 2081.414551,2019.366333 2072.963379,2020.206421 
	C2069.193359,2020.581177 2064.261719,2021.531128 2062.155518,2024.102417 
	C2055.633789,2032.064819 2046.393677,2033.280762 2037.651855,2035.971436 
	C2036.098877,2036.449463 2033.608887,2036.011841 2032.958862,2036.960815 
	C2027.430176,2045.033325 2020.973145,2041.395508 2014.375610,2038.980225 
	C2005.383789,2035.688599 1997.035278,2037.174927 1989.562500,2043.193359 
	C1981.556519,2049.640869 1973.617065,2056.171387 1965.594482,2062.598145 
	C1956.986572,2069.493896 1947.710327,2074.596680 1936.091553,2073.264648 
	C1935.174927,2073.159424 1933.697876,2073.373047 1933.303955,2073.975586 
	C1928.716431,2080.997070 1920.235962,2081.223877 1914.021973,2084.811279 
	C1912.643555,2094.071777 1909.745728,2098.710938 1903.692017,2098.704102 
	C1899.544678,2098.699463 1897.310913,2099.512451 1896.454102,2103.367676 
	C1895.581055,2107.296387 1897.473877,2109.719238 1901.229614,2110.845947 
	C1895.784546,2117.094727 1890.608887,2123.246582 1891.624023,2132.285400 
	C1892.058228,2136.152100 1891.312744,2138.947266 1886.443237,2140.324951 
	C1881.043701,2141.852783 1877.303223,2147.642334 1878.389893,2151.400146 
	C1879.811890,2156.317383 1882.063721,2160.994873 1883.548096,2164.739746 
	C1880.070435,2166.588135 1875.465820,2167.916260 1872.444580,2170.865967 
	C1865.392090,2177.751953 1857.636597,2183.336426 1849.339844,2186.404053 
	C1850.938721,2191.679199 1853.297729,2196.222168 1853.454956,2200.840088 
	C1853.632568,2206.048828 1861.475708,2209.207031 1857.298950,2214.705078 
	C1852.387329,2216.819580 1848.029175,2218.696045 1843.761719,2220.533203 
	C1844.534790,2223.166748 1845.090820,2225.060791 1845.631836,2226.904297 
	C1842.796997,2226.352783 1840.760742,2225.956543 1839.225830,2225.657715 
	C1838.761963,2230.633057 1837.203003,2235.191650 1838.280518,2239.005127 
	C1839.510864,2243.360107 1844.293579,2246.619629 1843.127319,2252.302246 
	C1835.010498,2254.523926 1833.236450,2244.616455 1826.337524,2244.459717 
	C1822.921265,2252.032959 1815.289673,2252.350098 1808.481689,2253.816162 
	C1805.792725,2254.395020 1802.346680,2254.006592 1799.912109,2252.758545 
	C1791.396362,2248.392090 1790.570068,2248.340576 1783.527710,2256.002197 
	C1775.217041,2254.291016 1767.884766,2246.318359 1758.001953,2251.081299 
	C1754.832397,2256.205566 1755.273560,2262.084717 1756.000000,2268.000000 
	C1754.500000,2268.000000 1753.000000,2268.000000 1751.184204,2267.322266 
	C1749.316406,2266.128174 1747.764404,2265.611572 1746.212402,2265.095215 
	C1746.141724,2266.063477 1746.070923,2267.031738 1746.000000,2268.000000 
	C1745.111084,2268.000000 1744.222168,2268.000000 1743.262573,2267.344971 
	C1741.704590,2262.939209 1740.217285,2259.188232 1738.451416,2254.734863 
	C1735.306152,2256.018799 1731.556641,2257.556885 1727.800903,2259.080078 
	C1724.504028,2260.417480 1722.074707,2260.555664 1719.367432,2257.019775 
	C1717.117676,2254.081543 1713.217285,2251.899170 1709.609253,2250.617676 
	C1702.668457,2248.152588 1699.844482,2251.297119 1701.440308,2258.814941 
	C1701.614868,2259.637207 1701.027100,2260.621094 1700.756836,2261.670654 
	C1696.910156,2260.421631 1693.024780,2257.766602 1689.702759,2258.345459 
	C1680.129517,2260.013672 1670.935669,2259.307617 1662.046997,2256.613281 
	C1661.451538,2264.195801 1654.483032,2257.073730 1652.572144,2261.425537 
	C1652.400757,2263.394775 1652.200439,2265.697510 1652.000000,2268.000000 
	C1650.500000,2268.000000 1649.000000,2268.000000 1646.632935,2267.257324 
	C1640.856812,2265.332520 1635.998779,2263.791016 1631.022217,2263.083740 
	C1627.177002,2262.537109 1623.269409,2263.191162 1622.000000,2268.000000 
	C1618.571289,2268.000000 1615.142578,2268.000000 1611.207886,2267.306152 
	C1610.272705,2264.834961 1609.210693,2262.929443 1609.539062,2261.305176 
	C1610.356079,2257.265137 1610.596313,2253.409424 1609.177979,2248.065674 
	C1607.475220,2256.509033 1607.475220,2256.509033 1602.683960,2257.723389 
	C1601.507690,2253.760742 1600.331543,2249.798096 1599.023071,2245.389893 
	C1599.958862,2242.244141 1601.100708,2238.405029 1602.917236,2232.297852 
	C1597.654785,2234.723145 1594.872070,2236.591064 1591.824463,2237.269775 
	C1587.511597,2238.230469 1583.082886,2239.822998 1580.034180,2233.735352 
	C1577.581299,2228.837402 1572.231079,2226.747803 1566.575073,2227.200928 
	C1561.322021,2227.621826 1555.463989,2229.659668 1551.736572,2224.671631 
	C1548.689331,2220.593994 1547.074097,2215.437744 1544.892212,2210.728271 
	C1544.340454,2209.537354 1544.048828,2208.225830 1543.369141,2206.150146 
	C1529.934082,2207.763672 1516.335815,2209.396729 1503.044067,2210.993164 
	C1501.259644,2208.216064 1499.688721,2205.771484 1497.719482,2202.707031 
	C1499.743652,2200.942139 1501.850708,2199.105225 1504.052002,2197.185791 
	C1504.052002,2191.678223 1504.229126,2186.039062 1503.934570,2180.424805 
	C1503.855347,2178.914307 1502.643555,2177.133789 1501.430786,2176.073242 
	C1497.651245,2172.768311 1497.058838,2170.025146 1499.747437,2165.729004 
	C1502.840210,2160.787354 1505.650879,2156.068848 1506.252075,2149.746826 
	C1506.778564,2144.211182 1508.673096,2137.955566 1515.693359,2134.061523 
	C1518.387451,2127.668945 1520.418335,2122.553467 1522.848389,2117.635498 
	C1524.892944,2113.497314 1528.535889,2109.837891 1529.481445,2105.529785 
	C1531.790283,2095.009277 1535.658325,2084.950684 1537.910889,2074.446045 
	C1538.395142,2072.187500 1538.630615,2069.852783 1539.334839,2067.667480 
	C1546.557373,2045.253906 1553.251831,2022.746948 1554.036499,1998.939697 
	C1554.120605,1996.385010 1555.550171,1993.893311 1556.214355,1991.335693 
	C1558.166138,1983.819946 1560.625244,1976.376587 1561.823364,1968.738159 
	C1563.764648,1956.362915 1564.543335,1943.807007 1566.419922,1931.419434 
	C1567.743530,1922.681763 1566.092041,1918.919189 1559.600830,1914.031128 
	C1550.448730,1907.139771 1540.443970,1901.564331 1532.650513,1892.518188 
	C1525.958862,1884.750854 1517.805176,1877.458130 1507.520020,1874.080566 
	C1498.799683,1871.216797 1499.473877,1871.133423 1499.354614,1861.713867 
	C1499.218384,1850.964111 1498.979614,1840.346802 1501.371094,1829.015381 
	C1500.245850,1820.155273 1496.964844,1811.939819 1503.921753,1804.614746 
	C1505.075317,1803.400269 1505.492065,1800.681885 1505.088013,1798.925293 
	C1502.776978,1788.875122 1505.293579,1779.447021 1507.019043,1769.590332 
	C1508.711182,1759.924683 1512.090942,1753.942383 1520.638672,1748.434326 
	C1527.411255,1744.069946 1532.225830,1743.620361 1538.774536,1746.528687 
	C1540.250244,1747.183838 1542.376221,1746.375122 1544.874878,1746.190674 
	C1539.151978,1736.167969 1530.486816,1730.262207 1525.419678,1721.335938 
	C1528.265625,1720.096313 1530.017334,1719.333374 1532.227417,1718.370728 
	C1529.296387,1709.433472 1531.380249,1701.608154 1535.567749,1693.568970 
	C1537.669312,1689.534424 1537.838989,1683.746338 1537.016602,1679.080078 
	C1534.788574,1666.436646 1539.789429,1656.607910 1547.579102,1647.635254 
	C1551.432251,1643.197144 1554.288940,1642.981079 1559.896118,1645.877808 
	C1563.738892,1647.863281 1567.396362,1650.260254 1571.364624,1651.931763 
	C1574.025879,1653.052734 1577.240723,1654.123535 1579.940308,1653.659546 
	C1589.182617,1652.070801 1598.262573,1649.511475 1602.827026,1640.084961 
	C1605.346558,1634.881958 1608.778320,1631.514648 1614.982422,1631.944214 
	C1615.752319,1629.215698 1617.427246,1626.631226 1616.787598,1624.903687 
	C1615.044312,1620.196411 1617.170654,1616.968750 1620.006104,1614.164429 
	C1624.591431,1609.629639 1628.138428,1604.772705 1629.386108,1598.229492 
	C1629.858154,1595.754517 1631.865601,1593.572266 1633.173096,1591.256470 
z"/>



<path 
	data-name="Efoulan"
fill="#DEA357" opacity="1.000000" stroke="none" 
	d="
M439.622864,1064.105957 
	C449.872253,1075.229492 459.206635,1086.395020 468.933350,1097.207764 
	C488.679199,1119.158325 508.634644,1140.920288 528.525940,1162.739624 
	C528.948120,1163.202637 529.640198,1163.419678 530.740540,1164.064331 
	C533.502075,1163.454468 536.700623,1162.747925 541.092346,1162.640869 
	C546.578674,1166.824707 550.730652,1169.612305 557.033081,1169.936646 
	C572.430908,1170.729614 580.040466,1185.815063 593.159912,1191.155762 
	C593.426025,1191.264038 593.699158,1191.626587 593.764648,1191.916626 
	C595.516357,1199.672852 601.226990,1206.494995 597.914368,1215.465820 
	C595.588684,1221.763916 599.190125,1225.903687 605.868408,1224.445190 
	C610.996765,1223.325195 614.521423,1225.500488 615.795898,1228.798218 
	C618.818542,1236.619995 626.293884,1240.580078 630.340515,1247.883057 
	C634.466003,1255.328369 637.211060,1263.381958 639.777405,1270.920288 
	C642.190186,1278.007446 646.389221,1280.253540 651.639648,1282.579834 
	C654.260437,1283.741089 657.470093,1283.573608 661.272156,1284.133667 
	C663.877625,1291.416016 670.188049,1294.204834 677.734863,1296.033447 
	C684.800476,1297.745483 690.135742,1301.698975 690.573120,1310.335938 
	C690.978699,1318.346436 695.072937,1325.194702 700.006470,1332.893555 
	C704.645020,1331.287231 709.146057,1329.728516 713.553284,1328.202393 
	C719.551147,1330.777222 725.844788,1333.479004 732.112671,1336.981445 
	C731.042236,1341.527466 731.012817,1346.139404 728.723022,1348.821899 
	C724.974670,1353.213257 726.370911,1356.100098 728.616211,1360.305298 
	C730.898621,1364.579834 733.079285,1369.638916 732.972168,1374.300659 
	C732.775635,1382.854980 731.200195,1391.433960 729.584412,1399.885010 
	C727.614441,1410.189087 720.434998,1417.070923 709.417358,1416.331543 
	C700.783569,1415.752319 691.467102,1413.701294 683.790039,1419.538086 
	C675.994568,1413.942139 675.986328,1414.178711 665.544067,1413.814087 
	C662.883972,1413.721191 660.076660,1411.931030 657.721008,1410.348877 
	C653.692871,1407.643188 649.967957,1404.486084 645.728210,1401.220093 
	C641.185974,1406.095459 637.483948,1410.069092 633.488220,1414.358032 
	C630.759460,1411.443848 628.827881,1409.178223 626.671570,1407.151978 
	C625.311462,1405.873779 623.537170,1403.937012 622.083679,1404.048950 
	C615.991577,1404.518066 613.290283,1400.247314 610.662109,1396.473511 
	C603.198669,1397.018921 596.291748,1397.779419 589.369324,1397.966797 
	C580.049011,1398.218994 570.716064,1398.098511 561.389709,1398.012085 
	C550.068665,1397.907349 539.819336,1400.825928 530.714844,1407.807983 
	C528.431335,1409.559082 525.422546,1410.528076 522.603210,1411.380615 
	C517.619019,1412.887817 513.489136,1412.048462 511.071259,1406.643188 
	C509.723694,1403.630615 507.612305,1400.969727 506.042542,1398.044556 
	C498.034851,1383.121704 487.107330,1371.900879 469.863617,1367.908447 
	C465.493256,1366.896484 461.504517,1364.236084 459.270111,1363.214966 
	C452.240326,1364.339844 446.943268,1365.976807 441.676025,1365.885864 
	C424.086731,1365.581909 406.508118,1364.658813 388.925446,1363.972534 
	C388.592590,1363.959595 388.250427,1363.985107 387.928711,1363.916748 
	C375.118530,1361.195557 362.312561,1360.612427 349.444366,1363.657715 
	C347.949493,1364.011353 345.983459,1363.805908 344.634338,1363.099243 
	C338.366699,1359.816162 332.025818,1356.577148 326.208313,1352.595947 
	C324.705811,1351.567505 323.728088,1346.642822 324.691254,1345.671509 
	C329.377319,1340.945923 326.926880,1335.930298 326.401581,1331.211548 
	C323.369293,1329.801392 320.494873,1328.464600 317.221100,1326.942139 
	C315.320740,1331.040405 313.414429,1335.677124 306.905975,1333.053955 
	C306.418945,1329.385742 306.705994,1325.155518 305.211243,1321.694824 
	C302.559937,1315.556519 302.881042,1309.618652 302.874847,1303.148804 
	C302.867767,1295.769287 303.927917,1289.823364 309.130707,1284.670532 
	C309.343109,1284.460083 308.833832,1283.520996 308.502869,1282.374390 
	C300.377045,1282.450562 293.225372,1285.319336 287.004852,1290.559814 
	C280.124695,1296.356201 276.061310,1295.160645 273.861023,1286.816772 
	C273.090393,1283.894287 271.305603,1281.239502 270.313538,1279.154907 
	C264.351318,1280.999878 259.733063,1283.231934 254.930969,1283.745850 
	C245.273361,1284.779053 239.726685,1290.511597 234.794800,1298.081177 
	C232.386795,1301.776978 228.585739,1304.701538 225.020309,1307.465820 
	C221.906769,1309.879517 218.251724,1311.600098 214.814636,1313.590210 
	C204.595398,1319.506958 195.453781,1327.364868 183.701935,1330.547485 
	C181.546936,1331.131104 179.598770,1332.750366 177.768692,1334.167480 
	C176.524323,1335.131104 174.549866,1336.896851 174.798737,1337.751831 
	C176.094391,1342.203857 172.234039,1343.265381 170.359085,1345.712036 
	C167.339859,1349.651978 164.681320,1353.868042 161.261353,1358.251221 
	C157.004791,1360.662109 156.390533,1367.104248 150.326431,1365.793335 
	C152.027618,1361.357910 150.718353,1357.385864 148.348755,1353.636108 
	C146.930389,1351.391479 145.544434,1349.074707 143.793747,1347.100952 
	C134.952530,1337.133179 133.415527,1325.278320 134.332748,1312.616943 
	C135.170609,1301.051025 135.671097,1289.460693 136.317215,1277.880981 
	C136.335724,1277.549194 136.317917,1277.215698 136.319809,1276.882935 
	C136.432831,1257.043213 136.312195,1256.824341 119.677704,1246.105957 
	C116.887344,1244.307983 114.114059,1242.483398 110.709824,1240.436279 
	C110.002335,1239.870361 109.917931,1239.539185 110.728920,1238.603149 
	C115.618874,1236.396606 119.800690,1235.147217 123.579453,1233.139282 
	C166.963516,1210.084595 210.298599,1186.937500 253.622025,1163.768921 
	C300.748718,1138.566528 347.881683,1113.375610 394.941620,1088.049072 
	C409.224091,1080.362549 423.273285,1072.242554 437.429321,1064.321045 
	C437.914642,1064.210083 438.399994,1064.099243 439.622864,1064.105957 
z"/>

<path 
	data-name="Ebolowa II"
fill="#485B8A" opacity="1.000000" stroke="none" 
	d="
M149.679779,1366.073120 
	C156.390533,1367.104248 157.004791,1360.662109 161.682617,1358.798096 
	C169.882233,1364.309448 177.223145,1369.340820 184.185440,1374.850708 
	C199.328674,1386.835205 217.398727,1393.991211 232.951904,1405.683472 
	C245.525421,1415.135498 259.711304,1422.726807 272.220612,1432.704956 
	C284.145416,1442.216919 298.918152,1446.172852 313.125610,1450.609863 
	C340.979370,1459.308716 369.045898,1467.367920 397.211426,1475.001709 
	C405.976959,1477.377563 412.777771,1481.629639 419.209534,1487.777100 
	C423.392761,1491.775635 429.040802,1494.313965 434.209534,1497.188354 
	C439.113403,1499.915283 444.369965,1502.011108 449.255890,1504.766846 
	C461.103363,1511.448242 472.633636,1518.724487 484.711029,1524.947144 
	C488.517456,1526.908447 493.832703,1527.337036 498.144257,1526.609863 
	C505.438202,1525.379883 512.614075,1525.877563 518.442993,1529.520874 
	C524.879883,1533.544189 531.397095,1533.810913 538.329224,1534.036865 
	C549.641724,1534.405518 550.685242,1535.326904 550.051392,1546.980469 
	C549.778931,1551.990601 551.476013,1555.768311 553.691711,1560.016235 
	C557.021179,1566.399902 563.646179,1567.484131 568.713928,1570.984741 
	C581.049194,1579.505615 581.716980,1579.598755 596.747803,1581.929443 
	C597.401917,1582.030884 598.035950,1582.337158 598.687683,1582.367554 
	C602.540344,1582.547607 606.487427,1583.257080 610.226135,1582.667969 
	C614.684265,1581.965698 618.187988,1581.956787 622.261108,1584.891846 
	C629.000488,1589.748169 632.811584,1588.814819 639.832275,1583.066040 
	C643.160889,1580.340576 646.469482,1577.521973 650.103577,1575.252319 
	C658.766052,1569.842163 664.717346,1562.198364 669.199951,1553.236084 
	C672.685730,1546.266724 680.695374,1544.037476 685.117981,1550.142334 
	C692.215515,1559.939697 701.724548,1556.327515 709.181763,1554.333008 
	C714.916138,1552.799316 719.177490,1552.134399 724.934692,1553.534302 
	C730.000488,1554.766235 735.917664,1553.696167 741.163391,1552.424072 
	C743.396790,1551.882446 744.706177,1548.065674 746.736206,1546.038574 
	C750.883911,1541.896973 754.930176,1537.486938 760.207947,1536.386597 
	C765.946289,1541.435059 770.999939,1545.881226 775.964172,1550.248657 
	C779.804443,1547.817383 783.057007,1545.967773 782.218750,1541.406738 
	C781.231262,1536.033936 784.484070,1533.573853 788.676819,1531.551880 
	C794.171387,1528.901855 799.116760,1525.688232 800.682983,1519.118042 
	C800.960632,1517.953491 802.137268,1516.935181 803.054565,1516.002686 
	C807.878967,1511.097290 813.321777,1506.676636 817.470886,1501.260864 
	C823.063293,1493.961182 829.274658,1486.916748 831.653687,1477.529663 
	C832.596191,1473.810669 834.208618,1469.983887 836.500488,1466.949829 
	C839.899719,1462.449829 840.876770,1459.024414 837.473938,1453.622437 
	C832.939331,1446.423584 831.067261,1437.318848 835.326538,1429.815308 
	C842.752441,1416.733276 843.293213,1401.884888 848.117310,1388.208374 
	C849.410522,1384.542236 849.791077,1380.397217 849.815491,1376.467285 
	C849.921021,1359.487183 849.971985,1342.499390 849.533752,1325.527466 
	C849.382446,1319.667603 847.753662,1313.845947 847.718140,1307.873779 
	C858.545288,1307.174805 868.464722,1306.745239 878.356812,1305.966553 
	C881.617798,1305.709839 885.024780,1305.037598 887.988892,1303.713623 
	C896.259033,1300.019653 904.644775,1297.506470 913.846497,1297.472778 
	C922.376099,1297.441650 930.898804,1296.467529 939.433655,1296.199829 
	C941.558228,1296.133301 944.085083,1296.654907 945.798401,1297.826050 
	C953.372803,1303.002441 961.217590,1305.170532 970.101685,1302.188965 
	C970.338318,1304.352051 970.295715,1305.732788 970.687195,1306.976929 
	C972.972046,1314.237915 971.590332,1320.371826 966.592102,1326.369629 
	C960.460754,1333.727173 955.118408,1341.750488 949.582031,1349.589844 
	C948.261536,1351.459717 946.872314,1353.669434 946.631531,1355.846313 
	C945.568176,1365.460815 941.150696,1373.485352 935.607605,1381.087158 
	C934.844788,1382.133423 933.877258,1383.378296 933.843262,1384.555664 
	C933.345154,1401.776611 932.836426,1419.000488 932.681580,1436.226685 
	C932.625671,1442.452881 933.959961,1448.695435 933.851257,1454.916382 
	C933.637329,1467.154175 932.726196,1479.378174 932.366272,1491.615601 
	C932.181213,1497.905762 931.364502,1504.529541 932.931213,1510.447144 
	C936.394897,1523.530151 940.868164,1536.378906 945.548645,1549.095337 
	C948.621155,1557.443359 953.496155,1559.580811 962.491089,1559.007935 
	C965.964417,1558.786743 969.512756,1559.743530 973.273804,1560.859009 
	C977.716125,1574.534790 989.142090,1574.008057 1000.227356,1574.485107 
	C999.781555,1577.417358 999.835815,1579.427490 999.149292,1581.140625 
	C996.929321,1586.680542 994.358093,1592.078735 992.066833,1597.591553 
	C987.670044,1608.170654 988.497375,1612.512329 997.610962,1618.867188 
	C1009.529602,1627.178101 1021.624817,1635.302246 1034.144043,1642.655762 
	C1039.934937,1646.057251 1046.834595,1649.072144 1053.363525,1649.369629 
	C1063.528320,1649.832886 1070.565186,1655.340942 1076.160156,1661.865112 
	C1084.705933,1671.829468 1095.675659,1677.396362 1107.015869,1682.486816 
	C1114.203857,1685.713379 1122.171509,1687.164795 1129.690308,1689.705688 
	C1134.686157,1691.394043 1139.612061,1693.376587 1144.384033,1695.621094 
	C1154.875854,1700.555664 1164.931274,1706.590698 1175.740112,1710.641479 
	C1196.894409,1718.569580 1218.485229,1725.325928 1239.807373,1732.817627 
	C1248.869873,1736.001831 1257.828613,1739.547363 1266.630493,1743.395264 
	C1290.954468,1754.028687 1313.601685,1768.039307 1338.959961,1776.795288 
	C1369.055420,1787.187134 1398.135864,1800.171387 1430.036987,1805.193970 
	C1450.307129,1808.385376 1470.374146,1813.753906 1487.056396,1827.168579 
	C1491.203857,1830.503418 1496.298706,1830.573242 1501.379761,1829.814941 
	C1498.979614,1840.346802 1499.218384,1850.964111 1499.354614,1861.713867 
	C1499.473877,1871.133423 1498.799683,1871.216797 1507.520020,1874.080566 
	C1517.805176,1877.458130 1525.958862,1884.750854 1532.650513,1892.518188 
	C1540.443970,1901.564331 1550.448730,1907.139771 1559.600830,1914.031128 
	C1566.092041,1918.919189 1567.743530,1922.681763 1566.419922,1931.419434 
	C1564.543335,1943.807007 1563.764648,1956.362915 1561.823364,1968.738159 
	C1560.625244,1976.376587 1558.166138,1983.819946 1556.214355,1991.335693 
	C1555.550171,1993.893311 1554.120605,1996.385010 1554.036499,1998.939697 
	C1553.251831,2022.746948 1546.557373,2045.253906 1539.334839,2067.667480 
	C1538.630615,2069.852783 1538.395142,2072.187500 1537.910889,2074.446045 
	C1535.658325,2084.950684 1531.790283,2095.009277 1529.481445,2105.529785 
	C1528.535889,2109.837891 1524.892944,2113.497314 1522.848389,2117.635498 
	C1520.418335,2122.553467 1518.387451,2127.668945 1515.928467,2133.423828 
	C1498.320435,2121.804688 1481.064209,2109.321533 1463.597290,2097.141113 
	C1402.167480,2054.302979 1340.648438,2011.592896 1279.195801,1968.787598 
	C1222.112183,1929.025513 1165.113281,1889.141479 1107.940674,1849.507935 
	C1102.532349,1845.758911 1096.271851,1843.135986 1090.197510,1840.467041 
	C1025.936523,1812.231445 961.634399,1784.089355 897.340881,1755.927856 
	C836.112549,1729.109253 774.877075,1702.306885 713.653198,1675.477905 
	C696.286316,1667.867432 678.705627,1660.685669 661.693665,1652.347046 
	C652.179260,1647.683472 642.369202,1647.335449 632.534973,1647.652588 
	C607.307251,1648.466187 582.106018,1650.093628 556.893188,1651.375488 
	C542.625610,1652.100952 528.357239,1653.272705 514.086914,1653.308716 
	C505.412537,1653.330566 497.461090,1654.645508 490.524109,1659.809082 
	C481.116821,1666.811279 472.595825,1665.798950 463.273712,1659.059082 
	C445.222870,1646.008301 426.851166,1633.372803 408.193573,1621.207520 
	C402.820374,1617.703857 396.172302,1615.234863 389.826202,1614.374023 
	C381.656525,1613.265869 373.900360,1611.205444 367.541809,1606.482178 
	C357.401764,1598.949707 342.175110,1602.214966 332.710388,1610.463989 
	C328.549194,1614.090698 325.131683,1617.584961 318.750427,1614.645752 
	C314.576538,1612.723022 310.811920,1615.429199 309.074036,1619.454102 
	C306.334259,1625.799194 301.231201,1625.848389 295.714325,1625.259644 
	C294.402405,1625.119751 293.106476,1624.714600 291.835724,1624.325195 
	C288.201416,1623.212280 282.451935,1626.064453 281.132263,1621.337891 
	C279.698669,1616.203369 278.697388,1609.229004 281.074402,1605.120483 
	C285.528809,1597.421265 284.032959,1591.168091 280.472626,1584.512207 
	C276.788544,1577.625122 277.171326,1571.652710 281.786560,1565.027832 
	C288.564301,1555.298584 287.896423,1547.501465 280.098328,1538.871582 
	C263.596741,1520.610474 246.654480,1502.746338 230.234177,1484.413818 
	C224.805420,1478.352905 219.355789,1476.693848 211.800461,1479.921753 
	C208.290283,1481.421509 204.113190,1481.438110 200.212326,1481.912476 
	C198.255661,1482.150513 195.926941,1481.234497 194.302277,1481.991089 
	C182.826599,1487.334961 174.048065,1481.828003 165.275024,1475.423340 
	C159.435638,1471.160400 158.546600,1469.752808 161.277802,1462.979248 
	C165.379288,1452.807739 169.661331,1442.687622 174.417557,1432.810913 
	C176.628357,1428.220093 176.771652,1424.698364 172.878052,1421.259399 
	C163.963638,1413.385864 156.397400,1404.225830 146.539337,1397.140381 
	C131.283585,1386.175171 134.093338,1380.247559 145.829483,1368.737183 
	C146.771088,1367.813599 147.959442,1367.141724 149.679779,1366.073120 
z"/>
<path 
	data-name="Biwong-Bulu"
fill="#CF4E51" opacity="1.000000" stroke="none" 
	d="
M1501.371094,1829.015381 
	C1496.298706,1830.573242 1491.203857,1830.503418 1487.056396,1827.168579 
	C1470.374146,1813.753906 1450.307129,1808.385376 1430.036987,1805.193970 
	C1398.135864,1800.171387 1369.055420,1787.187134 1338.959961,1776.795288 
	C1313.601685,1768.039307 1290.954468,1754.028687 1266.630493,1743.395264 
	C1257.828613,1739.547363 1248.869873,1736.001831 1239.807373,1732.817627 
	C1218.485229,1725.325928 1196.894409,1718.569580 1175.740112,1710.641479 
	C1164.931274,1706.590698 1154.875854,1700.555664 1144.384033,1695.621094 
	C1139.612061,1693.376587 1134.686157,1691.394043 1129.690308,1689.705688 
	C1122.171509,1687.164795 1114.203857,1685.713379 1107.015869,1682.486816 
	C1095.675659,1677.396362 1084.705933,1671.829468 1076.160156,1661.865112 
	C1070.565186,1655.340942 1063.528320,1649.832886 1053.363525,1649.369629 
	C1046.834595,1649.072144 1039.934937,1646.057251 1034.144043,1642.655762 
	C1021.624817,1635.302246 1009.529602,1627.178101 997.610962,1618.867188 
	C988.497375,1612.512329 987.670044,1608.170654 992.066833,1597.591553 
	C994.358093,1592.078735 996.929321,1586.680542 999.149292,1581.140625 
	C999.835815,1579.427490 999.781555,1577.417358 1000.227356,1574.485107 
	C989.142090,1574.008057 977.716125,1574.534790 974.007812,1560.345459 
	C979.411560,1558.499023 984.314087,1557.710449 989.247253,1557.250000 
	C1009.712708,1555.340088 1030.175781,1552.107300 1050.660767,1551.940552 
	C1120.554810,1551.371216 1190.457642,1551.899536 1260.357178,1551.984253 
	C1264.012817,1551.988647 1267.703613,1552.047974 1271.318970,1551.602417 
	C1307.831299,1547.101562 1344.322021,1542.421631 1380.847412,1538.031250 
	C1385.308594,1537.494873 1388.328491,1535.583862 1390.603027,1532.080933 
	C1393.861450,1527.062988 1396.937744,1521.927002 1400.188599,1516.904053 
	C1423.308838,1481.179199 1446.377563,1445.420532 1469.636963,1409.786499 
	C1476.690552,1398.980103 1484.293213,1388.532227 1491.644409,1377.920044 
	C1497.878540,1387.682373 1503.934204,1397.564331 1510.377319,1407.186890 
	C1540.648071,1452.396118 1571.036011,1497.527100 1601.358887,1542.701538 
	C1611.894409,1558.397339 1622.362549,1574.138306 1633.017212,1590.557617 
	C1631.865601,1593.572266 1629.858154,1595.754517 1629.386108,1598.229492 
	C1628.138428,1604.772705 1624.591431,1609.629639 1620.006104,1614.164429 
	C1617.170654,1616.968750 1615.044312,1620.196411 1616.787598,1624.903687 
	C1617.427246,1626.631226 1615.752319,1629.215698 1614.982422,1631.944214 
	C1608.778320,1631.514648 1605.346558,1634.881958 1602.827026,1640.084961 
	C1598.262573,1649.511475 1589.182617,1652.070801 1579.940308,1653.659546 
	C1577.240723,1654.123535 1574.025879,1653.052734 1571.364624,1651.931763 
	C1567.396362,1650.260254 1563.738892,1647.863281 1559.896118,1645.877808 
	C1554.288940,1642.981079 1551.432251,1643.197144 1547.579102,1647.635254 
	C1539.789429,1656.607910 1534.788574,1666.436646 1537.016602,1679.080078 
	C1537.838989,1683.746338 1537.669312,1689.534424 1535.567749,1693.568970 
	C1531.380249,1701.608154 1529.296387,1709.433472 1532.227417,1718.370728 
	C1530.017334,1719.333374 1528.265625,1720.096313 1525.419678,1721.335938 
	C1530.486816,1730.262207 1539.151978,1736.167969 1544.874878,1746.190674 
	C1542.376221,1746.375122 1540.250244,1747.183838 1538.774536,1746.528687 
	C1532.225830,1743.620361 1527.411255,1744.069946 1520.638672,1748.434326 
	C1512.090942,1753.942383 1508.711182,1759.924683 1507.019043,1769.590332 
	C1505.293579,1779.447021 1502.776978,1788.875122 1505.088013,1798.925293 
	C1505.492065,1800.681885 1505.075317,1803.400269 1503.921753,1804.614746 
	C1496.964844,1811.939819 1500.245850,1820.155273 1501.371094,1829.015381 
z"/>
<path 
	data-name="Mengong"
fill="#D98BBD" opacity="1.000000" stroke="none" 
	d="
M1492.047363,1377.244019 
	C1484.293213,1388.532227 1476.690552,1398.980103 1469.636963,1409.786499 
	C1446.377563,1445.420532 1423.308838,1481.179199 1400.188599,1516.904053 
	C1396.937744,1521.927002 1393.861450,1527.062988 1390.603027,1532.080933 
	C1388.328491,1535.583862 1385.308594,1537.494873 1380.847412,1538.031250 
	C1344.322021,1542.421631 1307.831299,1547.101562 1271.318970,1551.602417 
	C1267.703613,1552.047974 1264.012817,1551.988647 1260.357178,1551.984253 
	C1190.457642,1551.899536 1120.554810,1551.371216 1050.660767,1551.940552 
	C1030.175781,1552.107300 1009.712708,1555.340088 989.247253,1557.250000 
	C984.314087,1557.710449 979.411560,1558.499023 973.760925,1559.650146 
	C969.512756,1559.743530 965.964417,1558.786743 962.491089,1559.007935 
	C953.496155,1559.580811 948.621155,1557.443359 945.548645,1549.095337 
	C940.868164,1536.378906 936.394897,1523.530151 932.931213,1510.447144 
	C931.364502,1504.529541 932.181213,1497.905762 932.366272,1491.615601 
	C932.726196,1479.378174 933.637329,1467.154175 933.851257,1454.916382 
	C933.959961,1448.695435 932.625671,1442.452881 932.681580,1436.226685 
	C932.836426,1419.000488 933.345154,1401.776611 933.843262,1384.555664 
	C933.877258,1383.378296 934.844788,1382.133423 935.607605,1381.087158 
	C941.150696,1373.485352 945.568176,1365.460815 946.631531,1355.846313 
	C946.872314,1353.669434 948.261536,1351.459717 949.582031,1349.589844 
	C955.118408,1341.750488 960.460754,1333.727173 966.592102,1326.369629 
	C971.590332,1320.371826 972.972046,1314.237915 970.687195,1306.976929 
	C970.295715,1305.732788 970.338318,1304.352051 970.505981,1301.657959 
	C974.745483,1299.544678 978.659485,1298.808105 982.573486,1298.071411 
	C982.990417,1298.728638 983.407349,1299.385742 983.824280,1300.042847 
	C989.796143,1292.673218 995.768005,1285.303467 1002.372681,1278.282471 
	C1007.255798,1282.240356 1012.112061,1284.308228 1017.672546,1283.015747 
	C1022.580627,1281.874878 1025.003662,1284.448608 1025.355835,1288.400269 
	C1025.784302,1293.208984 1028.359009,1295.370972 1032.260132,1297.151245 
	C1037.659790,1299.615601 1043.069702,1302.133545 1048.176147,1305.136963 
	C1051.488647,1307.085205 1054.107666,1310.180054 1057.326538,1312.328003 
	C1061.348145,1315.011353 1066.165039,1319.827759 1069.751343,1319.134521 
	C1076.844238,1317.763306 1081.159546,1320.250732 1085.810425,1324.372559 
	C1087.969849,1326.286377 1090.663818,1327.597168 1093.721191,1329.572632 
	C1094.488281,1328.435059 1095.127197,1327.656494 1095.584106,1326.782715 
	C1098.656860,1320.907227 1102.836182,1318.327026 1109.447144,1321.553467 
	C1111.166992,1322.392822 1113.363647,1322.197144 1115.286621,1322.689819 
	C1121.912354,1324.387329 1124.896484,1323.518433 1128.688110,1318.058228 
	C1130.729004,1315.119507 1132.312866,1311.863281 1134.678711,1307.749023 
	C1144.794678,1317.077515 1154.478638,1325.610474 1163.633545,1334.677368 
	C1166.608398,1337.623657 1168.305420,1341.485596 1172.978638,1342.879272 
	C1176.211426,1343.843384 1177.047119,1347.028076 1174.940063,1350.261475 
	C1173.667480,1352.214478 1172.391479,1354.171875 1171.251587,1356.202759 
	C1169.487671,1359.345825 1170.367065,1361.957397 1173.126221,1364.052734 
	C1176.093140,1366.306030 1194.701660,1367.135864 1197.467041,1364.993652 
	C1198.456055,1364.227783 1199.334839,1362.994141 1199.699219,1361.801514 
	C1201.619995,1355.514404 1206.469482,1354.325806 1212.160767,1353.993652 
	C1214.611450,1353.850708 1217.951172,1353.548828 1219.261475,1351.970093 
	C1224.458862,1345.707764 1232.043457,1346.146362 1238.668457,1344.846924 
	C1246.247192,1343.360352 1254.853394,1348.013550 1261.636475,1340.771484 
	C1262.525635,1339.822144 1264.881226,1339.754883 1266.441772,1340.004272 
	C1278.800659,1341.978394 1287.809937,1335.933716 1295.254272,1327.357422 
	C1301.974731,1319.614990 1309.104370,1316.933105 1318.900513,1321.179443 
	C1322.650635,1322.805054 1327.422241,1323.680054 1331.345581,1322.920288 
	C1337.115967,1321.802856 1342.919678,1319.562256 1348.016846,1316.606567 
	C1353.730835,1313.293091 1358.281006,1312.519775 1363.039673,1317.812378 
	C1365.409424,1320.447876 1368.817139,1320.735596 1370.775024,1317.699829 
	C1373.519775,1313.444092 1377.300415,1313.498779 1381.265381,1314.030762 
	C1387.226318,1314.830688 1391.420410,1312.392334 1395.119751,1307.968506 
	C1398.700562,1303.686157 1402.738892,1299.786255 1406.576294,1295.718506 
	C1411.411865,1297.808594 1416.253418,1299.885376 1421.080933,1301.993530 
	C1424.070679,1303.299194 1426.945068,1304.951660 1430.035645,1305.927979 
	C1438.561646,1308.621216 1444.068848,1314.038574 1447.987427,1322.161255 
	C1449.973145,1326.277588 1454.567749,1329.202148 1458.174072,1332.453125 
	C1462.733765,1336.563721 1467.133423,1334.493164 1471.820801,1332.145020 
	C1481.606079,1327.242920 1485.175049,1328.390015 1493.970459,1338.253906 
	C1500.682373,1345.781250 1501.351562,1353.104370 1497.385010,1360.958740 
	C1494.957153,1365.766479 1494.043945,1371.338989 1492.047363,1377.244019 
z"/>
<path 
	data-name="Ngoulemakong"
fill="#81AD6C" opacity="1.000000" stroke="none" 
	d="
M1406.579102,1295.033447 
	C1402.738892,1299.786255 1398.700562,1303.686157 1395.119751,1307.968506 
	C1391.420410,1312.392334 1387.226318,1314.830688 1381.265381,1314.030762 
	C1377.300415,1313.498779 1373.519775,1313.444092 1370.775024,1317.699829 
	C1368.817139,1320.735596 1365.409424,1320.447876 1363.039673,1317.812378 
	C1358.281006,1312.519775 1353.730835,1313.293091 1348.016846,1316.606567 
	C1342.919678,1319.562256 1337.115967,1321.802856 1331.345581,1322.920288 
	C1327.422241,1323.680054 1322.650635,1322.805054 1318.900513,1321.179443 
	C1309.104370,1316.933105 1301.974731,1319.614990 1295.254272,1327.357422 
	C1287.809937,1335.933716 1278.800659,1341.978394 1266.441772,1340.004272 
	C1264.881226,1339.754883 1262.525635,1339.822144 1261.636475,1340.771484 
	C1254.853394,1348.013550 1246.247192,1343.360352 1238.668457,1344.846924 
	C1232.043457,1346.146362 1224.458862,1345.707764 1219.261475,1351.970093 
	C1217.951172,1353.548828 1214.611450,1353.850708 1212.160767,1353.993652 
	C1206.469482,1354.325806 1201.619995,1355.514404 1199.699219,1361.801514 
	C1199.334839,1362.994141 1198.456055,1364.227783 1197.467041,1364.993652 
	C1194.701660,1367.135864 1176.093140,1366.306030 1173.126221,1364.052734 
	C1170.367065,1361.957397 1169.487671,1359.345825 1171.251587,1356.202759 
	C1172.391479,1354.171875 1173.667480,1352.214478 1174.940063,1350.261475 
	C1177.047119,1347.028076 1176.211426,1343.843384 1172.978638,1342.879272 
	C1168.305420,1341.485596 1166.608398,1337.623657 1163.633545,1334.677368 
	C1154.478638,1325.610474 1144.794678,1317.077515 1134.678711,1307.749023 
	C1132.312866,1311.863281 1130.729004,1315.119507 1128.688110,1318.058228 
	C1124.896484,1323.518433 1121.912354,1324.387329 1115.286621,1322.689819 
	C1113.363647,1322.197144 1111.166992,1322.392822 1109.447144,1321.553467 
	C1102.836182,1318.327026 1098.656860,1320.907227 1095.584106,1326.782715 
	C1095.127197,1327.656494 1094.488281,1328.435059 1093.721191,1329.572632 
	C1090.663818,1327.597168 1087.969849,1326.286377 1085.810425,1324.372559 
	C1081.159546,1320.250732 1076.844238,1317.763306 1069.751343,1319.134521 
	C1066.165039,1319.827759 1061.348145,1315.011353 1057.326538,1312.328003 
	C1054.107666,1310.180054 1051.488647,1307.085205 1048.176147,1305.136963 
	C1043.069702,1302.133545 1037.659790,1299.615601 1032.260132,1297.151245 
	C1028.359009,1295.370972 1025.784302,1293.208984 1025.355835,1288.400269 
	C1025.003662,1284.448608 1022.580627,1281.874878 1017.672546,1283.015747 
	C1012.112061,1284.308228 1007.255798,1282.240356 1002.667236,1277.620972 
	C1002.668030,1274.640747 1003.007202,1272.670776 1003.597534,1269.241211 
	C996.075928,1272.759766 990.307800,1273.192261 984.569153,1268.767822 
	C982.888855,1267.472290 979.510620,1268.140503 976.935059,1268.300781 
	C973.181152,1268.534424 970.802551,1267.658691 969.510864,1263.550293 
	C968.575256,1260.574829 966.646606,1257.350220 964.199219,1255.528076 
	C959.100403,1251.731567 956.586609,1246.672729 954.419006,1241.101196 
	C957.261536,1237.396973 960.080383,1234.121826 962.434814,1230.541260 
	C964.702820,1227.092285 963.675964,1223.052368 959.883606,1222.700928 
	C954.309326,1222.184082 953.808838,1218.350098 952.539429,1214.786987 
	C950.995544,1210.453491 949.812500,1205.991699 948.513184,1201.716431 
	C958.321411,1194.888306 958.394287,1194.743286 956.091125,1187.092529 
	C958.621216,1186.355469 961.110352,1185.227173 963.689270,1184.957764 
	C970.270752,1184.269409 974.807495,1181.156372 976.194214,1176.436401 
	C982.198730,1173.473755 986.732056,1170.975708 991.478577,1168.986206 
	C994.682251,1167.643433 998.218567,1166.122681 1001.549988,1166.242188 
	C1010.801086,1166.574097 1020.023010,1167.721680 1029.855713,1168.600586 
	C1029.149536,1175.278076 1031.736938,1179.403809 1038.617432,1180.409546 
	C1040.439941,1180.676025 1042.357544,1182.041504 1043.720825,1183.410767 
	C1051.668823,1191.394775 1062.028564,1191.364502 1072.128052,1192.166748 
	C1073.326904,1192.261963 1074.797729,1191.818481 1075.795288,1191.125366 
	C1088.137207,1182.548218 1100.493896,1173.943115 1102.742432,1157.303955 
	C1102.779297,1157.031738 1103.165039,1156.806763 1103.883545,1156.010742 
	C1111.796509,1160.445435 1120.435791,1157.962891 1128.984375,1157.419556 
	C1141.565552,1156.620117 1154.135864,1155.648804 1166.962280,1154.732666 
	C1167.594971,1155.193726 1168.632812,1155.603882 1169.131592,1156.366577 
	C1174.893555,1165.177002 1183.170044,1166.559814 1193.117310,1166.269287 
	C1220.401733,1165.472534 1247.713501,1165.618286 1275.014526,1165.382080 
	C1277.343872,1165.361938 1279.781372,1165.697632 1281.978882,1165.131592 
	C1286.454346,1163.978516 1290.246582,1163.267822 1293.072021,1168.421143 
	C1293.792358,1169.734985 1297.261719,1170.123047 1299.403320,1169.978516 
	C1310.327637,1169.241821 1321.245361,1168.329224 1332.134766,1167.187378 
	C1337.061157,1166.670898 1341.916626,1165.480225 1346.657593,1164.622070 
	C1348.348511,1161.237671 1349.927612,1158.077148 1351.937256,1154.055054 
	C1357.807861,1156.345459 1363.068237,1158.139160 1368.097046,1160.439087 
	C1372.360718,1162.389038 1374.716431,1161.689575 1376.359741,1157.044189 
	C1379.952271,1146.888794 1387.408691,1139.740723 1395.807129,1133.452271 
	C1407.161743,1133.952759 1414.685547,1120.834961 1427.365723,1124.780518 
	C1429.807251,1125.540283 1435.209839,1122.790649 1436.438110,1120.283936 
	C1439.743164,1113.539185 1445.841797,1112.117798 1451.732178,1110.425659 
	C1456.057251,1109.183105 1459.553955,1107.918335 1462.277954,1103.856689 
	C1464.893311,1099.957397 1468.908813,1098.127075 1474.370850,1099.095337 
	C1478.422729,1099.813599 1482.849365,1098.051392 1487.117920,1097.986694 
	C1497.090088,1097.835571 1506.934814,1092.973267 1517.149780,1097.857056 
	C1519.915405,1099.179321 1523.983398,1097.777222 1528.081787,1097.598022 
	C1532.061646,1105.806396 1536.345703,1114.429565 1540.440918,1123.141724 
	C1545.852051,1134.653687 1548.174927,1136.133911 1561.803467,1135.519653 
	C1560.488037,1145.578369 1563.825073,1155.599976 1558.831787,1165.652832 
	C1555.428467,1172.504639 1559.822388,1177.588135 1567.908813,1178.052612 
	C1569.893677,1178.166748 1571.890625,1178.069702 1574.152466,1178.069702 
	C1577.068726,1182.486572 1576.577148,1185.315186 1572.007324,1188.704590 
	C1562.410400,1195.822632 1552.804443,1203.151367 1544.424316,1211.605103 
	C1539.230347,1216.844727 1536.280884,1224.309448 1531.814941,1231.607056 
	C1529.250000,1231.892456 1525.812378,1232.274780 1521.597900,1232.743652 
	C1524.677612,1237.968628 1527.306641,1242.428833 1529.947388,1246.908813 
	C1525.614014,1255.212158 1519.570801,1259.636230 1510.570190,1261.418945 
	C1491.671875,1265.161987 1472.995239,1270.010376 1454.158936,1274.087280 
	C1447.062866,1275.623047 1439.805420,1276.618042 1432.568359,1277.235962 
	C1425.985474,1277.797974 1420.364136,1279.452637 1416.031738,1284.894531 
	C1413.274170,1288.358276 1409.757935,1291.217896 1406.579102,1295.033447 
z"/>
<path 
	data-name="Biwong-Bane"
fill="#C857F9" opacity="1.000000" stroke="none" 
	d="
M955.323608,1187.198608 
	C958.394287,1194.743286 958.321411,1194.888306 948.513184,1201.716431 
	C949.812500,1205.991699 950.995544,1210.453491 952.539429,1214.786987 
	C953.808838,1218.350098 954.309326,1222.184082 959.883606,1222.700928 
	C963.675964,1223.052368 964.702820,1227.092285 962.434814,1230.541260 
	C960.080383,1234.121826 957.261536,1237.396973 954.419006,1241.101196 
	C956.586609,1246.672729 959.100403,1251.731567 964.199219,1255.528076 
	C966.646606,1257.350220 968.575256,1260.574829 969.510864,1263.550293 
	C970.802551,1267.658691 973.181152,1268.534424 976.935059,1268.300781 
	C979.510620,1268.140503 982.888855,1267.472290 984.569153,1268.767822 
	C990.307800,1273.192261 996.075928,1272.759766 1003.597534,1269.241211 
	C1003.007202,1272.670776 1002.668030,1274.640747 1002.034424,1277.272339 
	C995.768005,1285.303467 989.796143,1292.673218 983.824280,1300.042847 
	C983.407349,1299.385742 982.990417,1298.728638 982.573486,1298.071411 
	C978.659485,1298.808105 974.745483,1299.544678 970.427246,1300.812500 
	C961.217590,1305.170532 953.372803,1303.002441 945.798401,1297.826050 
	C944.085083,1296.654907 941.558228,1296.133301 939.433655,1296.199829 
	C930.898804,1296.467529 922.376099,1297.441650 913.846497,1297.472778 
	C904.644775,1297.506470 896.259033,1300.019653 887.988892,1303.713623 
	C885.024780,1305.037598 881.617798,1305.709839 878.356812,1305.966553 
	C868.464722,1306.745239 858.545288,1307.174805 846.905151,1307.731689 
	C833.632080,1308.285156 822.052002,1308.465942 810.569702,1309.619507 
	C806.624084,1310.015991 802.139160,1312.013428 799.268005,1314.726562 
	C792.684143,1320.948120 785.187622,1323.863037 776.398499,1325.474609 
	C761.476685,1328.210449 746.118530,1329.454468 732.138489,1336.180786 
	C725.844788,1333.479004 719.551147,1330.777222 713.553284,1328.202393 
	C709.146057,1329.728516 704.645020,1331.287231 700.006470,1332.893555 
	C695.072937,1325.194702 690.978699,1318.346436 690.573120,1310.335938 
	C690.135742,1301.698975 684.800476,1297.745483 677.734863,1296.033447 
	C670.188049,1294.204834 663.877625,1291.416016 661.272156,1284.133667 
	C657.470093,1283.573608 654.260437,1283.741089 651.639648,1282.579834 
	C646.389221,1280.253540 642.190186,1278.007446 639.777405,1270.920288 
	C637.211060,1263.381958 634.466003,1255.328369 630.340515,1247.883057 
	C626.293884,1240.580078 618.818542,1236.619995 615.795898,1228.798218 
	C614.521423,1225.500488 610.996765,1223.325195 605.868408,1224.445190 
	C599.190125,1225.903687 595.588684,1221.763916 597.914368,1215.465820 
	C601.226990,1206.494995 595.516357,1199.672852 593.764648,1191.916626 
	C593.699158,1191.626587 593.426025,1191.264038 593.159912,1191.155762 
	C580.040466,1185.815063 572.430908,1170.729614 557.033081,1169.936646 
	C550.730652,1169.612305 546.578674,1166.824707 541.828735,1162.659912 
	C559.570129,1156.000854 577.806519,1150.032471 595.933960,1143.749878 
	C599.518799,1142.507446 602.733887,1140.137085 606.023987,1138.130371 
	C607.678894,1137.121216 609.129578,1134.718750 610.655518,1134.733398 
	C618.684692,1134.810303 625.978210,1131.597412 633.640625,1130.304443 
	C642.400330,1128.826416 651.418091,1128.599487 660.332275,1128.482178 
	C663.033752,1128.446533 665.763672,1130.579224 668.625610,1131.779541 
	C675.054443,1127.484619 680.331482,1122.914551 680.376221,1113.757446 
	C680.393555,1110.195923 684.384583,1106.237427 687.381104,1103.288574 
	C688.808777,1101.883545 692.671021,1101.354858 694.519104,1102.269897 
	C700.374207,1105.169189 705.677185,1105.902954 712.470764,1104.839600 
	C716.807739,1104.160767 721.631897,1103.578857 726.203552,1103.335205 
	C731.817749,1103.035889 737.100891,1105.730225 740.759705,1110.645020 
	C744.138062,1115.183105 747.641602,1119.629761 751.160095,1124.060791 
	C752.601074,1125.875610 754.650513,1129.264771 755.700134,1129.005981 
	C763.781555,1127.012939 768.285339,1133.982544 774.609619,1135.750488 
	C781.448792,1137.662231 788.644897,1135.807495 794.516663,1131.409912 
	C799.436340,1127.725464 804.182007,1127.794434 809.268250,1130.561890 
	C813.352478,1132.783936 817.688293,1134.659912 821.443848,1137.344849 
	C828.183350,1142.162964 835.369141,1142.866333 843.257385,1141.504639 
	C858.393005,1138.891968 871.397766,1139.806885 888.067322,1144.299316 
	C891.226929,1165.553589 907.017944,1180.013794 918.542664,1196.818726 
	C926.067139,1207.790527 938.769409,1206.424561 946.786499,1195.512573 
	C948.990784,1192.512451 949.344482,1187.523560 955.323608,1187.198608 
z"/>
<path 
	data-name="Ebolowa I"
fill="#A6F957" opacity="1.000000" stroke="none" 
	d="
M732.112671,1336.981445 
	C746.118530,1329.454468 761.476685,1328.210449 776.398499,1325.474609 
	C785.187622,1323.863037 792.684143,1320.948120 799.268005,1314.726562 
	C802.139160,1312.013428 806.624084,1310.015991 810.569702,1309.619507 
	C822.052002,1308.465942 833.632080,1308.285156 845.986816,1307.864746 
	C847.753662,1313.845947 849.382446,1319.667603 849.533752,1325.527466 
	C849.971985,1342.499390 849.921021,1359.487183 849.815491,1376.467285 
	C849.791077,1380.397217 849.410522,1384.542236 848.117310,1388.208374 
	C843.293213,1401.884888 842.752441,1416.733276 835.326538,1429.815308 
	C831.067261,1437.318848 832.939331,1446.423584 837.473938,1453.622437 
	C840.876770,1459.024414 839.899719,1462.449829 836.500488,1466.949829 
	C834.208618,1469.983887 832.596191,1473.810669 831.653687,1477.529663 
	C829.274658,1486.916748 823.063293,1493.961182 817.470886,1501.260864 
	C813.321777,1506.676636 807.878967,1511.097290 803.054565,1516.002686 
	C802.137268,1516.935181 800.960632,1517.953491 800.682983,1519.118042 
	C799.116760,1525.688232 794.171387,1528.901855 788.676819,1531.551880 
	C784.484070,1533.573853 781.231262,1536.033936 782.218750,1541.406738 
	C783.057007,1545.967773 779.804443,1547.817383 775.964172,1550.248657 
	C770.999939,1545.881226 765.946289,1541.435059 760.207947,1536.386597 
	C754.930176,1537.486938 750.883911,1541.896973 746.736206,1546.038574 
	C744.706177,1548.065674 743.396790,1551.882446 741.163391,1552.424072 
	C735.917664,1553.696167 730.000488,1554.766235 724.934692,1553.534302 
	C719.177490,1552.134399 714.916138,1552.799316 709.181763,1554.333008 
	C701.724548,1556.327515 692.215515,1559.939697 685.117981,1550.142334 
	C680.695374,1544.037476 672.685730,1546.266724 669.199951,1553.236084 
	C664.717346,1562.198364 658.766052,1569.842163 650.103577,1575.252319 
	C646.469482,1577.521973 643.160889,1580.340576 639.832275,1583.066040 
	C632.811584,1588.814819 629.000488,1589.748169 622.261108,1584.891846 
	C618.187988,1581.956787 614.684265,1581.965698 610.226135,1582.667969 
	C606.487427,1583.257080 602.540344,1582.547607 598.687683,1582.367554 
	C598.035950,1582.337158 597.401917,1582.030884 596.747803,1581.929443 
	C581.716980,1579.598755 581.049194,1579.505615 568.713928,1570.984741 
	C563.646179,1567.484131 557.021179,1566.399902 553.691711,1560.016235 
	C551.476013,1555.768311 549.778931,1551.990601 550.051392,1546.980469 
	C550.685242,1535.326904 549.641724,1534.405518 538.329224,1534.036865 
	C531.397095,1533.810913 524.879883,1533.544189 518.442993,1529.520874 
	C512.614075,1525.877563 505.438202,1525.379883 498.144257,1526.609863 
	C493.832703,1527.337036 488.517456,1526.908447 484.711029,1524.947144 
	C472.633636,1518.724487 461.103363,1511.448242 449.255890,1504.766846 
	C444.369965,1502.011108 439.113403,1499.915283 434.209534,1497.188354 
	C429.040802,1494.313965 423.392761,1491.775635 419.209534,1487.777100 
	C412.777771,1481.629639 405.976959,1477.377563 397.211426,1475.001709 
	C369.045898,1467.367920 340.979370,1459.308716 313.125610,1450.609863 
	C298.918152,1446.172852 284.145416,1442.216919 272.220612,1432.704956 
	C259.711304,1422.726807 245.525421,1415.135498 232.951904,1405.683472 
	C217.398727,1393.991211 199.328674,1386.835205 184.185440,1374.850708 
	C177.223145,1369.340820 169.882233,1364.309448 162.291687,1358.514282 
	C164.681320,1353.868042 167.339859,1349.651978 170.359085,1345.712036 
	C172.234039,1343.265381 176.094391,1342.203857 174.798737,1337.751831 
	C174.549866,1336.896851 176.524323,1335.131104 177.768692,1334.167480 
	C179.598770,1332.750366 181.546936,1331.131104 183.701935,1330.547485 
	C195.453781,1327.364868 204.595398,1319.506958 214.814636,1313.590210 
	C218.251724,1311.600098 221.906769,1309.879517 225.020309,1307.465820 
	C228.585739,1304.701538 232.386795,1301.776978 234.794800,1298.081177 
	C239.726685,1290.511597 245.273361,1284.779053 254.930969,1283.745850 
	C259.733063,1283.231934 264.351318,1280.999878 270.313538,1279.154907 
	C271.305603,1281.239502 273.090393,1283.894287 273.861023,1286.816772 
	C276.061310,1295.160645 280.124695,1296.356201 287.004852,1290.559814 
	C293.225372,1285.319336 300.377045,1282.450562 308.502869,1282.374390 
	C308.833832,1283.520996 309.343109,1284.460083 309.130707,1284.670532 
	C303.927917,1289.823364 302.867767,1295.769287 302.874847,1303.148804 
	C302.881042,1309.618652 302.559937,1315.556519 305.211243,1321.694824 
	C306.705994,1325.155518 306.418945,1329.385742 306.905975,1333.053955 
	C313.414429,1335.677124 315.320740,1331.040405 317.221100,1326.942139 
	C320.494873,1328.464600 323.369293,1329.801392 326.401581,1331.211548 
	C326.926880,1335.930298 329.377319,1340.945923 324.691254,1345.671509 
	C323.728088,1346.642822 324.705811,1351.567505 326.208313,1352.595947 
	C332.025818,1356.577148 338.366699,1359.816162 344.634338,1363.099243 
	C345.983459,1363.805908 347.949493,1364.011353 349.444366,1363.657715 
	C362.312561,1360.612427 375.118530,1361.195557 387.928711,1363.916748 
	C388.250427,1363.985107 388.592590,1363.959595 388.925446,1363.972534 
	C406.508118,1364.658813 424.086731,1365.581909 441.676025,1365.885864 
	C446.943268,1365.976807 452.240326,1364.339844 459.270111,1363.214966 
	C461.504517,1364.236084 465.493256,1366.896484 469.863617,1367.908447 
	C487.107330,1371.900879 498.034851,1383.121704 506.042542,1398.044556 
	C507.612305,1400.969727 509.723694,1403.630615 511.071259,1406.643188 
	C513.489136,1412.048462 517.619019,1412.887817 522.603210,1411.380615 
	C525.422546,1410.528076 528.431335,1409.559082 530.714844,1407.807983 
	C539.819336,1400.825928 550.068665,1397.907349 561.389709,1398.012085 
	C570.716064,1398.098511 580.049011,1398.218994 589.369324,1397.966797 
	C596.291748,1397.779419 603.198669,1397.018921 610.662109,1396.473511 
	C613.290283,1400.247314 615.991577,1404.518066 622.083679,1404.048950 
	C623.537170,1403.937012 625.311462,1405.873779 626.671570,1407.151978 
	C628.827881,1409.178223 630.759460,1411.443848 633.488220,1414.358032 
	C637.483948,1410.069092 641.185974,1406.095459 645.728210,1401.220093 
	C649.967957,1404.486084 653.692871,1407.643188 657.721008,1410.348877 
	C660.076660,1411.931030 662.883972,1413.721191 665.544067,1413.814087 
	C675.986328,1414.178711 675.994568,1413.942139 683.790039,1419.538086 
	C691.467102,1413.701294 700.783569,1415.752319 709.417358,1416.331543 
	C720.434998,1417.070923 727.614441,1410.189087 729.584412,1399.885010 
	C731.200195,1391.433960 732.775635,1382.854980 732.972168,1374.300659 
	C733.079285,1369.638916 730.898621,1364.579834 728.616211,1360.305298 
	C726.370911,1356.100098 724.974670,1353.213257 728.723022,1348.821899 
	C731.012817,1346.139404 731.042236,1341.527466 732.112671,1336.981445 
z"/>
</svg>