<svg version="1.1" id="Layer_1" xmlns="http://www.w3.org/2000/svg" xmlns:xlink="http://www.w3.org/1999/xlink" x="0px"
	y="0px" width="100%" viewBox="0 0 2216 2346" enable-background="new 0 0 2216 2346" xml:space="preserve">


	<path data-name="Nyambaka" 
	fill="#3A428A" opacity="1.000000" stroke="none" d="
M1188.000000,2348.000000 
	C1181.275757,2348.000000 1174.551636,2348.000000 1167.176025,2347.263916 
	C1165.483398,2343.240234 1164.442383,2339.952393 1163.185669,2335.983643 
	C1159.599731,2339.247803 1157.046143,2341.572021 1155.011841,2343.423828 
	C1153.627075,2343.270264 1153.214966,2343.351074 1152.993408,2343.182129 
	C1140.900635,2333.951416 1140.905029,2333.957520 1125.946411,2339.084229 
	C1125.392944,2339.273682 1124.610352,2339.124023 1124.040283,2338.882568 
	C1120.632568,2337.440430 1118.716431,2339.533203 1116.220947,2341.429443 
	C1112.872803,2343.973145 1110.045654,2344.273438 1105.043701,2341.714600 
	C1098.860474,2338.551758 1090.665161,2334.914551 1082.667480,2340.194336 
	C1078.938599,2342.656006 1076.649536,2340.947998 1076.489136,2336.361328 
	C1076.425537,2334.543213 1076.896729,2332.706299 1077.192749,2330.330078 
	C1074.230957,2330.181885 1071.742920,2330.620361 1069.737183,2329.831787 
	C1066.262085,2328.466064 1062.240723,2327.065918 1059.945801,2324.394043 
	C1053.510620,2316.901855 1051.627441,2316.252441 1043.691406,2320.992676 
	C1039.620239,2319.940918 1036.301636,2318.650146 1032.883911,2318.284424 
	C1024.032349,2317.337646 1023.618896,2317.144043 1021.817383,2306.853516 
	C1020.345581,2310.607178 1019.388672,2313.047363 1018.313293,2315.789795 
	C1014.999390,2314.057373 1012.412231,2312.704834 1010.184143,2311.539795 
	C1012.211609,2307.689697 1014.215149,2303.884766 1017.181824,2298.250977 
	C1011.206970,2298.836670 1007.468079,2299.202881 1005.199707,2299.425293 
	C1002.565613,2295.960693 1000.436218,2293.160156 998.270508,2290.311768 
	C998.514343,2288.775879 999.853699,2286.023438 999.086914,2284.118408 
	C996.660767,2278.092041 993.446960,2272.382812 989.998474,2265.469727 
	C986.611450,2268.298340 982.061768,2270.339844 980.586365,2273.722412 
	C978.069946,2279.491699 973.907837,2279.023438 968.879700,2279.583252 
	C967.120422,2275.446289 965.826782,2271.330078 963.714111,2267.689453 
	C960.586487,2262.299561 955.277222,2262.702393 952.311035,2268.187988 
	C950.583130,2271.384277 948.589172,2274.445557 947.005493,2277.708252 
	C940.976868,2290.129395 938.282776,2285.982422 930.549072,2278.986816 
	C929.181396,2277.749512 928.684265,2275.562012 927.747803,2273.833740 
	C922.013062,2263.249756 922.775940,2261.818848 935.122620,2259.903564 
	C935.734985,2259.808350 936.288025,2259.330566 937.695068,2258.604492 
	C938.203430,2256.003174 939.845642,2252.604492 939.213928,2249.700439 
	C938.175171,2244.925293 936.735046,2239.445801 933.539429,2236.103760 
	C927.643799,2229.938477 919.639343,2227.051270 910.840149,2228.709961 
	C902.252441,2230.328857 898.683594,2236.161133 900.533997,2244.841309 
	C901.192749,2247.931641 902.029480,2250.984131 902.727844,2253.821533 
	C888.332520,2260.141113 888.332520,2260.141113 872.634949,2245.927490 
	C871.017883,2249.365234 869.057617,2252.312256 868.252502,2255.547119 
	C867.198547,2259.781250 865.785828,2263.005127 860.943054,2263.738770 
	C856.110107,2264.471924 853.957153,2261.872803 851.702637,2258.059082 
	C849.114929,2253.682373 847.302307,2248.249756 840.848938,2247.314941 
	C836.359558,2246.664307 830.689087,2246.418457 827.949463,2243.630127 
	C825.242249,2240.875000 825.091553,2235.194336 824.691162,2230.719238 
	C824.383240,2227.277344 825.427612,2223.714844 826.045044,2218.824951 
	C823.393066,2216.291504 819.628845,2212.695801 816.040039,2209.267578 
	C804.339294,2216.737793 794.139771,2211.848877 783.521484,2207.822021 
	C781.681091,2209.421631 779.925842,2211.559814 777.668152,2212.720703 
	C775.775940,2213.693604 772.079834,2214.592529 771.282349,2213.683350 
	C767.199524,2209.026855 761.410400,2209.978271 756.484314,2208.539795 
	C746.351685,2205.580322 744.166565,2202.670898 746.143311,2192.193848 
	C746.436218,2190.641357 746.911987,2189.123535 747.078003,2188.472412 
	C743.817932,2185.459717 740.733459,2183.414062 738.799683,2180.582275 
	C737.072937,2178.053711 737.236084,2174.211426 735.460266,2171.744141 
	C732.552429,2167.704590 735.879028,2165.299316 738.102295,2161.891113 
	C732.936829,2159.968750 728.706848,2158.394531 724.099609,2156.680176 
	C724.327759,2152.790283 723.972778,2148.713135 724.946289,2144.982666 
	C726.001648,2140.938721 728.294739,2137.218018 729.963928,2133.541504 
	C727.806335,2131.664551 726.130676,2130.206787 724.558472,2128.838867 
	C726.355896,2124.962891 727.931458,2121.565430 730.112671,2116.861816 
	C720.706238,2117.920898 715.687744,2111.570557 714.803162,2106.425293 
	C713.742981,2100.259033 709.583618,2098.655273 706.291138,2095.359375 
	C707.216370,2093.039062 708.054810,2090.936035 709.036438,2088.474121 
	C706.698547,2088.245850 705.380554,2088.116943 703.778931,2087.269043 
	C703.380981,2083.675049 703.107117,2080.795410 703.186096,2077.925781 
	C703.340698,2072.309326 704.749268,2066.498779 703.735046,2061.127930 
	C701.819885,2050.985107 701.963318,2041.096313 703.840759,2031.073853 
	C704.137756,2029.488525 704.081909,2027.749390 703.785950,2026.156372 
	C702.817871,2020.947266 701.909119,2015.706543 700.530701,2010.598511 
	C697.467285,1999.247070 701.527344,1989.177856 706.099243,1979.305176 
	C707.089355,1977.167236 709.853577,1974.809204 712.089233,1974.473267 
	C720.958923,1973.140747 722.343872,1967.316772 721.988464,1959.984497 
	C721.892151,1957.996338 721.510254,1955.845825 722.084717,1954.031128 
	C724.882324,1945.194092 724.066040,1936.400879 722.607849,1927.490967 
	C722.280457,1925.490234 722.721313,1921.994873 723.960144,1921.328491 
	C732.059204,1916.972046 730.673401,1909.634277 729.959961,1902.868774 
	C729.242432,1896.064087 730.918274,1890.325195 735.218323,1885.303345 
	C739.320740,1880.512939 743.654053,1875.916382 747.970886,1871.314453 
	C750.573914,1868.539429 752.627808,1865.553345 751.667969,1861.566895 
	C748.887207,1850.017212 747.550659,1838.036377 739.429626,1828.280029 
	C736.609131,1824.891602 735.046509,1820.191528 733.767944,1815.838379 
	C730.980103,1806.346069 728.516907,1796.922363 724.491760,1787.678955 
	C721.643311,1781.137817 718.639343,1774.095215 716.898315,1766.988770 
	C716.067749,1763.598511 717.110168,1758.831177 719.080200,1755.868530 
	C722.928528,1750.081177 722.751404,1744.783813 720.036316,1738.947388 
	C715.309387,1728.786621 710.576477,1718.627441 705.983765,1708.405762 
	C703.263916,1702.352661 700.738037,1696.236694 694.478760,1694.307739 
	C693.851135,1689.089600 693.335754,1684.804321 692.741272,1679.861694 
	C695.394165,1681.618164 697.674377,1683.127808 699.967651,1684.646118 
	C703.945251,1681.461914 706.511719,1677.745605 712.471497,1679.498291 
	C716.538025,1680.694092 720.745117,1677.342529 722.199463,1672.700195 
	C723.249146,1669.349609 725.188171,1667.959595 728.596069,1667.509399 
	C731.478088,1667.128662 734.246887,1665.891479 737.132080,1665.013306 
	C733.244751,1658.142334 733.302002,1658.195679 738.887939,1652.204834 
	C740.456421,1650.522339 741.492188,1648.356567 742.925842,1646.533081 
	C749.137939,1638.632446 755.805969,1631.288574 766.831665,1630.836182 
	C768.929871,1630.750244 771.721375,1631.135864 773.065063,1632.453857 
	C775.994812,1635.328003 777.558228,1640.159424 780.881348,1641.907593 
	C784.125244,1643.614014 789.456055,1641.261719 792.801392,1642.889282 
	C797.378479,1645.115845 801.798584,1643.526611 803.961243,1641.563965 
	C809.824280,1636.243774 816.851624,1635.779419 824.192200,1634.188599 
	C825.881104,1635.800049 827.745728,1637.579224 829.995972,1639.726318 
	C836.588501,1633.633911 842.785461,1634.495239 847.917603,1641.876343 
	C850.441772,1639.538330 852.370789,1637.751709 855.025391,1636.065674 
	C861.070740,1640.973999 866.809937,1641.604858 872.915710,1637.357910 
	C876.066345,1642.182007 880.013428,1643.569214 884.261536,1641.825684 
	C889.207397,1633.589478 893.795105,1625.949707 898.536011,1618.054810 
	C899.488647,1618.460815 901.517639,1619.325317 903.800537,1620.298096 
	C905.450867,1618.188232 906.714539,1616.265259 908.279175,1614.630493 
	C912.727051,1609.983521 916.941650,1605.739624 924.020691,1604.087891 
	C932.362793,1602.141724 939.839844,1597.857544 944.853699,1589.578369 
	C949.356873,1582.142456 956.491394,1582.915771 961.663025,1590.003174 
	C962.199585,1590.738525 963.284180,1591.074097 964.448486,1591.804810 
	C970.382935,1588.724731 976.405273,1585.598999 982.046570,1582.671143 
	C983.834229,1578.342529 984.532898,1573.097412 987.525269,1570.358765 
	C990.818848,1567.344604 996.221436,1566.634888 1001.185303,1564.737793 
	C999.645386,1561.026245 998.479370,1558.215820 997.475525,1555.796509 
	C1000.315247,1554.734375 1002.376465,1553.676636 1004.563599,1553.214233 
	C1007.645386,1552.562500 1011.110535,1551.359497 1013.891052,1552.172607 
	C1018.676025,1553.572266 1023.001587,1556.481567 1027.650146,1558.449585 
	C1028.868652,1558.965576 1031.093018,1558.888672 1031.898926,1558.102905 
	C1032.732300,1557.290283 1032.643433,1555.258911 1032.489746,1553.810181 
	C1032.399536,1552.958618 1031.210205,1552.282104 1030.837646,1551.391846 
	C1029.025391,1547.061890 1030.173218,1545.453735 1034.828247,1545.535522 
	C1037.672852,1545.585449 1040.518921,1545.544800 1043.629517,1545.544800 
	C1040.962524,1536.091187 1041.007324,1536.139038 1048.266235,1529.334351 
	C1048.985596,1528.659912 1048.732666,1526.948242 1049.714355,1525.892822 
	C1053.055786,1526.499634 1056.737305,1528.216675 1057.973145,1527.136353 
	C1062.776489,1522.937256 1069.007935,1520.107178 1072.931152,1515.770996 
	C1076.823608,1511.468872 1081.732178,1509.877319 1085.581421,1506.503052 
	C1090.172607,1502.478760 1093.373535,1496.884766 1097.297485,1492.069214 
	C1098.084473,1491.103271 1099.329956,1490.385254 1100.505005,1489.882080 
	C1107.514282,1486.880737 1112.583008,1482.288086 1113.064941,1475.331299 
	C1116.865601,1473.849854 1119.760742,1472.721313 1123.375977,1471.695679 
	C1126.577881,1472.723999 1129.184570,1473.408813 1131.518677,1474.619141 
	C1139.265137,1478.636719 1140.426758,1484.384399 1135.219604,1491.632446 
	C1133.933960,1493.421997 1132.855225,1495.360229 1131.992798,1496.733887 
	C1135.140625,1500.721436 1137.739868,1504.014038 1140.597168,1507.633545 
	C1145.310425,1503.728149 1150.426514,1503.135010 1156.163940,1505.732300 
	C1159.323975,1507.162964 1162.994995,1508.840576 1166.195190,1505.247681 
	C1166.469971,1504.939087 1167.391724,1505.206787 1168.478516,1505.206787 
	C1169.976318,1507.254395 1171.597412,1509.470581 1174.023560,1512.787354 
	C1164.679321,1513.017822 1160.459961,1517.899048 1160.230713,1525.136841 
	C1160.040649,1531.136108 1163.871948,1535.447998 1168.306274,1537.045410 
	C1172.673096,1534.983398 1175.785278,1533.513672 1179.136963,1531.930908 
	C1179.202148,1530.614990 1179.298096,1528.674561 1179.499146,1524.608398 
	C1182.561401,1528.844971 1184.317871,1531.275024 1186.254639,1533.954468 
	C1187.865234,1531.093262 1189.094849,1528.909058 1190.229492,1526.893555 
	C1193.707031,1527.490112 1195.881836,1532.337891 1199.408691,1528.359619 
	C1197.360962,1516.232666 1197.360962,1516.232666 1205.103638,1514.575562 
	C1205.705566,1518.079590 1206.304932,1521.568237 1207.046631,1525.885254 
	C1212.036377,1522.784180 1218.849365,1526.374878 1221.412720,1518.447998 
	C1223.274414,1521.494385 1224.516846,1523.527466 1225.345825,1524.884033 
	C1231.489258,1522.979248 1236.697754,1521.364380 1242.059204,1519.702026 
	C1243.191895,1529.332397 1247.184082,1531.817261 1256.313599,1529.887451 
	C1258.825073,1529.356567 1261.544189,1529.806885 1265.524414,1529.806885 
	C1268.791260,1524.665283 1274.389648,1523.661011 1281.556152,1526.653687 
	C1284.717529,1527.973755 1288.682007,1527.454346 1292.288696,1527.598877 
	C1295.457031,1527.725952 1298.666748,1527.323242 1301.802368,1527.665405 
	C1309.409058,1528.495239 1316.999390,1529.688354 1322.223389,1521.994141 
	C1325.353271,1524.068481 1327.937866,1525.781494 1330.458008,1527.451782 
	C1332.064209,1524.793091 1333.338013,1522.684814 1335.243530,1519.530640 
	C1337.214600,1523.726074 1338.625000,1526.728271 1340.458130,1530.629883 
	C1342.643311,1528.036865 1345.057617,1526.476074 1345.360962,1524.578003 
	C1346.458374,1517.710205 1352.259888,1518.295044 1356.680664,1516.700806 
	C1363.222046,1514.342041 1366.295288,1517.459473 1368.464722,1523.478760 
	C1369.789917,1527.155762 1374.014526,1526.738647 1375.880371,1523.223022 
	C1376.897217,1521.307251 1377.563599,1519.068726 1378.990723,1517.536987 
	C1381.599243,1514.736938 1384.985840,1512.632080 1387.436035,1509.722046 
	C1390.120728,1506.533813 1393.221313,1505.356934 1397.101440,1505.959717 
	C1400.020264,1506.412964 1402.889648,1507.183960 1404.244873,1507.479126 
	C1408.727051,1504.466187 1412.026733,1502.230469 1415.347412,1500.026489 
	C1416.425415,1499.311157 1418.067261,1498.947998 1418.586182,1497.966431 
	C1423.088989,1489.451172 1430.663940,1490.063110 1438.881958,1490.691895 
	C1440.374634,1494.727539 1441.818604,1498.631348 1443.244263,1502.485718 
	C1448.622559,1501.948608 1453.229980,1496.776733 1459.121826,1499.941650 
	C1459.121826,1503.997559 1459.121826,1507.724609 1459.121826,1512.333740 
	C1463.522217,1511.937988 1467.782227,1512.768311 1470.493896,1511.092773 
	C1480.243408,1505.069336 1488.939453,1510.230469 1497.628418,1513.044800 
	C1502.513062,1514.626831 1506.687256,1518.402100 1510.069336,1520.499634 
	C1513.729858,1528.356079 1516.364014,1535.588257 1520.393311,1541.935059 
	C1522.179565,1544.748535 1528.025513,1548.159546 1529.896729,1547.188965 
	C1537.574341,1543.206665 1549.222778,1544.491211 1551.120239,1531.485596 
	C1556.531738,1532.499023 1561.332764,1533.398071 1566.469727,1534.891602 
	C1569.295898,1541.176514 1571.607544,1546.954956 1574.346680,1552.522949 
	C1575.878540,1555.636597 1577.457642,1559.602173 1580.166626,1561.095703 
	C1587.956299,1565.390381 1596.337769,1566.786133 1604.617676,1561.637329 
	C1606.306885,1560.586792 1608.082397,1559.551636 1609.959229,1558.948608 
	C1615.460938,1557.181519 1618.338257,1559.380493 1618.012695,1565.064941 
	C1617.847778,1567.942749 1617.334595,1570.800659 1616.890259,1574.380981 
	C1626.529297,1577.176514 1635.670166,1579.827759 1644.527832,1582.396729 
	C1645.691650,1586.733276 1645.483032,1591.997192 1647.951904,1594.066284 
	C1656.696289,1601.394043 1653.121704,1608.361206 1648.978394,1615.813110 
	C1648.177490,1617.253662 1647.692261,1618.882568 1647.161743,1620.458252 
	C1645.886719,1624.245361 1646.726440,1626.787476 1651.000732,1627.987305 
	C1653.016846,1628.553345 1655.897827,1629.804199 1656.401978,1631.379883 
	C1659.725830,1641.769287 1668.271973,1642.696045 1677.042847,1643.714355 
	C1690.218628,1645.244385 1700.795776,1653.247070 1712.551147,1658.315063 
	C1713.396973,1658.679688 1714.239990,1659.555908 1714.627075,1660.403198 
	C1719.358521,1670.762085 1726.683472,1680.126221 1724.043579,1692.961670 
	C1722.618286,1699.890747 1725.156250,1707.404785 1722.492798,1714.445679 
	C1727.001099,1726.353760 1721.354492,1738.955688 1725.395630,1751.195801 
	C1727.543945,1757.702881 1721.036987,1762.118896 1715.621338,1764.573608 
	C1710.138184,1767.059326 1707.893188,1771.154419 1705.989258,1776.258423 
	C1704.673584,1779.785400 1702.457031,1782.976318 1700.809814,1786.010498 
	C1689.982056,1783.094727 1687.628174,1784.617920 1687.234009,1794.261963 
	C1687.102173,1797.490967 1687.407837,1800.924805 1688.412109,1803.968628 
	C1689.840576,1808.298828 1689.573242,1812.426636 1685.975586,1814.764893 
	C1680.354004,1818.418823 1682.278809,1823.439331 1682.302612,1828.195435 
	C1682.323486,1832.388062 1684.897339,1834.094971 1688.786865,1833.821045 
	C1690.702759,1833.686035 1692.578247,1832.976807 1694.626709,1832.490723 
	C1697.241699,1837.319702 1700.206421,1841.665405 1702.036987,1846.445435 
	C1704.643799,1853.252075 1706.451660,1860.157104 1712.355347,1865.363892 
	C1714.656616,1867.393188 1715.003052,1871.639038 1716.354858,1875.175903 
	C1712.323486,1876.683716 1709.292114,1877.817505 1705.965454,1879.061768 
	C1705.965454,1883.716919 1705.397827,1888.106689 1706.155518,1892.254395 
	C1706.703369,1895.252686 1708.412598,1898.585205 1710.647339,1900.626099 
	C1717.247314,1906.653564 1724.280273,1912.221436 1731.302368,1917.768433 
	C1740.701660,1925.193237 1741.373169,1934.941284 1739.615234,1945.727905 
	C1738.673340,1951.507935 1738.706421,1957.446655 1737.376709,1963.464355 
	C1735.126465,1963.727783 1733.792725,1963.987427 1732.473267,1963.927979 
	C1727.198730,1963.690796 1720.381104,1965.327515 1716.971313,1962.653442 
	C1709.320557,1956.653320 1701.695557,1956.669922 1693.070801,1957.806152 
	C1689.233032,1958.311646 1684.949463,1958.070679 1681.309814,1956.850952 
	C1675.156982,1954.789062 1669.565063,1950.328491 1663.351196,1949.363647 
	C1656.126343,1948.241943 1648.317383,1946.444214 1641.553345,1953.389282 
	C1634.180664,1960.959473 1625.827148,1967.779053 1617.133301,1973.820801 
	C1587.357544,1994.514038 1557.351074,2014.881104 1527.213867,2035.045654 
	C1513.153687,2044.453125 1499.595215,2054.034424 1487.997192,2066.765137 
	C1477.230347,2078.583252 1467.337402,2090.783447 1458.848999,2104.256592 
	C1456.931519,2107.300049 1454.556885,2110.302490 1451.736206,2112.468994 
	C1447.879395,2115.431152 1441.750732,2113.008301 1442.880005,2109.271484 
	C1445.041992,2102.117676 1440.386841,2099.736816 1436.407471,2096.401855 
	C1428.755737,2098.650635 1422.155273,2096.757324 1415.400269,2093.213623 
	C1408.506104,2089.596924 1403.483398,2083.935303 1397.513062,2079.418213 
	C1377.719849,2064.443604 1365.161987,2044.299683 1353.669067,2022.920044 
	C1351.968872,2023.181763 1349.794922,2023.032349 1348.099121,2023.861328 
	C1340.767578,2027.446289 1334.594604,2033.708984 1325.595703,2033.352783 
	C1321.703003,2039.097900 1312.306274,2038.074707 1310.016724,2046.099854 
	C1309.706177,2047.188354 1306.588745,2047.811401 1304.698608,2048.033447 
	C1302.075928,2048.341309 1299.384766,2048.050049 1296.722900,2048.042969 
	C1290.503662,2048.026611 1288.281250,2049.610107 1286.564453,2055.247803 
	C1284.594727,2061.716064 1286.094238,2069.900635 1290.362549,2071.507568 
	C1298.196167,2074.457275 1301.897095,2080.880615 1305.647949,2087.490967 
	C1306.598999,2089.166992 1307.358032,2091.277344 1308.825684,2092.280518 
	C1316.677124,2097.647949 1318.172607,2107.125732 1323.315674,2114.218506 
	C1323.896973,2115.019775 1323.262573,2116.672852 1323.262085,2117.930908 
	C1323.260010,2123.931152 1324.622559,2128.935547 1330.047363,2132.883789 
	C1335.834961,2137.096191 1342.459595,2141.625488 1345.578979,2147.644043 
	C1349.023804,2154.290283 1351.750854,2160.497070 1358.862549,2163.805176 
	C1359.884155,2164.280273 1360.418457,2165.802979 1361.528442,2167.318848 
	C1355.962036,2168.859375 1353.886475,2172.106689 1353.824219,2177.601074 
	C1353.786011,2180.979736 1352.438965,2185.567139 1350.005981,2187.456299 
	C1343.752319,2192.311768 1342.383423,2197.788086 1345.232544,2204.270996 
	C1337.159058,2206.315186 1329.572021,2208.061768 1322.118286,2210.260742 
	C1320.500854,2210.738037 1319.060913,2212.650391 1318.075562,2214.235352 
	C1316.706665,2216.436768 1315.844238,2218.953125 1314.642334,2221.605469 
	C1312.801270,2221.300781 1310.605713,2220.243652 1309.745117,2220.909912 
	C1304.879395,2224.678955 1298.962524,2225.306396 1293.471802,2227.261475 
	C1288.933350,2228.876953 1288.746582,2233.649414 1292.539551,2237.571533 
	C1293.597290,2238.665527 1294.947266,2239.477051 1295.305542,2239.754395 
	C1294.436890,2247.663818 1293.697266,2254.397705 1293.017578,2260.586182 
	C1288.348145,2261.633057 1284.464966,2262.353027 1280.668213,2263.389893 
	C1274.987183,2264.941406 1269.564819,2268.053711 1263.345581,2265.016846 
	C1262.269043,2264.491455 1260.067749,2265.294678 1258.871460,2266.157471 
	C1253.339233,2270.146729 1247.978149,2274.373535 1241.487549,2279.331543 
	C1241.487549,2283.627930 1241.487549,2289.179443 1241.487549,2296.405518 
	C1237.255981,2295.119385 1234.173950,2294.182861 1230.137207,2292.956055 
	C1227.480225,2296.643311 1224.406494,2300.908691 1222.383667,2303.715820 
	C1223.107300,2308.115479 1224.699951,2311.506836 1223.849365,2314.094971 
	C1222.555786,2318.031006 1219.709717,2321.509277 1217.271851,2325.006836 
	C1211.884155,2332.736328 1203.538086,2326.169434 1197.894531,2328.404297 
	C1194.267456,2334.214111 1191.052979,2339.176025 1188.087158,2344.282471 
	C1187.541748,2345.221680 1188.003296,2346.745850 1188.000000,2348.000000 
z" />


	<path data-name="Belel" 
	fill="#EFA0E5" opacity="1.000000" stroke="none" d="
M2218.000000,1859.166748 
	C2210.842041,1862.103027 2203.770264,1864.597778 2196.500488,1866.190918 
	C2190.152100,1867.582153 2183.383545,1867.246338 2177.161621,1868.974121 
	C2170.385498,1870.855835 2164.025146,1874.235962 2157.858887,1876.806152 
	C2157.022705,1880.980469 2156.345215,1884.362061 2155.560547,1888.278320 
	C2161.540527,1890.124634 2165.453613,1896.886108 2173.000488,1892.983887 
	C2173.980713,1892.476929 2176.569824,1895.080811 2179.133545,1896.697632 
	C2174.155518,1902.240601 2179.716797,1913.934814 2166.568604,1914.857300 
	C2170.066895,1922.903442 2162.934814,1925.725952 2159.543457,1930.551514 
	C2155.228760,1936.691284 2148.273926,1935.095337 2141.880127,1936.547607 
	C2142.822510,1942.647461 2142.609619,1948.035034 2140.705078,1953.636719 
	C2139.610352,1956.857178 2141.879150,1961.221313 2143.044189,1967.160645 
	C2143.473877,1966.893433 2142.135742,1968.006836 2140.599609,1968.635254 
	C2128.642578,1973.526489 2116.711670,1978.497192 2104.601562,1982.981445 
	C2102.588867,1983.726807 2099.351562,1982.868164 2097.359863,1981.644531 
	C2091.520264,1978.056274 2084.374512,1975.573486 2083.832031,1966.762451 
	C2083.732666,1965.149780 2080.688232,1963.551392 2078.792969,1962.253906 
	C2075.568359,1960.046143 2071.739014,1958.538940 2068.975830,1955.890259 
	C2066.093506,1953.127686 2062.823486,1953.118164 2061.265869,1955.512939 
	C2057.124756,1961.880005 2048.881592,1961.923218 2044.362793,1967.608276 
	C2042.432739,1970.036621 2039.106567,1971.354980 2036.016602,1973.447632 
	C2031.769653,1971.123291 2027.259399,1968.654907 2022.165405,1965.867188 
	C2019.434448,1970.181519 2012.499146,1969.899292 2012.552002,1977.635864 
	C2012.570557,1980.353271 2007.514282,1984.422363 2002.397827,1983.520142 
	C2000.120605,1983.118530 1997.593262,1983.106445 1995.646240,1982.053955 
	C1989.904785,1978.949951 1984.411743,1975.604126 1979.703979,1983.415527 
	C1972.750854,1981.698242 1969.515503,1988.584351 1963.954712,1990.284912 
	C1959.930542,1991.515747 1958.047974,1994.772461 1957.820190,1999.432617 
	C1957.461304,2006.774414 1953.503296,2012.061401 1946.667725,2011.818359 
	C1935.201538,2011.410400 1925.484253,2015.204834 1916.036377,2020.687622 
	C1911.446167,2023.351196 1907.233765,2023.145630 1903.252563,2019.709839 
	C1898.959839,2016.005005 1898.146484,2011.528442 1900.075928,2005.421997 
	C1900.671387,2003.537354 1901.313110,2000.451050 1900.386841,1999.601318 
	C1899.149536,1998.466553 1896.300049,1998.480103 1894.329712,1998.892700 
	C1891.160156,1999.556641 1888.143555,2000.950317 1884.859131,2002.107178 
	C1883.807861,2001.575439 1882.301880,2001.259888 1881.502075,2000.334229 
	C1877.362183,1995.542847 1872.211670,1994.828979 1866.273315,1995.592163 
	C1859.531372,1996.458618 1853.015015,1995.585449 1848.052612,1990.729980 
	C1843.500854,1993.428833 1839.343750,1995.893799 1835.002075,1998.468018 
	C1829.049561,1989.057617 1823.404419,1980.133179 1817.546875,1970.872803 
	C1808.327637,1974.053101 1800.470581,1977.509277 1792.252075,1979.362183 
	C1785.716797,1980.835449 1782.700562,1986.213623 1777.958618,1989.564575 
	C1770.518066,1994.822266 1765.156494,1995.060791 1758.989014,1988.577026 
	C1757.850464,1987.380249 1756.540283,1986.102905 1756.008301,1984.613037 
	C1752.867065,1975.815674 1746.597290,1969.608887 1738.893677,1963.677979 
	C1738.706421,1957.446655 1738.673340,1951.507935 1739.615234,1945.727905 
	C1741.373169,1934.941284 1740.701660,1925.193237 1731.302368,1917.768433 
	C1724.280273,1912.221436 1717.247314,1906.653564 1710.647339,1900.626099 
	C1708.412598,1898.585205 1706.703369,1895.252686 1706.155518,1892.254395 
	C1705.397827,1888.106689 1705.965454,1883.716919 1705.965454,1879.061768 
	C1709.292114,1877.817505 1712.323486,1876.683716 1716.354858,1875.175903 
	C1715.003052,1871.639038 1714.656616,1867.393188 1712.355347,1865.363892 
	C1706.451660,1860.157104 1704.643799,1853.252075 1702.036987,1846.445435 
	C1700.206421,1841.665405 1697.241699,1837.319702 1694.626709,1832.490723 
	C1692.578247,1832.976807 1690.702759,1833.686035 1688.786865,1833.821045 
	C1684.897339,1834.094971 1682.323486,1832.388062 1682.302612,1828.195435 
	C1682.278809,1823.439331 1680.354004,1818.418823 1685.975586,1814.764893 
	C1689.573242,1812.426636 1689.840576,1808.298828 1688.412109,1803.968628 
	C1687.407837,1800.924805 1687.102173,1797.490967 1687.234009,1794.261963 
	C1687.628174,1784.617920 1689.982056,1783.094727 1700.809814,1786.010498 
	C1702.457031,1782.976318 1704.673584,1779.785400 1705.989258,1776.258423 
	C1707.893188,1771.154419 1710.138184,1767.059326 1715.621338,1764.573608 
	C1721.036987,1762.118896 1727.543945,1757.702881 1725.395630,1751.195801 
	C1721.354492,1738.955688 1727.001099,1726.353760 1722.492798,1714.445679 
	C1725.156250,1707.404785 1722.618286,1699.890747 1724.043579,1692.961670 
	C1726.683472,1680.126221 1719.358521,1670.762085 1714.627075,1660.403198 
	C1714.239990,1659.555908 1713.396973,1658.679688 1712.551147,1658.315063 
	C1700.795776,1653.247070 1690.218628,1645.244385 1677.042847,1643.714355 
	C1668.271973,1642.696045 1659.725830,1641.769287 1656.401978,1631.379883 
	C1655.897827,1629.804199 1653.016846,1628.553345 1651.000732,1627.987305 
	C1646.726440,1626.787476 1645.886719,1624.245361 1647.161743,1620.458252 
	C1647.692261,1618.882568 1648.177490,1617.253662 1648.978394,1615.813110 
	C1653.121704,1608.361206 1656.696289,1601.394043 1647.951904,1594.066284 
	C1645.483032,1591.997192 1645.691650,1586.733276 1644.527832,1582.396729 
	C1635.670166,1579.827759 1626.529297,1577.176514 1616.890259,1574.380981 
	C1617.334595,1570.800659 1617.847778,1567.942749 1618.012695,1565.064941 
	C1618.338257,1559.380493 1615.460938,1557.181519 1609.959229,1558.948608 
	C1608.082397,1559.551636 1606.306885,1560.586792 1604.617676,1561.637329 
	C1596.337769,1566.786133 1587.956299,1565.390381 1580.166626,1561.095703 
	C1577.457642,1559.602173 1575.878540,1555.636597 1574.346680,1552.522949 
	C1571.607544,1546.954956 1569.295898,1541.176514 1566.991699,1534.255371 
	C1567.115234,1528.466309 1567.147949,1523.903931 1566.944824,1519.351929 
	C1566.857544,1517.398438 1565.513062,1515.211914 1566.058594,1513.568970 
	C1568.445190,1506.380493 1565.818481,1500.547607 1561.767700,1495.010254 
	C1558.581909,1490.655518 1559.703247,1486.929321 1563.152954,1483.479736 
	C1564.325562,1482.307129 1565.749634,1481.390747 1566.986328,1480.276855 
	C1575.016235,1473.044556 1572.953247,1455.795532 1562.558960,1452.858643 
	C1551.790771,1449.815918 1547.054688,1443.829590 1545.922729,1433.547607 
	C1545.781250,1432.263062 1544.994873,1431.062500 1544.637451,1429.786499 
	C1539.805054,1412.533569 1540.290649,1396.343506 1553.923828,1382.701416 
	C1558.143677,1378.478760 1562.175659,1374.068115 1566.289185,1369.739136 
	C1583.707886,1351.406982 1604.427856,1343.434937 1630.073242,1346.811890 
	C1653.139160,1349.849243 1676.447021,1351.415649 1699.798828,1349.768921 
	C1704.549438,1352.604248 1709.076904,1357.171875 1714.109375,1357.820557 
	C1719.930298,1358.570923 1724.765381,1360.239136 1729.780396,1363.002197 
	C1728.340576,1368.343750 1722.433105,1371.658081 1724.319824,1377.762207 
	C1724.886475,1379.595703 1724.699341,1382.364746 1725.896240,1383.180176 
	C1731.291138,1386.854370 1731.183350,1392.199951 1732.160034,1397.810791 
	C1733.774780,1407.088501 1738.842651,1413.990845 1747.993408,1418.578003 
	C1756.866577,1423.025879 1767.638306,1425.100830 1773.573975,1434.935913 
	C1772.767212,1437.314941 1771.941284,1439.750610 1771.192017,1441.959961 
	C1771.725342,1442.792603 1771.962036,1443.385620 1772.387817,1443.767578 
	C1772.871948,1444.201904 1773.521362,1444.725952 1774.105835,1444.734375 
	C1785.449341,1444.898926 1792.372437,1453.105347 1800.593262,1459.905396 
	C1802.574097,1457.135620 1804.235596,1454.812622 1806.058228,1452.264282 
	C1817.712646,1454.103149 1829.487549,1455.960938 1841.291260,1457.823364 
	C1845.894043,1472.008423 1835.537354,1481.102905 1830.395752,1492.560059 
	C1837.404053,1499.074463 1846.552124,1497.873169 1855.466675,1498.623901 
	C1857.210083,1511.112671 1860.518921,1522.989746 1854.544312,1534.972046 
	C1853.724487,1536.616211 1855.108276,1539.942017 1856.356445,1541.935547 
	C1862.395020,1551.580811 1865.348999,1561.581421 1862.449463,1573.056519 
	C1859.899658,1583.147583 1852.926270,1589.271240 1843.203491,1587.222046 
	C1837.887451,1586.101562 1835.497681,1588.133423 1832.080200,1591.157837 
	C1824.676636,1597.710205 1822.788330,1607.109741 1818.709229,1615.328125 
	C1817.118164,1618.533813 1818.649658,1622.114014 1823.235596,1622.258911 
	C1833.694458,1622.589355 1843.287598,1624.966064 1852.342407,1630.791382 
	C1855.794312,1633.012085 1861.384521,1631.877075 1865.993408,1632.339233 
	C1873.455811,1633.087402 1880.912720,1633.891724 1888.608765,1636.550415 
	C1890.414429,1635.241211 1892.060791,1633.297485 1894.068481,1632.793335 
	C1896.268677,1632.240845 1899.294312,1632.227783 1901.102905,1633.355103 
	C1907.711304,1637.473999 1907.897827,1637.383423 1914.851074,1632.234375 
	C1919.249512,1628.977295 1924.384033,1626.727173 1929.099243,1623.877808 
	C1930.769043,1622.868774 1932.208252,1621.461426 1933.695679,1620.169922 
	C1941.308716,1613.560425 1948.926880,1616.293701 1951.010986,1626.398560 
	C1952.330200,1632.794678 1957.505371,1634.972046 1963.374390,1631.651855 
	C1966.429077,1629.923828 1969.541992,1628.298828 1973.294189,1626.266724 
	C1979.034424,1630.047729 1985.621216,1632.379272 1993.196777,1630.470093 
	C1994.880371,1630.045898 1996.991699,1631.238770 1998.888184,1631.753662 
	C2005.568726,1633.568115 2011.680542,1634.342529 2016.493408,1627.352417 
	C2018.688843,1624.163696 2022.197388,1625.024902 2025.171753,1628.492432 
	C2026.777222,1626.520996 2028.517212,1624.384521 2030.188477,1622.332520 
	C2034.204956,1622.637329 2038.037598,1622.928223 2042.483032,1623.265625 
	C2043.365601,1626.745361 2046.074097,1629.294800 2043.448486,1634.506470 
	C2041.465698,1638.441895 2043.576538,1644.819092 2044.888672,1649.842163 
	C2045.388794,1651.756592 2048.758301,1652.904297 2050.791504,1654.439331 
	C2053.812744,1656.720337 2058.082031,1658.015259 2057.495850,1663.157959 
	C2057.410889,1663.903809 2058.128418,1665.408936 2058.573730,1665.448364 
	C2066.567627,1666.159546 2064.679932,1672.771606 2065.275879,1677.303223 
	C2066.797119,1688.872437 2072.029053,1694.560303 2083.538330,1696.475342 
	C2085.165771,1699.217163 2086.043701,1702.338867 2088.103516,1703.859741 
	C2094.461670,1708.554565 2099.129150,1713.712646 2098.455811,1722.357422 
	C2098.242188,1725.099121 2099.447266,1727.951416 2100.040283,1730.940552 
	C2097.443604,1733.395630 2094.580811,1736.102295 2091.178467,1739.318848 
	C2096.047363,1746.963135 2104.152344,1748.317627 2111.677246,1751.913940 
	C2111.760742,1753.506836 2111.872070,1755.630615 2112.025879,1758.568604 
	C2117.199463,1758.150391 2122.127197,1757.950928 2126.995850,1757.307739 
	C2132.932861,1756.523071 2135.784668,1758.602295 2135.605713,1764.571167 
	C2135.467285,1769.182495 2134.800293,1773.779541 2134.329346,1778.378906 
	C2133.725586,1784.278809 2135.042969,1789.442627 2140.070312,1793.422607 
	C2142.814453,1791.892456 2145.637939,1790.317993 2148.195068,1788.892090 
	C2150.907715,1790.340332 2153.231201,1791.527466 2155.504150,1792.804688 
	C2160.983398,1795.883301 2161.806152,1797.587646 2160.092285,1804.381470 
	C2158.095215,1812.299316 2162.698975,1817.515137 2166.515625,1822.322021 
	C2174.359131,1824.118530 2181.500488,1825.754272 2188.851074,1827.437988 
	C2192.773193,1836.087524 2196.730225,1838.856201 2207.314941,1842.911133 
	C2210.957031,1844.306519 2213.622803,1848.250122 2217.367188,1850.514893 
	C2218.000000,1852.777832 2218.000000,1855.555542 2218.000000,1859.166748 
z" />
	<path data-name="Martap" 
	fill="#60B4DB" opacity="1.000000" stroke="none" d="
M703.778931,2087.269287 
	C701.251404,2088.550049 698.343689,2089.874268 695.646973,2089.532715 
	C686.913513,2088.426270 677.596008,2089.672607 669.873535,2083.812012 
	C668.868469,2083.049316 667.303589,2082.295898 666.190430,2082.515381 
	C653.714478,2084.973145 644.415771,2075.029053 632.809387,2073.981934 
	C631.115601,2073.829102 629.000549,2071.310791 628.238281,2069.419922 
	C626.897095,2066.093262 626.450012,2062.406250 625.379822,2057.799561 
	C621.171875,2057.799561 616.447327,2057.799561 611.751892,2057.799561 
	C611.526062,2057.208008 611.164551,2056.645020 611.108521,2056.052979 
	C610.700317,2051.738770 611.556580,2045.700928 605.788879,2045.541992 
	C602.129883,2045.441284 598.265930,2049.243896 594.684143,2051.586426 
	C593.210327,2052.550537 592.276978,2055.427246 591.027710,2055.471436 
	C583.106506,2055.754639 575.730774,2060.355225 567.545532,2058.330811 
	C565.630737,2057.857422 563.532043,2057.471924 561.622559,2057.753906 
	C555.444031,2058.666016 549.930969,2057.698242 545.326538,2052.407227 
	C543.265808,2054.134521 541.462952,2055.490479 539.839111,2057.034912 
	C534.323914,2062.280273 529.633240,2061.613525 525.754822,2054.890381 
	C523.986328,2051.824707 522.431091,2048.634277 520.620483,2045.594849 
	C516.751953,2039.100220 509.377808,2037.565796 503.364502,2034.677002 
	C496.185028,2031.228027 488.041626,2029.419922 480.117737,2028.031372 
	C475.772064,2027.269775 472.971161,2025.467773 470.085663,2022.517334 
	C467.637024,2020.013550 464.687134,2017.444336 461.467468,2016.348999 
	C449.357330,2012.228760 448.568085,2011.535034 447.470642,1998.421997 
	C447.417511,1997.786987 447.031616,1997.179810 446.658203,1996.177124 
	C440.563721,1992.718018 434.710907,1991.234985 426.679657,1992.877319 
	C420.426208,1994.156128 412.698608,1990.042114 406.134857,1987.164429 
	C403.186859,1985.871948 402.637878,1981.433350 405.180176,1978.371582 
	C407.705383,1975.330688 410.803741,1972.773560 413.499084,1969.863770 
	C416.741516,1966.363159 416.117096,1961.659546 411.613037,1960.544189 
	C402.421387,1958.268311 400.253479,1949.049927 393.549377,1944.134399 
	C393.080200,1944.550537 392.060425,1945.041626 391.711761,1945.829712 
	C388.947662,1952.077881 384.118469,1954.345581 377.442383,1954.412354 
	C369.184082,1954.495239 361.654053,1957.790405 355.695343,1963.166992 
	C348.979462,1969.226562 343.709991,1976.898438 336.944855,1982.890625 
	C333.314606,1986.105957 327.865631,1987.267700 321.828430,1989.991943 
	C315.656281,2000.798828 304.239471,2007.641113 291.366547,2012.603638 
	C289.192841,2013.441528 287.108337,2014.771118 284.865540,2015.119263 
	C278.809845,2016.059204 275.964142,2020.133911 276.092743,2025.438721 
	C276.197906,2029.776855 273.660980,2031.161133 271.119354,2033.214844 
	C264.176788,2038.824463 256.574829,2043.876221 253.961716,2053.451416 
	C241.012650,2052.398682 236.339661,2060.910156 233.730423,2072.577637 
	C218.062149,2065.909424 203.045197,2061.744873 187.582565,2065.831299 
	C180.311325,2054.419678 183.819458,2046.553467 192.258530,2038.218872 
	C198.036942,2032.511719 199.137772,2023.223145 204.127502,2016.185059 
	C206.601746,2012.694946 204.188553,2005.878174 204.381195,2000.580688 
	C204.497604,1997.379883 204.484177,1993.649292 206.070740,1991.125977 
	C210.760452,1983.667114 212.919708,1974.382690 221.168549,1969.373291 
	C226.172974,1966.334351 222.986099,1960.527344 225.235260,1956.712891 
	C228.785629,1950.691650 224.164093,1948.255005 220.776840,1945.388672 
	C216.680389,1941.922363 214.587448,1937.604370 214.695251,1932.396118 
	C214.806305,1927.031006 212.798050,1923.042969 208.845795,1919.450317 
	C207.138916,1917.898682 206.024094,1915.001587 205.820007,1912.614868 
	C205.060349,1903.729980 204.674896,1894.807007 204.389435,1885.890625 
	C204.263245,1881.948120 204.712021,1877.987427 204.937317,1873.244873 
	C193.680450,1865.711670 190.072708,1852.350586 184.320328,1839.455078 
	C187.586334,1832.725220 189.747803,1824.782837 197.383728,1819.138550 
	C204.621796,1813.788330 200.051514,1804.290161 193.749146,1798.850464 
	C192.087769,1797.416504 189.505310,1796.735718 188.400101,1795.026978 
	C184.086319,1788.357422 178.507446,1784.701538 172.614792,1785.860718 
	C167.697784,1782.620117 164.322540,1780.575317 161.157166,1778.245483 
	C159.087463,1776.721924 156.152039,1775.072754 155.637100,1772.979614 
	C154.009857,1766.365234 149.186661,1762.196411 144.911697,1757.776001 
	C141.870117,1754.630981 140.680267,1751.500000 142.653946,1748.049194 
	C145.584702,1742.924927 144.213821,1738.190430 141.914948,1733.807373 
	C139.082809,1728.407593 138.120590,1722.745728 136.896561,1716.906006 
	C135.634232,1710.883545 132.366272,1705.281616 129.942780,1698.017090 
	C128.720947,1691.694946 127.532089,1686.851440 126.343231,1682.007812 
	C126.275703,1674.006226 126.208176,1666.004639 126.887177,1656.763916 
	C129.546204,1652.534790 130.857803,1649.356812 135.835037,1650.454468 
	C144.963593,1652.467773 149.434738,1648.463379 151.993484,1639.479370 
	C153.265121,1635.014648 152.084427,1629.760498 156.668152,1625.881592 
	C160.352615,1622.763672 163.937973,1619.228516 166.356232,1614.485596 
	C167.758560,1611.735229 170.712570,1607.364014 175.991821,1609.543457 
	C177.110519,1610.005371 178.798889,1609.087402 181.198990,1608.612549 
	C178.898254,1605.163086 177.283615,1602.742188 175.552490,1600.146729 
	C180.914139,1596.886230 185.594833,1594.039673 190.354431,1591.145264 
	C194.440887,1593.309448 198.137466,1595.267090 201.654892,1597.129883 
	C204.524979,1592.056152 206.654663,1587.364258 209.633484,1583.293701 
	C212.449692,1579.445435 213.234360,1576.756348 209.180389,1573.121582 
	C207.383087,1571.509888 206.612885,1568.050415 206.528107,1565.393066 
	C206.395630,1561.239258 207.242096,1557.054199 207.766998,1551.982178 
	C211.522675,1551.341309 216.218750,1550.540039 219.786987,1549.931152 
	C223.161942,1545.124023 226.190521,1540.810303 229.249802,1536.452759 
	C231.354126,1537.749390 232.713806,1538.587158 233.984604,1539.370117 
	C240.126297,1536.400024 246.139053,1533.492188 252.057175,1530.630127 
	C251.842255,1529.586182 251.918457,1528.759277 251.542404,1528.316162 
	C248.059204,1524.211914 248.491409,1519.798096 251.657135,1516.188843 
	C254.552689,1512.887451 257.465149,1516.150879 260.430511,1517.394531 
	C268.191101,1520.649170 273.542664,1516.940186 274.121887,1508.332153 
	C274.177032,1507.512329 274.699402,1506.723877 274.782806,1506.504639 
	C282.495270,1506.767944 289.748810,1507.874023 294.226868,1502.520020 
	C299.500153,1504.228271 304.222778,1505.758179 309.466766,1507.457031 
	C309.674500,1508.413452 310.113007,1510.432495 310.469086,1512.071899 
	C314.325989,1511.381836 318.258179,1509.411499 320.386719,1510.619385 
	C323.025940,1512.117310 324.171326,1516.247559 326.019226,1519.336304 
	C338.696014,1521.357178 337.078156,1509.447144 342.094421,1503.353760 
	C335.130341,1497.283081 326.622406,1498.200806 318.921448,1496.422974 
	C320.039124,1487.713501 320.489929,1479.603760 314.793732,1472.593384 
	C315.460083,1471.756592 316.010284,1470.925171 316.695770,1470.226440 
	C324.946899,1461.815186 333.571716,1453.569946 328.811005,1439.907104 
	C328.766388,1439.779053 330.680359,1438.968750 332.124756,1438.836792 
	C333.146057,1439.310181 333.732117,1439.523193 334.292511,1439.469360 
	C334.438690,1439.455322 334.505096,1438.610352 334.608124,1438.146973 
	C333.593201,1438.331665 332.578247,1438.516479 331.959503,1437.571045 
	C332.005157,1431.697266 331.654663,1426.953613 331.886658,1422.804199 
	C334.624512,1424.406738 336.779846,1425.415161 339.643097,1426.754639 
	C339.007812,1423.711914 338.642914,1421.964233 338.864502,1419.839844 
	C344.737274,1416.581909 350.023560,1413.700806 356.700226,1410.061890 
	C353.684937,1409.186768 352.225159,1408.657593 350.720520,1408.344116 
	C343.568878,1406.854004 342.238892,1404.375977 347.057648,1399.542236 
	C352.306519,1394.277100 354.690186,1384.172241 365.583801,1387.111450 
	C366.002380,1387.224243 366.982330,1386.654175 367.112976,1386.223999 
	C368.703583,1380.986694 373.544739,1382.884277 376.882385,1381.411377 
	C384.510620,1378.044556 395.613037,1381.232788 399.233093,1369.374268 
	C399.837921,1367.393066 406.111603,1366.673462 409.861816,1366.274658 
	C412.694397,1365.973511 415.668335,1367.224609 418.605560,1367.543091 
	C419.454193,1367.635254 420.393616,1366.890869 421.432129,1366.473267 
	C422.077087,1363.647583 422.705627,1360.893677 423.386993,1357.908447 
	C428.180145,1358.375122 432.423645,1358.788330 437.228638,1359.256226 
	C437.844940,1356.989136 438.481293,1354.648438 438.893921,1353.130493 
	C446.091187,1347.937500 452.630371,1352.748169 459.323975,1353.238770 
	C458.781738,1350.033569 456.764099,1347.206787 452.880737,1344.436523 
	C457.032043,1336.669556 461.261658,1328.756104 465.817719,1320.231812 
	C469.525146,1323.626709 472.103271,1325.987549 475.747772,1329.324951 
	C477.200684,1324.931519 478.285675,1321.650635 479.367706,1318.378784 
	C481.527222,1317.868530 483.638367,1317.369751 486.317261,1316.736816 
	C484.682556,1313.585815 483.377319,1311.069824 482.015472,1308.444824 
	C483.547028,1306.392212 485.359924,1304.791748 486.116699,1302.791626 
	C488.307892,1297.000244 490.784851,1291.170410 491.824493,1285.127686 
	C493.067657,1277.901978 492.286591,1270.078247 486.911041,1264.790405 
	C482.978180,1260.921631 480.455994,1256.827759 478.593567,1251.920288 
	C476.429657,1246.218262 477.733246,1240.944580 482.955719,1237.797363 
	C486.012299,1235.955444 489.545441,1234.768799 493.000702,1233.750732 
	C501.719788,1231.181396 509.338043,1222.650513 509.605347,1214.781006 
	C518.603943,1216.094971 523.841309,1214.022339 523.091553,1207.788940 
	C522.296875,1201.181396 524.819580,1195.980347 526.509460,1190.394775 
	C528.573364,1183.573364 531.608459,1177.045776 534.608948,1169.410400 
	C534.125061,1168.411255 533.001099,1166.090454 531.545349,1163.084595 
	C533.913635,1162.018311 535.840088,1160.566406 537.908142,1160.324341 
	C545.450195,1159.441895 553.031921,1158.828857 560.614746,1158.395874 
	C563.832153,1158.212158 567.162415,1158.364502 570.311707,1159.003296 
	C575.477600,1160.051147 580.325928,1163.922729 585.651428,1158.413086 
	C586.943420,1157.076294 591.366272,1158.415405 594.233093,1159.049805 
	C597.090271,1159.681885 599.801392,1160.974121 603.049255,1162.147705 
	C604.070679,1158.724854 604.982483,1155.669434 605.836060,1152.809204 
	C599.488892,1146.503540 596.814270,1131.927002 601.555847,1125.126587 
	C607.093689,1117.184204 613.716125,1109.998169 620.728210,1101.433105 
	C620.106384,1100.465088 618.544739,1098.102539 617.056458,1095.694702 
	C615.892517,1093.811646 614.013916,1091.942505 613.839783,1089.946167 
	C612.889771,1079.054810 612.305908,1068.129028 611.772278,1057.206421 
	C611.696838,1055.663086 612.294373,1053.906128 613.077820,1052.531616 
	C617.162170,1045.365112 618.427124,1037.568237 618.601929,1029.486938 
	C620.556458,1027.801270 622.263245,1025.581055 624.515381,1024.533569 
	C631.750427,1021.168457 638.062866,1014.437683 647.395386,1018.445251 
	C649.272217,1025.165405 644.839539,1032.640503 650.726990,1036.979370 
	C656.973450,1035.685303 662.142212,1034.614502 667.560913,1033.491943 
	C670.853577,1040.459717 679.459778,1043.251953 678.701660,1052.936523 
	C689.411682,1049.966431 699.535645,1049.673584 709.017029,1044.929688 
	C718.370056,1040.250000 728.527344,1036.087036 738.682495,1044.088501 
	C739.882019,1045.033569 741.880188,1045.641724 743.365845,1045.426147 
	C748.810364,1044.635620 752.907166,1047.340454 757.218018,1049.896240 
	C766.526794,1055.415039 775.783142,1061.059814 785.376465,1066.045776 
	C790.222412,1068.564331 795.862610,1069.502563 800.955200,1071.610596 
	C810.221680,1075.446289 819.446411,1079.476807 822.987244,1090.224243 
	C823.227905,1090.954712 824.545288,1091.330566 825.818542,1092.173706 
	C831.013855,1089.088501 836.588196,1086.523926 841.088440,1093.953735 
	C841.119507,1094.243530 841.329712,1094.910034 841.237000,1095.531372 
	C839.507202,1107.122803 841.846863,1109.804199 853.108337,1107.193604 
	C859.084045,1105.808472 860.969604,1109.317627 862.992065,1113.045288 
	C864.349365,1115.546753 864.857971,1118.508911 866.023010,1122.123535 
	C867.900574,1120.582275 869.087036,1119.623901 870.255676,1118.644531 
	C871.425476,1117.664062 872.577576,1116.662476 873.429749,1115.933472 
	C877.827393,1118.417358 881.593994,1120.390625 885.179260,1122.651489 
	C886.479248,1123.471191 887.615234,1124.831055 888.363525,1126.197754 
	C891.660583,1132.220215 896.034851,1138.020142 897.670471,1144.494019 
	C899.831726,1153.047974 904.325562,1157.695801 912.567383,1159.671997 
	C914.754272,1160.196167 916.684265,1161.792480 918.638733,1163.587280 
	C914.784851,1171.971191 910.920349,1179.615967 907.317078,1187.381958 
	C905.945679,1190.337646 904.110291,1193.644165 904.316711,1196.665894 
	C905.142944,1208.763916 901.631104,1219.575562 895.890686,1229.885620 
	C893.418213,1234.326294 893.386108,1238.536133 895.757202,1243.097656 
	C899.732727,1250.745483 903.505005,1258.507080 907.089661,1266.345825 
	C908.437744,1269.293701 909.878540,1272.617432 909.777161,1275.720947 
	C909.579468,1281.774536 910.885254,1286.650757 915.654297,1290.733643 
	C917.158020,1292.020996 918.269043,1294.924683 918.010376,1296.884155 
	C917.374451,1301.700195 916.549194,1306.734741 914.496826,1311.063477 
	C911.412903,1317.567871 907.215576,1323.544312 904.584534,1327.925171 
	C906.907593,1335.183228 908.663635,1340.669556 909.920532,1346.664307 
	C899.541443,1352.531738 889.802002,1358.173950 879.743225,1363.173462 
	C868.876831,1368.574463 877.531250,1381.845093 869.188782,1388.255859 
	C868.230103,1388.992554 868.914612,1391.951172 868.969849,1393.875854 
	C868.987793,1394.500244 869.388733,1395.132568 869.683167,1395.727295 
	C872.645935,1401.709595 871.894531,1407.751465 871.013855,1414.177246 
	C868.764587,1430.589722 862.758240,1446.336548 863.143738,1463.289551 
	C863.250488,1467.988525 859.075623,1472.752197 857.003174,1477.545776 
	C855.752441,1480.438721 853.688049,1483.520386 853.883728,1486.387939 
	C854.318054,1492.751465 852.527710,1498.221069 849.385254,1503.417114 
	C845.474243,1509.884033 844.566589,1516.846313 843.981750,1524.311646 
	C843.184998,1534.481201 841.450684,1544.747437 838.646667,1554.551392 
	C833.985107,1570.850098 836.137329,1591.683838 844.755432,1606.246338 
	C850.144043,1615.351929 855.994019,1624.500244 854.299744,1635.964966 
	C852.370789,1637.751709 850.441772,1639.538330 847.917603,1641.876343 
	C842.785461,1634.495239 836.588501,1633.633911 829.995972,1639.726318 
	C827.745728,1637.579224 825.881104,1635.800049 824.192200,1634.188599 
	C816.851624,1635.779419 809.824280,1636.243774 803.961243,1641.563965 
	C801.798584,1643.526611 797.378479,1645.115845 792.801392,1642.889282 
	C789.456055,1641.261719 784.125244,1643.614014 780.881348,1641.907593 
	C777.558228,1640.159424 775.994812,1635.328003 773.065063,1632.453857 
	C771.721375,1631.135864 768.929871,1630.750244 766.831665,1630.836182 
	C755.805969,1631.288574 749.137939,1638.632446 742.925842,1646.533081 
	C741.492188,1648.356567 740.456421,1650.522339 738.887939,1652.204834 
	C733.302002,1658.195679 733.244751,1658.142334 737.132080,1665.013306 
	C734.246887,1665.891479 731.478088,1667.128662 728.596069,1667.509399 
	C725.188171,1667.959595 723.249146,1669.349609 722.199463,1672.700195 
	C720.745117,1677.342529 716.538025,1680.694092 712.471497,1679.498291 
	C706.511719,1677.745605 703.945251,1681.461914 699.967651,1684.646118 
	C697.674377,1683.127808 695.394165,1681.618164 692.741272,1679.861694 
	C693.335754,1684.804321 693.851135,1689.089600 694.478760,1694.307739 
	C700.738037,1696.236694 703.263916,1702.352661 705.983765,1708.405762 
	C710.576477,1718.627441 715.309387,1728.786621 720.036316,1738.947388 
	C722.751404,1744.783813 722.928528,1750.081177 719.080200,1755.868530 
	C717.110168,1758.831177 716.067749,1763.598511 716.898315,1766.988770 
	C718.639343,1774.095215 721.643311,1781.137817 724.491760,1787.678955 
	C728.516907,1796.922363 730.980103,1806.346069 733.767944,1815.838379 
	C735.046509,1820.191528 736.609131,1824.891602 739.429626,1828.280029 
	C747.550659,1838.036377 748.887207,1850.017212 751.667969,1861.566895 
	C752.627808,1865.553345 750.573914,1868.539429 747.970886,1871.314453 
	C743.654053,1875.916382 739.320740,1880.512939 735.218323,1885.303345 
	C730.918274,1890.325195 729.242432,1896.064087 729.959961,1902.868774 
	C730.673401,1909.634277 732.059204,1916.972046 723.960144,1921.328491 
	C722.721313,1921.994873 722.280457,1925.490234 722.607849,1927.490967 
	C724.066040,1936.400879 724.882324,1945.194092 722.084717,1954.031128 
	C721.510254,1955.845825 721.892151,1957.996338 721.988464,1959.984497 
	C722.343872,1967.316772 720.958923,1973.140747 712.089233,1974.473267 
	C709.853577,1974.809204 707.089355,1977.167236 706.099243,1979.305176 
	C701.527344,1989.177856 697.467285,1999.247070 700.530701,2010.598511 
	C701.909119,2015.706543 702.817871,2020.947266 703.785950,2026.156372 
	C704.081909,2027.749390 704.137756,2029.488525 703.840759,2031.073853 
	C701.963318,2041.096313 701.819885,2050.985107 703.735046,2061.127930 
	C704.749268,2066.498779 703.340698,2072.309326 703.186096,2077.925781 
	C703.107117,2080.795410 703.380981,2083.675049 703.778931,2087.269287 
z" />

	<path data-name="Mbe" 
	fill="#DD554E" opacity="1.000000" stroke="none" d="
M647.395386,1018.445251 
	C648.117981,1009.458374 648.628296,1001.453491 655.873840,995.298157 
	C660.328064,991.514099 658.832825,988.041992 651.222473,982.209839 
	C653.620300,977.458862 656.137207,972.472046 658.922913,966.952576 
	C656.579773,965.114258 653.525452,962.638428 650.384949,960.277283 
	C647.500854,958.108948 646.540161,954.774536 648.646301,952.442017 
	C655.507507,944.843201 659.426636,934.732239 668.755005,929.216187 
	C672.385254,927.069519 673.556641,922.723206 671.397888,919.636536 
	C667.685242,914.328247 664.959106,909.828003 667.005920,902.670349 
	C667.969360,899.301270 664.510498,894.659485 663.033752,890.602356 
	C659.294556,880.329285 660.459473,878.902588 671.234924,880.567505 
	C671.869507,880.665588 672.520325,880.658813 673.161743,880.697571 
	C679.636719,874.686829 686.241821,868.809143 692.522766,862.603516 
	C694.810791,860.342834 698.022827,857.200500 697.871033,854.634521 
	C697.447998,847.488037 701.952759,845.387451 706.986023,843.375671 
	C711.493591,841.574036 712.906311,838.585083 711.745483,833.911377 
	C710.952637,830.719299 710.490356,827.408508 710.251343,824.123718 
	C709.825684,818.273743 708.343262,813.303467 703.226135,809.473816 
	C700.445190,807.392700 698.362000,803.964600 696.808655,800.737549 
	C692.625610,792.047241 693.547974,789.891785 700.969910,783.196472 
	C705.963074,778.692139 712.566345,775.401306 713.156616,767.082947 
	C713.288452,765.224976 717.237854,763.260498 719.764648,762.036743 
	C723.747253,760.107910 727.609009,758.322388 729.085266,752.927979 
	C725.139038,749.213623 719.900757,745.584167 722.095459,739.026978 
	C721.036621,738.169556 720.589355,737.549927 720.008423,737.375427 
	C710.493469,734.518066 704.587524,728.261230 701.176147,718.941040 
	C699.701538,714.912415 696.535339,711.502869 694.512451,707.169312 
	C699.150818,706.357666 703.414307,706.188843 708.415527,706.269897 
	C712.955750,715.144775 721.853394,714.916382 728.985291,717.242126 
	C730.944702,717.881104 734.280029,714.300537 736.187866,713.140381 
	C743.249878,713.382202 749.757385,713.267334 756.186340,713.923096 
	C762.239502,714.540527 768.312561,715.086304 774.013123,718.052917 
	C777.038025,719.627136 780.976624,719.586365 784.535828,719.958923 
	C789.364014,720.464233 793.349792,721.957092 796.130310,726.369568 
	C798.040588,729.401062 800.780090,731.900879 803.057373,734.712524 
	C806.763611,739.288452 809.208008,744.155029 806.402405,750.192200 
	C806.001831,751.054138 806.236145,752.188904 805.961792,753.135193 
	C804.347412,758.703796 799.211548,764.719116 803.793152,769.949341 
	C808.763672,775.623535 816.186279,779.257874 823.954895,779.493835 
	C835.493958,779.844177 846.910400,779.101135 858.245422,775.430115 
	C871.415161,771.164856 885.114563,768.493652 898.659729,765.469543 
	C900.888306,764.971985 904.411377,765.351440 905.790710,766.798523 
	C912.856262,774.211365 922.188416,773.079407 930.790833,773.626282 
	C939.117310,774.155518 947.301636,773.660400 954.397766,779.303772 
	C956.661133,781.103821 959.726501,782.049255 962.564331,782.943359 
	C969.974426,785.278320 977.331482,782.387390 979.562561,775.073730 
	C981.508423,768.695190 986.553467,765.903564 990.626709,761.364868 
	C997.267151,764.617004 1003.607971,767.033936 1010.455505,762.483093 
	C1012.064026,761.414185 1014.949585,762.265564 1017.247681,762.235840 
	C1020.395203,762.195129 1023.544189,762.198669 1026.689453,762.091492 
	C1027.635254,762.059326 1028.846802,761.241028 1029.468994,761.597961 
	C1037.256348,766.066162 1043.694946,764.404358 1050.034302,758.352844 
	C1051.614990,756.843994 1055.649780,757.197144 1058.361328,757.715881 
	C1066.227417,759.220520 1073.654053,758.330872 1080.111572,753.700439 
	C1084.314209,750.687012 1089.669922,750.634033 1093.701538,746.359802 
	C1096.389404,743.510193 1099.061523,741.179443 1101.472534,737.733887 
	C1104.358154,733.610229 1110.484863,731.081726 1115.703979,729.447876 
	C1121.225098,727.719604 1125.664917,730.685242 1128.525635,736.006287 
	C1129.524292,737.863831 1131.824707,739.021484 1133.903076,740.821228 
	C1132.348633,743.588013 1130.955322,746.067810 1129.387573,748.857971 
	C1133.192261,753.305176 1134.899414,758.892029 1143.024292,758.355225 
	C1146.818604,758.104492 1151.023682,763.292847 1154.956909,766.134460 
	C1159.227539,769.219788 1163.398682,772.442871 1168.021362,775.912231 
	C1167.013428,778.532776 1165.905151,780.904480 1165.204102,783.390930 
	C1164.595093,785.550903 1164.002075,787.877441 1164.182373,790.066101 
	C1164.636108,795.576477 1166.058105,801.049805 1166.066040,806.539429 
	C1166.071411,810.297913 1164.590820,814.139587 1163.346436,817.798523 
	C1161.749390,822.494385 1159.719360,827.042786 1157.883057,831.657471 
	C1155.259155,838.251343 1157.532471,845.500610 1161.403931,849.106445 
	C1171.087280,858.125610 1176.255859,870.122375 1184.559814,879.928589 
	C1190.132202,886.509216 1192.888550,894.175171 1191.738403,903.210571 
	C1191.443726,905.526184 1193.965454,908.363037 1195.551270,910.719421 
	C1198.331665,914.850586 1203.265625,917.693787 1200.913086,924.359314 
	C1200.271729,926.176270 1203.856812,929.669678 1205.819458,932.141663 
	C1206.783325,933.355713 1209.579590,933.897278 1209.667480,934.906860 
	C1210.948120,949.608643 1226.732178,950.504578 1233.645996,959.948425 
	C1235.372925,962.307495 1241.542114,962.300903 1245.536133,961.932678 
	C1254.365234,961.118713 1255.700928,962.832336 1261.448120,969.190125 
	C1267.045776,975.382690 1275.059204,979.394409 1278.901367,987.435669 
	C1286.089722,987.669617 1289.480225,993.626038 1293.935791,997.749634 
	C1299.445312,1002.848938 1305.713257,1005.764648 1313.088867,1005.624084 
	C1322.831787,1005.438293 1327.281372,1010.954285 1322.025146,1021.749756 
	C1313.819946,1027.843140 1306.517822,1033.179199 1298.612305,1037.379517 
	C1290.768311,1041.547241 1282.562134,1046.529297 1274.068726,1047.593140 
	C1263.856812,1048.872437 1256.677246,1052.949829 1250.525879,1060.461060 
	C1248.706177,1062.682983 1246.476685,1065.700928 1244.058594,1066.105957 
	C1233.374023,1067.894531 1222.879639,1071.823242 1211.661377,1069.026123 
	C1203.668213,1067.032959 1195.851562,1067.645264 1189.270508,1073.612061 
	C1188.352173,1074.444702 1186.680664,1075.574341 1185.901001,1075.252197 
	C1180.151489,1072.876221 1176.738525,1076.555298 1172.592773,1079.395874 
	C1170.052002,1081.136963 1166.348755,1082.095093 1163.252441,1081.918213 
	C1157.173584,1081.571167 1152.307129,1083.496948 1147.525635,1086.970581 
	C1143.662354,1089.777100 1139.276855,1091.865112 1134.554321,1094.601440 
	C1128.998413,1083.272095 1120.294678,1077.716797 1109.629150,1075.076904 
	C1106.492554,1074.300415 1102.348145,1073.136353 1099.987061,1074.477051 
	C1090.902588,1079.635376 1082.947754,1076.311157 1074.258179,1073.489502 
	C1069.628052,1071.986084 1063.925781,1073.018066 1058.858765,1073.839722 
	C1053.678589,1074.679810 1048.742310,1076.920410 1043.595703,1078.093140 
	C1031.015503,1080.959961 1025.921387,1086.477051 1024.204224,1099.662231 
	C1023.305847,1106.560791 1008.810425,1123.875732 1001.996033,1126.143188 
	C1001.378052,1126.348755 1000.677185,1126.304932 999.363770,1125.918091 
	C987.759094,1120.215454 976.278809,1119.732056 964.545227,1121.753906 
	C963.601379,1121.916626 962.741272,1122.582397 961.849854,1123.029541 
	C958.284058,1124.817505 954.855835,1126.981689 951.132690,1128.335693 
	C938.416809,1132.960571 930.889404,1142.624756 924.941467,1154.102417 
	C923.305786,1157.258667 920.825073,1159.977051 918.732178,1162.896484 
	C916.684265,1161.792480 914.754272,1160.196167 912.567383,1159.671997 
	C904.325562,1157.695801 899.831726,1153.047974 897.670471,1144.494019 
	C896.034851,1138.020142 891.660583,1132.220215 888.363525,1126.197754 
	C887.615234,1124.831055 886.479248,1123.471191 885.179260,1122.651489 
	C881.593994,1120.390625 877.827393,1118.417358 873.429749,1115.933472 
	C872.577576,1116.662476 871.425476,1117.664062 870.255676,1118.644531 
	C869.087036,1119.623901 867.900574,1120.582275 866.023010,1122.123535 
	C864.857971,1118.508911 864.349365,1115.546753 862.992065,1113.045288 
	C860.969604,1109.317627 859.084045,1105.808472 853.108337,1107.193604 
	C841.846863,1109.804199 839.507202,1107.122803 841.237000,1095.531372 
	C841.329712,1094.910034 841.119507,1094.243530 841.088440,1093.953735 
	C836.588196,1086.523926 831.013855,1089.088501 825.818542,1092.173706 
	C824.545288,1091.330566 823.227905,1090.954712 822.987244,1090.224243 
	C819.446411,1079.476807 810.221680,1075.446289 800.955200,1071.610596 
	C795.862610,1069.502563 790.222412,1068.564331 785.376465,1066.045776 
	C775.783142,1061.059814 766.526794,1055.415039 757.218018,1049.896240 
	C752.907166,1047.340454 748.810364,1044.635620 743.365845,1045.426147 
	C741.880188,1045.641724 739.882019,1045.033569 738.682495,1044.088501 
	C728.527344,1036.087036 718.370056,1040.250000 709.017029,1044.929688 
	C699.535645,1049.673584 689.411682,1049.966431 678.701660,1052.936523 
	C679.459778,1043.251953 670.853577,1040.459717 667.560913,1033.491943 
	C662.142212,1034.614502 656.973450,1035.685303 650.726990,1036.979370 
	C644.839539,1032.640503 649.272217,1025.165405 647.395386,1018.445251 
z" />
	<path data-name="Logone-Et-Chari" fill="#404141" opacity="1.000000" stroke="none" d="
M126.311073,1682.916504 
	C127.532089,1686.851440 128.720947,1691.694946 129.766861,1697.297241 
	C128.940689,1698.155518 128.257446,1698.255127 127.063416,1698.266724 
	C126.461395,1693.394165 126.370155,1688.609741 126.311073,1682.916504 
z" />
	<path data-name="Nganha" 
	fill="#718054" opacity="1.000000" stroke="none" d="
M1000.014771,1126.376953 
	C1000.677185,1126.304932 1001.378052,1126.348755 1001.996033,1126.143188 
	C1008.810425,1123.875732 1023.305847,1106.560791 1024.204224,1099.662231 
	C1025.921387,1086.477051 1031.015503,1080.959961 1043.595703,1078.093140 
	C1048.742310,1076.920410 1053.678589,1074.679810 1058.858765,1073.839722 
	C1063.925781,1073.018066 1069.628052,1071.986084 1074.258179,1073.489502 
	C1082.947754,1076.311157 1090.902588,1079.635376 1099.987061,1074.477051 
	C1102.348145,1073.136353 1106.492554,1074.300415 1109.629150,1075.076904 
	C1120.294678,1077.716797 1128.998413,1083.272095 1134.554321,1094.601440 
	C1139.276855,1091.865112 1143.662354,1089.777100 1147.525635,1086.970581 
	C1152.307129,1083.496948 1157.173584,1081.571167 1163.252441,1081.918213 
	C1166.348755,1082.095093 1170.052002,1081.136963 1172.592773,1079.395874 
	C1176.738525,1076.555298 1180.151489,1072.876221 1185.901001,1075.252197 
	C1186.680664,1075.574341 1188.352173,1074.444702 1189.270508,1073.612061 
	C1195.851562,1067.645264 1203.668213,1067.032959 1211.661377,1069.026123 
	C1222.879639,1071.823242 1233.374023,1067.894531 1244.058594,1066.105957 
	C1246.476685,1065.700928 1248.706177,1062.682983 1250.525879,1060.461060 
	C1256.677246,1052.949829 1263.856812,1048.872437 1274.068726,1047.593140 
	C1282.562134,1046.529297 1290.768311,1041.547241 1298.612305,1037.379517 
	C1306.517822,1033.179199 1313.819946,1027.843140 1321.867065,1022.515381 
	C1325.031982,1024.383789 1324.048096,1026.704468 1322.278809,1029.018921 
	C1319.062500,1033.226074 1315.847656,1037.434448 1311.946289,1042.539795 
	C1314.011475,1044.766113 1315.756714,1047.993408 1318.423706,1049.226074 
	C1323.123047,1051.398193 1325.224609,1055.198608 1327.508179,1059.287354 
	C1333.169434,1069.424072 1332.646973,1075.200928 1325.149048,1084.034180 
	C1321.363281,1088.494385 1317.629883,1093.017700 1314.169189,1097.730225 
	C1309.738647,1103.763672 1311.096436,1107.675415 1318.063110,1109.921021 
	C1319.310059,1110.322998 1321.237061,1110.349487 1321.698853,1111.185547 
	C1326.238892,1119.402222 1335.511108,1121.887085 1341.813354,1128.003662 
	C1345.962280,1132.030396 1350.927856,1135.974365 1356.264893,1137.796997 
	C1361.217041,1139.488037 1367.169312,1138.661865 1372.641724,1138.316895 
	C1379.802734,1137.865723 1386.844116,1139.108887 1391.932007,1143.677002 
	C1397.911255,1149.045532 1404.541138,1150.000488 1411.813965,1150.489014 
	C1417.744019,1150.887085 1423.674072,1151.516602 1429.552734,1152.388672 
	C1435.514038,1153.273193 1439.838013,1155.218018 1440.255371,1162.927856 
	C1440.550659,1168.382202 1443.832153,1173.291748 1450.884644,1174.363525 
	C1455.223145,1175.022949 1459.250488,1177.728394 1464.565063,1180.007202 
	C1466.914551,1179.119995 1469.584473,1173.804321 1474.599854,1177.428467 
	C1475.255493,1177.902344 1477.897705,1177.148926 1478.100220,1176.494019 
	C1480.228027,1169.612549 1487.813110,1173.729736 1491.381592,1169.809448 
	C1491.700806,1169.458862 1493.372803,1170.469971 1494.449829,1170.652344 
	C1496.900269,1171.066772 1499.604736,1172.184326 1501.795776,1171.565063 
	C1514.498535,1167.975098 1526.876831,1170.334106 1538.891113,1173.943726 
	C1551.648438,1177.776733 1561.895142,1174.547729 1571.137817,1165.778198 
	C1580.530640,1156.866577 1592.225952,1157.504883 1599.164917,1166.284302 
	C1602.605713,1170.637573 1606.687134,1174.699463 1609.087769,1179.577637 
	C1610.478760,1182.404175 1609.793579,1186.799438 1608.786743,1190.106323 
	C1607.765991,1193.458618 1607.573242,1196.075195 1608.681763,1199.538940 
	C1609.808472,1203.060059 1610.245850,1207.740723 1608.827271,1210.963745 
	C1604.298340,1221.253540 1605.326416,1230.921631 1610.027954,1240.583496 
	C1612.753174,1246.183960 1615.611816,1251.728882 1618.681396,1257.145142 
	C1619.396729,1258.407593 1621.184204,1259.789429 1622.528564,1259.842529 
	C1628.338623,1260.071899 1632.975586,1262.104126 1637.984985,1265.335205 
	C1642.227661,1268.071899 1648.609497,1267.492432 1654.661987,1268.481445 
	C1654.961670,1269.704712 1655.419189,1271.203247 1655.689087,1272.734863 
	C1657.263672,1281.669556 1659.530884,1284.435181 1668.157959,1285.556519 
	C1674.984619,1286.443604 1681.938110,1286.608765 1688.836304,1286.623657 
	C1696.074951,1286.639160 1697.472412,1287.612305 1697.714233,1295.047974 
	C1697.907959,1301.001465 1698.576416,1306.467407 1701.608398,1312.089722 
	C1705.104248,1318.572266 1704.530396,1326.185913 1702.459351,1333.508667 
	C1701.113281,1338.267944 1700.500366,1343.234497 1699.678955,1348.938477 
	C1676.447021,1351.415649 1653.139160,1349.849243 1630.073242,1346.811890 
	C1604.427856,1343.434937 1583.707886,1351.406982 1566.289185,1369.739136 
	C1562.175659,1374.068115 1558.143677,1378.478760 1553.923828,1382.701416 
	C1540.290649,1396.343506 1539.805054,1412.533569 1544.637451,1429.786499 
	C1544.994873,1431.062500 1545.781250,1432.263062 1545.922729,1433.547607 
	C1547.054688,1443.829590 1551.790771,1449.815918 1562.558960,1452.858643 
	C1572.953247,1455.795532 1575.016235,1473.044556 1566.986328,1480.276855 
	C1565.749634,1481.390747 1564.325562,1482.307129 1563.152954,1483.479736 
	C1559.703247,1486.929321 1558.581909,1490.655518 1561.767700,1495.010254 
	C1565.818481,1500.547607 1568.445190,1506.380493 1566.058594,1513.568970 
	C1565.513062,1515.211914 1566.857544,1517.398438 1566.944824,1519.351929 
	C1567.147949,1523.903931 1567.115234,1528.466309 1566.656006,1533.660889 
	C1561.332764,1533.398071 1556.531738,1532.499023 1551.120239,1531.485596 
	C1549.222778,1544.491211 1537.574341,1543.206665 1529.896729,1547.188965 
	C1528.025513,1548.159546 1522.179565,1544.748535 1520.393311,1541.935059 
	C1516.364014,1535.588257 1513.729858,1528.356079 1510.069336,1520.499634 
	C1506.687256,1518.402100 1502.513062,1514.626831 1497.628418,1513.044800 
	C1488.939453,1510.230469 1480.243408,1505.069336 1470.493896,1511.092773 
	C1467.782227,1512.768311 1463.522217,1511.937988 1459.121826,1512.333740 
	C1459.121826,1507.724609 1459.121826,1503.997559 1459.121826,1499.941650 
	C1453.229980,1496.776733 1448.622559,1501.948608 1443.244263,1502.485718 
	C1441.818604,1498.631348 1440.374634,1494.727539 1438.881958,1490.691895 
	C1430.663940,1490.063110 1423.088989,1489.451172 1418.586182,1497.966431 
	C1418.067261,1498.947998 1416.425415,1499.311157 1415.347412,1500.026489 
	C1412.026733,1502.230469 1408.727051,1504.466187 1404.244873,1507.479126 
	C1402.889648,1507.183960 1400.020264,1506.412964 1397.101440,1505.959717 
	C1393.221313,1505.356934 1390.120728,1506.533813 1387.436035,1509.722046 
	C1384.985840,1512.632080 1381.599243,1514.736938 1378.990723,1517.536987 
	C1377.563599,1519.068726 1376.897217,1521.307251 1375.880371,1523.223022 
	C1374.014526,1526.738647 1369.789917,1527.155762 1368.464722,1523.478760 
	C1366.295288,1517.459473 1363.222046,1514.342041 1356.680664,1516.700806 
	C1352.259888,1518.295044 1346.458374,1517.710205 1345.360962,1524.578003 
	C1345.057617,1526.476074 1342.643311,1528.036865 1340.458130,1530.629883 
	C1338.625000,1526.728271 1337.214600,1523.726074 1335.243530,1519.530640 
	C1333.338013,1522.684814 1332.064209,1524.793091 1330.458008,1527.451782 
	C1327.937866,1525.781494 1325.353271,1524.068481 1322.223389,1521.994141 
	C1316.999390,1529.688354 1309.409058,1528.495239 1301.802368,1527.665405 
	C1298.666748,1527.323242 1295.457031,1527.725952 1292.288696,1527.598877 
	C1288.682007,1527.454346 1284.717529,1527.973755 1281.556152,1526.653687 
	C1274.389648,1523.661011 1268.791260,1524.665283 1265.524414,1529.806885 
	C1261.544189,1529.806885 1258.825073,1529.356567 1256.313599,1529.887451 
	C1247.184082,1531.817261 1243.191895,1529.332397 1242.059204,1519.702026 
	C1236.697754,1521.364380 1231.489258,1522.979248 1225.345825,1524.884033 
	C1224.516846,1523.527466 1223.274414,1521.494385 1221.412720,1518.447998 
	C1218.849365,1526.374878 1212.036377,1522.784180 1207.046631,1525.885254 
	C1206.304932,1521.568237 1205.705566,1518.079590 1205.103638,1514.575562 
	C1197.360962,1516.232666 1197.360962,1516.232666 1199.408691,1528.359619 
	C1195.881836,1532.337891 1193.707031,1527.490112 1190.229492,1526.893555 
	C1189.094849,1528.909058 1187.865234,1531.093262 1186.254639,1533.954468 
	C1184.317871,1531.275024 1182.561401,1528.844971 1179.499146,1524.608398 
	C1179.298096,1528.674561 1179.202148,1530.614990 1179.136963,1531.930908 
	C1175.785278,1533.513672 1172.673096,1534.983398 1168.306274,1537.045410 
	C1163.871948,1535.447998 1160.040649,1531.136108 1160.230713,1525.136841 
	C1160.459961,1517.899048 1164.679321,1513.017822 1174.023560,1512.787354 
	C1171.597412,1509.470581 1169.976318,1507.254395 1168.478516,1505.206787 
	C1167.391724,1505.206787 1166.469971,1504.939087 1166.195190,1505.247681 
	C1162.994995,1508.840576 1159.323975,1507.162964 1156.163940,1505.732300 
	C1150.426514,1503.135010 1145.310425,1503.728149 1140.597168,1507.633545 
	C1137.739868,1504.014038 1135.140625,1500.721436 1131.992798,1496.733887 
	C1132.855225,1495.360229 1133.933960,1493.421997 1135.219604,1491.632446 
	C1140.426758,1484.384399 1139.265137,1478.636719 1131.518677,1474.619141 
	C1129.184570,1473.408813 1126.577881,1472.723999 1123.138916,1470.943848 
	C1118.964355,1461.908081 1119.482788,1453.889282 1123.086548,1445.941895 
	C1125.958984,1439.607056 1128.455322,1433.091187 1131.545288,1426.867554 
	C1137.149902,1415.579102 1136.685425,1410.693237 1127.308594,1402.665771 
	C1122.650757,1398.678101 1121.558105,1394.895020 1123.031494,1388.833618 
	C1126.000732,1376.619141 1124.284058,1365.341309 1114.004761,1356.298462 
	C1105.531738,1348.844360 1098.012329,1340.302734 1089.504028,1332.893188 
	C1081.744873,1326.135864 1073.782349,1319.783325 1070.113281,1308.876831 
	C1069.873779,1298.371216 1066.808105,1290.212036 1059.037109,1283.685303 
	C1054.544556,1279.912231 1050.782349,1275.041870 1047.465820,1270.141235 
	C1039.285156,1258.053467 1031.308716,1245.810547 1023.730103,1233.338379 
	C1019.289124,1226.029663 1015.710693,1218.190674 1011.857910,1210.533081 
	C1009.919678,1206.680664 1008.694458,1202.397583 1006.346802,1198.836914 
	C1000.179077,1189.482300 996.988586,1179.069580 995.270874,1168.251953 
	C994.471313,1163.216675 995.015747,1157.849243 995.680176,1152.726929 
	C996.824646,1143.904663 998.539368,1135.156250 1000.014771,1126.376953 
z" />
	<path data-name="Ngaoundr I" 
	fill="#F6D661" opacity="1.000000" stroke="none" d="
M855.025391,1636.065674 
	C855.994019,1624.500244 850.144043,1615.351929 844.755432,1606.246338 
	C836.137329,1591.683838 833.985107,1570.850098 838.646667,1554.551392 
	C841.450684,1544.747437 843.184998,1534.481201 843.981750,1524.311646 
	C844.566589,1516.846313 845.474243,1509.884033 849.385254,1503.417114 
	C852.527710,1498.221069 854.318054,1492.751465 853.883728,1486.387939 
	C853.688049,1483.520386 855.752441,1480.438721 857.003174,1477.545776 
	C859.075623,1472.752197 863.250488,1467.988525 863.143738,1463.289551 
	C862.758240,1446.336548 868.764587,1430.589722 871.013855,1414.177246 
	C871.894531,1407.751465 872.645935,1401.709595 869.683167,1395.727295 
	C869.388733,1395.132568 868.987793,1394.500244 868.969849,1393.875854 
	C868.914612,1391.951172 868.230103,1388.992554 869.188782,1388.255859 
	C877.531250,1381.845093 868.876831,1368.574463 879.743225,1363.173462 
	C889.802002,1358.173950 899.541443,1352.531738 910.579102,1346.765137 
	C916.760681,1349.017700 921.784546,1351.677612 926.754517,1355.223877 
	C926.302063,1376.138062 929.206421,1395.725220 934.019470,1415.135620 
	C936.310059,1424.373291 942.242188,1429.346191 950.898804,1431.233154 
	C959.569214,1433.123169 966.860901,1437.229858 974.048157,1442.246460 
	C978.196655,1445.141968 983.463562,1446.915527 988.483093,1447.941406 
	C993.085571,1448.882202 998.031677,1448.141235 1001.214905,1448.141235 
	C1007.945679,1457.462769 1013.916992,1465.726074 1019.881226,1473.994385 
	C1025.471313,1481.744019 1030.484741,1489.635254 1034.051758,1498.744751 
	C1037.763672,1508.224487 1043.871094,1516.766113 1048.931030,1525.718018 
	C1048.732666,1526.948242 1048.985596,1528.659912 1048.266235,1529.334351 
	C1041.007324,1536.139038 1040.962524,1536.091187 1043.629517,1545.544800 
	C1040.518921,1545.544800 1037.672852,1545.585449 1034.828247,1545.535522 
	C1030.173218,1545.453735 1029.025391,1547.061890 1030.837646,1551.391846 
	C1031.210205,1552.282104 1032.399536,1552.958618 1032.489746,1553.810181 
	C1032.643433,1555.258911 1032.732300,1557.290283 1031.898926,1558.102905 
	C1031.093018,1558.888672 1028.868652,1558.965576 1027.650146,1558.449585 
	C1023.001587,1556.481567 1018.676025,1553.572266 1013.891052,1552.172607 
	C1011.110535,1551.359497 1007.645386,1552.562500 1004.563599,1553.214233 
	C1002.376465,1553.676636 1000.315247,1554.734375 997.475525,1555.796509 
	C998.479370,1558.215820 999.645386,1561.026245 1001.185303,1564.737793 
	C996.221436,1566.634888 990.818848,1567.344604 987.525269,1570.358765 
	C984.532898,1573.097412 983.834229,1578.342529 982.046570,1582.671143 
	C976.405273,1585.598999 970.382935,1588.724731 964.448486,1591.804810 
	C963.284180,1591.074097 962.199585,1590.738525 961.663025,1590.003174 
	C956.491394,1582.915771 949.356873,1582.142456 944.853699,1589.578369 
	C939.839844,1597.857544 932.362793,1602.141724 924.020691,1604.087891 
	C916.941650,1605.739624 912.727051,1609.983521 908.279175,1614.630493 
	C906.714539,1616.265259 905.450867,1618.188232 903.800537,1620.298096 
	C901.517639,1619.325317 899.488647,1618.460815 898.536011,1618.054810 
	C893.795105,1625.949707 889.207397,1633.589478 884.261536,1641.825684 
	C880.013428,1643.569214 876.066345,1642.182007 872.915710,1637.357910 
	C866.809937,1641.604858 861.070740,1640.973999 855.025391,1636.065674 
z" />
	<path data-name="Ngaoundr II" 
	fill="#C75CF4" opacity="1.000000" stroke="none" d="
M1049.714355,1525.892822 
	C1043.871094,1516.766113 1037.763672,1508.224487 1034.051758,1498.744751 
	C1030.484741,1489.635254 1025.471313,1481.744019 1019.881226,1473.994385 
	C1013.916992,1465.726074 1007.945679,1457.462769 1001.214905,1448.141235 
	C998.031677,1448.141235 993.085571,1448.882202 988.483093,1447.941406 
	C983.463562,1446.915527 978.196655,1445.141968 974.048157,1442.246460 
	C966.860901,1437.229858 959.569214,1433.123169 950.898804,1431.233154 
	C942.242188,1429.346191 936.310059,1424.373291 934.019470,1415.135620 
	C929.206421,1395.725220 926.302063,1376.138062 927.434937,1355.122803 
	C935.091003,1350.525269 942.015930,1347.056885 950.258606,1349.216431 
	C953.077332,1349.955078 955.975647,1350.523560 958.872620,1350.790771 
	C961.434326,1351.027222 965.293152,1351.796997 966.405579,1350.486328 
	C970.146179,1346.079590 975.027283,1348.028931 979.289917,1347.141357 
	C983.843872,1346.193237 989.247253,1348.488403 992.460449,1342.939453 
	C992.897888,1342.184204 994.940369,1342.032837 996.197998,1342.131714 
	C1003.207581,1342.682739 1007.602173,1338.311279 1012.157104,1334.053955 
	C1013.779480,1332.537720 1015.655273,1330.539917 1017.617065,1330.279175 
	C1023.672424,1329.474365 1027.251709,1325.151489 1031.848145,1322.047363 
	C1037.669434,1318.115967 1044.449341,1313.696655 1051.030884,1313.328003 
	C1057.790405,1312.949341 1063.984863,1312.053711 1070.153809,1309.681641 
	C1073.782349,1319.783325 1081.744873,1326.135864 1089.504028,1332.893188 
	C1098.012329,1340.302734 1105.531738,1348.844360 1114.004761,1356.298462 
	C1124.284058,1365.341309 1126.000732,1376.619141 1123.031494,1388.833618 
	C1121.558105,1394.895020 1122.650757,1398.678101 1127.308594,1402.665771 
	C1136.685425,1410.693237 1137.149902,1415.579102 1131.545288,1426.867554 
	C1128.455322,1433.091187 1125.958984,1439.607056 1123.086548,1445.941895 
	C1119.482788,1453.889282 1118.964355,1461.908081 1122.418823,1470.841064 
	C1119.760742,1472.721313 1116.865601,1473.849854 1113.064941,1475.331299 
	C1112.583008,1482.288086 1107.514282,1486.880737 1100.505005,1489.882080 
	C1099.329956,1490.385254 1098.084473,1491.103271 1097.297485,1492.069214 
	C1093.373535,1496.884766 1090.172607,1502.478760 1085.581421,1506.503052 
	C1081.732178,1509.877319 1076.823608,1511.468872 1072.931152,1515.770996 
	C1069.007935,1520.107178 1062.776489,1522.937256 1057.973145,1527.136353 
	C1056.737305,1528.216675 1053.055786,1526.499634 1049.714355,1525.892822 
z" />
	<path data-name="Ngaoundr III" 
	fill="#8DD34B" opacity="1.000000" stroke="none" d="
M1070.113281,1308.876831 
	C1063.984863,1312.053711 1057.790405,1312.949341 1051.030884,1313.328003 
	C1044.449341,1313.696655 1037.669434,1318.115967 1031.848145,1322.047363 
	C1027.251709,1325.151489 1023.672424,1329.474365 1017.617065,1330.279175 
	C1015.655273,1330.539917 1013.779480,1332.537720 1012.157104,1334.053955 
	C1007.602173,1338.311279 1003.207581,1342.682739 996.197998,1342.131714 
	C994.940369,1342.032837 992.897888,1342.184204 992.460449,1342.939453 
	C989.247253,1348.488403 983.843872,1346.193237 979.289917,1347.141357 
	C975.027283,1348.028931 970.146179,1346.079590 966.405579,1350.486328 
	C965.293152,1351.796997 961.434326,1351.027222 958.872620,1350.790771 
	C955.975647,1350.523560 953.077332,1349.955078 950.258606,1349.216431 
	C942.015930,1347.056885 935.091003,1350.525269 927.488770,1354.236328 
	C921.784546,1351.677612 916.760681,1349.017700 911.078247,1346.256836 
	C908.663635,1340.669556 906.907593,1335.183228 904.584534,1327.925171 
	C907.215576,1323.544312 911.412903,1317.567871 914.496826,1311.063477 
	C916.549194,1306.734741 917.374451,1301.700195 918.010376,1296.884155 
	C918.269043,1294.924683 917.158020,1292.020996 915.654297,1290.733643 
	C910.885254,1286.650757 909.579468,1281.774536 909.777161,1275.720947 
	C909.878540,1272.617432 908.437744,1269.293701 907.089661,1266.345825 
	C903.505005,1258.507080 899.732727,1250.745483 895.757202,1243.097656 
	C893.386108,1238.536133 893.418213,1234.326294 895.890686,1229.885620 
	C901.631104,1219.575562 905.142944,1208.763916 904.316711,1196.665894 
	C904.110291,1193.644165 905.945679,1190.337646 907.317078,1187.381958 
	C910.920349,1179.615967 914.784851,1171.971191 918.638672,1163.587280 
	C920.825073,1159.977051 923.305786,1157.258667 924.941467,1154.102417 
	C930.889404,1142.624756 938.416809,1132.960571 951.132690,1128.335693 
	C954.855835,1126.981689 958.284058,1124.817505 961.849854,1123.029541 
	C962.741272,1122.582397 963.601379,1121.916626 964.545227,1121.753906 
	C976.278809,1119.732056 987.759094,1120.215454 999.363770,1125.917969 
	C998.539368,1135.156250 996.824646,1143.904663 995.680176,1152.726929 
	C995.015747,1157.849243 994.471313,1163.216675 995.270874,1168.251953 
	C996.988586,1179.069580 1000.179077,1189.482300 1006.346802,1198.836914 
	C1008.694458,1202.397583 1009.919678,1206.680664 1011.857910,1210.533081 
	C1015.710693,1218.190674 1019.289124,1226.029663 1023.730103,1233.338379 
	C1031.308716,1245.810547 1039.285156,1258.053467 1047.465820,1270.141235 
	C1050.782349,1275.041870 1054.544556,1279.912231 1059.037109,1283.685303 
	C1066.808105,1290.212036 1069.873779,1298.371216 1070.113281,1308.876831 
z" />
	<path data-name="Logone-Et-Chari" 
	fill="#223F4D" opacity="1.000000" stroke="none" d="
M331.886658,1422.804199 
	C333.222656,1421.547974 335.141174,1420.885742 337.668823,1420.219971 
	C338.642914,1421.964233 339.007812,1423.711914 339.643097,1426.754639 
	C336.779846,1425.415161 334.624512,1424.406738 331.886658,1422.804199 
z" />

</svg>