<svg version="1.1" id="Layer_1" xmlns="http://www.w3.org/2000/svg" xmlns:xlink="http://www.w3.org/1999/xlink" x="0px" y="0px"
	 width="100%" viewBox="0 0 2298 2651" enable-background="new 0 0 2298 2651" xml:space="preserve">

<path 
	data-name="Babessi"
fill="#FE7F7F" opacity="1.000000" stroke="none" 
	d="
M550.457092,683.782898 
	C553.906616,683.188599 557.354492,682.088562 560.805908,682.077454 
	C599.125122,681.954407 637.444885,682.000000 675.764465,682.000000 
	C805.051514,682.000000 934.338562,682.000000 1063.625610,682.000000 
	C1475.125610,682.000000 1886.625488,682.000000 2299.062744,682.000000 
	C2300.000000,682.000000 2300.000000,683.000000 2299.065918,683.414551 
	C1896.895142,683.829163 1495.658325,683.829163 1093.731812,683.829163 
	C1089.527710,693.001709 1085.331909,701.993652 1081.326538,711.069580 
	C1080.718262,712.447754 1080.611084,714.297424 1080.927734,715.790100 
	C1082.367798,722.580750 1083.857422,729.373169 1085.714722,736.057861 
	C1086.573364,739.148132 1087.613281,742.736084 1089.798218,744.798218 
	C1094.645020,749.372620 1094.694458,754.593445 1093.859131,760.393921 
	C1093.024780,766.189026 1092.410278,772.015747 1091.759399,777.337830 
	C1093.497803,778.548523 1094.239746,779.402832 1095.144409,779.642334 
	C1102.944336,781.707397 1104.464966,787.339355 1103.669434,794.342896 
	C1103.370850,796.970886 1103.105591,799.604126 1102.733643,802.221985 
	C1101.754150,809.114380 1099.570923,816.058533 1099.918579,822.877441 
	C1101.273193,849.442993 1102.200195,845.154846 1084.064819,871.215698 
	C1077.393555,880.802612 1075.839111,891.892883 1080.442383,902.542053 
	C1083.635376,909.929077 1084.866821,916.917358 1083.884521,924.722351 
	C1083.434814,928.294556 1083.267090,932.333862 1084.516968,935.563232 
	C1085.693359,938.603027 1088.442261,942.206238 1091.309326,943.182434 
	C1097.833984,945.404053 1104.810669,946.937195 1111.685791,947.338196 
	C1121.685913,947.921448 1131.416748,948.106201 1140.643799,953.168457 
	C1146.463013,956.361206 1153.458740,954.274902 1155.285645,949.108765 
	C1159.464600,937.291138 1164.203125,937.045105 1177.602661,938.866943 
	C1191.385864,940.740784 1205.025757,943.938477 1218.851685,945.149231 
	C1231.407593,946.248779 1244.129395,945.500793 1256.777466,945.440430 
	C1258.368164,945.432800 1260.155762,944.988586 1261.511475,944.177368 
	C1270.166016,938.998718 1279.286987,935.416382 1289.515503,935.146912 
	C1297.751099,934.930054 1305.983154,934.553589 1314.219604,934.408142 
	C1321.109253,934.286438 1328.151367,935.302856 1334.862061,934.203918 
	C1346.596802,932.282227 1358.073364,929.438110 1370.197754,929.961060 
	C1377.313843,930.268005 1382.324341,925.043457 1385.937134,919.229370 
	C1388.023804,915.871338 1389.120239,911.912598 1391.036133,908.429993 
	C1393.580811,903.804321 1395.575562,898.266296 1399.431641,895.098450 
	C1407.586670,888.398865 1410.281494,879.851135 1411.860840,870.090881 
	C1413.194946,861.847168 1418.075684,855.726074 1425.567871,851.552368 
	C1433.066895,847.374817 1441.295776,846.595032 1449.476562,845.628540 
	C1454.223999,845.067688 1457.865723,847.084106 1459.297485,852.127991 
	C1461.107056,858.502319 1463.226440,864.793579 1464.871216,871.208130 
	C1465.998169,875.602722 1467.564209,878.711365 1472.463257,880.488220 
	C1480.895386,883.546570 1489.162354,887.527832 1494.636597,895.130432 
	C1498.102417,899.943665 1501.053589,905.150330 1503.980469,910.324768 
	C1518.519531,936.027527 1515.814087,930.973267 1538.351440,935.340149 
	C1549.432373,937.487122 1557.684692,943.735229 1565.043335,951.421082 
	C1576.195923,963.069641 1576.047119,977.005981 1572.266479,991.569214 
	C1570.519897,998.296570 1568.666016,1005.121460 1568.116333,1012.002441 
	C1567.429810,1020.595276 1572.361816,1025.743042 1580.714722,1028.239502 
	C1585.684082,1029.724731 1590.393066,1032.171265 1595.089722,1034.452271 
	C1599.565674,1036.626099 1603.838379,1039.214233 1608.266357,1041.491943 
	C1611.810181,1043.314819 1615.675781,1044.596802 1619.008545,1046.728516 
	C1627.886719,1052.406860 1633.487549,1059.600586 1632.578247,1071.307007 
	C1631.906860,1079.950317 1628.223633,1087.259399 1625.524170,1095.053589 
	C1622.784302,1102.964111 1622.754517,1102.905029 1629.120239,1108.554810 
	C1636.081055,1114.732788 1642.808594,1121.184692 1649.939331,1127.157349 
	C1657.235352,1133.268433 1657.661987,1140.422974 1654.549683,1148.675171 
	C1650.477051,1159.474365 1650.886108,1160.153931 1659.722412,1166.916748 
	C1662.579102,1169.103027 1665.467651,1171.711548 1667.204834,1174.772217 
	C1669.124878,1178.155273 1669.363647,1182.452759 1671.017334,1186.037109 
	C1673.192993,1190.753174 1675.039795,1196.404419 1678.812256,1199.425415 
	C1685.221924,1204.558228 1692.939209,1207.894287 1701.660156,1208.343506 
	C1706.542603,1208.594971 1711.342163,1210.256958 1716.204834,1211.142090 
	C1721.030151,1212.020508 1725.900879,1213.443604 1730.728516,1213.355713 
	C1741.999634,1213.150513 1753.271851,1212.363281 1764.511108,1211.421997 
	C1768.333984,1211.101929 1772.244873,1210.060181 1775.795288,1208.580200 
	C1788.663818,1203.216187 1801.097534,1196.639282 1814.261597,1192.199707 
	C1828.404907,1187.429810 1837.833252,1172.172363 1834.114258,1157.582397 
	C1830.507812,1143.433716 1827.137085,1129.217651 1824.029785,1114.951294 
	C1822.024902,1105.746338 1823.761230,1102.640869 1833.130005,1100.711914 
	C1841.857544,1098.914917 1850.889893,1098.639404 1859.762451,1097.494629 
	C1871.162598,1096.023804 1883.132080,1096.271606 1891.547241,1086.040039 
	C1893.298828,1083.910278 1896.605225,1083.013916 1899.261719,1081.681763 
	C1908.637085,1076.980469 1918.750732,1078.254761 1928.676147,1078.219849 
	C1947.112549,1078.155273 1963.954590,1091.711914 1967.473022,1109.436035 
	C1967.853882,1111.354614 1968.083740,1113.620728 1967.433105,1115.372314 
	C1964.428955,1123.458374 1965.698975,1130.958008 1969.441406,1138.455811 
	C1970.752441,1141.082397 1971.251587,1144.148926 1971.904053,1147.063110 
	C1973.572998,1154.517212 1974.518799,1162.191528 1976.840088,1169.429321 
	C1981.707520,1184.605103 1987.387573,1199.518311 1992.502686,1214.617554 
	C1995.013184,1222.028198 2000.241455,1226.666138 2006.821167,1230.169678 
	C2008.874634,1231.263062 2010.931030,1232.488892 2013.138184,1233.131714 
	C2021.718018,1235.630859 2023.971558,1241.702148 2023.759155,1249.932373 
	C2023.448975,1261.952637 2025.063232,1273.744141 2029.549561,1285.051758 
	C2030.635986,1287.790283 2031.433228,1290.801147 2031.576416,1293.725342 
	C2031.934082,1301.034058 2034.568115,1307.284058 2039.338379,1312.689575 
	C2044.235352,1318.238647 2047.493774,1324.589844 2050.304443,1331.457031 
	C2053.556396,1339.402832 2058.246338,1346.749268 2062.084229,1354.469360 
	C2064.994873,1360.324219 2067.999023,1366.202148 2070.107178,1372.362305 
	C2071.585938,1376.683716 2071.994141,1381.477783 2072.240479,1386.094849 
	C2072.974365,1399.854858 2078.640137,1411.603394 2086.358643,1422.623047 
	C2092.996826,1432.100342 2107.864014,1436.226562 2118.035400,1430.399048 
	C2123.871826,1427.054932 2129.670410,1426.021973 2136.100098,1426.157471 
	C2144.169434,1426.327515 2151.664062,1424.914307 2158.596924,1419.956299 
	C2168.270264,1413.037964 2174.831543,1415.748047 2179.265625,1426.901489 
	C2184.650146,1440.445068 2190.207031,1453.939941 2196.310547,1467.169312 
	C2199.651123,1474.409302 2204.245117,1480.961548 2212.708740,1483.556885 
	C2216.563477,1484.738892 2219.905762,1486.935181 2220.720459,1491.569214 
	C2221.803711,1497.730347 2222.983398,1503.881226 2224.367432,1509.980713 
	C2225.452637,1514.762695 2226.519775,1519.613037 2228.296387,1524.158569 
	C2230.821289,1530.618408 2234.000244,1536.821899 2236.878906,1543.144531 
	C2237.980713,1545.564697 2238.699707,1548.229370 2240.157959,1550.403931 
	C2244.349609,1556.654053 2249.964600,1556.653076 2255.433594,1551.237183 
	C2258.649414,1548.052368 2262.587646,1545.597168 2265.183594,1543.597290 
	C2271.129150,1546.039062 2275.607666,1547.921387 2280.119385,1549.719727 
	C2284.967773,1551.652222 2286.200928,1554.645508 2284.165039,1559.888794 
	C2283.323242,1562.056396 2282.374023,1564.182373 2281.539795,1566.352783 
	C2278.603760,1573.991577 2274.293457,1581.612671 2281.756104,1589.242798 
	C2282.490479,1589.993530 2282.360107,1591.798950 2282.287354,1593.095581 
	C2281.859375,1600.712280 2281.629883,1608.358765 2280.739258,1615.925171 
	C2280.017090,1622.061646 2280.106445,1627.508423 2284.259033,1632.773315 
	C2287.057861,1636.322021 2288.670166,1640.878540 2290.458008,1645.133545 
	C2292.517578,1650.034912 2294.085693,1655.141235 2296.085449,1660.070190 
	C2296.687012,1661.553223 2297.238037,1664.363037 2300.000000,1662.000000 
	C2300.000000,1677.375122 2300.000000,1692.750366 2299.330078,1709.200195 
	C2295.323242,1712.946899 2291.958008,1715.584473 2288.655029,1718.297607 
	C2281.748535,1723.970215 2274.167725,1729.029541 2268.156738,1735.535278 
	C2259.605713,1744.789795 2252.273682,1755.164551 2244.313721,1764.973755 
	C2238.532227,1772.098755 2231.596191,1778.593872 2233.412842,1789.748413 
	C2228.125488,1789.385864 2223.765137,1789.607544 2219.651123,1788.705811 
	C2207.808594,1786.109863 2198.033203,1791.174194 2188.789062,1797.107788 
	C2184.750488,1799.699829 2182.091553,1804.291992 2182.275391,1809.877686 
	C2182.505615,1816.867920 2182.028076,1823.888794 2182.427002,1830.863770 
	C2182.726318,1836.092407 2182.571045,1842.051025 2185.020264,1846.299805 
	C2189.518555,1854.104126 2187.403076,1859.954102 2182.867676,1866.356323 
	C2172.773926,1880.604858 2171.711914,1896.690552 2175.406494,1912.949707 
	C2179.964111,1933.004395 2174.597900,1950.739258 2165.450928,1968.165161 
	C2160.274414,1978.026855 2153.468018,1987.007080 2150.790283,1998.259644 
	C2148.001221,2009.979004 2151.541016,2021.574707 2161.270752,2027.871826 
	C2170.553711,2033.879761 2170.725830,2036.348267 2162.781982,2044.549072 
	C2157.929688,2049.558594 2152.102539,2054.097900 2148.771240,2060.008301 
	C2141.948975,2072.111328 2136.401123,2084.944336 2130.560303,2097.583740 
	C2128.089844,2102.929932 2126.259766,2104.397461 2120.887207,2102.939697 
	C2115.466064,2101.468506 2110.163086,2099.561768 2105.139893,2097.952148 
	C2103.290283,2088.358154 2101.553955,2079.351562 2099.944824,2071.005371 
	C2092.344971,2068.711914 2088.022461,2071.480713 2084.740479,2076.841064 
	C2081.303467,2082.454834 2077.707031,2087.970947 2073.808105,2092.996094 
	C2066.592773,2085.644287 2059.817139,2078.756592 2052.890869,2072.023438 
	C2041.166870,2060.626221 2028.644531,2050.369873 2013.978271,2042.753784 
	C2006.355103,2038.795044 1998.966797,2034.028931 1992.338257,2028.575195 
	C1969.979614,2010.179810 1947.908813,1991.429565 1925.937744,1972.570557 
	C1916.819824,1964.744019 1908.935547,1956.026611 1904.630859,1944.204224 
	C1898.262451,1926.714233 1890.987183,1909.546875 1883.787720,1892.372437 
	C1881.891968,1887.849976 1879.380249,1883.367432 1876.250854,1879.618286 
	C1863.027588,1863.777466 1849.491943,1848.196777 1836.015015,1832.568848 
	C1828.387695,1823.724365 1821.922729,1814.233643 1816.455933,1803.806763 
	C1807.035645,1785.838989 1796.448120,1768.486450 1786.548218,1750.765137 
	C1782.997437,1744.409180 1779.077393,1738.023071 1776.962402,1731.147217 
	C1771.552612,1713.559937 1765.276855,1696.513916 1753.991821,1681.712769 
	C1753.390869,1680.924561 1753.010254,1679.972412 1752.475464,1679.129272 
	C1742.493530,1663.389526 1733.376953,1647.009033 1722.323608,1632.061035 
	C1702.724365,1605.556030 1680.776489,1580.940552 1658.236450,1556.858154 
	C1645.052612,1542.771973 1632.551270,1528.047119 1619.747925,1513.605103 
	C1614.800293,1508.024170 1610.446899,1502.262207 1611.765625,1494.028931 
	C1611.991455,1492.618042 1611.049805,1490.774048 1610.151855,1489.472046 
	C1606.378418,1484.000122 1602.508423,1478.588501 1598.492554,1473.292236 
	C1595.796021,1469.736084 1592.233032,1468.320557 1587.591187,1467.383057 
	C1564.382935,1462.695068 1541.956055,1455.777344 1522.046021,1442.178589 
	C1515.242798,1437.531982 1507.889282,1433.426758 1500.288818,1430.276733 
	C1490.048706,1426.032471 1480.405151,1421.252075 1472.058350,1413.751953 
	C1468.978760,1410.984863 1464.637573,1409.307739 1460.593750,1407.980347 
	C1439.047485,1400.908325 1418.006104,1392.650635 1398.034180,1381.862915 
	C1393.671997,1379.506592 1389.470825,1378.519653 1384.745117,1380.197388 
	C1376.934937,1382.969849 1369.154053,1382.088379 1361.150635,1380.676147 
	C1329.767822,1375.137939 1298.571411,1368.244141 1266.491089,1367.517700 
	C1261.290771,1367.399902 1255.768555,1366.287109 1251.011597,1364.217285 
	C1214.096191,1348.154175 1177.330688,1331.746216 1140.521729,1315.437988 
	C1128.057129,1309.915649 1115.703735,1304.126465 1103.113647,1298.907593 
	C1089.621826,1293.315063 1075.688354,1288.752930 1062.346924,1282.840332 
	C1041.495239,1273.599365 1020.584229,1266.480591 997.074280,1267.665283 
	C982.725708,1268.388306 968.625793,1268.623413 954.848389,1273.256104 
	C948.575500,1275.365112 941.953247,1276.462891 935.459045,1277.880249 
	C924.457336,1280.281494 913.221252,1281.777344 903.902649,1289.156738 
	C901.120789,1291.359741 897.220154,1292.095825 893.982178,1293.790771 
	C890.201172,1295.770020 886.134705,1297.559814 883.013000,1300.350220 
	C879.305847,1303.663940 875.995667,1304.117310 871.258301,1302.871216 
	C860.344727,1300.000732 848.971619,1298.704956 838.264709,1295.273193 
	C828.831421,1292.249878 820.797729,1293.359131 812.223389,1298.177856 
	C803.478027,1290.378906 795.254089,1283.117554 787.327576,1275.544800 
	C783.257996,1271.656860 779.437744,1267.431396 775.991760,1262.981323 
	C763.998901,1247.493896 751.993103,1232.006348 740.448975,1216.185669 
	C734.282776,1207.735352 726.023987,1202.381836 716.752563,1198.678223 
	C708.057007,1195.204590 699.986877,1191.165771 692.393860,1185.523193 
	C680.586975,1176.748901 673.470337,1165.391602 670.224426,1151.365356 
	C666.791565,1136.531738 663.271240,1121.705566 660.410217,1106.757324 
	C658.859192,1098.653198 657.108337,1090.116455 658.101929,1082.103882 
	C659.698242,1069.230347 657.278809,1057.176270 654.548706,1044.939331 
	C653.465576,1040.084595 652.439819,1035.205444 651.677429,1030.292480 
	C648.714111,1011.196777 644.142273,992.591125 635.690308,975.080017 
	C634.123474,971.833740 633.059448,968.344788 631.231934,963.583435 
	C651.517090,958.361084 671.225220,952.770874 691.191406,948.344727 
	C702.800293,945.771118 714.839417,945.177734 726.652771,943.470520 
	C732.468628,942.630066 733.980957,940.377563 733.231384,934.716614 
	C730.016296,910.432983 726.938538,886.129211 723.427185,861.888306 
	C722.611206,856.255249 724.791687,852.606812 729.179260,850.542419 
	C743.116211,843.985229 751.960205,832.660461 759.327942,819.780273 
	C766.139099,807.873047 774.986023,798.274170 788.702942,794.393372 
	C800.056213,791.181458 809.916626,785.112976 819.598145,778.645935 
	C821.526917,777.357544 823.480103,775.815613 825.649048,775.226379 
	C835.916260,772.436890 844.170044,766.253967 852.036011,759.592163 
	C856.731812,755.615234 861.864136,752.995300 867.690735,751.369202 
	C879.815369,747.985291 892.046326,744.909302 903.992493,740.974548 
	C927.962769,733.079468 952.148499,728.597595 977.470398,732.975708 
	C980.635254,733.522949 984.794250,732.280701 987.567505,730.459167 
	C1000.905457,721.698120 1013.793457,712.253296 1027.104126,703.448975 
	C1036.470825,697.253357 1046.259277,691.695435 1056.707275,685.939819 
	C1060.747559,686.026917 1063.939941,686.026917 1067.132202,686.026917 
	C1067.142090,685.376953 1067.152100,684.727051 1067.161987,684.077087 
	C1063.382202,684.077087 1059.602295,684.077087 1054.902832,683.958618 
	C886.141235,683.821045 718.299133,683.802002 550.457092,683.782898 
z"/>
<path 
	data-name="Ndop"
fill="#81CC50" opacity="1.000000" stroke="none" 
	d="
M812.867981,1298.586426 
	C820.797729,1293.359131 828.831421,1292.249878 838.264709,1295.273193 
	C848.971619,1298.704956 860.344727,1300.000732 871.258301,1302.871216 
	C875.995667,1304.117310 879.305847,1303.663940 883.013000,1300.350220 
	C886.134705,1297.559814 890.201172,1295.770020 893.982178,1293.790771 
	C897.220154,1292.095825 901.120789,1291.359741 903.902649,1289.156738 
	C913.221252,1281.777344 924.457336,1280.281494 935.459045,1277.880249 
	C941.953247,1276.462891 948.575500,1275.365112 954.848389,1273.256104 
	C968.625793,1268.623413 982.725708,1268.388306 997.074280,1267.665283 
	C1020.584229,1266.480591 1041.495239,1273.599365 1062.346924,1282.840332 
	C1075.688354,1288.752930 1089.621826,1293.315063 1103.113647,1298.907593 
	C1115.703735,1304.126465 1128.057129,1309.915649 1140.521729,1315.437988 
	C1177.330688,1331.746216 1214.096191,1348.154175 1251.011597,1364.217285 
	C1255.768555,1366.287109 1261.290771,1367.399902 1266.491089,1367.517700 
	C1298.571411,1368.244141 1329.767822,1375.137939 1361.150635,1380.676147 
	C1369.154053,1382.088379 1376.934937,1382.969849 1384.745117,1380.197388 
	C1389.470825,1378.519653 1393.671997,1379.506592 1398.034180,1381.862915 
	C1418.006104,1392.650635 1439.047485,1400.908325 1460.593750,1407.980347 
	C1464.637573,1409.307739 1468.978760,1410.984863 1472.058350,1413.751953 
	C1480.405151,1421.252075 1490.048706,1426.032471 1500.288818,1430.276733 
	C1507.889282,1433.426758 1515.242798,1437.531982 1522.046021,1442.178589 
	C1541.956055,1455.777344 1564.382935,1462.695068 1587.591187,1467.383057 
	C1592.233032,1468.320557 1595.796021,1469.736084 1598.492554,1473.292236 
	C1602.508423,1478.588501 1606.378418,1484.000122 1610.151855,1489.472046 
	C1611.049805,1490.774048 1611.991455,1492.618042 1611.765625,1494.028931 
	C1610.446899,1502.262207 1614.800293,1508.024170 1619.747925,1513.605103 
	C1632.551270,1528.047119 1645.052612,1542.771973 1658.236450,1556.858154 
	C1680.776489,1580.940552 1702.724365,1605.556030 1722.323608,1632.061035 
	C1733.376953,1647.009033 1742.493530,1663.389526 1752.475464,1679.129272 
	C1753.010254,1679.972412 1753.390869,1680.924561 1753.991821,1681.712769 
	C1765.276855,1696.513916 1771.552612,1713.559937 1776.962402,1731.147217 
	C1779.077393,1738.023071 1782.997437,1744.409180 1786.548218,1750.765137 
	C1796.448120,1768.486450 1807.035645,1785.838989 1816.455933,1803.806763 
	C1821.922729,1814.233643 1828.387695,1823.724365 1836.015015,1832.568848 
	C1849.491943,1848.196777 1863.027588,1863.777466 1876.250854,1879.618286 
	C1879.380249,1883.367432 1881.891968,1887.849976 1883.787720,1892.372437 
	C1890.987183,1909.546875 1898.262451,1926.714233 1904.630859,1944.204224 
	C1908.935547,1956.026611 1916.819824,1964.744019 1925.937744,1972.570557 
	C1947.908813,1991.429565 1969.979614,2010.179810 1992.338257,2028.575195 
	C1998.966797,2034.028931 2006.355103,2038.795044 2013.978271,2042.753784 
	C2028.644531,2050.369873 2041.166870,2060.626221 2052.890869,2072.023438 
	C2059.817139,2078.756592 2066.592773,2085.644287 2073.687012,2093.738770 
	C2072.672852,2097.340332 2071.756836,2099.960449 2070.083740,2101.940430 
	C2062.007812,2111.497803 2059.011963,2123.244385 2058.073486,2134.958252 
	C2057.155029,2146.419922 2058.934570,2158.130127 2059.970703,2169.691895 
	C2060.218506,2172.458984 2061.535156,2175.848145 2063.540771,2177.600586 
	C2068.779541,2182.178467 2074.561523,2186.176270 2080.388672,2190.006836 
	C2081.675537,2190.852783 2084.081055,2190.271240 2085.906494,2189.962158 
	C2088.906006,2189.453369 2091.852051,2188.629639 2095.288086,2187.830078 
	C2093.674072,2199.731445 2086.793457,2206.058594 2077.530762,2205.476562 
	C2074.877197,2205.309814 2072.205078,2205.336670 2069.544678,2205.399658 
	C2065.947998,2205.484863 2063.433838,2206.901123 2061.735596,2210.440674 
	C2058.883545,2216.384766 2056.592529,2221.987305 2061.393555,2228.072510 
	C2064.447021,2231.943115 2066.897217,2236.294678 2069.999023,2240.121582 
	C2075.178223,2246.511719 2080.663086,2252.654053 2086.264160,2259.186523 
	C2084.041992,2261.704834 2082.301514,2263.647949 2080.592773,2265.618652 
	C2074.165771,2273.032227 2074.331543,2276.790039 2081.799316,2283.062012 
	C2084.052734,2284.954590 2086.873047,2286.182617 2089.466309,2287.657715 
	C2092.252441,2289.242676 2095.077148,2290.760254 2097.579102,2292.138672 
	C2094.625977,2308.698975 2105.155518,2320.023682 2125.900635,2323.053711 
	C2127.031738,2338.907227 2124.649414,2354.324463 2119.558105,2369.708008 
	C2117.154785,2369.842041 2115.127930,2370.319092 2113.238525,2369.994873 
	C2106.777344,2368.886475 2102.471924,2371.642334 2099.228027,2376.956543 
	C2096.300049,2381.753418 2092.519287,2384.890625 2086.243896,2384.320801 
	C2083.031250,2384.028809 2079.691895,2385.517090 2076.413574,2385.499756 
	C2065.057617,2385.439697 2057.346924,2391.078125 2053.275635,2401.104736 
	C2050.411865,2408.156982 2045.772583,2411.485840 2038.588379,2412.622070 
	C2034.192261,2413.317139 2031.384766,2415.602539 2030.093872,2420.711670 
	C2025.793091,2437.735107 2020.675171,2454.550537 2015.969360,2471.473145 
	C2013.308228,2481.042969 2000.806519,2487.299561 1992.390259,2481.976318 
	C1985.150513,2477.396973 1978.038696,2477.956299 1970.656250,2478.467529 
	C1966.289185,2484.717529 1967.083130,2490.535400 1970.575806,2496.480469 
	C1977.983398,2509.090088 1985.397949,2521.699463 1992.526123,2534.467529 
	C1995.752563,2540.246582 2000.090820,2542.678223 2006.477173,2540.814453 
	C2015.089600,2538.301270 2021.393677,2540.900146 2025.657715,2549.364014 
	C2020.807129,2556.595215 2016.632568,2563.914551 2005.706909,2564.655762 
	C1999.841309,2565.053711 1994.246094,2569.438721 1988.091797,2572.222412 
	C1988.458740,2576.573975 1988.801758,2580.494385 1989.117310,2584.416748 
	C1989.516724,2589.379639 1990.395142,2594.367188 1990.171753,2599.303467 
	C1989.770874,2608.162598 1983.375244,2613.072998 1975.021240,2610.975830 
	C1967.115234,2608.991211 1960.507446,2612.187744 1954.417725,2616.006592 
	C1940.630005,2624.652832 1927.081787,2633.708984 1913.764648,2643.066162 
	C1906.884888,2647.900146 1899.398560,2649.642578 1891.338867,2650.041992 
	C1888.016724,2650.206787 1884.623291,2649.813232 1881.386108,2650.380615 
	C1880.085815,2650.608398 1879.118652,2652.736572 1878.000000,2654.000000 
	C1870.614136,2654.000000 1863.228394,2654.000000 1854.973633,2653.237305 
	C1851.704712,2645.605957 1848.678711,2638.882812 1847.039062,2631.837158 
	C1843.947998,2618.553711 1837.183594,2609.195312 1823.621948,2605.077148 
	C1816.359497,2602.871582 1811.771851,2597.331055 1807.932373,2590.700195 
	C1801.132324,2578.956543 1794.054565,2567.294678 1786.060791,2556.352539 
	C1781.611938,2550.262939 1779.959839,2544.317383 1780.236938,2537.069580 
	C1781.342285,2508.159912 1779.371216,2479.455566 1774.541870,2450.896729 
	C1773.674561,2445.767334 1771.679688,2442.573730 1767.809570,2439.538574 
	C1761.563110,2434.639648 1755.730957,2429.212402 1749.726318,2423.272461 
	C1748.499512,2413.845703 1743.555420,2408.195312 1735.619751,2404.723389 
	C1732.596069,2403.400635 1730.037720,2401.002686 1727.003296,2399.718750 
	C1720.988647,2397.173096 1717.852173,2392.471191 1715.465942,2386.705566 
	C1711.269775,2376.565918 1706.507812,2366.657715 1702.421631,2356.476807 
	C1701.291260,2353.660645 1700.987671,2350.083740 1701.560059,2347.096436 
	C1703.058350,2339.274414 1705.703613,2331.660156 1706.994995,2323.815430 
	C1707.774292,2319.081299 1707.716187,2313.865723 1706.574341,2309.225586 
	C1703.480103,2296.651611 1699.623535,2284.264404 1696.023682,2271.816162 
	C1695.474121,2269.915771 1694.986206,2267.894531 1693.954346,2266.253174 
	C1686.843506,2254.940674 1679.047852,2244.142822 1668.592285,2235.623779 
	C1666.638550,2234.031982 1664.066162,2232.619629 1661.625000,2232.298340 
	C1644.180786,2230.002686 1626.697388,2228.002686 1609.224365,2225.927002 
	C1592.589355,2223.950439 1576.373535,2220.891357 1563.441772,2208.915283 
	C1561.008057,2206.661377 1558.273682,2204.731689 1555.843140,2202.474609 
	C1544.374390,2191.823975 1533.052734,2181.012695 1521.455933,2170.504150 
	C1519.125977,2168.392822 1515.986450,2166.851318 1512.953003,2165.889404 
	C1480.027222,2155.449219 1446.335815,2147.537842 1414.290771,2134.148926 
	C1399.300415,2127.885742 1385.416260,2119.924072 1373.439209,2109.575684 
	C1358.172852,2096.385010 1342.086182,2084.706787 1324.022583,2076.089111 
	C1310.482422,2069.629639 1301.410400,2059.491455 1293.445801,2047.315063 
	C1288.973022,2040.477173 1282.988770,2034.438110 1276.906250,2028.894165 
	C1270.289917,2022.863892 1262.806885,2017.775879 1255.631348,2012.370483 
	C1250.970337,2008.859375 1247.908569,2004.480469 1245.899780,1998.884888 
	C1236.571899,1972.902588 1226.501343,1947.180664 1217.524780,1921.080566 
	C1212.418213,1906.233154 1204.823608,1893.679199 1192.989868,1883.207397 
	C1186.845093,1877.770142 1180.870239,1873.538574 1172.678223,1871.677246 
	C1153.542725,1867.329468 1135.071777,1861.248779 1117.769775,1851.380127 
	C1105.125366,1844.167969 1091.662476,1837.869995 1077.849731,1833.346313 
	C1055.712280,1826.096436 1033.598633,1819.023926 1012.292542,1809.470581 
	C999.907410,1803.917358 987.566284,1798.207031 973.903809,1795.766846 
	C939.214111,1789.571533 904.861328,1782.074097 872.032593,1768.613525 
	C863.773560,1765.227051 857.135071,1760.386841 853.659363,1752.814941 
	C849.567017,1743.899292 843.021240,1739.125366 834.586121,1735.080322 
	C820.614014,1728.380371 805.885193,1723.601074 790.793579,1722.473877 
	C777.533020,1721.483643 765.305481,1718.468140 753.460083,1713.053711 
	C755.018005,1710.468628 756.235168,1708.478149 757.631714,1706.622803 
	C775.240417,1683.227905 791.568726,1659.060303 803.102844,1631.962524 
	C805.833679,1625.546997 809.094116,1619.335815 811.492126,1612.803345 
	C821.328674,1586.008301 830.612244,1559.006470 840.720276,1532.315918 
	C847.597778,1514.156006 852.822266,1495.953125 851.923645,1476.207031 
	C851.566528,1468.357910 852.975647,1460.318970 854.425293,1452.523682 
	C856.363708,1442.100342 859.136108,1431.832764 861.525940,1421.492554 
	C862.887695,1415.600708 862.868713,1409.967041 860.704651,1404.024658 
	C854.000183,1385.614624 847.729248,1367.044067 841.483154,1348.470825 
	C838.175903,1338.636719 833.641602,1329.533447 827.620239,1321.060547 
	C822.432861,1313.760986 817.765381,1306.092041 812.867981,1298.586426 
z"/>


<path 
	data-name="Balikumbat"
fill="#84B2D1" opacity="1.000000" stroke="none" 
	d="
M1749.726318,2423.272461 
	C1732.921631,2422.932617 1716.847412,2419.115723 1702.537109,2409.974609 
	C1690.674683,2402.396973 1678.400391,2399.850830 1664.745605,2403.984375 
	C1653.973267,2407.245361 1643.058350,2410.035156 1631.419556,2413.251953 
	C1610.052979,2395.825439 1588.203125,2378.004883 1566.034668,2359.924561 
	C1474.351685,2397.769775 1382.881836,2435.526855 1290.946899,2473.476074 
	C1286.939331,2467.382324 1284.713501,2461.393066 1287.248901,2453.989014 
	C1289.172607,2448.371338 1290.045776,2442.400391 1291.529785,2436.623779 
	C1292.941650,2431.126709 1291.630249,2426.731201 1288.523560,2421.754150 
	C1281.125854,2409.903076 1271.827759,2403.097900 1257.194336,2403.763916 
	C1250.003784,2404.091309 1242.724854,2402.018799 1235.458496,2401.315918 
	C1231.500610,2400.932617 1227.583252,2400.875244 1224.470337,2404.470703 
	C1204.485718,2427.553955 1178.317017,2442.380615 1152.366821,2457.240967 
	C1141.544678,2463.438477 1136.129150,2473.513672 1129.412842,2482.819336 
	C1128.338013,2484.308350 1128.720459,2487.243164 1129.161621,2489.356934 
	C1130.380005,2495.195312 1132.395996,2500.885498 1133.356812,2506.755615 
	C1135.649658,2520.765137 1125.046753,2529.782471 1111.417725,2525.577637 
	C1094.289795,2520.293701 1077.324097,2514.680908 1060.944702,2507.170898 
	C1053.937866,2503.958252 1045.627197,2502.535645 1037.846436,2502.291992 
	C1023.243103,2501.833984 1008.579529,2502.539551 993.968445,2503.293701 
	C979.477112,2504.041504 965.367615,2502.597656 951.821045,2497.375977 
	C946.376831,2495.277344 941.990601,2495.615479 936.926758,2498.889648 
	C930.124084,2503.288574 921.788391,2502.430420 914.704102,2500.484131 
	C907.759705,2498.576416 901.036499,2498.097168 894.076172,2498.054932 
	C888.409973,2498.020508 882.674622,2498.605469 877.092896,2497.917725 
	C868.689148,2496.882812 864.001160,2501.087891 860.604065,2507.837402 
	C856.414307,2516.162354 852.278320,2524.514404 847.873169,2533.347412 
	C834.040100,2535.748291 820.402161,2538.453857 805.847168,2535.624512 
	C784.341553,2531.444336 762.530151,2528.837158 740.848633,2525.562256 
	C739.203247,2525.313477 736.969116,2525.688232 735.999084,2524.750000 
	C726.567871,2515.623535 712.909180,2517.358887 702.438965,2511.458496 
	C696.562134,2508.146484 691.305969,2503.133057 686.931946,2497.912842 
	C681.954529,2491.972412 676.851746,2487.965332 668.698364,2487.598877 
	C662.467407,2487.318604 656.358521,2484.934326 650.112000,2484.267334 
	C636.137939,2482.775146 622.325317,2483.322021 609.977905,2491.195068 
	C606.518860,2493.400879 603.284058,2493.799805 599.609070,2492.481689 
	C596.797485,2491.473389 594.054199,2490.071289 591.154480,2489.559814 
	C586.991516,2488.826172 581.656311,2486.938721 578.666504,2488.691162 
	C564.934387,2496.741455 550.751648,2493.733398 536.965881,2490.967773 
	C524.997864,2488.566650 515.872620,2490.499268 507.281708,2499.498047 
	C497.210815,2510.046875 486.003082,2519.510742 475.445190,2529.299805 
	C468.349335,2526.739258 466.109924,2522.056396 465.398529,2514.845947 
	C463.707367,2497.704834 460.316162,2480.736328 458.406647,2463.609375 
	C457.341431,2454.055176 457.474152,2444.310059 457.813293,2434.677246 
	C458.036407,2428.339844 456.605011,2422.703613 453.175751,2417.684326 
	C446.448151,2407.837402 439.868622,2397.817627 432.299225,2388.634521 
	C422.014526,2376.156982 415.648438,2362.305420 414.091125,2346.252930 
	C413.836731,2343.630371 413.234711,2340.648193 414.147369,2338.376221 
	C417.449921,2330.154541 415.361633,2322.784180 411.719543,2315.414551 
	C407.160126,2306.188477 403.372314,2296.500488 398.018829,2287.767822 
	C391.469574,2277.084229 381.545319,2271.084717 368.591309,2269.880371 
	C360.463959,2269.125000 352.224670,2267.955078 345.167664,2262.715088 
	C342.051056,2260.400879 338.067413,2258.971436 334.262146,2257.917725 
	C319.566071,2253.848633 308.762207,2243.894775 298.045380,2234.004150 
	C287.789917,2224.539062 286.403992,2210.285889 294.656708,2198.989502 
	C303.250671,2187.225830 305.619354,2173.493896 307.759125,2159.814209 
	C308.588440,2154.511963 305.959473,2148.758057 305.638245,2143.168213 
	C304.954254,2131.266357 304.488525,2119.337891 304.453918,2107.418945 
	C304.435455,2101.060791 308.294037,2096.218262 312.962341,2092.243164 
	C316.990356,2088.812988 321.265594,2085.673340 325.311371,2082.499512 
	C325.107483,2078.060791 321.984741,2078.038818 319.119019,2077.104980 
	C314.782593,2075.692139 309.991364,2074.408936 306.604553,2071.606934 
	C299.135712,2065.427246 290.786255,2061.885498 281.402802,2060.485596 
	C274.670258,2059.481201 268.671509,2057.162354 263.384216,2052.720947 
	C258.424408,2048.554443 252.385269,2046.882202 245.995911,2045.975708 
	C241.801926,2045.380615 237.591919,2044.251099 233.644241,2042.708252 
	C226.459503,2039.900024 221.643341,2034.915161 220.194763,2026.912720 
	C218.958389,2020.082886 216.831940,2013.408813 215.701050,2006.566406 
	C214.591736,1999.854370 212.103699,1994.641724 205.007233,1992.824707 
	C190.895737,1989.212036 182.507370,1977.819336 172.836075,1968.476318 
	C165.711212,1961.593384 164.904678,1951.227417 162.069778,1942.113403 
	C160.887985,1938.314209 160.163666,1934.372681 158.518890,1930.171509 
	C157.741547,1927.000610 157.676666,1924.154175 158.444077,1920.481812 
	C166.690033,1910.265503 176.601349,1904.031982 187.314468,1899.556030 
	C204.979202,1892.175537 223.920990,1893.981079 242.376190,1894.628052 
	C249.706558,1894.885132 256.488373,1894.541382 262.497772,1891.120361 
	C267.727783,1888.143188 272.920990,1887.539062 278.599976,1887.105713 
	C285.171875,1886.604370 291.963745,1886.007202 298.133911,1883.906128 
	C307.782471,1880.620850 313.177460,1874.881104 310.480011,1863.708496 
	C309.654205,1860.288086 310.057129,1856.571045 309.957367,1854.335327 
	C316.776520,1849.843262 322.464172,1845.996338 328.252045,1842.306641 
	C337.768036,1836.240234 346.082642,1829.650513 352.120941,1819.267334 
	C358.004272,1809.150513 363.631409,1803.184082 379.700562,1809.601562 
	C385.901489,1812.078125 392.350555,1813.646362 398.970123,1810.068970 
	C401.736115,1808.573975 404.819519,1808.741699 406.929199,1811.811279 
	C411.062561,1817.825439 417.115173,1818.552856 423.722565,1818.098145 
	C426.694427,1817.893799 429.918152,1817.550659 432.653809,1818.431519 
	C440.626129,1820.998047 446.194427,1817.500366 451.052094,1811.959229 
	C455.866486,1806.467529 460.333801,1800.671021 465.159912,1795.190186 
	C472.389343,1786.980103 480.915863,1780.034180 492.278290,1780.278931 
	C509.370331,1780.646729 526.925659,1779.533325 542.283997,1789.881714 
	C548.803162,1794.274170 556.022095,1795.142700 564.084717,1794.037598 
	C573.155518,1792.794189 582.743408,1792.085449 591.634705,1793.716187 
	C599.900818,1795.232178 608.006592,1796.133179 616.298523,1796.017334 
	C626.602295,1795.873413 636.913818,1795.698853 647.199158,1795.127197 
	C651.103271,1794.910156 655.671204,1794.602783 658.678467,1792.519897 
	C668.035095,1786.040039 678.495972,1785.064575 689.119385,1785.369751 
	C699.471558,1785.667114 708.718506,1784.324829 716.612610,1776.685669 
	C721.746216,1771.718018 727.946533,1772.196777 734.096008,1775.841675 
	C738.353210,1778.364990 743.060913,1780.121094 747.362610,1782.578369 
	C751.694336,1785.052856 755.400452,1783.443359 758.201660,1780.609009 
	C762.367798,1776.393677 765.819641,1771.472412 771.135193,1764.932617 
	C768.678467,1755.355591 765.184998,1742.626953 762.227844,1729.774902 
	C761.033386,1724.583496 759.163574,1720.352417 754.130798,1718.109375 
	C751.670776,1717.012817 751.280029,1715.648926 753.202637,1713.711182 
	C765.305481,1718.468140 777.533020,1721.483643 790.793579,1722.473877 
	C805.885193,1723.601074 820.614014,1728.380371 834.586121,1735.080322 
	C843.021240,1739.125366 849.567017,1743.899292 853.659363,1752.814941 
	C857.135071,1760.386841 863.773560,1765.227051 872.032593,1768.613525 
	C904.861328,1782.074097 939.214111,1789.571533 973.903809,1795.766846 
	C987.566284,1798.207031 999.907410,1803.917358 1012.292542,1809.470581 
	C1033.598633,1819.023926 1055.712280,1826.096436 1077.849731,1833.346313 
	C1091.662476,1837.869995 1105.125366,1844.167969 1117.769775,1851.380127 
	C1135.071777,1861.248779 1153.542725,1867.329468 1172.678223,1871.677246 
	C1180.870239,1873.538574 1186.845093,1877.770142 1192.989868,1883.207397 
	C1204.823608,1893.679199 1212.418213,1906.233154 1217.524780,1921.080566 
	C1226.501343,1947.180664 1236.571899,1972.902588 1245.899780,1998.884888 
	C1247.908569,2004.480469 1250.970337,2008.859375 1255.631348,2012.370483 
	C1262.806885,2017.775879 1270.289917,2022.863892 1276.906250,2028.894165 
	C1282.988770,2034.438110 1288.973022,2040.477173 1293.445801,2047.315063 
	C1301.410400,2059.491455 1310.482422,2069.629639 1324.022583,2076.089111 
	C1342.086182,2084.706787 1358.172852,2096.385010 1373.439209,2109.575684 
	C1385.416260,2119.924072 1399.300415,2127.885742 1414.290771,2134.148926 
	C1446.335815,2147.537842 1480.027222,2155.449219 1512.953003,2165.889404 
	C1515.986450,2166.851318 1519.125977,2168.392822 1521.455933,2170.504150 
	C1533.052734,2181.012695 1544.374390,2191.823975 1555.843140,2202.474609 
	C1558.273682,2204.731689 1561.008057,2206.661377 1563.441772,2208.915283 
	C1576.373535,2220.891357 1592.589355,2223.950439 1609.224365,2225.927002 
	C1626.697388,2228.002686 1644.180786,2230.002686 1661.625000,2232.298340 
	C1664.066162,2232.619629 1666.638550,2234.031982 1668.592285,2235.623779 
	C1679.047852,2244.142822 1686.843506,2254.940674 1693.954346,2266.253174 
	C1694.986206,2267.894531 1695.474121,2269.915771 1696.023682,2271.816162 
	C1699.623535,2284.264404 1703.480103,2296.651611 1706.574341,2309.225586 
	C1707.716187,2313.865723 1707.774292,2319.081299 1706.994995,2323.815430 
	C1705.703613,2331.660156 1703.058350,2339.274414 1701.560059,2347.096436 
	C1700.987671,2350.083740 1701.291260,2353.660645 1702.421631,2356.476807 
	C1706.507812,2366.657715 1711.269775,2376.565918 1715.465942,2386.705566 
	C1717.852173,2392.471191 1720.988647,2397.173096 1727.003296,2399.718750 
	C1730.037720,2401.002686 1732.596069,2403.400635 1735.619751,2404.723389 
	C1743.555420,2408.195312 1748.499512,2413.845703 1749.726318,2423.272461 
z"/>


</svg>