<svg version="1.1" id="Layer_1" xmlns="http://www.w3.org/2000/svg" xmlns:xlink="http://www.w3.org/1999/xlink" x="0px" y="0px"
	 width="100%" viewBox="0 0 2143 2811" enable-background="new 0 0 2143 2811" xml:space="preserve">


<path 
	data-name="Maga"
fill="#F1999D" opacity="1.000000" stroke="none" 
	d="
M2.000000,74.500000 
	C5.663469,73.941460 9.326938,73.831734 12.990408,73.831657 
	C394.505127,73.823898 776.019836,73.818489 1157.534546,73.902740 
	C1161.617310,73.903641 1165.699951,75.085358 1169.577393,76.261185 
	C1165.755737,76.456963 1162.139404,75.801918 1158.523071,75.801323 
	C871.276672,75.753990 584.030212,75.757835 296.783813,75.757828 
	C293.878937,75.757828 290.974060,75.757828 285.512970,75.757828 
	C290.528381,79.419922 293.603607,81.618721 296.630219,83.882523 
	C325.390625,105.394073 353.917969,127.225777 382.959961,148.349976 
	C412.538025,169.864075 442.692383,190.584274 472.436554,211.872604 
	C481.060516,218.044907 489.739258,224.373444 497.227783,231.804474 
	C501.162140,235.708603 504.757629,236.484848 509.435638,236.078415 
	C512.659973,235.798340 515.866638,235.314621 519.339783,234.890289 
	C520.522949,245.390015 508.935394,244.565598 506.140472,251.423721 
	C507.579803,252.345261 508.904938,253.911331 510.231628,253.912643 
	C514.760254,253.917130 517.395264,256.188965 520.007141,259.636200 
	C524.460876,265.514160 526.017090,265.268311 529.845520,259.320557 
	C533.597961,253.490845 537.536316,252.637253 544.118469,255.557831 
	C547.957642,257.261322 548.940735,259.836700 547.895325,263.528320 
	C547.354431,265.438324 546.245239,267.216705 545.896301,269.145660 
	C545.150208,273.269897 546.375000,276.653229 551.000793,277.258331 
	C556.701538,278.004028 562.066956,279.095703 566.458618,283.296143 
	C567.431091,284.226318 569.606323,284.128021 571.224976,284.116272 
	C581.544067,284.041412 591.862305,283.759155 602.181091,283.743622 
	C609.823059,283.732117 617.479370,283.811035 625.098267,284.316803 
	C627.130676,284.451721 629.535400,285.869019 630.937012,287.440033 
	C637.559937,294.863617 644.052429,302.419769 650.214905,310.225891 
	C651.672424,312.072174 652.090698,315.039551 652.256775,317.539734 
	C652.565308,322.184113 652.539917,326.875183 652.288147,331.527069 
	C651.775146,341.006744 655.696350,348.147614 663.114624,353.757843 
	C672.664612,360.980255 682.155579,368.283539 691.558594,375.695892 
	C694.396729,377.933167 696.889893,380.615906 699.485046,383.151978 
	C704.523621,388.075989 705.227905,394.037872 703.567078,400.555908 
	C700.591248,412.234375 701.187927,423.164520 707.698364,433.996399 
	C717.070618,449.589417 720.526550,467.276184 723.512268,485.017334 
	C727.913513,511.169861 732.971741,537.221558 736.820984,563.452576 
	C738.429749,574.415283 740.708374,586.305359 733.769104,596.403992 
	C726.677002,606.724915 719.487427,617.103943 708.095520,623.664429 
	C698.312500,629.298462 692.046753,638.475647 686.610962,648.089905 
	C685.567749,649.934998 685.765198,652.582275 685.713318,654.866760 
	C685.592346,660.195740 685.990784,665.553833 685.588013,670.855225 
	C684.987610,678.757507 683.739563,686.285461 678.121216,692.867554 
	C672.236572,699.761597 672.110718,708.112122 676.094910,716.300415 
	C677.983765,720.182434 679.903870,724.075623 682.165222,727.744751 
	C687.678589,736.690735 690.066101,746.610291 691.712952,756.797729 
	C692.189636,759.746826 692.686890,762.693054 693.121704,765.648438 
	C695.147522,779.416809 700.721741,791.680664 708.807800,802.900085 
	C710.558533,805.329224 712.034973,807.962524 713.859192,810.331299 
	C724.946533,824.728699 732.840027,840.459534 735.638489,858.675720 
	C736.367188,863.419373 738.651855,868.182312 741.195251,872.341125 
	C749.178772,885.395142 757.626282,898.165405 765.686279,912.276611 
	C762.525391,914.895508 759.678223,917.162048 756.602722,917.532532 
	C731.756836,920.525269 706.905090,920.060730 682.058167,917.118042 
	C674.148132,916.181213 666.144653,916.063110 658.200073,915.381958 
	C638.358276,913.680725 618.546143,911.582397 598.684143,910.182007 
	C576.146667,908.592957 553.574890,907.443237 531.005371,906.367737 
	C499.456909,904.864502 467.904388,903.377075 436.338745,902.329285 
	C417.045227,901.688782 397.698242,901.183838 378.421661,901.887756 
	C355.536591,902.723511 332.674103,904.613342 309.851929,906.616882 
	C286.380707,908.677429 263.012848,912.036682 239.519745,913.690125 
	C218.636383,915.159912 197.646149,915.201538 176.698212,915.642273 
	C141.438263,916.384216 106.175865,917.041565 70.911781,917.543640 
	C47.943680,917.870728 24.970762,917.859619 2.000000,918.000000 
	C2.000000,844.624878 2.000000,771.249756 2.791948,697.147644 
	C4.235882,695.316528 5.283695,694.279053 5.482604,693.098572 
	C12.422579,651.911682 19.191715,610.695801 26.215139,569.523315 
	C28.072220,558.636780 28.474745,548.005188 26.814060,536.941101 
	C23.277555,513.379700 20.946468,489.639374 17.891859,466.002045 
	C17.113813,459.981323 18.640804,455.185913 22.282362,450.347748 
	C31.276497,438.398193 39.645283,425.978882 48.595165,413.994629 
	C52.148251,409.236908 53.832996,404.462097 53.795170,398.423218 
	C53.561516,361.122650 53.683945,323.819855 53.664757,286.517822 
	C53.663387,283.860809 53.783184,281.149567 53.324619,278.555817 
	C50.670109,263.541382 47.809021,248.563538 45.121277,233.554779 
	C43.738602,225.833710 42.570301,218.074249 41.628563,212.311401 
	C52.372227,206.104767 61.831825,201.382141 70.500397,195.494797 
	C98.005905,176.814163 125.255531,157.755264 152.528748,138.734558 
	C175.979187,122.379890 199.650650,106.311836 222.557327,89.222900 
	C231.553650,82.511414 239.766815,75.922905 252.630081,77.840622 
	C257.862701,77.952942 262.211121,77.952942 266.559570,77.952942 
	C266.547058,77.352379 266.534546,76.751808 266.522034,76.151245 
	C261.641235,76.151245 256.760468,76.151245 250.961075,75.995926 
	C181.636444,75.810364 113.230415,75.765137 44.824383,75.762077 
	C30.549593,75.761444 16.274794,75.916626 2.000000,76.000000 
	C2.000000,76.000000 2.000000,75.000000 2.000000,74.500000 
z"/>
<path 
	data-name="Kaï-Kaï"
fill="#77ED5C" opacity="1.000000" stroke="none" 
	d="
M2.000000,918.937317 
	C24.970762,917.859619 47.943680,917.870728 70.911781,917.543640 
	C106.175865,917.041565 141.438263,916.384216 176.698212,915.642273 
	C197.646149,915.201538 218.636383,915.159912 239.519745,913.690125 
	C263.012848,912.036682 286.380707,908.677429 309.851929,906.616882 
	C332.674103,904.613342 355.536591,902.723511 378.421661,901.887756 
	C397.698242,901.183838 417.045227,901.688782 436.338745,902.329285 
	C467.904388,903.377075 499.456909,904.864502 531.005371,906.367737 
	C553.574890,907.443237 576.146667,908.592957 598.684143,910.182007 
	C618.546143,911.582397 638.358276,913.680725 658.200073,915.381958 
	C666.144653,916.063110 674.148132,916.181213 682.058167,917.118042 
	C706.905090,920.060730 731.756836,920.525269 756.602722,917.532532 
	C759.678223,917.162048 762.525391,914.895508 765.955139,912.944824 
	C782.323059,932.047302 796.045410,953.063782 807.516357,975.655823 
	C811.975098,984.437195 818.052979,992.494629 824.078125,1000.357056 
	C831.176636,1009.619995 834.769409,1019.884033 835.697632,1031.358643 
	C836.311951,1038.952881 836.993713,1046.568604 838.241760,1054.075439 
	C839.150452,1059.541748 840.178711,1065.282471 842.655334,1070.134277 
	C848.232788,1081.060791 854.560669,1091.621338 860.915710,1102.129517 
	C870.568909,1118.091797 879.135132,1134.378418 882.388611,1153.109985 
	C883.505432,1159.540405 886.827942,1165.563354 888.812988,1171.876099 
	C890.082764,1175.914185 890.962585,1180.107422 891.641602,1184.292114 
	C893.241516,1194.152344 889.384827,1201.721191 883.242065,1209.588501 
	C873.898193,1221.555664 866.340149,1234.921997 858.090820,1247.737427 
	C849.339722,1261.332520 849.912720,1276.707275 852.734192,1291.216309 
	C855.496643,1305.422485 856.409546,1319.446289 856.324707,1333.724731 
	C856.285156,1340.383545 856.973572,1347.122070 856.179443,1353.685059 
	C854.594360,1366.783569 859.099060,1377.791748 865.927856,1389.461426 
	C862.433716,1391.847656 859.346252,1393.057983 856.176086,1393.985596 
	C837.689514,1399.394775 818.914856,1403.978516 800.787415,1410.394775 
	C790.304138,1414.105347 780.679199,1413.237793 770.759399,1410.424927 
	C731.469177,1399.284058 692.253296,1387.880737 652.949524,1376.788574 
	C647.940918,1375.375122 642.488708,1374.223267 637.393860,1374.672485 
	C622.552734,1375.980957 607.786316,1378.144531 592.994995,1380.008057 
	C578.858582,1381.789062 564.735413,1383.677002 550.592285,1385.401733 
	C537.426331,1387.007324 524.264343,1389.511841 511.061401,1389.794922 
	C457.467926,1390.944214 403.859406,1391.394409 350.256287,1392.090332 
	C345.257324,1392.155151 340.236938,1392.426025 335.263000,1392.078979 
	C329.511810,1391.677368 325.094879,1393.410889 321.112823,1397.700073 
	C316.831360,1402.311890 311.770020,1406.189819 307.184753,1410.531372 
	C294.633545,1422.414917 282.153778,1434.374023 269.645752,1446.303223 
	C257.819153,1432.850098 245.844894,1419.523315 234.191895,1405.921509 
	C187.728439,1351.687622 141.361969,1297.370850 94.967758,1243.077637 
	C87.415779,1234.239990 79.766884,1225.478516 72.466980,1216.436157 
	C70.510132,1214.012207 68.717873,1210.759399 68.476662,1207.756348 
	C66.537636,1183.615601 64.988197,1159.443604 63.253094,1134.317017 
	C43.642807,1122.336792 23.550562,1110.062134 2.729158,1097.893799 
	C2.000000,1038.624878 2.000000,979.249756 2.000000,918.937317 
z"/>
<path 
	data-name="Gobo"
fill="#5A8A4D" opacity="1.000000" stroke="none" 
	d="
M1488.921265,2814.000000 
	C1489.174438,2809.365234 1484.803223,2809.492188 1482.623779,2808.304688 
	C1471.523560,2802.254883 1460.258545,2796.503662 1448.994141,2790.759766 
	C1430.902954,2781.535400 1412.360596,2773.108643 1394.761841,2763.029785 
	C1376.177856,2752.386719 1355.635132,2748.343750 1335.489380,2742.923340 
	C1277.389648,2727.291504 1219.191772,2712.023926 1161.010742,2696.695068 
	C1141.404785,2691.529297 1121.734131,2686.609131 1101.962891,2680.885254 
	C1111.454224,2679.513428 1121.072510,2678.787842 1130.697388,2678.162109 
	C1150.281128,2676.888672 1169.873901,2675.749023 1189.450439,2674.375488 
	C1194.904175,2673.992676 1199.853271,2674.531738 1204.757812,2677.377930 
	C1213.677612,2682.554688 1222.878418,2687.251953 1232.018433,2692.041748 
	C1234.214600,2693.192383 1236.632202,2693.920654 1239.728149,2695.154053 
	C1239.728149,2691.739990 1239.519287,2689.406494 1239.762695,2687.121094 
	C1241.164429,2673.963623 1246.063110,2661.916260 1253.895752,2651.552490 
	C1264.992065,2636.870361 1279.473145,2625.429932 1293.562134,2613.735107 
	C1295.796875,2611.880127 1298.743530,2610.872559 1301.385498,2609.520752 
	C1308.744019,2605.756592 1316.390991,2602.464844 1323.405029,2598.144043 
	C1330.574829,2593.726807 1337.545288,2589.757812 1346.306763,2589.293945 
	C1352.567749,2588.962646 1358.722290,2586.884033 1364.989990,2586.334473 
	C1369.971191,2585.897461 1373.868652,2584.108643 1377.286255,2580.623291 
	C1380.080811,2577.773682 1383.446777,2575.433594 1385.974121,2572.382812 
	C1392.858887,2564.072266 1398.086426,2555.003662 1397.749512,2543.628662 
	C1397.099121,2521.669189 1396.194336,2499.706543 1396.135620,2477.743408 
	C1396.094482,2462.327881 1393.877930,2447.311035 1390.923218,2432.276855 
	C1384.890259,2401.581055 1379.630737,2370.770508 1380.454712,2339.301270 
	C1380.646240,2331.985596 1381.422607,2324.684570 1381.595337,2317.368896 
	C1381.917480,2303.726074 1380.026733,2289.673584 1382.719604,2276.542969 
	C1385.481323,2263.076172 1392.626831,2250.508789 1397.851440,2237.546875 
	C1398.348755,2236.313232 1398.702026,2235.000977 1399.348267,2233.852539 
	C1400.317505,2232.130371 1401.167114,2230.135254 1402.623535,2228.926270 
	C1411.080688,2221.907227 1415.320923,2211.952881 1421.152344,2203.090820 
	C1423.642212,2199.306885 1423.800293,2195.830322 1422.537109,2192.111084 
	C1432.649902,2194.190674 1437.248047,2200.040527 1437.478638,2209.553467 
	C1437.591064,2214.187988 1437.706055,2218.840088 1438.206787,2223.442139 
	C1438.577148,2226.843262 1439.572998,2230.176514 1440.453003,2234.302734 
	C1444.639771,2232.342773 1447.730713,2231.181641 1450.537720,2229.536621 
	C1476.538818,2214.298096 1502.526978,2199.036133 1528.407959,2183.594971 
	C1531.380493,2181.821533 1533.674805,2178.911377 1536.283569,2176.527832 
	C1536.598389,2176.637207 1536.913574,2176.745361 1537.227905,2176.855469 
	C1562.113281,2185.574951 1574.007202,2205.753906 1582.634277,2228.662598 
	C1586.732666,2239.545410 1590.289673,2250.631592 1594.141113,2261.608643 
	C1594.799194,2263.484863 1595.439941,2265.453857 1596.538574,2267.075195 
	C1608.279053,2284.402344 1619.594360,2302.054932 1632.134521,2318.787354 
	C1638.386108,2327.128906 1644.085693,2335.099365 1646.584717,2345.488770 
	C1648.810059,2354.740234 1650.797119,2364.456299 1657.970581,2371.681396 
	C1659.811890,2373.535889 1661.811768,2375.284912 1663.947021,2376.786377 
	C1670.726807,2381.553223 1677.772217,2385.959961 1684.366211,2390.965088 
	C1687.190796,2393.109131 1689.859131,2396.047119 1691.386597,2399.209473 
	C1697.697144,2412.275146 1707.562256,2421.812500 1719.824463,2429.307373 
	C1720.312134,2429.253174 1721.203491,2429.428955 1721.533325,2429.077637 
	C1730.966675,2419.023193 1742.259155,2417.321289 1755.049072,2421.119629 
	C1759.767944,2422.520752 1764.791870,2422.862793 1769.574097,2424.088623 
	C1781.372070,2427.112061 1789.450684,2435.384521 1797.562256,2443.836914 
	C1813.010986,2459.935303 1828.902588,2475.607178 1844.448608,2491.613525 
	C1850.234375,2497.570312 1857.442017,2497.710449 1864.719971,2497.141602 
	C1869.982788,2496.730469 1875.150024,2495.196289 1880.387207,2494.327637 
	C1887.549561,2493.139160 1893.860718,2494.592773 1897.241211,2501.669678 
	C1900.371216,2508.222168 1903.489014,2514.891846 1905.523560,2521.829102 
	C1908.286377,2531.250244 1914.112305,2536.556152 1923.554932,2538.126953 
	C1935.665894,2540.142090 1947.754150,2542.437988 1959.944824,2543.757080 
	C1964.817627,2544.284424 1968.852051,2545.628906 1972.779785,2548.264648 
	C1988.809326,2559.021240 2005.080322,2569.427490 2020.915039,2580.461670 
	C2044.239014,2596.713867 2069.361572,2609.701172 2095.131836,2621.372070 
	C2109.626465,2627.937012 2121.930176,2637.285156 2134.095947,2647.119629 
	C2137.439697,2649.822998 2141.110596,2652.121338 2145.315674,2654.302734 
	C2146.000000,2659.400146 2146.000000,2664.800049 2145.286865,2671.360352 
	C2123.301025,2677.685059 2101.964600,2682.605713 2080.781494,2688.115234 
	C2069.924316,2690.939453 2059.489258,2695.415039 2048.608887,2698.119873 
	C1982.553711,2714.541504 1916.423828,2730.662842 1850.321289,2746.894043 
	C1801.981201,2758.764160 1753.935669,2771.809082 1704.516357,2778.969482 
	C1666.101685,2784.535400 1627.897583,2791.552734 1589.596436,2797.904541 
	C1565.054077,2801.974365 1540.505005,2806.003174 1515.960815,2810.062012 
	C1513.734863,2810.429688 1510.939331,2810.295166 1512.000000,2814.000000 
	C1504.614136,2814.000000 1497.228394,2814.000000 1488.921265,2814.000000 
z"/>


<path 
	data-name="Yagoua"
fill="#996EB8" opacity="1.000000" stroke="none" 
	d="
M1535.703369,2176.089600 
	C1533.674805,2178.911377 1531.380493,2181.821533 1528.407959,2183.594971 
	C1502.526978,2199.036133 1476.538818,2214.298096 1450.537720,2229.536621 
	C1447.730713,2231.181641 1444.639771,2232.342773 1440.453003,2234.302734 
	C1439.572998,2230.176514 1438.577148,2226.843262 1438.206787,2223.442139 
	C1437.706055,2218.840088 1437.591064,2214.187988 1437.478638,2209.553467 
	C1437.248047,2200.040527 1432.649902,2194.190674 1421.934814,2191.848633 
	C1414.394897,2185.959961 1408.495972,2180.032471 1401.872925,2175.071777 
	C1397.742188,2171.977783 1392.684814,2169.836670 1387.734375,2168.206055 
	C1383.390015,2166.775391 1378.594727,2166.763184 1374.033936,2165.931396 
	C1358.386719,2163.078613 1353.980225,2157.798828 1353.911743,2142.027344 
	C1353.910278,2141.694336 1353.867065,2141.354248 1353.917969,2141.029053 
	C1355.081055,2133.592773 1351.662842,2129.212646 1344.964355,2126.309814 
	C1333.979248,2121.549316 1323.044434,2116.620605 1312.374023,2111.200928 
	C1301.460327,2105.657471 1299.481567,2101.427002 1304.500977,2090.440918 
	C1308.543091,2081.593750 1307.436646,2072.188721 1309.812744,2063.235840 
	C1311.036133,2058.625977 1308.062134,2056.033203 1303.677612,2056.586914 
	C1289.884766,2058.328613 1276.122437,2060.314453 1262.325317,2062.020264 
	C1258.184814,2062.531982 1255.579712,2064.512695 1254.263916,2068.359863 
	C1250.713623,2078.739990 1246.839966,2089.037598 1248.028076,2100.367188 
	C1248.753296,2107.283691 1249.764893,2114.234863 1249.679810,2121.158203 
	C1249.516968,2134.428711 1248.744141,2147.694824 1248.045166,2160.953613 
	C1247.854858,2164.562012 1247.425293,2168.256348 1246.402588,2171.702393 
	C1244.346558,2178.631348 1244.444946,2185.364746 1247.044434,2192.054443 
	C1249.569702,2198.553467 1252.249023,2204.992676 1254.782349,2211.488525 
	C1255.732788,2213.925781 1257.474365,2216.606201 1257.118042,2218.906494 
	C1255.549805,2229.031006 1254.844849,2239.665039 1251.059326,2248.990967 
	C1243.431519,2267.783203 1233.219727,2285.250977 1220.191650,2301.146729 
	C1207.593018,2316.518066 1194.409912,2331.553955 1185.794312,2349.909668 
	C1178.589966,2365.259033 1170.333130,2380.114990 1162.514282,2395.175049 
	C1154.952026,2409.740723 1147.167725,2424.297363 1130.127319,2429.781494 
	C1120.266724,2432.955078 1112.991577,2439.694092 1105.180054,2445.807617 
	C1103.870850,2446.832031 1102.671997,2447.996094 1101.397949,2449.066650 
	C1075.505859,2470.821533 1063.781494,2497.920166 1069.461792,2531.954102 
	C1071.532471,2544.361816 1072.485352,2556.953369 1074.048218,2569.448975 
	C1075.813843,2583.564209 1077.816040,2597.651123 1079.469849,2611.779053 
	C1080.313110,2618.982666 1082.304199,2626.626953 1080.783936,2633.400391 
	C1078.342896,2644.277588 1073.587769,2654.664062 1069.478638,2665.127441 
	C1067.133545,2671.098877 1062.760010,2676.363770 1062.885254,2683.446533 
	C1065.503418,2683.860840 1067.447510,2684.168213 1069.391479,2684.475830 
	C1055.311768,2686.341064 1041.251953,2688.394775 1027.133911,2689.900146 
	C1024.563721,2690.174072 1020.577332,2689.038818 1019.243713,2687.145752 
	C1009.300964,2673.032227 995.087708,2676.709473 981.990234,2678.462891 
	C968.220642,2680.305908 954.718445,2684.134521 941.086121,2687.033203 
	C939.814819,2687.303711 938.448608,2687.127686 936.556030,2686.029053 
	C931.433411,2671.399414 926.723328,2657.949463 922.426270,2644.368896 
	C921.156921,2640.357178 919.811951,2635.679443 920.730896,2631.840576 
	C921.872986,2627.070312 920.951782,2623.503174 918.817688,2619.592285 
	C917.071472,2616.392090 915.362915,2613.091797 914.266418,2609.636230 
	C912.794434,2604.997559 910.096741,2601.802002 906.317688,2598.663818 
	C899.430786,2592.944580 893.364380,2586.240723 886.918152,2579.986084 
	C884.569092,2577.706787 883.395203,2575.325195 884.941467,2572.008301 
	C887.430115,2566.670654 886.047485,2561.579834 883.356384,2556.760498 
	C879.012146,2548.980713 876.986755,2540.670898 877.982666,2531.830078 
	C879.513245,2518.243408 880.216675,2504.865234 872.481995,2492.581787 
	C871.827759,2491.542725 872.187073,2489.916260 871.713379,2488.704346 
	C868.704285,2481.005371 866.445984,2472.851562 862.339355,2465.776855 
	C853.654419,2450.814209 840.377808,2441.142090 823.753784,2436.241455 
	C817.737488,2434.468018 813.704834,2430.595215 809.676758,2425.838867 
	C796.524414,2410.308838 781.962036,2396.361816 761.513916,2389.193359 
	C755.122131,2386.672852 748.724060,2385.553223 743.329529,2382.600098 
	C724.101685,2372.073486 705.100281,2361.116943 686.246094,2349.930176 
	C676.326050,2344.044189 666.461975,2337.828369 659.650085,2326.898438 
	C669.977112,2319.768555 678.203613,2310.363525 690.811890,2307.452393 
	C697.034241,2306.015381 702.296936,2302.891113 707.155762,2298.413574 
	C713.163757,2292.876953 719.275208,2287.011475 728.067322,2285.630615 
	C729.867126,2285.347900 731.630493,2283.813232 733.081055,2282.493164 
	C742.574341,2273.854980 753.696350,2267.990234 765.509644,2263.327881 
	C772.060608,2260.742188 776.153931,2256.245605 779.201233,2249.795166 
	C800.382568,2204.958984 821.464905,2160.066895 843.406982,2115.601318 
	C867.275757,2067.231934 891.917908,2019.241577 916.566956,1971.262573 
	C919.686829,1965.189819 919.666443,1960.535522 916.489990,1954.661499 
	C910.157837,1942.951782 904.611877,1930.818481 898.670227,1918.895386 
	C883.528259,1888.510254 868.374023,1858.131226 853.170349,1827.776978 
	C846.175842,1813.812500 839.054016,1799.911743 832.114380,1786.227417 
	C839.062012,1777.780640 845.577698,1769.859131 852.866699,1762.070312 
	C863.685303,1764.450439 873.693665,1766.885376 883.790283,1768.872070 
	C889.552124,1770.005981 894.035522,1772.572266 898.328613,1776.686157 
	C907.077393,1785.069946 914.100403,1794.627197 920.613831,1804.746948 
	C926.345398,1813.651855 931.875916,1822.622559 940.360229,1829.613403 
	C950.610657,1838.059814 960.041748,1847.525391 969.581360,1856.802979 
	C980.787109,1867.701294 980.696228,1867.859497 994.243225,1859.781738 
	C1001.334595,1855.553345 1008.408691,1851.718872 1012.246460,1843.372070 
	C1021.978271,1822.206177 1032.638550,1801.469116 1042.579102,1780.396240 
	C1049.815063,1765.057007 1055.928467,1749.388672 1057.672607,1732.162476 
	C1058.565063,1723.348267 1060.999146,1714.513306 1063.965820,1706.122192 
	C1070.614136,1687.317505 1077.997070,1668.771362 1085.183350,1650.159424 
	C1086.005981,1648.028687 1087.071777,1645.688721 1088.719238,1644.229980 
	C1097.662964,1636.310669 1106.824585,1628.637573 1115.911255,1620.879761 
	C1120.422729,1626.158691 1124.928833,1631.442139 1129.446533,1636.715698 
	C1139.381348,1648.313232 1149.426758,1659.818604 1159.181274,1671.565674 
	C1161.402710,1674.240723 1163.166748,1677.574951 1164.207886,1680.898071 
	C1167.272095,1690.680298 1169.853027,1700.445312 1174.375000,1709.901367 
	C1178.215332,1717.931763 1178.651001,1727.812378 1179.548950,1736.976440 
	C1180.940308,1751.176636 1180.438477,1765.621460 1182.644653,1779.663330 
	C1184.372070,1790.658447 1188.051636,1801.615479 1192.584839,1811.825195 
	C1197.061035,1821.906372 1201.639771,1831.832397 1203.084961,1842.770020 
	C1203.754272,1847.836182 1206.190674,1850.320068 1210.498413,1852.206177 
	C1215.672241,1854.471313 1220.662842,1857.167480 1225.672485,1859.792358 
	C1235.155273,1864.761230 1237.720581,1870.789795 1234.371216,1880.891724 
	C1230.881470,1891.416992 1230.552612,1901.714233 1235.376221,1911.955566 
	C1237.596191,1916.668945 1240.471680,1920.440674 1245.805298,1921.898438 
	C1255.078735,1924.433105 1264.330078,1927.054321 1273.548584,1929.781860 
	C1279.557129,1931.559814 1285.814087,1932.924438 1291.396851,1935.634033 
	C1307.251953,1943.329102 1322.744995,1951.767212 1338.547119,1959.575684 
	C1342.716064,1961.635620 1345.319092,1964.573120 1347.445679,1968.476929 
	C1356.870483,1985.778564 1367.742676,2002.204468 1381.945190,2015.867188 
	C1392.286743,2025.815674 1402.255737,2035.697144 1409.795044,2048.109619 
	C1413.331055,2053.931152 1418.986328,2058.649414 1424.313354,2063.113037 
	C1426.563354,2064.998291 1430.457153,2065.677246 1433.580200,2065.620361 
	C1441.959717,2065.467285 1448.207520,2070.265869 1454.010864,2074.836914 
	C1457.154541,2077.313232 1458.807861,2082.758057 1459.449219,2087.112061 
	C1460.808960,2096.342529 1464.693481,2103.782227 1470.440796,2111.134521 
	C1477.151489,2119.718994 1482.324341,2129.542236 1487.830078,2139.022217 
	C1493.336914,2148.503906 1500.591919,2155.577881 1510.666260,2160.443359 
	C1519.261841,2164.594727 1527.003784,2170.513916 1535.703369,2176.089600 
z"/>
<path 
	data-name="Vele"
fill="#78FAB7" opacity="1.000000" stroke="none" 
	d="
M1115.902588,1620.275635 
	C1106.824585,1628.637573 1097.662964,1636.310669 1088.719238,1644.229980 
	C1087.071777,1645.688721 1086.005981,1648.028687 1085.183350,1650.159424 
	C1077.997070,1668.771362 1070.614136,1687.317505 1063.965820,1706.122192 
	C1060.999146,1714.513306 1058.565063,1723.348267 1057.672607,1732.162476 
	C1055.928467,1749.388672 1049.815063,1765.057007 1042.579102,1780.396240 
	C1032.638550,1801.469116 1021.978271,1822.206177 1012.246460,1843.372070 
	C1008.408691,1851.718872 1001.334595,1855.553345 994.243225,1859.781738 
	C980.696228,1867.859497 980.787109,1867.701294 969.581360,1856.802979 
	C960.041748,1847.525391 950.610657,1838.059814 940.360229,1829.613403 
	C931.875916,1822.622559 926.345398,1813.651855 920.613831,1804.746948 
	C914.100403,1794.627197 907.077393,1785.069946 898.328613,1776.686157 
	C894.035522,1772.572266 889.552124,1770.005981 883.790283,1768.872070 
	C873.693665,1766.885376 863.685303,1764.450439 852.846252,1761.347656 
	C855.055420,1753.557373 851.373840,1748.952881 846.080383,1745.696289 
	C842.809387,1743.683838 838.675537,1743.042847 834.894897,1741.898926 
	C831.133850,1740.760986 826.927490,1740.465820 823.622803,1738.569824 
	C814.665283,1733.430420 805.455017,1733.324219 795.633789,1734.913086 
	C789.465576,1735.911011 782.589050,1737.101807 776.876709,1735.386719 
	C765.245178,1731.894409 753.296509,1731.870850 741.554688,1729.965210 
	C731.944580,1728.405396 722.716797,1727.617920 714.315063,1720.779907 
	C707.284729,1715.058105 697.494202,1711.890625 687.944946,1714.192017 
	C678.220398,1716.535767 668.877136,1715.112915 659.376587,1713.913940 
	C654.777771,1713.333252 650.199341,1712.202026 645.598999,1712.129639 
	C640.903809,1712.055664 637.592712,1710.259888 634.146606,1707.198608 
	C626.442322,1700.354858 618.345886,1693.665283 608.091431,1691.127441 
	C597.765503,1688.571899 592.044983,1682.104858 590.020935,1672.153442 
	C589.006897,1667.167358 586.453918,1664.542603 581.532837,1663.850586 
	C577.928772,1663.343628 574.289856,1662.879517 570.782410,1661.956177 
	C567.990845,1661.221069 563.991699,1660.571045 562.915466,1658.587891 
	C557.757507,1649.083740 549.123474,1645.534180 539.480957,1643.582397 
	C525.065186,1640.664429 511.417053,1641.118774 500.160919,1652.720215 
	C493.131378,1659.965332 482.631134,1661.010864 477.319122,1653.907715 
	C469.100189,1642.917725 458.686310,1640.361694 446.143921,1641.811768 
	C443.510590,1642.116211 440.819092,1641.917480 438.154388,1641.950562 
	C423.471985,1625.244385 408.661041,1608.649048 394.131378,1591.811035 
	C352.701813,1543.799072 311.386749,1495.688354 269.836121,1446.959961 
	C282.153778,1434.374023 294.633545,1422.414917 307.184753,1410.531372 
	C311.770020,1406.189819 316.831360,1402.311890 321.112823,1397.700073 
	C325.094879,1393.410889 329.511810,1391.677368 335.263000,1392.078979 
	C340.236938,1392.426025 345.257324,1392.155151 350.256287,1392.090332 
	C403.859406,1391.394409 457.467926,1390.944214 511.061401,1389.794922 
	C524.264343,1389.511841 537.426331,1387.007324 550.592285,1385.401733 
	C564.735413,1383.677002 578.858582,1381.789062 592.994995,1380.008057 
	C607.786316,1378.144531 622.552734,1375.980957 637.393860,1374.672485 
	C642.488708,1374.223267 647.940918,1375.375122 652.949524,1376.788574 
	C692.253296,1387.880737 731.469177,1399.284058 770.759399,1410.424927 
	C780.679199,1413.237793 790.304138,1414.105347 800.787415,1410.394775 
	C818.914856,1403.978516 837.689514,1399.394775 856.176086,1393.985596 
	C859.346252,1393.057983 862.433716,1391.847656 866.045410,1390.156494 
	C877.260620,1397.317017 887.752686,1405.449829 898.816406,1412.711670 
	C904.564270,1416.484619 911.461304,1418.458496 917.579834,1421.730225 
	C922.463989,1424.341919 927.271362,1427.300781 931.549988,1430.794922 
	C938.582397,1436.537842 946.062622,1441.181763 954.676941,1444.206055 
	C959.317505,1445.835449 963.832214,1448.126831 967.992371,1450.767456 
	C984.851746,1461.469360 1002.750427,1470.105347 1020.900330,1478.316772 
	C1024.454712,1479.924805 1027.830811,1482.292725 1030.727417,1484.927490 
	C1044.744385,1497.677490 1058.445801,1510.775269 1072.509399,1523.472656 
	C1080.908569,1531.055664 1083.372192,1541.314331 1086.284302,1551.448975 
	C1086.825439,1553.332397 1087.015015,1555.368530 1087.045288,1557.339111 
	C1087.319336,1575.194214 1096.779297,1589.412964 1105.492554,1603.895996 
	C1108.736816,1609.288574 1112.414185,1614.420654 1115.902588,1620.275635 
z"/>
<path 
	data-name="Kalfou"
fill="#42B6B8" opacity="1.000000" stroke="none" 
	d="
M438.281067,1642.611084 
	C440.819092,1641.917480 443.510590,1642.116211 446.143921,1641.811768 
	C458.686310,1640.361694 469.100189,1642.917725 477.319122,1653.907715 
	C482.631134,1661.010864 493.131378,1659.965332 500.160919,1652.720215 
	C511.417053,1641.118774 525.065186,1640.664429 539.480957,1643.582397 
	C549.123474,1645.534180 557.757507,1649.083740 562.915466,1658.587891 
	C563.991699,1660.571045 567.990845,1661.221069 570.782410,1661.956177 
	C574.289856,1662.879517 577.928772,1663.343628 581.532837,1663.850586 
	C586.453918,1664.542603 589.006897,1667.167358 590.020935,1672.153442 
	C592.044983,1682.104858 597.765503,1688.571899 608.091431,1691.127441 
	C618.345886,1693.665283 626.442322,1700.354858 634.146606,1707.198608 
	C637.592712,1710.259888 640.903809,1712.055664 645.598999,1712.129639 
	C650.199341,1712.202026 654.777771,1713.333252 659.376587,1713.913940 
	C668.877136,1715.112915 678.220398,1716.535767 687.944946,1714.192017 
	C697.494202,1711.890625 707.284729,1715.058105 714.315063,1720.779907 
	C722.716797,1727.617920 731.944580,1728.405396 741.554688,1729.965210 
	C753.296509,1731.870850 765.245178,1731.894409 776.876709,1735.386719 
	C782.589050,1737.101807 789.465576,1735.911011 795.633789,1734.913086 
	C805.455017,1733.324219 814.665283,1733.430420 823.622803,1738.569824 
	C826.927490,1740.465820 831.133850,1740.760986 834.894897,1741.898926 
	C838.675537,1743.042847 842.809387,1743.683838 846.080383,1745.696289 
	C851.373840,1748.952881 855.055420,1753.557373 852.072998,1761.214722 
	C845.577698,1769.859131 839.062012,1777.780640 832.114380,1786.227417 
	C839.054016,1799.911743 846.175842,1813.812500 853.170349,1827.776978 
	C868.374023,1858.131226 883.528259,1888.510254 898.670227,1918.895386 
	C904.611877,1930.818481 910.157837,1942.951782 916.489990,1954.661499 
	C919.666443,1960.535522 919.686829,1965.189819 916.566956,1971.262573 
	C891.917908,2019.241577 867.275757,2067.231934 843.406982,2115.601318 
	C821.464905,2160.066895 800.382568,2204.958984 779.201233,2249.795166 
	C776.153931,2256.245605 772.060608,2260.742188 765.509644,2263.327881 
	C753.696350,2267.990234 742.574341,2273.854980 733.081055,2282.493164 
	C731.630493,2283.813232 729.867126,2285.347900 728.067322,2285.630615 
	C719.275208,2287.011475 713.163757,2292.876953 707.155762,2298.413574 
	C702.296936,2302.891113 697.034241,2306.015381 690.811890,2307.452393 
	C678.203613,2310.363525 669.977112,2319.768555 659.650085,2326.898438 
	C666.461975,2337.828369 676.326050,2344.044189 686.246094,2349.930176 
	C705.100281,2361.116943 724.101685,2372.073486 743.329529,2382.600098 
	C748.724060,2385.553223 755.122131,2386.672852 760.921021,2389.538818 
	C740.496948,2405.439697 720.394897,2420.632568 705.181885,2441.193115 
	C704.411072,2442.234863 703.260986,2442.997559 702.279358,2443.881348 
	C691.941772,2453.188477 681.602600,2462.493896 670.842041,2471.218750 
	C654.561523,2450.127441 640.559814,2428.121826 621.483154,2410.194336 
	C619.387268,2408.224609 617.853943,2405.416016 616.702698,2402.721680 
	C610.951721,2389.264648 605.693237,2375.590820 599.690002,2362.250244 
	C596.540649,2355.251953 595.282288,2348.634277 597.552795,2341.100342 
	C600.122742,2332.572998 599.066833,2324.437500 594.398193,2316.383545 
	C589.914551,2308.648438 586.357666,2300.286133 583.220703,2291.890381 
	C580.911194,2285.709473 576.826111,2283.125244 570.755249,2282.260742 
	C528.680481,2276.269287 486.616791,2270.199707 444.547363,2264.170654 
	C415.957092,2260.073486 387.267578,2256.564941 358.803284,2251.728760 
	C338.218536,2248.230957 317.930695,2242.985596 297.510437,2238.519531 
	C303.181000,2220.545410 308.851593,2202.571045 314.545288,2184.523438 
	C323.705994,2183.901123 332.275482,2183.318848 341.741241,2182.675537 
	C342.616943,2173.551758 342.366730,2164.472900 344.558014,2156.027588 
	C347.965912,2142.894043 342.095734,2135.237793 332.678619,2127.452393 
	C310.408356,2109.040283 288.876831,2089.737549 266.888611,2070.979980 
	C262.228821,2067.004639 260.802338,2062.786133 262.574768,2056.934326 
	C264.188690,2051.605957 265.122040,2046.071655 266.565247,2039.701782 
	C261.178070,2038.324463 256.471436,2037.008423 251.709290,2035.939575 
	C247.962372,2035.098755 245.201752,2033.593506 243.300369,2029.822388 
	C225.774155,1995.062378 208.043076,1960.405884 190.395157,1925.707275 
	C190.106766,1925.140137 190.114151,1924.422607 189.817642,1922.953247 
	C191.523102,1921.604004 193.385696,1919.807007 195.538727,1918.481934 
	C205.729797,1912.209961 215.721771,1905.535889 226.299835,1899.987183 
	C249.242264,1887.952515 268.417908,1871.145020 287.288239,1853.795410 
	C317.631958,1825.896851 348.241821,1798.287476 378.569061,1770.371094 
	C399.610443,1751.002319 420.344391,1731.299927 441.258392,1711.792236 
	C451.461212,1702.275635 461.761841,1692.863892 472.514404,1682.947021 
	C460.884735,1669.418457 449.646240,1656.344971 438.281067,1642.611084 
z"/>
<path 
	data-name="Kar-Hay"
fill="#C28C4A" opacity="1.000000" stroke="none" 
	d="
M297.079803,2238.991699 
	C317.930695,2242.985596 338.218536,2248.230957 358.803284,2251.728760 
	C387.267578,2256.564941 415.957092,2260.073486 444.547363,2264.170654 
	C486.616791,2270.199707 528.680481,2276.269287 570.755249,2282.260742 
	C576.826111,2283.125244 580.911194,2285.709473 583.220703,2291.890381 
	C586.357666,2300.286133 589.914551,2308.648438 594.398193,2316.383545 
	C599.066833,2324.437500 600.122742,2332.572998 597.552795,2341.100342 
	C595.282288,2348.634277 596.540649,2355.251953 599.690002,2362.250244 
	C605.693237,2375.590820 610.951721,2389.264648 616.702698,2402.721680 
	C617.853943,2405.416016 619.387268,2408.224609 621.483154,2410.194336 
	C640.559814,2428.121826 654.561523,2450.127441 670.471680,2471.874023 
	C662.924500,2480.768066 655.514404,2488.625488 647.669678,2496.021484 
	C641.011353,2502.299316 633.851501,2508.045410 626.330872,2514.237793 
	C624.741821,2515.286621 623.614746,2516.015869 622.746948,2516.978760 
	C607.191956,2534.233643 591.937012,2551.768311 576.073975,2568.734375 
	C553.146301,2593.256348 528.769348,2616.244141 502.245239,2636.934326 
	C494.441772,2643.021484 487.011627,2647.591309 476.323700,2646.531494 
	C462.125427,2645.123535 448.633881,2647.669922 438.341248,2659.925781 
	C431.020996,2656.512207 424.346924,2653.468506 417.958832,2649.911133 
	C412.532928,2646.889648 406.948151,2645.821533 400.783600,2645.926514 
	C387.472931,2646.153809 374.128021,2645.373779 360.845856,2646.015381 
	C344.440338,2646.807861 329.885681,2640.100098 314.454712,2637.119141 
	C312.828308,2626.689209 311.412567,2617.198975 309.855804,2607.731934 
	C307.943237,2596.100830 299.307922,2588.916748 291.740021,2581.130127 
	C290.609070,2579.966553 287.963501,2579.701904 286.114594,2579.903076 
	C274.820770,2581.133301 264.522247,2577.163818 253.978363,2574.253418 
	C235.185867,2569.065674 217.288254,2560.477295 197.433655,2559.271484 
	C196.897247,2559.239014 196.404175,2558.493164 195.890930,2558.079834 
	C203.785095,2543.835205 210.918610,2529.097412 219.757004,2515.465088 
	C232.081451,2496.455566 237.075424,2475.951416 238.478607,2453.563477 
	C240.571625,2420.169434 244.504272,2386.891602 247.580872,2353.557617 
	C248.587341,2342.653076 249.734299,2331.739502 250.088272,2320.806396 
	C250.258957,2315.534180 251.746033,2311.253662 254.577026,2306.979492 
	C267.256012,2287.838623 279.833832,2268.629639 292.272644,2249.332275 
	C294.198822,2246.343994 295.213196,2242.768066 297.079803,2238.991699 
z"/>
<path 
	data-name="Guéré"
fill="#F556D0" opacity="1.000000" stroke="none" 
	d="
M1070.342529,2684.337402 
	C1067.447510,2684.168213 1065.503418,2683.860840 1062.885254,2683.446533 
	C1062.760010,2676.363770 1067.133545,2671.098877 1069.478638,2665.127441 
	C1073.587769,2654.664062 1078.342896,2644.277588 1080.783936,2633.400391 
	C1082.304199,2626.626953 1080.313110,2618.982666 1079.469849,2611.779053 
	C1077.816040,2597.651123 1075.813843,2583.564209 1074.048218,2569.448975 
	C1072.485352,2556.953369 1071.532471,2544.361816 1069.461792,2531.954102 
	C1063.781494,2497.920166 1075.505859,2470.821533 1101.397949,2449.066650 
	C1102.671997,2447.996094 1103.870850,2446.832031 1105.180054,2445.807617 
	C1112.991577,2439.694092 1120.266724,2432.955078 1130.127319,2429.781494 
	C1147.167725,2424.297363 1154.952026,2409.740723 1162.514282,2395.175049 
	C1170.333130,2380.114990 1178.589966,2365.259033 1185.794312,2349.909668 
	C1194.409912,2331.553955 1207.593018,2316.518066 1220.191650,2301.146729 
	C1233.219727,2285.250977 1243.431519,2267.783203 1251.059326,2248.990967 
	C1254.844849,2239.665039 1255.549805,2229.031006 1257.118042,2218.906494 
	C1257.474365,2216.606201 1255.732788,2213.925781 1254.782349,2211.488525 
	C1252.249023,2204.992676 1249.569702,2198.553467 1247.044434,2192.054443 
	C1244.444946,2185.364746 1244.346558,2178.631348 1246.402588,2171.702393 
	C1247.425293,2168.256348 1247.854858,2164.562012 1248.045166,2160.953613 
	C1248.744141,2147.694824 1249.516968,2134.428711 1249.679810,2121.158203 
	C1249.764893,2114.234863 1248.753296,2107.283691 1248.028076,2100.367188 
	C1246.839966,2089.037598 1250.713623,2078.739990 1254.263916,2068.359863 
	C1255.579712,2064.512695 1258.184814,2062.531982 1262.325317,2062.020264 
	C1276.122437,2060.314453 1289.884766,2058.328613 1303.677612,2056.586914 
	C1308.062134,2056.033203 1311.036133,2058.625977 1309.812744,2063.235840 
	C1307.436646,2072.188721 1308.543091,2081.593750 1304.500977,2090.440918 
	C1299.481567,2101.427002 1301.460327,2105.657471 1312.374023,2111.200928 
	C1323.044434,2116.620605 1333.979248,2121.549316 1344.964355,2126.309814 
	C1351.662842,2129.212646 1355.081055,2133.592773 1353.917969,2141.029053 
	C1353.867065,2141.354248 1353.910278,2141.694336 1353.911743,2142.027344 
	C1353.980225,2157.798828 1358.386719,2163.078613 1374.033936,2165.931396 
	C1378.594727,2166.763184 1383.390015,2166.775391 1387.734375,2168.206055 
	C1392.684814,2169.836670 1397.742188,2171.977783 1401.872925,2175.071777 
	C1408.495972,2180.032471 1414.394897,2185.959961 1421.202026,2191.741211 
	C1423.800293,2195.830322 1423.642212,2199.306885 1421.152344,2203.090820 
	C1415.320923,2211.952881 1411.080688,2221.907227 1402.623535,2228.926270 
	C1401.167114,2230.135254 1400.317505,2232.130371 1399.348267,2233.852539 
	C1398.702026,2235.000977 1398.348755,2236.313232 1397.851440,2237.546875 
	C1392.626831,2250.508789 1385.481323,2263.076172 1382.719604,2276.542969 
	C1380.026733,2289.673584 1381.917480,2303.726074 1381.595337,2317.368896 
	C1381.422607,2324.684570 1380.646240,2331.985596 1380.454712,2339.301270 
	C1379.630737,2370.770508 1384.890259,2401.581055 1390.923218,2432.276855 
	C1393.877930,2447.311035 1396.094482,2462.327881 1396.135620,2477.743408 
	C1396.194336,2499.706543 1397.099121,2521.669189 1397.749512,2543.628662 
	C1398.086426,2555.003662 1392.858887,2564.072266 1385.974121,2572.382812 
	C1383.446777,2575.433594 1380.080811,2577.773682 1377.286255,2580.623291 
	C1373.868652,2584.108643 1369.971191,2585.897461 1364.989990,2586.334473 
	C1358.722290,2586.884033 1352.567749,2588.962646 1346.306763,2589.293945 
	C1337.545288,2589.757812 1330.574829,2593.726807 1323.405029,2598.144043 
	C1316.390991,2602.464844 1308.744019,2605.756592 1301.385498,2609.520752 
	C1298.743530,2610.872559 1295.796875,2611.880127 1293.562134,2613.735107 
	C1279.473145,2625.429932 1264.992065,2636.870361 1253.895752,2651.552490 
	C1246.063110,2661.916260 1241.164429,2673.963623 1239.762695,2687.121094 
	C1239.519287,2689.406494 1239.728149,2691.739990 1239.728149,2695.154053 
	C1236.632202,2693.920654 1234.214600,2693.192383 1232.018433,2692.041748 
	C1222.878418,2687.251953 1213.677612,2682.554688 1204.757812,2677.377930 
	C1199.853271,2674.531738 1194.904175,2673.992676 1189.450439,2674.375488 
	C1169.873901,2675.749023 1150.281128,2676.888672 1130.697388,2678.162109 
	C1121.072510,2678.787842 1111.454224,2679.513428 1101.232666,2680.590820 
	C1090.852661,2682.057861 1081.073120,2683.128418 1070.342529,2684.337402 
z"/>
<path 
	data-name="Datcheka"
fill="#DEF672" opacity="1.000000" stroke="none" 
	d="
M439.111420,2660.072754 
	C448.633881,2647.669922 462.125427,2645.123535 476.323700,2646.531494 
	C487.011627,2647.591309 494.441772,2643.021484 502.245239,2636.934326 
	C528.769348,2616.244141 553.146301,2593.256348 576.073975,2568.734375 
	C591.937012,2551.768311 607.191956,2534.233643 622.746948,2516.978760 
	C623.614746,2516.015869 624.741821,2515.286621 626.772888,2514.826416 
	C646.451721,2526.711426 665.310547,2537.903076 683.698425,2549.821289 
	C699.847595,2560.288818 716.680603,2570.186523 731.073181,2582.779785 
	C761.817627,2609.680908 791.240601,2638.097168 821.019531,2666.089844 
	C824.537903,2669.397217 826.897400,2673.937012 829.793945,2677.905762 
	C818.359070,2681.264893 806.940735,2684.682129 795.483032,2687.962158 
	C788.488403,2689.964111 781.433228,2691.754639 774.058350,2693.733154 
	C771.315674,2705.883545 768.278564,2717.762695 766.060364,2729.793213 
	C764.847534,2736.370850 761.838684,2739.784912 755.499329,2742.378662 
	C724.462463,2755.077393 693.627869,2768.279297 662.873962,2781.653809 
	C656.595154,2784.384277 652.034363,2783.618164 646.659058,2779.505371 
	C629.496155,2766.372314 612.018127,2753.645020 594.461609,2741.040039 
	C591.704102,2739.060059 587.946045,2737.627930 584.581848,2737.477295 
	C563.337891,2736.526611 542.077087,2735.893799 520.815796,2735.431152 
	C515.692017,2735.319336 511.389771,2734.091797 506.757233,2731.677246 
	C499.162506,2727.718994 490.871613,2725.046143 482.769836,2722.120850 
	C464.346863,2715.468750 445.860229,2708.992676 426.748840,2701.397217 
	C430.435913,2686.923584 434.773651,2673.498291 439.111420,2660.072754 
z"/>
<path 
	data-name="Tchati-Bali"
fill="#9B363D" opacity="1.000000" stroke="none" 
	d="
M438.341248,2659.925781 
	C434.773651,2673.498291 430.435913,2686.923584 426.081085,2701.098389 
	C424.161652,2701.293945 422.198090,2700.893066 420.368347,2700.158447 
	C414.614441,2697.848877 409.142426,2697.664551 402.975891,2699.614746 
	C369.694733,2710.139893 336.273529,2720.222168 302.895081,2730.438965 
	C232.956436,2751.846436 163.008331,2773.222900 93.078110,2794.657715 
	C77.214203,2799.520020 61.407238,2804.568115 44.486645,2809.871826 
	C44.816864,2807.257080 44.619717,2805.336426 45.315014,2803.826660 
	C59.373989,2773.299561 73.522018,2742.813721 87.684402,2712.334473 
	C91.750641,2703.583496 96.262833,2695.021973 99.949394,2686.116699 
	C104.362617,2675.456055 111.292633,2666.652344 118.978409,2658.353516 
	C132.546677,2643.702148 146.317841,2629.239258 159.915787,2614.615234 
	C162.393600,2611.950439 164.768433,2609.086426 166.646744,2605.984863 
	C176.128510,2590.327148 185.430267,2574.560059 195.343048,2558.455566 
	C196.404175,2558.493164 196.897247,2559.239014 197.433655,2559.271484 
	C217.288254,2560.477295 235.185867,2569.065674 253.978363,2574.253418 
	C264.522247,2577.163818 274.820770,2581.133301 286.114594,2579.903076 
	C287.963501,2579.701904 290.609070,2579.966553 291.740021,2581.130127 
	C299.307922,2588.916748 307.943237,2596.100830 309.855804,2607.731934 
	C311.412567,2617.198975 312.828308,2626.689209 314.454712,2637.119141 
	C329.885681,2640.100098 344.440338,2646.807861 360.845856,2646.015381 
	C374.128021,2645.373779 387.472931,2646.153809 400.783600,2645.926514 
	C406.948151,2645.821533 412.532928,2646.889648 417.958832,2649.911133 
	C424.346924,2653.468506 431.020996,2656.512207 438.341248,2659.925781 
z"/>
<path 
	data-name="Wina"
fill="#6659F6" opacity="1.000000" stroke="none" 
	d="
M830.604126,2677.934082 
	C826.897400,2673.937012 824.537903,2669.397217 821.019531,2666.089844 
	C791.240601,2638.097168 761.817627,2609.680908 731.073181,2582.779785 
	C716.680603,2570.186523 699.847595,2560.288818 683.698425,2549.821289 
	C665.310547,2537.903076 646.451721,2526.711426 627.355591,2514.615234 
	C633.851501,2508.045410 641.011353,2502.299316 647.669678,2496.021484 
	C655.514404,2488.625488 662.924500,2480.768066 670.893433,2472.455078 
	C681.602600,2462.493896 691.941772,2453.188477 702.279358,2443.881348 
	C703.260986,2442.997559 704.411072,2442.234863 705.181885,2441.193115 
	C720.394897,2420.632568 740.496948,2405.439697 761.375122,2390.098633 
	C781.962036,2396.361816 796.524414,2410.308838 809.676758,2425.838867 
	C813.704834,2430.595215 817.737488,2434.468018 823.753784,2436.241455 
	C840.377808,2441.142090 853.654419,2450.814209 862.339355,2465.776855 
	C866.445984,2472.851562 868.704285,2481.005371 871.713379,2488.704346 
	C872.187073,2489.916260 871.827759,2491.542725 872.481995,2492.581787 
	C880.216675,2504.865234 879.513245,2518.243408 877.982666,2531.830078 
	C876.986755,2540.670898 879.012146,2548.980713 883.356384,2556.760498 
	C886.047485,2561.579834 887.430115,2566.670654 884.941467,2572.008301 
	C883.395203,2575.325195 884.569092,2577.706787 886.918152,2579.986084 
	C893.364380,2586.240723 899.430786,2592.944580 906.317688,2598.663818 
	C910.096741,2601.802002 912.794434,2604.997559 914.266418,2609.636230 
	C915.362915,2613.091797 917.071472,2616.392090 918.817688,2619.592285 
	C920.951782,2623.503174 921.872986,2627.070312 920.730896,2631.840576 
	C919.811951,2635.679443 921.156921,2640.357178 922.426270,2644.368896 
	C926.723328,2657.949463 931.433411,2671.399414 935.920898,2685.716553 
	C919.714417,2682.900146 903.314026,2680.129395 887.504089,2675.389404 
	C871.711243,2670.654297 856.565918,2669.048096 841.073242,2675.707520 
	C838.083008,2676.993164 834.645447,2677.238037 830.604126,2677.934082 
z"/>

</svg>