<svg version="1.1" id="Layer_1" xmlns="http://www.w3.org/2000/svg" xmlns:xlink="http://www.w3.org/1999/xlink" x="0px" y="0px"
	 width="100%" viewBox="0 0 2226 2995" enable-background="new 0 0 2226 2995" xml:space="preserve">

<path data-name="Ngoyla" fill="#F7CF57" opacity="1.000000" stroke="none" 
	d="
M2000.467651,1844.897705 
	C2004.723145,1846.693237 2008.971558,1848.505859 2013.239746,1850.270752 
	C2014.152954,1850.648438 2015.612671,1851.404907 2016.018188,1851.055542 
	C2022.313477,1845.631348 2029.039917,1849.282104 2035.573975,1850.044312 
	C2038.695068,1850.408325 2041.726929,1851.492554 2044.843506,1851.949707 
	C2048.375977,1852.467651 2052.000732,1853.149902 2055.508057,1852.851685 
	C2060.087646,1852.462158 2064.559082,1850.869629 2069.139160,1850.396484 
	C2071.987793,1850.102173 2076.410400,1849.843628 2077.591064,1851.442017 
	C2081.205811,1856.336182 2086.572510,1855.634033 2091.085693,1856.628662 
	C2097.951660,1858.141724 2104.614746,1859.565918 2110.571045,1863.554199 
	C2113.893799,1865.779053 2117.704346,1865.771484 2120.724365,1863.084595 
	C2125.651367,1858.700684 2130.522705,1860.647583 2135.661377,1862.306885 
	C2140.023682,1863.715576 2144.759766,1866.187012 2148.923828,1865.545898 
	C2158.968262,1864.000000 2164.581299,1869.277588 2170.443848,1875.893311 
	C2174.545410,1880.521973 2179.826904,1884.101440 2184.552002,1888.183472 
	C2186.252197,1889.652222 2187.866699,1891.220459 2190.035889,1893.218262 
	C2194.213623,1891.339600 2198.836426,1890.289185 2202.078857,1884.990845 
	C2208.086914,1875.173096 2215.257080,1874.010254 2227.365967,1879.612427 
	C2228.000000,2068.041748 2228.000000,2256.083740 2227.323486,2444.916016 
	C2227.097900,2446.471191 2227.548828,2447.235596 2228.000000,2448.000000 
	C2228.000000,2449.500000 2228.000000,2451.000000 2227.463379,2452.597656 
	C2216.385742,2458.670898 2214.333984,2470.605225 2208.463867,2480.857666 
	C2201.383545,2474.064209 2194.953125,2477.849854 2188.480957,2480.091797 
	C2186.433105,2480.800781 2184.247559,2481.246582 2182.355957,2482.248535 
	C2175.113525,2486.085938 2165.955078,2484.717285 2159.480713,2490.838135 
	C2158.484375,2491.780273 2156.014648,2491.407715 2154.257568,2491.262207 
	C2143.503662,2490.373047 2132.916748,2491.631592 2122.452393,2493.886475 
	C2119.270508,2494.572021 2116.193848,2496.052979 2113.277588,2497.570801 
	C2110.821289,2498.849609 2109.124268,2500.829834 2110.318115,2504.077637 
	C2110.943604,2505.779541 2111.144531,2507.637451 2111.949951,2511.302734 
	C2105.377197,2509.336426 2100.291748,2507.815186 2094.243896,2506.005859 
	C2094.243896,2510.468506 2094.204346,2514.281738 2094.254150,2518.093750 
	C2094.309814,2522.346680 2095.287354,2526.854248 2090.716553,2529.684570 
	C2088.274658,2529.843262 2085.832764,2530.002197 2082.028076,2529.504150 
	C2078.875244,2527.963135 2077.018555,2527.191650 2075.308838,2526.173340 
	C2071.050537,2523.637695 2069.256104,2520.283203 2071.670898,2515.361572 
	C2075.816162,2506.914062 2072.125000,2499.889648 2067.019043,2493.466553 
	C2065.099854,2491.052246 2062.141602,2487.823975 2059.666748,2487.832520 
	C2054.490479,2487.849854 2052.170654,2485.655518 2049.534424,2481.677002 
	C2045.718506,2475.918701 2040.469238,2471.671875 2032.722290,2475.003418 
	C2028.071289,2477.003906 2024.398682,2474.251953 2020.449707,2472.751709 
	C2015.515747,2470.877197 2010.741577,2468.105469 2005.146729,2470.425049 
	C2001.250000,2472.040771 1998.021606,2471.715332 1994.147705,2469.062256 
	C1988.719238,2465.344482 1983.737305,2466.892334 1979.688721,2471.986816 
	C1975.104248,2477.756348 1969.200806,2480.691650 1961.837891,2481.558350 
	C1957.027710,2482.124512 1952.271240,2483.663086 1947.660034,2485.255859 
	C1942.958374,2486.879639 1938.398193,2488.965088 1933.899048,2491.106934 
	C1930.343018,2492.799561 1927.450806,2492.283936 1925.024902,2489.288086 
	C1919.660645,2482.663818 1912.527222,2482.029541 1904.547485,2482.035400 
	C1704.639526,2482.186035 1504.731567,2482.153564 1304.823486,2482.153564 
	C1300.923950,2482.153564 1297.024414,2482.153564 1292.898071,2482.153564 
	C1291.986328,2470.543457 1291.048950,2460.023682 1290.359253,2449.487549 
	C1289.340332,2433.923584 1288.653931,2418.336670 1287.542847,2402.780029 
	C1285.938721,2380.316895 1283.981323,2357.879395 1282.365845,2335.417236 
	C1281.270508,2320.187988 1280.641846,2304.925537 1279.555786,2289.695801 
	C1277.928833,2266.879883 1276.003906,2244.085205 1274.359741,2221.270508 
	C1273.286621,2206.380615 1272.614380,2191.462158 1271.534424,2176.572998 
	C1269.905273,2154.112061 1267.984253,2131.671875 1266.365356,2109.210205 
	C1265.267334,2093.978271 1264.607666,2078.715088 1263.513184,2063.482666 
	C1261.897705,2040.998779 1259.979492,2018.536377 1258.364258,1996.052368 
	C1257.270874,1980.830811 1256.626953,1965.576660 1255.511963,1950.356812 
	C1253.915283,1928.559814 1251.947266,1906.789917 1250.376343,1884.991211 
	C1249.254761,1869.427368 1248.671143,1853.825317 1247.586304,1838.258423 
	C1245.950195,1814.781372 1244.133911,1791.316528 1242.298462,1767.854004 
	C1241.420654,1756.631592 1240.322754,1745.426270 1239.645386,1733.557251 
	C1246.907959,1729.580566 1251.736450,1720.545166 1261.741943,1725.868286 
	C1262.678345,1723.328735 1263.491577,1721.587769 1263.965088,1719.758545 
	C1265.971680,1712.005371 1268.525879,1710.715210 1275.818604,1713.800293 
	C1277.833496,1714.652710 1279.946167,1715.273926 1282.867432,1716.301514 
	C1283.285522,1708.527222 1288.952881,1705.523315 1293.132446,1701.050781 
	C1297.430054,1696.452393 1302.089966,1694.717896 1307.214600,1696.342041 
	C1315.973511,1699.117798 1324.274658,1703.262207 1333.883301,1702.455444 
	C1335.207764,1702.344360 1336.905518,1703.790771 1338.047119,1704.907837 
	C1342.147217,1708.920166 1346.965820,1708.709961 1351.993652,1707.644775 
	C1354.573853,1707.098145 1357.168091,1705.926270 1359.713989,1706.033569 
	C1368.923828,1706.422119 1375.125854,1701.199097 1381.146240,1695.373169 
	C1384.642700,1691.989502 1388.238525,1688.708496 1392.389038,1685.804077 
	C1393.587769,1688.213379 1395.195068,1690.593018 1394.601562,1692.114258 
	C1392.664795,1697.078613 1395.793823,1698.357422 1399.173340,1698.807861 
	C1408.599976,1700.063599 1418.086304,1700.871338 1428.133423,1701.916870 
	C1434.845337,1695.473389 1446.445190,1693.029663 1452.481445,1697.942017 
	C1458.040405,1702.466187 1462.950073,1707.788330 1467.703491,1712.335938 
	C1467.598633,1718.940552 1458.006348,1720.017578 1460.684204,1727.550903 
	C1462.346680,1727.744019 1463.997803,1728.226929 1465.586792,1728.072388 
	C1474.701172,1727.185791 1481.323975,1729.710205 1482.737549,1739.931641 
	C1482.870239,1740.890625 1483.367065,1741.833252 1483.837524,1742.706543 
	C1489.529907,1753.270508 1498.182007,1756.411499 1509.356079,1752.119141 
	C1512.666504,1750.847534 1516.086060,1749.859985 1519.442017,1748.746704 
	C1522.420776,1753.052734 1524.919922,1756.665527 1527.496216,1760.389648 
	C1537.959473,1750.523926 1537.959473,1750.523926 1546.164673,1748.243530 
	C1554.220093,1754.715576 1555.139282,1754.901367 1560.595093,1751.162842 
	C1566.300781,1747.253296 1572.143433,1748.821289 1574.663208,1755.203369 
	C1575.723633,1757.889282 1576.076782,1760.854492 1576.924194,1764.419434 
	C1580.521729,1763.377563 1583.710571,1762.731567 1586.675293,1761.531738 
	C1591.264404,1759.674683 1595.052368,1760.792358 1596.437988,1765.264648 
	C1599.258179,1774.368042 1606.671631,1778.733032 1613.625854,1783.772339 
	C1615.719604,1785.289429 1617.794922,1787.010620 1619.368774,1789.034912 
	C1625.743774,1797.235718 1626.257202,1797.691895 1635.850098,1793.420166 
	C1639.427734,1791.827148 1642.386719,1791.120605 1646.196655,1792.351929 
	C1649.622314,1793.459106 1653.385254,1793.501221 1656.985352,1794.098877 
	C1658.915771,1794.419556 1661.133911,1794.430908 1662.672852,1795.428833 
	C1668.069702,1798.928589 1673.228027,1802.796143 1678.445679,1806.501831 
	C1685.254150,1803.520142 1691.430908,1795.953125 1698.745728,1804.755371 
	C1698.931519,1804.979004 1699.441162,1805.205322 1699.640015,1805.106934 
	C1707.084961,1801.426514 1711.820312,1808.317505 1717.919067,1809.851685 
	C1722.205444,1810.929932 1724.749023,1813.685181 1723.998901,1818.679565 
	C1723.781372,1820.128418 1724.633423,1821.737915 1725.085327,1823.657715 
	C1729.745483,1823.657715 1733.956055,1823.657715 1738.885132,1823.657715 
	C1739.158569,1818.218262 1742.145508,1815.065308 1747.721558,1813.709351 
	C1749.937744,1813.170288 1751.811523,1810.611938 1753.508789,1808.680908 
	C1756.787842,1804.949585 1767.754883,1801.834351 1771.394531,1804.638916 
	C1776.853027,1808.844971 1781.666748,1813.887817 1787.960571,1819.685669 
	C1791.507812,1819.288940 1796.938721,1818.681519 1802.311157,1818.080566 
	C1804.706177,1831.374268 1816.888184,1834.188599 1824.333496,1841.558105 
	C1824.849609,1842.069092 1826.248901,1841.781982 1827.227539,1841.716919 
	C1836.434204,1841.105713 1845.706787,1840.950684 1854.823364,1839.679932 
	C1862.800537,1838.568115 1870.334473,1836.731323 1877.113525,1830.811890 
	C1883.234863,1825.466919 1890.830444,1820.037354 1900.836792,1822.689087 
	C1901.493896,1824.274048 1901.731079,1826.942383 1903.060913,1827.704712 
	C1910.319092,1831.865845 1917.194214,1838.039917 1926.702515,1833.932861 
	C1927.847290,1833.438477 1929.278931,1833.055298 1930.454346,1833.276123 
	C1937.357910,1834.573730 1944.224976,1836.065674 1951.644287,1837.604248 
	C1952.124756,1839.569458 1952.426025,1842.631348 1953.665405,1845.249268 
	C1954.536865,1847.090210 1956.469482,1849.265015 1958.296753,1849.684448 
	C1972.856079,1853.026123 1987.584106,1856.674072 2000.467651,1844.897705 
z"/>
<path data-name="Nguelemendouka" fill="#F45CF9" opacity="1.000000" stroke="none" 
	d="
M371.714661,536.300049 
	C369.073273,536.012146 366.369080,535.992615 363.801178,535.391113 
	C350.863190,532.360718 346.938812,527.096191 347.027283,513.218140 
	C347.029297,512.902283 347.325470,512.584229 347.315308,512.272766 
	C347.169952,507.806793 343.251709,502.439819 347.585266,499.121765 
	C352.171478,495.610199 358.105682,493.675720 363.682983,491.710510 
	C367.048462,490.524689 370.897156,490.792358 374.454590,490.051178 
	C380.391724,488.814178 381.578430,485.000793 377.768585,480.023834 
	C370.913208,471.068176 370.962494,471.100677 377.383850,461.350861 
	C378.627838,459.462006 380.080811,457.224945 380.123260,455.121979 
	C380.248383,448.921326 383.363495,445.413269 388.621399,444.144073 
	C385.687592,434.692474 382.581177,425.847961 380.339569,416.789429 
	C379.620758,413.884705 380.671387,410.219940 381.795929,407.235779 
	C387.294373,392.644958 393.165039,378.194702 398.714844,363.622681 
	C399.718323,360.987854 400.910919,357.695831 400.181641,355.255493 
	C396.874878,344.190430 396.100983,332.741302 394.084900,321.489319 
	C393.615875,318.871521 391.441833,316.559265 389.722626,313.524506 
	C384.461639,316.154449 380.134491,318.543701 375.623169,320.510620 
	C370.893372,322.572754 366.241943,320.630127 366.685486,316.578552 
	C366.936249,314.287628 369.507782,311.088348 371.692322,310.406006 
	C376.714417,308.837341 376.564270,306.712219 376.359039,301.788544 
	C375.935333,291.624695 377.722595,281.368683 378.651581,270.554230 
	C395.687439,262.007782 412.712616,253.011047 430.162018,244.930359 
	C437.448547,241.556000 441.088440,237.480637 442.907867,229.208389 
	C451.737000,189.065689 461.576660,149.145401 471.033508,109.140457 
	C472.252350,103.984413 473.326355,98.794136 474.519928,93.381905 
	C509.623749,77.256310 544.811340,61.092224 580.247925,44.813782 
	C579.184814,35.665085 578.239685,27.531824 577.157288,18.217033 
	C580.368713,17.977699 584.170837,17.304432 587.931824,17.485935 
	C600.018799,18.069256 604.408752,14.973834 606.710815,2.576214 
	C614.049072,2.000000 622.098206,2.000000 631.073608,2.000006 
	C631.776978,2.246345 631.553894,2.492678 631.330811,2.739006 
	C637.678467,7.923424 643.202026,14.452985 652.605042,14.172111 
	C665.173767,13.796679 673.967346,19.971457 680.657715,30.300026 
	C684.188843,35.751362 688.510925,40.790165 693.035156,45.475189 
	C699.862549,52.545361 709.317078,53.990597 718.400574,55.681427 
	C723.063599,56.549408 726.893982,57.489716 730.371521,61.447651 
	C734.449829,66.089417 740.654175,64.723969 746.099182,63.469402 
	C756.002319,61.187675 765.805420,58.462479 775.734070,56.308617 
	C777.791077,55.862370 780.199341,57.193714 782.471375,57.535042 
	C784.656860,57.863369 786.874023,57.989323 789.080017,58.170521 
	C792.937500,58.487370 796.796692,58.785805 800.656128,59.078461 
	C805.586609,59.452335 810.518127,59.812824 816.297241,61.095619 
	C816.706360,72.261078 816.129333,82.506645 815.880737,92.760185 
	C815.733398,98.837448 814.251038,105.478325 821.532227,109.254341 
	C822.642212,109.829979 822.659912,112.287796 823.479431,113.703331 
	C824.549072,115.550949 825.535706,117.879784 827.221680,118.858421 
	C832.892578,122.150177 834.857300,127.638176 834.372742,133.186996 
	C833.772705,140.059189 835.983704,145.325699 841.205994,150.708817 
	C837.253723,153.726761 834.105042,156.602783 830.520691,158.752625 
	C825.704102,161.641571 820.551147,163.969788 814.874634,166.728271 
	C803.554443,169.164795 792.937561,171.600800 782.238953,173.599808 
	C773.466431,175.238922 764.359009,175.506927 755.821289,177.891251 
	C739.854370,182.350388 728.400757,192.684998 722.886841,208.465775 
	C721.479492,212.493515 722.636169,217.525940 723.090210,222.049026 
	C723.314392,224.282288 725.032043,226.347839 725.354675,228.592636 
	C726.073425,233.593277 726.574524,239.213455 722.056213,242.459869 
	C717.401855,245.803955 711.665833,247.037933 706.020203,244.133026 
	C702.476624,242.309677 699.202759,239.940323 695.603943,238.250153 
	C686.435669,233.944199 678.303101,226.849457 667.065796,227.910965 
	C665.197937,228.087402 663.202026,225.888931 661.133484,225.163956 
	C656.264282,223.457367 651.315491,221.977890 646.398865,220.406525 
	C640.693420,226.124329 634.516846,222.276276 628.723633,220.885742 
	C624.985291,219.988434 622.344421,220.261200 619.837158,223.139221 
	C618.337830,224.860168 616.529175,226.311707 613.877686,228.809235 
	C608.775574,224.643890 603.806824,220.587402 598.022644,215.865219 
	C590.231567,214.429932 582.968750,218.677689 576.445374,223.877823 
	C562.950928,234.634918 552.180054,246.834274 557.348328,266.259583 
	C558.171631,269.353943 557.765869,272.923126 557.303284,276.184113 
	C555.904846,286.041321 554.044128,295.833984 552.710083,305.698700 
	C552.325562,308.541687 552.623291,311.691467 553.458740,314.442291 
	C555.474792,321.080597 557.993103,327.566376 559.463257,334.228943 
	C549.701172,334.565247 540.667053,335.805389 531.893066,334.792053 
	C514.442627,332.776611 498.807068,335.096832 486.251709,348.576233 
	C482.621643,352.473419 479.087250,356.503052 475.109131,360.019623 
	C471.665436,363.063721 469.969635,366.576080 469.086487,371.025909 
	C467.738037,377.819794 465.750427,384.490387 463.938049,391.187317 
	C462.739288,395.616821 461.238464,399.967224 460.122742,404.415710 
	C459.236816,407.947906 459.104340,411.696228 457.991241,415.139740 
	C452.684174,431.557190 447.156403,447.903320 440.824280,464.206238 
	C434.959137,464.213165 429.781311,463.484985 425.060303,464.633820 
	C421.652283,465.463196 416.345001,468.714050 416.276337,471.015900 
	C416.107727,476.668030 414.237701,480.969208 411.485413,485.560272 
	C410.356995,487.442596 411.298676,490.565979 411.298676,492.815918 
	C408.041595,494.290283 405.386658,495.492065 403.510284,496.341431 
	C401.420380,504.998474 399.552368,512.736511 397.540985,521.068237 
	C386.493256,518.134644 380.077576,525.172180 374.152161,533.144043 
	C373.359314,534.210693 372.528107,535.248779 371.714661,536.300049 
z"/>
<path data-name="Bebend" fill="#57F164" opacity="1.000000" stroke="none" 
	d="
M144.768570,832.232910 
	C126.675011,830.481079 113.912079,821.093201 105.806252,805.033997 
	C95.462669,797.466064 93.417336,786.599060 92.550995,774.638855 
	C91.958900,766.464661 89.055893,758.457886 86.577965,749.808472 
	C85.807991,743.500610 85.646095,737.760498 85.745728,731.185364 
	C88.244484,729.071838 90.481705,727.793274 92.928871,726.394775 
	C94.199806,729.668640 94.860207,732.650818 96.441360,735.017944 
	C97.604828,736.759766 100.375519,739.133789 101.736053,738.752136 
	C108.815895,736.766174 116.117584,741.477234 122.886322,737.848633 
	C124.960419,736.736694 128.007126,734.640564 128.030365,732.959534 
	C128.171951,722.717285 137.052841,721.258484 143.134201,716.999756 
	C144.175613,716.270508 145.435349,715.853088 147.794937,714.709961 
	C145.336731,711.558044 143.260254,708.895569 140.718414,705.636414 
	C143.209824,702.328857 146.054214,698.552734 149.164337,694.423828 
	C151.659744,695.900513 153.385727,696.729858 154.896698,697.849365 
	C161.418762,702.681641 168.043060,698.980591 171.897095,695.293396 
	C178.968811,688.527954 186.650879,689.093201 194.864624,689.513062 
	C199.167740,689.732971 203.471146,689.946960 208.257538,690.187988 
	C209.676147,688.372314 211.120911,686.629639 212.450958,684.803406 
	C220.155777,674.223938 229.022949,672.919800 242.033264,679.275940 
	C246.584412,681.499390 253.184021,681.151855 255.552063,677.183899 
	C258.158051,672.817200 262.119415,670.102234 265.353119,666.609131 
	C270.062622,661.522034 273.039856,654.722107 276.253998,648.397461 
	C278.471771,644.033447 281.004944,640.810791 286.030090,639.377869 
	C291.871948,637.712158 297.052124,634.823120 298.834717,628.103638 
	C299.195068,626.745300 300.915039,625.624268 302.204865,624.655762 
	C311.092468,617.982361 320.109131,611.518005 330.188446,606.667786 
	C332.215118,605.692505 333.966034,604.013062 335.624756,602.428650 
	C340.748016,597.534851 346.932526,595.266724 353.472321,592.573608 
	C364.066040,588.211304 375.166992,587.026062 385.859589,583.824707 
	C389.284882,582.799133 392.952148,582.581970 398.024811,582.316284 
	C412.545837,584.843933 425.563507,586.978760 438.551300,589.281677 
	C447.274109,590.828308 455.929596,592.768433 464.672089,594.180481 
	C466.826782,594.528625 469.356995,593.887329 471.451050,593.045410 
	C480.668762,589.339233 489.259094,582.716431 500.149994,587.571899 
	C500.786072,587.855469 501.940186,586.695129 502.891571,586.603149 
	C506.740936,586.230896 510.669220,586.365356 514.452942,585.677734 
	C529.204163,582.996948 542.638733,590.645996 557.009827,590.956360 
	C558.694214,590.992676 560.296997,592.946777 562.011414,593.875732 
	C564.821594,595.398438 567.715576,596.766113 570.530579,598.280273 
	C573.106873,599.666077 575.625427,601.159302 578.052979,603.411133 
	C574.565979,617.406677 575.639954,630.436890 578.627197,643.587891 
	C580.453064,651.625793 581.108887,659.931396 582.246643,668.122864 
	C583.110229,674.340454 583.301819,680.723999 584.865601,686.755432 
	C587.521851,696.999939 591.248291,706.963318 594.063721,717.171936 
	C595.263550,721.522278 596.413147,726.380737 595.685242,730.687073 
	C591.378113,756.169312 586.512695,781.557251 581.127319,806.738159 
	C559.222961,795.358826 537.898132,784.453796 516.868347,773.006775 
	C498.463104,762.988403 480.219635,752.642639 462.275452,741.826416 
	C457.057770,738.681274 453.202881,738.218872 447.779449,740.985962 
	C433.857452,748.089111 419.646851,754.636292 405.443726,761.171265 
	C402.204254,762.661804 398.529236,764.003113 395.053925,764.005005 
	C389.209106,764.008118 384.516846,766.087158 380.918091,770.215820 
	C375.944366,775.921875 370.978851,777.621887 362.839050,776.378967 
	C351.695587,774.677307 338.252045,772.023315 333.520813,788.249695 
	C333.371918,788.760437 332.561676,789.078308 331.430298,789.997498 
	C329.418213,789.997498 326.775726,790.043030 324.135223,789.989075 
	C316.141327,789.825684 316.141632,789.810608 314.254639,781.474121 
	C312.446136,773.484680 308.172699,770.059509 299.620972,769.674011 
	C298.007690,769.601318 296.402649,769.345032 295.113190,769.207520 
	C294.461243,768.235413 293.943909,767.732544 293.744629,767.125305 
	C291.764648,761.092590 287.363403,759.559448 281.405762,759.410034 
	C275.784515,759.269043 273.805115,762.363586 272.405823,766.781311 
	C272.208405,767.404602 271.945435,768.173218 271.459747,768.514343 
	C263.552124,774.068604 264.498474,782.941711 267.111298,789.271729 
	C271.176544,799.120667 268.698242,805.656311 261.911530,812.150085 
	C260.959534,813.061035 260.139526,814.161133 259.455475,815.292847 
	C253.888016,824.504150 246.915710,830.493958 235.273270,826.103516 
	C234.984314,825.994629 234.612839,826.103882 234.279877,826.112305 
	C224.056000,826.369446 215.954697,822.695007 209.484512,814.421875 
	C203.975403,807.377563 196.675949,802.134155 188.434662,798.421143 
	C184.709702,796.742859 180.924332,795.198608 177.211990,793.613037 
	C172.519943,799.598877 168.279968,807.069702 162.133957,812.301270 
	C155.217850,818.188354 149.011856,824.228149 144.768570,832.232910 
z"/>
<path data-name="Lomié" fill="#EB9DCD" opacity="1.000000" stroke="none" 
	d="
M1239.645264,1733.557251 
	C1234.578247,1733.174561 1230.743774,1734.429565 1228.680542,1739.028809 
	C1227.067627,1742.624146 1224.256226,1744.756104 1220.910889,1742.960815 
	C1216.845703,1740.779663 1213.865356,1742.514526 1210.623901,1743.986938 
	C1196.993530,1750.178345 1186.143188,1758.833008 1183.604614,1774.808350 
	C1183.359131,1776.353149 1182.796753,1778.142578 1181.758667,1779.216431 
	C1176.748047,1784.399780 1171.524048,1789.376953 1165.343384,1795.440063 
	C1163.224243,1790.477173 1161.441406,1786.302002 1160.085815,1783.127441 
	C1153.734741,1783.804932 1148.345459,1784.379761 1142.389771,1785.015015 
	C1137.274170,1789.354370 1141.791748,1793.178833 1144.592163,1797.013184 
	C1143.014160,1799.605225 1141.366699,1801.723755 1140.340942,1804.109619 
	C1137.589844,1810.507935 1138.444092,1811.803711 1146.342407,1813.421021 
	C1144.564209,1818.263550 1140.654175,1818.868652 1136.825806,1817.869019 
	C1128.075073,1815.583862 1123.939087,1809.274292 1123.961792,1800.169312 
	C1112.427246,1797.395142 1114.034668,1810.821167 1106.744141,1812.147339 
	C1107.082031,1820.992920 1114.174072,1823.017822 1119.556885,1826.764404 
	C1120.084595,1831.225830 1120.937744,1835.745850 1121.058594,1840.285400 
	C1121.161255,1844.139282 1112.203979,1852.080933 1108.033447,1852.275635 
	C1105.377075,1852.399658 1102.676758,1852.550415 1100.054443,1852.222534 
	C1095.337402,1851.632568 1091.435913,1852.933350 1088.549072,1856.659790 
	C1082.496826,1864.472290 1074.729980,1864.133545 1067.202148,1860.225830 
	C1059.793091,1856.379883 1054.105103,1857.110840 1048.505127,1863.144775 
	C1045.629517,1866.243286 1041.832886,1867.389771 1036.852661,1864.836304 
	C1036.695190,1862.347168 1036.526123,1859.439331 1036.324463,1856.533569 
	C1035.782471,1848.728882 1032.768921,1846.609619 1025.264526,1848.904053 
	C1021.525208,1850.047363 1017.855652,1851.418457 1015.222351,1852.320679 
	C1011.103088,1848.886108 1007.414978,1846.691406 1004.947571,1843.540894 
	C1001.515015,1839.157715 998.111633,1834.367065 996.307617,1829.189087 
	C993.965881,1822.467651 990.312256,1818.402954 981.271606,1817.801392 
	C973.791748,1825.051025 965.240784,1833.338867 956.275208,1842.028687 
	C952.927734,1839.145508 949.225952,1835.957275 945.269897,1832.549927 
	C942.928345,1833.454712 940.561951,1834.369141 939.442261,1834.801758 
	C935.569397,1832.579468 932.887085,1830.423462 929.827148,1829.426514 
	C925.027710,1827.862671 922.084167,1824.951538 922.939209,1820.072388 
	C923.501038,1816.866455 922.812439,1815.300537 920.490417,1813.367676 
	C918.530701,1811.736328 916.926514,1809.434937 915.770325,1807.126953 
	C912.235596,1800.070923 906.460632,1797.320435 898.966675,1795.179077 
	C890.774475,1792.838379 883.695129,1792.849609 875.950378,1797.755859 
	C877.210205,1800.993408 878.636475,1804.870117 880.222229,1808.680542 
	C882.245483,1813.542358 884.928772,1818.057495 882.222961,1823.826782 
	C881.393005,1825.596558 882.837769,1828.989746 884.133789,1831.088135 
	C887.200806,1836.054199 890.784790,1840.703003 894.194702,1845.454956 
	C898.050171,1850.827515 897.141113,1854.524536 890.889954,1856.946655 
	C884.569824,1859.395386 878.110291,1861.065918 871.923096,1855.089478 
	C872.720947,1848.764404 872.853638,1841.840942 874.670471,1835.391968 
	C875.863953,1831.155518 875.000671,1828.479248 872.615173,1825.479980 
	C870.963074,1823.402710 869.182861,1821.314331 868.068726,1818.944580 
	C865.423035,1813.317383 861.975586,1811.345703 855.382019,1812.892822 
	C850.810852,1813.965332 845.388245,1812.905029 840.734375,1811.506104 
	C838.366211,1810.794067 836.854858,1807.231812 835.318970,1805.392700 
	C836.247070,1803.754150 836.346680,1803.406616 836.574646,1803.201904 
	C839.382385,1800.680298 846.659729,1800.887695 843.461487,1794.858521 
	C842.141907,1792.370850 836.077087,1792.849121 833.165039,1790.657227 
	C828.234131,1786.945923 823.740601,1782.486572 819.714478,1777.784180 
	C815.287476,1772.613281 810.142517,1771.100464 803.343262,1772.699219 
	C798.336853,1776.939941 797.957825,1783.222534 798.361267,1790.257080 
	C793.156006,1789.191406 788.810059,1787.682007 784.430725,1787.578247 
	C779.997742,1787.473022 775.531799,1788.758301 770.686768,1788.221069 
	C767.859192,1790.370728 765.031555,1792.520508 761.683838,1795.065552 
	C759.203796,1791.774536 756.959595,1789.031616 754.980042,1786.109131 
	C752.605286,1782.603271 750.988525,1778.786621 745.343323,1779.083862 
	C743.644348,1779.173340 741.351624,1775.401123 740.029785,1773.011353 
	C738.860596,1770.897583 738.663147,1768.246338 737.606323,1764.174194 
	C736.156982,1767.034302 735.233276,1768.108032 735.083557,1769.280518 
	C734.388245,1774.724976 731.832642,1777.189697 725.963013,1777.574829 
	C718.358887,1778.073853 715.772949,1782.456299 717.799744,1790.291138 
	C718.650635,1793.580688 717.638306,1795.690186 715.106201,1796.909790 
	C711.569519,1798.613159 707.825928,1800.179199 704.002563,1800.863525 
	C702.274597,1801.172852 699.220459,1799.715210 698.388611,1798.180542 
	C696.798462,1795.247192 699.723633,1794.453979 701.931274,1793.612549 
	C702.354736,1793.451172 702.523254,1792.620850 702.807373,1792.098145 
	C697.737854,1786.110596 693.970520,1784.740234 683.069153,1784.917480 
	C689.526611,1792.678589 689.526611,1792.678589 683.602234,1801.232544 
	C682.937683,1801.232544 681.843323,1801.465576 681.703491,1801.198608 
	C677.407349,1792.997314 670.167297,1790.486938 661.538208,1790.651978 
	C659.609436,1790.688965 657.371155,1790.341187 655.808838,1791.172852 
	C646.079346,1796.351562 638.560608,1792.025269 631.641724,1785.704712 
	C625.652344,1780.233398 622.757446,1779.976196 616.358337,1784.704224 
	C612.473022,1787.574951 608.272644,1790.019165 603.389832,1793.189941 
	C600.813110,1784.316772 602.844360,1778.595703 610.301208,1774.797729 
	C607.265015,1770.274902 603.030579,1770.840942 599.390564,1769.955444 
	C590.772278,1767.858276 590.167114,1766.604126 591.546021,1757.792725 
	C591.832642,1755.961426 590.744568,1752.460693 589.649048,1752.173462 
	C587.438354,1751.593506 584.079834,1751.881836 582.477295,1753.280884 
	C579.814087,1755.606445 578.044800,1759.017090 576.120667,1762.108521 
	C574.551880,1764.629028 573.505249,1767.480957 571.880005,1769.958374 
	C567.646729,1776.410645 567.686584,1776.004395 560.013794,1773.506958 
	C556.891052,1772.490479 553.071106,1772.985352 549.699585,1773.561035 
	C546.929993,1774.033813 544.354492,1775.643188 540.804321,1777.118042 
	C539.669373,1773.555786 538.834534,1770.935669 537.898071,1767.996338 
	C532.620422,1765.556396 529.097778,1770.597412 524.578613,1771.881348 
	C518.058594,1770.993286 518.801392,1764.614746 517.016113,1761.017578 
	C515.552368,1760.581299 514.731812,1760.036987 514.317932,1760.257202 
	C503.429077,1766.049438 491.994568,1763.757324 480.595764,1762.798584 
	C476.035767,1762.415161 470.784210,1765.449341 467.559937,1759.690918 
	C465.187958,1755.454712 462.873688,1751.186157 459.827118,1745.647339 
	C454.897705,1746.918945 449.172058,1748.223999 443.553284,1749.889648 
	C436.749481,1751.906372 433.967133,1751.286133 430.036957,1745.772827 
	C428.513702,1743.635864 427.389557,1741.189453 426.261780,1738.799927 
	C421.758270,1729.257690 421.390106,1728.864624 410.949585,1724.172119 
	C404.843933,1726.596069 403.464050,1736.462769 394.656799,1735.297607 
	C393.522583,1727.397339 392.402710,1719.596924 391.216278,1711.333008 
	C388.768951,1710.369629 386.427948,1709.020508 383.922943,1708.556274 
	C379.443787,1707.726074 377.275940,1704.922485 375.368134,1701.096924 
	C373.509277,1697.369385 369.210327,1694.292725 368.700012,1690.559082 
	C366.741577,1676.229614 360.998413,1662.932251 361.255463,1647.783081 
	C362.273254,1587.805054 361.683960,1527.799683 362.615051,1466.798340 
	C393.311951,1463.253296 423.072540,1460.565063 452.860443,1458.224487 
	C475.050903,1456.480835 497.278748,1455.216919 519.485718,1453.678223 
	C528.762695,1453.035400 538.032593,1452.280029 547.298828,1451.494507 
	C568.137390,1449.728027 588.941956,1447.338867 609.815002,1446.256958 
	C636.729492,1444.861938 662.960205,1439.702515 689.096313,1433.746704 
	C692.884766,1432.883545 696.189331,1432.499756 699.460327,1434.973267 
	C701.041687,1436.169067 702.808105,1437.176514 704.608704,1438.016479 
	C714.998474,1442.863770 722.244141,1440.278198 726.828552,1429.951538 
	C729.340149,1424.293945 732.560425,1420.185547 738.922791,1417.739014 
	C747.889465,1414.291138 753.288330,1398.674438 749.750000,1389.563110 
	C746.518982,1381.243164 743.035461,1373.021362 739.799744,1364.703247 
	C739.245850,1363.279175 738.889709,1361.455566 739.275085,1360.043945 
	C741.088867,1353.400024 743.216553,1346.848267 748.821777,1341.688843 
	C759.990356,1351.087891 772.973633,1351.013794 786.402771,1350.688477 
	C789.709473,1353.756958 793.184143,1357.321289 797.029175,1360.427368 
	C799.502747,1362.425415 802.351318,1364.243408 805.332397,1365.265259 
	C810.326965,1366.977173 815.539612,1368.086792 820.706726,1369.243408 
	C822.582336,1369.663086 824.656250,1369.860962 826.527039,1369.527710 
	C836.266113,1367.792969 836.688721,1367.725220 840.579102,1375.511963 
	C842.451050,1379.258667 844.598389,1382.158447 848.628296,1383.789673 
	C852.825867,1385.488647 856.473083,1388.689941 861.592163,1386.084473 
	C863.076599,1385.328979 865.482361,1386.073486 867.382141,1386.501343 
	C873.592590,1387.900024 879.686951,1388.467529 885.767395,1385.786743 
	C887.525757,1385.011475 890.542419,1383.939575 891.362488,1384.715454 
	C895.601746,1388.726685 900.050659,1385.353760 905.032593,1385.826660 
	C915.899109,1386.784180 926.049011,1387.663452 936.202087,1388.505127 
	C943.764587,1389.132202 951.037354,1390.621582 958.314270,1393.093750 
	C962.729004,1394.593628 969.560852,1395.161987 972.765137,1392.759277 
	C979.505981,1387.704468 987.530579,1387.575684 994.093811,1384.939087 
	C995.798462,1379.186890 996.258789,1373.519165 998.958252,1369.275879 
	C1007.972412,1355.106812 1022.643738,1346.269653 1033.794800,1334.031738 
	C1034.970581,1332.741455 1037.620361,1332.927002 1039.280396,1331.922241 
	C1046.353516,1327.640991 1055.414429,1324.664307 1059.842407,1318.434326 
	C1067.386841,1307.819458 1077.797607,1303.951294 1088.921997,1301.007812 
	C1094.856323,1299.437378 1099.492676,1298.053223 1101.232910,1291.518188 
	C1101.658936,1289.918579 1103.625488,1288.113892 1105.269287,1287.571289 
	C1109.891968,1286.045166 1111.803589,1282.341309 1114.126099,1278.630981 
	C1116.925171,1274.159790 1119.979492,1269.758057 1123.500854,1265.846191 
	C1134.643188,1253.468384 1146.099731,1241.374146 1157.348755,1229.091675 
	C1167.130371,1218.411377 1171.834351,1206.477905 1166.067017,1192.071167 
	C1165.750610,1191.280640 1166.241089,1190.166992 1166.278198,1189.855957 
	C1180.369019,1177.461670 1196.707153,1179.470947 1212.106079,1183.150879 
	C1219.646362,1184.952759 1226.871338,1186.179199 1234.408691,1186.104248 
	C1284.038696,1185.610596 1333.666870,1184.921631 1383.296875,1184.437256 
	C1408.620605,1184.190186 1433.947998,1184.080322 1459.272583,1184.175049 
	C1575.541992,1184.610229 1691.812988,1184.898560 1808.079102,1185.796387 
	C1839.014648,1186.035278 1869.933350,1188.293335 1900.863037,1189.540894 
	C1936.120483,1190.963257 1971.381104,1192.309204 2006.641479,1193.656494 
	C2030.591797,1194.571655 2054.544189,1195.431885 2078.360352,1196.311768 
	C2080.377930,1198.634521 2082.261719,1200.803467 2084.067627,1202.882568 
	C2086.682617,1201.054443 2089.150146,1199.857178 2090.918701,1197.995605 
	C2096.659424,1191.952515 2104.111328,1194.977905 2110.765625,1193.811157 
	C2115.122070,1193.047119 2117.236572,1195.917480 2120.077881,1198.246216 
	C2121.854492,1199.702637 2124.817139,1199.958130 2127.305664,1200.239502 
	C2130.570801,1200.608765 2133.893555,1200.472412 2137.191406,1200.553467 
	C2137.896484,1203.856812 2139.718506,1207.400146 2139.071289,1210.412964 
	C2137.768799,1216.473877 2140.167480,1220.286255 2144.240234,1224.022095 
	C2145.277100,1224.973511 2145.339844,1226.987183 2145.575684,1229.805786 
	C2144.036377,1232.050415 2142.771729,1233.002075 2141.130859,1234.236938 
	C2139.094971,1231.302002 2137.415527,1228.881104 2134.641113,1224.881958 
	C2134.641113,1229.790649 2134.641113,1232.649414 2134.641113,1234.871460 
	C2129.700439,1240.111938 2125.680664,1235.794556 2121.040039,1234.155273 
	C2119.262207,1237.668213 2117.637451,1240.845093 2116.042969,1244.037231 
	C2114.155273,1247.815308 2113.106445,1253.915894 2110.255127,1254.918823 
	C2104.017334,1257.113037 2101.306396,1266.779297 2092.510986,1263.301514 
	C2091.807129,1263.023193 2089.139648,1265.174683 2089.040527,1266.338257 
	C2088.584717,1271.692505 2083.884521,1271.798950 2080.717529,1273.819458 
	C2080.319824,1274.073364 2080.170898,1274.717041 2079.906006,1275.181763 
	C2080.741699,1275.758301 2081.517578,1276.293579 2082.770996,1277.158325 
	C2077.183594,1278.409302 2071.924072,1279.586914 2066.076416,1280.896118 
	C2067.391846,1289.398315 2071.864990,1297.295532 2066.429443,1305.765015 
	C2059.463135,1304.404541 2058.746338,1312.133789 2054.321777,1315.165161 
	C2052.000244,1316.755737 2049.503174,1319.908325 2047.393433,1319.666382 
	C2039.382568,1318.747437 2035.615479,1322.252075 2034.917480,1330.541382 
	C2029.487427,1329.164307 2024.759155,1327.965210 2019.164673,1326.546387 
	C2017.974365,1328.876587 2016.727783,1331.316895 2015.406494,1333.903442 
	C2018.764038,1336.275635 2021.338501,1338.094482 2023.208618,1339.415649 
	C2021.451660,1352.356812 2011.419922,1356.169800 2002.573364,1360.102295 
	C2003.153076,1363.824951 2004.074097,1366.467651 2003.766724,1368.958740 
	C2003.573853,1370.521240 2001.534546,1373.071655 2000.324829,1373.071045 
	C1996.285400,1373.069092 1992.191528,1372.357422 1988.224487,1371.453003 
	C1985.036865,1370.726440 1982.048462,1368.542847 1978.893188,1368.360107 
	C1965.405029,1367.578857 1952.980835,1361.328369 1939.242188,1361.275391 
	C1934.942627,1361.258789 1930.180908,1357.309326 1926.639648,1354.060303 
	C1925.460205,1352.978271 1927.428833,1348.464844 1928.065063,1344.926758 
	C1925.486816,1344.623047 1922.625244,1344.914917 1920.411255,1343.854614 
	C1918.023438,1342.710815 1916.509521,1339.318970 1914.133911,1338.671753 
	C1910.448853,1337.667603 1907.592529,1336.499390 1905.031006,1333.391724 
	C1903.890625,1332.008301 1900.118408,1332.135132 1897.753296,1332.617920 
	C1895.665161,1333.044189 1893.872559,1334.917725 1891.838013,1336.223877 
	C1881.581909,1330.240601 1871.016846,1327.971436 1860.128784,1330.985107 
	C1857.551147,1336.949951 1855.242798,1342.291504 1853.272583,1346.850464 
	C1850.280396,1347.112061 1847.719849,1346.639160 1845.979004,1347.620361 
	C1841.041626,1350.403687 1838.117554,1350.921875 1835.305786,1344.438477 
	C1832.945068,1338.994385 1828.109009,1334.623535 1824.233887,1329.602905 
	C1820.151489,1331.676147 1816.516113,1333.522461 1812.556519,1335.533203 
	C1815.052734,1339.071289 1818.181152,1339.206177 1823.395386,1337.717896 
	C1821.197021,1341.213257 1820.263428,1344.652710 1818.182251,1345.618286 
	C1813.143433,1347.955811 1809.465942,1354.473633 1802.426880,1350.899658 
	C1801.577759,1352.887451 1800.994019,1354.433228 1800.265747,1355.907471 
	C1799.585693,1357.283936 1798.751953,1358.584473 1798.093628,1359.730835 
	C1787.713745,1357.612793 1787.801392,1357.735596 1778.593506,1364.301147 
	C1776.656250,1365.682617 1773.823120,1366.346313 1771.388184,1366.383301 
	C1765.714233,1366.469360 1760.498535,1364.894531 1758.020020,1360.810913 
	C1749.094360,1364.661011 1741.277710,1369.322144 1732.825684,1371.401733 
	C1716.760254,1375.354858 1705.239746,1383.712524 1699.053101,1399.286865 
	C1697.483032,1403.239258 1695.157227,1407.010376 1692.596802,1410.428955 
	C1683.436890,1422.658325 1674.239868,1434.873413 1664.607666,1446.728882 
	C1660.718628,1451.515503 1656.348389,1456.794922 1651.002197,1459.318848 
	C1641.607422,1463.754395 1634.600342,1470.519653 1627.764526,1477.795288 
	C1625.034180,1480.701416 1622.806885,1484.152100 1619.807007,1486.719727 
	C1610.132935,1494.999146 1604.747681,1505.852783 1599.796753,1517.262939 
	C1594.379761,1529.747070 1587.800415,1541.721436 1582.136841,1554.105225 
	C1574.706421,1570.351562 1559.424927,1580.917969 1551.685425,1597.052490 
	C1549.430420,1601.753418 1544.457031,1605.562500 1537.479370,1603.743896 
	C1525.942627,1600.736572 1514.257202,1598.286865 1502.603149,1595.745239 
	C1485.812744,1592.083862 1469.004395,1587.826294 1452.153687,1595.613892 
	C1450.988892,1596.152344 1449.545654,1596.259155 1448.231201,1596.261963 
	C1446.340332,1596.266113 1444.316162,1596.372925 1442.579590,1595.770874 
	C1433.308228,1592.556396 1423.228516,1595.341187 1418.435059,1603.560181 
	C1413.948608,1611.252441 1410.247314,1619.417725 1406.482178,1627.505859 
	C1405.401611,1629.826904 1406.112793,1633.319702 1404.598999,1635.040649 
	C1399.194092,1641.184937 1393.185669,1646.798462 1386.804565,1653.217407 
	C1386.852295,1653.716919 1387.198364,1655.001343 1387.057373,1656.229858 
	C1385.890137,1666.403442 1386.716187,1676.230713 1391.789673,1685.381348 
	C1388.238525,1688.708496 1384.642700,1691.989502 1381.146240,1695.373169 
	C1375.125854,1701.199097 1368.923828,1706.422119 1359.713989,1706.033569 
	C1357.168091,1705.926270 1354.573853,1707.098145 1351.993652,1707.644775 
	C1346.965820,1708.709961 1342.147217,1708.920166 1338.047119,1704.907837 
	C1336.905518,1703.790771 1335.207764,1702.344360 1333.883301,1702.455444 
	C1324.274658,1703.262207 1315.973511,1699.117798 1307.214600,1696.342041 
	C1302.089966,1694.717896 1297.430054,1696.452393 1293.132446,1701.050781 
	C1288.952881,1705.523315 1283.285522,1708.527222 1282.867432,1716.301514 
	C1279.946167,1715.273926 1277.833496,1714.652710 1275.818604,1713.800293 
	C1268.525879,1710.715210 1265.971680,1712.005371 1263.965088,1719.758545 
	C1263.491577,1721.587769 1262.678345,1723.328735 1261.741943,1725.868286 
	C1251.736450,1720.545166 1246.907959,1729.580566 1239.645264,1733.557251 
z"/>
<path data-name="Dja" fill="#698C54" opacity="1.000000" stroke="none" 
	d="
M2137.603516,1199.930420 
	C2133.893555,1200.472412 2130.570801,1200.608765 2127.305664,1200.239502 
	C2124.817139,1199.958130 2121.854492,1199.702637 2120.077881,1198.246216 
	C2117.236572,1195.917480 2115.122070,1193.047119 2110.765625,1193.811157 
	C2104.111328,1194.977905 2096.659424,1191.952515 2090.918701,1197.995605 
	C2089.150146,1199.857178 2086.682617,1201.054443 2084.067627,1202.882568 
	C2082.261719,1200.803467 2080.377930,1198.634521 2078.360352,1196.311768 
	C2054.544189,1195.431885 2030.591797,1194.571655 2006.641479,1193.656494 
	C1971.381104,1192.309204 1936.120483,1190.963257 1900.863037,1189.540894 
	C1869.933350,1188.293335 1839.014648,1186.035278 1808.079102,1185.796387 
	C1691.812988,1184.898560 1575.541992,1184.610229 1459.272583,1184.175049 
	C1433.947998,1184.080322 1408.620605,1184.190186 1383.296875,1184.437256 
	C1333.666870,1184.921631 1284.038696,1185.610596 1234.408691,1186.104248 
	C1226.871338,1186.179199 1219.646362,1184.952759 1212.106079,1183.150879 
	C1196.707153,1179.470947 1180.369019,1177.461670 1166.278198,1189.855957 
	C1166.241089,1190.166992 1165.750610,1191.280640 1166.067017,1192.071167 
	C1171.834351,1206.477905 1167.130371,1218.411377 1157.348755,1229.091675 
	C1146.099731,1241.374146 1134.643188,1253.468384 1123.500854,1265.846191 
	C1119.979492,1269.758057 1116.925171,1274.159790 1114.126099,1278.630981 
	C1111.803589,1282.341309 1109.891968,1286.045166 1105.269287,1287.571289 
	C1103.625488,1288.113892 1101.658936,1289.918579 1101.232910,1291.518188 
	C1099.492676,1298.053223 1094.856323,1299.437378 1088.921997,1301.007812 
	C1077.797607,1303.951294 1067.386841,1307.819458 1059.842407,1318.434326 
	C1055.414429,1324.664307 1046.353516,1327.640991 1039.280396,1331.922241 
	C1037.620361,1332.927002 1034.970581,1332.741455 1033.794800,1334.031738 
	C1022.643738,1346.269653 1007.972412,1355.106812 998.958252,1369.275879 
	C996.258789,1373.519165 995.798462,1379.186890 994.093811,1384.939087 
	C987.530579,1387.575684 979.505981,1387.704468 972.765137,1392.759277 
	C969.560852,1395.161987 962.729004,1394.593628 958.314270,1393.093750 
	C951.037354,1390.621582 943.764587,1389.132202 936.202087,1388.505127 
	C926.049011,1387.663452 915.899109,1386.784180 904.960022,1385.104248 
	C905.692688,1372.087646 916.903076,1365.332520 920.918396,1354.337402 
	C923.387695,1347.575806 928.237122,1341.683350 932.668457,1334.319458 
	C927.449951,1332.145142 923.189209,1330.577393 919.124207,1328.605957 
	C916.226196,1327.200439 912.874939,1325.817627 910.989014,1323.427856 
	C907.136353,1318.546021 908.587341,1310.069580 900.505249,1307.808472 
	C900.105347,1307.696533 900.354370,1305.871948 899.975342,1304.983765 
	C896.627319,1297.137573 898.707520,1290.181763 904.383118,1283.274780 
	C896.433899,1277.095947 892.573792,1269.434814 893.816711,1259.612915 
	C893.994507,1258.207764 892.818359,1256.555054 892.067383,1255.122681 
	C889.628357,1250.470337 886.986755,1245.922241 884.624512,1241.232422 
	C881.007629,1234.051636 880.495728,1224.969604 871.942871,1220.834961 
	C871.412354,1220.578613 870.983154,1219.859009 870.759216,1219.260498 
	C867.265808,1209.926270 861.119690,1206.222778 851.354004,1209.957764 
	C850.781067,1210.177002 849.943604,1210.147339 849.384338,1209.892822 
	C841.049316,1206.097900 832.445679,1208.780640 824.075928,1209.287842 
	C816.668762,1209.736572 808.881042,1210.732300 804.270203,1218.460449 
	C801.969910,1222.315918 796.946411,1223.964844 793.849609,1221.191040 
	C787.402222,1215.416016 782.043091,1208.422729 776.295044,1201.878662 
	C775.923035,1201.454956 776.047607,1200.594971 776.094849,1199.229858 
	C777.515320,1193.618896 779.346802,1189.275269 783.966797,1186.251831 
	C785.893555,1184.990845 787.010620,1182.085205 787.893372,1179.704102 
	C792.886414,1166.234863 798.675171,1153.333130 810.718079,1144.440918 
	C814.713318,1141.490845 818.647339,1138.457520 822.655457,1135.525269 
	C828.146912,1131.507935 831.851257,1126.456299 834.563293,1120.016968 
	C838.773743,1110.019287 843.174316,1099.733398 849.624634,1091.175415 
	C854.017944,1085.346436 854.804382,1081.477417 851.777771,1075.281006 
	C848.249023,1068.056641 850.375916,1061.629761 856.846619,1056.943359 
	C858.985046,1055.394653 861.963379,1054.742432 863.617859,1052.856079 
	C865.624451,1050.568115 868.398499,1046.915894 867.782593,1044.706055 
	C864.536011,1033.056885 870.423401,1026.710205 879.288208,1021.136047 
	C885.400269,1017.292847 886.360352,997.893982 881.041016,992.857605 
	C880.103088,991.969482 878.825989,991.407471 877.645935,990.813110 
	C873.848206,988.900391 870.038452,987.009827 866.203186,985.173828 
	C862.699219,983.496521 860.039124,981.409180 860.329285,976.912048 
	C860.662842,971.742859 857.778809,968.151855 854.214294,964.672607 
	C856.740662,961.184631 859.254639,958.435059 860.995667,955.261536 
	C862.531311,952.462280 863.943726,949.234802 864.133911,946.118469 
	C865.130005,929.800049 867.214417,927.656799 883.105896,928.052063 
	C883.771057,928.068604 884.438110,928.073975 885.100586,928.128845 
	C898.141541,929.207458 910.137390,926.606934 920.954956,918.800171 
	C925.560486,915.476440 930.875061,913.913025 936.876221,913.979187 
	C941.389893,914.028870 946.060791,912.805176 950.416931,911.393005 
	C958.943604,908.629028 967.253601,905.204407 975.735413,902.292542 
	C993.040344,896.351562 1009.961487,889.770691 1025.468994,879.709229 
	C1058.076660,858.552856 1090.983276,837.857300 1123.732544,816.918518 
	C1125.943359,815.505066 1128.588623,814.050354 1129.799561,811.915771 
	C1135.681763,801.547180 1141.559448,791.132629 1146.561401,780.328186 
	C1148.735840,775.631409 1151.048584,772.775940 1156.211548,771.649780 
	C1159.188110,771.000549 1162.183472,769.069153 1164.491699,766.968872 
	C1172.890381,759.326965 1181.608521,752.243286 1192.382812,748.197693 
	C1201.395264,744.813782 1210.460693,741.570557 1219.488525,738.227234 
	C1222.974365,736.936218 1226.923340,735.458862 1227.186035,731.288635 
	C1227.669434,723.613892 1233.102173,719.771973 1238.061157,715.407104 
	C1244.003540,714.962280 1249.950562,714.101990 1255.887207,714.167847 
	C1265.346802,714.272644 1271.987061,719.244507 1276.378296,727.485962 
	C1277.936401,730.410522 1279.218872,733.767517 1281.557983,735.912048 
	C1284.008911,738.159302 1287.813232,740.821350 1290.609497,740.417480 
	C1296.941406,739.502869 1302.425903,741.017761 1308.052734,743.141052 
	C1312.787720,744.927795 1317.095581,745.696350 1322.307739,743.030334 
	C1326.137817,741.071228 1331.393921,741.840881 1336.023193,741.518127 
	C1341.697388,741.122620 1347.069214,740.601501 1351.112793,735.542603 
	C1355.484375,730.073364 1362.046753,730.576904 1367.768799,732.044250 
	C1374.802979,733.847839 1381.238892,737.133423 1386.424438,742.898193 
	C1391.170410,748.174438 1397.666016,751.847107 1400.697021,758.746948 
	C1401.006470,759.451843 1402.337524,759.783630 1403.253540,760.135010 
	C1414.538940,764.464050 1420.433838,774.130859 1425.526001,783.990295 
	C1427.581299,787.969971 1429.421753,789.434937 1433.557129,789.598755 
	C1437.155518,789.741272 1440.701660,790.895569 1444.302734,791.346924 
	C1451.508911,792.250122 1458.753662,793.734192 1465.951538,793.575623 
	C1473.857300,793.401367 1479.582642,795.436768 1482.642700,803.085693 
	C1482.986572,803.945435 1483.902710,804.576050 1485.044922,805.869202 
	C1491.727539,801.681763 1496.403076,806.716125 1501.580322,809.985291 
	C1503.746338,811.352905 1506.040771,813.969360 1508.101807,813.806091 
	C1518.390137,812.991089 1523.491333,820.318115 1527.279785,827.226868 
	C1530.110718,832.389221 1533.826050,836.099731 1538.373779,837.583191 
	C1544.736816,839.658997 1545.834839,843.878296 1545.631470,848.940613 
	C1545.160522,860.653992 1547.773193,871.692688 1551.005005,882.834290 
	C1552.816162,889.078003 1552.332642,895.725403 1556.253662,901.726562 
	C1560.227905,907.809326 1567.236694,908.985168 1572.010498,913.523987 
	C1572.582397,914.067627 1574.448608,913.281250 1575.707275,913.065857 
	C1582.872559,911.839966 1587.307495,914.534607 1589.261841,921.640320 
	C1590.868530,927.481934 1595.241455,932.273865 1593.885620,939.381042 
	C1593.104248,943.475647 1602.593262,949.736633 1607.868530,950.044739 
	C1610.193848,950.180420 1612.583740,949.818909 1614.847534,950.224304 
	C1617.025024,950.614136 1619.077515,951.702515 1621.651001,952.656860 
	C1623.245361,951.268982 1625.266479,950.004700 1626.609985,948.227905 
	C1628.806274,945.323181 1631.478394,944.347839 1635.050415,943.875305 
	C1675.209229,938.562622 1715.349976,933.109009 1755.475586,927.549866 
	C1801.189697,921.216553 1846.870239,914.640808 1892.590698,908.353516 
	C1929.102295,903.332520 1965.656616,898.624207 2002.181152,893.695618 
	C2014.026001,892.097229 2025.831299,890.205688 2037.666748,888.533813 
	C2039.936035,888.213196 2042.261963,888.292725 2044.546631,888.188354 
	C2049.760498,895.621887 2041.445190,902.454651 2044.306885,909.668762 
	C2049.411865,913.933228 2056.177734,917.437866 2059.533203,923.000122 
	C2062.802734,928.419434 2066.969971,934.756897 2064.793457,942.393616 
	C2063.917725,945.466614 2064.180908,948.949158 2064.368164,952.220032 
	C2064.649170,957.127991 2065.971924,962.056213 2065.654785,966.897400 
	C2065.282227,972.583191 2067.427002,976.325256 2071.575928,979.760193 
	C2076.179688,983.571777 2080.730469,987.548462 2084.712158,991.984741 
	C2089.855957,997.716064 2094.041504,1004.192810 2094.219971,1012.309509 
	C2094.341064,1017.811584 2097.166992,1021.485168 2101.305176,1024.670898 
	C2103.053955,1026.016968 2104.438721,1027.940674 2105.695801,1029.799805 
	C2109.119385,1034.861938 2111.006348,1040.020630 2108.294678,1046.333496 
	C2107.214355,1048.848389 2108.245605,1052.229126 2108.125977,1055.208252 
	C2107.993652,1058.514160 2108.799561,1062.604492 2107.177734,1064.966553 
	C2101.885986,1072.672485 2104.141113,1081.562134 2102.135254,1089.706543 
	C2101.982178,1090.328125 2101.959961,1091.057007 2102.123779,1091.670288 
	C2104.208008,1099.484009 2106.337646,1107.285767 2108.690674,1115.957275 
	C2118.661377,1115.957275 2128.402832,1115.957275 2138.144287,1115.957275 
	C2138.286377,1116.579956 2138.428223,1117.202515 2138.570312,1117.825195 
	C2134.804932,1119.579712 2131.030518,1121.314331 2127.276611,1123.093140 
	C2121.270752,1125.938965 2119.273438,1128.888428 2123.169922,1133.666626 
	C2130.013428,1142.058594 2131.980957,1150.808105 2129.975586,1160.978394 
	C2135.082031,1167.962280 2133.150391,1176.261353 2134.408447,1183.975342 
	C2134.869141,1186.800903 2136.291504,1189.639648 2137.894531,1192.062744 
	C2139.617432,1194.666992 2139.944580,1196.853394 2137.603516,1199.930420 
z"/>
<path data-name="Messok" fill="#93F5F9" opacity="1.000000" stroke="none" 
	d="
M1392.389038,1685.803955 
	C1386.716187,1676.230713 1385.890137,1666.403442 1387.057373,1656.229858 
	C1387.198364,1655.001343 1386.852295,1653.716919 1386.804565,1653.217407 
	C1393.185669,1646.798462 1399.194092,1641.184937 1404.598999,1635.040649 
	C1406.112793,1633.319702 1405.401611,1629.826904 1406.482178,1627.505859 
	C1410.247314,1619.417725 1413.948608,1611.252441 1418.435059,1603.560181 
	C1423.228516,1595.341187 1433.308228,1592.556396 1442.579590,1595.770874 
	C1444.316162,1596.372925 1446.340332,1596.266113 1448.231201,1596.261963 
	C1449.545654,1596.259155 1450.988892,1596.152344 1452.153687,1595.613892 
	C1469.004395,1587.826294 1485.812744,1592.083862 1502.603149,1595.745239 
	C1514.257202,1598.286865 1525.942627,1600.736572 1537.479370,1603.743896 
	C1544.457031,1605.562500 1549.430420,1601.753418 1551.685425,1597.052490 
	C1559.424927,1580.917969 1574.706421,1570.351562 1582.136841,1554.105225 
	C1587.800415,1541.721436 1594.379761,1529.747070 1599.796753,1517.262939 
	C1604.747681,1505.852783 1610.132935,1494.999146 1619.807007,1486.719727 
	C1622.806885,1484.152100 1625.034180,1480.701416 1627.764526,1477.795288 
	C1634.600342,1470.519653 1641.607422,1463.754395 1651.002197,1459.318848 
	C1656.348389,1456.794922 1660.718628,1451.515503 1664.607666,1446.728882 
	C1674.239868,1434.873413 1683.436890,1422.658325 1692.596802,1410.428955 
	C1695.157227,1407.010376 1697.483032,1403.239258 1699.053101,1399.286865 
	C1705.239746,1383.712524 1716.760254,1375.354858 1732.825684,1371.401733 
	C1741.277710,1369.322144 1749.094360,1364.661011 1758.020020,1360.810913 
	C1760.498535,1364.894531 1765.714233,1366.469360 1771.388184,1366.383301 
	C1773.823120,1366.346313 1776.656250,1365.682617 1778.593506,1364.301147 
	C1787.801392,1357.735596 1787.713745,1357.612793 1798.093628,1359.730835 
	C1798.751953,1358.584473 1799.585693,1357.283936 1800.265747,1355.907471 
	C1800.994019,1354.433228 1801.577759,1352.887451 1802.426880,1350.899658 
	C1809.465942,1354.473633 1813.143433,1347.955811 1818.182251,1345.618286 
	C1820.263428,1344.652710 1821.197021,1341.213257 1823.395386,1337.717896 
	C1818.181152,1339.206177 1815.052734,1339.071289 1812.556519,1335.533203 
	C1816.516113,1333.522461 1820.151489,1331.676147 1824.233887,1329.602905 
	C1828.109009,1334.623535 1832.945068,1338.994385 1835.305786,1344.438477 
	C1838.117554,1350.921875 1841.041626,1350.403687 1845.979004,1347.620361 
	C1847.719849,1346.639160 1850.280396,1347.112061 1853.272583,1346.850464 
	C1855.242798,1342.291504 1857.551147,1336.949951 1860.128784,1330.985107 
	C1871.016846,1327.971436 1881.581909,1330.240601 1891.838013,1336.223877 
	C1893.872559,1334.917725 1895.665161,1333.044189 1897.753296,1332.617920 
	C1900.118408,1332.135132 1903.890625,1332.008301 1905.031006,1333.391724 
	C1907.592529,1336.499390 1910.448853,1337.667603 1914.133911,1338.671753 
	C1916.509521,1339.318970 1918.023438,1342.710815 1920.411255,1343.854614 
	C1922.625244,1344.914917 1925.486816,1344.623047 1928.065063,1344.926758 
	C1927.428833,1348.464844 1925.460205,1352.978271 1926.639648,1354.060303 
	C1930.180908,1357.309326 1934.942627,1361.258789 1939.242188,1361.275391 
	C1952.980835,1361.328369 1965.405029,1367.578857 1978.893188,1368.360107 
	C1982.048462,1368.542847 1985.036865,1370.726440 1988.224487,1371.453003 
	C1992.191528,1372.357422 1996.285400,1373.069092 2000.324829,1373.071045 
	C2001.534546,1373.071655 2003.573853,1370.521240 2003.766724,1368.958740 
	C2004.074097,1366.467651 2003.153076,1363.824951 2002.573364,1360.102295 
	C2011.419922,1356.169800 2021.451660,1352.356812 2023.208618,1339.415649 
	C2021.338501,1338.094482 2018.764038,1336.275635 2015.406494,1333.903442 
	C2016.727783,1331.316895 2017.974365,1328.876587 2019.164673,1326.546387 
	C2024.759155,1327.965210 2029.487427,1329.164307 2034.917480,1330.541382 
	C2035.615479,1322.252075 2039.382568,1318.747437 2047.393433,1319.666382 
	C2049.503174,1319.908325 2052.000244,1316.755737 2054.321777,1315.165161 
	C2058.746338,1312.133789 2059.463135,1304.404541 2066.429443,1305.765015 
	C2071.864990,1297.295532 2067.391846,1289.398315 2066.076416,1280.896118 
	C2071.924072,1279.586914 2077.183594,1278.409302 2082.770996,1277.158325 
	C2081.517578,1276.293579 2080.741699,1275.758301 2079.906006,1275.181763 
	C2080.170898,1274.717041 2080.319824,1274.073364 2080.717529,1273.819458 
	C2083.884521,1271.798950 2088.584717,1271.692505 2089.040527,1266.338257 
	C2089.139648,1265.174683 2091.807129,1263.023193 2092.510986,1263.301514 
	C2101.306396,1266.779297 2104.017334,1257.113037 2110.255127,1254.918823 
	C2113.106445,1253.915894 2114.155273,1247.815308 2116.042969,1244.037231 
	C2117.637451,1240.845093 2119.262207,1237.668213 2121.040039,1234.155273 
	C2125.680664,1235.794556 2129.700439,1240.111938 2134.641113,1234.871460 
	C2134.641113,1232.649414 2134.641113,1229.790649 2134.641113,1224.881958 
	C2137.415527,1228.881104 2139.094971,1231.302002 2141.130859,1234.236938 
	C2142.771729,1233.002075 2144.036377,1232.050415 2145.644531,1230.524292 
	C2149.921875,1232.937866 2148.212646,1236.302124 2146.655762,1239.676636 
	C2132.339600,1270.712524 2117.930664,1301.706177 2103.750488,1332.803955 
	C2093.154053,1356.042236 2082.891357,1379.432373 2072.400391,1402.719116 
	C2069.673828,1408.770752 2067.260742,1415.098145 2063.599121,1420.558228 
	C2059.440430,1426.760010 2053.749268,1431.912354 2049.265869,1437.924805 
	C2044.870972,1443.818237 2040.092163,1449.691406 2041.504761,1458.087158 
	C2042.213867,1462.302124 2039.424927,1465.113525 2035.485718,1465.889160 
	C2030.429321,1466.884766 2029.982910,1469.210571 2031.479614,1473.692139 
	C2032.348511,1476.294067 2032.554688,1480.249390 2031.151123,1482.271118 
	C2026.456299,1489.034058 2028.081787,1496.357422 2030.364380,1502.416992 
	C2033.872314,1511.728638 2031.491211,1520.762817 2031.777344,1529.864868 
	C2031.960693,1535.695068 2030.568970,1541.601929 2029.609985,1547.429443 
	C2029.140503,1550.282471 2028.880127,1553.885010 2027.067261,1555.656494 
	C2023.006226,1559.624634 2018.401733,1563.403320 2013.348633,1565.907349 
	C2004.752808,1570.166992 2000.662598,1576.965820 2002.728760,1586.145386 
	C2003.518066,1589.652222 2004.361572,1593.147705 2005.229980,1596.635986 
	C2006.548462,1601.932007 2005.884277,1606.462769 2000.150635,1608.938110 
	C2002.370728,1618.098022 2007.182861,1624.541626 2015.024658,1629.289673 
	C2020.464111,1632.583130 2025.036255,1636.564819 2028.402344,1642.946167 
	C2031.721069,1649.238159 2037.478027,1655.478638 2045.797729,1657.211426 
	C2048.031006,1657.676636 2050.427734,1658.415283 2052.220703,1659.742432 
	C2058.066406,1664.068970 2063.600098,1668.815430 2062.208984,1677.280151 
	C2061.331299,1682.619263 2063.807861,1686.101074 2069.503662,1688.949829 
	C2063.088623,1691.684814 2059.270264,1697.704834 2052.029297,1694.285400 
	C2051.201416,1693.894653 2049.622314,1695.108398 2048.386719,1695.564697 
	C2041.878418,1697.967651 2035.470093,1700.722534 2028.817261,1702.619385 
	C2025.409058,1703.591309 2021.559570,1702.968628 2017.915039,1703.169067 
	C2009.529663,1703.630249 2008.425049,1704.310059 2006.684814,1712.567383 
	C2006.017090,1715.735474 2004.414795,1717.361572 2002.248657,1719.567749 
	C1993.895142,1728.075073 1985.952026,1737.021362 1978.371460,1746.228516 
	C1976.238770,1748.818970 1975.867798,1752.859619 1974.254272,1757.478760 
	C1972.144043,1757.897339 1969.024292,1758.739868 1965.849854,1759.101929 
	C1957.883179,1760.010254 1956.094727,1761.222046 1953.983154,1768.519897 
	C1953.065308,1771.691895 1952.542725,1774.986328 1951.981689,1778.249512 
	C1951.767212,1779.496826 1951.947021,1780.811890 1951.947021,1782.479736 
	C1955.186523,1783.721191 1958.188843,1784.871826 1961.323975,1786.073364 
	C1960.610718,1792.317383 1950.718750,1793.767456 1953.791870,1800.596924 
	C1957.744263,1804.327759 1961.204956,1807.594482 1964.665771,1810.861328 
	C1964.377197,1811.209229 1964.088745,1811.557129 1963.800171,1811.905029 
	C1964.107178,1812.026367 1964.416260,1812.258545 1964.720703,1812.252441 
	C1968.948608,1812.168701 1974.129150,1810.516968 1977.131958,1812.381226 
	C1980.058105,1814.197876 1980.359863,1819.852173 1982.561768,1823.350830 
	C1984.247681,1826.029541 1986.738403,1828.671631 1989.505859,1830.101318 
	C1995.158325,1833.021484 1998.656494,1837.286255 2000.417725,1844.072510 
	C1987.584106,1856.674072 1972.856079,1853.026123 1958.296753,1849.684448 
	C1956.469482,1849.265015 1954.536865,1847.090210 1953.665405,1845.249268 
	C1952.426025,1842.631348 1952.124756,1839.569458 1951.644287,1837.604248 
	C1944.224976,1836.065674 1937.357910,1834.573730 1930.454346,1833.276123 
	C1929.278931,1833.055298 1927.847290,1833.438477 1926.702515,1833.932861 
	C1917.194214,1838.039917 1910.319092,1831.865845 1903.060913,1827.704712 
	C1901.731079,1826.942383 1901.493896,1824.274048 1900.836792,1822.689087 
	C1890.830444,1820.037354 1883.234863,1825.466919 1877.113525,1830.811890 
	C1870.334473,1836.731323 1862.800537,1838.568115 1854.823364,1839.679932 
	C1845.706787,1840.950684 1836.434204,1841.105713 1827.227539,1841.716919 
	C1826.248901,1841.781982 1824.849609,1842.069092 1824.333496,1841.558105 
	C1816.888184,1834.188599 1804.706177,1831.374268 1802.311157,1818.080566 
	C1796.938721,1818.681519 1791.507812,1819.288940 1787.960571,1819.685669 
	C1781.666748,1813.887817 1776.853027,1808.844971 1771.394531,1804.638916 
	C1767.754883,1801.834351 1756.787842,1804.949585 1753.508789,1808.680908 
	C1751.811523,1810.611938 1749.937744,1813.170288 1747.721558,1813.709351 
	C1742.145508,1815.065308 1739.158569,1818.218262 1738.885132,1823.657715 
	C1733.956055,1823.657715 1729.745483,1823.657715 1725.085327,1823.657715 
	C1724.633423,1821.737915 1723.781372,1820.128418 1723.998901,1818.679565 
	C1724.749023,1813.685181 1722.205444,1810.929932 1717.919067,1809.851685 
	C1711.820312,1808.317505 1707.084961,1801.426514 1699.640015,1805.106934 
	C1699.441162,1805.205322 1698.931519,1804.979004 1698.745728,1804.755371 
	C1691.430908,1795.953125 1685.254150,1803.520142 1678.445679,1806.501831 
	C1673.228027,1802.796143 1668.069702,1798.928589 1662.672852,1795.428833 
	C1661.133911,1794.430908 1658.915771,1794.419556 1656.985352,1794.098877 
	C1653.385254,1793.501221 1649.622314,1793.459106 1646.196655,1792.351929 
	C1642.386719,1791.120605 1639.427734,1791.827148 1635.850098,1793.420166 
	C1626.257202,1797.691895 1625.743774,1797.235718 1619.368774,1789.034912 
	C1617.794922,1787.010620 1615.719604,1785.289429 1613.625854,1783.772339 
	C1606.671631,1778.733032 1599.258179,1774.368042 1596.437988,1765.264648 
	C1595.052368,1760.792358 1591.264404,1759.674683 1586.675293,1761.531738 
	C1583.710571,1762.731567 1580.521729,1763.377563 1576.924194,1764.419434 
	C1576.076782,1760.854492 1575.723633,1757.889282 1574.663208,1755.203369 
	C1572.143433,1748.821289 1566.300781,1747.253296 1560.595093,1751.162842 
	C1555.139282,1754.901367 1554.220093,1754.715576 1546.164673,1748.243530 
	C1537.959473,1750.523926 1537.959473,1750.523926 1527.496216,1760.389648 
	C1524.919922,1756.665527 1522.420776,1753.052734 1519.442017,1748.746704 
	C1516.086060,1749.859985 1512.666504,1750.847534 1509.356079,1752.119141 
	C1498.182007,1756.411499 1489.529907,1753.270508 1483.837524,1742.706543 
	C1483.367065,1741.833252 1482.870239,1740.890625 1482.737549,1739.931641 
	C1481.323975,1729.710205 1474.701172,1727.185791 1465.586792,1728.072388 
	C1463.997803,1728.226929 1462.346680,1727.744019 1460.684204,1727.550903 
	C1458.006348,1720.017578 1467.598633,1718.940552 1467.703491,1712.335938 
	C1462.950073,1707.788330 1458.040405,1702.466187 1452.481445,1697.942017 
	C1446.445190,1693.029663 1434.845337,1695.473389 1428.133423,1701.916870 
	C1418.086304,1700.871338 1408.599976,1700.063599 1399.173340,1698.807861 
	C1395.793823,1698.357422 1392.664795,1697.078613 1394.601562,1692.114258 
	C1395.195068,1690.593018 1393.587769,1688.213379 1392.389038,1685.803955 
z"/>
<path data-name="Doumaintang" fill="#803D7E" opacity="1.000000" stroke="none" 
	d="
M560.308838,334.113678 
	C557.993103,327.566376 555.474792,321.080597 553.458740,314.442291 
	C552.623291,311.691467 552.325562,308.541687 552.710083,305.698700 
	C554.044128,295.833984 555.904846,286.041321 557.303284,276.184113 
	C557.765869,272.923126 558.171631,269.353943 557.348328,266.259583 
	C552.180054,246.834274 562.950928,234.634918 576.445374,223.877823 
	C582.968750,218.677689 590.231567,214.429932 598.022644,215.865219 
	C603.806824,220.587402 608.775574,224.643890 613.877686,228.809235 
	C616.529175,226.311707 618.337830,224.860168 619.837158,223.139221 
	C622.344421,220.261200 624.985291,219.988434 628.723633,220.885742 
	C634.516846,222.276276 640.693420,226.124329 646.398865,220.406525 
	C651.315491,221.977890 656.264282,223.457367 661.133484,225.163956 
	C663.202026,225.888931 665.197937,228.087402 667.065796,227.910965 
	C678.303101,226.849457 686.435669,233.944199 695.603943,238.250153 
	C699.202759,239.940323 702.476624,242.309677 706.020203,244.133026 
	C711.665833,247.037933 717.401855,245.803955 722.056213,242.459869 
	C726.574524,239.213455 726.073425,233.593277 725.354675,228.592636 
	C725.032043,226.347839 723.314392,224.282288 723.090210,222.049026 
	C722.636169,217.525940 721.479492,212.493515 722.886841,208.465775 
	C728.400757,192.684998 739.854370,182.350388 755.821289,177.891251 
	C764.359009,175.506927 773.466431,175.238922 782.238953,173.599808 
	C792.937561,171.600800 803.554443,169.164795 815.100098,167.382706 
	C819.274780,174.764343 822.560303,181.679047 825.836670,188.598114 
	C850.790771,241.296616 876.657471,293.453735 912.157349,340.173096 
	C923.835693,355.542297 933.641846,372.463776 946.291199,386.938934 
	C974.334778,419.030304 1003.645935,450.013641 1032.422974,481.464539 
	C1058.052368,509.475250 1083.627808,537.535400 1109.312988,565.494751 
	C1112.628662,569.104004 1116.460571,572.238953 1120.053467,575.593628 
	C1131.331543,591.884827 1142.587646,608.191284 1153.897095,624.460632 
	C1159.187134,632.070496 1159.288330,633.833618 1153.954834,641.017273 
	C1149.912598,646.461853 1145.172485,651.106689 1145.670898,659.151611 
	C1145.947754,663.619995 1141.049561,666.389465 1136.569702,668.483643 
	C1132.681030,670.301331 1127.066895,669.728516 1124.174072,675.493042 
	C1118.099243,673.725525 1113.324219,671.322205 1108.277710,669.848328 
	C1104.995483,668.889709 1101.202393,669.768066 1097.843872,668.964233 
	C1092.179565,667.608459 1086.354370,666.224670 1081.186279,663.663391 
	C1073.808960,660.007263 1067.002930,655.210327 1059.855591,651.068359 
	C1058.507080,650.286865 1056.536499,649.660278 1055.139404,650.033691 
	C1047.572144,652.056335 1039.294067,652.457214 1033.045532,657.862732 
	C1027.340820,662.797852 1022.073669,668.238892 1016.239807,673.814270 
	C1011.898621,672.390930 1007.544189,670.861938 1003.123535,669.557007 
	C1000.954346,668.916748 998.310791,667.765991 996.492859,668.455994 
	C991.352051,670.407227 986.168884,672.673340 981.675903,675.787231 
	C976.991516,679.033508 972.098694,681.159546 966.763184,679.787781 
	C961.092529,678.329895 955.043274,676.510132 950.448792,673.107361 
	C942.469299,667.197327 935.273560,660.161743 928.131897,653.205139 
	C919.469543,644.767273 909.417664,639.244202 897.413452,638.056152 
	C886.525879,636.978577 875.551941,636.802734 864.629517,636.036926 
	C858.461975,635.604431 851.502869,636.393188 846.354126,633.773987 
	C837.868835,629.457520 829.055176,627.701416 820.038696,625.695801 
	C812.897095,624.107239 806.819946,625.461853 801.468079,629.956238 
	C796.271912,634.319885 791.187988,633.789062 785.911255,630.570923 
	C779.946228,626.932861 774.059021,623.167175 768.129028,619.471436 
	C762.711914,616.095276 757.130554,614.234558 750.445862,613.791138 
	C741.309631,613.185059 732.976440,607.737976 723.476624,607.566406 
	C722.001221,607.539795 720.131897,606.424622 719.163696,605.230042 
	C715.250000,600.401733 711.617615,595.345459 708.467773,589.985901 
	C712.249023,587.208191 715.351135,584.680542 718.654724,582.451355 
	C733.242859,572.607544 742.734741,559.073669 748.268555,541.934082 
	C746.335999,540.762512 744.475708,539.454773 742.466003,538.444031 
	C718.416504,526.348572 694.471741,514.034912 670.246338,502.301270 
	C640.660278,487.971191 615.746277,466.874298 589.626465,446.843750 
	C589.624695,444.415924 589.743958,442.728729 589.416382,441.133331 
	C586.296326,425.938965 578.938904,412.429291 571.391296,399.236816 
	C562.164917,383.110046 560.860657,365.971832 562.491089,348.296143 
	C562.968018,343.125305 562.549011,338.613678 560.308838,334.113678 
z"/>
<path data-name="Abong-Mbang" fill="#E65E60" opacity="1.000000" stroke="none" 
	d="
M707.881409,590.373352 
	C711.617615,595.345459 715.250000,600.401733 719.163696,605.230042 
	C720.131897,606.424622 722.001221,607.539795 723.476624,607.566406 
	C732.976440,607.737976 741.309631,613.185059 750.445862,613.791138 
	C757.130554,614.234558 762.711914,616.095276 768.129028,619.471436 
	C774.059021,623.167175 779.946228,626.932861 785.911255,630.570923 
	C791.187988,633.789062 796.271912,634.319885 801.468079,629.956238 
	C806.819946,625.461853 812.897095,624.107239 820.038696,625.695801 
	C829.055176,627.701416 837.868835,629.457520 846.354126,633.773987 
	C851.502869,636.393188 858.461975,635.604431 864.629517,636.036926 
	C875.551941,636.802734 886.525879,636.978577 897.413452,638.056152 
	C909.417664,639.244202 919.469543,644.767273 928.131897,653.205139 
	C935.273560,660.161743 942.469299,667.197327 950.448792,673.107361 
	C955.043274,676.510132 961.092529,678.329895 966.763184,679.787781 
	C972.098694,681.159546 976.991516,679.033508 981.675903,675.787231 
	C986.168884,672.673340 991.352051,670.407227 996.492859,668.455994 
	C998.310791,667.765991 1000.954346,668.916748 1003.123535,669.557007 
	C1007.544189,670.861938 1011.898621,672.390930 1016.239807,673.814270 
	C1022.073669,668.238892 1027.340820,662.797852 1033.045532,657.862732 
	C1039.294067,652.457214 1047.572144,652.056335 1055.139404,650.033691 
	C1056.536499,649.660278 1058.507080,650.286865 1059.855591,651.068359 
	C1067.002930,655.210327 1073.808960,660.007263 1081.186279,663.663391 
	C1086.354370,666.224670 1092.179565,667.608459 1097.843872,668.964233 
	C1101.202393,669.768066 1104.995483,668.889709 1108.277710,669.848328 
	C1113.324219,671.322205 1118.099243,673.725525 1123.694092,676.008545 
	C1125.095703,682.369324 1129.786987,683.240967 1134.452515,683.496277 
	C1140.411377,683.822205 1146.401489,683.584839 1152.378052,683.579834 
	C1158.846436,683.574341 1164.071289,684.902710 1168.970459,690.420227 
	C1172.118042,693.964966 1178.917847,694.411682 1184.186157,695.864380 
	C1186.657227,696.545654 1190.068970,695.373535 1191.861450,696.679260 
	C1198.539551,701.543762 1206.072021,701.569824 1213.699341,701.977722 
	C1223.412598,702.497192 1230.289062,708.735413 1237.766357,714.841003 
	C1233.102173,719.771973 1227.669434,723.613892 1227.186035,731.288635 
	C1226.923340,735.458862 1222.974365,736.936218 1219.488525,738.227234 
	C1210.460693,741.570557 1201.395264,744.813782 1192.382812,748.197693 
	C1181.608521,752.243286 1172.890381,759.326965 1164.491699,766.968872 
	C1162.183472,769.069153 1159.188110,771.000549 1156.211548,771.649780 
	C1151.048584,772.775940 1148.735840,775.631409 1146.561401,780.328186 
	C1141.559448,791.132629 1135.681763,801.547180 1129.799561,811.915771 
	C1128.588623,814.050354 1125.943359,815.505066 1123.732544,816.918518 
	C1090.983276,837.857300 1058.076660,858.552856 1025.468994,879.709229 
	C1009.961487,889.770691 993.040344,896.351562 975.735413,902.292542 
	C967.253601,905.204407 958.943604,908.629028 950.416931,911.393005 
	C946.060791,912.805176 941.389893,914.028870 936.876221,913.979187 
	C930.875061,913.913025 925.560486,915.476440 920.954956,918.800171 
	C910.137390,926.606934 898.141541,929.207458 885.100586,928.128845 
	C884.438110,928.073975 883.771057,928.068604 883.105896,928.052063 
	C867.214417,927.656799 865.130005,929.800049 864.133911,946.118469 
	C863.943726,949.234802 862.531311,952.462280 860.995667,955.261536 
	C859.254639,958.435059 856.740662,961.184631 853.565186,964.542358 
	C846.413330,960.705322 839.605591,957.807434 833.914490,952.324951 
	C828.449280,947.060120 822.566345,940.472290 812.480591,941.997253 
	C807.837769,942.699219 802.418762,939.545288 801.183838,933.002747 
	C800.210999,927.848022 796.898438,924.197632 791.135010,921.864990 
	C788.248657,924.231934 784.636230,926.266113 782.357117,929.301514 
	C779.593201,932.982361 776.583740,933.396606 772.820374,932.148254 
	C767.638062,930.429138 762.511719,928.541077 757.295837,926.702209 
	C753.631165,917.991089 757.472717,910.247192 760.329529,902.679077 
	C762.120117,897.935791 763.290039,893.993896 759.586365,889.786743 
	C758.542297,888.600708 757.996582,886.867920 757.539062,885.293884 
	C756.191223,880.656250 753.464050,878.633423 748.436707,877.639648 
	C735.442139,875.070923 732.701050,870.046814 735.751343,857.110352 
	C735.827698,856.786682 735.854126,856.451233 735.932190,856.128113 
	C739.387878,841.825317 736.634460,838.402527 721.622742,838.140747 
	C714.978027,838.024963 708.334229,837.784790 701.693909,837.509277 
	C694.095764,837.193909 686.271362,835.413086 678.947876,836.651001 
	C653.740356,840.912109 628.550171,838.084839 603.352356,837.836121 
	C602.791077,837.830627 602.235474,837.249146 601.013611,836.564575 
	C600.880493,833.717041 600.307678,830.415710 600.665833,827.218750 
	C601.358459,821.037659 598.812439,817.328308 593.379089,814.612122 
	C589.282532,812.564270 585.665588,809.557068 581.835083,806.976868 
	C586.512695,781.557251 591.378113,756.169312 595.685242,730.687073 
	C596.413147,726.380737 595.263550,721.522278 594.063721,717.171936 
	C591.248291,706.963318 587.521851,696.999939 584.865601,686.755432 
	C583.301819,680.723999 583.110229,674.340454 582.246643,668.122864 
	C581.108887,659.931396 580.453064,651.625793 578.627197,643.587891 
	C575.639954,630.436890 574.565979,617.406677 578.837585,603.290405 
	C585.025269,600.621887 590.311951,598.880127 595.692566,597.107422 
	C596.735107,588.297424 602.289673,584.082397 610.019104,582.452454 
	C615.476990,581.301636 621.098145,580.943848 626.590271,579.928589 
	C629.034119,579.476868 631.736755,578.793823 633.639893,577.329285 
	C642.134094,570.792786 642.169983,570.476135 651.662781,576.372192 
	C658.552124,580.651245 666.079590,581.357239 672.396606,577.423828 
	C682.615173,571.061035 689.763367,575.331970 697.172546,581.756531 
	C700.631775,584.756042 704.305115,587.508789 707.881409,590.373352 
z"/>
<path data-name="Doumié" fill="#72F1AC" opacity="1.000000" stroke="none" 
	d="
M1120.416748,575.074646 
	C1116.460571,572.238953 1112.628662,569.104004 1109.312988,565.494751 
	C1083.627808,537.535400 1058.052368,509.475250 1032.422974,481.464539 
	C1003.645935,450.013641 974.334778,419.030304 946.291199,386.938934 
	C933.641846,372.463776 923.835693,355.542297 912.157349,340.173096 
	C876.657471,293.453735 850.790771,241.296616 825.836670,188.598114 
	C822.560303,181.679047 819.274780,174.764343 815.768066,167.193176 
	C820.551147,163.969788 825.704102,161.641571 830.520691,158.752625 
	C834.105042,156.602783 837.253723,153.726761 841.205994,150.708817 
	C835.983704,145.325699 833.772705,140.059189 834.372742,133.186996 
	C834.857300,127.638176 832.892578,122.150177 827.221680,118.858421 
	C825.535706,117.879784 824.549072,115.550949 823.479431,113.703331 
	C822.659912,112.287796 822.642212,109.829979 821.532227,109.254341 
	C814.251038,105.478325 815.733398,98.837448 815.880737,92.760185 
	C816.129333,82.506645 816.706360,72.261078 817.138733,61.216675 
	C831.023071,60.008549 844.915161,59.286709 858.804443,59.336342 
	C864.314941,59.356033 869.784241,61.485199 875.332214,61.973244 
	C905.035461,64.586151 934.752380,67.049576 964.474792,69.437538 
	C992.890991,71.720551 1021.320190,73.841484 1049.742432,76.050285 
	C1054.032837,76.383713 1058.608398,75.993095 1062.527466,77.399513 
	C1067.228882,79.086746 1071.367798,82.341759 1075.533691,86.108673 
	C1069.977539,92.076820 1068.324829,98.171776 1068.075684,105.173386 
	C1067.741333,114.561249 1067.138672,123.825157 1072.659424,132.187881 
	C1073.344360,133.225403 1073.533447,134.691315 1073.650635,135.986069 
	C1074.397827,144.231003 1075.717285,152.493454 1075.593506,160.731308 
	C1075.417358,172.472672 1078.951416,182.943375 1084.641357,192.812119 
	C1089.294922,200.883545 1089.882812,208.370056 1083.473145,215.749420 
	C1081.955566,217.496353 1080.458618,219.389923 1079.502686,221.469162 
	C1077.462402,225.907516 1074.681885,230.389847 1074.164307,235.070862 
	C1072.697266,248.339935 1074.098511,261.539948 1077.094482,274.596863 
	C1078.263672,279.692108 1080.821045,283.506805 1084.302002,287.307617 
	C1091.451416,295.114136 1098.598999,302.989960 1098.122681,314.938721 
	C1097.960083,319.018463 1099.941162,323.183624 1101.081909,327.882538 
	C1114.781494,326.065552 1128.055664,324.304993 1141.665894,322.499847 
	C1142.372192,327.542816 1144.192261,332.033691 1143.298828,335.896973 
	C1141.328491,344.415985 1143.524902,349.754517 1151.442017,353.730713 
	C1159.067139,357.560272 1160.951050,362.803528 1158.559448,370.836914 
	C1157.453613,374.551239 1155.071777,377.884521 1153.953857,381.596985 
	C1153.172241,384.192627 1152.478760,387.709808 1153.604980,389.826294 
	C1157.946899,397.986694 1162.056885,406.341217 1170.295654,411.829193 
	C1173.688232,414.088959 1175.934204,418.187164 1178.440552,421.638855 
	C1187.025513,433.461731 1195.348022,445.478210 1204.084839,457.186340 
	C1207.301392,461.496979 1211.379761,464.921112 1217.667847,463.582794 
	C1222.227295,462.612396 1224.981689,465.966766 1227.863281,468.723022 
	C1196.993774,499.440338 1166.139526,530.172913 1135.238892,560.858765 
	C1130.529541,565.535400 1125.604980,569.995422 1120.416748,575.074646 
z"/>
<path data-name="Dimako" fill="#A27145" opacity="1.000000" stroke="none" 
	d="
M1228.536377,468.458557 
	C1224.981689,465.966766 1222.227295,462.612396 1217.667847,463.582794 
	C1211.379761,464.921112 1207.301392,461.496979 1204.084839,457.186340 
	C1195.348022,445.478210 1187.025513,433.461731 1178.440552,421.638855 
	C1175.934204,418.187164 1173.688232,414.088959 1170.295654,411.829193 
	C1162.056885,406.341217 1157.946899,397.986694 1153.604980,389.826294 
	C1152.478760,387.709808 1153.172241,384.192627 1153.953857,381.596985 
	C1155.071777,377.884521 1157.453613,374.551239 1158.559448,370.836914 
	C1160.951050,362.803528 1159.067139,357.560272 1151.442017,353.730713 
	C1143.524902,349.754517 1141.328491,344.415985 1143.298828,335.896973 
	C1144.192261,332.033691 1142.372192,327.542816 1141.665894,322.499847 
	C1128.055664,324.304993 1114.781494,326.065552 1101.081909,327.882538 
	C1099.941162,323.183624 1097.960083,319.018463 1098.122681,314.938721 
	C1098.598999,302.989960 1091.451416,295.114136 1084.302002,287.307617 
	C1080.821045,283.506805 1078.263672,279.692108 1077.094482,274.596863 
	C1074.098511,261.539948 1072.697266,248.339935 1074.164307,235.070862 
	C1074.681885,230.389847 1077.462402,225.907516 1079.502686,221.469162 
	C1080.458618,219.389923 1081.955566,217.496353 1083.473145,215.749420 
	C1089.882812,208.370056 1089.294922,200.883545 1084.641357,192.812119 
	C1078.951416,182.943375 1075.417358,172.472672 1075.593506,160.731308 
	C1075.717285,152.493454 1074.397827,144.231003 1073.650635,135.986069 
	C1073.533447,134.691315 1073.344360,133.225403 1072.659424,132.187881 
	C1067.138672,123.825157 1067.741333,114.561249 1068.075684,105.173386 
	C1068.324829,98.171776 1069.977539,92.076820 1075.813721,86.811577 
	C1080.310425,88.523773 1084.277222,90.787415 1088.324463,92.896866 
	C1090.324463,93.939247 1092.472290,94.698029 1094.553955,95.583542 
	C1096.301392,96.326843 1098.713989,96.574677 1099.690430,97.889618 
	C1106.283325,106.768219 1114.927368,110.424294 1125.934204,110.499519 
	C1131.112305,110.534912 1135.768188,113.399544 1138.208130,118.951408 
	C1142.376221,128.435577 1144.849487,129.607880 1155.568115,128.281372 
	C1160.416870,127.681282 1165.228638,126.673737 1170.091064,126.332596 
	C1173.353149,126.103722 1177.006714,125.910950 1179.910767,127.102234 
	C1191.246826,131.752380 1202.449585,136.788284 1209.308228,147.910568 
	C1210.870239,150.443680 1212.691650,152.896301 1214.781982,154.999939 
	C1216.584595,156.813995 1219.061401,159.513062 1221.030518,159.346359 
	C1231.320801,158.475235 1237.693848,166.365723 1245.959106,169.847580 
	C1256.059326,174.102432 1266.368530,178.556931 1275.213501,184.854553 
	C1281.222778,189.133148 1288.393066,193.447632 1290.613770,202.101944 
	C1291.602783,205.955490 1295.237793,209.101486 1297.532227,212.658600 
	C1299.065308,215.035370 1301.149780,217.442291 1301.572021,220.063690 
	C1302.290649,224.526840 1305.206055,225.991592 1308.668579,227.491959 
	C1311.332153,228.646118 1313.736084,230.408768 1316.413330,231.520401 
	C1323.439575,234.437897 1327.974487,239.960342 1332.670898,245.623657 
	C1335.284424,248.775497 1339.238770,250.984818 1342.905396,253.059296 
	C1350.703125,257.470825 1358.839355,261.257904 1364.253784,268.936310 
	C1368.815674,275.405701 1369.238770,277.332703 1364.373047,283.822449 
	C1358.795410,291.261627 1352.682251,298.297089 1346.875610,305.566956 
	C1331.935181,324.272919 1317.033325,343.009644 1302.120850,361.737946 
	C1297.895386,367.044586 1295.938843,373.908600 1289.625000,377.939850 
	C1287.488525,379.303925 1287.852905,384.150604 1286.370605,387.045288 
	C1277.749512,403.881439 1269.234253,420.787598 1259.969604,437.268921 
	C1257.144653,442.294373 1252.199829,446.190094 1247.981201,450.355621 
	C1241.839966,456.419342 1235.477417,462.258911 1228.536377,468.458557 
z"/>
<path data-name="Mboanz" fill="#CEF657" opacity="1.000000" stroke="none" 
	d="
M708.467773,589.985901 
	C704.305115,587.508789 700.631775,584.756042 697.172546,581.756531 
	C689.763367,575.331970 682.615173,571.061035 672.396606,577.423828 
	C666.079590,581.357239 658.552124,580.651245 651.662781,576.372192 
	C642.169983,570.476135 642.134094,570.792786 633.639893,577.329285 
	C631.736755,578.793823 629.034119,579.476868 626.590271,579.928589 
	C621.098145,580.943848 615.476990,581.301636 610.019104,582.452454 
	C602.289673,584.082397 596.735107,588.297424 595.692566,597.107422 
	C590.311951,598.880127 585.025269,600.621887 578.953979,602.484375 
	C575.625427,601.159302 573.106873,599.666077 570.530579,598.280273 
	C567.715576,596.766113 564.821594,595.398438 562.011414,593.875732 
	C560.296997,592.946777 558.694214,590.992676 557.009827,590.956360 
	C542.638733,590.645996 529.204163,582.996948 514.452942,585.677734 
	C510.669220,586.365356 506.740936,586.230896 502.891571,586.603149 
	C501.940186,586.695129 500.786072,587.855469 500.149994,587.571899 
	C489.259094,582.716431 480.668762,589.339233 471.451050,593.045410 
	C469.356995,593.887329 466.826782,594.528625 464.672089,594.180481 
	C455.929596,592.768433 447.274109,590.828308 438.551300,589.281677 
	C425.563507,586.978760 412.545837,584.843933 398.868652,582.235413 
	C400.368195,574.694946 402.540009,567.556641 405.248627,558.653931 
	C398.205841,550.422485 390.870880,539.739685 376.172577,539.027100 
	C374.935730,538.967102 373.739838,538.062378 372.119812,536.925049 
	C372.528107,535.248779 373.359314,534.210693 374.152161,533.144043 
	C380.077576,525.172180 386.493256,518.134644 397.540985,521.068237 
	C399.552368,512.736511 401.420380,504.998474 403.510284,496.341431 
	C405.386658,495.492065 408.041595,494.290283 411.298676,492.815918 
	C411.298676,490.565979 410.356995,487.442596 411.485413,485.560272 
	C414.237701,480.969208 416.107727,476.668030 416.276337,471.015900 
	C416.345001,468.714050 421.652283,465.463196 425.060303,464.633820 
	C429.781311,463.484985 434.959137,464.213165 440.835724,465.010742 
	C438.884796,480.946259 437.203339,496.103516 437.938232,511.466095 
	C438.128204,515.437988 439.563568,519.448975 443.468384,519.835205 
	C446.011383,520.086731 450.318298,517.718628 451.334442,515.419067 
	C454.753540,507.681854 461.603912,503.507416 467.280151,498.131104 
	C469.885742,495.663177 473.263458,494.013550 475.886322,491.560150 
	C484.649231,483.363251 493.210785,474.929962 505.278748,477.880188 
	C508.923737,474.630188 511.274170,470.824280 514.333923,470.125732 
	C523.634766,468.002380 533.186523,466.234039 542.685486,465.975433 
	C549.432312,465.791748 556.251770,468.274994 563.619873,469.678589 
	C566.074524,467.380859 568.608093,464.784363 571.374634,462.465759 
	C577.366516,457.444031 583.477661,452.564575 589.540100,447.626953 
	C615.746277,466.874298 640.660278,487.971191 670.246338,502.301270 
	C694.471741,514.034912 718.416504,526.348572 742.466003,538.444031 
	C744.475708,539.454773 746.335999,540.762512 748.268555,541.934082 
	C742.734741,559.073669 733.242859,572.607544 718.654724,582.451355 
	C715.351135,584.680542 712.249023,587.208191 708.467773,589.985901 
z"/>
<path data-name="Mboma" fill="#624DD8" opacity="1.000000" stroke="none" 
	d="
M589.626465,446.843719 
	C583.477661,452.564575 577.366516,457.444031 571.374634,462.465759 
	C568.608093,464.784363 566.074524,467.380859 563.619873,469.678589 
	C556.251770,468.274994 549.432312,465.791748 542.685486,465.975433 
	C533.186523,466.234039 523.634766,468.002380 514.333923,470.125732 
	C511.274170,470.824280 508.923737,474.630188 505.278748,477.880188 
	C493.210785,474.929962 484.649231,483.363251 475.886322,491.560150 
	C473.263458,494.013550 469.885742,495.663177 467.280151,498.131104 
	C461.603912,503.507416 454.753540,507.681854 451.334442,515.419067 
	C450.318298,517.718628 446.011383,520.086731 443.468384,519.835205 
	C439.563568,519.448975 438.128204,515.437988 437.938232,511.466095 
	C437.203339,496.103516 438.884796,480.946259 441.718658,465.079285 
	C447.156403,447.903320 452.684174,431.557190 457.991241,415.139740 
	C459.104340,411.696228 459.236816,407.947906 460.122742,404.415710 
	C461.238464,399.967224 462.739288,395.616821 463.938049,391.187317 
	C465.750427,384.490387 467.738037,377.819794 469.086487,371.025909 
	C469.969635,366.576080 471.665436,363.063721 475.109131,360.019623 
	C479.087250,356.503052 482.621643,352.473419 486.251709,348.576233 
	C498.807068,335.096832 514.442627,332.776611 531.893066,334.792053 
	C540.667053,335.805389 549.701172,334.565247 559.463257,334.228943 
	C562.549011,338.613678 562.968018,343.125305 562.491089,348.296143 
	C560.860657,365.971832 562.164917,383.110046 571.391296,399.236816 
	C578.938904,412.429291 586.296326,425.938965 589.416382,441.133331 
	C589.743958,442.728729 589.624695,444.415924 589.626465,446.843719 
z"/>
<path data-name="Messamena" fill="#5B8DDE" opacity="1.000000" stroke="none" 
	d="
M581.127380,806.738159 
	C585.665588,809.557068 589.282532,812.564270 593.379089,814.612122 
	C598.812439,817.328308 601.358459,821.037659 600.665833,827.218750 
	C600.307678,830.415710 600.880493,833.717041 601.013611,836.564575 
	C602.235474,837.249146 602.791077,837.830627 603.352356,837.836121 
	C628.550171,838.084839 653.740356,840.912109 678.947876,836.651001 
	C686.271362,835.413086 694.095764,837.193909 701.693909,837.509277 
	C708.334229,837.784790 714.978027,838.024963 721.622742,838.140747 
	C736.634460,838.402527 739.387878,841.825317 735.932190,856.128113 
	C735.854126,856.451233 735.827698,856.786682 735.751343,857.110352 
	C732.701050,870.046814 735.442139,875.070923 748.436707,877.639648 
	C753.464050,878.633423 756.191223,880.656250 757.539062,885.293884 
	C757.996582,886.867920 758.542297,888.600708 759.586365,889.786743 
	C763.290039,893.993896 762.120117,897.935791 760.329529,902.679077 
	C757.472717,910.247192 753.631165,917.991089 757.295837,926.702209 
	C762.511719,928.541077 767.638062,930.429138 772.820374,932.148254 
	C776.583740,933.396606 779.593201,932.982361 782.357117,929.301514 
	C784.636230,926.266113 788.248657,924.231934 791.135010,921.864990 
	C796.898438,924.197632 800.210999,927.848022 801.183838,933.002747 
	C802.418762,939.545288 807.837769,942.699219 812.480591,941.997253 
	C822.566345,940.472290 828.449280,947.060120 833.914490,952.324951 
	C839.605591,957.807434 846.413330,960.705322 853.216614,965.096436 
	C857.778809,968.151855 860.662842,971.742859 860.329285,976.912048 
	C860.039124,981.409180 862.699219,983.496521 866.203186,985.173828 
	C870.038452,987.009827 873.848206,988.900391 877.645935,990.813110 
	C878.825989,991.407471 880.103088,991.969482 881.041016,992.857605 
	C886.360352,997.893982 885.400269,1017.292847 879.288208,1021.136047 
	C870.423401,1026.710205 864.536011,1033.056885 867.782593,1044.706055 
	C868.398499,1046.915894 865.624451,1050.568115 863.617859,1052.856079 
	C861.963379,1054.742432 858.985046,1055.394653 856.846619,1056.943359 
	C850.375916,1061.629761 848.249023,1068.056641 851.777771,1075.281006 
	C854.804382,1081.477417 854.017944,1085.346436 849.624634,1091.175415 
	C843.174316,1099.733398 838.773743,1110.019287 834.563293,1120.016968 
	C831.851257,1126.456299 828.146912,1131.507935 822.655457,1135.525269 
	C818.647339,1138.457520 814.713318,1141.490845 810.718079,1144.440918 
	C798.675171,1153.333130 792.886414,1166.234863 787.893372,1179.704102 
	C787.010620,1182.085205 785.893555,1184.990845 783.966797,1186.251831 
	C779.346802,1189.275269 777.515320,1193.618896 775.164429,1199.252197 
	C760.164429,1199.361084 746.251831,1198.650635 732.331970,1198.138550 
	C712.094421,1197.394043 691.852112,1196.776245 671.610901,1196.134155 
	C649.706604,1195.439209 627.800476,1194.803345 605.896606,1194.096069 
	C586.653625,1193.474731 567.413452,1192.766235 548.170654,1192.139771 
	C526.599548,1191.437500 505.026215,1190.805542 483.455170,1190.102661 
	C464.212280,1189.475708 444.971863,1188.772339 425.729095,1188.141357 
	C404.490784,1187.444946 383.254272,1186.649048 362.010773,1186.170898 
	C347.370117,1185.841309 332.718567,1185.900513 318.072815,1185.974487 
	C315.160248,1185.989258 311.721039,1186.021606 309.429382,1187.473755 
	C296.327545,1195.775391 282.725891,1203.267944 273.004730,1216.188477 
	C250.272247,1246.402466 226.963516,1276.182861 203.888123,1306.138916 
	C190.124573,1292.637573 176.356415,1279.141113 162.599808,1265.632690 
	C156.932938,1260.068115 151.951141,1253.572266 142.964462,1252.337891 
	C142.490631,1246.823608 142.654739,1241.252686 135.763535,1239.130005 
	C143.084900,1228.473877 143.304733,1217.523682 140.551941,1206.118408 
	C140.046295,1204.023560 140.826584,1201.545898 141.287567,1199.301270 
	C146.352097,1174.640381 151.547852,1150.005981 156.477493,1125.318359 
	C157.091110,1122.245483 157.407776,1118.374268 156.078979,1115.789429 
	C151.883301,1107.628296 155.666168,1100.368164 157.228668,1092.677124 
	C162.301285,1067.708618 176.610840,1047.004272 188.551590,1025.328003 
	C195.396347,1012.902405 196.898300,999.685913 199.299835,986.373169 
	C203.124313,965.172241 207.044937,943.986755 211.198654,922.848572 
	C212.238358,917.557556 212.031967,913.012512 207.952347,909.130432 
	C207.233658,908.446594 206.328430,907.701172 206.077087,906.821899 
	C201.433838,890.578491 185.831528,883.886108 175.924515,872.241943 
	C172.932632,868.725342 168.858093,866.142334 165.770309,862.692322 
	C160.038559,856.288635 153.232330,851.863892 144.997574,849.967834 
	C141.817566,844.513489 141.561905,839.170227 144.598358,832.983582 
	C149.011856,824.228149 155.217850,818.188354 162.133957,812.301270 
	C168.279968,807.069702 172.519943,799.598877 177.211990,793.613037 
	C180.924332,795.198608 184.709702,796.742859 188.434662,798.421143 
	C196.675949,802.134155 203.975403,807.377563 209.484512,814.421875 
	C215.954697,822.695007 224.056000,826.369446 234.279877,826.112305 
	C234.612839,826.103882 234.984314,825.994629 235.273270,826.103516 
	C246.915710,830.493958 253.888016,824.504150 259.455475,815.292847 
	C260.139526,814.161133 260.959534,813.061035 261.911530,812.150085 
	C268.698242,805.656311 271.176544,799.120667 267.111298,789.271729 
	C264.498474,782.941711 263.552124,774.068604 271.459747,768.514343 
	C271.945435,768.173218 272.208405,767.404602 272.405823,766.781311 
	C273.805115,762.363586 275.784515,759.269043 281.405762,759.410034 
	C287.363403,759.559448 291.764648,761.092590 293.744629,767.125305 
	C293.943909,767.732544 294.461243,768.235413 295.113190,769.207520 
	C296.402649,769.345032 298.007690,769.601318 299.620972,769.674011 
	C308.172699,770.059509 312.446136,773.484680 314.254639,781.474121 
	C316.141632,789.810608 316.141327,789.825684 324.135223,789.989075 
	C326.775726,790.043030 329.418213,789.997498 331.430298,789.997498 
	C332.561676,789.078308 333.371918,788.760437 333.520813,788.249695 
	C338.252045,772.023315 351.695587,774.677307 362.839050,776.378967 
	C370.978851,777.621887 375.944366,775.921875 380.918091,770.215820 
	C384.516846,766.087158 389.209106,764.008118 395.053925,764.005005 
	C398.529236,764.003113 402.204254,762.661804 405.443726,761.171265 
	C419.646851,754.636292 433.857452,748.089111 447.779449,740.985962 
	C453.202881,738.218872 457.057770,738.681274 462.275452,741.826416 
	C480.219635,752.642639 498.463104,762.988403 516.868347,773.006775 
	C537.898132,784.453796 559.222961,795.358826 581.127380,806.738159 
z"/>
<path data-name="Somalomo" fill="#618F91" opacity="1.000000" stroke="none" 
	d="
M204.154968,1306.751953 
	C226.963516,1276.182861 250.272247,1246.402466 273.004730,1216.188477 
	C282.725891,1203.267944 296.327545,1195.775391 309.429382,1187.473755 
	C311.721039,1186.021606 315.160248,1185.989258 318.072815,1185.974487 
	C332.718567,1185.900513 347.370117,1185.841309 362.010773,1186.170898 
	C383.254272,1186.649048 404.490784,1187.444946 425.729095,1188.141357 
	C444.971863,1188.772339 464.212280,1189.475708 483.455170,1190.102661 
	C505.026215,1190.805542 526.599548,1191.437500 548.170654,1192.139771 
	C567.413452,1192.766235 586.653625,1193.474731 605.896606,1194.096069 
	C627.800476,1194.803345 649.706604,1195.439209 671.610901,1196.134155 
	C691.852112,1196.776245 712.094421,1197.394043 732.331970,1198.138550 
	C746.251831,1198.650635 760.164429,1199.361084 775.010742,1199.960449 
	C776.047607,1200.594971 775.923035,1201.454956 776.295044,1201.878662 
	C782.043091,1208.422729 787.402222,1215.416016 793.849609,1221.191040 
	C796.946411,1223.964844 801.969910,1222.315918 804.270203,1218.460449 
	C808.881042,1210.732300 816.668762,1209.736572 824.075928,1209.287842 
	C832.445679,1208.780640 841.049316,1206.097900 849.384338,1209.892822 
	C849.943604,1210.147339 850.781067,1210.177002 851.354004,1209.957764 
	C861.119690,1206.222778 867.265808,1209.926270 870.759216,1219.260498 
	C870.983154,1219.859009 871.412354,1220.578613 871.942871,1220.834961 
	C880.495728,1224.969604 881.007629,1234.051636 884.624512,1241.232422 
	C886.986755,1245.922241 889.628357,1250.470337 892.067383,1255.122681 
	C892.818359,1256.555054 893.994507,1258.207764 893.816711,1259.612915 
	C892.573792,1269.434814 896.433899,1277.095947 904.383118,1283.274780 
	C898.707520,1290.181763 896.627319,1297.137573 899.975342,1304.983765 
	C900.354370,1305.871948 900.105347,1307.696533 900.505249,1307.808472 
	C908.587341,1310.069580 907.136353,1318.546021 910.989014,1323.427856 
	C912.874939,1325.817627 916.226196,1327.200439 919.124207,1328.605957 
	C923.189209,1330.577393 927.449951,1332.145142 932.668457,1334.319458 
	C928.237122,1341.683350 923.387695,1347.575806 920.918396,1354.337402 
	C916.903076,1365.332520 905.692688,1372.087646 904.244873,1385.010010 
	C900.050659,1385.353760 895.601746,1388.726685 891.362488,1384.715454 
	C890.542419,1383.939575 887.525757,1385.011475 885.767395,1385.786743 
	C879.686951,1388.467529 873.592590,1387.900024 867.382141,1386.501343 
	C865.482361,1386.073486 863.076599,1385.328979 861.592163,1386.084473 
	C856.473083,1388.689941 852.825867,1385.488647 848.628296,1383.789673 
	C844.598389,1382.158447 842.451050,1379.258667 840.579102,1375.511963 
	C836.688721,1367.725220 836.266113,1367.792969 826.527039,1369.527710 
	C824.656250,1369.860962 822.582336,1369.663086 820.706726,1369.243408 
	C815.539612,1368.086792 810.326965,1366.977173 805.332397,1365.265259 
	C802.351318,1364.243408 799.502747,1362.425415 797.029175,1360.427368 
	C793.184143,1357.321289 789.709473,1353.756958 786.402771,1350.688477 
	C772.973633,1351.013794 759.990356,1351.087891 748.821777,1341.688843 
	C743.216553,1346.848267 741.088867,1353.400024 739.275085,1360.043945 
	C738.889709,1361.455566 739.245850,1363.279175 739.799744,1364.703247 
	C743.035461,1373.021362 746.518982,1381.243164 749.750000,1389.563110 
	C753.288330,1398.674438 747.889465,1414.291138 738.922791,1417.739014 
	C732.560425,1420.185547 729.340149,1424.293945 726.828552,1429.951538 
	C722.244141,1440.278198 714.998474,1442.863770 704.608704,1438.016479 
	C702.808105,1437.176514 701.041687,1436.169067 699.460327,1434.973267 
	C696.189331,1432.499756 692.884766,1432.883545 689.096313,1433.746704 
	C662.960205,1439.702515 636.729492,1444.861938 609.815002,1446.256958 
	C588.941956,1447.338867 568.137390,1449.728027 547.298828,1451.494507 
	C538.032593,1452.280029 528.762695,1453.035400 519.485718,1453.678223 
	C497.278748,1455.216919 475.050903,1456.480835 452.860443,1458.224487 
	C423.072540,1460.565063 393.311951,1463.253296 362.679230,1465.858154 
	C309.353149,1413.070923 256.887482,1360.218018 204.154968,1306.751953 
z"/>
</svg>