<svg version="1.1" id="Layer_1" xmlns="http://www.w3.org/2000/svg" xmlns:xlink="http://www.w3.org/1999/xlink" x="0px" y="0px"
	 width="100%" viewBox="0 0 2292 2572" enable-background="new 0 0 2292 2572" xml:space="preserve">
<path data-name="Bangangté" style="fill: {#E89851}" fill="#E89851" opacity="1.000000" stroke="none" 
	d="
M150.495834,1225.623535 
	C150.397415,1224.822876 150.298996,1224.022339 151.205994,1222.657471 
	C165.767868,1225.678955 179.282669,1222.849854 192.796112,1221.730469 
	C194.302017,1221.605835 196.351898,1220.866821 197.081619,1219.728271 
	C201.547318,1212.760498 206.692535,1205.991577 209.737900,1198.404541 
	C214.520233,1186.490112 213.240601,1174.164551 207.963409,1162.487793 
	C202.350220,1150.067505 203.219116,1138.713257 212.378006,1128.253662 
	C214.117752,1126.266846 216.316925,1124.038818 216.731903,1121.649048 
	C218.374268,1112.191284 225.491608,1111.122314 232.887650,1110.320679 
	C236.520859,1109.926880 240.212738,1109.535400 243.842712,1109.747681 
	C256.641479,1110.495605 269.024689,1108.756226 281.119873,1104.520508 
	C285.501556,1102.986206 290.003143,1101.732788 294.525696,1100.674561 
	C304.455475,1098.351196 314.179810,1095.481567 324.657745,1099.422363 
	C330.926849,1101.780151 337.624115,1101.589111 342.238770,1094.588501 
	C343.985443,1091.938965 347.272064,1090.309204 349.843018,1088.197998 
	C368.561676,1072.826294 388.269928,1058.607788 404.900269,1040.795776 
	C406.164490,1039.441895 408.178192,1038.594849 410.001740,1037.987427 
	C421.041870,1034.309570 432.081818,1030.616333 443.223297,1027.265869 
	C447.249847,1026.055054 451.639618,1024.884155 455.717773,1025.263428 
	C463.436127,1025.981323 470.096069,1024.653442 476.048798,1019.510376 
	C481.157898,1015.096252 486.929230,1012.873474 493.977020,1011.934631 
	C510.262512,1009.765259 524.733521,1003.558777 533.226990,988.000610 
	C535.738342,983.400391 536.502197,979.217712 534.749512,973.832214 
	C532.802185,967.848999 529.539185,963.259460 525.491089,958.753357 
	C523.396545,956.421875 520.712036,953.093994 520.953857,950.460388 
	C521.888855,940.275024 523.572083,930.122986 525.595032,920.083069 
	C527.451111,910.870972 528.293457,901.895142 526.648071,892.457336 
	C525.059998,883.348633 525.047119,873.966370 524.317627,864.706238 
	C524.135742,862.397278 524.313782,859.930054 523.544922,857.820435 
	C520.708984,850.039673 517.410767,842.427979 514.549133,834.655945 
	C512.402893,828.826843 510.659729,822.849426 508.976715,817.674805 
	C513.955505,811.165771 519.335876,813.473328 524.291565,815.021606 
	C543.563049,821.042725 563.011230,824.757019 583.070129,819.617920 
	C588.881348,818.129089 593.318726,820.043518 597.892395,823.071228 
	C605.662170,828.214722 613.632385,833.054932 621.419739,838.172546 
	C628.311157,842.701355 635.509644,845.118958 644.008667,844.289551 
	C647.671875,843.932129 652.757263,844.734070 655.146118,847.089172 
	C664.697266,856.505127 675.213379,864.357849 687.084778,870.489929 
	C687.375732,870.640198 687.600525,870.913147 687.877563,871.096497 
	C695.741821,876.300659 698.172119,880.743042 693.806946,893.615540 
	C692.965088,896.097961 691.168152,898.241394 690.139160,900.679382 
	C688.899414,903.616760 688.009094,906.701599 686.826416,910.131714 
	C695.658630,914.914734 702.107666,920.863770 706.358887,929.136719 
	C708.856689,933.997375 713.866943,935.214844 718.892700,936.308044 
	C730.900269,938.919739 739.981689,946.446716 746.390564,956.209045 
	C750.111694,961.877258 754.165161,966.594971 759.290283,970.777527 
	C768.090576,977.959351 782.040466,973.021606 783.519409,961.671814 
	C784.162964,956.732788 786.418091,954.643250 790.768005,953.657410 
	C795.292603,952.631836 799.806030,951.539062 804.279480,950.312012 
	C807.098572,949.538696 809.921448,948.661987 812.594177,947.492554 
	C824.409912,942.322693 836.351807,939.375061 849.139526,944.017090 
	C851.455322,944.857788 854.159912,944.901672 856.675354,944.849243 
	C859.916748,944.781738 863.148438,944.246521 866.850952,943.864563 
	C868.675110,950.621216 872.049866,955.072815 879.410828,954.093140 
	C880.601685,942.109314 880.693542,942.250183 891.730408,935.053528 
	C894.565186,933.205139 896.621521,930.162903 900.401794,926.257629 
	C894.765442,923.530884 890.852905,921.309753 886.702637,919.702087 
	C879.285278,916.828979 871.382507,914.989502 865.939087,908.470337 
	C862.104248,903.877563 857.583496,899.735291 854.422363,894.726929 
	C847.421753,883.635437 837.398254,877.393982 825.055176,874.103516 
	C821.861267,873.252075 818.894653,871.569458 815.715637,870.636780 
	C807.456604,868.213562 804.235168,862.295166 803.703003,854.241882 
	C803.331726,848.623779 803.166992,842.947388 802.194763,837.422913 
	C800.212769,826.161072 795.735718,816.819641 784.087158,811.840027 
	C777.832458,809.166199 772.255432,804.567688 766.925110,800.168274 
	C761.828735,795.961853 757.550964,790.779663 752.732300,786.217651 
	C741.643433,775.719360 742.165405,772.726501 748.187439,760.015137 
	C752.824829,750.226318 759.648865,741.888916 772.749329,743.616089 
	C778.625244,744.390747 782.843140,740.993408 786.351318,736.696960 
	C790.977905,731.030701 795.317322,725.110840 800.199036,719.676270 
	C809.465698,709.360413 817.706909,709.015625 825.799255,719.512756 
	C827.841003,722.161133 831.684631,725.315186 834.458252,725.101196 
	C839.853943,724.684814 843.983948,727.065613 848.670227,728.395264 
	C858.159973,731.087708 867.757507,733.437012 877.391602,735.560730 
	C880.242004,736.189087 883.779358,736.519287 886.291443,735.396484 
	C900.215454,729.173096 916.468567,730.571228 929.642212,721.698181 
	C932.975586,719.452881 937.724548,718.988647 941.920105,718.410461 
	C950.776611,717.189880 959.681396,716.165344 968.600525,715.638916 
	C971.612610,715.461121 975.227661,716.288391 977.694031,717.951294 
	C983.183594,721.652405 988.096741,726.202637 993.291260,730.348511 
	C1001.382690,736.806458 1006.788574,737.135132 1015.878906,732.355957 
	C1020.875488,729.729065 1026.078247,727.469360 1031.284912,725.273804 
	C1037.191895,722.783020 1042.327515,722.898010 1047.691040,727.805054 
	C1051.086914,730.911926 1056.404297,732.466003 1061.120361,733.397278 
	C1064.479614,734.060730 1068.255127,732.322021 1071.875488,732.014709 
	C1081.535889,731.194519 1092.049438,733.696655 1099.473267,724.593323 
	C1112.515991,720.516968 1119.046997,711.700134 1118.846069,697.982422 
	C1121.458862,697.905212 1124.071777,697.828064 1127.756592,698.548950 
	C1131.290527,704.378235 1133.835327,709.371094 1136.195435,714.449585 
	C1139.777466,722.156372 1140.825439,722.731445 1149.153809,720.343384 
	C1153.356201,719.138428 1157.553467,718.141663 1161.657104,720.358093 
	C1170.440674,725.102112 1181.645386,725.658386 1186.947876,735.612976 
	C1188.187378,735.028259 1189.049683,734.911804 1189.308716,734.454041 
	C1191.668945,730.282593 1195.170654,730.570984 1198.640381,732.343628 
	C1202.683960,734.409424 1201.674316,738.033630 1200.031250,740.946777 
	C1197.712036,745.058838 1197.968384,749.461487 1200.976074,751.992798 
	C1209.011963,758.755676 1210.774902,768.339172 1214.814819,777.115540 
	C1217.930786,783.884827 1218.009155,788.630249 1213.973511,794.315063 
	C1210.309937,799.475464 1209.769775,805.037842 1211.357300,811.377563 
	C1213.602417,820.342957 1214.626953,829.607849 1216.520752,838.672119 
	C1216.921265,840.589661 1218.821167,842.193909 1220.387695,844.459656 
	C1222.508545,841.932068 1223.631958,839.435364 1225.507935,838.570007 
	C1231.609863,835.755371 1236.775269,831.890442 1241.749634,827.417786 
	C1243.589722,825.763184 1247.435425,825.232910 1250.031982,825.779297 
	C1254.153931,826.646851 1258.326660,828.330627 1261.879639,830.604187 
	C1267.738647,834.353394 1272.911377,839.171265 1278.753296,842.951843 
	C1286.896606,848.221802 1288.446289,847.522217 1296.551880,842.299255 
	C1313.310791,831.500488 1330.332153,821.106018 1347.344727,810.707642 
	C1349.548096,809.360901 1352.318115,808.904480 1354.861938,808.159729 
	C1359.874512,806.692200 1365.507568,806.635620 1368.729492,801.332336 
	C1369.237915,800.495422 1371.243896,799.811523 1372.207764,800.126709 
	C1380.536499,802.850342 1387.578735,799.652954 1394.911865,796.232117 
	C1398.344604,794.630859 1402.676270,794.670288 1406.621582,794.520081 
	C1412.975464,794.278198 1421.006714,799.878601 1421.145874,805.829834 
	C1421.278320,811.490662 1420.444092,818.006958 1417.615112,822.683044 
	C1414.429932,827.948120 1413.785767,832.305115 1416.004883,837.549805 
	C1417.813477,841.824219 1419.658081,846.086609 1421.622192,850.291077 
	C1423.764893,854.878052 1425.597290,859.448547 1424.200073,862.722900 
	C1418.996216,866.780640 1413.603516,869.000427 1411.885498,872.857178 
	C1409.985962,877.121399 1411.451416,882.884705 1411.451416,886.308228 
	C1404.425171,891.294495 1398.646240,895.093018 1393.215332,899.336609 
	C1387.999023,903.412231 1387.120605,907.262268 1390.472168,913.138245 
	C1392.350830,916.431946 1395.186401,919.460083 1398.235229,921.749756 
	C1405.353516,927.095642 1412.861206,931.923035 1420.206909,936.957520 
	C1419.707031,940.631226 1419.290405,943.691772 1418.750122,947.662292 
	C1424.611084,948.466248 1429.751587,949.327576 1434.926392,949.851379 
	C1449.440186,951.320374 1450.150269,952.437195 1448.063477,967.037048 
	C1447.389160,971.755310 1445.921265,977.130554 1450.574585,981.052429 
	C1458.542480,987.768005 1466.578003,993.534241 1478.203491,992.385864 
	C1483.001709,991.911804 1488.163086,995.114929 1493.159302,996.645630 
	C1494.081055,1005.184448 1503.628540,1008.337097 1505.443359,1016.322693 
	C1506.168579,1019.513977 1507.488281,1022.680786 1507.579102,1025.885864 
	C1507.912231,1037.647949 1502.645752,1047.061523 1493.914185,1054.443481 
	C1490.324829,1057.478027 1488.071167,1060.560303 1488.200806,1065.341675 
	C1488.272461,1067.988892 1487.980713,1070.662476 1487.657715,1073.300171 
	C1486.916748,1079.351929 1488.852661,1083.883057 1493.430420,1088.269287 
	C1501.289062,1095.798950 1508.368530,1104.152466 1515.607788,1112.308472 
	C1517.101440,1113.991333 1517.757080,1116.391357 1518.994263,1118.336548 
	C1520.138428,1120.135620 1521.544434,1121.768188 1522.090942,1122.490601 
	C1527.695923,1119.356323 1532.592529,1116.946899 1537.096313,1113.947754 
	C1539.061523,1112.639038 1541.187866,1110.301392 1541.593018,1108.124268 
	C1544.493408,1092.538330 1554.601562,1080.902832 1562.424194,1066.818970 
	C1575.804443,1074.598755 1589.581665,1069.875244 1603.275146,1070.426270 
	C1604.795532,1075.638672 1606.157837,1080.309204 1607.566772,1085.139404 
	C1610.567749,1085.439453 1613.239502,1085.437622 1615.777954,1086.018433 
	C1620.481445,1087.094482 1623.999878,1089.460571 1626.011597,1094.364136 
	C1629.381592,1102.578979 1629.571411,1102.183350 1638.442017,1099.153931 
	C1644.969360,1096.924438 1651.899780,1093.753052 1658.451294,1094.165405 
	C1671.371338,1094.978638 1683.673706,1093.227661 1695.846069,1089.651123 
	C1701.474487,1087.997314 1706.675659,1088.239746 1712.433228,1089.277954 
	C1718.858276,1090.436401 1725.658569,1089.351196 1732.276489,1089.656494 
	C1737.089844,1089.878662 1742.797607,1089.326660 1746.470825,1091.676514 
	C1753.525269,1096.189331 1760.800537,1096.222900 1768.466675,1096.399658 
	C1774.279907,1096.533569 1780.076904,1097.371948 1787.049072,1098.002563 
	C1784.018799,1106.043823 1782.715332,1112.581055 1788.052979,1118.529907 
	C1788.829590,1119.395630 1788.499023,1121.992798 1787.800903,1123.329102 
	C1781.363892,1135.648804 1782.709839,1149.815918 1778.342285,1162.766235 
	C1776.252563,1168.962524 1774.204346,1174.267090 1769.743530,1178.832642 
	C1767.189697,1181.446533 1764.770142,1184.206543 1762.454712,1187.035522 
	C1757.578369,1192.993286 1756.897339,1198.376099 1761.217041,1204.278687 
	C1766.025269,1210.848633 1770.686157,1217.878906 1779.521362,1219.652344 
	C1779.821045,1222.833862 1780.222900,1225.470337 1780.291870,1228.115479 
	C1780.583740,1239.324951 1784.219604,1249.112305 1793.454224,1255.839722 
	C1801.610962,1261.781860 1809.191406,1268.677124 1821.347046,1264.567261 
	C1830.901001,1261.337036 1835.423828,1265.826660 1835.627930,1276.221558 
	C1835.788696,1284.409058 1837.586914,1291.277100 1846.289795,1294.470459 
	C1848.041382,1295.113403 1849.358521,1296.964233 1850.849487,1298.288086 
	C1857.481079,1304.176025 1860.461548,1303.763550 1866.526001,1297.537842 
	C1869.397827,1294.589478 1873.134155,1291.944092 1876.981201,1290.610352 
	C1882.826904,1288.583374 1889.109619,1287.817505 1895.629883,1286.425659 
	C1903.373657,1292.912354 1909.270874,1302.392334 1920.349731,1305.338379 
	C1922.458374,1305.899170 1923.970459,1309.043701 1925.562500,1311.144287 
	C1930.884888,1318.167236 1931.880005,1318.540161 1939.676025,1315.880615 
	C1947.265137,1313.291504 1949.340088,1314.461670 1951.790039,1322.196289 
	C1953.288452,1326.926880 1954.983765,1331.611328 1956.890503,1336.191650 
	C1958.746338,1340.650391 1961.336426,1344.501709 1967.027222,1344.349609 
	C1970.812378,1344.248291 1972.362061,1346.917236 1973.071533,1349.896729 
	C1973.828857,1353.076538 1974.327637,1356.424561 1974.242065,1359.680908 
	C1973.740723,1378.750610 1973.671875,1378.748657 1992.024170,1384.413452 
	C2001.762573,1387.419556 2003.642334,1391.282959 1999.922974,1400.647095 
	C1995.829102,1410.954224 1998.773438,1416.297241 2009.871460,1417.857422 
	C2023.705566,1419.802246 2037.043457,1417.622192 2049.850342,1412.110352 
	C2053.001953,1410.754028 2055.762451,1409.062134 2055.287354,1404.384155 
	C2052.614746,1403.358521 2049.794922,1402.451050 2047.128784,1401.212646 
	C2043.066040,1399.325684 2041.416992,1395.928223 2041.591187,1391.513672 
	C2041.754028,1387.388550 2044.629395,1385.539795 2047.958984,1384.991943 
	C2053.766357,1384.036621 2057.457764,1380.522095 2060.523438,1376.023804 
	C2063.768311,1371.262695 2068.770752,1371.001099 2073.704834,1370.830444 
	C2075.976562,1370.751953 2078.269775,1371.756958 2080.565430,1371.819092 
	C2093.480469,1372.169067 2104.885010,1369.074463 2112.286377,1357.313599 
	C2116.008545,1351.399170 2119.912354,1345.587646 2123.377930,1339.526245 
	C2127.469727,1332.369507 2133.605957,1328.671143 2142.010742,1326.931274 
	C2148.328369,1336.308594 2160.158936,1340.422974 2164.274902,1351.488647 
	C2151.322510,1365.471680 2150.241211,1373.879395 2159.391357,1389.088379 
	C2161.459717,1392.526367 2163.038818,1396.376343 2160.012451,1399.093750 
	C2157.382080,1401.455688 2153.043213,1403.389404 2149.661621,1403.105347 
	C2144.187500,1402.645508 2138.879150,1400.213257 2133.706299,1398.675049 
	C2127.784668,1401.861450 2125.029785,1406.844116 2123.561523,1412.920898 
	C2122.001953,1419.373657 2120.398193,1425.861694 2118.123291,1432.081665 
	C2116.214355,1437.301514 2114.096191,1442.880371 2107.224121,1443.742065 
	C2096.323975,1445.108887 2086.889648,1450.236572 2078.315430,1456.499268 
	C2064.313721,1466.726074 2053.211914,1479.256226 2051.989990,1497.785645 
	C2051.116699,1511.028687 2050.581299,1524.295166 2049.585205,1537.528076 
	C2049.325195,1540.981201 2048.665527,1544.815063 2046.897583,1547.675781 
	C2036.952026,1563.769287 2037.371338,1583.499512 2048.171875,1599.104980 
	C2052.517578,1605.384033 2056.605225,1611.871338 2060.385010,1618.506104 
	C2067.708252,1631.360107 2068.843750,1644.662598 2063.122314,1658.598267 
	C2061.774658,1661.880859 2062.294678,1665.930298 2061.994873,1669.198853 
	C2069.088623,1671.722412 2073.798096,1668.830811 2078.691895,1666.833618 
	C2088.316650,1662.905518 2098.438721,1659.386841 2108.621094,1662.318604 
	C2119.553223,1665.466309 2129.696289,1663.442383 2139.951904,1660.782227 
	C2147.639648,1658.788452 2155.100830,1655.921265 2163.028320,1653.323120 
	C2167.399902,1655.880737 2170.941162,1659.639038 2172.324219,1665.148193 
	C2174.899902,1675.407593 2179.863281,1683.429443 2191.217041,1685.639893 
	C2192.027100,1685.797729 2192.661133,1686.858521 2192.783447,1686.968018 
	C2193.773438,1694.254761 2194.861084,1700.799438 2195.466797,1707.388672 
	C2195.733887,1710.296265 2195.482178,1713.428101 2194.666260,1716.224609 
	C2192.497314,1723.657715 2194.793457,1729.409058 2200.826172,1733.663330 
	C2207.799316,1738.581177 2210.623779,1745.077759 2209.733154,1753.461304 
	C2209.529053,1755.382324 2209.975342,1757.372437 2210.079590,1758.763184 
	C2216.729248,1763.782104 2222.214844,1759.971069 2228.090820,1756.517212 
	C2230.467041,1761.178833 2232.528564,1764.912598 2234.296143,1768.780762 
	C2235.950195,1772.400513 2236.867920,1776.409424 2238.848633,1779.817627 
	C2245.910645,1791.970825 2245.489746,1796.756592 2236.398438,1807.188110 
	C2234.186035,1809.726685 2232.843262,1813.023438 2231.014648,1816.117065 
	C2237.820557,1820.719971 2244.270508,1823.429077 2250.872803,1822.052979 
	C2259.560059,1820.242432 2265.030273,1823.617554 2271.074951,1829.211914 
	C2277.316895,1834.989014 2284.377686,1840.660156 2294.000000,1840.000000 
	C2294.000000,1844.741089 2294.000000,1849.482300 2293.443359,1854.472534 
	C2290.027832,1858.150879 2286.631348,1861.273926 2284.454834,1865.092163 
	C2282.109375,1869.206909 2280.906250,1873.972900 2278.740479,1879.677368 
	C2279.700195,1881.610962 2280.903076,1885.151001 2282.991699,1888.053467 
	C2293.814453,1903.092651 2291.349609,1917.761230 2282.513428,1932.584839 
	C2279.297363,1937.980103 2275.419922,1943.501099 2274.197754,1949.448364 
	C2272.128174,1959.519165 2269.656494,1969.334229 2266.652344,1979.185547 
	C2264.094971,1987.572388 2259.599121,1994.116577 2252.637451,1997.575439 
	C2245.607910,2001.068115 2241.552002,2007.180664 2237.559814,2012.508545 
	C2233.898926,2017.394165 2228.321533,2023.014648 2230.122070,2031.129883 
	C2231.256348,2036.241089 2227.708252,2039.556519 2222.843262,2042.250854 
	C2219.571777,2037.712646 2213.843994,2035.821899 2214.035889,2028.674072 
	C2214.117432,2025.634033 2211.072510,2020.324829 2208.648438,2019.809204 
	C2201.150635,2018.214722 2194.917725,2009.913574 2187.369141,2015.010742 
	C2182.878174,2012.179688 2179.479492,2009.570312 2175.698242,2007.757690 
	C2169.304443,2004.692383 2164.030762,2000.902832 2159.728516,1994.869995 
	C2153.704834,1986.423218 2147.679199,1976.923340 2134.963623,1977.547607 
	C2134.734619,1977.558716 2134.451416,1976.470093 2133.841064,1975.108276 
	C2135.147217,1974.509399 2136.523193,1973.281372 2137.771484,1973.399902 
	C2148.525146,1974.421021 2159.469238,1974.532715 2170.082764,1979.563843 
	C2170.623047,1977.905151 2171.787109,1976.259399 2171.458740,1975.004150 
	C2170.059814,1969.658691 2170.502686,1965.359131 2173.652344,1960.186768 
	C2176.561279,1955.410156 2176.974121,1948.814209 2177.383301,1942.942749 
	C2177.584717,1940.056519 2175.917236,1936.492554 2174.005859,1934.109497 
	C2168.364746,1927.076538 2165.599365,1919.704346 2167.948975,1910.608521 
	C2168.662598,1907.846191 2168.245361,1904.610840 2167.648682,1901.736816 
	C2166.909180,1898.173584 2163.624268,1896.257202 2160.932617,1898.337769 
	C2157.544922,1900.956299 2155.242432,1902.227417 2151.663574,1899.018677 
	C2150.860596,1898.298828 2148.409912,1898.765503 2147.075928,1899.417969 
	C2143.819092,1901.011230 2140.675293,1902.888794 2137.659424,1904.910522 
	C2129.522949,1910.364868 2123.412354,1909.889038 2116.456787,1903.015137 
	C2112.088867,1898.698364 2107.757324,1894.344727 2103.585205,1890.183228 
	C2096.833740,1894.778687 2094.845215,1899.951660 2096.297119,1906.523804 
	C2096.795410,1908.779907 2097.122803,1911.073242 2097.558350,1913.343872 
	C2098.519775,1918.352051 2096.648682,1921.668457 2091.790039,1923.370850 
	C2083.408691,1926.307739 2075.203369,1927.509521 2066.858887,1922.867188 
	C2064.090088,1921.326660 2060.635498,1920.541260 2057.434326,1920.332153 
	C2035.655640,1918.909668 2038.309082,1914.036499 2035.534302,1899.937378 
	C2034.856445,1896.492432 2034.240234,1892.066528 2031.904785,1890.105957 
	C2025.911133,1885.074707 2024.391724,1878.740356 2023.628906,1871.631348 
	C2023.001831,1865.785645 2019.777832,1862.222046 2014.769653,1861.131104 
	C2010.719604,1860.248657 2006.645996,1859.473633 2001.708496,1858.473877 
	C1988.971558,1865.558838 1980.677368,1862.702148 1980.577637,1851.094971 
	C1984.020630,1847.671387 1987.059448,1844.649780 1989.883667,1841.841553 
	C1988.232056,1839.312134 1987.086670,1837.558228 1985.977417,1835.859497 
	C1990.540771,1833.975586 1994.292480,1832.307251 1998.139160,1830.898682 
	C1999.643188,1830.348022 2001.355103,1830.239014 2002.982422,1830.171509 
	C2015.040771,1829.671387 2015.612671,1828.719360 2010.456543,1817.608643 
	C2010.074707,1816.785767 2009.971436,1815.833496 2009.686279,1814.740601 
	C2011.329468,1813.947754 2012.910889,1813.404907 2014.250244,1812.502808 
	C2023.272583,1806.425659 2023.712891,1799.370972 2016.146362,1791.498291 
	C2008.785400,1783.838989 2001.576782,1776.003662 1999.732910,1764.805786 
	C1999.393921,1762.747192 1997.988159,1760.043457 1996.285522,1759.161621 
	C1984.027588,1752.813232 1972.600586,1744.021851 1957.340332,1746.150146 
	C1953.645752,1746.665405 1949.194336,1745.921997 1945.889893,1744.212891 
	C1938.665527,1740.476196 1931.754883,1740.520996 1925.010010,1744.365234 
	C1920.073975,1747.178467 1916.368408,1746.008057 1912.345337,1742.800659 
	C1908.536133,1739.764038 1903.315186,1737.918945 1900.665527,1734.171021 
	C1898.051514,1730.473755 1897.891113,1725.045898 1896.616089,1720.387573 
	C1896.545044,1720.128052 1896.124878,1719.964111 1895.686279,1719.609253 
	C1891.356201,1718.984619 1888.561035,1721.120239 1886.241699,1724.830444 
	C1882.315918,1731.110596 1877.750366,1737.078369 1869.892700,1738.429565 
	C1860.476318,1740.048950 1850.979248,1741.757935 1841.468506,1742.107544 
	C1832.297363,1742.444702 1823.064331,1741.100220 1813.237305,1740.453857 
	C1810.130249,1747.791016 1803.359985,1751.891602 1796.278076,1755.698853 
	C1789.293213,1759.454102 1780.253540,1760.068848 1776.365601,1768.675781 
	C1776.053101,1769.367310 1774.526367,1770.115845 1773.809204,1769.923462 
	C1767.960815,1768.353882 1764.014526,1773.236450 1759.106323,1774.094971 
	C1750.530273,1775.595093 1748.127319,1781.390869 1746.431885,1788.110596 
	C1748.393188,1791.257812 1750.109375,1794.011597 1750.924194,1795.319092 
	C1746.036377,1804.598877 1741.774536,1812.725586 1737.467041,1820.827759 
	C1736.853027,1821.982788 1736.182373,1823.192749 1735.255249,1824.082764 
	C1723.812988,1835.067505 1714.119873,1847.213013 1708.698730,1862.326660 
	C1703.979980,1857.395996 1698.504883,1853.426514 1695.917603,1848.063843 
	C1665.541992,1785.105225 1635.583252,1721.945312 1605.552490,1658.820435 
	C1596.401611,1639.585205 1587.404175,1620.276855 1578.264038,1601.036499 
	C1573.583130,1591.182617 1568.742432,1581.404663 1563.742065,1571.115234 
	C1559.912109,1572.371582 1557.062134,1573.087769 1554.391113,1574.224487 
	C1547.043091,1577.351562 1539.833252,1580.810303 1532.434326,1583.805664 
	C1529.774414,1584.882568 1526.515259,1585.993164 1523.896851,1585.417603 
	C1503.473755,1580.928223 1482.927734,1576.779907 1462.829712,1571.080444 
	C1434.688110,1563.099609 1407.181152,1552.786499 1378.887817,1545.459595 
	C1346.419189,1537.051514 1313.485840,1530.480835 1281.663940,1519.579590 
	C1277.407959,1518.121704 1272.419556,1517.788330 1267.911377,1518.265991 
	C1253.093994,1519.836304 1239.624634,1516.029419 1226.693237,1509.322266 
	C1225.216797,1508.556641 1223.657104,1507.953003 1222.166016,1507.213623 
	C1214.274658,1503.299927 1206.071045,1501.670166 1197.141724,1501.984497 
	C1182.502686,1502.499756 1167.832275,1502.123779 1153.175171,1502.123901 
	C1135.519897,1502.124023 1117.864624,1502.085938 1100.209473,1502.141113 
	C1091.634033,1502.167969 1091.214600,1502.162109 1089.578613,1510.244019 
	C1087.145874,1522.262451 1085.376221,1534.415039 1082.631836,1546.353271 
	C1069.766357,1540.966797 1057.533081,1535.871704 1045.457153,1530.427612 
	C1041.802246,1528.780029 1038.839844,1528.615234 1035.219849,1530.581787 
	C1022.108337,1537.704224 1008.907715,1544.673218 995.593445,1551.409058 
	C981.895386,1558.338867 969.197388,1566.201538 959.476746,1578.666504 
	C955.433105,1583.851685 953.301025,1587.899048 954.914612,1594.583008 
	C957.391846,1604.845459 958.640442,1615.404541 959.537598,1625.852905 
	C949.825012,1624.723755 941.012573,1622.986816 932.139099,1622.579102 
	C919.931458,1622.018188 907.305664,1620.597046 895.536804,1622.943604 
	C880.437927,1625.954224 865.451965,1631.001709 853.042358,1641.249146 
	C849.486328,1644.185547 845.495605,1646.687378 841.432373,1648.885986 
	C838.617859,1650.408813 835.258301,1652.134644 832.280640,1651.912720 
	C824.182190,1651.309570 817.417114,1653.828979 810.883423,1658.218628 
	C807.905762,1660.219116 804.343689,1661.349609 801.232544,1661.907471 
	C803.391785,1647.546997 804.984680,1634.467651 812.366028,1622.114380 
	C818.762939,1611.408691 820.415527,1598.169434 818.333557,1585.466919 
	C815.756775,1569.745728 812.210938,1554.181396 808.989075,1538.568848 
	C806.191284,1525.010864 805.863647,1511.642700 811.410583,1498.600342 
	C814.188599,1492.068726 813.785278,1485.589478 810.453857,1479.423462 
	C808.414612,1475.649170 806.021057,1472.042114 803.533936,1468.539429 
	C797.958740,1460.687622 790.344849,1453.661499 787.049988,1444.975708 
	C783.238342,1434.927002 777.432800,1427.875000 768.964478,1422.194702 
	C763.722717,1418.678589 758.453674,1415.185669 753.407227,1411.401733 
	C749.785828,1408.686401 746.512390,1405.506958 743.362000,1402.775879 
	C745.131592,1398.312012 746.450012,1394.986084 747.758484,1391.685303 
	C741.183105,1385.454346 733.853027,1385.990845 725.988770,1386.784790 
	C717.829773,1387.608398 709.477478,1387.455566 701.292725,1386.756958 
	C695.804016,1386.288452 690.459839,1384.125244 683.681641,1382.364624 
	C683.681641,1380.042725 682.551147,1376.249512 683.925659,1373.960815 
	C686.495300,1369.682007 685.812073,1365.871582 685.030334,1361.553711 
	C683.140869,1351.118164 681.273438,1340.660400 680.000977,1330.138550 
	C679.351074,1324.765137 677.400513,1320.449219 673.144287,1317.434692 
	C667.021301,1313.098022 663.859680,1307.299438 662.871826,1299.979126 
	C662.340088,1296.038452 660.962341,1292.207764 660.483704,1288.264648 
	C659.274231,1278.301392 658.453796,1268.255249 663.531067,1258.988647 
	C665.888733,1254.685547 665.169312,1250.869751 663.146545,1246.720581 
	C658.046936,1247.008911 653.112427,1247.564697 648.186157,1247.499023 
	C641.416321,1247.408813 640.246216,1246.134521 639.814636,1239.197754 
	C639.598816,1235.728760 639.777039,1232.235107 639.777039,1227.524658 
	C633.774292,1229.630981 629.141846,1230.569824 625.214966,1232.768677 
	C615.111694,1238.425781 604.346375,1241.186523 592.901978,1241.840576 
	C573.986938,1242.921631 555.055542,1243.917236 537.041199,1250.712769 
	C535.504089,1251.292603 533.837219,1252.020020 532.267212,1251.942139 
	C521.142883,1251.390259 513.107544,1257.811523 504.791626,1263.733643 
	C495.711975,1270.199707 486.324921,1274.106567 474.370911,1272.801758 
	C465.557739,1271.839600 457.623962,1270.764038 450.410828,1265.247192 
	C447.946198,1263.362183 444.143250,1263.255981 440.980835,1262.245972 
	C437.829315,1261.239502 434.596985,1260.375122 431.603210,1259.004639 
	C418.171295,1252.855713 405.109772,1254.222534 392.549713,1261.160034 
	C387.631561,1263.876465 383.438110,1267.873291 378.688721,1270.936646 
	C374.527039,1273.621094 373.210876,1277.185181 373.543091,1281.928589 
	C373.837921,1286.138794 373.604919,1290.385986 373.604919,1295.711304 
	C361.671112,1294.845947 356.565857,1302.668213 352.119110,1311.788574 
	C350.270844,1315.579590 347.376068,1319.119141 344.227325,1321.965698 
	C336.585876,1328.873657 328.516296,1335.308105 320.619080,1341.933228 
	C315.647919,1346.103882 310.364258,1348.948975 303.418579,1348.196045 
	C296.412720,1347.436768 289.567902,1347.945435 283.486847,1352.642578 
	C281.658112,1354.054932 278.448486,1353.842407 275.845490,1354.051758 
	C271.872559,1354.371582 267.877014,1354.410889 263.209167,1354.330078 
	C255.348602,1350.092163 248.578140,1344.778076 240.898193,1342.394775 
	C228.554520,1338.564209 217.759293,1333.656250 209.304352,1323.223877 
	C205.222244,1318.187012 203.218552,1314.400513 205.960587,1308.409546 
	C209.925827,1299.746216 207.540314,1292.092407 201.015274,1285.787354 
	C198.487228,1283.344604 195.174408,1281.183350 191.834946,1280.204834 
	C178.793686,1276.383057 171.145920,1267.744751 167.528976,1254.977295 
	C166.628494,1251.798706 165.516495,1248.649170 164.170807,1245.633789 
	C160.831818,1238.151855 157.951782,1230.309326 150.495834,1225.623535 
z"/>
<path data-name="Tonga" style="fill: {#6D5991}" fill="#6D5991" opacity="1.000000" stroke="none" 
	d="
M1708.698853,1862.326660 
	C1708.367798,1864.386230 1707.656006,1866.283203 1706.496582,1867.848511 
	C1703.022583,1872.538452 1700.485474,1877.316650 1702.077515,1883.518555 
	C1702.516724,1885.229614 1701.603760,1887.287964 1701.364990,1888.837524 
	C1694.142334,1892.943726 1689.081299,1885.585205 1682.984131,1886.302734 
	C1682.666260,1886.828979 1682.309570,1887.144531 1682.355347,1887.382935 
	C1685.015137,1901.273071 1676.258545,1910.873413 1669.892090,1921.520386 
	C1664.802368,1930.032227 1660.919556,1939.262451 1655.896362,1947.818604 
	C1650.044189,1957.786621 1644.838257,1968.674194 1636.847046,1976.654541 
	C1631.593384,1981.901123 1622.022705,1983.143188 1614.130859,1985.204834 
	C1612.163208,1985.718750 1608.872192,1982.826416 1606.795654,1980.859619 
	C1603.948486,1978.162476 1601.679810,1974.854370 1598.961548,1971.563843 
	C1581.688110,1978.536987 1566.126953,1988.799316 1547.478027,1991.986450 
	C1544.951660,1986.174438 1542.729614,1981.062378 1540.362915,1975.617554 
	C1527.957642,1975.919434 1516.472290,1978.765381 1505.582520,1984.662231 
	C1502.599854,1986.277466 1498.631958,1986.073486 1494.954468,1986.733398 
	C1492.730103,1989.679443 1490.219849,1992.750366 1487.985718,1996.010620 
	C1481.492554,2005.486694 1481.536011,2005.516479 1471.876099,2000.572388 
	C1462.415649,2003.289307 1457.431396,2010.425659 1453.855591,2019.040649 
	C1449.352417,2029.890503 1447.895630,2030.643433 1435.763672,2029.099487 
	C1431.051514,2028.499878 1426.971680,2031.273926 1426.413208,2036.692749 
	C1425.656616,2044.035889 1421.326294,2047.485840 1414.837280,2048.111572 
	C1405.464478,2049.015137 1400.409790,2056.020996 1394.801636,2061.807373 
	C1390.759644,2065.977295 1392.341309,2071.559814 1397.641846,2076.696533 
	C1402.394897,2081.302490 1402.587769,2081.168701 1401.465210,2090.062256 
	C1388.474609,2095.609619 1374.921631,2101.618408 1361.191528,2107.191162 
	C1350.044067,2111.715576 1339.108643,2116.433838 1330.017944,2124.625977 
	C1327.103638,2127.252441 1325.002808,2129.903564 1326.052734,2134.084229 
	C1327.543335,2140.020508 1324.076782,2143.127197 1319.666382,2146.205322 
	C1312.581299,2151.149902 1305.616821,2156.334961 1299.083740,2161.977051 
	C1295.144287,2165.378906 1291.924438,2169.689941 1288.730469,2173.860107 
	C1285.125244,2178.567139 1282.865479,2184.418701 1276.801147,2186.903809 
	C1275.951050,2187.251953 1275.025146,2188.100098 1274.698364,2188.937012 
	C1269.574951,2202.057617 1256.873535,2207.151855 1247.136963,2215.443359 
	C1242.744873,2219.183594 1239.395508,2224.236816 1235.936523,2228.960449 
	C1231.661499,2234.798584 1228.052734,2241.135742 1223.639404,2246.858643 
	C1215.943359,2256.838379 1208.061768,2266.693115 1199.850708,2276.250488 
	C1194.721436,2282.220459 1188.543091,2287.289307 1183.412598,2293.258301 
	C1180.064941,2297.152832 1177.685547,2301.896240 1175.006226,2306.340332 
	C1173.821899,2308.304932 1173.526367,2311.397949 1171.873779,2312.388916 
	C1162.716553,2317.879883 1157.882690,2327.378174 1150.541016,2334.501953 
	C1150.093872,2334.935791 1149.361450,2335.075684 1148.758911,2335.346191 
	C1141.889771,2332.303955 1139.217651,2327.390381 1140.258911,2319.850586 
	C1140.800537,2315.927734 1141.002563,2311.942383 1141.783203,2308.071045 
	C1144.053711,2296.811523 1137.600952,2289.774414 1129.933960,2283.464600 
	C1123.179077,2277.905762 1115.663330,2279.288818 1109.332275,2281.734863 
	C1101.473633,2277.679688 1094.713623,2273.365723 1087.351074,2270.742676 
	C1083.697144,2269.441162 1078.651367,2270.427490 1074.726929,2271.792725 
	C1059.858398,2276.964600 1045.577759,2275.875977 1031.090088,2270.129883 
	C1025.335571,2267.847900 1018.733826,2267.805664 1012.696472,2266.108154 
	C1004.083679,2263.686279 995.378723,2261.282959 987.173035,2257.791016 
	C972.630554,2251.602295 957.450562,2248.392578 941.951233,2246.175049 
	C931.762024,2244.717285 921.578552,2243.217529 911.400208,2241.685547 
	C909.771973,2241.440430 908.029785,2241.223877 906.601562,2240.487549 
	C887.702698,2230.742920 866.427551,2226.829346 848.062134,2215.440186 
	C829.767700,2204.095215 833.087097,2206.173584 819.679871,2216.997314 
	C808.811951,2225.770996 796.753235,2231.708252 783.643250,2235.573242 
	C768.484009,2240.043213 754.606384,2246.811279 741.544617,2255.634277 
	C732.450623,2261.777344 723.005066,2267.426514 713.501282,2272.924316 
	C709.191406,2275.417480 706.359375,2278.718018 704.639893,2283.249023 
	C699.336792,2297.222168 693.885437,2311.140381 688.742432,2325.171875 
	C687.742371,2327.900391 687.959778,2331.057617 687.466064,2333.991699 
	C683.969727,2354.771973 677.025757,2374.510254 666.854431,2392.789795 
	C663.379822,2399.033936 656.248718,2403.679688 649.961182,2407.791016 
	C644.494324,2411.365723 638.067505,2414.207031 631.689148,2415.461426 
	C624.239380,2416.926514 619.115051,2421.122314 614.067017,2425.933350 
	C611.665710,2428.221924 609.425781,2430.714355 607.353333,2433.306641 
	C602.017578,2439.981445 595.640747,2443.572510 586.658997,2442.385254 
	C579.653137,2441.459473 575.149780,2445.526611 571.147888,2451.187744 
	C566.778870,2457.368408 561.405884,2462.912109 555.980652,2468.234131 
	C554.030701,2470.146729 550.739258,2470.918213 547.916443,2471.674072 
	C537.763794,2474.393799 535.281006,2477.500244 535.723328,2487.669922 
	C535.853516,2490.662598 535.972290,2493.662109 536.281311,2496.639404 
	C536.935608,2502.943848 535.090393,2507.281982 528.683167,2510.006348 
	C522.178589,2512.771973 518.986938,2519.002686 517.391479,2525.587891 
	C515.944702,2531.559082 512.809937,2536.399902 507.522614,2538.643555 
	C499.517639,2542.040771 494.601898,2548.659912 488.479706,2554.095703 
	C482.586426,2559.328125 476.255463,2564.115967 469.781921,2568.617676 
	C467.813477,2569.986572 464.717987,2569.689697 462.167267,2570.279297 
	C459.419342,2570.914307 456.704895,2571.694092 453.987915,2573.205566 
	C452.500000,2574.000000 451.000000,2574.000000 448.889771,2573.167725 
	C447.348267,2567.823730 447.017365,2563.081055 445.383667,2558.839844 
	C437.615051,2538.672852 429.488953,2518.643799 421.495117,2498.563232 
	C404.648346,2456.244629 387.997345,2413.846191 370.790283,2371.674561 
	C367.519196,2363.657959 367.881744,2357.842529 373.421295,2350.919189 
	C381.547394,2340.763184 386.618683,2328.779053 390.465271,2316.248291 
	C394.259308,2303.888916 398.921082,2291.798340 403.061829,2279.542236 
	C404.758636,2274.519775 406.854950,2269.456787 407.423187,2264.264893 
	C408.601501,2253.499268 406.321350,2239.620117 389.397919,2236.875977 
	C386.961121,2236.480469 384.567627,2235.818359 381.369141,2235.104980 
	C382.715271,2232.901367 383.469910,2231.484375 384.390564,2230.185303 
	C405.354706,2200.600342 426.491913,2171.136230 447.252258,2141.409180 
	C458.089447,2125.891357 469.097321,2110.393555 478.561462,2094.038086 
	C494.713806,2066.124512 509.795837,2037.588623 525.160034,2009.223511 
	C533.538025,1993.755981 541.572083,1978.102417 550.311035,1962.048828 
	C552.946777,1957.439575 554.717712,1953.114990 557.177124,1949.225830 
	C564.818359,1937.142090 572.940186,1925.357056 580.383118,1913.155762 
	C582.502625,1909.681030 584.037231,1905.150269 583.919495,1901.160400 
	C583.696167,1893.592041 582.353394,1886.015747 580.994141,1878.530273 
	C578.227356,1863.293579 578.384155,1849.963379 594.221619,1840.469360 
	C605.554260,1833.676025 615.147766,1824.052979 621.532959,1811.901489 
	C622.428772,1810.196777 623.862854,1808.380493 625.517517,1807.531616 
	C637.534973,1801.366699 644.434631,1790.066162 653.098572,1780.532227 
	C665.777527,1766.580322 680.203857,1756.009766 698.473083,1749.279785 
	C732.827209,1736.624756 766.427490,1721.967285 794.583191,1697.302979 
	C799.079163,1693.364624 800.183228,1689.881470 800.177673,1684.673340 
	C800.169922,1677.407471 800.729736,1670.140991 801.046692,1662.874756 
	C804.343689,1661.349609 807.905762,1660.219116 810.883423,1658.218628 
	C817.417114,1653.828979 824.182190,1651.309570 832.280640,1651.912720 
	C835.258301,1652.134644 838.617859,1650.408813 841.432373,1648.885986 
	C845.495605,1646.687378 849.486328,1644.185547 853.042358,1641.249146 
	C865.451965,1631.001709 880.437927,1625.954224 895.536804,1622.943604 
	C907.305664,1620.597046 919.931458,1622.018188 932.139099,1622.579102 
	C941.012573,1622.986816 949.825012,1624.723755 959.979736,1626.388672 
	C964.428650,1634.955566 967.682129,1642.957886 970.649536,1651.064941 
	C972.315857,1655.617432 974.831360,1657.876831 980.085205,1658.009644 
	C996.016174,1658.412476 1011.934875,1659.342041 1027.853638,1660.158936 
	C1033.479492,1660.447510 1039.112549,1660.826660 1044.704224,1661.486694 
	C1049.943848,1662.105225 1054.104126,1661.045044 1058.287720,1657.289551 
	C1074.607422,1642.640747 1091.265259,1628.366455 1107.899902,1614.072021 
	C1115.618774,1607.439331 1115.681274,1607.330933 1110.923584,1598.457153 
	C1101.658569,1581.176514 1092.516968,1563.829956 1083.324341,1546.510620 
	C1085.376221,1534.415039 1087.145874,1522.262451 1089.578613,1510.244019 
	C1091.214600,1502.162109 1091.634033,1502.167969 1100.209473,1502.141113 
	C1117.864624,1502.085938 1135.519897,1502.124023 1153.175171,1502.123901 
	C1167.832275,1502.123779 1182.502686,1502.499756 1197.141724,1501.984497 
	C1206.071045,1501.670166 1214.274658,1503.299927 1222.166016,1507.213623 
	C1223.657104,1507.953003 1225.216797,1508.556641 1226.693237,1509.322266 
	C1239.624634,1516.029419 1253.093994,1519.836304 1267.911377,1518.265991 
	C1272.419556,1517.788330 1277.407959,1518.121704 1281.663940,1519.579590 
	C1313.485840,1530.480835 1346.419189,1537.051514 1378.887817,1545.459595 
	C1407.181152,1552.786499 1434.688110,1563.099609 1462.829712,1571.080444 
	C1482.927734,1576.779907 1503.473755,1580.928223 1523.896851,1585.417603 
	C1526.515259,1585.993164 1529.774414,1584.882568 1532.434326,1583.805664 
	C1539.833252,1580.810303 1547.043091,1577.351562 1554.391113,1574.224487 
	C1557.062134,1573.087769 1559.912109,1572.371582 1563.742065,1571.115234 
	C1568.742432,1581.404663 1573.583130,1591.182617 1578.264038,1601.036499 
	C1587.404175,1620.276855 1596.401611,1639.585205 1605.552490,1658.820435 
	C1635.583252,1721.945312 1665.541992,1785.105225 1695.917603,1848.063843 
	C1698.504883,1853.426514 1703.979980,1857.395996 1708.698853,1862.326660 
z"/>
<path data-name="Bazou" style="fill: {#73D9CD}" fill="#73D9CD" opacity="1.000000" stroke="none" 
	d="
M550.311096,1962.048828 
	C544.343567,1960.936523 538.883545,1959.470093 533.516174,1957.719360 
	C518.997253,1952.983521 513.827271,1959.741943 512.807556,1971.163574 
	C511.036438,1991.002563 506.340485,2009.713379 498.498230,2027.854736 
	C496.927795,2031.487427 495.829956,2035.418213 495.141479,2039.322388 
	C492.085815,2056.649658 483.494049,2071.636719 476.007904,2087.212646 
	C470.284821,2099.120605 462.639557,2109.327637 454.060364,2119.062012 
	C452.089600,2121.298096 450.028656,2123.572510 447.619629,2125.279297 
	C442.950592,2128.587891 439.555481,2128.058594 435.204498,2123.950684 
	C431.120056,2120.094482 430.475494,2116.305420 433.699280,2111.491211 
	C436.281311,2107.635742 439.374573,2104.121338 442.261871,2100.471924 
	C450.390320,2090.198242 454.407776,2078.550293 454.376251,2065.417236 
	C454.360443,2058.833984 455.286194,2052.226074 454.957703,2045.670776 
	C454.158142,2029.717529 442.963104,2019.637085 433.303528,2008.738892 
	C424.926392,1999.287476 416.544922,1989.838013 408.301788,1980.270142 
	C401.175018,1971.998169 402.296021,1961.655762 401.983765,1951.851929 
	C401.921783,1949.906616 404.640167,1947.607910 406.483185,1945.914917 
	C412.803619,1940.108643 419.745697,1934.917969 425.635101,1928.717773 
	C434.741699,1919.130737 437.110382,1907.999634 430.643951,1895.792603 
	C427.997955,1890.797607 425.320435,1885.819458 422.661407,1880.831421 
	C418.810150,1873.606812 416.836243,1866.235352 419.077942,1857.900269 
	C420.618744,1852.171021 420.876587,1846.109985 422.077209,1840.273193 
	C424.006622,1830.893311 426.351440,1821.599121 428.299286,1812.222778 
	C429.234985,1807.718506 430.676208,1802.983276 430.127380,1798.571655 
	C428.659882,1786.775024 427.800934,1774.665039 422.223358,1763.861572 
	C420.014038,1759.582153 416.375366,1756.040894 413.706909,1752.577881 
	C409.022583,1753.262939 405.464172,1753.952271 401.872803,1754.274536 
	C393.428619,1755.032593 385.277222,1754.139038 377.998932,1749.256836 
	C371.381958,1744.818481 364.077454,1743.457031 356.178894,1743.570312 
	C347.040558,1743.701416 345.481384,1742.236938 342.211090,1733.990845 
	C341.162537,1731.346924 339.591248,1728.910156 337.982727,1725.853394 
	C332.789032,1729.451782 328.357819,1732.306396 324.168060,1735.479614 
	C319.006165,1739.389038 313.780029,1740.415894 307.368134,1738.429688 
	C302.411102,1736.894287 296.972321,1736.702393 291.719452,1736.392944 
	C286.429871,1736.081299 281.061646,1736.960449 277.073517,1731.927124 
	C276.151001,1730.762817 273.305542,1730.316040 271.608246,1730.700806 
	C259.254700,1733.501099 247.318985,1729.286621 235.177750,1728.791748 
	C231.213135,1728.630371 227.276199,1727.790161 222.162552,1727.104126 
	C223.442154,1723.991455 224.212463,1720.828369 225.889694,1718.256958 
	C233.802002,1706.126343 234.778015,1692.885498 232.871811,1679.043213 
	C232.058960,1673.140625 231.331970,1667.210815 230.983795,1661.268921 
	C230.879776,1659.493774 232.062164,1657.575806 232.877335,1655.826782 
	C235.576553,1650.035400 234.529221,1644.838379 230.574738,1640.055542 
	C229.940094,1639.288208 229.258453,1638.516968 228.462891,1637.932007 
	C217.220871,1629.666382 218.806091,1620.939575 224.894302,1606.781250 
	C229.071884,1597.066040 232.745438,1587.133789 236.630188,1577.293091 
	C236.995544,1576.367310 237.788544,1575.167480 237.489182,1574.489868 
	C234.000183,1566.591064 238.007889,1558.743896 237.500565,1550.986694 
	C236.452942,1534.967529 240.139069,1519.446411 241.301437,1503.676392 
	C242.056595,1493.430786 243.313171,1483.222412 244.324371,1472.995239 
	C244.422455,1472.003418 244.233627,1470.970825 244.415161,1470.001465 
	C246.405167,1459.375488 248.158188,1448.692383 250.600906,1438.169922 
	C251.635818,1433.712158 252.111404,1429.629517 249.790863,1425.662231 
	C247.261993,1421.338745 248.012436,1417.665649 250.815460,1413.709717 
	C257.514404,1404.255615 261.396240,1394.442505 259.061584,1382.038452 
	C257.874451,1375.731079 261.339355,1368.542114 262.734314,1361.758423 
	C263.124146,1359.862793 263.631378,1357.991455 263.987915,1355.339111 
	C267.877014,1354.410889 271.872559,1354.371582 275.845490,1354.051758 
	C278.448486,1353.842407 281.658112,1354.054932 283.486847,1352.642578 
	C289.567902,1347.945435 296.412720,1347.436768 303.418579,1348.196045 
	C310.364258,1348.948975 315.647919,1346.103882 320.619080,1341.933228 
	C328.516296,1335.308105 336.585876,1328.873657 344.227325,1321.965698 
	C347.376068,1319.119141 350.270844,1315.579590 352.119110,1311.788574 
	C356.565857,1302.668213 361.671112,1294.845947 373.604919,1295.711304 
	C373.604919,1290.385986 373.837921,1286.138794 373.543091,1281.928589 
	C373.210876,1277.185181 374.527039,1273.621094 378.688721,1270.936646 
	C383.438110,1267.873291 387.631561,1263.876465 392.549713,1261.160034 
	C405.109772,1254.222534 418.171295,1252.855713 431.603210,1259.004639 
	C434.596985,1260.375122 437.829315,1261.239502 440.980835,1262.245972 
	C444.143250,1263.255981 447.946198,1263.362183 450.410828,1265.247192 
	C457.623962,1270.764038 465.557739,1271.839600 474.370911,1272.801758 
	C486.324921,1274.106567 495.711975,1270.199707 504.791626,1263.733643 
	C513.107544,1257.811523 521.142883,1251.390259 532.267212,1251.942139 
	C533.837219,1252.020020 535.504089,1251.292603 537.041199,1250.712769 
	C555.055542,1243.917236 573.986938,1242.921631 592.901978,1241.840576 
	C604.346375,1241.186523 615.111694,1238.425781 625.214966,1232.768677 
	C629.141846,1230.569824 633.774292,1229.630981 639.777039,1227.524658 
	C639.777039,1232.235107 639.598816,1235.728760 639.814636,1239.197754 
	C640.246216,1246.134521 641.416321,1247.408813 648.186157,1247.499023 
	C653.112427,1247.564697 658.046936,1247.008911 663.146545,1246.720581 
	C665.169312,1250.869751 665.888733,1254.685547 663.531067,1258.988647 
	C658.453796,1268.255249 659.274231,1278.301392 660.483704,1288.264648 
	C660.962341,1292.207764 662.340088,1296.038452 662.871826,1299.979126 
	C663.859680,1307.299438 667.021301,1313.098022 673.144287,1317.434692 
	C677.400513,1320.449219 679.351074,1324.765137 680.000977,1330.138550 
	C681.273438,1340.660400 683.140869,1351.118164 685.030334,1361.553711 
	C685.812073,1365.871582 686.495300,1369.682007 683.925659,1373.960815 
	C682.551147,1376.249512 683.681641,1380.042725 683.681641,1382.364624 
	C690.459839,1384.125244 695.804016,1386.288452 701.292725,1386.756958 
	C709.477478,1387.455566 717.829773,1387.608398 725.988770,1386.784790 
	C733.853027,1385.990845 741.183105,1385.454346 747.758484,1391.685303 
	C746.450012,1394.986084 745.131592,1398.312012 743.362000,1402.775879 
	C746.512390,1405.506958 749.785828,1408.686401 753.407227,1411.401733 
	C758.453674,1415.185669 763.722717,1418.678589 768.964478,1422.194702 
	C777.432800,1427.875000 783.238342,1434.927002 787.049988,1444.975708 
	C790.344849,1453.661499 797.958740,1460.687622 803.533936,1468.539429 
	C806.021057,1472.042114 808.414612,1475.649170 810.453857,1479.423462 
	C813.785278,1485.589478 814.188599,1492.068726 811.410583,1498.600342 
	C805.863647,1511.642700 806.191284,1525.010864 808.989075,1538.568848 
	C812.210938,1554.181396 815.756775,1569.745728 818.333557,1585.466919 
	C820.415527,1598.169434 818.762939,1611.408691 812.366028,1622.114380 
	C804.984680,1634.467651 803.391785,1647.546997 801.232544,1661.907471 
	C800.729736,1670.140991 800.169922,1677.407471 800.177673,1684.673340 
	C800.183228,1689.881470 799.079163,1693.364624 794.583191,1697.302979 
	C766.427490,1721.967285 732.827209,1736.624756 698.473083,1749.279785 
	C680.203857,1756.009766 665.777527,1766.580322 653.098572,1780.532227 
	C644.434631,1790.066162 637.534973,1801.366699 625.517517,1807.531616 
	C623.862854,1808.380493 622.428772,1810.196777 621.532959,1811.901489 
	C615.147766,1824.052979 605.554260,1833.676025 594.221619,1840.469360 
	C578.384155,1849.963379 578.227356,1863.293579 580.994141,1878.530273 
	C582.353394,1886.015747 583.696167,1893.592041 583.919495,1901.160400 
	C584.037231,1905.150269 582.502625,1909.681030 580.383118,1913.155762 
	C572.940186,1925.357056 564.818359,1937.142090 557.177124,1949.225830 
	C554.717712,1953.114990 552.946777,1957.439575 550.311096,1962.048828 
z"/>
<path data-name="Bassamba" style="fill: {#68F65E}" fill="#68F65E" opacity="1.000000" stroke="none" 
	d="
M1082.631836,1546.353271 
	C1092.516968,1563.829956 1101.658569,1581.176514 1110.923584,1598.457153 
	C1115.681274,1607.330933 1115.618774,1607.439331 1107.899902,1614.072021 
	C1091.265259,1628.366455 1074.607422,1642.640747 1058.287720,1657.289551 
	C1054.104126,1661.045044 1049.943848,1662.105225 1044.704224,1661.486694 
	C1039.112549,1660.826660 1033.479492,1660.447510 1027.853638,1660.158936 
	C1011.934875,1659.342041 996.016174,1658.412476 980.085205,1658.009644 
	C974.831360,1657.876831 972.315857,1655.617432 970.649536,1651.064941 
	C967.682129,1642.957886 964.428650,1634.955566 960.852661,1626.373535 
	C958.640442,1615.404541 957.391846,1604.845459 954.914612,1594.583008 
	C953.301025,1587.899048 955.433105,1583.851685 959.476746,1578.666504 
	C969.197388,1566.201538 981.895386,1558.338867 995.593445,1551.409058 
	C1008.907715,1544.673218 1022.108337,1537.704224 1035.219849,1530.581787 
	C1038.839844,1528.615234 1041.802246,1528.780029 1045.457153,1530.427612 
	C1057.533081,1535.871704 1069.766357,1540.966797 1082.631836,1546.353271 
z"/>
</svg>