<svg version="1.1" id="Layer_1" xmlns="http://www.w3.org/2000/svg" xmlns:xlink="http://www.w3.org/1999/xlink" x="0px" y="0px"
	 width="100%" viewBox="0 0 2281 2931" enable-background="new 0 0 2281 2931" xml:space="preserve">

<path data-name="Mfou" style="fill: {#C25B4E}" fill="#C25B4E" opacity="1.000000" stroke="none" 
	d="
M814.326538,2386.470215 
	C814.122131,2396.778809 813.371094,2407.112793 813.850159,2417.389648 
	C814.464050,2430.557617 807.119019,2439.031250 798.231567,2446.835205 
	C794.250122,2450.331543 789.966003,2453.489990 785.747742,2456.707764 
	C781.776611,2459.737061 780.705261,2463.913086 782.132080,2468.258301 
	C783.506714,2472.444336 786.280762,2475.408936 791.438293,2476.020020 
	C798.339539,2476.837891 805.077393,2478.998779 811.974854,2479.891846 
	C823.874451,2481.432617 829.784424,2488.869629 832.768311,2499.595703 
	C833.213318,2501.195557 833.677490,2502.793945 834.030701,2504.415039 
	C838.147705,2523.312256 850.295776,2534.816406 867.874329,2541.437744 
	C870.313782,2542.356445 872.626892,2543.744385 874.803467,2545.205566 
	C888.583435,2554.455078 902.619080,2563.365234 915.963501,2573.209961 
	C929.146667,2582.936279 943.301819,2587.431885 959.722046,2586.385986 
	C968.868896,2585.803711 978.351379,2586.003174 986.580811,2591.488281 
	C993.108887,2595.838867 996.949707,2605.515625 995.446411,2613.073975 
	C993.098816,2624.876465 988.375061,2634.790039 977.660400,2641.682617 
	C962.174255,2651.644531 951.286194,2666.807373 937.552185,2678.767334 
	C929.057495,2686.164551 919.022278,2691.846924 910.840820,2699.535645 
	C900.914490,2708.864258 889.363342,2713.795898 876.363892,2715.627441 
	C863.399414,2717.454834 854.209656,2724.045410 848.453979,2735.522461 
	C846.387512,2739.643066 843.745422,2742.915283 839.217712,2743.863525 
	C824.609741,2746.921631 813.949219,2756.749023 802.459290,2765.096680 
	C792.536865,2772.305420 782.795044,2779.775391 773.211853,2787.428467 
	C771.031372,2789.169189 769.508667,2791.982178 768.241943,2794.574951 
	C763.291138,2804.707764 758.566589,2814.951172 753.748962,2825.149414 
	C753.465881,2825.748779 752.842957,2826.300781 752.818970,2826.892578 
	C752.271484,2840.418213 743.666321,2850.892090 739.054138,2862.865723 
	C736.587769,2869.268311 735.081909,2875.418457 736.046082,2882.236084 
	C736.454346,2885.122803 736.114258,2888.115234 736.114258,2889.925293 
	C723.313965,2889.257568 711.174316,2888.529541 699.025391,2888.026611 
	C691.989746,2887.735352 687.915710,2890.468506 688.859680,2896.935547 
	C690.305542,2906.841553 685.868896,2915.002197 683.588989,2923.839355 
	C682.842346,2926.733887 682.044739,2929.614990 681.635254,2933.250977 
	C677.916687,2934.000000 673.833313,2934.000000 669.221558,2933.214355 
	C662.370605,2931.011963 656.096802,2929.290771 649.710938,2928.270264 
	C644.189941,2927.387939 638.982788,2926.097412 636.601562,2920.583252 
	C630.466125,2906.375000 618.450928,2898.016357 606.580444,2889.390869 
	C602.602966,2886.500732 598.433350,2885.052490 593.544067,2885.591064 
	C584.442871,2886.593506 576.751587,2884.694092 570.326416,2877.183350 
	C565.932861,2872.047363 562.946838,2872.798828 557.625122,2877.684814 
	C556.398682,2878.810791 555.192749,2879.972412 554.089294,2881.216797 
	C546.781006,2889.459473 537.135742,2892.864014 526.615234,2893.456055 
	C518.449463,2893.915039 511.531982,2896.696777 506.229126,2902.521484 
	C502.679749,2906.420166 499.161346,2906.791504 494.688019,2905.417969 
	C490.019897,2903.984131 487.141113,2901.101318 484.465363,2896.804443 
	C476.492371,2884.000244 467.582245,2872.048096 450.204346,2871.364990 
	C447.350494,2871.252686 443.935730,2868.967041 441.926849,2866.678955 
	C433.710144,2857.320801 427.364471,2847.052002 428.171539,2833.751953 
	C428.368530,2830.505615 427.390747,2827.177246 426.871216,2823.899658 
	C424.419464,2808.432373 421.019135,2792.511719 424.844391,2777.360596 
	C428.596252,2762.500488 426.829834,2749.612549 421.226013,2735.949707 
	C418.815338,2730.072021 415.520782,2727.527344 410.069489,2726.436768 
	C408.121490,2726.047363 406.066132,2726.203125 404.112244,2725.833008 
	C390.519104,2723.257568 381.774048,2714.034180 376.620728,2702.398682 
	C373.747681,2695.911377 370.764801,2690.904785 364.752441,2687.406494 
	C361.328339,2685.413818 358.227356,2682.855713 355.028320,2680.488037 
	C347.006409,2674.550537 339.219391,2668.266846 330.944794,2662.707764 
	C323.295898,2657.568848 313.904633,2660.841797 310.541595,2669.450195 
	C309.352264,2672.494385 308.767517,2675.838379 308.336090,2679.102295 
	C307.423279,2686.007080 306.800720,2692.949951 306.045227,2699.875977 
	C304.925842,2710.138916 301.675720,2712.008789 292.359467,2707.223389 
	C279.907166,2700.827637 265.173553,2697.811279 258.214630,2683.132568 
	C246.556107,2688.067383 235.691635,2692.181641 225.288864,2697.244873 
	C218.688049,2700.457764 212.653397,2700.765869 206.184799,2697.718018 
	C203.815109,2696.601562 201.358002,2695.670166 198.332764,2694.398926 
	C199.750229,2683.957764 192.735992,2677.481201 187.195389,2670.064941 
	C183.485107,2665.098633 180.783264,2659.338623 177.935013,2653.777832 
	C174.140976,2646.370850 178.293350,2639.576172 179.909409,2632.566406 
	C181.122589,2627.304199 186.083694,2628.306885 189.306992,2626.405518 
	C195.046631,2623.020020 200.604828,2619.532227 200.971146,2611.756592 
	C201.158203,2607.785889 201.609909,2603.802734 202.291367,2599.885742 
	C203.582764,2592.463135 201.523346,2586.539062 196.165497,2581.057129 
	C189.768311,2574.511719 184.159164,2567.196289 177.684799,2559.599609 
	C182.558441,2556.675537 186.830185,2553.440186 191.609222,2551.383545 
	C201.876038,2546.964844 206.065964,2538.924805 205.532623,2528.483154 
	C205.212601,2522.217529 208.143768,2518.357422 212.444855,2515.037109 
	C218.765182,2510.158447 225.487961,2505.795898 231.749710,2500.847168 
	C252.960297,2484.083984 249.907410,2488.287598 244.945267,2465.799316 
	C244.280960,2462.788574 243.909912,2458.504150 245.508987,2456.445312 
	C249.286743,2451.581055 247.512924,2447.434814 246.465134,2442.449951 
	C243.946213,2430.466309 241.342194,2418.358154 240.578781,2406.187256 
	C239.814667,2394.005127 241.027939,2381.671143 241.849792,2369.435547 
	C242.078278,2366.034424 243.668060,2362.587158 245.204071,2359.439453 
	C248.528198,2352.627686 255.564758,2350.845703 262.058655,2348.463135 
	C262.629578,2337.056396 264.121887,2326.067627 263.383789,2315.230957 
	C262.908173,2308.247803 263.785034,2302.453125 267.474457,2296.796631 
	C267.724823,2296.412842 267.304901,2295.591797 267.202942,2295.009766 
	C262.827515,2292.206299 258.473938,2289.416992 253.754959,2286.393311 
	C258.340271,2278.578125 256.123505,2271.961182 249.753036,2266.178955 
	C246.926071,2263.613037 244.642502,2261.010498 247.246597,2256.686523 
	C248.044647,2255.361328 247.093979,2252.947754 246.860168,2251.042969 
	C246.163269,2245.365723 247.688370,2243.325928 253.325836,2242.202881 
	C257.503143,2241.371094 261.650452,2240.388672 266.691223,2239.484863 
	C274.874451,2239.034180 282.173889,2238.498779 289.481689,2238.130127 
	C297.313324,2237.734375 304.286224,2235.081543 311.121857,2231.289795 
	C321.602295,2225.476074 328.729706,2216.128906 336.940918,2207.937012 
	C341.068848,2203.818604 345.456848,2201.030518 351.229095,2199.478271 
	C357.195892,2197.873779 363.346619,2195.457275 368.268250,2191.835205 
	C374.642944,2187.144043 380.832947,2181.583252 385.378723,2175.174316 
	C391.754852,2166.184814 400.043701,2160.991699 410.165527,2157.950439 
	C415.787415,2156.260986 419.708771,2152.751221 423.517731,2148.210938 
	C431.842865,2138.286865 440.310669,2128.259521 450.040436,2119.791504 
	C463.248169,2108.296631 474.063171,2094.969482 484.530579,2081.159912 
	C501.002930,2059.427734 516.650146,2037.004517 537.572083,2019.015015 
	C541.971375,2015.232300 546.059692,2012.406860 552.093872,2011.402710 
	C594.585083,2004.331421 579.276306,2002.921753 619.739990,2011.905151 
	C623.405884,2012.718994 627.238037,2014.572021 630.073242,2017.011353 
	C639.409851,2025.044312 648.425720,2033.461792 657.339844,2041.967407 
	C660.180359,2044.677612 662.818237,2047.849731 664.698303,2051.277100 
	C677.348389,2074.338623 689.801331,2097.508789 702.224243,2120.694092 
	C703.779785,2123.596924 705.190369,2126.693848 705.980774,2129.871826 
	C712.558350,2156.318848 719.065430,2182.784424 725.376770,2209.296143 
	C726.984009,2216.047607 728.583679,2222.957031 728.818542,2229.840576 
	C729.146667,2239.456543 728.384888,2249.129883 727.713867,2258.752441 
	C727.278259,2264.999023 728.750366,2270.491455 731.927490,2275.823730 
	C749.816895,2305.849121 767.927795,2335.751465 785.241272,2366.107178 
	C791.970703,2377.905762 801.993164,2383.458740 814.326538,2386.470215 
z"/>
<path data-name="Afanloum" style="fill: {#DD92CB}" fill="#DD92CB" opacity="1.000000" stroke="none" 
	d="
M1782.744629,814.439575 
	C1792.185913,817.295959 1801.714478,819.899231 1811.031372,823.115295 
	C1815.702515,824.727539 1820.270020,827.029297 1824.398926,829.754761 
	C1840.834839,840.604004 1859.826294,839.148865 1878.065552,841.503418 
	C1888.526489,842.853821 1899.220459,843.316956 1908.853394,848.671814 
	C1910.916992,849.818970 1914.016357,849.918152 1916.442871,849.460815 
	C1929.278687,847.041260 1941.229126,842.084473 1952.518555,835.626038 
	C1955.005737,834.203186 1957.022583,831.769409 1958.902954,829.507568 
	C1966.331909,820.572205 1973.477783,811.397522 1981.047485,802.585388 
	C1983.322632,799.936890 1986.342285,797.514160 1989.517944,796.123047 
	C2004.992554,789.344421 2020.570679,782.786560 2036.265747,776.536621 
	C2040.140259,774.993774 2044.605225,774.170471 2048.772217,774.259583 
	C2065.356689,774.614319 2081.927979,775.887756 2098.509521,776.004395 
	C2115.131348,776.121277 2131.617676,777.034241 2148.129395,779.055115 
	C2154.872559,779.880432 2162.117188,778.806702 2168.824463,777.258362 
	C2181.498779,774.332764 2193.967041,776.965454 2206.453369,777.773315 
	C2210.742432,778.050781 2214.820801,781.521606 2219.004150,783.514954 
	C2230.795654,789.133789 2240.930664,796.380615 2249.333252,806.917480 
	C2255.480225,814.626099 2255.665283,822.018799 2255.351562,830.796631 
	C2254.867920,844.329041 2254.409180,858.072510 2256.293457,871.393555 
	C2257.280029,878.368042 2262.484375,885.296997 2267.256592,891.018005 
	C2271.394775,895.979309 2277.609131,899.209229 2283.452881,902.602173 
	C2284.000000,904.133362 2284.000000,906.266663 2284.000000,909.200012 
	C2281.790527,911.277832 2278.847412,912.028259 2277.488525,913.917786 
	C2267.462646,927.857239 2251.785889,930.722168 2236.864014,934.975952 
	C2234.502686,935.649048 2231.631104,934.932861 2229.073730,934.447205 
	C2218.670166,932.472229 2208.297119,930.336914 2196.950928,928.068359 
	C2194.562500,937.476135 2192.783447,946.884338 2189.754395,955.871094 
	C2184.774902,970.643860 2184.913330,985.957581 2184.591797,1001.089600 
	C2184.312012,1014.270630 2178.491455,1025.372925 2174.211182,1037.105347 
	C2173.399658,1039.329590 2170.753418,1041.014038 2168.708740,1042.639038 
	C2141.661621,1064.135376 2115.105469,1086.176392 2090.490234,1110.496338 
	C2085.828369,1115.102417 2080.208984,1119.081421 2074.377197,1122.075317 
	C2067.063232,1125.830078 2063.748291,1130.661743 2066.647461,1140.274414 
	C2076.083252,1144.415161 2086.616455,1149.037476 2097.454590,1154.588623 
	C2094.542236,1157.859863 2091.301270,1160.170166 2088.114502,1162.552979 
	C2084.673584,1165.125854 2079.989014,1167.063965 2078.117432,1170.511597 
	C2072.890381,1180.140747 2063.367676,1181.271118 2054.636719,1183.766602 
	C2049.043457,1185.365234 2043.689087,1184.198730 2039.585571,1178.892212 
	C2035.551636,1173.675049 2030.702759,1169.088013 2026.175415,1164.185303 
	C2020.902344,1165.377441 2016.027344,1166.339722 2011.241821,1167.632935 
	C2009.437500,1168.120728 2007.085571,1168.939575 2006.272705,1170.350342 
	C2001.504395,1178.625366 1995.357056,1186.057251 1993.685181,1196.114502 
	C1991.785889,1207.540527 1988.542725,1218.758911 1985.531494,1229.973022 
	C1984.789062,1232.737793 1982.885986,1235.282349 1981.166016,1237.676392 
	C1975.551636,1245.490845 1969.371216,1252.932373 1964.225220,1261.035889 
	C1961.480591,1265.357666 1958.812988,1270.784302 1958.928345,1275.645508 
	C1959.165405,1285.639893 1953.732178,1292.036377 1947.196167,1297.606079 
	C1943.024048,1301.161255 1937.368164,1303.000977 1932.323853,1305.501343 
	C1919.226562,1311.993408 1905.817871,1317.921265 1893.071289,1325.037720 
	C1882.404419,1330.993164 1874.040405,1340.381714 1870.042603,1351.651978 
	C1864.533691,1367.182983 1856.416992,1380.265503 1843.863525,1390.754150 
	C1842.868530,1391.585571 1842.192017,1392.798340 1840.806030,1393.557251 
	C1821.214478,1370.562500 1803.206665,1347.412964 1791.821289,1319.416626 
	C1781.826660,1294.839844 1771.815918,1270.082642 1756.065674,1248.207764 
	C1745.566895,1233.626709 1735.982544,1218.379150 1726.230835,1203.273560 
	C1723.741211,1199.416992 1721.632568,1195.134033 1720.271973,1190.759888 
	C1714.443726,1172.022949 1708.862061,1153.207153 1703.392090,1134.361694 
	C1700.618164,1124.804565 1697.513184,1115.248535 1695.896606,1105.470703 
	C1692.863037,1087.121460 1690.713501,1068.622681 1688.382690,1050.162476 
	C1687.511841,1043.266113 1685.357910,1035.880249 1686.870850,1029.441895 
	C1695.744263,991.682068 1700.749390,952.766785 1719.257446,917.748291 
	C1725.614868,905.719788 1730.272705,892.746948 1737.142090,881.048218 
	C1743.859253,869.609131 1752.551758,859.344910 1760.108398,848.379700 
	C1767.823975,837.183594 1775.212769,825.762268 1782.744629,814.439575 
z"/>
<path data-name="Edzendouan" style="fill: {#F2F55F}" fill="#F2F55F" opacity="1.000000" stroke="none" 
	d="
M1017.298340,438.092285 
	C1027.472534,441.481323 1036.903320,444.532776 1046.178345,448.001007 
	C1050.127686,449.477814 1054.198975,451.268250 1057.445923,453.874207 
	C1072.463013,465.926514 1087.272827,478.240753 1102.001221,490.646057 
	C1105.009521,493.179871 1107.546509,496.356415 1109.959839,499.498566 
	C1118.043213,510.023529 1125.972290,520.667175 1133.683472,530.897827 
	C1132.792969,534.497620 1132.082031,537.371460 1131.210205,540.895386 
	C1137.610229,546.322937 1143.907227,552.199646 1150.811279,557.246155 
	C1153.460327,559.182495 1157.553955,560.163025 1160.884766,559.949463 
	C1169.821655,559.376343 1177.761475,561.745667 1185.832764,565.287537 
	C1195.549805,569.551514 1205.665405,572.956482 1215.738281,576.347839 
	C1229.008423,580.815735 1241.934204,585.910461 1253.541260,593.924072 
	C1264.581299,601.546265 1276.798950,606.562866 1289.502075,610.749573 
	C1298.630005,613.757935 1307.340210,618.012695 1316.373657,621.339478 
	C1320.392944,622.819641 1322.301025,625.099121 1322.375244,629.359558 
	C1322.484131,635.599182 1324.728882,640.851685 1330.171021,644.419434 
	C1338.803833,650.079163 1343.733643,658.833435 1349.558594,668.346924 
	C1334.868042,696.481934 1319.795654,723.521545 1304.486938,750.426758 
	C1302.733765,753.507935 1299.819214,756.007874 1297.173340,758.489441 
	C1265.093750,788.577087 1232.585205,818.218384 1200.923096,848.738037 
	C1129.912598,917.186401 1061.071167,987.878967 988.168762,1054.371338 
	C984.977417,1057.281982 981.749329,1060.225952 978.197876,1062.656860 
	C943.564514,1086.363525 909.142151,1110.393921 874.112854,1133.503418 
	C806.269531,1178.260864 737.938660,1222.288696 672.955688,1272.092529 
	C668.492249,1264.754883 664.283020,1257.715088 661.165405,1250.221069 
	C659.361511,1245.884888 657.427063,1242.655762 652.724182,1241.469238 
	C647.049622,1240.037109 644.530762,1235.760864 644.351379,1230.422607 
	C644.160034,1224.726196 642.606018,1220.126587 637.897278,1216.610840 
	C636.400330,1215.493164 635.644226,1213.419312 634.433105,1211.874023 
	C632.474670,1209.375122 630.821106,1206.396484 628.332214,1204.598511 
	C620.412415,1198.877441 619.956787,1197.964966 623.807434,1189.335083 
	C627.871094,1180.227783 627.272095,1174.944214 618.922729,1169.961182 
	C607.027527,1162.861816 601.457825,1152.344116 598.996460,1139.499512 
	C598.312256,1135.929077 598.252075,1132.243896 597.733154,1128.636108 
	C596.411804,1119.449341 595.834045,1110.042236 593.360718,1101.168701 
	C591.180969,1093.348145 588.507812,1084.481445 583.091980,1079.003784 
	C573.119263,1068.917114 564.854553,1058.537598 560.133301,1044.957275 
	C557.335083,1036.908447 552.175781,1029.680542 548.353394,1021.463501 
	C555.268311,1009.298279 564.083984,999.607361 576.616638,990.968018 
	C563.748230,988.098145 557.832825,979.949036 551.680969,972.103882 
	C548.400391,967.920410 545.404602,963.499634 541.948303,959.470642 
	C533.253052,949.334412 524.161438,939.720947 509.726074,938.125488 
	C507.945831,937.928711 506.270935,936.778870 503.231598,935.530212 
	C515.408081,917.833496 527.040588,900.927368 539.149536,883.328735 
	C550.153137,885.222168 559.138794,880.979309 564.954041,871.301636 
	C573.469177,857.130859 585.513367,846.150696 596.737183,834.367798 
	C605.151550,825.534363 614.345947,820.822205 626.763916,825.135986 
	C630.782166,826.531921 635.192261,826.820496 639.435303,827.544006 
	C646.817078,828.802673 653.372742,827.987793 660.265930,823.810364 
	C671.287231,817.131409 682.803345,810.471008 695.012085,806.809875 
	C704.257568,804.037415 710.845520,799.656738 716.661987,792.619690 
	C726.630920,780.558716 736.875183,768.749451 738.282104,752.112915 
	C738.441406,750.229797 739.584900,748.429871 740.286316,746.552979 
	C744.793579,746.151917 749.095703,745.871765 753.365540,745.334839 
	C754.907837,745.140930 757.090210,744.782898 757.754456,743.727905 
	C761.582886,737.646240 766.270874,732.179871 766.520630,724.117493 
	C766.888733,712.236816 768.594055,700.400818 769.592224,688.534180 
	C769.839783,685.591492 770.371155,682.288879 769.365540,679.697693 
	C766.546570,672.434265 767.545715,665.451355 769.832397,658.817444 
	C768.151428,656.470764 766.855896,654.546387 765.444153,652.711487 
	C759.673218,645.210876 760.133911,641.244995 766.936218,635.298340 
	C770.571289,632.120544 773.740295,628.409668 776.788818,625.279053 
	C774.195251,619.959717 772.181091,615.828796 770.230957,611.829102 
	C772.614990,607.666077 774.732483,603.968567 776.907410,600.170654 
	C778.818848,600.170654 780.502258,599.946533 782.096313,600.228027 
	C784.038696,600.571106 785.927307,601.278198 787.802063,601.934204 
	C796.253540,604.891418 796.248779,604.904968 802.066650,598.507812 
	C806.660156,593.457031 809.956055,592.457397 816.019043,595.699524 
	C820.350952,598.016052 824.033386,601.522095 828.126953,604.319824 
	C830.244263,605.766907 832.589417,607.809998 834.893677,607.894653 
	C845.364990,608.279297 855.858398,608.063171 867.714661,608.063171 
	C868.770447,605.242676 870.818970,601.406677 871.614807,597.326416 
	C873.700684,586.632080 877.028259,576.063171 875.749146,564.904480 
	C875.570251,563.343872 875.866394,561.405212 876.682251,560.105957 
	C882.741211,550.456177 885.624207,538.569702 897.065369,532.712036 
	C903.968750,529.177673 906.167358,522.677124 905.731140,515.039490 
	C905.415955,509.520447 905.669678,503.968872 905.669678,497.656738 
	C919.753113,501.083618 932.557190,504.199188 945.951172,507.458282 
	C951.441162,497.500671 956.635376,487.895782 962.008667,478.392212 
	C966.230408,470.925446 970.265747,463.299744 975.154602,456.281525 
	C978.696838,451.196442 983.500916,446.990295 987.380737,442.784241 
	C996.277222,441.273071 1004.757385,439.832611 1013.237549,438.392151 
	C1014.322388,438.235901 1015.407166,438.079620 1017.298340,438.092285 
z"/>
<path data-name="Soa" style="fill: {#79844E}" fill="#79844E" opacity="1.000000" stroke="none" 
	d="
M140.141968,1588.722168 
	C142.338776,1587.175781 144.933533,1586.931641 146.115494,1585.511475 
	C157.178101,1572.218994 168.367889,1559.003052 178.764694,1545.195557 
	C186.204971,1535.314331 194.668625,1527.434814 206.774078,1524.002686 
	C207.669617,1523.748779 208.421677,1522.988892 209.108337,1522.548950 
	C208.728439,1507.848267 199.755463,1497.193848 191.335510,1484.652100 
	C211.547470,1479.070312 231.785126,1479.086670 250.931595,1474.247803 
	C249.998383,1449.845947 247.638107,1459.049927 260.710754,1435.711914 
	C264.447693,1429.040649 267.959564,1422.198242 270.941711,1415.166016 
	C272.693207,1411.035767 275.038269,1408.514648 279.455353,1407.936646 
	C291.934143,1406.303589 304.391815,1404.472778 316.904419,1403.166870 
	C319.305695,1402.916260 321.973328,1404.570679 324.425507,1405.572754 
	C332.431427,1408.844482 340.794922,1411.510498 348.278198,1415.727417 
	C358.987885,1421.762329 369.400635,1419.770264 380.088287,1416.741455 
	C382.640381,1416.018188 385.229553,1414.054443 387.610168,1414.328003 
	C399.752838,1415.723267 402.548187,1406.840332 405.761383,1398.429321 
	C407.179443,1394.717407 407.446838,1390.471313 409.291595,1387.033813 
	C416.738403,1373.157104 407.791504,1362.952637 401.731567,1352.215576 
	C400.623260,1350.251831 397.452332,1349.384033 395.147003,1348.175171 
	C381.551483,1341.046997 366.281250,1341.075806 351.722961,1338.045776 
	C346.864807,1337.034668 342.016663,1335.889771 337.264832,1334.468506 
	C317.984314,1328.702271 314.178619,1312.428711 311.921722,1295.707397 
	C310.798889,1287.388672 316.612549,1283.314575 325.246429,1284.517456 
	C335.090698,1285.888672 344.961334,1287.218994 354.866241,1287.932373 
	C358.684326,1288.207397 362.708923,1287.036011 366.500183,1286.009277 
	C380.933502,1282.100952 395.116669,1276.954102 409.756470,1274.202271 
	C428.199799,1270.735596 442.484558,1260.274170 457.248657,1250.583496 
	C457.377747,1244.281494 455.211700,1239.786743 451.482361,1235.632568 
	C445.874115,1229.385620 442.378418,1221.994629 439.547119,1214.003540 
	C432.061432,1192.876099 422.081512,1172.862061 407.611572,1155.627075 
	C399.885284,1146.424438 400.201752,1136.194580 402.813019,1126.479858 
	C409.424072,1101.884644 428.059235,1088.673096 451.295929,1082.702271 
	C459.297394,1080.646240 468.967865,1083.793213 476.782867,1089.035400 
	C483.941040,1093.837036 491.350006,1098.264648 499.497345,1103.391235 
	C502.643677,1099.956787 505.475708,1096.865356 508.818634,1093.216309 
	C507.372833,1089.189331 505.782379,1085.240479 504.545685,1081.183716 
	C503.226440,1076.856079 500.336243,1071.807495 501.517242,1068.173828 
	C503.801208,1061.146606 505.930267,1053.522095 512.687439,1048.613647 
	C524.254517,1040.211304 535.554810,1031.441528 547.522583,1022.454834 
	C552.175781,1029.680542 557.335083,1036.908447 560.133301,1044.957275 
	C564.854553,1058.537598 573.119263,1068.917114 583.091980,1079.003784 
	C588.507812,1084.481445 591.180969,1093.348145 593.360718,1101.168701 
	C595.834045,1110.042236 596.411804,1119.449341 597.733154,1128.636108 
	C598.252075,1132.243896 598.312256,1135.929077 598.996460,1139.499512 
	C601.457825,1152.344116 607.027527,1162.861816 618.922729,1169.961182 
	C627.272095,1174.944214 627.871094,1180.227783 623.807434,1189.335083 
	C619.956787,1197.964966 620.412415,1198.877441 628.332214,1204.598511 
	C630.821106,1206.396484 632.474670,1209.375122 634.433105,1211.874023 
	C635.644226,1213.419312 636.400330,1215.493164 637.897278,1216.610840 
	C642.606018,1220.126587 644.160034,1224.726196 644.351379,1230.422607 
	C644.530762,1235.760864 647.049622,1240.037109 652.724182,1241.469238 
	C657.427063,1242.655762 659.361511,1245.884888 661.165405,1250.221069 
	C664.283020,1257.715088 668.492249,1264.754883 672.633423,1272.640137 
	C669.404541,1278.526367 665.094360,1283.004639 659.001648,1285.282837 
	C651.089050,1288.241089 647.865845,1294.163452 647.902466,1302.244873 
	C647.931152,1308.572388 647.845337,1314.907837 648.135681,1321.224976 
	C648.553528,1330.317627 650.835693,1332.404297 659.752380,1331.004028 
	C664.410278,1330.272339 665.957397,1332.031494 666.017395,1336.102905 
	C666.041443,1337.740845 666.051575,1339.645508 665.288025,1340.983765 
	C661.292664,1347.986206 662.551208,1355.339233 664.634399,1362.203003 
	C666.414612,1368.068237 665.165771,1372.400757 661.970947,1377.083008 
	C657.093201,1384.231567 652.782837,1391.561768 653.539001,1400.933472 
	C653.877563,1405.129150 653.092834,1409.627930 651.823059,1413.677246 
	C650.697571,1417.266602 649.017395,1421.646118 646.162415,1423.567993 
	C631.034729,1433.750732 615.406189,1443.186157 600.088928,1453.093506 
	C597.422302,1454.818237 594.834351,1457.211548 593.215088,1459.901123 
	C589.151733,1466.650635 585.663818,1473.746582 581.994019,1480.612305 
	C577.562866,1480.612305 573.378113,1480.612305 569.183716,1480.612305 
	C568.151978,1483.992798 567.569641,1486.957520 566.366211,1489.644043 
	C562.859619,1497.472290 565.513184,1503.375366 572.328247,1507.297119 
	C584.596863,1514.357056 594.438660,1524.072998 604.086853,1535.029541 
	C608.590637,1539.885864 613.323303,1543.762085 616.848694,1548.530762 
	C624.509766,1558.893555 633.204834,1569.281982 622.688538,1583.058594 
	C617.775024,1589.495361 622.710754,1596.468384 622.943237,1603.193359 
	C622.974487,1604.098267 624.624146,1605.372437 625.763245,1605.744751 
	C633.158936,1608.161621 633.446289,1613.481201 632.562012,1620.043213 
	C631.160950,1630.440918 632.097961,1640.377441 638.435120,1649.587036 
	C643.646423,1657.160522 647.632629,1665.576904 652.635803,1674.461304 
	C642.356812,1680.904053 640.356262,1690.236694 643.604919,1701.165527 
	C643.786987,1701.778320 643.726685,1702.502930 643.629333,1703.152954 
	C642.815552,1708.588623 645.115601,1713.216675 648.530762,1716.813599 
	C657.510925,1726.271606 667.366394,1735.092896 680.713745,1737.248535 
	C686.646851,1738.206787 690.689758,1740.798340 693.896423,1745.036987 
	C699.481689,1752.420166 704.588989,1760.165039 710.189575,1768.177246 
	C706.015991,1775.675537 701.992371,1782.904297 697.315186,1790.319336 
	C681.552246,1798.853394 666.400269,1807.125732 651.368469,1815.610962 
	C648.260803,1817.365234 644.965942,1819.427246 642.855530,1822.187256 
	C636.932007,1829.934692 628.831421,1833.905273 620.222656,1837.771851 
	C610.442078,1842.164917 598.943420,1843.842163 592.223206,1853.774902 
	C591.577820,1854.729126 589.929321,1855.493164 588.734070,1855.510986 
	C577.500916,1855.679565 566.388123,1859.563477 555.252502,1852.263550 
	C543.535156,1844.582153 539.352783,1846.065796 529.075134,1855.920654 
	C519.714111,1864.896851 508.970245,1871.040161 495.733704,1871.901489 
	C489.522522,1872.305664 483.204803,1871.961670 477.104034,1872.973755 
	C466.716248,1874.696655 457.662231,1879.714478 449.974915,1886.825073 
	C438.741180,1897.215942 424.628448,1900.853882 410.404724,1904.203979 
	C407.650085,1904.852905 404.544739,1904.012695 401.601135,1903.859375 
	C401.127869,1895.494629 400.890778,1887.387573 396.365509,1879.542847 
	C391.944397,1871.878784 391.571167,1861.764771 394.636780,1854.284668 
	C400.083893,1840.993530 396.095032,1829.482300 391.918488,1817.767456 
	C389.557495,1811.145264 392.421661,1805.434082 392.734863,1799.319214 
	C392.795288,1798.139526 394.694733,1796.717651 396.057556,1795.997437 
	C403.064941,1792.293823 405.254913,1786.012573 405.754608,1778.715088 
	C405.890869,1776.725220 406.127777,1774.742432 406.302490,1772.755005 
	C406.823120,1766.832886 405.134308,1762.093262 399.936981,1760.979858 
	C389.893127,1758.828125 388.890076,1750.463135 388.226746,1743.539185 
	C387.546753,1736.441040 385.140533,1730.868530 380.791840,1725.213013 
	C383.058411,1720.635376 389.270660,1716.266113 381.405518,1710.292236 
	C390.218353,1707.013062 386.142242,1699.594971 387.343658,1694.125122 
	C388.564148,1688.568359 390.452057,1683.817505 393.484863,1679.272461 
	C397.073639,1673.894287 400.698700,1668.540283 404.716797,1662.568237 
	C393.079803,1653.848755 382.712585,1645.764038 368.677734,1647.220337 
	C364.705170,1641.757812 361.504547,1636.358521 357.336334,1631.854736 
	C350.754211,1624.743164 352.208801,1617.151611 355.714203,1609.904419 
	C357.904266,1605.376709 358.214417,1601.304321 357.575867,1596.155029 
	C355.240723,1596.750366 352.702667,1596.614502 351.632843,1597.801880 
	C346.149780,1603.886597 337.648743,1606.707153 333.982788,1614.818970 
	C331.586456,1620.121216 326.931458,1622.536255 320.948883,1622.117554 
	C318.630432,1621.955444 316.290985,1622.105103 313.961243,1622.090454 
	C301.542633,1622.012695 301.249298,1622.083984 298.319061,1610.416138 
	C296.996460,1605.149658 294.449707,1602.215576 289.182800,1601.448364 
	C287.877686,1601.258301 286.584381,1600.415649 285.334198,1600.510864 
	C275.817993,1601.235107 269.608643,1596.080566 263.077667,1589.905762 
	C257.190674,1584.339844 249.788956,1580.023438 240.942764,1580.049194 
	C240.278717,1580.051147 239.577042,1580.093994 238.955734,1579.908081 
	C222.124802,1574.868286 205.822754,1576.722412 189.510269,1582.727783 
	C184.716263,1584.492676 179.034927,1583.847534 173.002945,1584.372803 
	C172.686234,1592.700073 167.453659,1594.178589 160.254395,1593.647827 
	C154.314316,1593.209717 148.299042,1593.791138 141.428558,1594.058838 
	C140.321518,1592.624268 140.103012,1591.051636 140.141968,1588.722168 
z"/>

<path data-name="Awae" style="fill: {#7DBBD4}" fill="#7DBBD4" opacity="1.000000" stroke="none" 
	d="
M697.968750,1790.133057 
	C701.992371,1782.904297 706.015991,1775.675537 710.189575,1768.177246 
	C704.588989,1760.165039 699.481689,1752.420166 693.896423,1745.036987 
	C690.689758,1740.798340 686.646851,1738.206787 680.713745,1737.248535 
	C667.366394,1735.092896 657.510925,1726.271606 648.530762,1716.813599 
	C645.115601,1713.216675 642.815552,1708.588623 643.629333,1703.152954 
	C643.726685,1702.502930 643.786987,1701.778320 643.604919,1701.165527 
	C640.356262,1690.236694 642.356812,1680.904053 652.635803,1674.461304 
	C647.632629,1665.576904 643.646423,1657.160522 638.435120,1649.587036 
	C632.097961,1640.377441 631.160950,1630.440918 632.562012,1620.043213 
	C633.446289,1613.481201 633.158936,1608.161621 625.763245,1605.744751 
	C624.624146,1605.372437 622.974487,1604.098267 622.943237,1603.193359 
	C622.710754,1596.468384 617.775024,1589.495361 622.688538,1583.058594 
	C633.204834,1569.281982 624.509766,1558.893555 616.848694,1548.530762 
	C613.323303,1543.762085 608.590637,1539.885864 604.772217,1534.707886 
	C623.612244,1525.428223 642.125793,1517.132324 660.529907,1508.600586 
	C664.997437,1506.529785 669.064941,1506.000122 673.918030,1507.495972 
	C680.560608,1509.543335 687.673035,1510.102295 694.262939,1512.273682 
	C700.031799,1514.174805 704.687256,1513.194092 708.929565,1509.434082 
	C715.900024,1503.256348 723.653381,1503.307129 732.296387,1504.991699 
	C746.957092,1507.849243 761.704468,1510.389038 776.802673,1509.834229 
	C784.443481,1509.553345 792.306274,1509.062134 799.729919,1510.462158 
	C813.867493,1513.128174 827.865234,1513.232056 840.875122,1507.496948 
	C854.702087,1501.401367 866.108215,1505.448364 877.185303,1512.991943 
	C881.794495,1516.130859 885.427795,1520.669800 889.720215,1524.318604 
	C892.702271,1526.853638 895.743591,1530.059937 899.293396,1531.052002 
	C911.727539,1534.526978 924.082458,1538.657104 937.393921,1537.765259 
	C944.680969,1537.276978 952.072693,1537.462280 959.354431,1538.081665 
	C964.525940,1538.521606 969.852844,1539.541626 974.651123,1541.454834 
	C984.236633,1545.276733 993.724243,1548.925049 1004.025391,1550.684082 
	C1017.833496,1553.041748 1030.424072,1551.004761 1041.719238,1542.732422 
	C1045.444702,1540.003906 1048.468018,1536.327393 1051.877686,1533.154663 
	C1058.641846,1526.860474 1066.495972,1522.326660 1073.597778,1518.295044 
	C1077.338379,1522.944458 1079.574341,1527.231079 1083.072388,1529.797363 
	C1094.901733,1538.475830 1095.071533,1538.239746 1109.001465,1532.717407 
	C1111.474121,1531.737183 1113.892334,1530.471436 1116.460693,1529.921021 
	C1119.233521,1529.326904 1122.468628,1528.511597 1124.950317,1529.376221 
	C1132.907471,1532.148193 1140.463135,1531.290649 1148.279053,1528.932861 
	C1153.983887,1527.212158 1159.977783,1526.476318 1165.776489,1525.034424 
	C1177.373047,1522.150513 1188.769287,1517.891113 1200.529419,1516.363159 
	C1219.598145,1513.885376 1238.882568,1512.966553 1258.102783,1511.851318 
	C1261.441162,1511.657471 1265.261230,1513.138794 1268.258789,1514.879517 
	C1279.477173,1521.394165 1290.415405,1528.389160 1301.530640,1535.084473 
	C1304.343750,1536.778931 1307.334106,1539.040649 1310.396484,1539.312134 
	C1324.281738,1540.542969 1338.333008,1542.111328 1351.182495,1534.336792 
	C1353.169312,1533.134888 1355.251709,1531.979980 1357.439819,1531.256226 
	C1359.199219,1530.674438 1361.897827,1529.879761 1362.956787,1530.720337 
	C1370.935913,1537.052979 1381.470337,1539.996948 1387.080322,1549.554810 
	C1390.387451,1555.189087 1394.714478,1560.224609 1398.814819,1565.847656 
	C1412.152100,1547.503540 1424.997925,1529.835571 1437.614502,1512.482910 
	C1448.760986,1511.233154 1458.968140,1511.648926 1466.587036,1520.526489 
	C1471.752319,1526.545166 1477.642822,1526.622681 1484.497437,1524.033691 
	C1487.844482,1522.769409 1491.587280,1522.553345 1495.368652,1522.613159 
	C1505.279663,1547.386230 1514.832275,1571.467041 1524.719360,1595.409668 
	C1530.545654,1609.518555 1535.861694,1623.984985 1543.227661,1637.281982 
	C1561.099365,1669.543945 1579.996338,1701.239136 1598.606567,1733.088867 
	C1600.408691,1736.172974 1602.735107,1739.154053 1605.423462,1741.484741 
	C1627.267700,1760.423218 1649.171875,1779.295044 1671.245728,1797.964966 
	C1679.070679,1804.583008 1686.631104,1812.291992 1695.708740,1816.466309 
	C1708.882690,1822.524170 1723.106934,1826.734985 1737.269775,1830.112183 
	C1764.676270,1836.647583 1792.352539,1842.051758 1819.916992,1847.924805 
	C1817.763306,1856.920166 1816.246094,1866.130859 1813.295288,1874.856689 
	C1809.607422,1885.761719 1809.533447,1896.998535 1808.219849,1908.159058 
	C1807.618286,1913.268555 1809.610352,1917.042969 1812.302124,1920.887695 
	C1821.263794,1933.688232 1830.642212,1946.232666 1838.922241,1959.462646 
	C1844.842285,1968.921753 1849.256958,1979.323120 1854.310181,1989.239136 
	C1842.091187,1998.137451 1830.978271,2006.473267 1819.545044,2014.343750 
	C1817.356934,2015.849976 1813.904419,2015.976685 1811.040161,2015.958984 
	C1801.730103,2015.901611 1792.410645,2015.678955 1783.118408,2015.122925 
	C1778.086182,2014.821899 1774.165894,2016.450195 1770.430908,2019.632324 
	C1763.102295,2025.876465 1755.328979,2031.616455 1748.212769,2038.085571 
	C1743.920166,2041.987915 1739.429810,2043.589966 1733.765137,2043.276245 
	C1728.851807,2043.004272 1723.682983,2042.371216 1719.719727,2046.590210 
	C1714.861084,2051.761719 1709.396118,2051.569824 1703.498169,2048.469238 
	C1701.473022,2047.404663 1699.186768,2046.836548 1696.511353,2045.854980 
	C1688.017090,2053.325195 1678.890259,2059.832520 1666.010864,2059.179688 
	C1665.628906,2075.435059 1656.477417,2083.036377 1643.286621,2089.079590 
	C1626.728638,2096.665771 1611.290039,2106.699219 1595.393555,2115.720947 
	C1592.840332,2117.169922 1590.419312,2118.852051 1587.400391,2120.766846 
	C1590.169678,2129.867676 1592.855103,2138.692871 1595.544556,2147.531250 
	C1594.956543,2148.469971 1594.560913,2149.414307 1593.901611,2150.107910 
	C1580.651978,2164.048096 1580.645874,2164.041992 1561.253174,2164.041992 
	C1559.920166,2164.041992 1558.561523,2163.871338 1557.258179,2164.067871 
	C1539.063232,2166.813721 1528.911743,2156.470459 1521.504272,2141.940186 
	C1515.886230,2130.919678 1510.126221,2119.921143 1500.556152,2111.831787 
	C1494.530029,2106.738281 1487.496948,2102.849365 1481.050293,2098.232178 
	C1478.744385,2096.580322 1475.256592,2094.539795 1475.034058,2092.394043 
	C1474.320557,2085.510986 1469.231323,2084.064453 1464.389648,2082.046631 
	C1460.096313,2080.257568 1455.835815,2078.058838 1451.338135,2077.178711 
	C1446.266113,2076.186035 1440.725342,2075.408691 1435.782959,2076.436035 
	C1428.067017,2078.040039 1420.627319,2081.088623 1413.174561,2083.809814 
	C1405.709595,2086.535645 1402.188599,2085.821777 1396.615723,2079.657959 
	C1394.613403,2077.443604 1392.583130,2075.234375 1390.797119,2072.849121 
	C1387.686523,2068.694824 1382.861328,2064.693604 1382.164917,2060.109863 
	C1380.924683,2051.947021 1383.029785,2043.604126 1388.031860,2036.487549 
	C1389.350708,2034.611206 1390.783203,2032.814575 1392.504272,2030.528809 
	C1386.961060,2024.811523 1381.648560,2020.124023 1372.911987,2021.098267 
	C1362.033936,2022.311401 1351.070923,2022.762207 1340.145264,2023.550415 
	C1338.159302,2023.693604 1335.949219,2024.525513 1334.230591,2023.926392 
	C1326.692261,2021.298706 1321.245972,2024.291504 1315.652344,2029.113647 
	C1310.201050,2033.813354 1303.101685,2034.994385 1296.000610,2035.174805 
	C1290.005615,2035.327148 1284.004883,2035.256592 1276.706543,2034.829590 
	C1270.752930,2025.145386 1265.477173,2016.429199 1258.566895,2008.559082 
	C1252.450928,2001.593506 1247.080933,1993.853760 1242.211670,1985.944702 
	C1236.811157,1977.172729 1231.992920,1967.990479 1227.601074,1958.666504 
	C1224.303223,1951.664917 1219.286743,1946.984985 1212.722046,1943.256714 
	C1210.087891,1941.760742 1206.803833,1938.982422 1206.413818,1936.395996 
	C1204.974365,1926.852417 1199.254883,1920.907227 1191.664795,1916.226562 
	C1186.022705,1912.747070 1180.483521,1908.622070 1174.304077,1906.610352 
	C1165.986816,1903.902710 1163.469971,1898.156128 1161.625488,1890.624390 
	C1158.786255,1879.030762 1155.086914,1867.648315 1151.770752,1856.171021 
	C1149.935791,1849.819336 1146.773560,1843.488770 1146.625000,1837.092529 
	C1146.364014,1825.854858 1142.726562,1815.552124 1140.272095,1804.905640 
	C1138.361084,1796.615967 1133.397217,1792.456665 1125.228760,1791.810547 
	C1121.599976,1791.523315 1118.007080,1790.791870 1114.379272,1790.480957 
	C1104.782227,1789.658325 1095.185303,1788.671143 1085.567627,1788.322632 
	C1080.637695,1788.144287 1075.658813,1789.644897 1070.709839,1789.595825 
	C1059.479248,1789.484375 1049.017578,1792.209229 1038.782959,1796.583008 
	C1035.909058,1797.811157 1032.510620,1798.110352 1029.325806,1798.260254 
	C1017.072388,1798.836426 1004.801941,1799.613525 992.550049,1799.442139 
	C985.456604,1799.342896 981.787170,1803.090576 977.914307,1807.992554 
	C974.874451,1811.839966 971.419983,1816.487549 967.156982,1818.022583 
	C955.823425,1822.103516 947.858215,1829.154907 942.695312,1839.783447 
	C942.414551,1840.361450 941.869995,1840.829590 941.392456,1841.291138 
	C933.655701,1848.766724 930.074036,1857.987549 931.998291,1868.477661 
	C935.660400,1888.441772 923.921082,1904.349854 918.598755,1921.909180 
	C917.083069,1926.909302 911.739258,1929.011597 906.659729,1929.944702 
	C901.927246,1930.814087 900.975525,1926.201660 898.472961,1923.788086 
	C890.869141,1916.454102 884.533447,1907.357910 873.462158,1904.635010 
	C866.690125,1902.969482 859.876099,1901.257812 852.977478,1900.382202 
	C845.239868,1899.399902 837.626953,1899.587646 832.863647,1907.781128 
	C831.625366,1909.911133 828.992920,1911.453857 826.694214,1912.701782 
	C820.183044,1916.236450 816.214600,1921.753052 813.574707,1928.434204 
	C811.875854,1932.733643 810.223267,1937.051392 808.664795,1941.065308 
	C802.291992,1945.387085 797.527039,1943.612793 792.996765,1938.154297 
	C782.784546,1925.849487 772.609314,1913.720947 767.571289,1898.008545 
	C763.433899,1885.105103 754.413208,1879.797852 741.246887,1880.813599 
	C740.696472,1880.856201 740.095459,1880.243652 739.013794,1879.667847 
	C738.310791,1876.504150 737.676575,1872.943115 736.706848,1869.476074 
	C735.642761,1865.671509 734.984741,1861.490479 732.906128,1858.278320 
	C724.239197,1844.884399 715.822266,1831.317383 700.914673,1823.362793 
	C693.726990,1819.527466 691.961182,1811.694946 694.420410,1803.549072 
	C695.756531,1799.123291 696.795654,1794.608032 697.968750,1790.133057 
z"/>
<path data-name="Nkolafamba" style="fill: {#F15EE8}" fill="#F15EE8" opacity="1.000000" stroke="none" 
	d="
M697.315186,1790.319336 
	C696.795654,1794.608032 695.756531,1799.123291 694.420410,1803.549072 
	C691.961182,1811.694946 693.726990,1819.527466 700.914673,1823.362793 
	C715.822266,1831.317383 724.239197,1844.884399 732.906128,1858.278320 
	C734.984741,1861.490479 735.642761,1865.671509 736.706848,1869.476074 
	C737.676575,1872.943115 738.310791,1876.504150 739.013794,1879.667847 
	C740.095459,1880.243652 740.696472,1880.856201 741.246887,1880.813599 
	C754.413208,1879.797852 763.433899,1885.105103 767.571289,1898.008545 
	C772.609314,1913.720947 782.784546,1925.849487 792.996765,1938.154297 
	C797.527039,1943.612793 802.291992,1945.387085 808.664795,1941.065308 
	C810.223267,1937.051392 811.875854,1932.733643 813.574707,1928.434204 
	C816.214600,1921.753052 820.183044,1916.236450 826.694214,1912.701782 
	C828.992920,1911.453857 831.625366,1909.911133 832.863647,1907.781128 
	C837.626953,1899.587646 845.239868,1899.399902 852.977478,1900.382202 
	C859.876099,1901.257812 866.690125,1902.969482 873.462158,1904.635010 
	C884.533447,1907.357910 890.869141,1916.454102 898.472961,1923.788086 
	C900.975525,1926.201660 901.927246,1930.814087 906.659729,1929.944702 
	C911.739258,1929.011597 917.083069,1926.909302 918.598755,1921.909180 
	C923.921082,1904.349854 935.660400,1888.441772 931.998291,1868.477661 
	C930.074036,1857.987549 933.655701,1848.766724 941.392456,1841.291138 
	C941.869995,1840.829590 942.414551,1840.361450 942.695312,1839.783447 
	C947.858215,1829.154907 955.823425,1822.103516 967.156982,1818.022583 
	C971.419983,1816.487549 974.874451,1811.839966 977.914307,1807.992554 
	C981.787170,1803.090576 985.456604,1799.342896 992.550049,1799.442139 
	C1004.801941,1799.613525 1017.072388,1798.836426 1029.325806,1798.260254 
	C1032.510620,1798.110352 1035.909058,1797.811157 1038.782959,1796.583008 
	C1049.017578,1792.209229 1059.479248,1789.484375 1070.709839,1789.595825 
	C1075.658813,1789.644897 1080.637695,1788.144287 1085.567627,1788.322632 
	C1095.185303,1788.671143 1104.782227,1789.658325 1114.379272,1790.480957 
	C1118.007080,1790.791870 1121.599976,1791.523315 1125.228760,1791.810547 
	C1133.397217,1792.456665 1138.361084,1796.615967 1140.272095,1804.905640 
	C1142.726562,1815.552124 1146.364014,1825.854858 1146.625000,1837.092529 
	C1146.773560,1843.488770 1149.935791,1849.819336 1151.770752,1856.171021 
	C1155.086914,1867.648315 1158.786255,1879.030762 1161.625488,1890.624390 
	C1163.469971,1898.156128 1165.986816,1903.902710 1174.304077,1906.610352 
	C1180.483521,1908.622070 1186.022705,1912.747070 1191.664795,1916.226562 
	C1199.254883,1920.907227 1204.974365,1926.852417 1206.413818,1936.395996 
	C1206.803833,1938.982422 1210.087891,1941.760742 1212.722046,1943.256714 
	C1219.286743,1946.984985 1224.303223,1951.664917 1227.601074,1958.666504 
	C1231.992920,1967.990479 1236.811157,1977.172729 1242.211670,1985.944702 
	C1247.080933,1993.853760 1252.450928,2001.593506 1258.566895,2008.559082 
	C1265.477173,2016.429199 1270.752930,2025.145386 1275.795166,2034.902100 
	C1276.047729,2045.229614 1276.000122,2044.901245 1266.815552,2046.232178 
	C1253.164185,2048.210205 1239.608154,2048.387939 1226.395874,2044.250732 
	C1213.662720,2040.263794 1204.962158,2046.802490 1198.119019,2055.505615 
	C1191.633789,2063.753418 1183.916504,2067.920410 1173.882935,2068.882324 
	C1172.252563,2069.038330 1170.635376,2069.577881 1169.068726,2070.107422 
	C1162.447876,2072.345215 1160.471191,2076.572266 1161.353760,2083.487061 
	C1162.992432,2096.323486 1162.319946,2108.626953 1151.326172,2118.018555 
	C1148.431641,2120.491211 1145.664185,2121.657471 1141.853760,2122.393311 
	C1134.494263,2123.814209 1126.792114,2125.612061 1120.362671,2129.251465 
	C1106.800293,2136.928467 1094.012207,2145.965088 1080.796387,2154.269043 
	C1078.048584,2155.995605 1074.847168,2157.018555 1071.815186,2158.270508 
	C1063.860718,2161.554199 1055.379517,2163.923096 1048.028320,2168.227783 
	C1035.220337,2175.727783 1021.026001,2177.486328 1006.987427,2178.985596 
	C1000.516846,2179.676758 993.351624,2176.625488 986.911255,2174.187744 
	C977.344421,2170.566650 968.224670,2170.379883 958.868713,2174.516113 
	C953.100708,2177.066162 947.263428,2179.551025 941.266968,2181.471191 
	C933.089172,2184.089111 931.704041,2191.003418 930.497253,2197.840332 
	C930.193665,2199.560791 931.884583,2202.432861 933.504272,2203.552734 
	C939.990906,2208.037109 946.496460,2212.718262 953.605591,2216.006836 
	C959.255737,2218.620605 964.252747,2221.259033 967.105103,2227.262207 
	C966.907532,2236.105713 961.619690,2242.506836 955.172607,2247.879395 
	C943.682190,2257.455566 931.878357,2266.564453 923.493347,2279.349365 
	C921.228027,2282.803223 917.396240,2285.632080 913.691772,2287.674561 
	C889.349976,2301.095703 874.331238,2322.817383 861.101562,2346.133545 
	C854.629150,2357.540283 847.381592,2368.142822 835.474548,2374.565674 
	C833.175171,2375.806152 830.630920,2377.557373 828.245972,2377.487793 
	C821.850342,2377.301270 818.712830,2381.371094 814.921753,2386.087891 
	C801.993164,2383.458740 791.970703,2377.905762 785.241272,2366.107178 
	C767.927795,2335.751465 749.816895,2305.849121 731.927490,2275.823730 
	C728.750366,2270.491455 727.278259,2264.999023 727.713867,2258.752441 
	C728.384888,2249.129883 729.146667,2239.456543 728.818542,2229.840576 
	C728.583679,2222.957031 726.984009,2216.047607 725.376770,2209.296143 
	C719.065430,2182.784424 712.558350,2156.318848 705.980774,2129.871826 
	C705.190369,2126.693848 703.779785,2123.596924 702.224243,2120.694092 
	C689.801331,2097.508789 677.348389,2074.338623 664.698303,2051.277100 
	C662.818237,2047.849731 660.180359,2044.677612 657.339844,2041.967407 
	C648.425720,2033.461792 639.409851,2025.044312 630.073242,2017.011353 
	C627.238037,2014.572021 623.405884,2012.718994 619.739990,2011.905151 
	C579.276306,2002.921753 594.585083,2004.331421 552.093872,2011.402710 
	C546.059692,2012.406860 541.971375,2015.232300 537.572083,2019.015015 
	C516.650146,2037.004517 501.002930,2059.427734 484.530579,2081.159912 
	C474.063171,2094.969482 463.248169,2108.296631 450.040436,2119.791504 
	C440.310669,2128.259521 431.842865,2138.286865 423.517731,2148.210938 
	C419.708771,2152.751221 415.787415,2156.260986 410.165527,2157.950439 
	C400.043701,2160.991699 391.754852,2166.184814 385.378723,2175.174316 
	C380.832947,2181.583252 374.642944,2187.144043 368.268250,2191.835205 
	C363.346619,2195.457275 357.195892,2197.873779 351.229095,2199.478271 
	C345.456848,2201.030518 341.068848,2203.818604 336.940918,2207.937012 
	C328.729706,2216.128906 321.602295,2225.476074 311.121857,2231.289795 
	C304.286224,2235.081543 297.313324,2237.734375 289.481689,2238.130127 
	C282.173889,2238.498779 274.874451,2239.034180 266.691254,2239.484863 
	C266.429169,2228.239746 268.365265,2216.880615 267.314301,2205.804932 
	C266.138245,2193.410889 267.835205,2181.525391 269.265228,2169.455811 
	C270.037384,2162.938721 270.746613,2156.759033 277.392426,2152.762207 
	C279.821106,2151.301514 281.518341,2147.429932 282.136200,2144.372803 
	C284.155273,2134.381592 284.397736,2123.987061 289.450134,2114.744385 
	C287.036102,2106.269531 294.516541,2102.096924 297.604736,2096.018066 
	C301.154449,2089.031006 304.759216,2082.071777 309.003723,2073.808594 
	C320.919434,2067.635742 334.510620,2060.594971 348.390320,2053.404785 
	C347.912659,2047.790894 347.853149,2042.475830 346.941681,2037.311035 
	C344.854004,2025.481934 348.751526,2018.673950 359.794312,2014.090942 
	C365.500793,2011.722534 370.913239,2008.467407 376.093353,2005.057983 
	C381.386139,2001.574463 383.837280,1995.839600 384.186798,1989.826782 
	C384.964783,1976.442993 388.524017,1963.845703 392.770508,1951.233032 
	C396.343750,1940.619629 399.057648,1929.665283 401.333435,1918.692139 
	C402.233429,1914.352539 400.919922,1909.553833 401.107727,1904.411865 
	C404.544739,1904.012695 407.650085,1904.852905 410.404724,1904.203979 
	C424.628448,1900.853882 438.741180,1897.215942 449.974915,1886.825073 
	C457.662231,1879.714478 466.716248,1874.696655 477.104034,1872.973755 
	C483.204803,1871.961670 489.522522,1872.305664 495.733704,1871.901489 
	C508.970245,1871.040161 519.714111,1864.896851 529.075134,1855.920654 
	C539.352783,1846.065796 543.535156,1844.582153 555.252502,1852.263550 
	C566.388123,1859.563477 577.500916,1855.679565 588.734070,1855.510986 
	C589.929321,1855.493164 591.577820,1854.729126 592.223206,1853.774902 
	C598.943420,1843.842163 610.442078,1842.164917 620.222656,1837.771851 
	C628.831421,1833.905273 636.932007,1829.934692 642.855530,1822.187256 
	C644.965942,1819.427246 648.260803,1817.365234 651.368469,1815.610962 
	C666.400269,1807.125732 681.552246,1798.853394 697.315186,1790.319336 
z"/>
<path data-name="Assamba" style="fill: {#41BA55}" fill="#41BA55" opacity="1.000000" stroke="none" 
	d="
M1820.072266,1847.006348 
	C1792.352539,1842.051758 1764.676270,1836.647583 1737.269775,1830.112183 
	C1723.106934,1826.734985 1708.882690,1822.524170 1695.708740,1816.466309 
	C1686.631104,1812.291992 1679.070679,1804.583008 1671.245728,1797.964966 
	C1649.171875,1779.295044 1627.267700,1760.423218 1605.423462,1741.484741 
	C1602.735107,1739.154053 1600.408691,1736.172974 1598.606567,1733.088867 
	C1579.996338,1701.239136 1561.099365,1669.543945 1543.227661,1637.281982 
	C1535.861694,1623.984985 1530.545654,1609.518555 1524.719360,1595.409668 
	C1514.832275,1571.467041 1505.279663,1547.386230 1496.058594,1522.115234 
	C1498.818359,1520.520630 1501.116577,1520.232056 1503.391846,1519.817505 
	C1513.485474,1517.979004 1523.683838,1516.820557 1531.800903,1509.210205 
	C1545.633911,1496.240723 1559.913452,1483.748169 1573.814453,1470.849487 
	C1576.399536,1468.450684 1578.676025,1465.336426 1580.057861,1462.108276 
	C1582.502319,1456.397827 1585.022095,1451.445068 1591.869507,1449.864624 
	C1597.930664,1448.465576 1603.916016,1444.438599 1609.706177,1444.843750 
	C1614.990601,1445.213135 1618.803833,1443.904785 1622.571777,1441.439941 
	C1630.846924,1436.026489 1638.764893,1437.325317 1647.007446,1441.455078 
	C1663.886841,1449.912354 1680.880981,1458.140747 1697.597656,1466.350220 
	C1705.983887,1460.568726 1713.809082,1456.005981 1720.658203,1450.276123 
	C1734.276123,1438.883789 1750.596069,1439.566528 1766.132690,1437.811646 
	C1768.817993,1443.716309 1769.852295,1450.291870 1773.678467,1453.223145 
	C1777.698120,1456.302612 1784.381104,1455.947754 1789.920532,1456.984741 
	C1792.854492,1457.533936 1795.859131,1457.714355 1798.784912,1458.296509 
	C1816.187622,1461.758667 1834.376587,1462.680054 1849.800781,1474.072632 
	C1852.873901,1471.817383 1856.380981,1469.789185 1859.138916,1467.015747 
	C1860.800171,1465.345215 1862.171631,1462.508301 1862.154053,1460.207153 
	C1862.095581,1452.579590 1861.152954,1444.962769 1860.938232,1437.330933 
	C1860.809937,1432.767090 1860.950684,1428.096924 1861.790649,1423.628784 
	C1862.932861,1417.551880 1864.858521,1411.622192 1866.534424,1405.305420 
	C1857.574951,1401.221558 1849.471191,1397.527710 1841.367432,1393.833862 
	C1842.192017,1392.798340 1842.868530,1391.585571 1843.863525,1390.754150 
	C1856.416992,1380.265503 1864.533691,1367.182983 1870.042603,1351.651978 
	C1874.040405,1340.381714 1882.404419,1330.993164 1893.071289,1325.037720 
	C1905.817871,1317.921265 1919.226562,1311.993408 1932.323853,1305.501343 
	C1937.368164,1303.000977 1943.024048,1301.161255 1947.196167,1297.606079 
	C1953.732178,1292.036377 1959.165405,1285.639893 1958.928345,1275.645508 
	C1958.812988,1270.784302 1961.480591,1265.357666 1964.225220,1261.035889 
	C1969.371216,1252.932373 1975.551636,1245.490845 1981.166016,1237.676392 
	C1982.885986,1235.282349 1984.789062,1232.737793 1985.531494,1229.973022 
	C1988.542725,1218.758911 1991.785889,1207.540527 1993.685181,1196.114502 
	C1995.357056,1186.057251 2001.504395,1178.625366 2006.272705,1170.350342 
	C2007.085571,1168.939575 2009.437500,1168.120728 2011.241821,1167.632935 
	C2016.027344,1166.339722 2020.902344,1165.377441 2026.175415,1164.185303 
	C2030.702759,1169.088013 2035.551636,1173.675049 2039.585571,1178.892212 
	C2043.689087,1184.198730 2049.043457,1185.365234 2054.636719,1183.766602 
	C2063.367676,1181.271118 2072.890381,1180.140747 2078.117432,1170.511597 
	C2079.989014,1167.063965 2084.673584,1165.125854 2088.114502,1162.552979 
	C2091.301270,1160.170166 2094.542236,1157.859863 2098.119873,1154.936401 
	C2100.230225,1162.946045 2102.664795,1171.470093 2103.512207,1180.149170 
	C2104.186768,1187.058350 2106.791016,1192.832886 2109.853027,1198.748779 
	C2122.301514,1222.799561 2139.039551,1243.869141 2155.096924,1265.491333 
	C2167.141602,1281.710449 2177.515137,1299.170288 2188.795410,1316.325073 
	C2183.506592,1322.999634 2178.944824,1328.625732 2174.538574,1334.371094 
	C2172.273193,1337.325073 2169.343750,1337.799438 2165.839600,1338.130737 
	C2154.953857,1339.160156 2144.106689,1340.623413 2133.265381,1342.073120 
	C2131.039062,1342.370850 2128.902588,1343.339844 2125.764648,1344.290161 
	C2128.176025,1350.920044 2130.093750,1357.176514 2132.717041,1363.122070 
	C2135.236816,1368.833740 2135.780762,1374.223633 2134.470947,1380.479492 
	C2130.458984,1399.636963 2128.001465,1419.151123 2123.320068,1438.126953 
	C2119.841064,1452.227661 2112.905762,1465.461670 2109.226318,1479.530518 
	C2105.491943,1493.808594 2096.450439,1501.523438 2083.858643,1507.593872 
	C2067.106445,1515.669800 2051.188232,1525.463135 2034.535645,1533.764038 
	C2025.076294,1538.479248 2015.143066,1542.810669 2004.933228,1545.328125 
	C1987.068115,1549.733154 1973.146118,1559.872070 1960.133911,1572.038574 
	C1943.864624,1587.250122 1928.048706,1603.029663 1910.921387,1617.216797 
	C1893.781128,1631.414917 1875.362183,1644.086914 1857.265381,1657.096436 
	C1853.932129,1659.492676 1849.575562,1660.813477 1845.489258,1661.728882 
	C1840.001099,1662.958252 1834.074585,1662.539307 1828.768555,1664.205322 
	C1818.777710,1667.342407 1808.269409,1670.092407 1803.712891,1681.555786 
	C1801.885498,1686.153320 1799.259644,1690.504639 1796.511841,1694.645996 
	C1793.468140,1699.233398 1793.618042,1703.839600 1794.557251,1708.958984 
	C1799.065430,1733.532104 1806.719849,1757.239380 1814.344116,1780.933350 
	C1818.466919,1793.745728 1820.913940,1806.614624 1820.345825,1820.106812 
	C1819.981689,1828.753540 1820.245239,1837.426636 1820.072266,1847.006348 
z"/>
<path data-name="Esse" style="fill: {#363F8F}" fill="#363F8F" opacity="1.000000" stroke="none" 
	d="
M1840.806030,1393.557251 
	C1849.471191,1397.527710 1857.574951,1401.221558 1866.534424,1405.305420 
	C1864.858521,1411.622192 1862.932861,1417.551880 1861.790649,1423.628784 
	C1860.950684,1428.096924 1860.809937,1432.767090 1860.938232,1437.330933 
	C1861.152954,1444.962769 1862.095581,1452.579590 1862.154053,1460.207153 
	C1862.171631,1462.508301 1860.800171,1465.345215 1859.138916,1467.015747 
	C1856.380981,1469.789185 1852.873901,1471.817383 1849.800781,1474.072632 
	C1834.376587,1462.680054 1816.187622,1461.758667 1798.784912,1458.296509 
	C1795.859131,1457.714355 1792.854492,1457.533936 1789.920532,1456.984741 
	C1784.381104,1455.947754 1777.698120,1456.302612 1773.678467,1453.223145 
	C1769.852295,1450.291870 1768.817993,1443.716309 1766.132690,1437.811646 
	C1750.596069,1439.566528 1734.276123,1438.883789 1720.658203,1450.276123 
	C1713.809082,1456.005981 1705.983887,1460.568726 1697.597656,1466.350220 
	C1680.880981,1458.140747 1663.886841,1449.912354 1647.007446,1441.455078 
	C1638.764893,1437.325317 1630.846924,1436.026489 1622.571777,1441.439941 
	C1618.803833,1443.904785 1614.990601,1445.213135 1609.706177,1444.843750 
	C1603.916016,1444.438599 1597.930664,1448.465576 1591.869507,1449.864624 
	C1585.022095,1451.445068 1582.502319,1456.397827 1580.057861,1462.108276 
	C1578.676025,1465.336426 1576.399536,1468.450684 1573.814453,1470.849487 
	C1559.913452,1483.748169 1545.633911,1496.240723 1531.800903,1509.210205 
	C1523.683838,1516.820557 1513.485474,1517.979004 1503.391846,1519.817505 
	C1501.116577,1520.232056 1498.818359,1520.520630 1495.840820,1521.364990 
	C1491.587280,1522.553345 1487.844482,1522.769409 1484.497437,1524.033691 
	C1477.642822,1526.622681 1471.752319,1526.545166 1466.587036,1520.526489 
	C1458.968140,1511.648926 1448.760986,1511.233154 1437.614502,1512.482910 
	C1424.997925,1529.835571 1412.152100,1547.503540 1398.814819,1565.847656 
	C1394.714478,1560.224609 1390.387451,1555.189087 1387.080322,1549.554810 
	C1381.470337,1539.996948 1370.935913,1537.052979 1362.956787,1530.720337 
	C1361.897827,1529.879761 1359.199219,1530.674438 1357.439819,1531.256226 
	C1355.251709,1531.979980 1353.169312,1533.134888 1351.182495,1534.336792 
	C1338.333008,1542.111328 1324.281738,1540.542969 1310.396484,1539.312134 
	C1307.334106,1539.040649 1304.343750,1536.778931 1301.530640,1535.084473 
	C1290.415405,1528.389160 1279.477173,1521.394165 1268.258789,1514.879517 
	C1265.261230,1513.138794 1261.441162,1511.657471 1258.102783,1511.851318 
	C1238.882568,1512.966553 1219.598145,1513.885376 1200.529419,1516.363159 
	C1188.769287,1517.891113 1177.373047,1522.150513 1165.776489,1525.034424 
	C1159.977783,1526.476318 1153.983887,1527.212158 1148.279053,1528.932861 
	C1140.463135,1531.290649 1132.907471,1532.148193 1124.950317,1529.376221 
	C1122.468628,1528.511597 1119.233521,1529.326904 1116.460693,1529.921021 
	C1113.892334,1530.471436 1111.474121,1531.737183 1109.001465,1532.717407 
	C1095.071533,1538.239746 1094.901733,1538.475830 1083.072388,1529.797363 
	C1079.574341,1527.231079 1077.338379,1522.944458 1073.597778,1518.295044 
	C1066.495972,1522.326660 1058.641846,1526.860474 1051.877686,1533.154663 
	C1048.468018,1536.327393 1045.444702,1540.003906 1041.719238,1542.732422 
	C1030.424072,1551.004761 1017.833496,1553.041748 1004.025391,1550.684082 
	C993.724243,1548.925049 984.236633,1545.276733 974.651123,1541.454834 
	C969.852844,1539.541626 964.525940,1538.521606 959.354431,1538.081665 
	C952.072693,1537.462280 944.680969,1537.276978 937.393921,1537.765259 
	C924.082458,1538.657104 911.727539,1534.526978 899.293396,1531.052002 
	C895.743591,1530.059937 892.702271,1526.853638 889.720215,1524.318604 
	C885.427795,1520.669800 881.794495,1516.130859 877.185303,1512.991943 
	C866.108215,1505.448364 854.702087,1501.401367 840.875122,1507.496948 
	C827.865234,1513.232056 813.867493,1513.128174 799.729919,1510.462158 
	C792.306274,1509.062134 784.443481,1509.553345 776.802673,1509.834229 
	C761.704468,1510.389038 746.957092,1507.849243 732.296387,1504.991699 
	C723.653381,1503.307129 715.900024,1503.256348 708.929565,1509.434082 
	C704.687256,1513.194092 700.031799,1514.174805 694.262939,1512.273682 
	C687.673035,1510.102295 680.560608,1509.543335 673.918030,1507.495972 
	C669.064941,1506.000122 664.997437,1506.529785 660.529907,1508.600586 
	C642.125793,1517.132324 623.612244,1525.428223 604.453613,1534.132446 
	C594.438660,1524.072998 584.596863,1514.357056 572.328247,1507.297119 
	C565.513184,1503.375366 562.859619,1497.472290 566.366211,1489.644043 
	C567.569641,1486.957520 568.151978,1483.992798 569.183716,1480.612305 
	C573.378113,1480.612305 577.562866,1480.612305 581.994019,1480.612305 
	C585.663818,1473.746582 589.151733,1466.650635 593.215088,1459.901123 
	C594.834351,1457.211548 597.422302,1454.818237 600.088928,1453.093506 
	C615.406189,1443.186157 631.034729,1433.750732 646.162415,1423.567993 
	C649.017395,1421.646118 650.697571,1417.266602 651.823059,1413.677246 
	C653.092834,1409.627930 653.877563,1405.129150 653.539001,1400.933472 
	C652.782837,1391.561768 657.093201,1384.231567 661.970947,1377.083008 
	C665.165771,1372.400757 666.414612,1368.068237 664.634399,1362.203003 
	C662.551208,1355.339233 661.292664,1347.986206 665.288025,1340.983765 
	C666.051575,1339.645508 666.041443,1337.740845 666.017395,1336.102905 
	C665.957397,1332.031494 664.410278,1330.272339 659.752380,1331.004028 
	C650.835693,1332.404297 648.553528,1330.317627 648.135681,1321.224976 
	C647.845337,1314.907837 647.931152,1308.572388 647.902466,1302.244873 
	C647.865845,1294.163452 651.089050,1288.241089 659.001648,1285.282837 
	C665.094360,1283.004639 669.404541,1278.526367 673.345581,1272.747559 
	C737.938660,1222.288696 806.269531,1178.260864 874.112854,1133.503418 
	C909.142151,1110.393921 943.564514,1086.363525 978.197876,1062.656860 
	C981.749329,1060.225952 984.977417,1057.281982 988.168762,1054.371338 
	C1061.071167,987.878967 1129.912598,917.186401 1200.923096,848.738037 
	C1232.585205,818.218384 1265.093750,788.577087 1297.173340,758.489441 
	C1299.819214,756.007874 1302.733765,753.507935 1304.486938,750.426758 
	C1319.795654,723.521545 1334.868042,696.481934 1350.097046,668.769348 
	C1359.984497,657.430359 1373.700562,653.147217 1386.126953,647.247009 
	C1392.008423,644.454468 1400.592407,645.600708 1407.470703,647.129028 
	C1415.133667,648.831665 1421.924805,648.930359 1428.385132,644.599792 
	C1444.374146,633.881897 1460.443726,623.262024 1476.018921,611.965637 
	C1479.811890,609.214722 1482.199707,604.212341 1484.556396,599.877014 
	C1487.326660,594.781067 1491.187378,592.750000 1496.765503,593.538879 
	C1508.901489,595.255188 1521.239136,596.115601 1533.118774,598.918213 
	C1545.969360,601.950012 1555.936890,597.706299 1565.152710,589.788574 
	C1568.929443,586.543762 1572.550415,583.017639 1575.712158,579.182556 
	C1579.546997,574.531311 1584.217285,573.512878 1589.869263,573.951660 
	C1593.372437,574.223511 1595.366455,575.609192 1596.474243,578.846802 
	C1597.440918,581.671204 1599.003174,584.313843 1599.775513,587.178772 
	C1602.688965,597.986450 1609.221802,606.030884 1618.343750,612.158081 
	C1622.948242,615.250916 1625.492310,619.467773 1627.461182,624.718140 
	C1633.796143,641.611633 1636.636963,659.226257 1640.053711,676.809570 
	C1642.656738,690.205444 1648.151733,702.581665 1659.173340,711.898376 
	C1670.834961,721.756165 1682.397827,731.804810 1693.189087,742.585693 
	C1698.200073,747.591858 1702.017822,754.181885 1705.075928,760.667236 
	C1710.457520,772.079651 1714.135742,784.144958 1716.123291,796.715210 
	C1716.520996,799.230347 1718.810913,801.606812 1720.644287,803.679199 
	C1721.920654,805.122070 1724.029419,805.789307 1725.557495,807.055237 
	C1735.040283,814.911194 1744.903320,817.439331 1756.115967,810.318787 
	C1760.477539,807.549011 1765.395020,807.324280 1770.440552,809.568542 
	C1774.041260,811.170044 1778.002319,811.961487 1782.273682,813.776978 
	C1775.212769,825.762268 1767.823975,837.183594 1760.108398,848.379700 
	C1752.551758,859.344910 1743.859253,869.609131 1737.142090,881.048218 
	C1730.272705,892.746948 1725.614868,905.719788 1719.257446,917.748291 
	C1700.749390,952.766785 1695.744263,991.682068 1686.870850,1029.441895 
	C1685.357910,1035.880249 1687.511841,1043.266113 1688.382690,1050.162476 
	C1690.713501,1068.622681 1692.863037,1087.121460 1695.896606,1105.470703 
	C1697.513184,1115.248535 1700.618164,1124.804565 1703.392090,1134.361694 
	C1708.862061,1153.207153 1714.443726,1172.022949 1720.271973,1190.759888 
	C1721.632568,1195.134033 1723.741211,1199.416992 1726.230835,1203.273560 
	C1735.982544,1218.379150 1745.566895,1233.626709 1756.065674,1248.207764 
	C1771.815918,1270.082642 1781.826660,1294.839844 1791.821289,1319.416626 
	C1803.206665,1347.412964 1821.214478,1370.562500 1840.806030,1393.557251 
z"/>
</svg>