<svg version="1.1" id="Layer_1" xmlns="http://www.w3.org/2000/svg" xmlns:xlink="http://www.w3.org/1999/xlink" x="0px" y="0px"
	 width="100%" viewBox="0 0 2143 2822" enable-background="new 0 0 2143 2822" xml:space="preserve">


<path 
	data-name="Nwa"
fill="#4258A1" opacity="1.000000" stroke="none" 
	d="
M1746.666626,2824.000000 
	C1746.000000,2821.842041 1746.000000,2819.684082 1746.000000,2817.511963 
	C1743.500488,2817.511963 1741.599731,2817.577148 1739.708130,2817.474854 
	C1739.099487,2817.441895 1738.176270,2817.123535 1737.969604,2816.673096 
	C1734.735596,2809.623291 1723.954224,2810.572510 1722.483887,2801.149414 
	C1723.969971,2797.237549 1725.718384,2792.635498 1727.670654,2787.497070 
	C1725.576660,2784.811279 1724.499634,2782.084717 1725.058472,2777.607422 
	C1725.586548,2773.377441 1721.535889,2768.020752 1718.388062,2764.037842 
	C1715.019653,2759.775879 1715.022949,2755.329346 1714.910767,2750.524658 
	C1714.847168,2747.805664 1714.160278,2745.101318 1713.757080,2742.409424 
	C1710.375122,2742.081299 1707.821899,2741.833496 1704.861938,2741.546387 
	C1704.477295,2737.279541 1703.869507,2733.349609 1703.834595,2729.414551 
	C1703.793945,2724.837402 1705.018066,2720.352783 1699.419800,2717.396729 
	C1697.640625,2716.457764 1696.497803,2711.912842 1697.042603,2709.457031 
	C1698.291504,2703.829590 1694.260010,2700.961426 1691.638916,2697.703613 
	C1690.405151,2696.169922 1686.646973,2696.667725 1682.703247,2696.029785 
	C1681.489746,2694.412354 1679.324707,2691.526611 1676.477905,2687.731934 
	C1672.719116,2688.718506 1668.387329,2689.682861 1664.165771,2691.000488 
	C1655.875977,2693.588379 1646.130493,2689.310303 1641.966309,2681.659668 
	C1639.429199,2676.998291 1633.874878,2673.761230 1636.703125,2666.854004 
	C1637.046387,2666.015625 1631.859497,2663.521729 1633.210205,2659.059814 
	C1633.949341,2656.618408 1632.229126,2653.432617 1631.536499,2650.201904 
	C1627.148071,2649.945557 1622.328003,2650.919922 1618.994873,2649.128174 
	C1615.421143,2647.207275 1612.859985,2643.579346 1608.379517,2642.338623 
	C1601.796753,2640.515625 1596.209229,2636.150879 1588.677002,2636.319092 
	C1583.578491,2636.432861 1578.474487,2633.637451 1573.275757,2632.661133 
	C1567.798462,2631.633301 1562.205444,2631.222168 1555.196045,2630.275635 
	C1548.334351,2627.209473 1543.980103,2623.571777 1540.619263,2618.193848 
	C1535.374512,2609.800293 1528.810547,2602.233154 1523.537476,2593.854980 
	C1521.364136,2590.401855 1519.137817,2585.049561 1520.317871,2581.782715 
	C1523.770020,2572.225098 1520.726929,2564.349609 1517.015381,2556.010742 
	C1514.628906,2550.648438 1513.025757,2544.898193 1511.508545,2539.205322 
	C1510.769531,2536.431152 1510.475708,2533.297852 1510.943604,2530.487549 
	C1512.382080,2521.845947 1512.928223,2513.417725 1509.504517,2505.019531 
	C1508.419189,2502.357422 1507.708496,2499.079346 1508.191895,2496.322754 
	C1510.070068,2485.612305 1509.198120,2473.766846 1520.109985,2466.457275 
	C1522.427856,2464.904541 1523.686157,2461.732178 1525.350098,2459.250732 
	C1527.375366,2456.230225 1528.774292,2452.550049 1531.387573,2450.207520 
	C1540.190552,2442.316650 1540.919189,2431.444092 1539.358398,2421.760254 
	C1537.274048,2408.828613 1531.716309,2396.471436 1527.856323,2383.804688 
	C1526.335815,2378.814941 1525.162598,2373.694092 1524.214722,2368.562256 
	C1523.314697,2363.691162 1522.877808,2358.731934 1522.308716,2353.802979 
	C1521.902588,2350.285889 1519.960938,2348.755127 1516.493530,2348.150635 
	C1507.695068,2346.617188 1498.936157,2344.836914 1490.200928,2342.970703 
	C1486.650024,2342.211914 1483.036743,2341.345947 1479.736816,2339.885010 
	C1468.723999,2335.009033 1467.288574,2331.960449 1469.652588,2320.067871 
	C1470.808105,2314.254639 1468.677246,2312.119629 1462.738892,2312.772461 
	C1457.145508,2313.387451 1451.525635,2313.793701 1445.908813,2314.159424 
	C1431.575806,2315.093018 1424.291870,2310.067871 1419.738525,2296.501953 
	C1416.947388,2288.186035 1411.675171,2281.509277 1403.669189,2276.968506 
	C1396.175903,2272.718750 1389.078369,2267.731445 1382.043213,2262.735596 
	C1379.692993,2261.066650 1377.517212,2258.652832 1376.213867,2256.094482 
	C1370.489990,2244.858887 1359.511108,2239.303711 1350.411377,2231.743652 
	C1349.015869,2230.584229 1346.722900,2230.102051 1344.817261,2230.028564 
	C1335.862305,2229.684082 1331.740601,2224.803955 1331.133911,2216.241943 
	C1330.994263,2214.271973 1330.097168,2212.296631 1330.242676,2210.375977 
	C1330.768555,2203.436279 1328.092773,2197.794434 1322.881958,2193.711914 
	C1316.173950,2188.456543 1312.827026,2181.847656 1312.294189,2173.484131 
	C1311.543091,2161.695801 1307.533325,2149.916016 1313.529053,2138.220215 
	C1315.766724,2133.854980 1316.591187,2128.765137 1318.057739,2124.005127 
	C1320.218872,2116.990967 1318.520752,2111.122314 1313.338867,2105.881348 
	C1310.089111,2102.594482 1306.998657,2098.973389 1304.632446,2095.025635 
	C1299.337769,2086.190918 1294.144653,2077.247314 1289.719727,2067.962158 
	C1287.711914,2063.749023 1285.325439,2059.165039 1287.145752,2053.730713 
	C1287.809937,2051.747803 1286.620728,2048.665771 1285.394165,2046.612793 
	C1280.749268,2038.838257 1280.027832,2029.834229 1283.511963,2022.630005 
	C1289.070068,2011.137207 1287.198120,1998.473633 1291.672485,1987.009033 
	C1293.308838,1982.816162 1293.379761,1977.979248 1293.917725,1973.406982 
	C1294.142822,1971.493408 1294.089844,1969.393066 1293.534058,1967.569458 
	C1291.600830,1961.225708 1290.080322,1954.614136 1287.094604,1948.773315 
	C1284.101685,1942.918701 1285.059082,1938.013794 1287.696411,1932.770630 
	C1289.192139,1929.796875 1290.839966,1926.876831 1292.036865,1923.784546 
	C1292.702148,1922.065430 1293.443115,1919.519409 1292.669312,1918.245605 
	C1289.112549,1912.391357 1289.695190,1907.102051 1293.008179,1901.361938 
	C1294.191772,1899.310913 1293.686646,1896.285400 1293.981812,1893.417969 
	C1291.027100,1892.320190 1288.627808,1890.834473 1286.118896,1890.617554 
	C1280.504150,1890.132080 1274.795410,1889.811768 1269.197632,1890.284424 
	C1262.020142,1890.890503 1258.148682,1887.831055 1255.591431,1881.374512 
	C1252.540405,1873.671021 1248.755249,1866.257935 1245.277222,1858.724121 
	C1242.199829,1852.058105 1239.555054,1845.409058 1239.809204,1837.736328 
	C1240.069092,1829.883057 1236.479736,1823.801880 1229.530640,1819.599854 
	C1227.241455,1818.215576 1225.748413,1815.514893 1223.997314,1812.748291 
	C1226.870728,1806.909302 1229.821777,1801.827026 1232.366943,1796.548950 
	C1237.558594,1785.782471 1236.845947,1783.859131 1226.386108,1778.393066 
	C1218.865234,1774.462646 1217.404297,1769.829834 1220.761963,1762.143799 
	C1222.182617,1758.891602 1222.774780,1755.285034 1223.849731,1751.872803 
	C1226.107666,1744.705444 1228.520874,1737.586060 1230.717041,1730.400269 
	C1234.695801,1717.381348 1238.611572,1704.481201 1233.503296,1690.628540 
	C1231.487305,1685.161987 1230.925659,1679.020264 1230.513062,1673.129272 
	C1229.598389,1660.069214 1221.815308,1653.327515 1209.178955,1655.360718 
	C1204.027710,1656.189575 1199.674561,1655.728394 1195.561157,1651.609863 
	C1186.197632,1642.234985 1176.551270,1633.106445 1166.539917,1624.431396 
	C1162.063354,1620.552490 1160.088745,1616.389771 1160.174316,1610.665039 
	C1160.278687,1603.692261 1159.992798,1596.712891 1159.844727,1589.737061 
	C1159.714233,1583.596436 1156.985840,1578.357422 1151.851196,1575.599243 
	C1142.365601,1570.503540 1138.941162,1560.971436 1133.552246,1552.177856 
	C1135.308960,1546.776855 1137.193359,1542.163330 1138.578125,1537.404541 
	C1139.855591,1533.014648 1141.631348,1528.382446 1141.267212,1524.017212 
	C1140.939575,1520.089111 1141.667969,1517.091187 1143.140991,1513.662109 
	C1146.787720,1505.172607 1150.820068,1496.985962 1152.832642,1487.645874 
	C1155.390625,1475.774780 1162.002075,1465.244995 1173.566040,1459.691162 
	C1180.219971,1456.495361 1182.847534,1451.515381 1183.630859,1444.918579 
	C1184.961670,1433.708008 1191.007935,1422.509277 1183.870361,1411.213135 
	C1183.562744,1410.726318 1183.899048,1409.876343 1183.743164,1409.242798 
	C1182.564087,1404.447876 1182.147583,1399.253784 1179.969238,1394.956665 
	C1173.995605,1383.172363 1168.394165,1371.079468 1159.001709,1361.364502 
	C1156.951294,1359.243652 1155.429199,1356.584595 1153.813843,1354.076660 
	C1150.723999,1349.279297 1151.095459,1344.636963 1154.786865,1340.298584 
	C1156.081543,1338.777222 1158.174683,1337.551025 1158.673950,1335.832764 
	C1159.321289,1333.605103 1159.741211,1329.787964 1158.519897,1328.795776 
	C1152.164185,1323.632080 1147.194824,1317.837891 1145.690430,1309.545288 
	C1145.582520,1308.950806 1145.038696,1308.375854 1144.575195,1307.914673 
	C1137.734009,1301.106323 1131.682495,1293.087769 1123.779541,1287.883667 
	C1116.343506,1282.987061 1115.318848,1278.415771 1117.510376,1270.574585 
	C1120.131714,1261.195312 1112.986328,1244.835205 1104.109009,1240.603638 
	C1095.364746,1236.435181 1088.662720,1230.687134 1084.390259,1222.469849 
	C1073.998169,1224.533936 1063.504395,1220.471802 1061.598145,1212.850342 
	C1059.935547,1206.202881 1058.872192,1199.601807 1053.985962,1194.399414 
	C1052.075684,1192.365723 1050.517944,1189.724243 1048.204346,1188.398438 
	C1041.719971,1184.682983 1036.039917,1175.729858 1038.789795,1169.583252 
	C1042.326050,1161.678955 1042.560913,1154.482666 1038.128052,1146.449829 
	C1041.155396,1145.060425 1043.596191,1144.181274 1045.778320,1142.871216 
	C1047.957397,1141.563110 1051.005249,1140.215332 1051.704468,1138.201660 
	C1054.009277,1131.563354 1059.495483,1125.702148 1056.546631,1117.556519 
	C1055.234253,1113.931274 1056.905640,1109.210938 1060.927979,1108.697510 
	C1068.317383,1107.754395 1076.021851,1104.981567 1083.313965,1107.979858 
	C1088.238525,1110.004883 1092.851440,1110.529419 1097.864136,1109.496826 
	C1096.748901,1111.748047 1095.967773,1114.261963 1094.447632,1116.194824 
	C1091.482056,1119.965576 1092.367310,1123.217651 1095.665649,1125.687988 
	C1100.296509,1129.156494 1105.188843,1132.172729 1103.638062,1139.174194 
	C1111.598877,1145.552002 1111.988770,1155.072144 1113.994995,1163.942505 
	C1114.197510,1164.838257 1115.031250,1165.644043 1115.700562,1166.373535 
	C1123.324585,1174.682129 1131.070190,1182.881714 1138.568848,1191.301392 
	C1141.631226,1194.739868 1144.732666,1198.355103 1146.809692,1202.406006 
	C1149.410156,1207.478271 1152.853394,1210.114624 1158.552979,1209.764893 
	C1159.877319,1209.683594 1161.215820,1209.874390 1162.547607,1209.869873 
	C1168.458252,1209.850220 1172.941162,1211.683472 1174.375488,1218.189209 
	C1174.783447,1220.039673 1176.072021,1221.695923 1177.594116,1224.698608 
	C1179.397217,1222.257812 1181.108643,1220.785767 1181.736816,1218.944214 
	C1184.441406,1211.015625 1193.046875,1209.615356 1199.660645,1215.161499 
	C1200.933960,1216.229126 1202.031738,1217.503174 1203.261230,1218.626465 
	C1211.161499,1225.844849 1219.360596,1232.521973 1230.395508,1234.400757 
	C1232.338379,1234.731445 1234.179810,1235.657959 1236.068481,1236.308105 
	C1242.494507,1238.521240 1242.119629,1247.485107 1250.312012,1249.131836 
	C1257.157349,1250.507935 1258.012573,1259.307739 1261.187622,1265.026611 
	C1266.412598,1274.438232 1269.123413,1285.062012 1275.143555,1294.103027 
	C1275.875244,1295.201782 1276.712891,1296.446167 1276.847534,1297.693481 
	C1278.770386,1315.531372 1292.527832,1325.325073 1303.583984,1336.883057 
	C1305.168701,1338.539673 1308.926636,1340.322144 1310.240356,1339.561646 
	C1312.760742,1338.102661 1314.620117,1335.049561 1316.023315,1332.286743 
	C1316.836548,1330.685791 1316.451050,1328.334961 1316.215576,1326.368286 
	C1315.471558,1320.155518 1317.830322,1315.417847 1323.027100,1311.271606 
	C1332.417847,1316.939209 1340.209595,1324.286011 1346.659058,1333.100098 
	C1348.613037,1335.770752 1350.441528,1338.420654 1349.004883,1342.266235 
	C1348.470825,1343.695312 1349.563599,1345.953003 1350.377563,1347.604614 
	C1351.239502,1349.353516 1353.691650,1350.852661 1353.658691,1352.423340 
	C1353.420654,1363.779785 1353.982544,1375.379150 1351.765625,1386.393066 
	C1350.126953,1394.533813 1347.677612,1402.020142 1349.367798,1410.600220 
	C1350.952393,1418.643799 1350.416992,1427.083984 1351.624390,1435.229736 
	C1352.573120,1441.631592 1354.786499,1447.724976 1357.285034,1453.877686 
	C1360.027710,1460.632080 1359.142212,1468.862061 1359.820679,1476.450562 
	C1359.937988,1477.761963 1359.971069,1479.080933 1360.023315,1480.036987 
	C1368.438477,1485.186890 1376.259277,1490.715454 1384.757568,1494.852051 
	C1388.836182,1496.837036 1391.028076,1499.367432 1392.578247,1503.095337 
	C1394.426147,1507.539062 1397.327881,1510.562134 1401.736084,1513.015747 
	C1412.618164,1519.073120 1423.568237,1525.180664 1431.561157,1535.301880 
	C1433.429443,1537.667725 1436.669800,1538.950195 1440.137573,1541.317139 
	C1441.903076,1532.853149 1443.354370,1525.895630 1445.039673,1517.815796 
	C1447.469482,1519.422363 1448.880981,1520.644043 1450.512573,1521.375000 
	C1454.052002,1522.960938 1457.694580,1525.479248 1461.311157,1525.506836 
	C1471.312134,1525.583008 1480.946899,1526.776978 1490.872070,1531.356812 
	C1491.311035,1533.379761 1491.926636,1536.216675 1492.787476,1540.184082 
	C1497.139282,1533.869507 1504.380981,1540.199707 1509.335205,1534.700562 
	C1515.953857,1527.353394 1522.029175,1528.239136 1526.941040,1536.248657 
	C1527.623291,1537.361206 1528.326538,1538.460938 1528.293945,1538.408936 
	C1535.446411,1539.177490 1541.507568,1539.718750 1547.536133,1540.509155 
	C1553.044434,1541.231201 1555.948853,1538.954224 1556.535278,1533.091309 
	C1556.684204,1531.603516 1556.819214,1530.114380 1556.975098,1528.473145 
	C1564.535400,1529.130005 1560.490112,1537.062622 1566.691284,1539.103149 
	C1572.451172,1535.382202 1579.288452,1530.472168 1586.578491,1526.366211 
	C1598.907104,1519.422852 1611.625488,1513.360596 1622.878296,1504.406738 
	C1630.357666,1498.455200 1636.770508,1492.353149 1640.397827,1483.472168 
	C1641.953857,1479.662109 1644.393188,1477.167236 1648.895508,1476.025024 
	C1653.245972,1474.921387 1657.283203,1472.245239 1661.196289,1469.835083 
	C1667.119751,1466.186401 1672.559692,1467.302124 1677.963257,1470.760498 
	C1680.470581,1472.365234 1682.764648,1474.452759 1685.466919,1475.563110 
	C1688.402100,1476.769165 1692.052124,1478.334351 1694.770508,1477.561768 
	C1701.873169,1475.543335 1707.729370,1478.058594 1713.850342,1480.681885 
	C1728.808838,1487.093140 1730.622314,1486.226929 1735.845459,1470.856201 
	C1736.360718,1469.339844 1737.221313,1467.940796 1738.301392,1465.699341 
	C1766.849243,1477.674927 1789.806885,1494.390991 1798.932251,1525.510254 
	C1799.493286,1524.911743 1800.306274,1524.044434 1801.124023,1523.177734 
	C1801.668335,1523.468018 1802.416138,1523.618164 1802.717407,1524.067627 
	C1811.062622,1536.517700 1822.728027,1545.591309 1834.374634,1554.544800 
	C1839.259644,1558.300293 1841.786377,1562.421021 1842.247681,1568.472778 
	C1842.497681,1571.752319 1844.095215,1574.929077 1846.731323,1578.184692 
	C1844.369751,1583.887817 1842.017578,1589.594971 1839.632568,1595.288330 
	C1839.379028,1595.893433 1838.546875,1596.486206 1838.632446,1596.970215 
	C1841.135864,1611.149658 1830.842285,1624.223267 1835.020508,1638.571777 
	C1835.329102,1639.631348 1834.292114,1641.023071 1834.119751,1642.292725 
	C1833.329346,1648.119263 1832.538086,1653.802002 1833.946289,1659.829590 
	C1835.481689,1666.401611 1833.143921,1673.004517 1832.324097,1679.612183 
	C1831.005859,1690.236084 1832.462769,1701.204224 1832.764160,1712.676880 
	C1831.810303,1713.205933 1830.131836,1714.136841 1827.906494,1715.370972 
	C1830.188354,1718.303955 1832.369263,1721.107056 1834.610962,1723.988281 
	C1834.526855,1724.964233 1834.789551,1726.175903 1834.306885,1726.867920 
	C1828.794678,1734.769165 1830.148682,1743.154175 1832.391846,1751.617065 
	C1832.727417,1752.883301 1833.838989,1754.272827 1833.553101,1755.322632 
	C1831.287354,1763.645752 1836.059692,1768.953979 1842.163818,1774.339844 
	C1835.919800,1779.560913 1834.501587,1785.773804 1837.374268,1792.893555 
	C1837.694336,1793.686890 1837.658936,1795.239014 1838.015381,1795.310547 
	C1844.322632,1796.579224 1841.397827,1801.555298 1841.800781,1804.979004 
	C1842.224976,1808.584351 1841.895752,1812.278320 1841.895752,1817.660156 
	C1839.458984,1820.514526 1833.399780,1824.304199 1838.793091,1831.647827 
	C1839.143066,1832.124023 1835.990845,1835.172485 1833.657959,1838.008789 
	C1833.622192,1837.948853 1834.853638,1839.061768 1834.676636,1839.864014 
	C1832.357788,1850.371216 1841.090698,1860.126831 1836.592407,1870.918579 
	C1835.597534,1873.305176 1837.470703,1876.745361 1837.346069,1879.671631 
	C1837.179077,1883.594849 1841.638916,1887.515869 1837.155884,1891.721680 
	C1836.565796,1892.275146 1839.466797,1896.549805 1841.242065,1900.076904 
	C1837.322510,1905.740356 1838.798218,1912.666504 1840.506104,1919.783691 
	C1841.351074,1923.305298 1841.286621,1927.162598 1840.988281,1930.815308 
	C1840.432373,1937.622925 1840.740112,1944.213989 1841.662964,1951.052490 
	C1842.257202,1955.457642 1837.958008,1960.307983 1837.903320,1965.661011 
	C1837.866211,1969.297485 1837.639160,1972.375610 1840.330200,1975.703613 
	C1842.867798,1978.841431 1843.661133,1983.389771 1845.223877,1987.315796 
	C1853.300415,1988.991699 1861.478394,1990.297119 1869.405029,1992.504761 
	C1873.352539,1993.604126 1877.168091,1995.933105 1880.447388,1998.474609 
	C1884.090210,2001.297852 1886.506836,2002.249390 1891.726562,2000.488037 
	C1901.152100,1997.307617 1907.451538,1991.527588 1913.433594,1984.184814 
	C1918.844482,1977.543579 1924.615112,1970.723755 1931.585693,1965.977905 
	C1936.935547,1962.335693 1944.399048,1961.797974 1951.801392,1959.621338 
	C1952.470337,1977.782104 1953.083130,1994.415649 1953.711182,2011.466309 
	C1957.626343,2015.715698 1961.802979,2020.742798 1966.505737,2025.217285 
	C1971.407471,2029.881348 1976.933960,2032.732300 1984.406494,2032.034424 
	C1997.749878,2030.788330 2010.253052,2035.789307 2022.999268,2038.782837 
	C2024.867798,2039.221558 2026.738403,2039.651489 2029.054810,2040.189209 
	C2029.770020,2036.880127 2030.384277,2034.037354 2031.185913,2030.328003 
	C2041.915527,2036.145508 2049.892334,2027.725342 2059.137939,2025.276733 
	C2063.577637,2024.100830 2068.029053,2022.966797 2072.453369,2021.736694 
	C2075.595703,2020.863281 2078.894043,2020.254517 2081.789795,2018.844727 
	C2091.671387,2014.033813 2101.913330,2012.560669 2113.533203,2014.482666 
	C2110.160645,2025.159424 2116.865479,2031.510376 2122.955811,2038.533936 
	C2132.121582,2049.104004 2132.239746,2062.402588 2131.710693,2075.350342 
	C2131.568604,2078.822754 2128.156006,2082.408447 2125.681885,2085.490234 
	C2119.540283,2093.140381 2116.514648,2101.545410 2117.768311,2111.424561 
	C2118.864746,2120.065918 2114.477295,2127.046631 2109.679443,2133.361084 
	C2103.156006,2141.947266 2101.132568,2151.381836 2099.531250,2161.878174 
	C2097.378906,2175.987793 2097.542725,2187.923828 2109.487061,2197.899414 
	C2113.076416,2200.897217 2114.173584,2206.694336 2117.182129,2210.619141 
	C2120.758545,2215.285400 2124.534912,2220.292480 2129.354492,2223.398193 
	C2137.005859,2228.328369 2139.147461,2235.055420 2137.911865,2243.032471 
	C2136.437012,2252.556396 2134.221680,2261.922363 2126.534668,2269.001709 
	C2121.976074,2273.199951 2119.869873,2278.770264 2120.192871,2285.208252 
	C2120.375244,2288.847900 2120.562256,2292.703857 2119.601807,2296.142334 
	C2116.951904,2305.626221 2120.301025,2313.508057 2124.610596,2321.623535 
	C2129.949707,2331.677246 2132.683105,2341.670898 2129.782227,2353.979492 
	C2127.227783,2364.819092 2123.054443,2373.568848 2116.186523,2381.949951 
	C2109.679199,2389.890625 2112.587891,2399.721924 2112.606934,2407.454590 
	C2119.240967,2413.276855 2124.996338,2418.235596 2130.644531,2423.312988 
	C2135.403076,2427.590576 2139.543213,2432.212158 2140.562988,2439.015137 
	C2140.775879,2440.435059 2143.195557,2441.523926 2145.299316,2442.382812 
	C2146.000000,2449.385742 2146.000000,2456.771729 2145.288818,2464.804688 
	C2137.637207,2469.664795 2136.394531,2477.333252 2134.859619,2484.047852 
	C2134.126221,2487.256836 2137.980713,2491.596191 2139.956055,2495.318359 
	C2141.813721,2498.818848 2140.497559,2517.969482 2137.854980,2520.829834 
	C2136.782471,2521.990723 2135.354004,2523.102539 2133.878418,2523.553711 
	C2130.731445,2524.516357 2127.357422,2524.764160 2124.246094,2525.809570 
	C2121.259521,2526.812500 2118.231445,2528.094971 2115.690430,2529.911133 
	C2113.014893,2531.823486 2110.606201,2534.292725 2108.599854,2536.915527 
	C2105.477783,2540.997559 2102.449951,2544.426514 2096.594727,2544.579834 
	C2092.493652,2544.687256 2089.493652,2548.128906 2090.001465,2552.029541 
	C2090.987061,2559.601562 2088.953613,2565.629395 2083.592041,2570.827393 
	C2082.939941,2571.459717 2082.695068,2572.606934 2082.465332,2573.564697 
	C2080.143311,2583.252686 2076.684570,2592.952637 2078.403809,2603.002197 
	C2080.192139,2613.455811 2076.273438,2622.342041 2072.703125,2631.252930 
	C2073.785400,2634.515625 2074.255859,2637.945557 2075.933838,2640.616943 
	C2081.026855,2648.725342 2081.529541,2656.487793 2076.419434,2664.847168 
	C2075.261475,2666.741211 2076.249023,2669.947021 2076.249023,2673.234131 
	C2080.602051,2674.823730 2085.052490,2676.107910 2089.202637,2678.038086 
	C2096.895996,2681.616699 2105.712402,2682.980957 2111.696533,2690.033936 
	C2114.166748,2692.945312 2112.615234,2693.915283 2110.607422,2695.329590 
	C2105.458252,2692.003174 2105.484619,2692.125977 2098.532715,2693.624268 
	C2096.710205,2694.016846 2094.665771,2693.243896 2092.726562,2693.268555 
	C2090.860840,2693.292480 2088.718994,2693.133301 2087.183350,2693.957764 
	C2079.179199,2698.254639 2079.175781,2698.412842 2073.310791,2692.613770 
	C2070.456299,2689.791504 2068.044189,2688.648926 2063.277832,2688.664062 
	C2055.728027,2688.687988 2047.930542,2685.652100 2040.677368,2682.795166 
	C2033.451416,2679.948730 2026.766602,2675.728760 2017.982300,2671.137695 
	C2017.658081,2677.603516 2017.426880,2682.211670 2017.193726,2686.859863 
	C2011.977661,2689.098145 2006.211060,2691.237793 2000.764648,2694.006836 
	C1995.642700,2696.611084 2000.863525,2701.405762 1998.693848,2704.325928 
	C1994.697876,2706.436035 1991.473755,2709.971191 1987.489014,2711.433105 
	C1982.638550,2713.212646 1976.761597,2712.486572 1975.234375,2715.975098 
	C1975.234375,2724.707031 1975.234375,2730.880615 1975.234375,2737.870850 
	C1966.198242,2739.888184 1966.477783,2750.411621 1960.489990,2755.922363 
	C1959.771973,2756.583008 1959.561279,2759.200684 1960.093506,2759.596436 
	C1965.390991,2763.536621 1960.750244,2767.276611 1959.884766,2770.881592 
	C1958.372925,2777.177490 1952.842285,2780.635742 1946.850342,2779.133057 
	C1938.579224,2777.058838 1930.400024,2774.618164 1922.252808,2772.354248 
	C1920.677979,2773.722900 1919.350586,2774.704102 1918.228394,2775.881104 
	C1913.316406,2781.032715 1908.489746,2785.809570 1900.276489,2782.146973 
	C1898.557739,2781.380615 1895.378540,2782.273193 1893.644653,2783.496094 
	C1890.129272,2785.975342 1883.783569,2783.282227 1882.448364,2789.619873 
	C1882.423950,2789.736328 1881.086182,2789.875000 1880.699829,2789.571533 
	C1876.113770,2785.973389 1874.832153,2790.145020 1873.507446,2792.893066 
	C1870.929077,2798.241211 1865.633789,2800.223877 1861.238647,2799.246338 
	C1854.729492,2797.799561 1848.325439,2799.712646 1842.087158,2798.236816 
	C1835.410889,2796.657227 1829.468994,2797.561035 1823.996948,2801.768311 
	C1822.997192,2802.536865 1821.602905,2802.792236 1821.400024,2802.874512 
	C1817.228027,2801.009277 1813.893921,2799.518555 1810.737061,2798.107178 
	C1808.253662,2801.462402 1806.520020,2803.804688 1804.525269,2806.499756 
	C1800.052734,2805.727539 1795.868896,2805.020752 1791.691284,2804.279541 
	C1786.743286,2803.401611 1781.773071,2804.278809 1779.349731,2808.580566 
	C1776.722168,2813.244629 1775.714355,2818.821289 1774.000000,2824.000000 
	C1769.916626,2824.000000 1765.833374,2824.000000 1760.932861,2823.267578 
	C1757.002441,2820.890381 1753.889038,2819.245605 1750.000000,2817.191162 
	C1750.000000,2819.940674 1750.000000,2821.970459 1750.000000,2824.000000 
	C1749.111084,2824.000000 1748.222168,2824.000000 1746.666626,2824.000000 
z"/>
<path 
	data-name="Misaje"
fill="#7BEDE4" opacity="1.000000" stroke="none" 
	d="
M574.354248,2125.128906 
	C572.097778,2126.177979 569.692566,2128.348389 567.611694,2128.072266 
	C560.433472,2127.120605 553.366455,2125.325195 546.263916,2123.819092 
	C545.625061,2123.683594 544.888306,2123.466797 544.444946,2123.033691 
	C537.527771,2116.279053 527.465881,2113.467041 522.216125,2104.469238 
	C517.595947,2096.550049 511.965454,2095.525146 503.903442,2099.975098 
	C501.304993,2101.409424 498.580566,2102.644531 496.100220,2104.257324 
	C491.547119,2107.218506 487.637573,2110.507324 488.164886,2116.939209 
	C488.394409,2119.739014 487.208801,2122.655029 486.592255,2125.906738 
	C482.965668,2126.068359 480.012512,2126.117676 477.075287,2126.360107 
	C475.123718,2126.520996 472.903046,2126.447021 471.306427,2127.359375 
	C464.309937,2131.357666 457.537811,2135.746338 450.590973,2139.834717 
	C448.691467,2140.952393 446.471832,2141.530029 444.391205,2142.334717 
	C441.046844,2143.628418 437.301727,2144.336426 434.439209,2146.321045 
	C430.061249,2149.355957 426.344208,2148.944092 422.775818,2145.650391 
	C418.883667,2142.057861 415.482300,2137.920166 411.492554,2134.450684 
	C408.027222,2131.437256 404.258850,2128.616699 400.227753,2126.448242 
	C395.065796,2123.671631 389.506348,2121.633789 383.787231,2119.133057 
	C383.787231,2114.279541 383.787231,2110.096680 383.787231,2104.870117 
	C377.770233,2107.262939 372.789703,2109.567383 367.600616,2111.214600 
	C362.591553,2112.804688 357.180084,2113.208984 352.271790,2115.019287 
	C335.553925,2121.185303 319.881042,2120.312988 305.613434,2108.909668 
	C303.068787,2106.875732 300.561523,2104.314941 299.147003,2101.449463 
	C296.353485,2095.790527 293.227722,2091.077881 283.968231,2091.580566 
	C286.402740,2088.098633 287.509735,2085.941650 289.134857,2084.296631 
	C294.391327,2078.975586 297.012054,2072.732910 295.550537,2065.344727 
	C294.949615,2062.306885 293.697540,2058.966553 291.671783,2056.735107 
	C287.882263,2052.560547 285.738434,2049.240967 287.757996,2042.790649 
	C289.662170,2036.708862 288.175995,2029.592407 288.373688,2022.936890 
	C288.460815,2020.002808 288.513000,2016.903198 289.467987,2014.191040 
	C292.195129,2006.445557 296.697662,2000.610840 306.741089,2002.089600 
	C309.051178,1992.859131 311.701965,1984.115234 313.178253,1975.177368 
	C313.589966,1972.684570 311.021240,1969.161499 308.941223,1966.929932 
	C306.267731,1964.061768 302.560974,1962.188599 299.565613,1959.580933 
	C295.189026,1955.770752 295.250763,1951.370361 299.945984,1948.084229 
	C303.409119,1945.660278 306.956116,1943.595215 311.937866,1945.252441 
	C315.348663,1946.386963 319.441986,1945.469727 325.043121,1945.469727 
	C322.557281,1938.336060 320.776337,1932.784668 318.693970,1927.348755 
	C315.226288,1918.296387 310.491364,1910.124390 301.994324,1904.739746 
	C301.199219,1904.236084 300.067108,1903.315063 300.087860,1902.617554 
	C300.333649,1894.344238 294.241974,1890.535767 288.833862,1886.190308 
	C285.648163,1883.630371 285.666687,1880.764160 287.955322,1877.472412 
	C289.431549,1875.349365 291.692291,1872.693237 291.381134,1870.607056 
	C290.432739,1864.248657 294.427551,1861.711670 298.973602,1859.214478 
	C297.267395,1848.494507 292.639526,1837.809692 300.402161,1828.208374 
	C299.843994,1819.382202 288.030304,1818.399536 287.252380,1809.075562 
	C291.389648,1808.550171 294.580658,1808.145020 297.697144,1807.749268 
	C300.747192,1803.233398 301.798553,1799.337646 296.833618,1795.503296 
	C292.855957,1792.431396 293.398560,1787.865234 294.040009,1783.505859 
	C294.949890,1777.321777 294.171509,1772.329590 288.652161,1767.747314 
	C285.635437,1765.242920 283.801331,1759.497925 283.993256,1755.332275 
	C284.363983,1747.287109 281.527985,1741.231079 276.305786,1735.730225 
	C275.396637,1734.772461 274.653137,1733.648071 273.894989,1732.557739 
	C268.770325,1725.187988 269.192963,1720.215088 275.438873,1714.097168 
	C283.435455,1706.264526 282.949799,1706.460205 278.600189,1695.675293 
	C276.177765,1689.668701 275.373169,1682.927124 274.443420,1676.430420 
	C273.841156,1672.222290 274.330078,1667.858154 274.330078,1662.885132 
	C265.208405,1663.689331 256.934631,1657.607422 247.995270,1661.912354 
	C243.649017,1659.014648 239.050781,1656.428223 235.007217,1653.156494 
	C225.571793,1645.522461 217.095383,1636.471191 206.946701,1630.010620 
	C194.926636,1622.358887 183.743988,1612.306519 168.451324,1611.038818 
	C163.177719,1610.601685 157.915054,1609.921021 152.633453,1609.722778 
	C147.144272,1609.516479 142.072311,1609.389404 139.898621,1602.752563 
	C139.401596,1601.234863 136.319397,1600.427490 134.308746,1599.570679 
	C130.248398,1597.840454 128.561401,1595.189453 128.131744,1590.507446 
	C127.380928,1582.326050 125.753410,1574.173340 123.846931,1566.162476 
	C121.234093,1555.183716 121.994888,1544.676270 126.531868,1534.390625 
	C127.060303,1533.192627 128.109253,1531.846436 127.904320,1530.759888 
	C125.159775,1516.209595 128.823135,1501.739258 128.281311,1487.239136 
	C128.049423,1481.033691 128.837708,1474.450806 123.337578,1469.595703 
	C122.456955,1468.818115 122.027267,1467.266602 121.840347,1466.005859 
	C119.076553,1447.365601 116.593117,1428.681030 113.601921,1410.078003 
	C111.977440,1399.974976 109.537117,1390.002197 107.424850,1379.979126 
	C106.949089,1377.721680 105.757820,1375.480591 105.833321,1373.263916 
	C106.226074,1361.732300 107.123817,1350.216309 107.424767,1338.683838 
	C107.569389,1333.142212 107.270729,1327.492432 106.327309,1322.037842 
	C104.014709,1308.667114 101.997467,1295.491577 103.229851,1281.677979 
	C103.966171,1273.424805 101.451836,1264.660522 99.229538,1256.442139 
	C97.749214,1250.967651 95.576454,1246.116089 97.261780,1240.110229 
	C98.571709,1235.442261 97.732178,1230.625366 96.011345,1225.615479 
	C94.149017,1220.193970 94.144089,1213.856445 94.555290,1208.004517 
	C95.029343,1201.258179 93.373184,1196.257080 88.842911,1190.957153 
	C83.296829,1184.468750 77.912308,1179.316406 69.189629,1177.070679 
	C65.049973,1176.004883 62.084991,1170.538574 58.483864,1167.177124 
	C54.187534,1163.166870 56.945343,1158.819214 57.069283,1154.319946 
	C57.195175,1149.750000 55.456509,1144.345093 52.709812,1140.669067 
	C48.892982,1135.561157 48.246803,1130.520752 51.454441,1126.010010 
	C61.274864,1112.200073 57.727669,1096.817993 57.519581,1081.860962 
	C57.311352,1066.893799 51.336712,1054.338623 40.555267,1043.878174 
	C36.283596,1039.733765 32.592319,1034.953979 28.909561,1030.249878 
	C25.206692,1025.520020 22.700405,1020.449829 22.064964,1014.064026 
	C21.319479,1006.572266 19.141891,999.161011 17.010391,991.883240 
	C13.474628,979.810730 9.513207,967.861816 5.623278,955.895874 
	C5.254239,954.760681 4.120846,953.873962 2.671156,953.435974 
	C2.000000,951.222229 2.000000,948.444397 2.895726,944.978271 
	C8.432197,944.027161 13.102835,944.011658 17.708023,943.454895 
	C30.839092,941.867188 43.933903,939.981506 57.060455,938.354004 
	C83.660446,935.055908 110.210220,931.123718 136.899979,928.857666 
	C155.288116,927.296448 171.591034,930.604614 179.390244,948.744141 
	C185.250092,962.372986 197.192123,968.445679 211.587952,969.992310 
	C219.135895,970.803162 224.483383,967.731018 226.559204,960.253662 
	C227.863724,955.554504 228.371384,950.452209 228.206680,945.565552 
	C227.879593,935.861206 232.578918,930.009033 241.037750,926.401184 
	C255.074493,920.414307 268.893250,913.844482 283.187164,908.556396 
	C293.703217,904.665955 304.831360,902.429871 316.328461,899.832886 
	C323.598206,903.317078 330.116852,906.694885 336.891510,909.441101 
	C341.638000,911.365234 344.306732,914.452271 345.830841,919.257141 
	C350.163300,932.915955 358.201935,943.036194 372.278503,948.198792 
	C382.438782,951.924988 390.289429,958.616272 392.291962,970.243042 
	C392.501465,971.459534 393.560150,972.551514 394.299347,973.651184 
	C397.618347,978.589294 401.375641,983.287048 404.190491,988.495361 
	C407.308014,994.263733 409.897278,1000.376770 412.109100,1006.557129 
	C413.982117,1011.790894 415.099152,1017.309509 416.342926,1022.749573 
	C417.284698,1026.868774 418.157379,1031.035889 418.594879,1035.230347 
	C419.164978,1040.696167 419.236450,1046.212402 419.590546,1051.702637 
	C420.203796,1061.211670 418.955109,1070.980103 423.870209,1079.897217 
	C424.559540,1081.147827 423.694550,1083.179810 423.815125,1084.830811 
	C425.334473,1105.636841 426.819214,1126.446533 428.554993,1147.234985 
	C428.795929,1150.120483 430.041138,1153.040283 431.324921,1155.701294 
	C440.136932,1173.967163 450.247589,1191.714966 457.576630,1210.549316 
	C462.461639,1223.103149 470.348389,1228.171997 482.542236,1229.240356 
	C483.534149,1229.327148 484.510620,1229.625244 485.502014,1229.677124 
	C508.113861,1230.860840 523.853455,1245.098145 539.444763,1258.943481 
	C545.803040,1264.589722 550.427246,1272.293457 555.360657,1279.394409 
	C557.752869,1282.837646 559.874451,1286.891602 560.641052,1290.948242 
	C561.992065,1298.097534 565.794189,1302.571899 571.869629,1306.261719 
	C591.921204,1318.439453 609.657227,1333.110596 624.009277,1352.100342 
	C631.012573,1361.366577 637.161926,1369.618286 631.313660,1382.878906 
	C645.205139,1386.533447 646.486816,1397.348267 647.888672,1408.466553 
	C648.781494,1415.547363 648.908508,1421.954712 645.164062,1428.507568 
	C640.898682,1435.972290 636.847534,1443.830811 638.263611,1453.020508 
	C639.957886,1464.015259 636.402527,1475.532593 641.588013,1486.195801 
	C641.991577,1487.025635 641.769104,1488.167725 641.808167,1489.165894 
	C642.279358,1501.214355 646.873230,1511.608765 653.869080,1521.300903 
	C656.033875,1524.300171 657.494629,1528.502319 657.562073,1532.185059 
	C657.734070,1541.569580 654.041992,1549.161133 643.566650,1552.777344 
	C644.981750,1563.953369 646.145142,1574.818115 647.810791,1585.605225 
	C648.671631,1591.180542 649.854187,1596.443359 647.996399,1602.202759 
	C647.099976,1604.982056 648.503235,1608.603271 649.207092,1611.767090 
	C649.778015,1614.333374 651.663940,1616.815063 651.574463,1619.283813 
	C651.203430,1629.521973 654.952393,1638.867310 657.072937,1648.575806 
	C657.900330,1652.364502 658.116760,1656.459473 657.692627,1660.313843 
	C656.681641,1669.501465 655.189880,1678.639404 653.766846,1687.777710 
	C652.431519,1696.352783 655.085754,1702.277954 663.462402,1706.090210 
	C674.761353,1711.232422 682.184753,1720.685425 687.849670,1731.649170 
	C680.299683,1737.567627 673.348328,1743.260986 666.054443,1748.475220 
	C654.168091,1756.972412 647.138428,1767.740234 648.122375,1782.920898 
	C648.599854,1790.287476 647.479126,1797.337036 644.452515,1804.323730 
	C642.734070,1808.290649 642.228577,1813.458984 643.076477,1817.707275 
	C644.440552,1824.541382 643.790283,1830.593506 641.591187,1837.171631 
	C637.384399,1849.755371 633.572144,1862.556030 638.977417,1875.996826 
	C642.323486,1884.317261 638.890259,1891.539429 634.233093,1898.372803 
	C630.882935,1903.288452 627.671753,1908.298706 624.384827,1913.257568 
	C622.010864,1916.839233 619.755859,1920.510742 617.200684,1923.959106 
	C609.830383,1933.905884 602.421509,1943.732666 603.694824,1957.258667 
	C603.932129,1959.779297 603.147522,1962.630859 602.088928,1964.996094 
	C598.402588,1973.232666 599.870422,1979.718018 608.497009,1983.747925 
	C606.421082,1988.808960 605.305847,1993.527710 602.775391,1997.296021 
	C596.843567,2006.130127 597.169617,2015.235352 599.309326,2025.036133 
	C600.083618,2028.582764 599.871094,2033.549805 597.897400,2036.255737 
	C592.855713,2043.167480 587.036377,2049.696289 580.642578,2055.382568 
	C574.937927,2060.456055 573.514526,2066.176270 574.494873,2073.113525 
	C574.817688,2075.397461 575.855896,2077.673828 575.733826,2079.908203 
	C575.423462,2085.588867 577.127441,2090.007568 581.167358,2094.235596 
	C583.729736,2096.917236 585.509338,2101.085205 585.968506,2104.793457 
	C586.306519,2107.523438 584.742493,2112.026367 582.615234,2113.215576 
	C577.595093,2116.021729 576.250305,2120.593750 574.354248,2125.128906 
z"/>

<path 
	data-name="Ako"
fill="#E85CFA" opacity="1.000000" stroke="none" 
	d="
M316.328461,899.832886 
	C322.460205,890.904602 329.396790,882.475403 335.955811,873.761963 
	C341.259644,866.716187 343.880157,865.671692 352.499298,868.626038 
	C356.351562,866.032043 357.359772,862.177185 355.827362,858.172852 
	C352.852570,850.399109 352.331512,843.002258 356.756958,835.575256 
	C357.521698,834.291931 357.852905,832.182983 357.370239,830.812561 
	C353.179779,818.914673 357.470093,807.169189 357.837463,795.371094 
	C357.885101,793.841675 358.856567,792.254639 359.678253,790.857910 
	C360.683228,789.149658 361.975067,787.609253 363.153992,786.004395 
	C369.246948,777.710388 377.073486,770.144592 380.942413,760.918640 
	C384.662354,752.048035 384.162994,741.440247 385.734009,731.630432 
	C391.440857,695.995178 395.494171,660.107910 403.308929,624.781921 
	C405.319824,615.691772 403.161041,605.674438 402.877441,596.084229 
	C402.789581,593.112305 401.963776,590.015259 402.562164,587.206970 
	C403.307739,583.708374 405.209808,580.678650 400.928864,577.911682 
	C399.919373,577.259277 400.210358,574.135193 400.388123,572.192627 
	C400.900665,566.592224 401.228607,560.914795 402.485931,555.465332 
	C403.240967,552.192688 405.597778,549.289673 407.613953,545.509583 
	C403.967133,542.041443 404.988739,537.372803 406.252930,532.495422 
	C408.709625,523.017029 409.551575,513.561401 405.086304,504.272064 
	C404.279572,502.593750 404.253998,500.354218 404.427246,498.423981 
	C405.043091,491.562897 405.900726,484.723450 406.714325,477.451019 
	C409.504303,476.108459 412.920837,474.464417 417.483948,472.268616 
	C407.165710,462.802002 410.260284,451.993774 412.057037,441.324127 
	C414.531372,426.630646 416.978821,411.932373 419.344818,397.221191 
	C419.871063,393.949188 420.191956,390.620789 420.298187,387.308411 
	C421.021698,364.744843 420.631805,342.083710 422.698120,319.647156 
	C424.040131,305.075287 425.798248,289.944855 434.548889,277.085693 
	C435.588623,275.557800 435.748230,273.430939 436.292297,270.819519 
	C437.178986,269.975098 438.089264,269.892853 439.673828,269.967987 
	C444.306152,272.389008 448.046814,275.246552 452.267944,276.791077 
	C460.715302,279.881897 466.167450,285.180420 468.870880,293.896820 
	C472.297302,304.944214 474.532471,306.245392 486.109344,306.332916 
	C499.061035,306.430847 498.228729,306.863281 504.302399,318.553802 
	C510.757477,330.978424 512.337891,344.463654 515.094543,357.656128 
	C516.247131,363.171967 514.567078,369.509613 513.242065,375.258636 
	C511.318542,383.604340 512.234436,390.940399 517.668030,397.785919 
	C520.335938,401.146973 522.425903,405.003906 524.507996,408.784821 
	C528.468079,415.975830 530.395203,423.110229 526.078918,431.247925 
	C524.429321,434.357941 524.547729,439.077026 525.418152,442.687286 
	C526.582092,447.514893 526.643799,451.386566 521.881042,453.743195 
	C517.738403,455.792969 517.398621,459.242798 517.707336,462.996490 
	C518.182861,468.778717 515.719849,472.861938 511.804352,477.046478 
	C508.074707,481.032410 505.219757,486.105164 502.996918,491.148254 
	C501.197388,495.230865 501.434296,500.099030 506.579468,502.158691 
	C519.570618,507.359161 526.328857,519.080627 535.105835,528.711670 
	C542.022644,536.301514 548.926147,543.906616 556.006165,551.342407 
	C557.558472,552.972778 559.763672,554.042969 561.789062,555.149902 
	C568.085266,558.590881 575.162109,560.689880 577.961182,568.759094 
	C579.301941,572.624268 583.871155,573.135132 587.519592,571.612549 
	C593.494934,569.118958 598.443542,571.013916 603.564941,573.918335 
	C606.099243,575.355530 609.359314,577.294006 611.811279,576.768127 
	C619.848450,575.044556 625.474182,579.147949 631.914429,582.614319 
	C637.892822,585.832153 644.803101,587.440430 651.434937,589.282776 
	C656.423584,590.668701 661.670593,586.338135 662.218750,580.480164 
	C662.613403,576.262512 662.295654,571.978271 662.295654,566.094604 
	C666.865051,566.902771 670.334167,567.027893 673.413635,568.187622 
	C677.054626,569.558716 680.343262,571.853821 683.820984,573.679016 
	C684.692810,574.136597 685.805481,574.162170 686.635193,574.668518 
	C696.425415,580.643433 705.615051,588.044495 716.078674,592.372375 
	C732.788147,599.283508 727.214905,612.587402 727.257874,624.377197 
	C727.276917,629.603333 726.043640,634.833984 725.425537,639.695557 
	C729.135010,642.509583 733.242676,644.256897 735.005615,647.343384 
	C736.814697,650.510620 736.331482,654.987183 737.038757,660.296143 
	C741.285461,660.296143 745.882019,660.781738 750.328857,660.173279 
	C755.890930,659.412170 760.852417,659.651062 765.360657,663.453430 
	C766.824341,664.687866 769.005310,666.064209 770.695679,665.880493 
	C784.039673,664.430603 786.747498,675.750000 791.786560,683.669189 
	C796.188843,690.587524 799.129333,698.426514 802.910339,705.758240 
	C803.620789,707.135803 805.177673,708.130615 806.465759,709.147827 
	C816.272217,716.892029 826.108948,724.597900 835.958252,732.333008 
	C841.223877,732.333008 847.148315,732.418945 853.068909,732.305115 
	C857.605713,732.217896 862.362488,733.282104 866.026062,728.913452 
	C866.981506,727.774109 870.103943,727.264771 871.555725,727.933105 
	C878.047974,730.922363 885.031128,733.183777 887.822449,741.230286 
	C890.283142,748.323669 893.965271,754.777161 900.015503,759.924377 
	C906.186707,765.174622 910.968323,771.608459 907.800354,780.741150 
	C907.403931,781.883789 907.906433,783.338196 908.023438,785.121582 
	C914.813721,788.425110 921.632080,791.713928 928.424622,795.055237 
	C934.528076,798.057617 939.097961,802.128357 942.112122,808.737976 
	C944.310547,813.558838 948.846497,817.556763 953.004211,821.154541 
	C955.714172,823.499512 959.299988,823.125549 961.391174,819.296814 
	C961.549438,819.007019 961.715210,818.703186 961.784546,818.385620 
	C964.573242,805.606873 975.304810,800.404480 984.950439,794.240295 
	C991.441467,790.092163 1005.697144,793.484253 1009.705078,799.915710 
	C1016.946594,811.536133 1016.962952,811.600098 1029.942993,808.280334 
	C1033.124512,807.466614 1036.316406,806.387390 1039.226685,804.891724 
	C1043.417969,802.737854 1046.936646,803.845276 1048.326172,807.712646 
	C1051.934570,817.755615 1061.525757,822.259155 1067.776001,829.813782 
	C1070.693359,833.339844 1074.463745,836.440674 1078.420044,838.755981 
	C1083.440552,841.694153 1088.832642,844.649414 1094.435181,845.814880 
	C1109.247803,848.896362 1122.894531,854.368103 1135.433838,862.741943 
	C1136.263794,863.296204 1137.029907,864.272766 1137.907471,864.379272 
	C1147.938354,865.596985 1151.241821,872.182861 1155.490234,880.852112 
	C1161.110229,892.320557 1159.989380,903.101746 1154.739624,911.789429 
	C1144.380127,928.932922 1141.345703,948.374634 1133.972168,966.359070 
	C1129.853271,976.405334 1128.093628,987.296448 1120.990723,996.251282 
	C1118.146484,999.837402 1117.828491,1005.415283 1116.315063,1010.071838 
	C1114.077637,1016.955566 1112.616333,1024.248535 1109.333496,1030.596069 
	C1105.150757,1038.683350 1104.692505,1046.072510 1108.383057,1054.324707 
	C1112.112183,1062.663086 1111.675415,1063.222534 1103.306396,1066.495972 
	C1098.093262,1068.535156 1093.770508,1070.695557 1094.094238,1077.683105 
	C1094.233643,1080.692017 1092.306152,1083.983276 1090.763184,1086.847656 
	C1086.507935,1094.747192 1086.392090,1094.684814 1094.282837,1098.149902 
	C1099.737061,1100.545044 1100.368408,1101.971558 1098.340454,1108.945312 
	C1092.851440,1110.529419 1088.238525,1110.004883 1083.313965,1107.979858 
	C1076.021851,1104.981567 1068.317383,1107.754395 1060.927979,1108.697510 
	C1056.905640,1109.210938 1055.234253,1113.931274 1056.546631,1117.556519 
	C1059.495483,1125.702148 1054.009277,1131.563354 1051.704468,1138.201660 
	C1051.005249,1140.215332 1047.957397,1141.563110 1045.778320,1142.871216 
	C1043.596191,1144.181274 1041.155396,1145.060425 1038.128052,1146.449829 
	C1042.560913,1154.482666 1042.326050,1161.678955 1038.789795,1169.583252 
	C1036.039917,1175.729858 1041.719971,1184.682983 1048.204346,1188.398438 
	C1050.517944,1189.724243 1052.075684,1192.365723 1053.985962,1194.399414 
	C1058.872192,1199.601807 1059.935547,1206.202881 1061.598145,1212.850342 
	C1063.504395,1220.471802 1073.998169,1224.533936 1084.390259,1222.469849 
	C1088.662720,1230.687134 1095.364746,1236.435181 1104.109009,1240.603638 
	C1112.986328,1244.835205 1120.131714,1261.195312 1117.510376,1270.574585 
	C1115.318848,1278.415771 1116.343506,1282.987061 1123.779541,1287.883667 
	C1131.682495,1293.087769 1137.734009,1301.106323 1144.575195,1307.914673 
	C1145.038696,1308.375854 1145.582520,1308.950806 1145.690430,1309.545288 
	C1147.194824,1317.837891 1152.164185,1323.632080 1158.519897,1328.795776 
	C1159.741211,1329.787964 1159.321289,1333.605103 1158.673950,1335.832764 
	C1158.174683,1337.551025 1156.081543,1338.777222 1154.786865,1340.298584 
	C1151.095459,1344.636963 1150.723999,1349.279297 1153.813843,1354.076660 
	C1155.429199,1356.584595 1156.951294,1359.243652 1159.001709,1361.364502 
	C1168.394165,1371.079468 1173.995605,1383.172363 1179.969238,1394.956665 
	C1182.147583,1399.253784 1182.564087,1404.447876 1183.743164,1409.242798 
	C1183.899048,1409.876343 1183.562744,1410.726318 1183.870361,1411.213135 
	C1191.007935,1422.509277 1184.961670,1433.708008 1183.630859,1444.918579 
	C1182.847534,1451.515381 1180.219971,1456.495361 1173.566040,1459.691162 
	C1162.002075,1465.244995 1155.390625,1475.774780 1152.832642,1487.645874 
	C1150.820068,1496.985962 1146.787720,1505.172607 1143.140991,1513.662109 
	C1141.667969,1517.091187 1140.939575,1520.089111 1141.267212,1524.017212 
	C1141.631348,1528.382446 1139.855591,1533.014648 1138.578125,1537.404541 
	C1137.193359,1542.163330 1135.308960,1546.776855 1132.818359,1552.399170 
	C1121.505005,1555.709473 1111.489380,1559.278931 1103.249023,1566.413696 
	C1095.732544,1572.921631 1088.581543,1579.852051 1081.278442,1586.605957 
	C1067.195801,1599.630005 1055.194824,1615.217773 1036.562866,1622.641357 
	C1034.462280,1623.478394 1032.632202,1625.132324 1030.855103,1626.620483 
	C1017.121887,1638.119873 1001.519653,1647.454956 990.214539,1661.782104 
	C988.793396,1663.583130 986.801208,1664.942871 985.031372,1666.457764 
	C975.518616,1674.600830 964.371887,1677.781128 951.636780,1677.850464 
	C950.684143,1672.907959 949.824768,1668.449585 949.081726,1664.594727 
	C934.719360,1657.484253 921.613770,1658.230957 909.120667,1667.254883 
	C906.972290,1668.806641 904.691650,1670.429199 902.216919,1671.201050 
	C899.920532,1671.917358 896.865967,1672.424927 894.870605,1671.484741 
	C887.705200,1668.108643 880.720215,1664.623169 875.599548,1657.846924 
	C867.278503,1646.835327 855.090637,1643.486450 841.948425,1644.584473 
	C837.646423,1644.943848 834.356567,1644.411987 830.706055,1642.516846 
	C822.767212,1638.395508 814.656067,1634.604126 806.588684,1630.733276 
	C802.625610,1628.831665 799.067322,1629.410645 795.438049,1632.067993 
	C788.459778,1637.177368 781.108398,1641.777710 774.135681,1646.894165 
	C765.895020,1652.941406 759.520569,1660.430176 757.519287,1671.270020 
	C759.149170,1673.348755 760.929932,1675.619751 762.692810,1677.868164 
	C760.694336,1681.485107 758.218506,1684.469482 757.307922,1687.872559 
	C753.327515,1702.749146 743.459900,1711.135254 729.246887,1715.892700 
	C715.434570,1720.515747 701.932739,1726.066040 688.294556,1731.209106 
	C682.184753,1720.685425 674.761353,1711.232422 663.462402,1706.090210 
	C655.085754,1702.277954 652.431519,1696.352783 653.766846,1687.777710 
	C655.189880,1678.639404 656.681641,1669.501465 657.692627,1660.313843 
	C658.116760,1656.459473 657.900330,1652.364502 657.072937,1648.575806 
	C654.952393,1638.867310 651.203430,1629.521973 651.574463,1619.283813 
	C651.663940,1616.815063 649.778015,1614.333374 649.207092,1611.767090 
	C648.503235,1608.603271 647.099976,1604.982056 647.996399,1602.202759 
	C649.854187,1596.443359 648.671631,1591.180542 647.810791,1585.605225 
	C646.145142,1574.818115 644.981750,1563.953369 643.566650,1552.777344 
	C654.041992,1549.161133 657.734070,1541.569580 657.562073,1532.185059 
	C657.494629,1528.502319 656.033875,1524.300171 653.869080,1521.300903 
	C646.873230,1511.608765 642.279358,1501.214355 641.808167,1489.165894 
	C641.769104,1488.167725 641.991577,1487.025635 641.588013,1486.195801 
	C636.402527,1475.532593 639.957886,1464.015259 638.263611,1453.020508 
	C636.847534,1443.830811 640.898682,1435.972290 645.164062,1428.507568 
	C648.908508,1421.954712 648.781494,1415.547363 647.888672,1408.466553 
	C646.486816,1397.348267 645.205139,1386.533447 631.313660,1382.878906 
	C637.161926,1369.618286 631.012573,1361.366577 624.009277,1352.100342 
	C609.657227,1333.110596 591.921204,1318.439453 571.869629,1306.261719 
	C565.794189,1302.571899 561.992065,1298.097534 560.641052,1290.948242 
	C559.874451,1286.891602 557.752869,1282.837646 555.360657,1279.394409 
	C550.427246,1272.293457 545.803040,1264.589722 539.444763,1258.943481 
	C523.853455,1245.098145 508.113861,1230.860840 485.502014,1229.677124 
	C484.510620,1229.625244 483.534149,1229.327148 482.542236,1229.240356 
	C470.348389,1228.171997 462.461639,1223.103149 457.576630,1210.549316 
	C450.247589,1191.714966 440.136932,1173.967163 431.324921,1155.701294 
	C430.041138,1153.040283 428.795929,1150.120483 428.554993,1147.234985 
	C426.819214,1126.446533 425.334473,1105.636841 423.815125,1084.830811 
	C423.694550,1083.179810 424.559540,1081.147827 423.870209,1079.897217 
	C418.955109,1070.980103 420.203796,1061.211670 419.590546,1051.702637 
	C419.236450,1046.212402 419.164978,1040.696167 418.594879,1035.230347 
	C418.157379,1031.035889 417.284698,1026.868774 416.342926,1022.749573 
	C415.099152,1017.309509 413.982117,1011.790894 412.109100,1006.557129 
	C409.897278,1000.376770 407.308014,994.263733 404.190491,988.495361 
	C401.375641,983.287048 397.618347,978.589294 394.299347,973.651184 
	C393.560150,972.551514 392.501465,971.459534 392.291962,970.243042 
	C390.289429,958.616272 382.438782,951.924988 372.278503,948.198792 
	C358.201935,943.036194 350.163300,932.915955 345.830841,919.257141 
	C344.306732,914.452271 341.638000,911.365234 336.891510,909.441101 
	C330.116852,906.694885 323.598206,903.317078 316.328461,899.832886 
z"/>
<path 
	data-name="Ndu"
fill="#803F36" opacity="1.000000" stroke="none" 
	d="
M1223.891357,1813.416260 
	C1225.748413,1815.514893 1227.241455,1818.215576 1229.530640,1819.599854 
	C1236.479736,1823.801880 1240.069092,1829.883057 1239.809204,1837.736328 
	C1239.555054,1845.409058 1242.199829,1852.058105 1245.277222,1858.724121 
	C1248.755249,1866.257935 1252.540405,1873.671021 1255.591431,1881.374512 
	C1258.148682,1887.831055 1262.020142,1890.890503 1269.197632,1890.284424 
	C1274.795410,1889.811768 1280.504150,1890.132080 1286.118896,1890.617554 
	C1288.627808,1890.834473 1291.027100,1892.320190 1293.981812,1893.417969 
	C1293.686646,1896.285400 1294.191772,1899.310913 1293.008179,1901.361938 
	C1289.695190,1907.102051 1289.112549,1912.391357 1292.669312,1918.245605 
	C1293.443115,1919.519409 1292.702148,1922.065430 1292.036865,1923.784546 
	C1290.839966,1926.876831 1289.192139,1929.796875 1287.696411,1932.770630 
	C1285.059082,1938.013794 1284.101685,1942.918701 1287.094604,1948.773315 
	C1290.080322,1954.614136 1291.600830,1961.225708 1293.534058,1967.569458 
	C1294.089844,1969.393066 1294.142822,1971.493408 1293.917725,1973.406982 
	C1293.379761,1977.979248 1293.308838,1982.816162 1291.672485,1987.009033 
	C1287.198120,1998.473633 1289.070068,2011.137207 1283.511963,2022.630005 
	C1280.027832,2029.834229 1280.749268,2038.838257 1285.394165,2046.612793 
	C1286.620728,2048.665771 1287.809937,2051.747803 1287.145752,2053.730713 
	C1285.325439,2059.165039 1287.711914,2063.749023 1289.719727,2067.962158 
	C1294.144653,2077.247314 1299.337769,2086.190918 1304.632446,2095.025635 
	C1306.998657,2098.973389 1310.089111,2102.594482 1313.338867,2105.881348 
	C1318.520752,2111.122314 1320.218872,2116.990967 1318.057739,2124.005127 
	C1316.591187,2128.765137 1315.766724,2133.854980 1313.529053,2138.220215 
	C1307.533325,2149.916016 1311.543091,2161.695801 1312.294189,2173.484131 
	C1312.827026,2181.847656 1316.173950,2188.456543 1322.881958,2193.711914 
	C1328.092773,2197.794434 1330.768555,2203.436279 1330.242676,2210.375977 
	C1330.097168,2212.296631 1330.994263,2214.271973 1331.133911,2216.241943 
	C1331.740601,2224.803955 1335.862305,2229.684082 1344.817261,2230.028564 
	C1346.722900,2230.102051 1349.015869,2230.584229 1350.411377,2231.743652 
	C1359.511108,2239.303711 1370.489990,2244.858887 1376.213867,2256.094482 
	C1377.517212,2258.652832 1379.692993,2261.066650 1382.043213,2262.735596 
	C1389.078369,2267.731445 1396.175903,2272.718750 1403.669189,2276.968506 
	C1411.675171,2281.509277 1416.947388,2288.186035 1419.738525,2296.501953 
	C1424.291870,2310.067871 1431.575806,2315.093018 1445.908813,2314.159424 
	C1451.525635,2313.793701 1457.145508,2313.387451 1462.738892,2312.772461 
	C1468.677246,2312.119629 1470.808105,2314.254639 1469.652588,2320.067871 
	C1467.288574,2331.960449 1468.723999,2335.009033 1479.736816,2339.885010 
	C1483.036743,2341.345947 1486.650024,2342.211914 1490.200928,2342.970703 
	C1498.936157,2344.836914 1507.695068,2346.617188 1516.493530,2348.150635 
	C1519.960938,2348.755127 1521.902588,2350.285889 1522.308716,2353.802979 
	C1522.877808,2358.731934 1523.314697,2363.691162 1524.214722,2368.562256 
	C1525.162598,2373.694092 1526.335815,2378.814941 1527.856323,2383.804688 
	C1531.716309,2396.471436 1537.274048,2408.828613 1539.358398,2421.760254 
	C1540.919189,2431.444092 1540.190552,2442.316650 1531.387573,2450.207520 
	C1528.774292,2452.550049 1527.375366,2456.230225 1525.350098,2459.250732 
	C1523.686157,2461.732178 1522.427856,2464.904541 1520.109985,2466.457275 
	C1509.198120,2473.766846 1510.070068,2485.612305 1508.191895,2496.322754 
	C1507.708496,2499.079346 1508.419189,2502.357422 1509.504517,2505.019531 
	C1512.928223,2513.417725 1512.382080,2521.845947 1510.943604,2530.487549 
	C1510.475708,2533.297852 1510.769531,2536.431152 1511.508545,2539.205322 
	C1513.025757,2544.898193 1514.628906,2550.648438 1517.015381,2556.010742 
	C1520.726929,2564.349609 1523.770020,2572.225098 1520.317871,2581.782715 
	C1519.137817,2585.049561 1521.364136,2590.401855 1523.537476,2593.854980 
	C1528.810547,2602.233154 1535.374512,2609.800293 1540.619263,2618.193848 
	C1543.980103,2623.571777 1548.334351,2627.209473 1554.412842,2630.432617 
	C1554.073853,2632.567871 1552.933105,2634.221924 1552.047974,2636.003418 
	C1546.432983,2647.304443 1537.483032,2652.310791 1524.763550,2652.004395 
	C1516.386841,2651.802734 1514.679932,2654.200684 1513.803467,2662.778320 
	C1512.994385,2670.697998 1510.938477,2671.513184 1502.906738,2670.714355 
	C1497.663330,2670.192871 1492.189697,2672.048584 1486.812012,2672.787598 
	C1484.877563,2673.053467 1482.255127,2674.072266 1481.084473,2673.207031 
	C1472.925781,2667.180176 1463.883667,2670.279297 1455.213989,2670.381348 
	C1450.801636,2670.433105 1447.579102,2669.261963 1444.779419,2665.884033 
	C1438.389282,2658.173340 1433.186646,2649.853516 1430.375610,2640.156982 
	C1429.741699,2637.970215 1429.607300,2635.036621 1428.118896,2633.805420 
	C1422.106323,2628.831055 1419.980225,2621.863770 1417.467163,2615.053711 
	C1415.927979,2610.882812 1413.765381,2607.583740 1409.501831,2605.492188 
	C1406.931641,2604.231201 1405.037476,2601.587158 1402.851074,2599.552246 
	C1402.119751,2598.871338 1401.542358,2597.921143 1400.693481,2597.486328 
	C1391.067627,2592.556396 1381.788330,2586.523682 1371.626953,2583.198486 
	C1363.348145,2580.489258 1354.724854,2584.231934 1347.010376,2588.445068 
	C1344.423096,2589.858398 1341.678833,2591.046143 1339.275635,2592.723145 
	C1331.192993,2598.362549 1326.130981,2595.494873 1318.879395,2585.666260 
	C1315.566284,2581.175781 1314.213989,2575.258789 1310.997437,2570.672363 
	C1304.966064,2562.072510 1297.463623,2554.435791 1292.014771,2545.517822 
	C1287.464722,2538.071045 1281.293091,2534.290039 1273.530884,2531.860596 
	C1268.673706,2530.340820 1266.023193,2526.842529 1264.803711,2521.899658 
	C1262.835938,2513.923096 1258.097412,2507.655029 1252.532837,2501.687988 
	C1244.878174,2493.479980 1236.974976,2485.259033 1234.898560,2473.452393 
	C1233.689819,2466.578857 1228.832520,2463.390381 1222.482422,2462.278809 
	C1212.480103,2460.528564 1203.616577,2456.164062 1195.190918,2450.793701 
	C1186.704224,2445.385254 1178.686768,2442.910645 1169.791626,2450.646973 
	C1164.331543,2455.395508 1162.305908,2454.678223 1156.797729,2450.090576 
	C1150.435913,2444.792236 1147.907837,2444.609375 1140.857910,2448.813477 
	C1137.151001,2451.023926 1133.401245,2453.162598 1129.661499,2455.317383 
	C1122.342529,2459.534668 1114.756592,2459.702393 1107.994141,2454.843994 
	C1101.553955,2450.217285 1094.724976,2449.504395 1087.267578,2449.748779 
	C1083.019287,2449.887695 1078.740234,2449.080811 1073.761719,2448.636475 
	C1073.188965,2449.578857 1072.456543,2450.957275 1071.556885,2452.216064 
	C1070.646118,2453.490723 1069.570068,2454.647461 1067.383057,2457.280518 
	C1065.654053,2453.774414 1064.084106,2451.477539 1063.342773,2448.939209 
	C1059.417969,2435.499756 1053.718262,2433.886230 1040.495728,2437.223633 
	C1031.561035,2439.478760 1022.913208,2440.260010 1013.956299,2440.160400 
	C1008.852661,2440.103516 1004.143738,2439.418945 1001.068970,2434.296143 
	C998.404480,2429.856445 994.321533,2429.311035 989.841675,2431.951904 
	C988.122070,2432.965576 986.106445,2433.595459 984.617615,2434.861084 
	C979.205627,2439.461426 974.012756,2438.140625 969.277344,2434.154297 
	C963.062927,2428.923340 954.250244,2427.034668 950.121948,2419.056641 
	C949.474548,2417.805420 947.445984,2416.636963 945.990112,2416.551270 
	C941.032227,2416.259766 939.393188,2412.748047 937.632202,2409.063965 
	C936.779480,2407.280029 935.701538,2405.552979 934.460388,2404.013916 
	C929.163635,2397.447510 929.185913,2395.150635 934.443176,2388.853760 
	C941.222900,2380.733887 947.889404,2372.519043 954.820190,2364.082764 
	C950.703430,2354.440430 947.026672,2344.901123 942.598816,2335.724365 
	C938.358765,2326.936523 927.667419,2322.384766 918.451233,2324.669922 
	C917.190796,2324.982666 915.693970,2326.203369 914.794678,2325.829590 
	C902.390137,2320.672607 888.063599,2325.384521 875.986145,2317.811523 
	C870.531189,2314.391113 864.077454,2311.237305 857.835815,2310.684814 
	C846.125977,2309.648193 834.581421,2311.624268 825.812317,2320.947021 
	C823.988770,2322.885742 822.387207,2325.102539 820.320618,2326.730957 
	C811.009216,2334.067139 803.236633,2333.957764 792.296326,2326.531250 
	C781.774536,2330.356934 773.190369,2336.653076 767.101074,2346.303467 
	C763.505981,2352.001221 757.861755,2354.580566 751.147339,2355.607422 
	C745.016052,2350.176758 741.294983,2343.766846 739.494507,2335.440674 
	C737.692017,2327.105713 733.300903,2319.364014 730.729675,2311.147949 
	C729.396729,2306.888428 729.520691,2302.167725 729.041687,2297.649658 
	C728.905945,2296.368652 729.444397,2294.773926 728.861084,2293.819824 
	C722.108398,2282.773926 724.822876,2270.534424 724.108215,2258.710205 
	C723.894409,2255.173340 722.620422,2251.700439 721.697083,2246.628418 
	C721.563477,2239.919434 726.493652,2238.418945 728.869873,2235.051758 
	C733.715149,2228.186279 740.037598,2224.910156 748.473450,2224.364502 
	C758.558838,2223.711914 769.366943,2225.004395 777.199890,2215.930664 
	C778.995544,2213.850830 782.313721,2213.142578 784.331543,2211.184814 
	C788.067871,2207.560059 791.297180,2203.418701 794.858765,2199.605469 
	C798.002686,2196.239746 801.717102,2193.328857 804.436096,2189.665527 
	C807.264771,2185.854492 809.603760,2182.630127 814.914062,2185.622803 
	C815.692871,2186.062012 817.403442,2185.464600 818.371582,2184.853760 
	C826.078186,2179.990967 833.709534,2175.008789 841.385864,2170.049316 
	C845.267639,2169.037354 849.480957,2167.919678 853.706116,2166.848877 
	C854.975830,2166.526611 856.645203,2165.690674 857.508728,2166.182861 
	C865.161865,2170.545654 874.418396,2168.964844 881.966614,2172.503906 
	C888.012878,2175.338623 892.907471,2176.569824 898.546509,2172.578613 
	C903.402466,2169.141602 908.031555,2164.876953 913.460693,2162.892090 
	C919.579895,2160.654541 921.653198,2156.488525 922.491333,2151.118896 
	C923.799133,2142.741211 926.592834,2134.461182 923.994934,2125.738037 
	C923.279968,2123.337646 923.991211,2120.433350 924.357788,2117.803223 
	C926.296875,2103.893066 938.126709,2092.101318 951.062988,2092.626953 
	C961.959595,2093.069824 971.995972,2090.023193 982.273254,2087.642090 
	C989.267395,2086.021729 995.337708,2082.813477 999.850647,2077.033691 
	C1004.195007,2071.469727 1009.470032,2071.769775 1015.685669,2073.704834 
	C1020.468750,2075.193848 1026.036133,2076.468018 1030.694092,2075.397705 
	C1035.226196,2074.356689 1039.433716,2070.639160 1043.078491,2067.321777 
	C1047.552490,2063.249512 1055.251221,2058.750732 1061.354248,2057.887207 
	C1062.954956,2057.660645 1065.652344,2057.442871 1065.897583,2056.632324 
	C1067.513672,2051.286865 1073.391235,2053.343750 1076.401978,2050.459229 
	C1076.325195,2048.969727 1076.303955,2047.654297 1076.182251,2046.348145 
	C1075.548706,2039.550415 1075.307983,2033.331787 1083.116333,2029.554321 
	C1087.140137,2027.607666 1086.884766,2023.223999 1086.604126,2018.387085 
	C1085.616089,2001.355103 1083.847412,2002.893066 1100.033691,2001.899170 
	C1100.328613,2001.881104 1100.609253,2001.628540 1101.393433,2001.237793 
	C1101.690308,1999.401001 1102.039551,1997.239624 1102.419678,1994.887695 
	C1104.984863,1994.103149 1107.433472,1993.354248 1108.554199,1993.011475 
	C1110.767456,1988.871704 1111.739014,1984.088013 1114.068115,1983.295898 
	C1119.457031,1981.463013 1122.979614,1979.409302 1122.814331,1973.171265 
	C1122.791260,1972.300903 1124.447266,1971.197510 1125.525635,1970.519653 
	C1129.927246,1967.752319 1131.299683,1963.518799 1131.692383,1958.675537 
	C1131.764893,1957.781128 1132.485840,1956.939209 1132.919556,1956.048340 
	C1135.643066,1955.912476 1138.221802,1955.783813 1140.857666,1955.652344 
	C1145.288940,1947.635986 1149.945312,1940.074341 1145.740234,1930.567017 
	C1149.024170,1928.798462 1151.795776,1927.619385 1154.196899,1925.917480 
	C1156.279785,1924.441040 1158.361938,1922.639771 1159.715576,1920.517334 
	C1164.247070,1913.412231 1166.106445,1904.693481 1172.848267,1898.881104 
	C1173.494873,1898.323730 1173.840698,1897.046875 1173.802002,1896.125977 
	C1173.563843,1890.446411 1173.175171,1884.773193 1172.858643,1879.470459 
	C1176.593506,1877.868530 1180.387207,1876.658813 1183.740356,1874.696533 
	C1187.864136,1872.283203 1191.331299,1868.589478 1195.629639,1866.684937 
	C1198.909424,1865.231567 1203.057373,1865.533813 1203.266602,1860.657227 
	C1203.425659,1856.947754 1205.323975,1853.428711 1201.640503,1849.578979 
	C1198.183350,1845.966187 1199.926514,1840.883301 1204.154175,1837.823242 
	C1205.765991,1836.656616 1207.490845,1835.630859 1209.229370,1834.656982 
	C1216.310303,1830.690674 1222.497559,1826.177734 1221.940430,1816.718872 
	C1221.878052,1815.659912 1223.207397,1814.519165 1223.891357,1813.416260 
z"/>
<path 
	data-name="Nkamb"
fill="#5BF562" opacity="1.000000" stroke="none" 
	d="
M1223.997314,1812.748291 
	C1223.207397,1814.519165 1221.878052,1815.659912 1221.940430,1816.718872 
	C1222.497559,1826.177734 1216.310303,1830.690674 1209.229370,1834.656982 
	C1207.490845,1835.630859 1205.765991,1836.656616 1204.154175,1837.823242 
	C1199.926514,1840.883301 1198.183350,1845.966187 1201.640503,1849.578979 
	C1205.323975,1853.428711 1203.425659,1856.947754 1203.266602,1860.657227 
	C1203.057373,1865.533813 1198.909424,1865.231567 1195.629639,1866.684937 
	C1191.331299,1868.589478 1187.864136,1872.283203 1183.740356,1874.696533 
	C1180.387207,1876.658813 1176.593506,1877.868530 1172.858643,1879.470459 
	C1173.175171,1884.773193 1173.563843,1890.446411 1173.802002,1896.125977 
	C1173.840698,1897.046875 1173.494873,1898.323730 1172.848267,1898.881104 
	C1166.106445,1904.693481 1164.247070,1913.412231 1159.715576,1920.517334 
	C1158.361938,1922.639771 1156.279785,1924.441040 1154.196899,1925.917480 
	C1151.795776,1927.619385 1149.024170,1928.798462 1145.740234,1930.567017 
	C1149.945312,1940.074341 1145.288940,1947.635986 1140.857666,1955.652344 
	C1138.221802,1955.783813 1135.643066,1955.912476 1132.919556,1956.048340 
	C1132.485840,1956.939209 1131.764893,1957.781128 1131.692383,1958.675537 
	C1131.299683,1963.518799 1129.927246,1967.752319 1125.525635,1970.519653 
	C1124.447266,1971.197510 1122.791260,1972.300903 1122.814331,1973.171265 
	C1122.979614,1979.409302 1119.457031,1981.463013 1114.068115,1983.295898 
	C1111.739014,1984.088013 1110.767456,1988.871704 1108.554199,1993.011475 
	C1107.433472,1993.354248 1104.984863,1994.103149 1102.419678,1994.887695 
	C1102.039551,1997.239624 1101.690308,1999.401001 1101.393433,2001.237793 
	C1100.609253,2001.628540 1100.328613,2001.881104 1100.033691,2001.899170 
	C1083.847412,2002.893066 1085.616089,2001.355103 1086.604126,2018.387085 
	C1086.884766,2023.223999 1087.140137,2027.607666 1083.116333,2029.554321 
	C1075.307983,2033.331787 1075.548706,2039.550415 1076.182251,2046.348145 
	C1076.303955,2047.654297 1076.325195,2048.969727 1076.401978,2050.459229 
	C1073.391235,2053.343750 1067.513672,2051.286865 1065.897583,2056.632324 
	C1065.652344,2057.442871 1062.954956,2057.660645 1061.354248,2057.887207 
	C1055.251221,2058.750732 1047.552490,2063.249512 1043.078491,2067.321777 
	C1039.433716,2070.639160 1035.226196,2074.356689 1030.694092,2075.397705 
	C1026.036133,2076.468018 1020.468750,2075.193848 1015.685669,2073.704834 
	C1009.470032,2071.769775 1004.195007,2071.469727 999.850647,2077.033691 
	C995.337708,2082.813477 989.267395,2086.021729 982.273254,2087.642090 
	C971.995972,2090.023193 961.959595,2093.069824 951.062988,2092.626953 
	C938.126709,2092.101318 926.296875,2103.893066 924.357788,2117.803223 
	C923.991211,2120.433350 923.279968,2123.337646 923.994934,2125.738037 
	C926.592834,2134.461182 923.799133,2142.741211 922.491333,2151.118896 
	C921.653198,2156.488525 919.579895,2160.654541 913.460693,2162.892090 
	C908.031555,2164.876953 903.402466,2169.141602 898.546509,2172.578613 
	C892.907471,2176.569824 888.012878,2175.338623 881.966614,2172.503906 
	C874.418396,2168.964844 865.161865,2170.545654 857.508728,2166.182861 
	C856.645203,2165.690674 854.975830,2166.526611 853.706116,2166.848877 
	C849.480957,2167.919678 845.267639,2169.037354 841.385864,2170.049316 
	C833.709534,2175.008789 826.078186,2179.990967 818.371582,2184.853760 
	C817.403442,2185.464600 815.692871,2186.062012 814.914062,2185.622803 
	C809.603760,2182.630127 807.264771,2185.854492 804.436096,2189.665527 
	C801.717102,2193.328857 798.002686,2196.239746 794.858765,2199.605469 
	C791.297180,2203.418701 788.067871,2207.560059 784.331543,2211.184814 
	C782.313721,2213.142578 778.995544,2213.850830 777.199890,2215.930664 
	C769.366943,2225.004395 758.558838,2223.711914 748.473450,2224.364502 
	C740.037598,2224.910156 733.715149,2228.186279 728.869873,2235.051758 
	C726.493652,2238.418945 721.563477,2239.919434 721.383118,2245.874512 
	C717.554077,2246.619141 713.781006,2245.916016 710.277283,2246.597412 
	C700.734314,2248.453857 694.482361,2244.319580 689.560486,2236.724854 
	C688.167664,2234.575195 686.414429,2232.393555 684.307251,2231.027588 
	C679.744751,2228.069092 678.071045,2224.339355 677.289001,2218.840820 
	C676.567261,2213.766357 672.876709,2209.114258 669.241516,2201.733887 
	C666.907715,2205.747070 665.251282,2208.595459 663.870667,2210.969482 
	C656.415833,2208.048828 649.964783,2205.704102 643.690796,2202.955566 
	C641.727356,2202.095459 638.905640,2200.257812 638.773621,2198.676270 
	C638.275574,2192.708252 633.877625,2189.490723 630.811096,2185.281494 
	C628.298096,2181.831787 626.135498,2178.126953 623.956787,2174.750977 
	C614.414429,2171.339111 605.292419,2174.874268 596.479675,2176.450439 
	C594.256226,2171.236816 592.348083,2167.046631 590.678833,2162.763184 
	C589.202515,2158.975098 587.048767,2157.661377 582.970093,2159.219482 
	C580.697266,2160.087646 578.020386,2159.897705 574.349182,2160.320312 
	C574.735962,2156.683105 574.335754,2153.883545 575.376404,2151.805664 
	C579.690002,2143.192871 578.373108,2134.708984 574.995605,2125.627686 
	C576.250305,2120.593750 577.595093,2116.021729 582.615234,2113.215576 
	C584.742493,2112.026367 586.306519,2107.523438 585.968506,2104.793457 
	C585.509338,2101.085205 583.729736,2096.917236 581.167358,2094.235596 
	C577.127441,2090.007568 575.423462,2085.588867 575.733826,2079.908203 
	C575.855896,2077.673828 574.817688,2075.397461 574.494873,2073.113525 
	C573.514526,2066.176270 574.937927,2060.456055 580.642578,2055.382568 
	C587.036377,2049.696289 592.855713,2043.167480 597.897400,2036.255737 
	C599.871094,2033.549805 600.083618,2028.582764 599.309326,2025.036133 
	C597.169617,2015.235352 596.843567,2006.130127 602.775391,1997.296021 
	C605.305847,1993.527710 606.421082,1988.808960 608.497009,1983.747925 
	C599.870422,1979.718018 598.402588,1973.232666 602.088928,1964.996094 
	C603.147522,1962.630859 603.932129,1959.779297 603.694824,1957.258667 
	C602.421509,1943.732666 609.830383,1933.905884 617.200684,1923.959106 
	C619.755859,1920.510742 622.010864,1916.839233 624.384827,1913.257568 
	C627.671753,1908.298706 630.882935,1903.288452 634.233093,1898.372803 
	C638.890259,1891.539429 642.323486,1884.317261 638.977417,1875.996826 
	C633.572144,1862.556030 637.384399,1849.755371 641.591187,1837.171631 
	C643.790283,1830.593506 644.440552,1824.541382 643.076477,1817.707275 
	C642.228577,1813.458984 642.734070,1808.290649 644.452515,1804.323730 
	C647.479126,1797.337036 648.599854,1790.287476 648.122375,1782.920898 
	C647.138428,1767.740234 654.168091,1756.972412 666.054443,1748.475220 
	C673.348328,1743.260986 680.299683,1737.567627 687.849670,1731.649170 
	C701.932739,1726.066040 715.434570,1720.515747 729.246887,1715.892700 
	C743.459900,1711.135254 753.327515,1702.749146 757.307922,1687.872559 
	C758.218506,1684.469482 760.694336,1681.485107 762.692810,1677.868164 
	C760.929932,1675.619751 759.149170,1673.348755 757.519287,1671.270020 
	C759.520569,1660.430176 765.895020,1652.941406 774.135681,1646.894165 
	C781.108398,1641.777710 788.459778,1637.177368 795.438049,1632.067993 
	C799.067322,1629.410645 802.625610,1628.831665 806.588684,1630.733276 
	C814.656067,1634.604126 822.767212,1638.395508 830.706055,1642.516846 
	C834.356567,1644.411987 837.646423,1644.943848 841.948425,1644.584473 
	C855.090637,1643.486450 867.278503,1646.835327 875.599548,1657.846924 
	C880.720215,1664.623169 887.705200,1668.108643 894.870605,1671.484741 
	C896.865967,1672.424927 899.920532,1671.917358 902.216919,1671.201050 
	C904.691650,1670.429199 906.972290,1668.806641 909.120667,1667.254883 
	C921.613770,1658.230957 934.719360,1657.484253 949.081726,1664.594727 
	C949.824768,1668.449585 950.684143,1672.907959 951.636780,1677.850464 
	C964.371887,1677.781128 975.518616,1674.600830 985.031372,1666.457764 
	C986.801208,1664.942871 988.793396,1663.583130 990.214539,1661.782104 
	C1001.519653,1647.454956 1017.121887,1638.119873 1030.855103,1626.620483 
	C1032.632202,1625.132324 1034.462280,1623.478394 1036.562866,1622.641357 
	C1055.194824,1615.217773 1067.195801,1599.630005 1081.278442,1586.605957 
	C1088.581543,1579.852051 1095.732544,1572.921631 1103.249023,1566.413696 
	C1111.489380,1559.278931 1121.505005,1555.709473 1132.728149,1553.123291 
	C1138.941162,1560.971436 1142.365601,1570.503540 1151.851196,1575.599243 
	C1156.985840,1578.357422 1159.714233,1583.596436 1159.844727,1589.737061 
	C1159.992798,1596.712891 1160.278687,1603.692261 1160.174316,1610.665039 
	C1160.088745,1616.389771 1162.063354,1620.552490 1166.539917,1624.431396 
	C1176.551270,1633.106445 1186.197632,1642.234985 1195.561157,1651.609863 
	C1199.674561,1655.728394 1204.027710,1656.189575 1209.178955,1655.360718 
	C1221.815308,1653.327515 1229.598389,1660.069214 1230.513062,1673.129272 
	C1230.925659,1679.020264 1231.487305,1685.161987 1233.503296,1690.628540 
	C1238.611572,1704.481201 1234.695801,1717.381348 1230.717041,1730.400269 
	C1228.520874,1737.586060 1226.107666,1744.705444 1223.849731,1751.872803 
	C1222.774780,1755.285034 1222.182617,1758.891602 1220.761963,1762.143799 
	C1217.404297,1769.829834 1218.865234,1774.462646 1226.386108,1778.393066 
	C1236.845947,1783.859131 1237.558594,1785.782471 1232.366943,1796.548950 
	C1229.821777,1801.827026 1226.870728,1806.909302 1223.997314,1812.748291 
z"/>
</svg>