<svg version="1.1" id="Layer_1" xmlns="http://www.w3.org/2000/svg" xmlns:xlink="http://www.w3.org/1999/xlink" x="0px" y="0px"
	 width="100%" viewBox="0 0 2254 2814" enable-background="new 0 0 2254 2814" xml:space="preserve">

<path data-name="Bakou" style="fill: {#56F054}" fill="#56F054" opacity="1.000000" stroke="none" 
	d="
M1316.223633,1878.678589 
	C1301.092163,1891.628418 1286.004517,1904.629883 1270.810547,1917.505981 
	C1263.204956,1923.951294 1263.396240,1923.767456 1266.112671,1933.228394 
	C1268.392578,1941.168335 1272.730347,1947.824341 1278.264526,1953.548950 
	C1291.883179,1967.636597 1305.369019,1981.931396 1319.938599,1994.993896 
	C1330.037231,2004.047974 1342.115112,2010.852295 1352.834473,2019.265991 
	C1369.044067,2031.989380 1385.070679,2044.972778 1400.656372,2058.445801 
	C1404.721802,2061.960205 1407.834473,2067.342285 1409.710815,2072.478027 
	C1415.068604,2087.142578 1419.369263,2102.119141 1419.815063,2117.984863 
	C1420.010010,2124.923584 1421.436401,2131.824707 1422.244263,2138.750000 
	C1422.686768,2142.542480 1421.660522,2145.561279 1418.927368,2148.647705 
	C1381.904663,2190.459961 1345.085327,2232.452393 1308.133301,2274.327148 
	C1304.171387,2278.816650 1299.676025,2282.833740 1295.453613,2287.094971 
	C1288.787720,2293.822266 1279.816772,2295.275146 1271.368774,2298.278320 
	C1263.073730,2301.227295 1254.559570,2304.885010 1247.711670,2310.239502 
	C1239.379395,2316.754883 1235.080444,2326.390869 1235.681030,2337.527832 
	C1235.734741,2338.524658 1235.660034,2339.528076 1235.691528,2340.526611 
	C1236.536865,2367.310059 1231.268188,2368.696777 1205.594971,2381.960449 
	C1204.427979,2382.563232 1203.114746,2383.059082 1201.822388,2383.216064 
	C1176.808594,2386.252441 1156.141968,2400.834229 1133.068848,2408.857422 
	C1114.704224,2415.243164 1104.790283,2429.058105 1095.661133,2444.114746 
	C1091.575562,2450.853027 1088.886597,2458.591309 1086.487671,2466.168457 
	C1081.150635,2483.026123 1058.562012,2501.657959 1032.065308,2497.509033 
	C1029.868530,2497.165039 1027.901489,2495.537842 1025.742798,2494.735352 
	C1014.812073,2490.671631 1003.572937,2487.884033 991.846802,2488.501465 
	C988.808105,2488.661377 985.105713,2489.989990 983.041565,2492.091553 
	C978.383179,2496.834717 979.635925,2501.926270 986.109985,2506.053223 
	C992.839111,2510.342773 999.880249,2514.139160 1006.687073,2518.311279 
	C1018.331543,2525.447754 1021.336670,2533.614258 1017.287659,2546.809570 
	C1016.704346,2548.710205 1015.837585,2550.528076 1015.051025,2552.362305 
	C1006.102051,2573.232422 1009.749695,2593.186279 1019.164734,2612.854004 
	C1022.287659,2619.378174 1026.839478,2622.600098 1034.154785,2621.736328 
	C1035.757690,2621.546875 1037.426147,2621.913574 1039.593994,2622.060303 
	C1040.295776,2632.692139 1041.189453,2643.179688 1041.523804,2653.684570 
	C1041.597290,2655.994873 1040.188232,2658.820068 1038.578857,2660.617676 
	C1035.265503,2664.318359 1031.425049,2667.564209 1027.678955,2670.857422 
	C1014.506348,2682.437988 1010.337585,2697.362061 1013.065430,2713.987061 
	C1015.127625,2726.555176 1014.651672,2738.343750 1009.235352,2749.967041 
	C1005.721802,2757.507324 1003.319763,2765.250977 1003.462524,2773.939209 
	C1003.601196,2782.379883 1000.171143,2790.199463 994.739746,2796.801025 
	C993.429443,2798.393555 991.218506,2799.813232 989.216125,2800.174805 
	C977.625549,2802.268799 977.080994,2802.697998 975.826111,2815.201416 
	C972.571289,2816.000000 969.142578,2816.000000 965.466980,2815.462891 
	C962.800598,2812.223389 960.554871,2809.337158 957.926575,2806.856201 
	C951.885742,2801.154053 945.076172,2796.158447 939.642212,2789.945801 
	C931.273621,2780.378174 921.803223,2779.638916 910.925964,2784.116211 
	C901.703674,2787.912354 892.364014,2791.447266 883.285400,2795.559814 
	C877.948975,2797.977051 873.211731,2798.270020 868.469177,2794.517578 
	C867.508240,2788.328857 870.837402,2783.777832 874.363159,2779.314209 
	C877.649231,2775.154053 881.428894,2771.297852 884.147339,2766.797852 
	C887.232483,2761.691162 886.255249,2759.534912 881.118530,2756.306152 
	C870.517334,2749.642578 867.314209,2749.783936 857.042236,2757.265137 
	C856.266846,2757.830078 855.273071,2758.095459 853.954407,2758.693359 
	C847.127930,2755.275146 839.307190,2753.236572 837.405334,2743.555908 
	C836.959656,2741.286865 832.703735,2739.766602 830.276733,2737.958252 
	C827.120056,2740.449463 824.750183,2742.267334 822.439209,2744.157471 
	C819.868225,2746.260498 817.510925,2748.670410 814.761658,2750.496338 
	C812.365540,2752.087646 809.655762,2753.768555 806.906189,2754.161621 
	C798.051880,2755.427490 790.108948,2748.422852 789.719604,2739.372314 
	C789.533691,2735.049561 789.947144,2730.688232 789.563477,2726.391357 
	C789.376526,2724.297363 788.562317,2721.501221 787.039001,2720.413818 
	C779.578491,2715.087891 772.536255,2708.401123 762.070435,2710.230713 
	C760.966003,2710.423584 759.715210,2709.778809 758.564453,2709.529541 
	C760.003296,2705.014160 760.947083,2700.818359 762.675354,2696.975830 
	C764.401489,2693.137695 766.980042,2689.690186 769.061279,2686.001953 
	C771.203735,2682.205078 770.152222,2678.300781 766.081970,2675.917969 
	C762.354980,2673.736084 758.263184,2672.174316 754.552979,2669.968018 
	C748.687744,2666.479980 743.637573,2661.533691 743.169800,2654.710693 
	C742.809448,2649.454102 745.251648,2644.005371 746.521790,2638.309570 
	C751.321533,2638.309570 754.959351,2638.445557 758.583130,2638.278809 
	C764.721252,2637.996338 767.742859,2635.084229 767.547180,2628.957520 
	C767.456787,2626.126221 766.368103,2623.167969 765.117371,2620.562256 
	C761.629456,2613.296387 758.964294,2605.891113 759.590393,2597.678467 
	C759.838623,2594.422363 759.241882,2591.652100 755.917847,2590.282715 
	C748.885559,2587.385254 741.927429,2584.257568 734.744568,2581.790527 
	C727.023926,2579.138672 719.105652,2577.044434 711.224976,2574.884521 
	C706.812012,2573.674561 702.302185,2572.817139 697.832886,2571.814697 
	C692.432312,2570.603027 687.903870,2568.339844 685.735413,2562.721924 
	C684.789917,2560.272705 683.568726,2557.864502 682.093018,2555.695801 
	C672.613098,2541.763916 663.011841,2527.914307 653.498962,2514.004639 
	C652.378357,2512.366211 651.672791,2510.445801 650.572388,2508.790771 
	C645.449097,2501.085205 640.499634,2493.241699 634.929932,2485.868896 
	C633.344055,2483.769775 629.911194,2482.014893 627.274170,2481.941650 
	C615.539246,2481.614746 607.404175,2474.144531 600.073547,2467.006836 
	C593.675293,2460.776855 585.237488,2455.423584 583.144165,2445.339844 
	C582.786316,2443.615723 579.543335,2442.637695 577.975830,2440.989014 
	C573.962219,2436.768311 569.971802,2431.750732 573.147217,2425.933838 
	C577.544678,2417.878174 574.976990,2413.233643 568.163269,2408.519531 
	C562.217651,2404.406250 560.386719,2391.703857 564.048706,2386.179443 
	C569.178528,2378.441650 566.107361,2364.178711 558.234009,2359.176025 
	C549.443787,2353.590820 547.824463,2352.341553 552.118408,2343.803955 
	C558.058472,2331.992920 552.921936,2324.418213 545.584717,2316.658447 
	C544.006409,2314.989014 542.307251,2313.386963 540.464478,2312.023193 
	C534.996216,2307.976318 532.318359,2303.235352 533.913635,2295.981201 
	C535.552490,2288.528564 534.111389,2281.672607 527.823975,2276.046631 
	C525.043762,2273.559082 523.231140,2269.520264 522.016541,2265.842773 
	C518.661377,2255.684814 521.199341,2251.862305 531.456421,2249.669434 
	C535.627380,2248.777832 539.729187,2247.412354 543.726013,2245.901611 
	C547.258728,2244.565918 549.492126,2241.322510 548.008972,2237.972168 
	C544.848389,2230.832031 547.121826,2224.510010 550.315186,2217.958984 
	C563.407104,2215.323242 575.655273,2212.535400 587.849609,2220.216309 
	C587.511963,2222.235840 586.876831,2224.452148 586.815918,2226.683838 
	C586.596252,2234.731201 594.146667,2239.815430 600.604126,2235.519775 
	C609.014893,2229.924805 618.339905,2229.181396 627.960632,2228.893066 
	C630.348694,2223.660889 632.646851,2218.625977 635.075928,2213.303955 
	C632.709839,2208.647461 628.927185,2203.643799 635.655884,2198.872559 
	C636.439575,2198.316895 636.664062,2196.616943 636.709167,2195.430908 
	C637.160217,2183.574463 637.650696,2171.717041 637.847107,2159.854980 
	C637.941650,2154.150391 638.702454,2148.875244 640.959717,2143.434814 
	C643.045837,2138.406982 643.869934,2132.489014 643.768860,2126.990479 
	C643.492981,2111.982910 649.905579,2099.251221 655.470154,2085.636963 
	C661.610901,2088.010254 662.852966,2093.320557 665.250488,2097.275879 
	C670.526611,2105.980469 677.976990,2108.066895 685.198730,2101.515381 
	C696.764099,2091.022705 707.919067,2080.078125 719.474487,2069.574463 
	C723.380371,2066.024170 724.584961,2062.060059 723.801758,2057.105713 
	C722.975342,2051.878174 722.861816,2046.443726 721.303772,2041.453491 
	C719.800354,2036.637939 720.934875,2032.984741 723.744629,2029.450317 
	C727.004150,2025.350098 728.692322,2020.824341 728.076538,2015.571411 
	C727.526123,2010.875244 729.182922,2007.201782 732.776001,2004.171387 
	C735.814758,2001.608887 738.646240,1998.800537 742.398315,1996.243164 
	C745.503235,1996.854248 747.767273,1997.655640 750.057190,1997.738281 
	C764.246582,1998.250366 777.595093,2001.059448 789.317017,2009.854004 
	C791.697449,2011.639893 795.531921,2012.085693 798.706360,2012.117432 
	C818.347900,2012.314209 837.993225,2012.305786 857.635132,2012.126099 
	C860.853760,2012.096680 864.281799,2011.393799 867.234558,2010.122925 
	C877.621521,2005.652222 887.865234,2000.844849 898.109497,1996.050171 
	C900.099304,1995.118896 901.847046,1993.670532 904.109863,1992.198120 
	C901.940552,1985.807983 899.971313,1979.843506 897.888977,1973.918945 
	C895.732849,1967.784302 893.113892,1961.736328 894.730896,1955.020020 
	C912.907593,1955.020020 930.479126,1955.072876 948.049744,1954.976318 
	C951.618652,1954.956665 955.318848,1954.877808 958.730225,1953.969116 
	C982.879333,1947.536011 1006.198975,1938.739014 1028.972168,1928.505127 
	C1035.784180,1925.443726 1042.671143,1924.009766 1050.192017,1924.121216 
	C1074.570679,1924.483154 1098.572876,1921.497070 1122.119019,1915.003662 
	C1126.586670,1913.771606 1131.150513,1912.620728 1135.743286,1912.156616 
	C1157.863037,1909.921753 1180.040405,1908.225342 1202.133423,1905.764526 
	C1218.616333,1903.928467 1235.031860,1901.624023 1249.667725,1892.531372 
	C1255.554321,1888.874146 1262.473511,1886.923218 1268.613159,1883.620239 
	C1281.857422,1876.495361 1295.359375,1872.350586 1310.335571,1877.713379 
	C1312.177368,1878.372803 1314.255249,1878.372925 1316.223633,1878.678589 
z"/>
<path data-name="Bana" style="fill: {#6A72AB}" fill="#6A72AB" opacity="1.000000" stroke="none" 
	d="
M1943.972656,1444.202271 
	C1948.088135,1454.716797 1952.520386,1465.120239 1956.248291,1475.770508 
	C1962.541138,1493.748291 1975.484985,1505.048950 1992.521606,1511.780884 
	C2004.539795,1516.529785 2017.076172,1519.976440 2029.409180,1523.916870 
	C2040.481934,1527.454712 2051.933105,1530.061768 2062.605469,1534.538574 
	C2077.725830,1540.881348 2091.638184,1549.282715 2099.369873,1564.940186 
	C2100.970703,1568.181641 2103.207031,1571.156128 2105.436279,1574.032349 
	C2113.874512,1584.920288 2119.942871,1596.947388 2124.292480,1610.034668 
	C2126.571777,1616.893799 2130.208008,1623.315063 2133.385010,1629.859497 
	C2137.142334,1637.599609 2143.601074,1642.008545 2151.889160,1643.422729 
	C2163.415771,1645.389160 2170.851807,1652.844971 2176.489258,1662.060059 
	C2180.172607,1668.081299 2181.077881,1675.045288 2178.278076,1682.185913 
	C2176.488770,1686.749146 2175.567383,1691.652832 2174.409424,1695.850830 
	C2180.907471,1703.500122 2186.382080,1711.112915 2193.095947,1717.403198 
	C2197.031982,1721.090942 2202.938965,1722.677002 2207.966553,1725.194580 
	C2208.559082,1725.491333 2209.174561,1725.804932 2209.815186,1725.933594 
	C2224.400635,1728.862549 2236.963379,1736.119629 2249.173828,1744.180298 
	C2250.810791,1745.260864 2252.784424,1745.830811 2255.301270,1746.318604 
	C2256.000000,1752.061157 2256.000000,1758.122437 2256.000000,1765.091797 
	C2250.880615,1765.461914 2252.302002,1769.778931 2252.089844,1772.018921 
	C2251.214355,1781.257812 2250.167480,1790.569336 2250.495605,1799.807617 
	C2250.806885,1808.574707 2248.506348,1816.149658 2244.074951,1823.402588 
	C2241.995117,1826.806885 2240.175049,1830.373413 2238.023682,1833.729492 
	C2235.862305,1837.100708 2235.414062,1840.356079 2237.248291,1844.057495 
	C2242.208496,1854.064941 2240.911621,1864.047974 2236.794434,1873.957764 
	C2236.031006,1875.795288 2234.256836,1878.006348 2234.741211,1879.439819 
	C2237.809082,1888.525635 2233.518066,1896.245239 2231.158447,1904.475220 
	C2229.912354,1908.821777 2230.654785,1913.712036 2230.259521,1918.336426 
	C2229.899658,1922.549683 2229.216553,1926.735352 2228.412598,1932.977051 
	C2217.029541,1921.286255 2208.121338,1910.497192 2201.791992,1897.544189 
	C2198.912598,1891.651489 2195.281250,1885.997070 2191.208008,1880.854980 
	C2187.576660,1876.270874 2182.089355,1874.635376 2176.146973,1874.206665 
	C2169.213623,1873.706055 2162.302734,1872.725586 2155.424316,1871.677124 
	C2140.039551,1869.331787 2124.750732,1865.519531 2109.294678,1864.688110 
	C2088.904053,1863.591064 2069.186523,1859.738159 2049.501953,1854.977051 
	C2036.609253,1851.858643 2023.460083,1849.587769 2010.841187,1845.617065 
	C2000.933105,1842.499023 1990.870972,1839.148804 1984.265625,1829.471191 
	C1980.765747,1824.343384 1974.483887,1821.196777 1967.684814,1821.805908 
	C1954.129517,1823.020142 1942.289795,1818.123901 1930.487183,1812.458862 
	C1913.792358,1804.445923 1905.963989,1806.969727 1894.951782,1822.130127 
	C1888.740234,1830.681519 1881.366699,1838.262695 1878.316772,1848.931030 
	C1877.331177,1852.378296 1873.386475,1855.041992 1870.633667,1857.908813 
	C1864.907715,1863.871338 1859.270264,1869.521118 1855.761108,1877.552490 
	C1851.566406,1887.153442 1845.462769,1896.009155 1839.512695,1904.728394 
	C1834.052490,1912.729736 1830.609863,1921.053467 1831.748291,1930.808350 
	C1832.541138,1937.601074 1830.730347,1942.962891 1825.266846,1947.476562 
	C1819.610596,1952.149414 1817.003906,1958.588867 1817.571289,1966.285522 
	C1812.878418,1969.912476 1807.700928,1971.864380 1801.897949,1971.778564 
	C1792.069946,1971.633301 1785.430786,1977.165161 1780.873657,1984.763306 
	C1777.818481,1989.856934 1773.691772,1991.974976 1768.711304,1994.132446 
	C1764.620605,1995.904419 1760.743164,1998.669800 1757.480347,2001.746826 
	C1750.961182,2007.894409 1744.928345,2014.557495 1738.001343,2021.725342 
	C1740.307739,2027.030151 1742.854126,2032.336914 1744.874268,2037.837036 
	C1745.562622,2039.710938 1744.927246,2042.070923 1744.896729,2044.208862 
	C1742.489624,2044.157715 1739.316284,2045.057373 1737.832275,2043.861084 
	C1734.558838,2041.222168 1732.066650,2037.583496 1729.382812,2034.250122 
	C1725.031738,2028.846313 1720.849487,2023.306030 1716.468994,2017.926758 
	C1713.122070,2013.816406 1708.538574,2012.413330 1703.371948,2011.612427 
	C1694.597290,2010.252319 1685.932251,2008.186768 1676.175537,2006.205322 
	C1672.386719,2010.810303 1667.394043,2010.343506 1661.598633,2006.189697 
	C1657.317749,2003.121338 1652.043823,2001.477417 1647.545776,1998.665649 
	C1638.041016,1992.724487 1631.100342,1984.338257 1625.540039,1974.664185 
	C1618.747437,1962.846191 1611.614380,1951.223389 1604.851807,1939.388550 
	C1601.899536,1934.221924 1599.905640,1928.487183 1596.772339,1923.448242 
	C1589.068359,1911.058960 1581.054077,1898.858521 1572.965454,1886.714600 
	C1569.106201,1880.920410 1564.674805,1875.510620 1560.706909,1869.785034 
	C1540.625244,1840.807373 1520.593872,1811.794434 1500.587891,1782.764404 
	C1497.003296,1777.562866 1492.696533,1774.506348 1485.923950,1773.947632 
	C1478.732544,1773.354370 1471.573486,1771.361084 1464.614502,1769.267334 
	C1458.822510,1767.524658 1454.565674,1768.462769 1450.325317,1772.912354 
	C1442.289673,1781.344849 1433.782593,1789.328003 1424.801270,1796.969604 
	C1422.698242,1793.505737 1421.060669,1790.648560 1419.898071,1787.609375 
	C1418.990967,1785.238403 1417.542114,1782.216919 1418.291260,1780.218384 
	C1421.564331,1771.486816 1425.217896,1762.609375 1434.724976,1758.707397 
	C1447.291382,1753.549683 1459.767944,1747.941162 1472.743286,1744.067505 
	C1491.149170,1738.572388 1510.076782,1734.846436 1528.581177,1729.650879 
	C1539.231934,1726.660400 1548.706909,1722.302368 1551.149780,1708.911987 
	C1552.970703,1698.931152 1557.926636,1689.546021 1561.161133,1679.787720 
	C1562.490356,1675.777588 1563.078247,1671.503906 1563.809570,1667.316406 
	C1566.936401,1649.411255 1569.151611,1631.291260 1573.395630,1613.658081 
	C1575.825439,1603.562866 1581.511230,1594.251221 1586.267334,1584.112915 
	C1597.231934,1569.054199 1607.664062,1554.472412 1618.082642,1539.880615 
	C1619.239502,1538.260132 1620.846313,1536.730103 1621.350342,1534.910400 
	C1625.756104,1519.001465 1632.849243,1503.762695 1632.245483,1486.623169 
	C1631.741943,1472.331177 1632.347900,1458.003418 1632.060059,1443.699463 
	C1631.893677,1435.429321 1630.870728,1427.179199 1630.338379,1418.913086 
	C1629.280518,1402.488770 1629.575806,1386.411255 1640.650513,1372.590698 
	C1642.861084,1369.831909 1644.419800,1366.264160 1645.347656,1362.818604 
	C1647.934448,1353.212280 1650.032227,1343.474121 1652.994141,1333.934692 
	C1669.386597,1346.539307 1687.447632,1353.600464 1706.989258,1357.317017 
	C1712.528442,1358.370605 1718.172119,1359.238892 1723.492432,1361.016357 
	C1747.281860,1368.964844 1771.587280,1373.680298 1796.716797,1374.261719 
	C1806.779663,1374.494507 1812.200317,1379.974731 1809.727295,1389.734741 
	C1807.216309,1399.644897 1811.060913,1406.294800 1816.182861,1413.411499 
	C1818.897583,1417.183594 1821.398438,1421.150513 1823.587891,1425.247681 
	C1825.681396,1429.165649 1828.899780,1431.639282 1833.013184,1431.716064 
	C1845.616089,1431.951660 1856.891724,1437.172852 1868.746216,1440.258789 
	C1873.658936,1441.537598 1879.254395,1441.694092 1884.269287,1440.817139 
	C1904.497803,1437.279663 1924.438599,1436.510132 1943.972656,1444.202271 
z"/>
<path data-name="Bandja" style="fill: {#DB4DA0}" fill="#DB4DA0" opacity="1.000000" stroke="none" 
	d="
M1944.327393,1443.543701 
	C1924.438599,1436.510132 1904.497803,1437.279663 1884.269287,1440.817139 
	C1879.254395,1441.694092 1873.658936,1441.537598 1868.746216,1440.258789 
	C1856.891724,1437.172852 1845.616089,1431.951660 1833.013184,1431.716064 
	C1828.899780,1431.639282 1825.681396,1429.165649 1823.587891,1425.247681 
	C1821.398438,1421.150513 1818.897583,1417.183594 1816.182861,1413.411499 
	C1811.060913,1406.294800 1807.216309,1399.644897 1809.727295,1389.734741 
	C1812.200317,1379.974731 1806.779663,1374.494507 1796.716797,1374.261719 
	C1771.587280,1373.680298 1747.281860,1368.964844 1723.492432,1361.016357 
	C1718.172119,1359.238892 1712.528442,1358.370605 1706.989258,1357.317017 
	C1687.447632,1353.600464 1669.386597,1346.539307 1652.646973,1333.354736 
	C1645.611206,1328.003662 1639.251831,1323.757202 1633.639404,1318.684448 
	C1615.885742,1302.637207 1598.573364,1286.100220 1580.739990,1270.144043 
	C1574.620117,1264.668213 1567.584351,1260.172852 1560.736694,1255.572266 
	C1557.501465,1253.398804 1553.723511,1252.033447 1549.178101,1249.805054 
	C1550.426392,1243.186401 1551.549438,1236.724976 1552.881714,1230.307129 
	C1554.292358,1223.511353 1553.284302,1220.555542 1547.623779,1216.819336 
	C1542.245605,1213.269409 1536.141357,1212.199585 1530.501343,1215.081299 
	C1520.717041,1220.081177 1511.395386,1218.591675 1503.031006,1213.132812 
	C1496.789062,1209.059204 1490.814087,1208.646973 1484.352173,1210.453979 
	C1480.469238,1211.539795 1477.327637,1211.001465 1473.968994,1209.081909 
	C1466.952393,1205.071899 1459.816162,1201.270508 1452.707886,1197.422485 
	C1451.839844,1196.952515 1450.861694,1196.650269 1449.901855,1196.390869 
	C1436.792603,1192.847656 1423.681152,1189.311890 1410.562622,1185.802856 
	C1400.250488,1183.044312 1390.185791,1181.176147 1379.529297,1185.610352 
	C1371.314087,1189.028809 1362.456787,1191.213989 1353.683960,1192.903198 
	C1343.071167,1194.946655 1331.882202,1197.734253 1322.852661,1188.456543 
	C1317.086426,1182.531738 1309.571167,1181.425415 1302.090820,1180.198730 
	C1289.424316,1178.121338 1287.142456,1174.863159 1290.403564,1162.136230 
	C1293.859741,1148.646973 1297.267090,1135.135742 1301.173950,1121.773926 
	C1306.131958,1104.817017 1312.419556,1088.239990 1322.528564,1073.698608 
	C1327.432007,1066.645386 1330.447876,1059.386230 1332.642700,1051.281372 
	C1336.387085,1037.453613 1333.816650,1025.646118 1323.155396,1015.896912 
	C1316.362915,1009.685608 1310.929077,1002.942261 1313.378906,993.112305 
	C1301.830811,989.477722 1291.799805,984.616455 1282.546143,977.904297 
	C1273.170288,971.103333 1263.895142,964.086487 1252.310059,960.916443 
	C1246.956909,959.451599 1241.717407,956.857178 1237.028564,953.839233 
	C1229.072754,948.718506 1226.241821,948.845215 1220.956665,956.628418 
	C1219.284668,959.090820 1218.407837,962.111450 1216.645142,964.489807 
	C1213.943970,968.134277 1211.112915,971.806824 1207.742676,974.797546 
	C1204.038086,978.084900 1199.514526,980.429138 1195.608765,983.514587 
	C1188.976074,988.754333 1181.568359,990.835938 1173.213379,990.051392 
	C1170.568604,989.802979 1167.876587,990.072083 1165.227783,989.849304 
	C1160.338379,989.438049 1156.396729,990.823425 1152.447266,994.025757 
	C1143.676880,1001.137085 1134.610962,1007.932617 1125.274414,1014.281555 
	C1117.835083,1019.340271 1109.798218,1023.082336 1100.308960,1019.162476 
	C1098.776611,1018.529480 1096.185059,1018.804993 1094.816406,1019.737183 
	C1090.463501,1022.701904 1085.307007,1025.413574 1082.536499,1029.597534 
	C1074.780151,1041.310425 1063.701904,1046.970947 1050.649780,1049.939087 
	C1047.735840,1050.601807 1044.690918,1050.913818 1041.932007,1051.974487 
	C1038.576050,1053.264648 1034.948730,1054.610962 1032.357056,1056.950073 
	C1028.375244,1060.543823 1024.666748,1064.019287 1019.285767,1065.649170 
	C1017.232605,1066.270874 1014.510437,1069.145020 1014.444580,1071.072998 
	C1014.196594,1078.337646 1009.966492,1080.097778 1003.958862,1080.098267 
	C996.869751,1080.098755 991.901978,1083.160400 989.172791,1089.798828 
	C987.860291,1092.991699 986.008362,1096.183716 982.073486,1095.779785 
	C974.737732,1095.026489 971.304321,1099.434082 968.116211,1104.890259 
	C966.284302,1108.025391 963.210876,1110.493164 961.659851,1113.723877 
	C956.808716,1123.828857 947.800293,1126.634888 937.930603,1127.394165 
	C933.789185,1127.712891 929.497986,1126.083740 925.479187,1124.598755 
	C926.249695,1119.674438 928.392334,1114.890015 927.071045,1111.427124 
	C923.794556,1102.839966 919.086731,1094.771729 914.567505,1086.711670 
	C913.790527,1085.325928 911.172852,1084.807251 909.300293,1084.227783 
	C897.517700,1080.581787 897.417175,1080.609375 897.952393,1068.495972 
	C898.160339,1063.790161 898.168823,1059.959473 894.012329,1056.054565 
	C890.719788,1052.961304 888.973877,1047.483154 888.059998,1042.769409 
	C886.679626,1035.649780 887.039429,1028.205200 885.859680,1021.030212 
	C885.022095,1015.935486 884.313721,1009.586121 881.030273,1006.354614 
	C870.556763,996.046570 864.411499,983.245361 857.407776,970.807922 
	C848.143738,954.356689 836.323608,940.179565 819.896301,930.393921 
	C826.068237,922.389709 826.289246,915.024475 818.105103,908.107544 
	C810.809692,901.941895 806.169312,892.489197 796.130920,889.535645 
	C795.067871,889.222717 793.608521,887.671326 793.617554,886.706421 
	C793.693787,878.506470 788.019287,874.729187 782.060974,871.810486 
	C782.126282,864.120483 789.335022,863.212097 792.517700,859.172363 
	C790.246826,850.351013 790.356995,847.394653 793.906372,844.559509 
	C797.143433,841.973755 802.152893,840.647278 803.923767,837.418213 
	C806.370789,832.955933 810.526611,832.487854 813.582031,830.049316 
	C820.146362,824.810242 827.669373,821.590515 834.489014,817.082214 
	C837.712097,814.951660 842.576477,810.412537 841.970032,808.364380 
	C840.562744,803.611328 842.493225,799.362488 841.805298,794.913025 
	C841.065674,790.129150 844.253113,786.722656 847.887573,784.323547 
	C852.268372,781.431763 854.644043,786.235657 857.865295,788.489319 
	C861.541870,785.083069 866.835754,782.531494 867.697083,778.922180 
	C869.930420,769.563843 874.003418,763.187195 883.910645,761.539001 
	C884.514587,761.438477 885.404419,761.074280 885.569336,760.618469 
	C887.619446,754.955322 892.430908,756.495483 896.562805,756.338806 
	C898.892517,756.250427 901.243286,756.151123 903.558289,756.355225 
	C908.732544,756.811279 911.639465,755.009583 912.356384,749.448364 
	C913.298706,742.139282 915.646057,735.680847 924.964722,735.825439 
	C925.823914,735.838806 926.642944,734.694458 927.573486,734.466553 
	C932.808838,733.184265 938.026367,731.681702 943.345642,730.948792 
	C946.166077,730.560120 949.263733,731.276184 952.079224,732.058411 
	C954.169250,732.639099 956.260620,733.836853 957.908630,735.269226 
	C962.795593,739.516907 967.463440,744.016724 972.277039,748.473633 
	C979.001709,744.321228 985.372803,741.411011 987.845581,733.719360 
	C983.649536,729.582947 978.233887,726.652771 979.183289,719.236389 
	C979.892700,713.695374 976.822754,707.466675 983.088074,704.385254 
	C981.908081,699.401794 980.940063,695.313477 980.177856,692.094788 
	C989.973755,684.705933 998.842957,678.028564 1007.697144,671.331360 
	C1011.147705,668.721497 1014.564636,666.067139 1019.175110,662.528870 
	C1019.186584,658.637329 1020.936646,653.807434 1026.412109,651.246094 
	C1035.190063,647.139832 1043.983154,643.065491 1052.812256,638.957886 
	C1055.165894,639.842712 1058.511108,642.408325 1060.400757,641.594421 
	C1071.151245,636.963806 1084.214722,636.098572 1090.816406,624.130615 
	C1091.320190,623.217163 1092.904053,622.825317 1094.052612,622.354065 
	C1100.487305,619.713806 1101.213379,619.375549 1098.535034,613.231934 
	C1095.826782,607.019470 1099.487793,602.365295 1100.722290,597.121582 
	C1100.902100,596.357422 1103.443359,596.149292 1105.096191,595.618286 
	C1106.564209,600.517822 1107.869141,604.872864 1109.053833,608.826599 
	C1113.415771,611.150452 1116.349365,609.952148 1119.407349,607.124878 
	C1122.794922,603.992676 1126.867065,601.614075 1130.400391,598.622864 
	C1134.350464,595.278809 1138.413452,591.937195 1141.719482,588.000122 
	C1144.976440,584.121582 1146.400024,577.834656 1150.331299,575.597290 
	C1156.074951,572.328613 1156.384644,567.544189 1156.047485,563.069092 
	C1155.298584,553.128235 1160.512451,548.656128 1168.833374,545.770264 
	C1178.881226,542.285461 1189.050293,539.000793 1198.730103,534.656372 
	C1205.277344,531.717773 1211.282104,527.382629 1217.069702,523.056824 
	C1218.751587,521.799744 1219.989990,518.133972 1219.469360,516.066467 
	C1217.449341,508.044830 1221.861206,504.518219 1228.086304,501.745300 
	C1232.003784,500.000305 1235.858154,498.113708 1239.870239,496.229950 
	C1241.138184,497.099457 1242.124268,498.040131 1243.298096,498.537170 
	C1250.265259,501.487183 1258.638062,502.689972 1263.997681,498.346619 
	C1269.627197,493.784454 1275.745605,491.630371 1281.831787,490.924744 
	C1291.346069,489.821716 1296.786377,484.569885 1301.497070,477.400909 
	C1302.732300,475.521088 1303.959229,473.635834 1305.317871,471.557526 
	C1309.077881,472.952759 1312.384888,474.179962 1317.427979,476.051361 
	C1319.563599,473.258453 1321.529785,470.070160 1324.119873,467.514038 
	C1325.877075,465.779846 1328.375000,464.480774 1330.773804,463.764404 
	C1344.431885,459.685730 1357.778687,455.371765 1368.959839,445.686310 
	C1373.347534,441.885651 1374.673584,438.765503 1372.336060,433.860077 
	C1368.919067,426.689331 1368.109253,420.008667 1374.714722,413.905029 
	C1376.276978,412.461456 1376.564331,409.717316 1377.719727,407.735687 
	C1379.363770,404.915924 1380.843140,401.810242 1383.132080,399.588135 
	C1395.541626,387.540558 1408.202026,375.752075 1420.722900,363.818359 
	C1424.392334,360.320953 1428.064697,357.787689 1433.644653,357.378906 
	C1440.080078,356.907471 1444.690796,351.486176 1444.114868,345.089264 
	C1443.368042,336.796051 1447.550537,331.371826 1453.448242,327.597504 
	C1460.083740,323.350983 1463.818237,317.646454 1466.663330,310.709198 
	C1467.871094,307.764374 1469.665405,303.694153 1472.088989,302.912109 
	C1476.473633,301.497223 1477.548950,298.540802 1478.754517,295.105194 
	C1480.886353,289.029694 1485.178345,286.204590 1491.593018,285.922516 
	C1494.434570,285.797546 1497.233887,284.711975 1500.052368,284.062500 
	C1510.614380,283.925568 1521.176270,283.788635 1532.615479,283.819580 
	C1537.275513,294.672913 1544.783081,302.525330 1552.815552,310.135498 
	C1559.063965,316.055267 1564.953735,322.398041 1570.585327,328.913757 
	C1578.355713,337.904236 1579.228394,347.942017 1576.506836,359.594421 
	C1571.123169,382.644989 1558.976929,402.622650 1549.224365,423.662598 
	C1542.925537,437.251892 1536.683716,450.724335 1532.221191,465.094727 
	C1528.329712,477.625671 1528.907959,489.208832 1535.135132,500.673401 
	C1549.411987,526.957947 1563.962280,553.103027 1577.704956,579.665100 
	C1584.428467,592.660339 1587.565796,606.921814 1589.849731,621.501465 
	C1593.467651,644.598022 1595.053711,667.715088 1594.309204,691.034790 
	C1594.171265,695.356262 1594.521729,699.837463 1593.471558,703.944458 
	C1592.453491,707.925415 1590.756226,712.414856 1587.879761,715.094910 
	C1582.091064,720.488098 1575.887573,726.158936 1568.782715,729.249878 
	C1557.705566,734.069031 1550.280640,743.165344 1540.842773,749.805603 
	C1537.604980,752.083740 1534.678589,754.880371 1531.907471,757.729553 
	C1526.813477,762.967407 1522.702515,768.420593 1521.373779,776.301880 
	C1520.078003,783.987000 1517.075195,791.729614 1513.214355,798.535156 
	C1509.687500,804.752075 1510.208740,809.737732 1513.504761,815.252319 
	C1519.816040,825.811523 1525.988037,836.457092 1532.478271,846.905090 
	C1543.527344,864.691711 1555.169556,882.121826 1565.820435,900.140381 
	C1574.425659,914.698303 1578.088013,912.233826 1591.185913,909.056396 
	C1596.635132,907.734558 1601.814331,905.270691 1607.082642,903.238953 
	C1617.583252,899.189331 1626.261353,902.573975 1632.902954,910.667908 
	C1638.803223,917.857971 1643.996948,925.379150 1652.395142,930.235413 
	C1656.249390,932.463989 1658.921875,936.782715 1662.030029,940.243591 
	C1666.219849,944.909058 1668.115479,950.287231 1667.766968,956.698181 
	C1667.387817,963.673462 1668.276978,970.748596 1667.541748,977.666321 
	C1666.435547,988.075073 1671.171997,994.510010 1679.510620,999.728882 
	C1689.939575,1006.256104 1699.965332,1013.424316 1710.228760,1020.219788 
	C1716.832886,1024.592529 1721.269775,1030.545776 1724.393433,1037.775146 
	C1729.908569,1050.539795 1739.167114,1060.739990 1749.455566,1069.512695 
	C1763.096558,1081.143677 1777.290894,1092.000244 1790.172852,1104.643066 
	C1798.239990,1112.560547 1808.197510,1119.348267 1820.005859,1121.973022 
	C1827.929565,1123.734253 1834.846436,1126.959106 1840.132935,1133.813843 
	C1843.714844,1138.458252 1848.820923,1141.876709 1855.114258,1142.931885 
	C1858.023438,1143.419678 1860.965820,1144.470093 1863.575195,1145.861694 
	C1881.587769,1155.467896 1900.312988,1152.964600 1919.019531,1149.080078 
	C1925.482178,1147.738037 1931.727295,1145.302734 1938.025513,1143.226318 
	C1947.213135,1140.197266 1956.441772,1137.846680 1966.289307,1138.244385 
	C1975.959473,1138.634766 1981.646362,1141.745728 1983.451904,1151.052246 
	C1984.922607,1158.634155 1988.447632,1161.971191 1995.764404,1162.490845 
	C1997.128540,1162.587769 1999.124390,1163.901245 1999.570190,1165.115356 
	C2001.834839,1171.283325 2004.714722,1177.486816 2005.441895,1183.897583 
	C2006.562256,1193.775879 2005.669556,1203.867188 2006.445068,1213.804565 
	C2007.212402,1223.636353 2004.868652,1232.212769 1998.678101,1239.745361 
	C1992.109741,1247.737305 1991.323120,1256.068970 1995.338013,1265.680054 
	C1999.042603,1274.548096 2001.120972,1284.084106 2004.592285,1293.064575 
	C2006.994019,1299.277954 2006.750977,1304.982910 2003.057617,1310.142578 
	C1993.040039,1324.137451 1984.433594,1339.212036 1971.011597,1350.606323 
	C1960.926147,1359.167969 1955.364868,1370.055908 1955.529907,1383.795410 
	C1955.612671,1390.701538 1954.155762,1397.631714 1953.318237,1404.541748 
	C1952.362671,1412.426514 1951.761719,1420.391968 1950.159912,1428.147583 
	C1949.112183,1433.220825 1946.560425,1437.983398 1944.327393,1443.543701 
z"/>
<path data-name="Kékem" style="fill: {#7F58F4}" fill="#7F58F4" opacity="1.000000" stroke="none" 
	d="
M113.904236,1614.480835 
	C119.008171,1613.130981 123.886086,1612.080566 128.788177,1611.952148 
	C137.157761,1611.732666 142.162979,1606.451904 139.332733,1598.704590 
	C136.363297,1590.576050 142.156845,1585.169189 143.825653,1578.523682 
	C144.049423,1577.632446 145.784378,1576.702393 146.932449,1576.526367 
	C158.257950,1574.788940 168.736725,1571.142822 177.595505,1563.585571 
	C178.083923,1563.168945 178.769821,1562.971069 179.381668,1562.713745 
	C191.863052,1557.465088 194.623230,1552.664673 192.789551,1539.318237 
	C195.581390,1533.518921 206.108597,1535.121094 205.845947,1525.645752 
	C200.710358,1525.109497 195.149124,1525.796021 191.079193,1523.651855 
	C188.429138,1522.255981 187.948730,1516.741821 186.331665,1512.656494 
	C192.580673,1510.750000 200.793671,1513.413574 202.734131,1504.429810 
	C198.197327,1502.167236 193.979782,1499.768066 189.530106,1497.931519 
	C185.422058,1496.236084 181.064957,1495.144043 176.111465,1493.560425 
	C181.260590,1491.413940 185.540848,1489.629517 190.297409,1487.646729 
	C187.731979,1481.439331 184.870850,1478.243164 179.060852,1477.552490 
	C172.722351,1476.798828 171.176270,1474.335815 171.716934,1468.322021 
	C172.233582,1462.575439 174.767929,1460.117432 180.775940,1460.152222 
	C184.282562,1460.172485 187.785706,1460.789307 191.918976,1461.200195 
	C191.124878,1456.250977 188.961563,1456.508545 185.487778,1457.257446 
	C177.707993,1458.934692 174.656250,1457.137939 170.722137,1449.893311 
	C174.995667,1446.884521 174.995667,1446.884521 186.477295,1445.593384 
	C187.717209,1441.403442 188.993454,1437.090820 190.324692,1432.592407 
	C184.072342,1429.358521 175.690918,1438.515137 169.789719,1428.078003 
	C172.259521,1427.213257 174.437698,1425.779907 176.597015,1425.807739 
	C187.445587,1425.947754 194.871887,1420.744751 200.080963,1411.683472 
	C200.744049,1410.530029 201.432297,1409.390991 202.113785,1408.248169 
	C206.587387,1400.747192 210.261612,1392.626465 219.830704,1389.804565 
	C222.142609,1389.122681 223.878006,1386.464478 225.862274,1384.696899 
	C241.252960,1370.986938 256.561401,1357.182739 272.092163,1343.633301 
	C275.286469,1340.846558 279.359009,1339.085449 282.934509,1336.712524 
	C288.990509,1332.693237 295.438385,1329.088013 300.832367,1324.305786 
	C304.822998,1320.767822 308.694855,1319.507568 313.468323,1320.741821 
	C321.066986,1322.706665 328.515137,1323.238159 335.998596,1320.235840 
	C337.478638,1319.642212 339.358124,1319.450806 340.921387,1319.754150 
	C351.212982,1321.751465 358.605072,1316.536987 366.034302,1310.519409 
	C378.853729,1300.135986 393.563232,1293.185669 409.496674,1289.162231 
	C417.833282,1287.056885 423.406555,1281.817871 428.371674,1275.473755 
	C431.652893,1271.281250 434.594604,1266.820190 437.929901,1262.673584 
	C443.000549,1256.369507 448.927673,1251.758301 457.253693,1249.628296 
	C469.873932,1246.399780 479.636749,1238.177979 487.882599,1228.292358 
	C496.220215,1218.296875 505.718262,1212.525391 519.682922,1215.190552 
	C531.399414,1217.426514 541.679382,1212.343750 551.160400,1205.487671 
	C557.874695,1200.632446 564.879700,1196.107300 572.111084,1192.073242 
	C575.121704,1190.393799 579.058289,1190.374390 582.867310,1189.535522 
	C586.303894,1182.503906 592.860718,1179.131592 600.442383,1179.876343 
	C615.242249,1181.330078 623.732361,1172.292969 632.341125,1162.779297 
	C636.313660,1158.389160 640.531616,1154.213623 644.755920,1150.060547 
	C650.926636,1143.993774 657.680420,1138.437622 663.232727,1131.859375 
	C665.995728,1128.585693 667.680786,1123.608398 668.037781,1119.252686 
	C668.957947,1108.026733 677.754639,1088.276367 685.232117,1080.045654 
	C698.951294,1064.944458 714.281555,1051.806274 730.700012,1039.784546 
	C738.879333,1033.795654 744.944031,1026.020142 748.689087,1016.377869 
	C750.957825,1010.536438 753.628235,1004.714600 760.957703,1003.064575 
	C763.006287,1002.603394 764.881409,1000.595642 766.458435,998.938049 
	C779.295715,985.444031 792.112061,972.024170 797.603821,953.367432 
	C800.679565,942.918457 808.522949,936.185364 818.733398,931.144897 
	C836.323608,940.179565 848.143738,954.356689 857.407776,970.807922 
	C864.411499,983.245361 870.556763,996.046570 881.030273,1006.354614 
	C884.313721,1009.586121 885.022095,1015.935486 885.859680,1021.030212 
	C887.039429,1028.205200 886.679626,1035.649780 888.059998,1042.769409 
	C888.973877,1047.483154 890.719788,1052.961304 894.012329,1056.054565 
	C898.168823,1059.959473 898.160339,1063.790161 897.952393,1068.495972 
	C897.417175,1080.609375 897.517700,1080.581787 909.300293,1084.227783 
	C911.172852,1084.807251 913.790527,1085.325928 914.567505,1086.711670 
	C919.086731,1094.771729 923.794556,1102.839966 927.071045,1111.427124 
	C928.392334,1114.890015 926.249695,1119.674438 924.889771,1124.879028 
	C919.787048,1129.406738 915.606140,1133.087036 911.136536,1136.374756 
	C905.630737,1140.424561 901.021606,1144.940918 899.524414,1151.972290 
	C898.695862,1155.863892 897.537476,1159.692627 896.380432,1163.504883 
	C895.135193,1167.607544 895.478455,1170.836304 898.760986,1174.337891 
	C903.876038,1179.794067 903.469482,1181.629272 897.967224,1186.696411 
	C894.902893,1189.518311 891.561401,1192.039307 887.085632,1195.735840 
	C893.365295,1198.151489 898.444519,1199.671143 903.092346,1202.038086 
	C906.479126,1203.763062 910.445312,1205.962646 912.176575,1209.056641 
	C921.391418,1225.525269 936.051147,1235.350952 951.987488,1244.149658 
	C959.768005,1248.445312 967.024292,1253.849121 973.997986,1259.403931 
	C981.201172,1265.141479 982.993286,1273.204712 980.508606,1281.875610 
	C975.636353,1298.878662 966.794861,1313.412354 953.238708,1325.065430 
	C940.603210,1335.927124 928.386047,1347.315674 919.220825,1361.390625 
	C910.509827,1374.768311 901.924316,1388.258423 893.996521,1402.107178 
	C885.129028,1417.597778 872.574158,1428.967896 857.697815,1438.367676 
	C853.053650,1441.302002 849.370239,1445.756958 844.542725,1449.610840 
	C826.985168,1455.854492 816.109863,1468.049194 809.733643,1484.355469 
	C807.721802,1489.500488 805.466431,1495.559082 806.386230,1500.645508 
	C808.786255,1513.916748 807.993164,1527.963013 814.987915,1540.302612 
	C816.234497,1542.501831 816.165588,1545.446899 815.810852,1548.186523 
	C810.286621,1548.786743 805.665222,1549.453613 801.022827,1549.671143 
	C785.404053,1550.402954 769.776306,1550.942139 754.154602,1551.615112 
	C722.914307,1552.960938 691.685791,1554.678589 660.433777,1555.627808 
	C625.493042,1556.689087 590.524658,1557.771851 555.582092,1557.432129 
	C539.417847,1557.275146 524.831604,1562.113403 509.862274,1566.351318 
	C507.391052,1567.051025 505.138184,1568.781250 502.990540,1570.322388 
	C490.819641,1579.056274 478.976746,1588.277344 466.505737,1596.554321 
	C454.604126,1604.453125 444.853088,1614.190674 437.845215,1626.501831 
	C428.964874,1642.102173 420.803314,1658.113037 411.853882,1673.672119 
	C405.101746,1685.411133 398.863312,1697.616821 385.596771,1704.052002 
	C368.151886,1712.514038 352.521881,1723.926880 337.247681,1735.754883 
	C293.496918,1769.635132 244.350708,1794.071045 194.631882,1817.517456 
	C193.159302,1818.211914 191.434418,1818.371338 189.827148,1818.780151 
	C189.276230,1809.158813 181.799500,1804.664185 175.176239,1799.967407 
	C168.858871,1795.487427 167.529465,1793.592896 172.614426,1786.673828 
	C178.925949,1778.085938 175.901108,1769.680054 171.838562,1762.651123 
	C166.255753,1752.991943 167.853897,1743.880371 169.867996,1734.263428 
	C170.338593,1732.016724 171.702515,1729.733887 171.436234,1727.621338 
	C171.189514,1725.663818 169.460831,1722.443115 168.128479,1722.308105 
	C159.518402,1721.435791 157.616089,1715.457275 156.510117,1708.536255 
	C156.356812,1707.577026 155.838074,1706.676025 155.301605,1705.251831 
	C149.354172,1703.897095 142.141632,1704.247314 139.267258,1696.386353 
	C138.803253,1695.117554 135.278549,1694.622192 133.101807,1694.386475 
	C124.356232,1693.439087 117.976700,1686.330444 120.670616,1678.278442 
	C123.180809,1670.775146 121.904503,1665.514648 115.698685,1660.975586 
	C116.615303,1658.119995 117.855392,1655.671265 118.136002,1653.117065 
	C118.974182,1645.487183 123.776855,1637.665527 116.174065,1630.337769 
	C114.401711,1628.629517 115.483849,1623.959595 114.621826,1620.098633 
	C113.890404,1618.094727 113.789749,1616.644775 113.904236,1614.480835 
z"/>
<path data-name="Bafang" style="fill: {#78E6F5}" fill="#78E6F5" opacity="1.000000" stroke="none" 
	d="
M816.704102,1548.047485 
	C816.165588,1545.446899 816.234497,1542.501831 814.987915,1540.302612 
	C807.993164,1527.963013 808.786255,1513.916748 806.386230,1500.645508 
	C805.466431,1495.559082 807.721802,1489.500488 809.733643,1484.355469 
	C816.109863,1468.049194 826.985168,1455.854492 845.179260,1450.020996 
	C857.528198,1457.776489 867.767456,1466.941772 879.717896,1472.267334 
	C899.410889,1481.043091 920.180054,1487.422485 940.580811,1494.568726 
	C943.251160,1495.504028 946.462585,1495.385742 949.360046,1495.104004 
	C974.187744,1492.690186 998.896240,1488.728394 1023.976868,1489.733276 
	C1026.944092,1489.852173 1030.049683,1489.820312 1032.897461,1489.096680 
	C1055.129761,1483.445923 1077.640747,1478.617554 1099.432861,1471.576904 
	C1127.339355,1462.560669 1155.534668,1454.800537 1184.060181,1448.206299 
	C1191.080444,1446.583496 1198.555298,1446.741211 1205.833862,1446.540161 
	C1207.901245,1446.482788 1210.595703,1447.487305 1212.010376,1448.958740 
	C1221.213867,1458.531494 1230.576904,1468.051270 1235.708008,1481.010376 
	C1231.994263,1486.151978 1228.499146,1491.439453 1224.548950,1496.361816 
	C1217.391235,1505.280884 1212.038086,1515.072510 1207.994263,1525.791382 
	C1202.004517,1541.668091 1201.872070,1541.499512 1208.959961,1556.522217 
	C1210.700806,1560.212158 1213.005127,1562.427734 1216.831909,1563.312256 
	C1245.278931,1569.887695 1272.512451,1581.702271 1302.191162,1582.971313 
	C1324.464111,1583.923340 1346.740356,1585.972290 1368.999756,1585.778076 
	C1398.621948,1585.519897 1428.227051,1582.628296 1457.843872,1582.548950 
	C1500.470825,1582.434814 1543.101685,1583.833740 1585.730957,1584.586792 
	C1581.511230,1594.251221 1575.825439,1603.562866 1573.395630,1613.658081 
	C1569.151611,1631.291260 1566.936401,1649.411255 1563.809570,1667.316406 
	C1563.078247,1671.503906 1562.490356,1675.777588 1561.161133,1679.787720 
	C1557.926636,1689.546021 1552.970703,1698.931152 1551.149780,1708.911987 
	C1548.706909,1722.302368 1539.231934,1726.660400 1528.581177,1729.650879 
	C1510.076782,1734.846436 1491.149170,1738.572388 1472.743286,1744.067505 
	C1459.767944,1747.941162 1447.291382,1753.549683 1434.724976,1758.707397 
	C1425.217896,1762.609375 1421.564331,1771.486816 1418.291260,1780.218384 
	C1417.542114,1782.216919 1418.990967,1785.238403 1419.898071,1787.609375 
	C1421.060669,1790.648560 1422.698242,1793.505737 1424.181396,1797.186035 
	C1388.677856,1824.693359 1353.124268,1851.455933 1316.897217,1878.448486 
	C1314.255249,1878.372925 1312.177368,1878.372803 1310.335571,1877.713379 
	C1295.359375,1872.350586 1281.857422,1876.495361 1268.613159,1883.620239 
	C1262.473511,1886.923218 1255.554321,1888.874146 1249.667725,1892.531372 
	C1235.031860,1901.624023 1218.616333,1903.928467 1202.133423,1905.764526 
	C1180.040405,1908.225342 1157.863037,1909.921753 1135.743286,1912.156616 
	C1131.150513,1912.620728 1126.586670,1913.771606 1122.119019,1915.003662 
	C1098.572876,1921.497070 1074.570679,1924.483154 1050.192017,1924.121216 
	C1042.671143,1924.009766 1035.784180,1925.443726 1028.972168,1928.505127 
	C1006.198975,1938.739014 982.879333,1947.536011 958.730225,1953.969116 
	C955.318848,1954.877808 951.618652,1954.956665 948.049744,1954.976318 
	C930.479126,1955.072876 912.907593,1955.020020 894.730896,1955.020020 
	C893.113892,1961.736328 895.732849,1967.784302 897.888977,1973.918945 
	C899.971313,1979.843506 901.940552,1985.807983 904.109863,1992.198120 
	C901.847046,1993.670532 900.099304,1995.118896 898.109497,1996.050171 
	C887.865234,2000.844849 877.621521,2005.652222 867.234558,2010.122925 
	C864.281799,2011.393799 860.853760,2012.096680 857.635132,2012.126099 
	C837.993225,2012.305786 818.347900,2012.314209 798.706360,2012.117432 
	C795.531921,2012.085693 791.697449,2011.639893 789.317017,2009.854004 
	C777.595093,2001.059448 764.246582,1998.250366 750.057190,1997.738281 
	C747.767273,1997.655640 745.503235,1996.854248 742.602539,1995.522705 
	C743.132141,1992.647705 745.112122,1990.701660 745.280945,1988.609375 
	C745.728577,1983.061035 749.208801,1980.313110 753.608032,1978.481445 
	C768.183594,1972.413208 774.489990,1960.815063 775.743103,1945.843506 
	C776.047180,1942.210815 777.802124,1940.047485 780.364319,1937.580322 
	C784.585510,1933.515625 789.534180,1929.117432 791.354187,1923.879395 
	C794.942322,1913.552856 800.430481,1904.345215 807.295166,1896.475952 
	C815.517700,1887.049561 818.708923,1876.377563 819.874695,1864.697998 
	C820.604675,1857.384644 823.182983,1850.946411 828.012695,1845.820801 
	C834.283997,1839.165039 835.903137,1831.991333 834.537170,1823.083130 
	C832.595825,1810.422974 833.942444,1798.041748 839.510132,1786.084473 
	C841.485413,1781.842529 841.590759,1776.428101 841.445496,1771.582031 
	C841.287842,1766.324585 839.832031,1761.107422 838.961914,1755.869507 
	C836.120239,1738.762207 834.327087,1721.482178 836.468994,1704.265503 
	C838.719238,1686.177734 842.580811,1668.295532 845.412292,1650.272339 
	C846.697205,1642.093506 848.203247,1633.744385 847.824768,1625.555054 
	C847.185913,1611.730469 848.820312,1598.396606 852.513855,1585.164307 
	C856.076111,1572.402344 854.846252,1568.852417 844.185913,1561.695435 
	C840.070068,1558.932129 835.654419,1556.563599 831.200684,1554.369995 
	C826.476562,1552.043091 821.544983,1550.137207 816.704102,1548.047485 
z"/>
<path data-name="Banwa" style="fill: {#6E964D}" fill="#6E964D" opacity="1.000000" stroke="none" 
	d="
M815.810791,1548.186523 
	C821.544983,1550.137207 826.476562,1552.043091 831.200684,1554.369995 
	C835.654419,1556.563599 840.070068,1558.932129 844.185913,1561.695435 
	C854.846252,1568.852417 856.076111,1572.402344 852.513855,1585.164307 
	C848.820312,1598.396606 847.185913,1611.730469 847.824768,1625.555054 
	C848.203247,1633.744385 846.697205,1642.093506 845.412292,1650.272339 
	C842.580811,1668.295532 838.719238,1686.177734 836.468994,1704.265503 
	C834.327087,1721.482178 836.120239,1738.762207 838.961914,1755.869507 
	C839.832031,1761.107422 841.287842,1766.324585 841.445496,1771.582031 
	C841.590759,1776.428101 841.485413,1781.842529 839.510132,1786.084473 
	C833.942444,1798.041748 832.595825,1810.422974 834.537170,1823.083130 
	C835.903137,1831.991333 834.283997,1839.165039 828.012695,1845.820801 
	C823.182983,1850.946411 820.604675,1857.384644 819.874695,1864.697998 
	C818.708923,1876.377563 815.517700,1887.049561 807.295166,1896.475952 
	C800.430481,1904.345215 794.942322,1913.552856 791.354187,1923.879395 
	C789.534180,1929.117432 784.585510,1933.515625 780.364319,1937.580322 
	C777.802124,1940.047485 776.047180,1942.210815 775.743103,1945.843506 
	C774.489990,1960.815063 768.183594,1972.413208 753.608032,1978.481445 
	C749.208801,1980.313110 745.728577,1983.061035 745.280945,1988.609375 
	C745.112122,1990.701660 743.132141,1992.647705 741.773560,1995.380737 
	C738.646240,1998.800537 735.814758,2001.608887 732.776001,2004.171387 
	C729.182922,2007.201782 727.526123,2010.875244 728.076538,2015.571411 
	C728.692322,2020.824341 727.004150,2025.350098 723.744629,2029.450317 
	C720.934875,2032.984741 719.800354,2036.637939 721.303772,2041.453491 
	C722.861816,2046.443726 722.975342,2051.878174 723.801758,2057.105713 
	C724.584961,2062.060059 723.380371,2066.024170 719.474487,2069.574463 
	C707.919067,2080.078125 696.764099,2091.022705 685.198730,2101.515381 
	C677.976990,2108.066895 670.526611,2105.980469 665.250488,2097.275879 
	C662.852966,2093.320557 661.610901,2088.010254 655.470154,2085.636963 
	C649.905579,2099.251221 643.492981,2111.982910 643.768860,2126.990479 
	C643.869934,2132.489014 643.045837,2138.406982 640.959717,2143.434814 
	C638.702454,2148.875244 637.941650,2154.150391 637.847107,2159.854980 
	C637.650696,2171.717041 637.160217,2183.574463 636.709167,2195.430908 
	C636.664062,2196.616943 636.439575,2198.316895 635.655884,2198.872559 
	C628.927185,2203.643799 632.709839,2208.647461 635.075928,2213.303955 
	C632.646851,2218.625977 630.348694,2223.660889 627.960632,2228.893066 
	C618.339905,2229.181396 609.014893,2229.924805 600.604126,2235.519775 
	C594.146667,2239.815430 586.596252,2234.731201 586.815918,2226.683838 
	C586.876831,2224.452148 587.511963,2222.235840 587.849609,2220.216309 
	C575.655273,2212.535400 563.407104,2215.323242 550.315186,2217.958984 
	C543.713928,2204.890625 544.140381,2203.047852 554.922729,2194.674805 
	C556.761963,2193.246338 558.709900,2191.952881 560.499146,2190.466553 
	C568.179199,2184.085205 568.367065,2182.209229 562.292847,2174.044922 
	C561.714050,2173.266846 561.110474,2172.507568 561.027466,2172.399902 
	C561.458984,2162.532227 561.822693,2153.412598 562.266235,2144.296875 
	C562.710754,2135.160400 563.258179,2126.029053 563.719055,2116.893311 
	C564.455200,2102.302246 561.064026,2098.108398 546.419189,2095.552002 
	C523.832092,2091.608643 505.042999,2080.198242 487.961121,2065.592285 
	C481.836548,2060.355469 479.591705,2060.220459 474.741852,2067.056641 
	C472.429291,2070.316406 469.925629,2072.479980 465.794189,2072.280762 
	C465.132965,2072.248779 464.322327,2072.129639 463.821350,2072.439697 
	C456.527466,2076.954102 449.342285,2075.826904 442.873047,2071.843262 
	C441.565735,2072.393799 440.809448,2072.499023 440.375610,2072.929443 
	C437.400024,2075.881104 434.773865,2080.915283 431.489136,2081.375000 
	C427.628540,2081.915039 422.818451,2079.105713 419.126343,2076.676025 
	C412.088013,2072.043945 406.577393,2065.885010 404.181458,2057.443115 
	C403.469513,2054.934570 402.778137,2052.319092 401.486389,2050.095947 
	C397.848267,2043.833862 396.487915,2035.217651 386.608551,2034.968872 
	C385.856476,2034.950073 385.116913,2033.721313 384.402679,2033.023071 
	C373.401306,2022.266846 360.375244,2018.901489 345.307129,2021.562256 
	C338.012085,2022.850464 331.432281,2019.752808 326.230499,2014.857178 
	C317.838745,2006.959595 311.949402,2005.530762 301.427643,2010.114380 
	C299.292206,2011.044556 297.314880,2012.691895 295.117065,2013.019897 
	C293.130310,2013.316528 290.427399,2012.900513 288.929443,2011.694458 
	C281.638092,2005.822876 281.743744,2005.691650 273.570709,2009.750244 
	C272.896606,2008.884155 271.578949,2007.972534 271.489563,2006.953369 
	C270.743683,1998.446899 264.556000,1993.632690 259.006622,1988.515503 
	C252.895645,1982.880371 246.773880,1983.014893 239.963181,1987.333618 
	C234.738205,1990.646973 229.133499,1993.543945 223.364105,1995.756226 
	C219.039322,1997.414673 214.156586,1996.269653 212.417007,1991.557983 
	C210.931503,1987.534546 208.337219,1985.597900 204.855316,1984.379395 
	C198.183014,1982.044312 197.470428,1976.007568 196.788239,1970.595703 
	C196.235321,1966.209595 199.551315,1963.423584 203.919754,1962.289917 
	C207.728851,1961.301270 211.498734,1960.161377 216.417053,1958.767822 
	C215.927383,1954.211914 216.502289,1949.573730 214.805389,1946.020264 
	C211.974075,1940.090820 212.912567,1934.975708 216.008102,1930.049561 
	C221.667953,1921.042725 221.502426,1911.921753 217.759811,1902.391357 
	C216.014297,1897.946411 214.192307,1893.780884 209.047592,1892.268921 
	C207.831924,1891.911743 206.330658,1891.208862 205.752914,1890.207764 
	C201.282166,1882.460571 196.691574,1874.749512 192.879135,1866.677246 
	C191.862244,1864.524170 193.254517,1861.126953 193.823990,1858.359131 
	C194.462723,1855.254761 195.784302,1852.258789 196.149460,1849.138428 
	C196.584137,1845.424194 195.010422,1842.694824 190.841339,1842.065308 
	C189.219284,1841.820435 187.534637,1841.407227 186.092224,1840.658691 
	C180.662827,1837.841309 179.126205,1832.280884 182.550369,1827.264648 
	C184.412384,1824.537109 186.829590,1822.188354 189.411774,1819.224487 
	C191.434418,1818.371338 193.159302,1818.211914 194.631882,1817.517456 
	C244.350708,1794.071045 293.496918,1769.635132 337.247681,1735.754883 
	C352.521881,1723.926880 368.151886,1712.514038 385.596771,1704.052002 
	C398.863312,1697.616821 405.101746,1685.411133 411.853882,1673.672119 
	C420.803314,1658.113037 428.964874,1642.102173 437.845215,1626.501831 
	C444.853088,1614.190674 454.604126,1604.453125 466.505737,1596.554321 
	C478.976746,1588.277344 490.819641,1579.056274 502.990540,1570.322388 
	C505.138184,1568.781250 507.391052,1567.051025 509.862274,1566.351318 
	C524.831604,1562.113403 539.417847,1557.275146 555.582092,1557.432129 
	C590.524658,1557.771851 625.493042,1556.689087 660.433777,1555.627808 
	C691.685791,1554.678589 722.914307,1552.960938 754.154602,1551.615112 
	C769.776306,1550.942139 785.404053,1550.402954 801.022827,1549.671143 
	C805.665222,1549.453613 810.286621,1548.786743 815.810791,1548.186523 
z"/>
<path data-name="Banka" style="fill: {#A15E43}" fill="#A15E43" opacity="1.000000" stroke="none" 
	d="
M1586.267334,1584.112915 
	C1543.101685,1583.833740 1500.470825,1582.434814 1457.843872,1582.548950 
	C1428.227051,1582.628296 1398.621948,1585.519897 1368.999756,1585.778076 
	C1346.740356,1585.972290 1324.464111,1583.923340 1302.191162,1582.971313 
	C1272.512451,1581.702271 1245.278931,1569.887695 1216.831909,1563.312256 
	C1213.005127,1562.427734 1210.700806,1560.212158 1208.959961,1556.522217 
	C1201.872070,1541.499512 1202.004517,1541.668091 1207.994263,1525.791382 
	C1212.038086,1515.072510 1217.391235,1505.280884 1224.548950,1496.361816 
	C1228.499146,1491.439453 1231.994263,1486.151978 1235.708008,1481.010376 
	C1230.576904,1468.051270 1221.213867,1458.531494 1212.010376,1448.958740 
	C1210.595703,1447.487305 1207.901245,1446.482788 1205.833862,1446.540161 
	C1198.555298,1446.741211 1191.080444,1446.583496 1184.060181,1448.206299 
	C1155.534668,1454.800537 1127.339355,1462.560669 1099.432861,1471.576904 
	C1077.640747,1478.617554 1055.129761,1483.445923 1032.897461,1489.096680 
	C1030.049683,1489.820312 1026.944092,1489.852173 1023.976868,1489.733276 
	C998.896240,1488.728394 974.187744,1492.690186 949.360046,1495.104004 
	C946.462585,1495.385742 943.251160,1495.504028 940.580811,1494.568726 
	C920.180054,1487.422485 899.410889,1481.043091 879.717896,1472.267334 
	C867.767456,1466.941772 857.528198,1457.776489 845.883667,1449.926025 
	C849.370239,1445.756958 853.053650,1441.302002 857.697815,1438.367676 
	C872.574158,1428.967896 885.129028,1417.597778 893.996521,1402.107178 
	C901.924316,1388.258423 910.509827,1374.768311 919.220825,1361.390625 
	C928.386047,1347.315674 940.603210,1335.927124 953.238708,1325.065430 
	C966.794861,1313.412354 975.636353,1298.878662 980.508606,1281.875610 
	C982.993286,1273.204712 981.201172,1265.141479 973.997986,1259.403931 
	C967.024292,1253.849121 959.768005,1248.445312 951.987488,1244.149658 
	C936.051147,1235.350952 921.391418,1225.525269 912.176575,1209.056641 
	C910.445312,1205.962646 906.479126,1203.763062 903.092346,1202.038086 
	C898.444519,1199.671143 893.365295,1198.151489 887.085632,1195.735840 
	C891.561401,1192.039307 894.902893,1189.518311 897.967224,1186.696411 
	C903.469482,1181.629272 903.876038,1179.794067 898.760986,1174.337891 
	C895.478455,1170.836304 895.135193,1167.607544 896.380432,1163.504883 
	C897.537476,1159.692627 898.695862,1155.863892 899.524414,1151.972290 
	C901.021606,1144.940918 905.630737,1140.424561 911.136536,1136.374756 
	C915.606140,1133.087036 919.787048,1129.406738 924.685425,1125.620361 
	C929.497986,1126.083740 933.789185,1127.712891 937.930603,1127.394165 
	C947.800293,1126.634888 956.808716,1123.828857 961.659851,1113.723877 
	C963.210876,1110.493164 966.284302,1108.025391 968.116211,1104.890259 
	C971.304321,1099.434082 974.737732,1095.026489 982.073486,1095.779785 
	C986.008362,1096.183716 987.860291,1092.991699 989.172791,1089.798828 
	C991.901978,1083.160400 996.869751,1080.098755 1003.958862,1080.098267 
	C1009.966492,1080.097778 1014.196594,1078.337646 1014.444580,1071.072998 
	C1014.510437,1069.145020 1017.232605,1066.270874 1019.285767,1065.649170 
	C1024.666748,1064.019287 1028.375244,1060.543823 1032.357056,1056.950073 
	C1034.948730,1054.610962 1038.576050,1053.264648 1041.932007,1051.974487 
	C1044.690918,1050.913818 1047.735840,1050.601807 1050.649780,1049.939087 
	C1063.701904,1046.970947 1074.780151,1041.310425 1082.536499,1029.597534 
	C1085.307007,1025.413574 1090.463501,1022.701904 1094.816406,1019.737183 
	C1096.185059,1018.804993 1098.776611,1018.529480 1100.308960,1019.162476 
	C1109.798218,1023.082336 1117.835083,1019.340271 1125.274414,1014.281555 
	C1134.610962,1007.932617 1143.676880,1001.137085 1152.447266,994.025757 
	C1156.396729,990.823425 1160.338379,989.438049 1165.227783,989.849304 
	C1167.876587,990.072083 1170.568604,989.802979 1173.213379,990.051392 
	C1181.568359,990.835938 1188.976074,988.754333 1195.608765,983.514587 
	C1199.514526,980.429138 1204.038086,978.084900 1207.742676,974.797546 
	C1211.112915,971.806824 1213.943970,968.134277 1216.645142,964.489807 
	C1218.407837,962.111450 1219.284668,959.090820 1220.956665,956.628418 
	C1226.241821,948.845215 1229.072754,948.718506 1237.028564,953.839233 
	C1241.717407,956.857178 1246.956909,959.451599 1252.310059,960.916443 
	C1263.895142,964.086487 1273.170288,971.103333 1282.546143,977.904297 
	C1291.799805,984.616455 1301.830811,989.477722 1313.378906,993.112305 
	C1310.929077,1002.942261 1316.362915,1009.685608 1323.155396,1015.896912 
	C1333.816650,1025.646118 1336.387085,1037.453613 1332.642700,1051.281372 
	C1330.447876,1059.386230 1327.432007,1066.645386 1322.528564,1073.698608 
	C1312.419556,1088.239990 1306.131958,1104.817017 1301.173950,1121.773926 
	C1297.267090,1135.135742 1293.859741,1148.646973 1290.403564,1162.136230 
	C1287.142456,1174.863159 1289.424316,1178.121338 1302.090820,1180.198730 
	C1309.571167,1181.425415 1317.086426,1182.531738 1322.852661,1188.456543 
	C1331.882202,1197.734253 1343.071167,1194.946655 1353.683960,1192.903198 
	C1362.456787,1191.213989 1371.314087,1189.028809 1379.529297,1185.610352 
	C1390.185791,1181.176147 1400.250488,1183.044312 1410.562622,1185.802856 
	C1423.681152,1189.311890 1436.792603,1192.847656 1449.901855,1196.390869 
	C1450.861694,1196.650269 1451.839844,1196.952515 1452.707886,1197.422485 
	C1459.816162,1201.270508 1466.952393,1205.071899 1473.968994,1209.081909 
	C1477.327637,1211.001465 1480.469238,1211.539795 1484.352173,1210.453979 
	C1490.814087,1208.646973 1496.789062,1209.059204 1503.031006,1213.132812 
	C1511.395386,1218.591675 1520.717041,1220.081177 1530.501343,1215.081299 
	C1536.141357,1212.199585 1542.245605,1213.269409 1547.623779,1216.819336 
	C1553.284302,1220.555542 1554.292358,1223.511353 1552.881714,1230.307129 
	C1551.549438,1236.724976 1550.426392,1243.186401 1549.178101,1249.805054 
	C1553.723511,1252.033447 1557.501465,1253.398804 1560.736694,1255.572266 
	C1567.584351,1260.172852 1574.620117,1264.668213 1580.739990,1270.144043 
	C1598.573364,1286.100220 1615.885742,1302.637207 1633.639404,1318.684448 
	C1639.251831,1323.757202 1645.611206,1328.003662 1651.975830,1333.208252 
	C1650.032227,1343.474121 1647.934448,1353.212280 1645.347656,1362.818604 
	C1644.419800,1366.264160 1642.861084,1369.831909 1640.650513,1372.590698 
	C1629.575806,1386.411255 1629.280518,1402.488770 1630.338379,1418.913086 
	C1630.870728,1427.179199 1631.893677,1435.429321 1632.060059,1443.699463 
	C1632.347900,1458.003418 1631.741943,1472.331177 1632.245483,1486.623169 
	C1632.849243,1503.762695 1625.756104,1519.001465 1621.350342,1534.910400 
	C1620.846313,1536.730103 1619.239502,1538.260132 1618.082642,1539.880615 
	C1607.664062,1554.472412 1597.231934,1569.054199 1586.267334,1584.112915 
z"/>
</svg>