<svg version="1.1" id="Layer_1" xmlns="http://www.w3.org/2000/svg" xmlns:xlink="http://www.w3.org/1999/xlink" x="0px" y="0px"
	 width="100%" viewBox="0 0 2098 3086" enable-background="new 0 0 2098 3086" xml:space="preserve">

<path data-name="Yaoundé III" style="fill: {#486082}" fill="#486082" opacity="1.000000" stroke="none" 
	d="
M300.000031,3088.000000 
	C296.571259,3088.000000 293.142487,3088.000000 289.041504,3087.291504 
	C283.542725,3083.752441 278.845795,3080.667236 273.868408,3078.132812 
	C244.248520,3063.050537 213.551819,3049.943848 187.838226,3028.015137 
	C176.505844,3018.350830 164.110931,3009.932129 151.818161,3000.661133 
	C156.359985,2983.848633 161.263702,2967.649170 164.959244,2951.178955 
	C166.764053,2943.135254 170.729721,2937.292480 176.650101,2932.142578 
	C184.426910,2925.377930 192.198288,2918.595703 199.724503,2911.556641 
	C214.891800,2897.371338 225.222473,2881.182129 221.952698,2858.978271 
	C221.285400,2854.447266 220.414185,2850.823730 217.043564,2847.597412 
	C209.343170,2840.225830 201.769394,2832.707275 194.464569,2824.946777 
	C192.346085,2822.696045 190.372070,2819.554199 189.962570,2816.595215 
	C188.828278,2808.399170 188.450424,2800.090332 187.965149,2791.814697 
	C187.343842,2781.219238 185.141663,2770.343506 186.707596,2760.058838 
	C192.783768,2720.151855 202.333923,2681.109619 222.449295,2645.536377 
	C227.945694,2635.815918 231.260452,2625.430176 233.388260,2614.671875 
	C234.928223,2606.885986 235.690186,2598.894287 236.137680,2590.957275 
	C236.679581,2581.346191 239.597122,2573.994873 249.340332,2569.946289 
	C255.410843,2567.423828 260.921143,2563.405273 266.403076,2559.649414 
	C274.503479,2554.099854 283.322388,2550.671631 292.918274,2548.715332 
	C307.168091,2545.810547 321.329376,2542.471680 335.513031,2539.320801 
	C335.825287,2537.206787 336.265869,2535.903809 336.165283,2534.644287 
	C335.187531,2522.405029 334.676361,2510.090332 332.877716,2497.968506 
	C331.709412,2490.094727 332.369965,2483.954346 338.743835,2478.360352 
	C345.477905,2472.449951 351.511505,2465.700928 357.524689,2459.024414 
	C361.168213,2454.979248 365.192322,2453.576904 370.647247,2453.642578 
	C394.634735,2453.931152 418.629517,2453.610352 442.617279,2453.887939 
	C447.985687,2453.949951 451.110535,2452.277100 453.684601,2447.544922 
	C460.677856,2434.688232 468.242706,2422.143799 475.372253,2409.359375 
	C476.783936,2406.827881 478.426147,2403.572021 477.971558,2401.002441 
	C476.129486,2390.590088 474.510132,2379.952637 470.929138,2370.080078 
	C466.294525,2357.303467 459.953766,2345.135986 454.154663,2332.796875 
	C452.482788,2329.239502 452.198730,2326.121338 453.723877,2322.351562 
	C457.712585,2312.492676 461.370148,2302.493652 464.929474,2292.468750 
	C466.808380,2287.177002 470.130798,2283.530029 474.918793,2280.602539 
	C530.277588,2246.753418 585.937134,2213.374268 640.727905,2178.626221 
	C678.577881,2154.622070 718.765076,2135.952637 761.209717,2120.071045 
	C770.570740,2116.542725 779.332764,2113.381348 787.833313,2109.627686 
	C809.108398,2100.232666 831.173462,2092.639893 850.856201,2079.691895 
	C880.800232,2059.993896 905.593933,2034.194458 933.088196,2011.608032 
	C934.234680,2010.666138 935.259888,2008.941162 935.379639,2007.500977 
	C935.781677,2002.666870 935.604492,1997.787354 935.915527,1992.942139 
	C936.331970,1986.454468 934.604187,1981.697632 928.138428,1981.474854 
	C926.756165,1976.655518 926.536438,1971.984985 924.272156,1968.742065 
	C917.992920,1959.748657 918.854614,1952.212524 926.917786,1945.116455 
	C927.310486,1944.770996 927.218567,1943.874878 926.895630,1945.420166 
	C922.185364,1934.224365 918.200684,1924.753174 914.311340,1915.508545 
	C918.755737,1907.317139 918.421326,1905.242310 912.503967,1898.862183 
	C908.324829,1894.356323 905.629211,1888.182129 898.511841,1887.100586 
	C897.823608,1886.995972 896.844238,1885.621094 896.822754,1884.813843 
	C896.632263,1877.664673 892.232361,1872.635010 888.479492,1867.191040 
	C887.532349,1865.816772 887.817566,1863.598755 887.517822,1861.771484 
	C886.782654,1857.289185 887.628723,1851.003418 884.988525,1848.674805 
	C877.821228,1842.353760 880.011047,1836.655151 883.415588,1830.116821 
	C885.075439,1826.928955 886.187134,1823.448730 887.923279,1820.308838 
	C891.882751,1813.148438 890.186829,1809.697998 881.885437,1809.851807 
	C877.590881,1809.931152 873.324585,1811.533081 868.400085,1812.584961 
	C868.966736,1809.425537 869.467896,1806.631592 870.145386,1802.854370 
	C860.475830,1796.987427 849.948792,1791.923950 843.424377,1781.929443 
	C842.466980,1780.462891 839.977295,1780.029297 838.252563,1779.021851 
	C836.535767,1778.019165 834.753113,1777.059814 833.235291,1775.797729 
	C825.899780,1769.698242 818.322205,1763.833984 811.496887,1757.200684 
	C808.139160,1753.937500 804.820923,1750.109375 806.062561,1744.076172 
	C807.369385,1737.725830 805.895386,1731.397461 801.345642,1726.370728 
	C798.085632,1722.768677 793.011536,1720.105957 791.270447,1715.963501 
	C786.046143,1703.533447 776.696045,1693.228516 774.811401,1678.885742 
	C773.439819,1668.448364 775.722229,1660.632690 783.864075,1655.540405 
	C795.543213,1648.235962 807.481201,1641.223633 822.764771,1646.418823 
	C833.395508,1650.032593 844.570740,1651.420532 856.096985,1648.343994 
	C860.025513,1647.295288 865.366394,1648.985718 869.286499,1650.962402 
	C878.869019,1655.794556 885.453369,1665.447388 896.476746,1668.269287 
	C897.798828,1668.607788 898.818237,1670.515991 899.771545,1671.844727 
	C905.751404,1680.179932 911.672791,1688.557129 917.929749,1697.365479 
	C919.207031,1695.400024 919.955505,1693.906982 921.012939,1692.680054 
	C925.696472,1687.245361 929.800293,1681.961792 925.975403,1673.972656 
	C924.898499,1671.723389 926.412292,1668.233887 926.716614,1665.503052 
	C929.963135,1664.481201 932.684021,1663.624878 933.251587,1663.446289 
	C936.297241,1658.110352 938.001099,1654.276367 940.460083,1651.010986 
	C944.406189,1645.770752 949.279419,1641.197021 952.950806,1635.791504 
	C955.860535,1631.507568 958.550415,1627.479126 963.972351,1626.525146 
	C970.382751,1625.397461 973.154480,1620.403442 975.912415,1615.458252 
	C977.031677,1613.451294 977.398438,1611.026367 978.506348,1609.010864 
	C984.246033,1598.568604 989.667480,1588.408569 986.858032,1575.449951 
	C985.940979,1571.220215 986.154663,1566.627808 984.589966,1562.212646 
	C983.875610,1560.196899 985.034424,1557.156738 986.123108,1554.968994 
	C987.119385,1552.967041 989.127625,1551.450439 990.755371,1549.783813 
	C1002.921936,1537.326416 1002.813538,1520.657715 993.972351,1509.073242 
	C987.723022,1500.884888 981.736938,1493.362793 971.299255,1489.208618 
	C952.153076,1481.588745 948.613342,1466.843262 959.495911,1449.044067 
	C962.223083,1444.583740 966.599792,1441.165894 969.785889,1436.942505 
	C972.747681,1433.016479 975.132568,1428.655273 978.005127,1424.116577 
	C971.915894,1416.529297 958.803589,1421.168823 953.654114,1410.983398 
	C963.857422,1394.804565 973.234924,1378.293579 990.832703,1368.730225 
	C998.059448,1364.802979 1003.046387,1358.253540 1006.225830,1350.840820 
	C1011.868774,1337.684448 1016.836060,1324.348633 1016.293274,1309.507202 
	C1015.544128,1289.023560 1037.309937,1266.477905 1062.736572,1273.353516 
	C1074.906860,1276.644531 1086.855225,1280.903687 1099.161987,1283.504028 
	C1114.385620,1286.720825 1129.877075,1288.670044 1145.341675,1291.181396 
	C1152.392700,1285.572998 1152.556396,1278.767944 1148.629272,1271.630737 
	C1145.893677,1266.658691 1145.116333,1261.594849 1146.293701,1256.238281 
	C1148.357788,1246.847046 1150.546753,1237.479736 1152.895264,1228.155762 
	C1155.246460,1218.821533 1159.785400,1215.558960 1169.408691,1215.886719 
	C1171.072632,1215.943359 1172.824829,1215.819214 1174.379517,1216.293091 
	C1189.029907,1220.758057 1202.634399,1217.274902 1216.619873,1211.253418 
	C1231.082031,1219.106812 1245.282715,1226.170166 1253.523071,1240.659790 
	C1253.965088,1241.437012 1255.047852,1241.849731 1256.473022,1242.901367 
	C1262.702759,1244.157227 1268.284302,1245.497681 1273.883057,1245.573975 
	C1279.460815,1245.650146 1282.890381,1248.363770 1286.701416,1251.907715 
	C1304.009277,1268.002686 1321.599243,1283.795776 1339.192749,1299.580200 
	C1340.833008,1301.051636 1343.211548,1301.700317 1345.504272,1303.360107 
	C1348.464233,1307.228638 1352.893677,1310.180054 1353.492920,1313.770630 
	C1354.573608,1320.247437 1353.398438,1327.108154 1353.097412,1333.805542 
	C1352.878540,1338.674561 1352.550293,1343.538696 1352.155396,1349.236572 
	C1352.764771,1360.995239 1353.323853,1371.936646 1354.257690,1382.845947 
	C1355.338867,1395.477051 1349.184937,1405.258179 1342.061890,1414.615723 
	C1340.543457,1416.610474 1338.063110,1418.438965 1335.677856,1419.114136 
	C1322.584229,1422.820312 1311.914551,1430.978516 1300.986938,1438.347046 
	C1292.721558,1443.920654 1286.818970,1452.783081 1292.401733,1464.066040 
	C1294.682495,1468.675537 1294.276245,1473.178589 1291.952637,1477.439087 
	C1287.061523,1486.407471 1281.919312,1495.239136 1276.860352,1504.115723 
	C1276.041626,1505.552246 1274.665649,1506.826538 1274.317139,1508.351685 
	C1270.513672,1524.999268 1259.087524,1538.450195 1255.154175,1555.163208 
	C1252.637451,1565.856079 1250.314087,1576.230347 1253.974731,1586.893188 
	C1256.015747,1592.838501 1260.013794,1598.350708 1260.930420,1604.391846 
	C1262.645020,1615.694458 1271.624268,1622.084106 1275.776489,1631.234131 
	C1282.725342,1627.703369 1288.946777,1624.782104 1294.917969,1621.416870 
	C1298.423218,1619.441406 1301.763306,1619.941162 1304.001343,1622.397095 
	C1305.340820,1623.867065 1304.881714,1627.101196 1304.976440,1629.552124 
	C1305.137695,1633.730103 1304.156982,1638.210327 1305.352417,1642.033081 
	C1307.424805,1648.660767 1306.723877,1652.716553 1300.429688,1655.253540 
	C1295.947388,1657.060059 1291.055786,1657.851440 1285.913208,1659.210571 
	C1285.913208,1661.369385 1286.141235,1663.361572 1285.877563,1665.286377 
	C1283.386475,1683.475220 1275.331909,1688.602783 1262.074585,1680.763794 
	C1254.849854,1676.491943 1247.853882,1679.156982 1241.304565,1682.521240 
	C1237.186890,1684.636597 1236.475708,1690.234619 1239.578857,1693.529785 
	C1248.132690,1702.613281 1251.437744,1714.475586 1256.444092,1725.575928 
	C1256.138794,1725.875488 1255.539551,1726.485840 1254.768921,1726.433838 
	C1247.266724,1725.110107 1243.558472,1730.520630 1239.121826,1732.424438 
	C1240.030640,1736.224243 1242.195312,1739.994385 1241.118164,1742.128052 
	C1239.819580,1744.700562 1235.769409,1745.883789 1231.974487,1748.252686 
	C1232.668457,1750.371460 1233.202026,1753.237793 1234.489258,1755.712280 
	C1239.513062,1765.369019 1244.844727,1774.865601 1249.864380,1784.524414 
	C1250.515747,1785.777588 1250.586060,1787.922974 1249.952271,1789.154175 
	C1246.737549,1795.399170 1249.445801,1800.407593 1252.959229,1805.474121 
	C1250.562866,1807.187744 1247.451416,1808.416504 1246.092529,1810.692017 
	C1244.953003,1812.600220 1245.858276,1815.729614 1245.858276,1818.960205 
	C1242.466797,1821.581421 1238.924194,1826.218872 1234.525146,1827.269043 
	C1228.130737,1828.795532 1228.152100,1832.327393 1227.632690,1837.272705 
	C1226.775269,1845.434204 1224.976929,1853.496826 1223.556641,1861.707886 
	C1214.304688,1861.999634 1210.717773,1866.025879 1209.720337,1874.681763 
	C1208.999023,1880.940308 1205.815308,1887.722534 1201.715698,1892.567017 
	C1197.219727,1897.880005 1197.723145,1902.704712 1199.140625,1908.190186 
	C1199.879883,1911.050781 1201.707520,1913.646118 1202.335449,1916.516357 
	C1203.943359,1923.866089 1209.429199,1927.955811 1215.687378,1928.954712 
	C1224.171509,1930.308716 1226.549072,1935.480225 1227.880493,1942.406494 
	C1229.005249,1948.257446 1230.079346,1954.118164 1231.125244,1959.703735 
	C1226.911987,1965.450073 1222.673828,1970.918579 1218.832275,1976.652832 
	C1217.628906,1978.449341 1217.059326,1980.939087 1216.945679,1983.149902 
	C1216.483276,1992.146118 1213.185547,1996.769897 1204.711548,1999.379150 
	C1204.109131,2002.814819 1203.443604,2006.362305 1202.907959,2009.929199 
	C1202.826538,2010.472046 1203.354492,2011.102783 1203.589722,2011.697021 
	C1207.130371,2020.641113 1206.261597,2023.846069 1199.070190,2029.865479 
	C1195.334106,2032.992554 1190.883789,2035.618286 1192.243164,2041.977539 
	C1192.971436,2045.384399 1190.405884,2047.504883 1187.092407,2048.169434 
	C1183.524902,2048.885010 1179.935059,2049.685303 1176.319946,2049.929932 
	C1166.824829,2050.572266 1162.520996,2055.657227 1164.414185,2064.804688 
	C1164.864014,2066.977539 1166.355591,2068.934814 1167.390747,2071.037109 
	C1164.042603,2078.031250 1164.042603,2078.031250 1165.628296,2086.869141 
	C1166.612061,2092.351074 1165.216064,2094.484131 1160.188965,2096.978271 
	C1156.417480,2098.849365 1152.661133,2101.019775 1149.487793,2103.743896 
	C1146.890381,2105.973633 1144.716919,2107.687744 1140.973877,2107.945557 
	C1128.418091,2108.810059 1117.927612,2115.254395 1107.444580,2121.479004 
	C1106.397583,2122.100830 1105.290527,2123.370850 1105.066406,2124.508545 
	C1103.577515,2132.064453 1097.118774,2135.157227 1091.498291,2137.721924 
	C1085.014771,2140.680176 1083.477661,2144.837646 1083.842529,2151.048828 
	C1084.086792,2155.208252 1083.888916,2159.393799 1083.888916,2163.669922 
	C1071.934448,2164.507324 1062.267822,2168.010742 1053.597046,2173.910400 
	C1050.769409,2175.834473 1049.153687,2180.285156 1046.242310,2181.187256 
	C1039.976929,2183.128662 1037.415039,2187.785400 1034.697388,2192.777100 
	C1031.491821,2198.665527 1027.366699,2203.071777 1019.752563,2202.070557 
	C1018.261353,2201.874756 1016.641418,2202.657959 1015.856995,2202.824463 
	C1013.944092,2213.988281 1012.139343,2224.349365 1010.421143,2234.724854 
	C1010.151611,2236.353271 1010.013306,2238.086670 1010.262085,2239.702637 
	C1011.208557,2245.849854 1008.272705,2250.286865 1003.407715,2252.984131 
	C998.492065,2255.709717 997.609131,2259.357910 997.634583,2264.482666 
	C997.677551,2273.103516 994.403564,2276.418457 985.969238,2277.777344 
	C984.657043,2277.988770 983.315002,2278.007324 981.991699,2278.158447 
	C974.622314,2279.000977 974.250977,2279.369141 973.852539,2286.541260 
	C973.762146,2288.168213 973.839233,2289.804688 973.839233,2291.170410 
	C972.712402,2292.137695 972.047424,2292.953125 971.190735,2293.406006 
	C961.847473,2298.346680 954.111877,2304.393066 954.655945,2316.442627 
	C954.699646,2317.409668 954.383972,2318.433105 954.043640,2319.359863 
	C953.880310,2319.804688 953.269226,2320.084717 953.115540,2320.218262 
	C950.716858,2318.688721 948.447266,2317.241455 946.145813,2315.773926 
	C943.119751,2320.572754 942.349670,2323.716309 944.619568,2328.548340 
	C948.651062,2337.130371 954.616211,2345.018066 955.461914,2355.036865 
	C955.853516,2359.676514 958.915100,2362.850098 963.574951,2364.131348 
	C967.687866,2365.261963 971.872131,2366.174316 975.908752,2367.529297 
	C979.581543,2368.761963 983.458923,2369.929932 986.603333,2372.070801 
	C992.021790,2375.759277 996.941162,2380.181152 1002.458740,2384.912598 
	C1008.878296,2389.213623 1014.675476,2389.792236 1020.658691,2384.035156 
	C1022.196045,2383.940430 1023.085938,2384.049316 1024.562134,2384.713379 
	C1029.693359,2385.466797 1034.238159,2385.665039 1039.572266,2385.715820 
	C1045.606812,2385.568115 1050.851929,2385.568115 1057.076050,2385.568115 
	C1059.029907,2393.141846 1066.229736,2397.199463 1071.053345,2403.036133 
	C1077.989990,2411.429443 1081.918701,2422.550049 1086.040527,2432.939453 
	C1088.594727,2439.377441 1086.924194,2447.052246 1091.258301,2453.400879 
	C1092.507202,2455.230225 1091.788696,2458.607422 1091.512695,2461.226562 
	C1091.062256,2465.500488 1090.234497,2469.734619 1089.560913,2474.017578 
	C1079.556030,2480.580566 1079.255493,2482.744629 1087.046265,2492.365723 
	C1087.881104,2493.396484 1089.198853,2494.334961 1089.427124,2495.487793 
	C1089.774170,2497.240479 1089.363525,2499.143311 1089.244263,2501.611328 
	C1084.846069,2500.285400 1081.204102,2499.187500 1077.154907,2497.966797 
	C1076.136475,2502.203857 1076.018799,2506.112305 1074.306030,2509.108887 
	C1070.712402,2515.395752 1072.804443,2520.629639 1075.994629,2525.946045 
	C1077.187378,2527.933838 1078.739014,2529.711426 1079.877930,2531.725830 
	C1085.258911,2541.241943 1085.219727,2541.244873 1094.225708,2535.910400 
	C1094.681885,2535.640137 1095.495605,2535.972900 1095.789429,2535.996338 
	C1098.906860,2539.264648 1101.466064,2544.392822 1104.847412,2545.008789 
	C1113.164062,2546.524414 1117.794189,2554.314941 1126.400024,2555.449951 
	C1128.762695,2554.544434 1131.717896,2553.411865 1134.364502,2552.397461 
	C1139.140015,2559.219971 1137.969116,2565.351807 1133.537354,2571.555908 
	C1117.063477,2566.609619 1100.926147,2565.473389 1084.567993,2566.050293 
	C1080.918823,2566.178955 1077.142090,2566.341309 1073.612549,2565.595703 
	C1054.385620,2561.534912 1037.001587,2566.259277 1019.837585,2574.925537 
	C1012.524658,2578.617920 1007.790100,2583.627441 1006.166992,2590.879395 
	C1003.965820,2600.714355 998.059021,2608.237793 992.583313,2616.032715 
	C989.366943,2620.611084 983.985046,2623.781982 981.217712,2628.540039 
	C974.394348,2640.271484 963.852539,2647.424316 952.958740,2654.578857 
	C949.255920,2657.010742 946.695190,2661.159180 943.538269,2664.452148 
	C941.091980,2667.003906 938.793030,2669.806396 935.966492,2671.862061 
	C929.543640,2676.532471 922.849060,2680.831055 916.238831,2685.241699 
	C912.862610,2687.494629 911.541626,2690.601807 911.737732,2694.617188 
	C912.141907,2702.889648 908.526184,2709.595459 902.315430,2714.519775 
	C895.330322,2720.058105 887.539734,2724.572021 880.461792,2730.003418 
	C870.727722,2737.473633 861.264221,2745.303223 851.826355,2753.148926 
	C847.775818,2756.516357 844.130798,2760.367188 840.209778,2763.896240 
	C836.756775,2767.004395 833.106201,2769.893555 829.665710,2773.014893 
	C821.798645,2780.151855 814.077515,2787.451660 806.132874,2794.500244 
	C804.221252,2796.196533 801.724731,2798.195312 799.405762,2798.317627 
	C782.058411,2799.230225 764.672913,2803.248535 747.333069,2798.202148 
	C743.829407,2797.182617 740.239380,2796.454102 736.750061,2795.391846 
	C720.939758,2790.578125 705.982178,2796.329346 697.662048,2810.563232 
	C694.978638,2815.154053 691.990967,2819.642578 689.961243,2824.518555 
	C688.078674,2829.041260 684.866882,2830.925049 680.550781,2832.285400 
	C662.486389,2837.980469 644.596313,2844.257568 626.416321,2849.543945 
	C617.290039,2852.197754 610.033691,2856.006104 605.992249,2865.149414 
	C604.226379,2869.144531 599.065002,2871.678223 601.273193,2877.322021 
	C601.503479,2877.910645 600.562195,2879.036133 600.038818,2879.829590 
	C590.751709,2893.909180 581.364807,2907.923828 572.202148,2922.083740 
	C570.047974,2925.413086 566.926575,2929.370605 567.220886,2932.782959 
	C567.957092,2941.317627 562.920532,2945.592285 557.150391,2949.393799 
	C551.177490,2953.328369 548.100830,2958.948486 545.892639,2965.314941 
	C542.172058,2976.041992 542.321045,2987.412354 544.823486,2997.878906 
	C550.217041,3020.437988 538.789185,3038.284180 531.704346,3058.183594 
	C522.876465,3055.109619 515.120361,3052.222168 507.244019,3049.712158 
	C496.876709,3046.408447 487.043335,3041.725342 475.624847,3041.526855 
	C461.714111,3041.284912 448.480530,3042.422363 436.218048,3049.596680 
	C433.374420,3051.260498 429.980835,3051.969727 427.088409,3053.567139 
	C421.310150,3056.758789 416.006409,3056.516602 410.124847,3053.365479 
	C398.099823,3046.922119 385.441315,3041.611572 373.672150,3034.755615 
	C364.097321,3029.178467 355.733490,3027.359375 346.658203,3035.339600 
	C343.498596,3038.118164 338.915771,3039.208496 335.346893,3041.610596 
	C331.826233,3043.979980 328.213654,3046.593262 325.607056,3049.868164 
	C317.739746,3059.752441 310.226868,3069.927734 302.853882,3080.189697 
	C301.296265,3082.357422 300.920441,3085.374268 300.000031,3088.000000 
z"/>
<path data-name="Yaoundé I" style="fill: {#F27E61}" fill="#F27E61" opacity="1.000000" stroke="none" 
	d="
M845.943726,266.960907 
	C843.036011,260.614288 840.535645,254.035919 837.096863,247.991409 
	C834.130859,242.777832 834.185059,238.089264 836.678833,232.933762 
	C847.529175,210.501602 858.240845,188.002151 869.146851,165.597214 
	C872.924805,157.835968 877.119629,150.277603 881.734863,141.459503 
	C889.179016,142.013794 897.093872,142.177887 904.865295,143.318802 
	C910.885681,144.202621 916.036011,143.381271 920.666931,139.464844 
	C920.920593,139.250305 921.194214,139.054474 921.477295,138.880386 
	C937.296265,129.153229 950.408325,117.066956 958.414246,99.756416 
	C963.755737,88.207024 975.148193,81.952011 984.139404,73.647552 
	C985.441284,72.445099 987.727722,71.876869 989.595764,71.786736 
	C1006.183838,70.986343 1022.785217,70.462067 1039.372925,69.655594 
	C1059.200195,68.691620 1079.017822,67.530159 1099.556641,66.415314 
	C1099.556641,57.184448 1099.556641,48.937481 1099.556641,40.664680 
	C1109.587769,36.997993 1118.886353,33.735874 1129.139893,34.262291 
	C1135.786499,34.603531 1142.465820,34.257557 1149.128906,34.342674 
	C1159.106079,34.470119 1168.960205,34.897449 1178.016357,29.003675 
	C1181.114746,26.987207 1185.674561,27.278038 1189.519287,26.324266 
	C1192.012817,25.705715 1194.958496,25.363386 1196.756958,23.806293 
	C1200.691650,20.399830 1205.087402,20.359493 1209.789917,20.230265 
	C1212.963745,20.143045 1216.984497,20.157387 1219.115234,18.347338 
	C1226.823853,11.798964 1236.179077,9.754418 1245.389160,7.015994 
	C1248.113403,6.206001 1250.588135,4.556357 1252.588623,2.645746 
	C1260.713745,2.000000 1269.427612,2.000000 1278.555664,2.725303 
	C1279.762817,4.032068 1280.489746,4.987828 1281.358154,5.140745 
	C1310.101074,10.202308 1338.826294,15.376750 1367.625122,20.101637 
	C1381.657104,22.403791 1395.774292,23.586769 1408.732422,30.536842 
	C1423.597168,38.509403 1439.795166,43.916519 1451.964233,56.633671 
	C1462.969971,68.135086 1475.032471,78.618752 1486.356567,89.826401 
	C1489.237549,92.677620 1492.223999,93.446838 1496.014771,93.907204 
	C1515.367432,96.257538 1534.414062,100.995445 1554.139160,100.497406 
	C1560.810913,100.328949 1566.147949,103.557236 1571.416748,108.418335 
	C1582.080444,118.257309 1586.590698,130.620682 1589.775024,143.987549 
	C1592.139038,153.911331 1594.578613,163.817139 1596.734375,172.699783 
	C1612.299927,176.462036 1626.067383,180.096329 1639.988159,182.993683 
	C1645.097046,184.057022 1650.653442,184.024796 1655.856934,183.348038 
	C1665.025146,182.155563 1674.022827,179.624557 1683.195435,178.497589 
	C1694.461670,177.113388 1703.350830,172.006332 1709.965576,163.091751 
	C1714.716919,156.688766 1719.784546,150.237381 1723.007324,143.044235 
	C1729.091553,129.465088 1739.321289,120.618942 1752.119751,114.229019 
	C1758.518188,111.034500 1763.911743,106.622009 1768.154175,101.125793 
	C1775.296753,91.872246 1784.244263,86.002167 1795.210205,81.857109 
	C1803.945068,78.555489 1810.972534,77.933250 1817.514404,85.407394 
	C1817.556519,85.568153 1817.755981,85.903252 1817.698853,86.186737 
	C1817.439575,87.474739 1817.193848,88.776138 1816.788696,90.022484 
	C1813.481201,100.193367 1810.620239,110.379295 1814.244751,121.130814 
	C1815.435913,124.664001 1814.310913,127.509651 1811.529907,129.995651 
	C1808.555298,132.654617 1805.568359,135.386673 1803.094238,138.491180 
	C1801.104492,140.987610 1799.046387,143.923752 1798.447998,146.947632 
	C1796.067139,158.978790 1793.945801,171.082611 1792.402344,183.245041 
	C1791.943848,186.857376 1792.645874,191.459625 1794.626953,194.379532 
	C1800.385010,202.865845 1807.153320,210.659897 1813.329102,218.873032 
	C1815.662598,221.976517 1818.240723,225.249359 1819.324341,228.860046 
	C1821.142700,234.919250 1824.167114,239.572952 1829.458984,243.069672 
	C1836.915771,247.996750 1842.727051,254.559174 1843.311646,263.790985 
	C1843.902954,273.127838 1849.836304,276.019409 1857.385986,277.616241 
	C1859.960693,278.160828 1862.659912,278.266907 1865.305542,278.298553 
	C1872.631592,278.386261 1880.008789,278.867981 1887.274780,278.201172 
	C1897.771118,277.237854 1906.578369,280.751038 1915.568237,285.662750 
	C1931.305054,294.260742 1947.341431,302.389709 1963.685547,309.753296 
	C1969.199829,312.237671 1972.950317,314.901520 1975.637573,320.361176 
	C1979.357788,327.919464 1985.079102,333.651306 1994.786865,334.637390 
	C1992.778198,337.308075 1990.644531,339.733948 1987.964233,341.022614 
	C1977.439453,346.082886 1977.356079,346.061584 1984.358887,355.645355 
	C1984.666260,356.065857 1984.465332,356.857666 1984.500977,357.474548 
	C1979.976440,360.889496 1975.434937,364.317261 1970.459961,368.072235 
	C1973.600952,371.567017 1975.684570,373.885315 1977.851196,376.296082 
	C1973.887695,382.157501 1967.575439,378.807251 1964.478882,380.368011 
	C1954.749023,392.210083 1945.952393,402.916229 1936.050903,414.967072 
	C1936.139404,416.105835 1936.550415,419.351959 1936.613159,422.604797 
	C1936.770874,430.785706 1930.054443,434.763153 1924.895264,440.081451 
	C1920.448853,441.287537 1916.708374,442.428925 1913.093262,443.882446 
	C1910.346680,444.986725 1907.874023,446.839691 1905.080566,447.747620 
	C1896.212769,450.629669 1887.880737,454.092316 1880.461060,460.201172 
	C1875.195435,464.536591 1868.436646,467.091797 1862.255981,470.269897 
	C1858.595703,472.152008 1855.053101,472.041626 1850.810181,470.883575 
	C1846.639526,469.745270 1841.355591,470.114685 1837.289307,471.696716 
	C1828.629150,475.066071 1820.161377,475.942383 1811.059082,474.262909 
	C1804.611694,473.073334 1797.957031,473.034821 1791.408447,472.352570 
	C1788.773804,472.078064 1786.168335,471.492462 1783.561890,470.985504 
	C1778.022095,469.907898 1772.330078,469.287354 1766.992920,467.570435 
	C1758.972046,464.990295 1753.061768,467.509918 1749.166992,474.308228 
	C1746.125854,479.616516 1741.844360,481.051575 1736.604614,479.793915 
	C1731.223633,478.502319 1725.040405,477.585297 1721.005737,474.298004 
	C1713.630493,468.288818 1707.022217,461.091278 1701.127319,453.578552 
	C1694.726196,445.420593 1692.172241,444.253235 1683.167236,449.465546 
	C1681.162964,450.625610 1679.291016,452.049805 1677.482910,453.507172 
	C1667.701538,461.391022 1656.409546,462.819397 1644.475464,461.108185 
	C1639.881348,460.449432 1635.405029,458.990723 1630.816895,458.263428 
	C1620.030640,456.553650 1611.540161,461.166748 1608.076782,471.487701 
	C1605.450928,479.312531 1603.625366,487.471375 1602.179077,495.612274 
	C1599.531372,510.517517 1595.895020,524.751953 1585.276123,536.458557 
	C1579.957275,542.322266 1574.879883,548.797180 1571.436890,555.847107 
	C1568.653198,561.547424 1569.525269,568.905396 1562.938843,573.016846 
	C1561.903687,573.663025 1562.209717,576.780273 1562.232910,578.750916 
	C1562.585571,608.666321 1562.103760,638.623535 1570.796997,667.795837 
	C1573.591187,677.172119 1573.609863,687.251770 1569.464722,696.217773 
	C1564.187744,707.632141 1557.738647,718.522400 1551.484985,729.461487 
	C1546.992554,737.319641 1543.355225,745.309143 1541.623901,754.344238 
	C1539.750977,764.118347 1541.208496,773.591736 1543.415039,782.803650 
	C1545.973755,793.485291 1545.550049,803.934875 1543.409302,814.319336 
	C1539.114990,835.150574 1534.333252,855.884766 1529.509766,876.602478 
	C1525.144775,895.350891 1516.626831,911.969788 1504.415527,926.994568 
	C1495.819214,937.571472 1488.645630,949.012024 1487.340820,963.509766 
	C1486.184937,976.354065 1484.351196,989.362122 1480.747314,1001.693115 
	C1477.651489,1012.285645 1479.703857,1022.557007 1479.603882,1032.868286 
	C1479.505005,1043.043335 1482.835571,1053.206177 1483.474854,1063.448486 
	C1483.964355,1071.287720 1483.916504,1079.614990 1481.796875,1087.068115 
	C1477.304077,1102.866577 1467.737793,1115.984009 1453.780029,1124.587646 
	C1441.018188,1132.454102 1433.970459,1143.860107 1428.513062,1156.958740 
	C1424.930908,1165.556641 1421.598755,1174.273071 1417.654175,1182.702026 
	C1411.974243,1194.838989 1407.441406,1206.932739 1407.629272,1220.847656 
	C1407.737549,1228.871460 1406.183105,1238.003296 1402.160767,1244.706665 
	C1397.708252,1252.126709 1393.430664,1259.452026 1390.348145,1267.501465 
	C1388.456665,1272.441162 1386.066284,1276.149292 1379.743530,1276.214600 
	C1377.208374,1276.240845 1374.485107,1278.715332 1372.219727,1280.538330 
	C1363.149536,1287.837158 1354.225342,1295.317627 1345.247192,1302.730957 
	C1343.211548,1301.700317 1340.833008,1301.051636 1339.192749,1299.580200 
	C1321.599243,1283.795776 1304.009277,1268.002686 1286.701416,1251.907715 
	C1282.890381,1248.363770 1279.460815,1245.650146 1273.883057,1245.573975 
	C1268.284302,1245.497681 1262.702759,1244.157227 1256.745361,1242.166992 
	C1258.850952,1232.347412 1261.261719,1223.712769 1263.837891,1215.127686 
	C1264.589233,1212.623657 1265.179565,1209.593628 1266.921997,1207.943115 
	C1277.156982,1198.248291 1275.359375,1187.004395 1271.444946,1175.568848 
	C1268.860718,1168.018921 1265.409302,1160.766113 1262.824097,1153.216553 
	C1261.709595,1149.962158 1261.103882,1146.216431 1261.478638,1142.828003 
	C1262.638672,1132.339722 1263.375366,1121.630493 1266.234619,1111.562988 
	C1268.295044,1104.308228 1266.873901,1098.833740 1263.776855,1092.736450 
	C1260.326416,1085.943359 1255.780273,1079.068481 1254.817749,1071.817017 
	C1253.700806,1063.402100 1250.962036,1055.827393 1248.495239,1047.940186 
	C1245.730225,1039.098633 1240.032471,1034.282593 1231.541870,1031.279785 
	C1214.284058,1025.176270 1197.170776,1018.675720 1182.371460,1007.359314 
	C1178.716309,1004.564209 1174.445190,1002.394104 1170.174072,1000.617188 
	C1154.295654,994.011475 1137.700073,990.940796 1120.518799,992.330566 
	C1108.509521,993.301941 1099.794800,987.123474 1092.914062,978.978943 
	C1076.239258,959.241516 1080.033691,928.926819 1093.531860,913.533997 
	C1110.727539,893.924438 1129.403931,876.002563 1149.152710,859.083496 
	C1152.321045,856.369202 1155.216187,853.335815 1158.709351,849.999329 
	C1150.589844,844.073425 1151.293335,836.593811 1152.753906,829.407715 
	C1154.674927,819.955017 1152.337158,811.891846 1147.488892,803.824097 
	C1141.500610,793.859070 1134.193481,783.995544 1131.216064,773.064148 
	C1125.910645,753.585571 1123.493774,733.325500 1119.689331,713.426575 
	C1119.154297,710.629028 1118.232300,707.471497 1116.421997,705.424927 
	C1107.322266,695.137878 1102.760986,682.782471 1099.090820,669.893616 
	C1096.904785,662.216614 1094.739624,654.495117 1091.868896,647.062500 
	C1089.041870,639.742676 1089.414551,632.975708 1092.309814,625.803467 
	C1096.168823,616.243652 1099.009888,606.261230 1103.093628,596.808167 
	C1105.511230,591.212219 1104.558350,586.949036 1101.782349,581.943359 
	C1086.440552,554.279419 1071.219727,526.545166 1056.327026,498.637726 
	C1052.612793,491.677460 1047.898438,486.057770 1041.706055,481.296356 
	C1021.114502,465.463287 1000.758118,449.323242 980.098999,433.579803 
	C975.663025,430.199341 972.617615,426.272003 970.435547,421.255341 
	C961.804932,401.413605 952.829956,381.719757 944.378052,361.803314 
	C941.962219,356.110535 938.666260,351.464966 934.246033,347.253143 
	C913.987915,327.949982 893.835571,308.535156 873.736816,289.065826 
	C870.403809,285.837219 866.896790,282.510651 864.572998,278.577728 
	C860.260986,271.279785 854.076660,267.747711 845.943726,266.960907 
z"/>
<path data-name="Yaoundé VII" style="fill: {#41B541}" fill="#41B541" opacity="1.000000" stroke="none" 
	d="
M2.000007,1132.932251 
	C3.439600,1131.534668 5.544125,1131.525269 6.221673,1130.537231 
	C23.786564,1104.923950 47.646351,1085.606934 71.374207,1066.373535 
	C89.301254,1051.842163 105.048637,1035.298706 120.702179,1018.545288 
	C124.335228,1014.656860 127.907669,1010.702515 131.703094,1006.977173 
	C138.201904,1000.598572 145.612045,1000.329712 152.839188,1006.014954 
	C155.973755,1008.480713 159.239594,1010.811829 162.152405,1013.519775 
	C166.431107,1017.497498 171.104767,1018.930908 176.899811,1016.859375 
	C182.408813,1006.469971 184.115387,994.922302 185.418106,983.479553 
	C186.647888,972.677429 193.443802,965.843506 201.113037,960.242249 
	C205.243698,957.225281 211.755981,957.403076 217.228912,956.316956 
	C220.130478,955.741211 223.354019,956.149597 226.005600,955.067932 
	C235.219315,951.309448 244.202072,947.424683 254.580063,947.533997 
	C257.464294,947.564392 260.917969,944.266479 263.192291,941.686157 
	C269.340607,934.710876 275.064362,927.354797 280.817657,920.040588 
	C283.888458,916.136597 287.377808,913.872253 292.672577,914.188049 
	C307.051636,915.045654 319.931519,909.190735 333.056580,904.568542 
	C338.492218,902.654297 342.617676,899.197693 346.332855,894.657898 
	C356.847748,881.809143 367.613098,869.143860 378.800964,856.881836 
	C381.715942,853.686890 386.360046,851.805664 390.524689,850.081238 
	C395.826294,847.886230 400.842163,846.498779 405.813141,842.383301 
	C411.686371,837.520874 421.251343,837.378418 429.644745,838.809448 
	C439.077576,840.417664 448.499146,842.091736 458.924225,843.911499 
	C459.270477,840.444397 459.268372,837.563293 459.886078,834.821716 
	C461.773102,826.446655 463.577209,818.024963 466.132690,809.846069 
	C466.871826,807.480530 469.704834,804.986938 472.146149,804.077454 
	C480.502686,800.964478 489.005188,798.102966 497.651093,795.942139 
	C508.900879,793.130432 520.382751,791.533569 530.175598,784.289856 
	C533.021606,782.184631 537.680664,781.838074 541.493896,781.885010 
	C548.289795,781.968628 554.565552,780.843689 560.810425,778.065674 
	C570.218872,773.880554 579.762878,769.913452 589.498779,766.583557 
	C595.555847,764.511841 599.633179,761.046326 602.923706,755.658508 
	C613.777649,737.886719 630.351501,728.267883 650.276733,724.083984 
	C653.679810,723.369446 657.569458,724.107788 661.071899,724.896362 
	C670.778015,727.081665 680.398438,729.647888 691.151489,732.731445 
	C696.078308,736.507385 699.906433,739.615356 704.112610,743.030396 
	C700.505798,750.768921 703.186523,756.966370 707.486450,763.534973 
	C712.753723,771.581665 717.493225,780.536255 715.473328,790.620361 
	C714.304688,796.454834 715.444153,800.859375 718.609192,805.481873 
	C720.852783,808.758301 722.630432,812.406860 724.228821,816.058838 
	C726.331604,820.863098 728.566284,825.706421 729.822815,830.761963 
	C731.819580,838.795288 732.759521,847.088562 734.686218,855.142761 
	C737.072632,865.119202 740.195190,874.705688 738.597839,885.444519 
	C737.322571,894.018127 740.074219,902.630249 744.171509,910.423035 
	C749.028503,919.660706 761.326294,924.027893 771.392639,920.967285 
	C776.872925,919.300964 782.678162,918.703308 789.128357,917.472656 
	C789.380676,929.108093 796.120850,936.487000 800.287598,945.037720 
	C802.186646,948.934937 804.990540,951.095886 809.291626,952.046265 
	C821.419250,954.725891 831.745911,960.245667 838.145020,971.552673 
	C838.941162,972.959534 840.201233,974.273010 841.551514,975.170715 
	C854.816528,983.989258 858.150757,997.726379 860.059875,1012.188416 
	C860.321289,1014.168823 860.528198,1016.159973 860.665100,1018.152710 
	C861.272400,1026.996582 863.651123,1034.875000 870.541626,1041.240723 
	C873.018982,1043.529541 874.733582,1047.527100 875.177979,1050.954468 
	C876.186523,1058.733032 879.786011,1065.288940 883.155029,1072.067505 
	C884.318237,1074.407959 884.892517,1077.086914 885.451660,1079.672729 
	C886.767090,1085.755859 886.697876,1085.770874 880.559875,1090.222534 
	C884.929749,1093.729980 888.783325,1097.758667 893.439575,1100.338501 
	C900.225708,1104.098511 895.868103,1111.481689 899.532837,1116.019409 
	C899.741821,1116.278076 899.970093,1116.537842 900.108093,1116.834961 
	C903.688416,1124.543701 907.456848,1132.174927 910.704712,1140.021729 
	C911.647400,1142.299194 911.434753,1145.231567 911.164429,1147.802002 
	C910.260376,1156.398926 909.514038,1165.049683 907.874817,1173.518677 
	C906.766052,1179.246948 904.257507,1184.704346 901.535217,1190.123291 
	C894.827759,1189.491333 888.530090,1187.445312 883.190552,1188.904663 
	C874.569885,1191.260864 867.441650,1189.979126 860.695740,1184.918701 
	C856.780640,1181.981689 853.248901,1181.952637 848.675842,1183.623657 
	C838.886475,1187.200806 829.165161,1191.629028 818.240601,1190.336426 
	C817.782043,1190.282104 817.225586,1191.054688 815.767273,1192.160645 
	C815.767273,1199.303467 815.767273,1207.183594 815.767273,1214.573120 
	C814.235107,1215.337646 813.677612,1215.745728 813.056152,1215.906738 
	C800.373474,1219.194824 800.188965,1220.068237 801.620056,1232.729736 
	C802.232727,1238.150635 801.326355,1244.039917 799.789856,1249.333008 
	C797.812683,1256.144287 793.828613,1257.216431 787.597168,1253.736694 
	C784.406555,1251.954712 781.301880,1250.015869 778.189941,1248.096802 
	C774.735291,1245.966309 771.759766,1245.957153 768.168091,1248.512573 
	C755.166138,1257.763306 741.954712,1266.724609 728.695435,1275.605591 
	C725.623840,1277.662842 724.199646,1279.976440 724.051270,1283.718994 
	C723.578247,1295.656372 722.462463,1307.573853 722.214844,1319.511963 
	C722.094666,1325.302246 720.448059,1329.649902 715.917358,1333.315063 
	C707.135132,1340.419434 698.071960,1347.296143 690.062683,1355.215332 
	C658.619873,1386.304565 625.815125,1416.150146 599.303711,1451.869019 
	C592.802551,1460.628174 584.978638,1468.871094 580.577454,1478.621704 
	C572.531860,1496.446533 566.453796,1515.171875 559.846130,1533.625732 
	C557.884521,1539.103760 554.706604,1542.294678 549.117371,1544.215942 
	C533.132996,1549.709961 517.339783,1555.760010 501.471344,1561.591309 
	C496.605927,1558.125122 491.830353,1554.522827 486.847351,1551.234863 
	C482.720337,1548.511597 479.967072,1545.320557 479.734344,1540.024536 
	C479.463348,1533.858887 477.323822,1528.881836 471.466919,1525.193970 
	C468.165344,1523.115234 465.888977,1518.615112 464.334320,1514.731812 
	C461.687622,1508.120972 457.251251,1503.741333 451.049774,1500.648804 
	C446.889526,1498.574463 443.075714,1495.765503 438.835388,1493.903320 
	C434.996246,1492.217285 430.827240,1491.212891 426.729156,1490.213623 
	C424.493164,1489.668457 422.102844,1489.752319 419.781342,1489.562256 
	C412.132294,1488.936401 405.913361,1486.114990 402.192566,1478.868774 
	C399.072845,1472.792969 394.242493,1469.804077 387.018951,1469.645508 
	C375.477112,1469.392334 365.064880,1465.674438 356.337372,1457.561768 
	C354.127533,1455.507568 350.645813,1454.529907 347.572449,1453.767578 
	C343.407623,1452.734497 339.092896,1452.124634 334.807037,1451.799194 
	C326.508972,1451.168945 319.401642,1448.578125 314.159851,1441.645264 
	C311.971527,1438.751099 309.263794,1436.125366 306.375000,1433.925293 
	C304.136627,1432.220703 301.365540,1430.762939 298.631317,1430.239258 
	C285.642426,1427.751221 272.618591,1426.304565 260.472076,1419.770752 
	C254.447556,1416.530029 246.299240,1417.187134 239.094879,1416.204956 
	C232.519760,1415.308716 225.938828,1414.342896 219.327423,1413.869019 
	C215.555008,1413.598755 213.347992,1412.097290 211.546356,1408.808594 
	C204.995255,1396.850220 197.531372,1385.344604 191.697540,1373.057861 
	C188.061371,1365.399658 186.340012,1356.729736 184.531372,1348.347168 
	C183.543930,1343.770386 181.649963,1340.653687 177.904419,1337.899170 
	C165.849655,1329.034058 154.129562,1319.714478 142.104752,1310.807251 
	C137.621307,1307.486206 134.618729,1303.449219 132.911636,1298.180664 
	C131.479568,1293.760864 129.712494,1289.440918 127.927849,1285.145874 
	C125.323730,1278.878540 123.085342,1277.517456 116.502335,1278.470703 
	C111.259460,1279.229614 106.050484,1280.257568 100.858322,1281.321655 
	C96.296036,1282.256592 92.613396,1281.475708 89.132278,1277.911987 
	C84.502914,1273.172729 78.764656,1269.479004 74.360542,1264.566895 
	C69.018509,1258.608887 62.371777,1256.607666 54.982044,1256.166260 
	C50.224819,1255.882324 46.759396,1254.220459 44.664200,1249.806152 
	C42.255207,1244.730713 39.452381,1239.832520 37.233879,1234.679443 
	C35.399269,1230.417969 33.955849,1225.956421 32.706711,1221.480835 
	C29.504759,1210.008423 26.580301,1198.415283 10.038156,1198.599487 
	C12.490542,1184.656738 11.059812,1172.543701 2.744006,1161.915527 
	C2.000000,1152.621460 2.000000,1143.243042 2.000007,1132.932251 
z"/>
<path data-name="Yaoundé V" style="fill: {#945DCF}" fill="#945DCF" opacity="1.000000" stroke="none" 
	d="
M1999.856812,740.970581 
	C1993.944092,757.074829 1992.382202,773.232788 1990.418213,789.271240 
	C1989.573608,796.169495 1989.446167,803.234192 1989.824707,810.177856 
	C1990.110718,815.420166 1988.355957,818.930054 1984.426147,822.123230 
	C1973.089966,831.334656 1962.110596,841.034241 1948.956787,847.684082 
	C1944.124146,850.127136 1941.702881,853.228943 1941.201538,859.128113 
	C1940.025269,872.968445 1937.342407,886.677612 1936.044434,900.512634 
	C1935.638306,904.840942 1936.906128,909.782898 1938.804321,913.780762 
	C1943.501709,923.674622 1948.544678,933.087036 1948.644897,944.684814 
	C1948.704590,951.606873 1951.729492,958.503357 1953.763916,966.809448 
	C1955.904785,968.758484 1959.461304,971.996155 1963.158813,975.362305 
	C1962.046631,978.656494 1960.705933,981.348389 1960.319458,984.171021 
	C1959.999756,986.504517 1959.321167,989.315735 1963.212891,990.484924 
	C1967.742065,991.845581 1968.105591,995.314880 1965.916382,999.202698 
	C1962.531128,1005.214661 1961.006470,1011.200928 1963.932739,1018.132324 
	C1964.850586,1020.306091 1963.106445,1023.707703 1962.299072,1026.464722 
	C1961.851318,1027.993164 1959.965088,1029.500122 1960.185303,1030.762451 
	C1962.508911,1044.086426 1953.608276,1054.294556 1950.783203,1066.139893 
	C1949.839111,1070.097778 1950.633911,1074.470459 1950.633911,1079.020752 
	C1949.435425,1079.729004 1947.837524,1080.673218 1945.852661,1081.846191 
	C1948.966187,1091.407471 1951.361206,1100.921875 1945.528442,1111.553101 
	C1942.771118,1115.703735 1941.365356,1119.519897 1938.633667,1121.563477 
	C1925.229004,1131.591187 1907.563965,1130.213745 1895.293091,1118.844482 
	C1890.199585,1114.125488 1884.637451,1110.235718 1876.808594,1110.656006 
	C1876.118408,1119.961304 1870.966919,1124.512085 1862.532593,1126.077271 
	C1860.783081,1126.402100 1858.781982,1127.512695 1857.704346,1128.891968 
	C1855.108521,1132.214600 1852.415161,1131.954834 1848.897583,1130.610718 
	C1845.564087,1129.336914 1841.737915,1129.316162 1838.453613,1127.958008 
	C1833.648438,1125.970825 1828.915771,1123.612061 1824.582764,1120.758179 
	C1822.261353,1119.229126 1820.840332,1116.332642 1818.857178,1113.859131 
	C1813.258545,1118.461792 1808.924438,1122.056274 1802.185791,1121.218994 
	C1798.542603,1120.766357 1793.891357,1124.663452 1790.905151,1123.497681 
	C1785.258301,1121.293213 1780.270142,1122.612549 1775.398071,1124.053345 
	C1769.614746,1125.763916 1766.711182,1122.892090 1764.015137,1118.984375 
	C1758.251343,1110.631226 1750.542358,1109.564453 1743.392212,1116.544556 
	C1741.286133,1118.600586 1739.911377,1121.387085 1738.064331,1123.730835 
	C1732.187134,1131.189087 1727.408325,1140.255493 1717.471191,1142.840332 
	C1710.046021,1144.771729 1704.680298,1149.411133 1698.631714,1153.385254 
	C1694.113770,1156.353638 1693.156494,1159.519165 1695.129028,1164.312866 
	C1695.684448,1165.662476 1694.997559,1167.523315 1694.732178,1171.209961 
	C1691.497314,1166.471069 1689.526855,1163.584351 1687.134888,1160.080200 
	C1684.687256,1163.176025 1682.929077,1165.945435 1680.640503,1168.168701 
	C1677.079834,1171.627686 1672.583130,1174.251587 1669.512939,1178.059570 
	C1663.562988,1185.439575 1657.281616,1191.367554 1647.194336,1192.726074 
	C1642.110474,1193.410889 1636.927734,1195.802490 1632.540527,1198.599854 
	C1627.131836,1202.048584 1622.173096,1202.421753 1616.554077,1199.862427 
	C1613.232544,1198.349609 1609.844116,1196.854492 1606.333496,1195.930786 
	C1603.940918,1195.301514 1600.805908,1194.744873 1598.831299,1195.762695 
	C1591.175903,1199.708618 1583.827637,1204.256714 1576.416992,1208.667725 
	C1573.342163,1210.497803 1570.487305,1212.704834 1567.378662,1214.469727 
	C1553.886475,1222.128906 1539.170288,1228.125488 1530.507324,1242.219849 
	C1529.826538,1243.327515 1528.844971,1244.478516 1527.718994,1245.047363 
	C1520.160156,1248.867065 1518.518921,1254.758789 1520.777222,1259.664062 
	C1514.092529,1267.294189 1508.580811,1273.970825 1502.626343,1280.225830 
	C1499.454346,1283.557983 1495.710571,1286.449585 1491.879761,1289.026855 
	C1485.987061,1292.991089 1479.797119,1296.513794 1472.608032,1300.912354 
	C1469.337646,1299.064941 1464.963745,1299.908447 1460.497192,1303.343872 
	C1457.696045,1305.498657 1454.110718,1306.968994 1450.648926,1307.858887 
	C1443.925659,1309.587280 1437.008667,1311.902954 1430.233154,1311.718994 
	C1423.122192,1311.525879 1416.581665,1318.646362 1409.317505,1313.099243 
	C1405.005981,1316.689209 1400.090942,1314.829102 1395.523682,1314.243652 
	C1394.261353,1316.968872 1393.803711,1320.107788 1391.998535,1321.503052 
	C1380.821167,1330.141235 1369.384888,1338.448486 1357.908325,1346.689941 
	C1356.397705,1347.774780 1354.167603,1347.857910 1352.270752,1348.405029 
	C1352.550293,1343.538696 1352.878540,1338.674561 1353.097412,1333.805542 
	C1353.398438,1327.108154 1354.573608,1320.247437 1353.492920,1313.770630 
	C1352.893677,1310.180054 1348.464233,1307.228638 1345.504272,1303.360107 
	C1354.225342,1295.317627 1363.149536,1287.837158 1372.219727,1280.538330 
	C1374.485107,1278.715332 1377.208374,1276.240845 1379.743530,1276.214600 
	C1386.066284,1276.149292 1388.456665,1272.441162 1390.348145,1267.501465 
	C1393.430664,1259.452026 1397.708252,1252.126709 1402.160767,1244.706665 
	C1406.183105,1238.003296 1407.737549,1228.871460 1407.629272,1220.847656 
	C1407.441406,1206.932739 1411.974243,1194.838989 1417.654175,1182.702026 
	C1421.598755,1174.273071 1424.930908,1165.556641 1428.513062,1156.958740 
	C1433.970459,1143.860107 1441.018188,1132.454102 1453.780029,1124.587646 
	C1467.737793,1115.984009 1477.304077,1102.866577 1481.796875,1087.068115 
	C1483.916504,1079.614990 1483.964355,1071.287720 1483.474854,1063.448486 
	C1482.835571,1053.206177 1479.505005,1043.043335 1479.603882,1032.868286 
	C1479.703857,1022.557007 1477.651489,1012.285645 1480.747314,1001.693115 
	C1484.351196,989.362122 1486.184937,976.354065 1487.340820,963.509766 
	C1488.645630,949.012024 1495.819214,937.571472 1504.415527,926.994568 
	C1516.626831,911.969788 1525.144775,895.350891 1529.509766,876.602478 
	C1534.333252,855.884766 1539.114990,835.150574 1543.409302,814.319336 
	C1545.550049,803.934875 1545.973755,793.485291 1543.415039,782.803650 
	C1541.208496,773.591736 1539.750977,764.118347 1541.623901,754.344238 
	C1543.355225,745.309143 1546.992554,737.319641 1551.484985,729.461487 
	C1557.738647,718.522400 1564.187744,707.632141 1569.464722,696.217773 
	C1573.609863,687.251770 1573.591187,677.172119 1570.796997,667.795837 
	C1562.103760,638.623535 1562.585571,608.666321 1562.232910,578.750916 
	C1562.209717,576.780273 1561.903687,573.663025 1562.938843,573.016846 
	C1569.525269,568.905396 1568.653198,561.547424 1571.436890,555.847107 
	C1574.879883,548.797180 1579.957275,542.322266 1585.276123,536.458557 
	C1595.895020,524.751953 1599.531372,510.517517 1602.179077,495.612274 
	C1603.625366,487.471375 1605.450928,479.312531 1608.076782,471.487701 
	C1611.540161,461.166748 1620.030640,456.553650 1630.816895,458.263428 
	C1635.405029,458.990723 1639.881348,460.449432 1644.475464,461.108185 
	C1656.409546,462.819397 1667.701538,461.391022 1677.482910,453.507172 
	C1679.291016,452.049805 1681.162964,450.625610 1683.167236,449.465546 
	C1692.172241,444.253235 1694.726196,445.420593 1701.127319,453.578552 
	C1707.022217,461.091278 1713.630493,468.288818 1721.005737,474.298004 
	C1725.040405,477.585297 1731.223633,478.502319 1736.604614,479.793915 
	C1741.844360,481.051575 1746.125854,479.616516 1749.166992,474.308228 
	C1753.061768,467.509918 1758.972046,464.990295 1766.992920,467.570435 
	C1772.330078,469.287354 1778.022095,469.907898 1783.561890,470.985504 
	C1786.168335,471.492462 1788.773804,472.078064 1791.408447,472.352570 
	C1797.957031,473.034821 1804.611694,473.073334 1811.059082,474.262909 
	C1820.161377,475.942383 1828.629150,475.066071 1837.289307,471.696716 
	C1841.355591,470.114685 1846.639526,469.745270 1850.810181,470.883575 
	C1855.053101,472.041626 1858.595703,472.152008 1862.255981,470.269897 
	C1868.436646,467.091797 1875.195435,464.536591 1880.461060,460.201172 
	C1887.880737,454.092316 1896.212769,450.629669 1905.080566,447.747620 
	C1907.874023,446.839691 1910.346680,444.986725 1913.093262,443.882446 
	C1916.708374,442.428925 1920.448853,441.287537 1924.634521,440.662659 
	C1924.459839,442.951202 1922.862549,445.730988 1923.256104,446.049225 
	C1926.969360,449.052338 1925.667114,452.459961 1924.762329,456.040710 
	C1922.674561,464.304474 1920.742676,472.607635 1918.570557,481.629333 
	C1922.614502,484.254761 1927.280762,487.284088 1933.280151,491.178986 
	C1924.995239,499.027985 1917.170776,506.047668 1909.920654,513.617188 
	C1908.335083,515.272461 1908.142212,518.985291 1908.523438,521.571289 
	C1908.826904,523.629211 1910.779297,525.605347 1912.354004,527.285461 
	C1917.954712,533.260681 1915.391968,540.644043 1915.471680,547.343262 
	C1915.506592,550.279297 1912.423828,553.505310 1910.226562,556.160889 
	C1906.001709,561.267639 1901.398926,566.061890 1896.520142,571.464844 
	C1904.567505,582.241272 1912.586426,592.825562 1920.396973,603.561462 
	C1922.072632,605.864746 1924.037842,608.697632 1924.083618,611.317810 
	C1924.279785,622.502930 1927.959839,633.672058 1924.270508,644.949036 
	C1923.743652,646.559448 1925.178223,649.040283 1926.161133,650.873779 
	C1929.342529,656.806885 1935.692139,661.676025 1932.046631,669.786987 
	C1931.722534,670.508484 1932.057495,671.987061 1932.634766,672.581299 
	C1938.347412,678.461121 1944.148804,684.242249 1943.123413,693.487976 
	C1948.000244,697.455261 1952.501099,704.007996 1957.841919,704.784668 
	C1965.873657,705.952637 1972.510986,707.943970 1979.726318,711.899536 
	C1985.237183,714.920593 1989.380859,717.655151 1992.260254,723.059692 
	C1994.265381,726.823486 1997.012573,730.191895 1999.428223,733.736938 
	C1999.655151,735.893311 1999.881836,738.049744 1999.856812,740.970581 
z"/>
<path data-name="Yaoundé IV" style="fill: {#E37BAF}" fill="#E37BAF" opacity="1.000000" stroke="none" 
	d="
M1352.155273,1349.236572 
	C1354.167603,1347.857910 1356.397705,1347.774780 1357.908325,1346.689941 
	C1369.384888,1338.448486 1380.821167,1330.141235 1391.998535,1321.503052 
	C1393.803711,1320.107788 1394.261353,1316.968872 1395.523682,1314.243652 
	C1400.090942,1314.829102 1405.005981,1316.689209 1409.317505,1313.099243 
	C1416.581665,1318.646362 1423.122192,1311.525879 1430.233154,1311.718994 
	C1437.008667,1311.902954 1443.925659,1309.587280 1450.648926,1307.858887 
	C1454.110718,1306.968994 1457.696045,1305.498657 1460.497192,1303.343872 
	C1464.963745,1299.908447 1469.337646,1299.064941 1472.608032,1300.912354 
	C1479.797119,1296.513794 1485.987061,1292.991089 1491.879761,1289.026855 
	C1495.710571,1286.449585 1499.454346,1283.557983 1502.626343,1280.225830 
	C1508.580811,1273.970825 1514.092529,1267.294189 1520.777222,1259.664062 
	C1518.518921,1254.758789 1520.160156,1248.867065 1527.718994,1245.047363 
	C1528.844971,1244.478516 1529.826538,1243.327515 1530.507324,1242.219849 
	C1539.170288,1228.125488 1553.886475,1222.128906 1567.378662,1214.469727 
	C1570.487305,1212.704834 1573.342163,1210.497803 1576.416992,1208.667725 
	C1583.827637,1204.256714 1591.175903,1199.708618 1598.831299,1195.762695 
	C1600.805908,1194.744873 1603.940918,1195.301514 1606.333496,1195.930786 
	C1609.844116,1196.854492 1613.232544,1198.349609 1616.554077,1199.862427 
	C1622.173096,1202.421753 1627.131836,1202.048584 1632.540527,1198.599854 
	C1636.927734,1195.802490 1642.110474,1193.410889 1647.194336,1192.726074 
	C1657.281616,1191.367554 1663.562988,1185.439575 1669.512939,1178.059570 
	C1672.583130,1174.251587 1677.079834,1171.627686 1680.640503,1168.168701 
	C1682.929077,1165.945435 1684.687256,1163.176025 1687.134888,1160.080200 
	C1689.526855,1163.584351 1691.497314,1166.471069 1694.732178,1171.209961 
	C1694.997559,1167.523315 1695.684448,1165.662476 1695.129028,1164.312866 
	C1693.156494,1159.519165 1694.113770,1156.353638 1698.631714,1153.385254 
	C1704.680298,1149.411133 1710.046021,1144.771729 1717.471191,1142.840332 
	C1727.408325,1140.255493 1732.187134,1131.189087 1738.064331,1123.730835 
	C1739.911377,1121.387085 1741.286133,1118.600586 1743.392212,1116.544556 
	C1750.542358,1109.564453 1758.251343,1110.631226 1764.015137,1118.984375 
	C1766.711182,1122.892090 1769.614746,1125.763916 1775.398071,1124.053345 
	C1780.270142,1122.612549 1785.258301,1121.293213 1790.905151,1123.497681 
	C1793.891357,1124.663452 1798.542603,1120.766357 1802.185791,1121.218994 
	C1808.924438,1122.056274 1813.258545,1118.461792 1818.857178,1113.859131 
	C1820.840332,1116.332642 1822.261353,1119.229126 1824.582764,1120.758179 
	C1828.915771,1123.612061 1833.648438,1125.970825 1838.453613,1127.958008 
	C1841.737915,1129.316162 1845.564087,1129.336914 1848.897583,1130.610718 
	C1852.415161,1131.954834 1855.108521,1132.214600 1857.704346,1128.891968 
	C1858.781982,1127.512695 1860.783081,1126.402100 1862.532593,1126.077271 
	C1870.966919,1124.512085 1876.118408,1119.961304 1876.808594,1110.656006 
	C1884.637451,1110.235718 1890.199585,1114.125488 1895.293091,1118.844482 
	C1907.563965,1130.213745 1925.229004,1131.591187 1938.633667,1121.563477 
	C1941.365356,1119.519897 1942.771118,1115.703735 1945.347412,1112.308105 
	C1948.946777,1123.818848 1952.253296,1135.666748 1954.937500,1147.654175 
	C1956.854492,1156.215820 1960.023804,1164.059692 1964.830444,1171.381714 
	C1968.830688,1177.475098 1972.614380,1183.735718 1976.051880,1190.158813 
	C1977.174683,1192.257080 1977.899902,1195.479858 1977.111206,1197.539185 
	C1972.449341,1209.713257 1975.533447,1221.805786 1976.807495,1233.932861 
	C1977.014282,1235.900146 1977.933716,1237.973877 1977.550537,1239.793701 
	C1973.231812,1260.306152 1977.380615,1280.965332 1976.261841,1301.513916 
	C1975.978516,1306.715820 1975.431274,1312.033447 1974.022583,1317.020386 
	C1969.239014,1333.955444 1964.011108,1350.764771 1958.968994,1367.627075 
	C1958.588745,1368.898926 1958.083984,1370.203735 1958.059448,1371.501221 
	C1957.562622,1397.619995 1947.066772,1421.191528 1939.408936,1445.506470 
	C1932.026611,1468.947754 1924.375366,1492.341064 1918.184814,1516.105225 
	C1915.125610,1527.849365 1914.882568,1540.361938 1913.750244,1552.562500 
	C1912.769287,1563.131714 1912.414185,1573.757812 1911.587158,1584.343628 
	C1911.411621,1586.589111 1910.600342,1588.856201 1909.722168,1590.963501 
	C1906.015381,1599.858154 1901.788818,1608.556641 1898.497803,1617.598022 
	C1895.743530,1625.164795 1891.438477,1630.777588 1884.335938,1634.738770 
	C1878.549561,1637.965820 1873.092163,1641.901978 1867.882935,1646.021973 
	C1852.487915,1658.197998 1834.640015,1665.357422 1816.303345,1671.397461 
	C1808.148315,1674.083740 1801.460571,1678.294922 1795.714600,1684.659180 
	C1789.469116,1691.576416 1782.442505,1697.783936 1776.086914,1704.608521 
	C1773.686646,1707.185913 1772.075562,1710.548950 1770.336548,1713.682495 
	C1763.748169,1725.554077 1764.185303,1737.666382 1769.134277,1749.979126 
	C1773.841309,1761.690063 1772.173584,1774.258423 1773.420532,1786.403198 
	C1774.567993,1797.581421 1773.664429,1808.970215 1773.664429,1821.240356 
	C1769.853882,1823.194824 1764.894653,1825.178711 1760.575195,1828.106689 
	C1755.992065,1831.213013 1751.045166,1834.563477 1748.056274,1839.015381 
	C1745.214844,1843.247437 1741.120239,1845.620361 1737.524170,1845.393677 
	C1727.890015,1844.786377 1719.908325,1849.867065 1711.003540,1851.536987 
	C1706.672241,1852.349487 1702.058960,1854.891724 1698.877686,1857.990112 
	C1689.870483,1866.762573 1678.944702,1871.613037 1667.533447,1876.172485 
	C1657.248291,1880.281982 1646.688721,1884.732788 1640.377930,1894.649414 
	C1636.988647,1899.975220 1633.104248,1900.347168 1627.721191,1898.628174 
	C1621.749878,1896.720825 1620.444580,1897.571411 1618.211426,1903.495728 
	C1617.399414,1905.650146 1616.499146,1907.917847 1616.395264,1910.168945 
	C1615.694580,1925.348999 1607.713623,1937.812378 1601.840088,1951.157959 
	C1596.446045,1963.413940 1589.751709,1974.553955 1580.492065,1984.181274 
	C1580.038330,1984.653076 1579.652832,1985.244751 1579.402344,1985.849609 
	C1576.160889,1993.678711 1572.949585,2001.520386 1569.585693,2009.711914 
	C1565.752197,2010.177979 1562.509277,2007.170776 1558.341064,2009.891968 
	C1553.611206,2012.979614 1551.730347,2016.348022 1552.640137,2021.272095 
	C1554.563721,2031.683716 1554.905518,2042.069336 1552.058472,2052.257080 
	C1550.476440,2057.917725 1548.485596,2063.784668 1545.239746,2068.585449 
	C1540.352051,2075.814697 1537.747559,2083.243164 1538.289673,2091.914062 
	C1538.602295,2096.911133 1537.191040,2101.306885 1535.155762,2106.114502 
	C1532.016846,2113.529053 1531.261230,2121.974854 1529.685425,2130.020752 
	C1528.546265,2135.837158 1528.712891,2142.137695 1526.459595,2147.441650 
	C1524.350708,2152.405518 1523.517700,2157.288818 1524.762451,2161.927002 
	C1526.045654,2166.708496 1524.604736,2170.321289 1522.901367,2174.286377 
	C1520.580811,2179.687988 1518.639526,2185.273193 1515.994263,2190.505859 
	C1514.727417,2193.011719 1512.551880,2195.400391 1510.198975,2196.945312 
	C1505.010376,2200.351807 1499.092529,2202.712402 1494.145264,2206.402344 
	C1489.817627,2209.630127 1485.261353,2213.512695 1482.915161,2218.168701 
	C1480.509766,2222.942383 1480.632324,2229.000488 1479.728516,2234.509766 
	C1479.570557,2235.472900 1480.216553,2236.731934 1479.802612,2237.465088 
	C1471.912598,2251.438721 1475.520508,2266.810059 1474.233521,2281.585693 
	C1473.952148,2284.816162 1473.617188,2288.848145 1471.645508,2290.960449 
	C1467.275635,2295.642822 1468.037476,2300.505615 1469.076172,2305.751221 
	C1470.048584,2310.663086 1470.991699,2315.581055 1472.185669,2321.719971 
	C1463.232910,2331.886963 1462.760132,2345.587158 1463.786133,2359.583740 
	C1464.246582,2365.864258 1465.513550,2372.111572 1465.619507,2378.387451 
	C1466.028687,2402.614990 1466.148560,2426.847656 1466.311646,2451.078857 
	C1466.390259,2462.742920 1466.662354,2474.420654 1466.221924,2486.068604 
	C1465.846313,2496.000488 1464.838989,2505.930664 1463.627197,2515.802490 
	C1462.427856,2525.572998 1457.727539,2530.125977 1447.980713,2531.760010 
	C1434.563354,2534.009521 1421.112427,2536.060303 1407.704834,2538.364990 
	C1402.540894,2539.252441 1397.829956,2540.349365 1393.830444,2544.967285 
	C1387.555664,2552.212402 1386.368408,2560.769775 1393.627686,2570.074707 
	C1396.880493,2574.244141 1399.101807,2577.340820 1395.029053,2582.884766 
	C1392.998901,2585.648193 1394.556641,2591.151367 1394.758301,2595.402588 
	C1394.847534,2597.286865 1395.597778,2599.139893 1396.269409,2601.925049 
	C1392.480713,2600.388916 1389.628540,2599.232422 1385.058960,2597.379883 
	C1386.511475,2602.054688 1387.485352,2605.188477 1388.594360,2608.757324 
	C1383.075439,2610.680420 1380.067993,2606.817871 1379.220093,2603.604980 
	C1376.599487,2593.674805 1367.280518,2594.167480 1360.600708,2591.051758 
	C1358.282104,2589.970703 1353.478516,2592.322998 1350.742676,2594.360107 
	C1339.120605,2603.013672 1336.950439,2602.990234 1327.035767,2592.155273 
	C1326.372925,2591.431396 1325.902466,2590.531006 1324.926514,2589.104248 
	C1320.648438,2594.566406 1317.201294,2600.071777 1309.634155,2598.568848 
	C1308.613647,2598.366211 1307.288086,2600.974609 1305.829712,2601.463379 
	C1301.357056,2602.961426 1298.810059,2609.002441 1292.694702,2606.879395 
	C1291.768066,2606.557373 1289.820190,2608.126953 1288.836548,2609.251953 
	C1287.110229,2611.225586 1285.780273,2613.543457 1284.256104,2615.697021 
	C1278.579834,2623.717041 1271.331543,2626.555176 1261.770752,2622.996826 
	C1258.720093,2621.861328 1255.297241,2621.726074 1251.220093,2620.982910 
	C1250.376221,2615.333740 1249.520142,2609.602295 1248.527588,2602.957275 
	C1235.497559,2610.135986 1234.095947,2597.594482 1228.169434,2591.739014 
	C1220.738647,2595.405029 1213.142212,2598.145752 1205.417725,2592.096680 
	C1204.331421,2591.246094 1202.084351,2592.063477 1200.550537,2591.566406 
	C1194.224976,2589.515869 1186.912476,2591.301270 1181.526978,2584.864990 
	C1179.420166,2582.346680 1173.382935,2582.233887 1169.230957,2582.501709 
	C1161.488647,2583.000977 1155.100220,2580.702148 1148.733032,2576.535156 
	C1144.976929,2574.076904 1140.181641,2573.206299 1135.090820,2571.513672 
	C1137.969116,2565.351807 1139.140015,2559.219971 1134.364502,2552.397461 
	C1131.717896,2553.411865 1128.762695,2554.544434 1126.400024,2555.449951 
	C1117.794189,2554.314941 1113.164062,2546.524414 1104.847412,2545.008789 
	C1101.466064,2544.392822 1098.906860,2539.264648 1095.789429,2535.996338 
	C1095.495605,2535.972900 1094.681885,2535.640137 1094.225708,2535.910400 
	C1085.219727,2541.244873 1085.258911,2541.241943 1079.877930,2531.725830 
	C1078.739014,2529.711426 1077.187378,2527.933838 1075.994629,2525.946045 
	C1072.804443,2520.629639 1070.712402,2515.395752 1074.306030,2509.108887 
	C1076.018799,2506.112305 1076.136475,2502.203857 1077.154907,2497.966797 
	C1081.204102,2499.187500 1084.846069,2500.285400 1089.244263,2501.611328 
	C1089.363525,2499.143311 1089.774170,2497.240479 1089.427124,2495.487793 
	C1089.198853,2494.334961 1087.881104,2493.396484 1087.046265,2492.365723 
	C1079.255493,2482.744629 1079.556030,2480.580566 1089.560913,2474.017578 
	C1090.234497,2469.734619 1091.062256,2465.500488 1091.512695,2461.226562 
	C1091.788696,2458.607422 1092.507202,2455.230225 1091.258301,2453.400879 
	C1086.924194,2447.052246 1088.594727,2439.377441 1086.040527,2432.939453 
	C1081.918701,2422.550049 1077.989990,2411.429443 1071.053345,2403.036133 
	C1066.229736,2397.199463 1059.029907,2393.141846 1057.076050,2385.568115 
	C1050.851929,2385.568115 1045.606812,2385.568115 1038.915039,2385.162109 
	C1032.971069,2384.556885 1028.473389,2384.357666 1023.975830,2384.158447 
	C1023.085938,2384.049316 1022.196045,2383.940430 1019.759033,2383.942139 
	C1012.831299,2384.133545 1007.450623,2384.214355 1002.069946,2384.295166 
	C996.941162,2380.181152 992.021790,2375.759277 986.603333,2372.070801 
	C983.458923,2369.929932 979.581543,2368.761963 975.908752,2367.529297 
	C971.872131,2366.174316 967.687866,2365.261963 963.574951,2364.131348 
	C958.915100,2362.850098 955.853516,2359.676514 955.461914,2355.036865 
	C954.616211,2345.018066 948.651062,2337.130371 944.619568,2328.548340 
	C942.349670,2323.716309 943.119751,2320.572754 946.145813,2315.773926 
	C948.447266,2317.241455 950.716858,2318.688721 953.115540,2320.218262 
	C953.269226,2320.084717 953.880310,2319.804688 954.043640,2319.359863 
	C954.383972,2318.433105 954.699646,2317.409668 954.655945,2316.442627 
	C954.111877,2304.393066 961.847473,2298.346680 971.190735,2293.406006 
	C972.047424,2292.953125 972.712402,2292.137695 973.839233,2291.170410 
	C973.839233,2289.804688 973.762146,2288.168213 973.852539,2286.541260 
	C974.250977,2279.369141 974.622314,2279.000977 981.991699,2278.158447 
	C983.315002,2278.007324 984.657043,2277.988770 985.969238,2277.777344 
	C994.403564,2276.418457 997.677551,2273.103516 997.634583,2264.482666 
	C997.609131,2259.357910 998.492065,2255.709717 1003.407715,2252.984131 
	C1008.272705,2250.286865 1011.208557,2245.849854 1010.262085,2239.702637 
	C1010.013306,2238.086670 1010.151611,2236.353271 1010.421143,2234.724854 
	C1012.139343,2224.349365 1013.944092,2213.988281 1015.856995,2202.824463 
	C1016.641418,2202.657959 1018.261353,2201.874756 1019.752563,2202.070557 
	C1027.366699,2203.071777 1031.491821,2198.665527 1034.697388,2192.777100 
	C1037.415039,2187.785400 1039.976929,2183.128662 1046.242310,2181.187256 
	C1049.153687,2180.285156 1050.769409,2175.834473 1053.597046,2173.910400 
	C1062.267822,2168.010742 1071.934448,2164.507324 1083.888916,2163.669922 
	C1083.888916,2159.393799 1084.086792,2155.208252 1083.842529,2151.048828 
	C1083.477661,2144.837646 1085.014771,2140.680176 1091.498291,2137.721924 
	C1097.118774,2135.157227 1103.577515,2132.064453 1105.066406,2124.508545 
	C1105.290527,2123.370850 1106.397583,2122.100830 1107.444580,2121.479004 
	C1117.927612,2115.254395 1128.418091,2108.810059 1140.973877,2107.945557 
	C1144.716919,2107.687744 1146.890381,2105.973633 1149.487793,2103.743896 
	C1152.661133,2101.019775 1156.417480,2098.849365 1160.188965,2096.978271 
	C1165.216064,2094.484131 1166.612061,2092.351074 1165.628296,2086.869141 
	C1164.042603,2078.031250 1164.042603,2078.031250 1167.390747,2071.037109 
	C1166.355591,2068.934814 1164.864014,2066.977539 1164.414185,2064.804688 
	C1162.520996,2055.657227 1166.824829,2050.572266 1176.319946,2049.929932 
	C1179.935059,2049.685303 1183.524902,2048.885010 1187.092407,2048.169434 
	C1190.405884,2047.504883 1192.971436,2045.384399 1192.243164,2041.977539 
	C1190.883789,2035.618286 1195.334106,2032.992554 1199.070190,2029.865479 
	C1206.261597,2023.846069 1207.130371,2020.641113 1203.589722,2011.697021 
	C1203.354492,2011.102783 1202.826538,2010.472046 1202.907959,2009.929199 
	C1203.443604,2006.362305 1204.109131,2002.814819 1204.711548,1999.379150 
	C1213.185547,1996.769897 1216.483276,1992.146118 1216.945679,1983.149902 
	C1217.059326,1980.939087 1217.628906,1978.449341 1218.832275,1976.652832 
	C1222.673828,1970.918579 1226.911987,1965.450073 1231.125244,1959.703735 
	C1230.079346,1954.118164 1229.005249,1948.257446 1227.880493,1942.406494 
	C1226.549072,1935.480225 1224.171509,1930.308716 1215.687378,1928.954712 
	C1209.429199,1927.955811 1203.943359,1923.866089 1202.335449,1916.516357 
	C1201.707520,1913.646118 1199.879883,1911.050781 1199.140625,1908.190186 
	C1197.723145,1902.704712 1197.219727,1897.880005 1201.715698,1892.567017 
	C1205.815308,1887.722534 1208.999023,1880.940308 1209.720337,1874.681763 
	C1210.717773,1866.025879 1214.304688,1861.999634 1223.556641,1861.707886 
	C1224.976929,1853.496826 1226.775269,1845.434204 1227.632690,1837.272705 
	C1228.152100,1832.327393 1228.130737,1828.795532 1234.525146,1827.269043 
	C1238.924194,1826.218872 1242.466797,1821.581421 1245.858276,1818.960205 
	C1245.858276,1815.729614 1244.953003,1812.600220 1246.092529,1810.692017 
	C1247.451416,1808.416504 1250.562866,1807.187744 1252.959229,1805.474121 
	C1249.445801,1800.407593 1246.737549,1795.399170 1249.952271,1789.154175 
	C1250.586060,1787.922974 1250.515747,1785.777588 1249.864380,1784.524414 
	C1244.844727,1774.865601 1239.513062,1765.369019 1234.489258,1755.712280 
	C1233.202026,1753.237793 1232.668457,1750.371460 1231.974487,1748.252686 
	C1235.769409,1745.883789 1239.819580,1744.700562 1241.118164,1742.128052 
	C1242.195312,1739.994385 1240.030640,1736.224243 1239.121826,1732.424438 
	C1243.558472,1730.520630 1247.266724,1725.110107 1255.047363,1726.825928 
	C1256.313965,1726.605591 1256.531616,1725.941040 1256.749268,1725.276489 
	C1251.437744,1714.475586 1248.132690,1702.613281 1239.578857,1693.529785 
	C1236.475708,1690.234619 1237.186890,1684.636597 1241.304565,1682.521240 
	C1247.853882,1679.156982 1254.849854,1676.491943 1262.074585,1680.763794 
	C1275.331909,1688.602783 1283.386475,1683.475220 1285.877563,1665.286377 
	C1286.141235,1663.361572 1285.913208,1661.369385 1285.913208,1659.210571 
	C1291.055786,1657.851440 1295.947388,1657.060059 1300.429688,1655.253540 
	C1306.723877,1652.716553 1307.424805,1648.660767 1305.352417,1642.033081 
	C1304.156982,1638.210327 1305.137695,1633.730103 1304.976440,1629.552124 
	C1304.881714,1627.101196 1305.340820,1623.867065 1304.001343,1622.397095 
	C1301.763306,1619.941162 1298.423218,1619.441406 1294.917969,1621.416870 
	C1288.946777,1624.782104 1282.725342,1627.703369 1275.776489,1631.234131 
	C1271.624268,1622.084106 1262.645020,1615.694458 1260.930420,1604.391846 
	C1260.013794,1598.350708 1256.015747,1592.838501 1253.974731,1586.893188 
	C1250.314087,1576.230347 1252.637451,1565.856079 1255.154175,1555.163208 
	C1259.087524,1538.450195 1270.513672,1524.999268 1274.317139,1508.351685 
	C1274.665649,1506.826538 1276.041626,1505.552246 1276.860352,1504.115723 
	C1281.919312,1495.239136 1287.061523,1486.407471 1291.952637,1477.439087 
	C1294.276245,1473.178589 1294.682495,1468.675537 1292.401733,1464.066040 
	C1286.818970,1452.783081 1292.721558,1443.920654 1300.986938,1438.347046 
	C1311.914551,1430.978516 1322.584229,1422.820312 1335.677856,1419.114136 
	C1338.063110,1418.438965 1340.543457,1416.610474 1342.061890,1414.615723 
	C1349.184937,1405.258179 1355.338867,1395.477051 1354.257690,1382.845947 
	C1353.323853,1371.936646 1352.764771,1360.995239 1352.155273,1349.236572 
z"/>
<path data-name="Yaoundé II" style="fill: {#9EDDEF}" fill="#9EDDEF" opacity="1.000000" stroke="none" 
	d="
M902.375122,1190.282837 
	C904.257507,1184.704346 906.766052,1179.246948 907.874817,1173.518677 
	C909.514038,1165.049683 910.260376,1156.398926 911.164429,1147.802002 
	C911.434753,1145.231567 911.647400,1142.299194 910.704712,1140.021729 
	C907.456848,1132.174927 903.688416,1124.543701 900.108093,1116.834961 
	C899.970093,1116.537842 899.741821,1116.278076 899.532837,1116.019409 
	C895.868103,1111.481689 900.225708,1104.098511 893.439575,1100.338501 
	C888.783325,1097.758667 884.929749,1093.729980 880.559875,1090.222534 
	C886.697876,1085.770874 886.767090,1085.755859 885.451660,1079.672729 
	C884.892517,1077.086914 884.318237,1074.407959 883.155029,1072.067505 
	C879.786011,1065.288940 876.186523,1058.733032 875.177979,1050.954468 
	C874.733582,1047.527100 873.018982,1043.529541 870.541626,1041.240723 
	C863.651123,1034.875000 861.272400,1026.996582 860.665100,1018.152710 
	C860.528198,1016.159973 860.321289,1014.168823 860.059875,1012.188416 
	C858.150757,997.726379 854.816528,983.989258 841.551514,975.170715 
	C840.201233,974.273010 838.941162,972.959534 838.145020,971.552673 
	C831.745911,960.245667 821.419250,954.725891 809.291626,952.046265 
	C804.990540,951.095886 802.186646,948.934937 800.287598,945.037720 
	C796.120850,936.487000 789.380676,929.108093 789.128357,917.472656 
	C782.678162,918.703308 776.872925,919.300964 771.392639,920.967285 
	C761.326294,924.027893 749.028503,919.660706 744.171509,910.423035 
	C740.074219,902.630249 737.322571,894.018127 738.597839,885.444519 
	C740.195190,874.705688 737.072632,865.119202 734.686218,855.142761 
	C732.759521,847.088562 731.819580,838.795288 729.822815,830.761963 
	C728.566284,825.706421 726.331604,820.863098 724.228821,816.058838 
	C722.630432,812.406860 720.852783,808.758301 718.609192,805.481873 
	C715.444153,800.859375 714.304688,796.454834 715.473328,790.620361 
	C717.493225,780.536255 712.753723,771.581665 707.486450,763.534973 
	C703.186523,756.966370 700.505798,750.768921 704.112610,743.030396 
	C699.906433,739.615356 696.078308,736.507385 691.944031,732.786377 
	C704.322205,720.268250 704.297607,704.455688 704.461304,688.501526 
	C710.011719,686.351196 715.125000,683.849915 720.520935,682.401245 
	C728.689697,680.208130 733.897888,675.187927 736.366028,667.405212 
	C738.356384,661.129150 742.083130,657.538696 748.563171,655.799561 
	C764.760681,651.452637 776.680664,639.822571 790.040894,630.629700 
	C810.206299,616.754333 805.521118,615.105713 799.480164,599.773865 
	C794.604919,587.400452 794.347412,577.354004 803.819763,567.316284 
	C814.064941,556.459473 814.987671,541.969116 816.026917,528.293579 
	C817.132202,513.749084 815.931702,499.024750 815.605530,484.381897 
	C815.563171,482.479492 815.231995,480.240570 814.184082,478.759155 
	C807.367310,469.122772 806.697815,458.460632 808.313660,447.292847 
	C809.545715,438.777740 808.606384,429.199036 812.303284,421.970642 
	C817.476807,411.855408 816.274841,402.993530 814.737488,392.663696 
	C812.846252,379.955811 813.037231,366.675781 821.557739,355.398407 
	C824.745361,351.179443 824.579956,346.887329 821.588684,342.542480 
	C820.274963,340.634308 819.297546,338.495422 818.156555,336.467407 
	C810.893005,323.557159 812.358398,310.690857 823.027039,300.636780 
	C827.830750,296.109680 830.976196,290.772552 833.130310,284.886536 
	C835.611023,278.108521 839.376282,272.459503 845.342407,267.362976 
	C854.076660,267.747711 860.260986,271.279785 864.572998,278.577728 
	C866.896790,282.510651 870.403809,285.837219 873.736816,289.065826 
	C893.835571,308.535156 913.987915,327.949982 934.246033,347.253143 
	C938.666260,351.464966 941.962219,356.110535 944.378052,361.803314 
	C952.829956,381.719757 961.804932,401.413605 970.435547,421.255341 
	C972.617615,426.272003 975.663025,430.199341 980.098999,433.579803 
	C1000.758118,449.323242 1021.114502,465.463287 1041.706055,481.296356 
	C1047.898438,486.057770 1052.612793,491.677460 1056.327026,498.637726 
	C1071.219727,526.545166 1086.440552,554.279419 1101.782349,581.943359 
	C1104.558350,586.949036 1105.511230,591.212219 1103.093628,596.808167 
	C1099.009888,606.261230 1096.168823,616.243652 1092.309814,625.803467 
	C1089.414551,632.975708 1089.041870,639.742676 1091.868896,647.062500 
	C1094.739624,654.495117 1096.904785,662.216614 1099.090820,669.893616 
	C1102.760986,682.782471 1107.322266,695.137878 1116.421997,705.424927 
	C1118.232300,707.471497 1119.154297,710.629028 1119.689331,713.426575 
	C1123.493774,733.325500 1125.910645,753.585571 1131.216064,773.064148 
	C1134.193481,783.995544 1141.500610,793.859070 1147.488892,803.824097 
	C1152.337158,811.891846 1154.674927,819.955017 1152.753906,829.407715 
	C1151.293335,836.593811 1150.589844,844.073425 1158.709351,849.999329 
	C1155.216187,853.335815 1152.321045,856.369202 1149.152710,859.083496 
	C1129.403931,876.002563 1110.727539,893.924438 1093.531860,913.533997 
	C1080.033691,928.926819 1076.239258,959.241516 1092.914062,978.978943 
	C1099.794800,987.123474 1108.509521,993.301941 1120.518799,992.330566 
	C1137.700073,990.940796 1154.295654,994.011475 1170.174072,1000.617188 
	C1174.445190,1002.394104 1178.716309,1004.564209 1182.371460,1007.359314 
	C1197.170776,1018.675720 1214.284058,1025.176270 1231.541870,1031.279785 
	C1240.032471,1034.282593 1245.730225,1039.098633 1248.495239,1047.940186 
	C1250.962036,1055.827393 1253.700806,1063.402100 1254.817749,1071.817017 
	C1255.780273,1079.068481 1260.326416,1085.943359 1263.776855,1092.736450 
	C1266.873901,1098.833740 1268.295044,1104.308228 1266.234619,1111.562988 
	C1263.375366,1121.630493 1262.638672,1132.339722 1261.478638,1142.828003 
	C1261.103882,1146.216431 1261.709595,1149.962158 1262.824097,1153.216553 
	C1265.409302,1160.766113 1268.860718,1168.018921 1271.444946,1175.568848 
	C1275.359375,1187.004395 1277.156982,1198.248291 1266.921997,1207.943115 
	C1265.179565,1209.593628 1264.589233,1212.623657 1263.837891,1215.127686 
	C1261.261719,1223.712769 1258.850952,1232.347412 1256.104736,1241.697632 
	C1255.047852,1241.849731 1253.965088,1241.437012 1253.523071,1240.659790 
	C1245.282715,1226.170166 1231.082031,1219.106812 1216.117188,1210.876465 
	C1212.804443,1209.266602 1210.755127,1208.138184 1208.603516,1207.259521 
	C1197.772705,1202.836792 1188.113892,1197.036621 1179.328491,1188.892822 
	C1169.908813,1180.161011 1159.058228,1172.919067 1145.334229,1171.320435 
	C1127.870728,1169.286377 1110.553101,1165.975586 1093.079712,1164.066650 
	C1087.716309,1163.480591 1081.818604,1165.005615 1076.569092,1166.766968 
	C1067.152588,1169.926636 1058.029785,1173.968140 1048.806274,1177.695435 
	C1040.424438,1181.082764 1032.067627,1181.095825 1023.474670,1178.302002 
	C1019.426758,1176.985840 1014.966919,1175.520508 1010.889099,1175.955322 
	C992.326538,1177.934082 973.295410,1177.897095 956.430237,1188.025879 
	C950.217590,1191.757080 943.428711,1194.571045 936.773987,1197.512207 
	C929.574951,1200.693848 922.187500,1201.426880 914.949890,1197.544189 
	C910.686707,1195.257202 906.562073,1192.711914 902.375122,1190.282837 
z"/>
<path data-name="Yaoundé VI" style="fill: {#BEB143}" fill="#BEB143" opacity="1.000000" stroke="none" 
	d="
M901.535217,1190.123291 
	C906.562073,1192.711914 910.686707,1195.257202 914.949890,1197.544189 
	C922.187500,1201.426880 929.574951,1200.693848 936.773987,1197.512207 
	C943.428711,1194.571045 950.217590,1191.757080 956.430237,1188.025879 
	C973.295410,1177.897095 992.326538,1177.934082 1010.889099,1175.955322 
	C1014.966919,1175.520508 1019.426758,1176.985840 1023.474670,1178.302002 
	C1032.067627,1181.095825 1040.424438,1181.082764 1048.806274,1177.695435 
	C1058.029785,1173.968140 1067.152588,1169.926636 1076.569092,1166.766968 
	C1081.818604,1165.005615 1087.716309,1163.480591 1093.079712,1164.066650 
	C1110.553101,1165.975586 1127.870728,1169.286377 1145.334229,1171.320435 
	C1159.058228,1172.919067 1169.908813,1180.161011 1179.328491,1188.892822 
	C1188.113892,1197.036621 1197.772705,1202.836792 1208.603516,1207.259521 
	C1210.755127,1208.138184 1212.804443,1209.266602 1215.403687,1210.656616 
	C1202.634399,1217.274902 1189.029907,1220.758057 1174.379517,1216.293091 
	C1172.824829,1215.819214 1171.072632,1215.943359 1169.408691,1215.886719 
	C1159.785400,1215.558960 1155.246460,1218.821533 1152.895264,1228.155762 
	C1150.546753,1237.479736 1148.357788,1246.847046 1146.293701,1256.238281 
	C1145.116333,1261.594849 1145.893677,1266.658691 1148.629272,1271.630737 
	C1152.556396,1278.767944 1152.392700,1285.572998 1145.341675,1291.181396 
	C1129.877075,1288.670044 1114.385620,1286.720825 1099.161987,1283.504028 
	C1086.855225,1280.903687 1074.906860,1276.644531 1062.736572,1273.353516 
	C1037.309937,1266.477905 1015.544128,1289.023560 1016.293274,1309.507202 
	C1016.836060,1324.348633 1011.868774,1337.684448 1006.225830,1350.840820 
	C1003.046387,1358.253540 998.059448,1364.802979 990.832703,1368.730225 
	C973.234924,1378.293579 963.857422,1394.804565 953.654114,1410.983398 
	C958.803589,1421.168823 971.915894,1416.529297 978.005127,1424.116577 
	C975.132568,1428.655273 972.747681,1433.016479 969.785889,1436.942505 
	C966.599792,1441.165894 962.223083,1444.583740 959.495911,1449.044067 
	C948.613342,1466.843262 952.153076,1481.588745 971.299255,1489.208618 
	C981.736938,1493.362793 987.723022,1500.884888 993.972351,1509.073242 
	C1002.813538,1520.657715 1002.921936,1537.326416 990.755371,1549.783813 
	C989.127625,1551.450439 987.119385,1552.967041 986.123108,1554.968994 
	C985.034424,1557.156738 983.875610,1560.196899 984.589966,1562.212646 
	C986.154663,1566.627808 985.940979,1571.220215 986.858032,1575.449951 
	C989.667480,1588.408569 984.246033,1598.568604 978.506348,1609.010864 
	C977.398438,1611.026367 977.031677,1613.451294 975.912415,1615.458252 
	C973.154480,1620.403442 970.382751,1625.397461 963.972351,1626.525146 
	C958.550415,1627.479126 955.860535,1631.507568 952.950806,1635.791504 
	C949.279419,1641.197021 944.406189,1645.770752 940.460083,1651.010986 
	C938.001099,1654.276367 936.297241,1658.110352 933.251587,1663.446289 
	C932.684021,1663.624878 929.963135,1664.481201 926.716614,1665.503052 
	C926.412292,1668.233887 924.898499,1671.723389 925.975403,1673.972656 
	C929.800293,1681.961792 925.696472,1687.245361 921.012939,1692.680054 
	C919.955505,1693.906982 919.207031,1695.400024 917.929749,1697.365479 
	C911.672791,1688.557129 905.751404,1680.179932 899.771545,1671.844727 
	C898.818237,1670.515991 897.798828,1668.607788 896.476746,1668.269287 
	C885.453369,1665.447388 878.869019,1655.794556 869.286499,1650.962402 
	C865.366394,1648.985718 860.025513,1647.295288 856.096985,1648.343994 
	C844.570740,1651.420532 833.395508,1650.032593 822.764771,1646.418823 
	C807.481201,1641.223633 795.543213,1648.235962 783.864075,1655.540405 
	C775.722229,1660.632690 773.439819,1668.448364 774.811401,1678.885742 
	C776.696045,1693.228516 786.046143,1703.533447 791.270447,1715.963501 
	C793.011536,1720.105957 798.085632,1722.768677 801.345642,1726.370728 
	C805.895386,1731.397461 807.369385,1737.725830 806.062561,1744.076172 
	C804.820923,1750.109375 808.139160,1753.937500 811.496887,1757.200684 
	C818.322205,1763.833984 825.899780,1769.698242 833.235291,1775.797729 
	C834.753113,1777.059814 836.535767,1778.019165 838.252563,1779.021851 
	C839.977295,1780.029297 842.466980,1780.462891 843.424377,1781.929443 
	C849.948792,1791.923950 860.475830,1796.987427 870.145386,1802.854370 
	C869.467896,1806.631592 868.966736,1809.425537 868.400085,1812.584961 
	C873.324585,1811.533081 877.590881,1809.931152 881.885437,1809.851807 
	C890.186829,1809.697998 891.882751,1813.148438 887.923279,1820.308838 
	C886.187134,1823.448730 885.075439,1826.928955 883.415588,1830.116821 
	C880.011047,1836.655151 877.821228,1842.353760 884.988525,1848.674805 
	C887.628723,1851.003418 886.782654,1857.289185 887.517822,1861.771484 
	C887.817566,1863.598755 887.532349,1865.816772 888.479492,1867.191040 
	C892.232361,1872.635010 896.632263,1877.664673 896.822754,1884.813843 
	C896.844238,1885.621094 897.823608,1886.995972 898.511841,1887.100586 
	C905.629211,1888.182129 908.324829,1894.356323 912.503967,1898.862183 
	C918.421326,1905.242310 918.755737,1907.317139 914.311340,1915.508545 
	C918.200684,1924.753174 922.185364,1934.224365 926.895630,1945.420166 
	C927.218567,1943.874878 927.310486,1944.770996 926.917786,1945.116455 
	C918.854614,1952.212524 917.992920,1959.748657 924.272156,1968.742065 
	C926.536438,1971.984985 926.756165,1976.655518 928.138428,1981.474854 
	C934.604187,1981.697632 936.331970,1986.454468 935.915527,1992.942139 
	C935.604492,1997.787354 935.781677,2002.666870 935.379639,2007.500977 
	C935.259888,2008.941162 934.234680,2010.666138 933.088196,2011.608032 
	C905.593933,2034.194458 880.800232,2059.993896 850.856201,2079.691895 
	C831.173462,2092.639893 809.108398,2100.232666 787.833313,2109.627686 
	C779.332764,2113.381348 770.570740,2116.542725 761.209717,2120.071045 
	C756.790527,2107.698242 760.983521,2096.010498 764.092041,2084.228027 
	C766.677307,2074.428711 764.413696,2069.073730 755.771301,2064.726807 
	C753.708374,2063.689209 751.851501,2062.038818 749.687195,2061.443115 
	C742.314941,2059.413330 739.781189,2054.484863 740.263367,2047.294067 
	C740.345703,2046.065552 739.598694,2044.781616 739.179138,2043.330811 
	C736.327209,2042.449829 733.552856,2041.592651 730.772644,2040.733765 
	C730.772644,2035.961792 732.087219,2030.958862 730.393616,2027.379150 
	C728.779907,2023.968262 724.073486,2021.979492 720.641907,2019.481812 
	C717.446106,2017.156006 714.138794,2014.983398 710.073425,2012.188354 
	C710.073425,2009.908813 709.874695,2006.964478 710.112854,2004.055786 
	C710.690674,1996.999146 708.919250,1991.631714 699.401855,1990.738770 
	C701.193298,1988.810669 702.830322,1987.616089 702.645813,1987.162598 
	C699.646729,1979.791626 705.125122,1975.404175 708.096558,1969.945923 
	C710.092468,1966.279419 710.489624,1961.771606 711.898743,1957.744141 
	C712.560120,1955.854004 713.921509,1954.208740 715.487488,1951.574951 
	C713.871460,1943.358032 702.869446,1946.920288 700.138306,1942.040649 
	C700.599365,1936.848755 701.978333,1932.732544 701.071045,1929.204468 
	C699.071594,1921.429565 699.379211,1913.347290 696.622070,1905.537720 
	C695.247864,1901.645264 699.218811,1895.865845 701.056763,1890.036377 
	C699.301697,1885.511353 697.172241,1879.785767 689.551086,1879.862549 
	C685.881714,1873.730347 679.463745,1874.941284 673.824402,1873.553223 
	C667.206970,1871.924561 660.534363,1869.716431 656.451599,1863.235107 
	C652.781982,1857.409668 652.635010,1854.517944 656.559265,1848.888062 
	C657.823364,1847.074707 658.916504,1845.142090 660.473267,1842.646118 
	C652.374756,1837.895142 650.924377,1831.540283 654.072571,1823.448120 
	C654.724182,1821.773193 652.550293,1818.999268 651.370728,1815.930664 
	C656.338013,1814.370972 661.002747,1812.906372 666.522278,1811.173218 
	C665.600708,1806.176636 674.730896,1803.386841 670.496887,1796.163086 
	C667.917664,1796.749512 665.538025,1797.290649 663.164307,1797.830322 
	C662.013062,1789.501831 660.934448,1781.698853 659.764038,1773.231689 
	C648.437256,1768.898560 649.982544,1758.515625 648.617432,1748.782593 
	C637.834412,1743.847290 637.834412,1743.847290 635.278137,1735.401489 
	C632.698303,1736.152466 630.137878,1737.191284 627.481750,1737.585938 
	C624.948730,1737.962280 622.315979,1737.667236 619.032837,1737.667236 
	C619.252991,1734.034424 621.010620,1730.365234 616.943787,1727.151733 
	C611.525940,1722.870850 608.792236,1717.260376 611.570251,1709.611206 
	C613.698547,1703.751587 609.646851,1698.102539 607.289185,1693.110229 
	C606.333069,1691.085571 601.337891,1689.138550 598.174622,1687.206299 
	C581.126221,1676.792725 568.911621,1661.448975 555.555420,1647.226440 
	C553.355774,1644.884155 550.603699,1643.060669 547.622131,1640.596802 
	C550.284546,1638.326660 552.674561,1636.288696 555.804504,1633.619873 
	C552.288757,1630.502319 549.230652,1627.790527 545.780823,1624.731445 
	C546.797729,1623.546265 547.824951,1622.348999 548.883545,1621.115234 
	C547.563110,1620.366577 546.241150,1619.617065 543.672119,1618.160400 
	C546.612305,1611.747803 549.546387,1605.348511 552.626465,1598.630737 
	C549.772095,1594.865479 549.772095,1594.865479 557.289307,1587.781250 
	C552.746521,1583.425537 552.746521,1583.425537 553.912476,1575.467896 
	C540.650696,1568.857910 535.559937,1571.268921 535.327820,1584.553223 
	C531.149353,1588.203003 528.308044,1588.476196 523.020386,1584.104492 
	C515.235107,1577.667480 509.464355,1569.627197 501.896545,1562.187744 
	C517.339783,1555.760010 533.132996,1549.709961 549.117371,1544.215942 
	C554.706604,1542.294678 557.884521,1539.103760 559.846130,1533.625732 
	C566.453796,1515.171875 572.531860,1496.446533 580.577454,1478.621704 
	C584.978638,1468.871094 592.802551,1460.628174 599.303711,1451.869019 
	C625.815125,1416.150146 658.619873,1386.304565 690.062683,1355.215332 
	C698.071960,1347.296143 707.135132,1340.419434 715.917358,1333.315063 
	C720.448059,1329.649902 722.094666,1325.302246 722.214844,1319.511963 
	C722.462463,1307.573853 723.578247,1295.656372 724.051270,1283.718994 
	C724.199646,1279.976440 725.623840,1277.662842 728.695435,1275.605591 
	C741.954712,1266.724609 755.166138,1257.763306 768.168091,1248.512573 
	C771.759766,1245.957153 774.735291,1245.966309 778.189941,1248.096802 
	C781.301880,1250.015869 784.406555,1251.954712 787.597168,1253.736694 
	C793.828613,1257.216431 797.812683,1256.144287 799.789856,1249.333008 
	C801.326355,1244.039917 802.232727,1238.150635 801.620056,1232.729736 
	C800.188965,1220.068237 800.373474,1219.194824 813.056152,1215.906738 
	C813.677612,1215.745728 814.235107,1215.337646 815.767273,1214.573120 
	C815.767273,1207.183594 815.767273,1199.303467 815.767273,1192.160645 
	C817.225586,1191.054688 817.782043,1190.282104 818.240601,1190.336426 
	C829.165161,1191.629028 838.886475,1187.200806 848.675842,1183.623657 
	C853.248901,1181.952637 856.780640,1181.981689 860.695740,1184.918701 
	C867.441650,1189.979126 874.569885,1191.260864 883.190552,1188.904663 
	C888.530090,1187.445312 894.827759,1189.491333 901.535217,1190.123291 
z"/>


</svg>