<svg version="1.1" id="Layer_1" xmlns="http://www.w3.org/2000/svg" xmlns:xlink="http://www.w3.org/1999/xlink" x="0px" y="0px"
	 width="100%" viewBox="0 0 2276 2370" enable-background="new 0 0 2276 2370" xml:space="preserve">


<path 
	data-name="Mbven"
fill="#C1F07A" opacity="1.000000" stroke="none" 
	d="
M1757.204590,1267.492554 
	C1758.842041,1269.975952 1760.403442,1272.513550 1762.129883,1274.933594 
	C1770.044312,1286.027100 1780.986572,1286.913940 1792.062622,1278.867920 
	C1801.577026,1271.956055 1812.291016,1267.469238 1824.775391,1269.320801 
	C1831.988037,1270.390625 1839.153198,1270.723389 1844.414307,1276.943848 
	C1846.043091,1278.869751 1848.728271,1280.769287 1851.117554,1281.043335 
	C1866.186157,1282.771118 1873.104248,1296.247681 1884.058594,1303.814575 
	C1887.307373,1306.058716 1889.017090,1311.801392 1889.688354,1316.206543 
	C1890.677124,1322.694702 1893.989380,1327.215576 1898.670410,1331.082275 
	C1902.160278,1333.965088 1903.573975,1337.351318 1904.665771,1341.869385 
	C1906.351685,1348.844482 1906.091797,1357.286987 1914.067627,1361.540649 
	C1914.956299,1362.014282 1915.479004,1363.741577 1915.623291,1364.952881 
	C1916.625977,1373.371460 1924.792725,1375.841553 1929.272461,1381.354370 
	C1930.005005,1382.255981 1932.385010,1382.097778 1933.968872,1381.975952 
	C1938.541260,1381.624390 1943.152832,1381.338745 1947.643921,1380.478394 
	C1954.201050,1379.222290 1959.850708,1380.310791 1965.525391,1384.119385 
	C1967.834595,1385.669312 1971.818115,1384.854736 1975.041382,1384.875610 
	C1978.260864,1384.896484 1981.482422,1384.616821 1985.186157,1384.446533 
	C1988.178101,1379.158325 1989.178955,1378.778931 1996.099731,1380.923462 
	C2002.567871,1382.927734 2002.567871,1382.927734 2009.188110,1379.623413 
	C2009.334961,1377.884521 2009.668579,1375.932129 2009.635986,1373.985840 
	C2009.443726,1362.555542 2013.936279,1355.642944 2024.913208,1356.771606 
	C2045.731323,1358.911987 2054.442383,1345.652832 2063.181885,1330.840942 
	C2074.624023,1328.709351 2085.295410,1332.571655 2096.081543,1335.795898 
	C2099.546387,1336.831665 2103.087891,1337.860352 2106.662109,1338.219971 
	C2111.390625,1338.695557 2116.135498,1336.822998 2120.432373,1341.515869 
	C2122.233643,1343.483276 2127.373291,1342.394043 2131.349609,1342.723755 
	C2131.698975,1343.837036 2132.073975,1345.031250 2132.573486,1346.622559 
	C2134.882568,1346.799561 2137.929688,1346.269897 2140.002441,1347.450928 
	C2141.473389,1348.288940 2141.628662,1351.436157 2142.333740,1353.445923 
	C2145.568604,1353.673706 2148.837402,1353.999756 2152.113525,1354.108398 
	C2155.603271,1354.224121 2159.099609,1354.134277 2161.929688,1354.134277 
	C2163.477539,1358.776123 2164.752686,1362.600342 2166.487549,1367.803467 
	C2166.168945,1368.252686 2164.717285,1370.299072 2162.684082,1373.165283 
	C2165.504395,1374.404541 2167.628418,1375.337891 2170.283691,1376.504639 
	C2170.076416,1377.886597 2170.331543,1379.800903 2169.515625,1380.962769 
	C2166.760254,1384.885864 2166.886719,1387.619751 2170.905762,1390.929565 
	C2173.797607,1393.311279 2175.403564,1397.253906 2176.950195,1401.154663 
	C2183.865723,1405.840088 2191.761719,1410.795654 2200.473877,1407.379517 
	C2206.841064,1404.882812 2213.423584,1404.576660 2219.174316,1402.416504 
	C2222.480225,1406.805542 2225.458008,1410.759155 2228.509033,1414.810059 
	C2231.101562,1413.869141 2233.423340,1413.026489 2235.592041,1412.239380 
	C2239.383545,1416.977905 2242.944092,1421.201172 2246.193115,1425.651855 
	C2246.981445,1426.731567 2247.144531,1428.629150 2246.905273,1430.033203 
	C2246.069580,1434.943604 2246.810791,1438.892700 2250.705322,1442.676758 
	C2253.876709,1445.757935 2255.359619,1449.767578 2254.661377,1455.076050 
	C2253.894775,1460.904053 2255.614014,1467.058960 2256.281006,1473.367188 
	C2259.919922,1472.676880 2262.763428,1472.137329 2265.794922,1471.562134 
	C2267.583008,1475.076782 2269.233154,1478.320801 2271.314941,1482.413086 
	C2264.447998,1486.441162 2273.041016,1493.448608 2268.491455,1498.975098 
	C2271.903076,1499.963013 2274.447510,1500.699707 2277.496094,1500.718262 
	C2278.000000,1504.741089 2278.000000,1509.482300 2277.188232,1515.251465 
	C2269.097168,1514.297485 2261.915039,1511.686890 2254.506104,1510.544922 
	C2249.208740,1509.728271 2245.671143,1507.594482 2243.938232,1502.889771 
	C2242.372314,1498.637085 2239.289795,1496.861206 2235.373047,1495.340820 
	C2226.466797,1491.884155 2217.565674,1488.344482 2208.947998,1484.239258 
	C2203.373779,1481.584106 2198.304443,1477.869507 2192.554199,1474.351318 
	C2185.920410,1481.571167 2178.165771,1485.269653 2168.577881,1482.567871 
	C2167.545654,1483.984741 2166.838135,1485.110352 2165.981445,1486.107300 
	C2158.444336,1494.876831 2157.013672,1495.448486 2146.409668,1491.258301 
	C2136.552002,1487.363159 2126.936035,1482.858643 2117.150146,1478.775024 
	C2115.381592,1478.037109 2113.238770,1477.539795 2111.381592,1477.785400 
	C2103.948730,1478.768555 2096.560303,1480.088379 2088.600586,1481.373169 
	C2089.598633,1484.616943 2090.599121,1487.727417 2091.512939,1490.863281 
	C2094.480469,1501.049194 2098.371826,1511.079102 2100.168457,1521.469727 
	C2104.113770,1544.286499 2106.924316,1567.297852 2110.362305,1590.205322 
	C2111.097412,1595.103027 2112.768799,1599.855591 2113.600586,1604.744507 
	C2118.106689,1631.224609 2122.259766,1657.766235 2126.968018,1684.209595 
	C2131.856201,1711.664185 2138.368164,1738.872559 2136.466064,1767.135742 
	C2136.079102,1772.886230 2135.396484,1778.119629 2132.625732,1783.331543 
	C2125.144287,1797.404663 2117.878174,1811.607422 2111.046387,1826.005249 
	C2106.657715,1835.254028 2101.989746,1844.639526 2103.666260,1855.504883 
	C2104.379883,1860.129272 2102.361572,1863.846313 2099.858887,1867.523682 
	C2096.124023,1873.012207 2092.618652,1878.657837 2089.053711,1884.260986 
	C2083.712891,1892.655273 2078.358398,1901.041626 2073.119629,1909.499390 
	C2071.951416,1911.385498 2070.785156,1913.474365 2070.407227,1915.609497 
	C2069.425781,1921.154907 2068.863770,1926.775391 2068.170166,1932.370361 
	C2066.936768,1942.320312 2068.314209,1951.301636 2076.044678,1958.802734 
	C2080.544189,1963.168457 2083.696289,1968.902710 2088.086670,1973.404907 
	C2095.518311,1981.026123 2099.385742,1989.614868 2097.692139,2000.356567 
	C2097.538330,2001.332275 2097.675781,2002.353149 2097.670898,2003.353027 
	C2097.615234,2015.013794 2097.023438,2015.911743 2085.439453,2016.210205 
	C2080.152344,2016.346313 2077.641846,2018.657349 2076.341797,2023.406128 
	C2072.493408,2037.464355 2068.350098,2051.444336 2064.710205,2065.555176 
	C2063.854736,2068.871582 2062.409424,2070.441895 2059.379395,2071.852783 
	C2047.929321,2077.184326 2036.665527,2082.917480 2025.340576,2088.517334 
	C2019.176758,2091.565430 2014.496338,2096.024902 2011.565063,2102.376221 
	C2007.805298,2110.522461 2003.823853,2118.520020 2004.285522,2127.899170 
	C2004.623169,2134.756104 2001.510620,2139.675537 1995.908569,2143.834961 
	C1986.577637,2150.762939 1977.265137,2157.880127 1968.956543,2165.958252 
	C1964.074463,2170.705078 1959.198242,2172.319336 1952.982666,2171.635254 
	C1950.356934,2171.346191 1947.772949,2170.685547 1945.148438,2170.376953 
	C1938.511597,2169.596680 1932.930298,2170.604492 1928.949219,2177.147461 
	C1922.966553,2186.979980 1913.432983,2192.270996 1902.598755,2195.411133 
	C1900.045776,2196.151123 1897.317505,2196.568115 1894.991333,2197.760742 
	C1883.152344,2203.830078 1869.143188,2206.510986 1862.106567,2220.051270 
	C1859.881348,2224.333740 1855.512451,2227.477295 1852.257324,2231.256348 
	C1849.463745,2234.499512 1846.238647,2235.925293 1841.801880,2235.779297 
	C1835.165649,2235.561035 1828.493408,2236.447510 1821.856689,2236.234863 
	C1810.590332,2235.873779 1799.340942,2235.000000 1788.081421,2234.397461 
	C1786.133057,2234.293213 1783.401855,2233.643066 1782.337769,2234.639404 
	C1775.178833,2241.343750 1765.158813,2239.059814 1757.130005,2242.976074 
	C1755.660522,2243.692871 1752.758301,2242.447266 1750.968628,2241.363281 
	C1743.291260,2236.713135 1735.822632,2231.719482 1728.183716,2227.003906 
	C1726.277344,2225.827148 1724.078247,2224.673096 1721.912964,2224.438965 
	C1706.440674,2222.763916 1690.946899,2221.278809 1675.450684,2219.832764 
	C1660.578369,2218.444824 1645.640137,2216.734375 1631.438354,2223.397705 
	C1628.579224,2224.739258 1625.504639,2226.145752 1623.325317,2228.320068 
	C1614.455200,2237.169434 1606.014893,2246.342285 1602.990356,2259.174561 
	C1602.247559,2262.326172 1600.622192,2265.580322 1598.527222,2268.042480 
	C1592.874023,2274.686035 1592.278564,2283.362549 1594.928101,2289.739014 
	C1598.813477,2299.089600 1595.434326,2307.275635 1595.140015,2315.952637 
	C1595.084595,2317.588623 1594.489624,2319.200928 1594.358765,2320.841309 
	C1593.304443,2334.059814 1588.870117,2345.378662 1576.844482,2352.535645 
	C1569.434937,2356.945068 1564.272827,2362.866943 1564.000000,2372.000000 
	C1561.866577,2372.000000 1559.733276,2372.000000 1556.924561,2371.269043 
	C1550.698608,2358.809814 1548.063965,2356.804199 1535.691406,2357.856689 
	C1530.220215,2358.322266 1525.920898,2357.754639 1522.637817,2353.175049 
	C1518.137939,2346.897949 1512.035522,2344.568604 1504.453247,2345.621582 
	C1502.849731,2345.843994 1501.169556,2345.514648 1499.386475,2345.433350 
	C1495.223145,2339.729248 1491.469849,2333.835449 1486.939697,2328.616211 
	C1483.288574,2324.409668 1481.101196,2319.753662 1480.727783,2314.469971 
	C1480.065186,2305.096680 1475.032959,2297.800537 1470.981079,2290.400391 
	C1461.141724,2289.100586 1452.021362,2287.320068 1442.837280,2286.884521 
	C1436.675659,2286.592529 1434.128174,2283.472900 1431.966309,2278.586670 
	C1429.418213,2272.827148 1426.609863,2267.163818 1423.590454,2261.635742 
	C1417.962524,2251.331787 1407.370850,2246.484619 1398.167480,2249.724365 
	C1387.332520,2253.539062 1385.654053,2252.883057 1380.868042,2242.180420 
	C1378.178101,2236.165771 1376.633545,2229.513428 1370.568481,2224.634766 
	C1369.214355,2217.244385 1370.966919,2211.382812 1374.741943,2205.971680 
	C1375.875977,2204.345947 1376.945068,2202.601074 1377.647705,2200.759766 
	C1382.454102,2188.163818 1390.414917,2177.457275 1398.458008,2166.919189 
	C1404.075195,2159.559082 1407.501709,2151.569824 1409.328491,2142.656738 
	C1410.922607,2134.879639 1412.372803,2127.046875 1414.512207,2119.414062 
	C1416.808838,2111.219971 1416.189209,2103.650879 1411.618408,2096.487793 
	C1405.729004,2087.258545 1400.031494,2077.888916 1393.731567,2068.945557 
	C1388.932739,2062.133057 1388.621704,2055.609375 1392.490845,2048.458008 
	C1394.637695,2044.489380 1396.420898,2040.323975 1398.381104,2036.220459 
	C1381.348999,2029.088135 1381.352661,2029.086304 1372.813232,2012.063965 
	C1371.471313,2009.388794 1370.434937,2006.455566 1368.607300,2004.158813 
	C1366.823853,2001.917480 1364.485352,1999.400024 1361.907593,1998.638428 
	C1352.751099,1995.932495 1343.390137,1993.917114 1334.103516,1991.653076 
	C1322.723511,1988.878662 1316.983154,1977.789062 1320.455200,1966.781006 
	C1321.901855,1962.194214 1322.788940,1956.725586 1321.716919,1952.180054 
	C1318.308960,1937.729858 1315.698120,1923.012817 1308.122314,1909.751709 
	C1302.873291,1900.563354 1298.598145,1890.916260 1301.542480,1879.479370 
	C1302.637817,1875.224854 1301.125732,1870.299072 1300.801270,1865.679321 
	C1300.522583,1861.714844 1299.486572,1857.627808 1300.107178,1853.809814 
	C1301.782104,1843.505249 1300.022339,1834.240723 1294.079102,1825.288452 
	C1304.959595,1808.516479 1315.362671,1792.258667 1326.038086,1776.181641 
	C1340.576782,1754.286743 1350.657349,1730.888428 1354.305298,1704.517456 
	C1357.261230,1683.150146 1361.080078,1661.752441 1366.613037,1640.925293 
	C1375.663086,1606.859375 1386.322388,1573.217529 1396.563599,1539.475830 
	C1397.978394,1534.814453 1400.354736,1530.229736 1403.187744,1526.251953 
	C1414.392212,1510.519775 1426.028687,1495.096313 1437.362793,1479.455444 
	C1446.333862,1467.075684 1455.096680,1454.545410 1464.527588,1441.731567 
	C1483.510132,1416.085938 1501.821289,1390.720093 1520.423950,1365.569824 
	C1523.300415,1361.681030 1527.008667,1357.862671 1531.186646,1355.566040 
	C1570.849487,1333.763794 1610.651855,1312.212769 1650.547363,1290.838623 
	C1655.728149,1288.063110 1661.519287,1285.976318 1667.278687,1284.816650 
	C1683.883301,1281.472778 1700.645386,1278.919800 1717.289795,1275.761353 
	C1730.637085,1273.228638 1743.902710,1270.265015 1757.204590,1267.492554 
z"/>

<path 
	data-name="Oku"
fill="#E25AFA" opacity="1.000000" stroke="none" 
	d="
M458.398621,1934.408325 
	C451.542725,1932.166748 444.803192,1929.385132 437.789886,1927.874268 
	C433.130615,1926.870605 430.065552,1925.030762 427.628571,1920.979980 
	C423.542511,1914.188110 419.444244,1907.285400 414.377075,1901.246582 
	C411.366486,1897.658691 406.733093,1895.125244 402.380341,1893.067505 
	C398.854523,1891.400757 397.724396,1888.760132 396.615723,1885.604492 
	C394.780151,1880.379395 392.791290,1875.208130 391.027435,1870.447266 
	C380.502014,1869.544067 372.622620,1871.865845 366.910828,1879.585083 
	C366.125702,1880.646118 364.777618,1881.691772 364.700256,1882.814209 
	C363.771820,1896.287842 352.656006,1904.613892 347.925049,1916.199463 
	C345.230835,1922.797119 339.504303,1925.962524 331.910339,1925.792114 
	C327.338409,1925.689453 322.753143,1927.053467 318.146942,1927.389282 
	C312.190735,1927.823853 306.177490,1928.377197 300.242706,1928.009644 
	C289.136993,1927.321777 278.796814,1929.657593 268.112885,1932.623291 
	C258.456512,1935.303711 247.825958,1935.532715 237.692307,1935.133667 
	C227.856934,1934.746216 218.055130,1932.444824 208.335938,1930.497925 
	C200.290741,1928.886353 198.282333,1935.128296 194.527573,1940.815063 
	C186.683014,1939.667480 178.587524,1938.565308 170.522308,1937.273926 
	C165.323380,1936.441650 160.200867,1935.079346 154.985306,1934.418701 
	C150.017471,1933.789551 147.901672,1930.851929 147.888092,1926.387817 
	C147.862747,1918.042725 146.632645,1910.039307 144.465103,1901.909790 
	C142.882919,1895.975586 143.866135,1889.157959 148.446228,1884.057617 
	C155.689621,1875.991455 159.055023,1867.012207 157.928894,1855.936035 
	C157.409836,1850.830688 159.516495,1845.492188 160.158905,1840.226196 
	C160.916306,1834.017334 160.756699,1828.041504 153.190292,1825.654053 
	C153.550522,1821.516968 153.980423,1817.924194 154.134979,1814.319580 
	C154.233582,1812.019043 154.829346,1808.937256 153.638107,1807.526367 
	C149.063065,1802.108154 148.850525,1795.475464 147.037262,1789.199585 
	C145.730652,1784.677124 145.746048,1781.033569 147.714615,1776.822021 
	C150.904099,1769.998535 152.999649,1762.839233 160.449493,1758.702881 
	C165.306778,1756.005859 166.991470,1750.212036 167.376129,1744.930298 
	C168.161087,1734.151855 173.729904,1727.711304 183.232910,1723.150757 
	C192.926483,1718.498657 200.788757,1711.148926 207.078659,1702.401733 
	C209.567474,1698.940674 211.474396,1694.966675 213.076096,1690.996216 
	C214.102051,1688.452759 214.867661,1686.718018 217.791351,1685.403564 
	C222.956039,1683.081543 225.308228,1678.115356 225.606216,1672.490479 
	C225.834930,1668.173340 226.602173,1663.552002 225.440475,1659.557251 
	C222.230499,1648.519165 225.487991,1637.704712 226.206009,1626.948486 
	C226.794144,1618.138184 224.834274,1610.896729 218.774002,1605.695679 
	C201.530884,1590.897583 189.140320,1573.087036 179.528061,1552.494385 
	C174.044067,1540.745972 165.094711,1530.624634 158.737152,1518.981323 
	C155.446289,1512.954346 149.290085,1507.028198 140.950912,1505.740234 
	C139.584808,1505.529297 138.473236,1503.670288 136.646637,1502.184814 
	C135.880646,1497.920654 135.712082,1494.044800 135.760910,1489.374023 
	C140.675781,1478.822998 144.933685,1468.821655 150.199921,1459.382935 
	C155.031982,1450.722290 163.354904,1446.387451 173.107712,1445.822998 
	C178.666840,1445.501099 184.368927,1446.302246 189.903793,1447.218750 
	C198.622742,1448.662476 207.109283,1449.883911 214.085007,1442.586304 
	C214.532593,1442.118164 215.127289,1441.665527 215.734879,1441.494263 
	C225.151825,1438.841797 230.550568,1433.363037 228.035721,1422.227417 
	C245.279083,1423.395020 260.790253,1426.391357 273.879608,1437.507446 
	C280.056335,1423.368652 286.016113,1409.287720 292.370422,1395.387207 
	C295.079834,1389.460205 294.200104,1383.832031 292.875854,1377.907593 
	C291.509399,1371.794189 291.066467,1365.450928 289.409393,1359.431152 
	C286.767303,1349.833008 291.418091,1341.210083 292.321228,1332.108765 
	C292.469482,1330.614868 293.855377,1329.208496 294.774902,1327.832153 
	C300.022705,1319.977173 299.922882,1319.171997 291.780029,1311.516113 
	C294.343719,1306.278198 296.515839,1300.330322 299.938507,1295.220215 
	C304.465179,1288.462036 312.004425,1286.399780 319.418671,1288.006592 
	C334.265961,1291.224609 349.135101,1289.450073 363.990906,1289.625977 
	C378.195465,1289.794312 390.497894,1284.423828 400.881866,1275.062500 
	C403.271362,1272.908325 403.882263,1268.781494 405.769714,1264.530884 
	C406.554810,1264.221069 408.555664,1262.605835 410.142914,1262.942261 
	C418.911530,1264.800537 424.731506,1256.956055 432.709717,1256.417847 
	C433.412384,1256.370361 434.027161,1255.019531 436.043213,1254.022583 
	C443.177734,1255.215210 448.998840,1258.030029 454.716614,1257.833740 
	C469.011475,1257.343018 482.472565,1260.249634 495.611664,1265.219727 
	C499.549866,1266.709473 503.262604,1269.018188 506.751923,1271.425293 
	C513.966980,1276.402344 519.431824,1282.948608 523.926758,1290.542725 
	C529.683899,1300.269531 535.844910,1309.784790 542.346436,1319.029419 
	C544.907532,1322.671143 548.434021,1326.045288 552.248901,1328.320679 
	C566.526794,1336.836426 581.070801,1344.909912 595.588440,1353.017700 
	C601.674133,1356.416260 608.001282,1359.380371 614.115906,1362.729614 
	C623.120605,1367.662109 632.673218,1371.904297 640.836365,1377.991089 
	C653.368530,1387.335449 667.261475,1393.517822 681.976501,1397.603027 
	C693.098755,1400.690796 704.843811,1403.464722 716.239075,1403.204224 
	C735.098450,1402.773193 753.886108,1399.638550 772.730530,1397.937012 
	C782.270264,1397.075684 791.943237,1395.900391 801.416199,1396.645264 
	C809.282776,1397.263794 816.536377,1396.551636 824.413574,1394.385498 
	C826.642090,1395.894043 828.323730,1396.972656 829.885315,1398.203369 
	C834.643250,1401.952759 835.164490,1404.022217 832.320190,1409.157959 
	C831.207764,1411.166626 829.177612,1412.717651 828.288025,1414.787842 
	C826.756836,1418.351074 824.275208,1422.433350 824.888550,1425.807739 
	C826.407532,1434.164429 824.001282,1440.444824 818.784119,1446.765625 
	C814.315430,1452.179565 815.488770,1456.873291 820.866821,1461.436768 
	C824.908508,1464.866211 829.235107,1468.036255 832.825562,1471.889404 
	C834.656555,1473.854370 836.190918,1477.119141 836.066345,1479.710205 
	C835.449890,1492.532715 837.958252,1504.643677 842.001709,1516.754517 
	C845.183472,1526.284424 843.350891,1528.444824 834.876221,1533.521484 
	C829.860474,1536.526123 825.265564,1540.429077 821.032837,1544.501099 
	C813.901123,1551.362183 807.889221,1559.565552 800.122559,1565.533813 
	C793.477173,1570.640381 790.059021,1576.518188 788.418762,1584.291504 
	C787.616333,1588.094482 786.584167,1592.297852 784.277893,1595.239746 
	C779.726440,1601.045654 776.425964,1607.304932 773.410767,1614.258667 
	C762.350891,1616.000366 754.744141,1621.763916 747.521912,1629.158569 
	C732.867493,1644.162476 717.517395,1658.493652 702.276367,1672.914185 
	C697.837402,1677.114380 694.162476,1681.518555 692.233521,1687.461060 
	C691.357971,1690.158325 689.739563,1693.366455 687.483765,1694.724731 
	C680.279175,1699.063110 678.065857,1705.563965 677.924500,1713.255127 
	C677.813538,1719.295898 675.786743,1724.444824 670.881042,1728.005005 
	C659.596130,1736.194580 648.284912,1744.361938 636.706543,1752.124023 
	C633.540405,1754.246582 629.484192,1755.355103 625.673950,1756.143677 
	C614.531494,1758.449463 606.136658,1763.853271 601.556458,1774.740112 
	C597.686401,1783.938965 593.236938,1792.893066 589.103210,1801.982544 
	C586.693970,1807.280151 583.195312,1810.150635 576.844727,1810.190430 
	C564.886963,1810.265259 552.939331,1811.331421 540.978699,1811.707642 
	C523.712280,1812.250854 512.020630,1824.006226 511.731415,1841.393921 
	C511.692719,1843.718872 512.138611,1846.290039 511.317383,1848.326538 
	C504.615143,1864.946533 498.262238,1881.748657 490.615814,1897.934570 
	C483.498840,1912.999878 469.822296,1922.835449 458.398621,1934.408325 
z"/>
<path 
	data-name="Noni"
fill="#994636" opacity="1.000000" stroke="none" 
	d="
M823.811829,1394.025024 
	C816.536377,1396.551636 809.282776,1397.263794 801.416199,1396.645264 
	C791.943237,1395.900391 782.270264,1397.075684 772.730530,1397.937012 
	C753.886108,1399.638550 735.098450,1402.773193 716.239075,1403.204224 
	C704.843811,1403.464722 693.098755,1400.690796 681.976501,1397.603027 
	C667.261475,1393.517822 653.368530,1387.335449 640.836365,1377.991089 
	C632.673218,1371.904297 623.120605,1367.662109 614.115906,1362.729614 
	C608.001282,1359.380371 601.674133,1356.416260 595.588440,1353.017700 
	C581.070801,1344.909912 566.526794,1336.836426 552.248901,1328.320679 
	C548.434021,1326.045288 544.907532,1322.671143 542.346436,1319.029419 
	C535.844910,1309.784790 529.683899,1300.269531 523.926758,1290.542725 
	C519.431824,1282.948608 513.966980,1276.402344 506.751923,1271.425293 
	C503.262604,1269.018188 499.549866,1266.709473 495.611664,1265.219727 
	C482.472565,1260.249634 469.011475,1257.343018 454.716614,1257.833740 
	C448.998840,1258.030029 443.177734,1255.215210 436.623108,1253.550171 
	C437.350830,1247.209961 434.744507,1243.228271 429.514465,1240.216919 
	C423.239594,1236.604248 417.314301,1232.899780 412.884308,1226.477417 
	C410.588593,1223.149292 404.307953,1222.569946 398.565796,1220.235718 
	C396.723755,1214.330811 394.142334,1207.208374 392.337830,1199.894409 
	C390.973267,1194.363647 391.511749,1188.867065 394.048737,1183.381470 
	C397.389526,1176.157837 400.068665,1168.601440 402.636108,1161.053467 
	C406.103119,1150.860718 403.255310,1144.143311 392.962616,1137.609985 
	C387.008698,1141.111084 381.306549,1146.773315 372.739777,1142.788696 
	C371.307770,1135.520020 367.898956,1129.047485 362.771973,1123.077393 
	C358.111267,1117.650391 357.943512,1110.190674 358.199524,1103.298340 
	C358.262421,1101.604614 361.460480,1099.438599 363.647491,1098.556396 
	C366.610443,1097.361206 369.988190,1097.194458 372.874176,1096.646118 
	C373.472107,1094.907715 373.957092,1094.001587 374.085297,1093.047729 
	C375.541229,1082.214844 378.354645,1079.947876 388.806122,1081.838745 
	C395.208954,1082.997437 400.622955,1082.051392 404.847290,1076.580444 
	C406.664764,1074.226685 409.133423,1072.387939 411.144928,1070.169067 
	C414.672241,1066.277832 418.712494,1063.812744 424.228943,1064.170654 
	C430.652649,1064.587280 435.217560,1061.679077 437.312286,1055.587524 
	C439.728088,1048.562256 444.191376,1043.846680 450.886688,1040.488037 
	C457.044312,1037.399292 457.564056,1034.252686 454.689667,1027.160278 
	C452.996429,1022.982483 449.825928,1019.029175 452.845215,1014.396851 
	C453.492889,1014.168640 453.859833,1013.891663 454.113525,1013.972107 
	C457.835571,1015.151611 461.920380,1018.045044 465.187225,1017.304321 
	C478.855286,1014.204834 493.107849,1017.949097 506.631500,1012.895081 
	C512.433777,1010.726685 516.660645,1007.928284 518.705688,1002.176392 
	C521.643005,993.914795 525.940063,986.757263 532.434814,980.567078 
	C542.145874,971.311218 544.064697,958.511475 545.987854,945.981079 
	C546.942444,939.761658 547.969788,933.476013 548.021423,927.212585 
	C548.110474,916.395874 553.653442,909.701111 563.220398,906.410828 
	C571.208374,903.663635 574.551453,898.278687 576.037598,890.435852 
	C577.065491,885.011841 579.994507,879.952942 581.071716,874.531738 
	C581.953369,870.094421 582.336182,865.092712 581.163086,860.830261 
	C579.699768,855.513428 580.948547,851.863953 584.435059,848.209839 
	C586.952271,845.571594 588.968628,842.426758 591.626160,839.957520 
	C596.362671,835.556641 595.904663,830.697998 593.694153,825.441040 
	C591.774841,820.876526 589.893433,816.296082 587.939697,811.588684 
	C593.345886,805.932190 599.955811,803.664917 606.725708,802.393005 
	C612.460510,801.315552 614.728943,798.662231 614.269897,792.948547 
	C613.473694,783.037598 613.281128,773.068848 612.215454,763.191223 
	C610.964905,751.600525 612.007202,740.653259 618.534729,730.658630 
	C621.629272,725.920288 624.517334,721.320129 623.793396,715.031799 
	C623.212830,709.988647 627.012146,706.894287 631.568054,706.175781 
	C645.266663,704.015503 656.295776,696.484680 667.322327,688.998596 
	C674.381531,684.205994 682.239380,683.871338 691.448975,683.657654 
	C692.196655,679.796631 693.424011,675.756775 693.663086,671.659241 
	C693.984070,666.158203 696.248352,661.660889 700.727295,659.151550 
	C708.509705,654.791565 716.594360,650.854187 724.868469,647.525330 
	C731.645142,644.798889 733.417603,645.754456 737.548889,651.404297 
	C740.491882,655.429077 743.340637,659.524353 746.164429,663.634277 
	C748.463745,666.980896 750.671204,670.098450 755.509705,670.086609 
	C757.105957,670.082703 759.239075,671.611389 760.210510,673.055542 
	C763.816101,678.415894 768.918030,681.268860 774.992798,682.408325 
	C782.768311,683.866943 790.582092,685.428406 798.445923,685.959534 
	C801.623291,686.174133 804.976624,683.782532 809.431519,682.141724 
	C809.831360,695.616516 817.026367,708.667358 806.707092,721.456970 
	C807.023926,726.546692 809.681030,728.797852 815.215393,727.206787 
	C817.121643,726.658691 819.053833,726.144409 821.009094,725.835266 
	C825.198669,725.172913 828.115234,726.859497 829.573547,730.890137 
	C830.930969,734.641846 832.613770,738.323425 833.498901,742.185913 
	C834.545288,746.752319 837.158081,749.079224 841.260315,747.009460 
	C849.605835,742.798889 858.111572,745.397644 866.559265,745.362061 
	C870.313904,745.346252 872.425293,747.555298 874.332886,750.643860 
	C877.630249,755.982788 881.653503,760.874268 884.934631,766.221924 
	C887.462463,770.341797 889.319275,774.873291 891.899475,780.079407 
	C899.747681,783.492981 908.705200,787.389038 918.490295,791.645020 
	C920.558472,789.655579 923.021423,786.591919 926.133850,784.490112 
	C929.178833,782.433716 932.886047,781.358093 937.192627,781.260193 
	C935.629700,783.641296 934.066711,786.022400 933.041870,787.583801 
	C935.578491,795.619263 937.791321,803.054626 940.333557,810.375610 
	C940.949097,812.148254 942.324585,814.146973 943.911438,815.006470 
	C950.275146,818.453552 954.030823,824.202209 958.566406,829.492859 
	C964.084839,835.930054 970.442444,842.474609 980.813599,838.222595 
	C983.071899,837.296753 986.086609,838.080627 988.738342,838.274963 
	C996.326416,838.831360 999.706665,841.853088 1000.089905,849.397583 
	C1000.375671,855.023987 1000.618286,860.902954 999.335144,866.302368 
	C997.193176,875.316040 999.177490,883.692993 1002.766907,891.395386 
	C1005.332764,896.901184 1005.740906,902.060059 1005.649292,907.738098 
	C1005.587341,911.572693 1005.558350,915.649231 1006.740234,919.210938 
	C1009.036743,926.131714 1012.221619,932.755798 1014.983582,939.525146 
	C1015.984802,941.979065 1017.503357,944.463318 1017.629761,946.991455 
	C1018.229309,958.982666 1025.233276,967.857605 1031.887573,978.419922 
	C1029.064209,989.174988 1026.178589,998.663757 1022.803162,1007.974854 
	C1020.361877,1014.709045 1015.193481,1018.455933 1008.158630,1020.185425 
	C1001.750366,1021.760803 995.475220,1023.953491 989.251465,1026.181396 
	C983.341187,1028.296875 977.658997,1031.060669 971.722839,1033.089966 
	C963.094299,1036.039551 960.864807,1037.477051 962.510193,1046.708374 
	C964.523560,1058.004028 967.971741,1069.229248 972.285217,1079.883423 
	C977.902100,1093.757202 985.211853,1106.958862 981.439453,1122.766968 
	C979.594666,1130.497192 976.478210,1138.340698 976.686340,1146.058716 
	C977.143066,1162.991455 959.603027,1167.583374 954.811768,1180.593994 
	C954.642334,1181.054199 953.704407,1181.278442 953.088196,1181.519531 
	C947.575500,1183.677002 945.591370,1188.463989 946.103699,1193.534668 
	C946.716064,1199.595581 944.339905,1203.825684 940.350891,1207.558105 
	C933.551514,1213.920166 931.001709,1221.733154 931.791626,1230.831421 
	C931.820251,1231.161621 931.799316,1231.497070 931.789001,1231.829712 
	C931.561096,1239.181274 929.326904,1244.900391 922.419983,1249.218750 
	C912.233154,1255.587891 902.835754,1263.352539 899.182678,1275.600342 
	C894.753784,1290.448730 883.727173,1300.046753 872.848206,1309.831299 
	C869.884888,1312.496582 866.946289,1315.213379 863.783630,1317.627930 
	C858.350647,1321.776123 855.925781,1327.334595 855.012817,1334.390137 
	C852.235352,1337.623169 849.997192,1340.506836 847.543823,1343.193848 
	C839.031494,1352.516968 830.366211,1361.701416 821.914124,1371.078369 
	C816.500427,1377.084473 816.328918,1383.355957 820.980347,1389.966919 
	C821.929504,1391.315918 822.868286,1392.672119 823.811829,1394.025024 
z"/>
<path 
	data-name="Nkum"
fill="#3A79A6" opacity="1.000000" stroke="none" 
	d="
M855.453491,1333.950806 
	C855.925781,1327.334595 858.350647,1321.776123 863.783630,1317.627930 
	C866.946289,1315.213379 869.884888,1312.496582 872.848206,1309.831299 
	C883.727173,1300.046753 894.753784,1290.448730 899.182678,1275.600342 
	C902.835754,1263.352539 912.233154,1255.587891 922.419983,1249.218750 
	C929.326904,1244.900391 931.561096,1239.181274 931.789001,1231.829712 
	C931.799316,1231.497070 931.820251,1231.161621 931.791626,1230.831421 
	C931.001709,1221.733154 933.551514,1213.920166 940.350891,1207.558105 
	C944.339905,1203.825684 946.716064,1199.595581 946.103699,1193.534668 
	C945.591370,1188.463989 947.575500,1183.677002 953.088196,1181.519531 
	C953.704407,1181.278442 954.642334,1181.054199 954.811768,1180.593994 
	C959.603027,1167.583374 977.143066,1162.991455 976.686340,1146.058716 
	C976.478210,1138.340698 979.594666,1130.497192 981.439453,1122.766968 
	C985.211853,1106.958862 977.902100,1093.757202 972.285217,1079.883423 
	C967.971741,1069.229248 964.523560,1058.004028 962.510193,1046.708374 
	C960.864807,1037.477051 963.094299,1036.039551 971.722839,1033.089966 
	C977.658997,1031.060669 983.341187,1028.296875 989.251465,1026.181396 
	C995.475220,1023.953491 1001.750366,1021.760803 1008.158630,1020.185425 
	C1015.193481,1018.455933 1020.361877,1014.709045 1022.803162,1007.974854 
	C1026.178589,998.663757 1029.064209,989.174988 1032.281250,979.014832 
	C1041.970581,976.233337 1049.460938,971.267761 1054.608765,962.823059 
	C1060.732422,952.777649 1071.007324,947.560913 1080.285522,941.259766 
	C1084.656738,938.291138 1088.842407,938.816528 1092.487549,943.521423 
	C1095.925659,947.958923 1099.742310,948.662292 1104.698853,947.805054 
	C1113.144531,946.344299 1120.245605,943.252502 1125.564331,935.826843 
	C1134.870972,922.833679 1164.944702,915.476318 1179.310791,923.648010 
	C1192.476807,931.136963 1207.478394,935.205994 1222.777222,936.389282 
	C1228.881348,936.861450 1235.047852,935.008911 1240.557983,939.589905 
	C1241.614258,940.468079 1244.908813,939.139221 1246.932129,938.272156 
	C1251.706299,936.226379 1255.771729,937.166016 1260.908203,938.260986 
	C1272.675903,940.769470 1278.116455,948.277344 1282.192261,958.045105 
	C1284.334839,963.179749 1286.094238,968.475281 1288.268433,973.595459 
	C1289.798584,977.198914 1291.216553,981.047607 1293.619751,984.034424 
	C1296.857178,988.058167 1296.509521,991.107849 1292.981323,994.381531 
	C1283.003784,1003.639160 1278.607666,1017.560974 1266.776611,1025.441528 
	C1264.521484,1026.943604 1264.166992,1031.299072 1263.401123,1033.189209 
	C1267.973022,1039.792114 1271.708618,1045.557129 1275.868530,1050.997803 
	C1277.357422,1052.945190 1279.666748,1054.846436 1281.958740,1055.483032 
	C1287.396851,1056.993164 1291.380371,1059.938354 1294.471313,1064.586670 
	C1300.282715,1073.326050 1310.132568,1076.672974 1318.661377,1081.562988 
	C1321.106323,1082.964844 1325.629395,1081.346680 1328.991089,1080.384644 
	C1332.783691,1079.299316 1336.221802,1076.933960 1340.026978,1075.943359 
	C1346.748047,1074.193604 1353.147949,1073.974609 1356.925415,1081.779663 
	C1358.938721,1085.939331 1363.244263,1086.058838 1367.335449,1086.302612 
	C1372.262207,1086.596191 1377.174438,1087.559082 1382.087280,1087.518921 
	C1385.929932,1087.487305 1390.066284,1087.072998 1393.537720,1085.583374 
	C1400.447876,1082.617920 1407.414917,1081.398682 1414.890991,1081.659180 
	C1426.306274,1082.057007 1431.888062,1086.526001 1433.628540,1097.781982 
	C1434.131348,1101.033447 1433.423828,1104.656006 1438.653198,1105.823364 
	C1439.624634,1104.632568 1441.027832,1103.331421 1441.916138,1101.742554 
	C1444.247314,1097.573120 1447.574097,1096.613159 1452.014893,1097.780518 
	C1456.821167,1099.043579 1461.513916,1099.322144 1466.638672,1098.208740 
	C1474.831787,1096.428833 1482.571899,1099.355103 1489.237793,1104.021729 
	C1499.035400,1110.880737 1508.495605,1111.983765 1518.692261,1104.942261 
	C1523.875488,1101.362793 1529.774048,1098.827637 1535.015991,1095.322388 
	C1539.845947,1092.092773 1543.712402,1092.194946 1548.486938,1095.772705 
	C1561.614868,1105.609741 1561.855225,1105.545898 1574.754639,1095.761475 
	C1578.577148,1092.862183 1581.925171,1092.128296 1586.658447,1093.490356 
	C1593.375122,1095.423096 1599.420044,1097.845093 1605.496094,1101.694580 
	C1614.039795,1107.107300 1624.084473,1110.153442 1633.500122,1114.181885 
	C1634.409302,1114.570923 1635.414185,1114.731079 1636.364868,1115.028809 
	C1652.438965,1120.063843 1652.778931,1119.998413 1656.086548,1136.872803 
	C1657.307983,1143.103271 1661.742676,1146.386230 1665.120239,1150.767456 
	C1670.378296,1157.588257 1674.967407,1165.038086 1680.911621,1171.184814 
	C1686.927246,1177.405396 1691.158569,1184.625000 1693.236328,1192.485596 
	C1695.292847,1200.265259 1700.447632,1203.826416 1706.762085,1205.536865 
	C1714.924316,1207.747681 1721.986938,1210.342041 1724.548828,1219.321411 
	C1735.745239,1225.790161 1737.589844,1239.596191 1747.072021,1247.804077 
	C1751.945923,1252.022827 1753.734741,1259.806030 1757.061035,1266.735596 
	C1743.902710,1270.265015 1730.637085,1273.228638 1717.289795,1275.761353 
	C1700.645386,1278.919800 1683.883301,1281.472778 1667.278687,1284.816650 
	C1661.519287,1285.976318 1655.728149,1288.063110 1650.547363,1290.838623 
	C1610.651855,1312.212769 1570.849487,1333.763794 1531.186646,1355.566040 
	C1527.008667,1357.862671 1523.300415,1361.681030 1520.423950,1365.569824 
	C1501.821289,1390.720093 1483.510132,1416.085938 1463.760010,1441.626465 
	C1434.259888,1434.237671 1406.128174,1426.509033 1377.940796,1418.989380 
	C1325.406372,1404.974731 1272.967529,1390.572510 1220.240601,1377.319580 
	C1185.894043,1368.686646 1151.132324,1361.689453 1116.508301,1354.182983 
	C1102.605713,1351.168823 1088.678101,1347.612427 1074.576904,1346.318359 
	C1050.163940,1344.077881 1025.607788,1343.394653 1001.110229,1342.085083 
	C988.197449,1341.394775 975.286438,1340.643555 962.366211,1340.128784 
	C941.798645,1339.309082 921.221069,1338.741577 900.653687,1337.918335 
	C887.068726,1337.374512 873.491089,1336.622925 859.919617,1335.806519 
	C858.399170,1335.715088 856.940735,1334.594238 855.453491,1333.950806 
z"/>
<path 
	data-name="Jakiri"
fill="#72F7E8" opacity="1.000000" stroke="none" 
	d="
M458.711731,1934.960938 
	C469.822296,1922.835449 483.498840,1912.999878 490.615814,1897.934570 
	C498.262238,1881.748657 504.615143,1864.946533 511.317383,1848.326538 
	C512.138611,1846.290039 511.692719,1843.718872 511.731415,1841.393921 
	C512.020630,1824.006226 523.712280,1812.250854 540.978699,1811.707642 
	C552.939331,1811.331421 564.886963,1810.265259 576.844727,1810.190430 
	C583.195312,1810.150635 586.693970,1807.280151 589.103210,1801.982544 
	C593.236938,1792.893066 597.686401,1783.938965 601.556458,1774.740112 
	C606.136658,1763.853271 614.531494,1758.449463 625.673950,1756.143677 
	C629.484192,1755.355103 633.540405,1754.246582 636.706543,1752.124023 
	C648.284912,1744.361938 659.596130,1736.194580 670.881042,1728.005005 
	C675.786743,1724.444824 677.813538,1719.295898 677.924500,1713.255127 
	C678.065857,1705.563965 680.279175,1699.063110 687.483765,1694.724731 
	C689.739563,1693.366455 691.357971,1690.158325 692.233521,1687.461060 
	C694.162476,1681.518555 697.837402,1677.114380 702.276367,1672.914185 
	C717.517395,1658.493652 732.867493,1644.162476 747.521912,1629.158569 
	C754.744141,1621.763916 762.350891,1616.000366 773.436401,1615.075195 
	C774.219666,1617.189575 774.174927,1618.524780 774.241028,1619.854492 
	C774.856079,1632.223999 779.692383,1637.301270 791.656616,1638.110107 
	C793.981262,1638.267456 796.553406,1637.693726 798.590088,1638.509399 
	C801.826904,1639.805542 805.668701,1641.294312 807.565430,1643.921265 
	C813.778381,1652.526367 813.419373,1658.787354 807.195679,1667.614502 
	C805.023743,1670.694946 802.779419,1673.546265 806.436707,1678.274536 
	C812.702393,1678.274536 819.659668,1678.150879 826.611206,1678.296875 
	C851.396973,1678.817261 871.094849,1688.056885 882.695374,1711.166382 
	C883.717712,1713.203003 885.001831,1715.479004 886.804626,1716.692749 
	C898.320374,1724.444580 910.449829,1730.240234 925.022217,1727.652588 
	C933.813721,1726.091431 942.747009,1725.251221 951.464417,1723.378784 
	C956.912842,1722.208496 962.976624,1720.856812 967.156738,1717.552734 
	C973.192688,1712.781616 978.406189,1713.086182 984.593201,1716.030029 
	C989.334839,1718.286011 994.099487,1720.712280 999.119507,1722.106567 
	C1004.842651,1723.696289 1010.833252,1724.447754 1016.755615,1725.169678 
	C1029.831299,1726.763916 1042.829102,1731.190552 1056.121338,1727.653931 
	C1064.893066,1725.319946 1073.434570,1723.733643 1082.171265,1727.393311 
	C1082.736206,1727.629883 1083.484253,1727.410889 1084.145630,1727.439331 
	C1092.045044,1727.777588 1099.995850,1727.697998 1107.821045,1728.649536 
	C1111.593750,1729.108154 1115.455811,1731.008423 1118.717041,1733.120972 
	C1133.169800,1742.483643 1148.493652,1749.047119 1165.910767,1750.471313 
	C1170.770142,1750.868652 1175.502441,1753.032227 1180.247437,1754.529663 
	C1182.773438,1755.326904 1185.155273,1757.099609 1187.683105,1757.276611 
	C1195.895142,1757.852051 1200.680786,1762.865845 1202.561401,1769.875977 
	C1204.920898,1778.671631 1211.037354,1781.711792 1218.699341,1781.865112 
	C1226.610352,1782.023560 1232.397827,1785.768555 1236.503052,1791.396240 
	C1241.875488,1798.761353 1249.627930,1804.590088 1252.071899,1814.001709 
	C1252.184326,1814.434814 1253.153687,1814.645264 1254.112915,1815.173462 
	C1255.398804,1814.784058 1257.035034,1814.449097 1258.538086,1813.804077 
	C1263.727173,1811.577515 1267.572998,1812.174072 1271.675537,1816.907104 
	C1274.088379,1819.690796 1279.050659,1821.054321 1283.032837,1821.472534 
	C1287.272583,1821.917847 1290.725464,1823.017944 1293.722900,1825.883179 
	C1300.022339,1834.240723 1301.782104,1843.505249 1300.107178,1853.809814 
	C1299.486572,1857.627808 1300.522583,1861.714844 1300.801270,1865.679321 
	C1301.125732,1870.299072 1302.637817,1875.224854 1301.542480,1879.479370 
	C1298.598145,1890.916260 1302.873291,1900.563354 1308.122314,1909.751709 
	C1315.698120,1923.012817 1318.308960,1937.729858 1321.716919,1952.180054 
	C1322.788940,1956.725586 1321.901855,1962.194214 1320.455200,1966.781006 
	C1316.983154,1977.789062 1322.723511,1988.878662 1334.103516,1991.653076 
	C1343.390137,1993.917114 1352.751099,1995.932495 1361.907593,1998.638428 
	C1364.485352,1999.400024 1366.823853,2001.917480 1368.607300,2004.158813 
	C1370.434937,2006.455566 1371.471313,2009.388794 1372.813232,2012.063965 
	C1381.352661,2029.086304 1381.348999,2029.088135 1398.381104,2036.220459 
	C1396.420898,2040.323975 1394.637695,2044.489380 1392.490845,2048.458008 
	C1388.621704,2055.609375 1388.932739,2062.133057 1393.731567,2068.945557 
	C1400.031494,2077.888916 1405.729004,2087.258545 1411.618408,2096.487793 
	C1416.189209,2103.650879 1416.808838,2111.219971 1414.512207,2119.414062 
	C1412.372803,2127.046875 1410.922607,2134.879639 1409.328491,2142.656738 
	C1407.501709,2151.569824 1404.075195,2159.559082 1398.458008,2166.919189 
	C1390.414917,2177.457275 1382.454102,2188.163818 1377.647705,2200.759766 
	C1376.945068,2202.601074 1375.875977,2204.345947 1374.741943,2205.971680 
	C1370.966919,2211.382812 1369.214355,2217.244385 1370.568481,2224.634766 
	C1361.298706,2224.057861 1351.820435,2222.715088 1342.352783,2221.300781 
	C1338.492920,2220.724121 1334.656006,2219.992920 1330.545654,2219.286621 
	C1328.835449,2223.377197 1327.320435,2226.662842 1326.082642,2230.049805 
	C1324.648315,2233.974854 1321.669678,2235.251221 1318.166016,2233.993652 
	C1309.484985,2230.877441 1301.008423,2227.194824 1292.354126,2223.998535 
	C1289.772827,2223.044922 1286.501953,2221.873535 1284.198608,2222.674805 
	C1278.962158,2224.497314 1274.129761,2227.481689 1268.348389,2230.388428 
	C1263.150757,2226.068604 1257.442993,2221.569336 1252.029175,2216.740479 
	C1248.312744,2213.425537 1244.788330,2211.746826 1239.562988,2213.555908 
	C1233.967163,2215.492920 1228.050049,2216.812988 1222.166626,2217.542969 
	C1209.275024,2219.142334 1197.147339,2215.263916 1185.180542,2211.156982 
	C1183.139282,2210.456299 1181.366089,2208.553955 1179.828003,2206.877686 
	C1171.738892,2198.062256 1164.054810,2188.852783 1155.625244,2180.382080 
	C1151.611572,2176.349121 1152.489136,2171.958496 1152.359009,2167.457275 
	C1152.151611,2160.287354 1152.225586,2160.285156 1146.409790,2155.875977 
	C1140.211426,2159.471924 1137.350220,2166.041504 1133.466797,2171.648682 
	C1126.734375,2181.369873 1119.899780,2182.152588 1111.096069,2173.529541 
	C1105.873169,2168.414062 1101.046753,2162.894043 1096.445557,2157.986084 
	C1085.628418,2162.801758 1082.952393,2170.674561 1082.018433,2180.711914 
	C1080.638916,2195.540039 1077.560547,2210.209717 1075.223511,2224.949463 
	C1074.566772,2229.091797 1072.804077,2232.055908 1068.697632,2234.066162 
	C1062.148438,2237.271729 1055.864746,2241.071533 1049.695801,2244.978271 
	C1046.971313,2246.703613 1044.078735,2248.887207 1042.514526,2251.587891 
	C1037.305420,2260.581299 1029.797119,2266.677002 1020.786560,2271.508545 
	C1012.736694,2275.824707 1010.420471,2284.525146 1014.329468,2293.034668 
	C1014.868408,2294.207764 1015.514832,2295.463135 1015.567810,2296.703369 
	C1015.720093,2300.269043 1004.006287,2315.513916 1000.369690,2315.359375 
	C989.924561,2314.915039 982.313904,2321.640381 973.522522,2325.187500 
	C962.138062,2329.781250 951.285095,2335.675537 940.068726,2340.709961 
	C933.599854,2343.613525 932.273499,2349.121582 931.946533,2355.506836 
	C927.496216,2351.787354 927.496216,2351.787354 933.149048,2334.832031 
	C925.554749,2326.856201 923.204102,2326.656982 915.072815,2331.947510 
	C912.598450,2333.557617 909.277588,2333.867188 906.560486,2334.705811 
	C902.199585,2326.328857 897.880127,2319.230225 894.786072,2311.632080 
	C892.972107,2307.177734 892.774902,2301.949951 892.460510,2297.030762 
	C892.117065,2291.656006 889.438110,2288.362061 884.703857,2286.561768 
	C879.278992,2284.498779 876.393127,2280.149902 874.237366,2275.227783 
	C870.781982,2267.337891 867.544495,2259.352051 864.247925,2251.393066 
	C860.835693,2243.155029 859.561584,2243.633789 850.922119,2246.382568 
	C839.499023,2250.016602 827.520142,2252.000977 815.690125,2254.212891 
	C810.709595,2255.144287 807.050476,2252.487061 804.075256,2248.166260 
	C798.319458,2239.807861 794.213013,2231.090576 793.996216,2220.697754 
	C793.855408,2213.947510 791.776855,2207.824463 787.307251,2202.370117 
	C784.646362,2199.123291 783.144897,2194.901123 781.265869,2191.047119 
	C779.809509,2188.060303 779.172791,2184.476074 777.144653,2181.998047 
	C765.539490,2167.818848 763.936951,2150.670410 762.427979,2133.542480 
	C761.983948,2128.501709 759.652649,2125.372559 755.394226,2123.630859 
	C745.834473,2119.720703 741.616638,2112.427002 739.183167,2102.609131 
	C735.603394,2088.166992 730.440613,2074.121338 726.134888,2059.851562 
	C725.195007,2056.736572 724.113770,2053.204834 724.722473,2050.193604 
	C725.558838,2046.056519 726.167786,2042.250854 723.563660,2038.781738 
	C719.816284,2033.789307 716.739990,2027.042847 711.659729,2024.562012 
	C701.154297,2019.431641 688.941040,2019.218262 679.433044,2026.520020 
	C672.500977,2031.843628 665.415588,2033.280884 657.522217,2034.378052 
	C649.734619,2035.460571 642.018677,2037.058228 633.328613,2038.596924 
	C635.397644,2049.070557 637.316895,2058.377686 639.041077,2067.720947 
	C639.700684,2071.295166 640.308350,2074.957275 640.256653,2078.569824 
	C640.105591,2089.116943 635.946350,2094.277344 625.962891,2097.217285 
	C622.149292,2098.340088 617.868042,2098.903320 614.715149,2101.059570 
	C602.174194,2109.637695 588.014404,2111.056641 573.715271,2110.088135 
	C563.251831,2109.379395 552.941467,2106.447998 542.555298,2104.548340 
	C536.898560,2103.514160 533.823303,2099.751953 532.742615,2094.530029 
	C531.395935,2088.023682 528.798340,2082.633545 522.815674,2079.169922 
	C518.553833,2076.702637 518.257202,2072.670410 520.117981,2068.768799 
	C523.465454,2061.749512 521.007568,2056.668701 515.636963,2052.120605 
	C512.340515,2049.328857 509.456360,2045.986816 505.939331,2043.533813 
	C500.482178,2039.727295 500.474640,2034.948364 502.493134,2029.557251 
	C503.189331,2027.697510 504.408356,2026.036133 505.132080,2024.183960 
	C509.047577,2014.162842 506.567688,2006.631348 497.091644,2001.474976 
	C488.650635,1996.881836 480.064331,1992.472168 471.227203,1988.723999 
	C466.500397,1986.719238 464.111115,1983.872437 464.417236,1979.061157 
	C464.710266,1974.455078 464.913300,1969.626587 466.443909,1965.357666 
	C470.675690,1953.554810 467.981049,1943.849487 458.711731,1934.960938 
z"/>
<path 
	data-name="Kumbo"
fill="#49338F" opacity="1.000000" stroke="none" 
	d="
M1294.079102,1825.288452 
	C1290.725464,1823.017944 1287.272583,1821.917847 1283.032837,1821.472534 
	C1279.050659,1821.054321 1274.088379,1819.690796 1271.675537,1816.907104 
	C1267.572998,1812.174072 1263.727173,1811.577515 1258.538086,1813.804077 
	C1257.035034,1814.449097 1255.398804,1814.784058 1254.112915,1815.173462 
	C1253.153687,1814.645264 1252.184326,1814.434814 1252.071899,1814.001709 
	C1249.627930,1804.590088 1241.875488,1798.761353 1236.503052,1791.396240 
	C1232.397827,1785.768555 1226.610352,1782.023560 1218.699341,1781.865112 
	C1211.037354,1781.711792 1204.920898,1778.671631 1202.561401,1769.875977 
	C1200.680786,1762.865845 1195.895142,1757.852051 1187.683105,1757.276611 
	C1185.155273,1757.099609 1182.773438,1755.326904 1180.247437,1754.529663 
	C1175.502441,1753.032227 1170.770142,1750.868652 1165.910767,1750.471313 
	C1148.493652,1749.047119 1133.169800,1742.483643 1118.717041,1733.120972 
	C1115.455811,1731.008423 1111.593750,1729.108154 1107.821045,1728.649536 
	C1099.995850,1727.697998 1092.045044,1727.777588 1084.145630,1727.439331 
	C1083.484253,1727.410889 1082.736206,1727.629883 1082.171265,1727.393311 
	C1073.434570,1723.733643 1064.893066,1725.319946 1056.121338,1727.653931 
	C1042.829102,1731.190552 1029.831299,1726.763916 1016.755615,1725.169678 
	C1010.833252,1724.447754 1004.842651,1723.696289 999.119507,1722.106567 
	C994.099487,1720.712280 989.334839,1718.286011 984.593201,1716.030029 
	C978.406189,1713.086182 973.192688,1712.781616 967.156738,1717.552734 
	C962.976624,1720.856812 956.912842,1722.208496 951.464417,1723.378784 
	C942.747009,1725.251221 933.813721,1726.091431 925.022217,1727.652588 
	C910.449829,1730.240234 898.320374,1724.444580 886.804626,1716.692749 
	C885.001831,1715.479004 883.717712,1713.203003 882.695374,1711.166382 
	C871.094849,1688.056885 851.396973,1678.817261 826.611206,1678.296875 
	C819.659668,1678.150879 812.702393,1678.274536 806.436707,1678.274536 
	C802.779419,1673.546265 805.023743,1670.694946 807.195679,1667.614502 
	C813.419373,1658.787354 813.778381,1652.526367 807.565430,1643.921265 
	C805.668701,1641.294312 801.826904,1639.805542 798.590088,1638.509399 
	C796.553406,1637.693726 793.981262,1638.267456 791.656616,1638.110107 
	C779.692383,1637.301270 774.856079,1632.223999 774.241028,1619.854492 
	C774.174927,1618.524780 774.219666,1617.189575 774.187256,1615.040405 
	C776.425964,1607.304932 779.726440,1601.045654 784.277893,1595.239746 
	C786.584167,1592.297852 787.616333,1588.094482 788.418762,1584.291504 
	C790.059021,1576.518188 793.477173,1570.640381 800.122559,1565.533813 
	C807.889221,1559.565552 813.901123,1551.362183 821.032837,1544.501099 
	C825.265564,1540.429077 829.860474,1536.526123 834.876221,1533.521484 
	C843.350891,1528.444824 845.183472,1526.284424 842.001709,1516.754517 
	C837.958252,1504.643677 835.449890,1492.532715 836.066345,1479.710205 
	C836.190918,1477.119141 834.656555,1473.854370 832.825562,1471.889404 
	C829.235107,1468.036255 824.908508,1464.866211 820.866821,1461.436768 
	C815.488770,1456.873291 814.315430,1452.179565 818.784119,1446.765625 
	C824.001282,1440.444824 826.407532,1434.164429 824.888550,1425.807739 
	C824.275208,1422.433350 826.756836,1418.351074 828.288025,1414.787842 
	C829.177612,1412.717651 831.207764,1411.166626 832.320190,1409.157959 
	C835.164490,1404.022217 834.643250,1401.952759 829.885315,1398.203369 
	C828.323730,1396.972656 826.642090,1395.894043 824.413574,1394.385498 
	C822.868286,1392.672119 821.929504,1391.315918 820.980347,1389.966919 
	C816.328918,1383.355957 816.500427,1377.084473 821.914124,1371.078369 
	C830.366211,1361.701416 839.031494,1352.516968 847.543823,1343.193848 
	C849.997192,1340.506836 852.235352,1337.623169 855.012817,1334.390137 
	C856.940735,1334.594238 858.399170,1335.715088 859.919617,1335.806519 
	C873.491089,1336.622925 887.068726,1337.374512 900.653687,1337.918335 
	C921.221069,1338.741577 941.798645,1339.309082 962.366211,1340.128784 
	C975.286438,1340.643555 988.197449,1341.394775 1001.110229,1342.085083 
	C1025.607788,1343.394653 1050.163940,1344.077881 1074.576904,1346.318359 
	C1088.678101,1347.612427 1102.605713,1351.168823 1116.508301,1354.182983 
	C1151.132324,1361.689453 1185.894043,1368.686646 1220.240601,1377.319580 
	C1272.967529,1390.572510 1325.406372,1404.974731 1377.940796,1418.989380 
	C1406.128174,1426.509033 1434.259888,1434.237671 1463.184326,1441.977051 
	C1455.096680,1454.545410 1446.333862,1467.075684 1437.362793,1479.455444 
	C1426.028687,1495.096313 1414.392212,1510.519775 1403.187744,1526.251953 
	C1400.354736,1530.229736 1397.978394,1534.814453 1396.563599,1539.475830 
	C1386.322388,1573.217529 1375.663086,1606.859375 1366.613037,1640.925293 
	C1361.080078,1661.752441 1357.261230,1683.150146 1354.305298,1704.517456 
	C1350.657349,1730.888428 1340.576782,1754.286743 1326.038086,1776.181641 
	C1315.362671,1792.258667 1304.959595,1808.516479 1294.079102,1825.288452 
z"/>
</svg>