<svg version="1.1" id="Layer_1" xmlns="http://www.w3.org/2000/svg" xmlns:xlink="http://www.w3.org/1999/xlink" x="0px" y="0px"
	 width="100%" viewBox="0 0 1890 3087" enable-background="new 0 0 1890 3087" xml:space="preserve">


<path 
	data-name="Logone-Birni"
fill="#ED9353" opacity="1.000000" stroke="none" 
	d="
M1754.123169,1577.981689 
	C1755.350952,1579.439087 1757.060913,1580.704468 1757.730713,1582.384277 
	C1763.370728,1596.530273 1771.339478,1601.526123 1786.155151,1599.916626 
	C1786.486206,1599.880615 1786.815063,1599.823853 1787.144409,1599.772461 
	C1793.589355,1598.767090 1801.721191,1595.668213 1804.875488,1603.365967 
	C1808.284424,1611.685303 1810.071655,1620.841309 1802.932495,1629.641846 
	C1795.271973,1639.084961 1786.811035,1642.394653 1775.090210,1639.108276 
	C1759.407349,1634.711060 1751.533203,1646.093628 1751.057617,1660.028076 
	C1750.901367,1664.607422 1756.012939,1670.016602 1759.857910,1673.921631 
	C1764.925903,1679.068481 1767.949707,1684.852051 1770.526978,1691.498779 
	C1775.844238,1705.210449 1770.727783,1715.929321 1762.250610,1725.977173 
	C1761.155029,1727.275757 1758.894775,1727.669556 1757.106934,1728.288818 
	C1753.982300,1729.370972 1750.625366,1729.932739 1747.684814,1731.366943 
	C1739.066528,1735.570557 1737.255859,1739.365356 1739.270874,1748.917114 
	C1740.704956,1755.714233 1742.209351,1762.536743 1744.365356,1769.124390 
	C1745.456177,1772.457153 1747.448486,1776.056152 1750.109619,1778.196289 
	C1755.594849,1782.608032 1755.282593,1787.739624 1753.476196,1793.335327 
	C1748.397705,1809.067139 1759.395386,1832.480103 1773.999146,1837.206177 
	C1786.885132,1830.361084 1786.885132,1830.361084 1794.696777,1815.091309 
	C1800.357300,1817.220947 1806.505249,1818.797241 1811.865112,1821.786743 
	C1816.053345,1824.122559 1819.473999,1827.753540 1820.160889,1833.462891 
	C1820.950562,1840.027466 1823.302734,1846.397705 1824.188110,1852.958740 
	C1824.970581,1858.756226 1825.191650,1864.746094 1824.675659,1870.563721 
	C1824.292725,1874.880371 1825.458008,1877.759033 1827.769531,1881.402954 
	C1833.782715,1890.882202 1840.886841,1897.769043 1851.974854,1901.624146 
	C1856.528198,1903.207031 1859.032959,1910.682373 1862.484619,1915.498169 
	C1857.886353,1928.410889 1848.828003,1934.393921 1836.409790,1936.141357 
	C1835.754517,1936.233521 1835.072144,1936.243164 1834.412720,1936.180908 
	C1820.725464,1934.890259 1811.503906,1943.231812 1802.317749,1951.355713 
	C1800.946533,1952.568237 1800.147949,1955.496338 1800.496338,1957.368042 
	C1801.271484,1961.534180 1802.940552,1965.534058 1804.299805,1969.771606 
	C1826.116089,1972.134766 1831.041138,1988.840576 1835.961548,2005.649292 
	C1833.658691,2009.153198 1830.686768,2008.193237 1827.825684,2007.356567 
	C1820.173096,2005.119019 1812.519043,2002.881714 1804.909790,2000.502563 
	C1798.467163,1998.488159 1793.405640,1999.451050 1789.550537,2005.686646 
	C1786.594727,2010.468018 1782.682373,2014.648193 1779.358521,2019.214478 
	C1773.685059,2027.009155 1774.197632,2034.656372 1781.072632,2041.349487 
	C1784.280518,2044.472412 1786.783936,2047.399414 1786.557129,2052.397949 
	C1786.459961,2054.540527 1788.487305,2057.094238 1790.147217,2058.916260 
	C1791.902710,2060.843262 1794.402344,2062.079834 1796.519775,2063.692871 
	C1801.532715,2067.511963 1801.974243,2069.949951 1798.584961,2075.058838 
	C1797.298218,2076.998779 1795.737061,2078.773438 1794.597534,2080.791016 
	C1790.544067,2087.967041 1791.439331,2094.657471 1797.293091,2100.530762 
	C1799.870361,2103.116455 1802.724731,2105.426270 1806.196045,2108.523926 
	C1802.902832,2114.882568 1799.993530,2120.677490 1796.911621,2126.379150 
	C1795.250244,2129.452881 1795.146240,2132.016846 1798.326782,2134.124023 
	C1799.991943,2135.227295 1801.827881,2136.190186 1803.202393,2137.593018 
	C1807.394897,2141.871826 1811.010620,2145.950684 1808.667480,2153.148193 
	C1805.971924,2161.427979 1807.108398,2162.708496 1814.934814,2167.656738 
	C1816.621094,2168.722656 1818.265381,2169.939453 1820.093506,2170.682373 
	C1829.196045,2174.380859 1830.404053,2181.755127 1829.671387,2190.283936 
	C1829.047485,2197.547363 1828.883423,2204.850098 1828.281250,2212.115967 
	C1827.864502,2217.145508 1829.923340,2220.322998 1834.469727,2222.275879 
	C1841.182129,2225.159180 1847.567627,2229.316895 1854.555054,2230.939453 
	C1868.710449,2234.226318 1879.926025,2242.124756 1891.391602,2250.498291 
	C1892.000000,2254.083252 1892.000000,2258.166748 1891.382202,2262.601562 
	C1890.210693,2264.561279 1889.656860,2266.169678 1889.103149,2267.778076 
	C1890.068726,2267.852051 1891.034424,2267.926025 1892.000000,2268.000000 
	C1892.000000,2270.777832 1892.000000,2273.555664 1891.441162,2276.600830 
	C1886.595093,2279.545898 1884.717529,2282.756104 1885.712158,2288.359619 
	C1886.673706,2293.777100 1885.827148,2299.038330 1880.013428,2302.986084 
	C1874.577515,2306.677490 1872.278442,2312.756592 1875.044067,2319.716553 
	C1875.995605,2322.110840 1876.420410,2324.714111 1877.166016,2327.523926 
	C1875.452026,2328.491455 1874.041260,2329.989746 1872.683838,2329.942871 
	C1861.941406,2329.572510 1854.088013,2336.557373 1845.183472,2340.686523 
	C1840.678467,2342.775635 1838.737915,2346.629639 1840.809937,2352.324219 
	C1842.905151,2358.082275 1840.580322,2360.729004 1834.385742,2361.473877 
	C1833.070923,2361.631592 1831.713135,2361.413574 1830.392456,2361.544434 
	C1823.890991,2362.188477 1822.122437,2365.549316 1826.305176,2370.439453 
	C1829.229858,2373.858643 1830.400146,2377.098633 1828.948120,2382.008301 
	C1819.479370,2386.093018 1812.611694,2393.283203 1808.854614,2403.860352 
	C1797.744385,2406.307617 1787.385620,2408.565186 1777.127319,2411.211426 
	C1749.168823,2418.424072 1721.083130,2423.723633 1691.963379,2424.494385 
	C1666.527466,2425.167725 1641.171631,2428.864990 1615.842041,2430.525391 
	C1618.086792,2424.265869 1620.235229,2418.693359 1622.460449,2413.151611 
	C1627.262085,2401.194336 1629.798828,2389.180908 1626.314331,2376.182373 
	C1624.153076,2368.120117 1623.263184,2359.799561 1615.915649,2354.286377 
	C1614.914795,2353.535156 1614.351807,2352.164307 1613.669067,2351.030762 
	C1605.832031,2338.018555 1594.375244,2330.351074 1579.467896,2327.649658 
	C1572.598145,2326.404785 1565.739746,2325.068359 1558.924927,2323.554443 
	C1548.704468,2321.284424 1544.439575,2314.549072 1546.747437,2304.422363 
	C1547.929688,2299.236084 1549.323120,2294.096436 1550.691650,2288.954590 
	C1552.254272,2283.084229 1550.211060,2278.367432 1545.584717,2274.995361 
	C1538.628540,2269.925049 1531.773438,2264.511230 1522.098999,2265.916016 
	C1519.294434,2266.323242 1516.149170,2265.361816 1513.327637,2264.487305 
	C1505.248291,2261.982422 1503.646118,2259.946533 1504.033936,2251.566650 
	C1504.325073,2245.272705 1505.653687,2239.030273 1506.027954,2232.735596 
	C1506.524658,2224.383057 1500.280396,2219.994629 1492.412354,2223.193848 
	C1489.746094,2224.278320 1487.454224,2226.420410 1485.180542,2228.307129 
	C1479.550415,2232.979004 1473.895508,2237.636230 1468.500854,2242.572754 
	C1462.498291,2248.065430 1456.672974,2248.764893 1449.602417,2244.165039 
	C1439.841919,2237.814697 1429.707886,2232.013184 1419.538208,2226.326416 
	C1414.111572,2223.292236 1411.692383,2219.698486 1411.466553,2212.992188 
	C1411.145752,2203.465088 1407.996948,2194.202148 1397.108154,2191.440674 
	C1393.165894,2190.440674 1388.673706,2191.209229 1384.484863,2191.658936 
	C1373.546875,2192.832764 1369.317139,2190.457275 1365.266235,2180.283447 
	C1364.652954,2178.743408 1364.102905,2177.157715 1363.733276,2175.544922 
	C1362.126221,2168.532715 1357.980835,2163.601807 1351.406006,2160.885254 
	C1339.695679,2156.046875 1330.512939,2148.148926 1322.708252,2138.318604 
	C1319.196655,2133.895752 1315.413940,2129.562256 1311.154053,2125.883057 
	C1296.680908,2113.383057 1286.675781,2098.047852 1280.022949,2080.190430 
	C1276.163330,2069.830566 1267.407959,2065.765625 1256.757935,2068.803955 
	C1252.328003,2070.067871 1248.044312,2072.077881 1243.954956,2074.241455 
	C1239.229736,2076.741455 1235.614868,2075.450684 1232.488403,2071.777832 
	C1229.335693,2068.074219 1227.458496,2063.700928 1228.582642,2058.842285 
	C1229.841187,2053.403809 1231.375000,2047.964600 1233.463867,2042.798584 
	C1236.021851,2036.472534 1234.792969,2033.178345 1228.134033,2032.357544 
	C1222.861328,2031.707642 1217.483765,2031.535889 1212.169067,2031.695679 
	C1205.706299,2031.889648 1200.620972,2029.408569 1196.069336,2025.110718 
	C1187.386108,2016.912109 1179.113525,2008.159180 1169.702026,2000.890259 
	C1162.622559,1995.422485 1160.994995,1989.649292 1163.949829,1981.904541 
	C1167.776733,1971.873901 1167.301636,1961.958618 1164.147217,1951.827026 
	C1161.681641,1943.908081 1157.688477,1940.940918 1149.458374,1942.367188 
	C1145.859985,1942.990845 1142.357788,1944.173462 1138.758179,1944.786133 
	C1131.194702,1946.073608 1128.466431,1943.838867 1127.826782,1936.162354 
	C1126.787842,1923.692993 1125.219727,1921.606445 1113.274780,1918.084106 
	C1109.813843,1917.063599 1106.142212,1916.756958 1102.567261,1916.122925 
	C1098.206543,1910.916382 1094.108154,1905.650391 1098.564087,1898.447144 
	C1093.807983,1889.687134 1101.218506,1882.835938 1102.303955,1874.985718 
	C1103.164062,1868.764526 1101.445679,1863.281494 1098.723511,1857.900024 
	C1093.991089,1848.544434 1095.396851,1840.271484 1102.729248,1832.896606 
	C1104.788208,1830.825806 1106.900024,1828.620361 1108.260498,1826.086304 
	C1110.276001,1822.331543 1109.664673,1819.366211 1105.866577,1816.133667 
	C1101.501709,1812.419189 1098.108032,1807.362427 1095.065308,1802.413330 
	C1094.105347,1800.851929 1094.988525,1797.360352 1096.169312,1795.461792 
	C1098.055542,1792.428955 1100.411133,1789.069580 1103.427979,1787.479980 
	C1111.019287,1783.480103 1116.172485,1777.523560 1120.162720,1770.228271 
	C1122.200806,1766.502197 1125.543457,1763.005859 1126.152832,1759.073364 
	C1127.937256,1747.558350 1135.838013,1743.173584 1145.502075,1740.048462 
	C1150.690430,1738.370728 1151.608276,1736.161987 1148.719482,1731.169067 
	C1145.835571,1726.184570 1144.826782,1720.490356 1140.599121,1715.850220 
	C1135.501709,1710.255249 1137.239258,1703.851807 1142.503784,1698.193481 
	C1147.956543,1692.332764 1152.852417,1685.957397 1158.135254,1679.932983 
	C1159.855957,1677.970825 1162.020630,1676.395752 1163.995239,1674.658691 
	C1173.006958,1666.730713 1171.921265,1658.704468 1161.352783,1653.155029 
	C1155.783936,1650.230957 1152.159180,1645.791992 1149.513794,1639.668945 
	C1146.112061,1631.796143 1144.054321,1623.373413 1139.312012,1615.954224 
	C1135.469849,1609.943604 1135.998901,1602.650269 1136.598267,1595.642700 
	C1136.809082,1593.179688 1137.026489,1590.503662 1136.310303,1588.216309 
	C1134.343262,1581.933105 1134.519165,1574.854858 1129.651367,1569.592407 
	C1128.566772,1568.419434 1127.917603,1566.211914 1126.701538,1565.897461 
	C1120.020386,1564.169556 1120.796021,1557.859253 1120.315308,1553.745605 
	C1119.629028,1547.873291 1121.224121,1541.627075 1122.447754,1535.664307 
	C1124.212646,1527.064087 1137.236572,1515.484009 1146.016113,1514.191284 
	C1152.624268,1513.218262 1159.238892,1512.288818 1165.668091,1511.366211 
	C1165.879150,1500.715820 1158.797852,1496.192139 1152.173584,1491.652588 
	C1145.376831,1486.994873 1144.011230,1479.126587 1140.850586,1472.573608 
	C1139.579712,1469.938965 1142.183350,1462.932617 1144.985962,1461.313965 
	C1152.808838,1456.796021 1155.326172,1447.614746 1162.813965,1443.199463 
	C1162.549927,1438.744507 1163.910278,1435.576416 1168.950562,1435.748413 
	C1170.939697,1424.292114 1173.020386,1413.189697 1164.117188,1403.697144 
	C1174.200073,1394.869873 1183.646484,1386.234741 1193.517700,1378.116333 
	C1198.223755,1374.245972 1198.701294,1368.865723 1201.614746,1364.237061 
	C1206.913330,1372.840698 1207.132080,1373.189819 1214.026489,1368.870605 
	C1220.152710,1365.032715 1225.435425,1366.533447 1230.679321,1370.005859 
	C1233.140381,1371.635498 1235.397095,1373.695190 1237.392456,1375.882935 
	C1242.587891,1381.579346 1249.183350,1385.543213 1253.450073,1392.717285 
	C1256.331665,1397.562378 1264.206055,1399.695557 1270.169922,1402.304077 
	C1272.132690,1403.162598 1275.167725,1401.934570 1277.605469,1401.268677 
	C1283.280518,1399.718140 1287.002686,1401.092041 1289.768066,1406.584717 
	C1292.574951,1412.160034 1295.036865,1417.908936 1297.706909,1423.705688 
	C1296.085938,1425.538208 1294.428101,1427.412476 1292.211426,1429.918579 
	C1299.795654,1433.461548 1308.476562,1435.126221 1308.586914,1445.435181 
	C1319.305176,1444.297241 1329.613159,1443.798584 1339.678589,1441.966919 
	C1349.765625,1440.131592 1359.575317,1436.815552 1369.580811,1434.464111 
	C1373.089111,1433.639526 1376.983887,1432.909912 1380.416138,1433.587036 
	C1393.225952,1436.114258 1407.047119,1436.010376 1416.863525,1447.112427 
	C1418.444458,1448.900269 1422.893677,1450.381592 1424.622192,1449.441040 
	C1434.504639,1444.064087 1445.447510,1445.335938 1455.832886,1444.097900 
	C1469.629028,1442.453369 1483.674438,1442.477539 1497.586914,1446.689697 
	C1499.380127,1452.394043 1501.909058,1456.759277 1498.214111,1462.406738 
	C1496.464966,1465.080566 1497.924072,1470.138916 1498.564575,1474.011841 
	C1499.231812,1478.047241 1501.840576,1479.872803 1506.275757,1480.177124 
	C1514.762939,1480.759644 1523.286499,1481.662720 1531.618408,1483.319824 
	C1536.152100,1484.221558 1539.843140,1484.781372 1543.654907,1481.500000 
	C1546.758789,1478.828125 1550.623169,1478.782593 1553.562378,1481.785767 
	C1556.991943,1485.289429 1561.512085,1488.876831 1562.652710,1493.195557 
	C1564.302368,1499.440430 1568.331055,1501.551392 1573.165649,1503.852905 
	C1574.845581,1504.652466 1576.112305,1506.319702 1577.048462,1507.137329 
	C1576.675171,1512.517090 1576.252808,1517.131104 1576.058838,1521.754639 
	C1575.783081,1528.325317 1579.465332,1533.378418 1583.870728,1537.292236 
	C1586.148926,1539.316406 1590.590698,1538.737427 1593.903687,1539.804443 
	C1598.832153,1541.391602 1603.898193,1542.900513 1608.397095,1545.369507 
	C1612.396484,1547.564087 1615.516113,1551.313477 1619.396729,1553.793457 
	C1621.311890,1555.017090 1624.150879,1555.545776 1626.419434,1555.243896 
	C1628.488647,1554.968628 1630.352173,1553.146851 1631.708130,1552.355713 
	C1642.544312,1556.205322 1650.666626,1562.013062 1654.931885,1572.295410 
	C1656.564453,1576.230957 1659.293091,1578.203247 1664.090942,1578.515747 
	C1667.629517,1578.746338 1671.475708,1581.008423 1674.347046,1583.379517 
	C1681.258179,1589.087036 1687.380737,1595.760742 1694.370972,1601.358521 
	C1702.935059,1608.216797 1712.134277,1614.518677 1723.320923,1616.062500 
	C1732.892090,1617.383423 1736.115479,1612.665161 1732.987793,1603.591064 
	C1731.157104,1598.279297 1729.195190,1592.881470 1728.433594,1587.364746 
	C1727.392700,1579.826416 1729.794678,1578.002197 1737.425781,1578.248779 
	C1742.982910,1578.428345 1748.556763,1578.089478 1754.123169,1577.981689 
z"/>
<path 
	data-name="Darak"
fill="#7A934D" opacity="1.000000" stroke="none" 
	d="
M891.062683,1.999999 
	C892.980225,5.082236 893.536682,8.384155 895.003723,11.214017 
	C919.951416,59.336643 945.158752,107.325264 969.950378,155.527802 
	C976.628113,168.511475 982.035400,182.144485 988.200867,195.398056 
	C990.283691,199.875259 992.671387,204.252213 995.338379,208.406204 
	C999.213989,214.442566 1003.788269,219.529709 1012.166565,218.354111 
	C1013.504456,218.166367 1015.080322,219.673843 1017.024109,220.633606 
	C1015.181763,228.451218 1016.782898,234.114380 1024.248535,239.086227 
	C1033.705566,245.384201 1037.286499,255.533463 1035.105591,267.163025 
	C1034.555786,270.094788 1034.172485,273.060730 1033.797974,276.021729 
	C1033.091064,281.609985 1034.996826,285.801117 1040.393921,288.076874 
	C1041.312378,288.464142 1042.456299,288.729370 1043.031372,289.431580 
	C1044.170410,290.822723 1045.918945,292.653351 1045.672363,293.977814 
	C1045.423462,295.314331 1043.211304,296.756287 1041.587402,297.240448 
	C1039.767700,297.783020 1037.510010,297.738586 1035.677856,297.179749 
	C1031.455688,295.891907 1028.632080,297.563782 1025.097412,301.336029 
	C1020.076660,302.346008 1016.185608,302.743500 1012.514221,303.118591 
	C1008.906799,299.796021 1005.559814,296.713287 1001.999878,293.434479 
	C995.283997,300.967896 987.558228,298.985931 979.925964,297.682312 
	C979.652405,297.456177 979.452820,297.547760 979.253235,297.639343 
	C979.502136,297.759521 979.751099,297.879761 980.002930,298.765259 
	C980.002747,306.410431 987.855042,311.300140 985.037476,319.663605 
	C977.547607,320.017029 969.653259,319.680969 963.471375,327.073029 
	C969.589661,336.274414 978.468811,329.980774 985.475769,331.011780 
	C991.587036,336.651398 989.226074,344.267456 991.333374,350.786499 
	C990.011963,351.324799 989.132202,351.953156 988.213501,352.016357 
	C976.958130,352.790527 965.638733,353.009918 954.461548,354.389954 
	C948.700806,355.101227 943.042542,357.499908 937.648560,359.849213 
	C935.804260,360.652527 934.906677,363.629486 932.806213,366.762329 
	C938.158325,368.171783 941.880249,369.310791 945.674377,370.105347 
	C949.307800,370.866241 953.016052,371.269440 956.691467,371.829834 
	C957.098145,372.761627 957.504883,373.693451 957.911621,374.625244 
	C955.699524,375.447998 953.487427,376.270721 950.653625,377.324707 
	C955.437012,381.825836 958.610046,384.811676 962.471252,388.445007 
	C953.374634,392.779297 945.343079,385.224487 936.310669,389.455933 
	C942.506042,395.831512 944.542358,404.943878 952.921326,410.733673 
	C955.606018,406.846313 957.763184,403.722809 960.217590,400.168976 
	C967.067139,403.394073 974.666260,405.963470 976.389282,414.669708 
	C977.834961,421.974030 979.956421,428.357635 985.938416,433.530548 
	C989.642639,436.733765 987.518311,441.200653 982.562012,442.004883 
	C980.941162,442.267914 979.233215,441.935028 977.578003,442.053864 
	C964.795715,442.971527 957.778442,450.919281 960.307739,463.145172 
	C961.605042,469.415649 960.271667,472.049774 954.438416,474.356598 
	C946.263062,477.589722 945.196411,481.183624 947.714111,490.128754 
	C948.404175,492.580505 948.819824,495.109436 949.331543,497.465576 
	C941.052246,501.138641 941.052246,501.138641 935.573608,495.319336 
	C931.246521,490.723145 928.375244,490.634399 922.699951,494.591888 
	C924.450134,499.168182 926.155884,503.628113 927.854065,508.068451 
	C924.763123,510.378143 922.219727,512.278687 919.193970,514.539673 
	C921.286743,517.249634 922.959351,519.415466 925.218323,522.340515 
	C918.575867,524.839355 915.175842,529.009644 917.521851,536.186035 
	C917.747925,536.877808 915.402405,538.410095 913.417969,539.536499 
	C910.741699,540.241333 908.898010,540.961853 905.044861,542.467590 
	C913.825562,548.141296 918.112915,554.322449 915.002502,563.303589 
	C914.766479,563.985229 915.677063,565.063965 915.435547,566.256104 
	C912.247864,568.889771 908.877075,570.683350 908.733826,574.945068 
	C911.839172,575.714172 914.549683,576.385498 919.833496,577.694153 
	C915.163635,580.687622 912.442871,582.431702 909.165955,584.532227 
	C905.730957,577.714722 901.157898,574.596313 894.130920,575.444580 
	C888.255859,570.515137 882.588623,566.267273 876.920532,562.018860 
	C885.037842,552.767822 883.298462,546.707214 871.325317,542.736694 
	C868.180603,541.693848 864.941528,540.190796 861.743774,540.185730 
	C849.975037,540.167175 840.491150,535.319885 832.454163,527.240112 
	C828.631958,523.397583 824.978088,523.595764 820.988708,526.627319 
	C818.609436,528.435303 816.359680,530.444031 813.845093,532.036255 
	C810.306763,534.276672 806.252686,535.451782 802.542725,532.963745 
	C798.450439,530.219360 794.737244,526.873474 791.041748,523.584229 
	C787.633179,520.550476 784.586304,517.108398 781.157532,514.099915 
	C778.171326,511.479889 774.781738,509.324799 771.731934,506.771301 
	C762.582520,499.110779 753.566650,491.289948 744.368408,483.689270 
	C742.349182,482.020721 739.860474,480.859772 737.469543,479.711853 
	C726.662476,474.523132 715.785095,469.558472 707.344971,460.544556 
	C703.412720,456.344879 697.796082,456.981995 693.265808,458.778259 
	C688.260986,460.762665 681.001648,461.024261 680.473877,469.711548 
	C684.179871,472.412476 688.131897,474.873810 691.552979,477.929657 
	C693.929443,480.052429 695.983643,482.797668 697.352844,485.661194 
	C697.922119,486.851837 696.757080,489.489105 695.582947,490.686096 
	C694.755310,491.529846 692.554016,491.279572 691.022949,491.080475 
	C690.168091,490.969330 689.375183,490.024078 688.646606,489.354309 
	C680.458069,481.826935 671.249390,476.225769 660.457031,473.046936 
	C656.762024,471.958588 653.557556,469.159515 650.176086,467.065948 
	C647.417725,465.358215 644.729492,463.537109 643.073669,462.458832 
	C638.980408,463.810608 635.200745,466.309479 633.706909,465.328308 
	C628.222778,461.726288 622.862610,463.911133 617.404358,464.046783 
	C610.682556,464.213867 608.523987,462.193054 607.978516,455.350616 
	C607.714600,452.040466 608.153809,448.672821 607.867004,445.366547 
	C607.724670,443.726349 606.660828,442.166077 605.805420,440.055115 
	C597.687134,451.786469 601.754395,463.662506 614.314148,468.424408 
	C625.750427,472.760376 637.079285,477.399750 648.328186,482.203613 
	C658.379822,486.496277 666.571045,493.674133 672.565857,502.447662 
	C676.413269,508.078430 680.595947,511.969330 686.819031,513.917053 
	C690.101685,514.944519 691.964050,516.823425 691.889893,520.355896 
	C691.748413,527.099487 696.779419,530.360168 701.362671,533.482544 
	C710.311829,539.579224 719.601074,545.176819 728.792969,551.008606 
	C729.175781,553.424194 728.621094,557.396118 730.247375,558.751648 
	C734.695984,562.459778 739.779907,566.925354 745.122620,567.738708 
	C757.995850,569.698486 768.276062,576.002014 779.316467,583.396790 
	C766.698975,590.937073 755.036926,594.906677 740.980225,588.938782 
	C731.033264,584.715698 720.357117,582.530945 709.138245,586.941528 
	C704.300232,588.843445 698.282410,587.744507 692.720703,588.012756 
	C693.278076,569.238342 668.512146,555.998413 653.387512,565.364868 
	C651.979004,566.237183 650.356140,566.757996 648.919250,567.591187 
	C645.834106,569.379944 643.028320,569.091797 639.528320,568.083191 
	C634.930176,566.757996 629.603394,565.850220 625.059692,566.865479 
	C614.025208,569.330811 602.079346,570.090637 593.656067,579.340149 
	C593.215759,579.823608 592.639771,580.224365 592.057373,580.531555 
	C577.503418,588.210571 567.184509,584.500183 560.820312,569.436157 
	C559.541260,566.408691 558.160339,563.325806 556.249451,560.686096 
	C553.169739,556.431763 548.382690,554.949646 545.021362,556.616699 
	C541.664124,558.281677 540.907166,562.649231 543.129333,568.192932 
	C545.476379,574.048401 547.914246,579.867493 549.688232,586.020996 
	C546.096130,589.439270 542.338440,592.098572 540.316223,595.725525 
	C535.302185,604.718506 528.639038,611.629761 519.487061,616.375671 
	C515.514771,618.435547 511.959808,621.300110 508.725342,623.458801 
	C513.279724,637.651978 524.426758,640.494202 536.323364,641.873779 
	C549.640198,643.418152 555.090942,653.925293 561.520569,663.398987 
	C560.607117,673.354614 567.687866,680.677979 570.099304,689.522278 
	C572.245300,697.393372 577.862732,701.680115 585.242188,701.559326 
	C593.300049,701.427429 596.494873,705.609680 598.923950,711.896362 
	C599.519470,713.437744 600.575195,714.809021 601.109375,716.364990 
	C603.659546,723.794189 608.969849,727.179138 616.624695,728.081360 
	C622.826599,728.812317 625.351868,731.523926 625.824036,737.637878 
	C626.098450,741.191833 625.396973,744.863098 624.816833,748.429871 
	C624.191895,752.271790 623.005981,756.075684 626.230408,760.305603 
	C630.103149,758.892395 633.803833,757.645447 637.425293,756.200073 
	C646.465027,752.592224 652.158020,755.979431 653.298950,765.831177 
	C650.458191,763.698730 648.230591,761.837585 645.329712,759.414001 
	C635.026062,770.823853 623.205322,767.647278 611.139771,764.630493 
	C614.135864,756.764648 614.135864,756.764648 608.771179,747.245605 
	C609.212097,744.063721 614.662781,742.034424 610.319397,736.682556 
	C601.104736,743.635498 591.351868,736.816772 579.999146,735.902588 
	C585.028381,744.561829 587.657898,752.266785 584.750244,760.779114 
	C584.571594,761.302185 585.149048,762.040955 585.208984,762.694519 
	C585.965637,770.945129 584.234863,774.344055 576.787231,777.590027 
	C571.923950,779.709595 566.757996,781.124756 561.771118,782.972961 
	C553.809998,785.923462 553.428589,785.989014 553.942688,794.413940 
	C554.449890,802.727417 553.930237,810.265076 545.626343,814.643127 
	C547.666931,819.517883 549.414734,823.693237 551.338318,828.288635 
	C543.815491,832.733887 537.025452,836.883545 530.095703,840.785217 
	C526.410217,842.860291 524.355469,845.256714 523.538513,849.869812 
	C522.383179,856.393799 523.645813,862.235718 525.035034,868.402588 
	C526.709351,875.834778 527.996521,883.225159 521.856567,890.021362 
	C519.924255,892.160217 519.858459,896.983276 520.507996,900.267334 
	C522.363464,909.648315 522.187317,910.663025 513.401733,915.509216 
	C510.466675,913.560791 507.549744,911.624329 503.313232,908.811890 
	C501.803009,913.435669 500.643036,916.684937 499.685577,919.992859 
	C498.415344,924.381226 494.597351,926.726074 490.834381,925.269409 
	C485.145782,923.067139 481.216339,914.945129 483.345245,909.094543 
	C487.067047,898.866455 489.719421,888.112549 497.343658,879.708313 
	C498.663208,878.253784 499.745544,876.472656 500.528809,874.665283 
	C502.406036,870.333496 499.509369,864.940613 494.822296,864.120056 
	C492.555359,863.723267 490.183075,863.928406 487.858490,863.860962 
	C490.242096,862.948181 492.625671,862.035461 496.005249,860.741333 
	C496.738037,849.361816 496.918549,837.421997 498.394287,825.644470 
	C501.042297,804.511475 493.451538,785.012634 489.278015,765.068787 
	C476.623810,704.598572 463.162567,644.296997 449.947815,583.944519 
	C437.728058,528.136292 425.377411,472.356598 413.163239,416.547058 
	C398.676666,350.354614 384.336578,284.130035 369.817505,217.944748 
	C356.365631,156.624252 342.755829,95.338379 329.233856,34.033226 
	C328.017731,28.519636 327.008270,22.959375 325.713501,17.465406 
	C325.519104,16.640450 324.281494,16.061354 322.956116,15.613167 
	C322.307251,11.823740 322.228729,7.789674 322.075134,2.877804 
	C511.375122,2.000000 700.750244,2.000000 891.062683,1.999999 
z"/>
<path 
	data-name="Zina"
fill="#345E82" opacity="1.000000" stroke="none" 
	d="
M1615.780273,2431.226318 
	C1641.171631,2428.864990 1666.527466,2425.167725 1691.963379,2424.494385 
	C1721.083130,2423.723633 1749.168823,2418.424072 1777.127319,2411.211426 
	C1787.385620,2408.565186 1797.744385,2406.307617 1808.864624,2404.586426 
	C1806.824951,2410.839600 1803.978027,2416.378906 1801.441895,2421.313477 
	C1796.960815,2421.964844 1793.633911,2422.448486 1789.611450,2423.032959 
	C1797.683838,2434.169922 1797.683838,2434.169922 1786.827759,2440.375000 
	C1785.966309,2443.583252 1784.772461,2446.744141 1784.309570,2450.008789 
	C1783.172119,2458.031982 1779.869873,2464.144287 1772.510498,2468.498535 
	C1766.565918,2472.015625 1766.074341,2475.643066 1769.811890,2481.919922 
	C1772.397461,2486.262695 1772.354492,2489.175293 1767.949707,2491.872070 
	C1766.598022,2492.699951 1765.561646,2494.042969 1763.936523,2495.566650 
	C1774.429443,2510.585693 1780.407349,2527.054688 1782.375732,2543.652588 
	C1771.976440,2554.702881 1758.809204,2561.042725 1753.931641,2574.782715 
	C1764.137451,2582.277588 1773.629150,2588.981445 1782.815918,2596.079834 
	C1790.053955,2601.672607 1791.190918,2611.681396 1784.470581,2617.614502 
	C1773.945801,2626.906738 1768.715088,2638.801758 1764.902710,2651.710693 
	C1762.770142,2658.931885 1761.476196,2666.714844 1752.158813,2668.513428 
	C1753.647583,2675.430908 1757.892578,2679.251221 1762.985840,2681.729004 
	C1769.240967,2684.772217 1771.894165,2690.003906 1771.964600,2696.106934 
	C1772.044434,2703.002441 1774.109009,2708.946045 1776.536743,2715.224365 
	C1778.360840,2719.941162 1778.702515,2725.769043 1777.835083,2730.778809 
	C1777.346924,2733.598145 1773.042847,2735.734863 1770.508301,2738.230713 
	C1769.122925,2739.594727 1767.843018,2741.065674 1767.133423,2741.826172 
	C1768.421387,2746.680908 1769.322998,2750.737305 1770.577271,2754.681396 
	C1774.092896,2765.737061 1776.127563,2777.680664 1781.784546,2787.528809 
	C1788.314453,2798.896729 1791.602783,2811.855713 1800.081787,2822.298828 
	C1803.503906,2826.513672 1805.818237,2830.631836 1811.695923,2831.939453 
	C1818.618164,2833.479980 1819.382812,2835.360107 1820.319824,2843.049561 
	C1820.754639,2846.618896 1821.277588,2850.533691 1823.061523,2853.513184 
	C1827.740112,2861.327881 1826.078125,2869.544434 1825.814087,2877.756104 
	C1825.507446,2887.294678 1825.276245,2896.836914 1825.159302,2906.379395 
	C1825.118774,2909.678711 1826.493774,2913.297119 1825.548584,2916.230713 
	C1821.590698,2928.515137 1826.111450,2937.584473 1835.953491,2944.225586 
	C1840.586548,2947.351562 1842.775269,2951.147949 1843.751587,2956.723633 
	C1839.523804,2962.128174 1835.091309,2967.794189 1830.515015,2973.644531 
	C1833.588257,2980.243652 1833.019043,2985.582275 1825.714966,2989.394287 
	C1823.479614,2990.560791 1821.219971,2993.921631 1821.079956,2996.396484 
	C1820.786133,3001.591309 1820.948242,3007.189697 1822.616333,3012.040039 
	C1826.185425,3022.417969 1819.894165,3029.627197 1816.901367,3038.038330 
	C1813.220093,3037.865967 1810.564697,3037.864258 1807.937134,3037.593750 
	C1801.915649,3036.973145 1796.315552,3038.553955 1792.432129,3042.908936 
	C1788.044312,3047.829102 1783.104004,3048.529297 1777.203369,3047.697998 
	C1774.588379,3047.329590 1771.844482,3047.273193 1769.231812,3047.620850 
	C1764.465576,3048.254639 1760.561646,3048.310059 1756.874512,3043.858887 
	C1753.795532,3040.141357 1749.246460,3042.016113 1748.039062,3046.858154 
	C1747.581665,3048.692139 1747.964722,3050.735596 1747.964722,3052.669922 
	C1750.470215,3053.966309 1752.622437,3054.843994 1754.520386,3056.104492 
	C1761.543335,3060.768311 1761.668213,3065.560303 1755.007080,3071.083008 
	C1754.243530,3071.716309 1753.294067,3072.126709 1752.536987,3072.766113 
	C1747.061646,3077.389160 1746.715942,3079.106934 1749.856445,3085.528076 
	C1750.582642,3087.013184 1751.286011,3088.509033 1752.000000,3090.000000 
	C1738.624756,3090.000000 1725.249390,3090.000000 1710.937012,3090.000000 
	C1709.443115,3088.679199 1709.242065,3086.708008 1708.257446,3086.169189 
	C1705.989990,3084.928711 1703.341675,3084.384521 1700.126831,3083.318604 
	C1700.354980,3079.736572 1700.573853,3076.300049 1700.893677,3071.277832 
	C1697.462158,3072.242432 1694.152710,3072.362793 1691.946777,3073.984131 
	C1688.675781,3076.388428 1686.657349,3077.002441 1683.621704,3073.607666 
	C1681.354736,3071.072510 1677.978149,3069.530029 1674.536133,3067.160156 
	C1677.677612,3064.687744 1680.580322,3062.403076 1683.483032,3060.118408 
	C1672.002197,3063.437500 1667.181763,3053.459961 1660.560547,3048.770752 
	C1629.111694,3026.497803 1598.194214,3003.474854 1567.083252,2980.724609 
	C1559.037964,2974.841553 1551.151245,2968.714844 1542.833130,2963.244873 
	C1539.723999,2961.200684 1535.646729,2959.950684 1531.914429,2959.682617 
	C1525.642090,2959.232666 1519.236694,2959.415771 1512.998169,2960.207031 
	C1509.606689,2960.637207 1506.098267,2962.373535 1503.230957,2964.366943 
	C1468.293579,2988.657471 1433.401489,3013.014404 1398.645996,3037.563965 
	C1387.231567,3045.626221 1374.509033,3043.262695 1362.019287,3043.148926 
	C1360.920166,3043.138916 1359.728760,3041.952881 1358.756104,3041.109863 
	C1349.590454,3033.164307 1340.462769,3025.174561 1331.262695,3017.143799 
	C1325.685547,3020.385742 1321.018433,3022.888428 1316.565552,3025.727051 
	C1304.260254,3033.571045 1291.971313,3041.446045 1279.837280,3049.550537 
	C1276.151001,3052.012695 1272.768433,3052.319092 1268.592529,3051.090332 
	C1261.284668,3048.940674 1253.884766,3046.928223 1246.389404,3045.634766 
	C1236.520508,3043.931641 1228.384399,3039.029297 1220.764038,3033.072754 
	C1214.485718,3028.165039 1208.537354,3022.835205 1202.882568,3016.974609 
	C1213.231201,3013.536377 1221.759888,3008.927734 1227.235229,2999.695801 
	C1232.812012,2990.292236 1241.930298,2984.539795 1250.029419,2977.646729 
	C1256.507202,2972.133789 1262.225098,2965.552979 1267.467285,2958.813721 
	C1272.329712,2952.562988 1276.084106,2945.454834 1280.385986,2938.762695 
	C1283.439819,2934.012695 1287.157959,2929.595703 1289.564209,2924.546143 
	C1292.852783,2917.645264 1297.842651,2912.580078 1303.812256,2908.189209 
	C1309.971558,2903.658691 1316.011108,2898.956299 1322.305542,2894.623291 
	C1325.201294,2892.629883 1328.442993,2890.933838 1331.766479,2889.807861 
	C1339.693604,2887.122070 1348.110229,2884.965820 1353.011963,2877.633057 
	C1358.743530,2869.058838 1366.879395,2863.446777 1374.835693,2857.441650 
	C1391.550537,2844.825928 1408.173950,2832.089111 1424.839111,2819.407471 
	C1430.104980,2815.400635 1435.248291,2811.211426 1440.712280,2807.494873 
	C1443.604614,2805.528076 1444.717041,2803.270752 1444.265015,2799.976807 
	C1443.748901,2796.215088 1444.254272,2793.004150 1447.180786,2789.962891 
	C1460.561768,2776.057129 1473.096924,2761.278564 1487.106689,2748.053711 
	C1500.449463,2735.458252 1511.078613,2721.447510 1517.753784,2704.406250 
	C1518.117432,2703.478027 1518.565552,2702.579102 1519.027832,2701.694336 
	C1526.657593,2687.095703 1527.938721,2672.143311 1522.527222,2656.405029 
	C1518.260742,2643.996582 1522.936157,2632.241699 1534.044800,2624.561768 
	C1536.460938,2622.891602 1538.820312,2620.934570 1540.658081,2618.665771 
	C1552.541382,2603.994873 1562.824585,2587.995850 1577.024536,2575.251465 
	C1578.737427,2573.714111 1580.137329,2571.778076 1581.473877,2569.879883 
	C1587.887695,2560.771484 1592.042236,2551.249756 1590.603271,2539.459473 
	C1589.380249,2529.440186 1587.879517,2519.475342 1589.750244,2509.009766 
	C1593.627441,2487.318848 1598.645874,2466.100098 1607.937378,2446.057129 
	C1610.286133,2440.990234 1613.151978,2436.163330 1615.780273,2431.226318 
z"/>

<path 
	data-name="Waza"
fill="#7878F0" opacity="1.000000" stroke="none" 
	d="
M1615.841919,2430.525391 
	C1613.151978,2436.163330 1610.286133,2440.990234 1607.937378,2446.057129 
	C1598.645874,2466.100098 1593.627441,2487.318848 1589.750244,2509.009766 
	C1587.879517,2519.475342 1589.380249,2529.440186 1590.603271,2539.459473 
	C1592.042236,2551.249756 1587.887695,2560.771484 1581.473877,2569.879883 
	C1580.137329,2571.778076 1578.737427,2573.714111 1577.024536,2575.251465 
	C1562.824585,2587.995850 1552.541382,2603.994873 1540.658081,2618.665771 
	C1538.820312,2620.934570 1536.460938,2622.891602 1534.044800,2624.561768 
	C1522.936157,2632.241699 1518.260742,2643.996582 1522.527222,2656.405029 
	C1527.938721,2672.143311 1526.657593,2687.095703 1519.027832,2701.694336 
	C1518.565552,2702.579102 1518.117432,2703.478027 1517.753784,2704.406250 
	C1511.078613,2721.447510 1500.449463,2735.458252 1487.106689,2748.053711 
	C1473.096924,2761.278564 1460.561768,2776.057129 1447.180786,2789.962891 
	C1444.254272,2793.004150 1443.748901,2796.215088 1444.265015,2799.976807 
	C1444.717041,2803.270752 1443.604614,2805.528076 1440.712280,2807.494873 
	C1435.248291,2811.211426 1430.104980,2815.400635 1424.839111,2819.407471 
	C1408.173950,2832.089111 1391.550537,2844.825928 1374.835693,2857.441650 
	C1366.879395,2863.446777 1358.743530,2869.058838 1353.011963,2877.633057 
	C1348.110229,2884.965820 1339.693604,2887.122070 1331.766479,2889.807861 
	C1328.442993,2890.933838 1325.201294,2892.629883 1322.305542,2894.623291 
	C1316.011108,2898.956299 1309.971558,2903.658691 1303.812256,2908.189209 
	C1297.842651,2912.580078 1292.852783,2917.645264 1289.564209,2924.546143 
	C1287.157959,2929.595703 1283.439819,2934.012695 1280.385986,2938.762695 
	C1276.084106,2945.454834 1272.329712,2952.562988 1267.467285,2958.813721 
	C1262.225098,2965.552979 1256.507202,2972.133789 1250.029419,2977.646729 
	C1241.930298,2984.539795 1232.812012,2990.292236 1227.235229,2999.695801 
	C1221.759888,3008.927734 1213.231201,3013.536377 1202.573242,3016.396484 
	C1184.368408,3002.212646 1166.922119,2987.876953 1149.455200,2973.566162 
	C1111.932861,2942.823486 1074.402954,2912.089600 1036.868042,2881.361816 
	C1027.916626,2874.033447 1018.933899,2866.742920 1009.367615,2858.947998 
	C986.395874,2879.036377 963.933472,2898.679199 940.556152,2919.122070 
	C937.885254,2916.035400 935.514709,2913.518311 933.410217,2910.795898 
	C931.615540,2908.474121 930.686462,2904.784668 928.406616,2903.656738 
	C918.278442,2898.645752 917.179504,2887.791504 912.004395,2879.631348 
	C911.028564,2878.092529 910.280151,2875.449463 910.937195,2874.001709 
	C913.734619,2867.837891 911.194153,2862.237305 909.880676,2856.468262 
	C907.721497,2846.983887 908.263306,2837.764404 910.326782,2828.139893 
	C912.499817,2818.004639 914.931152,2807.846436 914.035278,2796.988770 
	C913.173767,2786.547363 914.847717,2775.858398 915.812622,2765.315430 
	C916.704651,2755.568115 917.501343,2746.072266 910.405273,2737.871338 
	C907.590820,2734.618408 905.782959,2730.474854 902.880310,2727.322754 
	C896.272339,2720.147705 892.590515,2711.619385 892.615967,2702.178467 
	C892.654175,2687.966553 887.764954,2674.782227 885.631958,2661.055176 
	C884.567444,2654.204834 884.334717,2647.218750 883.851013,2640.285400 
	C883.206970,2631.052734 883.351074,2621.702637 881.868164,2612.613281 
	C880.933594,2606.884766 880.466064,2601.579102 882.176941,2596.053223 
	C885.025391,2586.853516 887.278259,2577.436523 890.665710,2568.444092 
	C895.056946,2556.786377 895.660767,2544.544189 897.865051,2532.524170 
	C901.910583,2510.463623 896.783875,2489.781494 890.596130,2469.046143 
	C889.391785,2465.010010 888.872803,2460.769531 887.923523,2456.056641 
	C896.960632,2455.296875 900.044373,2449.222656 903.429321,2442.844482 
	C906.175415,2437.670166 909.366882,2431.398438 914.100037,2428.871826 
	C926.431763,2422.289551 936.109802,2413.208496 944.866028,2402.695801 
	C947.621704,2399.387207 951.411377,2396.871338 953.847900,2393.378906 
	C960.627441,2383.660156 970.564026,2381.649658 981.380737,2379.859863 
	C999.733459,2376.823730 1017.743347,2372.245850 1031.730347,2358.509277 
	C1036.578003,2353.748535 1042.479370,2351.004883 1049.093140,2349.283936 
	C1053.507324,2348.135254 1057.522095,2345.529297 1061.871460,2344.026855 
	C1064.926270,2342.971924 1068.262451,2342.066162 1071.439819,2342.164551 
	C1079.015381,2342.398682 1084.572998,2339.856445 1089.535278,2333.817871 
	C1092.420044,2330.307373 1097.473877,2327.833984 1102.014648,2326.608154 
	C1108.459595,2324.868408 1111.105225,2321.194824 1112.558716,2315.052734 
	C1115.376343,2303.145508 1118.670044,2291.335938 1122.212646,2279.620605 
	C1124.477905,2272.129639 1129.867798,2266.907471 1135.382202,2261.326660 
	C1141.486206,2255.148926 1145.583618,2246.804199 1149.791016,2238.991943 
	C1153.600220,2231.919678 1155.693481,2224.417969 1152.250977,2216.140381 
	C1147.986572,2205.886963 1151.090088,2196.805420 1157.665649,2188.319824 
	C1161.999390,2182.727295 1160.218384,2176.696045 1157.675537,2170.729980 
	C1150.481812,2153.851562 1144.885010,2136.675049 1149.427002,2117.925537 
	C1140.130127,2107.655518 1140.130127,2107.655518 1124.553345,2102.438965 
	C1123.821411,2095.525146 1122.843506,2088.143311 1115.387207,2084.291016 
	C1113.108276,2083.113525 1110.774780,2081.848633 1108.313965,2081.250732 
	C1099.755249,2079.170898 1100.705322,2078.768311 1097.996094,2070.569092 
	C1095.194336,2062.089600 1090.141113,2054.303711 1085.571289,2046.508301 
	C1084.802612,2045.197144 1081.471191,2044.883423 1079.365356,2044.983154 
	C1076.419800,2045.122925 1073.527466,2046.167603 1070.586914,2046.678711 
	C1058.376953,2048.800781 1048.140747,2045.148071 1039.078247,2036.733887 
	C1036.763184,2034.584595 1032.706299,2033.832397 1029.332397,2033.434814 
	C1025.822144,2033.021362 1022.169922,2033.813477 1019.040527,2034.044312 
	C1015.123291,2026.700195 1011.623474,2020.138794 1007.824341,2013.016113 
	C1014.058655,2010.507080 1017.547241,2004.982178 1024.810913,2003.963867 
	C1030.981323,2003.098755 1037.014526,1999.129517 1042.364990,1995.452148 
	C1044.991943,1993.646729 1046.729858,1989.569336 1047.494629,1986.207153 
	C1050.400146,1973.435425 1050.190308,1973.387695 1063.604614,1974.680176 
	C1063.917236,1968.983643 1066.896240,1966.661865 1072.950928,1966.050903 
	C1080.798462,1965.258667 1086.973267,1959.711426 1089.812012,1952.861328 
	C1093.158691,1944.785400 1098.977295,1939.272705 1104.732422,1933.462646 
	C1108.318481,1929.842285 1108.532471,1930.054321 1109.606934,1924.312134 
	C1107.207397,1921.747925 1105.170532,1919.571289 1102.850464,1916.758789 
	C1106.142212,1916.756958 1109.813843,1917.063599 1113.274780,1918.084106 
	C1125.219727,1921.606445 1126.787842,1923.692993 1127.826782,1936.162354 
	C1128.466431,1943.838867 1131.194702,1946.073608 1138.758179,1944.786133 
	C1142.357788,1944.173462 1145.859985,1942.990845 1149.458374,1942.367188 
	C1157.688477,1940.940918 1161.681641,1943.908081 1164.147217,1951.827026 
	C1167.301636,1961.958618 1167.776733,1971.873901 1163.949829,1981.904541 
	C1160.994995,1989.649292 1162.622559,1995.422485 1169.702026,2000.890259 
	C1179.113525,2008.159180 1187.386108,2016.912109 1196.069336,2025.110718 
	C1200.620972,2029.408569 1205.706299,2031.889648 1212.169067,2031.695679 
	C1217.483765,2031.535889 1222.861328,2031.707642 1228.134033,2032.357544 
	C1234.792969,2033.178345 1236.021851,2036.472534 1233.463867,2042.798584 
	C1231.375000,2047.964600 1229.841187,2053.403809 1228.582642,2058.842285 
	C1227.458496,2063.700928 1229.335693,2068.074219 1232.488403,2071.777832 
	C1235.614868,2075.450684 1239.229736,2076.741455 1243.954956,2074.241455 
	C1248.044312,2072.077881 1252.328003,2070.067871 1256.757935,2068.803955 
	C1267.407959,2065.765625 1276.163330,2069.830566 1280.022949,2080.190430 
	C1286.675781,2098.047852 1296.680908,2113.383057 1311.154053,2125.883057 
	C1315.413940,2129.562256 1319.196655,2133.895752 1322.708252,2138.318604 
	C1330.512939,2148.148926 1339.695679,2156.046875 1351.406006,2160.885254 
	C1357.980835,2163.601807 1362.126221,2168.532715 1363.733276,2175.544922 
	C1364.102905,2177.157715 1364.652954,2178.743408 1365.266235,2180.283447 
	C1369.317139,2190.457275 1373.546875,2192.832764 1384.484863,2191.658936 
	C1388.673706,2191.209229 1393.165894,2190.440674 1397.108154,2191.440674 
	C1407.996948,2194.202148 1411.145752,2203.465088 1411.466553,2212.992188 
	C1411.692383,2219.698486 1414.111572,2223.292236 1419.538208,2226.326416 
	C1429.707886,2232.013184 1439.841919,2237.814697 1449.602417,2244.165039 
	C1456.672974,2248.764893 1462.498291,2248.065430 1468.500854,2242.572754 
	C1473.895508,2237.636230 1479.550415,2232.979004 1485.180542,2228.307129 
	C1487.454224,2226.420410 1489.746094,2224.278320 1492.412354,2223.193848 
	C1500.280396,2219.994629 1506.524658,2224.383057 1506.027954,2232.735596 
	C1505.653687,2239.030273 1504.325073,2245.272705 1504.033936,2251.566650 
	C1503.646118,2259.946533 1505.248291,2261.982422 1513.327637,2264.487305 
	C1516.149170,2265.361816 1519.294434,2266.323242 1522.098999,2265.916016 
	C1531.773438,2264.511230 1538.628540,2269.925049 1545.584717,2274.995361 
	C1550.211060,2278.367432 1552.254272,2283.084229 1550.691650,2288.954590 
	C1549.323120,2294.096436 1547.929688,2299.236084 1546.747437,2304.422363 
	C1544.439575,2314.549072 1548.704468,2321.284424 1558.924927,2323.554443 
	C1565.739746,2325.068359 1572.598145,2326.404785 1579.467896,2327.649658 
	C1594.375244,2330.351074 1605.832031,2338.018555 1613.669067,2351.030762 
	C1614.351807,2352.164307 1614.914795,2353.535156 1615.915649,2354.286377 
	C1623.263184,2359.799561 1624.153076,2368.120117 1626.314331,2376.182373 
	C1629.798828,2389.180908 1627.262085,2401.194336 1622.460449,2413.151611 
	C1620.235229,2418.693359 1618.086792,2424.265869 1615.841919,2430.525391 
z"/>
<path 
	data-name="Goulfey"
fill="#66E2F1" opacity="1.000000" stroke="none" 
	d="
M916.054688,565.958130 
	C915.677063,565.063965 914.766479,563.985229 915.002502,563.303589 
	C918.112915,554.322449 913.825562,548.141296 905.044861,542.467590 
	C908.898010,540.961853 910.741699,540.241333 913.903076,540.006531 
	C930.448120,553.633484 946.715637,564.962708 966.537781,570.180481 
	C968.777832,570.770203 971.006775,571.578857 973.072388,572.620239 
	C978.740295,575.477783 984.156799,575.555054 990.154297,573.045654 
	C998.421326,569.586670 1007.129150,567.194702 1015.481689,563.920959 
	C1019.828735,562.217163 1023.635803,562.454956 1027.896973,564.122620 
	C1043.998779,570.424255 1060.311646,576.198547 1076.311279,582.742981 
	C1081.705200,584.949280 1087.146973,588.094055 1091.284668,592.125854 
	C1106.035278,606.498596 1124.332275,615.384277 1142.086914,627.247437 
	C1151.541016,618.849121 1160.644409,610.762390 1170.682373,601.845337 
	C1195.152588,609.321777 1220.544800,617.080017 1245.937012,624.838196 
	C1249.877197,627.190063 1253.550537,630.513123 1257.814941,631.684875 
	C1265.870239,633.898254 1276.535522,627.592590 1279.992798,618.712280 
	C1281.995117,613.569641 1282.917236,607.898071 1283.602173,602.374878 
	C1284.814819,592.597778 1288.058105,587.432556 1295.550171,586.243774 
	C1302.766235,585.098755 1309.295410,587.146057 1314.863647,592.112000 
	C1318.273071,595.152527 1321.742432,598.176086 1325.481567,600.781433 
	C1328.805908,603.097778 1330.043213,605.911255 1327.841187,609.185181 
	C1324.168945,614.644592 1324.731689,620.279541 1325.590942,626.307922 
	C1327.038086,636.461121 1327.623291,646.669373 1332.856323,655.986755 
	C1340.182495,669.030823 1354.239624,672.904053 1366.798584,664.808716 
	C1367.913574,664.090027 1369.055054,663.330505 1369.955200,662.374390 
	C1374.591431,657.449402 1379.013672,656.880798 1384.410522,661.713684 
	C1388.130615,665.045166 1392.858276,664.421448 1397.624878,662.857910 
	C1403.265747,661.007507 1409.130493,659.737671 1414.978027,658.643005 
	C1423.486328,657.050293 1429.650391,661.360352 1432.385376,669.413452 
	C1436.963989,682.895081 1439.884033,696.671143 1442.607056,710.649048 
	C1445.370850,724.835938 1450.630615,738.677490 1461.371338,749.395386 
	C1465.304321,753.320007 1466.205688,757.553345 1464.570190,763.007446 
	C1463.196167,767.589172 1462.252441,772.312744 1463.571777,777.490784 
	C1464.358643,780.579041 1462.382202,784.368835 1461.658081,787.845398 
	C1460.997803,791.015442 1459.164551,794.501038 1459.903931,797.305664 
	C1463.129028,809.539856 1459.937988,820.861816 1455.705811,831.965332 
	C1453.310303,838.250549 1454.454346,843.516235 1459.327637,847.136597 
	C1468.327881,853.822632 1469.783325,863.716125 1471.344727,873.379517 
	C1472.254150,879.007324 1470.296875,884.596619 1464.745972,887.906677 
	C1462.463013,889.268005 1460.063965,890.449036 1457.857544,891.921570 
	C1451.278076,896.312805 1447.770508,902.398193 1448.364258,910.440918 
	C1448.883179,917.468811 1450.743408,924.061096 1455.027222,929.863708 
	C1458.400269,934.432861 1462.758667,935.681030 1468.188477,934.825623 
	C1473.933472,933.920471 1474.224731,929.485474 1474.936890,925.210266 
	C1475.848267,919.738770 1475.439697,913.292419 1482.347168,911.399292 
	C1485.198730,910.617615 1489.328857,910.448730 1491.486694,911.971680 
	C1497.210449,916.010986 1501.888916,921.012817 1500.539185,929.342102 
	C1499.591187,935.191772 1499.444336,940.939636 1496.504028,946.510742 
	C1492.370605,954.343018 1493.123779,958.913086 1500.165283,963.907043 
	C1509.847412,970.773926 1514.835327,980.980530 1520.999390,990.310425 
	C1527.704590,1000.459473 1533.961060,1010.898499 1539.034424,1022.082642 
	C1546.069336,1037.590820 1547.503418,1052.674805 1537.996948,1067.464844 
	C1533.459473,1074.523926 1531.875610,1081.889160 1532.195068,1090.146973 
	C1532.379883,1094.926514 1533.700317,1098.586914 1537.642700,1101.152832 
	C1550.112305,1109.268677 1546.028809,1117.093506 1539.398071,1127.401123 
	C1537.309448,1130.647705 1533.733765,1132.967896 1530.734131,1135.592529 
	C1521.246460,1143.894043 1519.859009,1150.906128 1526.062500,1161.974976 
	C1528.486816,1166.300781 1531.355835,1170.421875 1534.387817,1174.354370 
	C1543.703979,1186.437866 1542.312500,1206.126709 1531.218994,1216.887817 
	C1529.306763,1218.742676 1527.237183,1220.487915 1525.603882,1222.568970 
	C1518.535645,1231.574951 1518.765503,1237.661621 1526.223511,1246.296753 
	C1528.177979,1248.559692 1530.376953,1250.703979 1531.882080,1253.246826 
	C1538.287598,1264.069092 1538.876099,1274.333984 1530.629272,1284.359741 
	C1527.500488,1288.163452 1524.523804,1292.247192 1522.327271,1296.629028 
	C1518.292358,1304.678955 1520.954346,1311.565186 1529.314087,1315.388306 
	C1532.600952,1316.891846 1536.309326,1317.446167 1539.757324,1318.631958 
	C1544.349365,1320.211182 1548.667603,1322.611572 1548.761597,1328.057861 
	C1548.851074,1333.238037 1546.838623,1338.251709 1541.808228,1340.402100 
	C1536.713135,1342.580078 1531.098755,1343.521973 1525.755859,1345.149658 
	C1522.675049,1346.088257 1519.022949,1346.560547 1516.763062,1348.539185 
	C1507.232178,1356.883911 1508.531006,1365.450928 1519.847534,1371.258789 
	C1522.800659,1372.774170 1525.890381,1374.038452 1528.968506,1375.292236 
	C1541.942017,1380.576782 1550.015625,1391.071899 1557.541748,1402.129761 
	C1560.343018,1406.245239 1562.954346,1410.489868 1565.303711,1415.687256 
	C1560.693237,1422.110229 1556.579834,1427.648926 1552.103516,1432.876709 
	C1549.995728,1435.338501 1547.495728,1437.830566 1544.643066,1439.219360 
	C1536.329956,1443.266479 1527.604858,1446.117676 1518.144653,1445.949097 
	C1511.235718,1445.826050 1504.323364,1445.885254 1497.412598,1445.863281 
	C1483.674438,1442.477539 1469.629028,1442.453369 1455.832886,1444.097900 
	C1445.447510,1445.335938 1434.504639,1444.064087 1424.622192,1449.441040 
	C1422.893677,1450.381592 1418.444458,1448.900269 1416.863525,1447.112427 
	C1407.047119,1436.010376 1393.225952,1436.114258 1380.416138,1433.587036 
	C1376.983887,1432.909912 1373.089111,1433.639526 1369.580811,1434.464111 
	C1359.575317,1436.815552 1349.765625,1440.131592 1339.678589,1441.966919 
	C1329.613159,1443.798584 1319.305176,1444.297241 1308.586914,1445.435181 
	C1308.476562,1435.126221 1299.795654,1433.461548 1292.211426,1429.918579 
	C1294.428101,1427.412476 1296.085938,1425.538208 1297.706909,1423.705688 
	C1295.036865,1417.908936 1292.574951,1412.160034 1289.768066,1406.584717 
	C1287.002686,1401.092041 1283.280518,1399.718140 1277.605469,1401.268677 
	C1275.167725,1401.934570 1272.132690,1403.162598 1270.169922,1402.304077 
	C1264.206055,1399.695557 1256.331665,1397.562378 1253.450073,1392.717285 
	C1249.183350,1385.543213 1242.587891,1381.579346 1237.392456,1375.882935 
	C1235.397095,1373.695190 1233.140381,1371.635498 1230.679321,1370.005859 
	C1225.435425,1366.533447 1220.152710,1365.032715 1214.026489,1368.870605 
	C1207.132080,1373.189819 1206.913330,1372.840698 1202.282349,1364.097412 
	C1201.237915,1361.032349 1200.720947,1358.483398 1200.128418,1355.952148 
	C1198.409058,1348.605225 1195.038940,1343.014526 1186.400269,1342.824341 
	C1185.154053,1342.796753 1183.923584,1342.055542 1181.448730,1341.233887 
	C1182.351318,1338.150024 1182.411743,1334.516846 1184.241089,1332.447388 
	C1187.481323,1328.781982 1185.346069,1326.466919 1183.849731,1322.606567 
	C1186.716675,1320.910889 1189.266968,1320.314819 1191.817383,1319.718872 
	C1193.525757,1315.502930 1195.950317,1312.188232 1199.103638,1309.860840 
	C1211.512207,1300.703125 1225.351074,1306.720337 1238.576172,1306.929688 
	C1240.795166,1306.964722 1242.912476,1310.652222 1245.156616,1312.558105 
	C1248.142090,1315.093384 1250.982422,1317.902222 1254.293579,1319.924805 
	C1258.250122,1322.341675 1262.679565,1323.970947 1266.832642,1326.082153 
	C1285.611328,1335.627686 1304.799316,1334.255981 1323.905029,1327.674072 
	C1329.957764,1325.588989 1335.510010,1324.523315 1341.104980,1327.837769 
	C1346.148926,1330.825928 1351.412231,1330.322632 1356.616455,1329.244873 
	C1361.154419,1328.305176 1365.634277,1326.840088 1369.949341,1325.127319 
	C1375.879028,1322.773682 1381.673218,1321.114990 1388.293213,1321.633423 
	C1395.807251,1322.221924 1399.199463,1318.572998 1399.688965,1311.042847 
	C1399.883057,1308.056274 1399.636841,1305.043457 1399.752930,1302.049072 
	C1400.074097,1293.757568 1399.277954,1285.186279 1401.147461,1277.249390 
	C1403.675781,1266.514771 1400.973877,1258.029419 1393.408081,1251.099243 
	C1389.973145,1247.952759 1389.767700,1245.421997 1391.030518,1241.581665 
	C1393.316040,1234.630981 1395.594482,1227.648315 1397.263428,1220.535400 
	C1398.259766,1216.289307 1399.914185,1211.300049 1394.609985,1208.335327 
	C1391.195679,1209.525513 1388.190796,1211.219971 1385.050903,1211.524658 
	C1379.546631,1212.058960 1373.955811,1211.877319 1368.408447,1211.728638 
	C1365.137695,1211.640991 1361.675903,1211.597656 1358.680908,1210.497437 
	C1356.175049,1209.577026 1353.379028,1207.521729 1352.374634,1205.237427 
	C1351.859863,1204.066284 1354.910889,1201.236084 1356.479858,1199.258301 
	C1360.350708,1194.378662 1365.022583,1189.962646 1368.007080,1184.600464 
	C1370.976318,1179.265137 1369.379395,1177.276611 1364.275391,1174.177979 
	C1359.542480,1171.304565 1355.076050,1167.941528 1350.728516,1164.496094 
	C1344.625488,1159.659546 1338.409790,1155.549805 1330.087646,1155.948853 
	C1324.775513,1156.203369 1319.421875,1156.008179 1314.107666,1155.678833 
	C1309.190063,1155.373901 1305.400513,1153.740356 1303.750854,1148.108154 
	C1302.679565,1144.450562 1299.791260,1141.286743 1297.547607,1138.017944 
	C1290.631592,1127.942505 1280.521362,1121.374756 1271.165161,1113.933105 
	C1259.297485,1104.494019 1253.206543,1103.936523 1240.793335,1112.282959 
	C1233.370483,1117.273804 1225.652832,1120.326904 1216.430664,1118.173950 
	C1206.935181,1115.957153 1205.112061,1113.746826 1208.257812,1104.384155 
	C1210.193237,1098.623901 1209.726318,1094.144165 1205.466919,1089.849487 
	C1203.849365,1088.218506 1202.866333,1085.978027 1201.380249,1084.193604 
	C1191.529663,1072.365601 1183.696899,1070.941895 1170.117065,1078.785889 
	C1166.703613,1080.757690 1163.591064,1081.936646 1159.864990,1079.901245 
	C1154.620361,1077.036255 1149.361450,1074.192383 1144.041016,1071.471436 
	C1133.304932,1065.980835 1126.879272,1055.878784 1118.811035,1047.606079 
	C1113.993408,1042.666504 1108.680664,1040.829468 1102.195312,1039.900269 
	C1091.412354,1038.355103 1080.738281,1036.044189 1070.029663,1033.996582 
	C1069.086914,1033.816284 1068.227783,1033.198486 1067.363525,1032.799316 
	C1069.411499,1029.568726 1070.754272,1027.450439 1072.947998,1023.989868 
	C1068.410400,1023.316101 1064.830811,1021.931152 1061.599487,1022.505493 
	C1056.793091,1023.359802 1052.040894,1025.200439 1047.608521,1027.333862 
	C1039.015259,1031.469727 1035.927246,1030.909790 1031.816040,1022.478210 
	C1027.871460,1014.388611 1021.353149,1012.250549 1013.003662,1012.415344 
	C1002.801453,1012.616699 993.803223,1010.274048 989.736633,999.162048 
	C987.979187,994.359741 983.892944,993.072327 979.098816,994.033264 
	C977.152527,994.423340 975.295959,995.270752 973.347229,995.636780 
	C966.149902,996.988586 964.380920,995.241638 965.482605,988.049866 
	C967.265869,976.408936 964.890320,972.960022 953.374756,970.862793 
	C950.438171,970.328003 947.398743,970.380005 944.440918,969.934570 
	C940.826660,969.390259 937.094116,969.037964 933.691528,967.822327 
	C928.812073,966.078918 927.761902,961.632080 928.422546,957.120850 
	C928.863770,954.107910 930.336304,948.887329 931.616028,948.804382 
	C935.248779,948.569092 939.190186,950.095459 942.653687,951.698303 
	C944.082214,952.359497 944.661255,954.957825 945.515503,956.728821 
	C946.328613,958.414673 946.996826,960.170471 947.732605,961.904602 
	C949.294006,961.723633 950.326355,961.809875 951.179565,961.459778 
	C952.709900,960.831787 954.219482,960.069336 955.586609,959.140503 
	C967.420105,951.100708 979.314758,943.268066 982.437866,927.583984 
	C983.489319,922.303711 987.040344,917.820679 992.438293,915.870361 
	C997.946472,913.880188 1000.697266,911.200928 998.964478,904.693420 
	C998.393188,902.548340 1000.792603,899.232666 1002.483948,896.929810 
	C1009.942627,886.774719 1014.077637,875.296326 1016.561218,863.110596 
	C1016.883606,861.529175 1017.668823,859.106934 1016.944702,858.399414 
	C1012.317322,853.877563 1014.432617,847.825439 1013.308960,842.488708 
	C1011.024536,841.962097 1008.889404,841.895264 1007.230469,840.972473 
	C1005.426514,839.969055 1004.065063,838.170227 1002.510620,836.718140 
	C1004.011292,835.204651 1005.400513,833.556946 1007.032898,832.202209 
	C1012.577026,827.601501 1019.943054,824.136597 1023.398376,818.326172 
	C1028.621216,809.543701 1034.406250,800.050598 1030.724243,788.395752 
	C1029.993286,786.082275 1032.018066,781.460632 1034.195679,779.934875 
	C1040.774170,775.325195 1039.532837,770.126404 1038.560181,763.353699 
	C1037.033447,752.723206 1031.048828,741.910400 1037.721924,730.861084 
	C1038.476074,729.612427 1037.583008,726.855103 1036.678589,725.228271 
	C1034.914673,722.055420 1032.651001,719.151978 1030.505615,716.201355 
	C1026.638794,710.883423 1022.028687,705.973267 1018.977173,700.229675 
	C1015.313782,693.334656 1010.779236,689.524414 1002.643005,689.697083 
	C990.197388,689.961121 980.479980,684.554260 972.529663,674.862549 
	C967.157104,668.313232 962.487122,661.816650 960.605774,653.354248 
	C958.803589,645.248657 956.449646,637.238708 953.855286,629.345398 
	C951.996826,623.691040 949.565552,618.191162 946.986755,612.815796 
	C943.680725,605.924866 939.562927,599.404602 936.528931,592.406372 
	C931.919617,581.774597 925.634766,572.643799 916.054688,565.958130 
z"/>
<path 
	data-name="Makary"
fill="#966B59" opacity="1.000000" stroke="none" 
	d="
M915.435547,566.256104 
	C925.634766,572.643799 931.919617,581.774597 936.528931,592.406372 
	C939.562927,599.404602 943.680725,605.924866 946.986755,612.815796 
	C949.565552,618.191162 951.996826,623.691040 953.855286,629.345398 
	C956.449646,637.238708 958.803589,645.248657 960.605774,653.354248 
	C962.487122,661.816650 967.157104,668.313232 972.529663,674.862549 
	C980.479980,684.554260 990.197388,689.961121 1002.643005,689.697083 
	C1010.779236,689.524414 1015.313782,693.334656 1018.977173,700.229675 
	C1022.028687,705.973267 1026.638794,710.883423 1030.505615,716.201355 
	C1032.651001,719.151978 1034.914673,722.055420 1036.678589,725.228271 
	C1037.583008,726.855103 1038.476074,729.612427 1037.721924,730.861084 
	C1031.048828,741.910400 1037.033447,752.723206 1038.560181,763.353699 
	C1039.532837,770.126404 1040.774170,775.325195 1034.195679,779.934875 
	C1032.018066,781.460632 1029.993286,786.082275 1030.724243,788.395752 
	C1034.406250,800.050598 1028.621216,809.543701 1023.398376,818.326172 
	C1019.943054,824.136597 1012.577026,827.601501 1007.032898,832.202209 
	C1005.400513,833.556946 1004.011292,835.204651 1002.510620,836.718140 
	C1004.065063,838.170227 1005.426514,839.969055 1007.230469,840.972473 
	C1008.889404,841.895264 1011.024536,841.962097 1013.308960,842.488708 
	C1014.432617,847.825439 1012.317322,853.877563 1016.944702,858.399414 
	C1017.668823,859.106934 1016.883606,861.529175 1016.561218,863.110596 
	C1014.077637,875.296326 1009.942627,886.774719 1002.483948,896.929810 
	C1000.792603,899.232666 998.393188,902.548340 998.964478,904.693420 
	C1000.697266,911.200928 997.946472,913.880188 992.438293,915.870361 
	C987.040344,917.820679 983.489319,922.303711 982.437866,927.583984 
	C979.314758,943.268066 967.420105,951.100708 955.586609,959.140503 
	C954.219482,960.069336 952.709900,960.831787 951.179565,961.459778 
	C950.326355,961.809875 949.294006,961.723633 947.732605,961.904602 
	C946.996826,960.170471 946.328613,958.414673 945.515503,956.728821 
	C944.661255,954.957825 944.082214,952.359497 942.653687,951.698303 
	C939.190186,950.095459 935.248779,948.569092 931.616028,948.804382 
	C930.336304,948.887329 928.863770,954.107910 928.422546,957.120850 
	C927.761902,961.632080 928.812073,966.078918 933.691528,967.822327 
	C937.094116,969.037964 940.826660,969.390259 944.440918,969.934570 
	C947.398743,970.380005 950.438171,970.328003 953.374756,970.862793 
	C964.890320,972.960022 967.265869,976.408936 965.482605,988.049866 
	C964.380920,995.241638 966.149902,996.988586 973.347229,995.636780 
	C975.295959,995.270752 977.152527,994.423340 979.098816,994.033264 
	C983.892944,993.072327 987.979187,994.359741 989.736633,999.162048 
	C993.803223,1010.274048 1002.801453,1012.616699 1013.003662,1012.415344 
	C1021.353149,1012.250549 1027.871460,1014.388611 1031.816040,1022.478210 
	C1035.927246,1030.909790 1039.015259,1031.469727 1047.608521,1027.333862 
	C1052.040894,1025.200439 1056.793091,1023.359802 1061.599487,1022.505493 
	C1064.830811,1021.931152 1068.410400,1023.316101 1072.947998,1023.989868 
	C1070.754272,1027.450439 1069.411499,1029.568726 1067.363525,1032.799316 
	C1068.227783,1033.198486 1069.086914,1033.816284 1070.029663,1033.996582 
	C1080.738281,1036.044189 1091.412354,1038.355103 1102.195312,1039.900269 
	C1108.680664,1040.829468 1113.993408,1042.666504 1118.811035,1047.606079 
	C1126.879272,1055.878784 1133.304932,1065.980835 1144.041016,1071.471436 
	C1149.361450,1074.192383 1154.620361,1077.036255 1159.864990,1079.901245 
	C1163.591064,1081.936646 1166.703613,1080.757690 1170.117065,1078.785889 
	C1183.696899,1070.941895 1191.529663,1072.365601 1201.380249,1084.193604 
	C1202.866333,1085.978027 1203.849365,1088.218506 1205.466919,1089.849487 
	C1209.726318,1094.144165 1210.193237,1098.623901 1208.257812,1104.384155 
	C1205.112061,1113.746826 1206.935181,1115.957153 1216.430664,1118.173950 
	C1225.652832,1120.326904 1233.370483,1117.273804 1240.793335,1112.282959 
	C1253.206543,1103.936523 1259.297485,1104.494019 1271.165161,1113.933105 
	C1280.521362,1121.374756 1290.631592,1127.942505 1297.547607,1138.017944 
	C1299.791260,1141.286743 1302.679565,1144.450562 1303.750854,1148.108154 
	C1305.400513,1153.740356 1309.190063,1155.373901 1314.107666,1155.678833 
	C1319.421875,1156.008179 1324.775513,1156.203369 1330.087646,1155.948853 
	C1338.409790,1155.549805 1344.625488,1159.659546 1350.728516,1164.496094 
	C1355.076050,1167.941528 1359.542480,1171.304565 1364.275391,1174.177979 
	C1369.379395,1177.276611 1370.976318,1179.265137 1368.007080,1184.600464 
	C1365.022583,1189.962646 1360.350708,1194.378662 1356.479858,1199.258301 
	C1354.910889,1201.236084 1351.859863,1204.066284 1352.374634,1205.237427 
	C1353.379028,1207.521729 1356.175049,1209.577026 1358.680908,1210.497437 
	C1361.675903,1211.597656 1365.137695,1211.640991 1368.408447,1211.728638 
	C1373.955811,1211.877319 1379.546631,1212.058960 1385.050903,1211.524658 
	C1388.190796,1211.219971 1391.195679,1209.525513 1394.609985,1208.335327 
	C1399.914185,1211.300049 1398.259766,1216.289307 1397.263428,1220.535400 
	C1395.594482,1227.648315 1393.316040,1234.630981 1391.030518,1241.581665 
	C1389.767700,1245.421997 1389.973145,1247.952759 1393.408081,1251.099243 
	C1400.973877,1258.029419 1403.675781,1266.514771 1401.147461,1277.249390 
	C1399.277954,1285.186279 1400.074097,1293.757568 1399.752930,1302.049072 
	C1399.636841,1305.043457 1399.883057,1308.056274 1399.688965,1311.042847 
	C1399.199463,1318.572998 1395.807251,1322.221924 1388.293213,1321.633423 
	C1381.673218,1321.114990 1375.879028,1322.773682 1369.949341,1325.127319 
	C1365.634277,1326.840088 1361.154419,1328.305176 1356.616455,1329.244873 
	C1351.412231,1330.322632 1346.148926,1330.825928 1341.104980,1327.837769 
	C1335.510010,1324.523315 1329.957764,1325.588989 1323.905029,1327.674072 
	C1304.799316,1334.255981 1285.611328,1335.627686 1266.832642,1326.082153 
	C1262.679565,1323.970947 1258.250122,1322.341675 1254.293579,1319.924805 
	C1250.982422,1317.902222 1248.142090,1315.093384 1245.156616,1312.558105 
	C1242.912476,1310.652222 1240.795166,1306.964722 1238.576172,1306.929688 
	C1225.351074,1306.720337 1211.512207,1300.703125 1199.103638,1309.860840 
	C1195.950317,1312.188232 1193.525757,1315.502930 1191.817383,1319.718872 
	C1189.266968,1320.314819 1186.716675,1320.910889 1183.464844,1321.945557 
	C1181.257446,1321.131592 1179.509521,1320.077637 1178.288452,1318.590942 
	C1173.477539,1312.732788 1171.991333,1311.849121 1166.118530,1315.904053 
	C1160.373413,1319.870483 1155.326782,1320.121826 1150.093872,1315.787964 
	C1145.236084,1324.372437 1146.928833,1326.262695 1135.215332,1318.709595 
	C1132.621338,1320.619385 1129.971558,1322.570190 1127.320068,1324.522461 
	C1129.116699,1328.096069 1130.870483,1331.584839 1132.963867,1335.748779 
	C1122.574951,1338.490723 1115.767090,1332.615234 1107.369873,1330.282715 
	C1108.103882,1327.958740 1108.805786,1325.736694 1109.277100,1324.244385 
	C1100.789185,1322.404175 1092.646362,1320.638916 1084.208130,1318.809448 
	C1083.785034,1306.082764 1095.564331,1314.759888 1099.399170,1309.380127 
	C1096.975830,1304.283081 1095.095947,1298.562500 1091.732178,1293.915894 
	C1089.711670,1291.124756 1085.567383,1289.318726 1082.026611,1288.341309 
	C1078.720825,1287.428833 1075.408569,1287.507935 1074.543945,1282.676270 
	C1076.728882,1280.730103 1079.106445,1278.612183 1081.626343,1276.367676 
	C1079.291260,1269.893311 1075.340698,1266.814697 1068.622437,1267.809082 
	C1063.469971,1268.571655 1058.317383,1269.533081 1053.133911,1269.796143 
	C1050.798950,1269.914795 1047.963989,1269.127808 1046.086304,1267.753784 
	C1038.073975,1261.890747 1029.210938,1258.683105 1019.364624,1258.158081 
	C1015.686646,1257.961914 1011.741089,1258.506836 1010.562927,1253.659790 
	C1009.496155,1249.270752 1011.730835,1246.526245 1015.564758,1245.140747 
	C1020.335571,1243.416504 1021.628540,1240.031372 1022.243286,1235.284790 
	C1022.762695,1231.274414 1024.987305,1227.484985 1025.196533,1222.469482 
	C1023.795532,1223.418701 1022.508850,1224.656494 1020.972839,1225.265015 
	C1015.686768,1227.359863 1012.922485,1226.205200 1010.666016,1221.160034 
	C1009.994446,1219.658447 1009.932007,1217.709229 1008.915283,1216.565308 
	C1001.833801,1208.598389 1001.813477,1200.586670 1009.712830,1191.725342 
	C998.841492,1188.258789 993.476013,1177.160767 981.492371,1177.050903 
	C979.109619,1177.029175 976.555420,1174.095825 974.447937,1172.114136 
	C972.582275,1170.359985 971.228271,1168.061646 969.421936,1165.708496 
	C966.825134,1166.747681 964.801147,1167.890869 962.635925,1168.318726 
	C960.909241,1168.659912 957.835083,1168.697998 957.432678,1167.866821 
	C956.594910,1166.136475 956.619934,1163.575317 957.239380,1161.663086 
	C957.921936,1159.556030 959.668884,1157.793701 961.418335,1155.186523 
	C959.374023,1151.923462 956.833801,1148.812378 955.419800,1145.253784 
	C954.586548,1143.156982 954.662720,1139.589966 955.958252,1138.096924 
	C957.050903,1136.837524 960.819336,1136.839722 962.812439,1137.682129 
	C965.492188,1138.814575 967.560425,1141.525269 971.594666,1138.318359 
	C971.009460,1134.393066 970.723755,1129.840820 969.578430,1125.516357 
	C968.369507,1120.951416 964.272583,1119.810547 960.098389,1119.654297 
	C954.772827,1119.454956 949.434753,1119.518921 944.103149,1119.572021 
	C939.480774,1119.618164 934.909241,1118.442383 933.029541,1114.238525 
	C930.325867,1108.191772 925.243469,1106.580444 919.853699,1104.756226 
	C917.635742,1104.005737 915.633118,1102.618774 912.343994,1100.900269 
	C915.858826,1098.009766 918.018982,1096.233276 921.192993,1093.623169 
	C918.649353,1090.522095 916.378967,1087.754272 913.473877,1084.212646 
	C910.026489,1088.655518 907.475281,1091.943481 903.976990,1096.451782 
	C901.586060,1093.661499 899.266846,1091.572754 897.742981,1089.010742 
	C896.060608,1086.182373 895.354187,1082.786865 893.782654,1079.875977 
	C891.008789,1074.738159 888.315857,1073.889404 882.401001,1075.708862 
	C875.658081,1077.783081 869.239014,1080.345337 864.806030,1086.311646 
	C862.869202,1088.918335 859.947876,1090.791748 857.143311,1088.617432 
	C855.454041,1087.307617 854.427490,1084.123657 854.472473,1081.808594 
	C854.565918,1076.990356 857.512939,1072.148682 853.752197,1067.468384 
	C850.529602,1063.457764 844.481140,1060.714966 833.572327,1058.739868 
	C831.032349,1062.214478 828.317810,1065.927979 824.681274,1069.302002 
	C821.274841,1066.298706 816.933411,1063.816162 816.652771,1060.937622 
	C815.799500,1052.185181 809.866089,1045.868408 807.392334,1038.088989 
	C803.461243,1025.726318 794.143799,1019.513306 782.969849,1015.325317 
	C774.282104,1012.069275 765.386841,1009.360474 756.555237,1006.496582 
	C747.266418,1003.484436 745.289001,997.919678 751.163696,990.153442 
	C753.553955,986.993530 756.790894,984.484070 759.301392,981.400818 
	C760.572693,979.839661 761.084900,977.660400 762.371826,974.802368 
	C758.239319,974.319641 755.310425,973.495117 752.473938,973.740234 
	C745.132324,974.374817 738.869812,971.794922 732.576416,968.490051 
	C723.477966,963.712219 720.681641,954.925354 716.942322,946.370056 
	C713.970276,939.570129 719.542053,936.135193 721.563293,931.685547 
	C718.785339,926.527710 714.282776,928.405579 710.578552,927.909424 
	C703.091370,926.906616 701.130798,925.030945 702.010681,917.577637 
	C702.418457,914.123352 704.444458,910.869385 705.669861,907.500244 
	C707.879089,901.426025 713.480835,896.153625 711.300537,889.050720 
	C709.822388,884.234863 712.070740,882.313721 715.564941,880.457458 
	C717.238159,879.568481 718.828613,878.523865 721.654541,876.832886 
	C715.214233,869.561340 715.033875,858.398376 703.291321,856.058899 
	C700.230652,855.449158 696.604248,852.775940 697.819580,848.867249 
	C699.946350,842.026978 698.730652,835.191772 699.264099,828.427185 
	C699.910522,820.229736 698.565735,813.325562 693.908325,806.881653 
	C692.088806,804.364258 692.228394,800.761597 688.055847,799.479370 
	C680.587830,797.184387 673.426819,793.890503 666.805237,791.277649 
	C665.153748,786.554260 664.128540,782.662537 662.448853,779.077393 
	C660.634766,775.205383 658.208923,771.620117 655.813721,767.471680 
	C655.159729,766.466797 654.602356,766.133240 653.937622,766.038696 
	C653.969910,766.044312 653.912109,766.102539 653.912109,766.102539 
	C652.158020,755.979431 646.465027,752.592224 637.425293,756.200073 
	C633.803833,757.645447 630.103149,758.892395 626.230408,760.305603 
	C623.005981,756.075684 624.191895,752.271790 624.816833,748.429871 
	C625.396973,744.863098 626.098450,741.191833 625.824036,737.637878 
	C625.351868,731.523926 622.826599,728.812317 616.624695,728.081360 
	C608.969849,727.179138 603.659546,723.794189 601.109375,716.364990 
	C600.575195,714.809021 599.519470,713.437744 598.923950,711.896362 
	C596.494873,705.609680 593.300049,701.427429 585.242188,701.559326 
	C577.862732,701.680115 572.245300,697.393372 570.099304,689.522278 
	C567.687866,680.677979 560.607117,673.354614 561.520569,663.398987 
	C555.090942,653.925293 549.640198,643.418152 536.323364,641.873779 
	C524.426758,640.494202 513.279724,637.651978 508.725342,623.458801 
	C511.959808,621.300110 515.514771,618.435547 519.487061,616.375671 
	C528.639038,611.629761 535.302185,604.718506 540.316223,595.725525 
	C542.338440,592.098572 546.096130,589.439270 550.406372,586.214966 
	C555.228760,587.189331 556.332703,589.850342 555.936035,593.117493 
	C555.279724,598.523315 558.262329,602.101135 562.073120,604.893616 
	C566.047424,607.805908 570.393799,610.279541 574.790222,612.529236 
	C580.064270,615.227844 585.563232,617.486816 591.229614,620.056274 
	C590.157715,625.363647 586.109558,630.140930 589.613831,635.241211 
	C597.673584,639.556519 602.361572,631.000183 610.097656,630.225647 
	C613.736389,636.228943 617.518677,642.373352 621.156982,648.601868 
	C621.576782,649.320435 621.484070,650.627136 621.139221,651.457825 
	C618.473511,657.877869 622.660950,659.779785 627.488464,661.289429 
	C629.626404,661.958008 631.780945,662.573364 634.424561,663.360779 
	C633.494995,666.334778 632.112427,668.792786 632.156006,671.225281 
	C632.192444,673.261902 633.400146,676.040344 635.001831,677.068054 
	C636.553040,678.063599 640.357422,678.174500 641.296814,677.073608 
	C647.698303,669.571655 656.932434,670.826233 665.751221,668.271484 
	C667.672852,670.711548 670.197327,673.000061 671.553040,675.845459 
	C673.789795,680.540100 675.527100,685.518127 677.020569,690.512512 
	C680.629761,702.582336 690.304138,706.431519 700.976196,705.925415 
	C714.664795,705.276062 725.796448,710.831116 736.189148,717.882874 
	C741.617065,721.565857 745.427246,722.406799 750.212585,718.410095 
	C754.231750,715.053162 758.189514,715.161987 761.842468,718.607483 
	C764.664307,721.269287 767.781128,724.021545 769.500427,727.381592 
	C778.607544,745.179443 787.448547,747.801697 799.916199,745.836975 
	C803.187439,745.321350 806.514343,744.942078 809.819763,744.908630 
	C815.403748,744.852112 820.991089,745.214600 826.577087,745.217773 
	C829.783386,745.219604 833.025208,745.092529 836.188354,744.611633 
	C841.403198,743.818604 846.529480,742.244080 851.760925,741.800903 
	C861.927429,740.939697 864.001099,738.628723 861.158264,728.574829 
	C859.353699,722.192993 857.029968,715.869446 854.153809,709.898071 
	C848.491333,698.141846 849.834290,685.799438 850.816406,673.621033 
	C851.194580,668.932617 853.855652,664.252014 856.158203,659.930969 
	C861.306946,650.268738 867.405090,641.086243 872.155396,631.244385 
	C878.221802,618.675964 882.877380,605.420044 889.082397,592.927979 
	C891.806824,587.443298 894.537292,582.353882 894.338806,576.126282 
	C901.157898,574.596313 905.730957,577.714722 909.165955,584.532227 
	C912.442871,582.431702 915.163635,580.687622 919.833496,577.694153 
	C914.549683,576.385498 911.839172,575.714172 908.733826,574.945068 
	C908.877075,570.683350 912.247864,568.889771 915.435547,566.256104 
z"/>
<path 
	data-name="Fotokol"
fill="#CEEC58" opacity="1.000000" stroke="none" 
	d="
M656.049988,767.909729 
	C658.208923,771.620117 660.634766,775.205383 662.448853,779.077393 
	C664.128540,782.662537 665.153748,786.554260 666.805237,791.277649 
	C673.426819,793.890503 680.587830,797.184387 688.055847,799.479370 
	C692.228394,800.761597 692.088806,804.364258 693.908325,806.881653 
	C698.565735,813.325562 699.910522,820.229736 699.264099,828.427185 
	C698.730652,835.191772 699.946350,842.026978 697.819580,848.867249 
	C696.604248,852.775940 700.230652,855.449158 703.291321,856.058899 
	C715.033875,858.398376 715.214233,869.561340 721.654541,876.832886 
	C718.828613,878.523865 717.238159,879.568481 715.564941,880.457458 
	C712.070740,882.313721 709.822388,884.234863 711.300537,889.050720 
	C713.480835,896.153625 707.879089,901.426025 705.669861,907.500244 
	C704.444458,910.869385 702.418457,914.123352 702.010681,917.577637 
	C701.130798,925.030945 703.091370,926.906616 710.578552,927.909424 
	C714.282776,928.405579 718.785339,926.527710 721.563293,931.685547 
	C719.542053,936.135193 713.970276,939.570129 716.942322,946.370056 
	C720.681641,954.925354 723.477966,963.712219 732.576416,968.490051 
	C738.869812,971.794922 745.132324,974.374817 752.473938,973.740234 
	C755.310425,973.495117 758.239319,974.319641 762.371826,974.802368 
	C761.084900,977.660400 760.572693,979.839661 759.301392,981.400818 
	C756.790894,984.484070 753.553955,986.993530 751.163696,990.153442 
	C745.289001,997.919678 747.266418,1003.484436 756.555237,1006.496582 
	C765.386841,1009.360474 774.282104,1012.069275 782.969849,1015.325317 
	C794.143799,1019.513306 803.461243,1025.726318 807.392334,1038.088989 
	C809.866089,1045.868408 815.799500,1052.185181 816.652771,1060.937622 
	C816.933411,1063.816162 821.274841,1066.298706 824.086365,1069.608643 
	C819.285217,1073.931152 813.754700,1072.587158 809.700745,1069.403442 
	C796.364746,1058.929932 783.918274,1064.426025 771.718506,1070.913940 
	C764.335327,1074.840454 759.230469,1075.000977 751.939697,1070.910034 
	C746.260986,1067.723633 739.988953,1064.710693 733.092224,1066.842529 
	C724.557190,1069.480835 716.739075,1068.230835 709.255981,1063.622437 
	C705.300476,1061.186401 701.211609,1058.964478 697.288574,1056.479004 
	C687.511902,1050.284912 677.821411,1052.525757 671.903259,1062.450806 
	C664.786682,1074.385620 662.494751,1075.394653 648.108826,1073.278198 
	C645.556458,1068.423462 643.575134,1063.612549 640.595215,1059.530640 
	C639.494019,1058.022095 636.043030,1058.229004 632.672119,1057.413696 
	C635.057129,1061.462036 636.917480,1064.214111 638.359680,1067.170044 
	C640.172485,1070.885864 639.027100,1074.316895 636.006348,1076.768677 
	C632.895264,1079.293701 629.522339,1078.219604 626.980774,1075.724243 
	C624.905884,1073.687134 623.102539,1071.188354 621.797668,1068.584229 
	C616.601318,1058.213867 607.675598,1053.846069 597.631104,1058.521851 
	C592.458435,1060.929810 587.467102,1060.743774 582.282715,1061.483643 
	C572.477234,1062.882812 562.771912,1064.995728 553.037659,1066.877686 
	C547.839111,1067.882690 542.699585,1069.705933 537.475952,1069.954956 
	C528.236450,1070.395386 525.695007,1066.955811 527.418640,1057.991699 
	C527.665588,1056.707520 527.703918,1055.383179 527.962646,1052.877319 
	C521.972229,1049.998413 515.923035,1046.708374 509.582581,1044.136230 
	C500.605194,1040.494385 493.474548,1035.242065 489.356140,1026.093994 
	C486.912872,1020.666748 483.409027,1015.726807 480.602234,1010.450623 
	C477.994751,1005.549133 474.207031,1003.016296 468.576202,1003.341309 
	C466.585144,1003.456177 464.580963,1003.335022 462.582764,1003.335999 
	C459.233826,1003.337708 456.452057,1002.057129 455.876984,998.634460 
	C455.334045,995.403198 455.207245,991.904175 459.152863,990.090881 
	C460.878143,989.298035 462.423981,988.114685 463.990265,987.146301 
	C462.486084,981.167419 454.727631,976.901184 460.090790,970.040894 
	C461.110504,969.816772 461.900482,969.361511 462.341522,969.587524 
	C472.520721,974.801697 473.076416,974.505798 473.760620,963.503113 
	C473.819580,962.554749 474.319946,961.633850 474.985718,959.528931 
	C478.789703,961.034485 482.388153,962.458679 485.986603,963.882812 
	C486.339447,963.322388 486.692291,962.761963 487.045135,962.201538 
	C484.889465,960.428589 482.743927,958.643188 480.576141,956.885132 
	C474.720459,952.136414 475.346802,948.431152 482.517578,945.584412 
	C485.102386,944.558350 487.711395,943.593079 490.961792,942.350647 
	C484.386230,937.278076 482.762756,937.121887 477.343872,941.227478 
	C474.770355,943.177368 472.894104,946.417297 468.230042,944.154236 
	C468.865967,940.613464 470.130798,936.909607 470.025208,933.245300 
	C469.913635,929.372925 468.694672,925.480042 467.588013,921.705017 
	C466.669708,918.572754 465.525055,915.421631 463.925720,912.592529 
	C460.891876,907.225891 459.235565,901.691345 460.132202,894.760132 
	C462.200745,894.314087 464.342407,893.430054 466.469666,893.463379 
	C478.692780,893.655090 480.710907,891.376099 480.476166,878.349426 
	C480.379364,872.978882 481.385559,867.699402 487.211609,864.156799 
	C490.183075,863.928406 492.555359,863.723267 494.822296,864.120056 
	C499.509369,864.940613 502.406036,870.333496 500.528809,874.665283 
	C499.745544,876.472656 498.663208,878.253784 497.343658,879.708313 
	C489.719421,888.112549 487.067047,898.866455 483.345245,909.094543 
	C481.216339,914.945129 485.145782,923.067139 490.834381,925.269409 
	C494.597351,926.726074 498.415344,924.381226 499.685577,919.992859 
	C500.643036,916.684937 501.803009,913.435669 503.313232,908.811890 
	C507.549744,911.624329 510.466675,913.560791 513.401733,915.509216 
	C522.187317,910.663025 522.363464,909.648315 520.507996,900.267334 
	C519.858459,896.983276 519.924255,892.160217 521.856567,890.021362 
	C527.996521,883.225159 526.709351,875.834778 525.035034,868.402588 
	C523.645813,862.235718 522.383179,856.393799 523.538513,849.869812 
	C524.355469,845.256714 526.410217,842.860291 530.095703,840.785217 
	C537.025452,836.883545 543.815491,832.733887 551.338318,828.288635 
	C549.414734,823.693237 547.666931,819.517883 545.626343,814.643127 
	C553.930237,810.265076 554.449890,802.727417 553.942688,794.413940 
	C553.428589,785.989014 553.809998,785.923462 561.771118,782.972961 
	C566.757996,781.124756 571.923950,779.709595 576.787231,777.590027 
	C584.234863,774.344055 585.965637,770.945129 585.208984,762.694519 
	C585.149048,762.040955 584.571594,761.302185 584.750244,760.779114 
	C587.657898,752.266785 585.028381,744.561829 579.999146,735.902588 
	C591.351868,736.816772 601.104736,743.635498 610.319397,736.682556 
	C614.662781,742.034424 609.212097,744.063721 608.771179,747.245605 
	C614.135864,756.764648 614.135864,756.764648 611.139771,764.630493 
	C623.205322,767.647278 635.026062,770.823853 645.329712,759.414001 
	C648.230591,761.837585 650.458191,763.698730 653.298950,765.831177 
	C653.912109,766.102539 653.969910,766.044312 654.107788,766.526917 
	C654.847168,767.309631 655.448547,767.609680 656.049988,767.909729 
z"/>
<path 
	data-name="Blangoua"
fill="#863758" opacity="1.000000" stroke="none" 
	d="
M1245.978271,623.989380 
	C1220.544800,617.080017 1195.152588,609.321777 1170.682373,601.845337 
	C1160.644409,610.762390 1151.541016,618.849121 1142.086914,627.247437 
	C1124.332275,615.384277 1106.035278,606.498596 1091.284668,592.125854 
	C1087.146973,588.094055 1081.705200,584.949280 1076.311279,582.742981 
	C1060.311646,576.198547 1043.998779,570.424255 1027.896973,564.122620 
	C1023.635803,562.454956 1019.828735,562.217163 1015.481689,563.920959 
	C1007.129150,567.194702 998.421326,569.586670 990.154297,573.045654 
	C984.156799,575.555054 978.740295,575.477783 973.072388,572.620239 
	C971.006775,571.578857 968.777832,570.770203 966.537781,570.180481 
	C946.715637,564.962708 930.448120,553.633484 914.735718,540.022217 
	C915.402405,538.410095 917.747925,536.877808 917.521851,536.186035 
	C915.175842,529.009644 918.575867,524.839355 925.218323,522.340515 
	C922.959351,519.415466 921.286743,517.249634 919.193970,514.539673 
	C922.219727,512.278687 924.763123,510.378143 927.854065,508.068451 
	C926.155884,503.628113 924.450134,499.168182 922.699951,494.591888 
	C928.375244,490.634399 931.246521,490.723145 935.573608,495.319336 
	C941.052246,501.138641 941.052246,501.138641 949.331543,497.465576 
	C948.819824,495.109436 948.404175,492.580505 947.714111,490.128754 
	C945.196411,481.183624 946.263062,477.589722 954.438416,474.356598 
	C960.271667,472.049774 961.605042,469.415649 960.307739,463.145172 
	C957.778442,450.919281 964.795715,442.971527 977.578003,442.053864 
	C979.233215,441.935028 980.941162,442.267914 982.562012,442.004883 
	C987.518311,441.200653 989.642639,436.733765 985.938416,433.530548 
	C979.956421,428.357635 977.834961,421.974030 976.389282,414.669708 
	C974.666260,405.963470 967.067139,403.394073 960.217590,400.168976 
	C957.763184,403.722809 955.606018,406.846313 952.921326,410.733673 
	C944.542358,404.943878 942.506042,395.831512 936.310669,389.455933 
	C945.343079,385.224487 953.374634,392.779297 962.471252,388.445007 
	C958.610046,384.811676 955.437012,381.825836 950.653625,377.324707 
	C953.487427,376.270721 955.699524,375.447998 957.911621,374.625244 
	C957.504883,373.693451 957.098145,372.761627 956.691467,371.829834 
	C953.016052,371.269440 949.307800,370.866241 945.674377,370.105347 
	C941.880249,369.310791 938.158325,368.171783 932.806213,366.762329 
	C934.906677,363.629486 935.804260,360.652527 937.648560,359.849213 
	C943.042542,357.499908 948.700806,355.101227 954.461548,354.389954 
	C965.638733,353.009918 976.958130,352.790527 988.213501,352.016357 
	C989.132202,351.953156 990.011963,351.324799 991.333374,350.786499 
	C989.226074,344.267456 991.587036,336.651398 985.475769,331.011780 
	C978.468811,329.980774 969.589661,336.274414 963.471375,327.073029 
	C969.653259,319.680969 977.547607,320.017029 985.037476,319.663605 
	C987.855042,311.300140 980.002747,306.410431 980.002930,298.765259 
	C987.558228,298.985931 995.283997,300.967896 1001.999878,293.434479 
	C1005.559814,296.713287 1008.906799,299.796021 1012.514221,303.118591 
	C1016.185608,302.743500 1020.076660,302.346008 1024.724976,301.940491 
	C1026.415039,307.658020 1025.495361,312.931427 1023.181335,318.384583 
	C1021.299255,322.819702 1020.483459,327.971191 1020.354004,332.835846 
	C1019.990906,346.475067 1020.154663,360.130829 1020.276428,373.778595 
	C1020.308716,377.400452 1020.848511,381.028748 1021.314453,384.633514 
	C1022.223206,391.663635 1021.376160,397.937775 1018.022339,404.682129 
	C1014.116699,412.535950 1011.748291,421.504608 1010.512451,430.243988 
	C1009.076599,440.397675 1014.422546,448.893524 1021.186096,456.115692 
	C1024.234619,459.370880 1027.367310,458.781464 1030.383057,455.272156 
	C1032.111450,453.261017 1033.701538,451.129486 1035.458862,449.145020 
	C1039.011841,445.132782 1043.662231,444.909943 1048.342041,446.082214 
	C1053.239136,447.308929 1055.064697,451.506989 1055.469849,455.919708 
	C1055.985229,461.534302 1056.058228,467.243500 1055.703003,472.872864 
	C1054.942261,484.931763 1062.416504,492.706177 1069.995972,500.075073 
	C1074.439331,504.395050 1080.092407,502.408356 1084.703857,499.228363 
	C1092.264526,494.014862 1097.459961,486.691742 1101.734863,478.703308 
	C1104.088623,474.305054 1106.056152,469.695862 1108.498047,465.350494 
	C1110.315796,462.115723 1112.488525,459.156342 1117.165649,460.436066 
	C1122.054810,461.773773 1126.229980,465.653778 1125.563232,470.168488 
	C1124.264526,478.962769 1122.934814,487.953064 1115.987671,494.623260 
	C1115.267456,495.314819 1114.371216,495.904114 1113.874634,496.731720 
	C1112.578613,498.891357 1111.459229,501.157043 1110.269409,503.380432 
	C1112.867065,504.286499 1115.418213,505.731567 1118.074219,505.960938 
	C1121.323120,506.241455 1124.677246,505.124023 1127.955566,505.273590 
	C1139.398804,505.795654 1149.628662,509.121063 1156.125488,519.439026 
	C1163.620361,531.342102 1174.927002,535.368469 1188.275391,536.155090 
	C1198.790771,536.774841 1208.601440,534.977905 1218.302979,530.907166 
	C1234.687866,524.032104 1250.630249,528.212769 1263.129150,538.504700 
	C1274.833008,548.141968 1278.478516,559.766724 1266.692139,571.740051 
	C1262.985840,575.505249 1258.990601,579.120850 1254.640869,582.092468 
	C1241.673828,590.951355 1237.585693,606.499390 1244.940063,620.386841 
	C1245.398560,621.252563 1245.664307,622.220276 1245.978271,623.989380 
z"/>
<path 
	data-name="Koussri"
fill="#359174" opacity="1.000000" stroke="none" 
	d="
M1497.586914,1446.689697 
	C1504.323364,1445.885254 1511.235718,1445.826050 1518.144653,1445.949097 
	C1527.604858,1446.117676 1536.329956,1443.266479 1544.643066,1439.219360 
	C1547.495728,1437.830566 1549.995728,1435.338501 1552.103516,1432.876709 
	C1556.579834,1427.648926 1560.693237,1422.110229 1565.514526,1416.335938 
	C1579.070557,1427.209839 1592.968628,1437.377441 1603.485229,1451.385986 
	C1609.765137,1459.750977 1626.727173,1466.181396 1639.882935,1459.547729 
	C1650.560181,1454.164062 1660.700439,1448.294922 1667.942749,1437.956055 
	C1677.044556,1424.962402 1683.808594,1423.596558 1698.845093,1428.537964 
	C1711.788208,1432.791382 1721.881470,1441.575439 1732.834595,1449.033813 
	C1735.831421,1451.074341 1736.097412,1453.711792 1735.482544,1456.880127 
	C1734.221802,1463.376099 1732.863647,1469.863159 1731.923462,1476.408203 
	C1731.092041,1482.197144 1731.558594,1487.942261 1736.833618,1491.723022 
	C1739.398315,1493.561279 1742.538208,1494.590942 1745.397827,1496.026123 
	C1749.156128,1497.912720 1753.445801,1499.211182 1756.507446,1501.900513 
	C1760.653809,1505.542236 1764.375366,1509.942383 1767.260376,1514.642456 
	C1768.989380,1517.458984 1769.840454,1521.669067 1769.230835,1524.903198 
	C1767.528442,1533.936279 1764.859863,1542.787109 1762.315308,1552.714233 
	C1754.883057,1555.216431 1745.117188,1551.259155 1735.430664,1556.610962 
	C1741.803711,1563.689575 1747.684082,1570.220947 1753.843750,1577.367065 
	C1748.556763,1578.089478 1742.982910,1578.428345 1737.425781,1578.248779 
	C1729.794678,1578.002197 1727.392700,1579.826416 1728.433594,1587.364746 
	C1729.195190,1592.881470 1731.157104,1598.279297 1732.987793,1603.591064 
	C1736.115479,1612.665161 1732.892090,1617.383423 1723.320923,1616.062500 
	C1712.134277,1614.518677 1702.935059,1608.216797 1694.370972,1601.358521 
	C1687.380737,1595.760742 1681.258179,1589.087036 1674.347046,1583.379517 
	C1671.475708,1581.008423 1667.629517,1578.746338 1664.090942,1578.515747 
	C1659.293091,1578.203247 1656.564453,1576.230957 1654.931885,1572.295410 
	C1650.666626,1562.013062 1642.544312,1556.205322 1631.708130,1552.355713 
	C1630.352173,1553.146851 1628.488647,1554.968628 1626.419434,1555.243896 
	C1624.150879,1555.545776 1621.311890,1555.017090 1619.396729,1553.793457 
	C1615.516113,1551.313477 1612.396484,1547.564087 1608.397095,1545.369507 
	C1603.898193,1542.900513 1598.832153,1541.391602 1593.903687,1539.804443 
	C1590.590698,1538.737427 1586.148926,1539.316406 1583.870728,1537.292236 
	C1579.465332,1533.378418 1575.783081,1528.325317 1576.058838,1521.754639 
	C1576.252808,1517.131104 1576.675171,1512.517090 1577.048462,1507.137329 
	C1576.112305,1506.319702 1574.845581,1504.652466 1573.165649,1503.852905 
	C1568.331055,1501.551392 1564.302368,1499.440430 1562.652710,1493.195557 
	C1561.512085,1488.876831 1556.991943,1485.289429 1553.562378,1481.785767 
	C1550.623169,1478.782593 1546.758789,1478.828125 1543.654907,1481.500000 
	C1539.843140,1484.781372 1536.152100,1484.221558 1531.618408,1483.319824 
	C1523.286499,1481.662720 1514.762939,1480.759644 1506.275757,1480.177124 
	C1501.840576,1479.872803 1499.231812,1478.047241 1498.564575,1474.011841 
	C1497.924072,1470.138916 1496.464966,1465.080566 1498.214111,1462.406738 
	C1501.909058,1456.759277 1499.380127,1452.394043 1497.586914,1446.689697 
z"/>
<path 
	data-name="Hile-Alifa"
fill="#63E55C" opacity="1.000000" stroke="none" 
	d="
M894.130920,575.444580 
	C894.537292,582.353882 891.806824,587.443298 889.082397,592.927979 
	C882.877380,605.420044 878.221802,618.675964 872.155396,631.244385 
	C867.405090,641.086243 861.306946,650.268738 856.158203,659.930969 
	C853.855652,664.252014 851.194580,668.932617 850.816406,673.621033 
	C849.834290,685.799438 848.491333,698.141846 854.153809,709.898071 
	C857.029968,715.869446 859.353699,722.192993 861.158264,728.574829 
	C864.001099,738.628723 861.927429,740.939697 851.760925,741.800903 
	C846.529480,742.244080 841.403198,743.818604 836.188354,744.611633 
	C833.025208,745.092529 829.783386,745.219604 826.577087,745.217773 
	C820.991089,745.214600 815.403748,744.852112 809.819763,744.908630 
	C806.514343,744.942078 803.187439,745.321350 799.916199,745.836975 
	C787.448547,747.801697 778.607544,745.179443 769.500427,727.381592 
	C767.781128,724.021545 764.664307,721.269287 761.842468,718.607483 
	C758.189514,715.161987 754.231750,715.053162 750.212585,718.410095 
	C745.427246,722.406799 741.617065,721.565857 736.189148,717.882874 
	C725.796448,710.831116 714.664795,705.276062 700.976196,705.925415 
	C690.304138,706.431519 680.629761,702.582336 677.020569,690.512512 
	C675.527100,685.518127 673.789795,680.540100 671.553040,675.845459 
	C670.197327,673.000061 667.672852,670.711548 665.751221,668.271484 
	C656.932434,670.826233 647.698303,669.571655 641.296814,677.073608 
	C640.357422,678.174500 636.553040,678.063599 635.001831,677.068054 
	C633.400146,676.040344 632.192444,673.261902 632.156006,671.225281 
	C632.112427,668.792786 633.494995,666.334778 634.424561,663.360779 
	C631.780945,662.573364 629.626404,661.958008 627.488464,661.289429 
	C622.660950,659.779785 618.473511,657.877869 621.139221,651.457825 
	C621.484070,650.627136 621.576782,649.320435 621.156982,648.601868 
	C617.518677,642.373352 613.736389,636.228943 610.097656,630.225647 
	C602.361572,631.000183 597.673584,639.556519 589.613831,635.241211 
	C586.109558,630.140930 590.157715,625.363647 591.229614,620.056274 
	C585.563232,617.486816 580.064270,615.227844 574.790222,612.529236 
	C570.393799,610.279541 566.047424,607.805908 562.073120,604.893616 
	C558.262329,602.101135 555.279724,598.523315 555.936035,593.117493 
	C556.332703,589.850342 555.228760,587.189331 551.030518,585.896484 
	C547.914246,579.867493 545.476379,574.048401 543.129333,568.192932 
	C540.907166,562.649231 541.664124,558.281677 545.021362,556.616699 
	C548.382690,554.949646 553.169739,556.431763 556.249451,560.686096 
	C558.160339,563.325806 559.541260,566.408691 560.820312,569.436157 
	C567.184509,584.500183 577.503418,588.210571 592.057373,580.531555 
	C592.639771,580.224365 593.215759,579.823608 593.656067,579.340149 
	C602.079346,570.090637 614.025208,569.330811 625.059692,566.865479 
	C629.603394,565.850220 634.930176,566.757996 639.528320,568.083191 
	C643.028320,569.091797 645.834106,569.379944 648.919250,567.591187 
	C650.356140,566.757996 651.979004,566.237183 653.387512,565.364868 
	C668.512146,555.998413 693.278076,569.238342 692.720703,588.012756 
	C698.282410,587.744507 704.300232,588.843445 709.138245,586.941528 
	C720.357117,582.530945 731.033264,584.715698 740.980225,588.938782 
	C755.036926,594.906677 766.698975,590.937073 779.316467,583.396790 
	C768.276062,576.002014 757.995850,569.698486 745.122620,567.738708 
	C739.779907,566.925354 734.695984,562.459778 730.247375,558.751648 
	C728.621094,557.396118 729.175781,553.424194 728.792969,551.008606 
	C719.601074,545.176819 710.311829,539.579224 701.362671,533.482544 
	C696.779419,530.360168 691.748413,527.099487 691.889893,520.355896 
	C691.964050,516.823425 690.101685,514.944519 686.819031,513.917053 
	C680.595947,511.969330 676.413269,508.078430 672.565857,502.447662 
	C666.571045,493.674133 658.379822,486.496277 648.328186,482.203613 
	C637.079285,477.399750 625.750427,472.760376 614.314148,468.424408 
	C601.754395,463.662506 597.687134,451.786469 605.805420,440.055115 
	C606.660828,442.166077 607.724670,443.726349 607.867004,445.366547 
	C608.153809,448.672821 607.714600,452.040466 607.978516,455.350616 
	C608.523987,462.193054 610.682556,464.213867 617.404358,464.046783 
	C622.862610,463.911133 628.222778,461.726288 633.706909,465.328308 
	C635.200745,466.309479 638.980408,463.810608 643.073669,462.458832 
	C644.729492,463.537109 647.417725,465.358215 650.176086,467.065948 
	C653.557556,469.159515 656.762024,471.958588 660.457031,473.046936 
	C671.249390,476.225769 680.458069,481.826935 688.646606,489.354309 
	C689.375183,490.024078 690.168091,490.969330 691.022949,491.080475 
	C692.554016,491.279572 694.755310,491.529846 695.582947,490.686096 
	C696.757080,489.489105 697.922119,486.851837 697.352844,485.661194 
	C695.983643,482.797668 693.929443,480.052429 691.552979,477.929657 
	C688.131897,474.873810 684.179871,472.412476 680.473877,469.711548 
	C681.001648,461.024261 688.260986,460.762665 693.265808,458.778259 
	C697.796082,456.981995 703.412720,456.344879 707.344971,460.544556 
	C715.785095,469.558472 726.662476,474.523132 737.469543,479.711853 
	C739.860474,480.859772 742.349182,482.020721 744.368408,483.689270 
	C753.566650,491.289948 762.582520,499.110779 771.731934,506.771301 
	C774.781738,509.324799 778.171326,511.479889 781.157532,514.099915 
	C784.586304,517.108398 787.633179,520.550476 791.041748,523.584229 
	C794.737244,526.873474 798.450439,530.219360 802.542725,532.963745 
	C806.252686,535.451782 810.306763,534.276672 813.845093,532.036255 
	C816.359680,530.444031 818.609436,528.435303 820.988708,526.627319 
	C824.978088,523.595764 828.631958,523.397583 832.454163,527.240112 
	C840.491150,535.319885 849.975037,540.167175 861.743774,540.185730 
	C864.941528,540.190796 868.180603,541.693848 871.325317,542.736694 
	C883.298462,546.707214 885.037842,552.767822 876.920532,562.018860 
	C882.588623,566.267273 888.255859,570.515137 894.130920,575.444580 
z"/>

</svg>