<svg version="1.1" id="Layer_1" xmlns="http://www.w3.org/2000/svg" xmlns:xlink="http://www.w3.org/1999/xlink" x="0px" y="0px"
	 width="100%" viewBox="0 0 2293 2920" enable-background="new 0 0 2293 2920" xml:space="preserve">

<path 
	data-name="Bum"
fill="#FA695F" opacity="1.000000" stroke="none" 
	d="
M1800.142090,292.668518 
	C1800.884888,292.497986 1801.627563,292.327423 1803.135132,293.042145 
	C1805.933350,297.303162 1809.268921,300.504730 1809.748291,304.088409 
	C1811.019287,313.589111 1811.494141,323.256653 1811.456055,332.854523 
	C1811.420776,341.770233 1810.363770,350.685547 1809.661865,359.593597 
	C1809.221069,365.188904 1808.363770,370.761658 1808.160400,376.361511 
	C1808.043945,379.569550 1808.005249,383.268280 1809.432617,385.945892 
	C1812.688477,392.053680 1811.934326,397.360260 1808.369873,402.829773 
	C1800.494995,414.913666 1800.058228,428.287994 1802.179199,441.909363 
	C1802.940186,446.796570 1805.003662,451.466125 1806.161621,456.309418 
	C1808.689697,466.883606 1812.566406,477.089966 1811.671143,488.444580 
	C1810.878052,498.504242 1812.456421,499.682220 1822.384888,503.473694 
	C1824.556152,504.302795 1826.670532,505.280609 1828.700928,506.143066 
	C1831.818848,515.698059 1834.887329,518.542847 1844.274414,518.205444 
	C1856.468994,517.767273 1868.044922,519.751221 1879.373779,524.153564 
	C1882.702637,525.447083 1886.474121,525.567078 1890.010498,526.367432 
	C1901.669312,529.005859 1913.597168,530.971436 1920.466064,542.813660 
	C1921.774780,545.070068 1924.875000,547.023438 1927.495483,547.638123 
	C1934.081665,549.183044 1938.394531,553.653259 1943.118530,557.838196 
	C1947.293823,561.537231 1951.705688,565.001526 1956.236572,568.258484 
	C1961.612061,572.122375 1967.497925,575.310791 1972.675293,579.407898 
	C1980.712036,585.768066 1988.422974,592.551453 1996.100952,599.348816 
	C2000.083496,602.874634 2004.203735,603.528503 2008.892090,601.240295 
	C2013.772461,598.858337 2018.367554,599.529907 2023.252563,601.710144 
	C2028.291870,603.959106 2033.427856,606.338196 2039.437744,604.021667 
	C2041.085571,603.386536 2043.650391,605.130615 2046.589966,606.024902 
	C2045.947632,610.004578 2045.173828,613.495972 2044.864990,617.028015 
	C2044.433716,621.959412 2043.192749,627.211060 2044.345825,631.812622 
	C2047.160889,643.047058 2050.991943,654.041382 2054.725342,665.026489 
	C2057.385254,672.852722 2057.469727,679.688782 2050.836670,685.929077 
	C2046.770020,689.754883 2043.730713,694.660767 2040.135010,699.002869 
	C2036.823242,703.001953 2037.374390,707.143921 2039.994629,710.973572 
	C2043.367065,715.902649 2046.595581,721.184082 2050.963867,725.116272 
	C2056.992432,730.542725 2058.406494,736.617065 2058.594482,744.447754 
	C2058.890381,756.763184 2060.621094,769.110168 2072.675537,776.750732 
	C2074.388672,777.836670 2075.989258,780.543213 2076.040283,782.540527 
	C2076.200195,788.803955 2076.211914,795.196533 2075.122559,801.333435 
	C2073.877197,808.350037 2075.053955,813.260559 2080.873291,817.657776 
	C2088.871826,823.701843 2088.871582,823.701660 2084.817139,832.810242 
	C2081.564453,840.117004 2081.029297,840.438843 2072.778320,840.274902 
	C2070.576660,840.231140 2068.373047,840.268311 2066.275879,840.268311 
	C2065.296143,844.830750 2065.747070,847.876953 2069.933594,850.029114 
	C2073.417969,851.820374 2076.526611,854.470520 2079.520020,857.065002 
	C2088.049561,864.457031 2088.657471,868.757874 2082.524414,878.374268 
	C2079.975830,882.370239 2078.999756,886.095398 2079.233398,891.222290 
	C2079.666504,900.721802 2080.913086,909.634460 2085.500977,918.012573 
	C2085.872070,918.690430 2085.274170,919.899048 2085.083740,921.142639 
	C2083.401855,922.060913 2081.665527,922.990662 2079.946289,923.951172 
	C2074.456055,927.018433 2070.011230,930.432190 2072.111084,938.023987 
	C2072.732910,940.271118 2071.723877,943.297546 2070.672119,945.607239 
	C2068.812744,949.690857 2063.954102,954.082764 2064.733398,957.275757 
	C2065.736572,961.384827 2071.256836,964.267334 2074.469971,967.990051 
	C2079.223633,973.497803 2088.950684,976.365845 2084.809326,986.931458 
	C2084.477295,987.778503 2086.298828,989.799622 2087.494141,990.848450 
	C2090.238037,993.256531 2093.480957,995.135498 2096.034912,997.711548 
	C2100.435791,1002.150208 2105.263672,1006.471008 2108.459229,1011.724976 
	C2112.921631,1019.061401 2116.582031,1027.010742 2119.593506,1035.068604 
	C2122.416504,1042.622192 2126.178223,1050.387817 2123.005371,1059.072144 
	C2116.331543,1060.921875 2109.919189,1063.466187 2103.403809,1060.155396 
	C2096.556152,1056.676025 2091.104004,1059.575806 2086.032959,1063.543213 
	C2078.491455,1069.443726 2078.321045,1074.437622 2085.471924,1080.640503 
	C2089.726318,1084.330811 2094.236816,1087.924072 2099.150146,1090.615479 
	C2108.955811,1095.986816 2109.739746,1104.779175 2105.073730,1113.505371 
	C2103.571289,1116.315552 2101.678467,1119.769165 2102.106201,1122.605225 
	C2103.597168,1132.490479 2099.243652,1140.707153 2096.182617,1149.506592 
	C2094.655762,1149.797241 2093.321045,1150.409790 2092.107666,1150.224854 
	C2083.564209,1148.923096 2078.341064,1153.591553 2074.087402,1160.031738 
	C2068.814697,1168.015015 2066.608154,1176.864990 2066.267090,1186.384644 
	C2065.806396,1199.237427 2068.204102,1212.253784 2063.694336,1225.423584 
	C2074.507812,1233.108643 2078.553467,1243.262817 2078.833008,1256.881592 
	C2079.134766,1271.584961 2069.504639,1279.003662 2060.093506,1289.014771 
	C2064.269775,1290.465088 2067.003906,1292.344604 2069.550049,1292.117554 
	C2076.149414,1291.529053 2079.267822,1295.396973 2081.977539,1300.223145 
	C2084.087158,1303.980469 2085.598877,1308.169067 2088.185059,1311.546509 
	C2099.643555,1326.510254 2115.272949,1333.575439 2133.842773,1334.232666 
	C2141.063232,1334.488159 2148.020996,1334.298584 2155.223145,1331.136108 
	C2163.904541,1327.324219 2173.771240,1326.296143 2182.983154,1323.581665 
	C2191.514893,1321.067627 2199.979980,1318.216187 2208.220459,1314.885010 
	C2211.016357,1313.754883 2212.780029,1309.549561 2216.638672,1311.668335 
	C2220.612061,1313.850342 2219.565430,1317.976318 2219.669434,1321.554688 
	C2219.727539,1323.552734 2219.267578,1325.674805 2219.799316,1327.522705 
	C2220.489014,1329.920654 2221.337646,1332.985596 2223.161621,1334.215210 
	C2229.453369,1338.456787 2235.982422,1342.481567 2242.827881,1345.732178 
	C2250.932861,1349.581055 2259.027344,1352.929932 2265.036865,1360.209473 
	C2270.070312,1366.306641 2276.071533,1371.621948 2281.791748,1377.129883 
	C2285.839355,1381.027100 2290.333740,1383.666626 2296.000000,1380.000000 
	C2296.000000,1386.061157 2296.000000,1392.122437 2295.387207,1398.571899 
	C2286.071777,1405.864136 2285.361816,1416.984131 2280.658691,1425.996582 
	C2280.037598,1427.186523 2281.002686,1429.171875 2281.144043,1430.796753 
	C2282.666504,1448.288086 2284.421631,1465.764404 2285.572021,1483.280396 
	C2286.124268,1491.690796 2284.643066,1493.430786 2276.286377,1494.138794 
	C2267.250000,1494.904419 2260.367432,1499.569580 2252.750244,1504.551270 
	C2254.885742,1509.942627 2256.424072,1515.416016 2259.113037,1520.249512 
	C2263.301758,1527.779297 2261.810303,1534.281006 2256.994629,1540.589111 
	C2255.190186,1542.953003 2253.272705,1545.295776 2251.075684,1547.282227 
	C2245.253906,1552.546509 2242.986572,1558.467285 2243.851074,1566.686523 
	C2244.675781,1574.528198 2247.093750,1583.367310 2239.530273,1590.137817 
	C2238.364990,1591.180908 2238.648438,1593.863647 2238.302002,1595.795288 
	C2237.659180,1599.379883 2236.817627,1602.947388 2236.466309,1606.561646 
	C2235.626953,1615.200684 2230.462891,1620.194946 2223.012451,1623.614380 
	C2218.797119,1625.548706 2214.810547,1627.974609 2210.655762,1630.049194 
	C2206.153320,1632.297485 2203.877930,1635.605591 2203.178711,1640.827515 
	C2200.985107,1657.207275 2197.667480,1673.452271 2195.918213,1689.870361 
	C2194.673096,1701.557007 2189.590820,1711.204956 2181.492432,1718.548828 
	C2173.721191,1725.595825 2168.851807,1733.514526 2165.879883,1743.282227 
	C2164.222656,1748.727905 2160.956055,1753.393188 2155.194092,1755.671997 
	C2141.005859,1761.283569 2125.843750,1760.117676 2111.126221,1761.999634 
	C2106.249756,1762.623169 2101.212646,1762.615479 2096.306641,1762.206543 
	C2091.582031,1761.812744 2086.932129,1760.527466 2081.622070,1759.514160 
	C2081.622070,1761.973145 2081.622070,1763.884766 2080.813477,1765.833862 
	C2077.395752,1765.420532 2074.753174,1765.109863 2072.183350,1764.494995 
	C2060.591797,1761.721924 2049.831055,1762.664062 2038.342773,1767.211182 
	C2012.728516,1777.348999 1987.012451,1787.280273 1959.892334,1793.329224 
	C1920.318481,1802.156006 1881.205444,1813.068848 1841.587769,1821.673706 
	C1795.487305,1831.686401 1749.063599,1840.215820 1702.748657,1849.227539 
	C1698.911987,1849.974121 1694.706299,1850.180176 1690.892456,1849.463867 
	C1669.993164,1845.539185 1649.199951,1841.048584 1628.298828,1837.134155 
	C1603.163818,1832.426636 1577.964355,1828.061157 1552.777832,1823.632690 
	C1543.298828,1821.966064 1533.526489,1821.431152 1524.320923,1818.841309 
	C1490.391602,1809.295166 1456.609619,1799.216553 1422.873657,1789.003662 
	C1418.999268,1787.830688 1415.541992,1784.823975 1412.295166,1782.172729 
	C1409.486084,1779.878906 1407.257080,1776.876465 1404.761963,1774.196533 
	C1385.840820,1753.872925 1363.121460,1737.937378 1342.113770,1720.025879 
	C1327.678345,1707.718018 1313.062988,1695.749023 1303.629883,1678.646118 
	C1299.986206,1672.039673 1294.836548,1666.079834 1289.583618,1660.579102 
	C1273.333252,1643.562134 1259.629639,1625.175903 1252.730469,1602.176758 
	C1250.076294,1593.328735 1246.456421,1584.461182 1241.593384,1576.650635 
	C1231.932861,1561.135132 1221.104248,1546.346802 1210.610840,1530.400879 
	C1210.212158,1524.893677 1209.761230,1520.243774 1209.760742,1515.593872 
	C1209.760132,1509.847046 1212.440674,1507.186401 1217.779785,1508.606812 
	C1228.201782,1511.379395 1237.888550,1508.011597 1249.052490,1506.704102 
	C1247.379639,1501.510864 1246.625488,1496.822632 1244.430298,1492.951538 
	C1241.725708,1488.182373 1241.790405,1483.401123 1242.382812,1478.477661 
	C1244.452759,1461.275513 1253.272583,1446.601807 1260.442139,1431.327881 
	C1261.114502,1429.895630 1262.484009,1428.614502 1263.828247,1427.703003 
	C1272.217773,1422.014282 1276.013428,1413.309204 1279.803711,1404.295288 
	C1278.630981,1403.290649 1277.641113,1402.435059 1276.643311,1401.588989 
	C1266.868652,1393.299316 1266.651855,1391.923706 1273.465820,1380.830566 
	C1274.685425,1378.844971 1276.354736,1377.046631 1277.160034,1374.914062 
	C1278.891479,1370.329102 1281.426880,1365.579468 1281.414062,1360.903320 
	C1281.388428,1351.626221 1282.983887,1343.153687 1288.029663,1335.335205 
	C1289.077271,1333.712158 1289.630981,1331.770264 1290.684326,1329.350098 
	C1288.051514,1326.688110 1285.135864,1324.390503 1283.106079,1321.475708 
	C1281.568237,1319.267212 1280.072754,1316.113525 1280.431396,1313.653442 
	C1282.333618,1300.603760 1284.827515,1287.640381 1287.201782,1274.163086 
	C1291.094849,1273.485474 1294.982300,1272.787231 1298.877563,1272.134888 
	C1310.337646,1270.215454 1320.556641,1265.550293 1328.461792,1257.020874 
	C1334.056519,1250.984131 1338.787598,1244.137573 1343.774780,1237.554565 
	C1344.903320,1236.064941 1345.495605,1234.169189 1346.010254,1233.120850 
	C1342.467773,1227.704224 1338.686646,1223.333618 1336.494751,1218.274658 
	C1332.058228,1208.035278 1326.087280,1199.172729 1318.087036,1191.342285 
	C1308.688354,1182.143066 1310.811279,1174.465088 1323.179443,1169.742554 
	C1326.521606,1168.466309 1330.750366,1167.277100 1332.572144,1164.657227 
	C1338.988281,1155.430542 1344.792236,1145.744873 1350.336426,1135.954834 
	C1355.554199,1126.740845 1359.916138,1117.043213 1365.110596,1107.815186 
	C1368.031494,1102.626099 1372.259399,1098.176147 1375.217407,1093.003784 
	C1380.171265,1084.341553 1385.783691,1076.901611 1396.698364,1075.763794 
	C1397.942749,1075.634155 1399.060913,1074.559570 1400.303223,1074.100586 
	C1410.981934,1070.154907 1411.097656,1062.248047 1402.847412,1055.347046 
	C1398.516235,1051.724121 1394.018066,1048.102783 1390.494507,1043.752441 
	C1382.386597,1033.742554 1376.436157,1022.408813 1378.610596,1009.127747 
	C1380.276001,998.955078 1378.844360,989.470032 1376.878174,979.620850 
	C1375.143555,970.932739 1374.588745,961.923523 1374.372070,953.035156 
	C1373.871948,932.513428 1375.987915,911.734680 1367.068237,892.227295 
	C1366.537964,891.067749 1366.450806,889.660461 1366.355835,888.354004 
	C1365.441528,875.774231 1364.509644,863.195190 1363.704468,850.608154 
	C1363.003296,839.646973 1362.498413,828.685242 1353.391479,820.589783 
	C1352.510742,819.806824 1351.944458,818.319153 1351.816895,817.097656 
	C1351.104614,810.269104 1348.705933,803.671875 1351.080811,796.472473 
	C1352.349609,792.625671 1351.262207,787.951416 1351.005981,783.664490 
	C1350.689331,778.366333 1350.122559,773.083252 1349.680054,767.792358 
	C1348.741089,756.563599 1347.469604,745.349670 1346.954712,734.101257 
	C1346.034668,714.001709 1341.230469,694.076599 1344.168823,673.794250 
	C1344.345215,672.576599 1343.877441,671.265625 1343.734009,670.183044 
	C1339.623901,667.264404 1333.560425,666.566895 1334.161499,659.390625 
	C1343.322998,655.465332 1343.584717,649.013672 1340.737671,640.057556 
	C1334.805420,621.395264 1330.063477,602.350342 1325.029053,583.410339 
	C1323.900757,579.165955 1323.580933,574.706665 1322.788452,569.712891 
	C1327.243408,570.650818 1330.412354,571.318054 1333.773193,572.025635 
	C1337.425781,567.346313 1340.865601,562.939453 1344.261963,558.588440 
	C1354.097412,560.227234 1363.514282,561.796265 1372.215576,563.246094 
	C1382.154297,554.136169 1391.504761,545.565369 1401.657349,536.259460 
	C1410.971436,544.012695 1420.889038,551.463684 1420.154785,566.353882 
	C1428.047119,565.827698 1435.172729,565.352600 1442.972534,564.832581 
	C1443.472534,568.962708 1443.737305,572.546326 1444.380249,576.060791 
	C1445.001831,579.458923 1446.012695,582.785828 1447.074585,587.031799 
	C1449.268311,585.531433 1450.491577,585.015686 1451.267090,584.114624 
	C1458.588013,575.607727 1459.434937,575.529480 1469.001587,582.115662 
	C1471.275879,583.681335 1473.815063,584.862488 1477.128662,586.724182 
	C1478.313232,580.711304 1478.197021,575.661377 1480.303345,571.835144 
	C1484.155640,564.837463 1484.181030,558.074158 1482.498169,550.700562 
	C1482.058228,548.773071 1482.617188,545.291809 1483.902466,544.533630 
	C1488.634521,541.742554 1488.007080,537.518372 1488.467285,533.210327 
	C1488.884766,529.302063 1489.911743,525.325562 1491.426758,521.694885 
	C1494.885986,513.404419 1503.646729,507.288086 1509.692383,509.788574 
	C1516.376831,512.553284 1520.986938,510.251740 1526.128418,506.635651 
	C1535.077271,500.341766 1544.245483,494.349640 1553.466431,488.457550 
	C1557.008789,486.194000 1560.076782,483.806427 1560.236572,479.292969 
	C1560.437012,473.629639 1563.563721,470.198547 1568.255371,467.630829 
	C1569.952881,466.701752 1571.540161,465.375732 1572.823486,463.918762 
	C1578.716309,457.229279 1584.335815,450.295074 1590.327759,443.697906 
	C1601.487061,431.411591 1612.836792,419.298401 1624.319946,406.883057 
	C1628.784424,407.782959 1633.281738,408.976471 1637.856201,409.519653 
	C1641.432007,409.944214 1645.231934,410.164551 1648.708740,409.425079 
	C1659.054199,407.224792 1669.373169,404.794617 1679.525757,401.845551 
	C1683.477539,400.697662 1687.937500,398.757996 1690.492798,395.755127 
	C1707.489624,375.780731 1732.345581,363.579376 1745.576660,339.944397 
	C1745.733276,339.664886 1746.005371,339.415283 1746.280396,339.241913 
	C1754.537598,334.035492 1758.999023,325.997681 1763.150757,317.513977 
	C1767.381836,308.868408 1774.045532,303.375885 1784.449097,303.935913 
	C1787.079102,304.077454 1789.815308,303.860901 1792.380127,303.273560 
	C1798.192383,301.942566 1799.607178,299.816284 1800.142090,292.668518 
z"/>

<path 
	data-name="Belo"
fill="#F46CF4" opacity="1.000000" stroke="none" 
	d="
M1981.985352,1917.961548 
	C1992.017456,1919.743286 2000.474487,1917.134521 2006.515625,1908.860840 
	C2016.254761,1912.086426 2018.864258,1920.974731 2022.966187,1928.282959 
	C2024.301392,1930.661621 2023.545776,1934.903809 2022.470215,1937.823608 
	C2018.344727,1949.022949 2013.808228,1960.076294 2009.205200,1971.092285 
	C2006.826782,1976.784424 2005.927856,1982.294922 2007.910889,1988.380615 
	C2010.860840,1997.433594 2013.292725,2006.655273 2015.855835,2015.497681 
	C2022.204590,2016.473633 2027.722168,2017.321655 2032.977173,2018.129517 
	C2034.635742,2020.740723 2036.161987,2022.916016 2037.453491,2025.222778 
	C2040.488159,2030.643311 2044.628174,2034.358032 2050.651855,2036.664307 
	C2059.970215,2040.231934 2063.380371,2046.023926 2062.298584,2054.043457 
	C2061.521240,2059.805176 2058.608398,2062.750488 2052.693115,2063.635498 
	C2051.385010,2063.831055 2049.568359,2063.235840 2048.785156,2063.919922 
	C2042.333130,2069.554443 2034.647217,2070.022949 2026.641724,2070.162109 
	C2025.132812,2070.188232 2022.586182,2072.990723 2022.370728,2074.740479 
	C2021.038940,2085.555908 2013.029907,2090.419189 2004.749878,2094.638184 
	C1993.992432,2100.119385 1982.632690,2103.108887 1970.198730,2102.525391 
	C1959.652344,2102.030518 1949.029907,2103.378662 1938.435059,2103.571045 
	C1934.519531,2103.642090 1930.566162,2102.870117 1926.666260,2102.253906 
	C1922.083252,2101.529053 1917.562622,2099.995361 1912.973999,2099.806396 
	C1903.359131,2099.409912 1895.307861,2102.415527 1891.104492,2112.063232 
	C1888.734009,2117.503662 1886.195679,2122.870850 1883.777100,2128.174072 
	C1892.425049,2136.196045 1892.640381,2141.458984 1885.310547,2150.879639 
	C1883.730713,2152.910400 1882.386475,2155.450439 1881.891113,2157.946045 
	C1878.578003,2174.636719 1876.785278,2191.710693 1882.639282,2207.888916 
	C1887.826294,2222.223877 1884.166870,2234.606934 1878.495972,2247.164062 
	C1872.410645,2260.638672 1865.950562,2273.943848 1859.520996,2287.605469 
	C1843.404053,2275.189209 1824.194580,2269.072021 1803.042969,2267.944336 
	C1804.509521,2282.633545 1803.215454,2284.450928 1789.774414,2290.691650 
	C1784.995483,2292.910400 1780.746704,2296.258301 1776.210815,2299.016602 
	C1772.723633,2301.136719 1769.299194,2301.808105 1764.915649,2300.979980 
	C1755.818115,2299.261963 1746.510864,2298.615234 1737.273804,2297.685059 
	C1721.762207,2296.122803 1711.905273,2304.603027 1703.538452,2316.328369 
	C1696.034668,2326.843750 1692.283325,2338.815674 1688.896362,2350.948975 
	C1685.688232,2362.441650 1689.156128,2366.513428 1699.881470,2372.342285 
	C1707.172607,2376.304443 1714.349365,2382.607910 1718.534790,2389.668213 
	C1725.256958,2401.008057 1730.385498,2413.007812 1739.355835,2423.262939 
	C1745.493652,2430.280029 1748.029541,2440.358398 1752.659912,2448.802979 
	C1761.019653,2464.048096 1771.121582,2478.155518 1785.250488,2488.488770 
	C1793.618896,2494.609131 1797.107666,2503.391113 1801.588745,2511.812744 
	C1802.172852,2512.910645 1802.334351,2514.433350 1802.175293,2515.694336 
	C1800.987671,2525.112305 1799.250244,2534.482178 1798.541748,2543.931641 
	C1798.078003,2550.115234 1799.191406,2556.402588 1799.332764,2562.649902 
	C1799.497314,2569.922363 1800.582397,2577.489258 1798.943726,2584.375732 
	C1797.866211,2588.903564 1793.079468,2592.916748 1789.190918,2596.278076 
	C1786.610107,2598.509033 1785.004883,2600.389404 1783.870850,2603.818359 
	C1778.509277,2620.028809 1766.869995,2631.239502 1752.863892,2640.238770 
	C1748.672729,2642.931641 1744.514404,2645.983398 1739.899414,2647.640869 
	C1731.780273,2650.556885 1729.667480,2656.686035 1728.192383,2664.248291 
	C1726.882324,2670.964355 1724.827759,2677.778076 1721.711060,2683.832764 
	C1718.355347,2690.352051 1712.135742,2694.142334 1704.433594,2693.602783 
	C1686.762817,2692.364014 1671.323242,2696.841553 1657.550659,2708.551514 
	C1648.475952,2716.267090 1637.891357,2722.187012 1628.164062,2729.163330 
	C1623.028320,2732.846436 1618.114746,2734.105225 1611.516968,2732.898193 
	C1596.952271,2730.232422 1582.493286,2732.650391 1568.344727,2736.686035 
	C1555.599854,2740.321533 1542.939697,2744.278076 1530.114258,2747.599121 
	C1523.518311,2749.306885 1517.529297,2751.562256 1512.744019,2756.619141 
	C1511.187256,2758.264404 1509.154297,2759.593018 1507.116333,2760.627197 
	C1492.347168,2768.123535 1477.740234,2775.998047 1462.631348,2782.743408 
	C1453.473633,2786.831787 1445.912964,2792.034668 1440.899536,2800.761230 
	C1439.245605,2803.640381 1437.451050,2806.440674 1435.662109,2809.239746 
	C1430.765381,2816.902100 1425.066162,2823.824951 1416.675171,2827.852539 
	C1410.685913,2830.727295 1408.839111,2835.142822 1409.768311,2841.592529 
	C1412.272827,2858.974609 1414.341064,2876.419189 1416.783325,2893.810791 
	C1418.161377,2903.624756 1417.456665,2904.972412 1407.873657,2905.910156 
	C1388.676147,2907.788818 1369.776978,2911.010254 1351.645142,2917.836182 
	C1349.907104,2918.489990 1348.398682,2919.754150 1347.391846,2921.367432 
	C1341.938843,2922.000000 1335.877563,2922.000000 1329.400146,2921.379395 
	C1319.358887,2912.832275 1308.642212,2906.614258 1296.443237,2904.219482 
	C1285.686890,2902.108398 1280.365479,2895.606445 1278.182739,2885.873535 
	C1276.052856,2876.376709 1272.989136,2867.395752 1267.546875,2859.255859 
	C1266.277588,2857.357422 1265.335205,2855.096436 1264.811768,2852.868408 
	C1262.482666,2842.953613 1257.671509,2835.686035 1247.646118,2831.414307 
	C1238.746704,2827.622070 1237.692505,2823.064209 1239.173218,2812.757812 
	C1239.622192,2809.632812 1239.850098,2805.547607 1238.248779,2803.244141 
	C1234.620239,2798.024658 1232.026978,2792.499756 1229.588501,2786.707275 
	C1228.527222,2784.186768 1225.767456,2782.004395 1223.267212,2780.544678 
	C1217.925415,2777.425537 1212.250122,2774.877686 1206.354736,2771.916748 
	C1205.475098,2766.425293 1204.375000,2760.256348 1203.526123,2754.052979 
	C1202.764038,2748.483398 1201.415527,2742.807861 1201.853027,2737.300537 
	C1202.710449,2726.502197 1198.765381,2717.046875 1194.832153,2707.597656 
	C1193.715088,2704.914062 1190.653564,2701.534180 1188.134644,2701.212646 
	C1179.351318,2700.093750 1170.286743,2699.611084 1163.005981,2706.466553 
	C1159.579468,2709.692871 1156.154053,2712.541748 1150.894043,2712.386230 
	C1132.353271,2711.838135 1114.700439,2708.290527 1098.991699,2697.809326 
	C1093.910400,2694.418701 1088.675781,2691.973389 1082.309204,2692.230225 
	C1077.675781,2692.416992 1072.966064,2691.350342 1068.371948,2691.758545 
	C1052.262207,2693.190918 1040.082764,2683.796387 1027.418823,2676.575439 
	C1018.191101,2671.313965 1009.351807,2669.246582 999.127808,2671.622314 
	C989.525146,2673.853516 979.860718,2675.887695 970.138000,2677.489502 
	C967.404846,2677.940186 964.179260,2677.026367 961.515625,2675.925537 
	C956.453613,2673.832764 952.068909,2674.417969 947.289551,2676.987305 
	C941.197632,2680.261230 934.943298,2683.670166 928.335999,2685.455078 
	C915.519897,2688.916992 902.316040,2690.593262 888.971619,2690.248047 
	C886.738953,2690.189941 884.053894,2689.828369 882.392273,2688.549316 
	C874.920959,2682.796631 868.404236,2684.302246 862.072998,2690.314209 
	C859.669312,2692.597168 857.056702,2694.657959 854.593506,2696.880371 
	C848.983704,2701.941162 843.941284,2707.868408 837.675903,2711.902100 
	C830.627869,2716.439453 822.489441,2719.283203 813.354248,2723.550781 
	C811.959351,2721.648926 809.009521,2719.199707 808.129700,2716.153076 
	C804.471802,2703.487549 799.302185,2692.516357 784.726440,2689.605957 
	C784.105103,2689.482178 783.524414,2689.033691 782.982422,2688.654053 
	C778.831238,2685.750244 774.741211,2686.173340 771.228638,2689.489990 
	C760.766907,2699.369385 748.885498,2699.672119 735.963501,2695.608887 
	C731.170105,2694.101807 727.665527,2691.753174 725.842407,2687.064209 
	C724.760315,2684.281250 723.369873,2681.570801 722.677124,2678.693115 
	C721.111938,2672.191895 717.806763,2666.822510 711.992126,2663.689941 
	C702.796082,2658.735107 700.732666,2650.723389 700.716492,2641.142334 
	C705.065979,2639.573486 709.201599,2638.351318 713.104980,2636.608887 
	C718.514465,2634.193848 719.578247,2630.307861 716.076050,2625.542969 
	C714.345520,2623.188965 712.137024,2620.947998 709.671631,2619.418701 
	C703.359314,2615.503418 699.640747,2610.074463 698.080994,2602.864990 
	C696.796875,2596.930176 694.299072,2591.572754 689.500671,2587.315918 
	C700.416382,2572.204834 711.932007,2558.284912 721.159485,2542.985352 
	C729.045715,2529.909180 739.439087,2520.414551 752.098145,2512.736572 
	C758.962097,2508.573730 764.329590,2502.750977 770.222229,2497.426514 
	C779.936768,2488.648926 785.368347,2479.014404 786.255005,2465.879883 
	C786.795349,2457.875000 793.964233,2452.878418 802.373718,2451.264160 
	C811.500916,2449.511963 820.517212,2447.188477 829.614136,2445.267090 
	C831.784485,2444.808350 834.489258,2444.122070 836.247253,2444.978760 
	C841.806885,2447.687988 847.885437,2449.626953 851.671265,2455.329834 
	C853.836609,2458.591797 856.893372,2461.399902 859.968872,2463.894775 
	C871.238525,2473.035400 884.671631,2476.517822 898.766235,2477.752441 
	C903.354248,2478.154785 906.873901,2479.212891 909.570068,2483.405762 
	C916.992737,2494.949219 927.721680,2500.684082 941.542358,2499.639648 
	C947.114319,2499.218506 952.697205,2498.210449 958.134155,2496.889160 
	C969.100769,2494.224365 979.833618,2489.561279 990.910522,2488.612061 
	C1011.443726,2486.852783 1032.154297,2487.210205 1052.641113,2490.600098 
	C1062.122925,2492.168701 1071.902466,2492.778564 1081.019897,2495.554199 
	C1110.946045,2504.665283 1140.967896,2513.337646 1171.789917,2518.815430 
	C1197.623291,2523.406494 1223.537598,2527.561279 1249.464722,2531.597412 
	C1265.702881,2534.125488 1278.970215,2529.378418 1287.747681,2514.575439 
	C1289.588013,2511.472168 1291.797241,2508.189697 1294.664795,2506.160400 
	C1308.155884,2496.613281 1320.975220,2485.612305 1338.454346,2483.773926 
	C1343.381958,2483.255615 1348.260254,2482.266113 1353.188599,2481.759277 
	C1360.122437,2481.046631 1367.118774,2480.843506 1374.010010,2479.868408 
	C1376.373291,2479.533936 1378.947876,2477.959717 1380.631226,2476.194092 
	C1383.126343,2473.576660 1385.216553,2470.448730 1386.952026,2467.251953 
	C1397.390991,2448.023193 1413.383667,2435.053467 1433.079468,2426.399902 
	C1437.737305,2424.353271 1440.537964,2421.494141 1442.244019,2416.741211 
	C1444.372314,2410.813232 1447.063599,2405.066406 1449.811523,2399.386230 
	C1456.479492,2385.604248 1468.890015,2377.214111 1480.726685,2368.858643 
	C1486.271973,2364.944336 1494.743652,2362.399170 1501.332153,2363.301025 
	C1516.383911,2365.361816 1528.225708,2357.941650 1541.159424,2354.730957 
	C1541.431274,2352.033203 1541.807495,2350.690186 1541.656860,2349.408936 
	C1540.624756,2340.621338 1544.824707,2334.911377 1552.066284,2330.648193 
	C1555.192017,2328.807861 1558.430176,2326.711426 1560.706787,2323.974121 
	C1564.779907,2319.077148 1569.703735,2318.088867 1575.711792,2318.042480 
	C1586.616577,2317.958740 1597.546997,2318.513672 1608.218262,2314.442627 
	C1614.067017,2312.211670 1617.375122,2309.295898 1619.390381,2303.306885 
	C1626.708130,2281.559570 1634.461670,2259.955566 1642.310425,2238.391602 
	C1647.652466,2223.715332 1653.427612,2209.197021 1659.728516,2194.449463 
	C1669.371216,2191.779541 1678.643677,2190.103027 1687.132935,2186.552979 
	C1698.748413,2181.696045 1709.617554,2175.085938 1721.082520,2169.829102 
	C1734.970093,2163.461426 1743.785400,2151.843018 1752.857300,2140.461182 
	C1759.459717,2132.177490 1765.044312,2122.991211 1772.293579,2115.357178 
	C1775.380615,2112.106201 1778.531860,2109.220215 1779.140381,2105.021240 
	C1780.534424,2095.400635 1788.455200,2090.690186 1793.933716,2084.188965 
	C1796.545898,2081.088867 1799.656372,2077.478516 1803.254639,2076.324463 
	C1812.007935,2073.517578 1820.706909,2071.972900 1828.247192,2065.338135 
	C1835.322266,2059.112549 1844.714355,2051.819580 1847.918823,2043.810669 
	C1851.011963,2036.079956 1856.273560,2031.961304 1864.222412,2029.491821 
	C1872.838135,2026.815308 1881.968872,2024.431152 1888.019531,2016.481079 
	C1889.072510,2015.097412 1892.121826,2014.510986 1894.121704,2014.728638 
	C1897.691772,2015.117065 1901.358032,2015.961304 1904.634155,2017.407227 
	C1909.849121,2019.709229 1913.628052,2017.649414 1917.095581,2014.236572 
	C1918.982544,2012.379150 1920.259277,2009.882935 1922.208374,2008.111572 
	C1926.230957,2004.455566 1927.174438,2000.703125 1924.338013,1995.774780 
	C1923.115356,1993.650146 1922.850220,1990.854858 1922.596802,1988.319458 
	C1922.179688,1984.149902 1921.971924,1979.944214 1921.962646,1975.753052 
	C1921.953491,1971.604126 1920.019897,1966.727539 1924.626831,1963.827637 
	C1934.117676,1957.854004 1939.642456,1948.933960 1943.363159,1938.822998 
	C1946.675049,1929.822632 1952.721924,1926.044067 1962.216675,1925.524414 
	C1969.311035,1925.136230 1976.812744,1924.144775 1981.985352,1917.961548 
z"/>

<path 
	data-name="Njinikom"
fill="#D7EB57" opacity="1.000000" stroke="none" 
	d="
M152.442841,2366.594482 
	C155.987549,2362.057129 159.764709,2358.292725 162.633942,2353.931152 
	C165.045639,2350.264648 167.474823,2348.093018 172.146973,2348.186279 
	C175.118011,2348.245361 178.117035,2346.899170 181.101151,2344.330322 
	C178.884308,2343.273682 176.667465,2342.217285 174.450424,2341.161133 
	C172.210754,2334.576416 173.645645,2329.529541 181.025146,2326.638916 
	C182.193649,2329.620605 183.421982,2332.755127 184.755920,2336.159180 
	C187.745178,2334.638916 190.342865,2333.317871 192.970901,2331.981445 
	C199.494873,2334.660645 203.994141,2340.919189 212.463715,2342.306885 
	C210.806000,2336.699707 206.449158,2333.282227 208.201080,2327.290527 
	C209.327515,2323.437744 205.783508,2318.420166 205.333008,2313.826660 
	C205.079849,2311.245605 206.104446,2307.733643 207.866806,2305.911621 
	C213.096893,2300.504150 215.664337,2293.956787 217.683273,2287.024414 
	C219.134628,2282.040771 220.447067,2277.016602 221.928101,2272.042236 
	C222.185730,2271.177002 222.805054,2270.050781 223.542664,2269.753662 
	C231.110657,2266.706543 232.813446,2258.870850 237.136444,2253.209473 
	C240.268402,2249.108154 242.872086,2245.838379 249.290863,2247.230225 
	C254.715485,2248.406494 260.041534,2246.031250 264.697357,2242.081299 
	C269.450104,2238.049316 275.078827,2235.037598 280.383209,2231.672607 
	C283.888489,2229.448975 287.401581,2230.474365 288.802612,2233.837158 
	C291.102570,2239.358398 295.270599,2239.762207 300.091583,2239.689209 
	C304.068817,2239.628906 308.047729,2239.677002 312.769714,2239.677002 
	C314.252106,2229.041504 322.138336,2230.226807 330.406738,2231.550781 
	C328.448303,2226.073730 324.268768,2228.597168 321.149841,2226.802490 
	C319.868622,2224.539795 318.101501,2221.777344 316.687622,2218.844482 
	C314.091248,2213.458740 313.473785,2208.728516 318.309601,2203.479736 
	C323.065491,2198.317627 324.896271,2191.307617 324.331512,2184.019775 
	C323.910278,2178.584229 326.009644,2175.009033 333.126221,2174.222656 
	C347.575836,2177.253906 360.501129,2180.383789 373.547241,2182.883057 
	C441.745544,2195.948242 508.751221,2215.018311 578.017639,2222.776367 
	C610.700195,2226.437012 643.181702,2231.862305 675.821533,2235.951660 
	C688.659973,2237.560547 701.679382,2237.746094 714.620483,2238.510742 
	C744.167114,2240.256592 773.703186,2243.118896 803.267090,2243.454590 
	C879.869934,2244.324951 956.501038,2242.605225 1033.076294,2246.160156 
	C1039.729370,2246.468750 1046.406250,2246.281494 1053.057129,2246.618164 
	C1079.947144,2247.979492 1106.823730,2249.484619 1133.774170,2248.404785 
	C1170.357788,2246.938232 1206.942383,2245.375244 1243.541748,2244.489502 
	C1253.440308,2244.249756 1261.765137,2241.117432 1268.999023,2235.182129 
	C1275.180664,2230.110352 1282.097900,2227.650635 1289.624268,2225.832275 
	C1302.194214,2222.794678 1315.018555,2220.305420 1327.093750,2215.846436 
	C1344.317139,2209.486328 1361.346802,2203.821777 1379.994263,2202.768311 
	C1396.525757,2201.834229 1412.879883,2198.077637 1429.403198,2196.547119 
	C1437.846802,2195.765137 1446.507202,2196.911621 1455.036987,2197.594238 
	C1462.280762,2198.174072 1469.454590,2199.715820 1476.700562,2200.159668 
	C1488.654541,2200.892334 1500.639404,2201.176270 1512.615845,2201.468994 
	C1520.272827,2201.656006 1528.035889,2202.308105 1535.579712,2201.370605 
	C1554.108765,2199.067871 1572.640137,2197.983887 1591.308472,2198.085693 
	C1601.927979,2198.143555 1612.553467,2197.058838 1623.176636,2196.495361 
	C1635.120605,2195.861816 1647.065063,2195.236572 1659.009277,2194.607910 
	C1653.427612,2209.197021 1647.652466,2223.715332 1642.310425,2238.391602 
	C1634.461670,2259.955566 1626.708130,2281.559570 1619.390381,2303.306885 
	C1617.375122,2309.295898 1614.067017,2312.211670 1608.218262,2314.442627 
	C1597.546997,2318.513672 1586.616577,2317.958740 1575.711792,2318.042480 
	C1569.703735,2318.088867 1564.779907,2319.077148 1560.706787,2323.974121 
	C1558.430176,2326.711426 1555.192017,2328.807861 1552.066284,2330.648193 
	C1544.824707,2334.911377 1540.624756,2340.621338 1541.656860,2349.408936 
	C1541.807495,2350.690186 1541.431274,2352.033203 1541.159424,2354.730957 
	C1528.225708,2357.941650 1516.383911,2365.361816 1501.332153,2363.301025 
	C1494.743652,2362.399170 1486.271973,2364.944336 1480.726685,2368.858643 
	C1468.890015,2377.214111 1456.479492,2385.604248 1449.811523,2399.386230 
	C1447.063599,2405.066406 1444.372314,2410.813232 1442.244019,2416.741211 
	C1440.537964,2421.494141 1437.737305,2424.353271 1433.079468,2426.399902 
	C1413.383667,2435.053467 1397.390991,2448.023193 1386.952026,2467.251953 
	C1385.216553,2470.448730 1383.126343,2473.576660 1380.631226,2476.194092 
	C1378.947876,2477.959717 1376.373291,2479.533936 1374.010010,2479.868408 
	C1367.118774,2480.843506 1360.122437,2481.046631 1353.188599,2481.759277 
	C1348.260254,2482.266113 1343.381958,2483.255615 1338.454346,2483.773926 
	C1320.975220,2485.612305 1308.155884,2496.613281 1294.664795,2506.160400 
	C1291.797241,2508.189697 1289.588013,2511.472168 1287.747681,2514.575439 
	C1278.970215,2529.378418 1265.702881,2534.125488 1249.464722,2531.597412 
	C1223.537598,2527.561279 1197.623291,2523.406494 1171.789917,2518.815430 
	C1140.967896,2513.337646 1110.946045,2504.665283 1081.019897,2495.554199 
	C1071.902466,2492.778564 1062.122925,2492.168701 1052.641113,2490.600098 
	C1032.154297,2487.210205 1011.443726,2486.852783 990.910522,2488.612061 
	C979.833618,2489.561279 969.100769,2494.224365 958.134155,2496.889160 
	C952.697205,2498.210449 947.114319,2499.218506 941.542358,2499.639648 
	C927.721680,2500.684082 916.992737,2494.949219 909.570068,2483.405762 
	C906.873901,2479.212891 903.354248,2478.154785 898.766235,2477.752441 
	C884.671631,2476.517822 871.238525,2473.035400 859.968872,2463.894775 
	C856.893372,2461.399902 853.836609,2458.591797 851.671265,2455.329834 
	C847.885437,2449.626953 841.806885,2447.687988 836.247253,2444.978760 
	C834.489258,2444.122070 831.784485,2444.808350 829.614136,2445.267090 
	C820.517212,2447.188477 811.500916,2449.511963 802.373718,2451.264160 
	C793.964233,2452.878418 786.795349,2457.875000 786.255005,2465.879883 
	C785.368347,2479.014404 779.936768,2488.648926 770.222229,2497.426514 
	C764.329590,2502.750977 758.962097,2508.573730 752.098145,2512.736572 
	C739.439087,2520.414551 729.045715,2529.909180 721.159485,2542.985352 
	C711.932007,2558.284912 700.416382,2572.204834 689.500671,2587.315918 
	C680.995544,2585.231689 673.032288,2581.264404 664.721313,2580.302734 
	C658.562195,2579.590332 651.366089,2581.618408 645.664062,2584.481201 
	C634.044128,2590.315430 622.345886,2589.112061 610.754395,2586.415527 
	C602.231628,2584.433105 594.497986,2583.562988 587.114014,2589.075195 
	C586.595215,2589.462402 585.941589,2589.692383 585.322632,2589.919189 
	C575.577698,2593.488525 575.576660,2593.485840 575.724792,2604.168457 
	C563.442139,2613.035645 549.382446,2609.835693 535.266174,2609.904541 
	C533.966248,2606.423828 533.155090,2603.202637 531.614990,2600.378906 
	C529.420288,2596.355957 527.280884,2592.016602 524.065735,2588.896484 
	C517.552429,2582.575928 514.084290,2582.248779 506.383850,2587.203613 
	C500.055267,2591.276123 493.564484,2593.283936 486.045105,2594.218750 
	C476.947052,2595.349854 468.263794,2599.320801 458.753418,2598.681396 
	C456.910065,2598.557617 454.410400,2599.262695 453.171051,2600.525391 
	C444.638062,2609.220459 433.775360,2616.281006 431.629395,2629.689453 
	C430.067322,2639.449951 426.588867,2642.820557 416.263550,2644.325928 
	C411.346863,2645.042725 406.396027,2645.541748 401.496002,2646.352783 
	C392.688782,2647.810547 384.155579,2649.174805 377.410583,2656.534424 
	C372.891022,2661.465576 367.351898,2665.809814 359.551819,2666.456543 
	C356.243378,2666.730957 352.837250,2670.547363 350.230164,2673.435059 
	C346.452545,2677.619385 342.001160,2678.552979 336.760132,2678.361572 
	C331.883484,2678.183594 328.675415,2676.297607 326.908447,2671.548340 
	C325.668060,2668.213867 323.668365,2665.162354 321.921539,2661.819336 
	C314.920410,2662.564941 309.935364,2665.101807 307.529022,2671.399658 
	C304.635468,2678.972412 298.871490,2680.677002 291.533356,2679.687012 
	C286.947815,2679.067871 282.182251,2679.286377 277.758118,2678.131104 
	C274.471832,2677.272949 271.330872,2675.152344 268.618042,2672.978760 
	C265.045258,2670.116455 262.447479,2665.904785 256.640045,2668.039551 
	C255.291733,2668.535400 253.124664,2666.767334 251.322418,2666.072021 
	C245.918533,2663.987305 240.416138,2662.124023 235.141022,2659.754150 
	C232.575165,2658.601562 230.429871,2656.512939 227.699036,2654.566406 
	C230.142853,2649.079834 232.276352,2644.289795 234.672699,2638.909668 
	C233.158890,2635.945312 231.366806,2632.436035 229.674103,2629.121094 
	C228.768219,2628.790527 228.154068,2628.381348 227.529755,2628.365479 
	C214.577957,2628.030273 209.639877,2622.608398 210.406906,2609.399414 
	C210.482468,2608.098389 211.127274,2606.836914 211.271194,2605.531006 
	C211.369034,2604.643799 211.053391,2603.711182 210.825623,2602.121826 
	C208.708069,2602.519775 206.817627,2602.639160 205.097321,2603.243408 
	C200.304214,2604.925537 195.655334,2608.478760 190.995102,2602.587158 
	C190.206711,2601.590332 187.058716,2602.787598 185.329025,2602.120605 
	C183.393570,2601.374023 181.317368,2599.993408 180.215546,2598.296143 
	C178.020752,2594.915039 176.450745,2591.128418 174.128204,2586.530518 
	C175.275192,2585.210693 177.101318,2583.109863 179.010788,2580.912842 
	C176.634781,2579.301758 174.275620,2577.701904 170.879089,2575.398926 
	C174.518707,2573.307617 177.183411,2571.776611 180.029572,2570.141357 
	C180.179718,2567.725586 180.335037,2565.226318 180.548492,2561.791992 
	C184.295914,2562.599609 187.343857,2563.256592 190.913422,2564.026123 
	C191.247421,2561.616455 191.572937,2559.268066 192.099594,2555.468262 
	C194.504135,2558.077637 195.962830,2559.660645 197.459320,2561.284424 
	C205.911011,2558.671143 206.286484,2558.579102 204.449173,2551.085205 
	C202.862701,2544.614502 205.082932,2540.160645 209.986130,2536.436279 
	C211.264725,2535.464844 212.552307,2534.505127 214.229034,2533.244385 
	C213.155121,2531.574707 212.606232,2529.779297 211.402542,2529.015137 
	C206.459518,2525.876221 207.771500,2521.823242 209.258545,2517.594971 
	C210.364014,2514.451904 211.373917,2511.275391 212.800095,2506.990967 
	C216.725204,2505.529053 221.549637,2504.450684 226.449051,2508.500000 
	C227.616058,2509.464600 231.091537,2509.625244 231.749603,2508.783447 
	C232.948792,2507.249268 233.789810,2504.266113 233.072235,2502.642334 
	C231.498520,2499.081543 228.857742,2495.992432 226.582184,2492.605713 
	C231.100250,2487.529053 231.100250,2487.529053 242.233795,2492.712891 
	C240.472076,2486.707275 239.015244,2481.740967 237.558411,2476.774658 
	C237.176910,2476.753662 236.795410,2476.732910 236.413910,2476.711914 
	C235.976761,2479.369629 235.539597,2482.027100 235.098572,2484.684082 
	C232.829605,2487.024414 226.552017,2486.818848 226.552048,2484.322510 
	C226.552155,2478.074951 223.148758,2471.825195 227.770264,2465.819824 
	C232.092148,2463.869141 229.465607,2462.874756 228.249924,2461.572510 
	C228.568192,2460.548828 228.886459,2459.525391 230.411484,2458.281738 
	C233.131760,2457.998535 234.645294,2457.935547 235.895981,2458.540527 
	C237.919357,2461.789551 240.205582,2464.370850 242.491791,2466.952148 
	C243.533524,2464.301758 243.395767,2461.769531 242.059189,2460.474365 
	C240.603180,2459.063477 238.035019,2458.800293 235.900162,2457.407715 
	C234.663361,2455.687988 233.478149,2454.597168 232.292908,2453.506592 
	C227.493347,2450.816895 224.894226,2447.514160 227.200745,2441.476807 
	C228.450592,2438.205322 228.707245,2434.308838 228.409866,2430.778564 
	C228.211792,2428.427246 226.245193,2426.224609 224.066849,2422.018066 
	C222.734299,2425.848389 222.359344,2427.332520 221.720642,2428.692383 
	C218.951385,2434.588135 212.624390,2435.800781 208.525650,2430.793945 
	C205.662720,2427.296875 202.843002,2424.561768 198.120575,2424.129150 
	C196.608398,2423.990479 194.704636,2423.221191 193.809296,2422.086426 
	C189.433670,2416.539551 183.490967,2415.557617 176.096008,2416.264160 
	C176.096008,2413.905518 176.096008,2412.095703 176.836029,2409.075684 
	C181.388672,2405.178467 185.201324,2402.491455 188.991699,2399.820068 
	C187.346481,2396.926270 186.197540,2395.753662 183.674820,2398.612061 
	C182.092285,2400.405029 179.790619,2403.739990 177.016327,2399.158691 
	C177.981537,2396.465088 178.686386,2394.464111 179.832993,2391.208740 
	C175.754898,2390.539795 172.712326,2389.774902 169.636810,2389.604492 
	C165.900696,2389.397461 162.449432,2387.954834 162.731415,2384.234619 
	C163.356018,2375.994385 158.593414,2371.823730 152.555099,2368.151367 
	C152.464005,2367.803711 152.372925,2367.456055 152.442841,2366.594482 
z"/>


<path 
	data-name="Bankim"
fill="#D7EB57" opacity="1.000000" stroke="none" 
	d="
M152.516373,2406.403809 
	C156.442520,2400.147705 160.975067,2396.784668 168.272659,2399.651367 
	C170.256119,2400.430420 172.800095,2399.782959 176.504181,2400.389404 
	C177.198273,2402.352051 176.474976,2403.715820 175.751663,2405.079346 
	C169.100006,2409.178711 161.540405,2407.480957 153.544189,2408.365234 
	C152.593811,2407.884521 152.493713,2407.463135 152.516373,2406.403809 
z"/>
<path 
	data-name="Fundong"
fill="#547B91" opacity="1.000000" stroke="none" 
	d="
M1659.728516,2194.449463 
	C1647.065063,2195.236572 1635.120605,2195.861816 1623.176636,2196.495361 
	C1612.553467,2197.058838 1601.927979,2198.143555 1591.308472,2198.085693 
	C1572.640137,2197.983887 1554.108765,2199.067871 1535.579712,2201.370605 
	C1528.035889,2202.308105 1520.272827,2201.656006 1512.615845,2201.468994 
	C1500.639404,2201.176270 1488.654541,2200.892334 1476.700562,2200.159668 
	C1469.454590,2199.715820 1462.280762,2198.174072 1455.036987,2197.594238 
	C1446.507202,2196.911621 1437.846802,2195.765137 1429.403198,2196.547119 
	C1412.879883,2198.077637 1396.525757,2201.834229 1379.994263,2202.768311 
	C1361.346802,2203.821777 1344.317139,2209.486328 1327.093750,2215.846436 
	C1315.018555,2220.305420 1302.194214,2222.794678 1289.624268,2225.832275 
	C1282.097900,2227.650635 1275.180664,2230.110352 1268.999023,2235.182129 
	C1261.765137,2241.117432 1253.440308,2244.249756 1243.541748,2244.489502 
	C1206.942383,2245.375244 1170.357788,2246.938232 1133.774170,2248.404785 
	C1106.823730,2249.484619 1079.947144,2247.979492 1053.057129,2246.618164 
	C1046.406250,2246.281494 1039.729370,2246.468750 1033.076294,2246.160156 
	C956.501038,2242.605225 879.869934,2244.324951 803.267090,2243.454590 
	C773.703186,2243.118896 744.167114,2240.256592 714.620483,2238.510742 
	C701.679382,2237.746094 688.659973,2237.560547 675.821533,2235.951660 
	C643.181702,2231.862305 610.700195,2226.437012 578.017639,2222.776367 
	C508.751221,2215.018311 441.745544,2195.948242 373.547241,2182.883057 
	C360.501129,2180.383789 347.575836,2177.253906 333.821167,2174.037109 
	C334.606628,2168.620117 336.643311,2163.667969 337.574402,2158.515625 
	C338.325989,2154.356445 337.137268,2150.689941 334.237030,2146.688232 
	C330.735779,2141.856934 329.603851,2135.210938 327.935608,2129.214355 
	C327.485413,2127.595947 328.187988,2124.690918 329.418274,2123.731445 
	C336.273254,2118.385010 337.924072,2109.740479 342.881287,2103.199951 
	C344.913025,2100.519287 346.091064,2096.506836 346.072723,2093.108643 
	C346.040863,2087.205078 344.820068,2081.302002 343.986176,2075.414551 
	C343.855774,2074.493652 343.356689,2073.172852 342.655914,2072.853271 
	C333.716339,2068.777832 339.045624,2061.075928 336.403778,2053.197510 
	C349.523499,2059.185303 355.885681,2049.903320 363.912292,2045.030518 
	C364.995392,2044.372925 366.186371,2043.265869 366.537048,2042.124268 
	C370.964081,2027.715210 381.813690,2017.530518 390.118500,2005.661255 
	C392.059387,2002.887085 392.603119,1999.134155 393.783875,1995.829590 
	C395.117615,1992.096680 395.446228,1987.398193 397.953217,1984.799072 
	C407.279236,1975.130127 410.720093,1962.563965 416.196533,1950.972046 
	C417.875244,1947.418823 419.813141,1943.654419 422.607666,1941.022461 
	C432.247009,1931.944092 438.449249,1920.955444 444.038422,1909.052612 
	C447.096802,1902.539307 454.041412,1897.824097 459.349243,1892.411621 
	C460.720703,1891.013306 463.151611,1890.394897 464.039520,1888.821899 
	C472.546478,1873.750610 487.136749,1864.251343 497.993805,1851.361816 
	C500.556671,1848.319214 503.232941,1845.253662 505.139374,1841.802246 
	C508.734863,1835.292969 513.303894,1829.893311 518.962341,1824.985474 
	C522.789795,1821.665894 525.187500,1816.627319 527.980469,1812.203491 
	C531.484192,1806.653687 534.174622,1800.494995 538.238831,1795.417847 
	C543.638794,1788.671387 549.342468,1782.360474 553.187561,1774.391602 
	C558.676025,1763.017090 572.686768,1757.842529 583.700317,1764.000366 
	C596.527832,1771.172607 608.756531,1770.842773 621.958801,1766.008545 
	C630.874817,1762.743774 639.950745,1763.752319 649.385925,1765.739746 
	C662.616211,1768.526733 672.287964,1775.749756 680.816284,1785.423218 
	C682.576843,1787.420532 684.168640,1789.784302 686.355591,1791.151978 
	C698.718506,1798.883911 709.417053,1808.347046 719.082886,1819.310303 
	C721.999878,1822.619019 727.913818,1823.285400 733.734436,1825.690918 
	C735.095764,1831.292969 737.063416,1837.951782 738.264282,1844.746094 
	C739.410767,1851.232422 739.758667,1857.859863 740.530212,1865.106689 
	C745.331604,1866.745605 750.637268,1868.404175 755.818909,1870.386841 
	C758.575195,1871.441528 761.855530,1872.430786 763.631470,1874.524780 
	C772.855164,1885.400513 781.143616,1896.919189 784.332764,1911.241089 
	C784.836853,1913.505127 785.570251,1915.776733 785.650635,1918.063965 
	C785.810120,1922.596558 788.677368,1924.766602 792.400757,1925.600586 
	C804.238770,1928.252686 816.044678,1930.249634 826.267334,1920.740845 
	C828.677185,1918.499390 832.040222,1917.278809 834.434082,1915.024902 
	C840.476868,1909.334717 847.981750,1909.199707 855.079956,1910.375610 
	C867.864014,1912.493652 880.007263,1916.051392 890.407776,1925.144531 
	C896.725281,1930.667725 905.291687,1933.894653 913.245667,1937.193970 
	C921.659302,1940.684082 925.713684,1938.332764 927.546021,1929.374268 
	C928.753174,1923.471924 931.970276,1920.387329 937.265198,1917.942993 
	C950.829712,1911.681396 964.713867,1908.378540 979.763367,1910.057129 
	C982.608337,1910.374390 986.216431,1908.881104 988.624207,1907.085693 
	C994.402527,1902.776489 1000.291931,1902.288086 1006.366333,1905.498169 
	C1012.775940,1908.885620 1018.921387,1908.552490 1025.619141,1906.362183 
	C1039.858887,1901.705322 1054.101685,1897.279907 1066.481079,1888.340698 
	C1074.325317,1882.676025 1083.482666,1882.866455 1092.460449,1884.367676 
	C1102.611572,1886.064941 1112.772827,1887.993408 1122.683960,1890.715576 
	C1127.998413,1892.175293 1133.232178,1894.908813 1137.727783,1898.143799 
	C1144.772705,1903.213745 1152.299194,1902.169189 1159.766479,1901.015015 
	C1164.599609,1900.268066 1167.701172,1894.375610 1165.662476,1889.137817 
	C1162.932861,1882.124268 1159.624756,1875.118896 1155.292603,1869.012573 
	C1151.616211,1863.830444 1149.394043,1858.888428 1149.693726,1852.536255 
	C1150.117065,1843.557739 1149.909180,1834.549072 1150.347656,1825.571655 
	C1150.595337,1820.498413 1148.617432,1817.528687 1143.995850,1815.640747 
	C1136.940063,1812.758423 1130.413574,1809.931641 1127.166748,1801.486450 
	C1122.447388,1789.211548 1117.358276,1777.418457 1122.377930,1764.091064 
	C1128.230225,1748.552734 1133.966431,1732.967773 1140.059448,1717.523926 
	C1143.786377,1708.077393 1142.761475,1700.524536 1134.475342,1693.621338 
	C1123.228394,1684.251099 1116.378662,1671.712402 1111.544189,1657.977417 
	C1109.005615,1650.765625 1105.711182,1643.819580 1103.177612,1636.606079 
	C1101.766235,1632.588013 1100.582642,1628.296753 1100.388550,1624.078247 
	C1099.607056,1607.091553 1105.705566,1600.828491 1122.608398,1599.921997 
	C1131.186646,1599.461914 1139.758545,1598.571289 1148.274414,1597.433716 
	C1151.126709,1597.052612 1153.844727,1595.408569 1156.539673,1594.159302 
	C1162.269043,1591.503296 1167.943726,1588.729370 1173.639282,1586.000366 
	C1177.925659,1583.946655 1182.208374,1581.686890 1185.757690,1586.826782 
	C1199.916992,1570.661133 1203.524658,1551.073242 1210.407227,1532.018799 
	C1221.104248,1546.346802 1231.932861,1561.135132 1241.593384,1576.650635 
	C1246.456421,1584.461182 1250.076294,1593.328735 1252.730469,1602.176758 
	C1259.629639,1625.175903 1273.333252,1643.562134 1289.583618,1660.579102 
	C1294.836548,1666.079834 1299.986206,1672.039673 1303.629883,1678.646118 
	C1313.062988,1695.749023 1327.678345,1707.718018 1342.113770,1720.025879 
	C1363.121460,1737.937378 1385.840820,1753.872925 1404.761963,1774.196533 
	C1407.257080,1776.876465 1409.486084,1779.878906 1412.295166,1782.172729 
	C1415.541992,1784.823975 1418.999268,1787.830688 1422.873657,1789.003662 
	C1456.609619,1799.216553 1490.391602,1809.295166 1524.320923,1818.841309 
	C1533.526489,1821.431152 1543.298828,1821.966064 1552.777832,1823.632690 
	C1577.964355,1828.061157 1603.163818,1832.426636 1628.298828,1837.134155 
	C1649.199951,1841.048584 1669.993164,1845.539185 1690.892456,1849.463867 
	C1694.706299,1850.180176 1698.911987,1849.974121 1702.748657,1849.227539 
	C1749.063599,1840.215820 1795.487305,1831.686401 1841.587769,1821.673706 
	C1881.205444,1813.068848 1920.318481,1802.156006 1959.892334,1793.329224 
	C1987.012451,1787.280273 2012.728516,1777.348999 2038.342773,1767.211182 
	C2049.831055,1762.664062 2060.591797,1761.721924 2072.183350,1764.494995 
	C2074.753174,1765.109863 2077.395752,1765.420532 2080.813477,1765.833862 
	C2083.516113,1769.290161 2085.772461,1772.640137 2087.228760,1776.307739 
	C2090.250977,1783.918213 2088.064209,1789.245483 2080.137939,1791.930298 
	C2073.946289,1794.027588 2070.076416,1797.852539 2067.422363,1803.501831 
	C2066.155762,1806.198120 2064.424805,1808.675293 2063.145264,1811.366211 
	C2059.970215,1818.042114 2054.319824,1821.798706 2047.405518,1821.410400 
	C2038.135376,1820.889648 2032.740967,1826.338867 2027.003174,1831.841553 
	C2026.291504,1832.524048 2025.752197,1833.387939 2025.143677,1834.176025 
	C2018.578003,1842.679443 2010.459717,1845.895264 1999.765747,1842.619141 
	C1996.915405,1841.745972 1992.754028,1842.114258 1990.352783,1843.684204 
	C1988.039551,1845.196411 1986.746094,1848.860718 1985.883667,1851.834473 
	C1985.011475,1854.841675 1985.218018,1858.161377 1984.962280,1861.221802 
	C1979.384644,1862.231445 1974.813232,1862.859375 1970.348755,1863.932007 
	C1966.970215,1864.743774 1963.657227,1866.656982 1964.453735,1870.668823 
	C1966.334961,1880.145874 1965.267090,1890.668701 1974.730103,1897.543701 
	C1980.870239,1902.004639 1981.966675,1909.120117 1981.926880,1917.148926 
	C1976.812744,1924.144775 1969.311035,1925.136230 1962.216675,1925.524414 
	C1952.721924,1926.044067 1946.675049,1929.822632 1943.363159,1938.822998 
	C1939.642456,1948.933960 1934.117676,1957.854004 1924.626831,1963.827637 
	C1920.019897,1966.727539 1921.953491,1971.604126 1921.962646,1975.753052 
	C1921.971924,1979.944214 1922.179688,1984.149902 1922.596802,1988.319458 
	C1922.850220,1990.854858 1923.115356,1993.650146 1924.338013,1995.774780 
	C1927.174438,2000.703125 1926.230957,2004.455566 1922.208374,2008.111572 
	C1920.259277,2009.882935 1918.982544,2012.379150 1917.095581,2014.236572 
	C1913.628052,2017.649414 1909.849121,2019.709229 1904.634155,2017.407227 
	C1901.358032,2015.961304 1897.691772,2015.117065 1894.121704,2014.728638 
	C1892.121826,2014.510986 1889.072510,2015.097412 1888.019531,2016.481079 
	C1881.968872,2024.431152 1872.838135,2026.815308 1864.222412,2029.491821 
	C1856.273560,2031.961304 1851.011963,2036.079956 1847.918823,2043.810669 
	C1844.714355,2051.819580 1835.322266,2059.112549 1828.247192,2065.338135 
	C1820.706909,2071.972900 1812.007935,2073.517578 1803.254639,2076.324463 
	C1799.656372,2077.478516 1796.545898,2081.088867 1793.933716,2084.188965 
	C1788.455200,2090.690186 1780.534424,2095.400635 1779.140381,2105.021240 
	C1778.531860,2109.220215 1775.380615,2112.106201 1772.293579,2115.357178 
	C1765.044312,2122.991211 1759.459717,2132.177490 1752.857300,2140.461182 
	C1743.785400,2151.843018 1734.970093,2163.461426 1721.082520,2169.829102 
	C1709.617554,2175.085938 1698.748413,2181.696045 1687.132935,2186.552979 
	C1678.643677,2190.103027 1669.371216,2191.779541 1659.728516,2194.449463 
z"/>

</svg>