<svg version="1.1" id="Layer_1" xmlns="http://www.w3.org/2000/svg" xmlns:xlink="http://www.w3.org/1999/xlink" x="0px" y="0px"
	 width="100%" viewBox="0 0 2306 2435" enable-background="new 0 0 2306 2435" xml:space="preserve">

<path 
	data-name="Tibati"
fill="#898FE0" opacity="1.000000" stroke="none" 
	d="
M995.951050,848.422852 
	C996.759888,848.254944 997.568726,848.087097 999.200989,848.809692 
	C1001.304993,852.986816 1003.542908,856.248474 1003.629639,859.566406 
	C1003.744324,863.952942 1005.868164,866.105530 1008.936584,868.402954 
	C1014.477600,872.551819 1020.002441,876.772400 1025.122437,881.416809 
	C1028.882324,884.827454 1031.994629,885.251099 1036.586792,882.733032 
	C1043.773926,878.792053 1049.943359,871.426086 1059.768799,874.592529 
	C1060.797729,874.924194 1062.245728,873.741333 1063.543579,873.492676 
	C1067.688965,872.698181 1071.867065,871.353210 1076.010742,871.428223 
	C1083.646484,871.566345 1087.704956,875.653687 1087.474121,883.454590 
	C1087.332520,888.237732 1085.759888,893.123047 1084.072388,897.682007 
	C1081.547607,904.502686 1081.419189,906.469666 1087.729126,909.920105 
	C1093.166138,912.893250 1095.040527,917.277710 1095.623047,922.760437 
	C1096.009399,926.396851 1096.671875,930.141357 1096.199829,933.703491 
	C1095.175537,941.432617 1099.246216,946.627747 1103.497314,952.738647 
	C1106.186279,949.773865 1107.758179,946.956848 1110.156616,945.588928 
	C1119.184692,940.439636 1121.109619,933.149475 1118.414185,923.591309 
	C1117.016602,918.635437 1119.608276,913.010193 1123.956909,912.456177 
	C1131.784546,911.458862 1134.970947,906.438293 1138.129883,900.243347 
	C1141.113403,894.392456 1147.099976,894.389404 1150.579102,899.934692 
	C1153.754395,904.995728 1156.387939,910.395752 1159.281982,915.634399 
	C1160.946777,918.647827 1162.654297,921.637512 1164.622803,925.135742 
	C1169.829102,921.570862 1173.451904,918.827759 1179.225708,921.027283 
	C1188.750488,924.655762 1191.513672,922.982483 1197.421143,914.563965 
	C1199.188477,912.045410 1201.862671,909.089966 1204.581665,908.516296 
	C1212.329346,906.881592 1219.607544,907.751465 1225.008667,915.103882 
	C1227.666992,918.722656 1231.811523,921.226624 1235.153564,924.372986 
	C1237.962646,927.017639 1241.297729,929.466370 1243.101440,932.721436 
	C1245.210571,936.527771 1247.673828,939.293762 1251.821411,940.167725 
	C1260.462402,941.988708 1268.960815,942.796509 1275.840332,935.366272 
	C1278.738525,932.236084 1281.802490,929.249146 1284.916016,926.330322 
	C1291.037964,920.591064 1295.068237,920.197327 1301.318481,925.941162 
	C1305.552856,929.832336 1309.867554,931.945435 1315.587280,931.376465 
	C1316.777222,931.258057 1318.052612,931.999268 1319.254517,932.334778 
	C1319.656128,933.582520 1320.057495,934.477905 1320.228149,935.415222 
	C1321.652100,943.235413 1321.654297,942.937683 1329.653076,943.337830 
	C1339.207153,943.815796 1347.781372,942.169373 1356.250488,937.050476 
	C1361.847778,933.667419 1366.026367,929.386780 1370.339966,924.849670 
	C1378.202515,916.579590 1383.832764,907.212219 1386.131836,895.895691 
	C1386.629761,893.444336 1387.738403,890.747803 1389.421143,888.976624 
	C1394.209717,883.936035 1398.946899,884.165222 1405.631104,891.008911 
	C1410.631958,896.129028 1414.747559,897.906921 1421.972290,895.025024 
	C1431.545044,891.206482 1434.995117,894.510315 1435.738770,905.064026 
	C1436.332886,913.494629 1436.120728,922.194397 1443.046265,928.918457 
	C1444.725220,930.548645 1444.791626,933.821838 1445.648315,936.322815 
	C1446.273193,938.146973 1446.604980,940.222107 1447.711304,941.704895 
	C1452.863281,948.609985 1458.146240,955.557007 1466.303589,959.151489 
	C1470.338013,960.929260 1472.213989,963.659851 1471.375366,967.685120 
	C1470.167114,973.484375 1473.022095,975.327881 1478.019043,976.281311 
	C1481.438721,976.933777 1486.974976,977.715454 1487.594482,979.687134 
	C1489.352783,985.282776 1494.214111,984.491882 1498.324341,986.631348 
	C1497.506592,993.883179 1500.680054,999.797302 1505.135254,1005.392822 
	C1507.376099,1008.207275 1508.480103,1011.898499 1510.469360,1014.951416 
	C1511.840820,1017.055908 1513.545044,1019.237122 1515.630737,1020.526367 
	C1521.338867,1024.055054 1522.270874,1028.439941 1520.969971,1034.932739 
	C1519.919678,1040.174927 1520.397827,1046.223633 1521.970337,1051.373291 
	C1524.299316,1058.999878 1524.637329,1066.635864 1522.725708,1073.899170 
	C1521.185059,1079.753296 1522.747925,1083.001831 1526.523438,1087.039673 
	C1531.605591,1092.475220 1537.148804,1098.116577 1534.431763,1107.075317 
	C1533.896851,1108.838867 1535.356567,1111.650757 1536.648193,1113.434814 
	C1539.546631,1117.438477 1542.996948,1121.037476 1546.063110,1124.927002 
	C1547.629395,1126.913818 1550.183594,1129.302979 1549.988403,1131.283325 
	C1549.318604,1138.081421 1547.880371,1144.843140 1546.177368,1151.475708 
	C1545.676270,1153.427246 1543.632080,1155.423462 1541.775269,1156.514771 
	C1529.386353,1163.795532 1526.898071,1177.713257 1520.016479,1188.657837 
	C1519.247314,1189.881104 1519.684448,1191.924561 1519.724854,1193.583740 
	C1519.885986,1200.214233 1519.871338,1206.861938 1520.386841,1213.467041 
	C1520.814697,1218.948486 1519.405762,1223.436890 1514.666992,1226.297485 
	C1510.765259,1228.652588 1509.272217,1231.725464 1509.606689,1236.224854 
	C1510.018921,1241.768433 1506.431152,1245.657349 1502.477661,1248.477539 
	C1500.190918,1250.108521 1498.418457,1251.032471 1497.937500,1254.130005 
	C1497.619629,1256.177979 1496.126343,1258.587402 1494.420654,1259.766479 
	C1490.443115,1262.516235 1491.298584,1265.961060 1492.429688,1269.355103 
	C1493.814331,1273.510132 1495.698730,1277.498413 1497.372681,1281.572632 
	C1507.754272,1277.693115 1531.025879,1278.996826 1541.600586,1283.461548 
	C1546.542969,1285.548096 1551.285889,1289.616333 1557.610107,1287.384644 
	C1558.945801,1283.962646 1560.740601,1280.681152 1561.487915,1277.176270 
	C1563.065552,1269.778320 1568.270142,1266.897583 1574.834351,1265.737061 
	C1578.073975,1265.164307 1581.465576,1265.450928 1585.230835,1265.845459 
	C1587.880127,1268.836548 1590.372559,1271.135986 1592.236938,1273.864380 
	C1596.761841,1280.486450 1602.856079,1281.988647 1610.475952,1281.004150 
	C1617.050659,1280.154419 1623.778931,1280.569458 1630.403931,1280.007324 
	C1636.138550,1279.520630 1640.315674,1281.464600 1644.625610,1285.365479 
	C1656.861938,1296.441162 1666.683105,1309.247803 1675.177490,1323.319580 
	C1679.011353,1329.670654 1683.388794,1335.301147 1680.329468,1343.397217 
	C1679.466309,1345.681396 1680.197510,1348.568115 1680.197510,1350.856689 
	C1688.175415,1355.202393 1696.140381,1358.317749 1702.619019,1363.347534 
	C1713.219971,1371.577393 1724.281616,1378.798950 1736.494263,1384.254639 
	C1740.157715,1385.891235 1742.008789,1388.561646 1743.328979,1392.226685 
	C1745.920166,1399.420532 1754.194458,1403.153442 1761.398193,1401.143066 
	C1769.004028,1399.020630 1776.805176,1397.566650 1784.344482,1395.247192 
	C1789.035400,1393.804199 1792.340454,1395.285889 1796.388306,1397.481445 
	C1805.978271,1402.683350 1815.717041,1407.967773 1825.994751,1411.451660 
	C1837.897095,1415.486328 1850.512817,1417.366211 1862.672241,1420.714233 
	C1868.032959,1422.190308 1872.947998,1422.297729 1878.322998,1420.972412 
	C1881.853027,1420.102051 1885.771729,1420.807861 1890.391113,1420.807861 
	C1888.522461,1433.701538 1887.222412,1445.559570 1884.979126,1457.236328 
	C1883.195923,1466.517944 1884.153442,1474.990967 1888.748291,1483.203735 
	C1890.858643,1486.975708 1892.677979,1490.922607 1894.443604,1494.873169 
	C1900.594360,1508.635620 1905.525757,1523.019897 1905.404663,1538.055542 
	C1905.267822,1555.056763 1908.661499,1571.013062 1914.348755,1586.754150 
	C1915.476685,1589.875977 1916.517578,1593.070068 1917.146851,1596.318359 
	C1917.644165,1598.885742 1918.317749,1601.937866 1917.417114,1604.171509 
	C1912.127197,1617.292725 1905.403076,1629.709717 1892.523071,1636.849243 
	C1877.392456,1645.235962 1861.859131,1652.901978 1846.412964,1660.707886 
	C1843.502808,1662.178467 1840.230713,1663.530396 1837.043457,1663.751465 
	C1823.118286,1664.716675 1809.137817,1666.087646 1795.226318,1665.672119 
	C1783.561890,1665.323730 1772.842041,1667.454224 1762.279907,1671.861206 
	C1753.338623,1675.591797 1744.272583,1678.468994 1734.282959,1678.220337 
	C1730.652588,1678.130005 1726.496582,1679.897827 1723.374023,1681.997559 
	C1709.840454,1691.098267 1696.869263,1701.055176 1683.144165,1709.842773 
	C1675.845093,1714.515869 1674.775757,1719.877808 1676.838745,1727.481689 
	C1678.206177,1732.522949 1680.038818,1738.264160 1678.882202,1743.015015 
	C1674.721558,1760.106689 1669.455322,1776.933472 1664.400635,1793.798462 
	C1663.671509,1796.230713 1662.125488,1798.598511 1660.427612,1800.530396 
	C1650.099121,1812.282593 1640.072388,1824.351196 1629.073120,1835.450195 
	C1614.641968,1850.012451 1605.701660,1867.751953 1598.311890,1886.298340 
	C1590.786011,1905.186035 1582.865601,1923.777588 1572.659058,1941.415039 
	C1568.711426,1948.236816 1563.385254,1951.265991 1555.900391,1951.702148 
	C1552.955444,1951.873779 1548.845581,1951.506226 1547.327637,1953.215210 
	C1541.883179,1959.344238 1534.538330,1964.148438 1532.225220,1972.724731 
	C1530.839966,1977.860107 1529.444214,1982.993286 1527.982300,1988.106934 
	C1523.504883,2003.768066 1519.086914,2019.447144 1514.457642,2035.063354 
	C1511.897583,2043.699829 1507.546509,2050.438477 1497.642090,2052.645508 
	C1493.355591,2053.600830 1489.153931,2056.647705 1485.805664,2059.717285 
	C1480.214355,2064.843018 1473.805908,2067.888916 1466.708130,2070.043457 
	C1455.875610,2073.332275 1445.456177,2077.584961 1434.893066,2084.702637 
	C1436.194580,2091.556152 1436.257446,2099.235596 1439.190918,2105.590088 
	C1443.450195,2114.816406 1446.190063,2124.025146 1447.089355,2134.106445 
	C1448.327148,2147.983154 1451.061890,2161.754395 1451.786133,2175.642090 
	C1452.855591,2196.146484 1461.969238,2210.533691 1480.742920,2218.842041 
	C1486.587158,2221.427979 1488.405884,2224.716064 1488.212891,2231.340332 
	C1488.086914,2235.662354 1487.977173,2240.000488 1488.198853,2244.313965 
	C1488.546631,2251.079590 1487.678223,2257.360352 1484.324219,2263.519775 
	C1478.948853,2273.391357 1475.867554,2283.683105 1481.596313,2294.788086 
	C1483.078369,2297.661133 1482.993286,2301.299316 1484.141357,2304.395996 
	C1486.765381,2311.474609 1484.784668,2317.976074 1482.709229,2324.750732 
	C1480.695190,2331.324707 1479.584961,2338.184082 1478.238403,2344.949951 
	C1477.596436,2348.175537 1477.836792,2351.647461 1476.802124,2354.712402 
	C1471.643188,2369.993408 1476.123535,2383.278320 1485.031250,2395.579590 
	C1489.432983,2401.658203 1492.756470,2407.708496 1492.183716,2415.683594 
	C1491.865967,2420.106689 1493.383667,2424.661621 1494.090820,2429.265625 
	C1499.982544,2430.109863 1505.556885,2430.537842 1504.000000,2438.000000 
	C1313.958252,2438.000000 1123.916382,2438.000000 933.346802,2437.187988 
	C931.088257,2422.576416 929.801453,2408.701660 927.465637,2395.005615 
	C925.985962,2386.329102 923.618042,2377.514160 914.710876,2372.913086 
	C911.647827,2374.733887 908.833008,2376.407471 906.838684,2377.593018 
	C903.726257,2375.946045 901.369995,2374.712646 899.027283,2373.454102 
	C897.965210,2372.883301 896.506226,2372.526123 895.947632,2371.625488 
	C890.034485,2362.090576 884.095215,2352.563477 878.528442,2342.825439 
	C875.569275,2337.649170 873.831604,2331.739502 870.631104,2326.745117 
	C866.620178,2320.486328 864.014893,2314.524902 869.641479,2306.412109 
	C860.317139,2302.695068 851.962524,2298.703125 843.206116,2296.025146 
	C829.066711,2291.700439 816.250793,2285.220459 804.766602,2275.938721 
	C800.942688,2272.848145 796.942200,2268.043457 792.746521,2267.731445 
	C782.710876,2266.984863 777.552917,2260.976807 772.504761,2253.819580 
	C769.828979,2250.025635 766.560181,2246.651123 763.862427,2242.870850 
	C760.593628,2238.290039 757.028503,2234.845215 750.729553,2236.069580 
	C749.303711,2236.346924 747.462036,2235.792236 746.132324,2235.048096 
	C736.025940,2229.390625 726.077942,2223.447754 715.930176,2217.867676 
	C698.755920,2208.423828 681.314758,2199.405029 666.669495,2186.078857 
	C661.015869,2180.934570 655.915283,2175.139648 649.987915,2170.353027 
	C645.445068,2166.684326 643.043030,2162.060547 640.101685,2157.292236 
	C637.459656,2153.009033 630.369812,2151.594727 627.338074,2147.400146 
	C621.727966,2139.638672 614.788574,2138.833984 606.635193,2140.489502 
	C599.269470,2141.984619 591.927673,2143.616943 584.620178,2145.375000 
	C576.907959,2147.230469 569.200806,2149.139893 561.578735,2151.329590 
	C552.332581,2153.985352 543.160461,2156.905029 533.993164,2159.826172 
	C530.882385,2160.817383 527.055786,2161.365234 525.004028,2163.504395 
	C520.657959,2168.035889 515.314819,2168.630615 510.143402,2169.709229 
	C505.079987,2165.746826 500.390076,2162.076904 495.423187,2158.189941 
	C490.320831,2160.735840 485.183777,2163.024902 480.350891,2165.836914 
	C478.235657,2167.067627 476.396973,2169.141846 475.037567,2171.227051 
	C472.169281,2175.626709 470.076599,2180.563232 466.981750,2184.777100 
	C461.841400,2191.775879 457.404785,2198.953125 457.160889,2208.053711 
	C438.860992,2208.053711 421.259460,2207.877930 403.665588,2208.168457 
	C398.829681,2208.248047 394.538086,2207.658936 390.431183,2205.072021 
	C385.188171,2201.769531 379.646362,2200.871826 373.290161,2201.772705 
	C359.831451,2203.680176 346.076691,2203.839111 332.782043,2206.444092 
	C323.937866,2208.176514 317.533539,2205.966797 310.960571,2200.814697 
	C304.787933,2195.976074 298.790009,2190.286865 289.668121,2192.169678 
	C288.518494,2192.406982 287.000549,2190.476074 285.557709,2189.735840 
	C270.561920,2182.045166 255.011292,2175.383301 241.159393,2165.571533 
	C239.879715,2164.665039 237.841583,2164.828613 236.562744,2163.921387 
	C232.355255,2160.936768 226.033524,2158.397217 224.792892,2154.371094 
	C223.016830,2148.607666 219.467773,2146.390625 215.195755,2143.972900 
	C204.803131,2138.090820 194.124969,2132.664551 184.061172,2126.268799 
	C177.696136,2122.223877 172.229172,2116.765869 166.359406,2111.941650 
	C166.245514,2105.911377 166.131607,2099.880859 166.821320,2092.723877 
	C172.792511,2086.512451 174.858109,2080.123047 176.410934,2073.163330 
	C178.922760,2061.905518 182.626892,2051.045166 194.055984,2045.256470 
	C194.903442,2044.827271 195.671478,2044.241089 196.271088,2043.858887 
	C195.674652,2040.901367 195.230728,2038.699951 194.749359,2036.312988 
	C198.209396,2033.615723 201.480637,2031.065552 204.904114,2028.396729 
	C204.045822,2027.119751 203.193390,2025.851440 202.550323,2024.894653 
	C207.150482,2017.601807 217.361954,2013.645996 215.370056,2001.852051 
	C205.296875,2003.522827 201.999283,1991.879883 192.978317,1992.755127 
	C191.341980,1987.566772 190.045410,1982.662598 194.894989,1979.553345 
	C201.510773,1975.311890 208.521515,1971.867554 216.368683,1969.939087 
	C226.854385,1967.361938 238.430969,1968.835083 247.771912,1961.675781 
	C248.871338,1960.833252 251.170609,1961.748291 252.642197,1961.164551 
	C257.802734,1959.116821 262.874237,1956.833984 267.912903,1954.496826 
	C269.368622,1953.821411 270.482819,1952.150269 271.954620,1951.812866 
	C279.835052,1950.006714 287.779022,1948.478149 295.565674,1946.881348 
	C292.075195,1941.619873 288.063721,1936.043701 284.552856,1930.168335 
	C279.571045,1921.831299 273.548584,1915.105835 262.902466,1914.286133 
	C262.652679,1911.344238 262.437897,1908.814575 262.194763,1905.950928 
	C265.299957,1905.045898 268.109131,1903.656128 270.957977,1903.569214 
	C273.446381,1903.493408 276.248413,1904.440430 278.416565,1905.753540 
	C280.548248,1907.044312 282.056549,1909.364380 283.412811,1910.786499 
	C286.985626,1907.332642 290.621521,1903.817627 294.222260,1900.336670 
	C293.112061,1899.912231 291.499268,1899.295776 290.039825,1898.737793 
	C289.252502,1893.971680 291.528076,1888.835693 286.241730,1885.837646 
	C285.568573,1885.455811 286.005554,1883.308350 285.710083,1882.029297 
	C285.060913,1879.218750 284.509979,1876.350464 283.492828,1873.667236 
	C281.030121,1867.171509 278.167786,1860.825439 275.775116,1854.305786 
	C274.389130,1850.529053 273.600861,1846.532715 272.418915,1842.175415 
	C281.004395,1836.288452 289.927307,1830.169922 299.036743,1823.923584 
	C298.752411,1822.597046 298.354309,1820.739624 298.214569,1820.087402 
	C302.968414,1814.253540 307.055634,1809.237671 311.530853,1803.745728 
	C313.506775,1805.488037 315.470581,1807.219604 317.039642,1808.603027 
	C318.947632,1806.106812 320.243011,1802.983765 322.557434,1801.705200 
	C326.431091,1799.564941 330.136322,1797.924072 330.892822,1792.895874 
	C331.049316,1791.855347 332.483765,1790.564209 333.600159,1790.183716 
	C340.311401,1787.896973 343.186462,1783.054688 342.443970,1774.480957 
	C347.559784,1777.380005 351.160126,1779.420288 354.877716,1781.527100 
	C355.587708,1780.771118 356.415833,1779.738037 357.393066,1778.873535 
	C364.289062,1772.772339 364.279663,1772.796631 359.151306,1765.294556 
	C356.496460,1761.410889 359.301331,1757.469727 359.368958,1753.560547 
	C359.372437,1753.360229 363.139008,1752.442017 364.324280,1753.183594 
	C368.906097,1756.049927 370.636810,1756.786865 377.398163,1756.646362 
	C375.404999,1754.873657 373.583008,1753.444580 371.989716,1751.794434 
	C369.116943,1748.819702 369.309967,1745.154297 372.428833,1743.192749 
	C375.305786,1741.383545 375.971802,1738.170410 378.052216,1736.529541 
	C384.377594,1731.540771 384.374908,1724.145508 383.094086,1718.447510 
	C381.624725,1711.911255 381.951355,1707.629150 387.750763,1704.042480 
	C385.508057,1700.089722 381.279388,1696.552124 385.037079,1692.271606 
	C389.190399,1687.540405 392.788666,1680.785889 400.128052,1684.898926 
	C406.728699,1678.994751 413.882965,1674.748291 415.190674,1664.862549 
	C418.636749,1667.746094 420.944458,1669.677246 423.347687,1671.688232 
	C425.243500,1667.137939 425.201965,1663.452393 422.891052,1663.159302 
	C414.922760,1662.148560 417.218323,1655.447144 415.408844,1650.209961 
	C407.378296,1652.467896 409.172241,1646.288330 408.398193,1641.994873 
	C398.172302,1636.055298 388.258057,1629.782715 389.379791,1614.472778 
	C382.282196,1616.605347 375.866821,1618.532837 367.589905,1621.019653 
	C365.898834,1618.757080 363.132874,1615.056274 361.643127,1613.063110 
	C354.466278,1611.778809 348.517822,1611.612427 343.383850,1609.482788 
	C339.908478,1608.041260 337.863556,1603.477173 334.669403,1600.954956 
	C329.943207,1597.223022 322.767975,1596.537354 320.661011,1589.490356 
	C320.568390,1589.180542 318.862579,1588.931641 318.252686,1589.271973 
	C315.823181,1590.627441 315.206055,1589.696777 314.039215,1587.415283 
	C313.016571,1585.415649 310.370056,1584.246460 308.084717,1582.426880 
	C311.259064,1577.979126 314.591400,1573.309814 317.946350,1568.609009 
	C317.702515,1565.872070 317.386810,1562.328613 317.204834,1560.285889 
	C312.781464,1552.996338 303.265869,1555.558472 298.130951,1546.990723 
	C294.403412,1540.771240 285.652496,1537.562378 279.536194,1533.287109 
	C280.305786,1530.087891 281.607880,1527.828613 280.983643,1526.428101 
	C280.288269,1524.868042 277.840424,1524.089111 276.142578,1522.961670 
	C277.754303,1521.012451 279.120056,1519.360718 280.485779,1517.708984 
	C275.277191,1517.255005 269.970062,1517.229492 266.669586,1519.790283 
	C260.719025,1524.407227 258.187134,1525.114746 253.570618,1519.726074 
	C248.826218,1514.188110 249.925217,1508.050903 252.200928,1501.474976 
	C247.627579,1498.414185 244.510666,1494.545410 247.370575,1488.813354 
	C216.691544,1481.941772 216.482300,1474.978149 219.172424,1459.655396 
	C211.581711,1452.599121 204.114105,1445.657227 196.673187,1438.740234 
	C197.016495,1436.393311 197.669098,1434.129883 197.620209,1431.881592 
	C197.420685,1422.707764 202.095276,1416.089355 208.197357,1409.905029 
	C211.523285,1406.534302 214.120667,1402.444702 216.857712,1398.922485 
	C209.130035,1388.573364 209.920929,1383.715820 220.489441,1378.781372 
	C223.838608,1377.217651 225.178406,1375.052124 225.613190,1372.356201 
	C226.987137,1363.836426 232.429611,1358.226562 238.373444,1352.789307 
	C240.300507,1351.026489 242.376877,1349.161377 243.565552,1346.910400 
	C246.288361,1341.753906 250.667831,1339.218506 255.978531,1337.815063 
	C262.550140,1336.078369 268.264801,1333.102173 272.602844,1327.613037 
	C278.434937,1320.233398 286.415283,1317.727905 295.570312,1318.025513 
	C299.394470,1318.149780 303.231720,1317.872559 308.465454,1317.743286 
	C306.076599,1310.919067 303.685272,1305.799683 302.570038,1300.416138 
	C301.473846,1295.124390 301.409088,1289.956909 295.039551,1287.659058 
	C293.609863,1287.143433 292.990417,1283.782715 292.428162,1281.619873 
	C291.794281,1279.181519 291.646423,1276.616821 291.266266,1273.960693 
	C287.304626,1273.960693 284.100983,1273.960693 280.227142,1273.960693 
	C277.631500,1265.576538 275.042603,1257.214233 272.700500,1249.649292 
	C279.686005,1249.069824 286.040985,1248.022827 292.374725,1248.138550 
	C302.031158,1248.314819 309.324219,1244.047485 316.234680,1237.947510 
	C318.891205,1235.602417 322.714966,1234.618408 325.901794,1232.827271 
	C333.121521,1228.769653 340.271362,1224.587891 347.460114,1220.474854 
	C349.407715,1219.360474 351.392822,1218.311768 353.965607,1216.901245 
	C357.782318,1221.066895 360.961792,1225.428955 365.022919,1228.694702 
	C368.432159,1231.436279 372.847809,1234.380859 376.858154,1234.438599 
	C379.812500,1234.481201 383.649109,1230.540039 385.648560,1227.442017 
	C389.564484,1221.374390 392.402313,1214.618774 395.814819,1208.216431 
	C400.185730,1200.015869 401.573975,1189.155273 414.522186,1188.351685 
	C412.818573,1180.913696 411.098114,1174.211670 409.798370,1167.428833 
	C408.998596,1163.255127 407.610168,1158.623535 408.652954,1154.786377 
	C410.802643,1146.876709 413.874207,1139.094604 417.565582,1131.763184 
	C420.879486,1125.181396 421.024963,1123.692871 414.273102,1120.456421 
	C411.076080,1118.923950 407.730377,1117.701660 404.098694,1116.191895 
	C405.432922,1110.695312 406.191132,1106.023804 401.756805,1101.941650 
	C400.278168,1100.580444 399.765442,1096.809448 400.461304,1094.678955 
	C403.687408,1084.802490 402.231598,1076.530762 392.942139,1070.490112 
	C396.919525,1064.658081 401.916016,1059.894653 403.573059,1054.165283 
	C405.159576,1048.679688 403.276886,1042.190674 402.845856,1034.907471 
	C406.494659,1036.247681 409.064697,1036.785034 411.199585,1038.054199 
	C417.009308,1041.508179 422.104614,1040.109863 426.780792,1036.097534 
	C429.287659,1033.946411 431.565643,1031.471436 433.658875,1028.907349 
	C437.860596,1023.760559 441.664337,1018.277283 446.031189,1013.281433 
	C448.384796,1010.588806 451.501984,1006.802917 454.382050,1006.705994 
	C459.987305,1006.517578 464.182648,1003.511719 469.025513,1001.935913 
	C475.782532,999.737183 478.045502,996.942444 475.736267,990.012878 
	C472.008148,978.825317 478.988617,971.233582 482.586029,960.069702 
	C487.515320,969.861938 494.495270,967.943604 501.257751,967.518616 
	C503.427673,967.382202 505.692749,968.686462 507.907654,969.353516 
	C518.095337,972.421387 522.773865,981.775574 529.741638,988.515076 
	C533.609680,992.256165 536.817749,996.405884 537.596375,1001.963745 
	C538.747803,1010.183655 544.874817,1014.879333 551.362549,1017.612549 
	C560.308838,1021.381653 567.642456,1026.668457 573.239807,1034.263672 
	C583.755310,1048.532837 595.985535,1061.111206 609.455811,1072.544434 
	C624.355469,1085.190674 638.172058,1099.285767 657.518250,1105.705811 
	C661.031189,1106.871704 663.373962,1111.450073 666.361572,1114.345093 
	C669.343750,1117.234863 672.035156,1121.344238 675.619873,1122.461182 
	C680.153687,1123.873779 685.544189,1123.387085 690.421021,1122.698364 
	C709.387085,1120.020020 728.315613,1117.055542 747.216064,1113.942505 
	C754.048767,1112.817261 759.950134,1110.124878 761.116211,1102.010010 
	C761.429871,1099.827148 762.436951,1097.744019 763.060791,1095.815674 
	C767.588257,1095.354248 771.542236,1094.721191 775.507629,1094.638550 
	C777.688721,1094.593018 780.511353,1094.770142 781.972473,1096.060791 
	C788.113220,1101.485107 794.353943,1100.388550 801.437012,1098.211060 
	C816.220581,1093.666382 829.594482,1096.806152 841.122742,1107.406860 
	C849.884033,1090.727417 859.034241,1074.147827 867.399414,1057.181152 
	C879.298096,1033.047607 890.211914,1008.483337 905.705322,986.209900 
	C914.214783,973.976562 920.590088,960.275452 928.261719,947.435730 
	C932.219910,940.811096 939.794922,937.803101 946.790344,939.562988 
	C949.302734,940.195007 951.540344,941.845581 953.997742,942.784119 
	C960.909302,945.423767 964.791931,943.666077 967.010681,936.665039 
	C967.693726,934.510071 967.621338,932.074158 967.655823,929.763245 
	C967.739502,924.141663 967.683044,918.517883 967.683044,913.043518 
	C971.899353,911.697693 974.942688,910.726318 977.669861,909.855896 
	C979.905762,899.914551 984.487854,890.718262 979.026733,881.069763 
	C967.653870,875.163940 967.367310,873.989258 973.227295,862.272949 
	C974.357666,860.012878 974.518555,857.267944 975.125122,854.752991 
	C983.030701,855.694702 989.840454,853.205078 995.951050,848.422852 
z"/>
<path 
	data-name="Ngaoundal"
fill="#67EB69" opacity="1.000000" stroke="none" 
	d="
M1504.937256,2438.000000 
	C1505.556885,2430.537842 1499.982544,2430.109863 1494.090820,2429.265625 
	C1493.383667,2424.661621 1491.865967,2420.106689 1492.183716,2415.683594 
	C1492.756470,2407.708496 1489.432983,2401.658203 1485.031250,2395.579590 
	C1476.123535,2383.278320 1471.643188,2369.993408 1476.802124,2354.712402 
	C1477.836792,2351.647461 1477.596436,2348.175537 1478.238403,2344.949951 
	C1479.584961,2338.184082 1480.695190,2331.324707 1482.709229,2324.750732 
	C1484.784668,2317.976074 1486.765381,2311.474609 1484.141357,2304.395996 
	C1482.993286,2301.299316 1483.078369,2297.661133 1481.596313,2294.788086 
	C1475.867554,2283.683105 1478.948853,2273.391357 1484.324219,2263.519775 
	C1487.678223,2257.360352 1488.546631,2251.079590 1488.198853,2244.313965 
	C1487.977173,2240.000488 1488.086914,2235.662354 1488.212891,2231.340332 
	C1488.405884,2224.716064 1486.587158,2221.427979 1480.742920,2218.842041 
	C1461.969238,2210.533691 1452.855591,2196.146484 1451.786133,2175.642090 
	C1451.061890,2161.754395 1448.327148,2147.983154 1447.089355,2134.106445 
	C1446.190063,2124.025146 1443.450195,2114.816406 1439.190918,2105.590088 
	C1436.257446,2099.235596 1436.194580,2091.556152 1434.893066,2084.702637 
	C1445.456177,2077.584961 1455.875610,2073.332275 1466.708130,2070.043457 
	C1473.805908,2067.888916 1480.214355,2064.843018 1485.805664,2059.717285 
	C1489.153931,2056.647705 1493.355591,2053.600830 1497.642090,2052.645508 
	C1507.546509,2050.438477 1511.897583,2043.699829 1514.457642,2035.063354 
	C1519.086914,2019.447144 1523.504883,2003.768066 1527.982300,1988.106934 
	C1529.444214,1982.993286 1530.839966,1977.860107 1532.225220,1972.724731 
	C1534.538330,1964.148438 1541.883179,1959.344238 1547.327637,1953.215210 
	C1548.845581,1951.506226 1552.955444,1951.873779 1555.900391,1951.702148 
	C1563.385254,1951.265991 1568.711426,1948.236816 1572.659058,1941.415039 
	C1582.865601,1923.777588 1590.786011,1905.186035 1598.311890,1886.298340 
	C1605.701660,1867.751953 1614.641968,1850.012451 1629.073120,1835.450195 
	C1640.072388,1824.351196 1650.099121,1812.282593 1660.427612,1800.530396 
	C1662.125488,1798.598511 1663.671509,1796.230713 1664.400635,1793.798462 
	C1669.455322,1776.933472 1674.721558,1760.106689 1678.882202,1743.015015 
	C1680.038818,1738.264160 1678.206177,1732.522949 1676.838745,1727.481689 
	C1674.775757,1719.877808 1675.845093,1714.515869 1683.144165,1709.842773 
	C1696.869263,1701.055176 1709.840454,1691.098267 1723.374023,1681.997559 
	C1726.496582,1679.897827 1730.652588,1678.130005 1734.282959,1678.220337 
	C1744.272583,1678.468994 1753.338623,1675.591797 1762.279907,1671.861206 
	C1772.842041,1667.454224 1783.561890,1665.323730 1795.226318,1665.672119 
	C1809.137817,1666.087646 1823.118286,1664.716675 1837.043457,1663.751465 
	C1840.230713,1663.530396 1843.502808,1662.178467 1846.412964,1660.707886 
	C1861.859131,1652.901978 1877.392456,1645.235962 1892.523071,1636.849243 
	C1905.403076,1629.709717 1912.127197,1617.292725 1917.417114,1604.171509 
	C1918.317749,1601.937866 1917.644165,1598.885742 1917.146851,1596.318359 
	C1916.517578,1593.070068 1915.476685,1589.875977 1914.348755,1586.754150 
	C1908.661499,1571.013062 1905.267822,1555.056763 1905.404663,1538.055542 
	C1905.525757,1523.019897 1900.594360,1508.635620 1894.443604,1494.873169 
	C1892.677979,1490.922607 1890.858643,1486.975708 1888.748291,1483.203735 
	C1884.153442,1474.990967 1883.195923,1466.517944 1884.979126,1457.236328 
	C1887.222412,1445.559570 1888.522461,1433.701538 1890.391113,1420.807861 
	C1885.771729,1420.807861 1881.853027,1420.102051 1878.322998,1420.972412 
	C1872.947998,1422.297729 1868.032959,1422.190308 1862.672241,1420.714233 
	C1850.512817,1417.366211 1837.897095,1415.486328 1825.994751,1411.451660 
	C1815.717041,1407.967773 1805.978271,1402.683350 1796.388306,1397.481445 
	C1792.340454,1395.285889 1789.035400,1393.804199 1784.344482,1395.247192 
	C1776.805176,1397.566650 1769.004028,1399.020630 1761.398193,1401.143066 
	C1754.194458,1403.153442 1745.920166,1399.420532 1743.328979,1392.226685 
	C1742.008789,1388.561646 1740.157715,1385.891235 1736.494263,1384.254639 
	C1724.281616,1378.798950 1713.219971,1371.577393 1702.619019,1363.347534 
	C1696.140381,1358.317749 1688.175415,1355.202393 1680.197510,1350.856689 
	C1680.197510,1348.568115 1679.466309,1345.681396 1680.329468,1343.397217 
	C1683.388794,1335.301147 1679.011353,1329.670654 1675.177490,1323.319580 
	C1666.683105,1309.247803 1656.861938,1296.441162 1644.625610,1285.365479 
	C1640.315674,1281.464600 1636.138550,1279.520630 1630.403931,1280.007324 
	C1623.778931,1280.569458 1617.050659,1280.154419 1610.475952,1281.004150 
	C1602.856079,1281.988647 1596.761841,1280.486450 1592.236938,1273.864380 
	C1590.372559,1271.135986 1587.880127,1268.836548 1585.423584,1265.235107 
	C1586.545410,1256.272949 1589.865112,1249.796387 1596.953735,1245.367310 
	C1601.422119,1242.575562 1605.702271,1239.276733 1609.408691,1235.550659 
	C1611.519897,1233.428223 1613.027832,1230.116821 1613.559570,1227.119507 
	C1615.329712,1217.142090 1617.158203,1214.485229 1626.735107,1212.222168 
	C1640.631836,1208.937988 1652.306396,1201.389893 1663.538696,1193.159790 
	C1666.885132,1190.707886 1669.860474,1186.921753 1671.439575,1183.099854 
	C1673.326172,1178.533569 1676.069824,1177.499023 1680.479248,1177.104736 
	C1687.533325,1176.473999 1692.637451,1173.414673 1697.584717,1167.238770 
	C1704.347046,1158.797241 1712.241333,1150.699219 1720.364502,1143.644531 
	C1728.582275,1136.507324 1739.879639,1132.097046 1751.481079,1132.254517 
	C1759.013672,1132.356812 1763.329956,1129.350830 1766.180054,1122.879150 
	C1767.556641,1119.753662 1769.352295,1116.760498 1773.239136,1119.117065 
	C1776.581787,1124.066528 1779.874756,1129.158081 1784.244141,1133.036743 
	C1788.821899,1137.100220 1794.433350,1139.999390 1800.107300,1143.747192 
	C1802.501099,1153.129517 1802.419189,1153.024536 1794.357178,1159.315552 
	C1791.779541,1161.326904 1789.418701,1163.819580 1787.565063,1166.510010 
	C1784.283691,1171.272827 1785.527222,1175.297974 1790.785767,1177.714966 
	C1794.093872,1179.235474 1797.488037,1180.731323 1801.001221,1181.604004 
	C1806.036011,1182.854492 1811.860840,1185.463745 1816.189697,1184.019653 
	C1823.893677,1181.449585 1829.940308,1182.649536 1837.091553,1185.581299 
	C1842.672852,1187.869385 1843.812256,1190.780029 1843.760376,1195.970337 
	C1843.663086,1205.692383 1849.093384,1213.554077 1858.821899,1214.682129 
	C1867.520874,1215.690796 1872.362183,1220.452148 1877.517456,1226.311279 
	C1879.656982,1228.742920 1883.670532,1231.202515 1886.608887,1230.959106 
	C1898.249878,1229.994385 1906.867432,1240.976318 1918.660156,1238.480225 
	C1918.893677,1238.430786 1919.213257,1238.764038 1919.486572,1238.928955 
	C1924.480713,1241.940796 1929.859741,1244.475342 1934.359253,1248.101318 
	C1938.896606,1251.757935 1942.924683,1256.220947 1946.467407,1260.870483 
	C1948.517578,1263.561035 1949.090454,1267.350586 1950.470337,1270.584839 
	C1952.197144,1274.632202 1955.518433,1274.678345 1958.804199,1273.156738 
	C1960.815552,1272.225464 1962.443604,1270.413086 1964.154663,1268.895752 
	C1972.726929,1261.293823 1976.599121,1261.784424 1982.604736,1271.269409 
	C1990.997559,1272.876221 1999.725952,1267.577759 2007.949219,1272.579102 
	C2008.420776,1272.865845 2009.466919,1272.996704 2009.733032,1272.715210 
	C2014.577759,1267.592896 2021.042358,1270.178955 2026.680298,1268.928833 
	C2030.393677,1268.105347 2036.601562,1266.359253 2036.884277,1264.349976 
	C2038.084717,1255.815308 2046.067505,1257.102661 2050.551758,1253.761963 
	C2052.797119,1252.088989 2058.114746,1251.783936 2059.890381,1256.397949 
	C2061.579590,1260.787842 2062.547852,1265.455078 2063.621582,1269.251953 
	C2069.660645,1268.985962 2075.177002,1268.742920 2081.139893,1268.480225 
	C2082.058838,1274.618652 2082.247559,1280.331055 2083.956299,1285.545532 
	C2084.909424,1288.454346 2088.997070,1292.987427 2090.629639,1292.582642 
	C2099.743652,1290.322876 2105.742188,1296.582642 2112.984375,1299.320679 
	C2117.278320,1300.944092 2121.520752,1302.819458 2125.947754,1303.949219 
	C2132.324463,1305.576904 2138.857422,1306.586182 2145.307373,1307.936157 
	C2157.885254,1310.568970 2170.333984,1313.984741 2183.397461,1310.382690 
	C2190.052734,1308.547729 2196.709717,1312.562988 2199.522705,1319.530884 
	C2195.694092,1318.949951 2192.101074,1318.404785 2188.508057,1317.859497 
	C2188.091309,1318.626587 2187.674316,1319.393555 2187.257568,1320.160645 
	C2188.921875,1321.749756 2190.470947,1323.487915 2192.281250,1324.888306 
	C2194.319580,1326.464966 2197.569092,1327.278564 2198.502686,1329.265015 
	C2199.530518,1331.452393 2198.523682,1334.595947 2198.369141,1338.094482 
	C2206.622070,1336.437378 2205.277832,1343.049683 2206.170166,1348.041992 
	C2207.862061,1348.041992 2209.129639,1348.112183 2210.386963,1348.028564 
	C2213.870117,1347.796875 2217.963867,1347.990723 2218.799316,1351.609985 
	C2219.409424,1354.252930 2217.444092,1357.600708 2216.269531,1360.489136 
	C2215.823242,1361.585938 2213.980469,1362.100708 2213.494873,1363.199341 
	C2212.953613,1364.423218 2213.232910,1366.010010 2213.142578,1367.666870 
	C2215.839355,1367.059448 2217.744385,1366.630371 2220.234375,1366.069458 
	C2220.234375,1368.363647 2220.650635,1369.855835 2220.162598,1370.941528 
	C2218.009033,1375.730713 2214.779785,1380.194702 2213.509766,1385.176636 
	C2212.287598,1389.970581 2213.028809,1395.257935 2212.821045,1400.324829 
	C2212.783447,1401.240112 2212.325928,1402.138306 2211.888184,1403.642944 
	C2219.728760,1403.452881 2225.888428,1406.746948 2231.981934,1411.280884 
	C2229.062988,1413.864136 2226.680664,1415.972412 2224.672852,1417.749268 
	C2229.142090,1427.997803 2229.229492,1440.702759 2243.865234,1443.144653 
	C2242.494873,1446.978882 2241.224121,1449.960205 2240.362549,1453.055542 
	C2237.904785,1461.885498 2242.215576,1469.120605 2251.063477,1470.864380 
	C2254.635254,1471.568481 2258.386963,1471.385254 2261.941895,1472.144653 
	C2266.682617,1473.157349 2270.989990,1473.877197 2273.364746,1479.973877 
	C2275.491455,1485.434204 2280.186035,1490.303467 2287.916016,1489.655762 
	C2290.345459,1489.452271 2294.275635,1491.144287 2295.288818,1493.115356 
	C2298.103516,1498.589722 2302.702148,1500.577148 2308.000000,1502.000000 
	C2308.000000,1506.741089 2308.000000,1511.482300 2307.339355,1517.296631 
	C2301.771240,1522.124268 2296.864014,1525.878418 2291.065674,1530.314331 
	C2292.568848,1537.101562 2286.227539,1541.242310 2281.698730,1546.108398 
	C2279.979004,1547.956299 2276.272217,1549.590088 2274.038086,1549.035645 
	C2265.241943,1546.852539 2260.005615,1552.295776 2254.450928,1557.106445 
	C2249.509766,1561.385742 2245.595459,1567.708130 2239.944580,1570.109985 
	C2231.394043,1573.744385 2223.018066,1577.111938 2217.648193,1582.328979 
	C2215.150879,1590.128418 2214.030029,1596.825439 2210.971680,1602.473755 
	C2205.625977,1612.347900 2199.516113,1621.955078 2190.190918,1628.772949 
	C2187.365723,1630.838745 2184.018799,1632.177002 2180.997559,1633.993042 
	C2178.020020,1635.782837 2174.071045,1637.114380 2172.482422,1639.793823 
	C2169.891846,1644.162231 2168.621826,1649.394897 2167.275146,1654.392334 
	C2166.273682,1658.108154 2164.510498,1660.723633 2161.301025,1663.009888 
	C2153.743652,1668.393188 2146.161377,1673.861206 2139.330811,1680.105957 
	C2134.079102,1684.907104 2127.402344,1690.100952 2127.969971,1697.920044 
	C2128.669189,1707.560059 2123.844727,1714.660278 2119.131836,1721.572998 
	C2116.167480,1725.921021 2115.240479,1728.566406 2118.482910,1732.782593 
	C2124.384277,1740.455811 2122.630859,1748.376465 2118.364014,1756.108154 
	C2117.242432,1758.140503 2115.777588,1759.981689 2114.495850,1761.927246 
	C2111.248047,1766.856812 2110.852295,1772.590088 2114.000000,1776.999268 
	C2119.082520,1784.117798 2119.948486,1792.189087 2121.828613,1800.163940 
	C2122.378418,1802.496460 2123.749756,1805.440796 2125.642822,1806.501099 
	C2131.463135,1809.761108 2137.718262,1812.244507 2144.484375,1815.340820 
	C2144.122314,1818.662842 2144.191650,1822.348145 2143.259766,1825.759888 
	C2140.576416,1835.582520 2146.581055,1845.206665 2156.759766,1847.359741 
	C2159.148193,1847.865112 2162.240479,1849.086182 2163.308838,1850.951660 
	C2165.566895,1854.893921 2168.055908,1859.480957 2168.050049,1863.800293 
	C2168.030762,1878.059204 2178.028809,1887.602173 2182.628418,1899.224243 
	C2181.245850,1902.596191 2179.797607,1906.127808 2178.340332,1909.681396 
	C2175.298828,1910.672852 2172.209961,1911.679565 2169.033691,1912.714722 
	C2168.503174,1915.016357 2168.461182,1917.163452 2167.546875,1918.832642 
	C2163.028564,1927.082886 2164.098877,1935.351685 2166.430664,1943.950806 
	C2167.326416,1947.254761 2166.746338,1951.053833 2166.388184,1954.581421 
	C2165.788330,1960.492432 2164.075439,1966.460571 2168.115479,1971.856812 
	C2171.763672,1976.729248 2174.002686,1981.996704 2174.879639,1988.166382 
	C2175.942383,1995.643311 2178.336426,2002.702393 2183.258789,2008.948730 
	C2185.264648,2011.494263 2185.230225,2015.845093 2185.613525,2019.429199 
	C2186.342285,2026.244385 2186.704102,2033.098877 2187.248779,2040.345825 
	C2174.896729,2049.895020 2178.775635,2050.259033 2187.233643,2058.337402 
	C2186.782715,2060.345215 2185.818848,2062.584961 2185.870361,2064.801025 
	C2186.009033,2070.772461 2188.458984,2076.803955 2184.482666,2082.576660 
	C2183.806152,2083.558350 2184.478027,2085.888916 2185.150879,2087.298340 
	C2186.946777,2091.060303 2189.083008,2094.660400 2191.639648,2099.343018 
	C2198.596436,2100.771484 2201.439209,2107.839111 2206.212646,2113.650391 
	C2212.094727,2120.811279 2214.466553,2127.142578 2212.501953,2135.999268 
	C2211.515625,2140.445557 2212.530273,2145.301025 2212.273438,2149.951172 
	C2211.673096,2160.811768 2210.851807,2171.660400 2210.158691,2181.937744 
	C2207.282471,2183.576172 2204.085205,2184.285156 2203.528564,2185.903076 
	C2200.872070,2193.620850 2194.023438,2197.281494 2188.003662,2202.283447 
	C2189.409912,2203.975342 2190.348389,2206.178467 2191.458252,2206.268311 
	C2199.696045,2206.937256 2202.794434,2217.528076 2211.937744,2216.708496 
	C2212.997559,2216.613525 2214.779785,2220.441895 2215.593262,2222.681152 
	C2216.881104,2226.227539 2217.632812,2229.968262 2218.596191,2233.569336 
	C2222.588867,2232.664795 2225.334717,2232.042725 2228.684814,2231.283691 
	C2230.143311,2242.638428 2240.101807,2243.888428 2249.948486,2251.445801 
	C2246.815186,2251.987061 2243.681641,2252.528320 2240.548096,2253.069580 
	C2241.185791,2253.864014 2241.823486,2254.658447 2242.461182,2255.452881 
	C2245.005859,2255.806641 2247.550781,2256.160156 2249.391113,2256.416016 
	C2248.905273,2261.949707 2248.494141,2266.635254 2248.007568,2272.177490 
	C2253.859131,2273.371094 2259.009033,2274.421387 2264.535645,2275.548828 
	C2262.914307,2278.675293 2261.507812,2281.387939 2260.510742,2283.310547 
	C2263.931396,2284.357666 2267.010742,2284.546387 2269.070312,2286.093506 
	C2272.900391,2288.970947 2276.251221,2292.529297 2279.580078,2296.015625 
	C2281.982910,2298.532471 2284.026611,2301.391846 2287.078125,2305.139160 
	C2282.358398,2306.151367 2279.362793,2306.793701 2274.136475,2307.914551 
	C2280.096680,2309.639893 2283.694580,2310.681396 2288.301758,2312.015381 
	C2284.364502,2315.228760 2281.451660,2317.605957 2278.152588,2320.298828 
	C2279.087158,2324.527832 2280.453369,2328.977539 2280.915039,2333.519287 
	C2281.150635,2335.838379 2280.515381,2339.357910 2278.941895,2340.500977 
	C2276.259277,2342.448975 2272.526367,2342.951172 2268.939453,2344.160400 
	C2269.505127,2341.684082 2269.913574,2339.895264 2270.518555,2337.245850 
	C2267.054443,2337.847900 2264.316895,2338.323486 2262.007568,2338.724854 
	C2261.125244,2344.061768 2260.371582,2348.622314 2259.591797,2353.339600 
	C2256.887207,2354.763672 2254.285645,2356.133301 2252.329102,2357.163574 
	C2249.044678,2369.066162 2253.678467,2382.348145 2243.060059,2391.244141 
	C2244.826416,2393.729004 2246.579346,2396.195068 2248.816162,2399.342041 
	C2245.128174,2401.030518 2242.819580,2402.087402 2240.544434,2403.129150 
	C2238.265625,2412.567871 2238.415527,2422.635742 2232.171143,2430.914551 
	C2230.773193,2432.767822 2230.688965,2435.612061 2230.000000,2438.000000 
	C1988.624878,2438.000000 1747.249756,2438.000000 1504.937256,2438.000000 
z"/>
8.000000,1501.062744 
	C2302.702148,1500.577148 2298.103516,1498.589722 2295.288818,1493.115356 
	C2294.275635,1491.144287 2290.345459,1489.452271 2287.916016,1489.655762 
	C2280.186035,1490.303467 2275.491455,1485.434204 2273.364746,1479.973877 
	C2270.989990,1473.877197 2266.682617,1473.157349 2261.941895,1472.144653 
	C2258.386963,1471.385254 2254.635254,1471.568481 2251.063477,1470.864380 
	C2242.215576,1469.120605 2237.904785,1461.885498 2240.362549,1453.055542 
	C2241.224121,1449.960205 2242.494873,1446.978882 2243.865234,1443.144653 
	C2229.229492,1440.702759 2229.142090,1427.997803 2224.672852,1417.749268 
	C2226.680664,1415.972412 2229.062988,1413.864136 2231.981934,1411.280884 
	C2225.888428,1406.746948 2219.728760,1403.452881 2211.888184,1403.642944 
	C2212.325928,1402.138306 2212.783447,1401.240112 2212.821045,1400.324829 
	C2213.028809,1395.257935 2212.287598,1389.970581 2213.509766,1385.176636 
	C2214.779785,1380.194702 2218.009033,1375.730713 2220.162598,1370.941528 
	C2220.650635,1369.855835 2220.234375,1368.363647 2220.234375,1366.069458 
	C2217.744385,1366.630371 2215.839355,1367.059448 2213.142578,1367.666870 
	C2213.232910,1366.010010 2212.953613,1364.423218 2213.494873,1363.199341 
	C2213.980469,1362.100708 2215.823242,1361.585938 2216.269531,1360.489136 
	C2217.444092,1357.600708 2219.409424,1354.252930 2218.799316,1351.609985 
	C2217.963867,1347.990723 2213.870117,1347.796875 2210.386963,1348.028564 
	C2209.129639,1348.112183 2207.862061,1348.041992 2206.170166,1348.041992 
	C2205.277832,1343.049683 2206.622070,1336.437378 2198.369141,1338.094482 
	C2198.523682,1334.595947 2199.530518,1331.452393 2198.502686,1329.265015 
	C2197.569092,1327.278564 2194.319580,1326.464966 2192.281250,1324.888306 
	C2190.470947,1323.487915 2188.921875,1321.749756 2187.257568,1320.160645 
	C2187.674316,1319.393555 2188.091309,1318.626587 2188.508057,1317.859497 
	C2192.101074,1318.404785 2195.694092,1318.949951 2199.522705,1319.530884 
	C2196.709717,1312.562988 2190.052734,1308.547729 2183.397461,1310.382690 
	C2170.333984,1313.984741 2157.885254,1310.568970 2145.307373,1307.936157 
	C2138.857422,1306.586182 2132.324463,1305.576904 2125.947754,1303.949219 
	C2121.520752,1302.819458 2117.278320,1300.944092 2112.984375,1299.320679 
	C2105.742188,1296.582642 2099.743652,1290.322876 2090.629639,1292.582642 
	C2088.997070,1292.987427 2084.909424,1288.454346 2083.956299,1285.545532 
	C2082.247559,1280.331055 2082.058838,1274.618652 2081.139893,1268.480225 
	C2075.177002,1268.742920 2069.660645,1268.985962 2063.621582,1269.251953 
	C2062.547852,1265.455078 2061.579590,1260.787842 2059.890381,1256.397949 
	C2058.114746,1251.783936 2052.797119,1252.088989 2050.551758,1253.761963 
	C2046.067505,1257.102661 2038.084717,1255.815308 2036.884277,1264.349976 
	C2036.601562,1266.359253 2030.393677,1268.105347 2026.680298,1268.928833 
	C2021.042358,1270.178955 2014.577759,1267.592896 2009.733032,1272.715210 
	C2009.466919,1272.996704 2008.420776,1272.865845 2007.949219,1272.579102 
	C1999.725952,1267.577759 1990.997559,1272.876221 1982.604736,1271.269409 
	C1976.599121,1261.784424 1972.726929,1261.293823 1964.154663,1268.895752 
	C1962.443604,1270.413086 1960.815552,1272.225464 1958.804199,1273.156738 
	C1955.518433,1274.678345 1952.197144,1274.632202 1950.470337,1270.584839 
	C1949.090454,1267.350586 1948.517578,1263.561035 1946.467407,1260.870483 
	C1942.924683,1256.220947 1938.896606,1251.757935 1934.359253,1248.101318 
	C1929.859741,1244.475342 1924.480713,1241.940796 1919.486572,1238.928955 
	C1919.213257,1238.764038 1918.893677,1238.430786 1918.660156,1238.480225 
	C1906.867432,1240.976318 1898.249878,1229.994385 1886.608887,1230.959106 
	C1883.670532,1231.202515 1879.656982,1228.742920 1877.517456,1226.311279 
	C1872.362183,1220.452148 1867.520874,1215.690796 1858.821899,1214.682129 
	C1849.093384,1213.554077 1843.663086,1205.692383 1843.760376,1195.970337 
	C1843.812256,1190.780029 1842.672852,1187.869385 1837.091553,1185.581299 
	C1829.940308,1182.649536 1823.893677,1181.449585 1816.189697,1184.019653 
	C1811.860840,1185.463745 1806.036011,1182.854492 1801.001221,1181.604004 
	C1797.488037,1180.731323 1794.093872,1179.235474 1790.785767,1177.714966 
	C1785.527222,1175.297974 1784.283691,1171.272827 1787.565063,1166.510010 
	C1789.418701,1163.819580 1791.779541,1161.326904 1794.357178,1159.315552 
	C1802.419189,1153.024536 1802.501099,1153.129517 1800.107300,1143.747192 
	C1794.433350,1139.999390 1788.821899,1137.100220 1784.244141,1133.036743 
	C1779.874756,1129.158081 1776.581787,1124.066528 1773.239136,1119.117065 
	C1769.352295,1116.760498 1767.556641,1119.753662 1766.180054,1122.879150 
	C1763.329956,1129.350830 1759.013672,1132.356812 1751.481079,1132.254517 
	C1739.879639,1132.097046 1728.582275,1136.507324 1720.364502,1143.644531 
	C1712.241333,1150.699219 1704.347046,1158.797241 1697.584717,1167.238770 
	C1692.637451,1173.414673 1687.533325,1176.473999 1680.479248,1177.104736 
	C1676.069824,1177.499023 1673.326172,1178.533569 1671.439575,1183.099854 
	C1669.860474,1186.921753 1666.885132,1190.707886 1663.538696,1193.159790 
	C1652.306396,1201.389893 1640.631836,1208.937988 1626.735107,1212.222168 
	C1617.158203,1214.485229 1615.329712,1217.142090 1613.559570,1227.119507 
	C1613.027832,1230.116821 1611.519897,1233.428223 1609.408691,1235.550659 
	C1605.702271,1239.276733 1601.422119,1242.575562 1596.953735,1245.367310 
	C1589.865112,1249.796387 1586.545410,1256.272949 1584.980957,1264.738525 
	C1581.465576,1265.450928 1578.073975,1265.164307 1574.834351,1265.737061 
	C1568.270142,1266.897583 1563.065552,1269.778320 1561.487915,1277.176270 
	C1560.740601,1280.681152 1558.945801,1283.962646 1557.610107,1287.384644 
	C1551.285889,1289.616333 1546.542969,1285.548096 1541.600586,1283.461548 
	C1531.025879,1278.996826 1507.754272,1277.693115 1497.372681,1281.572632 
	C1495.698730,1277.498413 1493.814331,1273.510132 1492.429688,1269.355103 
	C1491.298584,1265.961060 1490.443115,1262.516235 1494.420654,1259.766479 
	C1496.126343,1258.587402 1497.619629,1256.177979 1497.937500,1254.130005 
	C1498.418457,1251.032471 1500.190918,1250.108521 1502.477661,1248.477539 
	C1506.431152,1245.657349 1510.018921,1241.768433 1509.606689,1236.224854 
	C1509.272217,1231.725464 1510.765259,1228.652588 1514.666992,1226.297485 
	C1519.405762,1223.436890 1520.814697,1218.948486 1520.386841,1213.467041 
	C1519.871338,1206.861938 1519.885986,1200.214233 1519.724854,1193.583740 
	C1519.684448,1191.924561 1519.247314,1189.881104 1520.016479,1188.657837 
	C1526.898071,1177.713257 1529.386353,1163.795532 1541.775269,1156.514771 
	C1543.632080,1155.423462 1545.676270,1153.427246 1546.177368,1151.475708 
	C1547.880371,1144.843140 1549.318604,1138.081421 1549.988403,1131.283325 
	C1550.183594,1129.302979 1547.629395,1126.913818 1546.063110,1124.927002 
	C1542.996948,1121.037476 1539.546631,1117.438477 1536.648193,1113.434814 
	C1535.356567,1111.650757 1533.896851,1108.838867 1534.431763,1107.075317 
	C1537.148804,1098.116577 1531.605591,1092.475220 1526.523438,1087.039673 
	C1522.747925,1083.001831 1521.185059,1079.753296 1522.725708,1073.899170 
	C1524.637329,1066.635864 1524.299316,1058.999878 1521.970337,1051.373291 
	C1520.397827,1046.223633 1519.919678,1040.174927 1520.969971,1034.932739 
	C1522.270874,1028.439941 1521.338867,1024.055054 1515.630737,1020.526367 
	C1513.545044,1019.237122 1511.840820,1017.055908 1510.469360,1014.951416 
	C1508.480103,1011.898499 1507.376099,1008.207275 1505.135254,1005.392822 
	C1500.680054,999.797302 1497.506592,993.883179 1498.324341,986.631348 
	C1494.214111,984.491882 1489.352783,985.282776 1487.594482,979.687134 
	C1486.974976,977.715454 1481.438721,976.933777 1478.019043,976.281311 
	C1473.022095,975.327881 1470.167114,973.484375 1471.375366,967.685120 
	C1472.213989,963.659851 1470.338013,960.929260 1466.303589,959.151489 
	C1458.146240,955.557007 1452.863281,948.609985 1447.711304,941.704895 
	C1446.604980,940.222107 1446.273193,938.146973 1445.648315,936.322815 
	C1444.791626,933.821838 1444.725220,930.548645 1443.046265,928.918457 
	C1436.120728,922.194397 1436.332886,913.494629 1435.738770,905.064026 
	C1434.995117,894.510315 1431.545044,891.206482 1421.972290,895.025024 
	C1414.747559,897.906921 1410.631958,896.129028 1405.631104,891.008911 
	C1398.946899,884.165222 1394.209717,883.936035 1389.421143,888.976624 
	C1387.738403,890.747803 1386.629761,893.444336 1386.131836,895.895691 
	C1383.832764,907.212219 1378.202515,916.579590 1370.339966,924.849670 
	C1366.026367,929.386780 1361.847778,933.667419 1356.250488,937.050476 
	C1347.781372,942.169373 1339.207153,943.815796 1329.653076,943.337830 
	C1321.654297,942.937683 1321.652100,943.235413 1320.228149,935.415222 
	C1320.057495,934.477905 1319.656128,933.582520 1319.254517,932.334778 
	C1318.052612,931.999268 1316.777222,931.258057 1315.587280,931.376465 
	C1309.867554,931.945435 1305.552856,929.832336 1301.318481,925.941162 
	C1295.068237,920.197327 1291.037964,920.591064 1284.916016,926.330322 
	C1281.802490,929.249146 1278.738525,932.236084 1275.840332,935.366272 
	C1268.960815,942.796509 1260.462402,941.988708 1251.821411,940.167725 
	C1247.673828,939.293762 1245.210571,936.527771 1243.101440,932.721436 
	C1241.297729,929.466370 1237.962646,927.017639 1235.153564,924.372986 
	C1231.811523,921.226624 1227.666992,918.722656 1225.008667,915.103882 
	C1219.607544,907.751465 1212.329346,906.881592 1204.581665,908.516296 
	C1201.862671,909.089966 1199.188477,912.045410 1197.421143,914.563965 
	C1191.513672,922.982483 1188.750488,924.655762 1179.225708,921.027283 
	C1173.451904,918.827759 1169.829102,921.570862 1164.622803,925.135742 
	C1162.654297,921.637512 1160.946777,918.647827 1159.281982,915.634399 
	C1156.387939,910.395752 1153.754395,904.995728 1150.579102,899.934692 
	C1147.099976,894.389404 1141.113403,894.392456 1138.129883,900.243347 
	C1134.970947,906.438293 1131.784546,911.458862 1123.956909,912.456177 
	C1119.608276,913.010193 1117.016602,918.635437 1118.414185,923.591309 
	C1121.109619,933.149475 1119.184692,940.439636 1110.156616,945.588928 
	C1107.758179,946.956848 1106.186279,949.773865 1103.497314,952.738647 
	C1099.246216,946.627747 1095.175537,941.432617 1096.199829,933.703491 
	C1096.671875,930.141357 1096.009399,926.396851 1095.623047,922.760437 
	C1095.040527,917.277710 1093.166138,912.893250 1087.729126,909.920105 
	C1081.419189,906.469666 1081.547607,904.502686 1084.072388,897.682007 
	C1085.759888,893.123047 1087.332520,888.237732 1087.474121,883.454590 
	C1087.704956,875.653687 1083.646484,871.566345 1076.010742,871.428223 
	C1071.867065,871.353210 1067.688965,872.698181 1063.543579,873.492676 
	C1062.245728,873.741333 1060.797729,874.924194 1059.768799,874.592529 
	C1049.943359,871.426086 1043.773926,878.792053 1036.586792,882.733032 
	C1031.994629,885.251099 1028.882324,884.827454 1025.122437,881.416809 
	C1020.002441,876.772400 1014.477600,872.551819 1008.936584,868.402954 
	C1005.868164,866.105530 1003.744324,863.952942 1003.629639,859.566406 
	C1003.542908,856.248474 1001.304993,852.986816 999.798706,848.983887 
	C1003.569336,848.207642 1007.565613,848.095154 1011.561951,848.095032 
	C1443.083618,848.084900 1874.605225,848.083191 2307.063477,848.040527 
	C2308.000000,1065.375122 2308.000000,1282.750244 2308.000000,1501.062744 
z"/>

</svg>