<svg version="1.1" id="Layer_1" xmlns="http://www.w3.org/2000/svg" xmlns:xlink="http://www.w3.org/1999/xlink" x="0px" y="0px"
	 width="100%" viewBox="0 0 2256 2729" enable-background="new 0 0 2256 2729" xml:space="preserve">

<path data-name="Bokito" style="fill: {#62A0F0}" fill="#62A0F0" opacity="1.000000" stroke="none" 
	d="
M1556.875000,2732.000000 
	C1554.673706,2728.040527 1554.011230,2723.674561 1551.887451,2720.203125 
	C1546.957520,2712.145020 1546.860596,2711.465820 1555.008789,2706.833496 
	C1555.583984,2706.506348 1556.318848,2706.397949 1556.803467,2705.982666 
	C1562.870239,2700.781494 1556.276367,2694.067627 1558.659668,2688.160889 
	C1559.073242,2687.135742 1554.775024,2682.867920 1552.131226,2682.216553 
	C1545.600952,2680.608154 1541.009033,2676.702148 1536.694824,2672.085693 
	C1531.527954,2666.556885 1526.816040,2660.544434 1517.536499,2664.300049 
	C1515.875732,2664.972168 1512.190918,2662.513428 1510.417725,2660.596680 
	C1507.810303,2657.778076 1506.563965,2655.549072 1501.592407,2657.719727 
	C1498.882568,2658.902832 1493.389893,2655.871582 1490.234863,2653.373779 
	C1485.418213,2649.560791 1481.490967,2644.607666 1477.302246,2640.032227 
	C1476.461548,2639.113770 1476.140381,2637.719971 1475.635254,2636.661377 
	C1478.435059,2633.948242 1482.507935,2631.822266 1483.275146,2628.844727 
	C1484.523926,2623.997314 1483.611938,2618.593262 1483.611938,2613.177246 
	C1479.654907,2614.205322 1476.360107,2616.164062 1473.891479,2615.411865 
	C1471.081909,2614.555420 1468.969238,2611.320557 1466.631592,2609.039795 
	C1465.041504,2607.488281 1463.762085,2604.667725 1462.033936,2604.397705 
	C1457.848633,2603.743408 1456.650391,2601.389404 1455.825195,2597.822998 
	C1455.436401,2596.143066 1454.109741,2594.434814 1452.752197,2593.270508 
	C1448.526123,2589.646240 1444.113159,2586.236328 1439.714722,2582.817627 
	C1434.956299,2579.119141 1433.001465,2573.679443 1434.845337,2568.620850 
	C1437.555786,2561.184326 1434.661621,2555.794678 1431.066772,2550.119629 
	C1429.302124,2547.333740 1427.559570,2544.534180 1425.543579,2541.321045 
	C1417.286255,2543.209473 1409.310303,2541.788574 1402.089722,2537.729736 
	C1399.531006,2536.291504 1397.081543,2533.210205 1396.260864,2530.390381 
	C1393.391724,2520.532715 1393.670166,2520.453857 1384.221558,2520.022217 
	C1382.585693,2519.947266 1380.951172,2519.843750 1381.183960,2519.856689 
	C1376.823364,2514.982422 1373.523926,2511.294434 1369.307495,2506.581543 
	C1369.824829,2504.638916 1370.735840,2501.217773 1371.968750,2496.587891 
	C1366.944702,2494.392822 1361.935669,2492.065674 1356.816528,2490.013428 
	C1352.964722,2488.468994 1350.853760,2485.992676 1348.711670,2482.183105 
	C1343.008301,2472.041260 1343.815186,2462.630615 1346.970947,2451.844727 
	C1349.305542,2443.865967 1350.100098,2434.891357 1348.040649,2426.185059 
	C1347.139404,2422.375000 1346.041138,2419.272461 1341.927612,2417.940430 
	C1338.339722,2416.778809 1338.086548,2413.848145 1338.548828,2410.621338 
	C1339.619507,2403.148438 1339.586426,2403.143799 1336.153809,2395.896973 
	C1320.711060,2393.013916 1305.833740,2390.236572 1290.381836,2387.351807 
	C1290.222168,2384.639160 1290.074951,2382.137451 1289.902710,2379.210938 
	C1281.736450,2375.196777 1275.914673,2369.623779 1275.286255,2359.151367 
	C1274.969604,2353.874023 1272.681763,2348.987305 1273.655029,2343.068604 
	C1274.242554,2339.496094 1270.734131,2334.660400 1267.978516,2331.277832 
	C1264.598145,2327.128174 1265.062866,2324.565430 1269.153320,2321.700684 
	C1272.311157,2319.489258 1275.229736,2316.936035 1279.238159,2313.754150 
	C1276.053101,2310.455078 1273.607910,2307.418945 1270.669800,2304.975342 
	C1262.520630,2298.197266 1255.649658,2290.565674 1250.928955,2280.885986 
	C1249.738281,2278.444580 1246.032227,2276.677246 1243.118774,2275.780518 
	C1240.042969,2274.833984 1236.527466,2275.373779 1233.213867,2275.129639 
	C1225.643433,2274.571533 1220.089233,2270.953125 1216.655029,2264.107910 
	C1214.321655,2259.456787 1211.871094,2254.864258 1209.481812,2250.240967 
	C1207.506958,2246.419434 1205.702515,2242.498291 1203.525635,2238.796143 
	C1201.891724,2236.017578 1200.188721,2233.044678 1197.795898,2231.003174 
	C1194.319092,2228.037109 1193.126709,2225.240234 1194.487183,2220.618896 
	C1196.137451,2215.013428 1194.114380,2212.478760 1188.792847,2210.011719 
	C1184.915894,2208.214355 1180.671387,2206.362793 1177.875610,2203.344971 
	C1175.572510,2200.858887 1174.828613,2196.697021 1174.045776,2193.134521 
	C1173.669434,2191.422607 1174.881348,2189.394531 1175.229614,2187.483398 
	C1176.296631,2181.627686 1177.949341,2175.773193 1178.077393,2169.890381 
	C1178.156616,2166.246338 1176.492065,2162.175293 1174.523315,2158.961914 
	C1171.033569,2153.265137 1168.520508,2145.865479 1168.938843,2138.402832 
	C1173.209961,2137.157471 1177.524414,2135.476807 1181.996216,2134.684082 
	C1191.314453,2133.032715 1198.022705,2127.764648 1204.576416,2121.235352 
	C1212.102295,2113.737305 1214.343018,2103.982666 1217.306763,2094.774414 
	C1221.635864,2081.324463 1220.869629,2067.010254 1218.824463,2053.263428 
	C1215.444580,2030.542969 1217.846924,2008.533936 1227.213135,1988.027954 
	C1231.140259,1979.429688 1233.299438,1970.888916 1235.321899,1962.011841 
	C1235.616455,1960.719360 1235.354370,1959.141724 1236.007324,1958.113525 
	C1243.883667,1945.707764 1238.812500,1932.449707 1239.007446,1918.307617 
	C1241.150757,1917.163330 1243.043579,1916.969482 1244.790771,1917.386353 
	C1246.593140,1917.816406 1248.719360,1919.927490 1249.898071,1919.422363 
	C1256.021973,1916.798462 1258.787598,1919.948242 1262.027954,1924.537964 
	C1265.466187,1929.408325 1269.598145,1928.438110 1272.439453,1922.749023 
	C1274.512695,1918.597778 1276.242554,1914.273071 1278.365723,1910.149292 
	C1279.393311,1908.153320 1280.730103,1905.128418 1282.344360,1904.830200 
	C1288.957397,1903.609009 1291.169067,1898.922119 1293.423340,1893.562744 
	C1295.074219,1889.637939 1297.589966,1886.029907 1300.032104,1882.496216 
	C1303.800171,1877.043701 1308.167969,1872.171265 1314.272461,1869.752441 
	C1321.480957,1874.192627 1323.892578,1883.306641 1332.622559,1885.714966 
	C1334.044434,1883.669556 1335.068359,1881.488159 1336.706177,1879.968140 
	C1342.465942,1874.622070 1347.721802,1868.103149 1354.502563,1864.642090 
	C1363.618896,1859.988647 1365.562988,1858.148560 1362.870483,1848.226562 
	C1362.046875,1845.191528 1362.249268,1841.892822 1361.755493,1838.750488 
	C1360.678223,1831.894409 1366.526123,1828.177734 1368.749268,1822.832764 
	C1369.838135,1820.215210 1371.867554,1816.841064 1371.045288,1814.775146 
	C1367.550903,1805.996704 1371.218628,1799.892212 1377.372070,1794.543091 
	C1382.399780,1790.172485 1383.787598,1784.892456 1382.983398,1777.912354 
	C1387.275635,1762.719116 1391.998047,1748.585205 1398.965210,1735.238159 
	C1401.544312,1730.297241 1403.379395,1724.967896 1405.717773,1718.992188 
	C1406.457031,1714.269531 1406.818359,1710.324097 1407.648804,1706.480103 
	C1409.809448,1696.478760 1412.079590,1686.498413 1414.512817,1676.560181 
	C1415.362793,1673.088745 1415.835571,1668.677368 1418.171631,1666.569824 
	C1426.634277,1658.935669 1430.600342,1648.753418 1435.719238,1639.135376 
	C1437.354492,1636.063354 1439.737915,1632.447388 1442.683350,1631.176636 
	C1456.020020,1625.422363 1469.631348,1620.286865 1483.245483,1615.201050 
	C1489.915283,1612.709473 1496.250854,1613.698730 1501.827148,1618.494141 
	C1503.574463,1619.996948 1505.601196,1621.174561 1507.713623,1623.206055 
	C1509.611328,1629.237183 1511.839355,1634.460083 1512.872437,1639.909546 
	C1515.423950,1653.367432 1507.360229,1667.288574 1495.276611,1673.267456 
	C1482.191772,1679.741699 1469.515747,1687.048950 1456.722656,1694.103760 
	C1446.209961,1699.900757 1443.558716,1709.957886 1441.762207,1721.099243 
	C1450.356567,1722.121094 1458.511963,1724.907349 1465.895630,1723.536499 
	C1476.577271,1721.553223 1485.921875,1724.135986 1495.747559,1726.726440 
	C1502.409424,1728.482544 1507.022461,1731.484741 1508.792969,1738.603882 
	C1509.361328,1740.889526 1511.735596,1743.375854 1513.932617,1744.485352 
	C1520.704102,1747.905151 1523.151367,1753.875122 1524.234741,1760.595093 
	C1525.048584,1765.643799 1525.069458,1770.820312 1525.483398,1776.488647 
	C1534.740845,1776.576294 1536.172852,1783.270508 1536.214233,1791.656494 
	C1541.683960,1792.488159 1546.845825,1793.299805 1552.016602,1794.049805 
	C1555.287109,1794.524170 1558.402588,1795.860596 1557.497314,1799.559448 
	C1556.438965,1803.885132 1554.851440,1808.432251 1552.222778,1811.927612 
	C1549.397705,1815.683960 1549.446411,1818.935547 1550.694946,1823.438721 
	C1560.514160,1824.284668 1570.181763,1825.074097 1579.837769,1825.986816 
	C1581.761230,1826.168579 1584.513550,1826.177246 1585.390259,1827.366699 
	C1589.479126,1832.913086 1596.468018,1832.435303 1601.545532,1835.773560 
	C1602.845947,1836.628418 1604.749146,1836.701050 1605.846191,1837.709106 
	C1613.875000,1845.086914 1621.810547,1852.568237 1629.684692,1860.111816 
	C1632.643677,1862.946533 1637.602783,1863.020630 1639.234619,1867.783081 
	C1641.891724,1875.538086 1648.217896,1878.734253 1656.134521,1880.338257 
	C1659.348999,1875.274170 1662.547852,1870.311157 1665.668701,1865.299683 
	C1670.365234,1857.757812 1674.893677,1850.108154 1679.732544,1842.659668 
	C1681.496948,1839.943726 1683.486084,1836.778320 1686.182129,1835.392456 
	C1691.107056,1832.860596 1696.652100,1829.963745 1701.907837,1830.021362 
	C1709.437134,1830.104126 1712.867798,1824.765991 1718.180176,1821.803955 
	C1723.360229,1818.915649 1729.931763,1818.559692 1735.844238,1816.918701 
	C1737.057495,1816.581787 1737.963745,1815.169922 1739.178101,1814.798096 
	C1741.028809,1814.231323 1743.269043,1813.416260 1744.916016,1813.972778 
	C1751.427612,1816.173218 1758.051392,1818.336670 1764.103760,1821.520874 
	C1770.594971,1824.936035 1776.530884,1829.428589 1777.592407,1837.700439 
	C1777.757690,1838.989136 1777.967407,1840.689575 1778.821899,1841.403198 
	C1783.571899,1845.370361 1782.275513,1850.459473 1781.507568,1855.296875 
	C1780.417114,1862.166260 1778.503052,1868.919067 1777.661499,1875.809692 
	C1776.824707,1882.661987 1776.725586,1889.620605 1776.614502,1896.537598 
	C1776.567139,1899.486450 1777.707031,1902.458740 1777.627441,1905.401855 
	C1777.306152,1917.255371 1783.350098,1924.398804 1793.736328,1929.080688 
	C1804.295044,1933.840820 1812.169678,1941.200073 1817.443604,1952.061646 
	C1820.962036,1959.307373 1826.324707,1966.435059 1832.645630,1971.296265 
	C1837.695068,1975.179688 1842.075806,1979.299927 1846.369873,1984.706421 
	C1848.431885,1989.974121 1850.249878,1994.574585 1851.975830,1999.209229 
	C1852.544678,2000.736450 1852.428711,2002.728638 1853.387817,2003.865356 
	C1858.918945,2010.421875 1864.637573,2016.822632 1870.387695,2023.190063 
	C1871.927979,2024.895630 1874.153931,2026.049805 1875.458740,2027.887573 
	C1880.434326,2034.894409 1885.372559,2041.946289 1889.910400,2049.239014 
	C1893.011597,2054.223145 1896.337402,2059.369629 1897.947632,2064.912842 
	C1900.852417,2074.912354 1906.377075,2079.656006 1916.889404,2079.358154 
	C1918.344360,2079.316895 1919.972534,2079.807861 1921.258301,2080.523682 
	C1924.095581,2082.103271 1926.765625,2083.983398 1929.909302,2086.000977 
	C1928.817505,2096.979004 1934.800293,2103.724121 1944.399414,2108.232666 
	C1954.994873,2113.209473 1960.601685,2121.638672 1960.396118,2132.507080 
	C1969.465088,2140.811768 1980.529175,2136.001221 1989.527344,2140.176514 
	C1993.113770,2136.132324 1996.385132,2132.443359 1998.407959,2130.162354 
	C2009.159058,2130.162354 2018.225220,2130.162354 2028.599365,2130.162354 
	C2032.541138,2133.826904 2037.162964,2139.301025 2045.198364,2138.782959 
	C2046.873901,2138.675049 2049.202148,2140.122070 2050.321533,2141.559814 
	C2053.730225,2145.937988 2058.679199,2146.656494 2063.678223,2148.859863 
	C2063.995850,2155.094971 2064.449463,2160.435547 2064.095459,2165.721924 
	C2063.604004,2173.068848 2063.401123,2180.024658 2066.666992,2187.136230 
	C2070.060791,2194.526367 2066.418457,2202.770264 2058.815918,2206.164795 
	C2046.104858,2211.840332 2037.208496,2221.497559 2030.138428,2232.920654 
	C2024.870117,2241.432617 2017.894531,2247.305664 2009.071045,2251.954346 
	C1997.009033,2258.309326 1987.961670,2267.518311 1986.029297,2282.082031 
	C1985.471436,2286.287109 1983.846191,2290.420898 1982.258423,2294.407471 
	C1975.843750,2310.512939 1973.946533,2327.263916 1976.709351,2344.180420 
	C1977.821411,2350.989502 1976.183960,2355.271240 1972.115479,2360.302979 
	C1968.066772,2365.310303 1963.633667,2371.251465 1962.679321,2377.304932 
	C1958.121582,2406.216309 1941.093262,2424.232422 1914.916748,2434.615967 
	C1897.518921,2441.517334 1880.890015,2449.503418 1866.448730,2461.690430 
	C1862.705078,2464.849854 1861.318237,2468.149902 1861.623047,2472.843994 
	C1862.075684,2479.811523 1862.650757,2486.846680 1862.157104,2493.780518 
	C1861.604858,2501.538574 1862.080688,2508.852295 1864.420532,2516.380371 
	C1865.687500,2520.457764 1864.445312,2525.394775 1863.931763,2529.898193 
	C1863.769287,2531.323486 1862.615479,2533.248779 1861.383179,2533.843994 
	C1848.619141,2540.011963 1844.208252,2551.491699 1841.294800,2564.190186 
	C1838.178833,2577.771484 1828.348267,2586.327881 1817.381470,2593.383545 
	C1813.476440,2595.895996 1808.063110,2596.416260 1803.234131,2597.038330 
	C1798.646240,2597.629395 1793.865601,2596.703369 1789.271484,2597.270264 
	C1781.413818,2598.239746 1773.396118,2599.071289 1765.877686,2601.372070 
	C1753.219116,2605.245605 1741.132324,2611.120117 1728.361328,2614.452148 
	C1718.261841,2617.087646 1709.743652,2620.827637 1701.403320,2627.523682 
	C1689.642944,2636.965576 1682.424927,2649.242920 1677.187744,2662.223145 
	C1672.973877,2672.667969 1667.131592,2677.733643 1656.654419,2679.189453 
	C1644.276001,2680.909424 1640.662109,2685.048584 1639.670898,2697.739746 
	C1638.772217,2709.246094 1630.817017,2716.047363 1619.878052,2714.188477 
	C1615.340332,2713.417480 1611.411133,2714.067383 1607.578979,2716.413330 
	C1604.521118,2718.284668 1601.488159,2719.079834 1598.632324,2715.897705 
	C1595.231812,2712.109131 1591.809814,2713.786133 1587.839966,2715.365234 
	C1579.738892,2718.587158 1576.078125,2726.648193 1569.341553,2731.248047 
	C1569.560913,2731.498779 1569.780396,2731.749512 1570.000000,2732.000000 
	C1565.916626,2732.000000 1561.833374,2732.000000 1556.875000,2732.000000 
z"/>
<path data-name="Deuk" style="fill: {#EC55E0}" fill="#EC55E0" opacity="1.000000" stroke="none" 
	d="
M970.528992,615.334473 
	C973.738892,614.920288 976.948792,614.144165 980.158752,614.143372 
	C1218.156250,614.086975 1456.153809,614.094360 1694.151367,614.091187 
	C1881.476440,614.088623 2068.801514,614.078979 2257.063232,614.036255 
	C2258.000000,614.000000 2258.000000,615.000000 2257.072754,615.351807 
	C2074.966309,615.703674 1893.787231,615.703674 1712.217285,615.703674 
	C1722.045654,622.612000 1732.331055,626.502747 1743.533813,627.955688 
	C1744.160156,628.036926 1744.925415,628.336548 1745.310059,628.797913 
	C1751.082764,635.722412 1758.032959,633.703796 1765.464722,632.283386 
	C1772.439331,630.950317 1779.503418,627.852722 1786.650391,630.227051 
	C1790.366821,636.796875 1791.979858,642.999390 1790.583740,650.411377 
	C1789.375977,656.822876 1789.752197,663.694336 1790.471680,670.247986 
	C1790.920288,674.335266 1792.225830,679.491760 1795.068970,681.888306 
	C1799.666382,685.763672 1802.038574,690.336792 1804.124878,695.555298 
	C1805.206055,698.259827 1806.997314,700.680542 1808.394775,703.102783 
	C1813.560791,701.971802 1815.067383,698.432007 1816.169800,694.444763 
	C1819.681030,681.744690 1829.657959,673.505981 1837.600952,663.904297 
	C1838.914429,662.316528 1841.582520,661.589661 1843.769287,661.028748 
	C1853.359497,658.568787 1863.175049,656.849792 1872.573486,653.821472 
	C1880.277222,651.339294 1887.833374,650.763123 1895.199097,651.473877 
	C1902.117432,659.345093 1905.186401,670.118591 1916.537720,673.091919 
	C1918.465576,673.596985 1919.691528,676.435730 1921.475098,677.914795 
	C1924.527954,680.446289 1927.423706,683.761047 1930.988159,684.970886 
	C1942.049927,688.725464 1941.255249,700.521851 1947.303955,707.557800 
	C1944.632080,715.176697 1949.616455,721.419983 1950.979248,728.319092 
	C1952.215454,734.576660 1952.666504,740.769653 1948.474243,746.439575 
	C1946.735840,748.790833 1945.028320,751.569885 1944.537354,754.370056 
	C1942.086426,768.347656 1939.787598,782.363892 1937.981812,796.436768 
	C1937.236450,802.246277 1937.858398,808.231201 1937.858398,814.345398 
	C1947.953125,816.744019 1954.330566,821.959106 1959.368164,830.107483 
	C1963.083496,836.116821 1966.406006,843.581482 1975.407715,845.001160 
	C1977.777832,845.374878 1980.698853,849.428162 1981.297729,852.233337 
	C1982.271606,856.796692 1983.495361,861.252563 1982.239014,866.579651 
	C1980.132812,875.510010 1980.058716,884.990112 1979.760864,894.259155 
	C1979.371460,906.380005 1990.000244,919.325745 2001.419067,921.397461 
	C2012.936279,923.487061 2019.174194,930.747864 2019.719238,942.431519 
	C2019.838867,944.997070 2019.786499,948.060425 2021.118164,949.997986 
	C2028.225342,960.339600 2036.070190,970.181335 2043.021606,980.620972 
	C2048.488770,988.831604 2052.833496,997.781860 2058.067383,1006.159363 
	C2060.651611,1010.295654 2063.531982,1014.631714 2067.297363,1017.571777 
	C2077.879883,1025.834717 2088.991943,1033.419922 2100.760498,1041.895630 
	C2099.563232,1045.063477 2098.222412,1048.611328 2096.609375,1052.879517 
	C2101.432129,1059.726440 2109.802734,1059.630859 2116.062256,1061.985107 
	C2117.924561,1066.983765 2118.787842,1072.492554 2121.731689,1076.455811 
	C2126.157715,1082.413696 2127.363770,1087.915894 2125.028809,1094.961426 
	C2123.002197,1101.076904 2123.409424,1107.344360 2127.575928,1112.926270 
	C2128.681885,1114.407959 2129.036377,1116.450439 2129.626465,1117.955933 
	C2126.442383,1121.857910 2123.646240,1125.284790 2120.572998,1129.051147 
	C2125.715088,1132.349243 2129.760254,1134.578491 2133.397705,1137.344360 
	C2145.343506,1146.427979 2147.145020,1153.787720 2140.900391,1167.351196 
	C2138.813721,1171.883545 2136.377686,1176.253784 2134.164307,1180.729370 
	C2129.614014,1189.930786 2131.130859,1197.235962 2138.028809,1204.669556 
	C2140.803223,1207.659668 2142.397705,1211.800781 2144.297363,1215.536011 
	C2149.990967,1226.729614 2149.629395,1236.817017 2139.154785,1245.413940 
	C2137.120117,1247.083618 2136.623291,1250.562378 2139.526367,1252.385010 
	C2147.231934,1257.222778 2145.934814,1264.481323 2145.768066,1271.749268 
	C2133.368408,1269.576050 2123.304199,1276.262817 2112.061279,1277.563232 
	C2111.588135,1287.361328 2104.437500,1291.623169 2098.466797,1296.487915 
	C2095.095703,1299.234741 2090.812500,1299.919800 2086.247070,1297.997925 
	C2083.708984,1296.929565 2080.233887,1296.104492 2077.868164,1296.995117 
	C2071.652344,1299.335083 2065.879883,1302.802856 2062.048340,1308.582031 
	C2057.424316,1315.556763 2053.249023,1323.489014 2054.669189,1331.537720 
	C2056.040771,1339.312256 2058.964355,1347.503906 2066.897949,1352.372925 
	C2069.683350,1354.082153 2073.624023,1356.700195 2071.802246,1361.186157 
	C2069.938721,1365.775146 2067.467285,1372.297974 2062.220459,1371.446411 
	C2049.489502,1369.380127 2040.290894,1375.655273 2030.662354,1381.733154 
	C2030.394165,1381.902588 2029.950439,1381.818115 2029.712646,1382.007690 
	C2028.221802,1383.196655 2026.565186,1384.256592 2025.337036,1385.681274 
	C2021.872559,1389.699707 2018.196411,1393.623047 2015.353760,1398.063843 
	C2012.940918,1401.833252 2009.696655,1406.468018 2010.105835,1410.375732 
	C2011.189331,1420.719971 2013.956787,1430.900146 2016.305420,1441.087524 
	C2016.692017,1442.764893 2018.351318,1444.148804 2019.756836,1446.143066 
	C2021.615723,1444.550171 2022.967041,1443.653809 2023.990356,1442.473145 
	C2030.776123,1434.643677 2040.633545,1435.715454 2043.853149,1445.584717 
	C2047.005005,1455.245605 2048.747803,1465.374512 2042.646729,1475.217163 
	C2040.108154,1479.312378 2038.492188,1484.385742 2037.968262,1489.179565 
	C2037.622559,1492.342041 2038.985962,1497.537842 2041.277100,1498.836304 
	C2054.284180,1506.208252 2064.934326,1518.739868 2081.756348,1518.191895 
	C2086.581299,1518.034790 2089.224121,1521.116699 2089.636963,1525.503540 
	C2090.196777,1531.450928 2090.885742,1537.593140 2089.983398,1543.413696 
	C2089.060791,1549.365234 2088.146973,1554.992432 2089.444092,1561.034058 
	C2089.887695,1563.099976 2088.198730,1565.924927 2086.870117,1568.012207 
	C2083.333252,1573.568237 2076.779785,1571.908447 2071.263672,1573.353271 
	C2067.650879,1557.214233 2058.716553,1548.553223 2042.280151,1547.268677 
	C2036.199097,1546.793457 2030.292358,1543.640137 2024.384766,1541.491943 
	C2013.382935,1537.491211 2003.062256,1534.152954 1991.350098,1541.375122 
	C1978.967896,1549.010498 1965.564697,1545.961426 1953.383911,1539.331787 
	C1949.033691,1536.964233 1944.856079,1536.354858 1940.163208,1535.950806 
	C1932.952759,1535.330078 1925.849854,1533.518921 1918.643066,1532.785889 
	C1904.899780,1531.388306 1891.055420,1528.652710 1877.625366,1534.821411 
	C1871.591187,1537.592896 1865.227661,1536.511108 1862.084839,1532.597534 
	C1856.191772,1525.259277 1856.222656,1523.539917 1862.391846,1515.579346 
	C1866.771606,1509.927612 1867.187134,1505.078247 1863.732178,1500.179443 
	C1860.224731,1495.206299 1855.186646,1496.168457 1850.151489,1496.382935 
	C1843.919312,1496.648315 1837.129272,1497.924438 1831.560669,1495.970215 
	C1825.120850,1493.710205 1820.311646,1494.612549 1816.061401,1498.711182 
	C1811.604736,1503.008789 1807.088013,1503.958984 1801.620850,1500.778809 
	C1801.664185,1493.887573 1801.596191,1487.900513 1801.737793,1481.918579 
	C1801.783691,1479.976685 1801.687866,1477.310181 1802.836304,1476.236206 
	C1809.024536,1470.448608 1807.959839,1463.050659 1808.460327,1455.776978 
	C1808.772949,1451.234619 1810.552246,1446.787720 1811.728516,1442.312378 
	C1812.311523,1440.094482 1813.191650,1437.943970 1813.638428,1435.703369 
	C1815.065796,1428.546387 1816.379395,1421.366333 1817.685669,1414.185913 
	C1818.577759,1409.282471 1819.759155,1404.390869 1820.117676,1399.443604 
	C1820.438599,1395.014282 1818.499146,1391.881470 1813.344116,1391.357056 
	C1809.412598,1390.957153 1805.510132,1389.972168 1801.683228,1388.924194 
	C1797.264526,1387.714233 1793.656982,1388.661011 1789.394409,1390.580566 
	C1780.701294,1394.495361 1771.540405,1399.035034 1762.327271,1399.650757 
	C1753.601440,1400.233765 1746.132324,1403.137207 1739.019653,1406.643066 
	C1726.992554,1412.571167 1715.780396,1420.152954 1703.854980,1427.260376 
	C1695.456665,1423.787476 1688.912109,1418.620850 1686.755981,1408.609741 
	C1685.428223,1402.445923 1682.692871,1396.578369 1675.804443,1394.088257 
	C1674.428589,1393.590820 1673.528931,1391.829590 1672.355713,1390.707397 
	C1669.814331,1388.276611 1667.471191,1385.548706 1664.618530,1383.555664 
	C1660.862549,1380.931763 1656.694946,1378.897217 1651.696045,1376.031128 
	C1652.868408,1371.078247 1654.055298,1366.064575 1655.311279,1360.759155 
	C1651.014160,1355.491699 1650.999756,1355.160645 1643.237183,1355.496948 
	C1633.158325,1355.933838 1624.115601,1354.025024 1616.640503,1346.716675 
	C1615.059204,1345.170532 1612.831177,1344.285889 1612.657959,1344.179077 
	C1611.818848,1333.357544 1611.014038,1324.193359 1610.446777,1315.014648 
	C1610.244995,1311.748779 1610.296021,1308.395630 1610.809448,1305.174438 
	C1611.540039,1300.591797 1612.900635,1296.113037 1613.804688,1291.552856 
	C1614.391479,1288.592773 1614.827393,1285.504639 1611.269775,1283.842896 
	C1601.024170,1288.176758 1601.080688,1288.047852 1589.862305,1283.130249 
	C1586.988525,1281.870605 1582.551392,1280.092163 1580.699463,1281.334717 
	C1574.555786,1285.456665 1568.858276,1284.172729 1562.592529,1282.516724 
	C1557.903809,1281.277466 1553.849854,1282.238525 1550.287231,1286.617065 
	C1541.405396,1297.532715 1529.933105,1296.686646 1521.781982,1285.292725 
	C1518.762695,1281.072144 1516.050537,1276.119507 1509.076660,1278.154297 
	C1505.791748,1279.112915 1503.372925,1276.962524 1502.527100,1273.553833 
	C1502.073120,1271.724365 1501.768799,1269.857788 1501.254272,1267.298096 
	C1489.993774,1273.316650 1478.746216,1276.441528 1466.516968,1275.514893 
	C1462.931763,1275.243286 1458.978638,1275.439331 1455.692261,1276.709839 
	C1451.468506,1278.342651 1448.001343,1282.330200 1443.739380,1283.356934 
	C1439.242554,1284.439941 1434.167480,1282.818115 1429.392822,1283.123413 
	C1422.458740,1283.567139 1415.583740,1284.954346 1408.649536,1285.367432 
	C1405.970947,1285.527100 1402.781128,1284.759277 1400.557861,1283.297974 
	C1396.119263,1280.380371 1393.874634,1282.161255 1391.239990,1286.026489 
	C1388.018066,1284.489258 1384.250122,1283.544189 1383.283691,1281.359619 
	C1380.516113,1275.103149 1376.937988,1274.652954 1371.518433,1277.591919 
	C1370.337036,1278.232544 1368.345947,1277.619751 1366.790161,1277.289795 
	C1359.154785,1275.671387 1351.519531,1274.038818 1343.936768,1272.195801 
	C1342.472168,1271.839600 1341.272705,1270.468140 1339.895142,1269.660156 
	C1337.934204,1268.510132 1336.042969,1266.969238 1333.910645,1266.428711 
	C1322.792969,1263.610107 1311.575439,1261.183472 1300.464966,1258.338379 
	C1296.642822,1257.359741 1293.394531,1257.212524 1290.437500,1260.244019 
	C1286.671143,1264.105347 1282.928711,1263.583618 1279.231445,1259.117920 
	C1276.300415,1252.929688 1274.870361,1247.288696 1275.961670,1241.069214 
	C1276.352051,1238.844482 1275.647583,1236.449829 1275.776978,1234.151611 
	C1275.936035,1231.325928 1276.021118,1228.378296 1276.903564,1225.739380 
	C1278.160522,1221.980591 1280.314941,1218.531494 1281.731812,1214.815063 
	C1286.152588,1203.219482 1293.463257,1194.554077 1304.477417,1188.268311 
	C1313.260010,1183.256104 1318.610962,1174.703125 1321.358276,1165.936523 
	C1316.447144,1158.298096 1311.279785,1152.073730 1308.199341,1144.947388 
	C1305.266479,1138.162231 1301.138672,1134.063721 1294.322021,1131.922852 
	C1291.265381,1130.962891 1287.577637,1129.934814 1285.730713,1127.670166 
	C1282.693359,1123.945679 1279.305176,1122.757202 1274.821411,1121.866455 
	C1271.328735,1121.172852 1267.331421,1118.782104 1265.307617,1115.912231 
	C1262.180176,1111.476807 1260.546265,1105.988403 1258.159912,1100.681885 
	C1264.896118,1095.965332 1270.885864,1091.688721 1278.623169,1092.228271 
	C1284.573853,1092.643066 1286.776733,1089.636230 1288.306641,1084.545654 
	C1289.522461,1080.500122 1290.924683,1075.856567 1293.798462,1073.097412 
	C1300.069336,1067.076660 1307.330078,1062.086792 1314.459229,1056.460571 
	C1309.767212,1047.605713 1314.505493,1041.345581 1320.442871,1035.119385 
	C1321.630615,1035.202881 1322.911499,1035.352173 1324.194458,1035.373657 
	C1333.350830,1035.527588 1334.825317,1034.349609 1336.833252,1025.348877 
	C1337.047119,1024.390259 1336.947876,1023.190735 1337.496094,1022.504333 
	C1343.346313,1015.178955 1340.331299,1007.829529 1337.902466,1000.346436 
	C1337.005981,997.584106 1335.952759,994.268921 1336.679810,991.687073 
	C1339.943970,980.096008 1343.527466,968.645264 1349.564819,957.987610 
	C1352.791992,952.290833 1356.233521,947.898438 1362.056030,944.565247 
	C1368.655762,940.787048 1372.973267,933.927795 1371.938354,926.335693 
	C1370.961914,919.173035 1372.435913,912.690186 1373.452637,905.929504 
	C1373.840942,903.348389 1374.338501,900.521179 1373.690796,898.098999 
	C1372.140991,892.304199 1373.317749,887.145081 1375.635986,881.859131 
	C1378.431763,875.484619 1379.693726,869.084656 1378.562012,861.751770 
	C1376.480591,848.265564 1376.833374,835.053467 1385.766724,823.077332 
	C1392.102539,814.583313 1393.283081,804.169128 1392.425903,793.566223 
	C1392.138306,790.007996 1392.452026,786.195984 1393.445801,782.777649 
	C1396.491699,772.302551 1401.208496,770.549133 1411.149780,776.406738 
	C1416.675659,771.507935 1422.407837,766.426453 1428.394531,761.119202 
	C1425.554199,751.479919 1428.239624,748.254028 1438.485718,747.963745 
	C1446.036255,747.749756 1454.490967,751.009460 1460.876587,743.712158 
	C1461.524902,742.971436 1463.477295,742.958618 1464.704102,743.205811 
	C1471.724854,744.620789 1479.223389,743.634277 1485.656860,748.204041 
	C1488.233887,750.034485 1491.851196,750.589905 1495.091919,751.248596 
	C1499.201294,752.083862 1502.270264,750.123657 1503.942505,746.419006 
	C1504.591187,744.981873 1504.151245,743.092712 1504.574341,741.507446 
	C1506.307129,735.014099 1509.178955,729.764648 1517.217285,730.048645 
	C1518.664917,730.099792 1520.647583,729.500122 1521.542603,728.470398 
	C1530.474365,718.193665 1542.362061,715.764893 1555.104370,715.386353 
	C1556.652466,715.340393 1558.192505,715.029358 1560.743652,714.718384 
	C1555.853638,705.803223 1560.415894,698.479675 1562.275146,690.548279 
	C1564.540405,680.884094 1571.512329,675.305115 1578.828003,672.096008 
	C1586.982544,668.518921 1592.060669,663.963074 1593.644043,657.902710 
	C1601.289062,653.203674 1608.582275,650.547180 1613.159180,645.451172 
	C1619.042603,638.900208 1626.715820,636.332458 1633.870239,631.522461 
	C1637.818726,638.245178 1642.406616,640.174377 1649.413452,635.838196 
	C1652.097534,634.177307 1656.801758,634.516113 1660.156128,635.463562 
	C1667.414185,637.513489 1672.284668,634.768188 1676.796265,629.578857 
	C1679.348511,626.643372 1682.031860,624.327087 1686.668701,623.723755 
	C1691.248657,623.127930 1695.467651,619.758728 1699.845093,617.606140 
	C1699.616089,616.956726 1699.387085,616.307373 1699.158081,615.657959 
	C1695.236450,615.657959 1691.314819,615.657959 1687.393188,615.657959 
	C1452.429810,615.657959 1217.466431,615.659607 982.503052,615.644531 
	C978.511719,615.644287 974.520325,615.442383 970.528992,615.334473 
z"/>

<path data-name="Ombessa" style="fill: {#EC91BD}" fill="#EC91BD" opacity="1.000000" stroke="none" 
	d="
M2077.052002,1601.928955 
	C2080.473145,1602.670410 2084.097412,1602.929321 2087.268066,1604.265625 
	C2092.152100,1606.323975 2096.543213,1608.961792 2102.393311,1607.636597 
	C2104.645996,1607.126221 2107.592529,1609.261108 2110.111328,1610.431030 
	C2115.447754,1612.910400 2120.511963,1616.964355 2126.056641,1617.741211 
	C2132.186279,1618.600342 2136.658447,1620.939575 2140.737549,1625.016357 
	C2142.620361,1626.898071 2144.592773,1628.699097 2146.369385,1630.676147 
	C2155.414795,1640.743042 2166.051758,1647.079102 2180.205566,1646.209106 
	C2187.933594,1645.734009 2194.084229,1649.092896 2199.603271,1654.622314 
	C2205.367676,1660.397949 2207.923340,1666.557861 2207.901611,1674.903687 
	C2207.865723,1688.594116 2206.595947,1702.031982 2203.680664,1715.347656 
	C2201.829346,1723.802734 2199.337646,1731.989746 2194.033936,1739.124146 
	C2187.935547,1747.327393 2187.350586,1756.255615 2188.715088,1766.462524 
	C2190.606201,1780.607056 2192.861816,1794.408203 2197.808594,1807.873901 
	C2199.433105,1812.296509 2198.323730,1817.756592 2198.308838,1822.741821 
	C2198.276855,1833.529175 2201.375244,1842.919189 2209.842773,1850.151489 
	C2217.897949,1857.031616 2225.708496,1864.204590 2233.901123,1870.913452 
	C2236.378906,1872.942383 2239.815430,1875.113281 2242.737061,1875.012939 
	C2248.737061,1874.807007 2252.685303,1877.820679 2257.374512,1880.612671 
	C2258.000000,1884.083374 2258.000000,1888.166626 2257.272949,1893.346436 
	C2255.614014,1896.788208 2254.145996,1899.079956 2253.904785,1901.494507 
	C2253.673096,1903.808350 2253.595703,1907.301392 2258.000000,1906.000000 
	C2258.000000,1910.083374 2258.000000,1914.166626 2258.000000,1919.125000 
	C2256.826660,1920.287354 2254.928223,1920.229492 2254.599854,1920.919312 
	C2252.754639,1924.793945 2251.348877,1928.874512 2249.677734,1932.836060 
	C2246.645508,1940.025146 2240.989502,1944.319458 2233.399658,1943.196411 
	C2222.184570,1941.536865 2216.725098,1946.942749 2212.119385,1956.102783 
	C2205.422363,1969.421143 2194.035645,1978.729492 2182.651123,1987.987915 
	C2177.582764,1992.109497 2172.721680,1996.878418 2169.043213,2002.230957 
	C2162.406982,2011.887451 2154.271240,2019.136963 2143.155273,2023.005493 
	C2140.983398,2023.761597 2139.003418,2025.069092 2137.115723,2026.030151 
	C2133.661377,2036.979492 2130.386719,2047.740479 2126.860107,2058.418457 
	C2124.008545,2067.052490 2120.740234,2075.166748 2109.963867,2077.160156 
	C2107.612061,2077.594971 2105.423340,2081.549316 2104.071777,2084.326660 
	C2095.623291,2101.688232 2086.187256,2118.392578 2073.820312,2133.340820 
	C2070.326660,2137.563477 2064.465576,2140.104736 2063.747559,2147.271484 
	C2058.679199,2146.656494 2053.730225,2145.937988 2050.321533,2141.559814 
	C2049.202148,2140.122070 2046.873901,2138.675049 2045.198364,2138.782959 
	C2037.162964,2139.301025 2032.541138,2133.826904 2028.599365,2130.162354 
	C2018.225220,2130.162354 2009.159058,2130.162354 1998.407959,2130.162354 
	C1996.385132,2132.443359 1993.113770,2136.132324 1989.527344,2140.176514 
	C1980.529175,2136.001221 1969.465088,2140.811768 1960.396118,2132.507080 
	C1960.601685,2121.638672 1954.994873,2113.209473 1944.399414,2108.232666 
	C1934.800293,2103.724121 1928.817505,2096.979004 1929.909302,2086.000977 
	C1926.765625,2083.983398 1924.095581,2082.103271 1921.258301,2080.523682 
	C1919.972534,2079.807861 1918.344360,2079.316895 1916.889404,2079.358154 
	C1906.377075,2079.656006 1900.852417,2074.912354 1897.947632,2064.912842 
	C1896.337402,2059.369629 1893.011597,2054.223145 1889.910400,2049.239014 
	C1885.372559,2041.946289 1880.434326,2034.894409 1875.458740,2027.887573 
	C1874.153931,2026.049805 1871.927979,2024.895630 1870.387695,2023.190063 
	C1864.637573,2016.822632 1858.918945,2010.421875 1853.387817,2003.865356 
	C1852.428711,2002.728638 1852.544678,2000.736450 1851.975830,1999.209229 
	C1850.249878,1994.574585 1848.431885,1989.974121 1846.713867,1984.052979 
	C1858.505127,1943.619141 1870.225708,1904.490967 1881.970093,1865.369751 
	C1883.018921,1861.876099 1883.295532,1857.569092 1885.547485,1855.135986 
	C1890.639160,1849.634888 1892.156494,1843.257935 1892.258545,1835.956665 
	C1907.019653,1830.033203 1921.642334,1824.571533 1935.918579,1818.318481 
	C1949.350220,1812.435547 1962.138916,1805.345215 1971.136475,1792.198853 
	C1975.512939,1786.368896 1979.107788,1780.744385 1983.279663,1775.586670 
	C1991.008667,1766.031006 1999.668701,1757.172607 2006.794922,1747.204468 
	C2011.624268,1740.449097 2020.278931,1737.312744 2023.072266,1728.818848 
	C2023.429688,1727.732422 2025.832153,1727.082764 2027.402710,1726.672607 
	C2033.507812,1725.078247 2039.597412,1722.855957 2045.808960,1722.379517 
	C2053.961182,1721.754150 2059.096680,1717.363281 2061.596680,1710.624146 
	C2064.092529,1703.896606 2064.803711,1696.497803 2066.194336,1689.373291 
	C2066.949463,1685.503662 2067.611328,1681.607178 2068.095459,1677.695557 
	C2068.613037,1673.509888 2069.016113,1669.298096 2069.186035,1665.086304 
	C2069.277832,1662.808716 2068.059326,1660.287476 2068.679199,1658.256958 
	C2070.717773,1651.579224 2069.004639,1645.165527 2068.607422,1638.552124 
	C2067.835449,1625.700439 2063.610107,1611.644409 2077.052002,1601.928955 
z"/>
<path data-name="Ndikiniméki" style="fill: {#F1F094}" fill="#F1F094" opacity="1.000000" stroke="none" 
	d="
M1405.553711,1719.815674 
	C1403.379395,1724.967896 1401.544312,1730.297241 1398.965210,1735.238159 
	C1391.998047,1748.585205 1387.275635,1762.719116 1382.222412,1777.801025 
	C1374.117188,1777.773438 1367.049316,1778.668701 1360.607910,1774.771606 
	C1359.055664,1773.832397 1356.193359,1774.970215 1353.950562,1775.277710 
	C1347.391846,1776.177124 1340.855835,1777.259033 1334.283569,1778.038086 
	C1329.381836,1778.619263 1325.422852,1776.964355 1321.815796,1773.263062 
	C1315.787598,1767.077515 1308.294800,1763.989380 1299.401001,1764.070435 
	C1293.384888,1764.125122 1286.854492,1763.466553 1283.229370,1757.986450 
	C1279.218140,1751.922852 1273.991943,1751.293701 1267.733276,1752.078857 
	C1265.101807,1752.408936 1262.386230,1752.070923 1259.755005,1752.402100 
	C1252.938354,1753.260620 1248.348755,1749.779419 1244.442749,1744.873169 
	C1243.618896,1743.838379 1243.180908,1742.476807 1242.294434,1741.515259 
	C1237.944214,1736.795044 1233.741943,1732.113892 1226.068481,1735.533936 
	C1224.218994,1736.358276 1221.134155,1734.959961 1218.828247,1734.049927 
	C1216.712646,1733.214966 1215.031250,1731.206055 1212.898438,1730.500977 
	C1204.186523,1727.620728 1201.380005,1716.252197 1191.215698,1715.563965 
	C1191.006348,1715.549805 1190.773560,1715.075562 1190.646118,1714.775757 
	C1187.376099,1707.087891 1180.329468,1705.024658 1173.205444,1703.321899 
	C1165.855225,1701.565063 1158.415527,1700.182861 1150.470337,1698.522827 
	C1150.780518,1689.209595 1144.500244,1687.613403 1136.695923,1685.639648 
	C1125.374634,1682.776489 1115.976318,1687.766846 1106.511230,1691.246216 
	C1099.615356,1693.781372 1093.903931,1694.261108 1087.460815,1691.461792 
	C1083.507080,1689.743652 1079.419800,1688.332275 1075.389526,1686.790649 
	C1071.872559,1685.445312 1068.844604,1686.704590 1068.510742,1690.165649 
	C1067.467529,1700.980835 1061.823120,1710.991455 1063.777344,1722.437866 
	C1064.554565,1726.990356 1062.234741,1732.029907 1061.582764,1736.882202 
	C1061.106934,1740.423584 1060.558472,1744.072144 1060.918213,1747.583252 
	C1061.575073,1753.995239 1060.638916,1758.901001 1054.301636,1762.549316 
	C1051.337158,1764.255981 1048.707153,1768.467773 1048.129639,1771.913574 
	C1047.391724,1776.316040 1046.386719,1780.017944 1043.693970,1783.672119 
	C1041.846558,1786.178955 1041.291748,1789.696655 1040.402100,1792.831421 
	C1039.776123,1795.036987 1040.080811,1797.626465 1039.075073,1799.584839 
	C1032.162964,1813.044800 1033.475952,1826.643188 1040.755981,1838.840210 
	C1049.405884,1853.332275 1053.468994,1869.348633 1059.170898,1884.837036 
	C1060.942261,1889.648682 1060.635498,1894.619263 1058.297119,1899.405396 
	C1056.989746,1902.081421 1056.119995,1904.971313 1055.053101,1907.764771 
	C1054.431641,1907.784058 1053.822754,1907.705322 1052.501831,1906.950195 
	C1051.190552,1905.994751 1050.570435,1905.926636 1049.916626,1906.167480 
	C1036.941650,1905.898682 1023.966980,1905.489380 1010.991455,1905.459961 
	C1007.746948,1905.452515 1004.502747,1906.683716 1001.252747,1907.317017 
	C997.682861,1908.012817 993.961548,1909.666382 990.559570,1909.169067 
	C979.690918,1907.580078 969.788147,1911.829102 959.428528,1913.181641 
	C954.374756,1913.841309 950.958252,1916.698364 949.673157,1920.591919 
	C946.398560,1930.512939 941.990967,1940.751587 949.996948,1950.798218 
	C951.338684,1952.482178 952.641174,1955.488892 952.036743,1957.207153 
	C949.513123,1964.380615 951.727173,1972.431641 947.168213,1979.302734 
	C944.722778,1982.988770 943.805176,1987.294556 944.723633,1992.497314 
	C945.763000,1998.385132 947.501038,2004.068970 948.540588,2009.721436 
	C950.175537,2018.610229 951.290955,2028.765137 942.682739,2036.273071 
	C938.592285,2039.840942 938.808167,2044.804565 942.196472,2048.381592 
	C951.347900,2058.042969 951.637207,2061.960693 943.936157,2072.244873 
	C942.764160,2073.810059 941.543518,2075.338623 940.028320,2077.293213 
	C945.214966,2080.526367 947.994019,2084.080811 947.628357,2090.834717 
	C947.406189,2094.938477 952.000061,2099.439209 954.760193,2103.539795 
	C960.426025,2111.957275 959.785767,2119.069580 952.700195,2126.540283 
	C948.627808,2130.833984 945.150757,2135.722656 940.864380,2139.770264 
	C938.652649,2141.858887 935.345032,2143.624268 932.379883,2143.900879 
	C926.452759,2144.454590 920.411682,2144.047363 914.434387,2143.726074 
	C908.961609,2143.432373 903.845093,2141.930176 898.242493,2145.291260 
	C895.112854,2147.168701 889.579163,2146.479736 885.663208,2145.248047 
	C880.545471,2143.638428 877.575684,2144.951416 874.582458,2148.879883 
	C869.390747,2155.693359 865.239441,2157.433838 857.650574,2154.367920 
	C851.987427,2152.079590 847.050659,2148.000000 841.775818,2144.741699 
	C839.025757,2143.042969 836.306702,2141.279053 833.463074,2139.750244 
	C828.606445,2137.139160 827.145264,2133.533691 829.517029,2128.425781 
	C831.333862,2124.512939 833.602417,2120.811035 835.641174,2117.000000 
	C837.613098,2113.313721 838.150574,2110.266357 835.364197,2106.060547 
	C832.930664,2102.386719 832.981323,2097.067139 831.447876,2090.340332 
	C829.519775,2088.794922 826.125000,2088.475342 820.870422,2089.910400 
	C812.057373,2092.316895 802.609314,2092.567139 793.393799,2093.268799 
	C787.476624,2093.719482 781.497253,2093.353271 775.907959,2093.353271 
	C775.257141,2100.192871 772.901367,2106.757324 774.493896,2112.157227 
	C777.438110,2122.139893 773.512634,2129.719482 770.256714,2138.383057 
	C768.072998,2144.193359 768.982727,2151.366211 769.366638,2157.878662 
	C769.671570,2163.051514 768.270203,2168.273438 764.341309,2169.916748 
	C760.295227,2171.609619 754.779724,2170.400391 750.072632,2169.547363 
	C748.568542,2169.274658 747.182983,2166.225586 746.497803,2164.192383 
	C745.890808,2162.391113 746.506165,2160.215820 746.269592,2158.243408 
	C745.890747,2155.084717 746.502930,2151.128662 741.966553,2150.378906 
	C739.020203,2149.892090 735.249451,2154.979004 736.564087,2159.514648 
	C739.713562,2170.381348 733.774292,2176.406738 726.233276,2181.989746 
	C722.500122,2184.753418 718.449707,2187.160400 715.038818,2190.272217 
	C708.861023,2195.908691 702.449524,2199.759033 693.517151,2197.810547 
	C691.470276,2197.364258 688.762634,2199.292236 686.536804,2200.465088 
	C682.461731,2202.611816 678.756531,2205.779785 674.460144,2207.106201 
	C669.269592,2208.708496 664.653198,2210.047119 661.298340,2214.998291 
	C659.849792,2217.136475 655.829651,2217.532227 652.602966,2218.875488 
	C650.832642,2214.834717 649.539307,2211.882812 647.743530,2207.784180 
	C634.414856,2206.629639 620.764954,2205.447266 607.140320,2204.267090 
	C607.375244,2199.228516 607.588074,2194.663086 607.857300,2188.887451 
	C599.479370,2191.775879 595.886841,2197.269775 591.901001,2202.378418 
	C590.129089,2204.649658 588.351379,2207.411621 585.918640,2208.571533 
	C580.385315,2211.210205 576.101562,2208.326904 575.711609,2202.176758 
	C575.481995,2198.555908 575.669678,2194.908447 575.669678,2191.042236 
	C568.865479,2188.615723 565.115845,2192.238281 562.310242,2196.882080 
	C560.457703,2199.947998 559.475891,2203.568604 558.299255,2207.007568 
	C556.410400,2212.528076 553.226562,2216.343994 546.863892,2216.101318 
	C541.303223,2215.889404 537.377869,2218.447266 534.549805,2223.012451 
	C530.515381,2229.524658 524.636597,2231.462646 517.073853,2232.407471 
	C502.994873,2234.166260 489.336700,2233.095947 475.692627,2230.034668 
	C473.213470,2229.478516 470.893768,2228.073486 468.597504,2226.874512 
	C465.363800,2225.186035 462.191040,2223.374512 459.046417,2221.523438 
	C455.371674,2219.360352 451.984222,2219.414551 449.372070,2223.025391 
	C443.552094,2231.070068 435.174927,2230.740967 426.873016,2229.630371 
	C424.224731,2229.276123 422.325134,2229.071533 419.589386,2229.918701 
	C416.694641,2230.815430 412.959381,2228.998291 408.584442,2228.177490 
	C407.177765,2229.372314 404.964478,2231.251953 402.651428,2233.216553 
	C401.758392,2232.810059 400.605408,2232.635254 400.023407,2231.965088 
	C395.556244,2226.818604 390.583588,2222.403809 388.504456,2215.133545 
	C386.209320,2207.107666 380.815033,2205.362549 372.670502,2208.611328 
	C367.030426,2210.861572 361.514954,2212.190186 355.376709,2212.253174 
	C344.293427,2212.366699 337.604034,2218.597900 334.104919,2230.919189 
	C333.111053,2234.419189 332.656799,2238.138184 331.212128,2241.430420 
	C328.464233,2247.692871 321.631012,2248.129150 317.980774,2242.370605 
	C316.398956,2239.875244 315.037140,2237.084473 314.299622,2234.239990 
	C312.180115,2226.063965 308.499115,2219.530762 299.609589,2217.169678 
	C298.199463,2216.795410 297.142151,2215.092285 294.899200,2213.091309 
	C298.586243,2206.921875 302.299011,2200.809814 305.902740,2194.634033 
	C307.560303,2191.793213 309.680573,2188.984131 310.395447,2185.884766 
	C311.642334,2180.478516 308.449860,2175.288818 302.847748,2173.468506 
	C298.151031,2171.942139 293.207031,2170.958740 288.296356,2170.362061 
	C281.819702,2169.575439 275.909241,2168.086182 271.500244,2162.778564 
	C270.525116,2161.604492 268.819824,2160.360840 267.421173,2160.325684 
	C258.609100,2160.103271 249.788620,2160.212891 240.470200,2160.212891 
	C238.655777,2163.848633 236.192276,2167.177979 235.279190,2170.889160 
	C231.041565,2188.113770 219.573776,2191.979004 204.592636,2191.046875 
	C193.111084,2190.332764 181.731888,2187.473633 170.398834,2185.125977 
	C166.066132,2184.228271 162.156723,2183.531738 157.789642,2185.223633 
	C151.445831,2187.681396 146.715805,2185.407959 142.160950,2180.126465 
	C134.839722,2171.637207 133.804901,2161.869629 133.996445,2151.522217 
	C134.020859,2150.203125 134.605133,2148.883057 134.562805,2147.575684 
	C134.327942,2140.323242 130.311569,2136.122559 123.143234,2135.334229 
	C121.207779,2135.121338 119.303436,2134.625488 116.621078,2134.062500 
	C115.485756,2128.094727 115.026482,2122.327881 114.782570,2116.552002 
	C114.673950,2113.979980 114.999092,2111.389404 116.117569,2107.908936 
	C124.403877,2098.962402 125.251961,2089.444824 123.769989,2079.229492 
	C123.401665,2076.690674 123.661041,2073.697021 124.688782,2071.381348 
	C129.549850,2060.428223 134.139984,2049.492920 131.301224,2036.566162 
	C137.606842,2036.953857 139.352814,2033.127075 140.589828,2029.004639 
	C141.715118,2025.254272 142.501526,2021.402344 143.771255,2016.236816 
	C146.802826,2015.590942 149.578369,2012.375122 151.074615,2007.527222 
	C151.931580,2004.750977 153.863419,2002.266846 155.509201,1999.782349 
	C158.697891,1994.968628 160.555557,1989.939087 160.432999,1983.963013 
	C160.254929,1975.281006 162.575592,1971.925903 170.917938,1969.708008 
	C174.299286,1968.808960 175.956909,1967.265991 177.455017,1964.535767 
	C181.369766,1957.401123 184.673096,1949.740845 189.664612,1943.433105 
	C196.570984,1934.705566 197.798294,1925.198486 196.760895,1913.615967 
	C206.704453,1909.290161 214.735336,1900.701050 226.229370,1897.961548 
	C228.215744,1897.488037 230.315231,1895.732666 231.481964,1893.982422 
	C233.301163,1891.253662 234.489578,1888.072021 235.726700,1884.994385 
	C238.312775,1878.560913 242.038574,1873.540039 249.079239,1871.204834 
	C251.652008,1870.351562 254.066330,1867.960815 255.738205,1865.675415 
	C259.027802,1861.178833 261.183746,1855.764771 264.840454,1851.646484 
	C269.783661,1846.079224 274.323792,1840.536499 275.634369,1833.016724 
	C276.270630,1829.365601 278.838104,1827.618896 281.934204,1827.955200 
	C284.074982,1828.187744 286.184631,1830.135376 287.989868,1831.686890 
	C290.566772,1833.901855 292.852295,1836.455811 295.157959,1838.760742 
	C301.609467,1834.760986 307.998566,1832.354858 305.087738,1823.820557 
	C304.731842,1822.777222 306.236298,1821.109253 306.856934,1819.720947 
	C308.025970,1817.105957 309.382294,1814.552246 310.291229,1811.848755 
	C311.659851,1807.778564 312.245789,1803.388062 314.018646,1799.525757 
	C316.090576,1795.011719 315.670990,1791.576904 312.609375,1787.646606 
	C308.079071,1781.831299 308.837402,1778.216064 314.677002,1773.663452 
	C320.161163,1769.387817 325.700165,1765.182373 331.000244,1761.111206 
	C329.211334,1757.813843 327.477295,1754.617554 326.047485,1751.982056 
	C336.101257,1746.589600 344.930206,1741.854126 354.723053,1736.601562 
	C353.576630,1729.923340 352.388947,1723.005005 351.201263,1716.086548 
	C350.484985,1715.869873 349.768677,1715.653198 349.052399,1715.436523 
	C352.348206,1711.955078 355.644012,1708.473633 358.930756,1705.001831 
	C357.923218,1700.712036 356.881104,1696.274780 356.524109,1691.632812 
	C360.616669,1690.114746 363.942230,1688.500000 367.447784,1687.547974 
	C376.069916,1685.206177 381.799561,1689.617310 381.731598,1699.195557 
	C385.613586,1692.230103 383.681335,1685.550171 383.871185,1679.112061 
	C384.095398,1671.510376 384.659027,1670.927124 392.777863,1669.686401 
	C394.041626,1669.493164 395.272675,1668.957275 396.466339,1668.455078 
	C403.404327,1665.536133 410.298920,1662.510620 417.284943,1659.712524 
	C418.297089,1659.307373 419.806824,1659.702881 420.942352,1660.119995 
	C427.832550,1662.650635 433.473145,1660.502930 438.728546,1655.916626 
	C443.983185,1651.331055 448.904999,1645.875977 454.990814,1642.848877 
	C463.477264,1638.627563 468.163574,1630.811890 474.919403,1625.041992 
	C478.268524,1622.181641 479.324646,1617.831909 476.821655,1613.451660 
	C475.587463,1613.273560 474.350525,1613.093750 473.113586,1612.914062 
	C478.389099,1608.828247 470.039459,1605.530151 472.700012,1600.993042 
	C478.522583,1599.045166 483.979034,1599.858276 488.780426,1605.083496 
	C492.150177,1601.425293 494.811310,1597.392700 498.491272,1594.813843 
	C503.811798,1591.085205 508.226715,1584.428345 516.658691,1587.715332 
	C518.307373,1588.358154 521.695496,1587.261230 522.921326,1585.814575 
	C529.733521,1577.774048 538.588135,1572.661377 547.365601,1567.265625 
	C550.952881,1565.060425 554.161926,1561.892700 556.800964,1558.572876 
	C560.805786,1553.534668 565.181030,1550.997314 572.532898,1554.481934 
	C566.987732,1547.113403 574.828491,1543.735474 574.765747,1537.812256 
	C580.693726,1537.812256 585.900574,1537.812256 590.641174,1537.812256 
	C591.484619,1536.594360 591.941284,1536.089844 592.224915,1535.501953 
	C596.075134,1527.523193 596.639221,1518.083984 603.236328,1511.243530 
	C604.068176,1510.381226 603.130188,1507.573242 602.657043,1505.759277 
	C602.199707,1504.005615 601.283508,1502.371704 600.339783,1500.144531 
	C607.787170,1496.494263 616.856995,1496.124756 618.629761,1488.626709 
	C624.713745,1487.646851 629.690735,1487.472412 634.238708,1485.985596 
	C644.448853,1482.647217 652.775452,1477.218140 659.755920,1468.139038 
	C664.698303,1461.710938 674.005005,1457.475464 682.665527,1456.887207 
	C690.142456,1456.379150 694.862915,1453.280884 699.154541,1448.051636 
	C705.193909,1440.692993 711.448669,1433.503662 717.276611,1425.982666 
	C719.407288,1423.233032 720.552612,1419.727173 722.200989,1416.594238 
	C723.583740,1413.966064 724.573608,1410.929565 726.554504,1408.853638 
	C733.798096,1401.262695 740.341797,1392.250977 749.092285,1387.033203 
	C761.178223,1379.826782 765.759033,1365.921021 777.550476,1359.047241 
	C779.376831,1351.735596 785.519775,1350.064819 792.009949,1348.853027 
	C791.579590,1342.521851 794.122620,1338.160522 797.267151,1333.208618 
	C801.738953,1326.166626 810.232239,1318.790039 801.420898,1308.144653 
	C804.603088,1307.158081 806.892090,1305.584106 808.693665,1306.020752 
	C831.888794,1311.644409 855.769348,1314.881958 878.223877,1324.719360 
	C876.570801,1328.037354 875.283875,1330.620605 873.705017,1333.789917 
	C876.467346,1336.830322 879.050232,1339.796997 881.765503,1342.636963 
	C888.102539,1349.265137 894.846863,1355.537598 900.806213,1362.485962 
	C913.049866,1376.761597 924.825073,1391.437744 936.945374,1405.820923 
	C939.283081,1408.594971 942.313843,1410.785889 945.030884,1413.239258 
	C947.733398,1415.679443 950.981323,1417.731445 953.029724,1420.631836 
	C956.495850,1425.539795 960.609558,1426.169922 966.075684,1425.037964 
	C969.841980,1424.257935 974.185242,1423.808838 977.739502,1424.916504 
	C988.827454,1428.371582 998.644226,1427.055176 1006.545654,1418.362305 
	C1009.768066,1414.817261 1012.082764,1410.273071 1014.123779,1405.865601 
	C1017.980408,1397.536987 1021.465210,1389.629761 1032.763916,1389.109497 
	C1038.867676,1388.828369 1044.869385,1386.334106 1051.088013,1384.796021 
	C1049.498901,1378.279419 1047.653076,1371.644165 1046.331909,1364.906128 
	C1045.651978,1361.438843 1044.615601,1357.283691 1048.586914,1354.920898 
	C1056.136841,1350.428955 1063.697266,1346.403931 1070.420044,1340.222412 
	C1075.429810,1335.616211 1084.075684,1334.964722 1091.114990,1332.547729 
	C1092.426025,1337.192505 1093.579224,1341.278076 1094.485718,1344.489502 
	C1098.698486,1346.148438 1102.394775,1346.869995 1105.147461,1348.882446 
	C1108.263306,1351.160278 1110.339722,1354.801636 1113.206543,1357.489380 
	C1121.137207,1364.924438 1128.786011,1372.905151 1140.385498,1374.520996 
	C1146.656616,1381.353027 1161.197388,1379.156494 1160.882568,1393.356323 
	C1160.854858,1394.603760 1162.957397,1395.824707 1163.888672,1397.182617 
	C1165.762207,1399.914307 1168.759521,1402.593872 1169.085449,1405.539185 
	C1170.257812,1416.133423 1178.015015,1419.835571 1186.194702,1422.892700 
	C1192.429810,1425.223022 1198.683716,1426.550293 1201.252808,1434.128784 
	C1202.200195,1436.923340 1205.878906,1438.756592 1208.216064,1441.122803 
	C1212.663818,1445.625732 1218.195190,1443.915649 1223.367554,1443.686279 
	C1227.891357,1443.485718 1227.817383,1439.583008 1228.493042,1436.344604 
	C1228.673828,1435.477661 1229.464722,1434.556030 1230.228760,1434.021729 
	C1235.602051,1430.266479 1240.629028,1424.708862 1246.568970,1423.417603 
	C1253.290405,1421.956177 1260.669067,1418.644165 1268.245361,1423.669556 
	C1274.436646,1427.775879 1280.877441,1426.194214 1285.606323,1419.628662 
	C1287.247192,1417.350464 1289.839478,1415.757568 1291.463745,1414.322876 
	C1298.945068,1417.965332 1305.402954,1421.109375 1312.107178,1424.880249 
	C1314.495850,1428.719360 1316.638184,1431.931885 1318.784424,1435.142090 
	C1310.106079,1437.359131 1308.495850,1439.797485 1310.381836,1446.972046 
	C1312.281006,1454.197632 1314.997559,1461.464478 1315.274414,1468.791870 
	C1315.583984,1476.985962 1319.724609,1481.366943 1325.610840,1485.693481 
	C1328.333618,1487.694824 1331.885498,1491.290283 1331.734619,1493.976318 
	C1331.251953,1502.575439 1336.441650,1507.974487 1340.304810,1514.500610 
	C1344.741699,1521.995728 1349.203491,1529.680542 1344.720581,1539.537231 
	C1340.695923,1548.386230 1337.446899,1558.075073 1345.310547,1567.111572 
	C1345.878540,1567.764160 1345.804932,1569.017456 1345.932617,1570.004150 
	C1347.249146,1580.177246 1353.041138,1586.091187 1363.031250,1588.030640 
	C1365.633667,1588.535767 1368.235474,1589.044189 1370.837769,1589.549927 
	C1378.840210,1591.105591 1387.583496,1603.738159 1385.757080,1611.475464 
	C1385.337524,1613.253174 1383.998047,1615.000977 1382.649414,1616.320801 
	C1381.258179,1617.682617 1379.228027,1618.363647 1377.670044,1619.587891 
	C1368.276489,1626.968384 1367.858887,1628.819336 1374.417969,1639.071289 
	C1377.827759,1644.401001 1376.911987,1649.021851 1373.570679,1653.803955 
	C1370.917236,1657.601562 1368.047729,1661.332520 1366.011597,1665.457153 
	C1363.053833,1671.449097 1362.824219,1678.049194 1366.755737,1683.530396 
	C1377.244507,1698.154175 1388.604492,1712.023315 1405.553711,1719.815674 
z"/>
<path data-name="Nitoukou" style="fill: {#F57B56}" fill="#F57B56" opacity="1.000000" stroke="none" 
	d="
M1055.450439,1908.399902 
	C1056.119995,1904.971313 1056.989746,1902.081421 1058.297119,1899.405396 
	C1060.635498,1894.619263 1060.942261,1889.648682 1059.170898,1884.837036 
	C1053.468994,1869.348633 1049.405884,1853.332275 1040.755981,1838.840210 
	C1033.475952,1826.643188 1032.162964,1813.044800 1039.075073,1799.584839 
	C1040.080811,1797.626465 1039.776123,1795.036987 1040.402100,1792.831421 
	C1041.291748,1789.696655 1041.846558,1786.178955 1043.693970,1783.672119 
	C1046.386719,1780.017944 1047.391724,1776.316040 1048.129639,1771.913574 
	C1048.707153,1768.467773 1051.337158,1764.255981 1054.301636,1762.549316 
	C1060.638916,1758.901001 1061.575073,1753.995239 1060.918213,1747.583252 
	C1060.558472,1744.072144 1061.106934,1740.423584 1061.582764,1736.882202 
	C1062.234741,1732.029907 1064.554565,1726.990356 1063.777344,1722.437866 
	C1061.823120,1710.991455 1067.467529,1700.980835 1068.510742,1690.165649 
	C1068.844604,1686.704590 1071.872559,1685.445312 1075.389526,1686.790649 
	C1079.419800,1688.332275 1083.507080,1689.743652 1087.460815,1691.461792 
	C1093.903931,1694.261108 1099.615356,1693.781372 1106.511230,1691.246216 
	C1115.976318,1687.766846 1125.374634,1682.776489 1136.695923,1685.639648 
	C1144.500244,1687.613403 1150.780518,1689.209595 1150.470337,1698.522827 
	C1158.415527,1700.182861 1165.855225,1701.565063 1173.205444,1703.321899 
	C1180.329468,1705.024658 1187.376099,1707.087891 1190.646118,1714.775757 
	C1190.773560,1715.075562 1191.006348,1715.549805 1191.215698,1715.563965 
	C1201.380005,1716.252197 1204.186523,1727.620728 1212.898438,1730.500977 
	C1215.031250,1731.206055 1216.712646,1733.214966 1218.828247,1734.049927 
	C1221.134155,1734.959961 1224.218994,1736.358276 1226.068481,1735.533936 
	C1233.741943,1732.113892 1237.944214,1736.795044 1242.294434,1741.515259 
	C1243.180908,1742.476807 1243.618896,1743.838379 1244.442749,1744.873169 
	C1248.348755,1749.779419 1252.938354,1753.260620 1259.755005,1752.402100 
	C1262.386230,1752.070923 1265.101807,1752.408936 1267.733276,1752.078857 
	C1273.991943,1751.293701 1279.218140,1751.922852 1283.229370,1757.986450 
	C1286.854492,1763.466553 1293.384888,1764.125122 1299.401001,1764.070435 
	C1308.294800,1763.989380 1315.787598,1767.077515 1321.815796,1773.263062 
	C1325.422852,1776.964355 1329.381836,1778.619263 1334.283569,1778.038086 
	C1340.855835,1777.259033 1347.391846,1776.177124 1353.950562,1775.277710 
	C1356.193359,1774.970215 1359.055664,1773.832397 1360.607910,1774.771606 
	C1367.049316,1778.668701 1374.117188,1777.773438 1381.760742,1778.510010 
	C1383.787598,1784.892456 1382.399780,1790.172485 1377.372070,1794.543091 
	C1371.218628,1799.892212 1367.550903,1805.996704 1371.045288,1814.775146 
	C1371.867554,1816.841064 1369.838135,1820.215210 1368.749268,1822.832764 
	C1366.526123,1828.177734 1360.678223,1831.894409 1361.755493,1838.750488 
	C1362.249268,1841.892822 1362.046875,1845.191528 1362.870483,1848.226562 
	C1365.562988,1858.148560 1363.618896,1859.988647 1354.502563,1864.642090 
	C1347.721802,1868.103149 1342.465942,1874.622070 1336.706177,1879.968140 
	C1335.068359,1881.488159 1334.044434,1883.669556 1332.622559,1885.714966 
	C1323.892578,1883.306641 1321.480957,1874.192627 1314.272461,1869.752441 
	C1308.167969,1872.171265 1303.800171,1877.043701 1300.032104,1882.496216 
	C1297.589966,1886.029907 1295.074219,1889.637939 1293.423340,1893.562744 
	C1291.169067,1898.922119 1288.957397,1903.609009 1282.344360,1904.830200 
	C1280.730103,1905.128418 1279.393311,1908.153320 1278.365723,1910.149292 
	C1276.242554,1914.273071 1274.512695,1918.597778 1272.439453,1922.749023 
	C1269.598145,1928.438110 1265.466187,1929.408325 1262.027954,1924.537964 
	C1258.787598,1919.948242 1256.021973,1916.798462 1249.898071,1919.422363 
	C1248.719360,1919.927490 1246.593140,1917.816406 1244.790771,1917.386353 
	C1243.043579,1916.969482 1241.150757,1917.163330 1238.772827,1917.504883 
	C1217.017456,1917.775879 1195.740356,1920.162109 1173.863037,1915.413696 
	C1171.901733,1920.312866 1169.566895,1924.729980 1168.390991,1929.436646 
	C1166.890503,1935.443115 1164.296753,1940.375732 1159.841919,1944.793213 
	C1155.095947,1949.499390 1152.038818,1955.079224 1153.161621,1962.561279 
	C1154.055664,1968.518677 1150.655762,1971.205078 1144.636475,1969.943726 
	C1141.123535,1969.207764 1137.400024,1967.962524 1134.545898,1965.883179 
	C1126.316772,1959.888184 1116.783447,1955.777344 1110.276489,1947.170532 
	C1107.292358,1943.223511 1101.742554,1940.948364 1096.998535,1938.655151 
	C1086.982788,1933.813477 1078.433472,1927.112793 1070.242065,1919.710449 
	C1065.830811,1915.723877 1060.670288,1912.566406 1055.450439,1908.399902 
z"/>
<path data-name="Kon-Yambetta" style="fill: {#4A8538}" fill="#4A8538" opacity="1.000000" stroke="none" 
	d="
M1405.717773,1718.992188 
	C1388.604492,1712.023315 1377.244507,1698.154175 1366.755737,1683.530396 
	C1362.824219,1678.049194 1363.053833,1671.449097 1366.011597,1665.457153 
	C1368.047729,1661.332520 1370.917236,1657.601562 1373.570679,1653.803955 
	C1376.911987,1649.021851 1377.827759,1644.401001 1374.417969,1639.071289 
	C1367.858887,1628.819336 1368.276489,1626.968384 1377.670044,1619.587891 
	C1379.228027,1618.363647 1381.258179,1617.682617 1382.649414,1616.320801 
	C1383.998047,1615.000977 1385.337524,1613.253174 1385.757080,1611.475464 
	C1387.583496,1603.738159 1378.840210,1591.105591 1370.837769,1589.549927 
	C1368.235474,1589.044189 1365.633667,1588.535767 1363.031250,1588.030640 
	C1353.041138,1586.091187 1347.249146,1580.177246 1345.932617,1570.004150 
	C1345.804932,1569.017456 1345.878540,1567.764160 1345.310547,1567.111572 
	C1337.446899,1558.075073 1340.695923,1548.386230 1344.720581,1539.537231 
	C1349.203491,1529.680542 1344.741699,1521.995728 1340.304810,1514.500610 
	C1336.441650,1507.974487 1331.251953,1502.575439 1331.734619,1493.976318 
	C1331.885498,1491.290283 1328.333618,1487.694824 1325.610840,1485.693481 
	C1319.724609,1481.366943 1315.583984,1476.985962 1315.274414,1468.791870 
	C1314.997559,1461.464478 1312.281006,1454.197632 1310.381836,1446.972046 
	C1308.495850,1439.797485 1310.106079,1437.359131 1318.784424,1435.142090 
	C1316.638184,1431.931885 1314.495850,1428.719360 1312.735840,1424.515381 
	C1315.186157,1420.598511 1318.778687,1417.796509 1319.026978,1414.724487 
	C1319.686768,1406.559204 1324.219482,1402.466797 1331.335693,1400.499268 
	C1330.864868,1398.207764 1329.703613,1396.010010 1330.346191,1395.130981 
	C1335.091431,1388.640137 1336.682251,1379.934448 1344.690796,1375.651123 
	C1348.673340,1373.521118 1353.788696,1370.419556 1352.960571,1365.391479 
	C1351.765991,1358.138916 1356.902100,1353.893188 1358.971924,1348.263184 
	C1359.726318,1346.211304 1362.973267,1344.708374 1363.072388,1342.847900 
	C1363.460327,1335.568726 1368.606567,1333.710571 1374.047485,1331.800781 
	C1374.535889,1331.629395 1374.804565,1330.832031 1375.493652,1329.889893 
	C1373.991943,1328.482788 1372.417847,1327.007935 1371.121216,1325.793091 
	C1373.786743,1321.269653 1376.118896,1317.006104 1378.752930,1312.937988 
	C1380.886597,1309.643066 1382.869019,1305.947510 1385.827881,1303.553589 
	C1391.696655,1298.805176 1393.462769,1293.128662 1391.973389,1286.052734 
	C1393.874634,1282.161255 1396.119263,1280.380371 1400.557861,1283.297974 
	C1402.781128,1284.759277 1405.970947,1285.527100 1408.649536,1285.367432 
	C1415.583740,1284.954346 1422.458740,1283.567139 1429.392822,1283.123413 
	C1434.167480,1282.818115 1439.242554,1284.439941 1443.739380,1283.356934 
	C1448.001343,1282.330200 1451.468506,1278.342651 1455.692261,1276.709839 
	C1458.978638,1275.439331 1462.931763,1275.243286 1466.516968,1275.514893 
	C1478.746216,1276.441528 1489.993774,1273.316650 1501.254272,1267.298096 
	C1501.768799,1269.857788 1502.073120,1271.724365 1502.527100,1273.553833 
	C1503.372925,1276.962524 1505.791748,1279.112915 1509.076660,1278.154297 
	C1516.050537,1276.119507 1518.762695,1281.072144 1521.781982,1285.292725 
	C1529.933105,1296.686646 1541.405396,1297.532715 1550.287231,1286.617065 
	C1553.849854,1282.238525 1557.903809,1281.277466 1562.592529,1282.516724 
	C1568.858276,1284.172729 1574.555786,1285.456665 1580.699463,1281.334717 
	C1582.551392,1280.092163 1586.988525,1281.870605 1589.862305,1283.130249 
	C1601.080688,1288.047852 1601.024170,1288.176758 1611.269775,1283.842896 
	C1614.827393,1285.504639 1614.391479,1288.592773 1613.804688,1291.552856 
	C1612.900635,1296.113037 1611.540039,1300.591797 1610.809448,1305.174438 
	C1610.296021,1308.395630 1610.244995,1311.748779 1610.446777,1315.014648 
	C1611.014038,1324.193359 1611.818848,1333.357544 1612.657959,1344.179077 
	C1612.831177,1344.285889 1615.059204,1345.170532 1616.640503,1346.716675 
	C1624.115601,1354.025024 1633.158325,1355.933838 1643.237183,1355.496948 
	C1650.999756,1355.160645 1651.014160,1355.491699 1655.311279,1360.759155 
	C1654.055298,1366.064575 1652.868408,1371.078247 1651.696045,1376.031128 
	C1656.694946,1378.897217 1660.862549,1380.931763 1664.618530,1383.555664 
	C1667.471191,1385.548706 1669.814331,1388.276611 1672.355713,1390.707397 
	C1673.528931,1391.829590 1674.428589,1393.590820 1675.804443,1394.088257 
	C1682.692871,1396.578369 1685.428223,1402.445923 1686.755981,1408.609741 
	C1688.912109,1418.620850 1695.456665,1423.787476 1703.854980,1427.260376 
	C1715.780396,1420.152954 1726.992554,1412.571167 1739.019653,1406.643066 
	C1746.132324,1403.137207 1753.601440,1400.233765 1762.327271,1399.650757 
	C1771.540405,1399.035034 1780.701294,1394.495361 1789.394409,1390.580566 
	C1793.656982,1388.661011 1797.264526,1387.714233 1801.683228,1388.924194 
	C1805.510132,1389.972168 1809.412598,1390.957153 1813.344116,1391.357056 
	C1818.499146,1391.881470 1820.438599,1395.014282 1820.117676,1399.443604 
	C1819.759155,1404.390869 1818.577759,1409.282471 1817.685669,1414.185913 
	C1816.379395,1421.366333 1815.065796,1428.546387 1813.638428,1435.703369 
	C1813.191650,1437.943970 1812.311523,1440.094482 1811.728516,1442.312378 
	C1810.552246,1446.787720 1808.772949,1451.234619 1808.460327,1455.776978 
	C1807.959839,1463.050659 1809.024536,1470.448608 1802.836304,1476.236206 
	C1801.687866,1477.310181 1801.783691,1479.976685 1801.737793,1481.918579 
	C1801.596191,1487.900513 1801.664185,1493.887573 1800.822998,1500.803223 
	C1793.782349,1500.374390 1790.085327,1502.999634 1787.475830,1508.671143 
	C1784.427979,1515.295410 1780.473633,1521.496582 1777.238037,1528.042236 
	C1774.881226,1532.809814 1771.881104,1535.474243 1766.191406,1536.574097 
	C1741.463623,1541.353516 1716.833130,1546.661621 1692.242188,1552.114746 
	C1676.112183,1555.691650 1660.109863,1559.845093 1643.154541,1563.740479 
	C1624.697754,1565.002441 1607.300171,1567.459961 1591.105713,1574.659912 
	C1561.639038,1587.760010 1533.556519,1603.387817 1507.500122,1622.500977 
	C1505.601196,1621.174561 1503.574463,1619.996948 1501.827148,1618.494141 
	C1496.250854,1613.698730 1489.915283,1612.709473 1483.245483,1615.201050 
	C1469.631348,1620.286865 1456.020020,1625.422363 1442.683350,1631.176636 
	C1439.737915,1632.447388 1437.354492,1636.063354 1435.719238,1639.135376 
	C1430.600342,1648.753418 1426.634277,1658.935669 1418.171631,1666.569824 
	C1415.835571,1668.677368 1415.362793,1673.088745 1414.512817,1676.560181 
	C1412.079590,1686.498413 1409.809448,1696.478760 1407.648804,1706.480103 
	C1406.818359,1710.324097 1406.457031,1714.269531 1405.717773,1718.992188 
z"/>
<path data-name="Kiiki" style="fill: {#473387}" fill="#473387" opacity="1.000000" stroke="none" 
	d="
M1507.713623,1623.206055 
	C1533.556519,1603.387817 1561.639038,1587.760010 1591.105713,1574.659912 
	C1607.300171,1567.459961 1624.697754,1565.002441 1643.464844,1564.363892 
	C1654.562134,1581.110840 1666.021606,1596.257446 1672.926758,1614.190552 
	C1679.614014,1631.558594 1687.200317,1648.586548 1694.617065,1665.666138 
	C1703.978149,1687.222900 1715.407715,1707.314697 1735.481201,1721.001099 
	C1736.847778,1721.932861 1738.125488,1723.049194 1739.263916,1724.250854 
	C1742.888306,1728.076538 1747.301514,1729.572266 1752.534912,1730.205322 
	C1786.645752,1734.331787 1819.868652,1742.732910 1852.218750,1753.913208 
	C1891.478516,1767.481445 1930.587402,1781.427612 1970.615112,1792.614990 
	C1962.138916,1805.345215 1949.350220,1812.435547 1935.918579,1818.318481 
	C1921.642334,1824.571533 1907.019653,1830.033203 1892.258545,1835.956665 
	C1892.156494,1843.257935 1890.639160,1849.634888 1885.547485,1855.135986 
	C1883.295532,1857.569092 1883.018921,1861.876099 1881.970093,1865.369751 
	C1870.225708,1904.490967 1858.505127,1943.619141 1846.434082,1983.399048 
	C1842.075806,1979.299927 1837.695068,1975.179688 1832.645630,1971.296265 
	C1826.324707,1966.435059 1820.962036,1959.307373 1817.443604,1952.061646 
	C1812.169678,1941.200073 1804.295044,1933.840820 1793.736328,1929.080688 
	C1783.350098,1924.398804 1777.306152,1917.255371 1777.627441,1905.401855 
	C1777.707031,1902.458740 1776.567139,1899.486450 1776.614502,1896.537598 
	C1776.725586,1889.620605 1776.824707,1882.661987 1777.661499,1875.809692 
	C1778.503052,1868.919067 1780.417114,1862.166260 1781.507568,1855.296875 
	C1782.275513,1850.459473 1783.571899,1845.370361 1778.821899,1841.403198 
	C1777.967407,1840.689575 1777.757690,1838.989136 1777.592407,1837.700439 
	C1776.530884,1829.428589 1770.594971,1824.936035 1764.103760,1821.520874 
	C1758.051392,1818.336670 1751.427612,1816.173218 1744.916016,1813.972778 
	C1743.269043,1813.416260 1741.028809,1814.231323 1739.178101,1814.798096 
	C1737.963745,1815.169922 1737.057495,1816.581787 1735.844238,1816.918701 
	C1729.931763,1818.559692 1723.360229,1818.915649 1718.180176,1821.803955 
	C1712.867798,1824.765991 1709.437134,1830.104126 1701.907837,1830.021362 
	C1696.652100,1829.963745 1691.107056,1832.860596 1686.182129,1835.392456 
	C1683.486084,1836.778320 1681.496948,1839.943726 1679.732544,1842.659668 
	C1674.893677,1850.108154 1670.365234,1857.757812 1665.668701,1865.299683 
	C1662.547852,1870.311157 1659.348999,1875.274170 1656.134521,1880.338257 
	C1648.217896,1878.734253 1641.891724,1875.538086 1639.234619,1867.783081 
	C1637.602783,1863.020630 1632.643677,1862.946533 1629.684692,1860.111816 
	C1621.810547,1852.568237 1613.875000,1845.086914 1605.846191,1837.709106 
	C1604.749146,1836.701050 1602.845947,1836.628418 1601.545532,1835.773560 
	C1596.468018,1832.435303 1589.479126,1832.913086 1585.390259,1827.366699 
	C1584.513550,1826.177246 1581.761230,1826.168579 1579.837769,1825.986816 
	C1570.181763,1825.074097 1560.514160,1824.284668 1550.694946,1823.438721 
	C1549.446411,1818.935547 1549.397705,1815.683960 1552.222778,1811.927612 
	C1554.851440,1808.432251 1556.438965,1803.885132 1557.497314,1799.559448 
	C1558.402588,1795.860596 1555.287109,1794.524170 1552.016602,1794.049805 
	C1546.845825,1793.299805 1541.683960,1792.488159 1536.214233,1791.656494 
	C1536.172852,1783.270508 1534.740845,1776.576294 1525.483398,1776.488647 
	C1525.069458,1770.820312 1525.048584,1765.643799 1524.234741,1760.595093 
	C1523.151367,1753.875122 1520.704102,1747.905151 1513.932617,1744.485352 
	C1511.735596,1743.375854 1509.361328,1740.889526 1508.792969,1738.603882 
	C1507.022461,1731.484741 1502.409424,1728.482544 1495.747559,1726.726440 
	C1485.921875,1724.135986 1476.577271,1721.553223 1465.895630,1723.536499 
	C1458.511963,1724.907349 1450.356567,1722.121094 1441.762207,1721.099243 
	C1443.558716,1709.957886 1446.209961,1699.900757 1456.722656,1694.103760 
	C1469.515747,1687.048950 1482.191772,1679.741699 1495.276611,1673.267456 
	C1507.360229,1667.288574 1515.423950,1653.367432 1512.872437,1639.909546 
	C1511.839355,1634.460083 1509.611328,1629.237183 1507.713623,1623.206055 
z"/>
<path data-name="Makénéné" style="fill: {#77F255}" fill="#77F255" opacity="1.000000" stroke="none" 
	d="
M1391.239990,1286.026489 
	C1393.462769,1293.128662 1391.696655,1298.805176 1385.827881,1303.553589 
	C1382.869019,1305.947510 1380.886597,1309.643066 1378.752930,1312.937988 
	C1376.118896,1317.006104 1373.786743,1321.269653 1371.121216,1325.793091 
	C1372.417847,1327.007935 1373.991943,1328.482788 1375.493652,1329.889893 
	C1374.804565,1330.832031 1374.535889,1331.629395 1374.047485,1331.800781 
	C1368.606567,1333.710571 1363.460327,1335.568726 1363.072388,1342.847900 
	C1362.973267,1344.708374 1359.726318,1346.211304 1358.971924,1348.263184 
	C1356.902100,1353.893188 1351.765991,1358.138916 1352.960571,1365.391479 
	C1353.788696,1370.419556 1348.673340,1373.521118 1344.690796,1375.651123 
	C1336.682251,1379.934448 1335.091431,1388.640137 1330.346191,1395.130981 
	C1329.703613,1396.010010 1330.864868,1398.207764 1331.335693,1400.499268 
	C1324.219482,1402.466797 1319.686768,1406.559204 1319.026978,1414.724487 
	C1318.778687,1417.796509 1315.186157,1420.598511 1312.489502,1423.888672 
	C1305.402954,1421.109375 1298.945068,1417.965332 1291.463745,1414.322876 
	C1289.839478,1415.757568 1287.247192,1417.350464 1285.606323,1419.628662 
	C1280.877441,1426.194214 1274.436646,1427.775879 1268.245361,1423.669556 
	C1260.669067,1418.644165 1253.290405,1421.956177 1246.568970,1423.417603 
	C1240.629028,1424.708862 1235.602051,1430.266479 1230.228760,1434.021729 
	C1229.464722,1434.556030 1228.673828,1435.477661 1228.493042,1436.344604 
	C1227.817383,1439.583008 1227.891357,1443.485718 1223.367554,1443.686279 
	C1218.195190,1443.915649 1212.663818,1445.625732 1208.216064,1441.122803 
	C1205.878906,1438.756592 1202.200195,1436.923340 1201.252808,1434.128784 
	C1198.683716,1426.550293 1192.429810,1425.223022 1186.194702,1422.892700 
	C1178.015015,1419.835571 1170.257812,1416.133423 1169.085449,1405.539185 
	C1168.759521,1402.593872 1165.762207,1399.914307 1163.888672,1397.182617 
	C1162.957397,1395.824707 1160.854858,1394.603760 1160.882568,1393.356323 
	C1161.197388,1379.156494 1146.656616,1381.353027 1140.385498,1374.520996 
	C1128.786011,1372.905151 1121.137207,1364.924438 1113.206543,1357.489380 
	C1110.339722,1354.801636 1108.263306,1351.160278 1105.147461,1348.882446 
	C1102.394775,1346.869995 1098.698486,1346.148438 1094.485718,1344.489502 
	C1093.579224,1341.278076 1092.426025,1337.192505 1091.114990,1332.547729 
	C1084.075684,1334.964722 1075.429810,1335.616211 1070.420044,1340.222412 
	C1063.697266,1346.403931 1056.136841,1350.428955 1048.586914,1354.920898 
	C1044.615601,1357.283691 1045.651978,1361.438843 1046.331909,1364.906128 
	C1047.653076,1371.644165 1049.498901,1378.279419 1051.088013,1384.796021 
	C1044.869385,1386.334106 1038.867676,1388.828369 1032.763916,1389.109497 
	C1021.465210,1389.629761 1017.980408,1397.536987 1014.123779,1405.865601 
	C1012.082764,1410.273071 1009.768066,1414.817261 1006.545654,1418.362305 
	C998.644226,1427.055176 988.827454,1428.371582 977.739502,1424.916504 
	C974.185242,1423.808838 969.841980,1424.257935 966.075684,1425.037964 
	C960.609558,1426.169922 956.495850,1425.539795 953.029724,1420.631836 
	C950.981323,1417.731445 947.733398,1415.679443 945.030884,1413.239258 
	C942.313843,1410.785889 939.283081,1408.594971 936.945374,1405.820923 
	C924.825073,1391.437744 913.049866,1376.761597 900.806213,1362.485962 
	C894.846863,1355.537598 888.102539,1349.265137 881.765503,1342.636963 
	C879.050232,1339.796997 876.467346,1336.830322 873.705017,1333.789917 
	C875.283875,1330.620605 876.570801,1328.037354 878.223877,1324.719360 
	C855.769348,1314.881958 831.888794,1311.644409 808.693665,1306.020752 
	C806.892090,1305.584106 804.603088,1307.158081 801.420898,1308.144653 
	C810.232239,1318.790039 801.738953,1326.166626 797.267151,1333.208618 
	C794.122620,1338.160522 791.579590,1342.521851 792.009949,1348.853027 
	C785.519775,1350.064819 779.376831,1351.735596 777.550476,1359.047241 
	C765.759033,1365.921021 761.178223,1379.826782 749.092285,1387.033203 
	C740.341797,1392.250977 733.798096,1401.262695 726.554504,1408.853638 
	C724.573608,1410.929565 723.583740,1413.966064 722.200989,1416.594238 
	C720.552612,1419.727173 719.407288,1423.233032 717.276611,1425.982666 
	C711.448669,1433.503662 705.193909,1440.692993 699.154541,1448.051636 
	C694.862915,1453.280884 690.142456,1456.379150 682.665527,1456.887207 
	C674.005005,1457.475464 664.698303,1461.710938 659.755920,1468.139038 
	C652.775452,1477.218140 644.448853,1482.647217 634.238708,1485.985596 
	C629.690735,1487.472412 624.713745,1487.646851 618.629761,1488.626709 
	C616.856995,1496.124756 607.787170,1496.494263 600.339783,1500.144531 
	C601.283508,1502.371704 602.199707,1504.005615 602.657043,1505.759277 
	C603.130188,1507.573242 604.068176,1510.381226 603.236328,1511.243530 
	C596.639221,1518.083984 596.075134,1527.523193 592.224915,1535.501953 
	C591.941284,1536.089844 591.484619,1536.594360 590.641174,1537.812256 
	C585.900574,1537.812256 580.693726,1537.812256 574.765747,1537.812256 
	C574.828491,1543.735474 566.987732,1547.113403 572.532898,1554.481934 
	C565.181030,1550.997314 560.805786,1553.534668 556.800964,1558.572876 
	C554.161926,1561.892700 550.952881,1565.060425 547.365601,1567.265625 
	C538.588135,1572.661377 529.733521,1577.774048 522.921326,1585.814575 
	C521.695496,1587.261230 518.307373,1588.358154 516.658691,1587.715332 
	C508.226715,1584.428345 503.811798,1591.085205 498.491272,1594.813843 
	C494.811310,1597.392700 492.150177,1601.425293 488.780426,1605.083496 
	C483.979034,1599.858276 478.522583,1599.045166 472.700012,1600.993042 
	C470.039459,1605.530151 478.389099,1608.828247 473.113586,1612.914062 
	C474.350525,1613.093750 475.587463,1613.273560 476.821655,1613.451660 
	C479.324646,1617.831909 478.268524,1622.181641 474.919403,1625.041992 
	C468.163574,1630.811890 463.477264,1638.627563 454.990814,1642.848877 
	C448.904999,1645.875977 443.983185,1651.331055 438.728546,1655.916626 
	C433.473145,1660.502930 427.832550,1662.650635 420.942352,1660.119995 
	C419.806824,1659.702881 418.297089,1659.307373 417.284943,1659.712524 
	C410.298920,1662.510620 403.404327,1665.536133 396.466339,1668.455078 
	C395.272675,1668.957275 394.041626,1669.493164 392.777863,1669.686401 
	C384.659027,1670.927124 384.095398,1671.510376 383.871185,1679.112061 
	C383.681335,1685.550171 385.613586,1692.230103 381.731598,1699.195557 
	C381.799561,1689.617310 376.069916,1685.206177 367.447784,1687.547974 
	C363.942230,1688.500000 360.616669,1690.114746 356.524109,1691.632812 
	C355.342682,1690.651123 354.225983,1689.333618 354.444702,1688.298096 
	C357.046844,1675.976318 349.424683,1668.503906 341.819763,1660.937500 
	C338.317627,1657.453003 335.007751,1653.775635 331.593231,1650.202393 
	C329.780640,1648.305664 328.006409,1646.362549 326.081421,1644.584961 
	C322.245239,1641.042480 317.968811,1637.908936 314.523468,1634.029907 
	C310.977448,1630.037720 307.582581,1626.936035 301.779663,1628.671143 
	C291.407684,1631.772095 284.394226,1625.519409 279.268555,1616.509766 
	C277.021027,1612.559204 274.793152,1609.571411 271.017151,1607.289673 
	C266.078857,1604.305664 262.986542,1599.813843 260.248260,1594.656372 
	C257.370880,1589.236572 253.066437,1584.564575 249.275040,1579.651123 
	C248.729309,1578.943970 247.517914,1578.251465 246.692413,1578.333496 
	C233.327744,1579.664795 229.471466,1567.228394 221.646149,1560.739380 
	C218.432465,1558.074829 216.710739,1554.426025 211.613678,1553.671997 
	C207.748810,1553.100098 204.085632,1550.011353 200.721756,1547.517822 
	C197.045715,1544.792969 197.822525,1541.001099 199.943207,1537.689697 
	C201.356598,1535.482666 204.048218,1533.971924 205.059952,1531.663818 
	C206.099823,1529.291260 207.053772,1525.081055 205.841812,1523.857300 
	C202.151108,1520.130371 203.530136,1516.674561 204.699692,1512.484741 
	C207.225266,1512.484741 209.737381,1512.484741 212.805450,1512.484741 
	C212.114212,1508.674316 211.510727,1505.347656 210.797455,1501.415771 
	C220.496857,1499.881348 226.137100,1492.563721 233.375839,1488.118408 
	C242.230667,1482.680664 243.873642,1472.032104 252.613480,1467.393799 
	C253.714691,1466.809448 253.805435,1463.861206 253.920776,1461.980957 
	C254.121536,1458.708618 253.976593,1455.415161 253.976593,1451.622681 
	C261.937592,1449.188110 268.466644,1445.255859 272.942566,1437.996948 
	C274.322845,1435.758545 278.638763,1435.380249 281.551392,1434.023193 
	C284.703857,1432.554565 288.845642,1431.714966 290.676880,1429.221191 
	C294.315369,1424.265991 299.093170,1421.729248 304.515076,1420.156250 
	C313.705841,1417.489990 320.489685,1412.244507 323.772186,1403.163086 
	C326.232941,1396.355103 328.316833,1389.403687 330.366302,1382.456543 
	C331.961121,1377.050659 333.037048,1371.488403 334.708374,1366.109009 
	C338.398834,1354.230835 344.886719,1344.863037 357.055237,1339.896606 
	C365.923187,1336.277344 374.399750,1331.672241 382.950317,1327.309570 
	C391.185303,1323.107788 399.291382,1318.653320 407.535858,1314.266235 
	C417.701599,1318.344238 428.667084,1322.170410 439.093811,1327.129272 
	C445.919189,1330.375244 453.077484,1330.905273 460.135132,1332.590576 
	C477.191467,1336.663574 494.114349,1341.367676 510.910553,1346.417603 
	C516.593872,1348.126221 521.981201,1348.922485 527.388367,1346.837524 
	C533.791992,1344.368652 539.738403,1345.430420 545.481323,1348.296997 
	C547.974243,1349.541504 549.936035,1350.313721 553.051392,1350.214600 
	C562.247864,1349.922119 568.359314,1357.879150 567.696594,1367.621948 
	C567.445435,1371.314697 564.225342,1375.359253 569.826599,1379.503052 
	C573.904419,1374.820068 578.162476,1370.089600 582.215881,1365.189941 
	C583.667969,1363.434692 584.405273,1361.090210 585.848938,1359.325806 
	C591.052551,1352.965820 596.130249,1346.462280 601.807861,1340.542725 
	C606.921021,1335.211914 611.685913,1329.844604 614.722778,1322.986694 
	C615.743835,1320.681030 617.687622,1318.330566 619.835876,1317.055298 
	C629.495300,1311.320679 636.160828,1302.887573 642.783386,1294.081787 
	C646.271179,1289.444214 651.835754,1286.398438 656.297791,1282.447754 
	C657.899170,1281.029907 660.233276,1278.997437 660.141418,1277.363159 
	C659.778198,1270.900635 664.503357,1268.600464 668.709534,1266.279297 
	C674.223511,1263.235840 680.183716,1261.000244 685.956726,1258.427734 
	C690.620789,1256.349365 695.291809,1254.286621 700.394653,1252.024170 
	C698.219116,1247.451172 693.267151,1245.776733 695.341125,1240.176147 
	C697.255554,1235.006470 700.811035,1232.458008 705.158020,1231.442749 
	C710.545532,1230.184448 712.740051,1226.797485 713.918335,1221.545410 
	C721.771423,1223.418335 725.784729,1219.775146 728.754456,1213.149658 
	C730.372437,1209.539673 733.362061,1205.731812 738.928040,1207.445679 
	C739.937866,1207.756470 741.807007,1206.494019 742.789856,1205.482178 
	C750.809631,1197.226196 761.146912,1195.046387 772.281799,1193.376709 
	C773.490723,1196.499634 774.506836,1199.124268 776.004578,1202.993042 
	C784.428284,1199.298096 792.467712,1195.771851 800.984985,1192.035889 
	C803.732605,1194.142700 806.830383,1196.517944 809.361145,1198.458496 
	C821.782715,1196.834473 825.925354,1187.513916 830.702393,1178.707520 
	C834.018433,1172.594727 838.049194,1166.854980 841.140625,1160.640259 
	C842.980835,1156.940918 843.620850,1152.644531 844.908447,1148.247681 
	C847.431396,1148.771851 850.155334,1149.337646 853.336548,1149.998413 
	C854.014465,1136.955200 861.476746,1127.719727 868.358276,1118.163452 
	C871.429077,1113.899048 874.229126,1109.437500 877.076111,1105.016479 
	C877.583191,1104.229004 878.241821,1102.937134 877.935669,1102.327759 
	C876.294678,1099.062012 875.918579,1095.576416 878.671509,1093.251709 
	C881.361145,1090.980347 884.954163,1089.749146 888.209045,1088.182739 
	C896.708069,1084.092651 905.946777,1081.168701 911.751709,1072.573853 
	C927.157104,1074.601440 942.450256,1075.978394 952.991150,1061.379639 
	C957.223083,1066.815430 960.857727,1071.484131 964.507141,1076.171631 
	C977.355835,1071.162476 988.623840,1076.102539 999.918457,1078.666382 
	C1003.216797,1079.415161 1006.153320,1083.279419 1008.506836,1086.299316 
	C1011.734924,1090.441650 1013.842712,1095.478271 1017.188110,1099.501709 
	C1020.299011,1103.243042 1021.190857,1107.380493 1017.666931,1109.941650 
	C1013.610168,1112.890015 1015.885864,1116.249146 1015.329346,1120.172729 
	C1006.024780,1119.420654 1001.239258,1124.538208 998.997864,1134.039307 
	C1001.943848,1134.039307 1004.657776,1134.278687 1007.316284,1133.996094 
	C1016.589661,1133.010010 1018.639893,1134.452637 1021.666748,1143.383423 
	C1023.737610,1149.493652 1026.269287,1155.453735 1028.780640,1161.402710 
	C1029.243652,1162.499390 1030.455078,1163.724609 1031.559570,1164.030762 
	C1036.935791,1165.521240 1042.347656,1166.993652 1047.840820,1167.906860 
	C1050.626709,1168.369873 1053.611206,1167.637573 1057.694336,1167.366943 
	C1057.208740,1163.764648 1056.297852,1160.930786 1056.611084,1158.239502 
	C1056.931885,1155.483276 1058.451416,1152.866577 1059.680542,1149.558472 
	C1061.665771,1150.722290 1063.024414,1151.108765 1063.744995,1152.006836 
	C1068.981445,1158.534058 1074.438477,1161.119629 1082.387085,1155.547363 
	C1085.119873,1153.631470 1089.794189,1154.484985 1094.625122,1153.960083 
	C1094.935425,1156.795410 1095.087402,1159.269897 1095.500977,1161.699829 
	C1096.085327,1165.134033 1095.833130,1169.386597 1097.792480,1171.757324 
	C1100.971313,1175.603882 1100.206299,1178.923096 1099.158691,1182.861328 
	C1097.933472,1187.466919 1097.016479,1192.154541 1095.802612,1197.529053 
	C1093.421997,1196.940674 1090.437256,1196.202881 1086.327637,1195.187134 
	C1086.867432,1201.913452 1091.473633,1205.271362 1095.134521,1208.182861 
	C1098.743408,1211.053223 1103.844849,1212.318237 1108.486694,1213.554810 
	C1115.524658,1215.429688 1120.121826,1219.368042 1120.999756,1225.695190 
	C1125.943970,1226.614014 1129.931519,1227.307617 1133.898315,1228.104248 
	C1139.047485,1229.138672 1144.185791,1230.229004 1149.317993,1231.344849 
	C1153.363037,1232.224365 1157.558838,1231.656738 1161.002930,1235.682861 
	C1162.391724,1237.306274 1167.760376,1236.254028 1171.033203,1235.368042 
	C1176.065186,1234.006226 1179.541382,1233.637939 1184.303467,1237.853638 
	C1188.529175,1241.594727 1195.743896,1242.101807 1201.733765,1243.676758 
	C1212.323486,1246.461548 1223.028564,1248.195435 1234.102783,1247.650513 
	C1237.581421,1247.479492 1241.162476,1249.249390 1244.685913,1250.172485 
	C1248.507812,1251.173950 1252.307983,1252.260376 1256.137329,1253.231812 
	C1257.411865,1253.555298 1259.369629,1253.154175 1259.956421,1253.908203 
	C1264.682007,1259.980103 1271.724854,1258.660034 1278.660889,1259.875488 
	C1282.928711,1263.583618 1286.671143,1264.105347 1290.437500,1260.244019 
	C1293.394531,1257.212524 1296.642822,1257.359741 1300.464966,1258.338379 
	C1311.575439,1261.183472 1322.792969,1263.610107 1333.910645,1266.428711 
	C1336.042969,1266.969238 1337.934204,1268.510132 1339.895142,1269.660156 
	C1341.272705,1270.468140 1342.472168,1271.839600 1343.936768,1272.195801 
	C1351.519531,1274.038818 1359.154785,1275.671387 1366.790161,1277.289795 
	C1368.345947,1277.619751 1370.337036,1278.232544 1371.518433,1277.591919 
	C1376.937988,1274.652954 1380.516113,1275.103149 1383.283691,1281.359619 
	C1384.250122,1283.544189 1388.018066,1284.489258 1391.239990,1286.026489 
z"/>
<path data-name="Bafia" style="fill: {#61F9E6}" fill="#61F9E6" opacity="1.000000" stroke="none" 
	d="
M1971.136475,1792.198853 
	C1930.587402,1781.427612 1891.478516,1767.481445 1852.218750,1753.913208 
	C1819.868652,1742.732910 1786.645752,1734.331787 1752.534912,1730.205322 
	C1747.301514,1729.572266 1742.888306,1728.076538 1739.263916,1724.250854 
	C1738.125488,1723.049194 1736.847778,1721.932861 1735.481201,1721.001099 
	C1715.407715,1707.314697 1703.978149,1687.222900 1694.617065,1665.666138 
	C1687.200317,1648.586548 1679.614014,1631.558594 1672.926758,1614.190552 
	C1666.021606,1596.257446 1654.562134,1581.110840 1644.360840,1564.363770 
	C1660.109863,1559.845093 1676.112183,1555.691650 1692.242188,1552.114746 
	C1716.833130,1546.661621 1741.463623,1541.353516 1766.191406,1536.574097 
	C1771.881104,1535.474243 1774.881226,1532.809814 1777.238037,1528.042236 
	C1780.473633,1521.496582 1784.427979,1515.295410 1787.475830,1508.671143 
	C1790.085327,1502.999634 1793.782349,1500.374390 1800.793213,1501.709595 
	C1807.088013,1503.958984 1811.604736,1503.008789 1816.061401,1498.711182 
	C1820.311646,1494.612549 1825.120850,1493.710205 1831.560669,1495.970215 
	C1837.129272,1497.924438 1843.919312,1496.648315 1850.151489,1496.382935 
	C1855.186646,1496.168457 1860.224731,1495.206299 1863.732178,1500.179443 
	C1867.187134,1505.078247 1866.771606,1509.927612 1862.391846,1515.579346 
	C1856.222656,1523.539917 1856.191772,1525.259277 1862.084839,1532.597534 
	C1865.227661,1536.511108 1871.591187,1537.592896 1877.625366,1534.821411 
	C1891.055420,1528.652710 1904.899780,1531.388306 1918.643066,1532.785889 
	C1925.849854,1533.518921 1932.952759,1535.330078 1940.163208,1535.950806 
	C1944.856079,1536.354858 1949.033691,1536.964233 1953.383911,1539.331787 
	C1965.564697,1545.961426 1978.967896,1549.010498 1991.350098,1541.375122 
	C2003.062256,1534.152954 2013.382935,1537.491211 2024.384766,1541.491943 
	C2030.292358,1543.640137 2036.199097,1546.793457 2042.280151,1547.268677 
	C2058.716553,1548.553223 2067.650879,1557.214233 2071.263672,1573.353271 
	C2071.893066,1583.041748 2071.042480,1592.356812 2076.454102,1601.365234 
	C2063.610107,1611.644409 2067.835449,1625.700439 2068.607422,1638.552124 
	C2069.004639,1645.165527 2070.717773,1651.579224 2068.679199,1658.256958 
	C2068.059326,1660.287476 2069.277832,1662.808716 2069.186035,1665.086304 
	C2069.016113,1669.298096 2068.613037,1673.509888 2068.095459,1677.695557 
	C2067.611328,1681.607178 2066.949463,1685.503662 2066.194336,1689.373291 
	C2064.803711,1696.497803 2064.092529,1703.896606 2061.596680,1710.624146 
	C2059.096680,1717.363281 2053.961182,1721.754150 2045.808960,1722.379517 
	C2039.597412,1722.855957 2033.507812,1725.078247 2027.402710,1726.672607 
	C2025.832153,1727.082764 2023.429688,1727.732422 2023.072266,1728.818848 
	C2020.278931,1737.312744 2011.624268,1740.449097 2006.794922,1747.204468 
	C1999.668701,1757.172607 1991.008667,1766.031006 1983.279663,1775.586670 
	C1979.107788,1780.744385 1975.512939,1786.368896 1971.136475,1792.198853 
z"/>
</svg>