<svg version="1.1" id="Layer_1" xmlns="http://www.w3.org/2000/svg" xmlns:xlink="http://www.w3.org/1999/xlink" x="0px" y="0px"
	 width="100%" viewBox="0 0 2164 2383" enable-background="new 0 0 2164 2383" xml:space="preserve">
<path data-name="Guider" fill="#54CDEB" opacity="1.000000" stroke="none" 
	d="
M1130.000000,2386.000000 
	C1128.500000,2386.000000 1127.000000,2386.000000 1125.048096,2385.325684 
	C1118.602783,2372.908691 1107.317993,2367.980469 1096.327881,2363.433594 
	C1096.327881,2360.364990 1096.130127,2358.020508 1096.362671,2355.719482 
	C1097.297607,2346.463867 1094.631836,2339.511719 1085.281616,2335.765869 
	C1083.098022,2334.890869 1081.830322,2331.730225 1079.728394,2329.105713 
	C1057.870239,2339.599121 1034.807617,2349.406738 1010.728638,2357.535400 
	C997.525574,2331.643555 982.305725,2307.720703 974.023865,2280.412598 
	C971.717041,2272.805908 969.011047,2265.247314 965.654785,2258.055908 
	C963.185547,2252.765137 959.808899,2247.732178 956.055359,2243.236572 
	C943.506042,2228.205811 930.730957,2213.357422 917.758728,2198.689697 
	C914.084961,2194.535400 910.015564,2189.558105 905.127502,2187.891846 
	C894.448792,2184.251709 888.508301,2176.637451 882.645813,2167.898926 
	C879.279114,2162.880615 879.241333,2158.294434 880.417603,2153.092285 
	C885.903076,2128.829834 891.624756,2104.617432 896.749695,2080.279297 
	C897.868042,2074.968262 897.749023,2069.046631 896.703918,2063.698486 
	C894.034607,2050.039307 890.740723,2036.488892 887.285217,2023.000366 
	C883.753723,2009.214966 881.134521,1994.960571 875.626343,1981.967041 
	C865.001221,1956.902588 852.740234,1932.524292 840.844299,1908.013672 
	C839.075500,1904.369141 839.087952,1901.247681 840.623779,1898.169556 
	C843.108826,1903.005981 847.239380,1904.281982 851.186279,1906.178711 
	C862.519165,1911.625610 870.276428,1920.042480 871.753052,1933.145386 
	C872.695374,1941.507568 877.161133,1945.825073 885.133606,1946.195312 
	C896.902039,1946.741577 898.280029,1948.034668 899.665466,1959.950562 
	C899.818909,1961.270264 899.632202,1962.639771 899.867920,1963.938110 
	C901.605347,1973.505249 909.636169,1978.675903 918.956970,1975.889648 
	C922.065735,1974.960327 924.977173,1973.138306 927.755554,1971.373169 
	C952.767029,1955.483276 977.750427,1939.549072 1002.688965,1923.545166 
	C1008.464905,1919.838501 1014.150757,1918.160278 1021.416504,1919.054810 
	C1035.241943,1920.757080 1049.252441,1920.979126 1063.189819,1921.746216 
	C1093.606079,1923.420532 1123.468384,1916.979248 1153.666260,1915.356567 
	C1157.307861,1915.160767 1161.458374,1913.194946 1164.243164,1910.758423 
	C1169.222046,1906.402466 1174.191284,1901.590698 1177.644775,1896.026123 
	C1185.463745,1883.427856 1197.067139,1876.480591 1210.164795,1870.819092 
	C1217.734863,1867.546875 1225.211792,1863.551758 1231.775024,1858.612183 
	C1237.427734,1854.357788 1243.865479,1850.227783 1245.890625,1842.396851 
	C1248.328613,1832.970459 1252.413086,1824.419800 1259.024536,1816.980591 
	C1262.953979,1812.559448 1265.795776,1807.163330 1269.065430,1802.165527 
	C1275.425293,1792.444092 1281.785400,1782.722046 1288.058960,1772.944946 
	C1291.225586,1768.009766 1296.170654,1766.168823 1301.013916,1768.181030 
	C1308.194336,1771.164307 1313.118286,1767.713135 1318.350464,1764.251953 
	C1321.679688,1762.049316 1324.538696,1758.863159 1328.130371,1757.389160 
	C1334.781860,1754.658691 1341.770386,1751.365601 1348.705322,1751.154541 
	C1354.102417,1750.990234 1359.172363,1750.780884 1364.146240,1748.915039 
	C1370.292236,1746.609497 1376.358765,1744.091919 1382.076416,1741.818237 
	C1395.994019,1754.961792 1410.786255,1757.690063 1425.230103,1749.761841 
	C1419.571289,1748.058350 1419.955078,1741.357788 1413.840210,1739.364258 
	C1407.227539,1737.208496 1401.325928,1734.166748 1393.985596,1735.870728 
	C1390.610474,1736.654175 1386.822021,1735.656372 1383.548828,1735.483643 
	C1378.270020,1721.010986 1366.825073,1721.979492 1355.421143,1722.531006 
	C1354.316040,1724.764526 1353.708252,1728.450562 1351.951416,1729.119507 
	C1344.172241,1732.082153 1336.033691,1734.075073 1327.764404,1730.635010 
	C1322.685425,1728.521851 1317.868774,1725.307251 1312.599365,1724.239502 
	C1305.677246,1722.836670 1302.324341,1718.898560 1301.153442,1712.617676 
	C1292.812988,1713.830688 1293.094482,1713.698242 1289.626831,1706.328247 
	C1288.518677,1703.973145 1285.735352,1702.026733 1283.269531,1700.784180 
	C1280.050537,1699.162109 1277.852051,1697.429688 1277.347412,1693.566040 
	C1276.820923,1689.534790 1275.463013,1686.067017 1270.528198,1684.842163 
	C1268.618164,1684.368042 1267.222900,1681.415283 1265.824341,1679.429199 
	C1264.917969,1678.141968 1264.796875,1676.135132 1263.692871,1675.181641 
	C1257.923950,1670.199707 1251.850708,1665.570435 1246.080688,1660.589844 
	C1240.084717,1655.414307 1234.286865,1650.007446 1228.451294,1644.648315 
	C1218.436157,1635.451172 1208.492188,1626.176270 1198.449097,1617.009888 
	C1194.461548,1613.370361 1190.504028,1612.699341 1184.928833,1614.952148 
	C1176.097778,1618.520630 1166.919556,1621.105957 1156.829834,1618.133789 
	C1151.668701,1616.613647 1145.767700,1617.128906 1141.054321,1621.894775 
	C1139.474121,1623.492554 1135.265747,1623.859741 1132.862915,1623.033081 
	C1123.549561,1619.828857 1114.473267,1615.932251 1105.334351,1612.230225 
	C1104.802612,1612.014648 1104.496948,1611.240601 1104.048462,1610.679321 
	C1103.033813,1605.520630 1105.595581,1601.285400 1108.941284,1598.219238 
	C1117.706177,1590.187378 1124.383667,1580.952393 1128.327637,1569.723511 
	C1128.754028,1568.509399 1129.823853,1567.531250 1130.536011,1566.406128 
	C1134.927490,1559.467285 1134.806396,1558.243042 1130.007080,1551.236084 
	C1127.773438,1547.975220 1125.515869,1544.652222 1123.876099,1541.078979 
	C1119.866333,1532.341431 1116.457642,1523.323853 1112.325195,1514.648560 
	C1109.523682,1508.767578 1105.378052,1504.281494 1097.973389,1503.806519 
	C1095.814575,1503.668213 1093.288086,1501.580566 1091.813843,1499.695312 
	C1082.447998,1487.718384 1074.641357,1474.451416 1062.026611,1465.237183 
	C1057.372925,1461.837891 1056.401245,1457.506592 1057.216797,1451.307495 
	C1058.505005,1441.515869 1057.559692,1431.430298 1057.559692,1421.534180 
	C1053.857300,1419.177856 1050.687012,1416.647705 1047.110596,1414.998535 
	C1041.007324,1412.184326 1037.269897,1407.321167 1033.983643,1401.816284 
	C1026.810913,1389.800537 1030.266602,1379.235229 1043.383423,1373.567993 
	C1051.020630,1370.268433 1058.674927,1367.002319 1066.388794,1363.887573 
	C1085.140381,1356.315796 1103.544922,1347.644531 1124.020874,1345.430054 
	C1128.626587,1344.931763 1130.775879,1341.945557 1131.967041,1337.687866 
	C1132.843506,1334.555664 1133.652466,1329.739746 1135.768677,1328.902588 
	C1145.900513,1324.894653 1147.225830,1315.608765 1149.475098,1307.265381 
	C1151.077637,1301.321289 1151.440430,1294.717773 1146.917603,1289.157349 
	C1135.918335,1275.634766 1130.929810,1259.504639 1126.501831,1242.994507 
	C1118.607056,1213.558960 1113.552368,1183.872314 1116.136841,1153.258911 
	C1116.276489,1151.604248 1116.323364,1149.910156 1116.132324,1148.267334 
	C1115.904175,1146.306396 1115.822632,1144.128052 1114.898315,1142.481445 
	C1109.540894,1132.937500 1108.743408,1122.167969 1106.615967,1111.811401 
	C1104.094727,1099.538574 1102.334717,1087.471069 1105.675537,1074.566162 
	C1109.697632,1059.028809 1111.102661,1042.813110 1113.611084,1026.886475 
	C1113.764648,1025.910522 1113.956543,1024.779785 1113.625732,1023.913757 
	C1110.852417,1016.653076 1114.342529,1010.258911 1116.207397,1003.605957 
	C1118.498047,995.433594 1119.169922,987.423706 1114.767090,979.480042 
	C1110.509033,971.797668 1111.336182,969.722229 1119.260376,965.420227 
	C1123.200562,963.281128 1127.304321,961.443176 1131.969482,959.157715 
	C1129.536743,957.036804 1127.883667,955.414856 1126.051880,954.029541 
	C1117.580322,947.622925 1108.910889,941.468689 1100.600342,934.861694 
	C1093.275879,929.038513 1092.159546,922.469727 1096.588867,914.576477 
	C1099.010376,910.261353 1101.614624,906.048889 1104.953125,901.551880 
	C1113.881348,901.588196 1121.415649,900.648315 1128.172852,895.096863 
	C1132.706543,891.372192 1136.794312,892.190979 1141.470459,896.550842 
	C1151.818848,906.199036 1164.312500,909.335022 1177.961426,909.052002 
	C1180.553223,908.998352 1183.304565,908.449097 1185.675049,907.420288 
	C1193.586304,903.986755 1201.290405,900.074707 1209.213135,896.669983 
	C1212.833740,895.114014 1216.783325,893.348572 1220.577515,893.362671 
	C1230.182495,893.398254 1239.825806,894.015564 1249.375854,895.091187 
	C1260.571045,896.352173 1271.635864,898.961304 1282.846924,899.830261 
	C1292.388550,900.569824 1301.088257,902.286865 1308.643921,908.602905 
	C1314.859741,913.799011 1321.567871,918.088196 1330.199341,913.593506 
	C1331.029907,913.161072 1332.145630,913.242920 1333.135010,913.153992 
	C1344.700684,912.113892 1356.255859,910.904053 1367.840454,910.152161 
	C1372.099121,909.875671 1376.454834,910.491821 1380.719971,911.053040 
	C1386.969604,911.875427 1393.158569,913.666443 1399.408203,913.848022 
	C1406.661011,914.058716 1412.903198,916.124695 1419.113525,919.711426 
	C1426.695068,924.090088 1432.356201,932.216064 1442.354736,932.027954 
	C1455.084351,939.760803 1469.337036,940.592651 1483.650635,941.126953 
	C1502.591431,941.834045 1521.653931,941.449341 1540.434570,943.568665 
	C1554.566406,945.163574 1568.154419,944.474304 1582.055176,942.491699 
	C1592.769287,940.963684 1603.505493,937.044983 1614.490112,943.879395 
	C1621.595703,948.300293 1623.456787,948.994324 1621.123657,957.660583 
	C1620.142456,961.304871 1619.794189,964.507935 1623.396973,966.259216 
	C1628.094727,968.542603 1633.240601,971.921753 1637.998047,971.630737 
	C1647.010376,971.079468 1652.556396,974.259583 1656.282349,981.984619 
	C1656.831543,983.123352 1657.999512,983.963745 1659.165527,985.257812 
	C1669.854004,982.469177 1676.125732,990.327515 1683.189819,995.802246 
	C1685.946289,995.236938 1688.400146,994.733643 1690.982056,994.204163 
	C1691.686279,997.020325 1691.938354,999.399292 1692.862915,1001.479370 
	C1696.189087,1008.962585 1694.420654,1014.827698 1688.149902,1019.959717 
	C1683.084473,1024.105225 1678.467407,1028.798462 1672.882080,1033.959717 
	C1685.599609,1048.504272 1695.534912,1064.794312 1717.201172,1067.234619 
	C1721.720459,1067.861450 1725.595825,1068.111206 1729.457886,1068.360107 
	C1730.039062,1076.338867 1729.120728,1084.022949 1731.482910,1090.512939 
	C1733.893921,1097.137207 1739.399536,1102.684692 1743.795532,1108.518921 
	C1746.568115,1112.198486 1747.508789,1115.641357 1746.502197,1120.471558 
	C1744.886108,1128.226318 1744.500610,1136.251831 1743.806519,1144.181274 
	C1742.567871,1158.329712 1746.026611,1169.871704 1760.906250,1175.373169 
	C1765.833618,1177.194946 1767.167603,1181.510254 1764.815674,1186.046753 
	C1758.023071,1199.148926 1761.228882,1211.731201 1765.918945,1224.466919 
	C1769.241821,1233.490112 1769.695679,1242.365112 1764.693359,1251.337036 
	C1762.197510,1255.813354 1760.261719,1261.243408 1760.156982,1266.285400 
	C1759.893188,1278.974121 1754.760986,1288.336060 1744.903931,1296.148682 
	C1738.455444,1301.259644 1732.908081,1307.632446 1727.520996,1313.922974 
	C1722.165771,1320.176392 1719.937500,1327.196533 1725.379150,1334.892822 
	C1726.691895,1336.749512 1727.221436,1339.152710 1728.157471,1341.284424 
	C1731.335083,1348.520264 1731.205688,1355.303467 1726.314331,1361.967773 
	C1723.777588,1365.423950 1721.617432,1369.349487 1720.181763,1373.381470 
	C1716.975098,1382.387329 1710.143921,1386.077515 1701.440918,1387.735596 
	C1696.988403,1388.583740 1692.619751,1389.871094 1688.542725,1390.878540 
	C1687.704712,1395.908691 1685.766235,1400.150024 1686.635498,1403.704590 
	C1689.294067,1414.575317 1686.989014,1424.745117 1684.330322,1435.088013 
	C1682.713257,1441.379150 1684.171265,1447.576416 1689.458862,1451.198364 
	C1697.977173,1457.032837 1706.471924,1462.555664 1711.429199,1472.094849 
	C1712.042725,1473.275635 1714.254883,1473.580322 1715.661499,1474.401855 
	C1724.351929,1479.476807 1725.772339,1485.821777 1720.074341,1494.008545 
	C1718.932861,1495.648682 1717.682251,1497.216797 1716.606201,1498.897705 
	C1712.250732,1505.701538 1712.062012,1510.892578 1718.362793,1515.613892 
	C1726.511230,1521.719482 1727.187256,1530.128662 1727.595215,1538.630493 
	C1728.073242,1548.589355 1724.549438,1550.687988 1715.007812,1547.276855 
	C1707.367554,1544.545288 1703.138794,1546.272095 1699.868652,1553.471558 
	C1699.318115,1554.683228 1698.704468,1555.880005 1698.298950,1557.141357 
	C1696.769653,1561.898315 1693.315552,1563.121338 1688.886597,1562.094971 
	C1686.003296,1561.426758 1683.026001,1560.670044 1680.443237,1559.292358 
	C1672.814819,1555.222900 1665.427124,1550.703979 1657.822876,1546.586548 
	C1648.672241,1541.631592 1641.613647,1545.619751 1640.163086,1556.044312 
	C1639.682983,1559.495239 1638.802368,1563.173096 1637.042969,1566.111328 
	C1631.392700,1575.547363 1627.061523,1584.947632 1632.083130,1596.113281 
	C1635.388428,1603.462524 1632.791260,1609.653564 1627.803345,1615.222046 
	C1626.248901,1616.957275 1624.879272,1618.967285 1623.031616,1620.309937 
	C1617.568237,1624.280273 1616.701172,1629.970459 1618.564087,1635.456543 
	C1623.755005,1650.743652 1621.710571,1666.457642 1622.012817,1681.994507 
	C1622.139526,1688.509888 1620.089966,1695.047607 1619.295898,1701.607422 
	C1618.743042,1706.175171 1617.467285,1711.109619 1618.586304,1715.331055 
	C1620.918823,1724.130493 1616.906128,1728.967407 1610.517822,1733.757568 
	C1603.107056,1739.314209 1596.069580,1745.417725 1589.249634,1751.696167 
	C1584.525879,1756.044922 1582.496216,1761.486572 1585.633057,1767.911743 
	C1587.690796,1772.126709 1587.277588,1776.129028 1584.285889,1779.919189 
	C1583.291016,1781.179810 1582.724487,1782.866943 1582.263306,1784.447021 
	C1577.043701,1802.325928 1566.548828,1817.155640 1555.349365,1831.634399 
	C1552.566040,1835.233032 1549.731323,1839.157227 1548.372314,1843.397217 
	C1546.775635,1848.378784 1546.860596,1853.883057 1546.039551,1859.133179 
	C1544.647461,1868.033813 1542.457520,1876.535034 1537.313843,1884.306763 
	C1530.837646,1894.091919 1527.262329,1905.074585 1525.479248,1916.802734 
	C1523.999268,1926.536499 1524.984741,1936.735962 1519.452881,1945.860229 
	C1516.640381,1950.499390 1515.662231,1956.250854 1513.970581,1961.163818 
	C1524.516846,1967.924316 1533.842285,1974.731445 1543.912476,1980.156006 
	C1557.713013,1987.589966 1560.597900,1989.704468 1570.424438,2003.221436 
	C1573.159180,2006.983521 1574.504761,2010.612671 1574.254883,2015.152588 
	C1573.378418,2031.079712 1573.234985,2047.073975 1571.661621,2062.928467 
	C1570.123779,2078.425781 1567.943237,2093.897705 1562.140869,2108.638672 
	C1557.663696,2120.012695 1552.315796,2130.384033 1541.121338,2136.666748 
	C1537.661377,2138.608887 1534.709473,2141.434082 1531.376953,2143.630371 
	C1525.004395,2147.829834 1522.291504,2153.564453 1522.087769,2161.251221 
	C1521.842163,2170.518311 1520.543335,2179.756592 1519.749146,2189.011475 
	C1519.527100,2191.598145 1519.352539,2194.200928 1519.371582,2196.794434 
	C1519.422974,2203.755127 1519.590942,2210.714844 1518.916992,2217.801025 
	C1509.689209,2219.402832 1501.004395,2220.069580 1492.902344,2222.601562 
	C1485.971558,2224.767578 1480.543457,2223.436035 1475.230225,2219.511963 
	C1470.576538,2216.074951 1464.896362,2216.263184 1461.075806,2218.779785 
	C1456.359985,2221.886475 1452.078979,2226.848389 1449.642334,2231.974609 
	C1444.379028,2243.048096 1440.281616,2254.688965 1435.973633,2266.197510 
	C1434.014771,2271.430664 1431.271729,2275.441406 1425.778076,2277.542969 
	C1417.793579,2280.596680 1412.202271,2286.632324 1406.794922,2293.090820 
	C1403.266357,2297.305420 1399.039551,2301.752686 1394.160889,2303.830811 
	C1386.554077,2307.071289 1383.177490,2313.021973 1380.218262,2319.719482 
	C1379.037231,2322.392578 1378.481812,2325.342041 1377.719727,2327.903320 
	C1364.105469,2329.307617 1350.940430,2330.539062 1337.808350,2332.055664 
	C1324.986938,2333.536377 1312.332153,2336.431396 1299.219971,2334.159668 
	C1292.765869,2333.041504 1286.911011,2335.145508 1282.252930,2340.493896 
	C1280.588135,2342.405273 1277.221191,2343.865479 1274.672119,2343.804443 
	C1260.477905,2343.466064 1246.670044,2340.407715 1232.996338,2336.775146 
	C1227.791138,2335.392334 1223.136353,2336.187500 1219.180298,2339.910400 
	C1207.136963,2351.242676 1192.328613,2358.192139 1177.904907,2365.666260 
	C1174.559937,2367.399414 1170.182007,2368.168213 1166.415039,2367.837646 
	C1159.283081,2367.211426 1152.249268,2365.467041 1144.570679,2364.077881 
	C1142.595093,2371.632324 1137.856934,2377.362549 1131.472168,2381.931152 
	C1130.505737,2382.622803 1130.467651,2384.611328 1130.000000,2386.000000 
z"/>
<path data-name="Figuil" fill="#42BD42" opacity="1.000000" stroke="none" 
	d="
M2166.000000,1281.143066 
	C2165.752441,1281.777100 2165.354004,1281.317017 2165.278809,1281.364990 
	C2152.773438,1289.317383 2137.646240,1294.445801 2133.746582,1311.553589 
	C2132.967041,1314.973633 2131.256348,1318.622559 2128.886719,1321.142334 
	C2124.640869,1325.657471 2123.782959,1330.601318 2123.585449,1336.534424 
	C2122.801758,1360.083618 2120.196289,1383.643433 2120.734863,1407.142700 
	C2121.163086,1425.839844 2115.356689,1442.462158 2109.600342,1459.415039 
	C2090.257812,1516.379150 2071.447510,1573.537231 2051.096191,1630.140015 
	C2042.006836,1655.419556 2030.629761,1679.998657 2018.679443,1704.096680 
	C2003.623901,1734.456421 1986.919678,1763.998657 1970.926880,1793.893799 
	C1969.671509,1796.240723 1968.288330,1798.529785 1967.189331,1800.947876 
	C1962.136597,1812.065796 1954.606079,1821.076904 1945.271362,1828.975830 
	C1892.238525,1873.850830 1839.379883,1918.931885 1786.468872,1963.950928 
	C1765.468628,1981.818848 1744.441162,1999.655518 1723.550903,2017.651123 
	C1720.848389,2019.979126 1718.339844,2022.885254 1716.687622,2026.021973 
	C1705.988525,2046.332397 1695.476318,2066.742676 1685.045410,2087.192627 
	C1664.178589,2128.102295 1643.623657,2169.172852 1622.467773,2209.931641 
	C1615.296143,2223.748291 1602.958618,2232.060059 1588.254761,2236.779053 
	C1583.950562,2238.160400 1579.510132,2238.345947 1576.557861,2243.118164 
	C1573.937744,2247.353027 1569.566895,2245.764893 1566.094116,2243.086182 
	C1556.920166,2236.010254 1548.210449,2228.209473 1538.454468,2222.065186 
	C1533.754639,2219.105225 1527.113403,2219.228271 1520.531982,2217.815186 
	C1519.590942,2210.714844 1519.422974,2203.755127 1519.371582,2196.794434 
	C1519.352539,2194.200928 1519.527100,2191.598145 1519.749146,2189.011475 
	C1520.543335,2179.756592 1521.842163,2170.518311 1522.087769,2161.251221 
	C1522.291504,2153.564453 1525.004395,2147.829834 1531.376953,2143.630371 
	C1534.709473,2141.434082 1537.661377,2138.608887 1541.121338,2136.666748 
	C1552.315796,2130.384033 1557.663696,2120.012695 1562.140869,2108.638672 
	C1567.943237,2093.897705 1570.123779,2078.425781 1571.661621,2062.928467 
	C1573.234985,2047.073975 1573.378418,2031.079712 1574.254883,2015.152588 
	C1574.504761,2010.612671 1573.159180,2006.983521 1570.424438,2003.221436 
	C1560.597900,1989.704468 1557.713013,1987.589966 1543.912476,1980.156006 
	C1533.842285,1974.731445 1524.516846,1967.924316 1513.970581,1961.163818 
	C1515.662231,1956.250854 1516.640381,1950.499390 1519.452881,1945.860229 
	C1524.984741,1936.735962 1523.999268,1926.536499 1525.479248,1916.802734 
	C1527.262329,1905.074585 1530.837646,1894.091919 1537.313843,1884.306763 
	C1542.457520,1876.535034 1544.647461,1868.033813 1546.039551,1859.133179 
	C1546.860596,1853.883057 1546.775635,1848.378784 1548.372314,1843.397217 
	C1549.731323,1839.157227 1552.566040,1835.233032 1555.349365,1831.634399 
	C1566.548828,1817.155640 1577.043701,1802.325928 1582.263306,1784.447021 
	C1582.724487,1782.866943 1583.291016,1781.179810 1584.285889,1779.919189 
	C1587.277588,1776.129028 1587.690796,1772.126709 1585.633057,1767.911743 
	C1582.496216,1761.486572 1584.525879,1756.044922 1589.249634,1751.696167 
	C1596.069580,1745.417725 1603.107056,1739.314209 1610.517822,1733.757568 
	C1616.906128,1728.967407 1620.918823,1724.130493 1618.586304,1715.331055 
	C1617.467285,1711.109619 1618.743042,1706.175171 1619.295898,1701.607422 
	C1620.089966,1695.047607 1622.139526,1688.509888 1622.012817,1681.994507 
	C1621.710571,1666.457642 1623.755005,1650.743652 1618.564087,1635.456543 
	C1616.701172,1629.970459 1617.568237,1624.280273 1623.031616,1620.309937 
	C1624.879272,1618.967285 1626.248901,1616.957275 1627.803345,1615.222046 
	C1632.791260,1609.653564 1635.388428,1603.462524 1632.083130,1596.113281 
	C1627.061523,1584.947632 1631.392700,1575.547363 1637.042969,1566.111328 
	C1638.802368,1563.173096 1639.682983,1559.495239 1640.163086,1556.044312 
	C1641.613647,1545.619751 1648.672241,1541.631592 1657.822876,1546.586548 
	C1665.427124,1550.703979 1672.814819,1555.222900 1680.443237,1559.292358 
	C1683.026001,1560.670044 1686.003296,1561.426758 1688.886597,1562.094971 
	C1693.315552,1563.121338 1696.769653,1561.898315 1698.298950,1557.141357 
	C1698.704468,1555.880005 1699.318115,1554.683228 1699.868652,1553.471558 
	C1703.138794,1546.272095 1707.367554,1544.545288 1715.007812,1547.276855 
	C1724.549438,1550.687988 1728.073242,1548.589355 1727.595215,1538.630493 
	C1727.187256,1530.128662 1726.511230,1521.719482 1718.362793,1515.613892 
	C1712.062012,1510.892578 1712.250732,1505.701538 1716.606201,1498.897705 
	C1717.682251,1497.216797 1718.932861,1495.648682 1720.074341,1494.008545 
	C1725.772339,1485.821777 1724.351929,1479.476807 1715.661499,1474.401855 
	C1714.254883,1473.580322 1712.042725,1473.275635 1711.429199,1472.094849 
	C1706.471924,1462.555664 1697.977173,1457.032837 1689.458862,1451.198364 
	C1684.171265,1447.576416 1682.713257,1441.379150 1684.330322,1435.088013 
	C1686.989014,1424.745117 1689.294067,1414.575317 1686.635498,1403.704590 
	C1685.766235,1400.150024 1687.704712,1395.908691 1688.542725,1390.878540 
	C1692.619751,1389.871094 1696.988403,1388.583740 1701.440918,1387.735596 
	C1710.143921,1386.077515 1716.975098,1382.387329 1720.181763,1373.381470 
	C1721.617432,1369.349487 1723.777588,1365.423950 1726.314331,1361.967773 
	C1731.205688,1355.303467 1731.335083,1348.520264 1728.157471,1341.284424 
	C1727.221436,1339.152710 1726.691895,1336.749512 1725.379150,1334.892822 
	C1719.937500,1327.196533 1722.165771,1320.176392 1727.520996,1313.922974 
	C1732.908081,1307.632446 1738.455444,1301.259644 1744.903931,1296.148682 
	C1754.760986,1288.336060 1759.893188,1278.974121 1760.156982,1266.285400 
	C1760.261719,1261.243408 1762.197510,1255.813354 1764.693359,1251.337036 
	C1769.695679,1242.365112 1769.241821,1233.490112 1765.918945,1224.466919 
	C1761.228882,1211.731201 1758.023071,1199.148926 1764.815674,1186.046753 
	C1767.167603,1181.510254 1765.833618,1177.194946 1760.906250,1175.373169 
	C1746.026611,1169.871704 1742.567871,1158.329712 1743.806519,1144.181274 
	C1744.500610,1136.251831 1744.886108,1128.226318 1746.502197,1120.471558 
	C1747.508789,1115.641357 1746.568115,1112.198486 1743.795532,1108.518921 
	C1739.399536,1102.684692 1733.893921,1097.137207 1731.482910,1090.512939 
	C1729.120728,1084.022949 1730.039062,1076.338867 1729.457886,1068.360107 
	C1725.595825,1068.111206 1721.720459,1067.861450 1718.061523,1067.068237 
	C1728.231567,1066.162476 1738.203247,1066.057373 1748.133789,1065.364624 
	C1757.802734,1064.690186 1767.429810,1063.414062 1777.689331,1062.337891 
	C1776.905029,1072.001465 1776.222412,1080.411011 1775.582153,1088.298706 
	C1790.936890,1096.147095 1799.910522,1106.383667 1797.860718,1123.537598 
	C1797.583740,1125.856445 1798.331543,1129.550415 1799.938477,1130.638794 
	C1810.502441,1137.793579 1810.387085,1149.805298 1813.882812,1160.111084 
	C1813.667358,1160.157349 1813.504395,1160.605103 1813.504395,1160.605103 
	C1813.504395,1160.605103 1813.986816,1159.940186 1814.696289,1160.060059 
	C1820.174072,1162.129517 1820.514648,1166.694824 1821.318970,1170.760742 
	C1822.046143,1174.436523 1820.875854,1179.015503 1822.674683,1181.836426 
	C1825.935547,1186.950806 1830.338867,1191.618774 1835.126831,1195.375122 
	C1838.162964,1197.757446 1842.756714,1198.154785 1847.745483,1199.803833 
	C1854.528320,1195.625122 1862.112549,1190.952637 1869.998169,1186.094604 
	C1870.992554,1186.532349 1872.345703,1186.851685 1873.359985,1187.619019 
	C1880.218140,1192.808105 1886.589111,1189.750732 1892.646484,1186.204224 
	C1894.170898,1185.311646 1895.808594,1182.111572 1895.317505,1180.689087 
	C1892.392822,1172.218140 1897.074097,1166.197754 1900.899170,1159.237671 
	C1903.827759,1159.919678 1906.413330,1160.335327 1908.878540,1161.126587 
	C1923.736694,1165.895020 1938.552612,1170.795532 1953.410156,1175.566162 
	C1998.328247,1189.988770 2043.276489,1204.318359 2088.171387,1218.812500 
	C2098.265869,1222.071167 2108.333740,1225.502930 2118.154297,1229.493164 
	C2127.051758,1233.108276 2136.916992,1236.062866 2143.930664,1242.117676 
	C2151.227783,1248.417236 2155.544922,1258.135132 2161.346680,1266.228271 
	C2162.468506,1267.793335 2164.427246,1268.758301 2166.000000,1270.000000 
	C2166.000000,1273.428711 2166.000000,1276.857422 2166.000000,1281.143066 
z"/>
<path data-name="Mayo-Oulo" fill="#E585DD" opacity="1.000000" stroke="none" 
	d="
M1033.329834,868.033691 
	C1045.828125,874.132019 1057.547974,879.971252 1069.102539,886.120850 
	C1074.279663,888.876099 1078.880005,892.794678 1084.187500,895.203857 
	C1090.062500,897.870483 1096.447021,899.414551 1103.373047,901.618835 
	C1101.614624,906.048889 1099.010376,910.261353 1096.588867,914.576477 
	C1092.159546,922.469727 1093.275879,929.038513 1100.600342,934.861694 
	C1108.910889,941.468689 1117.580322,947.622925 1126.051880,954.029541 
	C1127.883667,955.414856 1129.536743,957.036804 1131.969482,959.157715 
	C1127.304321,961.443176 1123.200562,963.281128 1119.260376,965.420227 
	C1111.336182,969.722229 1110.509033,971.797668 1114.767090,979.480042 
	C1119.169922,987.423706 1118.498047,995.433594 1116.207397,1003.605957 
	C1114.342529,1010.258911 1110.852417,1016.653076 1113.625732,1023.913757 
	C1113.956543,1024.779785 1113.764648,1025.910522 1113.611084,1026.886475 
	C1111.102661,1042.813110 1109.697632,1059.028809 1105.675537,1074.566162 
	C1102.334717,1087.471069 1104.094727,1099.538574 1106.615967,1111.811401 
	C1108.743408,1122.167969 1109.540894,1132.937500 1114.898315,1142.481445 
	C1115.822632,1144.128052 1115.904175,1146.306396 1116.132324,1148.267334 
	C1116.323364,1149.910156 1116.276489,1151.604248 1116.136841,1153.258911 
	C1113.552368,1183.872314 1118.607056,1213.558960 1126.501831,1242.994507 
	C1130.929810,1259.504639 1135.918335,1275.634766 1146.917603,1289.157349 
	C1151.440430,1294.717773 1151.077637,1301.321289 1149.475098,1307.265381 
	C1147.225830,1315.608765 1145.900513,1324.894653 1135.768677,1328.902588 
	C1133.652466,1329.739746 1132.843506,1334.555664 1131.967041,1337.687866 
	C1130.775879,1341.945557 1128.626587,1344.931763 1124.020874,1345.430054 
	C1103.544922,1347.644531 1085.140381,1356.315796 1066.388794,1363.887573 
	C1058.674927,1367.002319 1051.020630,1370.268433 1043.383423,1373.567993 
	C1030.266602,1379.235229 1026.810913,1389.800537 1033.983643,1401.816284 
	C1037.269897,1407.321167 1041.007324,1412.184326 1047.110596,1414.998535 
	C1050.687012,1416.647705 1053.857300,1419.177856 1057.559692,1421.534180 
	C1057.559692,1431.430298 1058.505005,1441.515869 1057.216797,1451.307495 
	C1056.401245,1457.506592 1057.372925,1461.837891 1062.026611,1465.237183 
	C1074.641357,1474.451416 1082.447998,1487.718384 1091.813843,1499.695312 
	C1093.288086,1501.580566 1095.814575,1503.668213 1097.973389,1503.806519 
	C1105.378052,1504.281494 1109.523682,1508.767578 1112.325195,1514.648560 
	C1116.457642,1523.323853 1119.866333,1532.341431 1123.876099,1541.078979 
	C1125.515869,1544.652222 1127.773438,1547.975220 1130.007080,1551.236084 
	C1134.806396,1558.243042 1134.927490,1559.467285 1130.536011,1566.406128 
	C1129.823853,1567.531250 1128.754028,1568.509399 1128.327637,1569.723511 
	C1124.383667,1580.952393 1117.706177,1590.187378 1108.941284,1598.219238 
	C1105.595581,1601.285400 1103.033813,1605.520630 1104.048462,1610.679321 
	C1104.496948,1611.240601 1104.802612,1612.014648 1105.334351,1612.230225 
	C1114.473267,1615.932251 1123.549561,1619.828857 1132.862915,1623.033081 
	C1135.265747,1623.859741 1139.474121,1623.492554 1141.054321,1621.894775 
	C1145.767700,1617.128906 1151.668701,1616.613647 1156.829834,1618.133789 
	C1166.919556,1621.105957 1176.097778,1618.520630 1184.928833,1614.952148 
	C1190.504028,1612.699341 1194.461548,1613.370361 1198.449097,1617.009888 
	C1208.492188,1626.176270 1218.436157,1635.451172 1228.451294,1644.648315 
	C1234.286865,1650.007446 1240.084717,1655.414307 1246.080688,1660.589844 
	C1251.850708,1665.570435 1257.923950,1670.199707 1263.692871,1675.181641 
	C1264.796875,1676.135132 1264.917969,1678.141968 1265.824341,1679.429199 
	C1267.222900,1681.415283 1268.618164,1684.368042 1270.528198,1684.842163 
	C1275.463013,1686.067017 1276.820923,1689.534790 1277.347412,1693.566040 
	C1277.852051,1697.429688 1280.050537,1699.162109 1283.269531,1700.784180 
	C1285.735352,1702.026733 1288.518677,1703.973145 1289.626831,1706.328247 
	C1293.094482,1713.698242 1292.812988,1713.830688 1301.153442,1712.617676 
	C1302.324341,1718.898560 1305.677246,1722.836670 1312.599365,1724.239502 
	C1317.868774,1725.307251 1322.685425,1728.521851 1327.764404,1730.635010 
	C1336.033691,1734.075073 1344.172241,1732.082153 1351.951416,1729.119507 
	C1353.708252,1728.450562 1354.316040,1724.764526 1355.421143,1722.531006 
	C1366.825073,1721.979492 1378.270020,1721.010986 1383.548828,1735.483643 
	C1386.822021,1735.656372 1390.610474,1736.654175 1393.985596,1735.870728 
	C1401.325928,1734.166748 1407.227539,1737.208496 1413.840210,1739.364258 
	C1419.955078,1741.357788 1419.571289,1748.058350 1425.230103,1749.761841 
	C1410.786255,1757.690063 1395.994019,1754.961792 1382.076416,1741.818237 
	C1376.358765,1744.091919 1370.292236,1746.609497 1364.146240,1748.915039 
	C1359.172363,1750.780884 1354.102417,1750.990234 1348.705322,1751.154541 
	C1341.770386,1751.365601 1334.781860,1754.658691 1328.130371,1757.389160 
	C1324.538696,1758.863159 1321.679688,1762.049316 1318.350464,1764.251953 
	C1313.118286,1767.713135 1308.194336,1771.164307 1301.013916,1768.181030 
	C1296.170654,1766.168823 1291.225586,1768.009766 1288.058960,1772.944946 
	C1281.785400,1782.722046 1275.425293,1792.444092 1269.065430,1802.165527 
	C1265.795776,1807.163330 1262.953979,1812.559448 1259.024536,1816.980591 
	C1252.413086,1824.419800 1248.328613,1832.970459 1245.890625,1842.396851 
	C1243.865479,1850.227783 1237.427734,1854.357788 1231.775024,1858.612183 
	C1225.211792,1863.551758 1217.734863,1867.546875 1210.164795,1870.819092 
	C1197.067139,1876.480591 1185.463745,1883.427856 1177.644775,1896.026123 
	C1174.191284,1901.590698 1169.222046,1906.402466 1164.243164,1910.758423 
	C1161.458374,1913.194946 1157.307861,1915.160767 1153.666260,1915.356567 
	C1123.468384,1916.979248 1093.606079,1923.420532 1063.189819,1921.746216 
	C1049.252441,1920.979126 1035.241943,1920.757080 1021.416504,1919.054810 
	C1014.150757,1918.160278 1008.464905,1919.838501 1002.688965,1923.545166 
	C977.750427,1939.549072 952.767029,1955.483276 927.755554,1971.373169 
	C924.977173,1973.138306 922.065735,1974.960327 918.956970,1975.889648 
	C909.636169,1978.675903 901.605347,1973.505249 899.867920,1963.938110 
	C899.632202,1962.639771 899.818909,1961.270264 899.665466,1959.950562 
	C898.280029,1948.034668 896.902039,1946.741577 885.133606,1946.195312 
	C877.161133,1945.825073 872.695374,1941.507568 871.753052,1933.145386 
	C870.276428,1920.042480 862.519165,1911.625610 851.186279,1906.178711 
	C847.239380,1904.281982 843.108826,1903.005981 840.623840,1898.169556 
	C839.546021,1891.248169 839.012085,1884.769409 838.269958,1875.764038 
	C834.027710,1879.016602 831.840576,1880.673584 829.674927,1882.358276 
	C825.312256,1885.751831 820.897766,1886.104126 815.733704,1883.744141 
	C811.329224,1881.731445 806.248535,1881.203125 801.833618,1879.207153 
	C797.385498,1877.196045 792.917297,1874.689819 789.398926,1871.395508 
	C787.702271,1869.806641 787.802734,1865.920166 787.723022,1863.056396 
	C787.513794,1855.538330 787.652344,1848.010376 787.652344,1839.572632 
	C797.337341,1835.650879 808.291016,1831.215454 819.953186,1826.493042 
	C818.503113,1824.220581 817.318176,1822.363525 816.325073,1820.807129 
	C820.025879,1811.826660 823.638977,1803.059204 827.631836,1793.370117 
	C826.769287,1792.590576 825.337952,1791.395508 824.018921,1790.087524 
	C819.046936,1785.157349 818.794739,1784.192627 823.897339,1778.736450 
	C827.324097,1775.072266 826.675537,1772.813232 823.174561,1769.886108 
	C820.519409,1767.666016 818.451721,1764.743286 816.236816,1762.261230 
	C820.206543,1756.975952 824.354736,1752.893921 826.561096,1747.945923 
	C827.777527,1745.217529 825.733643,1741.035522 825.120483,1737.267700 
	C832.447449,1727.086304 831.998596,1719.819824 823.198914,1710.385010 
	C821.835876,1708.923828 820.504944,1707.382202 818.929138,1706.178955 
	C813.524170,1702.051636 811.600769,1697.503052 814.997437,1690.797119 
	C816.534302,1687.763062 816.171753,1683.660156 816.276184,1680.030762 
	C816.455688,1673.793091 816.325806,1667.546509 816.325806,1659.732422 
	C813.783020,1656.374512 809.359924,1654.033691 803.049072,1653.888062 
	C796.356384,1653.733887 790.318054,1651.467163 787.088867,1644.331909 
	C785.344055,1640.476440 781.814758,1637.469116 779.679382,1633.741699 
	C774.880371,1625.364380 767.853027,1623.862793 759.288818,1626.410889 
	C754.485046,1627.840210 749.654419,1629.801758 744.982544,1626.314331 
	C742.991089,1624.827881 740.711243,1623.213501 739.622864,1621.108887 
	C724.055847,1591.007080 708.670349,1560.811646 693.239319,1530.639648 
	C693.087769,1530.343384 692.840515,1530.079224 692.755432,1529.767944 
	C689.734070,1518.715820 684.024536,1511.395874 671.022583,1513.086304 
	C669.102600,1513.335938 666.767761,1511.460449 664.818726,1510.254761 
	C646.741638,1499.073364 627.379700,1493.655884 605.949097,1496.023071 
	C596.737427,1497.040527 587.405884,1497.059326 578.122803,1497.286499 
	C575.594482,1497.348389 572.685608,1497.163940 570.567993,1495.984863 
	C562.483826,1491.484253 554.056152,1487.282227 546.861023,1481.576172 
	C535.404846,1472.491211 524.159363,1472.765015 511.748932,1478.889282 
	C503.418823,1482.999878 494.426575,1483.867676 485.025787,1483.241577 
	C479.105957,1482.847290 472.757935,1483.830933 467.102570,1485.706055 
	C458.696411,1488.493286 450.474609,1491.467041 441.480164,1491.405884 
	C440.168732,1491.396973 438.517731,1491.293457 437.595367,1491.990234 
	C429.928925,1497.780884 421.056488,1495.676758 412.548401,1496.157471 
	C395.011597,1497.148071 377.495209,1498.760254 359.948578,1499.161743 
	C354.614014,1499.283813 349.023163,1496.723389 343.876740,1494.599243 
	C335.728882,1491.236328 327.841461,1489.199463 318.740234,1490.987549 
	C314.344147,1491.851074 309.185608,1489.457520 304.510681,1488.071899 
	C301.041290,1487.043457 297.920227,1484.622559 294.425415,1483.937988 
	C284.121185,1481.920044 275.976135,1476.661011 269.512451,1468.633301 
	C266.139526,1464.444214 261.726257,1462.782715 256.606750,1462.114990 
	C243.696014,1460.431274 231.300980,1457.647949 220.618332,1449.211792 
	C216.025269,1445.584839 210.026550,1443.732788 204.653564,1441.100708 
	C202.263092,1439.929688 198.941422,1439.465698 197.591980,1437.574951 
	C192.405106,1430.307739 185.074936,1431.283447 177.798264,1431.350952 
	C168.799469,1431.434326 159.798264,1431.459473 150.799896,1431.354980 
	C118.513565,1430.980103 86.228638,1430.462646 53.941566,1430.191406 
	C47.661381,1430.138794 41.378204,1431.147583 35.088154,1431.282715 
	C31.686321,1431.355713 27.581690,1433.140503 24.614944,1428.318604 
	C23.701357,1426.063599 23.449150,1424.186279 24.070107,1421.371826 
	C25.952232,1418.730347 28.126715,1416.721558 27.774471,1415.372559 
	C25.958523,1408.417603 29.751085,1403.661255 33.677818,1398.954834 
	C24.771765,1392.208008 23.321091,1385.455933 28.538700,1376.284058 
	C32.230320,1369.794678 31.524353,1367.583862 24.011969,1362.107422 
	C23.935368,1361.274292 23.858765,1360.441040 24.763887,1358.923462 
	C30.688141,1358.629150 35.630665,1359.019165 41.089870,1359.449951 
	C42.722401,1352.525513 48.133141,1350.955566 54.575127,1351.411011 
	C61.449482,1351.896973 67.481422,1349.835327 73.627502,1346.824585 
	C81.876068,1342.783936 90.408653,1337.761719 99.212486,1336.814087 
	C110.033905,1335.649292 115.610550,1329.703369 121.020248,1321.996582 
	C123.306526,1318.739746 125.617432,1315.361572 128.530487,1312.713135 
	C133.905548,1307.826294 134.811508,1301.585571 133.426819,1295.379639 
	C129.693268,1278.646606 132.587097,1262.579224 136.315231,1247.921753 
	C146.211517,1243.085083 154.984680,1238.710693 163.833954,1234.495972 
	C173.157684,1230.055420 182.659927,1225.960815 188.786224,1216.930420 
	C189.654144,1215.651001 191.495224,1215.069214 192.766403,1214.019775 
	C200.943558,1207.269043 209.015762,1200.389526 217.265808,1193.729858 
	C223.370499,1188.802002 229.692398,1184.143066 237.381500,1178.240356 
	C238.482819,1182.618408 239.325134,1184.946289 239.600967,1187.339600 
	C239.899216,1189.927124 239.668488,1192.575806 239.668488,1194.932251 
	C247.368317,1198.769165 254.495377,1198.921997 262.265808,1197.269775 
	C270.001984,1195.624878 275.718048,1191.585205 280.344177,1185.775024 
	C286.692719,1177.801636 294.561218,1174.100586 304.752747,1175.341064 
	C307.051880,1175.621094 309.424194,1175.523804 311.745697,1175.358643 
	C323.396027,1174.530396 334.818756,1178.171753 346.901794,1173.907837 
	C356.920959,1170.372192 368.497406,1171.282959 379.373962,1170.129272 
	C384.743500,1169.559937 389.191559,1170.713013 392.145447,1175.697266 
	C394.679230,1179.972778 397.429138,1184.119751 400.036743,1188.352295 
	C401.427185,1190.609131 402.185974,1193.651123 404.146210,1195.093018 
	C413.058929,1201.648560 413.358612,1211.270020 414.377960,1220.868286 
	C415.668762,1233.021851 417.381073,1245.130737 418.811188,1256.463379 
	C427.398834,1261.439819 435.462067,1260.277710 443.365662,1259.804199 
	C461.914795,1258.692505 480.436615,1257.025513 498.997223,1256.235718 
	C513.389404,1255.623169 527.431885,1254.131592 540.904053,1248.540405 
	C550.093872,1244.726318 559.439148,1241.142944 568.980652,1238.371460 
	C575.248108,1236.550781 581.988647,1236.356934 588.518311,1235.441772 
	C592.363464,1234.902832 596.430420,1234.998291 600.014832,1233.728271 
	C610.107422,1230.152222 620.143860,1227.298584 631.092712,1228.007690 
	C640.054626,1228.588257 649.084473,1228.085693 658.083740,1228.136963 
	C667.254150,1228.189209 676.019409,1226.361450 683.933655,1221.734985 
	C687.949158,1219.387817 691.641113,1218.747925 696.920837,1220.621094 
	C695.881775,1231.350098 694.870056,1241.796265 693.881653,1252.001343 
	C709.509949,1260.473999 717.965332,1257.007935 721.816956,1240.901733 
	C724.973938,1227.700073 730.774231,1216.238892 741.104736,1206.916382 
	C750.157715,1198.746704 759.468384,1190.670166 762.677368,1177.697876 
	C763.931152,1172.629272 768.689026,1169.308594 775.079529,1170.003174 
	C777.934875,1170.313599 781.309326,1170.024170 783.802185,1168.746582 
	C792.936340,1164.065063 802.937561,1163.624878 812.717041,1162.178589 
	C817.490112,1161.472534 821.850098,1160.497559 824.860718,1156.364990 
	C827.459167,1152.797974 831.007385,1151.921265 835.304993,1152.044556 
	C842.497314,1152.250977 848.912659,1153.484253 854.165039,1159.194092 
	C860.335938,1165.902222 867.568970,1168.303833 877.353821,1166.505981 
	C897.719177,1162.764160 917.503235,1157.219849 937.099792,1150.785889 
	C939.596924,1149.966187 942.134338,1148.887817 944.254333,1147.371826 
	C950.990173,1142.554810 958.644470,1141.056274 966.641724,1140.047241 
	C978.412903,1138.562256 990.119812,1136.568359 1002.694885,1134.663818 
	C1003.063965,1129.444580 1003.379944,1124.976318 1003.702148,1120.420288 
	C1000.714050,1119.336304 998.574341,1118.453247 996.370972,1117.777954 
	C981.844238,1113.325928 966.537354,1111.287109 953.072937,1103.513550 
	C951.156189,1102.406982 948.603516,1102.317627 946.313904,1101.954956 
	C930.317383,1099.420898 915.347778,1094.425293 902.970886,1083.493042 
	C892.955200,1074.646362 881.520630,1072.516724 868.671326,1075.087524 
	C865.600098,1075.701904 861.949158,1075.334839 858.991455,1074.252808 
	C848.719299,1070.494751 838.459106,1066.604980 828.534729,1062.027222 
	C820.652832,1058.391724 812.843018,1055.079224 804.199524,1053.604370 
	C797.361877,1052.437622 790.788452,1050.593994 785.917786,1044.534180 
	C783.937439,1042.070312 779.722168,1041.005615 776.311646,1040.167847 
	C768.245850,1038.186646 760.196533,1036.607422 753.316772,1031.315918 
	C748.108093,1027.309692 742.575012,1024.122925 735.603333,1022.903015 
	C729.441406,1021.824951 724.836975,1016.928711 721.108337,1011.464905 
	C717.957703,1006.848267 720.572144,1002.634277 720.630554,998.222656 
	C720.690674,993.681335 720.680481,989.080627 720.033447,984.602356 
	C719.125793,978.319336 718.034546,971.879456 721.793823,966.426697 
	C727.402954,958.290833 730.830200,949.559875 732.586304,939.866394 
	C733.733093,933.536865 737.284363,927.652283 743.176941,925.076050 
	C749.634033,922.252991 753.061707,917.431152 755.739685,911.678101 
	C759.381409,903.854553 762.570435,895.821472 766.103333,887.945312 
	C767.585449,884.641113 769.120911,881.273193 771.210388,878.347168 
	C775.545654,872.275940 776.046387,872.677063 782.488831,875.802734 
	C791.105957,879.983459 799.851379,885.870972 808.923584,886.665588 
	C821.516968,887.768555 831.717712,893.255005 842.516663,898.191040 
	C855.151550,903.966248 867.865784,909.572144 880.424072,915.508545 
	C885.177124,917.755310 890.620605,919.805603 893.942383,923.549011 
	C900.535034,930.978760 908.335876,934.919861 917.891479,936.274719 
	C920.502563,936.644897 923.309814,937.150940 925.537842,938.440125 
	C935.298889,944.088135 943.138123,940.890991 950.311157,933.666931 
	C951.011963,932.961182 951.782959,932.319092 952.560608,931.696533 
	C956.130371,928.838806 957.826660,925.438660 957.833801,920.567810 
	C957.843384,913.971680 957.995850,907.054443 959.966064,900.874023 
	C961.889099,894.841675 964.906494,887.806458 969.703857,884.340088 
	C978.161926,878.228882 988.339172,874.497070 998.724854,869.888794 
	C1003.645874,870.000671 1007.656067,870.222107 1011.626770,869.921692 
	C1015.743530,869.610168 1019.821960,868.792908 1023.917175,868.196777 
	C1026.772705,868.098267 1029.628296,867.999695 1033.329834,868.033691 
z"/>
</svg>