<svg version="1.1" id="Layer_1" xmlns="http://www.w3.org/2000/svg" xmlns:xlink="http://www.w3.org/1999/xlink" x="0px" y="0px"
	 width="100%" viewBox="0 0 2076 3198" enable-background="new 0 0 2076 3198" xml:space="preserve">

<path data-name="Dibombari" fill="#79F8DD" opacity="1.000000" stroke="none" 
	d="
M1236.649902,2814.087402 
	C1231.476929,2821.552002 1231.555786,2821.503906 1236.053467,2828.873047 
	C1239.159546,2833.961914 1242.530273,2838.982422 1244.876099,2844.424316 
	C1251.739990,2860.348389 1248.057739,2874.920166 1237.514648,2887.842529 
	C1224.554321,2903.727295 1213.767822,2920.878906 1208.807129,2940.803467 
	C1206.338135,2950.720459 1208.552856,2961.217529 1211.700928,2971.097656 
	C1213.404297,2976.443604 1215.490112,2981.667725 1217.548462,2987.346924 
	C1215.842651,2988.928223 1214.307373,2990.634521 1212.502197,2991.977783 
	C1201.738892,2999.989014 1193.770752,3000.050781 1182.716919,2992.342529 
	C1173.445190,2985.876465 1173.443481,2986.180908 1164.774536,2992.376221 
	C1161.835449,2994.476562 1157.486450,2995.542236 1153.813110,2995.471191 
	C1147.228394,2995.344238 1142.749023,2997.673096 1138.416626,3002.632080 
	C1133.203857,3008.598877 1126.832031,3013.510742 1126.588257,3022.389404 
	C1126.554199,3023.624268 1125.969116,3025.273193 1125.057251,3025.985107 
	C1119.461060,3030.352783 1117.508789,3036.603760 1115.510498,3042.981201 
	C1114.058960,3047.614014 1110.534912,3049.685547 1105.601074,3049.702637 
	C1095.437744,3049.737549 1086.342896,3052.920410 1077.486206,3058.039551 
	C1073.581909,3060.296387 1067.876831,3060.647217 1063.199585,3060.091797 
	C1054.814331,3059.096436 1047.364014,3061.156738 1040.156006,3064.728516 
	C1033.650269,3067.952637 1027.250610,3070.150635 1020.236450,3066.393799 
	C1019.664612,3066.087646 1018.958740,3065.845215 1018.325562,3065.867920 
	C1005.119873,3066.333984 991.838440,3066.140625 978.737366,3067.581299 
	C969.461670,3068.601318 963.813416,3067.270752 958.510986,3059.033203 
	C953.479248,3051.216797 948.237305,3043.511963 943.660706,3035.433594 
	C939.696838,3028.436523 933.943604,3026.103271 926.329285,3026.275146 
	C918.524597,3026.451416 912.426331,3029.476807 910.368164,3037.081543 
	C907.492065,3047.707520 899.571533,3053.896729 892.616516,3061.483887 
	C884.240356,3070.622070 874.592590,3069.929688 864.336609,3069.494629 
	C863.053894,3069.440186 861.815674,3068.576416 860.523682,3068.461914 
	C852.935242,3067.791016 847.694336,3072.621094 847.764160,3080.222900 
	C847.794617,3083.539062 848.494812,3086.905273 848.112305,3090.156982 
	C847.318176,3096.909180 844.379211,3098.677979 837.861023,3096.740723 
	C835.117371,3095.925049 832.479980,3094.752197 829.740417,3093.721436 
	C827.505310,3103.094238 825.511475,3111.968506 823.245300,3120.772461 
	C821.801575,3126.381348 824.843384,3130.482666 827.961182,3134.097412 
	C830.988403,3137.607178 835.232849,3136.404785 839.211182,3134.366699 
	C843.542175,3142.395020 830.972961,3144.242432 834.494202,3152.504639 
	C830.342163,3150.464355 827.784851,3149.207764 824.360718,3147.525146 
	C823.882019,3151.233154 823.487915,3154.285645 823.033691,3157.803711 
	C818.766663,3158.005615 814.943237,3158.186279 810.644287,3158.389648 
	C810.303528,3160.351807 809.447571,3162.081787 809.868530,3163.405518 
	C811.798218,3169.471191 811.270020,3174.801025 806.952087,3179.822510 
	C805.986572,3180.945068 806.564758,3183.457031 806.557617,3185.329590 
	C806.540710,3189.765869 806.599182,3194.202393 807.313599,3199.319336 
	C805.222229,3200.000000 802.444397,3200.000000 799.356689,3199.254883 
	C794.676697,3194.117188 789.327637,3195.639160 784.257935,3196.351318 
	C783.352295,3196.478516 782.745117,3198.729736 782.000000,3200.000000 
	C779.222229,3200.000000 776.444397,3200.000000 772.795532,3199.255371 
	C764.477478,3189.039795 765.587891,3178.344727 768.716125,3167.224854 
	C761.007202,3163.162598 754.194275,3159.401123 747.226379,3155.953125 
	C741.250854,3152.995850 729.675781,3155.201416 725.320068,3160.275146 
	C719.747559,3166.765625 713.043762,3170.260010 704.387268,3170.436035 
	C700.481567,3170.515381 695.087036,3170.345703 693.025940,3172.657959 
	C688.997498,3177.177490 684.994141,3175.576172 680.696777,3174.520752 
	C679.036255,3176.866699 677.742249,3178.759033 676.381531,3180.602295 
	C674.355652,3183.346191 661.083130,3187.419434 658.520203,3185.558105 
	C652.372009,3181.092529 646.566040,3176.156006 639.677368,3170.655518 
	C640.573914,3170.597900 639.910950,3170.600098 639.259583,3170.688477 
	C631.217651,3171.776611 623.099792,3172.542969 618.905518,3181.337891 
	C618.518555,3182.149170 614.955566,3181.445801 612.281067,3181.445801 
	C612.761292,3179.197021 613.260986,3177.954346 613.256470,3176.713379 
	C613.188904,3158.051514 627.459961,3148.514893 638.594360,3137.034424 
	C639.571899,3136.026611 641.878113,3136.434814 643.176941,3135.587158 
	C647.497559,3132.767822 653.830750,3130.504395 655.347839,3126.496582 
	C657.745544,3120.162354 662.555786,3117.469238 666.994995,3114.254639 
	C666.237915,3105.928223 666.237915,3105.928223 674.224121,3102.222168 
	C680.471802,3112.181885 691.418091,3104.640625 699.314636,3109.524170 
	C702.286743,3105.222168 704.838684,3101.528320 707.748413,3097.316650 
	C709.884949,3099.005127 711.251465,3100.443604 712.915649,3101.310791 
	C715.066040,3102.431152 717.454224,3103.095459 719.739990,3103.956055 
	C720.589294,3101.658936 722.486938,3099.167480 722.103149,3097.099121 
	C720.586548,3088.925537 723.223083,3082.105713 727.424438,3075.425781 
	C729.318359,3072.414795 730.578430,3069.005371 732.632690,3064.719482 
	C728.550964,3063.010254 725.430603,3061.312744 722.094971,3060.417969 
	C718.849731,3059.547607 716.027466,3058.204834 716.783997,3054.656006 
	C718.248962,3047.784424 714.621399,3044.238037 709.519287,3041.019287 
	C705.014282,3038.177002 703.490173,3032.896240 705.741882,3029.045898 
	C710.582092,3020.769287 709.954468,3011.869141 711.102417,3001.587402 
	C707.277344,3000.198242 703.195557,2998.318604 698.911072,2997.258545 
	C693.288208,2995.867676 688.975525,2993.653076 688.825012,2986.847168 
	C690.006714,2985.055908 691.414795,2983.190918 692.539551,2981.167969 
	C696.339478,2974.333496 694.554626,2969.733154 687.067810,2967.783203 
	C683.585022,2966.875977 679.901062,2966.652100 676.289001,2966.348877 
	C668.738708,2965.715332 664.493774,2962.917236 663.079590,2955.413330 
	C660.999023,2944.373535 659.518372,2933.189209 658.420532,2922.003906 
	C657.260071,2910.179932 658.307556,2898.721191 667.122864,2889.377197 
	C670.118469,2886.201904 668.269043,2882.651855 667.401428,2879.097168 
	C665.923950,2873.044678 664.059814,2866.896973 663.911682,2860.751953 
	C663.669739,2850.715088 662.096130,2847.926025 652.202454,2845.820068 
	C649.687683,2845.284668 647.107544,2845.056641 644.391602,2844.663574 
	C643.541321,2845.911377 642.294983,2846.923340 642.157837,2848.068359 
	C640.837830,2859.088135 634.345276,2867.677246 628.822021,2876.686035 
	C622.632080,2886.782471 617.495239,2887.113770 609.555969,2878.729248 
	C606.878174,2875.901367 603.528687,2873.631104 600.241821,2871.479248 
	C596.213379,2868.842285 592.739258,2869.802490 589.998352,2873.818604 
	C587.754944,2877.105957 585.603821,2880.526611 582.911072,2883.422119 
	C577.399353,2889.348877 572.018982,2889.103271 566.851501,2883.057861 
	C565.993347,2882.053467 565.460571,2880.770508 564.598389,2879.770508 
	C560.400635,2874.901123 558.315918,2874.692139 552.720520,2878.342285 
	C548.844055,2880.870605 544.961731,2883.393066 541.024170,2885.824219 
	C532.037048,2891.372803 522.957703,2896.774414 514.035339,2902.424561 
	C510.645996,2904.570801 508.370758,2903.329102 506.382538,2900.670654 
	C502.545868,2895.540771 497.582062,2894.311768 491.498749,2895.629395 
	C487.811951,2896.428223 483.893646,2897.345215 479.304016,2894.189209 
	C482.466949,2890.567139 485.164734,2887.477783 487.158936,2885.194092 
	C484.995514,2880.054688 482.403687,2875.777100 481.420044,2871.157227 
	C479.552338,2862.385010 473.932739,2858.379639 465.867645,2856.465332 
	C460.408508,2855.169678 455.057800,2853.407471 449.585327,2852.180908 
	C443.133911,2850.735107 436.559357,2848.441650 430.117279,2848.677246 
	C420.393005,2849.033203 412.554657,2853.574707 407.997803,2863.137451 
	C404.992523,2869.443848 399.843536,2869.596191 396.107391,2863.677246 
	C393.907501,2860.192139 392.184662,2855.904541 391.846405,2851.844727 
	C391.024109,2841.976074 388.020233,2833.171875 381.958618,2825.382080 
	C381.863251,2821.651611 381.767853,2817.921387 382.461792,2813.040039 
	C385.916779,2809.981201 388.400848,2807.710938 391.295654,2806.260498 
	C394.642426,2804.583740 395.493774,2802.405762 394.247894,2799.107666 
	C393.662201,2797.557129 392.889069,2796.063965 392.443939,2794.476562 
	C390.778625,2788.536865 394.007019,2784.824463 400.264038,2785.551025 
	C401.881927,2785.738525 403.563843,2786.208740 405.003601,2786.958008 
	C412.806152,2791.018311 417.545471,2786.217773 416.015930,2778.302734 
	C415.007111,2773.082275 411.869568,2767.945068 408.608765,2763.573486 
	C404.815308,2758.488281 403.704071,2753.984863 406.532104,2748.081299 
	C408.765472,2743.419189 411.391846,2738.373047 408.331726,2732.932861 
	C405.112518,2727.209473 403.551758,2721.648438 407.637756,2715.438232 
	C408.648376,2713.902100 407.988770,2710.774902 407.255859,2708.672363 
	C404.627167,2701.131104 406.978363,2695.143311 412.215363,2689.714600 
	C414.495209,2687.351562 416.466858,2684.691162 418.804901,2681.895020 
	C419.896301,2677.026855 421.186707,2671.271240 423.312134,2665.645996 
	C431.347900,2666.850586 438.731323,2667.249268 445.712036,2669.137207 
	C461.073700,2673.290771 476.192657,2678.331787 491.481628,2682.766113 
	C520.482971,2691.177979 549.525085,2699.449707 578.569458,2707.712402 
	C589.091919,2710.706055 599.129700,2715.045898 609.349915,2718.673340 
	C617.514099,2721.570557 624.402466,2724.629883 629.925598,2731.128662 
	C631.173157,2732.596680 633.024658,2733.675293 634.785645,2734.560059 
	C640.793518,2737.579346 644.744934,2742.103760 645.888062,2748.854736 
	C646.820496,2754.361816 650.069763,2756.872559 656.233398,2756.865234 
	C659.409058,2757.983154 661.961060,2758.738281 664.558228,2759.275146 
	C678.845032,2762.227783 693.067261,2765.605469 707.462646,2767.882324 
	C717.595154,2769.484863 728.004944,2769.240967 738.227112,2770.389160 
	C767.622375,2773.691162 797.053467,2775.799805 826.661865,2776.285400 
	C844.881042,2776.583984 863.168518,2778.198975 881.243347,2780.595703 
	C911.899048,2784.660645 942.617004,2787.348389 973.515320,2788.157227 
	C976.175293,2788.226807 978.842651,2788.257812 981.490967,2788.486816 
	C1001.656555,2790.232422 1021.795715,2792.362549 1041.987549,2793.702637 
	C1061.220337,2794.979004 1080.510742,2795.365234 1099.768188,2796.299805 
	C1110.716187,2796.830811 1121.687500,2797.309082 1132.580322,2798.456299 
	C1154.354492,2800.749512 1176.139160,2803.086914 1197.807251,2806.189697 
	C1210.864014,2808.059570 1223.709473,2811.405273 1236.649902,2814.087402 
z"/>
<path data-name="Baré-Bakem" fill="#555CE5" opacity="1.000000" stroke="none" 
	d="
M1834.117188,742.429626 
	C1834.760742,745.216553 1835.404175,748.003540 1835.885010,750.086243 
	C1835.016968,751.226135 1834.855225,751.537720 1834.607544,751.748291 
	C1832.125977,753.858521 1826.691772,753.506775 1828.295044,759.020935 
	C1829.492920,763.140320 1836.262085,767.519714 1840.029663,765.564636 
	C1848.881226,760.971191 1855.572754,761.575623 1860.204224,771.098145 
	C1864.311035,771.023193 1867.572510,775.139526 1872.318359,772.915222 
	C1876.323486,771.038086 1880.198853,771.377075 1884.049561,775.038391 
	C1886.280151,777.159241 1890.626343,777.656799 1894.064331,777.795654 
	C1905.266357,778.247986 1913.640625,782.633362 1918.223633,793.265198 
	C1919.134766,795.378601 1920.021484,797.763123 1921.632812,799.249146 
	C1923.714722,801.169067 1927.694946,804.186951 1928.811401,803.483521 
	C1935.908936,799.012817 1945.854614,803.481567 1951.005615,795.465393 
	C1956.973755,799.267578 1962.052490,802.983826 1967.570068,805.857361 
	C1971.563843,807.937256 1976.061035,809.229370 1980.474731,810.280640 
	C1986.812500,811.790222 1988.180542,812.889893 1988.249390,819.709412 
	C1988.313110,826.014038 1987.711426,832.325439 1987.777100,838.629944 
	C1987.807251,841.522644 1988.979004,844.390503 1989.163208,847.299377 
	C1989.278442,849.118713 1989.097290,852.141113 1988.060303,852.664368 
	C1978.647095,857.414429 1981.155151,865.646057 1981.527954,873.310120 
	C1981.575562,874.289307 1981.400757,875.279236 1981.274780,877.007263 
	C1977.946289,878.451233 1974.375854,880.000183 1969.837769,881.968933 
	C1970.488159,884.210388 1971.145142,886.594666 1971.873535,888.956787 
	C1973.007080,892.633057 1974.124756,896.316467 1975.375854,899.953247 
	C1976.084961,902.015137 1976.499023,904.652527 1977.991699,905.887207 
	C1983.806885,910.696777 1985.631836,916.451843 1982.972290,923.794067 
	C1989.119507,928.665955 1992.281616,934.184082 1988.323853,941.966553 
	C1987.563110,943.462463 1988.560303,947.125488 1989.962891,948.198059 
	C1993.491699,950.896362 1993.627808,953.567871 1992.985107,957.653687 
	C1992.656128,959.744141 1995.923584,962.301453 1997.327759,964.782227 
	C2001.511108,972.171997 2006.684692,977.970520 2015.545654,980.183472 
	C2018.627686,980.953186 2021.586548,984.220093 2023.556641,987.069092 
	C2029.916992,996.267334 2035.916504,1005.724731 2041.776611,1015.253540 
	C2043.526123,1018.098450 2045.476929,1019.534485 2048.807373,1019.868408 
	C2051.734375,1020.161865 2054.551025,1021.417236 2057.465820,1022.001343 
	C2066.407227,1023.793274 2074.198486,1026.971436 2077.331055,1036.505615 
	C2078.000000,1040.083374 2078.000000,1044.166626 2077.196289,1048.909912 
	C2073.925537,1050.083496 2071.458252,1050.597168 2069.164795,1051.074585 
	C2067.513184,1060.113037 2068.966797,1062.144653 2078.000000,1064.000000 
	C2078.000000,1068.741089 2078.000000,1073.482300 2078.000000,1079.111694 
	C2076.996338,1080.199951 2075.153809,1080.294556 2075.113525,1080.615479 
	C2074.357422,1086.638672 2071.291260,1091.517456 2067.864014,1096.285889 
	C2067.358887,1096.988647 2067.593994,1098.223267 2066.297852,1099.776123 
	C2056.227539,1101.446289 2049.250488,1097.263062 2044.290894,1090.846680 
	C2034.690308,1078.426147 2021.270630,1084.651245 2009.560913,1082.692627 
	C2008.646851,1082.539673 2007.451416,1084.099365 2006.379883,1084.853516 
	C1998.889038,1090.124512 1991.630981,1091.351929 1985.425415,1085.457642 
	C1975.685425,1076.206177 1960.764404,1072.548462 1957.337524,1060.028687 
	C1948.249634,1057.350464 1941.117432,1055.248657 1933.016968,1052.861450 
	C1923.967163,1057.064087 1923.522583,1058.010620 1919.447510,1068.273804 
	C1917.546265,1073.062256 1914.656982,1077.664185 1911.353882,1081.633301 
	C1907.990601,1085.674805 1903.684082,1088.976318 1899.574341,1092.337524 
	C1896.083618,1095.192505 1893.318359,1097.906372 1894.013672,1103.152466 
	C1894.296631,1105.287476 1892.249268,1107.777588 1891.124146,1110.037354 
	C1890.273071,1111.746704 1888.589355,1113.255615 1888.328369,1115.010132 
	C1886.315918,1128.541260 1878.019775,1137.242188 1867.101929,1144.423340 
	C1863.119629,1147.042725 1858.886597,1150.588745 1856.937500,1154.732666 
	C1852.164307,1164.880005 1848.924683,1175.736084 1844.546875,1186.086548 
	C1841.376221,1193.583130 1836.617920,1199.884155 1827.128784,1201.623901 
	C1824.716431,1197.688965 1821.618286,1194.017700 1820.038696,1189.780396 
	C1816.376343,1179.955444 1809.656616,1174.746948 1799.357178,1173.737793 
	C1783.067139,1172.141968 1768.871216,1165.106079 1755.253418,1156.600464 
	C1753.843262,1155.719727 1752.249390,1155.089600 1750.960938,1154.066040 
	C1747.580566,1151.380859 1744.014648,1148.831665 1741.077026,1145.706787 
	C1734.452271,1138.660278 1733.978027,1132.541382 1738.555298,1123.970581 
	C1739.775879,1121.684937 1741.665283,1118.942749 1741.283936,1116.751831 
	C1739.300293,1105.350464 1743.773682,1096.122437 1749.651001,1086.968506 
	C1757.182983,1075.237549 1761.136841,1073.973389 1774.456055,1079.439819 
	C1777.633423,1080.743896 1781.539917,1081.783813 1784.777954,1081.174438 
	C1801.603271,1078.009033 1805.083252,1064.875122 1797.950195,1052.031250 
	C1794.254883,1045.377319 1789.717773,1039.187378 1785.500610,1032.827881 
	C1781.859985,1027.338013 1776.864014,1023.955505 1770.405518,1022.195801 
	C1765.672974,1020.906372 1761.252197,1018.484253 1756.676147,1016.606506 
	C1750.901611,1014.237000 1745.110840,1011.907776 1739.071289,1009.005981 
	C1733.731812,1002.350769 1728.780273,996.133972 1723.526611,990.184204 
	C1718.464233,984.451111 1712.973022,979.097473 1707.893555,973.378662 
	C1704.516235,969.576050 1700.932129,966.588928 1695.847168,965.047241 
	C1684.796875,961.697205 1675.334595,955.693726 1668.025879,946.531311 
	C1663.548706,940.918701 1657.776123,937.357605 1650.876221,935.088623 
	C1645.556763,933.339294 1640.639160,930.368408 1635.605225,927.049561 
	C1637.567383,910.390137 1639.781616,894.650940 1641.239624,878.842041 
	C1642.019043,870.393311 1643.988403,862.081909 1642.342285,853.288330 
	C1640.156006,841.609436 1638.609619,829.675781 1638.313232,817.813538 
	C1637.974976,804.270325 1639.563599,790.689636 1639.799438,777.116211 
	C1639.895386,771.589783 1642.150513,768.591309 1647.017578,766.600220 
	C1654.016235,763.736938 1660.204224,759.764160 1666.343140,755.073547 
	C1673.125488,749.891296 1681.278564,745.743530 1690.916016,745.907166 
	C1697.395996,746.017151 1704.875000,745.685364 1710.227783,742.619324 
	C1725.143555,734.075806 1740.652832,740.812927 1755.752808,739.469116 
	C1765.922852,738.564026 1776.027466,745.089233 1786.926636,744.120422 
	C1788.943970,743.941040 1791.738037,745.055237 1793.114624,746.548523 
	C1796.822021,750.570312 1800.106689,749.104431 1804.629517,747.891235 
	C1814.252563,745.309937 1823.386353,739.167175 1834.117188,742.429626 
z"/>
<path data-name="Melong" fill="#A13893" opacity="1.000000" stroke="none" 
	d="
M1483.806030,857.847473 
	C1481.307007,844.422913 1470.852661,835.731323 1464.195435,824.778870 
	C1462.543823,822.061768 1460.869507,819.140076 1460.188599,816.092773 
	C1458.226807,807.313232 1452.857300,801.992065 1443.830933,799.639832 
	C1433.451904,796.935303 1423.108887,794.001526 1412.956543,790.558472 
	C1407.997559,788.876587 1403.240356,786.201721 1398.906738,783.226257 
	C1396.429199,781.525269 1393.843872,778.549072 1393.276611,775.748169 
	C1390.950684,764.263184 1384.896729,755.884399 1375.935425,748.309570 
	C1359.786133,734.659058 1354.039307,721.224854 1354.499146,699.798096 
	C1354.703125,690.299255 1351.456299,683.135559 1345.243164,676.626404 
	C1337.572998,668.590759 1333.300049,659.339539 1334.096313,647.829956 
	C1334.408813,643.313110 1333.062622,638.658081 1332.294189,634.095886 
	C1331.395874,628.762756 1330.725586,623.552917 1335.630737,619.806824 
	C1333.279175,614.421204 1331.820923,608.844360 1328.679810,604.478088 
	C1325.098145,599.499451 1325.817139,594.569458 1326.491089,588.384094 
	C1314.487671,586.716797 1306.703125,574.388367 1293.279297,575.957825 
	C1289.398193,576.411560 1285.528442,576.962524 1281.646606,577.409729 
	C1278.700562,577.749146 1275.742432,578.247925 1272.791992,578.231995 
	C1265.572144,578.192932 1265.801270,578.036682 1264.078125,570.577942 
	C1262.063599,561.856934 1258.999878,553.339783 1257.535034,544.543762 
	C1256.527710,538.494385 1257.135742,532.094360 1257.631714,525.899902 
	C1258.106445,519.970276 1259.466919,514.116882 1260.263184,508.206421 
	C1261.588135,498.371521 1257.388672,490.247986 1250.400513,484.286194 
	C1244.961792,479.646240 1244.230225,474.471008 1246.702515,469.327606 
	C1251.747681,458.831329 1248.814087,449.378693 1244.842529,439.745819 
	C1244.085449,437.909576 1242.315063,435.953583 1242.589600,434.317566 
	C1244.279907,424.246185 1237.927368,417.268738 1234.295288,408.959015 
	C1228.699097,396.155334 1220.750610,386.069458 1209.889038,377.580017 
	C1205.986938,374.530090 1203.301636,370.169403 1201.736328,364.620422 
	C1199.777344,357.675293 1195.111938,351.435425 1191.210571,345.141693 
	C1190.351074,343.755310 1187.437622,342.355591 1186.088379,342.807587 
	C1182.455688,344.024506 1180.961304,341.800659 1178.517456,340.085571 
	C1170.505981,334.463074 1170.558350,334.241486 1173.293701,324.884399 
	C1177.112793,311.820129 1180.368774,298.556610 1179.648438,284.766602 
	C1179.354980,279.148621 1178.267578,273.575836 1177.823608,267.960144 
	C1177.647705,265.735718 1178.239136,263.450623 1178.511475,260.911285 
	C1188.012817,257.977264 1194.833984,263.513306 1201.688232,267.502075 
	C1211.118652,272.990112 1219.936279,279.520081 1229.153442,285.388611 
	C1240.821411,292.817566 1254.526978,288.326477 1260.014893,275.406982 
	C1263.507202,267.185089 1266.412109,258.673645 1270.445068,250.731064 
	C1276.053833,239.685410 1286.122314,234.609756 1298.031128,233.894058 
	C1304.785889,233.488113 1310.627930,232.861816 1316.386719,228.332520 
	C1320.174438,225.353363 1326.144165,224.699921 1331.273560,223.983322 
	C1338.429688,222.983582 1345.712769,222.890640 1352.942749,222.426437 
	C1354.270752,222.341187 1355.607178,222.253479 1356.934082,222.306870 
	C1367.761475,222.742401 1378.585693,223.272980 1389.416016,223.611130 
	C1391.298218,223.669907 1393.204468,222.958694 1396.193848,222.397827 
	C1392.983398,190.538864 1389.959473,159.072433 1382.384277,127.943947 
	C1388.369873,122.393631 1396.197266,123.589188 1403.090942,122.522942 
	C1409.076050,121.597206 1413.864502,119.648788 1418.125244,114.654419 
	C1420.974487,113.765442 1423.574829,113.571457 1426.907593,113.666245 
	C1427.792480,114.251259 1427.928345,114.796593 1428.100342,114.808266 
	C1440.704712,115.663597 1445.822144,125.633545 1451.669678,134.463348 
	C1456.289307,141.438950 1453.710571,148.932159 1450.688477,155.363434 
	C1447.810181,161.488388 1445.758301,167.420639 1445.660645,174.147003 
	C1445.581421,179.613541 1443.110840,183.639420 1437.871216,185.815765 
	C1435.740112,186.700958 1433.799194,188.037445 1431.683472,188.967453 
	C1419.785522,194.197220 1416.496338,204.314560 1416.044434,216.135086 
	C1415.891235,220.142792 1415.278320,223.321289 1410.798340,225.794235 
	C1405.774414,228.567322 1406.023438,234.752548 1406.859375,239.893784 
	C1407.720215,245.189240 1409.242920,250.200500 1404.900391,254.828094 
	C1403.934448,255.857452 1403.361206,258.225739 1403.853271,259.494171 
	C1406.850952,267.223114 1404.960938,276.336395 1410.591187,283.264191 
	C1412.050537,285.059906 1413.355347,287.479309 1415.289917,288.308472 
	C1426.605591,293.158356 1434.881348,302.384125 1445.231201,308.562500 
	C1446.465576,309.299347 1448.168823,309.412415 1449.669922,309.480408 
	C1450.587036,309.521973 1452.119385,308.399841 1452.380371,308.691345 
	C1459.925903,317.118378 1470.025146,311.499939 1478.623535,312.551483 
	C1486.057129,313.460571 1492.955933,315.208893 1500.054688,317.015106 
	C1502.786011,317.710083 1505.894409,316.876251 1508.832642,316.819885 
	C1511.104736,316.776306 1514.269409,315.906158 1515.496460,317.052582 
	C1520.424683,321.656677 1523.805542,318.733673 1527.538940,315.610809 
	C1531.096924,312.634735 1534.790894,309.819916 1538.455200,306.972870 
	C1541.671631,304.473785 1544.281616,301.797363 1544.462402,297.242157 
	C1544.531372,295.505646 1546.111328,293.748810 1547.214722,292.147461 
	C1551.902100,285.345642 1556.668701,278.598267 1561.408447,271.832550 
	C1561.789673,271.288330 1562.099121,270.649994 1562.593018,270.235229 
	C1567.576294,266.049591 1574.303101,265.603241 1579.536133,262.876770 
	C1584.654541,260.209991 1588.677002,254.123016 1595.046631,254.156631 
	C1598.725952,254.176041 1602.388062,257.467926 1606.934814,259.721649 
	C1608.312500,259.340820 1610.837158,257.985321 1613.243652,258.169678 
	C1615.484375,258.341309 1618.117554,259.669586 1619.668945,261.335358 
	C1623.726562,265.691620 1627.527954,267.673279 1631.359863,264.594177 
	C1636.245972,260.668121 1643.687744,260.937378 1646.983765,254.596756 
	C1647.353882,253.884628 1649.348877,254.017090 1650.856567,253.702377 
	C1653.668213,259.452881 1652.237915,264.051422 1648.719971,268.563660 
	C1637.516479,282.933685 1630.481079,299.255890 1625.991577,317.777252 
	C1631.024902,316.977692 1635.467285,316.067383 1639.955688,315.615784 
	C1644.563599,315.152100 1649.219971,315.188599 1653.849243,314.911255 
	C1659.154663,314.593384 1664.521606,313.506195 1669.731323,314.035736 
	C1673.024414,314.370514 1676.118286,316.979462 1679.231445,318.695648 
	C1683.832886,321.232300 1688.184692,324.325165 1692.990845,326.358459 
	C1697.767334,328.379211 1703.064941,328.663696 1706.840820,333.322052 
	C1708.607666,335.501923 1712.140015,336.070343 1715.964111,334.681519 
	C1719.333862,333.457672 1723.618652,334.695282 1727.491821,334.957275 
	C1728.428467,335.020630 1729.404663,335.914520 1730.245605,335.765594 
	C1746.662476,332.857910 1757.449829,343.423584 1768.694458,352.281860 
	C1771.004272,354.101532 1771.765869,358.631134 1772.135742,362.031830 
	C1773.345215,373.154633 1777.146118,376.551086 1787.965576,375.282745 
	C1788.923462,375.170471 1789.926880,374.794556 1790.826660,374.968475 
	C1793.010498,375.390656 1795.145630,376.064850 1798.841553,377.047089 
	C1796.331055,378.478882 1794.953125,379.264648 1793.017700,380.368408 
	C1793.819580,381.535492 1795.587769,382.964539 1795.513184,384.289917 
	C1795.419800,385.949341 1793.812988,387.523529 1792.694214,389.413635 
	C1794.365845,389.876984 1795.845215,390.287079 1797.296265,390.689301 
	C1798.849487,396.932678 1796.314941,404.501160 1804.716187,408.448456 
	C1807.049194,409.544647 1807.411987,414.834229 1808.774048,418.453400 
	C1810.050049,417.591736 1811.392456,416.685272 1813.446289,415.298462 
	C1815.261963,420.424774 1817.329224,424.817047 1818.243164,429.437469 
	C1818.715454,431.824371 1825.602295,431.035889 1820.953125,435.336792 
	C1826.098511,441.623016 1821.365845,445.942444 1818.047852,450.699585 
	C1819.192627,452.558899 1820.505859,454.568817 1821.683594,456.655212 
	C1822.301636,457.750031 1822.856079,460.040070 1823.144775,459.992798 
	C1831.923828,458.554504 1830.352661,466.716339 1833.579346,470.310852 
	C1832.131714,471.840424 1831.047241,472.986450 1829.546387,474.572357 
	C1831.788574,475.973267 1833.668091,477.147614 1835.364258,478.207306 
	C1832.437378,483.728973 1829.544312,487.785583 1828.178223,492.303925 
	C1827.392212,494.903809 1828.065063,499.240540 1829.849854,501.068054 
	C1834.391724,505.718201 1831.537598,508.994476 1828.796265,512.257202 
	C1826.283569,515.247864 1823.782104,517.622375 1823.825073,522.258057 
	C1823.845947,524.512146 1820.139038,526.800781 1817.827759,529.402283 
	C1819.539307,529.925232 1821.708008,530.587830 1825.479736,531.740234 
	C1821.415161,533.190308 1818.968872,534.063110 1815.377441,535.344360 
	C1818.643799,538.220337 1823.267456,540.706604 1822.981079,542.322327 
	C1821.920288,548.305420 1825.789917,549.803223 1830.949585,551.789978 
	C1828.087891,554.311890 1826.111938,556.053223 1823.349854,558.487183 
	C1826.499390,559.602234 1828.766113,560.404724 1831.082886,561.224976 
	C1828.678345,565.829407 1826.386963,570.216858 1822.968872,576.761780 
	C1819.861328,578.295471 1814.773926,581.726868 1809.165161,583.303955 
	C1804.015381,584.752014 1801.861328,587.096252 1802.020508,592.185120 
	C1802.081787,594.140320 1801.749268,596.107910 1801.561890,598.508301 
	C1798.639160,599.244263 1795.846558,599.947449 1793.158569,600.624329 
	C1792.736328,601.294678 1792.063843,601.861816 1792.102173,602.375793 
	C1792.754028,611.097778 1793.259399,619.843689 1794.386230,628.507690 
	C1794.653320,630.561462 1796.737305,633.520020 1798.556152,634.030884 
	C1805.925293,636.100586 1809.461426,642.603821 1814.647095,647.109436 
	C1815.847168,648.152039 1815.914551,651.470337 1815.337036,653.390808 
	C1814.011597,657.798035 1814.482056,661.404785 1816.420776,665.737427 
	C1818.110229,669.513123 1817.329346,674.394165 1817.742554,680.236511 
	C1825.109009,687.564453 1825.109009,687.564453 1820.507324,697.293274 
	C1822.678589,698.586121 1824.886353,699.900635 1826.980713,701.147644 
	C1827.210449,701.931152 1827.739258,702.728088 1827.526611,703.160156 
	C1824.199707,709.918335 1826.657593,715.970764 1831.478516,720.118652 
	C1838.961914,726.557190 1839.090820,733.334106 1834.620850,741.851929 
	C1823.386353,739.167175 1814.252563,745.309937 1804.629517,747.891235 
	C1800.106689,749.104431 1796.822021,750.570312 1793.114624,746.548523 
	C1791.738037,745.055237 1788.943970,743.941040 1786.926636,744.120422 
	C1776.027466,745.089233 1765.922852,738.564026 1755.752808,739.469116 
	C1740.652832,740.812927 1725.143555,734.075806 1710.227783,742.619324 
	C1704.875000,745.685364 1697.395996,746.017151 1690.916016,745.907166 
	C1681.278564,745.743530 1673.125488,749.891296 1666.343140,755.073547 
	C1660.204224,759.764160 1654.016235,763.736938 1647.017578,766.600220 
	C1642.150513,768.591309 1639.895386,771.589783 1639.799438,777.116211 
	C1639.563599,790.689636 1637.974976,804.270325 1638.313232,817.813538 
	C1638.609619,829.675781 1640.156006,841.609436 1642.342285,853.288330 
	C1643.988403,862.081909 1642.019043,870.393311 1641.239624,878.842041 
	C1639.781616,894.650940 1637.567383,910.390137 1635.023438,927.359436 
	C1625.617432,928.984070 1616.927246,926.140015 1608.106567,928.026978 
	C1606.957031,928.272827 1605.443481,927.676025 1604.324585,927.059326 
	C1599.173950,924.220276 1594.239502,920.959656 1588.972168,918.369141 
	C1581.318237,914.604736 1573.709473,910.378601 1565.596069,908.015076 
	C1556.163574,905.267212 1546.179321,904.458435 1536.487793,902.539429 
	C1530.011597,901.256958 1523.628052,899.505676 1516.648193,897.660278 
	C1513.261108,895.812500 1509.682251,894.896912 1507.747803,892.597656 
	C1503.333374,887.351135 1499.679565,881.457520 1495.800903,875.769409 
	C1491.751221,869.830505 1487.800171,863.824280 1483.806030,857.847473 
z"/>
<path data-name="Abo fiko" fill="#D9AD8B" opacity="1.000000" stroke="none" 
	d="
M1237.224609,2813.755859 
	C1223.709473,2811.405273 1210.864014,2808.059570 1197.807251,2806.189697 
	C1176.139160,2803.086914 1154.354492,2800.749512 1132.580322,2798.456299 
	C1121.687500,2797.309082 1110.716187,2796.830811 1099.768188,2796.299805 
	C1080.510742,2795.365234 1061.220337,2794.979004 1041.987549,2793.702637 
	C1021.795715,2792.362549 1001.656555,2790.232422 981.490967,2788.486816 
	C978.842651,2788.257812 976.175293,2788.226807 973.515320,2788.157227 
	C942.617004,2787.348389 911.899048,2784.660645 881.243347,2780.595703 
	C863.168518,2778.198975 844.881042,2776.583984 826.661865,2776.285400 
	C797.053467,2775.799805 767.622375,2773.691162 738.227112,2770.389160 
	C728.004944,2769.240967 717.595154,2769.484863 707.462646,2767.882324 
	C693.067261,2765.605469 678.845032,2762.227783 664.558228,2759.275146 
	C661.961060,2758.738281 659.409058,2757.983154 656.581421,2756.201660 
	C665.024719,2744.720947 668.692505,2733.010254 664.196655,2719.943115 
	C660.867615,2710.267822 662.713440,2701.725342 667.391541,2693.249268 
	C668.677490,2690.919434 669.509521,2688.307373 670.986145,2686.119385 
	C677.914307,2675.854248 676.457520,2664.447754 675.216125,2653.263428 
	C674.614990,2647.847656 673.324036,2642.002930 670.536987,2637.462891 
	C667.023193,2631.739014 665.513000,2626.176025 665.871521,2619.639648 
	C666.211243,2613.446045 665.679749,2607.203613 666.045776,2601.013184 
	C666.275757,2597.122803 666.769409,2592.979492 668.344299,2589.491455 
	C671.950623,2581.504150 673.363708,2573.607422 669.535156,2565.465088 
	C666.628906,2559.283936 668.816650,2554.427002 673.036316,2550.121582 
	C679.789978,2543.230225 686.759399,2536.597900 696.336487,2533.592041 
	C698.173462,2533.015625 700.217041,2531.989258 701.372498,2530.538574 
	C706.732910,2523.808350 711.684570,2516.752441 717.033813,2510.012695 
	C721.940002,2503.831055 726.238525,2496.550537 732.513733,2492.244629 
	C738.831299,2487.909912 747.095520,2485.296387 754.797241,2484.386475 
	C763.733032,2483.330322 771.409973,2480.001709 776.417542,2473.592285 
	C781.471802,2467.123535 787.062195,2466.896973 793.035645,2468.933838 
	C799.503784,2471.139404 803.126831,2468.510498 806.717957,2464.066406 
	C808.345276,2462.052734 810.119934,2458.759766 812.018616,2458.618652 
	C818.412720,2458.144531 822.357849,2453.634766 826.290039,2450.084961 
	C831.437134,2445.438965 836.547485,2443.170654 843.292664,2443.937256 
	C850.115417,2444.712646 855.677734,2442.221191 860.043457,2436.964600 
	C864.816895,2431.217285 870.890503,2427.390381 877.534546,2424.028320 
	C882.174988,2421.679932 886.155762,2417.978516 890.301575,2414.716553 
	C894.501404,2411.412109 894.947083,2407.160645 891.296204,2403.520508 
	C887.997559,2400.231445 887.969238,2396.599854 887.979919,2392.570312 
	C888.003235,2383.816895 889.770569,2374.686768 881.927124,2367.786621 
	C883.963867,2366.281006 884.935425,2365.322266 886.096191,2364.743408 
	C894.402954,2360.602295 902.770996,2356.583984 911.077087,2352.441406 
	C937.599976,2339.213623 964.110413,2325.960938 990.611023,2312.688477 
	C997.265930,2309.355713 1004.056274,2307.116211 1011.704163,2308.267334 
	C1017.249878,2309.102051 1022.870422,2309.452393 1028.462769,2309.961670 
	C1035.048828,2310.561523 1041.711548,2310.672363 1048.215942,2311.749756 
	C1064.738770,2314.486816 1081.224365,2313.748779 1097.670898,2311.622559 
	C1103.916016,2310.814941 1109.812744,2308.409180 1114.750610,2304.147461 
	C1119.270752,2300.246338 1123.905029,2296.477539 1128.449951,2292.604492 
	C1133.660034,2288.164795 1139.216064,2285.295410 1146.513184,2285.892090 
	C1152.081909,2286.347656 1158.307129,2286.854492 1163.267700,2284.886719 
	C1172.031128,2281.410156 1179.221313,2283.584961 1186.932861,2287.312988 
	C1194.476196,2290.959229 1202.468140,2292.468994 1210.889771,2289.968262 
	C1218.514282,2287.703857 1226.370728,2286.159912 1233.869507,2283.561768 
	C1237.064453,2282.454834 1239.610107,2279.473877 1242.450684,2277.344482 
	C1249.861694,2280.121094 1257.272583,2282.897461 1264.875122,2285.745850 
	C1268.693481,2280.209961 1272.509521,2275.387695 1280.081177,2275.935059 
	C1281.777344,2276.057617 1283.810181,2273.484863 1285.450195,2271.905762 
	C1287.313599,2270.111328 1288.910278,2268.039795 1291.036743,2265.617432 
	C1299.407715,2270.966797 1310.005127,2269.524170 1317.639893,2276.306396 
	C1318.511475,2277.080811 1320.671753,2276.656250 1322.178101,2276.423584 
	C1331.162476,2275.036133 1332.805420,2276.432861 1332.134033,2285.543945 
	C1331.354492,2296.123291 1330.484009,2306.697266 1329.518555,2317.260986 
	C1328.312744,2330.452393 1326.897583,2343.624756 1325.702881,2356.817139 
	C1323.881226,2376.932617 1322.050781,2397.048828 1320.458984,2417.183350 
	C1319.518555,2429.080566 1318.665649,2441.007080 1318.453491,2452.932617 
	C1318.280762,2462.644043 1316.611328,2471.898438 1314.456543,2481.368408 
	C1312.130249,2491.592285 1312.546265,2502.439697 1311.756226,2513.014160 
	C1309.188599,2547.375732 1306.591187,2581.734863 1304.056030,2616.098877 
	C1302.543945,2636.594482 1301.900513,2657.190674 1299.442749,2677.569824 
	C1297.146851,2696.606689 1295.037598,2716.074463 1286.028809,2733.408936 
	C1279.482056,2746.006104 1271.034058,2757.604004 1263.664795,2769.787109 
	C1254.913696,2784.254639 1246.410156,2798.871826 1237.224609,2813.755859 
z"/>
<path data-name="Mbanga" fill="#F49AB8" opacity="1.000000" stroke="none" 
	d="
M1242.437256,2276.553223 
	C1239.610107,2279.473877 1237.064453,2282.454834 1233.869507,2283.561768 
	C1226.370728,2286.159912 1218.514282,2287.703857 1210.889771,2289.968262 
	C1202.468140,2292.468994 1194.476196,2290.959229 1186.932861,2287.312988 
	C1179.221313,2283.584961 1172.031128,2281.410156 1163.267700,2284.886719 
	C1158.307129,2286.854492 1152.081909,2286.347656 1146.513184,2285.892090 
	C1139.216064,2285.295410 1133.660034,2288.164795 1128.449951,2292.604492 
	C1123.905029,2296.477539 1119.270752,2300.246338 1114.750610,2304.147461 
	C1109.812744,2308.409180 1103.916016,2310.814941 1097.670898,2311.622559 
	C1081.224365,2313.748779 1064.738770,2314.486816 1048.215942,2311.749756 
	C1041.711548,2310.672363 1035.048828,2310.561523 1028.462769,2309.961670 
	C1022.870422,2309.452393 1017.249878,2309.102051 1011.704163,2308.267334 
	C1004.056274,2307.116211 997.265930,2309.355713 990.611023,2312.688477 
	C964.110413,2325.960938 937.599976,2339.213623 911.077087,2352.441406 
	C902.770996,2356.583984 894.402954,2360.602295 886.096191,2364.743408 
	C884.935425,2365.322266 883.963867,2366.281006 881.927124,2367.786621 
	C889.770569,2374.686768 888.003235,2383.816895 887.979919,2392.570312 
	C887.969238,2396.599854 887.997559,2400.231445 891.296204,2403.520508 
	C894.947083,2407.160645 894.501404,2411.412109 890.301575,2414.716553 
	C886.155762,2417.978516 882.174988,2421.679932 877.534546,2424.028320 
	C870.890503,2427.390381 864.816895,2431.217285 860.043457,2436.964600 
	C855.677734,2442.221191 850.115417,2444.712646 843.292664,2443.937256 
	C836.547485,2443.170654 831.437134,2445.438965 826.290039,2450.084961 
	C822.357849,2453.634766 818.412720,2458.144531 812.018616,2458.618652 
	C810.119934,2458.759766 808.345276,2462.052734 806.717957,2464.066406 
	C803.126831,2468.510498 799.503784,2471.139404 793.035645,2468.933838 
	C787.062195,2466.896973 781.471802,2467.123535 776.417542,2473.592285 
	C771.409973,2480.001709 763.733032,2483.330322 754.797241,2484.386475 
	C747.095520,2485.296387 738.831299,2487.909912 732.513733,2492.244629 
	C726.238525,2496.550537 721.940002,2503.831055 717.033813,2510.012695 
	C711.684570,2516.752441 706.732910,2523.808350 701.372498,2530.538574 
	C700.217041,2531.989258 698.173462,2533.015625 696.336487,2533.592041 
	C686.759399,2536.597900 679.789978,2543.230225 673.036316,2550.121582 
	C668.816650,2554.427002 666.628906,2559.283936 669.535156,2565.465088 
	C673.363708,2573.607422 671.950623,2581.504150 668.344299,2589.491455 
	C666.769409,2592.979492 666.275757,2597.122803 666.045776,2601.013184 
	C665.679749,2607.203613 666.211243,2613.446045 665.871521,2619.639648 
	C665.513000,2626.176025 667.023193,2631.739014 670.536987,2637.462891 
	C673.324036,2642.002930 674.614990,2647.847656 675.216125,2653.263428 
	C676.457520,2664.447754 677.914307,2675.854248 670.986145,2686.119385 
	C669.509521,2688.307373 668.677490,2690.919434 667.391541,2693.249268 
	C662.713440,2701.725342 660.867615,2710.267822 664.196655,2719.943115 
	C668.692505,2733.010254 665.024719,2744.720947 655.978638,2755.737793 
	C650.069763,2756.872559 646.820496,2754.361816 645.888062,2748.854736 
	C644.744934,2742.103760 640.793518,2737.579346 634.785645,2734.560059 
	C633.024658,2733.675293 631.173157,2732.596680 629.925598,2731.128662 
	C624.402466,2724.629883 617.514099,2721.570557 609.349915,2718.673340 
	C599.129700,2715.045898 589.091919,2710.706055 578.569458,2707.712402 
	C549.525085,2699.449707 520.482971,2691.177979 491.481628,2682.766113 
	C476.192657,2678.331787 461.073700,2673.290771 445.712036,2669.137207 
	C438.731323,2667.249268 431.347900,2666.850586 423.312103,2665.645996 
	C424.253662,2657.206543 426.030243,2648.897461 427.904144,2640.133301 
	C433.998657,2637.027588 437.831665,2643.694336 443.531464,2645.841309 
	C445.167297,2637.764893 439.150604,2633.297363 436.431061,2626.969971 
	C441.729462,2618.875732 450.698151,2623.463379 458.782806,2620.947266 
	C458.512024,2617.539551 458.219391,2613.856689 457.925262,2610.154785 
	C462.873566,2608.150635 467.521637,2606.268066 472.789948,2604.134277 
	C472.356781,2604.041748 472.737457,2604.019531 472.981049,2604.191406 
	C475.182373,2605.746582 476.371399,2610.504395 479.830627,2607.794434 
	C481.471741,2606.508545 481.965576,2602.375732 481.372528,2599.920654 
	C480.283447,2595.412109 481.916046,2592.820557 485.551422,2591.053467 
	C489.655334,2589.058838 491.775177,2586.281738 490.457611,2581.567383 
	C490.285828,2580.952881 490.189484,2580.086670 490.488770,2579.604248 
	C497.104218,2568.938721 490.251160,2559.108398 488.264008,2549.125977 
	C487.434326,2544.958008 483.983490,2541.312012 481.154724,2536.449463 
	C485.461182,2535.118408 489.660217,2533.820801 494.280762,2532.392822 
	C494.223602,2527.543213 490.575897,2525.114258 487.067749,2522.854492 
	C483.016815,2520.244629 481.648407,2516.885742 484.165955,2512.837646 
	C486.638977,2508.861328 490.955597,2508.917969 494.733978,2510.269531 
	C498.660828,2511.674805 502.244324,2514.039551 507.801880,2516.935059 
	C506.916351,2504.872803 509.120789,2496.028076 517.288025,2488.214111 
	C524.729980,2481.094238 531.067993,2473.982666 543.665161,2475.907471 
	C543.665161,2471.545166 543.686584,2468.056885 543.660217,2464.569092 
	C543.618286,2459.020508 544.024597,2453.410156 543.324036,2447.943604 
	C542.812134,2443.948975 540.825989,2440.143555 539.380859,2435.913818 
	C542.293518,2428.499023 548.756958,2435.981934 554.167908,2432.312500 
	C554.413513,2431.921143 555.467041,2430.291748 556.471802,2428.633057 
	C559.870789,2423.020508 564.176392,2419.119385 571.218872,2418.268066 
	C576.046570,2417.684326 580.690125,2415.577881 586.180115,2413.921631 
	C588.201721,2402.678711 590.154724,2391.698486 592.157959,2380.727295 
	C593.143066,2375.331787 595.727478,2370.510254 594.705750,2364.392578 
	C593.680420,2358.253418 601.076538,2356.116211 608.101196,2360.174805 
	C614.018555,2363.593506 614.018555,2363.593506 619.424866,2361.508057 
	C619.034851,2350.507568 611.962524,2343.881348 600.390686,2343.785156 
	C598.407227,2343.768799 596.419006,2344.308105 594.435669,2344.289795 
	C587.285400,2344.224121 583.180481,2340.682129 584.588257,2333.800781 
	C586.666260,2323.644287 585.771545,2314.147461 582.595276,2304.480713 
	C581.703186,2301.765625 581.601807,2298.262939 582.509033,2295.586426 
	C584.940491,2288.412354 582.776794,2282.122314 580.825867,2275.312500 
	C578.952271,2268.772705 578.322998,2261.659912 578.445618,2254.822021 
	C578.588989,2246.827148 577.762695,2239.385498 571.947083,2233.606445 
	C567.540955,2229.228271 567.084167,2222.532715 561.035889,2218.685791 
	C557.183655,2216.235596 559.667969,2210.207520 562.410645,2207.403564 
	C566.046326,2206.878418 569.736938,2207.402588 571.068542,2205.873291 
	C572.583313,2204.133789 572.290955,2200.550293 572.210938,2197.785156 
	C572.155701,2195.875732 570.953979,2194.029785 570.566345,2192.094727 
	C569.238586,2185.466797 570.853210,2183.061768 577.904297,2182.442627 
	C581.208435,2182.152344 583.256104,2181.087646 585.334717,2178.510986 
	C587.359802,2176.000488 590.299255,2174.154785 593.028931,2172.299316 
	C600.676819,2167.100342 601.131226,2161.082031 594.195984,2154.609375 
	C589.581665,2150.302734 585.051819,2146.022461 578.404541,2144.754883 
	C575.590393,2144.217773 573.028687,2142.357178 570.604004,2141.216553 
	C568.927734,2127.739014 570.190552,2125.818115 582.399414,2122.198242 
	C585.569397,2121.258301 588.863953,2120.431885 591.743530,2118.886719 
	C597.001587,2116.065430 597.225464,2112.822021 596.838623,2106.620117 
	C596.341553,2098.651123 592.360046,2094.343262 585.935364,2090.472412 
	C577.817749,2085.581787 578.510986,2080.425049 587.018494,2076.116455 
	C595.192139,2071.976807 603.305054,2067.717285 610.996094,2063.742432 
	C616.038025,2068.107910 611.180908,2070.556641 611.152832,2074.104492 
	C612.291687,2074.723389 613.573425,2075.941406 614.962402,2076.079102 
	C619.522949,2076.531250 618.846191,2080.651611 618.959351,2082.919678 
	C619.032776,2084.389648 615.730042,2086.663818 613.537354,2087.440430 
	C611.141541,2088.289062 608.125610,2087.337646 605.681396,2088.116699 
	C604.187195,2088.592773 602.714478,2090.708984 602.288635,2092.361084 
	C602.042236,2093.316895 603.620056,2095.392822 604.845459,2095.970459 
	C611.468445,2099.091553 618.203369,2099.755127 626.293701,2095.512207 
	C649.324036,2099.248779 670.831909,2103.445557 692.430420,2107.107422 
	C708.458313,2109.824951 724.559814,2113.392090 740.706604,2113.855225 
	C773.316833,2114.789795 805.982788,2114.048828 838.619873,2113.585938 
	C846.501221,2113.474365 855.289124,2113.660400 862.035217,2110.374023 
	C875.997498,2103.572510 888.868042,2094.529541 903.111572,2086.341064 
	C924.589294,2086.074707 945.134949,2085.061523 965.702271,2086.148926 
	C971.120178,2086.435303 976.121460,2086.464844 980.453064,2090.613281 
	C984.335205,2094.331055 988.613708,2094.190430 992.631042,2089.413086 
	C990.533813,2086.266113 987.342834,2083.485107 986.835205,2080.278809 
	C985.908752,2074.427490 986.571716,2068.324707 986.571716,2061.678223 
	C995.099670,2062.503906 999.953308,2068.127930 1005.489136,2072.741211 
	C1008.717651,2075.431396 1012.229187,2078.844727 1016.054138,2079.553223 
	C1026.694824,2081.523682 1035.273560,2086.421143 1042.804688,2093.948975 
	C1044.734253,2095.877686 1047.795044,2097.241455 1050.531616,2097.700195 
	C1063.818359,2099.928955 1072.390503,2109.226074 1081.505005,2117.750488 
	C1081.828613,2118.053223 1081.546143,2119.003662 1081.543701,2119.652344 
	C1074.333252,2128.421631 1074.422241,2128.769043 1064.043335,2131.426025 
	C1059.150146,2132.678955 1056.831055,2135.006836 1057.837646,2139.686035 
	C1059.324097,2146.597168 1057.991943,2154.621582 1065.265015,2159.507080 
	C1066.458862,2160.309326 1067.085815,2162.310059 1067.483276,2163.880859 
	C1069.101196,2170.275879 1073.593506,2172.033936 1079.500732,2171.647705 
	C1082.049927,2171.481201 1084.591553,2171.200195 1086.942871,2170.988770 
	C1093.311646,2181.215576 1095.571411,2181.821045 1111.233398,2178.029053 
	C1114.489746,2180.872803 1117.361084,2185.482910 1120.619019,2185.774414 
	C1126.811523,2186.329102 1131.145142,2189.250977 1135.735474,2192.555176 
	C1138.409302,2194.479980 1141.333008,2197.346191 1144.224609,2197.445557 
	C1153.966064,2197.779297 1160.326538,2204.035156 1167.668701,2208.950195 
	C1167.668701,2210.067139 1167.788208,2211.061768 1167.650391,2212.019531 
	C1166.067139,2223.023438 1168.539185,2227.553223 1178.452637,2232.227783 
	C1180.154297,2233.030273 1181.545654,2234.491211 1183.079102,2235.649902 
	C1185.938965,2237.810791 1188.824829,2239.937988 1191.647827,2242.145996 
	C1193.680908,2243.735840 1195.610840,2245.457031 1197.620972,2247.076660 
	C1199.634521,2248.698975 1201.482300,2250.710205 1203.763672,2251.785400 
	C1214.736572,2256.956787 1226.224854,2257.991211 1238.052856,2255.342285 
	C1239.509888,2262.148926 1240.966919,2268.955322 1242.437256,2276.553223 
z"/>
<path data-name="Nlonako" fill="#2F823A" opacity="1.000000" stroke="none" 
	d="
M1935.975830,1330.372803 
	C1930.210693,1350.362061 1924.445435,1370.351074 1918.758545,1390.068848 
	C1923.047729,1393.306030 1926.392090,1395.438721 1929.264038,1398.084106 
	C1934.318115,1402.739380 1938.367432,1406.762695 1936.199707,1415.697998 
	C1934.370972,1423.236084 1934.422119,1431.207764 1930.369019,1438.335693 
	C1929.533081,1439.805542 1930.247681,1442.157227 1930.247681,1444.889526 
	C1932.968506,1445.218384 1935.473999,1445.573120 1937.990234,1445.815918 
	C1946.563354,1446.643311 1950.037598,1451.012329 1948.924683,1459.629761 
	C1948.120972,1465.852783 1951.731812,1470.476685 1958.536499,1471.937988 
	C1966.624878,1473.674927 1966.693604,1474.700928 1963.444580,1482.267334 
	C1959.616211,1491.182495 1952.263916,1497.382568 1945.369873,1502.664673 
	C1936.675049,1509.326782 1930.343994,1517.262573 1924.026855,1525.743896 
	C1920.130249,1530.975342 1915.480347,1535.724854 1910.710571,1540.202759 
	C1906.645508,1544.018921 1902.669556,1547.527344 1899.442383,1552.385254 
	C1893.623047,1561.145386 1885.135864,1567.096069 1874.036499,1567.819092 
	C1868.422119,1568.184937 1863.869263,1570.282959 1860.115479,1574.524170 
	C1852.017090,1583.673828 1841.395142,1590.269531 1834.480957,1600.769531 
	C1831.972046,1604.579590 1826.862183,1606.676880 1822.034302,1610.219727 
	C1808.800171,1597.115112 1797.487915,1582.057861 1784.176880,1567.131348 
	C1785.532959,1557.267944 1781.616455,1551.883057 1773.873901,1548.686768 
	C1769.886230,1547.040649 1765.981812,1545.052002 1761.846680,1543.928345 
	C1744.637939,1539.251587 1728.928223,1531.697144 1715.205078,1520.250488 
	C1707.747192,1514.029907 1699.973389,1508.548950 1690.610596,1505.364136 
	C1687.378784,1504.264893 1684.553833,1501.572388 1681.919434,1499.191406 
	C1675.268311,1493.179688 1668.350586,1490.415283 1659.183105,1493.825317 
	C1650.682007,1496.987549 1642.845093,1500.966553 1635.235962,1505.896973 
	C1625.497925,1512.206665 1615.397827,1518.100586 1604.953369,1523.135742 
	C1595.142700,1527.865601 1584.652588,1531.174438 1574.517456,1535.248169 
	C1569.605835,1537.222290 1564.904907,1539.729614 1559.967529,1541.629150 
	C1538.879883,1549.741821 1517.747070,1557.738037 1496.610962,1565.724121 
	C1493.208862,1567.009766 1489.706177,1568.029175 1486.044556,1568.395264 
	C1476.484985,1547.840942 1464.386108,1529.175537 1461.240967,1506.875244 
	C1461.106934,1505.924316 1460.466553,1505.042969 1460.052734,1504.133545 
	C1450.264771,1482.619019 1439.027344,1461.902222 1426.708252,1441.718262 
	C1422.963745,1435.583130 1420.558594,1428.477173 1418.452637,1421.538818 
	C1416.376587,1414.698975 1418.057861,1412.324707 1424.379395,1408.647583 
	C1432.686157,1403.815796 1440.830688,1398.705078 1449.127563,1393.855713 
	C1451.678589,1392.364746 1454.387573,1390.716309 1457.217285,1390.201538 
	C1471.523926,1387.598755 1483.213623,1378.809448 1496.527710,1373.904907 
	C1496.930908,1373.756226 1497.018799,1372.751831 1497.468628,1371.592896 
	C1493.221802,1364.162720 1489.119873,1356.185181 1484.274780,1348.687866 
	C1476.051147,1335.962646 1470.554443,1322.144409 1466.254517,1307.725464 
	C1465.135376,1303.973145 1463.619751,1300.259399 1461.739868,1296.827393 
	C1452.968140,1280.813599 1443.789307,1264.997681 1440.606201,1246.636475 
	C1439.078125,1237.822754 1437.663208,1228.985596 1435.913574,1220.215576 
	C1434.949951,1215.385986 1433.267822,1210.704102 1432.150513,1205.899658 
	C1431.124390,1201.486938 1430.421387,1196.999146 1429.456299,1191.914307 
	C1422.021118,1191.231323 1415.467529,1190.540771 1408.898438,1190.060669 
	C1405.247681,1189.793823 1401.543335,1190.138550 1397.911987,1189.750122 
	C1389.994141,1188.903198 1380.929443,1179.288696 1383.026367,1172.732056 
	C1386.864258,1160.732788 1391.423584,1148.875244 1396.804077,1137.489014 
	C1400.543579,1129.575684 1401.374634,1129.977295 1396.007812,1122.861816 
	C1389.964600,1114.849121 1384.708862,1106.608032 1383.893921,1096.083496 
	C1382.845703,1082.545776 1381.184204,1069.055054 1379.733154,1055.549805 
	C1379.593506,1054.249390 1378.984863,1053.006104 1378.748047,1051.708252 
	C1377.747559,1046.227539 1376.729492,1040.748291 1375.862183,1035.245728 
	C1374.887451,1029.060181 1374.537598,1022.735596 1373.057739,1016.681213 
	C1371.349121,1009.691467 1371.834717,1003.757324 1376.901367,998.169495 
	C1385.594482,988.581726 1393.831787,978.581970 1402.452759,968.927002 
	C1405.487671,965.528320 1408.291870,961.412964 1414.496704,961.738647 
	C1421.926880,964.017395 1428.714600,965.729492 1435.231201,968.166260 
	C1464.253784,979.019104 1494.229736,985.711365 1524.818115,990.404358 
	C1537.173462,992.299927 1546.471924,1001.515808 1556.686035,1008.221924 
	C1557.682861,1008.876465 1558.046143,1010.465698 1558.760620,1011.584595 
	C1574.064453,1035.549805 1585.562500,1061.265991 1593.842651,1088.423340 
	C1598.505859,1103.717651 1608.219482,1115.852295 1617.996216,1128.768555 
	C1618.299561,1130.115601 1618.409546,1130.800415 1618.728882,1131.367310 
	C1628.397095,1148.531250 1636.103271,1166.308228 1637.246704,1186.391235 
	C1637.543945,1191.611572 1638.141235,1197.150391 1640.170044,1201.867920 
	C1644.629517,1212.236816 1650.054199,1222.193848 1655.179688,1232.270630 
	C1656.063843,1234.008545 1657.058472,1236.151367 1658.609985,1237.014038 
	C1668.726440,1242.639404 1678.458374,1250.063477 1689.359741,1252.929077 
	C1709.360718,1258.186646 1728.268433,1266.120605 1747.676270,1272.816650 
	C1752.577637,1274.507690 1757.920166,1275.858887 1763.040161,1275.793701 
	C1776.112305,1275.627441 1788.688232,1278.086182 1801.410767,1280.592407 
	C1814.353394,1283.141846 1827.578857,1284.249023 1840.674194,1286.033691 
	C1845.582642,1286.702759 1850.608154,1287.016724 1855.346558,1288.333618 
	C1869.084229,1292.151245 1882.752075,1296.243530 1896.331421,1300.589966 
	C1899.365479,1301.561035 1902.081299,1303.811768 1904.676636,1305.818726 
	C1915.166504,1313.930054 1925.551880,1322.176392 1935.975830,1330.372803 
z"/>
<path data-name="Loum" fill="#5CAAEC" opacity="1.000000" stroke="none" 
	d="
M1486.250000,1569.171631 
	C1489.706177,1568.029175 1493.208862,1567.009766 1496.610962,1565.724121 
	C1517.747070,1557.738037 1538.879883,1549.741821 1559.967529,1541.629150 
	C1564.904907,1539.729614 1569.605835,1537.222290 1574.517456,1535.248169 
	C1584.652588,1531.174438 1595.142700,1527.865601 1604.953369,1523.135742 
	C1615.397827,1518.100586 1625.497925,1512.206665 1635.235962,1505.896973 
	C1642.845093,1500.966553 1650.682007,1496.987549 1659.183105,1493.825317 
	C1668.350586,1490.415283 1675.268311,1493.179688 1681.919434,1499.191406 
	C1684.553833,1501.572388 1687.378784,1504.264893 1690.610596,1505.364136 
	C1699.973389,1508.548950 1707.747192,1514.029907 1715.205078,1520.250488 
	C1728.928223,1531.697144 1744.637939,1539.251587 1761.846680,1543.928345 
	C1765.981812,1545.052002 1769.886230,1547.040649 1773.873901,1548.686768 
	C1781.616455,1551.883057 1785.532959,1557.267944 1783.593506,1566.730591 
	C1771.966309,1580.275391 1760.178223,1592.857056 1751.903687,1608.233398 
	C1747.089355,1617.179932 1744.218750,1626.528320 1744.329590,1636.723389 
	C1744.424194,1645.434570 1740.199585,1652.757690 1736.165405,1659.914551 
	C1734.552246,1662.776367 1730.867188,1664.863647 1727.684937,1666.378662 
	C1715.035156,1672.401245 1710.848267,1680.125122 1713.455322,1694.269043 
	C1712.587402,1694.914429 1711.674194,1696.029907 1710.527222,1696.380127 
	C1696.585083,1700.638306 1692.542358,1711.914917 1690.242310,1724.549194 
	C1688.742676,1732.786987 1680.599731,1739.114258 1669.552368,1740.167725 
	C1658.998291,1741.174438 1648.393066,1741.656860 1637.806763,1742.309448 
	C1634.547852,1742.510254 1631.409302,1742.003662 1628.898804,1745.354736 
	C1626.378906,1748.718750 1622.199951,1748.693726 1618.961548,1746.580078 
	C1615.729980,1744.471191 1616.176880,1741.012085 1617.658936,1737.634644 
	C1620.553467,1731.037842 1621.198242,1724.356445 1619.055664,1717.234863 
	C1618.487183,1715.345337 1620.237549,1710.911133 1621.610107,1710.591187 
	C1629.278931,1708.802979 1631.492310,1702.072266 1635.342529,1696.843750 
	C1643.557861,1685.687378 1643.702393,1685.301514 1631.220703,1678.819580 
	C1621.681152,1673.865356 1611.486084,1670.187134 1601.811279,1665.472168 
	C1598.037842,1663.633057 1594.792358,1660.630737 1591.478149,1657.946289 
	C1585.084473,1652.767334 1578.688843,1647.577393 1572.531250,1642.124146 
	C1567.893066,1638.016235 1560.990723,1636.534180 1554.947388,1639.443237 
	C1538.832764,1647.200806 1522.696655,1654.930054 1506.821899,1663.158447 
	C1502.516724,1665.390015 1499.520874,1670.151001 1495.213379,1672.374634 
	C1481.366699,1679.523560 1469.666138,1689.977417 1455.465088,1696.762573 
	C1446.594849,1701.000732 1438.348999,1706.664185 1429.072632,1710.484131 
	C1425.042725,1712.143677 1421.306641,1715.802490 1418.784546,1719.477905 
	C1416.250244,1723.171143 1413.442749,1725.143799 1409.256958,1725.638550 
	C1388.893799,1728.045166 1376.842285,1740.409790 1369.824219,1758.691772 
	C1368.398804,1762.404785 1367.064209,1766.222900 1366.319458,1770.113525 
	C1364.349609,1780.404785 1356.881592,1784.133789 1347.865479,1785.469727 
	C1342.992554,1786.191895 1337.653564,1786.425781 1332.970459,1785.190430 
	C1324.510132,1782.958252 1317.600952,1785.512329 1311.887817,1790.918335 
	C1303.225708,1799.114624 1294.601807,1807.520630 1287.151611,1816.793701 
	C1270.983032,1836.918579 1252.680786,1854.588989 1231.462524,1869.277588 
	C1229.893921,1870.363403 1228.775757,1872.099365 1226.172241,1873.747314 
	C1205.458618,1865.401001 1185.976196,1856.939697 1166.624146,1848.190063 
	C1163.088013,1846.591187 1159.618652,1844.265747 1156.935669,1841.486816 
	C1152.339478,1836.726074 1148.737793,1830.998657 1144.100220,1826.285767 
	C1131.075684,1813.049194 1118.650635,1798.992310 1104.284302,1787.365723 
	C1087.109985,1773.467041 1070.864136,1759.169067 1058.866333,1740.407715 
	C1053.864502,1732.586304 1047.993408,1725.326416 1042.721436,1717.670898 
	C1029.545898,1698.538086 1016.486938,1679.324951 1003.381226,1660.144043 
	C1012.189087,1647.532349 1022.705688,1636.795166 1036.182983,1629.027222 
	C1040.125244,1626.754883 1043.456299,1623.363525 1046.885498,1620.282593 
	C1048.842773,1618.523682 1050.070190,1615.720459 1052.248169,1614.477295 
	C1064.506226,1607.480713 1067.556519,1595.335083 1070.550537,1583.035034 
	C1073.205078,1572.130005 1076.204712,1561.304932 1078.647949,1550.354492 
	C1079.571655,1546.214478 1079.172485,1541.797241 1079.721680,1537.550903 
	C1080.351196,1532.684814 1081.371338,1527.869751 1082.208130,1523.030029 
	C1082.709229,1520.132080 1083.432129,1517.246094 1083.627319,1514.326050 
	C1084.398804,1502.784912 1084.676392,1491.200439 1085.807861,1479.698120 
	C1086.348389,1474.203491 1088.390747,1468.856445 1090.539307,1463.048828 
	C1093.154175,1465.795532 1094.513184,1469.356812 1096.888916,1472.006226 
	C1109.773804,1486.376343 1122.711670,1500.710815 1136.045288,1514.661743 
	C1142.453735,1521.367065 1149.618408,1527.385620 1156.733765,1533.366455 
	C1161.445312,1537.326538 1162.471436,1542.295776 1161.552002,1547.743530 
	C1159.853760,1557.806519 1160.443481,1567.148804 1168.792236,1574.909912 
	C1166.513916,1578.970337 1164.397827,1582.706543 1162.314819,1586.461304 
	C1158.610352,1593.138916 1159.469971,1596.502808 1166.294434,1600.136841 
	C1169.486816,1601.837036 1173.116821,1602.695312 1176.397461,1604.253174 
	C1185.398926,1608.527954 1193.024536,1606.996460 1199.200073,1599.362671 
	C1201.082397,1597.035767 1202.595581,1594.396851 1204.575928,1592.165283 
	C1211.337646,1584.545288 1217.648682,1583.697144 1225.352661,1590.350342 
	C1230.593506,1594.876221 1236.166382,1596.449341 1242.780884,1596.065918 
	C1252.614136,1595.495605 1261.584717,1598.195557 1270.724121,1601.982178 
	C1285.304810,1608.023193 1299.847534,1614.420776 1316.815674,1609.991821 
	C1333.100342,1605.741089 1349.065063,1601.809326 1360.907227,1588.655396 
	C1362.867310,1586.478027 1365.439331,1584.480957 1368.129883,1583.395630 
	C1379.820679,1578.680176 1391.543091,1573.967896 1403.533081,1570.125000 
	C1406.313110,1569.233765 1410.558716,1571.140137 1413.479370,1572.862427 
	C1418.320068,1575.716797 1422.247314,1580.271362 1427.250122,1582.667480 
	C1436.975098,1587.325317 1445.941895,1594.765503 1458.513306,1588.646606 
	C1467.125854,1584.454712 1477.558716,1583.893921 1481.996094,1573.321899 
	C1482.702271,1571.639771 1484.797119,1570.540405 1486.250000,1569.171631 
z"/>
<path data-name="Njombe-Penja" fill="#5AF997" opacity="1.000000" stroke="none" 
	d="
M1002.881226,1660.514893 
	C1016.486938,1679.324951 1029.545898,1698.538086 1042.721436,1717.670898 
	C1047.993408,1725.326416 1053.864502,1732.586304 1058.866333,1740.407715 
	C1070.864136,1759.169067 1087.109985,1773.467041 1104.284302,1787.365723 
	C1118.650635,1798.992310 1131.075684,1813.049194 1144.100220,1826.285767 
	C1148.737793,1830.998657 1152.339478,1836.726074 1156.935669,1841.486816 
	C1159.618652,1844.265747 1163.088013,1846.591187 1166.624146,1848.190063 
	C1185.976196,1856.939697 1205.458618,1865.401001 1225.638672,1874.158203 
	C1223.757080,1882.541138 1224.043091,1890.397827 1227.122437,1898.644775 
	C1229.293701,1904.459229 1228.556274,1910.632202 1226.202148,1917.024780 
	C1224.450684,1921.780884 1225.773193,1927.877686 1226.493408,1933.275146 
	C1227.180786,1938.426758 1228.867188,1943.444214 1230.097656,1948.524536 
	C1230.399170,1949.769653 1230.856934,1951.028809 1230.866333,1952.284302 
	C1230.933105,1961.141357 1230.901855,1969.999146 1230.901855,1979.818237 
	C1222.964478,1983.392212 1222.383911,1990.575439 1221.514038,1999.528198 
	C1220.522827,2009.730225 1224.488770,2016.198730 1229.707397,2023.378906 
	C1232.785400,2027.614258 1235.406006,2032.319824 1237.413330,2037.154053 
	C1239.146606,2041.328491 1239.911255,2045.632324 1238.497070,2050.626465 
	C1236.080811,2059.159668 1238.551636,2067.565674 1244.825317,2073.606934 
	C1249.977173,2078.567871 1252.398682,2084.281982 1254.109131,2090.767334 
	C1255.363770,2095.523926 1256.826538,2100.225830 1258.126465,2104.709961 
	C1261.799438,2105.467773 1264.619141,2106.049561 1268.025879,2106.752441 
	C1263.335449,2116.518799 1267.504883,2123.840820 1273.385620,2130.382080 
	C1271.401855,2138.179932 1254.890015,2136.359863 1261.993164,2148.995361 
	C1259.383057,2150.377686 1257.079712,2151.597412 1254.374023,2153.030273 
	C1256.595459,2157.049316 1258.664795,2160.792969 1260.722046,2164.515137 
	C1253.505005,2172.459717 1254.243286,2174.515625 1265.973267,2177.576172 
	C1266.758911,2181.450195 1267.104980,2185.821533 1268.596191,2189.759277 
	C1270.085571,2193.692139 1272.721436,2197.190918 1275.176147,2201.436035 
	C1274.378662,2202.146484 1273.412476,2203.552979 1272.092041,2204.092529 
	C1265.182739,2206.915771 1260.725342,2211.170166 1259.165283,2219.099609 
	C1258.185059,2224.081299 1254.652588,2228.627197 1251.964233,2233.191406 
	C1247.749634,2240.346924 1243.280518,2247.352295 1238.485840,2254.881836 
	C1226.224854,2257.991211 1214.736572,2256.956787 1203.763672,2251.785400 
	C1201.482300,2250.710205 1199.634521,2248.698975 1197.620972,2247.076660 
	C1195.610840,2245.457031 1193.680908,2243.735840 1191.647827,2242.145996 
	C1188.824829,2239.937988 1185.938965,2237.810791 1183.079102,2235.649902 
	C1181.545654,2234.491211 1180.154297,2233.030273 1178.452637,2232.227783 
	C1168.539185,2227.553223 1166.067139,2223.023438 1167.650391,2212.019531 
	C1167.788208,2211.061768 1167.668701,2210.067139 1167.668701,2208.950195 
	C1160.326538,2204.035156 1153.966064,2197.779297 1144.224609,2197.445557 
	C1141.333008,2197.346191 1138.409302,2194.479980 1135.735474,2192.555176 
	C1131.145142,2189.250977 1126.811523,2186.329102 1120.619019,2185.774414 
	C1117.361084,2185.482910 1114.489746,2180.872803 1111.233398,2178.029053 
	C1095.571411,2181.821045 1093.311646,2181.215576 1086.942871,2170.988770 
	C1084.591553,2171.200195 1082.049927,2171.481201 1079.500732,2171.647705 
	C1073.593506,2172.033936 1069.101196,2170.275879 1067.483276,2163.880859 
	C1067.085815,2162.310059 1066.458862,2160.309326 1065.265015,2159.507080 
	C1057.991943,2154.621582 1059.324097,2146.597168 1057.837646,2139.686035 
	C1056.831055,2135.006836 1059.150146,2132.678955 1064.043335,2131.426025 
	C1074.422241,2128.769043 1074.333252,2128.421631 1081.543701,2119.652344 
	C1081.546143,2119.003662 1081.828613,2118.053223 1081.505005,2117.750488 
	C1072.390503,2109.226074 1063.818359,2099.928955 1050.531616,2097.700195 
	C1047.795044,2097.241455 1044.734253,2095.877686 1042.804688,2093.948975 
	C1035.273560,2086.421143 1026.694824,2081.523682 1016.054138,2079.553223 
	C1012.229187,2078.844727 1008.717651,2075.431396 1005.489136,2072.741211 
	C999.953308,2068.127930 995.099670,2062.503906 986.571716,2061.678223 
	C986.571716,2068.324707 985.908752,2074.427490 986.835205,2080.278809 
	C987.342834,2083.485107 990.533813,2086.266113 992.631042,2089.413086 
	C988.613708,2094.190430 984.335205,2094.331055 980.453064,2090.613281 
	C976.121460,2086.464844 971.120178,2086.435303 965.702271,2086.148926 
	C945.134949,2085.061523 924.589294,2086.074707 902.678223,2085.717773 
	C895.112732,2076.526123 895.089844,2071.498779 901.843567,2064.572754 
	C904.081238,2062.277832 907.061523,2060.616211 909.902588,2059.022217 
	C913.893188,2056.783203 918.247070,2055.509277 918.908203,2049.569092 
	C919.154846,2047.353027 922.641296,2045.325562 924.918396,2043.557129 
	C927.117493,2041.849609 929.661804,2040.586548 933.321350,2038.356079 
	C925.876099,2034.113892 925.538635,2028.344360 926.091980,2022.223022 
	C926.209290,2020.924805 926.246643,2019.380737 925.670532,2018.295044 
	C919.191406,2006.084106 923.860962,1993.304932 924.880737,1981.127930 
	C925.595947,1972.588867 924.070984,1967.769043 917.751587,1962.495728 
	C909.351624,1955.486694 903.719177,1946.994751 900.886841,1935.360718 
	C896.930847,1919.110962 892.035217,1902.662598 882.819153,1888.144653 
	C878.017334,1880.580322 873.020203,1873.092529 868.883423,1865.167236 
	C865.062744,1857.847046 861.527039,1850.070557 866.176453,1841.586670 
	C879.550842,1838.078613 893.827148,1837.934082 906.207031,1830.602905 
	C908.019592,1829.529541 910.709961,1829.815063 913.005310,1829.703247 
	C921.367615,1829.296021 923.808655,1827.432007 925.481812,1819.954590 
	C927.775757,1809.703369 927.785156,1809.763672 937.801514,1808.203735 
	C941.033630,1807.700439 944.202209,1806.788696 948.415588,1805.833496 
	C944.883850,1793.593384 955.650085,1786.013672 957.755981,1775.227051 
	C950.249573,1772.171387 944.197510,1765.795532 934.975891,1768.239258 
	C934.448120,1766.009521 933.447510,1764.276367 933.812988,1762.907959 
	C935.715881,1755.782227 932.469238,1750.556274 927.575073,1746.296143 
	C921.377014,1740.901123 923.851562,1737.943481 927.896606,1733.938721 
	C939.399475,1722.550049 951.364075,1711.629272 962.965820,1700.338257 
	C968.826843,1694.634033 974.188782,1688.419189 979.991943,1682.652466 
	C982.565247,1680.095215 985.385681,1677.477783 988.597107,1675.935913 
	C995.333557,1672.701660 999.321411,1667.303101 1002.881226,1660.514893 
z"/>
<path data-name="Nkongsamba I" fill="#875533" opacity="1.000000" stroke="none" 
	d="
M1936.662842,1330.178833 
	C1925.551880,1322.176392 1915.166504,1313.930054 1904.676636,1305.818726 
	C1902.081299,1303.811768 1899.365479,1301.561035 1896.331421,1300.589966 
	C1882.752075,1296.243530 1869.084229,1292.151245 1855.346558,1288.333618 
	C1850.608154,1287.016724 1845.582642,1286.702759 1840.674194,1286.033691 
	C1827.578857,1284.249023 1814.353394,1283.141846 1801.410767,1280.592407 
	C1788.688232,1278.086182 1776.112305,1275.627441 1763.040161,1275.793701 
	C1757.920166,1275.858887 1752.577637,1274.507690 1747.676270,1272.816650 
	C1728.268433,1266.120605 1709.360718,1258.186646 1689.359741,1252.929077 
	C1678.458374,1250.063477 1668.726440,1242.639404 1658.609985,1237.014038 
	C1657.058472,1236.151367 1656.063843,1234.008545 1655.179688,1232.270630 
	C1650.054199,1222.193848 1644.629517,1212.236816 1640.170044,1201.867920 
	C1638.141235,1197.150391 1637.543945,1191.611572 1637.246704,1186.391235 
	C1636.103271,1166.308228 1628.397095,1148.531250 1618.728882,1131.367310 
	C1618.409546,1130.800415 1618.299561,1130.115601 1618.599487,1128.450806 
	C1621.744263,1125.409302 1624.339355,1123.344116 1627.026001,1121.406128 
	C1640.779785,1111.484741 1654.038818,1101.065430 1663.881592,1086.936157 
	C1667.110596,1082.300903 1670.802734,1078.072754 1669.906738,1071.745850 
	C1668.393799,1061.062012 1671.865601,1051.502319 1676.849976,1042.265625 
	C1678.885010,1038.494507 1680.347412,1034.414307 1682.853638,1030.326660 
	C1703.410034,1026.573608 1721.272827,1017.808899 1739.327026,1009.561157 
	C1745.110840,1011.907776 1750.901611,1014.237000 1756.676147,1016.606506 
	C1761.252197,1018.484253 1765.672974,1020.906372 1770.405518,1022.195801 
	C1776.864014,1023.955505 1781.859985,1027.338013 1785.500610,1032.827881 
	C1789.717773,1039.187378 1794.254883,1045.377319 1797.950195,1052.031250 
	C1805.083252,1064.875122 1801.603271,1078.009033 1784.777954,1081.174438 
	C1781.539917,1081.783813 1777.633423,1080.743896 1774.456055,1079.439819 
	C1761.136841,1073.973389 1757.182983,1075.237549 1749.651001,1086.968506 
	C1743.773682,1096.122437 1739.300293,1105.350464 1741.283936,1116.751831 
	C1741.665283,1118.942749 1739.775879,1121.684937 1738.555298,1123.970581 
	C1733.978027,1132.541382 1734.452271,1138.660278 1741.077026,1145.706787 
	C1744.014648,1148.831665 1747.580566,1151.380859 1750.960938,1154.066040 
	C1752.249390,1155.089600 1753.843262,1155.719727 1755.253418,1156.600464 
	C1768.871216,1165.106079 1783.067139,1172.141968 1799.357178,1173.737793 
	C1809.656616,1174.746948 1816.376343,1179.955444 1820.038696,1189.780396 
	C1821.618286,1194.017700 1824.716431,1197.688965 1827.128784,1201.623901 
	C1836.617920,1199.884155 1841.376221,1193.583130 1844.546875,1186.086548 
	C1848.924683,1175.736084 1852.164307,1164.880005 1856.937500,1154.732666 
	C1858.886597,1150.588745 1863.119629,1147.042725 1867.101929,1144.423340 
	C1878.019775,1137.242188 1886.315918,1128.541260 1888.328369,1115.010132 
	C1888.589355,1113.255615 1890.273071,1111.746704 1891.124146,1110.037354 
	C1892.249268,1107.777588 1894.296631,1105.287476 1894.013672,1103.152466 
	C1893.318359,1097.906372 1896.083618,1095.192505 1899.574341,1092.337524 
	C1903.684082,1088.976318 1907.990601,1085.674805 1911.353882,1081.633301 
	C1914.656982,1077.664185 1917.546265,1073.062256 1919.447510,1068.273804 
	C1923.522583,1058.010620 1923.967163,1057.064087 1933.016968,1052.861450 
	C1941.117432,1055.248657 1948.249634,1057.350464 1957.337524,1060.028687 
	C1960.764404,1072.548462 1975.685425,1076.206177 1985.425415,1085.457642 
	C1991.630981,1091.351929 1998.889038,1090.124512 2006.379883,1084.853516 
	C2007.451416,1084.099365 2008.646851,1082.539673 2009.560913,1082.692627 
	C2021.270630,1084.651245 2034.690308,1078.426147 2044.290894,1090.846680 
	C2049.250488,1097.263062 2056.227539,1101.446289 2066.020996,1100.438354 
	C2064.906250,1105.019043 2062.880127,1109.501953 2060.828613,1114.040894 
	C2067.483643,1121.005981 2067.340576,1131.217773 2060.592773,1138.391724 
	C2050.670410,1148.940796 2044.102417,1161.412842 2039.915161,1175.212524 
	C2037.639771,1182.711060 2035.618652,1190.316406 2032.787720,1197.603516 
	C2031.526611,1200.850098 2028.872314,1203.760864 2026.301636,1206.259521 
	C2010.089844,1222.016724 1993.785767,1237.680786 1977.362915,1253.217896 
	C1973.503174,1256.869629 1971.382446,1260.478882 1971.949341,1266.208984 
	C1972.389282,1270.656372 1971.423584,1275.596924 1969.804688,1279.829468 
	C1964.290894,1294.245605 1960.963257,1309.878662 1949.322388,1321.184937 
	C1945.802734,1324.603394 1941.366333,1327.077881 1936.662842,1330.178833 
z"/>
<path data-name="Nkongsamba II" fill="#E6CD59" opacity="1.000000" stroke="none" 
	d="
M1739.071289,1009.005981 
	C1721.272827,1017.808899 1703.410034,1026.573608 1682.165161,1030.030396 
	C1673.018677,1026.677979 1665.436768,1023.222351 1657.643188,1020.339478 
	C1649.767334,1017.426208 1642.686646,1013.477173 1636.039185,1008.261658 
	C1624.532715,999.234070 1612.905396,990.256409 1600.638672,982.325073 
	C1578.849609,968.236877 1556.512939,954.997375 1534.501465,941.249023 
	C1532.113892,939.757690 1529.302856,937.604919 1528.488892,935.159668 
	C1524.397949,922.870667 1520.905640,910.382507 1517.203125,897.964233 
	C1523.628052,899.505676 1530.011597,901.256958 1536.487793,902.539429 
	C1546.179321,904.458435 1556.163574,905.267212 1565.596069,908.015076 
	C1573.709473,910.378601 1581.318237,914.604736 1588.972168,918.369141 
	C1594.239502,920.959656 1599.173950,924.220276 1604.324585,927.059326 
	C1605.443481,927.676025 1606.957031,928.272827 1608.106567,928.026978 
	C1616.927246,926.140015 1625.617432,928.984070 1634.960938,928.250610 
	C1640.639160,930.368408 1645.556763,933.339294 1650.876221,935.088623 
	C1657.776123,937.357605 1663.548706,940.918701 1668.025879,946.531311 
	C1675.334595,955.693726 1684.796875,961.697205 1695.847168,965.047241 
	C1700.932129,966.588928 1704.516235,969.576050 1707.893555,973.378662 
	C1712.973022,979.097473 1718.464233,984.451111 1723.526611,990.184204 
	C1728.780273,996.133972 1733.731812,1002.350769 1739.071289,1009.005981 
z"/>
<path data-name="Manjo" fill="#595382" opacity="1.000000" stroke="none" 
	d="
M1486.044434,1568.395264 
	C1484.797119,1570.540405 1482.702271,1571.639771 1481.996094,1573.321899 
	C1477.558716,1583.893921 1467.125854,1584.454712 1458.513306,1588.646606 
	C1445.941895,1594.765503 1436.975098,1587.325317 1427.250122,1582.667480 
	C1422.247314,1580.271362 1418.320068,1575.716797 1413.479370,1572.862427 
	C1410.558716,1571.140137 1406.313110,1569.233765 1403.533081,1570.125000 
	C1391.543091,1573.967896 1379.820679,1578.680176 1368.129883,1583.395630 
	C1365.439331,1584.480957 1362.867310,1586.478027 1360.907227,1588.655396 
	C1349.065063,1601.809326 1333.100342,1605.741089 1316.815674,1609.991821 
	C1299.847534,1614.420776 1285.304810,1608.023193 1270.724121,1601.982178 
	C1261.584717,1598.195557 1252.614136,1595.495605 1242.780884,1596.065918 
	C1236.166382,1596.449341 1230.593506,1594.876221 1225.352661,1590.350342 
	C1217.648682,1583.697144 1211.337646,1584.545288 1204.575928,1592.165283 
	C1202.595581,1594.396851 1201.082397,1597.035767 1199.200073,1599.362671 
	C1193.024536,1606.996460 1185.398926,1608.527954 1176.397461,1604.253174 
	C1173.116821,1602.695312 1169.486816,1601.837036 1166.294434,1600.136841 
	C1159.469971,1596.502808 1158.610352,1593.138916 1162.314819,1586.461304 
	C1164.397827,1582.706543 1166.513916,1578.970337 1168.792236,1574.909912 
	C1160.443481,1567.148804 1159.853760,1557.806519 1161.552002,1547.743530 
	C1162.471436,1542.295776 1161.445312,1537.326538 1156.733765,1533.366455 
	C1149.618408,1527.385620 1142.453735,1521.367065 1136.045288,1514.661743 
	C1122.711670,1500.710815 1109.773804,1486.376343 1096.888916,1472.006226 
	C1094.513184,1469.356812 1093.154175,1465.795532 1090.746826,1462.302490 
	C1093.001465,1451.056519 1095.627808,1440.103149 1098.756836,1429.295410 
	C1100.313354,1423.919312 1100.252075,1418.902832 1098.452271,1413.673950 
	C1097.376465,1410.548462 1096.664673,1407.265015 1096.117554,1403.997437 
	C1095.023071,1397.460693 1096.285034,1392.106934 1101.417114,1386.888916 
	C1109.086304,1379.091064 1116.221680,1370.954834 1125.549561,1364.892334 
	C1130.250000,1361.837402 1134.746582,1359.434937 1140.307129,1360.288940 
	C1152.522461,1362.164795 1161.156860,1355.941040 1169.265137,1348.122681 
	C1175.218872,1342.381958 1181.764038,1337.205688 1187.327148,1331.121094 
	C1194.246460,1323.552979 1201.324707,1315.855469 1206.611206,1307.165649 
	C1210.170044,1301.315430 1207.715698,1294.142944 1203.208130,1288.679810 
	C1200.682373,1285.618530 1197.474609,1283.129150 1194.684082,1280.274658 
	C1191.019165,1276.525635 1190.371948,1271.143066 1193.789673,1267.936768 
	C1200.562744,1261.582886 1207.552002,1255.431641 1214.766479,1249.584717 
	C1220.741821,1244.741821 1227.457642,1243.179077 1235.290283,1245.436279 
	C1242.276001,1247.449585 1249.026855,1246.430664 1254.553589,1240.661499 
	C1256.505249,1238.624268 1259.482422,1237.575928 1261.973267,1236.046753 
	C1264.316528,1234.607910 1266.635986,1233.130493 1268.835693,1231.751831 
	C1265.607300,1223.500854 1260.141724,1222.803955 1253.656128,1224.094971 
	C1249.616821,1224.899170 1245.469727,1227.627686 1242.449463,1224.887573 
	C1241.351562,1218.747559 1240.856812,1213.655273 1239.478516,1208.814331 
	C1237.392212,1201.486572 1241.634277,1194.017944 1249.205566,1194.045410 
	C1254.610718,1194.064941 1258.972534,1193.452148 1262.306030,1188.804932 
	C1263.169067,1187.601807 1265.037842,1186.567993 1266.522705,1186.451538 
	C1277.247314,1185.610474 1280.537354,1178.067017 1282.179443,1169.212402 
	C1283.018433,1164.687500 1284.991699,1161.192627 1288.702515,1158.485107 
	C1292.802490,1155.493652 1294.118530,1151.697754 1293.490723,1146.341919 
	C1292.983887,1142.017944 1294.215698,1137.271362 1295.585083,1133.004028 
	C1297.153076,1128.117676 1295.643066,1125.276245 1291.286987,1123.505493 
	C1281.369263,1119.473755 1271.694824,1118.219727 1261.692261,1124.042114 
	C1253.012695,1129.094482 1243.744385,1130.929077 1234.483032,1124.645020 
	C1232.880371,1123.557617 1230.766968,1123.229858 1228.899658,1122.524292 
	C1220.601807,1119.388916 1217.741943,1112.171509 1221.745361,1104.328369 
	C1222.493774,1102.862183 1223.461548,1101.496582 1224.423950,1100.153198 
	C1229.075562,1093.659546 1229.182861,1092.006348 1224.167847,1085.408081 
	C1221.254150,1081.574341 1217.892822,1078.080688 1214.306274,1073.941650 
	C1215.621704,1072.561401 1216.693726,1070.808350 1218.257080,1069.923218 
	C1221.842651,1067.892944 1224.614258,1065.888550 1224.855591,1061.043823 
	C1224.958740,1058.976074 1227.842773,1057.034790 1229.490234,1055.058594 
	C1232.640015,1051.280762 1235.953857,1047.629639 1238.936401,1043.724854 
	C1243.439209,1037.829956 1247.173462,1031.727417 1243.900757,1023.719055 
	C1243.230591,1022.079468 1243.339111,1019.059326 1244.410034,1017.940796 
	C1251.968872,1010.046692 1250.018066,998.491516 1255.722900,989.742126 
	C1258.423096,985.601135 1258.652588,979.654114 1259.345093,974.438171 
	C1260.954712,962.312500 1263.050659,950.301147 1260.653076,937.844543 
	C1259.256836,930.590027 1257.738647,921.741699 1264.695557,916.317444 
	C1274.732544,908.491760 1283.773926,899.318298 1294.261230,892.338196 
	C1300.973267,887.870789 1308.795654,884.929993 1315.748169,880.238281 
	C1321.854492,876.117615 1329.811279,874.752441 1336.929199,872.111755 
	C1340.949951,870.620056 1344.934692,869.029846 1348.921631,867.448792 
	C1353.316772,865.705933 1356.398071,867.421875 1359.359863,870.744324 
	C1364.852051,876.905273 1370.036987,883.594849 1376.502808,888.564026 
	C1383.490723,893.934509 1392.041382,893.478271 1401.093140,890.833984 
	C1405.298706,903.567627 1409.334961,915.437256 1416.746094,925.702148 
	C1423.649658,935.264038 1424.185059,944.705200 1417.629517,954.738831 
	C1416.207764,956.914978 1415.023193,959.245972 1413.729370,961.505615 
	C1408.291870,961.412964 1405.487671,965.528320 1402.452759,968.927002 
	C1393.831787,978.581970 1385.594482,988.581726 1376.901367,998.169495 
	C1371.834717,1003.757324 1371.349121,1009.691467 1373.057739,1016.681213 
	C1374.537598,1022.735596 1374.887451,1029.060181 1375.862183,1035.245728 
	C1376.729492,1040.748291 1377.747559,1046.227539 1378.748047,1051.708252 
	C1378.984863,1053.006104 1379.593506,1054.249390 1379.733154,1055.549805 
	C1381.184204,1069.055054 1382.845703,1082.545776 1383.893921,1096.083496 
	C1384.708862,1106.608032 1389.964600,1114.849121 1396.007812,1122.861816 
	C1401.374634,1129.977295 1400.543579,1129.575684 1396.804077,1137.489014 
	C1391.423584,1148.875244 1386.864258,1160.732788 1383.026367,1172.732056 
	C1380.929443,1179.288696 1389.994141,1188.903198 1397.911987,1189.750122 
	C1401.543335,1190.138550 1405.247681,1189.793823 1408.898438,1190.060669 
	C1415.467529,1190.540771 1422.021118,1191.231323 1429.456299,1191.914307 
	C1430.421387,1196.999146 1431.124390,1201.486938 1432.150513,1205.899658 
	C1433.267822,1210.704102 1434.949951,1215.385986 1435.913574,1220.215576 
	C1437.663208,1228.985596 1439.078125,1237.822754 1440.606201,1246.636475 
	C1443.789307,1264.997681 1452.968140,1280.813599 1461.739868,1296.827393 
	C1463.619751,1300.259399 1465.135376,1303.973145 1466.254517,1307.725464 
	C1470.554443,1322.144409 1476.051147,1335.962646 1484.274780,1348.687866 
	C1489.119873,1356.185181 1493.221802,1364.162720 1497.468628,1371.592896 
	C1497.018799,1372.751831 1496.930908,1373.756226 1496.527710,1373.904907 
	C1483.213623,1378.809448 1471.523926,1387.598755 1457.217285,1390.201538 
	C1454.387573,1390.716309 1451.678589,1392.364746 1449.127563,1393.855713 
	C1440.830688,1398.705078 1432.686157,1403.815796 1424.379395,1408.647583 
	C1418.057861,1412.324707 1416.376587,1414.698975 1418.452637,1421.538818 
	C1420.558594,1428.477173 1422.963745,1435.583130 1426.708252,1441.718262 
	C1439.027344,1461.902222 1450.264771,1482.619019 1460.052734,1504.133545 
	C1460.466553,1505.042969 1461.106934,1505.924316 1461.240967,1506.875244 
	C1464.386108,1529.175537 1476.484985,1547.840942 1486.044434,1568.395264 
z"/>
<path data-name="Mombo" fill="#A8E553" opacity="1.000000" stroke="none" 
	d="
M865.683960,1841.090088 
	C861.527039,1850.070557 865.062744,1857.847046 868.883423,1865.167236 
	C873.020203,1873.092529 878.017334,1880.580322 882.819153,1888.144653 
	C892.035217,1902.662598 896.930847,1919.110962 900.886841,1935.360718 
	C903.719177,1946.994751 909.351624,1955.486694 917.751587,1962.495728 
	C924.070984,1967.769043 925.595947,1972.588867 924.880737,1981.127930 
	C923.860962,1993.304932 919.191406,2006.084106 925.670532,2018.295044 
	C926.246643,2019.380737 926.209290,2020.924805 926.091980,2022.223022 
	C925.538635,2028.344360 925.876099,2034.113892 933.321350,2038.356079 
	C929.661804,2040.586548 927.117493,2041.849609 924.918396,2043.557129 
	C922.641296,2045.325562 919.154846,2047.353027 918.908203,2049.569092 
	C918.247070,2055.509277 913.893188,2056.783203 909.902588,2059.022217 
	C907.061523,2060.616211 904.081238,2062.277832 901.843567,2064.572754 
	C895.089844,2071.498779 895.112732,2076.526123 901.754272,2085.785156 
	C888.868042,2094.529541 875.997498,2103.572510 862.035217,2110.374023 
	C855.289124,2113.660400 846.501221,2113.474365 838.619873,2113.585938 
	C805.982788,2114.048828 773.316833,2114.789795 740.706604,2113.855225 
	C724.559814,2113.392090 708.458313,2109.824951 692.430420,2107.107422 
	C670.831909,2103.445557 649.324036,2099.248779 626.978149,2094.988525 
	C625.441406,2080.004150 624.979431,2065.312256 625.649231,2050.600342 
	C625.704285,2049.389893 624.594360,2048.170410 624.279785,2046.892456 
	C622.500610,2039.664917 625.245972,2035.234497 632.475342,2033.798218 
	C635.711182,2033.155273 638.991211,2032.597168 642.276611,2032.371826 
	C648.303894,2031.958252 652.709717,2028.988403 653.947754,2023.279663 
	C656.296509,2012.448853 665.552002,2006.011597 670.193237,1996.572754 
	C672.092102,1992.710815 678.523621,1991.077515 684.886108,1987.222900 
	C686.258545,1985.056519 686.369751,1980.695435 683.900208,1976.217651 
	C679.705261,1968.611206 684.909668,1961.352905 684.938110,1953.886230 
	C684.942017,1952.855469 687.224304,1951.010620 688.513672,1950.954224 
	C693.267822,1950.745972 695.728943,1948.403564 696.856445,1943.992798 
	C698.119690,1939.051636 701.722168,1934.403076 697.886841,1928.988159 
	C696.862976,1927.542480 696.881714,1925.358398 696.438965,1923.582275 
	C705.896667,1917.686279 710.390259,1926.862671 717.817139,1930.259766 
	C718.706848,1926.954712 719.438049,1924.235107 720.171143,1921.515869 
	C722.292358,1913.648438 724.979797,1906.690674 734.503906,1904.568604 
	C737.815308,1903.830811 740.839600,1900.164307 743.195740,1897.200073 
	C746.063538,1893.592285 748.087708,1889.314087 750.430664,1885.403076 
	C756.418823,1883.365479 762.288940,1881.367920 768.708435,1879.183472 
	C770.563538,1874.923828 772.132080,1869.793579 774.863831,1865.383911 
	C779.791382,1857.429688 787.738892,1853.448242 796.790222,1853.946655 
	C807.226074,1854.521362 817.285095,1854.217163 827.201599,1850.667725 
	C829.286499,1849.921387 831.812073,1850.406616 834.134583,1850.324341 
	C842.117493,1850.041260 849.706909,1849.038574 856.176270,1843.348999 
	C858.326294,1841.458374 862.138916,1841.458008 865.683960,1841.090088 
z"/>
<path data-name="Nkongsamba III" fill="#45857E" opacity="1.000000" stroke="none" 
	d="
M1414.496704,961.738647 
	C1415.023193,959.245972 1416.207764,956.914978 1417.629517,954.738831 
	C1424.185059,944.705200 1423.649658,935.264038 1416.746094,925.702148 
	C1409.334961,915.437256 1405.298706,903.567627 1401.896484,890.688721 
	C1409.491699,886.228088 1416.852051,881.441956 1424.915894,879.278931 
	C1429.740112,877.984924 1435.892822,880.135315 1441.048584,881.903137 
	C1451.364868,885.440430 1460.229492,885.070740 1467.590332,875.878540 
	C1472.322754,869.968628 1477.568481,864.469849 1483.195068,858.317139 
	C1487.800171,863.824280 1491.751221,869.830505 1495.800903,875.769409 
	C1499.679565,881.457520 1503.333374,887.351135 1507.747803,892.597656 
	C1509.682251,894.896912 1513.261108,895.812500 1516.648193,897.660278 
	C1520.905640,910.382507 1524.397949,922.870667 1528.488892,935.159668 
	C1529.302856,937.604919 1532.113892,939.757690 1534.501465,941.249023 
	C1556.512939,954.997375 1578.849609,968.236877 1600.638672,982.325073 
	C1612.905396,990.256409 1624.532715,999.234070 1636.039185,1008.261658 
	C1642.686646,1013.477173 1649.767334,1017.426208 1657.643188,1020.339478 
	C1665.436768,1023.222351 1673.018677,1026.677979 1681.381836,1030.178467 
	C1680.347412,1034.414307 1678.885010,1038.494507 1676.849976,1042.265625 
	C1671.865601,1051.502319 1668.393799,1061.062012 1669.906738,1071.745850 
	C1670.802734,1078.072754 1667.110596,1082.300903 1663.881592,1086.936157 
	C1654.038818,1101.065430 1640.779785,1111.484741 1627.026001,1121.406128 
	C1624.339355,1123.344116 1621.744263,1125.409302 1618.503784,1127.733398 
	C1608.219482,1115.852295 1598.505859,1103.717651 1593.842651,1088.423340 
	C1585.562500,1061.265991 1574.064453,1035.549805 1558.760620,1011.584595 
	C1558.046143,1010.465698 1557.682861,1008.876465 1556.686035,1008.221924 
	C1546.471924,1001.515808 1537.173462,992.299927 1524.818115,990.404358 
	C1494.229736,985.711365 1464.253784,979.019104 1435.231201,968.166260 
	C1428.714600,965.729492 1421.926880,964.017395 1414.496704,961.738647 
z"/>
</svg>