<svg version="1.1" id="Layer_1" xmlns="http://www.w3.org/2000/svg" xmlns:xlink="http://www.w3.org/1999/xlink" x="0px" y="0px"
	 width="100%" viewBox="0 0 2143 2113" enable-background="new 0 0 2143 2113" xml:space="preserve">

<path 
	data-name="Mintom"
fill="#D09C88" opacity="1.000000" stroke="none" 
	d="
M1802.708008,464.293427 
	C1806.599121,465.132782 1810.490356,465.972137 1815.137817,466.974609 
	C1814.511963,465.186798 1813.854004,463.306946 1813.073608,461.077576 
	C1813.902832,460.787384 1814.774170,460.152649 1815.530884,460.268158 
	C1824.062866,461.570343 1824.070557,461.612122 1824.932617,468.498474 
	C1829.089966,468.413513 1831.680908,467.049225 1831.889648,462.181824 
	C1831.971680,460.271301 1834.042480,456.865173 1835.221558,456.859100 
	C1840.078369,456.833923 1841.372070,452.960388 1842.828979,450.334015 
	C1847.724121,455.212311 1852.109741,459.582794 1855.810669,463.270996 
	C1862.648315,462.784515 1868.710449,462.353180 1875.444824,461.874054 
	C1876.142090,460.006256 1877.155640,457.290710 1878.158936,454.602661 
	C1882.042480,452.422333 1885.088867,453.679199 1888.222900,456.212311 
	C1892.933472,460.019623 1897.911377,463.496094 1903.319458,467.517639 
	C1902.012451,469.309509 1900.415161,471.499176 1897.929321,474.906982 
	C1903.379517,475.309479 1907.860840,475.640411 1912.814087,476.006226 
	C1919.435181,482.241425 1921.996704,489.788727 1916.874634,500.624084 
	C1921.849365,499.794006 1925.399048,499.201691 1931.581787,498.170013 
	C1920.272827,489.363525 1922.500488,477.522583 1918.191162,467.969757 
	C1929.672607,462.363312 1941.188110,466.334930 1945.014893,478.840698 
	C1946.602173,484.027740 1950.246948,484.188934 1952.910645,486.241150 
	C1955.682861,488.376953 1959.883667,488.658752 1963.517822,489.768982 
	C1967.757812,485.979340 1972.331665,481.891174 1977.798706,477.004700 
	C1980.683594,479.935944 1983.343994,482.215607 1985.481079,484.910370 
	C1988.628418,488.879028 1991.402466,493.143707 1994.145020,497.013428 
	C1998.095215,495.930634 2000.628052,495.236359 2004.344238,494.217712 
	C2005.866211,497.351837 2007.487061,500.689423 2009.358276,504.542694 
	C2012.045898,503.010437 2014.850708,501.411316 2018.098511,499.559723 
	C2019.313843,500.015961 2020.800293,500.743073 2022.370972,501.124939 
	C2024.880005,501.734985 2028.970093,503.347015 2029.739258,502.394226 
	C2034.824341,496.094391 2043.358154,499.514435 2048.712158,495.127838 
	C2052.941162,491.663147 2052.432861,487.621460 2048.087891,483.602844 
	C2043.487671,479.348175 2044.236694,471.960632 2049.983398,469.043060 
	C2051.135010,468.458466 2054.084473,469.985809 2055.321533,471.343964 
	C2057.058838,473.251282 2057.970215,475.911194 2059.234619,478.249298 
	C2059.988525,478.055725 2060.742676,477.862152 2061.496582,477.668579 
	C2062.065186,472.409546 2062.633789,467.150543 2063.205566,461.864075 
	C2072.693604,458.661469 2072.990967,458.717133 2077.019043,464.967224 
	C2081.622803,460.690857 2085.668213,456.695404 2087.885498,450.283234 
	C2090.735107,442.043579 2097.803711,437.759216 2106.629150,436.625763 
	C2108.274902,436.414398 2109.760742,435.066895 2111.355469,434.318665 
	C2113.028320,433.533752 2114.743652,432.839020 2117.329590,431.720123 
	C2118.179443,438.657166 2119.209229,444.724548 2119.621094,450.833618 
	C2121.294678,475.664948 2122.690918,500.514954 2124.355957,525.346863 
	C2126.263916,553.803467 2128.342529,582.248596 2130.358887,610.697937 
	C2131.672363,629.231934 2132.925049,647.770752 2134.349609,666.296265 
	C2136.714844,697.056580 2139.234863,727.804932 2141.597412,758.565491 
	C2142.056152,764.534851 2141.909668,770.551758 2142.405273,776.516602 
	C2142.642578,779.368713 2143.729492,782.150208 2145.215820,784.481812 
	C2146.000000,792.049072 2146.000000,800.098206 2145.367676,808.918274 
	C2145.156738,810.459534 2145.578369,811.229736 2146.000000,812.000000 
	C2146.000000,821.378479 2146.000000,830.757019 2145.087891,840.830872 
	C2074.124512,841.526245 2004.073486,841.526245 1933.393311,841.526245 
	C1936.678955,835.472656 1931.315186,833.971924 1927.189087,831.496826 
	C1930.786743,827.738281 1933.890625,824.495544 1937.515381,820.708618 
	C1933.463013,813.769348 1929.307739,806.653992 1925.030029,799.328796 
	C1923.375977,800.039917 1921.342163,800.914368 1919.755737,801.596436 
	C1914.122559,796.845703 1913.095825,789.140991 1907.321899,785.109070 
	C1908.900879,783.548035 1909.972168,782.387939 1911.191284,781.067688 
	C1903.248291,775.330444 1895.451660,770.153198 1894.584961,759.662109 
	C1894.519775,758.870972 1893.661743,757.963684 1892.935425,757.437256 
	C1886.547363,752.807190 1880.400146,748.557800 1877.443848,740.191650 
	C1875.518677,734.743530 1869.870361,730.611023 1865.974365,725.989136 
	C1866.585449,722.907715 1868.397095,719.553162 1867.511597,717.224243 
	C1863.949219,707.855225 1869.413696,697.059570 1862.640747,688.287964 
	C1862.047729,687.520020 1862.503784,685.670044 1862.894531,684.458679 
	C1865.388306,676.726318 1862.876587,671.290161 1856.191772,666.754578 
	C1848.937622,661.832458 1843.912476,655.501343 1847.522095,645.687805 
	C1848.278198,643.632141 1848.118896,640.989075 1847.640625,638.776978 
	C1846.172607,631.987732 1842.613403,625.147766 1843.101562,618.567505 
	C1843.691650,610.612244 1840.487671,605.330139 1835.921265,599.870728 
	C1836.286743,598.471313 1836.638672,597.221802 1836.938599,595.959839 
	C1839.819336,583.841492 1838.396973,581.029480 1828.194946,573.903015 
	C1824.547607,571.355225 1820.156250,567.623352 1819.310425,563.734497 
	C1816.729614,551.869995 1809.997437,538.678955 1824.910889,529.434875 
	C1825.276123,529.208557 1825.172241,528.225464 1825.486572,526.501221 
	C1822.731201,524.950623 1819.749512,523.017944 1816.557495,521.539307 
	C1812.361206,519.595276 1809.408325,517.608887 1807.067139,512.667297 
	C1804.451782,507.147308 1800.718628,500.611572 1793.419312,498.745453 
	C1794.982910,494.627991 1795.560913,489.848724 1798.201416,486.945831 
	C1801.807129,482.982117 1802.232544,478.900269 1802.204590,474.189331 
	C1802.185059,470.891785 1802.527344,467.592133 1802.708008,464.293427 
z"/>

<path 
	data-name="Bengbis"
fill="#6D3582" opacity="1.000000" stroke="none" 
	d="
M1493.166748,2.000014 
	C1497.611816,9.766640 1501.012451,17.641285 1504.911377,25.261021 
	C1507.421387,30.166561 1508.836182,34.603603 1507.140381,40.384869 
	C1504.980713,47.746803 1505.306763,55.465721 1508.584473,62.736439 
	C1521.742065,67.900208 1525.257568,77.024139 1526.937012,91.774834 
	C1528.788940,108.040733 1521.871582,122.199905 1520.543213,137.505508 
	C1519.830322,145.720810 1518.611328,153.924088 1518.512207,162.143539 
	C1518.477417,165.031097 1520.463745,168.593750 1522.626587,170.740768 
	C1530.608032,178.663513 1539.314819,185.857162 1547.269531,193.804703 
	C1574.572021,221.082825 1601.557495,248.678604 1628.923096,275.892578 
	C1636.358276,283.286499 1640.356812,290.898987 1640.062988,302.054779 
	C1639.257446,332.645630 1639.868652,363.273834 1639.134521,394.789124 
	C1636.737915,395.347565 1635.041870,395.217834 1633.528564,394.622803 
	C1627.729248,392.342438 1622.394531,391.494781 1617.105835,396.344635 
	C1614.156982,399.048676 1610.217773,399.875366 1606.064575,397.718597 
	C1600.107056,394.624908 1593.896973,395.224792 1587.690063,397.178162 
	C1586.870361,397.436127 1585.866089,397.108063 1584.703857,397.036407 
	C1584.058105,394.086517 1583.445312,391.287048 1582.976318,389.144806 
	C1574.457520,384.675446 1571.213257,393.892426 1564.646240,395.369385 
	C1564.307251,393.209320 1564.341431,391.508636 1563.761230,390.052765 
	C1560.792725,382.602966 1557.244995,374.644501 1548.232178,374.314392 
	C1542.405762,374.100952 1539.471680,370.999084 1535.710327,367.134521 
	C1526.432495,375.355164 1519.686890,368.290466 1511.902344,363.672882 
	C1513.121094,361.038391 1514.302856,358.484131 1515.652344,355.567200 
	C1507.431641,350.636078 1499.654541,353.474701 1491.135864,355.695190 
	C1486.968750,353.875702 1481.002441,355.511444 1481.544922,348.581299 
	C1481.595337,347.937012 1479.814575,346.636108 1478.775513,346.505768 
	C1473.281616,345.816711 1470.549072,342.481934 1469.807251,337.376434 
	C1469.028442,332.015991 1465.620361,331.136993 1461.136719,331.779480 
	C1459.183472,332.059387 1457.248047,332.463165 1455.217529,332.826233 
	C1454.146729,327.521881 1451.677979,322.137543 1452.480713,317.295532 
	C1453.244751,312.686401 1457.424438,308.643494 1460.160645,304.258453 
	C1457.189819,302.604187 1454.546143,301.132050 1451.902588,299.659912 
	C1451.925781,298.904968 1451.949097,298.150024 1451.972290,297.395111 
	C1455.692627,296.389313 1459.412964,295.383484 1464.264404,294.071869 
	C1458.871948,290.491211 1460.656372,282.719910 1453.666016,281.070404 
	C1453.142334,280.946777 1453.179321,278.240021 1453.046265,276.726135 
	C1452.910645,275.182129 1453.504272,273.121521 1452.715088,272.160278 
	C1447.238770,265.489929 1450.184692,260.690399 1455.710327,256.166962 
	C1456.805786,255.270233 1457.493286,253.875381 1459.257202,251.528351 
	C1454.782349,252.270340 1451.761108,252.771301 1449.079590,253.215942 
	C1449.079590,249.820816 1450.282349,245.857513 1448.815308,243.776489 
	C1446.208374,240.078827 1450.010986,237.557510 1449.166016,234.948120 
	C1448.506958,232.913040 1446.042725,230.423218 1444.039307,230.069595 
	C1439.201538,229.215668 1435.663208,227.194397 1433.822144,221.469681 
	C1429.665283,226.012115 1426.409668,229.569702 1423.178833,233.100235 
	C1418.415283,228.219772 1419.674316,219.773178 1411.539429,216.526108 
	C1411.099609,224.738388 1405.937134,227.828598 1399.208496,229.525635 
	C1397.590942,226.998901 1396.010742,224.530197 1394.430420,222.061478 
	C1394.177979,222.560715 1393.925537,223.059937 1393.673218,223.559158 
	C1386.292969,221.054947 1378.912842,218.550751 1370.582642,215.724167 
	C1370.302124,215.992325 1368.766235,217.207870 1367.542114,218.682312 
	C1364.726562,222.074036 1364.786377,222.127411 1360.937256,219.234116 
	C1360.463867,218.878281 1359.978516,218.112915 1359.569458,218.159378 
	C1350.344971,219.207214 1347.779419,213.932938 1348.735962,206.264145 
	C1341.640259,204.498764 1346.316040,212.674561 1342.587158,212.820847 
	C1339.342041,209.559387 1336.496948,206.699829 1333.651733,203.840271 
	C1335.132568,198.195618 1336.687378,192.569107 1338.080444,186.902878 
	C1342.125488,170.448669 1346.941772,154.125717 1349.874268,137.472839 
	C1352.756470,121.104179 1360.329468,109.534386 1374.135986,99.740242 
	C1392.243286,86.895241 1408.523193,71.444672 1425.357788,56.848228 
	C1433.437988,49.842346 1441.324951,42.845184 1452.972900,42.686615 
	C1454.054077,38.067265 1454.794189,33.888435 1456.029053,29.861382 
	C1457.992798,23.458092 1460.009155,17.042862 1462.535156,10.849611 
	C1464.317139,6.480536 1469.229126,4.664566 1475.473511,6.089890 
	C1479.312988,6.966255 1482.641602,8.184030 1484.277588,2.707894 
	C1486.777832,2.000000 1489.555542,2.000000 1493.166748,2.000014 
z"/>

<path 
	data-name="Meyomessala"
fill="#52DD91" opacity="1.000000" stroke="none" 
	d="
M1332.995850,203.928131 
	C1336.496948,206.699829 1339.342041,209.559387 1342.587158,212.820847 
	C1346.316040,212.674561 1341.640259,204.498764 1348.735962,206.264145 
	C1347.779419,213.932938 1350.344971,219.207214 1359.569458,218.159378 
	C1359.978516,218.112915 1360.463867,218.878281 1360.937256,219.234116 
	C1364.786377,222.127411 1364.726562,222.074036 1367.542114,218.682312 
	C1368.766235,217.207870 1370.302124,215.992325 1370.582642,215.724167 
	C1378.912842,218.550751 1386.292969,221.054947 1393.673218,223.559158 
	C1393.925537,223.059937 1394.177979,222.560715 1394.430420,222.061478 
	C1396.010742,224.530197 1397.590942,226.998901 1399.208496,229.525635 
	C1405.937134,227.828598 1411.099609,224.738388 1411.539429,216.526108 
	C1419.674316,219.773178 1418.415283,228.219772 1423.178833,233.100235 
	C1426.409668,229.569702 1429.665283,226.012115 1433.822144,221.469681 
	C1435.663208,227.194397 1439.201538,229.215668 1444.039307,230.069595 
	C1446.042725,230.423218 1448.506958,232.913040 1449.166016,234.948120 
	C1450.010986,237.557510 1446.208374,240.078827 1448.815308,243.776489 
	C1450.282349,245.857513 1449.079590,249.820816 1449.079590,253.215942 
	C1451.761108,252.771301 1454.782349,252.270340 1459.257202,251.528351 
	C1457.493286,253.875381 1456.805786,255.270233 1455.710327,256.166962 
	C1450.184692,260.690399 1447.238770,265.489929 1452.715088,272.160278 
	C1453.504272,273.121521 1452.910645,275.182129 1453.046265,276.726135 
	C1453.179321,278.240021 1453.142334,280.946777 1453.666016,281.070404 
	C1460.656372,282.719910 1458.871948,290.491211 1464.264404,294.071869 
	C1459.412964,295.383484 1455.692627,296.389313 1451.972290,297.395111 
	C1451.949097,298.150024 1451.925781,298.904968 1451.902588,299.659912 
	C1454.546143,301.132050 1457.189819,302.604187 1460.160645,304.258453 
	C1457.424438,308.643494 1453.244751,312.686401 1452.480713,317.295532 
	C1451.677979,322.137543 1454.146729,327.521881 1455.217529,332.826233 
	C1457.248047,332.463165 1459.183472,332.059387 1461.136719,331.779480 
	C1465.620361,331.136993 1469.028442,332.015991 1469.807251,337.376434 
	C1470.549072,342.481934 1473.281616,345.816711 1478.775513,346.505768 
	C1479.814575,346.636108 1481.595337,347.937012 1481.544922,348.581299 
	C1481.002441,355.511444 1486.968750,353.875702 1491.145996,356.647186 
	C1491.892944,392.559082 1491.888672,427.360138 1491.000488,462.145325 
	C1463.382568,459.896088 1436.646973,457.681915 1409.915283,455.421936 
	C1395.068848,454.166748 1380.226807,452.858704 1365.386475,451.533081 
	C1336.365479,448.940796 1307.347290,446.319519 1278.156006,443.014679 
	C1274.755981,437.240692 1274.283569,431.980469 1276.260742,426.232635 
	C1279.014282,418.227661 1282.607544,410.753235 1289.578613,405.669922 
	C1297.522949,399.876984 1298.041138,391.019318 1299.700073,382.653168 
	C1300.021973,381.029358 1299.061890,378.564667 1297.843506,377.319061 
	C1290.864380,370.184296 1284.310791,362.378784 1276.359741,356.494049 
	C1245.194702,333.428314 1211.234619,315.104858 1176.443481,298.896759 
	C1179.621704,298.039764 1182.212158,297.645538 1185.195312,297.191589 
	C1186.123779,294.277222 1186.937256,291.419006 1187.960327,288.637939 
	C1188.493652,287.188202 1189.065308,285.446411 1190.191284,284.575317 
	C1194.447754,281.282166 1198.938110,278.291534 1202.298706,275.922394 
	C1202.594727,268.496765 1193.029297,266.045410 1197.296509,257.911926 
	C1202.270142,257.911926 1207.479126,257.911926 1211.533447,257.911926 
	C1214.489136,252.272995 1216.001221,246.888962 1219.427368,243.366455 
	C1226.791748,235.794983 1235.103638,229.137665 1243.131348,222.226685 
	C1244.313354,221.209122 1246.157349,221.003052 1247.527710,220.152222 
	C1249.894653,218.682785 1252.653320,217.413071 1254.301880,215.316116 
	C1256.945557,211.953583 1259.668213,211.751678 1262.979980,213.614990 
	C1265.264526,214.900406 1267.427856,216.401230 1268.779541,217.257309 
	C1275.474609,214.674438 1281.453125,212.367950 1287.431763,210.061462 
	C1286.892944,215.472992 1286.892944,215.472992 1294.286499,220.663040 
	C1294.286499,217.841827 1294.286499,215.541595 1294.286499,212.862152 
	C1296.785645,211.841156 1299.130859,210.883041 1302.185181,209.635223 
	C1300.685181,207.775818 1299.427612,206.216873 1297.245361,203.511932 
	C1300.843140,202.751648 1304.196655,200.886841 1306.163086,201.851028 
	C1311.396606,204.417206 1315.431396,201.955750 1321.044312,199.255569 
	C1320.177490,203.209976 1319.572021,205.971863 1318.972534,208.707031 
	C1325.020752,210.307495 1328.178833,205.848404 1332.995850,203.928131 
z"/>


<path 
	data-name="Djoum"
fill="#719ED9" opacity="1.000000" stroke="none" 
	d="
M1491.884521,462.161194 
	C1491.888672,427.360138 1491.892944,392.559082 1491.886963,356.806030 
	C1499.654541,353.474701 1507.431641,350.636078 1515.652344,355.567200 
	C1514.302856,358.484131 1513.121094,361.038391 1511.902344,363.672882 
	C1519.686890,368.290466 1526.432495,375.355164 1535.710327,367.134521 
	C1539.471680,370.999084 1542.405762,374.100952 1548.232178,374.314392 
	C1557.244995,374.644501 1560.792725,382.602966 1563.761230,390.052765 
	C1564.341431,391.508636 1564.307251,393.209320 1564.646240,395.369385 
	C1571.213257,393.892426 1574.457520,384.675446 1582.976318,389.144806 
	C1583.445312,391.287048 1584.058105,394.086517 1584.703857,397.036407 
	C1585.866089,397.108063 1586.870361,397.436127 1587.690063,397.178162 
	C1593.896973,395.224792 1600.107056,394.624908 1606.064575,397.718597 
	C1610.217773,399.875366 1614.156982,399.048676 1617.105835,396.344635 
	C1622.394531,391.494781 1627.729248,392.342438 1633.528564,394.622803 
	C1635.041870,395.217834 1636.737915,395.347565 1639.105957,395.708862 
	C1641.587402,400.960358 1642.679810,406.532837 1645.240601,411.319672 
	C1647.260132,415.094482 1651.087646,417.902039 1655.307739,420.293945 
	C1656.139160,424.084167 1656.970581,427.874359 1657.711670,431.252594 
	C1661.723755,430.089417 1665.391968,427.865631 1668.467163,428.502899 
	C1670.910400,429.009216 1673.014160,432.791534 1674.592163,435.511749 
	C1678.479980,442.213959 1678.318970,442.287109 1686.127808,440.324127 
	C1687.730103,439.921326 1689.371948,439.649353 1691.010864,439.431854 
	C1691.643921,439.347870 1692.319214,439.583038 1693.791504,439.784546 
	C1694.801147,447.033630 1699.757812,449.157318 1706.804565,448.253204 
	C1710.701294,447.753204 1714.670410,447.506592 1718.591431,447.631836 
	C1720.709351,447.699493 1722.863037,448.629456 1724.867310,449.483185 
	C1725.955566,449.946838 1727.058472,451.946320 1727.652466,451.748047 
	C1731.755493,450.378540 1734.843994,449.824341 1738.711914,453.628662 
	C1740.688354,455.572601 1746.153809,453.969391 1750.980713,453.969391 
	C1752.256226,451.867401 1753.933228,449.083649 1755.630981,446.312714 
	C1757.255493,443.661194 1759.378174,440.697113 1762.609619,442.586151 
	C1764.300537,443.574646 1764.564697,447.003296 1766.111938,450.965271 
	C1767.346436,451.314545 1770.393921,452.176788 1774.098877,453.225006 
	C1773.417603,455.869751 1772.746582,458.474915 1772.056763,461.152985 
	C1772.753296,461.344604 1773.520996,461.783997 1773.756226,461.587006 
	C1778.833740,457.338531 1783.484741,456.390717 1788.245850,462.316376 
	C1791.918579,466.887543 1796.821655,463.916504 1801.976685,463.923279 
	C1802.527344,467.592133 1802.185059,470.891785 1802.204590,474.189331 
	C1802.232544,478.900269 1801.807129,482.982117 1798.201416,486.945831 
	C1795.560913,489.848724 1794.982910,494.627991 1793.419312,498.745453 
	C1800.718628,500.611572 1804.451782,507.147308 1807.067139,512.667297 
	C1809.408325,517.608887 1812.361206,519.595276 1816.557495,521.539307 
	C1819.749512,523.017944 1822.731201,524.950623 1825.486572,526.501221 
	C1825.172241,528.225464 1825.276123,529.208557 1824.910889,529.434875 
	C1809.997437,538.678955 1816.729614,551.869995 1819.310425,563.734497 
	C1820.156250,567.623352 1824.547607,571.355225 1828.194946,573.903015 
	C1838.396973,581.029480 1839.819336,583.841492 1836.938599,595.959839 
	C1836.638672,597.221802 1836.286743,598.471313 1835.921265,599.870728 
	C1840.487671,605.330139 1843.691650,610.612244 1843.101562,618.567505 
	C1842.613403,625.147766 1846.172607,631.987732 1847.640625,638.776978 
	C1848.118896,640.989075 1848.278198,643.632141 1847.522095,645.687805 
	C1843.912476,655.501343 1848.937622,661.832458 1856.191772,666.754578 
	C1862.876587,671.290161 1865.388306,676.726318 1862.894531,684.458679 
	C1862.503784,685.670044 1862.047729,687.520020 1862.640747,688.287964 
	C1869.413696,697.059570 1863.949219,707.855225 1867.511597,717.224243 
	C1868.397095,719.553162 1866.585449,722.907715 1865.974365,725.989136 
	C1869.870361,730.611023 1875.518677,734.743530 1877.443848,740.191650 
	C1880.400146,748.557800 1886.547363,752.807190 1892.935425,757.437256 
	C1893.661743,757.963684 1894.519775,758.870972 1894.584961,759.662109 
	C1895.451660,770.153198 1903.248291,775.330444 1911.191284,781.067688 
	C1909.972168,782.387939 1908.900879,783.548035 1907.321899,785.109070 
	C1902.208618,786.899780 1897.224976,787.548584 1893.978638,791.704041 
	C1891.166504,795.303467 1888.805176,789.999390 1886.028320,791.407654 
	C1881.861328,793.521057 1879.332275,788.616760 1874.940063,788.624573 
	C1871.237549,788.631165 1875.083374,783.292542 1875.842529,780.937805 
	C1869.663940,780.486572 1863.943726,780.026855 1858.217529,779.660522 
	C1849.839966,779.124451 1842.469482,782.657349 1835.417847,786.314270 
	C1833.178467,787.475586 1832.522217,791.690002 1830.873779,795.053650 
	C1829.050049,795.735779 1825.843872,796.086365 1823.893311,797.836304 
	C1819.442749,801.828552 1815.344604,803.608398 1809.690796,800.067200 
	C1808.406738,799.262939 1805.423828,800.307495 1803.661987,801.289062 
	C1798.010986,804.437256 1793.557251,805.059753 1786.933594,801.439758 
	C1779.670654,797.470459 1770.260742,796.888062 1761.693970,798.831909 
	C1756.334229,800.048035 1751.119507,800.734314 1745.638184,801.029968 
	C1741.347534,801.261353 1738.242310,800.772278 1734.741943,798.195801 
	C1732.382935,796.459534 1728.729614,796.481750 1725.204346,795.605225 
	C1724.325439,801.818542 1719.861084,802.688843 1715.363281,804.734558 
	C1709.353638,807.467896 1707.362793,801.674561 1702.378540,800.939697 
	C1701.364868,803.643982 1700.286499,806.520935 1699.205078,809.394775 
	C1694.493530,810.776184 1690.441406,809.799072 1686.598999,806.626587 
	C1684.928833,805.247803 1682.462402,804.267883 1680.304199,804.158020 
	C1675.066895,803.891479 1671.686279,801.916016 1671.633179,795.125183 
	C1666.896851,798.529663 1663.397705,804.197388 1657.907593,797.322510 
	C1652.921387,812.811768 1637.713623,807.287231 1628.121460,813.845642 
	C1623.452393,810.835754 1618.486694,809.175720 1612.607666,809.494995 
	C1609.388428,809.669861 1605.621094,807.765076 1602.817627,805.783936 
	C1598.124390,802.467773 1593.529541,801.731750 1587.848633,802.493896 
	C1579.566528,803.605103 1571.046143,804.544189 1562.919434,801.158569 
	C1559.967041,799.928528 1555.911987,799.215881 1554.488281,796.937317 
	C1552.259155,793.369507 1550.432373,793.894836 1547.305786,794.828918 
	C1543.997192,795.817322 1540.314697,795.546814 1538.901245,791.630127 
	C1537.060547,786.529846 1534.145508,787.409546 1530.356689,789.110291 
	C1526.151245,790.997925 1521.823608,792.845398 1517.356079,793.862000 
	C1510.650635,795.387878 1504.094238,796.130066 1497.209717,792.677795 
	C1493.984131,791.060425 1488.619019,791.992188 1484.879883,793.450867 
	C1475.175659,797.236755 1465.852051,797.174500 1455.778076,794.751465 
	C1440.962769,791.187866 1425.764648,789.242126 1410.874023,785.953735 
	C1403.492310,784.323669 1396.432739,781.235229 1388.953003,777.730225 
	C1390.437012,773.940491 1392.102051,771.159790 1393.989380,768.539185 
	C1395.090820,767.009766 1396.462036,764.634033 1397.858521,764.525452 
	C1407.441895,763.780701 1412.732544,756.460510 1419.386719,751.202820 
	C1423.013672,748.336975 1426.847290,744.484985 1431.741577,746.456360 
	C1436.916260,748.540771 1440.611206,747.250488 1444.557251,744.180481 
	C1445.719849,743.276062 1447.803589,742.571289 1449.088135,742.974854 
	C1455.261597,744.914612 1459.991699,741.174072 1465.214478,739.374268 
	C1468.313110,738.306519 1471.452881,736.136719 1474.473145,736.302490 
	C1482.211914,736.727295 1486.752808,730.071350 1493.546753,728.603882 
	C1494.659912,728.363342 1495.944214,726.100159 1496.091797,724.663208 
	C1497.017334,715.646484 1503.174805,710.041443 1508.939819,704.122253 
	C1512.925781,700.029724 1513.671753,695.695923 1512.712036,689.680176 
	C1511.452026,681.781860 1512.358887,673.524597 1509.918579,665.642761 
	C1509.544678,664.435425 1509.491699,662.813599 1509.994019,661.701477 
	C1513.099731,654.826538 1509.794800,649.894287 1505.758545,644.668213 
	C1497.549194,634.038330 1492.065063,622.032532 1490.677734,608.573242 
	C1490.253662,604.460327 1491.168579,600.074158 1492.164429,595.982056 
	C1493.641846,589.911560 1496.095947,584.068665 1497.405640,577.972229 
	C1497.984619,575.277344 1497.199219,572.058594 1496.290649,569.324402 
	C1494.541382,564.061096 1492.263672,558.973328 1490.539307,553.074097 
	C1491.208984,550.732361 1491.833862,549.129822 1491.837280,547.525940 
	C1491.897827,519.071167 1491.883057,490.616150 1491.884521,462.161194 
z"/>
 
<path 
	data-name="Oveng"
fill="#EF54EB" opacity="1.000000" stroke="none" 
	d="
M1180.481934,779.788757 
	C1174.043701,771.564697 1176.753662,770.596069 1185.252686,761.980225 
	C1184.320312,758.572693 1183.368408,755.093689 1182.340942,751.338440 
	C1184.732056,749.901855 1187.139771,748.749207 1189.190308,747.141235 
	C1191.256592,745.520752 1194.859741,742.950623 1194.519409,741.656616 
	C1192.717529,734.804382 1198.924194,731.195374 1200.083008,725.628357 
	C1202.893555,712.127258 1211.363281,704.558167 1224.929077,701.458130 
	C1229.726318,700.361938 1234.156494,696.387634 1238.053101,692.935852 
	C1243.251709,688.330811 1247.987061,684.078796 1255.649536,687.527527 
	C1257.087280,688.174622 1259.503296,687.187500 1261.272583,686.471802 
	C1273.067871,681.701050 1285.930420,678.706970 1293.879272,667.355591 
	C1294.253662,666.820862 1294.739136,666.188232 1295.307983,665.991028 
	C1310.729736,660.645874 1316.672852,643.478333 1331.293701,637.102905 
	C1332.336670,636.648132 1333.392212,635.183777 1333.602539,634.035217 
	C1334.589233,628.646667 1339.015991,626.980164 1342.914795,624.431519 
	C1345.533569,622.719604 1349.384399,619.814758 1349.287842,617.591003 
	C1348.970215,610.270691 1353.989014,606.272827 1358.548340,600.587036 
	C1369.021240,601.051208 1377.285767,597.326660 1384.751587,592.864441 
	C1390.534668,589.408081 1395.028931,583.740662 1399.947266,578.904846 
	C1408.079346,570.909241 1417.107422,565.112976 1428.919312,563.869995 
	C1438.038940,562.910339 1447.002319,560.543762 1456.075317,559.045837 
	C1467.430420,557.171326 1478.826660,555.545837 1490.205078,553.812805 
	C1492.263672,558.973328 1494.541382,564.061096 1496.290649,569.324402 
	C1497.199219,572.058594 1497.984619,575.277344 1497.405640,577.972229 
	C1496.095947,584.068665 1493.641846,589.911560 1492.164429,595.982056 
	C1491.168579,600.074158 1490.253662,604.460327 1490.677734,608.573242 
	C1492.065063,622.032532 1497.549194,634.038330 1505.758545,644.668213 
	C1509.794800,649.894287 1513.099731,654.826538 1509.994019,661.701477 
	C1509.491699,662.813599 1509.544678,664.435425 1509.918579,665.642761 
	C1512.358887,673.524597 1511.452026,681.781860 1512.712036,689.680176 
	C1513.671753,695.695923 1512.925781,700.029724 1508.939819,704.122253 
	C1503.174805,710.041443 1497.017334,715.646484 1496.091797,724.663208 
	C1495.944214,726.100159 1494.659912,728.363342 1493.546753,728.603882 
	C1486.752808,730.071350 1482.211914,736.727295 1474.473145,736.302490 
	C1471.452881,736.136719 1468.313110,738.306519 1465.214478,739.374268 
	C1459.991699,741.174072 1455.261597,744.914612 1449.088135,742.974854 
	C1447.803589,742.571289 1445.719849,743.276062 1444.557251,744.180481 
	C1440.611206,747.250488 1436.916260,748.540771 1431.741577,746.456360 
	C1426.847290,744.484985 1423.013672,748.336975 1419.386719,751.202820 
	C1412.732544,756.460510 1407.441895,763.780701 1397.858521,764.525452 
	C1396.462036,764.634033 1395.090820,767.009766 1393.989380,768.539185 
	C1392.102051,771.159790 1390.437012,773.940491 1388.395264,777.277344 
	C1382.202515,778.515991 1377.188965,780.143555 1374.638794,786.482544 
	C1373.671021,788.887756 1371.185181,791.368652 1368.787231,792.373840 
	C1363.230347,794.703308 1357.411377,796.775452 1351.499390,797.786621 
	C1345.548096,798.804565 1341.226074,794.714783 1337.553833,790.541626 
	C1335.401245,788.095520 1333.769531,785.191101 1332.397705,783.207214 
	C1327.580933,782.753296 1323.739014,782.128479 1319.891113,782.089355 
	C1313.915405,782.028687 1307.686890,779.226929 1302.057739,784.343323 
	C1300.841797,785.448486 1296.905029,784.581177 1294.813477,783.488831 
	C1290.486938,781.229248 1286.558472,778.207336 1282.303955,775.391479 
	C1281.922485,775.487244 1280.951050,775.433777 1280.683105,775.842041 
	C1274.652466,785.032043 1266.191895,781.978943 1258.209106,780.095642 
	C1252.434448,778.733154 1246.934570,776.944763 1241.027344,779.736267 
	C1239.442627,780.485107 1236.793091,780.391479 1235.242065,779.554749 
	C1228.699219,776.025024 1222.249390,777.604858 1215.602295,778.895386 
	C1212.555420,779.486938 1209.294312,778.987000 1206.130737,778.944946 
	C1205.833008,778.940979 1205.531982,778.530212 1205.243774,778.544006 
	C1197.248291,778.927490 1189.254272,779.341553 1180.481934,779.788757 
z"/>

<path 
	data-name="Sangmélima"
fill="#367785" opacity="1.000000" stroke="none" 
	d="
M1233.417480,573.615112 
	C1219.086670,572.919800 1205.538330,569.307678 1192.185791,564.000183 
	C1169.739990,555.078003 1147.033691,546.794128 1124.291626,538.647095 
	C1119.229370,536.833557 1115.879883,533.899719 1113.036987,529.629395 
	C1104.782837,517.230835 1096.345947,504.953735 1087.224365,491.537720 
	C1082.909668,484.864471 1079.463745,479.207031 1075.773804,473.713440 
	C1059.161987,448.981781 1042.480835,424.296600 1025.945190,398.867554 
	C1026.612549,395.940125 1026.953735,393.662781 1027.742920,391.553101 
	C1030.714478,383.609833 1026.090332,377.143860 1018.092529,379.172821 
	C1012.893738,380.491699 1009.299561,378.990417 1007.039062,375.228760 
	C1002.702209,368.011810 995.905151,365.385834 988.454773,363.461700 
	C990.125183,358.078522 994.720947,355.878906 999.409302,354.732727 
	C1009.987000,352.146820 1020.687195,349.999939 1031.413086,348.100647 
	C1041.284912,346.352631 1042.978149,344.049530 1039.903442,334.741638 
	C1040.864624,334.529205 1041.814575,334.319244 1043.379639,333.944153 
	C1047.712158,335.758057 1052.392700,336.418213 1053.947510,341.343567 
	C1054.203125,342.153137 1055.200684,343.067322 1056.030029,343.293762 
	C1058.571045,343.987793 1062.228394,345.710449 1063.613281,344.644592 
	C1069.917725,339.792542 1078.902466,348.193604 1084.468506,339.626221 
	C1087.814087,334.476562 1092.774292,330.375977 1096.715820,326.120422 
	C1111.766968,333.393646 1120.775879,337.249542 1124.942993,317.144714 
	C1128.307739,315.515808 1131.763916,314.418396 1134.457886,312.335236 
	C1136.242188,310.955597 1138.166870,307.995453 1137.900146,306.031952 
	C1136.773560,297.738586 1141.416382,291.543671 1144.304932,283.898590 
	C1152.170654,289.279602 1159.815063,293.862885 1166.631226,299.455597 
	C1169.848389,302.095398 1171.820801,301.131287 1175.169922,299.555664 
	C1211.234619,315.104858 1245.194702,333.428314 1276.359741,356.494049 
	C1284.310791,362.378784 1290.864380,370.184296 1297.843506,377.319061 
	C1299.061890,378.564667 1300.021973,381.029358 1299.700073,382.653168 
	C1298.041138,391.019318 1297.522949,399.876984 1289.578613,405.669922 
	C1282.607544,410.753235 1279.014282,418.227661 1276.260742,426.232635 
	C1274.283569,431.980469 1274.755981,437.240692 1277.789795,443.631226 
	C1269.736938,456.872375 1262.046143,468.916229 1253.978516,480.702240 
	C1243.170898,496.491394 1238.099365,514.278503 1235.990479,532.910522 
	C1234.463257,546.402954 1234.228516,560.041626 1233.417480,573.615112 
z"/>
<path 
	data-name="Meyomessi"
fill="#E091E6" opacity="1.000000" stroke="none" 
	d="
M1234.366699,573.725952 
	C1234.228516,560.041626 1234.463257,546.402954 1235.990479,532.910522 
	C1238.099365,514.278503 1243.170898,496.491394 1253.978516,480.702240 
	C1262.046143,468.916229 1269.736938,456.872375 1277.961670,444.326782 
	C1307.347290,446.319519 1336.365479,448.940796 1365.386475,451.533081 
	C1380.226807,452.858704 1395.068848,454.166748 1409.915283,455.421936 
	C1436.646973,457.681915 1463.382568,459.896088 1491.000488,462.145325 
	C1491.883057,490.616150 1491.897827,519.071167 1491.837280,547.525940 
	C1491.833862,549.129822 1491.208984,550.732361 1490.539307,553.074097 
	C1478.826660,555.545837 1467.430420,557.171326 1456.075317,559.045837 
	C1447.002319,560.543762 1438.038940,562.910339 1428.919312,563.869995 
	C1417.107422,565.112976 1408.079346,570.909241 1399.947266,578.904846 
	C1395.028931,583.740662 1390.534668,589.408081 1384.751587,592.864441 
	C1377.285767,597.326660 1369.021240,601.051208 1358.843262,599.953979 
	C1351.401733,597.900574 1344.884521,595.639648 1338.236450,593.870728 
	C1317.126709,588.254089 1296.125366,582.069580 1274.769287,577.598389 
	C1261.918945,574.907959 1248.486572,574.996826 1234.366699,573.725952 
z"/>
<path 
	data-name="Mengong"
fill="#52DD91" opacity="1.000000" stroke="none" 
	d="
M1184.646240,281.410034 
	C1183.885254,281.471985 1183.430542,281.252716 1182.975830,281.033447 
	C1183.176025,280.843506 1183.428955,280.460876 1183.567017,280.498535 
	C1184.050293,280.630341 1184.493896,280.907135 1184.646240,281.410034 
z"/>





</svg>