<svg version="1.1" id="Layer_1" xmlns="http://www.w3.org/2000/svg" xmlns:xlink="http://www.w3.org/1999/xlink" x="0px" y="0px"
	 width="100%" viewBox="0 0 2164 3087" enable-background="new 0 0 2164 3087" xml:space="preserve">
<path data-name="Bikok" style="fill: {#D69163}" fill="#D69163" opacity="1.000000" stroke="none" 
	d="
M1116.000000,3090.000000 
	C1107.949585,3090.000000 1099.899292,3090.000000 1091.566406,3089.470215 
	C1082.500977,3081.975586 1074.042969,3074.536377 1064.818726,3068.215576 
	C1058.872559,3064.141357 1054.951660,3065.920898 1051.673950,3072.708008 
	C1049.412476,3077.390625 1046.481079,3080.019531 1040.878052,3079.586914 
	C1035.245239,3079.151855 1029.531128,3079.775146 1023.896729,3079.350586 
	C1021.560059,3079.174561 1018.486816,3078.111328 1017.201233,3076.375488 
	C1008.707397,3064.907959 1000.591003,3053.160156 992.411133,3041.461914 
	C991.666260,3040.396484 991.298157,3039.053955 990.827271,3037.812988 
	C983.775330,3019.221680 977.411011,3000.329834 969.437561,2982.143066 
	C964.703857,2971.345947 963.854553,2961.567383 968.019043,2950.597168 
	C971.661743,2941.000732 974.375977,2930.886230 971.613220,2920.434326 
	C969.136353,2911.063721 971.909607,2902.812744 976.188232,2894.718994 
	C977.427368,2892.375000 979.215759,2889.952393 979.384827,2887.472656 
	C980.357727,2873.202393 980.806519,2859.310547 972.964905,2845.929932 
	C965.271423,2832.802246 959.574097,2818.485352 953.352173,2804.533447 
	C952.257935,2802.080078 951.989746,2798.531982 952.881165,2796.041016 
	C957.683411,2782.621582 954.501892,2772.464600 942.460999,2764.771973 
	C938.255920,2762.085693 933.996643,2759.484375 929.781799,2756.812988 
	C915.780701,2747.938721 901.788513,2739.050293 888.226501,2729.639648 
	C891.484375,2726.787354 894.272644,2724.416992 897.139893,2722.146484 
	C905.401245,2715.603760 914.179871,2711.029785 925.360046,2711.585449 
	C932.920715,2711.961182 940.576538,2710.642822 948.172424,2709.902588 
	C949.720886,2709.751953 951.785095,2709.243652 952.602600,2708.147461 
	C958.498108,2700.243652 966.643616,2693.477051 967.661011,2682.851318 
	C968.831299,2670.629883 969.900818,2658.351807 969.999268,2646.090088 
	C970.072876,2636.917725 970.526855,2628.164551 975.887451,2620.367188 
	C978.570984,2616.463867 978.154297,2613.018066 974.795898,2609.686279 
	C967.676758,2602.623291 967.198914,2593.909180 968.791260,2584.708740 
	C969.186829,2582.422852 969.711731,2580.105225 969.682495,2577.808350 
	C969.393677,2555.180908 971.571594,2532.746582 973.568542,2510.223389 
	C976.007324,2482.717285 973.268188,2455.138672 970.598083,2427.650635 
	C969.669556,2418.091797 970.377380,2408.371338 970.391479,2398.724609 
	C970.408447,2387.168213 970.423401,2375.611084 970.563171,2364.055908 
	C970.614929,2359.773926 970.473328,2355.378418 971.367920,2351.239746 
	C973.612061,2340.857910 976.673828,2330.650146 978.835815,2320.253906 
	C979.756714,2315.825928 980.291321,2310.824951 979.164490,2306.571045 
	C977.135315,2298.911133 974.392456,2291.269043 970.740173,2284.247559 
	C964.198730,2271.671387 965.264832,2258.863281 967.060059,2245.561035 
	C969.635803,2226.476562 971.078125,2207.357666 968.711975,2187.991455 
	C966.840698,2172.674561 971.086731,2159.148438 984.819397,2149.885986 
	C999.430603,2140.030518 1013.756409,2129.750732 1028.410645,2119.961426 
	C1033.593262,2116.499268 1037.305786,2112.283936 1039.759888,2106.576416 
	C1043.700317,2097.411865 1047.610474,2088.191162 1052.303955,2079.405762 
	C1057.059326,2070.504639 1056.809814,2062.571045 1050.960449,2054.323975 
	C1045.948486,2047.257202 1041.978882,2039.580811 1040.604614,2030.809692 
	C1038.020386,2014.316650 1037.271362,1997.843384 1040.544189,1981.339111 
	C1042.410156,1971.929321 1043.206177,1962.203735 1046.055664,1953.113159 
	C1053.013550,1930.916016 1060.896851,1909.009277 1068.370239,1886.972900 
	C1069.003906,1885.104370 1069.614014,1883.165283 1069.797363,1881.217651 
	C1070.667236,1871.973755 1071.247925,1862.701294 1072.196289,1853.466187 
	C1073.143677,1844.240723 1074.255249,1835.026001 1075.568726,1825.845703 
	C1076.992798,1815.891479 1076.552979,1806.623413 1067.917358,1798.923096 
	C1066.728760,1789.095581 1071.451660,1784.145020 1079.069946,1780.330811 
	C1084.956299,1777.383789 1090.846680,1773.837036 1095.570312,1769.334595 
	C1101.058105,1764.103882 1106.651489,1759.996948 1114.224121,1758.714111 
	C1117.486206,1758.161377 1120.595215,1756.692383 1123.858643,1756.164917 
	C1128.381348,1755.434082 1130.737061,1752.931519 1132.213623,1748.714600 
	C1134.521240,1742.124512 1136.405151,1735.126343 1140.085327,1729.326904 
	C1149.814453,1713.994873 1148.004150,1699.349365 1139.482544,1684.512085 
	C1137.026733,1680.236328 1135.661621,1674.854980 1132.214111,1671.721802 
	C1123.448486,1663.756104 1118.118774,1654.295044 1115.848145,1642.847290 
	C1115.462402,1640.903076 1114.453125,1639.082520 1114.067627,1637.138306 
	C1113.056030,1632.034790 1109.950073,1629.105103 1105.149658,1627.411987 
	C1096.681763,1624.425415 1088.295776,1621.205688 1079.879761,1618.072144 
	C1074.898438,1616.217407 1069.454346,1615.096680 1065.030396,1612.341797 
	C1046.963501,1601.090942 1031.912354,1586.528076 1021.702026,1567.764771 
	C1018.492676,1561.866943 1016.684814,1554.405518 1016.895996,1547.744019 
	C1017.025269,1543.665405 1021.877502,1539.439941 1025.191284,1535.812744 
	C1036.404663,1523.538452 1047.772339,1511.399536 1059.318970,1499.438721 
	C1062.617798,1496.021484 1064.054077,1493.097168 1062.627686,1488.062622 
	C1059.004883,1475.276245 1055.821899,1462.451050 1046.880737,1451.989746 
	C1045.465576,1450.333862 1044.758667,1447.954834 1044.090210,1445.796875 
	C1038.258179,1426.970703 1035.932617,1407.484863 1033.901123,1387.526367 
	C1044.911011,1383.881348 1055.403076,1380.827026 1065.840332,1377.596191 
	C1069.640259,1376.420044 1073.774536,1375.488525 1076.940552,1373.277466 
	C1083.133667,1368.952637 1090.052124,1367.118530 1097.112915,1365.086182 
	C1107.639648,1362.056152 1118.566772,1359.240479 1126.102905,1350.455078 
	C1133.901367,1341.364014 1143.803711,1337.884155 1155.336548,1338.057251 
	C1165.054077,1338.202881 1172.514282,1334.407715 1178.340210,1326.528564 
	C1180.803955,1323.196655 1184.142456,1319.900879 1187.826660,1318.186279 
	C1205.011108,1310.189087 1222.331665,1302.448730 1239.869141,1295.264648 
	C1246.550171,1292.527832 1250.555176,1288.591797 1253.439331,1281.941650 
	C1259.000610,1269.118286 1265.828491,1256.876343 1275.870117,1246.817505 
	C1286.577515,1236.091553 1305.332275,1234.595581 1317.856567,1243.247192 
	C1331.207642,1252.470215 1342.432983,1263.666382 1349.942749,1278.154175 
	C1359.914307,1297.391968 1376.086426,1310.649780 1392.901611,1323.271240 
	C1398.622559,1327.565552 1400.896973,1327.154175 1404.802979,1320.580200 
	C1410.842285,1310.415649 1420.873535,1302.861328 1424.107178,1290.895142 
	C1424.270874,1290.289795 1424.805786,1289.764526 1425.229736,1289.253174 
	C1431.759399,1281.375244 1433.671875,1271.527588 1433.650146,1262.129395 
	C1433.614502,1246.820312 1441.512329,1237.530640 1452.891846,1229.397583 
	C1456.181763,1227.046265 1459.606812,1223.392822 1460.645020,1219.685303 
	C1462.970581,1211.380005 1464.143555,1202.262817 1459.975952,1194.363037 
	C1452.076782,1179.390625 1448.472168,1163.058105 1444.965088,1146.946777 
	C1440.641602,1127.084473 1443.777588,1108.073486 1459.817749,1093.237305 
	C1461.528076,1091.655396 1463.287964,1090.061401 1464.681763,1088.214111 
	C1471.076050,1079.738770 1479.862427,1076.166138 1490.000732,1073.789185 
	C1503.797485,1070.554810 1517.909058,1067.287964 1528.359253,1056.318237 
	C1530.651245,1053.912354 1532.961548,1051.247559 1535.805176,1049.692749 
	C1546.864258,1043.646362 1550.091553,1033.670044 1549.891846,1022.161926 
	C1549.731445,1012.916809 1553.622681,1005.402100 1558.752319,998.332092 
	C1562.067505,993.762817 1565.924927,989.589111 1569.497437,985.203979 
	C1577.418701,975.480835 1576.162720,964.342896 1566.511597,956.275818 
	C1560.164795,950.970581 1554.069702,945.364380 1548.120972,939.200928 
	C1553.803467,928.861023 1555.070068,918.817139 1553.091797,907.801514 
	C1551.861450,900.950623 1554.020752,894.161377 1559.516479,888.878174 
	C1561.483398,886.987305 1562.685303,884.258789 1564.073608,881.820007 
	C1565.380249,879.524536 1566.398438,877.066162 1567.673218,874.750916 
	C1571.803467,867.250549 1575.637573,859.552124 1580.288330,852.385986 
	C1583.250488,847.822021 1586.413818,843.161133 1592.624390,841.661316 
	C1599.391235,840.027222 1605.847168,837.142822 1612.571655,835.285034 
	C1619.019165,833.503845 1623.495850,830.381836 1626.416748,823.866516 
	C1630.391602,815.000000 1636.297974,813.033264 1646.089600,815.434082 
	C1648.026611,815.908997 1649.938354,816.619751 1651.903320,816.826111 
	C1663.535156,818.048218 1675.619019,819.098999 1684.683838,810.154419 
	C1696.498657,798.496765 1709.186035,788.048767 1722.415649,778.112549 
	C1725.396118,775.874023 1728.679443,772.162598 1729.080933,768.801575 
	C1729.701050,763.611023 1732.810547,761.486938 1736.173584,758.833984 
	C1743.681030,752.911499 1751.645386,747.408081 1758.333252,740.654358 
	C1764.300537,734.628052 1770.092285,727.746338 1773.596924,720.151001 
	C1777.236084,712.264404 1782.972046,708.856201 1790.215088,705.986633 
	C1798.790894,702.588867 1807.361206,706.214600 1815.826538,705.385986 
	C1831.758179,703.826477 1845.146851,712.574280 1859.887207,715.774780 
	C1867.423950,717.411255 1874.590698,719.999268 1882.581177,718.990723 
	C1883.389282,720.037292 1883.987061,721.429565 1885.040894,722.064026 
	C1888.641235,724.231079 1892.211670,725.484558 1893.865601,730.592407 
	C1895.354858,735.191650 1902.953003,735.491150 1906.544312,731.255615 
	C1910.845215,726.182983 1916.492554,724.011414 1922.158447,721.494751 
	C1924.242554,720.569031 1926.183228,719.320251 1928.633179,717.975159 
	C1931.819580,722.147949 1935.379761,723.557007 1940.201050,719.778748 
	C1944.644897,716.296143 1949.229614,718.601807 1952.911377,721.567505 
	C1957.744995,725.460999 1961.703003,730.537659 1966.793823,733.990295 
	C1972.515869,737.871460 1973.410522,744.300476 1976.867676,749.305908 
	C1980.185669,754.109558 1980.290405,759.013672 1978.001953,764.085510 
	C1976.915527,766.493286 1975.289917,768.653503 1974.112549,771.027039 
	C1973.776489,771.704285 1974.155884,772.736389 1974.235229,774.077942 
	C1977.413208,773.869080 1980.229980,773.683960 1983.100586,773.495300 
	C1983.671753,776.174377 1984.216187,778.727905 1984.760986,781.283630 
	C1989.900635,783.037170 1994.742310,784.689087 1999.771118,787.050903 
	C1999.832520,789.210205 1999.706909,790.659546 1999.168701,792.537048 
	C1994.862915,799.163696 1988.930786,805.175964 1990.060547,812.696777 
	C1990.992310,818.900208 1989.235474,824.921875 1990.452637,830.772034 
	C1993.023438,843.128113 1989.453491,855.194946 1989.459961,867.416077 
	C1989.463379,873.928162 1987.880859,880.441040 1986.917847,887.676575 
	C1973.197021,888.478943 1964.724609,896.731262 1956.482300,906.331787 
	C1950.913940,912.817749 1949.061035,919.144592 1950.623779,927.097046 
	C1953.218628,940.301941 1952.273926,953.518005 1950.908691,966.784424 
	C1949.789795,977.657043 1947.467163,988.835876 1948.887939,999.449280 
	C1951.739380,1020.749084 1953.668945,1042.445312 1961.922485,1062.653809 
	C1964.779175,1069.647827 1964.256104,1075.489258 1958.791260,1080.716553 
	C1954.958740,1084.382324 1954.905640,1088.680542 1955.965088,1093.501343 
	C1958.600464,1105.491577 1960.883057,1117.559326 1963.514404,1129.550537 
	C1964.623657,1134.605591 1963.721313,1138.091187 1959.183838,1141.489624 
	C1944.818359,1152.248657 1930.853516,1163.545288 1916.802979,1174.721191 
	C1907.704834,1181.957886 1898.549683,1189.144287 1889.821167,1196.810059 
	C1887.642090,1198.723633 1886.283936,1202.288818 1885.817261,1205.291992 
	C1884.699097,1212.487671 1884.429077,1219.810547 1883.644043,1227.063477 
	C1882.555176,1237.120605 1878.927368,1245.253784 1869.040771,1250.225220 
	C1857.835938,1255.859375 1847.210693,1262.646240 1836.166138,1269.028564 
	C1836.951660,1270.477905 1837.278564,1271.428345 1837.882935,1272.145020 
	C1850.525879,1287.139038 1863.128296,1302.168335 1875.918091,1317.036499 
	C1879.164062,1320.810059 1880.653564,1324.658691 1880.188354,1329.727051 
	C1879.096313,1341.624146 1878.612671,1353.576172 1877.577881,1365.479614 
	C1877.238647,1369.381226 1877.249146,1374.626831 1874.863281,1376.785034 
	C1868.330200,1382.694214 1863.061523,1391.177124 1853.556519,1392.544312 
	C1842.557861,1394.126099 1837.641846,1400.447632 1836.106812,1410.681641 
	C1835.715942,1413.287720 1834.304688,1415.763916 1834.065186,1418.364624 
	C1833.528931,1424.188599 1832.065796,1430.398926 1833.437378,1435.831543 
	C1836.550903,1448.161987 1842.681152,1459.117676 1851.820679,1468.399414 
	C1857.156372,1473.818115 1861.426758,1480.282959 1866.205322,1486.254150 
	C1872.325684,1493.902466 1871.154175,1503.096191 1871.415039,1511.902954 
	C1871.459595,1513.404541 1869.431274,1515.113892 1868.109497,1516.485474 
	C1860.025757,1524.873901 1851.768188,1533.097290 1843.790649,1541.584473 
	C1840.864136,1544.697998 1838.012817,1548.102173 1836.042969,1551.854614 
	C1829.542969,1564.235596 1822.678467,1568.092651 1809.277466,1566.295288 
	C1806.417725,1565.911743 1803.503418,1565.935303 1799.330933,1565.698608 
	C1800.539917,1574.690796 1800.015869,1583.363281 1805.518311,1590.004272 
	C1813.619995,1599.782593 1814.271973,1611.064941 1814.362671,1622.775757 
	C1814.392456,1626.600220 1813.235840,1629.445801 1810.839722,1632.635498 
	C1800.944092,1645.808960 1786.781250,1653.460205 1773.590210,1662.343018 
	C1771.363892,1663.842285 1767.822876,1664.329712 1765.069946,1663.955688 
	C1745.674316,1661.320801 1726.250244,1658.756348 1706.997681,1655.271851 
	C1698.634155,1653.758057 1690.457764,1652.683472 1682.324341,1654.882080 
	C1673.136230,1657.365967 1665.553223,1655.844482 1658.616455,1649.094849 
	C1655.954102,1646.504395 1651.977173,1643.901611 1648.494995,1643.753418 
	C1633.592041,1643.119507 1618.456055,1641.968506 1604.630981,1649.769287 
	C1602.909546,1650.740601 1600.899658,1651.185425 1599.076782,1651.994507 
	C1585.628418,1657.963989 1577.973999,1668.547119 1575.813965,1682.821899 
	C1574.477661,1691.654297 1575.145630,1700.835571 1573.351685,1709.538086 
	C1572.045288,1715.875610 1573.832642,1720.397095 1576.991577,1725.241455 
	C1582.029419,1732.967529 1586.854736,1740.832031 1591.610352,1748.384521 
	C1587.458618,1754.917358 1583.555786,1760.347534 1580.435913,1766.195557 
	C1577.983032,1770.793579 1575.225586,1775.811890 1574.850464,1780.812134 
	C1574.110229,1790.677124 1573.745728,1800.852173 1575.330078,1810.555420 
	C1579.540649,1836.343750 1578.131348,1861.408813 1569.124634,1885.992554 
	C1567.754272,1889.733276 1566.231445,1893.484131 1565.463623,1897.365479 
	C1563.879761,1905.371094 1561.236450,1913.588135 1561.861450,1921.494385 
	C1562.524780,1929.884644 1566.027710,1938.184204 1569.087402,1946.219849 
	C1573.699829,1958.333740 1578.527832,1970.413452 1584.143555,1982.084351 
	C1590.229980,1994.733521 1592.602417,2007.726196 1591.854126,2021.668579 
	C1591.551758,2027.299316 1590.107544,2031.679443 1586.593750,2036.117554 
	C1577.732178,2047.310791 1569.186401,2058.776855 1561.008789,2070.479492 
	C1556.660645,2076.701904 1550.951294,2083.388672 1550.211670,2090.330078 
	C1549.429810,2097.668457 1553.419067,2105.699951 1556.040527,2113.177490 
	C1561.532715,2128.843750 1558.289917,2142.950439 1549.568848,2156.406006 
	C1547.994019,2158.835938 1546.291138,2161.520752 1545.853394,2164.279297 
	C1544.921997,2170.147461 1544.900391,2176.153809 1544.288818,2182.080811 
	C1543.561279,2189.132080 1544.943604,2195.059814 1551.062134,2199.631592 
	C1553.906616,2201.757080 1556.412109,2204.815186 1558.058228,2207.977783 
	C1563.476807,2218.388672 1570.304199,2227.675293 1578.299683,2236.230957 
	C1589.847412,2248.587158 1598.669312,2263.419922 1612.428833,2273.788330 
	C1613.522095,2274.612061 1614.194092,2275.995361 1614.246460,2276.063232 
	C1604.303711,2283.420898 1595.104370,2290.463623 1585.637939,2297.126709 
	C1581.439331,2300.081787 1581.039307,2303.614746 1583.211426,2307.466553 
	C1588.586914,2316.998047 1594.382690,2326.292236 1599.836426,2335.781006 
	C1601.602051,2338.853027 1603.859863,2342.151611 1604.127197,2345.488037 
	C1605.368286,2360.975342 1600.451294,2367.196777 1585.403076,2371.146484 
	C1580.308350,2372.483398 1575.204834,2374.124512 1570.453247,2376.364258 
	C1559.026367,2381.750488 1559.594727,2382.211426 1560.884277,2394.722656 
	C1561.608276,2401.746094 1561.205688,2409.616699 1558.705078,2416.100830 
	C1551.920532,2433.692627 1540.702759,2449.213867 1527.416016,2462.000488 
	C1504.940674,2483.629639 1480.378418,2503.086426 1456.787598,2523.564697 
	C1452.547607,2527.245361 1448.184326,2531.020996 1444.874146,2535.490723 
	C1435.791382,2547.755127 1426.424927,2559.936523 1418.751465,2573.074219 
	C1413.295776,2582.414795 1408.577637,2592.947998 1406.813477,2603.497803 
	C1404.405029,2617.901367 1406.026123,2632.816406 1411.682129,2646.624268 
	C1413.884399,2652.000488 1417.563232,2656.953857 1421.343140,2661.449463 
	C1424.869751,2665.644043 1427.464966,2665.101807 1430.816528,2660.755859 
	C1434.269165,2656.279297 1437.604004,2651.709717 1441.134644,2647.295654 
	C1447.791504,2638.972900 1453.199951,2637.453369 1463.643188,2640.781982 
	C1468.392944,2642.296387 1473.064453,2644.116943 1477.891235,2645.316650 
	C1494.555542,2649.458252 1495.043457,2649.781006 1508.044556,2634.700195 
	C1503.316650,2624.801025 1498.750977,2614.853760 1493.813232,2605.094482 
	C1491.849121,2601.212402 1492.028198,2597.821777 1493.076050,2593.671143 
	C1496.332520,2580.770508 1506.568970,2575.432861 1517.020264,2570.035156 
	C1522.109741,2567.406494 1527.185669,2567.564209 1532.422119,2569.278076 
	C1544.334839,2573.176270 1554.757202,2579.216797 1562.850586,2589.112793 
	C1568.056030,2595.477783 1568.789307,2600.838135 1564.701294,2608.036865 
	C1562.753296,2611.467285 1561.035645,2615.072266 1559.628418,2618.756836 
	C1556.786865,2626.195801 1553.909424,2633.648193 1551.641968,2641.272217 
	C1549.296875,2649.157227 1547.061401,2657.190918 1549.085327,2665.597900 
	C1553.723145,2684.862061 1564.331177,2700.782715 1577.112183,2715.456299 
	C1590.863770,2731.244141 1604.907104,2746.783447 1618.406006,2762.782959 
	C1625.122314,2770.743164 1627.439697,2779.658203 1623.963257,2790.485107 
	C1619.100220,2805.630371 1615.988281,2821.330811 1611.788086,2836.700928 
	C1610.596069,2841.062500 1608.903687,2845.597656 1606.273804,2849.201416 
	C1595.891724,2863.428467 1585.399292,2877.607422 1574.223511,2891.208984 
	C1568.581299,2898.075684 1564.175537,2905.275146 1562.246216,2913.807129 
	C1560.895630,2919.779541 1558.451660,2923.991943 1552.114258,2925.799805 
	C1546.603882,2927.372070 1541.695557,2928.854248 1535.834106,2926.114990 
	C1522.589722,2919.926025 1509.018921,2914.423828 1495.490845,2908.861328 
	C1492.172363,2907.497070 1488.555786,2906.625488 1484.992310,2906.129395 
	C1469.869385,2904.023193 1454.804565,2901.202637 1439.399902,2902.086670 
	C1436.771973,2902.237549 1434.104980,2901.475830 1431.448730,2901.402832 
	C1422.461060,2901.155762 1416.888672,2896.346191 1413.397095,2888.427246 
	C1409.908325,2880.514893 1406.050049,2872.761230 1402.716553,2864.786377 
	C1400.358521,2859.145752 1396.922241,2855.357666 1391.068970,2855.065430 
	C1378.896973,2871.279297 1366.862671,2887.127197 1355.067993,2903.151123 
	C1352.154175,2907.110107 1349.655762,2911.474854 1347.600098,2915.944580 
	C1343.304199,2925.285156 1340.105957,2935.283203 1332.127075,2942.362061 
	C1327.445312,2946.516113 1322.060669,2949.873779 1317.340454,2953.988770 
	C1299.041260,2969.943604 1281.214355,2986.344727 1265.155396,3004.678955 
	C1259.176880,3011.504395 1252.633301,3018.607910 1243.256836,3021.409180 
	C1231.786377,3024.835693 1220.260620,3028.078857 1208.805176,3031.553955 
	C1193.320068,3036.251465 1179.006226,3042.835205 1169.307251,3056.691895 
	C1164.797974,3063.134277 1158.537720,3067.087891 1151.334229,3070.240479 
	C1140.368774,3075.039551 1129.745239,3080.631348 1119.078735,3086.085938 
	C1117.736206,3086.772217 1117.011230,3088.665771 1116.000000,3090.000000 
z"/>
<path data-name="Mbankomo" style="fill: {#86ED5A}" fill="#86ED5A" opacity="1.000000" stroke="none" 
	d="
M1547.861938,939.892944 
	C1554.069702,945.364380 1560.164795,950.970581 1566.511597,956.275818 
	C1576.162720,964.342896 1577.418701,975.480835 1569.497437,985.203979 
	C1565.924927,989.589111 1562.067505,993.762817 1558.752319,998.332092 
	C1553.622681,1005.402100 1549.731445,1012.916809 1549.891846,1022.161926 
	C1550.091553,1033.670044 1546.864258,1043.646362 1535.805176,1049.692749 
	C1532.961548,1051.247559 1530.651245,1053.912354 1528.359253,1056.318237 
	C1517.909058,1067.287964 1503.797485,1070.554810 1490.000732,1073.789185 
	C1479.862427,1076.166138 1471.076050,1079.738770 1464.681763,1088.214111 
	C1463.287964,1090.061401 1461.528076,1091.655396 1459.817749,1093.237305 
	C1443.777588,1108.073486 1440.641602,1127.084473 1444.965088,1146.946777 
	C1448.472168,1163.058105 1452.076782,1179.390625 1459.975952,1194.363037 
	C1464.143555,1202.262817 1462.970581,1211.380005 1460.645020,1219.685303 
	C1459.606812,1223.392822 1456.181763,1227.046265 1452.891846,1229.397583 
	C1441.512329,1237.530640 1433.614502,1246.820312 1433.650146,1262.129395 
	C1433.671875,1271.527588 1431.759399,1281.375244 1425.229736,1289.253174 
	C1424.805786,1289.764526 1424.270874,1290.289795 1424.107178,1290.895142 
	C1420.873535,1302.861328 1410.842285,1310.415649 1404.802979,1320.580200 
	C1400.896973,1327.154175 1398.622559,1327.565552 1392.901611,1323.271240 
	C1376.086426,1310.649780 1359.914307,1297.391968 1349.942749,1278.154175 
	C1342.432983,1263.666382 1331.207642,1252.470215 1317.856567,1243.247192 
	C1305.332275,1234.595581 1286.577515,1236.091553 1275.870117,1246.817505 
	C1265.828491,1256.876343 1259.000610,1269.118286 1253.439331,1281.941650 
	C1250.555176,1288.591797 1246.550171,1292.527832 1239.869141,1295.264648 
	C1222.331665,1302.448730 1205.011108,1310.189087 1187.826660,1318.186279 
	C1184.142456,1319.900879 1180.803955,1323.196655 1178.340210,1326.528564 
	C1172.514282,1334.407715 1165.054077,1338.202881 1155.336548,1338.057251 
	C1143.803711,1337.884155 1133.901367,1341.364014 1126.102905,1350.455078 
	C1118.566772,1359.240479 1107.639648,1362.056152 1097.112915,1365.086182 
	C1090.052124,1367.118530 1083.133667,1368.952637 1076.940552,1373.277466 
	C1073.774536,1375.488525 1069.640259,1376.420044 1065.840332,1377.596191 
	C1055.403076,1380.827026 1044.911011,1383.881348 1033.244629,1387.615356 
	C1022.896057,1391.720581 1014.975464,1396.815918 1008.378906,1404.294556 
	C1003.257996,1410.100342 998.422852,1409.385132 993.630798,1403.179810 
	C991.189087,1400.018066 988.697144,1396.868408 986.589294,1393.487915 
	C985.636719,1391.960205 984.989685,1389.817261 985.190002,1388.066162 
	C986.246094,1378.835449 987.019958,1369.508423 989.025085,1360.466064 
	C991.701965,1348.393921 989.432434,1337.223389 984.188232,1326.610718 
	C980.463684,1319.073242 975.701660,1313.045776 965.193176,1313.689941 
	C950.704407,1314.578125 937.003601,1309.405884 923.623169,1304.432739 
	C918.155579,1302.400635 912.932861,1298.825073 908.586365,1294.867188 
	C901.964355,1288.837158 895.774231,1282.207031 890.162964,1275.219482 
	C878.897888,1261.191650 874.943176,1245.196045 879.307861,1227.497559 
	C880.715454,1221.789917 883.968933,1217.544067 889.077026,1214.260376 
	C900.668335,1206.809204 912.181396,1199.576416 926.908264,1201.766479 
	C927.879761,1201.911011 928.918701,1201.811646 929.898804,1201.654419 
	C935.500000,1200.755493 941.528564,1193.294067 939.976135,1187.836304 
	C936.904602,1177.038208 934.461914,1165.815430 925.228943,1157.896362 
	C916.895386,1150.748657 909.164673,1142.859497 900.523010,1136.125122 
	C895.750305,1132.405762 893.944275,1128.572266 894.099487,1122.707764 
	C894.388428,1111.789307 895.356445,1100.722900 890.240112,1090.349609 
	C889.101868,1088.041870 888.582031,1085.187744 888.605957,1082.592896 
	C888.681641,1074.367188 887.431885,1065.573730 889.926453,1058.074951 
	C892.670532,1049.826294 898.991699,1042.765747 903.767090,1035.195679 
	C906.430237,1030.973999 909.100037,1026.756226 911.802917,1022.559875 
	C913.721985,1019.580261 913.920532,1016.824890 912.700500,1013.214783 
	C907.069153,996.551697 901.905029,979.730530 896.612854,962.953552 
	C896.217041,961.698730 895.756409,960.285767 895.957764,959.049133 
	C897.689148,948.415894 889.736206,942.495850 884.999939,934.654175 
	C878.442322,937.903198 872.630615,941.223083 866.484924,943.721558 
	C857.859985,947.228149 849.207092,948.772217 841.648315,940.896057 
	C840.371338,939.565491 838.277832,938.333313 836.514587,938.264832 
	C824.068787,937.781616 810.885437,935.236816 802.584717,948.572205 
	C802.293762,949.039673 801.433228,949.152710 800.855042,949.423035 
	C788.559143,945.285217 788.565186,945.300415 775.291443,950.569275 
	C770.368958,952.523071 765.475342,954.580078 760.457275,956.257141 
	C744.445251,961.608093 727.556641,960.294556 711.109802,962.368042 
	C708.989746,962.635376 706.060059,961.094116 704.379517,959.480408 
	C693.950256,949.466003 685.103882,938.521790 682.271790,923.618042 
	C680.203613,912.734619 675.767395,902.773071 668.289673,894.220337 
	C665.457642,890.981079 663.023132,890.336609 658.851135,891.028137 
	C653.705139,891.881042 648.168152,891.981750 643.050232,891.043274 
	C633.921631,889.369263 624.959045,886.753723 615.968811,884.373901 
	C609.846802,882.753296 604.477478,880.958923 598.934509,887.156494 
	C594.432007,892.190918 589.654114,890.480835 586.066650,884.394531 
	C585.224243,882.965332 584.556702,881.422241 583.916443,879.886658 
	C581.209412,873.394348 578.341797,867.067261 570.497314,865.725769 
	C570.104797,859.216736 570.570618,853.059082 569.182983,847.352173 
	C567.341675,839.779358 568.025635,832.863342 571.157166,825.996826 
	C576.126343,815.100708 581.333191,804.310852 586.168762,793.356445 
	C592.190063,779.715759 584.287354,764.304199 569.948242,760.862183 
	C559.159607,758.272522 548.385376,756.609497 537.568848,760.254944 
	C532.309387,762.027527 528.619202,760.327454 525.529907,756.169678 
	C524.540161,754.837585 523.142883,753.779907 522.291992,752.378174 
	C519.570374,747.894531 515.672607,747.117676 511.072388,748.636536 
	C503.692291,751.073425 496.362701,751.330200 488.557587,750.401611 
	C480.020050,749.385742 471.259644,750.253601 462.596344,750.281250 
	C455.012665,750.305481 447.423920,750.144592 439.847382,750.382263 
	C436.302917,750.493469 432.058319,750.275085 429.385162,752.071838 
	C421.187408,757.581909 413.596497,763.994873 406.746063,769.300537 
	C409.684418,787.398560 412.446686,803.727905 414.867065,820.107849 
	C415.204010,822.387817 414.467987,825.332214 413.166077,827.246277 
	C410.184418,831.629822 406.492279,835.524170 403.185089,839.693665 
	C396.281708,848.397156 386.837921,851.297119 376.511627,849.601074 
	C370.406616,848.598389 365.540192,849.703186 360.458954,852.448425 
	C358.443817,853.537170 356.092560,854.003723 353.331909,854.343689 
	C347.760498,847.776245 341.696442,842.199219 337.932007,835.356873 
	C324.343201,810.657654 324.635498,810.496826 329.440582,781.538513 
	C329.495117,781.209778 329.542114,780.879272 329.613098,780.553955 
	C331.195648,773.299988 329.207397,767.326416 324.993774,761.030579 
	C295.958130,717.646912 267.403015,673.941833 238.527115,630.450562 
	C235.527328,625.932434 235.640152,622.234192 238.092117,617.612488 
	C244.172165,606.152283 249.654022,594.374695 255.734314,582.914612 
	C258.196869,578.273254 258.267212,574.699463 255.097229,570.181641 
	C246.693634,558.205139 238.753708,545.896057 230.873306,533.563354 
	C227.846909,528.827148 224.958405,523.874634 222.906540,518.666260 
	C214.265869,496.733093 205.740189,474.748230 197.649124,452.608063 
	C194.367615,443.628662 190.742676,435.353485 181.463028,431.126801 
	C176.470566,428.852844 175.736160,424.873291 175.530350,419.750824 
	C174.811584,401.861511 173.438614,383.999084 172.402405,366.121338 
	C172.194046,362.526520 172.372299,358.909271 172.372299,354.491974 
	C183.386490,349.614014 193.895889,344.768494 204.567825,340.312195 
	C210.069138,338.015045 215.978897,336.698456 221.487961,334.416870 
	C227.846268,331.783600 232.529449,327.395172 234.250656,320.287323 
	C236.047424,312.867615 237.895233,305.435333 240.265762,298.186768 
	C242.502716,291.346680 245.448486,284.738434 247.955811,278.350800 
	C256.525391,277.843140 263.895203,276.529755 271.069305,277.227814 
	C278.262482,277.927612 285.271210,280.593353 292.340881,282.472321 
	C299.729828,284.436096 307.171539,286.251007 314.443237,288.588226 
	C319.154602,290.102539 323.364227,290.162994 327.922821,287.995422 
	C337.230743,283.569641 346.708771,279.499237 356.143005,275.342102 
	C363.081482,272.284729 370.214905,269.628571 376.986633,266.243835 
	C386.621399,261.428070 394.703003,254.450912 401.728058,246.344086 
	C405.724213,241.732559 410.244476,239.618210 416.532440,239.917953 
	C424.883942,240.316086 434.066711,232.341904 433.403717,224.386292 
	C432.660889,215.472244 436.718323,209.216858 441.251465,202.568085 
	C448.750397,191.569366 455.599365,179.893860 466.945679,172.400864 
	C480.285095,163.591705 490.308533,151.810150 499.597046,139.146500 
	C501.736359,136.229813 503.963867,133.108932 506.842346,131.047806 
	C523.152405,119.369110 537.829956,106.055916 549.474243,89.632988 
	C551.358765,86.975006 553.253967,85.383728 556.670410,85.240639 
	C579.896912,84.267891 603.116089,83.120239 626.339233,82.064743 
	C641.603149,81.370995 656.868469,80.701805 672.135620,80.083847 
	C698.018250,79.036240 723.825806,77.149467 749.476135,73.413040 
	C751.450439,73.125450 753.486450,72.661095 755.431702,72.866791 
	C777.475525,75.197868 799.155823,70.930061 820.990601,69.449799 
	C831.590515,68.731186 842.247437,67.892097 852.841919,68.235863 
	C882.389343,69.194618 911.907654,71.184486 941.458130,71.853844 
	C954.348999,72.145836 967.283752,69.598351 980.210754,69.457481 
	C992.804016,69.320244 1005.415100,71.184639 1018.014404,71.136864 
	C1036.619019,71.066330 1055.226196,70.220169 1073.821045,69.439919 
	C1087.732056,68.856216 1101.466309,68.132729 1115.539917,69.463394 
	C1134.846191,71.288826 1154.836182,72.820068 1172.813843,61.913391 
	C1175.645020,60.195816 1178.753296,58.924900 1181.768188,57.522205 
	C1198.636597,49.674156 1215.012573,40.376198 1232.520264,34.393242 
	C1253.850586,27.103968 1272.479980,14.873147 1292.592285,5.444194 
	C1293.418213,5.056990 1293.546631,3.181880 1294.000000,1.999999 
	C1298.741089,2.000000 1303.482300,2.000000 1308.951050,2.660564 
	C1307.055664,6.327356 1304.438110,9.338417 1301.808350,12.338789 
	C1295.818481,19.173023 1294.082642,26.592224 1297.427490,35.417488 
	C1298.975830,39.503113 1298.893188,44.206882 1299.699097,49.634018 
	C1304.998779,50.853626 1307.976807,55.446636 1309.902832,61.528576 
	C1311.679932,67.140732 1314.616821,72.385643 1316.264038,76.056549 
	C1321.676270,78.143677 1326.151123,78.610947 1328.656128,81.078117 
	C1335.399902,87.719727 1342.852661,90.155388 1351.970215,88.077774 
	C1352.501465,87.956703 1353.186401,88.510033 1354.809448,89.143700 
	C1355.899902,100.437088 1365.057129,106.279121 1373.571045,112.653397 
	C1374.369263,113.251053 1375.112549,113.946907 1375.975342,114.428986 
	C1380.032471,116.695717 1382.193115,120.081253 1382.856079,124.716179 
	C1384.220581,134.256088 1390.288330,141.639297 1394.915527,149.635376 
	C1395.893188,151.324722 1398.343628,152.693420 1400.359131,153.161942 
	C1411.295532,155.704224 1422.373413,157.659149 1433.258911,160.389206 
	C1436.916138,161.306473 1440.809082,163.255981 1443.422485,165.894470 
	C1447.228271,169.736664 1451.449219,171.271057 1456.553345,172.050568 
	C1460.004395,172.577621 1463.272339,174.329239 1466.609985,175.566132 
	C1470.298706,176.933060 1473.937378,178.446548 1477.669312,179.679947 
	C1479.533447,180.296036 1482.682617,179.777100 1483.327026,180.887619 
	C1487.803955,188.603455 1495.182617,189.551743 1502.865845,190.233795 
	C1503.754395,190.312653 1504.521851,191.326202 1505.425781,191.723709 
	C1513.880371,195.441299 1518.611816,203.219070 1522.288940,210.546036 
	C1527.975708,221.877075 1538.874023,226.957092 1547.132202,237.017609 
	C1548.441162,228.462860 1552.958862,228.466629 1558.179199,229.969742 
	C1561.835449,234.027863 1561.611572,238.977020 1558.851807,242.682404 
	C1552.801514,250.805756 1561.527954,257.537537 1560.057007,265.033020 
	C1566.829590,271.302643 1573.175171,278.143829 1580.527954,283.636719 
	C1585.265259,287.175720 1588.671631,289.980713 1586.962769,296.453400 
	C1586.193481,299.367279 1591.776611,307.046417 1594.389038,307.749847 
	C1599.401001,309.099396 1604.071899,313.304993 1605.472656,316.788696 
	C1608.555664,324.456604 1611.970459,331.991119 1615.711426,340.647736 
	C1608.206299,344.806396 1605.384155,351.860779 1609.458496,361.017426 
	C1609.568726,361.265350 1609.328613,361.658020 1609.284302,361.987610 
	C1608.269897,369.516876 1608.489014,370.390320 1615.469727,372.302460 
	C1621.040894,373.828430 1626.013184,375.871338 1628.730957,379.204803 
	C1629.061279,386.148987 1628.972168,391.664551 1629.683350,397.074890 
	C1630.348511,402.134827 1629.561157,408.236420 1637.256836,409.929993 
	C1634.963379,415.835999 1632.965698,420.980621 1631.003540,426.033478 
	C1632.017700,429.052948 1632.796265,432.251434 1634.159302,435.177643 
	C1635.478638,438.009674 1636.990479,440.972412 1639.160156,443.131805 
	C1641.836182,445.795135 1646.421143,447.009308 1644.423706,452.270508 
	C1650.083984,454.215088 1648.758057,462.044159 1654.630981,464.080261 
	C1660.542480,466.129791 1660.963867,471.014191 1659.930176,476.426819 
	C1658.882568,481.913910 1658.124023,487.456207 1657.145142,493.558563 
	C1656.185059,494.012878 1654.728149,494.749847 1653.234131,495.402130 
	C1641.068115,500.713470 1628.179443,504.806274 1616.860840,511.539337 
	C1585.415649,530.244629 1554.567383,549.959045 1523.656128,569.547424 
	C1520.546997,571.517517 1518.243042,575.112793 1516.209473,578.357483 
	C1510.617310,587.280273 1510.146240,596.258667 1516.848755,605.025208 
	C1517.838745,606.320129 1518.430298,607.958679 1519.030518,609.506409 
	C1522.996826,619.735107 1525.258057,629.831482 1517.407959,639.505249 
	C1515.547241,641.798279 1514.024170,644.519165 1512.973511,647.281921 
	C1511.105225,652.194397 1507.614990,653.433105 1502.761841,653.319946 
	C1493.434692,653.102356 1484.098022,653.186890 1474.766724,653.278931 
	C1464.555786,653.379578 1453.370850,665.250732 1454.029053,675.249023 
	C1454.416382,681.132690 1454.977173,687.005005 1455.498901,693.357056 
	C1451.346436,694.447266 1447.562378,695.537476 1443.731812,696.427917 
	C1433.333130,698.845154 1423.348145,702.074158 1414.254028,708.022400 
	C1410.259766,710.635071 1407.875610,713.226135 1407.606812,718.156189 
	C1407.037842,728.593750 1403.332031,738.079956 1398.883057,747.537292 
	C1388.127441,770.400391 1381.804688,794.249329 1384.051758,819.973022 
	C1384.562866,825.823303 1386.123535,830.108154 1390.514771,833.633240 
	C1392.589355,835.298706 1394.750610,836.918213 1396.528564,838.871765 
	C1398.027954,840.519409 1399.942627,842.552124 1400.089233,844.531616 
	C1400.625000,851.764160 1401.550049,859.268799 1395.703369,865.230591 
	C1392.001831,869.004944 1388.181152,872.678955 1384.700439,876.649109 
	C1380.834473,881.058777 1376.130615,885.252869 1373.893921,890.446289 
	C1370.797729,897.635071 1369.664673,905.669189 1367.751587,913.105713 
	C1387.559937,931.583496 1409.605347,945.277222 1435.008179,954.505310 
	C1439.334961,948.932373 1443.015259,942.804016 1448.041870,938.120605 
	C1452.770874,933.714355 1458.560669,929.783630 1464.593994,927.715271 
	C1467.687256,926.654785 1472.387695,929.987305 1476.258789,931.584351 
	C1479.327393,932.850342 1482.446533,934.189819 1485.177734,936.037170 
	C1491.002563,939.977234 1496.615112,940.441345 1502.651978,936.526672 
	C1507.556519,933.346191 1513.085449,932.103516 1518.851318,933.319336 
	C1528.552246,935.364990 1538.194824,937.687073 1547.861938,939.892944 
z"/>
<path data-name="Akono" style="fill: {#F073D5}" fill="#F073D5" opacity="1.000000" stroke="none" 
	d="
M7.853695,2441.983398 
	C7.786135,2440.578613 7.718572,2439.174072 7.725339,2436.554199 
	C7.379306,2434.810791 6.958942,2434.282471 6.538553,2433.754395 
	C6.462672,2432.314453 6.386817,2430.874512 6.498156,2428.539062 
	C6.391107,2426.957031 6.096866,2426.270996 5.802640,2425.584717 
	C5.112884,2425.141113 4.423112,2424.697754 2.866670,2425.126953 
	C2.000000,2424.500000 2.000000,2423.000000 2.621767,2421.460693 
	C6.915285,2416.942627 6.588413,2413.940430 2.000000,2410.000000 
	C2.000000,2407.866699 2.000000,2405.733154 2.000012,2402.799805 
	C17.089785,2396.093018 32.463268,2390.807129 47.180550,2384.084473 
	C59.184082,2378.601562 70.305405,2371.215088 82.021088,2365.059326 
	C86.367142,2362.775635 91.277199,2361.551514 95.955788,2359.917969 
	C102.504250,2357.631348 109.064133,2355.375977 115.643608,2353.180420 
	C120.666008,2351.504395 125.735268,2349.969482 130.768265,2348.324463 
	C143.038925,2344.314453 155.333466,2340.371826 167.533783,2336.157227 
	C169.590912,2335.446777 171.660141,2333.840332 172.980698,2332.087891 
	C178.941910,2324.176270 187.138947,2320.012207 196.554138,2318.808350 
	C204.766281,2317.758545 209.199432,2312.304932 211.591263,2305.978271 
	C217.469925,2290.428467 228.268845,2280.091553 242.491516,2272.951416 
	C245.013336,2262.262451 247.504623,2251.702637 250.221039,2240.188721 
	C259.340637,2239.923096 267.508514,2239.553467 275.678558,2239.496338 
	C280.654938,2239.461670 285.722717,2239.397949 290.596252,2240.237061 
	C304.663452,2242.658691 310.475891,2232.053223 317.277435,2223.407715 
	C318.428345,2221.944824 317.584564,2217.063721 315.981903,2215.594482 
	C307.822754,2208.113281 307.595978,2197.138672 303.230804,2188.046631 
	C301.739471,2184.940186 302.994141,2180.515381 302.994141,2175.782471 
	C308.818939,2176.795898 313.613190,2177.629883 318.574677,2178.492920 
	C319.915131,2181.932373 321.216858,2185.272461 322.673370,2189.009766 
	C327.706329,2189.391602 332.673065,2189.515625 337.564453,2190.187744 
	C351.284943,2192.072754 361.911713,2185.433350 372.119446,2177.791748 
	C373.815643,2176.522217 374.951538,2174.189697 375.768646,2172.120117 
	C378.082855,2166.258545 379.793610,2160.146729 382.295563,2154.373535 
	C386.991516,2143.538330 386.095001,2132.377930 384.950714,2121.145264 
	C384.850433,2120.160889 384.433838,2119.201416 384.385742,2118.219727 
	C383.460480,2099.339111 382.697937,2080.449219 381.592255,2061.579590 
	C381.250305,2055.743652 383.092377,2051.442383 387.480957,2047.633667 
	C395.498260,2040.675415 403.168365,2033.318604 411.062561,2026.216064 
	C414.176727,2023.414307 415.872284,2020.300537 416.016754,2015.899658 
	C416.255524,2008.628174 417.220154,2001.380371 418.935730,1993.222900 
	C428.983246,1992.101685 437.989288,1992.126465 446.959076,1991.568604 
	C452.540680,1991.221558 459.562592,1991.817017 463.292114,1988.760620 
	C470.028961,1983.239868 475.741852,1975.835938 480.020752,1968.178101 
	C482.760712,1963.274658 485.083557,1959.036011 490.364502,1956.985474 
	C498.115234,1953.976196 503.783386,1948.649658 508.227081,1941.718140 
	C509.608124,1939.563721 511.716248,1936.505859 513.698242,1936.340576 
	C522.856201,1935.576782 531.830078,1931.914551 540.572937,1940.713013 
	C550.745239,1950.949829 561.653870,1961.261841 576.448914,1965.227295 
	C584.072571,1967.270752 588.317932,1973.329712 593.207642,1978.779907 
	C605.200012,1992.146484 617.283142,2005.437012 629.597717,2018.505615 
	C632.645874,2021.740234 636.715210,2024.012695 641.431396,2027.569580 
	C643.940430,2021.736816 645.859619,2017.233154 647.814209,2012.745117 
	C649.255005,2009.436646 650.386169,2005.925781 652.280823,2002.896362 
	C656.664185,1995.888428 661.856873,1989.358521 665.883667,1982.165771 
	C668.515930,1977.463989 671.906006,1974.625000 676.719299,1972.560181 
	C687.110535,1968.102295 697.390381,1963.364136 707.571289,1958.441772 
	C718.933167,1952.948364 730.670227,1950.818970 743.057312,1953.404541 
	C750.097290,1946.658813 757.367676,1932.984009 758.049316,1924.788696 
	C758.848450,1915.180420 759.209167,1905.530762 760.212463,1895.946289 
	C760.793945,1890.391968 761.544250,1884.664429 763.461304,1879.473755 
	C771.751953,1857.025757 780.458435,1834.730591 789.155457,1812.435059 
	C789.944275,1810.412842 791.480103,1807.530273 793.120117,1807.183960 
	C801.816162,1805.348022 810.672974,1802.946167 819.443298,1803.062500 
	C838.363708,1803.313354 857.254639,1805.259155 876.177979,1805.976685 
	C891.059143,1806.540649 905.972351,1806.202759 920.868164,1806.453125 
	C932.493347,1806.648315 944.221191,1808.290039 955.711670,1807.223267 
	C974.141846,1805.512451 992.200684,1807.844238 1010.405151,1809.324341 
	C1017.650696,1809.913452 1025.199829,1810.502319 1032.233032,1809.140137 
	C1044.262817,1806.810425 1055.994995,1802.943970 1067.852173,1799.722900 
	C1076.552979,1806.623413 1076.992798,1815.891479 1075.568726,1825.845703 
	C1074.255249,1835.026001 1073.143677,1844.240723 1072.196289,1853.466187 
	C1071.247925,1862.701294 1070.667236,1871.973755 1069.797363,1881.217651 
	C1069.614014,1883.165283 1069.003906,1885.104370 1068.370239,1886.972900 
	C1060.896851,1909.009277 1053.013550,1930.916016 1046.055664,1953.113159 
	C1043.206177,1962.203735 1042.410156,1971.929321 1040.544189,1981.339111 
	C1037.271362,1997.843384 1038.020386,2014.316650 1040.604614,2030.809692 
	C1041.978882,2039.580811 1045.948486,2047.257202 1050.960449,2054.323975 
	C1056.809814,2062.571045 1057.059326,2070.504639 1052.303955,2079.405762 
	C1047.610474,2088.191162 1043.700317,2097.411865 1039.759888,2106.576416 
	C1037.305786,2112.283936 1033.593262,2116.499268 1028.410645,2119.961426 
	C1013.756409,2129.750732 999.430603,2140.030518 984.819397,2149.885986 
	C971.086731,2159.148438 966.840698,2172.674561 968.711975,2187.991455 
	C971.078125,2207.357666 969.635803,2226.476562 967.060059,2245.561035 
	C965.264832,2258.863281 964.198730,2271.671387 970.740173,2284.247559 
	C974.392456,2291.269043 977.135315,2298.911133 979.164490,2306.571045 
	C980.291321,2310.824951 979.756714,2315.825928 978.835815,2320.253906 
	C976.673828,2330.650146 973.612061,2340.857910 971.367920,2351.239746 
	C970.473328,2355.378418 970.614929,2359.773926 970.563171,2364.055908 
	C970.423401,2375.611084 970.408447,2387.168213 970.391479,2398.724609 
	C970.377380,2408.371338 969.669556,2418.091797 970.598083,2427.650635 
	C973.268188,2455.138672 976.007324,2482.717285 973.568542,2510.223389 
	C971.571594,2532.746582 969.393677,2555.180908 969.682495,2577.808350 
	C969.711731,2580.105225 969.186829,2582.422852 968.791260,2584.708740 
	C967.198914,2593.909180 967.676758,2602.623291 974.795898,2609.686279 
	C978.154297,2613.018066 978.570984,2616.463867 975.887451,2620.367188 
	C970.526855,2628.164551 970.072876,2636.917725 969.999268,2646.090088 
	C969.900818,2658.351807 968.831299,2670.629883 967.661011,2682.851318 
	C966.643616,2693.477051 958.498108,2700.243652 952.602600,2708.147461 
	C951.785095,2709.243652 949.720886,2709.751953 948.172424,2709.902588 
	C940.576538,2710.642822 932.920715,2711.961182 925.360046,2711.585449 
	C914.179871,2711.029785 905.401245,2715.603760 897.139893,2722.146484 
	C894.272644,2724.416992 891.484375,2726.787354 888.226562,2729.639648 
	C874.853455,2730.505615 866.379028,2738.057617 860.281250,2747.454834 
	C845.623169,2750.877441 837.453064,2743.404785 830.299927,2733.240479 
	C824.250916,2724.645020 820.361572,2715.224609 818.291992,2705.076904 
	C817.527649,2701.329102 818.168579,2697.294922 818.168579,2693.035645 
	C824.427063,2691.832275 830.212646,2690.719727 835.952576,2689.615967 
	C840.916199,2681.086182 846.489746,2672.951904 842.330933,2662.538330 
	C841.637207,2660.801025 841.030457,2658.739258 839.717590,2657.584473 
	C827.751099,2647.058838 815.605896,2636.736328 803.575134,2626.282959 
	C793.052490,2617.139893 781.181091,2613.827881 767.529297,2617.440674 
	C765.000183,2618.110107 762.343567,2618.297852 759.456482,2618.753174 
	C758.938782,2620.424805 757.926758,2622.021729 758.062195,2623.514160 
	C759.382446,2638.051514 751.739075,2649.939209 745.676880,2661.845215 
	C740.626831,2671.763428 732.095703,2679.224121 719.158508,2677.415283 
	C718.503784,2677.323486 717.810120,2677.481445 717.163452,2677.364258 
	C698.781128,2674.039307 693.837952,2673.338623 693.675110,2651.548340 
	C693.635315,2646.221680 693.669128,2640.894531 693.669128,2635.852783 
	C687.326294,2628.321777 679.708618,2623.297607 671.056030,2619.488770 
	C655.865845,2612.802002 640.792053,2605.844238 625.774170,2598.777344 
	C621.938660,2596.972168 617.956177,2594.889404 614.963135,2591.984375 
	C600.689026,2578.129395 586.838989,2563.838867 572.619263,2549.926514 
	C565.255920,2542.722656 558.031799,2535.135254 549.658325,2529.272705 
	C541.303223,2523.422852 531.533203,2519.618164 522.490723,2514.718994 
	C514.329041,2510.297119 506.299133,2505.630615 498.237610,2501.025879 
	C494.796570,2499.060303 491.367737,2497.063232 488.029205,2494.930664 
	C480.009338,2489.808594 473.046844,2491.267334 465.013000,2496.196289 
	C444.994354,2508.477783 423.133606,2514.478516 399.388092,2511.271484 
	C396.776611,2510.918945 394.078033,2510.284668 391.716553,2509.158936 
	C376.621796,2501.963623 360.629089,2503.115967 344.654480,2503.717041 
	C337.008545,2504.004883 329.340515,2504.278076 321.701385,2504.012939 
	C314.293793,2503.755859 311.118195,2501.529541 309.824127,2494.414062 
	C306.862640,2478.129883 299.711273,2463.566895 292.268188,2449.109131 
	C290.528320,2445.729736 287.970917,2442.385742 284.965179,2440.118896 
	C277.132660,2434.211426 270.323700,2426.886475 259.611328,2425.140137 
	C252.070694,2423.910645 245.215103,2424.748291 240.059219,2429.414551 
	C230.606384,2437.969971 219.517319,2440.825928 207.459381,2442.135010 
	C185.936707,2444.471191 165.326706,2451.124512 144.285873,2455.752441 
	C115.426323,2462.100342 86.512909,2468.238525 57.502979,2473.848145 
	C47.199207,2475.840332 40.987709,2480.853760 37.610718,2490.759033 
	C34.715313,2499.251953 32.891327,2500.024902 26.451071,2499.387695 
	C21.183353,2498.866455 16.988998,2494.955078 15.652398,2488.163818 
	C13.416665,2476.804199 11.657766,2465.350586 9.868507,2452.588867 
	C9.607617,2450.723633 9.176409,2450.206055 8.745223,2449.688477 
	C8.600640,2448.268066 8.456034,2446.847900 8.494997,2444.490967 
	C8.817480,2442.789795 8.542521,2442.266113 7.853695,2441.983398 
z"/>
<path data-name="Ngoumou" style="fill: {#3D8DA1}" fill="#3D8DA1" opacity="1.000000" stroke="none" 
	d="
M1067.917358,1798.923096 
	C1055.994995,1802.943970 1044.262817,1806.810425 1032.233032,1809.140137 
	C1025.199829,1810.502319 1017.650696,1809.913452 1010.405151,1809.324341 
	C992.200684,1807.844238 974.141846,1805.512451 955.711670,1807.223267 
	C944.221191,1808.290039 932.493347,1806.648315 920.868164,1806.453125 
	C905.972351,1806.202759 891.059143,1806.540649 876.177979,1805.976685 
	C857.254639,1805.259155 838.363708,1803.313354 819.443298,1803.062500 
	C810.672974,1802.946167 801.816162,1805.348022 793.120117,1807.183960 
	C791.480103,1807.530273 789.944275,1810.412842 789.155457,1812.435059 
	C780.458435,1834.730591 771.751953,1857.025757 763.461304,1879.473755 
	C761.544250,1884.664429 760.793945,1890.391968 760.212463,1895.946289 
	C759.209167,1905.530762 758.848450,1915.180420 758.049316,1924.788696 
	C757.367676,1932.984009 750.097290,1946.658813 743.057312,1953.404541 
	C730.670227,1950.818970 718.933167,1952.948364 707.571289,1958.441772 
	C697.390381,1963.364136 687.110535,1968.102295 676.719299,1972.560181 
	C671.906006,1974.625000 668.515930,1977.463989 665.883667,1982.165771 
	C661.856873,1989.358521 656.664185,1995.888428 652.280823,2002.896362 
	C650.386169,2005.925781 649.255005,2009.436646 647.814209,2012.745117 
	C645.859619,2017.233154 643.940430,2021.736816 641.431396,2027.569580 
	C636.715210,2024.012695 632.645874,2021.740234 629.597717,2018.505615 
	C617.283142,2005.437012 605.200012,1992.146484 593.207642,1978.779907 
	C588.317932,1973.329712 584.072571,1967.270752 576.448914,1965.227295 
	C561.653870,1961.261841 550.745239,1950.949829 540.572937,1940.713013 
	C531.830078,1931.914551 522.856201,1935.576782 513.698242,1936.340576 
	C511.716248,1936.505859 509.608124,1939.563721 508.227081,1941.718140 
	C503.783386,1948.649658 498.115234,1953.976196 490.364502,1956.985474 
	C485.083557,1959.036011 482.760712,1963.274658 480.020752,1968.178101 
	C475.741852,1975.835938 470.028961,1983.239868 463.292114,1988.760620 
	C459.562592,1991.817017 452.540680,1991.221558 446.959076,1991.568604 
	C437.989288,1992.126465 428.983246,1992.101685 419.068573,1992.365601 
	C415.937622,1991.661255 413.628235,1991.128296 411.541260,1990.130371 
	C402.363647,1985.741821 393.251312,1987.030762 383.468933,1988.407471 
	C371.837616,1990.044556 361.827881,1993.521118 353.242279,2001.447754 
	C350.671387,2003.821533 347.587677,2004.580200 344.003113,2003.078613 
	C332.723663,1998.354004 321.364349,1993.819946 308.212830,1988.470459 
	C314.111237,1981.941406 318.315948,1975.948975 323.797577,1971.546265 
	C331.238983,1965.569458 333.101868,1958.132080 332.164673,1949.491333 
	C331.570343,1944.011841 331.754669,1938.940430 334.936737,1934.181519 
	C335.798615,1932.892822 336.255524,1931.033569 336.184570,1929.468506 
	C335.631317,1917.264526 337.174225,1904.936768 333.127075,1892.945190 
	C329.942535,1883.508911 327.491669,1873.822144 324.809998,1864.220093 
	C323.308044,1858.842163 321.120514,1853.605103 323.431305,1847.720337 
	C324.163330,1845.856201 323.158386,1843.176514 322.594788,1840.959839 
	C319.777374,1829.877808 318.672302,1818.653320 320.357941,1807.333252 
	C320.969177,1803.228516 322.573395,1799.224609 324.093658,1795.318481 
	C325.155060,1792.591064 327.373077,1790.258057 328.159729,1787.489136 
	C331.307648,1776.408203 329.531616,1771.393066 320.010681,1764.395996 
	C314.656342,1760.461182 309.058929,1756.838501 303.421234,1753.314819 
	C299.970673,1751.157959 298.334503,1748.322754 298.278503,1744.294922 
	C298.190643,1737.973633 298.092896,1731.643188 297.673676,1725.338135 
	C297.122955,1717.056152 300.455627,1710.646484 306.083160,1704.845093 
	C311.829681,1698.921387 317.095551,1692.531372 323.187927,1685.649658 
	C319.610718,1681.523438 316.656067,1678.074341 313.657257,1674.664062 
	C305.666504,1665.577148 305.735565,1652.830811 313.062592,1643.142456 
	C316.203369,1638.989502 317.956329,1633.786011 320.332520,1629.056030 
	C323.308136,1623.132935 326.276184,1617.205933 329.656891,1610.464355 
	C322.404816,1596.874512 315.457794,1582.053711 304.071930,1570.193848 
	C298.403259,1564.288940 291.584839,1559.807861 283.489502,1556.867676 
	C275.660522,1554.024170 267.567444,1550.200684 261.426697,1544.741821 
	C244.270248,1529.490845 228.057098,1513.178223 211.509689,1497.245117 
	C210.845932,1496.605835 210.570755,1495.563110 209.668320,1493.872314 
	C221.016464,1490.457031 232.221664,1487.582153 243.652374,1487.324707 
	C248.109100,1487.224243 252.707123,1491.109497 257.153351,1493.352783 
	C264.262360,1496.939819 271.319824,1500.631104 278.358093,1504.355591 
	C283.324982,1506.984375 288.358398,1509.525513 293.121490,1512.491943 
	C299.934601,1516.735107 306.750061,1516.970947 311.895752,1510.830933 
	C318.163025,1503.352661 326.149933,1500.459473 335.068054,1498.532471 
	C340.580719,1497.341431 345.955109,1495.523560 351.445801,1494.214600 
	C359.787689,1492.225830 367.030212,1488.753418 371.689056,1481.056030 
	C372.872101,1479.101440 374.658020,1477.459717 376.355591,1475.876709 
	C395.784882,1457.758423 397.579102,1435.733032 390.598297,1411.771484 
	C390.141022,1410.201904 389.587189,1408.461060 388.530365,1407.297729 
	C381.318268,1399.358521 379.592743,1389.826660 379.783936,1379.539429 
	C379.955353,1370.317871 379.931610,1361.081787 379.610596,1351.865479 
	C379.324402,1343.648682 382.872620,1337.077148 387.692352,1330.986694 
	C392.228363,1325.255005 394.353455,1319.035034 393.833252,1311.589111 
	C393.319824,1304.240723 394.165924,1296.983398 399.145844,1290.852905 
	C403.125336,1285.953979 402.228516,1279.972412 401.558472,1274.508789 
	C400.067261,1262.350220 398.327820,1250.279175 391.032532,1239.630493 
	C386.745544,1233.372925 383.948914,1226.080566 380.625305,1219.184448 
	C379.475739,1216.799194 378.029968,1214.223511 377.967957,1211.703979 
	C377.666107,1199.438110 372.058563,1188.914917 367.349945,1178.125122 
	C364.980438,1172.695435 361.825867,1167.608276 358.660980,1161.682129 
	C349.652069,1161.682129 340.688110,1161.381226 331.757416,1161.795654 
	C326.452057,1162.041748 322.679321,1160.426514 320.221405,1155.821533 
	C315.834595,1147.602661 310.513550,1139.693848 307.510315,1130.990356 
	C305.461090,1125.051514 305.460815,1117.742188 306.689392,1111.465576 
	C309.812347,1095.510498 314.491608,1079.865601 317.858551,1063.950684 
	C319.976929,1053.937744 320.941345,1043.673218 322.259644,1033.500366 
	C323.621002,1022.995239 324.517273,1012.421448 326.201630,1001.971985 
	C326.687408,998.958008 328.721436,995.834839 330.863922,993.518677 
	C335.875671,988.100891 340.291595,982.503662 343.017609,975.486511 
	C344.132477,972.616760 346.869171,970.266663 349.183411,968.002563 
	C351.760193,965.481873 354.696014,963.328186 357.255798,961.197510 
	C355.616333,947.459351 346.690125,939.859436 336.118530,934.690125 
	C326.256683,929.867981 320.057007,922.333374 314.435944,912.920105 
	C324.963165,904.171570 335.308746,895.342590 345.934113,886.864136 
	C349.874542,883.719849 351.964935,880.392517 351.983124,875.151855 
	C352.004913,868.883362 353.084015,862.618469 353.799774,855.552795 
	C356.092560,854.003723 358.443817,853.537170 360.458954,852.448425 
	C365.540192,849.703186 370.406616,848.598389 376.511627,849.601074 
	C386.837921,851.297119 396.281708,848.397156 403.185089,839.693665 
	C406.492279,835.524170 410.184418,831.629822 413.166077,827.246277 
	C414.467987,825.332214 415.204010,822.387817 414.867065,820.107849 
	C412.446686,803.727905 409.684418,787.398560 406.746063,769.300537 
	C413.596497,763.994873 421.187408,757.581909 429.385162,752.071838 
	C432.058319,750.275085 436.302917,750.493469 439.847382,750.382263 
	C447.423920,750.144592 455.012665,750.305481 462.596344,750.281250 
	C471.259644,750.253601 480.020050,749.385742 488.557587,750.401611 
	C496.362701,751.330200 503.692291,751.073425 511.072388,748.636536 
	C515.672607,747.117676 519.570374,747.894531 522.291992,752.378174 
	C523.142883,753.779907 524.540161,754.837585 525.529907,756.169678 
	C528.619202,760.327454 532.309387,762.027527 537.568848,760.254944 
	C548.385376,756.609497 559.159607,758.272522 569.948242,760.862183 
	C584.287354,764.304199 592.190063,779.715759 586.168762,793.356445 
	C581.333191,804.310852 576.126343,815.100708 571.157166,825.996826 
	C568.025635,832.863342 567.341675,839.779358 569.182983,847.352173 
	C570.570618,853.059082 570.104797,859.216736 570.497314,865.725769 
	C578.341797,867.067261 581.209412,873.394348 583.916443,879.886658 
	C584.556702,881.422241 585.224243,882.965332 586.066650,884.394531 
	C589.654114,890.480835 594.432007,892.190918 598.934509,887.156494 
	C604.477478,880.958923 609.846802,882.753296 615.968811,884.373901 
	C624.959045,886.753723 633.921631,889.369263 643.050232,891.043274 
	C648.168152,891.981750 653.705139,891.881042 658.851135,891.028137 
	C663.023132,890.336609 665.457642,890.981079 668.289673,894.220337 
	C675.767395,902.773071 680.203613,912.734619 682.271790,923.618042 
	C685.103882,938.521790 693.950256,949.466003 704.379517,959.480408 
	C706.060059,961.094116 708.989746,962.635376 711.109802,962.368042 
	C727.556641,960.294556 744.445251,961.608093 760.457275,956.257141 
	C765.475342,954.580078 770.368958,952.523071 775.291443,950.569275 
	C788.565186,945.300415 788.559143,945.285217 800.855042,949.423035 
	C801.433228,949.152710 802.293762,949.039673 802.584717,948.572205 
	C810.885437,935.236816 824.068787,937.781616 836.514587,938.264832 
	C838.277832,938.333313 840.371338,939.565491 841.648315,940.896057 
	C849.207092,948.772217 857.859985,947.228149 866.484924,943.721558 
	C872.630615,941.223083 878.442322,937.903198 884.999939,934.654175 
	C889.736206,942.495850 897.689148,948.415894 895.957764,959.049133 
	C895.756409,960.285767 896.217041,961.698730 896.612854,962.953552 
	C901.905029,979.730530 907.069153,996.551697 912.700500,1013.214783 
	C913.920532,1016.824890 913.721985,1019.580261 911.802917,1022.559875 
	C909.100037,1026.756226 906.430237,1030.973999 903.767090,1035.195679 
	C898.991699,1042.765747 892.670532,1049.826294 889.926453,1058.074951 
	C887.431885,1065.573730 888.681641,1074.367188 888.605957,1082.592896 
	C888.582031,1085.187744 889.101868,1088.041870 890.240112,1090.349609 
	C895.356445,1100.722900 894.388428,1111.789307 894.099487,1122.707764 
	C893.944275,1128.572266 895.750305,1132.405762 900.523010,1136.125122 
	C909.164673,1142.859497 916.895386,1150.748657 925.228943,1157.896362 
	C934.461914,1165.815430 936.904602,1177.038208 939.976135,1187.836304 
	C941.528564,1193.294067 935.500000,1200.755493 929.898804,1201.654419 
	C928.918701,1201.811646 927.879761,1201.911011 926.908264,1201.766479 
	C912.181396,1199.576416 900.668335,1206.809204 889.077026,1214.260376 
	C883.968933,1217.544067 880.715454,1221.789917 879.307861,1227.497559 
	C874.943176,1245.196045 878.897888,1261.191650 890.162964,1275.219482 
	C895.774231,1282.207031 901.964355,1288.837158 908.586365,1294.867188 
	C912.932861,1298.825073 918.155579,1302.400635 923.623169,1304.432739 
	C937.003601,1309.405884 950.704407,1314.578125 965.193176,1313.689941 
	C975.701660,1313.045776 980.463684,1319.073242 984.188232,1326.610718 
	C989.432434,1337.223389 991.701965,1348.393921 989.025085,1360.466064 
	C987.019958,1369.508423 986.246094,1378.835449 985.190002,1388.066162 
	C984.989685,1389.817261 985.636719,1391.960205 986.589294,1393.487915 
	C988.697144,1396.868408 991.189087,1400.018066 993.630798,1403.179810 
	C998.422852,1409.385132 1003.257996,1410.100342 1008.378906,1404.294556 
	C1014.975464,1396.815918 1022.896057,1391.720581 1032.705078,1388.136475 
	C1035.932617,1407.484863 1038.258179,1426.970703 1044.090210,1445.796875 
	C1044.758667,1447.954834 1045.465576,1450.333862 1046.880737,1451.989746 
	C1055.821899,1462.451050 1059.004883,1475.276245 1062.627686,1488.062622 
	C1064.054077,1493.097168 1062.617798,1496.021484 1059.318970,1499.438721 
	C1047.772339,1511.399536 1036.404663,1523.538452 1025.191284,1535.812744 
	C1021.877502,1539.439941 1017.025269,1543.665405 1016.895996,1547.744019 
	C1016.684814,1554.405518 1018.492676,1561.866943 1021.702026,1567.764771 
	C1031.912354,1586.528076 1046.963501,1601.090942 1065.030396,1612.341797 
	C1069.454346,1615.096680 1074.898438,1616.217407 1079.879761,1618.072144 
	C1088.295776,1621.205688 1096.681763,1624.425415 1105.149658,1627.411987 
	C1109.950073,1629.105103 1113.056030,1632.034790 1114.067627,1637.138306 
	C1114.453125,1639.082520 1115.462402,1640.903076 1115.848145,1642.847290 
	C1118.118774,1654.295044 1123.448486,1663.756104 1132.214111,1671.721802 
	C1135.661621,1674.854980 1137.026733,1680.236328 1139.482544,1684.512085 
	C1148.004150,1699.349365 1149.814453,1713.994873 1140.085327,1729.326904 
	C1136.405151,1735.126343 1134.521240,1742.124512 1132.213623,1748.714600 
	C1130.737061,1752.931519 1128.381348,1755.434082 1123.858643,1756.164917 
	C1120.595215,1756.692383 1117.486206,1758.161377 1114.224121,1758.714111 
	C1106.651489,1759.996948 1101.058105,1764.103882 1095.570312,1769.334595 
	C1090.846680,1773.837036 1084.956299,1777.383789 1079.069946,1780.330811 
	C1071.451660,1784.145020 1066.728760,1789.095581 1067.917358,1798.923096 
z"/>
</svg>