<svg version="1.1" id="Layer_1" xmlns="http://www.w3.org/2000/svg" xmlns:xlink="http://www.w3.org/1999/xlink" x="0px" y="0px"
	 width="100%" viewBox="0 0 2229 2916" enable-background="new 0 0 2229 2916" xml:space="preserve">

<path data-name="Baschéo" fill="#339139" opacity="1.000000" stroke="none" 
	d="
M580.976196,581.643311 
	C582.672546,575.647278 581.829529,570.238953 579.338379,564.313477 
	C575.799438,555.895508 573.916077,546.785461 577.514771,536.928894 
	C576.241272,535.370850 573.063965,533.163391 572.741333,530.597046 
	C572.443298,528.226868 574.753723,525.046265 576.708496,522.969116 
	C581.804504,517.554138 581.894775,510.443604 583.512817,503.941895 
	C583.966125,502.120361 581.852966,499.231201 580.257507,497.409332 
	C575.501343,491.978119 574.583008,482.417542 578.841736,476.679413 
	C579.746216,475.460663 581.645996,473.781097 582.653320,474.035095 
	C588.669067,475.551941 591.346680,469.816101 595.893066,468.464661 
	C598.619812,467.654175 599.774902,466.340637 599.859680,463.643311 
	C599.889709,462.688446 600.054016,461.262848 600.673828,460.872131 
	C611.243958,454.208740 604.982727,447.607513 600.730591,440.963837 
	C600.385681,440.424957 600.282898,439.731079 599.919678,438.682098 
	C601.631653,435.810913 603.490295,432.693909 605.516235,429.296295 
	C604.492798,427.062317 603.419373,424.719208 602.259827,422.188171 
	C602.960205,420.963623 603.321960,419.336060 604.292664,418.788696 
	C613.403870,413.651245 613.419678,403.114380 618.038208,395.347137 
	C619.306763,393.213593 618.097839,388.440704 616.419067,385.971375 
	C613.241333,381.297302 613.766479,376.554626 614.078186,371.595581 
	C614.255127,368.780670 614.353516,365.960815 614.487549,363.143188 
	C614.518188,362.499908 614.354919,361.387817 614.610168,361.281494 
	C622.730469,357.897552 617.670654,351.234375 618.867249,346.094147 
	C620.218445,340.289551 623.522705,334.414246 627.467224,329.859894 
	C633.617737,322.758575 638.597168,313.900848 648.800537,311.328247 
	C652.658691,303.980988 662.544617,301.808258 663.843994,291.504486 
	C664.529724,286.066528 670.471069,281.215790 674.264893,276.273041 
	C676.627441,273.195068 679.411377,270.440613 681.925720,267.630890 
	C680.185303,264.602966 678.893799,262.380035 677.627380,260.142914 
	C676.976990,258.993896 676.603943,257.042511 675.710083,256.775024 
	C665.055298,253.586380 660.803894,241.118866 649.488159,238.880463 
	C645.936829,238.177979 643.169739,236.585342 641.204224,232.655792 
	C640.091553,230.431259 634.791443,228.510208 632.130737,229.231476 
	C626.922241,230.643478 623.982056,228.665314 620.693298,225.496109 
	C618.822571,223.693375 616.372925,221.290848 614.155212,221.260559 
	C605.462097,221.141785 600.498901,215.091766 594.343201,209.997391 
	C594.740845,208.291443 595.084778,206.364975 595.641663,204.502182 
	C598.726562,194.184830 597.131714,189.109222 589.057617,182.042953 
	C587.576538,180.746811 586.315308,178.446259 586.170044,176.517639 
	C585.723755,170.592133 585.871094,164.622101 585.781555,158.669479 
	C585.761475,157.337494 586.247742,155.617203 585.601440,154.733612 
	C578.354858,144.826782 585.901062,138.066727 590.801086,131.048401 
	C593.991150,126.479248 598.183533,122.602837 601.986816,118.471275 
	C604.443909,115.802147 606.813293,114.986465 611.092590,114.947029 
	C616.593262,114.896332 622.266174,113.798225 628.071228,113.884445 
	C634.556824,113.980774 634.297791,107.137390 636.551331,103.346756 
	C641.063293,101.806122 645.343018,100.344788 649.622742,98.883453 
	C650.083618,98.161865 650.544434,97.440285 651.005249,96.718697 
	C648.792603,95.512833 646.579895,94.306969 643.010132,92.361534 
	C645.861877,90.124023 647.547607,88.297691 649.627930,87.269112 
	C654.678345,84.771881 654.617554,81.752975 651.040833,78.099411 
	C656.601440,73.668198 659.638062,67.042915 656.784058,61.117100 
	C655.283081,58.000515 655.810974,56.533051 657.006165,54.262924 
	C662.384155,44.048161 660.979858,38.626797 653.566406,30.355921 
	C647.576843,23.673594 640.045715,21.616365 632.051270,19.830969 
	C629.796204,19.327330 627.481445,19.093990 625.220642,18.611908 
	C615.604919,16.561455 607.226929,12.654438 602.288086,2.632386 
	C639.375122,2.000000 676.750244,2.000000 715.062683,2.000000 
	C715.843933,5.663002 718.097534,7.014931 721.181763,8.279866 
	C725.762207,10.158416 730.357666,12.280002 734.430725,15.055426 
	C742.005310,20.216829 749.887268,23.809855 759.244019,24.355167 
	C762.166504,24.525488 765.330078,26.590200 767.735413,28.573465 
	C779.051819,37.904076 791.499146,44.039574 806.536560,43.817024 
	C809.178223,43.777931 812.069763,43.493855 814.431885,44.400974 
	C833.540955,51.739353 853.315308,47.040985 872.717590,47.280430 
	C881.563538,47.389595 890.469421,42.873653 899.342224,40.433979 
	C901.876831,39.737057 904.402649,38.295704 906.912048,38.340591 
	C919.003235,38.556892 930.644592,36.885296 941.984314,32.430977 
	C944.339722,31.505735 947.833008,32.619221 950.506287,33.599442 
	C953.252625,34.606487 955.721008,36.480289 958.164856,38.184349 
	C967.603760,44.766098 977.392639,50.104813 990.737366,48.535038 
	C996.306458,53.733799 1000.710632,58.183231 1005.044861,62.699791 
	C1010.341797,68.219604 1010.586548,73.876793 1006.267456,80.022964 
	C1005.377808,81.288834 1005.647644,83.335564 1005.247925,84.989731 
	C1004.889038,86.475212 1004.802795,88.527557 1003.805725,89.274544 
	C998.327759,93.378624 995.553650,101.718636 985.194214,99.278671 
	C988.020569,104.132866 990.955078,107.255409 991.575623,110.784782 
	C992.180481,114.224640 990.418640,118.080620 989.638428,122.045921 
	C992.832764,124.281021 996.073547,127.442131 999.956726,129.084534 
	C1008.733398,132.796616 1010.701904,140.096191 1011.776428,148.336777 
	C1012.278015,152.183960 1013.739563,155.911301 1014.175964,159.759872 
	C1014.482178,162.459717 1014.814575,166.204391 1013.328064,167.838303 
	C1010.372009,171.087433 1006.127930,173.145996 1002.500488,175.811401 
	C1000.794128,177.065140 999.085571,178.417831 997.729248,180.022568 
	C995.638611,182.496033 993.850037,185.224762 992.334045,187.297348 
	C992.334045,195.019516 991.917175,202.281006 992.443237,209.473526 
	C993.053589,217.819458 988.864746,224.065506 984.777466,230.528870 
	C984.270691,231.330185 984.190796,232.426895 984.009583,233.404602 
	C982.235596,242.975815 976.852722,249.038193 967.929016,253.429901 
	C961.305847,256.689453 955.630615,262.255493 950.240784,267.518799 
	C946.056824,271.604553 943.018616,276.851166 939.359497,281.493774 
	C938.136719,283.045288 935.647034,284.133514 935.309631,285.759857 
	C933.271362,295.585754 926.784546,303.037262 922.353943,311.580322 
	C919.970947,316.175171 917.281921,320.031799 912.983276,322.903351 
	C911.210266,324.087708 909.862854,325.909271 908.387207,327.376068 
	C914.211731,334.750549 914.406189,338.766144 909.723022,346.280426 
	C909.195618,347.126617 908.272644,347.825928 908.027954,348.727692 
	C907.539429,350.527985 906.908508,352.498077 907.186707,354.264099 
	C908.948059,365.446594 903.381714,374.440521 892.825317,377.433990 
	C890.425415,378.114532 887.073975,378.920837 886.152100,380.700714 
	C882.977661,386.830139 879.789856,393.216492 878.301331,399.883209 
	C876.722534,406.954071 870.317383,412.075653 870.992188,419.889587 
	C871.073486,420.831390 869.538940,422.068787 868.541199,422.920776 
	C863.995544,426.802551 859.486511,430.745300 854.711609,434.329498 
	C853.273071,435.409302 850.415405,436.426910 849.237122,435.730804 
	C841.081787,430.912567 838.051392,437.691620 833.465088,442.071350 
	C834.144348,444.683319 835.344299,447.230713 835.331543,449.771973 
	C835.315552,452.948669 835.367188,457.128052 833.507385,459.093842 
	C829.012268,463.845154 823.947388,468.639465 818.158020,471.452789 
	C808.633057,476.081482 798.318604,479.067963 788.408264,482.929535 
	C784.167053,484.582092 780.849060,484.161438 777.694580,480.579224 
	C776.591003,479.326019 774.172058,479.231201 770.614258,478.010620 
	C773.710938,486.051575 778.390259,489.101410 783.887634,491.909698 
	C788.146545,494.085358 793.626526,497.029755 795.053162,500.919861 
	C797.850220,508.546692 803.398010,512.625000 809.242432,517.002014 
	C813.711548,520.349060 818.650879,523.086304 820.631104,529.089905 
	C822.142273,533.671448 826.518433,535.187134 831.070923,535.536377 
	C835.387634,535.867554 839.741394,535.785400 844.042847,536.231750 
	C855.029907,537.371643 866.097168,539.168701 874.828003,546.342896 
	C881.194519,551.574280 886.298584,558.343384 891.956055,564.435730 
	C894.209351,566.862305 895.989319,570.282715 898.763672,571.563477 
	C906.072693,574.937683 909.852356,581.029053 912.785400,587.789734 
	C914.647461,592.081787 917.110901,595.184509 921.679688,597.091797 
	C919.366455,610.133179 911.711609,616.170898 899.569763,618.657959 
	C887.082764,621.215637 879.545471,633.130371 867.722534,637.449158 
	C866.828979,637.775574 866.681396,639.800415 865.874084,640.777161 
	C864.059692,642.972412 862.281738,645.308594 860.052917,647.019470 
	C857.762451,648.777710 854.953552,649.860596 852.089966,651.389282 
	C853.646301,657.017090 854.463318,662.010254 850.372437,666.694763 
	C846.494019,671.135925 843.414734,676.265015 839.805420,680.954102 
	C836.665344,685.033569 835.704346,689.073425 838.613342,693.723877 
	C839.417419,695.009277 839.461060,696.770386 840.070496,699.165833 
	C830.839844,699.033691 829.187805,705.394165 827.199646,712.151489 
	C822.195862,710.373169 817.788025,708.844116 813.721375,706.675415 
	C779.112305,688.218750 744.615173,669.551758 709.985901,651.133301 
	C672.413391,631.149292 634.712524,611.406677 597.127502,591.445984 
	C591.574646,588.496887 586.351746,584.926392 580.976196,581.643311 
z"/>
<path data-name="Mayo-Hourna" fill="#E0B994" opacity="1.000000" stroke="none" 
	d="
M2.000000,942.666626 
	C6.874685,941.038208 11.551492,941.037842 15.687465,944.421021 
	C21.318392,949.027039 27.726030,949.341919 35.745068,947.303162 
	C35.745068,943.527710 35.840359,939.412842 35.714428,935.304810 
	C35.616562,932.112427 35.920486,928.749329 39.454762,928.102295 
	C45.289795,927.033936 46.870872,922.552002 47.667439,918.144409 
	C49.242596,909.428650 58.359291,909.827576 62.841320,904.738831 
	C63.245995,904.279358 65.874847,904.769165 66.296013,905.497498 
	C69.061745,910.280090 74.367836,908.229553 75.839653,906.685974 
	C80.394135,901.909729 89.684616,905.864929 91.904999,897.413513 
	C92.145576,896.497803 94.749069,895.944763 96.332077,895.686401 
	C101.967018,894.766785 106.960526,893.055115 108.539940,886.320129 
	C112.308891,887.128052 115.466438,887.804932 117.564041,888.254578 
	C125.342812,885.024536 132.431870,882.130188 139.465546,879.107056 
	C140.518112,878.654663 141.490356,877.732239 142.190109,876.795837 
	C144.217697,874.082825 146.087570,871.252014 148.491165,867.787292 
	C145.643234,862.007935 150.762634,857.709229 153.796356,852.810608 
	C156.790115,847.976624 159.817856,843.378052 166.897095,844.087036 
	C169.129898,844.310608 172.231995,842.711853 173.848511,840.949402 
	C178.765503,835.588684 183.445847,829.947205 187.617798,823.994202 
	C189.653290,821.089661 192.098389,818.497925 191.013565,813.422546 
	C190.097031,809.134460 193.635651,803.894104 195.493896,798.178894 
	C199.523346,796.375488 200.850967,801.769409 204.005280,803.773438 
	C205.318268,803.157410 206.943115,802.930542 207.571213,802.017761 
	C214.139267,792.473145 224.677185,788.871765 234.385178,784.180847 
	C239.507126,781.705872 243.548370,778.107849 245.212234,773.128967 
	C247.062851,767.591370 251.416245,765.485168 255.619431,763.235901 
	C260.224945,760.771484 265.370270,759.315857 271.339600,757.992249 
	C273.220367,759.116699 273.981812,759.803101 274.872009,760.202881 
	C307.011993,774.637695 339.154907,789.066040 371.316406,803.452759 
	C420.164307,825.303833 469.037384,847.098694 517.878052,868.966003 
	C546.395996,881.734375 574.863159,894.616211 603.368530,907.412842 
	C648.245544,927.559082 693.135437,947.676453 738.010498,968.644897 
	C737.310303,973.023254 736.563354,976.553223 735.947571,980.105835 
	C735.512512,982.616394 734.417297,985.407227 735.080933,987.637146 
	C736.835449,993.532654 734.206970,998.287476 730.086243,1000.654053 
	C721.658142,1005.494263 720.671753,1011.727600 723.866028,1019.804810 
	C725.298218,1023.426453 726.532837,1027.162109 728.340332,1030.591309 
	C731.227600,1036.068970 733.570557,1041.157349 729.596863,1047.372559 
	C728.370300,1049.291016 728.508728,1053.495117 729.838135,1055.354004 
	C733.054626,1059.851196 737.340698,1063.583374 741.156616,1067.583252 
	C740.168884,1074.834717 739.832458,1082.120850 731.698364,1085.875244 
	C729.996948,1086.660645 728.599792,1090.629028 728.957764,1092.821045 
	C729.678345,1097.233398 731.178345,1101.722656 733.339478,1105.637573 
	C735.448425,1109.458130 737.099731,1114.099731 743.182007,1114.348389 
	C746.235229,1114.473389 749.192749,1116.937500 752.158447,1119.165894 
	C750.447998,1127.754883 749.037659,1135.372803 751.615845,1143.424072 
	C752.426208,1145.954590 750.042419,1149.508057 748.398071,1152.380615 
	C737.287537,1151.890381 730.417786,1145.797485 725.158630,1137.775269 
	C722.020630,1132.988770 718.304932,1131.521484 713.421997,1133.859497 
	C710.267578,1135.369873 706.350342,1137.178833 704.900635,1139.961426 
	C701.942688,1145.638916 700.420715,1152.064575 697.908142,1159.336914 
	C697.576782,1159.407593 695.702026,1160.047607 693.792908,1160.175537 
	C682.594299,1160.925171 672.183044,1157.894043 661.899231,1153.772949 
	C656.404663,1151.571289 650.616943,1149.873291 644.806274,1148.752075 
	C638.819031,1147.596802 634.613464,1150.422485 632.277954,1155.960938 
	C630.601135,1159.937622 629.017334,1163.954590 627.277039,1167.902954 
	C623.490662,1176.493896 621.142517,1177.877686 612.062927,1175.710083 
	C603.258667,1173.608276 595.229370,1169.990723 588.560547,1163.401733 
	C583.140198,1158.046387 579.261780,1157.923706 573.931458,1163.272339 
	C568.856995,1168.364258 564.118530,1174.072144 560.482483,1180.245605 
	C555.941345,1187.955566 550.453308,1190.605713 542.615295,1186.041260 
	C537.510742,1183.068604 532.793335,1179.235229 528.459412,1175.190796 
	C524.180115,1171.197266 519.717102,1168.231079 513.806458,1167.444092 
	C502.900543,1165.992065 494.006226,1170.725586 485.010559,1175.910889 
	C473.648773,1182.460205 467.415222,1193.844604 459.164154,1203.171143 
	C453.721558,1209.323120 448.121490,1212.181763 439.781982,1212.657104 
	C436.949402,1211.592773 434.545258,1211.106689 432.938232,1209.706055 
	C424.889282,1202.690674 420.208923,1193.596558 417.649384,1183.357300 
	C415.325806,1174.062012 410.414642,1166.621582 403.588257,1159.790283 
	C400.207825,1156.407349 397.228821,1156.138550 393.234711,1155.665039 
	C387.744537,1155.013916 382.338287,1153.460449 376.974487,1152.004761 
	C373.218445,1150.985352 369.673676,1149.133301 365.893982,1148.265747 
	C356.876801,1146.196045 354.072784,1142.859863 352.420135,1133.429932 
	C351.642944,1128.995361 349.751068,1124.621948 347.666779,1120.580444 
	C344.035706,1113.539551 339.702545,1106.863892 335.961426,1099.875732 
	C331.476440,1091.498047 324.828613,1087.643066 315.714478,1088.564941 
	C303.827911,1089.767334 291.921906,1090.796753 280.055634,1092.171509 
	C274.415833,1092.824829 269.843872,1091.304077 267.655945,1086.079468 
	C264.726227,1079.083374 262.609711,1071.750000 260.026428,1064.604004 
	C258.704346,1060.946777 258.114807,1056.180908 255.473389,1054.007202 
	C248.367691,1048.159668 241.016693,1042.504517 231.131729,1041.177979 
	C224.033997,1040.225342 218.748596,1041.275269 214.988037,1047.721313 
	C213.323456,1050.574707 211.456116,1053.454834 209.111435,1055.738159 
	C203.119537,1061.573120 198.557343,1060.567505 195.501205,1052.929199 
	C194.652557,1050.808105 193.953369,1048.429565 194.000732,1046.186401 
	C194.119308,1040.568359 194.449020,1034.926147 195.191010,1029.359741 
	C195.701920,1025.526978 196.391174,1022.066406 191.334976,1020.311707 
	C189.838623,1021.538147 188.230621,1022.673889 186.835190,1024.028564 
	C175.209564,1035.314331 169.199692,1034.633423 162.151001,1020.315063 
	C157.317734,1010.496948 150.040024,1005.680420 139.194443,1006.054932 
	C136.530548,1006.146851 133.864639,1006.201965 131.199249,1006.223816 
	C125.937279,1006.267029 121.331337,1004.807861 118.070007,1000.357300 
	C117.500992,982.499573 98.883530,967.850342 79.801552,970.454651 
	C72.544144,971.445068 65.437965,973.089966 60.299385,979.092834 
	C55.682869,984.486023 50.141132,984.658936 44.088673,981.800476 
	C41.392841,980.527405 38.701305,979.185364 35.884453,978.243652 
	C32.476639,977.104370 30.479839,975.238464 29.328194,971.592407 
	C25.189095,958.487976 16.616709,949.479309 2.682442,945.604980 
	C2.000000,945.111084 2.000000,944.222229 2.000000,942.666626 
z"/>
<path data-name="Bibemi" fill="#5C477F" opacity="1.000000" stroke="none" 
	d="
M2147.807861,967.226562 
	C2146.377441,968.989014 2144.459229,969.758240 2144.159668,970.938354 
	C2142.951904,975.697693 2142.243896,980.583740 2141.111816,986.722168 
	C2132.999023,986.722168 2124.864502,986.712830 2116.730225,986.724792 
	C2109.250000,986.735840 2103.772949,991.203735 2100.489014,996.810425 
	C2096.616455,1003.421082 2092.150146,1005.269592 2085.029297,1004.008057 
	C2076.406738,1002.480347 2069.335693,1006.332520 2066.264648,1014.019897 
	C2062.334229,1023.857910 2054.928955,1027.909668 2045.801147,1031.011963 
	C2037.071655,1033.978760 2033.988403,1039.509521 2038.298828,1047.796875 
	C2047.493042,1065.473999 2046.123535,1086.274170 2057.349609,1103.977051 
	C2046.239746,1107.771973 2036.099854,1108.175415 2026.499756,1104.681030 
	C2020.304810,1102.425903 2014.340942,1101.754517 2008.011108,1101.752563 
	C1996.644165,1101.749023 1985.499634,1102.906128 1974.829102,1107.205566 
	C1973.386353,1107.786865 1971.332031,1108.132690 1970.025635,1107.548218 
	C1964.310547,1104.991821 1959.116943,1106.890625 1953.583130,1108.331665 
	C1946.877441,1110.077637 1939.986938,1110.699707 1935.501465,1117.194702 
	C1934.610352,1118.484985 1931.445801,1118.556641 1929.322754,1118.580933 
	C1922.036377,1118.664185 1915.746094,1115.863525 1910.083008,1111.412842 
	C1905.777588,1108.029175 1901.593140,1107.394653 1896.317627,1110.281860 
	C1891.448120,1112.946655 1885.822754,1114.422241 1880.369995,1115.774902 
	C1874.882202,1117.136475 1870.338745,1119.561279 1867.663818,1124.565430 
	C1862.802856,1133.658691 1854.119263,1138.292114 1845.626221,1142.593262 
	C1842.072021,1144.393188 1835.951294,1144.365112 1832.563110,1142.428589 
	C1828.377075,1140.035889 1825.278198,1140.116455 1821.484863,1141.756958 
	C1817.543213,1143.461304 1813.724121,1145.497803 1809.684692,1146.913574 
	C1806.017334,1148.198853 1801.756714,1150.315430 1798.408325,1149.474365 
	C1790.855713,1147.577393 1783.808228,1149.578125 1776.819824,1150.864746 
	C1764.756958,1153.085938 1752.837646,1152.653687 1741.244141,1149.686890 
	C1735.767700,1148.285645 1730.049805,1144.728149 1726.252563,1140.515137 
	C1718.507202,1131.921631 1709.557861,1130.838501 1699.447998,1132.928589 
	C1699.027710,1133.368896 1698.630371,1133.586060 1698.607910,1133.836914 
	C1696.871216,1153.200073 1686.268921,1168.633911 1675.741699,1183.885376 
	C1670.932495,1190.852783 1669.440918,1198.374146 1668.307495,1206.223877 
	C1666.838379,1216.397949 1665.405273,1226.592651 1664.513306,1236.827026 
	C1664.149048,1241.005005 1664.587036,1245.510742 1665.810913,1249.515869 
	C1668.386841,1257.946411 1665.877441,1263.581055 1657.486206,1266.055664 
	C1655.273926,1266.708130 1652.863525,1266.853027 1650.790405,1267.781006 
	C1645.653198,1270.079956 1641.627930,1273.580078 1641.841431,1279.782104 
	C1642.088745,1286.973511 1638.293091,1291.640015 1632.841064,1295.378052 
	C1625.977661,1300.083984 1619.228882,1305.003296 1612.076050,1309.230469 
	C1601.142578,1315.692017 1594.094116,1325.870239 1586.078613,1335.149414 
	C1582.769653,1338.980347 1583.579956,1343.048706 1585.498779,1347.283203 
	C1587.642578,1352.013672 1590.910889,1356.159180 1590.587158,1362.106689 
	C1590.458374,1364.474121 1594.256104,1367.269531 1596.604004,1369.517334 
	C1603.979370,1376.578125 1603.128662,1382.028320 1593.958618,1387.010498 
	C1589.877441,1389.228027 1585.818848,1391.660767 1582.250000,1394.602417 
	C1578.041504,1398.070923 1574.098267,1398.259399 1569.439209,1395.812500 
	C1565.919434,1393.964111 1562.171387,1392.520630 1558.449585,1391.093262 
	C1551.010620,1388.240356 1545.400269,1383.472412 1541.393677,1376.495117 
	C1539.489502,1373.179321 1536.548462,1370.458862 1533.510620,1366.783325 
	C1516.875122,1379.815063 1500.995117,1392.255005 1484.330200,1405.309692 
	C1491.488281,1416.388184 1498.810181,1427.720581 1506.385010,1439.444092 
	C1501.572876,1443.577026 1500.405273,1448.848389 1499.593018,1455.132080 
	C1498.329712,1464.906006 1495.557373,1474.401001 1495.416992,1484.496826 
	C1495.335938,1490.317749 1490.978760,1494.784546 1484.506470,1495.733765 
	C1473.998169,1497.274902 1463.425659,1498.443848 1452.984375,1500.342407 
	C1449.291748,1501.013916 1444.865356,1502.449585 1442.546753,1505.092041 
	C1428.749023,1520.817261 1415.470947,1536.998535 1400.995483,1553.681030 
	C1383.760376,1548.401733 1367.513306,1542.560181 1351.360352,1536.469116 
	C1347.375000,1534.966309 1343.336914,1533.137451 1339.937378,1530.626831 
	C1324.435547,1519.178101 1309.132080,1507.460205 1293.809570,1495.770386 
	C1290.913940,1493.561401 1287.902344,1491.341309 1285.570190,1488.594971 
	C1281.892090,1484.263306 1280.385376,1479.614502 1284.366211,1474.171143 
	C1287.284058,1470.181274 1289.343140,1465.543213 1291.620605,1461.109497 
	C1295.670288,1453.226196 1295.551880,1450.785889 1289.039307,1444.416504 
	C1282.640015,1438.157715 1275.661743,1432.488647 1268.903687,1426.599609 
	C1261.181519,1419.870361 1255.132446,1411.437744 1254.301636,1401.514404 
	C1253.379028,1390.496826 1252.645508,1379.100098 1257.397461,1368.166748 
	C1260.482910,1361.067627 1257.289917,1355.507568 1250.461304,1351.715454 
	C1246.150879,1349.321289 1241.924194,1346.654663 1238.063477,1343.600098 
	C1231.761963,1338.614624 1225.363525,1334.024536 1219.971802,1333.509766 
	C1214.486206,1327.757202 1211.244629,1323.141357 1206.896118,1320.117554 
	C1201.903320,1316.645874 1199.753906,1312.448364 1199.945801,1306.763184 
	C1200.045532,1303.806274 1200.546143,1300.850098 1201.031616,1297.921143 
	C1202.556396,1288.721069 1197.452515,1275.160767 1189.858276,1272.362549 
	C1181.712524,1269.361084 1175.501831,1264.532349 1169.881104,1257.399170 
	C1165.872559,1246.262329 1159.639160,1237.479980 1151.799805,1229.686157 
	C1147.320679,1225.233032 1142.904419,1220.663330 1138.952759,1215.749756 
	C1135.671143,1211.669434 1132.301636,1207.318359 1130.469116,1202.515503 
	C1128.820435,1198.194824 1125.885620,1195.921265 1122.324341,1194.463013 
	C1118.710693,1192.983154 1114.644043,1192.484497 1110.723755,1191.911377 
	C1105.929688,1191.210083 1102.912842,1188.791504 1099.348633,1185.253174 
	C1092.527832,1178.482056 1088.871948,1171.204712 1088.835205,1161.820679 
	C1088.834106,1161.543457 1088.487305,1161.267578 1088.359131,1160.339844 
	C1084.427856,1154.983521 1080.395264,1150.314697 1076.463257,1145.562866 
	C1072.716431,1141.034546 1068.841675,1136.584839 1065.443726,1131.801880 
	C1060.943237,1125.466919 1064.823364,1119.817749 1067.471436,1114.113037 
	C1068.159546,1112.630615 1068.411987,1110.933472 1068.775513,1109.315063 
	C1070.246216,1102.764771 1068.980591,1098.665527 1062.665405,1096.604736 
	C1050.452637,1092.619263 1046.430054,1083.858643 1046.423462,1072.212158 
	C1046.420044,1066.305908 1043.562012,1063.295166 1038.096436,1061.440186 
	C1032.462158,1059.527832 1026.947876,1057.019897 1021.761475,1054.097534 
	C1016.458801,1051.109741 1014.048401,1045.692017 1014.142395,1039.867432 
	C1014.211792,1035.569214 1018.250183,1034.427979 1022.258667,1034.660156 
	C1022.841492,1038.070923 1023.050964,1040.707397 1023.515259,1043.298340 
	C1024.942139,1051.260742 1024.976929,1051.307129 1032.591187,1051.768066 
	C1040.264771,1052.232544 1047.663818,1053.303223 1052.668091,1060.288696 
	C1055.253540,1059.093628 1057.341187,1058.141724 1059.417969,1057.166870 
	C1068.491089,1052.907104 1071.763916,1054.139160 1076.996826,1062.736572 
	C1078.377563,1065.005005 1081.135498,1067.475220 1083.568115,1067.847656 
	C1088.683594,1068.630859 1094.002563,1068.085571 1098.801270,1068.085571 
	C1100.216187,1064.361084 1101.333618,1061.419800 1102.560303,1058.190674 
	C1106.697754,1059.853027 1109.891235,1061.135986 1113.611938,1062.630859 
	C1114.957764,1058.828735 1116.022461,1055.820679 1117.611572,1051.331543 
	C1120.420288,1052.952026 1122.738892,1054.245239 1125.012329,1055.613770 
	C1127.214844,1056.939697 1129.813599,1059.908081 1131.469971,1059.439331 
	C1138.430420,1057.469727 1144.440796,1057.407837 1149.323120,1063.598022 
	C1149.638062,1063.997314 1150.615845,1064.127075 1151.213623,1064.011475 
	C1157.777954,1062.743164 1161.791870,1066.520264 1165.682129,1070.941406 
	C1168.239258,1073.847412 1171.790771,1075.993896 1175.378418,1073.405029 
	C1181.089600,1069.283936 1185.544678,1070.531250 1190.488647,1074.716797 
	C1192.640259,1076.538330 1195.888184,1077.348389 1198.775879,1077.910156 
	C1200.509277,1078.247559 1203.391602,1077.858887 1204.235718,1076.693848 
	C1207.995239,1071.505249 1211.206055,1065.919067 1214.974976,1059.902100 
	C1211.343384,1058.318115 1208.838745,1057.225708 1205.697754,1055.855591 
	C1213.319702,1046.979492 1222.434082,1042.778320 1232.792236,1040.916260 
	C1236.563110,1040.238281 1239.200562,1041.461548 1239.931274,1045.756226 
	C1240.968994,1051.854858 1244.864990,1054.815186 1251.371216,1055.158813 
	C1254.325562,1051.038330 1256.823120,1045.717651 1263.839600,1049.014404 
	C1265.090942,1049.602417 1267.865967,1047.489014 1269.664429,1046.232300 
	C1271.810303,1044.732544 1273.412231,1042.292480 1275.698608,1041.193481 
	C1279.336426,1039.444824 1280.276978,1036.798706 1280.166016,1033.158447 
	C1280.099854,1030.991699 1280.458130,1028.811890 1280.671875,1026.037720 
	C1284.496094,1027.273193 1287.561157,1028.263428 1290.748535,1029.293213 
	C1291.160522,1030.823486 1291.707397,1032.060303 1291.798340,1033.329590 
	C1292.200439,1038.941406 1295.669067,1039.687744 1300.582275,1040.460327 
	C1310.198730,1041.972534 1315.630371,1035.421997 1320.764526,1030.072388 
	C1326.043945,1024.571655 1331.235962,1021.222351 1338.770264,1021.288330 
	C1340.731445,1021.305542 1342.689941,1020.587036 1344.664307,1020.309570 
	C1350.937744,1019.427917 1354.849609,1016.333496 1356.140503,1009.741638 
	C1356.748413,1006.636719 1358.430054,1003.524231 1360.333862,1000.936523 
	C1364.206665,995.672180 1368.560669,990.761780 1372.960693,985.408508 
	C1370.925049,983.838928 1368.729370,982.146057 1365.753052,979.851257 
	C1370.666748,976.980530 1374.778442,977.808472 1378.967651,978.608948 
	C1384.497070,979.665466 1390.035278,980.870728 1395.626831,981.359619 
	C1403.293701,982.030090 1409.510742,976.927368 1411.368286,968.178162 
	C1414.174194,954.962097 1420.163940,944.747620 1433.781860,940.136108 
	C1446.259766,935.910706 1455.818481,927.602966 1463.719360,917.232910 
	C1464.258911,916.524902 1465.362183,916.246338 1466.244995,915.744263 
	C1471.408447,916.847778 1476.797241,921.214539 1481.667725,914.751465 
	C1480.577393,911.584412 1479.524292,908.525513 1478.275146,904.897461 
	C1481.504272,903.213135 1484.369507,901.608154 1487.326904,900.196106 
	C1497.143311,895.509033 1502.606812,881.827698 1498.872803,871.605835 
	C1496.530762,865.195190 1492.138672,861.121216 1485.860596,858.729126 
	C1481.817871,857.188599 1477.573853,853.868042 1480.510010,849.921509 
	C1484.915771,843.999390 1488.389160,838.378784 1487.800415,830.812500 
	C1487.757568,830.261597 1488.398926,829.653809 1488.731567,829.077881 
	C1492.869141,821.914307 1497.008301,814.751770 1501.023560,807.802795 
	C1498.896606,796.298706 1492.592407,785.574219 1495.207275,773.252014 
	C1487.991455,768.738586 1488.123047,768.532288 1489.401611,760.903198 
	C1489.923828,757.786743 1488.960815,754.448303 1488.971069,751.211731 
	C1488.982056,747.715088 1489.080688,744.178345 1489.627319,740.736267 
	C1490.087158,737.840881 1491.179077,735.034729 1492.107178,732.227356 
	C1493.972412,726.584839 1496.020630,721.000793 1497.778076,715.325928 
	C1498.504883,712.978821 1499.330322,710.363464 1498.985718,708.036865 
	C1497.725708,699.533936 1497.547241,699.560303 1505.311401,695.022949 
	C1514.315186,689.761108 1516.560669,683.490234 1513.532837,673.278503 
	C1512.724365,670.551941 1511.588745,666.681580 1512.828491,664.811829 
	C1517.260620,658.126953 1517.949463,650.550171 1519.537476,643.154053 
	C1521.131958,635.726990 1522.792114,628.304260 1523.999756,620.811340 
	C1524.260864,619.190979 1522.713013,617.279114 1521.998413,615.501526 
	C1523.169434,607.170410 1526.389648,600.314636 1534.555542,596.455688 
	C1536.812012,595.389465 1538.426636,592.999512 1540.398438,591.289368 
	C1544.400513,587.818420 1548.059814,583.724548 1552.575806,581.135010 
	C1557.565552,578.273804 1560.531616,574.575317 1562.300171,569.280396 
	C1564.299438,563.295166 1567.167847,557.587891 1568.980713,551.556030 
	C1570.810791,545.466370 1575.199707,542.165588 1580.453247,539.993347 
	C1582.893311,538.984314 1587.012695,538.503845 1588.714355,539.860840 
	C1595.570435,545.327942 1602.534668,542.128845 1609.568848,541.392944 
	C1615.466064,540.776062 1621.438477,539.950867 1627.305298,540.332520 
	C1630.641479,540.549561 1634.170044,542.528137 1637.017944,544.550232 
	C1642.944092,548.757935 1648.475098,553.522339 1654.633179,558.428101 
	C1665.243652,552.479248 1675.819580,546.549866 1687.626343,539.930359 
	C1692.545288,545.067078 1697.677368,550.529358 1702.926514,555.876526 
	C1707.533813,560.569824 1711.685913,565.551514 1719.004150,566.844910 
	C1723.191650,567.584961 1726.942749,570.794434 1732.328979,573.656616 
	C1735.338013,572.895203 1740.076416,571.696045 1745.885376,570.226074 
	C1749.871948,574.021484 1754.102417,578.490967 1758.829834,582.351807 
	C1760.991211,584.117065 1764.057983,585.331787 1766.844482,585.647888 
	C1771.526978,586.179199 1776.313477,585.793335 1782.031372,585.793335 
	C1780.369873,598.558167 1787.696777,606.031677 1794.432251,613.852173 
	C1801.807617,622.415771 1809.114624,631.040161 1816.323608,639.743835 
	C1817.975098,641.737610 1819.145264,644.140198 1820.460205,646.399353 
	C1821.461548,648.119812 1821.890747,650.662903 1823.354004,651.539917 
	C1829.582764,655.273743 1833.504517,660.681641 1837.017090,666.864502 
	C1838.061523,668.702698 1842.104858,669.650879 1844.754272,669.613159 
	C1853.183594,669.493164 1858.482666,673.122864 1863.620605,679.947510 
	C1872.423828,691.640930 1874.458984,705.375916 1877.923828,718.710266 
	C1878.953979,722.674744 1880.378296,724.847168 1883.949463,726.865662 
	C1893.469238,732.246399 1902.399536,738.678528 1911.968262,743.960632 
	C1918.022461,747.302612 1924.493286,749.294189 1932.033447,747.258057 
	C1939.269409,745.304077 1950.554688,751.190979 1953.204712,758.308594 
	C1955.769409,765.196960 1960.701782,768.725830 1966.411987,772.310303 
	C1971.431030,775.460938 1976.058472,779.325745 1980.512451,783.266602 
	C1988.662842,790.478088 1990.515259,800.240967 1991.053467,810.841858 
	C1994.816162,813.384277 1998.922485,816.159058 2001.922363,818.186096 
	C2003.400635,825.127014 2004.649536,830.990845 2005.735840,836.091553 
	C2015.035156,840.947083 2021.220947,834.078491 2029.351685,832.128357 
	C2032.450806,839.106750 2037.840942,844.648376 2040.002808,852.246155 
	C2040.630737,854.452698 2042.512207,856.633179 2044.389282,858.091431 
	C2049.877930,862.355225 2055.524902,866.448914 2061.363770,870.215576 
	C2065.156982,872.662720 2067.203369,875.519287 2066.225586,880.095337 
	C2065.095215,885.386353 2066.758301,889.853271 2069.990234,894.029358 
	C2074.652832,900.054504 2079.114258,906.235413 2083.669678,912.343506 
	C2085.250000,914.462463 2087.192871,916.387329 2088.394531,918.700012 
	C2096.168701,933.661194 2107.834229,945.570679 2118.689697,958.159912 
	C2123.772949,964.054932 2129.296631,965.530884 2136.359863,962.788147 
	C2139.450195,961.588135 2142.667969,960.716492 2146.584961,959.716370 
	C2147.582520,961.965393 2147.823242,964.193787 2147.807861,967.226562 
z"/>
<path data-name="Lagdo" fill="#78B4F4" opacity="1.000000" stroke="none" 
	d="
M1170.188232,1258.056152 
	C1175.501831,1264.532349 1181.712524,1269.361084 1189.858276,1272.362549 
	C1197.452515,1275.160767 1202.556396,1288.721069 1201.031616,1297.921143 
	C1200.546143,1300.850098 1200.045532,1303.806274 1199.945801,1306.763184 
	C1199.753906,1312.448364 1201.903320,1316.645874 1206.896118,1320.117554 
	C1211.244629,1323.141357 1214.486206,1327.757202 1219.971802,1333.509766 
	C1225.363525,1334.024536 1231.761963,1338.614624 1238.063477,1343.600098 
	C1241.924194,1346.654663 1246.150879,1349.321289 1250.461304,1351.715454 
	C1257.289917,1355.507568 1260.482910,1361.067627 1257.397461,1368.166748 
	C1252.645508,1379.100098 1253.379028,1390.496826 1254.301636,1401.514404 
	C1255.132446,1411.437744 1261.181519,1419.870361 1268.903687,1426.599609 
	C1275.661743,1432.488647 1282.640015,1438.157715 1289.039307,1444.416504 
	C1295.551880,1450.785889 1295.670288,1453.226196 1291.620605,1461.109497 
	C1289.343140,1465.543213 1287.284058,1470.181274 1284.366211,1474.171143 
	C1280.385376,1479.614502 1281.892090,1484.263306 1285.570190,1488.594971 
	C1287.902344,1491.341309 1290.913940,1493.561401 1293.809570,1495.770386 
	C1309.132080,1507.460205 1324.435547,1519.178101 1339.937378,1530.626831 
	C1343.336914,1533.137451 1347.375000,1534.966309 1351.360352,1536.469116 
	C1367.513306,1542.560181 1383.760376,1548.401733 1400.722900,1554.344238 
	C1423.370483,1565.521118 1445.265747,1576.693237 1467.167114,1587.853882 
	C1471.304321,1589.962280 1475.464722,1592.025024 1479.936523,1594.270630 
	C1480.690430,1607.622070 1481.535645,1620.819336 1482.083130,1634.029053 
	C1482.173950,1636.220825 1481.128174,1638.526611 1480.332397,1640.677612 
	C1474.454346,1656.563354 1468.672119,1672.488403 1462.491089,1688.256348 
	C1460.332275,1693.763428 1457.570557,1699.147461 1454.337158,1704.099976 
	C1441.785034,1723.325317 1428.831665,1742.288696 1416.271362,1761.508789 
	C1413.575562,1765.634033 1410.314087,1768.274170 1405.763306,1770.061523 
	C1373.312744,1782.806030 1340.922485,1795.704590 1308.549438,1808.645020 
	C1305.814941,1809.738281 1302.909058,1811.037842 1300.824097,1813.020752 
	C1285.004639,1828.066772 1265.830200,1838.250610 1247.753296,1850.019897 
	C1239.392334,1855.463257 1231.019287,1860.895142 1222.507812,1866.096802 
	C1218.303833,1868.666138 1215.488403,1871.544556 1215.137207,1876.930054 
	C1214.751831,1882.842896 1213.173340,1888.668457 1212.340332,1894.564087 
	C1211.411865,1901.134766 1210.808350,1907.366333 1215.606567,1913.395508 
	C1218.969849,1917.621704 1220.738281,1923.247437 1222.655518,1928.455444 
	C1224.407349,1933.214844 1226.686035,1935.904419 1232.309814,1936.701294 
	C1237.522705,1937.440063 1239.301636,1945.757080 1236.587524,1951.605957 
	C1235.885864,1953.118286 1235.181763,1956.143555 1235.724609,1956.483276 
	C1240.647217,1959.563721 1242.469971,1964.652100 1245.059692,1969.329590 
	C1245.945923,1970.930176 1247.978760,1971.895996 1249.642090,1973.280396 
	C1249.169189,1976.373413 1248.729126,1979.251953 1248.310425,1981.990845 
	C1258.296631,1988.243530 1259.906372,1993.809692 1254.628662,2004.148682 
	C1242.082153,2028.726807 1229.661255,2053.374268 1216.663086,2077.712402 
	C1213.605103,2083.438477 1208.996704,2088.629639 1204.183350,2093.072021 
	C1187.215088,2108.733154 1177.323608,2129.276855 1165.467529,2148.423340 
	C1163.021973,2152.372559 1163.010132,2157.938721 1162.276733,2162.819580 
	C1158.534180,2187.730469 1154.702881,2212.631836 1151.416748,2237.604248 
	C1150.571533,2244.028076 1150.940552,2250.798584 1151.952393,2257.220703 
	C1152.759521,2262.344238 1151.784180,2265.470215 1147.172974,2267.770996 
	C1143.337036,2269.685059 1139.717651,2272.032715 1135.447510,2274.510498 
	C1133.819214,2272.197998 1132.380615,2270.155273 1130.583862,2267.603760 
	C1128.182373,2269.215088 1125.577515,2270.613525 1123.400024,2272.504150 
	C1119.959839,2275.490967 1116.691040,2278.701172 1113.596924,2282.045410 
	C1112.573364,2283.151855 1112.211304,2284.931641 1111.723633,2286.459961 
	C1110.658203,2289.798828 1110.269897,2293.488281 1108.602051,2296.474365 
	C1103.531860,2305.552979 1102.520264,2315.671631 1100.862061,2325.552490 
	C1100.395142,2328.335449 1102.326416,2331.901855 1104.007446,2334.574219 
	C1106.489746,2338.520020 1105.859375,2341.576904 1103.896118,2345.615723 
	C1095.857056,2362.153564 1083.032227,2373.493408 1067.053101,2381.946289 
	C1063.355103,2383.902588 1060.447388,2387.380371 1057.239136,2390.229004 
	C1049.966675,2396.686768 1048.758179,2396.822998 1040.762695,2391.987793 
	C1038.816772,2390.811279 1036.800293,2389.751465 1034.404297,2388.406738 
	C1025.928955,2393.794434 1017.523132,2399.060547 1009.224548,2404.490723 
	C1007.896729,2405.359619 1006.638062,2406.795410 1006.046753,2408.252441 
	C1002.531616,2416.914551 994.057556,2419.805176 986.889771,2423.245605 
	C982.320740,2425.438232 975.844055,2423.656006 969.474731,2423.656006 
	C968.292542,2425.737549 966.889832,2428.207520 965.498596,2430.657227 
	C958.632019,2430.657227 952.056152,2430.657227 944.910095,2430.657227 
	C942.813171,2437.128418 938.085571,2440.622559 931.167480,2441.245361 
	C929.888733,2441.360352 928.159119,2441.722900 927.497925,2442.611084 
	C922.243958,2449.672363 914.654785,2448.021240 907.523560,2448.374756 
	C902.917786,2448.603027 898.327942,2449.229492 893.745056,2449.792480 
	C892.447388,2449.951904 890.710205,2450.108643 890.004639,2450.957031 
	C883.105286,2459.251953 873.791077,2463.403320 863.788330,2467.412598 
	C861.580505,2468.352783 859.472839,2468.502686 856.854004,2468.353516 
	C852.518311,2463.283203 846.815308,2465.194580 841.979858,2464.221680 
	C838.552185,2463.531982 834.873779,2464.088135 831.033691,2464.088135 
	C828.004211,2431.185791 825.072876,2399.349609 822.062866,2366.658447 
	C844.427368,2366.658447 865.645386,2366.658447 886.935547,2366.658447 
	C893.170837,2357.363525 899.263123,2348.666992 904.956482,2339.716309 
	C917.645630,2319.767578 931.503418,2300.684082 946.830933,2282.693848 
	C953.666931,2274.670410 957.596558,2266.184082 954.584717,2255.344727 
	C953.722961,2252.243164 954.451965,2248.718262 954.314453,2245.393311 
	C953.012146,2213.889404 951.691650,2182.386230 950.352966,2150.883789 
	C949.479004,2130.316650 948.620239,2109.749023 947.646912,2089.186523 
	C947.209961,2079.952881 946.509216,2070.731689 945.879700,2060.735596 
	C935.795105,2061.298340 926.014648,2061.665039 916.265442,2062.430176 
	C901.735229,2063.570801 887.232361,2065.053467 872.708557,2066.281006 
	C843.329590,2068.764160 813.949097,2071.231689 784.560181,2073.592773 
	C764.071167,2075.239258 743.564087,2076.659668 723.070435,2078.250732 
	C698.291992,2080.174072 673.521179,2082.196045 648.742493,2084.117432 
	C643.112671,2084.554199 637.366516,2085.248291 632.323608,2079.641602 
	C636.742981,2071.134033 640.587891,2063.095703 646.389160,2056.885010 
	C661.871643,2040.309326 675.822449,2022.740479 687.866211,2003.477417 
	C704.435059,1976.976929 721.740906,1950.936523 738.819763,1924.756836 
	C741.353638,1920.872803 744.448853,1917.359619 747.155273,1913.582275 
	C758.382080,1897.914062 770.131470,1882.581543 780.610291,1866.426147 
	C793.818176,1846.063110 807.299622,1826.004639 821.733582,1806.426636 
	C842.023010,1778.906006 859.830017,1749.548950 878.554932,1720.883301 
	C891.094299,1701.686890 903.235596,1682.229858 915.835266,1663.073853 
	C925.146729,1648.916992 935.225159,1635.260376 944.400818,1621.019287 
	C959.691345,1597.287842 973.515808,1572.543945 989.848633,1549.570801 
	C1006.222412,1526.539917 1019.066650,1502.022705 1026.947266,1475.162598 
	C1032.537476,1456.108887 1035.843994,1436.374023 1039.904419,1416.887817 
	C1041.659180,1408.466675 1043.716797,1399.921387 1043.852173,1391.404053 
	C1043.979492,1383.392944 1045.880249,1376.639160 1049.963867,1369.875854 
	C1056.184326,1359.573120 1062.777344,1349.874023 1072.583740,1342.445435 
	C1079.710693,1337.046753 1086.340698,1330.872437 1092.578369,1324.447998 
	C1101.214478,1315.553589 1110.378784,1307.433228 1121.178101,1301.302124 
	C1140.546021,1290.306519 1156.354614,1275.307983 1170.188232,1258.056152 
z"/>
<path data-name="Pitoa" fill="#5BF05B" opacity="1.000000" stroke="none" 
	d="
M1521.070312,615.575684 
	C1522.713013,617.279114 1524.260864,619.190979 1523.999756,620.811340 
	C1522.792114,628.304260 1521.131958,635.726990 1519.537476,643.154053 
	C1517.949463,650.550171 1517.260620,658.126953 1512.828491,664.811829 
	C1511.588745,666.681580 1512.724365,670.551941 1513.532837,673.278503 
	C1516.560669,683.490234 1514.315186,689.761108 1505.311401,695.022949 
	C1497.547241,699.560303 1497.725708,699.533936 1498.985718,708.036865 
	C1499.330322,710.363464 1498.504883,712.978821 1497.778076,715.325928 
	C1496.020630,721.000793 1493.972412,726.584839 1492.107178,732.227356 
	C1491.179077,735.034729 1490.087158,737.840881 1489.627319,740.736267 
	C1489.080688,744.178345 1488.982056,747.715088 1488.971069,751.211731 
	C1488.960815,754.448303 1489.923828,757.786743 1489.401611,760.903198 
	C1488.123047,768.532288 1487.991455,768.738586 1495.207275,773.252014 
	C1492.592407,785.574219 1498.896606,796.298706 1501.023560,807.802795 
	C1497.008301,814.751770 1492.869141,821.914307 1488.731567,829.077881 
	C1488.398926,829.653809 1487.757568,830.261597 1487.800415,830.812500 
	C1488.389160,838.378784 1484.915771,843.999390 1480.510010,849.921509 
	C1477.573853,853.868042 1481.817871,857.188599 1485.860596,858.729126 
	C1492.138672,861.121216 1496.530762,865.195190 1498.872803,871.605835 
	C1502.606812,881.827698 1497.143311,895.509033 1487.326904,900.196106 
	C1484.369507,901.608154 1481.504272,903.213135 1478.275146,904.897461 
	C1479.524292,908.525513 1480.577393,911.584412 1481.667725,914.751465 
	C1476.797241,921.214539 1471.408447,916.847778 1466.244995,915.744263 
	C1465.362183,916.246338 1464.258911,916.524902 1463.719360,917.232910 
	C1455.818481,927.602966 1446.259766,935.910706 1433.781860,940.136108 
	C1420.163940,944.747620 1414.174194,954.962097 1411.368286,968.178162 
	C1409.510742,976.927368 1403.293701,982.030090 1395.626831,981.359619 
	C1390.035278,980.870728 1384.497070,979.665466 1378.967651,978.608948 
	C1374.778442,977.808472 1370.666748,976.980530 1365.753052,979.851257 
	C1368.729370,982.146057 1370.925049,983.838928 1372.960693,985.408508 
	C1368.560669,990.761780 1364.206665,995.672180 1360.333862,1000.936523 
	C1358.430054,1003.524231 1356.748413,1006.636719 1356.140503,1009.741638 
	C1354.849609,1016.333496 1350.937744,1019.427917 1344.664307,1020.309570 
	C1342.689941,1020.587036 1340.731445,1021.305542 1338.770264,1021.288330 
	C1331.235962,1021.222351 1326.043945,1024.571655 1320.764526,1030.072388 
	C1315.630371,1035.421997 1310.198730,1041.972534 1300.582275,1040.460327 
	C1295.669067,1039.687744 1292.200439,1038.941406 1291.798340,1033.329590 
	C1291.707397,1032.060303 1291.160522,1030.823486 1290.748535,1029.293213 
	C1287.561157,1028.263428 1284.496094,1027.273193 1280.671875,1026.037720 
	C1280.458130,1028.811890 1280.099854,1030.991699 1280.166016,1033.158447 
	C1280.276978,1036.798706 1279.336426,1039.444824 1275.698608,1041.193481 
	C1273.412231,1042.292480 1271.810303,1044.732544 1269.664429,1046.232300 
	C1267.865967,1047.489014 1265.090942,1049.602417 1263.839600,1049.014404 
	C1256.823120,1045.717651 1254.325562,1051.038330 1251.371216,1055.158813 
	C1244.864990,1054.815186 1240.968994,1051.854858 1239.931274,1045.756226 
	C1239.200562,1041.461548 1236.563110,1040.238281 1232.792236,1040.916260 
	C1222.434082,1042.778320 1213.319702,1046.979492 1205.697754,1055.855591 
	C1208.838745,1057.225708 1211.343384,1058.318115 1214.974976,1059.902100 
	C1211.206055,1065.919067 1207.995239,1071.505249 1204.235718,1076.693848 
	C1203.391602,1077.858887 1200.509277,1078.247559 1198.775879,1077.910156 
	C1195.888184,1077.348389 1192.640259,1076.538330 1190.488647,1074.716797 
	C1185.544678,1070.531250 1181.089600,1069.283936 1175.378418,1073.405029 
	C1171.790771,1075.993896 1168.239258,1073.847412 1165.682129,1070.941406 
	C1161.791870,1066.520264 1157.777954,1062.743164 1151.213623,1064.011475 
	C1150.615845,1064.127075 1149.638062,1063.997314 1149.323120,1063.598022 
	C1144.440796,1057.407837 1138.430420,1057.469727 1131.469971,1059.439331 
	C1129.813599,1059.908081 1127.214844,1056.939697 1125.012329,1055.613770 
	C1122.738892,1054.245239 1120.420288,1052.952026 1117.611572,1051.331543 
	C1116.022461,1055.820679 1114.957764,1058.828735 1113.611938,1062.630859 
	C1109.891235,1061.135986 1106.697754,1059.853027 1102.560303,1058.190674 
	C1101.333618,1061.419800 1100.216187,1064.361084 1098.801270,1068.085571 
	C1094.002563,1068.085571 1088.683594,1068.630859 1083.568115,1067.847656 
	C1081.135498,1067.475220 1078.377563,1065.005005 1076.996826,1062.736572 
	C1071.763916,1054.139160 1068.491089,1052.907104 1059.417969,1057.166870 
	C1057.341187,1058.141724 1055.253540,1059.093628 1052.668091,1060.288696 
	C1047.663818,1053.303223 1040.264771,1052.232544 1032.591187,1051.768066 
	C1024.976929,1051.307129 1024.942139,1051.260742 1023.515259,1043.298340 
	C1023.050964,1040.707397 1022.841492,1038.070923 1022.262451,1034.713623 
	C1022.009399,1033.972168 1021.902588,1033.955444 1022.550476,1034.206177 
	C1024.136353,1033.598267 1025.074341,1032.739624 1026.008057,1031.943604 
	C1026.003662,1032.006226 1025.882202,1031.974854 1026.563721,1032.000854 
	C1028.643921,1030.897339 1030.042725,1029.767822 1031.441406,1028.638306 
	C1030.334229,1027.637695 1029.227173,1026.637207 1027.778320,1025.037354 
	C1021.204285,1019.592957 1018.660034,1013.165710 1019.935242,1004.681763 
	C1016.079956,1003.641541 1012.672668,1002.626587 1009.218689,1001.809082 
	C1000.733032,999.800903 992.354980,997.425354 986.867126,990.006531 
	C983.090027,984.900513 978.398926,983.306824 972.238892,983.698425 
	C964.368408,984.198669 957.180603,981.904907 951.617004,975.777588 
	C953.922485,972.426941 956.073303,969.866943 957.677490,967.001038 
	C958.688049,965.195557 959.888306,962.417480 959.170471,961.011841 
	C958.373840,959.451904 955.410889,958.010132 953.531555,958.169739 
	C946.939941,958.729675 940.408813,960.000671 932.989502,961.133972 
	C932.315430,960.039551 931.501709,957.678650 929.855347,956.347534 
	C928.309937,955.097961 925.594299,953.962280 923.896912,954.467529 
	C916.908325,956.548096 910.127930,959.320801 903.217896,961.683655 
	C902.541992,961.914856 901.501343,961.079163 899.487305,960.292175 
	C903.174072,955.222961 906.563232,950.562927 910.620239,944.984497 
	C907.279907,942.568298 904.435608,939.777161 901.031799,938.173950 
	C885.165771,930.700623 868.093201,928.638000 850.825378,927.947876 
	C843.534485,927.656494 836.212646,927.907593 828.913147,928.156311 
	C824.999817,928.289612 821.934814,927.158081 819.115784,924.360657 
	C812.818726,918.111938 806.273010,912.113708 799.900269,906.014343 
	C799.971924,906.015259 799.945374,906.156128 799.865234,905.689636 
	C799.531677,904.611023 799.108459,904.157043 798.262878,903.070312 
	C797.462891,896.416382 796.819092,890.560486 796.393311,884.688660 
	C795.877319,877.572449 794.254822,875.819580 787.216248,874.315186 
	C784.798035,873.798340 782.561707,872.430542 780.727661,870.995605 
	C786.091309,861.811646 792.329163,853.723877 794.297302,843.608521 
	C795.506287,837.395386 799.161316,833.943909 805.213806,832.343262 
	C809.238281,831.278931 813.063354,829.460815 817.537537,827.768250 
	C814.954895,818.298584 816.070496,809.604004 822.213440,801.501831 
	C813.854919,795.819824 813.043945,787.985901 814.491028,779.304504 
	C815.246155,774.774353 815.487183,770.152710 815.840332,765.563110 
	C816.190125,761.016052 817.446411,757.572632 822.283142,755.466431 
	C826.723083,753.533142 828.722595,749.709351 828.278198,744.121704 
	C827.845337,738.679932 829.669189,733.097412 829.813416,727.558716 
	C829.928955,723.123047 833.168579,718.579590 829.579163,713.687561 
	C828.967224,712.796082 828.445374,712.405090 827.962891,712.023804 
	C828.002319,712.033508 827.953796,712.104187 827.953796,712.104187 
	C829.187805,705.394165 830.839844,699.033691 840.070496,699.165833 
	C839.461060,696.770386 839.417419,695.009277 838.613342,693.723877 
	C835.704346,689.073425 836.665344,685.033569 839.805420,680.954102 
	C843.414734,676.265015 846.494019,671.135925 850.372437,666.694763 
	C854.463318,662.010254 853.646301,657.017090 852.089966,651.389282 
	C854.953552,649.860596 857.762451,648.777710 860.052917,647.019470 
	C862.281738,645.308594 864.059692,642.972412 865.874084,640.777161 
	C866.681396,639.800415 866.828979,637.775574 867.722534,637.449158 
	C879.545471,633.130371 887.082764,621.215637 899.569763,618.657959 
	C911.711609,616.170898 919.366455,610.133179 922.328247,596.704651 
	C959.312500,580.801147 995.759033,566.299744 1031.919312,551.116577 
	C1081.074341,530.477112 1131.917969,515.140503 1183.370361,501.599426 
	C1187.497192,509.370697 1192.345703,516.203552 1201.382812,519.179077 
	C1204.339233,520.152466 1207.092041,522.682495 1209.198486,525.135681 
	C1217.832642,535.191101 1225.918335,545.725159 1234.717529,555.628418 
	C1241.801636,563.601257 1244.693726,573.437927 1248.776611,582.849243 
	C1256.026855,599.561829 1263.781372,616.055725 1271.619873,633.289673 
	C1289.182129,628.816833 1304.091797,620.809143 1319.515869,614.609070 
	C1325.567383,621.791321 1335.867188,626.291138 1331.293823,637.513733 
	C1338.713745,642.444214 1345.245850,646.784668 1352.929199,651.890198 
	C1358.901611,651.028992 1359.476196,643.358093 1363.230225,638.975647 
	C1364.153320,638.849854 1364.971191,638.461548 1365.408691,638.719299 
	C1375.777222,644.827271 1385.259644,641.753967 1394.365479,635.850708 
	C1401.031982,631.528687 1407.375000,626.690063 1414.172241,622.596497 
	C1416.788696,621.020752 1420.417725,619.849426 1423.313232,620.288330 
	C1428.789062,621.118469 1434.003540,623.533325 1439.446045,624.759094 
	C1445.585571,626.141785 1451.635986,627.042236 1457.471802,622.654724 
	C1460.493286,620.383057 1464.655884,618.772766 1468.422852,618.496033 
	C1485.639404,617.231079 1502.898315,616.544250 1521.070312,615.575684 
z"/>
<path data-name="Dembo" fill="#EA636C" opacity="1.000000" stroke="none" 
	d="
M1183.532959,500.821381 
	C1131.917969,515.140503 1081.074341,530.477112 1031.919312,551.116577 
	C995.759033,566.299744 959.312500,580.801147 922.344849,595.993408 
	C917.110901,595.184509 914.647461,592.081787 912.785400,587.789734 
	C909.852356,581.029053 906.072693,574.937683 898.763672,571.563477 
	C895.989319,570.282715 894.209351,566.862305 891.956055,564.435730 
	C886.298584,558.343384 881.194519,551.574280 874.828003,546.342896 
	C866.097168,539.168701 855.029907,537.371643 844.042847,536.231750 
	C839.741394,535.785400 835.387634,535.867554 831.070923,535.536377 
	C826.518433,535.187134 822.142273,533.671448 820.631104,529.089905 
	C818.650879,523.086304 813.711548,520.349060 809.242432,517.002014 
	C803.398010,512.625000 797.850220,508.546692 795.053162,500.919861 
	C793.626526,497.029755 788.146545,494.085358 783.887634,491.909698 
	C778.390259,489.101410 773.710938,486.051575 770.614258,478.010620 
	C774.172058,479.231201 776.591003,479.326019 777.694580,480.579224 
	C780.849060,484.161438 784.167053,484.582092 788.408264,482.929535 
	C798.318604,479.067963 808.633057,476.081482 818.158020,471.452789 
	C823.947388,468.639465 829.012268,463.845154 833.507385,459.093842 
	C835.367188,457.128052 835.315552,452.948669 835.331543,449.771973 
	C835.344299,447.230713 834.144348,444.683319 833.465088,442.071350 
	C838.051392,437.691620 841.081787,430.912567 849.237122,435.730804 
	C850.415405,436.426910 853.273071,435.409302 854.711609,434.329498 
	C859.486511,430.745300 863.995544,426.802551 868.541199,422.920776 
	C869.538940,422.068787 871.073486,420.831390 870.992188,419.889587 
	C870.317383,412.075653 876.722534,406.954071 878.301331,399.883209 
	C879.789856,393.216492 882.977661,386.830139 886.152100,380.700714 
	C887.073975,378.920837 890.425415,378.114532 892.825317,377.433990 
	C903.381714,374.440521 908.948059,365.446594 907.186707,354.264099 
	C906.908508,352.498077 907.539429,350.527985 908.027954,348.727692 
	C908.272644,347.825928 909.195618,347.126617 909.723022,346.280426 
	C914.406189,338.766144 914.211731,334.750549 908.387207,327.376068 
	C909.862854,325.909271 911.210266,324.087708 912.983276,322.903351 
	C917.281921,320.031799 919.970947,316.175171 922.353943,311.580322 
	C926.784546,303.037262 933.271362,295.585754 935.309631,285.759857 
	C935.647034,284.133514 938.136719,283.045288 939.359497,281.493774 
	C943.018616,276.851166 946.056824,271.604553 950.240784,267.518799 
	C955.630615,262.255493 961.305847,256.689453 967.929016,253.429901 
	C976.852722,249.038193 982.235596,242.975815 984.009583,233.404602 
	C984.190796,232.426895 984.270691,231.330185 984.777466,230.528870 
	C988.864746,224.065506 993.053589,217.819458 992.443237,209.473526 
	C991.917175,202.281006 992.334045,195.019516 992.334045,187.297348 
	C993.850037,185.224762 995.638611,182.496033 997.729248,180.022568 
	C999.085571,178.417831 1000.794128,177.065140 1002.500488,175.811401 
	C1006.127930,173.145996 1010.372009,171.087433 1013.328064,167.838303 
	C1014.814575,166.204391 1014.482178,162.459717 1014.175964,159.759872 
	C1013.739563,155.911301 1012.278015,152.183960 1011.776428,148.336777 
	C1010.701904,140.096191 1008.733398,132.796616 999.956726,129.084534 
	C996.073547,127.442131 992.832764,124.281021 989.638428,122.045921 
	C990.418640,118.080620 992.180481,114.224640 991.575623,110.784782 
	C990.955078,107.255409 988.020569,104.132866 985.194214,99.278671 
	C995.553650,101.718636 998.327759,93.378624 1003.805725,89.274544 
	C1004.802795,88.527557 1004.889038,86.475212 1005.247925,84.989731 
	C1005.647644,83.335564 1005.377808,81.288834 1006.267456,80.022964 
	C1010.586548,73.876793 1010.341797,68.219604 1005.044861,62.699791 
	C1000.710632,58.183231 996.306458,53.733799 991.577881,48.631905 
	C998.872253,47.901711 1006.582825,47.169167 1014.150513,47.905369 
	C1019.236511,48.400143 1024.129761,50.945427 1029.091919,52.624641 
	C1034.672363,54.513081 1040.174805,56.657925 1045.821411,58.315811 
	C1050.140747,59.584007 1053.270386,60.954735 1054.818359,66.145393 
	C1056.587646,72.078262 1060.419312,77.392990 1063.330933,82.988846 
	C1071.146484,98.010429 1079.074341,112.975548 1086.704224,128.091034 
	C1090.500732,135.612427 1091.119507,136.790375 1099.525635,135.685379 
	C1109.146362,134.420685 1115.737793,137.589279 1119.363647,146.474976 
	C1121.507935,151.729935 1125.013672,153.775894 1130.728271,154.243484 
	C1139.907349,154.994598 1142.045776,157.725082 1141.577271,167.164398 
	C1141.267822,173.395691 1139.945068,179.576675 1139.025024,186.144623 
	C1141.409668,188.949036 1144.369995,192.019592 1146.846802,195.440384 
	C1150.504517,200.492386 1152.559082,205.835358 1148.839844,211.999344 
	C1147.916260,213.529892 1148.507690,215.899033 1147.866577,217.690872 
	C1146.465454,221.607361 1144.719971,225.400711 1142.851685,229.875488 
	C1144.239502,232.114624 1146.746704,235.130676 1147.928833,238.598465 
	C1148.371582,239.897324 1145.730103,242.247620 1144.167358,244.614319 
	C1145.489258,246.450653 1146.967285,248.503860 1148.820679,251.078552 
	C1146.042114,257.837128 1141.385010,264.424988 1142.253174,272.755829 
	C1142.380005,273.973694 1139.343140,276.023590 1137.411499,276.857819 
	C1131.996460,279.196442 1126.393677,281.100311 1120.962036,283.139313 
	C1121.219116,288.504547 1121.359863,293.404266 1121.735107,298.285950 
	C1121.880981,300.185272 1121.984741,303.160980 1123.089844,303.726288 
	C1127.703735,306.086517 1132.871582,307.360565 1137.494385,309.706818 
	C1142.995483,312.498901 1147.572510,312.347015 1151.696167,307.488739 
	C1152.004272,307.125854 1152.878784,307.243835 1154.922119,306.890991 
	C1155.767822,311.180298 1157.869019,315.758331 1157.164185,319.853485 
	C1156.346436,324.605591 1157.517212,328.271301 1159.340210,332.166168 
	C1166.662720,347.810852 1174.097046,363.404266 1181.268433,379.117676 
	C1183.042358,383.004364 1184.239136,387.208374 1185.260376,391.374603 
	C1188.578003,404.908661 1191.466064,418.551483 1194.979004,432.032715 
	C1196.708862,438.670532 1196.688110,444.988129 1195.067261,451.596313 
	C1191.115845,467.705872 1187.466553,483.889526 1183.532959,500.821381 
z"/>
<path data-name="Tcheboa" fill="#9E55F2" opacity="1.000000" stroke="none" 
	d="
M1169.881104,1257.399170 
	C1156.354614,1275.307983 1140.546021,1290.306519 1121.178101,1301.302124 
	C1110.378784,1307.433228 1101.214478,1315.553589 1092.578369,1324.447998 
	C1086.340698,1330.872437 1079.710693,1337.046753 1072.583740,1342.445435 
	C1062.777344,1349.874023 1056.184326,1359.573120 1049.963867,1369.875854 
	C1045.880249,1376.639160 1043.979492,1383.392944 1043.852173,1391.404053 
	C1043.716797,1399.921387 1041.659180,1408.466675 1039.904419,1416.887817 
	C1035.843994,1436.374023 1032.537476,1456.108887 1026.947266,1475.162598 
	C1019.066650,1502.022705 1006.222412,1526.539917 989.848633,1549.570801 
	C973.515808,1572.543945 959.691345,1597.287842 944.400818,1621.019287 
	C935.225159,1635.260376 925.146729,1648.916992 915.835266,1663.073853 
	C903.235596,1682.229858 891.094299,1701.686890 878.554932,1720.883301 
	C859.830017,1749.548950 842.023010,1778.906006 821.733582,1806.426636 
	C807.299622,1826.004639 793.818176,1846.063110 780.610291,1866.426147 
	C770.131470,1882.581543 758.382080,1897.914062 747.155273,1913.582275 
	C744.448853,1917.359619 741.353638,1920.872803 738.819763,1924.756836 
	C721.740906,1950.936523 704.435059,1976.976929 687.866211,2003.477417 
	C675.822449,2022.740479 661.871643,2040.309326 646.389160,2056.885010 
	C640.587891,2063.095703 636.742981,2071.134033 631.809448,2079.004883 
	C627.747559,2076.715576 623.497131,2074.138916 620.119263,2070.704346 
	C616.303223,2066.824463 612.530396,2063.522461 607.019592,2062.203125 
	C604.319336,2061.556396 601.306702,2059.974609 599.581360,2057.874512 
	C590.952759,2047.371582 579.302490,2041.553223 567.316711,2036.178223 
	C565.235901,2035.245117 562.997742,2034.513306 560.756470,2034.112305 
	C548.015869,2031.831787 532.666687,2019.095337 528.212646,2006.321411 
	C526.128418,2000.344116 525.763977,1993.765747 523.666626,1987.794678 
	C520.388916,1978.462769 514.380249,1971.720093 503.773651,1970.330933 
	C497.917511,1969.563843 492.118073,1968.364014 487.130249,1967.503662 
	C484.590698,1959.728149 482.862488,1952.739014 480.036835,1946.225952 
	C476.702179,1938.539673 470.091827,1936.657104 459.786621,1939.381714 
	C455.786163,1934.297974 451.773468,1929.198730 447.171661,1923.350952 
	C444.520630,1926.144043 442.706970,1928.386108 440.548065,1930.222290 
	C438.894592,1931.628540 436.908203,1933.192505 434.887848,1933.503540 
	C430.697754,1934.148560 427.376007,1935.158325 423.555908,1937.848755 
	C419.879761,1940.437866 412.893127,1941.554443 407.940735,1937.898926 
	C403.371979,1934.526489 399.384308,1933.835693 394.322754,1936.833618 
	C390.142578,1939.309448 386.163300,1938.327881 382.933563,1934.226807 
	C379.600342,1929.994263 376.659241,1924.890015 369.614502,1926.479004 
	C368.647522,1926.697144 366.048462,1924.233643 365.916962,1922.849243 
	C365.168365,1914.966675 360.405823,1911.209473 352.973846,1909.682739 
	C352.432983,1904.246216 351.843719,1899.203613 346.478912,1895.954712 
	C343.879669,1894.380737 342.085541,1891.008911 340.650757,1888.094849 
	C338.705322,1884.143311 338.765167,1878.699585 332.154694,1879.076416 
	C331.615967,1879.107056 330.829346,1877.125488 330.382355,1875.990601 
	C329.081451,1872.687256 327.550018,1870.402466 323.200928,1871.673828 
	C321.640137,1872.129883 319.385437,1870.892944 317.695007,1869.973755 
	C316.652924,1869.406982 315.471313,1868.022949 315.394745,1866.932617 
	C314.964539,1860.805908 308.960632,1857.273804 307.972717,1851.964111 
	C305.983917,1841.275391 305.178406,1839.660278 294.272766,1837.445190 
	C293.782532,1834.085815 293.279175,1830.636719 292.775818,1827.187622 
	C291.977539,1826.655762 291.179230,1826.123901 290.380920,1825.592041 
	C290.665741,1828.386719 290.950562,1831.181396 291.235382,1833.976074 
	C289.597595,1832.829346 287.959808,1831.682495 286.322052,1830.535645 
	C285.636658,1827.450806 284.951263,1824.365845 284.427582,1819.863770 
	C287.620514,1809.314819 291.216125,1800.325684 293.569946,1791.022461 
	C299.110657,1769.122803 304.060669,1747.073608 309.246216,1725.084106 
	C315.346558,1699.215820 322.826080,1673.575317 327.150635,1647.413330 
	C331.435333,1621.491943 336.148163,1595.732910 341.977448,1570.127808 
	C347.212952,1547.130859 352.271332,1524.070923 356.480560,1500.870483 
	C359.737518,1482.918579 361.731262,1464.727417 363.964081,1446.603027 
	C365.506500,1434.082520 366.810699,1421.515381 367.669464,1408.931519 
	C369.253479,1385.719604 370.401642,1362.478027 371.835297,1339.255127 
	C371.952789,1337.351562 372.368164,1335.112671 373.481354,1333.678833 
	C384.191681,1319.883911 392.601715,1304.369019 408.850800,1295.116211 
	C420.709717,1288.363403 427.279144,1277.223999 428.262329,1262.336304 
	C429.385956,1245.321777 430.000183,1227.687988 440.577972,1212.813721 
	C448.121490,1212.181763 453.721558,1209.323120 459.164154,1203.171143 
	C467.415222,1193.844604 473.648773,1182.460205 485.010559,1175.910889 
	C494.006226,1170.725586 502.900543,1165.992065 513.806458,1167.444092 
	C519.717102,1168.231079 524.180115,1171.197266 528.459412,1175.190796 
	C532.793335,1179.235229 537.510742,1183.068604 542.615295,1186.041260 
	C550.453308,1190.605713 555.941345,1187.955566 560.482483,1180.245605 
	C564.118530,1174.072144 568.856995,1168.364258 573.931458,1163.272339 
	C579.261780,1157.923706 583.140198,1158.046387 588.560547,1163.401733 
	C595.229370,1169.990723 603.258667,1173.608276 612.062927,1175.710083 
	C621.142517,1177.877686 623.490662,1176.493896 627.277039,1167.902954 
	C629.017334,1163.954590 630.601135,1159.937622 632.277954,1155.960938 
	C634.613464,1150.422485 638.819031,1147.596802 644.806274,1148.752075 
	C650.616943,1149.873291 656.404663,1151.571289 661.899231,1153.772949 
	C672.183044,1157.894043 682.594299,1160.925171 693.792908,1160.175537 
	C695.702026,1160.047607 697.576782,1159.407593 697.908142,1159.336914 
	C700.420715,1152.064575 701.942688,1145.638916 704.900635,1139.961426 
	C706.350342,1137.178833 710.267578,1135.369873 713.421997,1133.859497 
	C718.304932,1131.521484 722.020630,1132.988770 725.158630,1137.775269 
	C730.417786,1145.797485 737.287537,1151.890381 748.695068,1153.008911 
	C759.239441,1170.903320 773.458252,1183.229126 789.684021,1193.533081 
	C806.113464,1203.966431 823.762634,1209.869873 843.518799,1208.588745 
	C850.155273,1208.158325 856.843750,1208.579834 863.507263,1208.506714 
	C881.166077,1208.312988 898.891296,1208.937378 916.464417,1207.593506 
	C934.969604,1206.178345 953.238586,1201.642822 972.002197,1203.718872 
	C972.653687,1203.791016 973.337524,1203.690430 973.993286,1203.587524 
	C1004.798035,1198.756714 1034.236938,1189.731567 1061.824219,1175.005127 
	C1070.633423,1170.302856 1079.474854,1165.660767 1088.301636,1160.990967 
	C1088.487305,1161.267578 1088.834106,1161.543457 1088.835205,1161.820679 
	C1088.871948,1171.204712 1092.527832,1178.482056 1099.348633,1185.253174 
	C1102.912842,1188.791504 1105.929688,1191.210083 1110.723755,1191.911377 
	C1114.644043,1192.484497 1118.710693,1192.983154 1122.324341,1194.463013 
	C1125.885620,1195.921265 1128.820435,1198.194824 1130.469116,1202.515503 
	C1132.301636,1207.318359 1135.671143,1211.669434 1138.952759,1215.749756 
	C1142.904419,1220.663330 1147.320679,1225.233032 1151.799805,1229.686157 
	C1159.639160,1237.479980 1165.872559,1246.262329 1169.881104,1257.399170 
z"/>
<path data-name="Touroua" fill="#55F1D0" opacity="1.000000" stroke="none" 
	d="
M439.781982,1212.657104 
	C430.000183,1227.687988 429.385956,1245.321777 428.262329,1262.336304 
	C427.279144,1277.223999 420.709717,1288.363403 408.850800,1295.116211 
	C392.601715,1304.369019 384.191681,1319.883911 373.481354,1333.678833 
	C372.368164,1335.112671 371.952789,1337.351562 371.835297,1339.255127 
	C370.401642,1362.478027 369.253479,1385.719604 367.669464,1408.931519 
	C366.810699,1421.515381 365.506500,1434.082520 363.964081,1446.603027 
	C361.731262,1464.727417 359.737518,1482.918579 356.480560,1500.870483 
	C352.271332,1524.070923 347.212952,1547.130859 341.977448,1570.127808 
	C336.148163,1595.732910 331.435333,1621.491943 327.150635,1647.413330 
	C322.826080,1673.575317 315.346558,1699.215820 309.246216,1725.084106 
	C304.060669,1747.073608 299.110657,1769.122803 293.569946,1791.022461 
	C291.216125,1800.325684 287.620514,1809.314819 284.276459,1819.082153 
	C273.103638,1818.589355 262.254730,1817.337769 251.381439,1816.356323 
	C221.349396,1813.645630 191.302139,1811.102905 161.274078,1808.349854 
	C156.384598,1807.901489 153.177719,1809.742554 150.301529,1813.534424 
	C137.043854,1831.012573 123.603310,1848.351807 110.250671,1865.757935 
	C108.024666,1868.659546 106.063560,1871.776001 103.711403,1874.566650 
	C97.771126,1881.614014 91.358124,1887.680786 79.480820,1881.607788 
	C85.609901,1895.972778 80.314499,1905.180664 69.687469,1913.919800 
	C67.161469,1910.072510 64.868065,1906.978271 62.993229,1903.648438 
	C57.619068,1894.103271 52.711899,1884.281982 47.033096,1874.926147 
	C43.568726,1869.218872 43.747086,1863.674072 45.413815,1857.763184 
	C45.863575,1856.168335 46.609726,1854.659302 47.148026,1853.086426 
	C51.040852,1841.710571 53.875221,1830.802490 48.392879,1818.517578 
	C43.936604,1808.531738 45.147827,1798.370728 53.498447,1789.011597 
	C57.717438,1784.283447 58.594063,1776.279541 60.076420,1769.557251 
	C60.616177,1767.109375 58.952492,1763.842773 57.553326,1761.368530 
	C54.449219,1755.879272 50.882111,1750.651489 47.493542,1745.323608 
	C43.426105,1738.928589 43.094940,1732.102783 45.862141,1725.285156 
	C49.573311,1716.141602 50.036869,1706.655762 50.477238,1696.961304 
	C51.079147,1683.710693 50.030933,1670.554810 49.711975,1657.355103 
	C49.121693,1632.927612 57.600094,1612.063721 74.192024,1594.078369 
	C79.725128,1588.080444 83.500862,1580.489624 88.340797,1573.816284 
	C93.191666,1567.127686 97.404236,1559.486694 103.648315,1554.423462 
	C111.277924,1548.236938 114.740677,1539.656616 120.119919,1532.222778 
	C121.509567,1530.302246 121.695328,1527.130127 121.586884,1524.568726 
	C120.948601,1509.492554 127.218903,1496.953369 135.502045,1485.050171 
	C137.388245,1482.339600 139.071503,1479.453491 140.544373,1476.496948 
	C143.291855,1470.981567 143.859634,1465.619019 141.601151,1459.365234 
	C137.013046,1446.660767 139.909897,1433.755493 142.956100,1421.163208 
	C143.564377,1418.648560 146.693298,1416.743530 148.966217,1414.217041 
	C146.586670,1406.039551 151.458481,1399.111450 156.130295,1393.279785 
	C159.532883,1389.032227 159.617645,1386.188477 158.087463,1381.810303 
	C155.369019,1374.032349 152.024033,1366.266235 150.834427,1358.215454 
	C149.472702,1348.999878 144.543625,1342.304321 139.038773,1335.653809 
	C136.712463,1332.843384 133.914886,1330.418579 131.292175,1327.858887 
	C124.441597,1321.172607 123.981079,1317.945312 128.933334,1309.920532 
	C129.794662,1308.525024 130.949982,1307.310791 132.787003,1304.972046 
	C130.801605,1300.811768 127.949814,1296.380005 126.573601,1291.529541 
	C125.116852,1286.395508 125.063873,1280.863037 124.207138,1273.971191 
	C122.646042,1273.971191 119.819023,1274.096924 117.006577,1273.947754 
	C108.190002,1273.480469 104.086037,1268.215698 104.973427,1259.489014 
	C105.476181,1254.544922 108.155434,1249.146362 102.821503,1244.742188 
	C102.056244,1244.110352 102.665627,1240.773926 103.602562,1239.302856 
	C107.382027,1233.368652 107.685326,1227.302246 106.663414,1220.428711 
	C105.358940,1211.654297 103.891998,1202.590454 107.987320,1193.942383 
	C108.393051,1193.085571 108.083878,1191.907349 108.432587,1191.004150 
	C111.437332,1183.221924 104.895172,1175.408569 109.796967,1166.898682 
	C113.712173,1160.101562 114.690735,1151.183838 115.387604,1143.071167 
	C116.247040,1133.065796 111.796593,1125.063232 102.843491,1121.161621 
	C101.750969,1113.255127 100.773651,1106.119507 99.775703,1098.986694 
	C99.273521,1095.397461 101.170746,1093.079224 104.225067,1092.115234 
	C107.918854,1090.949707 109.850784,1089.042725 109.699921,1085.010620 
	C109.526978,1080.387695 110.149010,1075.675659 105.978889,1072.172485 
	C99.052582,1066.353882 96.180618,1055.264893 98.758034,1046.708740 
	C99.652794,1043.738403 100.111916,1040.276733 99.521477,1037.286011 
	C97.695290,1028.036255 97.798058,1026.915771 105.454819,1021.634338 
	C109.046982,1019.156616 111.048752,1015.960510 110.266571,1011.713562 
	C109.212517,1005.990540 112.324898,1003.117188 117.401428,1000.596375 
	C121.331337,1004.807861 125.937279,1006.267029 131.199249,1006.223816 
	C133.864639,1006.201965 136.530548,1006.146851 139.194443,1006.054932 
	C150.040024,1005.680420 157.317734,1010.496948 162.151001,1020.315063 
	C169.199692,1034.633423 175.209564,1035.314331 186.835190,1024.028564 
	C188.230621,1022.673889 189.838623,1021.538147 191.334976,1020.311707 
	C196.391174,1022.066406 195.701920,1025.526978 195.191010,1029.359741 
	C194.449020,1034.926147 194.119308,1040.568359 194.000732,1046.186401 
	C193.953369,1048.429565 194.652557,1050.808105 195.501205,1052.929199 
	C198.557343,1060.567505 203.119537,1061.573120 209.111435,1055.738159 
	C211.456116,1053.454834 213.323456,1050.574707 214.988037,1047.721313 
	C218.748596,1041.275269 224.033997,1040.225342 231.131729,1041.177979 
	C241.016693,1042.504517 248.367691,1048.159668 255.473389,1054.007202 
	C258.114807,1056.180908 258.704346,1060.946777 260.026428,1064.604004 
	C262.609711,1071.750000 264.726227,1079.083374 267.655945,1086.079468 
	C269.843872,1091.304077 274.415833,1092.824829 280.055634,1092.171509 
	C291.921906,1090.796753 303.827911,1089.767334 315.714478,1088.564941 
	C324.828613,1087.643066 331.476440,1091.498047 335.961426,1099.875732 
	C339.702545,1106.863892 344.035706,1113.539551 347.666779,1120.580444 
	C349.751068,1124.621948 351.642944,1128.995361 352.420135,1133.429932 
	C354.072784,1142.859863 356.876801,1146.196045 365.893982,1148.265747 
	C369.673676,1149.133301 373.218445,1150.985352 376.974487,1152.004761 
	C382.338287,1153.460449 387.744537,1155.013916 393.234711,1155.665039 
	C397.228821,1156.138550 400.207825,1156.407349 403.588257,1159.790283 
	C410.414642,1166.621582 415.325806,1174.062012 417.649384,1183.357300 
	C420.208923,1193.596558 424.889282,1202.690674 432.938232,1209.706055 
	C434.545258,1211.106689 436.949402,1211.592773 439.781982,1212.657104 
z"/>
<path data-name="Demsa" fill="#8C5943" opacity="1.000000" stroke="none" 
	d="
M829.669250,714.188110 
	C833.168579,718.579590 829.928955,723.123047 829.813416,727.558716 
	C829.669189,733.097412 827.845337,738.679932 828.278198,744.121704 
	C828.722595,749.709351 826.723083,753.533142 822.283142,755.466431 
	C817.446411,757.572632 816.190125,761.016052 815.840332,765.563110 
	C815.487183,770.152710 815.246155,774.774353 814.491028,779.304504 
	C813.043945,787.985901 813.854919,795.819824 822.213440,801.501831 
	C816.070496,809.604004 814.954895,818.298584 817.537537,827.768250 
	C813.063354,829.460815 809.238281,831.278931 805.213806,832.343262 
	C799.161316,833.943909 795.506287,837.395386 794.297302,843.608521 
	C792.329163,853.723877 786.091309,861.811646 780.018433,871.316284 
	C777.264160,875.266785 775.633484,878.408264 774.161987,881.622559 
	C772.130615,886.060120 771.172058,891.416138 768.063232,894.846558 
	C761.002136,902.637939 758.029053,911.320374 758.000366,921.630615 
	C757.992065,924.591614 755.959961,927.666809 754.442688,930.465637 
	C753.234802,932.693726 751.398132,934.581055 750.034180,936.366333 
	C750.489319,937.299927 750.610352,937.612244 750.783081,937.892700 
	C752.407593,940.529358 755.805359,943.581421 755.298889,945.704407 
	C754.291321,949.928284 749.892578,947.578003 746.790222,947.745056 
	C745.122375,947.834900 743.499268,948.755188 741.578430,949.392822 
	C744.320923,955.206848 752.976135,957.685791 748.324890,966.382202 
	C744.154541,962.318909 741.119507,965.213989 738.019897,967.806091 
	C693.135437,947.676453 648.245544,927.559082 603.368530,907.412842 
	C574.863159,894.616211 546.395996,881.734375 517.878052,868.966003 
	C469.037384,847.098694 420.164307,825.303833 371.316406,803.452759 
	C339.154907,789.066040 307.011993,774.637695 274.872009,760.202881 
	C273.981812,759.803101 273.220367,759.116699 272.095123,757.874573 
	C273.256866,755.075562 274.524841,752.786804 276.235779,750.899780 
	C278.589569,748.303711 281.278381,746.011475 284.642822,742.809448 
	C288.971283,743.440002 294.461212,744.386780 299.989777,744.961243 
	C301.803070,745.149658 304.271332,744.992493 305.476562,743.915344 
	C308.617218,741.108154 311.841461,739.534912 316.160034,739.522766 
	C317.656586,739.518616 319.408539,737.669067 320.594971,736.279236 
	C325.423676,730.622864 329.916321,729.494507 336.863495,731.947693 
	C339.195190,732.770996 341.888519,732.511780 344.373016,732.979065 
	C346.388031,733.358032 348.530396,733.738831 350.282257,734.717102 
	C356.871124,738.396301 361.961609,736.369324 363.700165,729.092407 
	C364.302460,726.571533 364.176788,723.687378 365.391785,721.539490 
	C368.420654,716.184998 372.511505,714.832642 379.345886,716.118591 
	C385.843903,717.341125 392.043976,718.322388 398.516907,714.768005 
	C402.036591,712.835266 406.872742,712.585083 411.065948,712.759460 
	C417.537109,713.028442 422.568146,710.563477 427.339172,706.704773 
	C433.112854,702.035095 439.798950,699.697205 447.138702,698.526123 
	C450.529266,697.985107 453.876251,696.134888 456.845795,694.251831 
	C460.617157,691.860352 463.865997,690.925659 467.671814,694.153687 
	C471.654907,697.532166 474.585999,696.457764 477.220978,691.881775 
	C478.267212,690.064697 481.466583,688.258362 483.501892,688.445618 
	C494.215454,689.430969 499.953644,681.361511 507.156128,676.062317 
	C509.219513,674.544373 510.521667,671.975403 512.126282,669.853149 
	C517.171692,663.180054 517.478271,663.125244 524.822937,667.910339 
	C534.424377,674.165771 540.793823,672.436646 546.399475,662.087036 
	C547.027466,660.927673 547.620361,659.626160 548.577637,658.788391 
	C554.406860,653.687195 556.456055,646.755676 558.116516,639.615295 
	C559.295349,634.546082 560.840515,630.009277 567.296143,629.579651 
	C571.025330,629.331360 572.028442,626.345154 572.110229,623.111267 
	C572.143250,621.807434 572.110107,620.293091 571.503784,619.213257 
	C563.135742,604.309021 570.906616,593.265015 580.554077,582.092102 
	C586.351746,584.926392 591.574646,588.496887 597.127502,591.445984 
	C634.712524,611.406677 672.413391,631.149292 709.985901,651.133301 
	C744.615173,669.551758 779.112305,688.218750 813.721375,706.675415 
	C817.788025,708.844116 822.195862,710.373169 827.199646,712.151489 
	C827.953796,712.104187 828.002319,712.033508 828.057373,712.513306 
	C828.499146,713.563843 829.018066,713.962158 829.669250,714.188110 
z"/>
<path data-name="Garoua III" fill="#F6EF6D" opacity="1.000000" stroke="none" 
	d="
M1088.359131,1160.339844 
	C1079.474854,1165.660767 1070.633423,1170.302856 1061.824219,1175.005127 
	C1034.236938,1189.731567 1004.798035,1198.756714 973.993286,1203.587524 
	C973.337524,1203.690430 972.653687,1203.791016 972.002197,1203.718872 
	C953.238586,1201.642822 934.969604,1206.178345 916.464417,1207.593506 
	C898.891296,1208.937378 881.166077,1208.312988 863.507263,1208.506714 
	C856.843750,1208.579834 850.155273,1208.158325 843.518799,1208.588745 
	C823.762634,1209.869873 806.113464,1203.966431 789.684021,1193.533081 
	C773.458252,1183.229126 759.239441,1170.903320 749.417603,1153.221680 
	C750.042419,1149.508057 752.426208,1145.954590 751.615845,1143.424072 
	C749.037659,1135.372803 750.447998,1127.754883 752.718872,1118.739136 
	C759.135437,1108.997559 765.118286,1107.271118 777.566406,1113.732056 
	C779.613770,1114.794678 781.403992,1116.363892 783.471497,1117.375122 
	C791.125061,1121.118286 794.925781,1121.371948 800.143494,1114.710815 
	C808.081238,1104.577393 818.828369,1096.054688 820.665588,1081.796143 
	C821.120667,1078.264404 824.603455,1075.113159 826.727600,1071.808350 
	C829.882874,1066.899658 833.067505,1062.009766 837.130432,1056.947876 
	C840.304260,1056.327515 842.677429,1055.220093 844.855713,1055.521362 
	C858.480408,1057.405640 869.451477,1050.647095 880.180786,1044.240112 
	C892.189514,1037.069336 904.040161,1029.833618 917.361328,1025.274414 
	C930.404053,1020.810486 932.737183,1016.734436 930.666321,1003.208496 
	C930.515442,1002.223206 930.357727,1001.232056 930.311829,1000.238647 
	C929.700745,987.011536 938.622314,976.871399 951.231079,976.438782 
	C957.180603,981.904907 964.368408,984.198669 972.238892,983.698425 
	C978.398926,983.306824 983.090027,984.900513 986.867126,990.006531 
	C992.354980,997.425354 1000.733032,999.800903 1009.218689,1001.809082 
	C1012.672668,1002.626587 1016.079956,1003.641541 1019.935242,1004.681763 
	C1018.660034,1013.165710 1021.204285,1019.592957 1027.549438,1025.700684 
	C1027.068848,1028.634033 1026.475464,1030.304443 1025.882202,1031.974854 
	C1025.882202,1031.974854 1026.003662,1032.006226 1025.355225,1031.691406 
	C1023.772156,1032.236328 1022.837341,1033.095825 1021.902588,1033.955444 
	C1021.902588,1033.955444 1022.009399,1033.972168 1022.005615,1033.918701 
	C1018.250183,1034.427979 1014.211792,1035.569214 1014.142395,1039.867432 
	C1014.048401,1045.692017 1016.458801,1051.109741 1021.761475,1054.097534 
	C1026.947876,1057.019897 1032.462158,1059.527832 1038.096436,1061.440186 
	C1043.562012,1063.295166 1046.420044,1066.305908 1046.423462,1072.212158 
	C1046.430054,1083.858643 1050.452637,1092.619263 1062.665405,1096.604736 
	C1068.980591,1098.665527 1070.246216,1102.764771 1068.775513,1109.315063 
	C1068.411987,1110.933472 1068.159546,1112.630615 1067.471436,1114.113037 
	C1064.823364,1119.817749 1060.943237,1125.466919 1065.443726,1131.801880 
	C1068.841675,1136.584839 1072.716431,1141.034546 1076.463257,1145.562866 
	C1080.395264,1150.314697 1084.427856,1154.983521 1088.359131,1160.339844 
z"/>
<path data-name="Garoua I" fill="#E57ECB" opacity="1.000000" stroke="none" 
	d="
M836.239685,1057.111938 
	C833.067505,1062.009766 829.882874,1066.899658 826.727600,1071.808350 
	C824.603455,1075.113159 821.120667,1078.264404 820.665588,1081.796143 
	C818.828369,1096.054688 808.081238,1104.577393 800.143494,1114.710815 
	C794.925781,1121.371948 791.125061,1121.118286 783.471497,1117.375122 
	C781.403992,1116.363892 779.613770,1114.794678 777.566406,1113.732056 
	C765.118286,1107.271118 759.135437,1108.997559 752.753967,1117.917114 
	C749.192749,1116.937500 746.235229,1114.473389 743.182007,1114.348389 
	C737.099731,1114.099731 735.448425,1109.458130 733.339478,1105.637573 
	C731.178345,1101.722656 729.678345,1097.233398 728.957764,1092.821045 
	C728.599792,1090.629028 729.996948,1086.660645 731.698364,1085.875244 
	C739.832458,1082.120850 740.168884,1074.834717 741.156616,1067.583252 
	C737.340698,1063.583374 733.054626,1059.851196 729.838135,1055.354004 
	C728.508728,1053.495117 728.370300,1049.291016 729.596863,1047.372559 
	C733.570557,1041.157349 731.227600,1036.068970 728.340332,1030.591309 
	C726.532837,1027.162109 725.298218,1023.426453 723.866028,1019.804810 
	C720.671753,1011.727600 721.658142,1005.494263 730.086243,1000.654053 
	C734.206970,998.287476 736.835449,993.532654 735.080933,987.637146 
	C734.417297,985.407227 735.512512,982.616394 735.947571,980.105835 
	C736.563354,976.553223 737.310303,973.023254 738.010498,968.644897 
	C741.119507,965.213989 744.154541,962.318909 748.324890,966.382202 
	C752.976135,957.685791 744.320923,955.206848 741.578430,949.392822 
	C743.499268,948.755188 745.122375,947.834900 746.790222,947.745056 
	C749.892578,947.578003 754.291321,949.928284 755.298889,945.704407 
	C755.805359,943.581421 752.407593,940.529358 750.783081,937.892700 
	C750.610352,937.612244 750.489319,937.299927 750.034180,936.366333 
	C751.398132,934.581055 753.234802,932.693726 754.442688,930.465637 
	C755.959961,927.666809 757.992065,924.591614 758.000366,921.630615 
	C758.029053,911.320374 761.002136,902.637939 768.063232,894.846558 
	C771.172058,891.416138 772.130615,886.060120 774.161987,881.622559 
	C775.633484,878.408264 777.264160,875.266785 779.533081,871.772095 
	C782.561707,872.430542 784.798035,873.798340 787.216248,874.315186 
	C794.254822,875.819580 795.877319,877.572449 796.393311,884.688660 
	C796.819092,890.560486 797.462891,896.416382 798.259583,903.584900 
	C798.987793,905.312378 799.466553,905.734253 799.945374,906.156128 
	C799.945374,906.156128 799.971924,906.015259 799.813354,906.854004 
	C800.875061,913.522583 802.201599,919.332825 803.281067,925.188538 
	C804.111816,929.694885 805.337891,934.292236 805.122803,938.788635 
	C804.808533,945.358887 802.902832,951.846619 802.495728,958.420227 
	C801.754211,970.396851 801.721069,982.323181 810.425537,992.257629 
	C811.765198,993.786621 811.905396,996.486450 812.304993,998.698181 
	C813.890198,1007.471619 814.495972,1016.529175 817.075623,1024.990356 
	C820.768860,1037.104370 828.936218,1046.937256 836.239685,1057.111938 
z"/>
<path data-name="Garoua II" fill="#628151" opacity="1.000000" stroke="none" 
	d="
M837.130432,1056.947876 
	C828.936218,1046.937256 820.768860,1037.104370 817.075623,1024.990356 
	C814.495972,1016.529175 813.890198,1007.471619 812.304993,998.698181 
	C811.905396,996.486450 811.765198,993.786621 810.425537,992.257629 
	C801.721069,982.323181 801.754211,970.396851 802.495728,958.420227 
	C802.902832,951.846619 804.808533,945.358887 805.122803,938.788635 
	C805.337891,934.292236 804.111816,929.694885 803.281067,925.188538 
	C802.201599,919.332825 800.875061,913.522583 799.741699,906.853149 
	C806.273010,912.113708 812.818726,918.111938 819.115784,924.360657 
	C821.934814,927.158081 824.999817,928.289612 828.913147,928.156311 
	C836.212646,927.907593 843.534485,927.656494 850.825378,927.947876 
	C868.093201,928.638000 885.165771,930.700623 901.031799,938.173950 
	C904.435608,939.777161 907.279907,942.568298 910.620239,944.984497 
	C906.563232,950.562927 903.174072,955.222961 899.487305,960.292175 
	C901.501343,961.079163 902.541992,961.914856 903.217896,961.683655 
	C910.127930,959.320801 916.908325,956.548096 923.896912,954.467529 
	C925.594299,953.962280 928.309937,955.097961 929.855347,956.347534 
	C931.501709,957.678650 932.315430,960.039551 932.989502,961.133972 
	C940.408813,960.000671 946.939941,958.729675 953.531555,958.169739 
	C955.410889,958.010132 958.373840,959.451904 959.170471,961.011841 
	C959.888306,962.417480 958.688049,965.195557 957.677490,967.001038 
	C956.073303,969.866943 953.922485,972.426941 951.617004,975.777588 
	C938.622314,976.871399 929.700745,987.011536 930.311829,1000.238647 
	C930.357727,1001.232056 930.515442,1002.223206 930.666321,1003.208496 
	C932.737183,1016.734436 930.404053,1020.810486 917.361328,1025.274414 
	C904.040161,1029.833618 892.189514,1037.069336 880.180786,1044.240112 
	C869.451477,1050.647095 858.480408,1057.405640 844.855713,1055.521362 
	C842.677429,1055.220093 840.304260,1056.327515 837.130432,1056.947876 
z"/>
</svg>