<svg version="1.1" id="Layer_1" xmlns="http://www.w3.org/2000/svg" xmlns:xlink="http://www.w3.org/1999/xlink" x="0px" y="0px"
	 width="100%" viewBox="0 0 2193 3086" enable-background="new 0 0 2193 3086" xml:space="preserve">

<path 
	data-name="Konye"
fill="#63B7E0" opacity="1.000000" stroke="none" 
	d="
M1044.486206,1507.514160 
	C1045.211914,1506.851074 1045.859863,1506.066895 1046.675171,1505.543091 
	C1063.533447,1494.714355 1065.286987,1478.978760 1061.634521,1461.110352 
	C1058.851685,1447.496948 1056.454590,1433.750122 1060.808960,1419.911743 
	C1061.395630,1418.047485 1061.799561,1415.956543 1061.595093,1414.044678 
	C1060.988770,1408.373657 1062.741211,1403.569458 1066.303345,1399.320923 
	C1070.055420,1394.845825 1071.421509,1390.144653 1068.480591,1384.624878 
	C1067.732056,1383.220093 1067.639160,1381.404907 1067.482422,1379.755615 
	C1066.215332,1366.423584 1060.018188,1357.002563 1047.233643,1351.652710 
	C1041.249390,1349.148438 1040.436890,1346.336792 1042.858398,1339.289551 
	C1046.520264,1328.633179 1050.843018,1318.181763 1055.345947,1307.844116 
	C1058.592285,1300.391113 1058.862793,1293.306641 1056.165649,1285.593872 
	C1054.252808,1280.123657 1050.671387,1277.660889 1045.554199,1276.313477 
	C1040.751343,1275.048828 1036.040771,1273.423950 1031.220215,1272.239624 
	C1019.581787,1269.379761 1011.397705,1261.267822 1004.291016,1252.703613 
	C1000.585693,1248.238403 999.553772,1241.104492 998.528137,1234.973022 
	C997.048523,1226.127808 994.104309,1218.238403 987.565186,1212.033325 
	C979.839111,1204.701782 982.255066,1195.572632 982.622375,1186.741943 
	C982.784729,1182.839966 983.624756,1178.678101 982.608032,1175.070801 
	C979.912476,1165.506592 977.137512,1155.820679 972.930603,1146.871094 
	C969.473755,1139.517212 969.252991,1132.823364 972.409180,1125.859741 
	C974.930115,1120.297729 977.014771,1114.844727 975.741882,1108.592285 
	C975.487122,1107.340942 975.402466,1105.540527 976.095154,1104.689941 
	C983.473328,1095.628662 981.854797,1082.557373 990.358215,1073.766113 
	C993.540405,1070.476196 994.428955,1064.899536 996.151428,1060.286499 
	C997.641602,1056.295532 998.121826,1051.758057 1000.286987,1048.220215 
	C1006.876465,1037.453125 1014.117126,1027.086548 1020.997925,1016.494995 
	C1024.317749,1011.384705 1029.431641,1010.030090 1034.796143,1010.444946 
	C1045.053833,1011.238403 1054.419312,1008.521057 1063.852051,1005.030212 
	C1068.751709,1003.217041 1074.145874,1002.738342 1079.318848,1001.667053 
	C1093.094849,998.813965 1105.722046,992.987366 1118.021484,986.431946 
	C1123.270508,983.634277 1125.279419,978.565430 1127.417480,973.050537 
	C1135.571289,952.018921 1144.433228,931.258728 1153.209229,910.472534 
	C1158.110229,898.864563 1164.145874,887.890808 1170.629883,877.024536 
	C1174.467407,870.593445 1174.498047,861.739563 1175.643555,853.888000 
	C1177.461914,841.425232 1178.465942,828.840454 1180.409668,816.400208 
	C1181.994995,806.253784 1185.361328,796.330017 1186.328979,786.154541 
	C1188.243164,766.026001 1189.378052,745.804932 1190.184937,725.596191 
	C1190.694336,712.838379 1182.537964,703.905762 1174.120850,695.776855 
	C1165.527832,687.478210 1156.368164,679.743225 1147.185181,672.087036 
	C1141.581909,667.415466 1135.474487,663.347168 1129.576416,659.031189 
	C1127.430420,657.460754 1125.046021,656.165466 1123.092773,654.390076 
	C1111.588623,643.933838 1100.179565,633.372986 1088.417847,622.552368 
	C1088.417847,622.624573 1088.159668,621.813354 1088.455200,621.378174 
	C1097.922485,607.438599 1107.063110,593.254883 1117.062378,579.705322 
	C1127.115356,566.083069 1138.295044,553.295959 1148.465820,539.755737 
	C1154.226562,532.086426 1159.479858,523.922180 1164.009033,515.470459 
	C1169.579468,505.076141 1169.847290,493.444763 1167.175903,482.354523 
	C1165.982666,477.400665 1161.874268,471.866669 1157.501099,469.192932 
	C1142.180542,459.826263 1134.192017,443.889893 1122.172363,431.628815 
	C1115.386719,424.706787 1115.095337,414.409271 1114.649414,405.347748 
	C1114.153809,395.270905 1111.389648,387.906586 1101.577393,384.240051 
	C1093.989136,381.404510 1090.430176,375.557617 1088.270264,368.046631 
	C1086.729614,362.689728 1084.242798,357.508850 1081.539307,352.601349 
	C1074.598755,340.002380 1072.841675,327.105438 1078.411133,313.620270 
	C1079.399048,311.228546 1080.731201,308.685089 1082.612427,307.003998 
	C1094.935669,295.991699 1106.439575,284.005676 1122.691406,278.150421 
	C1130.971069,275.167358 1138.474243,271.379150 1147.872070,271.169800 
	C1156.400024,270.979828 1163.172852,264.673431 1165.940308,256.143524 
	C1169.041138,246.586700 1175.032837,239.270935 1181.874878,232.377533 
	C1182.337036,231.911987 1182.609619,230.984619 1183.108276,230.869339 
	C1193.081299,228.563919 1195.290161,219.854233 1198.945801,212.167679 
	C1201.089722,207.660172 1204.107666,203.828232 1209.409058,202.176010 
	C1217.161865,199.759781 1223.156372,196.037323 1222.007080,186.004242 
	C1221.465454,181.276428 1224.759155,177.281219 1228.952759,174.593201 
	C1237.879883,168.871017 1246.823730,163.174316 1255.699585,157.373489 
	C1257.606689,156.127075 1259.744385,154.788681 1260.893311,152.943176 
	C1262.226562,150.801605 1261.835205,147.230133 1263.499390,145.712463 
	C1270.778320,139.074265 1278.341309,132.706696 1286.175659,126.731842 
	C1291.787476,122.451973 1298.198853,120.052460 1305.628052,120.191933 
	C1312.352173,120.318161 1315.412231,117.672836 1314.018677,111.009148 
	C1311.834595,100.565697 1315.579468,91.212112 1318.243774,82.069687 
	C1321.057129,72.415955 1327.443970,63.832737 1331.973755,54.636127 
	C1333.824707,50.878414 1336.005615,46.754166 1336.064941,42.767284 
	C1336.153442,36.822662 1338.755981,33.011066 1342.425415,28.813843 
	C1349.555298,20.658600 1355.968506,11.876910 1362.339355,2.677367 
	C1363.500000,2.000000 1365.000000,2.000000 1367.028809,2.682123 
	C1380.490112,14.191316 1388.933350,27.686680 1392.056274,44.385498 
	C1392.357910,45.997940 1392.967896,47.603512 1393.709473,49.073692 
	C1396.215088,54.041126 1400.777588,55.315029 1405.175171,52.077362 
	C1407.295044,50.516674 1408.702393,47.923561 1410.901733,46.548271 
	C1416.735718,42.900070 1422.480469,38.631435 1428.888794,36.484764 
	C1440.191528,32.698586 1451.961426,30.306669 1463.535156,27.329449 
	C1473.379883,24.797003 1483.399048,23.910860 1492.870850,27.972359 
	C1503.192749,32.398365 1513.020264,37.965038 1523.151611,42.850990 
	C1534.256470,48.206299 1545.294556,53.599346 1553.005005,63.993801 
	C1555.402344,62.423367 1557.122803,60.587624 1559.175781,60.069088 
	C1570.649170,57.171322 1580.191406,50.605350 1590.101807,44.632126 
	C1592.349487,43.277393 1596.041138,42.203247 1598.160522,43.113373 
	C1607.850098,47.274166 1615.060547,43.302361 1621.665527,36.957169 
	C1628.391235,30.495798 1635.069458,29.257612 1643.916626,33.318813 
	C1645.533691,45.866383 1645.381714,46.021957 1654.380005,54.811665 
	C1657.976685,58.325005 1658.652710,61.541325 1657.174194,66.334282 
	C1653.131348,79.439186 1647.075806,91.564384 1641.128052,103.853104 
	C1637.186523,111.996674 1631.243652,114.844551 1623.284180,115.613586 
	C1620.311768,115.900780 1617.276245,115.500725 1614.293823,115.729523 
	C1612.052246,115.901474 1609.408691,115.948494 1607.708130,117.140862 
	C1601.411865,121.555420 1594.912720,125.387726 1587.431641,127.423325 
	C1583.090942,128.604446 1581.761475,131.522873 1582.768188,135.826553 
	C1584.053955,141.323151 1584.942017,146.920685 1586.406616,152.365768 
	C1588.744873,161.059097 1600.245361,168.880783 1609.399414,169.699387 
	C1619.910767,170.639389 1632.588745,171.234528 1637.157349,181.725891 
	C1641.233154,191.085602 1653.979492,189.668167 1655.392700,200.119370 
	C1655.404785,200.208679 1656.014160,200.262970 1656.343262,200.256912 
	C1662.641724,200.140671 1663.136108,205.585449 1665.121582,209.467255 
	C1671.127563,211.982132 1676.421631,212.895096 1680.978882,206.475769 
	C1682.671021,204.092133 1686.418701,203.167801 1688.725464,201.862839 
	C1690.240234,202.600449 1690.888550,202.809113 1691.413940,203.187988 
	C1700.192261,209.518921 1697.061279,220.887680 1702.149292,228.815720 
	C1702.500610,229.363068 1701.969116,231.010727 1701.337402,231.570206 
	C1696.606934,235.759476 1699.172729,240.293732 1701.106445,244.271362 
	C1704.548706,251.351883 1705.103638,258.747894 1705.911499,266.410889 
	C1707.135986,278.025177 1705.282837,287.528168 1696.076660,295.755554 
	C1690.589722,300.659210 1688.522705,307.981049 1690.626465,316.409210 
	C1696.994019,314.421387 1702.995117,312.547943 1711.391357,309.926819 
	C1707.091431,319.794678 1702.518066,327.055359 1700.887817,334.925659 
	C1699.197998,343.084290 1700.166382,351.840393 1700.464355,360.317932 
	C1700.513916,361.728882 1703.172974,362.965454 1704.455566,364.431885 
	C1707.750610,368.199066 1710.949707,372.050171 1715.209961,377.073853 
	C1720.814087,376.728363 1728.113159,376.278381 1736.253052,375.776550 
	C1733.906860,383.513000 1738.836792,386.689606 1743.648560,390.191345 
	C1747.620605,386.811798 1751.269165,383.707581 1754.965698,380.562408 
	C1756.876099,382.100555 1758.244751,382.713043 1758.838257,383.763458 
	C1761.757202,388.929077 1765.572876,389.769318 1771.302734,388.258484 
	C1777.618652,386.593048 1784.321777,386.132599 1790.891235,385.752655 
	C1800.999390,385.167938 1804.779541,382.362854 1807.446533,372.304413 
	C1812.038696,370.659790 1814.451416,373.046600 1815.373779,377.126495 
	C1816.529297,382.237793 1815.482910,386.991943 1812.038940,391.161285 
	C1810.290283,393.278290 1806.808838,394.857117 1809.506226,399.263916 
	C1812.028198,399.263916 1814.929443,399.263916 1818.724609,399.263916 
	C1816.602173,403.733643 1814.959839,407.192139 1813.398071,410.481110 
	C1825.916504,422.451324 1816.876099,433.240082 1812.658447,444.153473 
	C1815.438354,448.057343 1817.817139,454.837341 1821.043823,455.268127 
	C1829.841309,456.442627 1833.331055,463.619751 1839.576294,467.132477 
	C1838.381836,475.583252 1837.284668,483.344543 1836.055420,492.040863 
	C1841.466309,492.521790 1846.269531,494.068420 1850.392822,492.997345 
	C1854.438477,491.946472 1857.792725,488.233734 1861.567261,485.607880 
	C1865.210693,489.149200 1864.949097,495.019409 1870.732544,495.195709 
	C1871.198975,495.209930 1872.354248,500.091095 1871.732300,502.300568 
	C1870.626221,506.230194 1868.404175,509.845673 1866.548340,513.807495 
	C1870.917236,516.573669 1873.078857,514.862305 1873.543945,510.761597 
	C1874.088135,505.961334 1877.248779,502.512329 1881.130981,503.070648 
	C1889.235229,504.236115 1897.924927,501.729126 1906.171265,507.133179 
	C1905.703125,504.057373 1905.340454,501.675171 1904.778198,497.981262 
	C1911.545776,501.465759 1916.024414,500.786987 1918.642456,493.662170 
	C1919.666626,490.874603 1924.205444,490.986908 1924.769409,494.149323 
	C1925.855103,500.239044 1930.088989,501.986786 1934.498047,503.239746 
	C1936.943115,510.287933 1939.182617,516.743164 1941.637573,523.819702 
	C1945.257935,523.990051 1948.857178,524.166260 1952.457275,524.327271 
	C1959.413574,524.638245 1959.413696,524.634705 1958.605347,533.371826 
	C1952.744141,531.281677 1946.082397,530.118958 1942.297852,535.598694 
	C1939.157349,540.146057 1938.378296,546.324280 1936.444824,552.104126 
	C1935.650391,552.153137 1934.334229,552.314331 1933.019653,552.301758 
	C1927.287354,552.247192 1922.312012,553.037537 1921.415527,560.277039 
	C1921.269409,561.457214 1919.262695,563.208130 1917.993896,563.320740 
	C1908.327515,564.179260 1903.576660,570.221497 1901.613159,577.811218 
	C1893.227173,581.981567 1885.776611,585.686707 1877.829834,589.638611 
	C1880.045898,595.755188 1880.682251,602.144409 1874.768677,607.361511 
	C1874.349731,607.731018 1874.260254,608.593506 1874.208618,609.242004 
	C1873.560181,617.377014 1873.208496,625.545715 1872.250977,633.643127 
	C1871.302856,641.660522 1874.876343,647.644104 1881.127808,651.267029 
	C1887.447388,654.929443 1888.535889,659.669739 1888.290161,666.186890 
	C1887.723145,681.226318 1890.931641,694.858032 1904.436279,704.073792 
	C1906.597168,705.548523 1908.486328,707.608948 1910.050049,709.730896 
	C1913.043091,713.792419 1914.329346,719.722412 1910.881592,722.541809 
	C1905.923462,726.596191 1906.419556,731.818176 1904.669922,736.576782 
	C1902.908569,741.366882 1901.194824,746.174377 1899.234497,751.599060 
	C1903.519653,757.005310 1909.637817,761.458984 1917.064087,763.857910 
	C1928.471069,767.542542 1939.972412,770.935181 1952.880005,774.895508 
	C1946.518799,781.273132 1943.556396,788.497864 1934.784302,788.629700 
	C1933.515869,788.648743 1931.995117,790.284485 1931.071533,791.528748 
	C1927.754028,795.998352 1924.642700,800.620972 1920.993896,805.843567 
	C1913.979248,805.321228 1907.466919,808.010864 1902.968384,814.593872 
	C1896.817017,823.595886 1888.990479,830.500793 1878.932617,834.888611 
	C1876.548828,835.928589 1874.469482,837.667053 1873.090454,838.547607 
	C1871.556885,843.720825 1871.576172,849.416260 1868.740967,852.136475 
	C1860.348633,860.188293 1856.993164,870.434509 1853.231445,880.750977 
	C1852.106323,883.836670 1849.815430,886.497314 1847.704346,889.928711 
	C1844.053833,885.156738 1841.934692,880.699097 1835.836182,881.475769 
	C1836.634033,885.211609 1838.504761,888.895447 1837.891968,892.104919 
	C1836.388916,899.974854 1838.227295,908.493164 1833.140137,915.789490 
	C1831.840332,917.653992 1832.173584,920.946289 1832.396851,923.527161 
	C1832.965576,930.098267 1832.078003,936.084167 1826.637573,940.613159 
	C1829.049072,944.978271 1831.256836,948.974670 1833.682739,953.365845 
	C1831.042236,955.377991 1828.772339,957.107666 1826.115234,959.132446 
	C1828.133301,962.041382 1830.175049,964.984558 1831.317627,968.078735 
	C1818.453857,968.731934 1806.479614,969.082703 1794.530884,969.837219 
	C1791.330688,970.039246 1787.939331,970.955139 1785.096924,972.431335 
	C1773.290283,978.563293 1761.583862,984.901123 1750.020752,991.479675 
	C1747.270142,993.044495 1744.074829,995.398254 1743.034790,998.131470 
	C1738.152954,1010.960632 1729.760376,1021.095215 1719.819946,1030.090820 
	C1715.170898,1034.297974 1714.097778,1039.185059 1714.143921,1045.206909 
	C1714.378662,1075.837036 1713.947998,1106.474487 1714.396606,1137.099854 
	C1714.585693,1150.004639 1715.883911,1162.948120 1717.535522,1175.763306 
	C1719.829224,1193.560913 1720.178345,1193.519043 1709.150146,1208.257690 
	C1707.156616,1210.921997 1705.093628,1213.534424 1703.108887,1216.205200 
	C1688.233276,1236.222290 1672.422363,1255.628174 1658.787231,1276.458008 
	C1646.853638,1294.688232 1634.071045,1311.863770 1618.088867,1326.656982 
	C1611.259277,1332.978516 1605.202271,1340.288452 1597.789307,1345.796875 
	C1576.149170,1361.877197 1554.436890,1377.786621 1534.271240,1395.778809 
	C1528.038330,1401.339966 1523.607178,1407.170044 1521.193115,1415.072754 
	C1515.323975,1434.286011 1506.953125,1452.297729 1494.477905,1468.241089 
	C1492.659058,1470.565674 1491.436768,1473.356934 1489.352905,1476.259155 
	C1478.641724,1489.324341 1468.582520,1501.987549 1455.405640,1512.015259 
	C1447.582031,1517.969116 1440.913086,1525.547729 1434.214844,1532.845337 
	C1425.909912,1541.893066 1418.704956,1552.012329 1409.954346,1560.574463 
	C1397.150513,1573.102783 1383.957153,1585.372681 1369.895020,1596.437622 
	C1354.436035,1608.601807 1336.942383,1617.282837 1317.487427,1621.874878 
	C1298.453003,1626.367554 1279.637329,1631.782715 1260.691895,1636.661987 
	C1257.520996,1637.478760 1254.180786,1638.006470 1250.915039,1638.025635 
	C1230.267456,1638.146729 1209.618530,1638.132202 1188.970703,1638.035645 
	C1186.028564,1638.021973 1183.049805,1637.511108 1180.156128,1636.905151 
	C1169.505371,1634.674561 1158.775391,1632.705200 1148.284424,1629.864624 
	C1139.935547,1627.604370 1132.609009,1629.682861 1125.493286,1633.378296 
	C1118.773804,1636.867920 1112.241577,1636.818115 1105.301758,1634.193970 
	C1092.272949,1629.267456 1079.143799,1624.606445 1065.880127,1619.168213 
	C1062.979370,1615.729126 1060.332764,1612.874634 1057.510376,1610.205811 
	C1054.133789,1607.012817 1053.240356,1603.072388 1056.002930,1600.255859 
	C1058.060059,1599.971069 1060.601807,1599.619385 1063.114990,1599.271606 
	C1064.499146,1594.269531 1066.610962,1590.380859 1072.295410,1589.812622 
	C1074.318726,1592.861816 1076.223022,1595.731689 1078.375488,1598.975464 
	C1079.998779,1597.501709 1080.998169,1596.672974 1081.907837,1595.755371 
	C1087.172485,1590.443970 1087.791260,1590.436157 1092.865234,1595.711060 
	C1094.474121,1597.383301 1095.870728,1599.389648 1097.766846,1600.625854 
	C1100.758545,1602.576294 1104.192017,1605.350586 1107.784058,1602.640747 
	C1111.763550,1599.638916 1109.128296,1595.889526 1107.452393,1592.786133 
	C1105.898071,1589.907837 1103.668457,1587.395508 1101.750610,1584.711792 
	C1100.490723,1582.948486 1099.256714,1581.166748 1098.017090,1579.401733 
	C1099.326294,1578.195068 1099.941162,1577.267334 1100.797607,1576.894897 
	C1109.899536,1572.934814 1109.667969,1573.105347 1104.665161,1564.829468 
	C1099.269775,1555.904175 1095.880005,1546.201416 1095.604736,1535.623901 
	C1095.493164,1531.336914 1095.885742,1526.915649 1091.293945,1523.750488 
	C1089.505493,1524.204102 1087.630981,1524.739746 1085.729614,1525.151489 
	C1076.943481,1527.054321 1068.478516,1524.615723 1062.786133,1518.713989 
	C1057.371094,1513.100220 1051.540405,1509.692749 1044.486206,1507.514160 
z"/>

<path 
	data-name="Mbonge"
fill="#62FA5C" opacity="1.000000" stroke="none" 
	d="
M100.670120,2810.078613 
	C100.490646,2808.787109 100.311180,2807.495361 100.314156,2805.603516 
	C103.600525,2798.083008 106.966461,2791.261963 109.650749,2784.182373 
	C110.469696,2782.022461 110.209129,2778.700684 109.069221,2776.689209 
	C105.398499,2770.213135 105.469742,2763.225342 105.885826,2756.349854 
	C106.086594,2753.032471 108.602043,2749.901855 109.798080,2746.588623 
	C112.571953,2738.904053 113.530853,2730.471680 119.905212,2724.318115 
	C121.092041,2723.172363 121.215431,2720.568604 121.237221,2718.630859 
	C121.371170,2706.720947 126.444870,2696.116943 129.843796,2685.065186 
	C130.895035,2681.647217 131.635437,2678.133545 132.628204,2674.231445 
	C134.346970,2674.056885 136.251846,2673.863525 139.346359,2673.549316 
	C139.661530,2670.306396 140.124512,2666.826660 140.310074,2663.332031 
	C140.585770,2658.139404 142.753922,2654.734619 148.017853,2653.165527 
	C152.097290,2651.949951 155.949829,2649.973145 159.873032,2648.347412 
	C160.088333,2645.607178 160.262451,2643.390869 160.447815,2641.031982 
	C163.586533,2640.488037 166.428268,2639.995605 169.478668,2639.467041 
	C168.821930,2636.139160 168.255386,2633.268311 167.771255,2630.814941 
	C171.613785,2627.169678 175.077042,2623.884033 178.990784,2620.170898 
	C180.588669,2620.763916 182.642868,2621.525879 184.605881,2622.254150 
	C194.143860,2614.492432 189.329102,2604.664062 188.847519,2594.720459 
	C190.659714,2595.114990 192.287323,2595.469238 193.902100,2595.820557 
	C200.145905,2589.175293 202.512146,2585.400391 210.762909,2596.058350 
	C212.617462,2591.110596 217.544220,2587.445801 214.114380,2580.604248 
	C214.376541,2579.642578 214.905304,2579.108643 214.905319,2579.108398 
	C220.128448,2580.045898 225.351578,2580.983398 231.148041,2582.023682 
	C231.935760,2578.003174 232.004868,2573.974854 236.387939,2571.250244 
	C239.049866,2569.595459 239.886551,2565.004883 241.871124,2561.085693 
	C254.647049,2558.959717 252.390350,2557.793213 248.908905,2546.316650 
	C250.590118,2545.505859 252.430420,2543.800537 254.050095,2543.989502 
	C259.075134,2544.574463 263.056458,2543.045166 266.721985,2539.802734 
	C267.634613,2538.995605 269.420410,2538.152344 270.321899,2538.517334 
	C277.501556,2541.426270 281.437988,2535.950928 285.919769,2532.480225 
	C291.456024,2528.192627 296.489410,2523.781494 304.217041,2523.357666 
	C308.665436,2523.113281 313.732452,2521.147217 312.451385,2514.560303 
	C320.990753,2511.826416 330.395233,2521.861328 337.460541,2510.569336 
	C336.952576,2508.616211 336.227844,2505.829590 335.449188,2502.835693 
	C336.610321,2502.408447 337.550537,2501.689209 338.310211,2501.845703 
	C342.140045,2502.635254 346.181976,2503.091064 349.671539,2504.700439 
	C358.734894,2508.880127 367.731598,2512.960205 377.783264,2514.314941 
	C380.477386,2514.677734 382.980194,2516.459961 385.873749,2517.722900 
	C393.592316,2515.275391 392.855927,2506.613525 395.737549,2502.812744 
	C404.353729,2499.800049 411.506378,2497.541992 418.455505,2494.773193 
	C422.268707,2493.254150 425.159058,2490.379883 425.649902,2485.912354 
	C426.234100,2480.595459 429.834137,2478.696045 434.492523,2478.025635 
	C436.792847,2477.695068 439.457886,2478.200684 441.376740,2477.206543 
	C450.582458,2472.436279 459.953430,2470.614746 470.287292,2475.230469 
	C470.893799,2472.827637 471.648895,2471.304932 471.594604,2469.811768 
	C471.251678,2460.379395 476.083099,2454.988037 484.675964,2452.165283 
	C487.167267,2451.346924 489.723572,2450.225586 491.753479,2448.616455 
	C495.129608,2445.940430 497.728149,2442.118652 501.361389,2439.981689 
	C504.571777,2438.093262 508.746979,2437.845215 512.151672,2436.962402 
	C512.602539,2435.813477 513.137146,2435.156006 513.016846,2434.655518 
	C509.348969,2419.387207 514.222839,2406.919678 525.790588,2396.944336 
	C530.560120,2392.831543 535.767395,2389.104492 541.200134,2385.927979 
	C544.485840,2384.006836 548.768005,2382.104980 552.288879,2382.570068 
	C565.744080,2384.346436 574.983704,2377.322998 584.480347,2369.017822 
	C579.250366,2357.536865 589.243591,2350.196045 592.436829,2340.954834 
	C593.084656,2339.080078 598.442627,2337.414551 601.176270,2337.952881 
	C608.569336,2339.408447 613.028625,2335.322754 617.717651,2331.622559 
	C618.731995,2326.489746 615.352173,2324.369873 612.197998,2322.782227 
	C602.800842,2318.051514 600.604309,2309.758301 600.326599,2300.352539 
	C600.169434,2295.028076 599.951050,2289.699951 600.017639,2284.376465 
	C600.096497,2278.084473 597.470215,2272.852539 594.335388,2267.658691 
	C589.581848,2259.782715 583.317200,2254.487061 573.692200,2253.930664 
	C571.416260,2253.799316 569.166687,2252.898682 566.944641,2252.221680 
	C563.372253,2251.133301 561.608215,2248.946777 561.578674,2244.911133 
	C561.549377,2240.907227 563.446838,2238.431396 566.700195,2237.216064 
	C569.437927,2236.193359 572.534729,2235.936768 575.498169,2235.752686 
	C582.324219,2235.328613 588.308044,2233.136230 593.789856,2228.921387 
	C598.488892,2225.308105 601.277710,2221.215576 602.746033,2215.216064 
	C604.617249,2207.570557 608.606323,2200.469482 611.224365,2192.973389 
	C613.614319,2186.130859 616.146484,2179.190918 617.243347,2172.082275 
	C618.502502,2163.921143 613.661926,2157.530029 608.350891,2151.851807 
	C602.590820,2145.693359 602.274475,2138.814941 605.428162,2131.539795 
	C607.272644,2127.284912 609.690308,2123.281738 611.738159,2119.110596 
	C613.482666,2115.557129 615.952271,2112.066895 616.553406,2108.301270 
	C618.223450,2097.838379 625.066040,2093.406738 634.403870,2091.906250 
	C645.137939,2090.181152 652.533630,2084.728271 656.785156,2073.985107 
	C654.841675,2072.618896 652.147888,2069.857666 651.373840,2070.318604 
	C645.372864,2073.894287 638.508606,2070.963623 632.695801,2073.170410 
	C629.363098,2074.435547 626.992249,2078.234375 623.478516,2081.565674 
	C618.388428,2081.631836 613.470642,2080.833984 609.715271,2074.523193 
	C606.153809,2068.538086 600.455444,2068.088135 593.134155,2070.551514 
	C590.533569,2071.426514 587.763550,2071.797363 585.195740,2072.370361 
	C581.158569,2059.247559 583.580017,2047.749634 587.514709,2036.447388 
	C588.313843,2034.151978 590.032837,2032.058350 591.702393,2030.210083 
	C594.764221,2026.820435 594.555298,2024.580933 591.170471,2021.558960 
	C588.560913,2019.229370 585.593018,2016.726196 584.252380,2013.658569 
	C580.332092,2004.687744 571.930725,2001.937988 564.151917,1998.676514 
	C561.666870,1997.634766 557.880371,1999.805908 554.664978,2000.367798 
	C551.180054,2000.976685 547.678955,2001.716431 544.162537,2001.862915 
	C540.156494,2002.029785 537.584656,1999.438110 537.932800,1995.675537 
	C538.523743,1989.289917 533.894043,1986.354858 530.959412,1982.414917 
	C525.666016,1983.092407 520.843994,1983.921021 515.987000,1984.290161 
	C503.127716,1985.267090 494.361023,1971.451782 500.990570,1961.444336 
	C506.471527,1953.170776 511.416595,1944.479492 517.567810,1936.743530 
	C519.999146,1933.685791 524.959412,1932.489014 528.932617,1930.841187 
	C535.201904,1928.241211 539.995972,1924.063599 544.827942,1919.283936 
	C557.033081,1907.210449 564.931824,1892.352661 573.197632,1877.751587 
	C576.687622,1871.586792 581.478821,1868.394287 587.958557,1867.220337 
	C594.919800,1865.959106 599.989685,1862.817261 603.452637,1856.243286 
	C605.165466,1852.991577 608.889099,1850.417358 612.247253,1848.480225 
	C626.885681,1840.036987 641.569458,1831.979126 652.522156,1818.348877 
	C659.700928,1809.415527 670.249939,1804.528076 680.655273,1799.937500 
	C686.718140,1797.262817 692.905334,1794.824219 698.787842,1791.796021 
	C710.277710,1785.881226 721.696045,1779.809692 732.947754,1773.455688 
	C741.928894,1768.383789 748.356079,1760.906982 751.888611,1751.074707 
	C752.444397,1749.527588 753.137329,1747.900757 754.196350,1746.684692 
	C759.729492,1740.330688 761.067993,1732.524414 762.352417,1724.607910 
	C762.975891,1720.765991 764.198120,1717.020996 764.946716,1714.039185 
	C766.567078,1713.163940 767.208862,1712.502319 767.688354,1712.604248 
	C781.138306,1715.463135 790.000916,1706.246826 800.065735,1700.300537 
	C807.685425,1695.798828 815.146179,1691.028564 822.721802,1686.450928 
	C824.130920,1685.599365 826.233521,1685.502563 827.193665,1684.363892 
	C834.110474,1676.161133 843.988220,1677.281006 852.935181,1676.525635 
	C862.486023,1675.719238 871.306213,1674.869019 877.567993,1666.208740 
	C880.434998,1662.243774 885.350830,1661.075195 890.226440,1661.727539 
	C903.277344,1663.473389 913.939575,1660.480713 925.031067,1651.975342 
	C942.904480,1638.269287 962.461731,1626.734375 978.612976,1610.750000 
	C981.945984,1607.451660 985.654724,1606.394165 990.244446,1606.189453 
	C998.654907,1605.814819 1001.671326,1602.228760 1002.228394,1593.644897 
	C1002.372314,1591.427246 1002.867126,1589.177979 1003.557434,1587.059326 
	C1007.763062,1574.151001 1012.656738,1561.434692 1016.198975,1548.350586 
	C1020.702209,1531.716309 1028.519165,1517.679321 1043.761230,1507.696045 
	C1051.540405,1509.692749 1057.371094,1513.100220 1062.786133,1518.713989 
	C1068.478516,1524.615723 1076.943481,1527.054321 1085.729614,1525.151489 
	C1087.630981,1524.739746 1089.505493,1524.204102 1091.293945,1523.750488 
	C1095.885742,1526.915649 1095.493164,1531.336914 1095.604736,1535.623901 
	C1095.880005,1546.201416 1099.269775,1555.904175 1104.665161,1564.829468 
	C1109.667969,1573.105347 1109.899536,1572.934814 1100.797607,1576.894897 
	C1099.941162,1577.267334 1099.326294,1578.195068 1098.017090,1579.401733 
	C1099.256714,1581.166748 1100.490723,1582.948486 1101.750610,1584.711792 
	C1103.668457,1587.395508 1105.898071,1589.907837 1107.452393,1592.786133 
	C1109.128296,1595.889526 1111.763550,1599.638916 1107.784058,1602.640747 
	C1104.192017,1605.350586 1100.758545,1602.576294 1097.766846,1600.625854 
	C1095.870728,1599.389648 1094.474121,1597.383301 1092.865234,1595.711060 
	C1087.791260,1590.436157 1087.172485,1590.443970 1081.907837,1595.755371 
	C1080.998169,1596.672974 1079.998779,1597.501709 1078.375488,1598.975464 
	C1076.223022,1595.731689 1074.318726,1592.861816 1072.295410,1589.812622 
	C1066.610962,1590.380859 1064.499146,1594.269531 1063.114990,1599.271606 
	C1060.601807,1599.619385 1058.060059,1599.971069 1056.002930,1600.255859 
	C1053.240356,1603.072388 1054.133789,1607.012817 1057.510376,1610.205811 
	C1060.332764,1612.874634 1062.979370,1615.729126 1065.614502,1619.852783 
	C1063.195557,1627.028687 1060.866089,1632.853149 1058.483276,1638.811035 
	C1061.902344,1642.753784 1063.686890,1649.386230 1070.513184,1647.387329 
	C1079.542236,1644.743408 1084.178223,1651.122070 1089.401001,1655.770264 
	C1093.199463,1659.150757 1092.219727,1667.369507 1087.707031,1669.465942 
	C1082.370483,1671.945190 1083.458252,1675.777710 1084.237305,1679.463867 
	C1084.896484,1682.582031 1086.754517,1685.446777 1088.189819,1688.665283 
	C1083.513672,1692.767944 1079.093384,1696.646118 1075.038696,1700.203491 
	C1076.722778,1708.171143 1079.908447,1713.008545 1088.739868,1711.626099 
	C1090.735596,1704.197510 1096.669312,1703.609497 1103.535156,1703.906738 
	C1104.689331,1707.455566 1105.693970,1710.544678 1106.513916,1713.065552 
	C1118.692261,1718.635376 1122.467285,1707.985107 1128.779297,1702.091431 
	C1132.041504,1707.211914 1134.580933,1712.286133 1138.145020,1716.492065 
	C1141.836304,1720.848022 1146.521240,1724.362061 1151.221069,1728.655029 
	C1146.299438,1731.049072 1142.264282,1733.011963 1138.873169,1734.661499 
	C1138.963257,1743.615234 1140.619629,1750.378174 1149.896729,1751.969360 
	C1151.076050,1752.171631 1152.357788,1753.170410 1153.124634,1754.161865 
	C1159.025269,1761.791504 1164.966187,1769.400269 1170.536499,1777.268921 
	C1172.206665,1779.628174 1173.162109,1782.711182 1173.704590,1785.601562 
	C1174.607666,1790.413574 1172.289429,1793.415649 1167.330200,1793.584839 
	C1164.903198,1793.667603 1162.116211,1792.715454 1160.031006,1791.386353 
	C1155.134277,1788.264648 1152.169312,1789.703003 1149.742065,1794.533325 
	C1152.673340,1800.016235 1155.397339,1805.342773 1158.336914,1810.547363 
	C1161.535034,1816.209839 1164.624756,1817.260620 1170.609619,1814.618774 
	C1174.248413,1813.012451 1177.645386,1810.866455 1181.243408,1809.157349 
	C1186.274658,1806.767456 1190.569336,1807.147827 1194.594849,1811.779175 
	C1198.018433,1815.718506 1202.373291,1818.848389 1207.567139,1823.442993 
	C1209.906250,1820.416748 1211.280029,1817.120850 1213.690918,1815.937256 
	C1216.217896,1814.696533 1220.228760,1814.455444 1222.707397,1815.634521 
	C1226.043091,1817.221313 1224.625977,1820.823730 1223.174927,1823.550903 
	C1222.094360,1825.581909 1220.722656,1827.458008 1219.730103,1829.012207 
	C1215.542725,1829.904907 1211.845703,1830.693115 1207.012939,1831.723389 
	C1208.816772,1836.658447 1210.270264,1840.275757 1211.456543,1843.978638 
	C1212.718506,1847.918335 1213.456909,1852.253784 1209.567871,1854.953125 
	C1204.671265,1858.352173 1199.500854,1861.629395 1193.990601,1863.793091 
	C1188.811768,1865.826782 1182.403931,1865.213989 1177.705322,1867.849243 
	C1173.128906,1870.415771 1170.033691,1875.623047 1166.295776,1879.662842 
	C1151.809570,1867.322876 1146.615479,1870.381348 1138.453003,1879.361694 
	C1136.089966,1878.575806 1132.839844,1876.346924 1131.343628,1877.198853 
	C1125.383911,1880.591919 1119.320923,1879.150146 1113.341431,1878.360107 
	C1111.942139,1882.311401 1110.743286,1885.696777 1109.349609,1889.632324 
	C1100.852661,1888.000488 1094.546753,1891.591064 1089.467163,1898.630615 
	C1085.969482,1893.646973 1083.008179,1889.427490 1079.781128,1884.829590 
	C1071.883667,1888.378296 1064.677856,1891.616211 1057.201538,1894.975586 
	C1054.059326,1892.467896 1051.309937,1890.273682 1048.687012,1888.180420 
	C1052.007446,1881.958862 1054.330688,1877.605713 1057.171021,1872.283569 
	C1048.072144,1869.333496 1040.678955,1874.250000 1033.048828,1875.941895 
	C1026.983032,1877.287109 1026.553223,1883.591675 1024.429321,1887.706421 
	C1026.209717,1892.033447 1027.705322,1895.668457 1029.182739,1899.259399 
	C1026.204712,1903.351318 1023.518677,1907.042236 1021.239746,1910.173584 
	C1023.499878,1918.115723 1030.607422,1916.745605 1035.170776,1919.170166 
	C1036.004761,1925.674194 1032.367554,1928.352905 1027.322632,1930.518921 
	C1015.108459,1935.763184 1006.437561,1943.797119 1005.799011,1958.312622 
	C1005.686951,1960.860718 1003.461487,1963.708252 1001.483215,1965.689819 
	C998.520081,1968.657471 997.788879,1971.736206 998.731079,1975.639526 
	C999.352417,1978.213501 999.935913,1980.896729 999.873169,1983.515259 
	C999.735718,1989.250122 1002.253174,1992.965454 1007.417542,1995.177368 
	C1012.917236,1997.533081 1016.301453,2001.488770 1018.276794,2007.354614 
	C1019.459106,2010.865601 1022.587158,2013.810547 1025.148560,2016.740601 
	C1027.267700,2019.164795 1029.838135,2021.194336 1032.087646,2023.286499 
	C1029.732788,2028.984619 1026.794067,2032.639771 1020.676697,2031.713623 
	C1016.024414,2031.009277 1013.390625,2033.475098 1010.966919,2037.086426 
	C1006.699158,2043.444946 1002.195862,2049.663330 997.483582,2055.699951 
	C993.604431,2060.668945 991.226685,2065.530273 993.635498,2072.103027 
	C994.937683,2075.656494 994.811584,2079.733398 995.283691,2083.232178 
	C988.794983,2085.570312 981.676086,2086.238281 977.651733,2090.116943 
	C973.593262,2094.028564 972.606750,2101.127197 970.154236,2107.123291 
	C976.627075,2109.294434 981.915833,2111.068359 987.819092,2113.048584 
	C985.505920,2123.821289 982.215576,2134.060547 981.331360,2144.503662 
	C980.130005,2158.690430 978.105469,2173.640137 981.191650,2187.178223 
	C987.016907,2212.731445 994.964294,2238.302979 1012.815674,2258.581299 
	C1019.644043,2266.337891 1028.580200,2273.962646 1038.076660,2277.238037 
	C1051.963989,2282.027832 1067.114868,2284.809814 1082.073120,2278.853516 
	C1086.354126,2277.148926 1091.203979,2276.930176 1095.623291,2275.504150 
	C1106.303345,2272.058594 1117.187256,2271.755371 1128.210205,2272.698975 
	C1115.498657,2292.168213 1102.573486,2311.502930 1090.183716,2331.174805 
	C1085.446045,2338.697021 1080.894531,2346.632812 1078.018555,2354.986328 
	C1037.322876,2473.190674 996.997803,2591.522705 956.441772,2709.775146 
	C926.996033,2795.632568 897.355286,2881.423340 867.774231,2967.234375 
	C855.530640,3002.751465 843.247192,3038.255127 830.893250,3073.733887 
	C829.372253,3078.102051 827.302612,3082.279053 825.743652,3087.272461 
	C769.291565,3088.000000 712.583069,3088.000000 655.469055,3087.400879 
	C646.102966,3078.448730 634.934021,3074.198730 623.846313,3069.667236 
	C616.838013,3066.802734 609.732666,3063.789062 603.444458,3059.663330 
	C597.698975,3055.894531 591.770020,3053.428223 585.152039,3052.444824 
	C569.004211,3050.044189 554.527100,3043.701172 541.819397,3033.623291 
	C537.752380,3030.398193 532.990784,3026.384766 531.586731,3021.801025 
	C528.332275,3011.176514 520.685364,3006.285156 511.476105,3002.665771 
	C503.815887,2999.655029 497.720398,2994.805908 492.732208,2988.369873 
	C489.676117,2984.426514 486.214966,2980.767090 483.445496,2976.638428 
	C478.631897,2969.462402 472.155548,2964.004639 464.353912,2961.165771 
	C449.315002,2955.693604 436.940430,2946.278320 424.792938,2936.465088 
	C419.675995,2932.331299 414.393066,2930.564209 408.210358,2932.253418 
	C400.508942,2934.357910 393.978760,2932.053467 387.628052,2927.951416 
	C385.164307,2926.359863 382.459534,2924.902344 379.658905,2924.122070 
	C373.947723,2922.531006 368.021088,2921.707520 362.320618,2920.084961 
	C352.809479,2917.377686 344.102264,2918.028076 334.243622,2920.825684 
	C321.586731,2924.417969 315.794403,2932.646484 310.753571,2943.042969 
	C308.757050,2947.160889 306.581116,2951.309326 303.788086,2954.900146 
	C297.361450,2963.162354 293.195892,2963.687500 282.977417,2960.343994 
	C270.684937,2956.322266 258.160675,2953.005371 245.719421,2949.443848 
	C240.612839,2947.982178 235.463791,2946.668213 230.328995,2945.306152 
	C223.399811,2943.467529 217.613525,2940.258545 213.260025,2934.119141 
	C209.634018,2929.005615 204.833878,2924.730225 200.606171,2920.036377 
	C183.696579,2901.262695 166.880585,2882.403809 149.889618,2863.703857 
	C133.573410,2845.746826 117.083641,2827.947266 100.670120,2810.078613 
z"/>

<path 
	data-name="Kumba III"
fill="#A1AD53" opacity="1.000000" stroke="none" 
	d="
M2050.479004,1414.473022 
	C2052.131104,1414.458618 2053.885742,1414.072754 2055.417236,1414.495239 
	C2061.564209,1416.191528 2067.636963,1417.795410 2072.359131,1413.850342 
	C2077.120361,1417.138184 2080.669434,1419.975830 2084.571533,1422.191650 
	C2090.252686,1425.417358 2096.106445,1425.417480 2101.246338,1421.003784 
	C2105.714355,1417.167480 2110.081543,1417.089111 2114.876221,1420.138184 
	C2115.964111,1420.830078 2117.411377,1421.632446 2118.553467,1421.459717 
	C2130.388916,1419.668701 2141.009277,1426.431030 2152.959717,1426.056152 
	C2156.796143,1429.331665 2157.402588,1436.652710 2164.780762,1436.403564 
	C2165.868652,1436.366943 2167.229736,1439.237793 2168.163330,1440.929565 
	C2169.917969,1444.109253 2171.452881,1447.410278 2172.173096,1448.849976 
	C2180.625000,1453.159424 2187.592773,1456.712036 2195.280273,1460.132324 
	C2196.000000,1475.375122 2196.000000,1490.750366 2196.000000,1507.062744 
	C2191.467773,1505.596924 2190.592041,1510.358521 2188.604004,1512.162476 
	C2177.836426,1521.932617 2166.315186,1530.118408 2150.783447,1532.278442 
	C2151.460693,1551.045044 2140.982178,1565.494263 2132.442871,1580.793579 
	C2130.643555,1584.017212 2130.008789,1588.235474 2129.968262,1592.007690 
	C2129.918701,1596.599731 2131.414551,1601.188721 2131.626709,1605.807129 
	C2132.198486,1618.265991 2128.890137,1622.206299 2116.095947,1624.652100 
	C2114.912109,1628.197144 2113.524902,1631.912964 2112.438721,1635.714844 
	C2111.083496,1640.458740 2111.477051,1644.976440 2115.106689,1648.741699 
	C2125.358398,1659.375732 2129.365479,1673.267944 2134.988525,1686.616821 
	C2141.780273,1690.947144 2146.550049,1685.384155 2149.774170,1683.708374 
	C2158.281006,1684.503174 2164.762451,1685.985840 2171.090576,1685.494507 
	C2180.630615,1684.754150 2187.971924,1688.958130 2187.796631,1701.368286 
	C2187.187256,1701.935547 2186.585449,1702.928345 2185.743164,1703.214600 
	C2174.230469,1707.128296 2171.843750,1715.792480 2172.161621,1726.857300 
	C2172.671631,1744.618408 2159.790039,1762.360718 2143.216309,1767.297729 
	C2133.216309,1770.276489 2131.335693,1778.897461 2128.370361,1786.859497 
	C2127.342041,1789.620117 2127.416016,1792.812012 2126.274902,1795.505615 
	C2123.889160,1801.138062 2120.242432,1801.968750 2115.205078,1798.437256 
	C2114.394775,1797.869263 2113.601318,1797.187866 2113.019043,1796.397583 
	C2108.460449,1790.211182 2102.464355,1788.951416 2094.004150,1791.456665 
	C2095.166748,1794.781494 2095.895752,1798.180664 2097.489014,1801.109131 
	C2099.764404,1805.290771 2099.975098,1809.245972 2097.951904,1813.444458 
	C2097.374268,1814.643433 2096.754883,1815.832275 2096.298828,1817.078613 
	C2091.460205,1830.305176 2091.468018,1830.308105 2078.843262,1832.936035 
	C2077.398682,1840.030396 2075.656738,1847.082397 2074.651367,1854.238159 
	C2074.262451,1857.007202 2075.090332,1860.188965 2076.147949,1862.874023 
	C2079.388672,1871.104248 2078.842041,1879.097656 2075.926025,1886.494507 
	C2070.214600,1888.446899 2064.709473,1889.634399 2059.955078,1892.208374 
	C2056.996826,1893.809814 2053.553711,1897.306396 2053.178467,1900.308472 
	C2052.392090,1906.600342 2049.248779,1910.411377 2044.668091,1914.099609 
	C2042.510864,1915.836670 2041.248657,1918.865723 2039.997192,1921.506714 
	C2037.863403,1926.009888 2035.967651,1930.633057 2034.134033,1935.269897 
	C2030.604858,1944.193848 2023.703125,1947.565552 2014.560913,1947.731323 
	C2009.006592,1947.831909 2003.318970,1947.039185 1998.300781,1950.825684 
	C1992.320801,1955.337769 1989.947021,1959.141235 1992.392212,1966.058960 
	C1995.445312,1974.697266 1994.756836,1983.406860 1993.367798,1991.732056 
	C1991.556519,2002.590088 1993.156616,2012.883911 1994.937988,2023.335938 
	C1996.733521,2033.870605 1995.561279,2036.207520 1985.945923,2040.197266 
	C1975.614868,2044.484009 1962.810181,2040.679321 1956.016724,2031.122192 
	C1957.902832,2026.013062 1961.240723,2023.145874 1967.179810,2023.603271 
	C1969.089844,2023.750366 1971.076782,2022.953979 1973.023071,2022.561890 
	C1981.543091,2020.845581 1981.542358,2020.841919 1981.080078,2010.812500 
	C1978.125732,2010.230225 1975.017456,2009.617554 1972.180420,2009.058472 
	C1967.933105,2004.434204 1971.252441,2000.122681 1972.634521,1995.481079 
	C1965.496948,1992.849976 1959.959351,1996.107056 1954.608276,1999.045654 
	C1948.250244,2002.537109 1942.320679,2006.803711 1935.997070,2010.364624 
	C1928.247314,2014.728394 1927.661743,2020.095947 1934.654297,2025.868652 
	C1934.910400,2026.080078 1935.169800,2026.340942 1935.472412,2026.434692 
	C1948.724365,2030.542236 1950.564331,2042.384277 1953.623413,2053.335693 
	C1955.492432,2060.026367 1949.744019,2068.760986 1940.908325,2072.363281 
	C1935.683228,2074.494141 1930.232910,2076.078613 1924.865479,2077.853027 
	C1917.611084,2080.250977 1911.703735,2089.390381 1914.067993,2096.354736 
	C1915.036865,2099.209229 1918.774048,2102.702148 1921.614502,2103.064941 
	C1932.936035,2104.510254 1941.165894,2110.957520 1949.203857,2118.026611 
	C1959.049438,2126.685303 1957.973145,2139.214844 1947.005859,2146.329834 
	C1943.127075,2148.846191 1939.315430,2151.597412 1935.967407,2154.763916 
	C1932.481689,2158.061279 1929.219482,2160.332520 1923.942261,2160.522949 
	C1914.697510,2160.857178 1912.352539,2165.105713 1915.804932,2173.847168 
	C1919.015259,2181.974609 1920.460693,2189.777344 1913.766968,2197.639160 
	C1911.014160,2196.878418 1908.245117,2196.113525 1905.473389,2195.352051 
	C1901.324585,2196.137695 1899.744751,2200.001709 1899.999390,2206.661377 
	C1904.121216,2211.321289 1907.577271,2214.567627 1910.217163,2218.379150 
	C1913.585571,2223.242676 1916.017822,2228.751709 1919.354980,2233.640381 
	C1924.004395,2240.451416 1927.169800,2247.644531 1926.260010,2256.000000 
	C1924.678345,2270.527344 1926.750366,2284.447021 1932.003174,2298.051270 
	C1934.434937,2304.348633 1933.860840,2310.660645 1932.770630,2317.522705 
	C1931.455933,2325.798340 1932.408691,2334.820312 1934.259033,2343.099121 
	C1935.968506,2350.748779 1936.432251,2358.127686 1935.888306,2365.799561 
	C1935.583252,2370.104492 1935.567505,2374.482666 1935.979614,2378.773926 
	C1936.656616,2385.821777 1941.814209,2389.864746 1948.896484,2388.728516 
	C1960.417480,2386.880615 1970.797852,2389.199951 1979.658447,2396.786377 
	C1982.027588,2398.814697 1983.916382,2401.856201 1985.012573,2404.808838 
	C1986.494507,2408.800781 1987.776489,2413.281738 1983.621704,2416.802979 
	C1980.551514,2419.405029 1972.212891,2419.494385 1968.834717,2415.934570 
	C1964.173096,2411.022705 1959.016479,2411.267334 1952.196167,2412.443359 
	C1951.593994,2415.656738 1950.888672,2419.081787 1950.321777,2422.529297 
	C1949.571899,2427.089600 1949.810425,2432.035645 1948.079834,2436.169434 
	C1942.568237,2449.335205 1943.167358,2463.523926 1940.293945,2477.100586 
	C1939.747803,2479.680664 1938.656128,2482.140625 1938.005371,2484.704102 
	C1937.003906,2488.648926 1934.642456,2490.961670 1930.661865,2491.983887 
	C1925.837402,2493.222168 1921.181152,2495.247070 1916.307007,2496.135254 
	C1905.724365,2498.063721 1898.420532,2503.984131 1893.174683,2513.118408 
	C1888.886963,2520.584229 1887.661499,2521.187256 1879.596680,2518.375000 
	C1875.514893,2516.951660 1872.593018,2516.790039 1870.089600,2521.295166 
	C1871.340820,2523.418457 1872.751465,2525.812500 1875.035767,2529.688965 
	C1870.417358,2529.688965 1867.215942,2529.688965 1864.014648,2529.688965 
	C1739.695312,2529.688965 1615.375977,2529.688965 1491.056641,2529.688477 
	C1489.056885,2529.688477 1487.055420,2529.624756 1485.057739,2529.686768 
	C1481.166504,2529.807617 1479.234253,2528.156250 1478.068970,2524.210938 
	C1476.992188,2520.565186 1474.388916,2517.375977 1472.499268,2513.962891 
	C1471.265259,2511.733887 1470.081665,2509.475830 1468.917114,2507.209473 
	C1467.265259,2503.994629 1465.980469,2500.530762 1463.932129,2497.596680 
	C1461.726685,2494.437988 1459.411377,2491.347168 1457.305054,2488.192383 
	C1454.311279,2483.708496 1451.888306,2476.385010 1443.615112,2477.448975 
	C1442.213013,2477.629150 1440.144531,2475.743896 1439.004395,2474.316895 
	C1433.611450,2467.568359 1430.457642,2460.242432 1433.003540,2451.250000 
	C1433.947998,2447.914062 1433.721191,2444.246094 1434.151123,2439.328125 
	C1430.124756,2440.833252 1427.536133,2441.801025 1425.168213,2442.686279 
	C1420.145752,2432.645752 1424.922241,2424.234131 1430.510986,2414.814453 
	C1438.647217,2406.102295 1446.851929,2399.028564 1453.196411,2390.561279 
	C1462.148193,2378.614746 1470.006714,2365.810059 1477.812134,2353.053711 
	C1486.492065,2338.867432 1495.699707,2324.841064 1502.685913,2309.818604 
	C1514.187256,2285.087402 1524.262695,2259.683105 1534.593994,2234.421631 
	C1540.879883,2219.051514 1548.446411,2203.854980 1552.092285,2187.820068 
	C1563.934937,2135.733643 1580.196167,2085.018799 1600.751343,2035.955811 
	C1618.726318,1993.050903 1638.714966,1950.898926 1664.846802,1911.910767 
	C1681.638794,1886.857178 1698.708374,1861.878418 1708.788574,1832.739136 
	C1722.051758,1794.398193 1737.049927,1756.654785 1751.488770,1718.725586 
	C1754.430420,1710.998169 1756.926514,1702.574829 1761.916870,1696.289673 
	C1767.864868,1688.798462 1770.613037,1680.859619 1771.865479,1671.880615 
	C1772.232544,1669.248901 1772.428101,1666.549927 1773.182739,1664.025391 
	C1774.464600,1659.737183 1773.829468,1656.105103 1770.345703,1653.215698 
	C1766.625854,1650.130615 1765.845825,1646.135376 1766.098511,1641.571655 
	C1766.300659,1637.921509 1766.045654,1634.245972 1766.856201,1630.419189 
	C1780.641602,1629.471680 1793.561890,1628.638672 1806.488281,1627.918091 
	C1816.275513,1627.372437 1825.361572,1629.027100 1834.294922,1633.851318 
	C1844.471924,1639.347168 1854.926514,1639.805664 1864.979980,1631.715088 
	C1870.044800,1627.638916 1876.297729,1623.805054 1882.529785,1622.651978 
	C1899.132080,1619.580078 1915.986084,1617.748291 1932.799316,1615.992188 
	C1939.726807,1615.268677 1945.759644,1613.779419 1950.444946,1608.245728 
	C1955.603271,1602.153076 1961.861328,1596.821411 1966.115967,1590.181519 
	C1970.342407,1583.585449 1974.602295,1575.964111 1975.338989,1568.448608 
	C1976.220581,1559.454346 1978.848022,1552.932373 1985.590576,1547.037476 
	C1991.833984,1541.578857 1994.787354,1534.323120 1992.359009,1525.561157 
	C1988.601929,1512.005493 1990.418457,1498.517822 1994.174805,1485.332031 
	C1996.546509,1477.006714 1999.896484,1469.160889 2008.953003,1465.223755 
	C2013.742676,1463.141479 2018.750122,1460.286865 2022.114380,1456.432495 
	C2033.264771,1443.658447 2043.936890,1430.421631 2050.479004,1414.473022 
z"/>

<path 
	data-name="Buea"
fill="#62FA5C" opacity="1.000000" stroke="none" 
	d="
M214.102234,2579.899170 
	C213.459259,2579.800537 213.090622,2579.445557 212.721939,2579.090576 
	C213.222641,2578.928955 213.723373,2578.767578 214.564697,2578.857422 
	C214.905304,2579.108643 214.376541,2579.642578 214.102234,2579.899170 
z"/>
<path 
	data-name="Kumba I"
fill="#6B5DE8" opacity="1.000000" stroke="none" 
	d="
M1765.993652,1630.581787 
	C1766.045654,1634.245972 1766.300659,1637.921509 1766.098511,1641.571655 
	C1765.845825,1646.135376 1766.625854,1650.130615 1770.345703,1653.215698 
	C1773.829468,1656.105103 1774.464600,1659.737183 1773.182739,1664.025391 
	C1772.428101,1666.549927 1772.232544,1669.248901 1771.865479,1671.880615 
	C1770.613037,1680.859619 1767.864868,1688.798462 1761.916870,1696.289673 
	C1756.926514,1702.574829 1754.430420,1710.998169 1751.488770,1718.725586 
	C1737.049927,1756.654785 1722.051758,1794.398193 1708.788574,1832.739136 
	C1698.708374,1861.878418 1681.638794,1886.857178 1664.846802,1911.910767 
	C1638.714966,1950.898926 1618.726318,1993.050903 1600.751343,2035.955811 
	C1580.196167,2085.018799 1563.934937,2135.733643 1552.092285,2187.820068 
	C1548.446411,2203.854980 1540.879883,2219.051514 1534.593994,2234.421631 
	C1524.262695,2259.683105 1514.187256,2285.087402 1502.685913,2309.818604 
	C1495.699707,2324.841064 1486.492065,2338.867432 1477.812134,2353.053711 
	C1470.006714,2365.810059 1462.148193,2378.614746 1453.196411,2390.561279 
	C1446.851929,2399.028564 1438.647217,2406.102295 1430.672852,2414.136719 
	C1427.956177,2411.309570 1424.385742,2408.420898 1428.104858,2404.143555 
	C1425.462524,2394.023193 1426.707642,2382.847656 1419.714600,2373.876709 
	C1418.645264,2372.504883 1418.119507,2370.408691 1418.036743,2368.615723 
	C1417.347534,2353.669434 1412.807983,2350.341797 1397.718994,2353.876953 
	C1396.814331,2354.088867 1395.816772,2353.904297 1395.408569,2353.904297 
	C1392.093628,2347.877441 1388.876343,2342.231689 1385.868774,2336.476318 
	C1384.315674,2333.504395 1383.931396,2330.684326 1385.398560,2327.081543 
	C1388.140015,2320.349854 1385.856445,2316.544922 1378.773926,2316.549072 
	C1371.978027,2316.553223 1366.794800,2314.138916 1361.493652,2310.344482 
	C1353.380859,2304.537354 1344.057007,2305.103027 1334.770874,2306.823975 
	C1333.518799,2307.055908 1332.162598,2308.288086 1331.151001,2308.003662 
	C1324.260986,2306.064453 1317.212158,2304.367432 1310.743896,2301.427246 
	C1308.499634,2300.407227 1306.423340,2296.004639 1306.579834,2293.279785 
	C1307.051880,2285.062256 1302.123901,2281.385010 1295.695068,2280.103027 
	C1286.358276,2278.241211 1279.687866,2272.997559 1272.991821,2266.801270 
	C1269.297974,2263.383057 1264.168701,2260.439209 1259.286865,2259.595703 
	C1247.322876,2257.528809 1236.141235,2252.770264 1223.952515,2251.044189 
	C1214.646606,2249.726074 1204.348022,2249.281494 1195.652954,2243.170654 
	C1192.519653,2240.968506 1186.548706,2241.615234 1182.221924,2242.560303 
	C1174.477783,2244.251709 1166.720581,2246.529541 1159.493042,2249.741943 
	C1153.261475,2252.511230 1147.538452,2256.622070 1142.003662,2260.700439 
	C1137.484863,2264.030273 1133.576172,2268.187988 1128.803467,2272.338867 
	C1117.187256,2271.755371 1106.303345,2272.058594 1095.623291,2275.504150 
	C1091.203979,2276.930176 1086.354126,2277.148926 1082.073120,2278.853516 
	C1067.114868,2284.809814 1051.963989,2282.027832 1038.076660,2277.238037 
	C1028.580200,2273.962646 1019.644043,2266.337891 1012.815674,2258.581299 
	C994.964294,2238.302979 987.016907,2212.731445 981.191650,2187.178223 
	C978.105469,2173.640137 980.130005,2158.690430 981.331360,2144.503662 
	C982.215576,2134.060547 985.505920,2123.821289 987.819092,2113.048584 
	C981.915833,2111.068359 976.627075,2109.294434 970.154236,2107.123291 
	C972.606750,2101.127197 973.593262,2094.028564 977.651733,2090.116943 
	C981.676086,2086.238281 988.794983,2085.570312 995.283691,2083.232178 
	C994.811584,2079.733398 994.937683,2075.656494 993.635498,2072.103027 
	C991.226685,2065.530273 993.604431,2060.668945 997.483582,2055.699951 
	C1002.195862,2049.663330 1006.699158,2043.444946 1010.966919,2037.086426 
	C1013.390625,2033.475098 1016.024414,2031.009277 1020.676697,2031.713623 
	C1026.794067,2032.639771 1029.732788,2028.984619 1032.087646,2023.286499 
	C1029.838135,2021.194336 1027.267700,2019.164795 1025.148560,2016.740601 
	C1022.587158,2013.810547 1019.459106,2010.865601 1018.276794,2007.354614 
	C1016.301453,2001.488770 1012.917236,1997.533081 1007.417542,1995.177368 
	C1002.253174,1992.965454 999.735718,1989.250122 999.873169,1983.515259 
	C999.935913,1980.896729 999.352417,1978.213501 998.731079,1975.639526 
	C997.788879,1971.736206 998.520081,1968.657471 1001.483215,1965.689819 
	C1003.461487,1963.708252 1005.686951,1960.860718 1005.799011,1958.312622 
	C1006.437561,1943.797119 1015.108459,1935.763184 1027.322632,1930.518921 
	C1032.367554,1928.352905 1036.004761,1925.674194 1035.170776,1919.170166 
	C1030.607422,1916.745605 1023.499878,1918.115723 1021.239746,1910.173584 
	C1023.518677,1907.042236 1026.204712,1903.351318 1029.182739,1899.259399 
	C1027.705322,1895.668457 1026.209717,1892.033447 1024.429321,1887.706421 
	C1026.553223,1883.591675 1026.983032,1877.287109 1033.048828,1875.941895 
	C1040.678955,1874.250000 1048.072144,1869.333496 1057.171021,1872.283569 
	C1054.330688,1877.605713 1052.007446,1881.958862 1048.687012,1888.180420 
	C1051.309937,1890.273682 1054.059326,1892.467896 1057.201538,1894.975586 
	C1064.677856,1891.616211 1071.883667,1888.378296 1079.781128,1884.829590 
	C1083.008179,1889.427490 1085.969482,1893.646973 1089.467163,1898.630615 
	C1094.546753,1891.591064 1100.852661,1888.000488 1109.349609,1889.632324 
	C1110.743286,1885.696777 1111.942139,1882.311401 1113.341431,1878.360107 
	C1119.320923,1879.150146 1125.383911,1880.591919 1131.343628,1877.198853 
	C1132.839844,1876.346924 1136.089966,1878.575806 1138.453003,1879.361694 
	C1146.615479,1870.381348 1151.809570,1867.322876 1166.295776,1879.662842 
	C1170.033691,1875.623047 1173.128906,1870.415771 1177.705322,1867.849243 
	C1182.403931,1865.213989 1188.811768,1865.826782 1193.990601,1863.793091 
	C1199.500854,1861.629395 1204.671265,1858.352173 1209.567871,1854.953125 
	C1213.456909,1852.253784 1212.718506,1847.918335 1211.456543,1843.978638 
	C1210.270264,1840.275757 1208.816772,1836.658447 1207.012939,1831.723389 
	C1211.845703,1830.693115 1215.542725,1829.904907 1219.730103,1829.012207 
	C1220.722656,1827.458008 1222.094360,1825.581909 1223.174927,1823.550903 
	C1224.625977,1820.823730 1226.043091,1817.221313 1222.707397,1815.634521 
	C1220.228760,1814.455444 1216.217896,1814.696533 1213.690918,1815.937256 
	C1211.280029,1817.120850 1209.906250,1820.416748 1207.567139,1823.442993 
	C1202.373291,1818.848389 1198.018433,1815.718506 1194.594849,1811.779175 
	C1190.569336,1807.147827 1186.274658,1806.767456 1181.243408,1809.157349 
	C1177.645386,1810.866455 1174.248413,1813.012451 1170.609619,1814.618774 
	C1164.624756,1817.260620 1161.535034,1816.209839 1158.336914,1810.547363 
	C1155.397339,1805.342773 1152.673340,1800.016235 1149.742065,1794.533325 
	C1152.169312,1789.703003 1155.134277,1788.264648 1160.031006,1791.386353 
	C1162.116211,1792.715454 1164.903198,1793.667603 1167.330200,1793.584839 
	C1172.289429,1793.415649 1174.607666,1790.413574 1173.704590,1785.601562 
	C1173.162109,1782.711182 1172.206665,1779.628174 1170.536499,1777.268921 
	C1164.966187,1769.400269 1159.025269,1761.791504 1153.124634,1754.161865 
	C1152.357788,1753.170410 1151.076050,1752.171631 1149.896729,1751.969360 
	C1140.619629,1750.378174 1138.963257,1743.615234 1138.873169,1734.661499 
	C1142.264282,1733.011963 1146.299438,1731.049072 1151.221069,1728.655029 
	C1146.521240,1724.362061 1141.836304,1720.848022 1138.145020,1716.492065 
	C1134.580933,1712.286133 1132.041504,1707.211914 1128.779297,1702.091431 
	C1122.467285,1707.985107 1118.692261,1718.635376 1106.513916,1713.065552 
	C1105.693970,1710.544678 1104.689331,1707.455566 1103.535156,1703.906738 
	C1096.669312,1703.609497 1090.735596,1704.197510 1088.739868,1711.626099 
	C1079.908447,1713.008545 1076.722778,1708.171143 1075.038696,1700.203491 
	C1079.093384,1696.646118 1083.513672,1692.767944 1088.189819,1688.665283 
	C1086.754517,1685.446777 1084.896484,1682.582031 1084.237305,1679.463867 
	C1083.458252,1675.777710 1082.370483,1671.945190 1087.707031,1669.465942 
	C1092.219727,1667.369507 1093.199463,1659.150757 1089.401001,1655.770264 
	C1084.178223,1651.122070 1079.542236,1644.743408 1070.513184,1647.387329 
	C1063.686890,1649.386230 1061.902344,1642.753784 1058.483276,1638.811035 
	C1060.866089,1632.853149 1063.195557,1627.028687 1065.790771,1620.519531 
	C1079.143799,1624.606445 1092.272949,1629.267456 1105.301758,1634.193970 
	C1112.241577,1636.818115 1118.773804,1636.867920 1125.493286,1633.378296 
	C1132.609009,1629.682861 1139.935547,1627.604370 1148.284424,1629.864624 
	C1158.775391,1632.705200 1169.505371,1634.674561 1180.156128,1636.905151 
	C1183.049805,1637.511108 1186.028564,1638.021973 1188.970703,1638.035645 
	C1209.618530,1638.132202 1230.267456,1638.146729 1250.915039,1638.025635 
	C1254.180786,1638.006470 1257.520996,1637.478760 1260.691895,1636.661987 
	C1279.637329,1631.782715 1298.453003,1626.367554 1317.487427,1621.874878 
	C1336.942383,1617.282837 1354.436035,1608.601807 1369.895020,1596.437622 
	C1383.957153,1585.372681 1397.150513,1573.102783 1409.954346,1560.574463 
	C1418.704956,1552.012329 1425.909912,1541.893066 1434.214844,1532.845337 
	C1440.913086,1525.547729 1447.582031,1517.969116 1455.405640,1512.015259 
	C1468.582520,1501.987549 1478.641724,1489.324341 1489.996460,1476.552490 
	C1506.925537,1484.481689 1522.564697,1492.568604 1538.358765,1500.340210 
	C1543.903442,1503.068359 1548.186157,1506.836304 1551.811401,1511.787354 
	C1561.228760,1524.649048 1571.091064,1537.187622 1580.379517,1550.139404 
	C1583.825928,1554.945190 1587.992554,1558.176880 1593.267700,1560.596191 
	C1604.736450,1565.855591 1616.109253,1571.333740 1627.416260,1576.934570 
	C1661.343384,1593.739868 1695.280762,1610.526733 1729.060791,1627.624268 
	C1735.245850,1630.754639 1741.344849,1632.268066 1748.153809,1631.695923 
	C1754.089722,1631.197388 1760.046265,1630.943726 1765.993652,1630.581787 
z"/>
<path 
	data-name="Kumba II"
fill="#F25E7A" opacity="1.000000" stroke="none" 
	d="
M1766.856201,1630.419189 
	C1760.046265,1630.943726 1754.089722,1631.197388 1748.153809,1631.695923 
	C1741.344849,1632.268066 1735.245850,1630.754639 1729.060791,1627.624268 
	C1695.280762,1610.526733 1661.343384,1593.739868 1627.416260,1576.934570 
	C1616.109253,1571.333740 1604.736450,1565.855591 1593.267700,1560.596191 
	C1587.992554,1558.176880 1583.825928,1554.945190 1580.379517,1550.139404 
	C1571.091064,1537.187622 1561.228760,1524.649048 1551.811401,1511.787354 
	C1548.186157,1506.836304 1543.903442,1503.068359 1538.358765,1500.340210 
	C1522.564697,1492.568604 1506.925537,1484.481689 1490.581909,1476.225586 
	C1491.436768,1473.356934 1492.659058,1470.565674 1494.477905,1468.241089 
	C1506.953125,1452.297729 1515.323975,1434.286011 1521.193115,1415.072754 
	C1523.607178,1407.170044 1528.038330,1401.339966 1534.271240,1395.778809 
	C1554.436890,1377.786621 1576.149170,1361.877197 1597.789307,1345.796875 
	C1605.202271,1340.288452 1611.259277,1332.978516 1618.088867,1326.656982 
	C1634.071045,1311.863770 1646.853638,1294.688232 1658.787231,1276.458008 
	C1672.422363,1255.628174 1688.233276,1236.222290 1703.108887,1216.205200 
	C1705.093628,1213.534424 1707.156616,1210.921997 1709.150146,1208.257690 
	C1720.178345,1193.519043 1719.829224,1193.560913 1717.535522,1175.763306 
	C1715.883911,1162.948120 1714.585693,1150.004639 1714.396606,1137.099854 
	C1713.947998,1106.474487 1714.378662,1075.837036 1714.143921,1045.206909 
	C1714.097778,1039.185059 1715.170898,1034.297974 1719.819946,1030.090820 
	C1729.760376,1021.095215 1738.152954,1010.960632 1743.034790,998.131470 
	C1744.074829,995.398254 1747.270142,993.044495 1750.020752,991.479675 
	C1761.583862,984.901123 1773.290283,978.563293 1785.096924,972.431335 
	C1787.939331,970.955139 1791.330688,970.039246 1794.530884,969.837219 
	C1806.479614,969.082703 1818.453857,968.731934 1831.317627,968.078735 
	C1838.528076,970.659546 1844.839355,973.391296 1853.068237,976.953186 
	C1859.067627,977.041321 1867.208374,967.044617 1875.222900,976.374084 
	C1875.622314,981.518005 1875.996094,986.331543 1876.321045,990.516174 
	C1880.834106,992.691650 1884.587036,994.500732 1889.034058,996.644409 
	C1890.077515,994.456482 1891.427368,991.626160 1892.813599,988.719482 
	C1901.844360,987.669556 1910.438354,989.117065 1919.294434,991.348389 
	C1928.165527,993.583435 1937.626709,993.918396 1946.851807,994.138794 
	C1952.185791,994.266235 1955.398071,995.577637 1957.707520,1000.607788 
	C1960.747314,1007.228394 1964.917725,1013.065369 1972.380371,1015.794373 
	C1974.147339,1016.440552 1975.607056,1018.780396 1976.543335,1020.670471 
	C1978.604370,1024.830811 1980.170654,1029.232910 1982.068237,1033.478516 
	C1984.884766,1039.779541 1989.279297,1041.681763 1995.799316,1039.188965 
	C1998.571045,1038.129150 2000.963867,1036.013428 2003.765259,1035.111450 
	C2007.748413,1033.828979 2011.923950,1033.071533 2016.064209,1032.366455 
	C2021.222412,1031.487915 2023.651123,1035.179565 2026.503296,1038.569336 
	C2027.660156,1039.943970 2030.284668,1040.445068 2032.312866,1040.656006 
	C2037.949097,1041.242310 2040.048096,1043.179443 2039.620850,1048.748169 
	C2038.996704,1056.885376 2035.040039,1063.109009 2027.815552,1067.741943 
	C2021.229980,1065.003906 2014.519531,1061.565430 2006.953369,1065.139648 
	C2008.461182,1071.770020 2009.944824,1078.294312 2011.588623,1085.522583 
	C2023.389771,1090.206909 2029.381348,1100.328369 2032.694702,1112.836670 
	C2034.506714,1119.678101 2034.625244,1125.342773 2026.653931,1128.751831 
	C2031.236084,1140.164673 2026.171387,1149.013916 2018.673828,1156.498657 
	C2012.716919,1162.445435 2008.244019,1168.277832 2009.548706,1177.319336 
	C2010.150024,1181.487549 2008.159546,1184.790771 2003.930542,1186.874634 
	C1997.505981,1190.040527 1991.291870,1193.662598 1985.156982,1197.370117 
	C1983.279297,1198.504761 1981.769043,1200.417847 1980.433228,1202.227295 
	C1979.271729,1203.800781 1979.062500,1206.497925 1977.624634,1207.377075 
	C1969.410645,1212.398926 1969.085571,1220.126587 1969.629272,1228.365967 
	C1969.735352,1229.973877 1969.675293,1231.923706 1968.875244,1233.206177 
	C1964.120605,1240.827026 1966.273071,1247.682617 1970.444336,1254.674805 
	C1974.171631,1260.922729 1977.554932,1267.388916 1980.803467,1273.901855 
	C1981.794556,1275.888550 1982.565918,1278.482666 1982.183350,1280.568481 
	C1980.703491,1288.636108 1979.183838,1296.756714 1976.740723,1304.563965 
	C1975.324463,1309.089722 1975.151978,1313.041748 1975.369507,1317.811279 
	C1975.846069,1328.260864 1974.034790,1338.820190 1973.059204,1349.325562 
	C1972.877686,1351.281494 1971.391846,1353.486450 1971.943848,1355.078735 
	C1974.935547,1363.709351 1972.787354,1372.181641 1971.611938,1380.656616 
	C1971.083618,1384.465332 1969.991211,1388.257446 1968.670288,1391.880249 
	C1966.656616,1397.402954 1967.568970,1400.495239 1972.049927,1404.957520 
	C1978.402710,1411.283813 1986.434326,1412.749023 1994.742554,1413.655518 
	C1998.043091,1414.015625 2001.382935,1414.009033 2004.686646,1414.346680 
	C2011.576416,1415.050537 2018.208740,1416.042358 2024.321167,1420.146118 
	C2030.442871,1424.256104 2030.379639,1423.206177 2036.841797,1417.567017 
	C2039.621338,1415.141357 2044.699463,1415.349854 2049.606201,1414.417358 
	C2043.936890,1430.421631 2033.264771,1443.658447 2022.114380,1456.432495 
	C2018.750122,1460.286865 2013.742676,1463.141479 2008.953003,1465.223755 
	C1999.896484,1469.160889 1996.546509,1477.006714 1994.174805,1485.332031 
	C1990.418457,1498.517822 1988.601929,1512.005493 1992.359009,1525.561157 
	C1994.787354,1534.323120 1991.833984,1541.578857 1985.590576,1547.037476 
	C1978.848022,1552.932373 1976.220581,1559.454346 1975.338989,1568.448608 
	C1974.602295,1575.964111 1970.342407,1583.585449 1966.115967,1590.181519 
	C1961.861328,1596.821411 1955.603271,1602.153076 1950.444946,1608.245728 
	C1945.759644,1613.779419 1939.726807,1615.268677 1932.799316,1615.992188 
	C1915.986084,1617.748291 1899.132080,1619.580078 1882.529785,1622.651978 
	C1876.297729,1623.805054 1870.044800,1627.638916 1864.979980,1631.715088 
	C1854.926514,1639.805664 1844.471924,1639.347168 1834.294922,1633.851318 
	C1825.361572,1629.027100 1816.275513,1627.372437 1806.488281,1627.918091 
	C1793.561890,1628.638672 1780.641602,1629.471680 1766.856201,1630.419189 
z"/>
</svg>