<svg version="1.1" id="Layer_1" xmlns="http://www.w3.org/2000/svg" xmlns:xlink="http://www.w3.org/1999/xlink" x="0px" y="0px"
	 width="100%" viewBox="0 0 2318 2989" enable-background="new 0 0 2318 2989" xml:space="preserve">

<path 
	data-name="Mbengwi"
fill="#BF6384" opacity="1.000000" stroke="none" 
	d="
M2320.000000,1946.000000 
	C2320.000000,1950.741089 2320.000000,1955.482300 2319.290527,1960.659668 
	C2315.348877,1964.629272 2312.455078,1968.379395 2314.415771,1973.538086 
	C2318.848145,1985.199951 2314.968262,1996.312134 2312.780762,2008.811890 
	C2304.043213,2005.667725 2295.878662,2003.072876 2287.999756,1999.791748 
	C2281.028809,1996.888794 2274.425537,1996.185791 2266.817139,1997.806030 
	C2235.024414,2004.576416 2202.615967,2008.886475 2172.677002,2022.623901 
	C2169.115967,2024.257935 2165.500000,2026.049316 2162.435059,2028.441406 
	C2148.282959,2039.486938 2134.145508,2050.565430 2120.354980,2062.054443 
	C2113.275391,2067.952637 2105.838379,2071.931396 2096.525879,2073.249512 
	C2078.464111,2075.805908 2060.519531,2079.192139 2041.754639,2082.068359 
	C1985.690186,2063.947998 1930.381958,2046.041138 1875.134399,2027.949219 
	C1870.751099,2026.513916 1866.889648,2026.640869 1862.633789,2028.028076 
	C1852.230591,2031.419067 1841.770752,2034.649414 1831.266479,2037.714600 
	C1801.950439,2046.268921 1772.500732,2054.381836 1743.307251,2063.332275 
	C1729.368286,2067.605957 1715.455078,2069.022705 1701.061035,2067.646729 
	C1679.935669,2065.626709 1658.788574,2063.833740 1637.659424,2061.852539 
	C1623.129028,2060.490479 1608.510986,2059.597900 1594.135498,2057.250244 
	C1587.365112,2056.144531 1581.935059,2057.069580 1576.088257,2060.065430 
	C1557.141479,2069.773926 1538.056885,2079.215088 1518.973633,2088.654053 
	C1515.728760,2090.259033 1512.228394,2091.347412 1508.542480,2091.830566 
	C1507.567383,2088.070557 1506.629150,2085.186523 1506.266968,2082.232178 
	C1503.415649,2058.971191 1497.899170,2036.491455 1487.034302,2015.553589 
	C1479.814087,2001.639160 1476.710938,1986.967041 1478.173584,1971.274048 
	C1479.064697,1961.713867 1478.090820,1951.793457 1480.255615,1942.575317 
	C1485.422119,1920.574341 1490.712891,1898.631714 1493.511475,1876.183716 
	C1494.535767,1867.967896 1495.716675,1859.646973 1495.446411,1851.419312 
	C1494.802734,1831.828613 1492.686523,1812.275879 1492.360352,1792.687744 
	C1491.911865,1765.742432 1492.100342,1738.848755 1486.421509,1712.268433 
	C1484.701538,1704.218140 1483.052490,1695.457031 1484.474243,1687.581665 
	C1487.114380,1672.958984 1490.368042,1658.344360 1496.537720,1644.497314 
	C1502.610352,1630.868286 1508.352173,1616.942749 1512.530518,1602.647949 
	C1523.650024,1564.606201 1532.058838,1526.181152 1530.205688,1485.936279 
	C1529.492310,1470.442139 1526.100342,1455.787109 1523.513794,1440.769897 
	C1520.818848,1425.123169 1519.468384,1409.208008 1518.297607,1393.353394 
	C1517.815918,1386.829834 1519.339722,1380.158081 1520.284912,1372.944092 
	C1527.330444,1355.677734 1534.373169,1339.145264 1540.678589,1322.336060 
	C1550.477417,1296.213501 1562.832642,1271.016113 1569.211548,1243.634521 
	C1570.328979,1238.838135 1572.118896,1234.061035 1574.405762,1229.698364 
	C1584.402344,1210.628174 1589.740356,1189.960693 1594.036011,1169.187744 
	C1597.382935,1153.002197 1597.746948,1136.222534 1600.151245,1119.811646 
	C1601.819946,1108.421997 1601.681519,1096.745728 1607.266846,1085.928223 
	C1619.939087,1061.385010 1631.954224,1036.501099 1644.074951,1011.676758 
	C1645.339722,1009.086365 1646.045654,1005.982300 1646.124878,1003.092285 
	C1646.690186,982.453247 1645.806396,962.058960 1641.102295,941.682129 
	C1633.238892,907.620239 1628.701538,873.031067 1630.047852,837.902405 
	C1630.149902,835.240295 1630.338379,832.550842 1630.092285,829.910889 
	C1628.413574,811.911621 1633.299438,794.955261 1638.262939,778.024170 
	C1641.068970,768.451843 1644.597534,759.067200 1646.932861,749.388672 
	C1648.703613,742.049805 1649.883911,734.385864 1649.939819,726.856323 
	C1650.035889,713.914429 1649.050171,700.964478 1649.284912,687.817261 
	C1656.878540,685.855713 1663.645996,684.645569 1670.532593,687.640503 
	C1682.361450,692.784790 1693.805542,689.228943 1705.333374,686.025696 
	C1710.021362,684.723022 1714.988525,683.771240 1719.824341,683.789978 
	C1729.731689,683.828369 1739.644897,685.162231 1749.539795,684.997681 
	C1765.789795,684.727478 1773.183105,689.799866 1775.839844,705.409973 
	C1776.967651,712.036743 1779.741211,717.179993 1784.446899,721.763367 
	C1802.101196,738.958984 1819.718506,756.195435 1837.106934,773.658203 
	C1840.021851,776.585510 1842.339600,780.466614 1843.894409,784.325623 
	C1850.177979,799.920715 1853.413452,816.119385 1851.654419,833.013977 
	C1850.714111,842.044250 1854.004028,848.854492 1860.548584,855.107544 
	C1880.526978,874.195801 1900.226929,893.582092 1919.734863,913.151855 
	C1925.072998,918.507080 1929.410156,924.871826 1934.107422,930.851318 
	C1939.214844,937.353027 1943.957275,944.157959 1949.313721,950.443176 
	C1955.561890,957.774902 1962.264038,964.722961 1968.837524,971.773743 
	C1980.178345,983.937744 1991.142822,996.496826 2003.092529,1008.033325 
	C2011.153931,1015.815796 2020.135620,1023.219421 2031.806152,1025.069702 
	C2040.304321,1026.416992 2048.951904,1027.172363 2057.555908,1027.432495 
	C2079.559082,1028.097656 2095.058350,1038.963623 2105.955566,1057.354248 
	C2108.496094,1061.641235 2110.610596,1066.178345 2113.031494,1070.539062 
	C2117.088379,1077.846802 2120.502686,1085.046387 2119.946289,1094.006836 
	C2119.470459,1101.666260 2121.164551,1109.290161 2129.594238,1113.140137 
	C2131.232178,1113.888184 2133.209229,1115.869385 2133.406494,1117.480591 
	C2134.883057,1129.538940 2136.090576,1141.635986 2137.062012,1153.746582 
	C2137.349609,1157.331055 2136.177979,1161.039185 2136.519531,1164.609985 
	C2136.698975,1166.486084 2138.295898,1169.003052 2139.952393,1169.831787 
	C2148.777100,1174.247192 2151.410889,1182.075317 2152.249268,1190.935547 
	C2152.585205,1194.485718 2152.304443,1198.094238 2152.304443,1202.789917 
	C2158.971924,1204.468750 2164.976318,1207.159668 2171.012939,1207.234497 
	C2180.983643,1207.358154 2189.863770,1210.201294 2198.787354,1214.061646 
	C2205.475830,1216.954834 2212.670410,1218.674927 2219.372559,1221.541382 
	C2224.455566,1223.715454 2230.505371,1225.771729 2233.702637,1229.802124 
	C2242.750732,1241.207764 2249.866943,1253.729980 2242.279785,1269.102051 
	C2241.554443,1270.571899 2241.106934,1272.248413 2240.873535,1273.878052 
	C2240.191406,1278.640625 2237.869141,1281.281250 2232.976562,1282.775879 
	C2226.803223,1284.661621 2222.020508,1292.340332 2222.740723,1298.139771 
	C2222.912598,1299.523926 2225.012695,1301.363281 2226.516602,1301.701172 
	C2228.171875,1302.073242 2230.161621,1300.955566 2232.526123,1300.354614 
	C2233.520996,1303.143433 2234.361572,1305.498901 2235.121094,1307.627686 
	C2229.014893,1312.048950 2223.589844,1316.201782 2217.934082,1320.012817 
	C2211.613037,1324.272339 2210.865234,1324.823608 2214.213379,1332.108276 
	C2216.636230,1337.379761 2216.186035,1342.046021 2213.123535,1346.097412 
	C2211.357422,1348.433838 2207.661377,1349.311279 2204.651611,1350.944458 
	C2204.510986,1353.765381 2205.093506,1356.706177 2204.124023,1358.987305 
	C2200.009033,1368.668823 2203.561279,1375.481323 2211.516113,1380.903931 
	C2213.316650,1382.131348 2215.213379,1383.287476 2217.208252,1384.144775 
	C2220.796875,1385.686890 2224.493164,1386.978027 2228.426025,1388.481689 
	C2223.324219,1398.985352 2218.652344,1408.806885 2213.782715,1418.529297 
	C2211.868408,1422.350952 2212.442383,1425.480347 2213.530518,1429.679321 
	C2214.982910,1435.284790 2220.554688,1437.201782 2221.838379,1440.797241 
	C2218.788574,1446.116699 2215.111816,1450.095581 2214.258789,1454.608398 
	C2213.083252,1460.826782 2205.192383,1458.884399 2204.173828,1465.090454 
	C2208.484619,1469.578979 2213.895508,1474.532837 2205.954102,1480.377197 
	C2210.452148,1483.028076 2214.358398,1485.394409 2218.325439,1487.653564 
	C2225.125732,1491.526123 2226.051270,1492.834473 2221.212891,1498.781616 
	C2213.520264,1508.237061 2215.106689,1517.296265 2219.953613,1527.203125 
	C2224.294678,1519.293457 2224.294678,1519.293457 2228.916748,1523.025635 
	C2226.148193,1527.826294 2223.394775,1532.600708 2220.734375,1537.213745 
	C2214.691162,1537.243164 2211.355957,1535.307617 2211.527344,1529.064209 
	C2211.599854,1526.411011 2210.599121,1523.704224 2205.933838,1524.269653 
	C2206.395996,1528.754028 2206.855225,1533.211792 2207.332764,1537.845581 
	C2202.830566,1540.329346 2198.546143,1542.692993 2193.801025,1545.310547 
	C2195.960449,1557.584839 2188.036133,1558.938477 2177.799072,1558.104126 
	C2178.687500,1564.514526 2179.427979,1569.857300 2180.109375,1574.773926 
	C2184.256836,1575.909424 2186.996338,1576.659424 2189.608887,1577.374756 
	C2188.919189,1581.611938 2188.324707,1585.265503 2188.049316,1586.957031 
	C2192.311035,1589.504272 2194.543701,1591.214966 2197.057373,1592.228516 
	C2199.288086,1593.128052 2203.239746,1592.537964 2203.921875,1593.880615 
	C2205.087646,1596.174561 2204.295410,1599.466064 2204.316406,1602.338501 
	C2204.335938,1604.992798 2203.779541,1607.801758 2204.457764,1610.273438 
	C2206.826904,1618.908569 2206.132812,1627.667725 2206.253418,1636.415527 
	C2206.282715,1638.548340 2207.060547,1640.670654 2207.611816,1643.374634 
	C2210.990967,1641.170532 2213.593506,1639.473145 2215.971924,1637.921753 
	C2222.125488,1644.590088 2227.766602,1650.703369 2234.393311,1657.884888 
	C2230.250977,1658.455566 2227.104004,1658.889160 2223.746338,1659.351685 
	C2234.820801,1681.291748 2232.053223,1681.749634 2259.014160,1704.985718 
	C2252.091553,1705.508301 2246.466064,1705.932983 2240.198730,1706.406250 
	C2240.893066,1709.512451 2240.800049,1712.417236 2242.116699,1714.373413 
	C2246.329590,1720.633057 2243.433350,1725.045410 2238.744385,1729.677002 
	C2241.174316,1730.332275 2243.383057,1730.945557 2245.601318,1731.522949 
	C2253.291992,1733.524048 2254.974365,1737.061035 2252.064697,1744.355469 
	C2251.036621,1746.933228 2250.705566,1749.789062 2250.081299,1752.413208 
	C2253.421875,1753.868042 2255.765381,1754.888550 2258.295898,1756.520996 
	C2259.080566,1757.874512 2259.539551,1758.854126 2260.307861,1759.301392 
	C2261.446533,1759.964233 2262.786621,1760.454712 2264.081055,1760.570801 
	C2264.468750,1760.605591 2265.493896,1758.567749 2265.371582,1758.461182 
	C2264.285889,1757.515503 2263.008301,1756.790405 2261.927246,1755.284424 
	C2264.467041,1749.931030 2266.867188,1745.293457 2269.438965,1740.323975 
	C2271.092773,1740.189331 2273.012451,1740.032959 2275.207031,1739.854126 
	C2276.435303,1743.597412 2277.555420,1747.011719 2278.785156,1750.758911 
	C2281.780762,1750.501831 2284.861572,1750.237427 2288.103516,1749.959229 
	C2287.375000,1747.041016 2286.880127,1745.057861 2285.788330,1740.684204 
	C2291.286133,1743.455566 2294.842285,1745.248291 2298.398438,1747.040894 
	C2297.866455,1747.457397 2297.334717,1747.873901 2296.802979,1748.290405 
	C2299.303955,1756.288086 2301.804932,1764.285889 2304.588623,1773.188232 
	C2285.478271,1785.853394 2284.504639,1803.387207 2292.607910,1822.720825 
	C2291.229980,1824.688721 2289.867188,1826.198242 2288.998047,1827.952515 
	C2285.336670,1835.341431 2287.744873,1840.242432 2295.977051,1841.270752 
	C2299.846191,1841.754028 2303.877686,1840.863770 2307.839844,1840.696777 
	C2310.304932,1840.592773 2312.778320,1840.677490 2315.457764,1840.677490 
	C2315.027344,1856.611084 2314.766357,1871.503906 2314.099121,1886.378540 
	C2313.971680,1889.219482 2311.963379,1891.925659 2311.310059,1894.804565 
	C2310.153076,1899.904663 2308.206299,1905.199219 2308.679199,1910.215332 
	C2309.575684,1919.728149 2312.018555,1929.089478 2313.673584,1938.539307 
	C2314.344238,1942.368896 2315.276611,1945.723999 2320.000000,1946.000000 
z"/>
<path 
	data-name="Batibo"
fill="#F5D287" opacity="1.000000" stroke="none" 
	d="
M1508.846191,2092.674316 
	C1512.228394,2091.347412 1515.728760,2090.259033 1518.973633,2088.654053 
	C1538.056885,2079.215088 1557.141479,2069.773926 1576.088257,2060.065430 
	C1581.935059,2057.069580 1587.365112,2056.144531 1594.135498,2057.250244 
	C1608.510986,2059.597900 1623.129028,2060.490479 1637.659424,2061.852539 
	C1658.788574,2063.833740 1679.935669,2065.626709 1701.061035,2067.646729 
	C1715.455078,2069.022705 1729.368286,2067.605957 1743.307251,2063.332275 
	C1772.500732,2054.381836 1801.950439,2046.268921 1831.266479,2037.714600 
	C1841.770752,2034.649414 1852.230591,2031.419067 1862.633789,2028.028076 
	C1866.889648,2026.640869 1870.751099,2026.513916 1875.134399,2027.949219 
	C1930.381958,2046.041138 1985.690186,2063.947998 2041.693115,2082.916016 
	C2039.496460,2102.242188 2036.591431,2120.554443 2033.681274,2138.866211 
	C2031.250488,2154.161377 2030.273926,2154.977783 2014.212402,2153.557129 
	C1996.051514,2151.951416 1978.990723,2153.856445 1965.374756,2167.793213 
	C1964.223999,2168.970947 1962.752563,2169.838379 1961.417969,2170.833984 
	C1947.283569,2181.378418 1947.285767,2181.376465 1953.537720,2197.471436 
	C1953.776367,2198.085938 1953.799683,2198.782959 1954.025146,2199.404541 
	C1960.597290,2217.514893 1968.271118,2235.051758 1980.837280,2249.973633 
	C1983.538574,2253.181396 1984.653564,2256.586182 1984.474731,2260.882568 
	C1984.299438,2265.092041 1984.464111,2269.641846 1985.874756,2273.537109 
	C1993.337158,2294.144287 1989.227173,2309.934082 1973.072998,2324.382568 
	C1959.651367,2336.386963 1946.399414,2348.792236 1945.411377,2368.708984 
	C1945.390869,2369.124268 1944.587158,2369.500977 1943.741821,2370.262207 
	C1936.296509,2364.205566 1929.478882,2357.750732 1926.440918,2348.072510 
	C1925.585327,2345.346680 1924.316528,2341.723633 1922.157349,2340.614746 
	C1913.460083,2336.147949 1905.239990,2330.891357 1894.026367,2335.226074 
	C1886.075928,2338.299072 1877.333862,2337.286133 1870.575439,2329.265381 
	C1867.137939,2325.186035 1861.425049,2322.861816 1856.469482,2320.261230 
	C1848.779541,2316.226074 1848.681396,2316.413574 1841.922852,2322.314697 
	C1837.152222,2326.480469 1836.188965,2326.453857 1831.145142,2321.988525 
	C1829.900757,2320.886963 1828.595459,2319.839355 1827.458496,2318.634766 
	C1824.357178,2315.348145 1821.155762,2315.271729 1817.873657,2318.248779 
	C1815.699585,2320.220459 1813.072998,2321.979004 1811.627197,2324.413818 
	C1807.579346,2331.230469 1804.059204,2338.359375 1800.272095,2345.333252 
	C1799.844238,2346.121338 1799.043335,2346.706787 1798.032349,2347.800781 
	C1795.617188,2345.928467 1793.373901,2344.189209 1791.898315,2343.045410 
	C1787.268311,2344.220215 1783.532593,2345.504883 1779.691162,2346.068604 
	C1772.860718,2347.070557 1772.528931,2347.083740 1772.367310,2353.916992 
	C1772.211792,2360.489502 1772.333618,2367.068604 1772.333618,2373.839600 
	C1765.746216,2376.199707 1759.909912,2378.290771 1754.401855,2380.264160 
	C1752.663086,2393.848145 1755.279907,2400.741211 1764.251465,2410.697998 
	C1771.606445,2418.860352 1777.477661,2428.031006 1779.789917,2439.189941 
	C1782.807007,2453.749512 1795.030396,2459.339600 1806.063843,2459.056152 
	C1811.986694,2458.904053 1816.458374,2459.864502 1820.014893,2464.335693 
	C1825.803589,2471.613037 1833.003662,2471.301514 1840.716919,2468.457275 
	C1843.207275,2467.538818 1845.555420,2466.229004 1848.054443,2465.340088 
	C1857.069214,2462.132568 1859.415283,2463.359619 1860.229614,2473.001221 
	C1861.065308,2482.897217 1864.955322,2491.028076 1872.802368,2496.850342 
	C1876.988281,2499.956055 1881.876709,2502.337891 1886.765503,2504.223145 
	C1894.780151,2507.313477 1903.053467,2509.733154 1909.699341,2511.933105 
	C1915.222290,2520.082031 1919.932495,2527.246338 1924.874146,2534.247070 
	C1928.129395,2538.859131 1931.614380,2543.320801 1935.193481,2547.688232 
	C1937.633911,2550.666016 1938.343262,2553.596924 1938.155029,2557.634277 
	C1937.582031,2569.926514 1937.545410,2582.276367 1938.070801,2594.571045 
	C1938.286865,2599.628418 1937.588745,2603.947021 1934.175537,2607.420410 
	C1928.571777,2613.122803 1927.631104,2620.123047 1927.667969,2627.543457 
	C1927.687744,2631.541260 1927.319458,2635.577393 1927.748535,2639.528564 
	C1928.507202,2646.514893 1926.693359,2652.733154 1922.724854,2658.283936 
	C1917.151611,2666.080078 1917.431885,2673.935547 1920.357422,2682.761475 
	C1922.041748,2687.843018 1922.160156,2693.935303 1921.221924,2699.262451 
	C1920.186523,2705.140625 1920.436401,2710.095215 1923.136108,2715.492432 
	C1932.179565,2733.571289 1940.839966,2751.842529 1949.540527,2770.090820 
	C1950.522583,2772.150879 1951.044922,2774.499512 1951.407104,2776.773682 
	C1953.067017,2787.196045 1957.037964,2796.608154 1964.021606,2804.513428 
	C1968.638306,2809.739502 1968.482422,2814.722168 1965.992920,2820.974854 
	C1963.320923,2827.686035 1961.095581,2834.916260 1960.547119,2842.063721 
	C1959.226440,2859.271240 1959.021973,2876.563477 1958.301636,2893.818848 
	C1958.215454,2895.885254 1957.724243,2897.934814 1957.135864,2901.923340 
	C1943.844727,2882.026123 1921.343262,2876.867432 1906.755981,2861.443359 
	C1906.107544,2860.758057 1905.056885,2860.380371 1904.126831,2860.044678 
	C1887.002686,2853.865479 1870.492188,2845.791992 1852.294067,2842.908203 
	C1841.649414,2841.221436 1831.181519,2841.215088 1821.347534,2846.744873 
	C1814.990479,2850.319336 1808.430542,2853.531006 1801.992188,2856.962891 
	C1780.964233,2868.171387 1762.274048,2882.337402 1747.408203,2901.105713 
	C1743.484863,2906.059082 1739.594116,2909.899170 1732.686279,2909.709229 
	C1729.892090,2909.632324 1727.054443,2911.131104 1723.565430,2912.099121 
	C1724.469116,2922.191406 1720.887451,2929.055664 1710.604736,2931.201904 
	C1708.809937,2931.576416 1707.078369,2933.074707 1705.688721,2934.433350 
	C1697.566162,2942.375244 1687.679443,2946.521729 1676.689575,2948.659424 
	C1672.151245,2949.541992 1667.300415,2950.360352 1663.388062,2952.599121 
	C1655.110596,2957.336914 1646.360474,2957.789795 1637.311768,2957.395508 
	C1629.727417,2957.064941 1623.763062,2959.248291 1617.837769,2964.864746 
	C1608.487671,2973.726562 1598.192505,2978.877930 1583.825684,2972.132568 
	C1567.496948,2964.465576 1551.181519,2973.748535 1544.000000,2992.000000 
	C1541.222168,2992.000000 1538.444458,2992.000000 1535.192383,2991.201904 
	C1533.921875,2987.284912 1532.316162,2984.125000 1532.471191,2981.053955 
	C1533.105591,2968.496582 1534.049805,2955.942871 1535.335327,2943.434570 
	C1536.130981,2935.692139 1536.282227,2928.330566 1531.644043,2921.544922 
	C1528.305054,2916.659912 1525.360474,2911.507080 1522.098755,2906.566895 
	C1518.711548,2901.436523 1517.194336,2894.931152 1510.857544,2891.005127 
	C1507.818237,2892.913818 1504.438354,2894.438477 1501.824463,2896.807861 
	C1497.037354,2901.146729 1491.715454,2902.532471 1485.372192,2902.238770 
	C1476.729126,2901.838135 1468.038574,2901.821533 1459.396729,2902.236084 
	C1452.156860,2902.583252 1444.125854,2902.020508 1437.904419,2904.954834 
	C1422.427734,2912.254150 1406.178467,2916.101562 1389.676880,2919.632324 
	C1383.933105,2920.861572 1378.977051,2919.241943 1376.930420,2914.504883 
	C1373.298706,2906.098389 1370.105835,2897.238281 1368.569336,2888.253174 
	C1366.332153,2875.171875 1370.541870,2862.660156 1374.900513,2850.389648 
	C1378.195557,2841.113525 1376.863525,2838.437500 1368.355347,2833.620117 
	C1357.584839,2827.521973 1345.675293,2827.000977 1333.860596,2825.615479 
	C1326.610229,2824.764893 1319.933960,2826.461914 1313.697021,2829.632324 
	C1308.989014,2832.025391 1304.335205,2834.919434 1300.459717,2838.466797 
	C1293.918823,2844.453857 1286.766479,2844.361572 1279.090698,2842.153564 
	C1275.257935,2841.050781 1271.347534,2840.011230 1267.744629,2838.351562 
	C1251.668091,2830.945557 1234.659058,2829.079590 1217.244995,2829.403076 
	C1199.030640,2829.741211 1196.364258,2827.875488 1190.722290,2808.349609 
	C1190.172119,2806.445557 1189.773682,2804.431396 1189.728027,2802.458252 
	C1189.260010,2782.232910 1188.954468,2762.003418 1188.386597,2741.781250 
	C1188.308960,2739.015869 1187.044434,2736.283936 1186.573364,2734.473633 
	C1181.366455,2733.370117 1177.520752,2732.554932 1173.422607,2731.155518 
	C1167.937378,2726.458008 1162.754639,2722.278564 1157.453491,2718.255371 
	C1154.088867,2715.701416 1152.093628,2712.766846 1151.928589,2708.260498 
	C1151.490234,2696.306152 1150.621094,2684.367432 1149.921509,2672.422607 
	C1149.746704,2669.435059 1149.955688,2666.362549 1149.323486,2663.474365 
	C1144.989990,2643.678711 1141.131714,2623.743164 1135.781128,2604.219482 
	C1132.587769,2592.568115 1134.798462,2582.576416 1142.534790,2574.732666 
	C1151.312378,2565.833252 1155.610229,2555.375244 1156.736572,2543.730957 
	C1157.982910,2530.847900 1163.650391,2520.332520 1170.754517,2510.147461 
	C1173.230469,2506.598145 1175.678589,2503.001465 1177.770142,2499.222168 
	C1179.007080,2496.987305 1180.628296,2494.109863 1180.152954,2491.943604 
	C1178.743286,2485.520508 1181.095459,2480.216797 1183.449951,2474.650146 
	C1186.819946,2466.682617 1189.815796,2458.557373 1193.024292,2450.520752 
	C1197.967285,2438.138672 1196.716064,2433.193359 1187.154053,2424.176025 
	C1184.928467,2422.076904 1182.932861,2418.981689 1182.333740,2416.039062 
	C1179.597656,2402.598877 1171.083740,2392.908447 1160.109985,2386.705566 
	C1150.562744,2381.308838 1144.376587,2374.138184 1138.665039,2365.358398 
	C1130.407227,2352.664795 1132.881470,2338.627197 1143.994385,2328.765381 
	C1151.196167,2322.374268 1158.178223,2315.734863 1165.401001,2309.368164 
	C1174.400024,2301.435791 1179.781738,2291.315674 1184.281738,2280.395752 
	C1188.453003,2270.273438 1193.609985,2260.561279 1198.144409,2250.582764 
	C1199.765015,2247.016357 1201.547729,2243.282227 1201.990112,2239.477539 
	C1202.689819,2233.457520 1205.290161,2228.978516 1209.534912,2224.819580 
	C1220.688110,2213.892090 1232.716064,2203.695068 1241.197754,2189.954102 
	C1253.136230,2196.662354 1264.842163,2197.974365 1277.283936,2193.740967 
	C1284.029297,2191.445801 1291.133179,2190.875488 1297.646606,2194.372314 
	C1303.342651,2197.430420 1308.034424,2196.235596 1313.463867,2193.464111 
	C1375.866943,2161.610596 1438.385132,2129.982422 1500.832153,2098.214600 
	C1503.700562,2096.755371 1506.183594,2094.538574 1508.846191,2092.674316 
z"/>

<path 
	data-name="Widikum-Menka"
fill="#5FF564" opacity="1.000000" stroke="none" 
	d="
M1173.422607,2731.155518 
	C1156.080078,2732.428711 1138.487793,2733.556641 1120.889160,2733.670166 
	C1106.318970,2733.764404 1093.950439,2740.041748 1081.259155,2745.716553 
	C1069.376587,2751.029541 1057.631714,2750.859863 1045.646484,2745.791504 
	C1040.817749,2743.749512 1035.579712,2742.133789 1030.393066,2741.573242 
	C1006.995911,2739.044678 988.101440,2727.942627 973.347778,2710.401855 
	C959.051697,2693.405029 945.622864,2675.606934 932.871826,2657.418457 
	C927.852417,2650.258545 925.820557,2641.035156 922.221130,2632.842529 
	C912.663025,2611.086670 915.491455,2589.324707 922.376770,2567.705322 
	C928.427002,2548.707764 928.672974,2548.785889 917.252991,2532.628662 
	C915.336853,2529.917480 913.197571,2527.336426 911.537170,2524.477051 
	C903.915588,2511.352051 893.642151,2501.206055 881.179688,2492.260742 
	C869.470520,2483.856201 860.081421,2473.166260 856.864624,2457.205566 
	C853.645325,2441.232666 841.930786,2429.301758 829.357788,2419.055664 
	C821.889587,2412.969482 814.257812,2407.041016 806.339844,2401.561279 
	C796.886108,2395.018555 787.153809,2393.518555 775.529114,2397.652588 
	C765.039856,2401.383057 753.403320,2401.601807 742.183350,2398.420898 
	C729.837708,2394.921143 717.430054,2391.638672 705.099548,2388.087402 
	C701.554321,2387.066406 698.182617,2385.442871 693.308289,2383.540039 
	C690.181519,2384.525391 685.501221,2385.087158 681.567383,2380.630859 
	C680.734253,2379.687012 679.366211,2379.047607 678.122559,2378.659912 
	C663.315552,2374.048828 648.485352,2369.512451 633.139954,2364.796143 
	C627.244995,2378.848389 622.243408,2393.614014 624.284119,2409.904053 
	C624.965576,2415.343750 624.577026,2420.297607 618.680664,2423.398193 
	C615.227844,2425.213623 616.285889,2428.970215 616.452698,2432.378662 
	C616.795898,2439.393555 615.361755,2440.913330 608.906067,2441.162598 
	C589.099731,2441.927246 589.391052,2444.638672 576.825623,2450.088135 
	C574.331299,2446.531494 571.526428,2442.910889 569.143555,2439.031250 
	C566.578613,2434.855225 563.758484,2430.659424 562.188965,2426.081543 
	C557.449158,2412.257324 544.119873,2406.098633 535.410461,2395.841797 
	C529.946289,2389.406738 520.833740,2385.960938 513.144165,2381.546875 
	C496.165558,2371.800049 478.309814,2363.373535 462.213318,2352.360352 
	C447.720917,2342.444580 434.841156,2330.023682 429.078217,2312.290771 
	C428.369843,2310.111084 427.222382,2308.017822 425.975739,2306.079102 
	C419.079132,2295.354736 414.673431,2283.854980 411.912842,2271.272461 
	C410.053650,2262.798096 405.405396,2254.667236 400.765472,2247.147705 
	C396.257721,2239.842041 390.341736,2233.364502 384.733398,2226.788330 
	C376.935150,2217.644775 367.028564,2214.013916 355.284332,2217.381592 
	C348.279510,2219.390137 341.169525,2221.548828 334.720642,2224.842041 
	C327.608521,2228.473877 321.742218,2234.010254 317.888214,2241.314941 
	C312.546814,2251.438232 303.851105,2254.753662 293.279694,2253.777100 
	C288.600403,2245.316406 284.862061,2236.729736 279.513367,2229.303223 
	C270.966156,2217.435303 263.106506,2217.976807 254.408768,2229.797119 
	C240.477753,2248.729004 243.232986,2245.857666 222.602127,2246.022949 
	C218.937851,2246.052490 215.257065,2245.804688 211.611679,2246.068848 
	C200.381958,2246.881592 189.789017,2244.787354 179.145081,2239.183594 
	C178.449173,2235.596680 178.404739,2232.441406 178.973770,2228.037598 
	C183.833710,2222.274658 189.300934,2218.388428 192.024155,2213.091309 
	C195.595657,2206.144287 199.200195,2196.886719 195.096970,2190.245117 
	C187.525192,2177.989014 187.299469,2164.277588 184.894577,2151.265625 
	C182.546143,2138.559570 184.383820,2125.080078 184.383820,2111.174561 
	C189.314697,2110.463135 193.577698,2110.134766 197.694092,2109.176270 
	C202.156357,2108.137451 207.729477,2107.764160 210.615067,2104.889160 
	C217.209900,2098.319092 224.881287,2095.825439 233.581345,2094.192871 
	C237.139954,2093.525391 243.012604,2090.344482 243.047485,2088.228027 
	C243.230499,2077.127441 255.717163,2065.823730 243.097137,2054.823975 
	C242.672440,2054.453857 242.493164,2053.588867 242.507050,2052.961670 
	C242.665573,2045.809448 241.065170,2039.265015 236.833435,2033.299438 
	C235.851868,2031.915649 236.566605,2029.395874 236.297409,2027.426514 
	C235.631134,2022.551514 234.968384,2017.670532 234.088394,2012.831299 
	C231.110931,1996.457520 241.501862,1988.382446 255.590057,1990.068848 
	C257.859100,1990.340576 260.107117,1991.166016 262.254425,1992.015015 
	C276.132080,1997.500610 290.544708,1998.807251 305.324341,1998.136841 
	C309.552399,1997.945190 312.897675,1997.004395 316.102478,1994.101074 
	C330.549286,1981.013184 342.649994,1966.092896 350.667328,1948.309204 
	C354.566681,1939.659668 359.787628,1931.981079 366.128357,1925.376831 
	C372.473022,1918.768433 375.107819,1911.745605 374.352509,1902.916870 
	C373.611664,1894.257690 376.437012,1886.588867 381.226624,1879.461304 
	C385.304932,1873.392212 389.096375,1867.131104 393.065796,1860.987915 
	C396.594208,1855.527222 396.883972,1850.125488 394.324738,1843.980103 
	C391.407257,1836.974365 388.291290,1829.700806 387.397095,1822.286255 
	C386.115753,1811.661499 381.740509,1799.657593 395.384918,1792.357788 
	C399.670471,1790.065063 399.386902,1786.169067 396.003845,1782.197021 
	C393.850128,1779.668335 391.455231,1777.312622 388.968262,1775.104980 
	C371.638763,1759.721924 358.150726,1741.149170 345.683197,1721.884399 
	C341.225342,1714.995972 336.177002,1709.450562 329.455048,1704.849243 
	C321.500427,1699.404053 314.489624,1692.886597 309.756592,1684.085571 
	C308.424805,1681.609131 304.948212,1679.675903 302.059143,1678.799316 
	C298.312103,1677.662354 295.700348,1675.946533 293.473877,1672.694946 
	C291.054596,1669.161743 288.041626,1665.926758 284.834473,1663.070312 
	C281.269196,1659.895142 280.129486,1656.292358 280.232635,1651.627808 
	C280.459961,1641.346313 280.191803,1631.194092 276.912354,1621.110107 
	C273.935425,1611.956177 276.445099,1607.181763 284.635040,1601.683960 
	C288.219177,1599.278076 291.930450,1597.046021 295.684875,1594.912598 
	C304.337097,1589.995239 313.580566,1585.928589 321.631531,1580.182129 
	C339.184387,1567.653564 345.240143,1548.409302 348.061798,1528.415771 
	C350.392487,1511.901245 364.007507,1499.419678 380.139038,1502.170166 
	C388.452454,1503.587402 395.044800,1501.231812 401.137848,1495.942993 
	C407.912567,1490.062500 414.567108,1483.989014 421.788116,1478.701782 
	C425.097656,1476.278320 429.524536,1474.964233 433.642822,1474.154907 
	C440.719543,1472.763794 447.951538,1472.162476 455.601776,1471.166748 
	C455.868744,1468.125122 456.530334,1465.503540 456.235199,1462.994385 
	C455.463776,1456.435547 458.937225,1451.184204 463.670319,1448.799927 
	C475.150238,1443.016968 486.981995,1437.065308 499.370514,1434.157349 
	C517.742371,1429.844971 536.720764,1428.122437 555.435364,1425.260742 
	C562.551453,1424.172607 564.608887,1422.772949 564.097778,1415.728516 
	C563.308655,1404.852783 569.564270,1400.498901 578.144897,1396.924927 
	C588.227722,1392.725220 598.098755,1388.004028 607.962341,1383.300537 
	C610.321716,1382.175659 612.277405,1380.211548 614.436279,1378.657837 
	C631.915283,1366.076294 645.810913,1350.046875 658.565369,1332.903687 
	C666.693359,1321.979004 674.437012,1310.721069 683.205750,1300.332275 
	C693.940918,1287.613770 703.341248,1289.415894 709.936829,1304.624146 
	C710.465332,1305.842896 710.931091,1307.107544 711.613525,1308.237671 
	C715.841064,1315.238770 721.520996,1321.766846 729.190857,1323.543701 
	C740.065918,1326.063354 751.503357,1326.372437 762.735291,1327.042358 
	C768.317810,1327.375244 773.972595,1326.269775 779.603821,1326.054077 
	C795.899780,1325.429932 811.305786,1308.250732 809.892456,1291.764771 
	C809.254761,1284.326294 809.782837,1277.109741 812.393433,1270.177856 
	C816.001343,1260.598145 819.598877,1250.985352 823.860596,1241.689209 
	C828.094604,1232.453491 830.378784,1223.023804 830.377197,1212.854004 
	C830.374084,1192.766479 839.718933,1178.044922 857.048035,1168.270020 
	C872.742798,1159.417358 889.680420,1155.474365 907.794067,1156.633057 
	C911.184753,1168.899536 915.096985,1171.726074 926.937927,1172.068726 
	C935.199585,1172.307861 943.847107,1171.732788 951.606812,1173.985718 
	C964.584534,1177.753418 976.940002,1183.405640 990.379272,1186.130127 
	C1000.050659,1188.090576 1002.496521,1191.858765 1001.906799,1201.872192 
	C1001.431580,1209.942871 1003.494812,1216.199097 1009.919128,1220.982544 
	C1017.888245,1226.916138 1020.114319,1235.099976 1020.082397,1244.625610 
	C1020.055786,1252.554443 1020.375549,1260.601440 1021.734680,1268.387939 
	C1023.431824,1278.110718 1026.844727,1287.528564 1028.645020,1297.239746 
	C1033.078735,1321.155518 1029.558350,1342.730347 1009.787598,1359.628906 
	C1004.053284,1364.530151 998.293640,1370.272949 994.875305,1376.842285 
	C986.144348,1393.621216 978.698914,1411.070801 970.817688,1428.287964 
	C969.856628,1430.387451 968.691284,1432.735229 968.783691,1434.918701 
	C969.336243,1447.968140 960.055176,1453.461426 950.679932,1458.704224 
	C945.481995,1461.611084 939.746216,1463.541138 934.444092,1466.281616 
	C930.659485,1468.237793 926.581116,1470.233521 923.739441,1473.252441 
	C920.171631,1477.042847 917.609009,1481.819458 914.835205,1486.308105 
	C909.963867,1494.191040 905.981262,1502.748779 900.273743,1509.952271 
	C895.185852,1516.373779 888.051453,1521.130737 882.220215,1527.018433 
	C876.388184,1532.906860 871.786926,1540.237183 865.327637,1545.229614 
	C855.454590,1552.860474 847.112183,1561.651978 839.124023,1571.841919 
	C827.989136,1579.669678 817.557983,1587.308716 807.261230,1595.139404 
	C793.364929,1605.707520 780.830811,1617.232788 769.593323,1630.432129 
	C765.498352,1635.241699 761.349426,1640.190918 756.434326,1644.076172 
	C747.623779,1651.040649 738.773560,1657.875000 726.028076,1656.444946 
	C721.148499,1655.897461 715.646179,1658.388428 710.816895,1660.420044 
	C700.188171,1664.891479 698.695007,1667.800781 701.855774,1678.795044 
	C704.227844,1687.046143 705.191772,1694.964844 702.036987,1703.197021 
	C699.786682,1709.069214 700.903748,1715.121338 702.932922,1720.749756 
	C705.742615,1728.543213 708.894531,1736.256714 712.526123,1743.698975 
	C716.457886,1751.756104 721.391357,1759.322021 725.377502,1767.355591 
	C730.669128,1778.020386 730.173096,1786.785278 715.862122,1789.506958 
	C711.513000,1790.333984 707.201843,1791.360718 702.873291,1792.295898 
	C709.635498,1795.577881 716.583618,1796.613525 722.993103,1799.060425 
	C742.836548,1806.635742 760.125977,1818.193359 774.774841,1833.695923 
	C778.621765,1837.767212 782.526672,1842.744873 787.438660,1844.672607 
	C803.723938,1851.064697 816.207153,1862.402710 828.905334,1873.688477 
	C836.868774,1880.766235 844.332703,1888.886230 853.421021,1894.095459 
	C864.564026,1900.482056 871.753967,1908.823120 876.052856,1920.632935 
	C877.302612,1924.066040 880.441101,1927.463379 883.611084,1929.432251 
	C896.602844,1937.501587 909.888000,1945.105347 923.163879,1952.708252 
	C945.308655,1965.390015 969.460083,1974.732178 988.094849,1993.208984 
	C993.930725,1998.995483 1001.588806,2002.808472 1005.787170,2010.492310 
	C1007.076050,2012.851074 1010.295227,2014.169922 1012.665283,2015.917847 
	C1014.238281,2017.077637 1016.553223,2017.792847 1017.366760,2019.327148 
	C1021.686401,2027.474121 1030.684814,2029.910522 1036.576538,2036.400024 
	C1039.339355,2035.000488 1041.598633,2033.635376 1044.017090,2032.667847 
	C1055.952637,2027.892822 1072.922852,2037.956665 1073.858276,2050.713135 
	C1074.239868,2055.919922 1073.634277,2061.343750 1072.556030,2066.474854 
	C1071.330811,2072.305176 1069.066162,2077.916260 1067.268066,2083.627197 
	C1064.859375,2091.277100 1065.495117,2093.399658 1073.557617,2094.524170 
	C1083.306763,2095.884033 1088.055176,2102.139648 1091.304688,2110.016846 
	C1093.041260,2114.226562 1093.134644,2119.100830 1094.082520,2123.651611 
	C1096.653687,2135.996338 1099.385864,2148.308594 1101.859375,2160.672607 
	C1103.653198,2169.639404 1109.556030,2173.067383 1118.034058,2173.988525 
	C1125.617310,2174.812256 1133.231445,2175.826172 1140.658203,2177.518555 
	C1157.132080,2181.271729 1173.488037,2185.540771 1189.911255,2189.520020 
	C1195.677124,2190.916748 1201.025269,2190.673828 1205.591309,2185.919434 
	C1209.367432,2181.987305 1214.210083,2181.441162 1219.455078,2182.766357 
	C1222.337524,2183.494873 1225.362183,2183.780273 1228.341919,2183.977783 
	C1233.214844,2184.301270 1237.447021,2185.773682 1240.514648,2189.787598 
	C1232.716064,2203.695068 1220.688110,2213.892090 1209.534912,2224.819580 
	C1205.290161,2228.978516 1202.689819,2233.457520 1201.990112,2239.477539 
	C1201.547729,2243.282227 1199.765015,2247.016357 1198.144409,2250.582764 
	C1193.609985,2260.561279 1188.453003,2270.273438 1184.281738,2280.395752 
	C1179.781738,2291.315674 1174.400024,2301.435791 1165.401001,2309.368164 
	C1158.178223,2315.734863 1151.196167,2322.374268 1143.994385,2328.765381 
	C1132.881470,2338.627197 1130.407227,2352.664795 1138.665039,2365.358398 
	C1144.376587,2374.138184 1150.562744,2381.308838 1160.109985,2386.705566 
	C1171.083740,2392.908447 1179.597656,2402.598877 1182.333740,2416.039062 
	C1182.932861,2418.981689 1184.928467,2422.076904 1187.154053,2424.176025 
	C1196.716064,2433.193359 1197.967285,2438.138672 1193.024292,2450.520752 
	C1189.815796,2458.557373 1186.819946,2466.682617 1183.449951,2474.650146 
	C1181.095459,2480.216797 1178.743286,2485.520508 1180.152954,2491.943604 
	C1180.628296,2494.109863 1179.007080,2496.987305 1177.770142,2499.222168 
	C1175.678589,2503.001465 1173.230469,2506.598145 1170.754517,2510.147461 
	C1163.650391,2520.332520 1157.982910,2530.847900 1156.736572,2543.730957 
	C1155.610229,2555.375244 1151.312378,2565.833252 1142.534790,2574.732666 
	C1134.798462,2582.576416 1132.587769,2592.568115 1135.781128,2604.219482 
	C1141.131714,2623.743164 1144.989990,2643.678711 1149.323486,2663.474365 
	C1149.955688,2666.362549 1149.746704,2669.435059 1149.921509,2672.422607 
	C1150.621094,2684.367432 1151.490234,2696.306152 1151.928589,2708.260498 
	C1152.093628,2712.766846 1154.088867,2715.701416 1157.453491,2718.255371 
	C1162.754639,2722.278564 1167.937378,2726.458008 1173.422607,2731.155518 
z"/>

<path 
	data-name="Njikwa"
fill="#369693" opacity="1.000000" stroke="none" 
	d="
M907.794067,1156.633057 
	C917.050354,1153.845947 926.722656,1152.633179 935.736145,1149.515747 
	C942.833008,1147.061157 949.707703,1145.838379 957.093750,1145.958984 
	C965.892151,1146.102661 974.865234,1139.762573 975.773438,1131.445679 
	C976.732483,1122.664551 976.909973,1113.647095 970.718750,1105.798462 
	C963.792969,1097.018677 964.491028,1089.552490 971.939453,1081.119751 
	C979.258789,1072.833130 987.499695,1065.539429 997.217224,1060.329346 
	C1007.691772,1054.713379 1009.587646,1043.650269 1007.404541,1033.709106 
	C1004.259338,1019.386536 995.715393,1007.829041 988.794922,995.413574 
	C986.269226,990.882507 984.042908,986.184570 981.723389,981.647583 
	C986.719116,976.064575 991.368164,971.791016 998.160217,971.442017 
	C1006.024231,971.037903 1012.246094,967.541565 1017.144287,961.783936 
	C1022.989319,954.913452 1030.530029,952.627380 1039.111328,951.890442 
	C1042.591309,951.591553 1046.447388,950.614441 1049.263916,948.680969 
	C1055.539062,944.373291 1062.278687,942.320557 1069.734619,941.753662 
	C1072.683960,941.529419 1075.680298,940.817444 1078.469849,939.813049 
	C1085.810303,937.170227 1087.729858,933.180481 1084.890137,925.945068 
	C1082.710815,920.392090 1080.446289,914.760437 1077.333130,909.710266 
	C1071.581543,900.379822 1073.938599,891.159302 1082.551636,881.817383 
	C1089.148193,874.662659 1090.814697,866.338379 1084.772095,858.960144 
	C1077.135376,849.635437 1068.268677,841.612000 1056.503052,837.601807 
	C1054.937134,837.068115 1053.317261,836.104370 1051.770752,836.192078 
	C1034.609497,837.165222 1023.158569,826.033203 1011.653320,816.266968 
	C999.899841,806.289978 1001.889893,794.305298 1014.259216,785.587769 
	C1017.793030,783.097290 1021.449036,780.740845 1024.751953,777.968811 
	C1040.267944,764.946533 1059.344727,761.604553 1078.353271,758.197388 
	C1084.857788,757.031555 1091.602173,757.160156 1098.077148,755.885254 
	C1106.170654,754.291748 1114.376953,752.574463 1122.024780,749.600220 
	C1130.534912,746.290710 1138.584106,743.603821 1147.832886,746.511597 
	C1157.080078,749.419006 1162.934204,747.231689 1168.080566,739.392761 
	C1173.166870,731.645203 1177.478638,723.368591 1182.850220,715.837585 
	C1185.600098,711.982361 1189.690430,708.926270 1193.601929,706.100098 
	C1197.612671,703.202209 1202.480957,701.456421 1206.363647,698.424683 
	C1211.248291,694.610535 1211.338745,691.727478 1207.832520,686.440247 
	C1205.815674,683.398987 1203.863037,680.209290 1201.320557,677.641907 
	C1192.942749,669.182068 1190.235229,658.372498 1187.573853,647.314697 
	C1185.482178,638.623352 1182.702026,630.055298 1179.609131,621.660339 
	C1177.042114,614.692627 1175.651123,607.761597 1175.603882,600.298645 
	C1175.521973,587.364441 1174.770386,574.432922 1174.219727,561.503723 
	C1173.803101,551.716553 1168.038330,544.956787 1161.024048,539.055908 
	C1158.750000,537.142700 1156.190674,535.456665 1153.528687,534.136536 
	C1144.179810,529.500000 1137.109253,522.976624 1134.616211,511.173157 
	C1138.199097,503.541351 1144.703613,497.122650 1152.656372,492.050842 
	C1160.882568,486.804657 1168.606567,481.116974 1171.966187,471.384033 
	C1172.917236,468.628632 1173.962769,465.790039 1174.205200,462.925293 
	C1175.442261,448.305969 1181.473145,435.596985 1189.833252,423.079895 
	C1191.065186,422.411743 1191.819702,422.234985 1193.110352,422.286682 
	C1194.796875,423.706512 1196.049072,424.816132 1197.081909,426.101868 
	C1207.738281,439.365753 1221.877808,441.195007 1237.345947,438.204987 
	C1247.410522,436.259491 1257.315063,432.922485 1267.447754,432.072052 
	C1275.535278,431.393250 1283.985229,432.915833 1292.044434,434.576599 
	C1301.187866,436.460815 1304.901367,444.381042 1306.149902,455.243134 
	C1306.853394,461.363770 1307.155273,466.628998 1311.525879,471.530457 
	C1314.536865,474.907196 1316.390747,479.479065 1318.117432,483.775665 
	C1319.134521,486.306610 1319.499268,489.434387 1319.093384,492.133728 
	C1318.215698,497.969788 1316.772461,503.732880 1315.333008,509.468689 
	C1314.131470,514.256897 1312.605835,518.963745 1310.822998,525.081665 
	C1313.142334,530.485779 1316.015747,537.130432 1318.842896,543.794678 
	C1319.880371,546.240417 1321.581909,548.706909 1321.664917,551.207642 
	C1322.389282,573.017212 1333.376953,593.514709 1329.749023,615.874023 
	C1326.935181,633.216675 1336.786011,646.323853 1344.939087,659.955322 
	C1346.461304,662.500549 1348.863403,664.872437 1349.373535,667.601990 
	C1350.734497,674.886108 1354.761597,680.575073 1359.592163,685.562622 
	C1369.066406,695.344910 1374.890625,707.111938 1380.099487,719.434143 
	C1382.662231,725.496826 1386.089111,731.235168 1389.525757,736.876160 
	C1393.140869,742.809631 1398.642822,746.238403 1405.407471,748.112305 
	C1416.540771,751.196533 1427.209106,756.851990 1439.186768,755.220154 
	C1448.020508,754.016602 1456.935303,752.468811 1465.374878,749.723755 
	C1469.357178,748.428406 1473.636597,744.618958 1475.507935,740.826721 
	C1486.174561,719.210815 1505.271851,714.026978 1526.417358,715.950134 
	C1542.238037,717.389099 1557.703247,716.347168 1572.827637,713.420166 
	C1589.027344,710.285217 1604.686890,704.316650 1620.525146,699.400757 
	C1623.012695,698.628723 1625.101196,696.651184 1627.541504,695.631042 
	C1633.938599,692.956726 1640.428345,690.503479 1647.699951,687.990112 
	C1649.050171,700.964478 1650.035889,713.914429 1649.939819,726.856323 
	C1649.883911,734.385864 1648.703613,742.049805 1646.932861,749.388672 
	C1644.597534,759.067200 1641.068970,768.451843 1638.262939,778.024170 
	C1633.299438,794.955261 1628.413574,811.911621 1630.092285,829.910889 
	C1630.338379,832.550842 1630.149902,835.240295 1630.047852,837.902405 
	C1628.701538,873.031067 1633.238892,907.620239 1641.102295,941.682129 
	C1645.806396,962.058960 1646.690186,982.453247 1646.124878,1003.092285 
	C1646.045654,1005.982300 1645.339722,1009.086365 1644.074951,1011.676758 
	C1631.954224,1036.501099 1619.939087,1061.385010 1607.266846,1085.928223 
	C1601.681519,1096.745728 1601.819946,1108.421997 1600.151245,1119.811646 
	C1597.746948,1136.222534 1597.382935,1153.002197 1594.036011,1169.187744 
	C1589.740356,1189.960693 1584.402344,1210.628174 1574.405762,1229.698364 
	C1572.118896,1234.061035 1570.328979,1238.838135 1569.211548,1243.634521 
	C1562.832642,1271.016113 1550.477417,1296.213501 1540.678589,1322.336060 
	C1534.373169,1339.145264 1527.330444,1355.677734 1519.590576,1373.129272 
	C1507.070679,1381.266113 1495.217041,1388.105225 1484.162476,1396.055542 
	C1461.763306,1412.164795 1436.470703,1423.940430 1415.546875,1442.230469 
	C1407.801025,1449.001099 1399.233887,1454.932861 1392.099609,1462.275391 
	C1384.010742,1470.600098 1376.977661,1479.973755 1369.728516,1489.084595 
	C1362.628174,1498.008179 1354.416382,1505.483154 1344.800415,1511.725830 
	C1312.886353,1532.443848 1283.844849,1556.830933 1256.171631,1582.842285 
	C1250.411255,1588.256836 1244.137451,1591.779297 1236.707031,1594.315552 
	C1221.666748,1599.448853 1205.596680,1602.270386 1192.434204,1611.969238 
	C1186.187378,1616.572266 1179.653198,1616.938965 1172.587524,1615.219482 
	C1162.502075,1612.764893 1152.640625,1611.753906 1142.342407,1615.296631 
	C1133.597412,1618.305298 1124.308838,1619.761597 1115.230469,1621.767212 
	C1102.592773,1624.558838 1090.033081,1628.627197 1077.246826,1629.593506 
	C1060.380127,1630.868164 1044.394897,1633.812744 1029.595337,1642.169922 
	C1027.858398,1643.150879 1026.087769,1644.246826 1024.190186,1644.734619 
	C1019.132385,1646.034302 1013.979004,1648.028564 1008.895569,1647.938599 
	C998.620361,1647.756958 988.332153,1646.656860 978.115234,1645.399536 
	C970.931641,1644.515503 963.405579,1643.853516 956.816345,1641.168579 
	C934.950867,1632.259155 913.370544,1622.633789 891.842773,1612.923950 
	C886.486755,1610.508179 881.320923,1607.246948 876.794434,1603.496948 
	C864.242493,1593.099121 852.073547,1582.239014 839.753296,1571.561401 
	C847.112183,1561.651978 855.454590,1552.860474 865.327637,1545.229614 
	C871.786926,1540.237183 876.388184,1532.906860 882.220215,1527.018433 
	C888.051453,1521.130737 895.185852,1516.373779 900.273743,1509.952271 
	C905.981262,1502.748779 909.963867,1494.191040 914.835205,1486.308105 
	C917.609009,1481.819458 920.171631,1477.042847 923.739441,1473.252441 
	C926.581116,1470.233521 930.659485,1468.237793 934.444092,1466.281616 
	C939.746216,1463.541138 945.481995,1461.611084 950.679932,1458.704224 
	C960.055176,1453.461426 969.336243,1447.968140 968.783691,1434.918701 
	C968.691284,1432.735229 969.856628,1430.387451 970.817688,1428.287964 
	C978.698914,1411.070801 986.144348,1393.621216 994.875305,1376.842285 
	C998.293640,1370.272949 1004.053284,1364.530151 1009.787598,1359.628906 
	C1029.558350,1342.730347 1033.078735,1321.155518 1028.645020,1297.239746 
	C1026.844727,1287.528564 1023.431824,1278.110718 1021.734680,1268.387939 
	C1020.375549,1260.601440 1020.055786,1252.554443 1020.082397,1244.625610 
	C1020.114319,1235.099976 1017.888245,1226.916138 1009.919128,1220.982544 
	C1003.494812,1216.199097 1001.431580,1209.942871 1001.906799,1201.872192 
	C1002.496521,1191.858765 1000.050659,1188.090576 990.379272,1186.130127 
	C976.940002,1183.405640 964.584534,1177.753418 951.606812,1173.985718 
	C943.847107,1171.732788 935.199585,1172.307861 926.937927,1172.068726 
	C915.096985,1171.726074 911.184753,1168.899536 907.794067,1156.633057 
z"/>
<path 
	data-name="Ngie"
fill="#575FF7" opacity="1.000000" stroke="none" 
	d="
M839.123962,1571.841919 
	C852.073547,1582.239014 864.242493,1593.099121 876.794434,1603.496948 
	C881.320923,1607.246948 886.486755,1610.508179 891.842773,1612.923950 
	C913.370544,1622.633789 934.950867,1632.259155 956.816345,1641.168579 
	C963.405579,1643.853516 970.931641,1644.515503 978.115234,1645.399536 
	C988.332153,1646.656860 998.620361,1647.756958 1008.895569,1647.938599 
	C1013.979004,1648.028564 1019.132385,1646.034302 1024.190186,1644.734619 
	C1026.087769,1644.246826 1027.858398,1643.150879 1029.595337,1642.169922 
	C1044.394897,1633.812744 1060.380127,1630.868164 1077.246826,1629.593506 
	C1090.033081,1628.627197 1102.592773,1624.558838 1115.230469,1621.767212 
	C1124.308838,1619.761597 1133.597412,1618.305298 1142.342407,1615.296631 
	C1152.640625,1611.753906 1162.502075,1612.764893 1172.587524,1615.219482 
	C1179.653198,1616.938965 1186.187378,1616.572266 1192.434204,1611.969238 
	C1205.596680,1602.270386 1221.666748,1599.448853 1236.707031,1594.315552 
	C1244.137451,1591.779297 1250.411255,1588.256836 1256.171631,1582.842285 
	C1283.844849,1556.830933 1312.886353,1532.443848 1344.800415,1511.725830 
	C1354.416382,1505.483154 1362.628174,1498.008179 1369.728516,1489.084595 
	C1376.977661,1479.973755 1384.010742,1470.600098 1392.099609,1462.275391 
	C1399.233887,1454.932861 1407.801025,1449.001099 1415.546875,1442.230469 
	C1436.470703,1423.940430 1461.763306,1412.164795 1484.162476,1396.055542 
	C1495.217041,1388.105225 1507.070679,1381.266113 1519.257080,1373.739014 
	C1519.339722,1380.158081 1517.815918,1386.829834 1518.297607,1393.353394 
	C1519.468384,1409.208008 1520.818848,1425.123169 1523.513794,1440.769897 
	C1526.100342,1455.787109 1529.492310,1470.442139 1530.205688,1485.936279 
	C1532.058838,1526.181152 1523.650024,1564.606201 1512.530518,1602.647949 
	C1508.352173,1616.942749 1502.610352,1630.868286 1496.537720,1644.497314 
	C1490.368042,1658.344360 1487.114380,1672.958984 1484.474243,1687.581665 
	C1483.052490,1695.457031 1484.701538,1704.218140 1486.421509,1712.268433 
	C1492.100342,1738.848755 1491.911865,1765.742432 1492.360352,1792.687744 
	C1492.686523,1812.275879 1494.802734,1831.828613 1495.446411,1851.419312 
	C1495.716675,1859.646973 1494.535767,1867.967896 1493.511475,1876.183716 
	C1490.712891,1898.631714 1485.422119,1920.574341 1480.255615,1942.575317 
	C1478.090820,1951.793457 1479.064697,1961.713867 1478.173584,1971.274048 
	C1476.710938,1986.967041 1479.814087,2001.639160 1487.034302,2015.553589 
	C1497.899170,2036.491455 1503.415649,2058.971191 1506.266968,2082.232178 
	C1506.629150,2085.186523 1507.567383,2088.070557 1508.542480,2091.830811 
	C1506.183594,2094.538574 1503.700562,2096.755371 1500.832153,2098.214600 
	C1438.385132,2129.982422 1375.866943,2161.610596 1313.463867,2193.464111 
	C1308.034424,2196.235596 1303.342651,2197.430420 1297.646606,2194.372314 
	C1291.133179,2190.875488 1284.029297,2191.445801 1277.283936,2193.740967 
	C1264.842163,2197.974365 1253.136230,2196.662354 1241.197754,2189.954102 
	C1237.447021,2185.773682 1233.214844,2184.301270 1228.341919,2183.977783 
	C1225.362183,2183.780273 1222.337524,2183.494873 1219.455078,2182.766357 
	C1214.210083,2181.441162 1209.367432,2181.987305 1205.591309,2185.919434 
	C1201.025269,2190.673828 1195.677124,2190.916748 1189.911255,2189.520020 
	C1173.488037,2185.540771 1157.132080,2181.271729 1140.658203,2177.518555 
	C1133.231445,2175.826172 1125.617310,2174.812256 1118.034058,2173.988525 
	C1109.556030,2173.067383 1103.653198,2169.639404 1101.859375,2160.672607 
	C1099.385864,2148.308594 1096.653687,2135.996338 1094.082520,2123.651611 
	C1093.134644,2119.100830 1093.041260,2114.226562 1091.304688,2110.016846 
	C1088.055176,2102.139648 1083.306763,2095.884033 1073.557617,2094.524170 
	C1065.495117,2093.399658 1064.859375,2091.277100 1067.268066,2083.627197 
	C1069.066162,2077.916260 1071.330811,2072.305176 1072.556030,2066.474854 
	C1073.634277,2061.343750 1074.239868,2055.919922 1073.858276,2050.713135 
	C1072.922852,2037.956665 1055.952637,2027.892822 1044.017090,2032.667847 
	C1041.598633,2033.635376 1039.339355,2035.000488 1036.576538,2036.400024 
	C1030.684814,2029.910522 1021.686401,2027.474121 1017.366760,2019.327148 
	C1016.553223,2017.792847 1014.238281,2017.077637 1012.665283,2015.917847 
	C1010.295227,2014.169922 1007.076050,2012.851074 1005.787170,2010.492310 
	C1001.588806,2002.808472 993.930725,1998.995483 988.094849,1993.208984 
	C969.460083,1974.732178 945.308655,1965.390015 923.163879,1952.708252 
	C909.888000,1945.105347 896.602844,1937.501587 883.611084,1929.432251 
	C880.441101,1927.463379 877.302612,1924.066040 876.052856,1920.632935 
	C871.753967,1908.823120 864.564026,1900.482056 853.421021,1894.095459 
	C844.332703,1888.886230 836.868774,1880.766235 828.905334,1873.688477 
	C816.207153,1862.402710 803.723938,1851.064697 787.438660,1844.672607 
	C782.526672,1842.744873 778.621765,1837.767212 774.774841,1833.695923 
	C760.125977,1818.193359 742.836548,1806.635742 722.993103,1799.060425 
	C716.583618,1796.613525 709.635498,1795.577881 702.873291,1792.295898 
	C707.201843,1791.360718 711.513000,1790.333984 715.862122,1789.506958 
	C730.173096,1786.785278 730.669128,1778.020386 725.377502,1767.355591 
	C721.391357,1759.322021 716.457886,1751.756104 712.526123,1743.698975 
	C708.894531,1736.256714 705.742615,1728.543213 702.932922,1720.749756 
	C700.903748,1715.121338 699.786682,1709.069214 702.036987,1703.197021 
	C705.191772,1694.964844 704.227844,1687.046143 701.855774,1678.795044 
	C698.695007,1667.800781 700.188171,1664.891479 710.816895,1660.420044 
	C715.646179,1658.388428 721.148499,1655.897461 726.028076,1656.444946 
	C738.773560,1657.875000 747.623779,1651.040649 756.434326,1644.076172 
	C761.349426,1640.190918 765.498352,1635.241699 769.593323,1630.432129 
	C780.830811,1617.232788 793.364929,1605.707520 807.261230,1595.139404 
	C817.557983,1587.308716 827.989136,1579.669678 839.123962,1571.841919 
z"/>
<path 
	data-name="Mbven"
fill="#4E2C3B" opacity="1.000000" stroke="none" 
	d="
M2258.295898,1756.520996 
	C2258.926514,1755.916748 2259.744141,1755.924683 2261.174561,1755.966309 
	C2263.008301,1756.790405 2264.285889,1757.515503 2265.371582,1758.461182 
	C2265.493896,1758.567749 2264.468750,1760.605591 2264.081055,1760.570801 
	C2262.786621,1760.454712 2261.446533,1759.964233 2260.307861,1759.301392 
	C2259.539551,1758.854126 2259.080566,1757.874512 2258.295898,1756.520996 
z"/>
</svg>