<svg version="1.1" id="Layer_1" xmlns="http://www.w3.org/2000/svg" xmlns:xlink="http://www.w3.org/1999/xlink" x="0px" y="0px"
	 width="100%" viewBox="0 0 2185 2431" enable-background="new 0 0 2185 2431" xml:space="preserve">


<path 
data-name="Muyuka"
fill="#F261FA" opacity="1.000000" stroke="none" 
	d="
M1243.078735,2.000000 
	C1244.295410,7.933729 1249.798706,6.814993 1252.869995,7.605937 
	C1266.289917,11.062066 1279.923584,13.690335 1293.485352,16.592180 
	C1295.098022,16.937231 1296.738525,17.267033 1298.378906,17.349623 
	C1308.165771,17.842361 1316.505127,21.566637 1322.732666,29.104546 
	C1327.193604,34.504250 1332.622437,37.699509 1339.385010,38.963638 
	C1348.559937,40.678684 1354.782715,44.774818 1353.881958,55.570377 
	C1353.453857,60.699364 1357.936646,61.855591 1361.805908,63.033295 
	C1366.158936,64.358284 1370.500732,65.755249 1374.923828,66.797325 
	C1376.665649,67.207733 1378.613281,66.730461 1380.467896,66.679878 
	C1386.442261,66.516975 1392.466919,65.842659 1398.372192,66.408989 
	C1401.770264,66.734856 1405.740112,68.314423 1408.093994,70.681038 
	C1411.991943,74.600174 1416.378296,75.776505 1421.469971,76.139229 
	C1433.692261,77.009918 1435.166626,79.196991 1432.437500,90.706375 
	C1431.885132,93.035583 1432.227051,95.976471 1433.189941,98.184822 
	C1435.399170,103.251595 1438.245728,108.040489 1441.063354,113.377785 
	C1444.212280,113.377785 1448.133423,113.350510 1452.054077,113.383057 
	C1462.509766,113.469826 1465.517456,116.461433 1465.612793,127.035545 
	C1465.627197,128.634811 1465.091431,130.239029 1464.738403,132.249969 
	C1469.182251,136.032074 1474.065430,139.880402 1470.737671,147.113831 
	C1470.203125,148.275620 1471.120117,150.238480 1471.672485,151.716461 
	C1471.999634,152.591827 1473.181396,153.140015 1473.535156,154.014786 
	C1474.383911,156.113495 1475.620239,158.341370 1475.544312,160.476044 
	C1475.286255,167.730194 1476.505737,175.993637 1473.422852,181.930679 
	C1470.112183,188.306366 1470.224854,193.574814 1470.974243,199.617996 
	C1474.405884,200.160431 1478.721069,199.643036 1479.912598,201.330917 
	C1481.443237,203.498947 1481.022949,207.540436 1480.462158,210.594757 
	C1478.841675,219.419022 1478.227905,227.810715 1486.071411,234.304245 
	C1487.318970,235.337097 1488.622803,237.103394 1489.931641,237.132477 
	C1499.165283,237.337616 1502.040649,244.458786 1505.787109,250.882721 
	C1507.247681,253.387009 1510.005371,255.188232 1511.242798,257.757385 
	C1513.353271,262.138397 1513.680664,267.799652 1516.694458,271.211975 
	C1520.058716,275.021088 1523.735718,278.257294 1524.256958,283.501007 
	C1524.765015,288.612854 1527.576904,290.347260 1532.294434,290.142426 
	C1534.622314,290.041382 1536.958374,290.126678 1539.290649,290.126678 
	C1662.235596,290.126801 1785.180420,290.126770 1908.125366,290.126770 
	C1911.748291,290.126770 1915.371094,290.126770 1919.649658,290.126770 
	C1919.909058,292.800079 1920.170776,294.989105 1920.326294,297.185669 
	C1921.003662,306.762848 1921.716919,316.338348 1922.274414,325.922760 
	C1922.484619,329.536377 1922.308350,333.172516 1922.308350,337.337189 
	C1918.709473,338.111359 1915.532593,339.442932 1912.401123,339.343445 
	C1903.960693,339.075195 1898.180298,343.100800 1892.909546,349.167603 
	C1887.896118,354.938202 1882.344604,360.284485 1876.676270,365.427948 
	C1872.913696,368.842407 1871.295166,372.485840 1871.534912,377.642120 
	C1871.805664,383.468903 1871.018921,389.344788 1870.697754,395.098694 
	C1861.918579,396.328461 1857.095459,391.018433 1851.347778,388.128906 
	C1848.018799,386.455261 1840.844604,386.905792 1838.435547,389.121002 
	C1834.287842,392.934998 1835.191162,398.838654 1840.517090,402.615509 
	C1843.746582,404.905762 1847.189941,406.940918 1850.186523,409.501221 
	C1854.083862,412.831390 1854.550659,416.756714 1851.459229,420.170990 
	C1845.502197,421.687561 1840.182007,423.042023 1834.995728,424.362396 
	C1835.229126,426.117554 1835.077759,426.969971 1835.429199,427.325623 
	C1841.462036,433.432068 1844.583252,440.484772 1844.963989,449.311218 
	C1845.164551,453.960205 1848.391968,458.416595 1849.775024,463.100952 
	C1850.545532,465.710754 1850.788208,468.661346 1850.480225,471.368713 
	C1849.675781,478.442688 1844.989136,484.734375 1847.226929,492.659760 
	C1847.830078,494.795380 1844.183960,499.454834 1841.406860,500.957397 
	C1834.712646,504.579407 1831.593628,508.228882 1833.990356,516.620605 
	C1836.314331,524.757935 1834.577148,526.120300 1826.428223,528.362244 
	C1824.155884,525.838501 1821.758179,523.175476 1819.207275,520.342468 
	C1814.745850,524.319702 1811.216431,529.239929 1803.970947,527.717834 
	C1800.907471,527.074219 1800.230591,530.705688 1800.522705,533.608154 
	C1800.972778,538.079102 1801.365234,542.555725 1801.813110,547.361572 
	C1789.322388,545.014893 1779.143799,547.092773 1768.934570,552.372986 
	C1774.822266,561.744019 1783.301270,568.189819 1779.439087,579.681213 
	C1775.731323,581.575867 1772.366089,580.340942 1770.198120,577.114868 
	C1766.827026,572.098022 1762.165039,571.844604 1756.299194,572.397766 
	C1756.005859,575.512573 1755.761963,578.730774 1755.389893,581.934143 
	C1754.322998,591.119873 1752.500000,599.940735 1748.971436,608.736023 
	C1745.993286,616.159546 1746.302124,624.901672 1745.004028,634.143127 
	C1742.765869,635.933594 1739.192139,638.326233 1736.181030,641.290405 
	C1727.862183,649.479065 1725.860596,659.628784 1728.512207,670.627869 
	C1729.838989,676.131775 1729.963989,680.861206 1726.448120,685.726624 
	C1725.224731,687.419800 1725.800049,690.553345 1725.912598,693.012695 
	C1725.969727,694.263062 1726.707520,695.539246 1727.333984,696.697449 
	C1732.416016,706.090454 1733.498901,715.656189 1727.905273,725.134155 
	C1723.374634,732.810913 1724.097534,739.382080 1730.335449,745.784424 
	C1733.322510,748.850403 1735.866577,752.459778 1738.083496,756.140869 
	C1742.447388,763.386475 1743.838379,770.971008 1738.855225,778.596313 
	C1735.209351,784.175232 1731.637573,785.014221 1725.381226,782.533875 
	C1722.051514,781.213745 1718.521240,779.799072 1715.023926,779.631775 
	C1708.581543,779.323792 1705.429932,783.827148 1707.017212,790.090576 
	C1707.261475,791.054016 1707.643555,791.982666 1707.965332,792.926270 
	C1711.904785,804.478394 1711.685547,805.058228 1701.178345,810.861633 
	C1692.643433,815.575684 1690.080933,821.617920 1692.818481,830.751892 
	C1693.486450,832.980347 1693.859497,835.520691 1695.198975,837.287903 
	C1703.254395,847.915344 1704.530396,860.419128 1705.802368,873.028992 
	C1706.163574,876.611328 1707.027954,880.324768 1708.539185,883.569336 
	C1711.245361,889.379089 1714.575317,894.935547 1723.289917,893.949341 
	C1731.150757,882.916321 1736.242188,867.318542 1755.676758,868.939941 
	C1759.076416,872.743225 1763.284058,876.451721 1758.670654,879.628418 
	C1754.267090,882.660522 1752.503174,886.851440 1749.701782,890.736145 
	C1747.543091,893.729797 1743.774292,895.612549 1740.584106,897.787842 
	C1739.298584,898.664368 1736.782837,898.608582 1736.304199,899.653748 
	C1733.432983,905.921326 1727.140259,906.633850 1721.954712,909.203369 
	C1719.626343,910.357178 1716.949463,911.535950 1715.441772,913.485229 
	C1710.245239,920.204224 1705.494385,927.267944 1699.904297,933.804321 
	C1695.545044,932.281738 1691.817993,930.104614 1688.172729,930.233582 
	C1678.768555,930.566528 1677.897827,930.341370 1676.468628,921.426025 
	C1676.152588,919.455383 1676.107788,917.441833 1675.804565,915.468567 
	C1674.233032,905.242493 1670.812744,902.346619 1661.091187,904.986938 
	C1650.500366,907.863220 1642.057373,906.417175 1636.268433,896.430054 
	C1633.374756,891.437866 1629.436890,891.210144 1624.330444,892.753723 
	C1615.899658,895.302185 1609.363159,891.725098 1604.447144,884.984924 
	C1602.704834,882.596313 1601.582275,879.737122 1600.301636,877.033630 
	C1594.474365,864.733032 1586.902100,862.829041 1575.910645,870.764343 
	C1561.115234,881.445740 1547.638306,894.126282 1530.165283,900.781372 
	C1527.753906,901.699768 1525.218506,903.330750 1523.686035,905.349548 
	C1513.714478,918.487122 1497.948730,921.443420 1484.097046,927.210938 
	C1478.130005,929.695435 1474.549194,932.561523 1472.430664,937.937500 
	C1469.550781,945.245911 1464.450806,950.066406 1457.166748,952.711975 
	C1453.420654,954.072693 1449.613037,955.271301 1445.902344,956.720398 
	C1439.923462,959.055176 1434.320801,957.879700 1428.429077,955.929932 
	C1418.776733,952.735718 1413.453125,944.774658 1408.378662,937.290466 
	C1401.671265,927.397888 1392.859985,925.929688 1382.397217,927.136230 
	C1378.764160,927.555115 1375.072876,928.229492 1371.467651,927.967773 
	C1364.123657,927.434631 1361.489014,922.008118 1366.072266,916.282104 
	C1370.831299,910.336182 1376.058594,904.632202 1381.781250,899.622253 
	C1389.952759,892.468445 1390.904907,883.893066 1383.533203,875.924927 
	C1382.206421,874.490723 1380.360962,873.110291 1379.877075,871.389404 
	C1375.830566,856.998962 1371.043701,842.704834 1368.553589,828.029846 
	C1367.023560,819.012756 1364.734497,810.604919 1361.014160,802.419250 
	C1359.776733,799.696777 1358.245483,797.072693 1357.324341,794.248413 
	C1354.895630,786.802063 1356.864258,783.588379 1364.568848,782.421082 
	C1368.838257,781.774231 1373.286621,782.048584 1377.458618,781.071777 
	C1385.638428,779.156616 1386.923706,775.972961 1383.237305,768.346741 
	C1381.958374,765.701233 1380.521484,763.132019 1378.956177,760.145081 
	C1370.814087,762.576416 1364.234741,760.486023 1358.522217,754.294495 
	C1359.245361,750.029419 1359.715942,745.401062 1360.856689,740.944214 
	C1362.748291,733.552612 1360.778931,728.791992 1353.972290,724.436829 
	C1317.788940,701.285583 1281.935059,677.618835 1245.976440,654.116394 
	C1162.354614,599.461182 1078.738037,544.797913 995.119324,490.137909 
	C1004.874939,460.407379 1014.435913,430.611206 1024.440430,400.964661 
	C1034.630005,370.769745 1045.293945,340.735229 1055.682861,310.607300 
	C1078.860352,243.392700 1102.076782,176.191345 1125.065063,108.912041 
	C1128.720215,98.214630 1135.633423,89.711594 1142.288696,81.108788 
	C1153.510620,66.602982 1162.201904,50.476345 1172.628174,35.535572 
	C1181.559082,22.737507 1193.179321,12.112527 1209.161621,7.841534 
	C1213.230225,6.754270 1217.088257,4.879267 1220.521484,2.683105 
	C1227.385864,2.000000 1234.771606,2.000000 1243.078735,2.000000 
z"/>
<path 
data-name="Tiko"
fill="#A35045" opacity="1.000000" stroke="none" 
	d="
M1700.573730,934.200256 
	C1705.494385,927.267944 1710.245239,920.204224 1715.441772,913.485229 
	C1716.949463,911.535950 1719.626343,910.357178 1721.954712,909.203369 
	C1727.140259,906.633850 1733.432983,905.921326 1736.304199,899.653748 
	C1736.782837,898.608582 1739.298584,898.664368 1740.584106,897.787842 
	C1743.774292,895.612549 1747.543091,893.729797 1749.701782,890.736145 
	C1752.503174,886.851440 1754.267090,882.660522 1758.670654,879.628418 
	C1763.284058,876.451721 1759.076416,872.743225 1756.468750,869.048401 
	C1765.550049,866.805359 1774.625122,867.561096 1783.722290,870.523376 
	C1794.459473,874.019836 1805.384521,876.967041 1816.304321,879.865417 
	C1823.287598,881.718994 1828.498169,885.531555 1830.479980,892.495117 
	C1833.148926,901.872620 1836.882202,910.600098 1843.013672,918.250549 
	C1843.536865,918.903381 1843.344971,920.129272 1843.519165,921.321228 
	C1840.648193,923.481628 1837.491943,925.340820 1835.065186,927.893433 
	C1833.790771,929.233887 1833.793823,931.788513 1833.219971,933.794861 
	C1835.023926,934.272888 1836.852051,935.218933 1838.626709,935.127502 
	C1841.911865,934.958374 1845.155762,934.108826 1848.434326,933.673340 
	C1856.659790,932.580688 1863.555908,935.135742 1868.905518,941.512695 
	C1869.980713,942.794556 1870.649048,944.417664 1870.752075,944.594177 
	C1888.644287,935.143982 1905.074707,926.605957 1921.338989,917.762634 
	C1924.778198,915.892700 1927.413452,912.584900 1930.777344,910.524353 
	C1934.057739,908.514771 1937.666992,906.731018 1941.371094,905.811279 
	C1945.083740,904.889465 1948.701050,905.880615 1950.310791,910.192078 
	C1950.654907,911.113464 1951.227173,911.982239 1951.833374,912.768127 
	C1962.102661,926.082642 1967.584961,923.605652 1975.980957,915.131165 
	C1979.672852,911.404785 1982.861572,907.078003 1985.742310,902.673035 
	C1990.439331,895.491211 1993.837280,894.116699 2001.430054,898.468018 
	C2005.680542,900.903931 2009.287231,904.487793 2013.099365,907.656250 
	C2016.670410,910.624084 2019.834229,914.188232 2023.705200,916.664734 
	C2030.051758,920.725159 2034.065308,919.628662 2037.650513,913.305603 
	C2043.388794,903.185791 2049.140381,893.058350 2054.378906,882.678223 
	C2056.263184,878.944702 2056.913330,874.515808 2057.716309,870.325562 
	C2059.000488,863.622375 2061.983887,861.036316 2068.688477,862.181458 
	C2073.904297,863.072327 2079.064209,864.438965 2084.141357,865.954590 
	C2090.653320,867.898682 2094.538086,872.397644 2093.633545,879.314575 
	C2091.997803,891.825745 2094.130615,903.677673 2098.704590,915.204895 
	C2100.521484,919.783203 2099.447021,923.727600 2096.848633,927.434814 
	C2089.616211,937.752625 2084.981934,949.137390 2084.691895,961.713440 
	C2084.462891,971.624878 2085.364502,981.595947 2086.299072,991.489990 
	C2087.015137,999.068420 2088.382080,1006.602417 2089.785889,1014.095154 
	C2092.601807,1029.128174 2098.317627,1033.651489 2113.413330,1034.293945 
	C2118.595703,1034.514404 2124.060059,1035.319336 2128.793457,1037.297729 
	C2137.365234,1040.880615 2139.188477,1050.734253 2133.319092,1057.919312 
	C2126.410400,1066.376709 2128.029785,1072.398071 2138.495117,1076.265015 
	C2142.517822,1077.751587 2146.822266,1078.460938 2150.891602,1079.840088 
	C2156.850098,1081.859741 2159.922607,1085.698486 2159.872314,1092.514038 
	C2159.794678,1102.999634 2158.250000,1112.955200 2153.606689,1122.462646 
	C2149.736084,1130.387451 2150.997803,1136.733887 2158.443115,1141.267456 
	C2165.546631,1145.592773 2168.617188,1150.959961 2168.410645,1159.178467 
	C2168.256592,1165.317871 2170.338623,1166.609131 2176.744629,1168.227417 
	C2180.127686,1169.082153 2183.256836,1170.942871 2187.250244,1172.174683 
	C2188.000000,1174.777832 2188.000000,1177.555542 2187.661133,1181.446289 
	C2187.181152,1182.817627 2186.954834,1183.066040 2186.923096,1183.337158 
	C2186.891846,1183.606812 2186.975098,1184.036987 2187.156982,1184.143799 
	C2187.344727,1184.254395 2187.711426,1184.060547 2188.000000,1184.000000 
	C2188.000000,1184.888916 2188.000000,1185.777832 2187.321777,1186.972168 
	C2178.670898,1196.486938 2171.706787,1205.949341 2176.009766,1219.342896 
	C2176.782959,1221.750732 2176.791504,1224.895630 2175.896240,1227.215332 
	C2174.921875,1229.740723 2172.898193,1232.660034 2170.577881,1233.664551 
	C2167.691406,1234.914062 2164.121338,1234.583496 2161.874268,1230.998535 
	C2160.228760,1228.373169 2157.967529,1226.133789 2155.083496,1222.633301 
	C2151.694092,1227.974121 2149.361816,1231.890503 2146.782959,1235.637329 
	C2144.665771,1238.713745 2141.667725,1242.217529 2137.896240,1240.170410 
	C2131.483887,1236.689941 2124.971680,1237.632446 2118.421875,1237.998657 
	C2114.379395,1238.224731 2111.329590,1237.173096 2108.827393,1233.985596 
	C2107.658447,1232.496460 2106.030518,1231.367920 2104.761963,1230.213501 
	C2096.622314,1233.956909 2096.350830,1234.000977 2097.439941,1240.711548 
	C2098.290039,1245.950928 2096.511230,1248.551025 2091.591064,1250.531616 
	C2088.572998,1251.746826 2084.401367,1254.875366 2084.180908,1257.439941 
	C2083.192871,1268.922852 2072.067139,1270.582764 2066.410156,1277.368530 
	C2056.695801,1276.903687 2051.498291,1283.192261 2046.549683,1290.235352 
	C2044.887817,1292.600708 2042.208008,1294.352295 2039.758301,1296.043945 
	C2031.056763,1302.052490 2026.641479,1310.900269 2023.838867,1320.581055 
	C2022.094482,1326.606445 2022.229004,1333.247437 2020.042114,1339.055542 
	C2016.998291,1347.139526 2017.658325,1354.707275 2020.579346,1362.321411 
	C2026.600952,1378.017944 2016.743286,1390.325928 2012.046143,1403.746460 
	C1994.960815,1419.573608 1980.892212,1424.858643 1960.116089,1409.207886 
	C1950.859131,1402.234375 1942.411743,1394.151978 1933.858643,1386.288330 
	C1925.496216,1378.600342 1919.242676,1377.767822 1909.958740,1383.813110 
	C1907.170044,1385.629028 1904.444336,1387.556396 1901.564331,1389.214844 
	C1890.057495,1395.841797 1879.341064,1397.631226 1867.918945,1387.674561 
	C1856.780762,1377.965332 1842.446533,1382.935181 1838.108398,1397.274658 
	C1833.534668,1412.393555 1833.403809,1427.966675 1834.994385,1443.599976 
	C1836.854126,1461.876587 1835.930542,1480.142578 1832.162109,1498.021362 
	C1828.550537,1515.156982 1823.090820,1518.087158 1805.588135,1515.265747 
	C1798.714600,1514.157715 1791.843384,1513.030884 1784.957153,1512.007202 
	C1777.647583,1510.920410 1771.509277,1512.417725 1766.036011,1518.197632 
	C1760.390259,1524.159424 1753.548218,1528.979126 1747.310669,1534.392212 
	C1739.755493,1540.948853 1731.994385,1547.435791 1730.126587,1558.080688 
	C1729.231445,1563.183228 1725.901245,1566.136353 1721.836060,1568.681885 
	C1708.828369,1576.826904 1698.519531,1587.244995 1693.061157,1602.002563 
	C1690.307251,1609.448364 1685.012695,1613.649170 1676.605957,1614.236450 
	C1663.630737,1615.142700 1657.910278,1621.414795 1659.959839,1634.599365 
	C1662.096069,1648.341309 1664.622925,1662.023560 1667.058472,1675.717773 
	C1668.494019,1683.788818 1668.976807,1692.110107 1663.687622,1698.687744 
	C1656.254883,1707.931152 1648.864868,1717.552979 1637.229980,1722.275879 
	C1634.805908,1723.259888 1632.609741,1724.805786 1629.828125,1725.481812 
	C1624.144287,1723.021729 1618.822266,1721.446411 1613.766235,1719.256958 
	C1606.798096,1716.239258 1601.234741,1719.029419 1599.942261,1726.621704 
	C1598.102661,1737.427368 1593.847412,1739.618896 1583.532837,1734.971191 
	C1576.258057,1731.693237 1569.017456,1728.338867 1561.781128,1724.976196 
	C1553.840454,1721.286133 1546.055542,1720.895996 1537.706421,1724.322144 
	C1521.468140,1730.985718 1520.800781,1730.367920 1509.955933,1716.095581 
	C1504.374756,1708.750244 1499.223999,1701.026123 1490.947021,1695.926025 
	C1484.510498,1691.960083 1478.975586,1686.546753 1472.945312,1681.899292 
	C1469.287842,1679.080566 1465.564575,1676.316040 1461.672974,1673.837769 
	C1448.041504,1665.156372 1431.262329,1662.156860 1419.519653,1649.922729 
	C1411.699829,1641.775635 1403.551270,1633.857178 1394.888306,1626.629150 
	C1384.974243,1618.356934 1374.905640,1609.983765 1363.843384,1603.450684 
	C1351.781738,1596.327271 1339.888184,1589.731201 1332.760254,1576.932495 
	C1331.856323,1575.309204 1328.297852,1574.634399 1325.916504,1574.507324 
	C1323.358398,1574.370605 1320.738281,1575.398315 1318.044922,1575.136841 
	C1314.922363,1562.080322 1312.328857,1549.677490 1308.734497,1537.572021 
	C1306.117798,1528.759644 1306.425659,1520.371216 1310.436157,1512.462769 
	C1314.029663,1505.376587 1312.693481,1498.894531 1309.781128,1492.455200 
	C1306.251099,1484.649902 1300.950928,1477.582886 1301.789307,1468.226807 
	C1301.965332,1466.261108 1299.636963,1464.176147 1298.874634,1462.001709 
	C1296.646729,1455.646362 1294.020020,1449.338135 1292.723145,1442.779419 
	C1291.731812,1437.765015 1292.526123,1432.397339 1292.526123,1424.849243 
	C1294.155518,1423.880371 1297.592773,1421.836548 1299.953613,1420.432739 
	C1298.298096,1414.505737 1297.252441,1410.762329 1296.171997,1406.894287 
	C1282.416992,1403.424683 1281.401489,1401.588867 1286.310791,1388.157593 
	C1282.038208,1384.378052 1281.359131,1379.414795 1281.840210,1373.789429 
	C1282.172241,1369.908447 1281.804077,1365.776489 1280.744507,1362.041626 
	C1280.140259,1359.911743 1277.661133,1356.995361 1275.780396,1356.800049 
	C1270.696899,1356.271973 1267.757080,1353.838501 1264.549316,1350.046143 
	C1259.987671,1344.653442 1256.399292,1345.488281 1252.880981,1351.386108 
	C1248.194214,1359.242798 1245.683838,1359.906494 1238.133789,1354.677490 
	C1235.511353,1352.861084 1233.379150,1350.336914 1230.621826,1347.761230 
	C1233.393921,1343.194214 1234.858887,1337.639526 1238.324097,1335.747192 
	C1244.857300,1332.179199 1245.971191,1327.079346 1246.421265,1320.835327 
	C1246.526123,1319.381714 1247.760864,1318.009399 1247.877075,1317.780396 
	C1237.207153,1315.943115 1226.146606,1314.169067 1215.156372,1312.033813 
	C1213.010254,1311.616821 1211.048584,1309.923096 1209.152954,1308.601562 
	C1202.060669,1303.657349 1195.030762,1298.623169 1187.627930,1293.042725 
	C1185.363770,1289.449341 1182.611572,1286.671753 1181.686523,1283.380493 
	C1178.466919,1271.924927 1175.493652,1260.368774 1173.167847,1248.703003 
	C1171.063477,1238.147461 1175.771851,1233.729492 1186.369873,1235.877319 
	C1193.166382,1237.254883 1199.748413,1239.672241 1206.530396,1241.145386 
	C1211.674438,1242.262573 1217.039795,1243.483643 1222.204956,1243.138306 
	C1231.715942,1242.502319 1241.124756,1239.830444 1250.683838,1242.908569 
	C1251.822998,1243.275269 1253.266357,1242.866577 1254.535278,1242.634399 
	C1262.652954,1241.149414 1270.773682,1239.675781 1278.870361,1238.081665 
	C1299.672485,1233.986084 1320.503784,1230.021484 1341.233521,1225.585205 
	C1347.805176,1224.178711 1349.601562,1221.110840 1349.698975,1213.968750 
	C1349.834839,1204.003052 1349.919678,1194.102539 1347.285034,1184.253052 
	C1345.120239,1176.160767 1345.169067,1167.796631 1348.840698,1159.851318 
	C1351.282471,1154.567749 1352.775024,1149.381836 1349.122192,1143.771362 
	C1348.018677,1142.076538 1348.293335,1139.235107 1348.508911,1136.973389 
	C1349.484497,1126.733154 1350.647949,1116.510620 1351.778076,1106.285400 
	C1352.382080,1100.820801 1354.397095,1099.179199 1359.796631,1101.093384 
	C1365.722168,1103.193970 1371.690918,1105.630737 1376.983643,1108.964355 
	C1388.348877,1116.122803 1400.955322,1118.629639 1413.900024,1119.898193 
	C1427.700073,1121.250488 1440.666138,1124.369751 1451.959229,1133.057983 
	C1454.256104,1134.824951 1458.308350,1136.039673 1460.944824,1135.312012 
	C1468.853271,1133.128906 1475.959717,1134.542358 1483.266724,1137.481079 
	C1490.586060,1140.424805 1498.140503,1142.783569 1505.758911,1145.457397 
	C1522.176758,1128.209595 1538.179443,1111.727539 1553.813721,1094.903320 
	C1584.188477,1062.216431 1614.375122,1029.354614 1644.602905,996.531311 
	C1662.646851,976.938110 1680.629639,957.288696 1698.597534,937.625793 
	C1699.465820,936.675415 1699.924316,935.350647 1700.573730,934.200256 
z"/>


<path 
data-name="West Coast"
fill="#8D6CA1" opacity="1.000000" stroke="none" 
	d="
M362.127960,1356.822876 
	C359.654022,1352.104614 355.265778,1352.747559 351.733307,1354.217896 
	C349.870697,1354.993042 349.147705,1358.506348 347.017212,1362.426147 
	C344.252380,1361.912476 340.040588,1361.119263 335.823334,1360.356445 
	C335.047119,1360.216064 333.832977,1359.830811 333.523560,1360.180542 
	C329.582581,1364.633179 325.254578,1361.698730 320.021973,1361.570068 
	C321.314819,1357.963013 322.301666,1355.209717 323.207062,1352.683594 
	C322.229156,1351.806030 321.665680,1350.934082 321.278625,1351.006348 
	C311.054871,1352.916870 310.376892,1352.291504 312.153717,1342.206421 
	C312.440674,1340.577637 313.005371,1338.995972 313.261932,1337.364258 
	C314.155518,1331.681274 313.097900,1329.888550 307.375519,1329.565186 
	C302.865234,1329.310425 299.588867,1327.451660 295.724182,1325.337158 
	C291.595367,1323.078247 285.670959,1324.101440 278.823456,1323.555908 
	C272.826202,1317.848267 265.351257,1311.249756 259.250366,1302.635376 
	C251.859253,1292.199341 242.148438,1283.269775 232.704498,1274.480103 
	C227.809525,1269.924316 223.689392,1263.483887 215.644089,1263.278931 
	C211.091400,1263.163086 206.550522,1262.589844 202.003860,1262.228394 
	C198.767700,1261.971069 195.243866,1262.410278 192.398758,1261.221558 
	C190.614075,1260.475586 189.368195,1257.424194 188.739899,1255.167969 
	C187.827393,1251.890869 187.690460,1248.397949 187.037628,1243.650513 
	C186.689346,1244.751587 186.734497,1244.401733 186.898331,1244.121338 
	C190.369003,1238.180908 192.804916,1231.115845 197.638123,1226.642334 
	C202.189575,1222.429688 209.270477,1220.949829 213.182571,1219.191650 
	C216.075470,1213.346924 218.114532,1209.657837 219.740280,1205.794678 
	C220.862854,1203.127075 221.556824,1200.249634 222.164139,1197.406494 
	C222.499512,1195.836426 221.573471,1193.544922 222.393082,1192.603271 
	C227.843506,1186.342041 224.531876,1180.258301 222.563553,1174.041138 
	C220.292969,1166.869507 216.740723,1159.751099 222.905426,1152.485840 
	C224.131592,1151.040771 223.653122,1148.010376 223.675568,1145.708252 
	C223.753510,1137.717041 223.705734,1129.724487 223.706192,1121.732544 
	C223.706299,1119.734497 223.302261,1117.634399 223.775635,1115.755371 
	C226.535599,1104.800781 225.869247,1094.643066 220.712524,1084.088257 
	C218.469559,1079.497314 220.986923,1072.936157 222.775299,1067.011597 
	C226.185959,1055.712769 236.593536,1047.425537 236.046524,1034.642456 
	C235.987396,1033.260620 237.306442,1031.551147 238.424820,1030.431885 
	C245.254196,1023.597534 249.828873,1015.866577 249.354309,1005.775757 
	C249.306793,1004.765442 250.921295,1003.762024 251.127670,1002.638428 
	C251.719223,999.417542 251.983353,996.136536 252.582458,991.169067 
	C255.949692,988.295349 260.513977,984.112854 262.666656,977.301270 
	C264.717926,970.810303 264.164856,965.405396 259.977020,960.624268 
	C257.636108,957.951843 255.842575,955.883972 256.674347,951.999817 
	C257.571838,947.808899 253.791931,946.574341 251.002777,944.906982 
	C248.700546,943.530579 246.389679,942.168640 243.372253,940.378906 
	C246.672058,937.306519 248.932083,935.399475 250.961716,933.272522 
	C255.529968,928.485352 255.587677,925.275635 251.257614,920.372009 
	C247.968063,916.646790 244.575378,913.012634 240.798431,908.865723 
	C244.558487,903.690186 244.896927,899.271240 240.699158,893.278076 
	C235.043961,885.203918 230.505463,876.797913 222.626236,870.102600 
	C216.996277,865.318542 216.265076,856.351501 217.558975,848.983398 
	C218.661606,842.704529 217.496002,837.701721 213.734558,833.314209 
	C208.772964,827.526672 203.847824,821.380676 197.765488,816.959045 
	C189.031815,810.609985 182.007492,802.997192 175.824631,794.345825 
	C169.849564,785.985291 164.350769,777.162781 157.474533,769.606262 
	C151.971069,763.558350 145.159256,758.382935 138.155090,754.078003 
	C116.391792,740.701782 94.507011,727.476807 72.139664,715.154724 
	C64.177856,710.768616 54.698154,709.137878 45.170998,706.228455 
	C44.302666,704.608521 44.174683,703.009460 44.243114,700.626587 
	C46.946087,700.689331 49.445553,701.557617 51.960361,702.378845 
	C64.533409,706.484314 75.508125,700.671387 78.343636,687.723694 
	C79.952393,680.377686 81.855453,674.030273 89.010353,669.800293 
	C91.610565,668.263062 92.718681,663.714417 93.883461,660.325195 
	C97.895714,648.650635 106.702347,642.215820 117.721626,638.388611 
	C121.098473,637.215759 125.487961,637.895203 126.700768,633.495850 
	C128.145737,628.254211 132.037506,623.710449 130.179535,617.470398 
	C127.267593,607.690552 129.350327,603.608093 138.634445,598.576111 
	C142.948700,596.237854 148.288513,594.873291 148.698242,588.739441 
	C148.881973,585.989136 149.349136,582.449646 147.946594,580.561890 
	C144.541702,575.978943 146.417831,572.592590 149.432693,568.056641 
	C158.967102,578.508972 168.382217,588.673889 177.624130,598.993774 
	C199.132401,623.010925 220.548874,647.110291 242.020660,671.160095 
	C249.105835,679.096008 256.622833,686.683228 263.230713,694.995544 
	C267.694855,700.611145 273.257446,704.012695 279.820801,705.240784 
	C297.193451,708.491272 314.140686,712.909607 330.745117,719.103027 
	C343.015930,723.679993 344.476318,722.691650 351.938171,711.433960 
	C354.847107,707.045288 357.245941,702.243896 359.319885,697.392273 
	C363.468140,687.688293 371.018982,682.937134 380.813843,679.832764 
	C392.407776,676.158203 402.892822,676.794128 414.673767,680.376892 
	C424.513855,683.369324 434.202362,685.996460 443.390900,690.774963 
	C446.289032,692.282227 450.878601,692.560791 453.911469,691.384277 
	C461.308533,688.514832 466.793213,691.237671 472.304382,695.460754 
	C477.313324,699.299072 482.188629,703.377869 487.524811,706.706116 
	C493.985077,710.735535 500.602722,714.746582 507.631439,717.574768 
	C517.592712,721.582825 524.974792,728.246399 531.538879,736.420044 
	C536.914001,743.113281 542.474731,749.776550 548.766357,755.570129 
	C552.543579,759.048462 557.684570,761.329285 562.564331,763.258728 
	C569.451904,765.982117 574.995178,770.146118 577.619629,776.937866 
	C580.948914,785.553894 587.324219,791.129517 594.505249,796.042603 
	C606.442505,804.209595 619.329468,810.301331 633.940308,811.608032 
	C640.531433,812.197571 645.794189,815.120483 651.291504,818.436096 
	C657.764771,822.340271 664.894348,825.166626 671.778564,828.376038 
	C677.495850,831.041260 684.052246,832.589050 688.867920,836.373779 
	C701.754089,846.501404 716.096130,849.489990 731.939941,848.104065 
	C738.227905,847.554077 744.569153,847.517029 750.888550,847.438965 
	C790.495544,846.949463 830.103333,846.514160 870.550598,846.749817 
	C852.865845,883.582703 834.426086,919.770691 815.727600,955.824524 
	C812.838562,961.394958 809.017395,966.544373 805.190430,971.554871 
	C790.242249,991.126343 775.272156,1010.684998 760.017029,1030.017090 
	C744.571838,1049.590210 730.728455,1070.422363 713.037170,1088.239258 
	C696.147766,1105.248413 679.899902,1122.893555 663.297302,1140.189453 
	C657.090942,1146.655029 651.190796,1153.552490 644.276428,1159.177979 
	C605.297546,1190.891235 566.157410,1222.409058 526.839661,1253.701294 
	C513.589050,1264.247314 500.193878,1274.784302 485.917053,1283.829468 
	C462.033142,1298.961670 437.426941,1312.958618 413.049286,1327.305176 
	C396.141083,1337.255859 379.106232,1346.991333 362.127960,1356.822876 
z"/>
<path 
data-name="Limbé III"
fill="#F4BC56" opacity="1.000000" stroke="none" 
	d="
M1493.243652,1911.935547 
	C1492.076904,1911.295898 1491.741089,1910.460449 1491.237305,1910.342285 
	C1470.958008,1905.593018 1458.713867,1889.351929 1443.487183,1877.192261 
	C1436.290527,1879.339600 1429.466675,1881.359497 1422.117188,1875.559448 
	C1393.442383,1852.929443 1364.248657,1830.935547 1338.099121,1805.308960 
	C1313.103027,1780.812622 1296.757935,1750.924683 1285.597778,1718.153076 
	C1283.583374,1712.237427 1284.829712,1705.139038 1284.958740,1698.594360 
	C1285.029175,1695.018311 1285.912354,1691.458374 1286.535034,1687.160156 
	C1276.951904,1684.073364 1267.977173,1680.707031 1258.741089,1678.377319 
	C1252.738647,1676.863159 1247.919800,1679.985596 1244.413086,1685.098022 
	C1240.415649,1690.926025 1240.420410,1690.644043 1234.287842,1687.800415 
	C1228.080078,1684.921875 1221.542969,1682.757202 1215.313354,1679.920898 
	C1210.242554,1677.612305 1205.412964,1674.773682 1199.886719,1671.859009 
	C1197.668213,1673.267456 1192.708984,1671.242432 1191.067261,1676.188477 
	C1189.147095,1681.972534 1191.938965,1690.931641 1197.559204,1693.639771 
	C1202.867188,1696.197632 1205.408936,1698.362183 1203.021240,1704.955688 
	C1201.762573,1708.431396 1203.991211,1713.169922 1204.718018,1717.801758 
	C1198.241333,1720.131836 1192.586670,1723.102539 1186.183472,1721.420654 
	C1180.136108,1719.832397 1174.265259,1717.572021 1167.785278,1715.431641 
	C1165.609009,1721.946289 1161.619263,1723.730347 1156.392212,1720.868042 
	C1152.563110,1724.946655 1148.867920,1728.882568 1144.056274,1734.007812 
	C1143.812622,1738.312256 1143.400391,1744.237793 1138.365601,1748.989868 
	C1133.973999,1753.134644 1136.078613,1758.118530 1138.670654,1762.657227 
	C1140.381470,1765.653076 1143.956665,1768.181641 1140.918945,1773.042847 
	C1133.190430,1770.820557 1128.635254,1776.841553 1123.300659,1780.951172 
	C1119.915405,1783.558960 1116.996338,1786.775269 1113.890625,1789.741943 
	C1108.201782,1795.176270 1105.272949,1795.266479 1099.237061,1790.781738 
	C1092.920654,1786.088257 1086.301392,1781.800659 1080.015869,1777.068237 
	C1077.382812,1775.085938 1074.915649,1772.666016 1073.012085,1769.990479 
	C1070.902466,1767.025513 1070.822876,1764.220215 1074.669067,1761.703613 
	C1081.954468,1756.935913 1083.551147,1748.740112 1077.375610,1743.897827 
	C1071.440674,1739.243896 1070.041138,1733.226196 1068.378052,1726.859375 
	C1067.978271,1725.329102 1067.526367,1723.812378 1066.730957,1720.981445 
	C1061.205566,1723.719360 1056.321777,1726.139282 1050.855103,1728.848022 
	C1050.365967,1727.837769 1049.713501,1726.489990 1049.230957,1725.493286 
	C1042.026123,1726.356567 1034.951660,1727.204224 1027.461670,1728.101562 
	C1023.702087,1721.572754 1027.137939,1710.256836 1014.993713,1709.198853 
	C1013.311584,1715.871826 1013.277954,1721.973755 1019.260193,1726.778809 
	C1019.994934,1727.368896 1020.330688,1728.447754 1020.874023,1729.285400 
	C1025.944092,1737.101196 1024.665771,1740.246094 1015.179993,1743.008789 
	C1013.573730,1748.978760 1017.657471,1751.318970 1022.933105,1753.121338 
	C1017.188232,1761.352173 1007.437988,1758.209961 1001.553040,1763.020264 
	C999.367371,1759.866699 997.312927,1756.902466 995.173584,1753.815796 
	C995.518127,1750.428589 995.908020,1746.595093 996.363098,1742.121094 
	C979.535522,1741.285767 980.751221,1726.360107 974.801453,1716.601440 
	C979.321167,1711.398438 982.545837,1704.322021 992.739197,1705.607544 
	C991.549316,1700.745850 991.016541,1696.892212 989.661072,1693.353638 
	C985.995239,1683.783813 986.309021,1682.118774 994.478271,1675.908081 
	C996.027771,1674.730103 997.697876,1673.710815 998.646912,1673.068604 
	C998.402527,1664.614868 998.038086,1656.852417 997.997375,1649.088257 
	C997.964111,1642.741455 996.155273,1637.418091 991.048889,1633.301270 
	C986.781738,1629.861206 984.559204,1625.442383 983.357422,1619.836548 
	C982.292358,1614.868286 979.010559,1610.314941 976.388672,1605.762085 
	C974.677429,1602.790527 973.761902,1600.332397 977.874207,1598.105225 
	C980.929749,1599.968750 984.220093,1601.975464 988.039734,1604.305176 
	C994.342346,1599.436890 1000.441406,1594.591797 999.730957,1584.303101 
	C1019.437073,1578.629883 1038.439087,1573.789062 1057.454834,1569.003784 
	C1059.699341,1568.439087 1062.007324,1567.931396 1064.307373,1567.812744 
	C1089.224487,1566.527832 1114.136597,1564.651489 1139.069092,1564.302979 
	C1161.338135,1563.991821 1183.656494,1564.933594 1205.905762,1566.173340 
	C1226.142090,1567.300781 1246.315430,1569.565186 1266.515137,1571.342651 
	C1283.726074,1572.857178 1300.935181,1574.392090 1318.145142,1575.917969 
	C1320.738281,1575.398315 1323.358398,1574.370605 1325.916504,1574.507324 
	C1328.297852,1574.634399 1331.856323,1575.309204 1332.760254,1576.932495 
	C1339.888184,1589.731201 1351.781738,1596.327271 1363.843384,1603.450684 
	C1374.905640,1609.983765 1384.974243,1618.356934 1394.888306,1626.629150 
	C1403.551270,1633.857178 1411.699829,1641.775635 1419.519653,1649.922729 
	C1431.262329,1662.156860 1448.041504,1665.156372 1461.672974,1673.837769 
	C1465.564575,1676.316040 1469.287842,1679.080566 1472.945312,1681.899292 
	C1478.975586,1686.546753 1484.510498,1691.960083 1490.947021,1695.926025 
	C1499.223999,1701.026123 1504.374756,1708.750244 1509.955933,1716.095581 
	C1520.800781,1730.367920 1521.468140,1730.985718 1537.706421,1724.322144 
	C1546.055542,1720.895996 1553.840454,1721.286133 1561.781128,1724.976196 
	C1569.017456,1728.338867 1576.258057,1731.693237 1583.532837,1734.971191 
	C1593.847412,1739.618896 1598.102661,1737.427368 1599.942261,1726.621704 
	C1601.234741,1719.029419 1606.798096,1716.239258 1613.766235,1719.256958 
	C1618.822266,1721.446411 1624.144287,1723.021729 1629.828125,1725.481812 
	C1629.745850,1733.276367 1628.272705,1740.236572 1633.125488,1747.109985 
	C1636.565918,1751.983032 1634.377075,1760.405273 1629.241333,1771.078979 
	C1622.365479,1771.897095 1615.321045,1772.735229 1608.092896,1773.595215 
	C1607.305908,1783.495728 1609.896729,1793.505005 1597.593628,1798.123413 
	C1601.840210,1800.721069 1604.814331,1802.540405 1607.667480,1804.285645 
	C1609.291992,1810.381104 1607.974121,1815.373901 1604.164185,1820.246582 
	C1594.629639,1832.440796 1587.683472,1845.876099 1585.933960,1861.584839 
	C1584.360962,1875.708008 1575.578613,1880.072998 1563.544434,1880.021729 
	C1558.822632,1880.001587 1553.627930,1883.179932 1549.477661,1886.085693 
	C1545.010986,1889.213135 1540.970215,1892.648438 1535.186523,1891.425537 
	C1522.548218,1888.752808 1514.751709,1896.378540 1507.012939,1904.282349 
	C1504.945923,1906.393311 1502.841187,1908.467163 1500.447388,1911.136597 
	C1498.092773,1911.834961 1496.044556,1911.954590 1493.243652,1911.935547 
z"/>
<path 
data-name="Buea"
fill="#6DF763" opacity="1.000000" stroke="none" 
	d="
M362.093079,1357.461914 
	C379.106232,1346.991333 396.141083,1337.255859 413.049286,1327.305176 
	C437.426941,1312.958618 462.033142,1298.961670 485.917053,1283.829468 
	C500.193878,1274.784302 513.589050,1264.247314 526.839661,1253.701294 
	C566.157410,1222.409058 605.297546,1190.891235 644.276428,1159.177979 
	C651.190796,1153.552490 657.090942,1146.655029 663.297302,1140.189453 
	C679.899902,1122.893555 696.147766,1105.248413 713.037170,1088.239258 
	C730.728455,1070.422363 744.571838,1049.590210 760.017029,1030.017090 
	C775.272156,1010.684998 790.242249,991.126343 805.190430,971.554871 
	C809.017395,966.544373 812.838562,961.394958 815.727600,955.824524 
	C834.426086,919.770691 852.865845,883.582703 871.458008,846.768188 
	C891.867188,787.087830 912.155212,728.059265 932.565247,669.072998 
	C953.086731,609.764832 973.729614,550.498779 994.719238,490.676086 
	C1078.738037,544.797913 1162.354614,599.461182 1245.976440,654.116394 
	C1281.935059,677.618835 1317.788940,701.285583 1353.972290,724.436829 
	C1360.778931,728.791992 1362.748291,733.552612 1360.856689,740.944214 
	C1359.715942,745.401062 1359.245361,750.029419 1358.522217,754.294495 
	C1364.234741,760.486023 1370.814087,762.576416 1378.956177,760.145081 
	C1380.521484,763.132019 1381.958374,765.701233 1383.237305,768.346741 
	C1386.923706,775.972961 1385.638428,779.156616 1377.458618,781.071777 
	C1373.286621,782.048584 1368.838257,781.774231 1364.568848,782.421082 
	C1356.864258,783.588379 1354.895630,786.802063 1357.324341,794.248413 
	C1358.245483,797.072693 1359.776733,799.696777 1361.014160,802.419250 
	C1364.734497,810.604919 1367.023560,819.012756 1368.553589,828.029846 
	C1371.043701,842.704834 1375.830566,856.998962 1379.877075,871.389404 
	C1380.360962,873.110291 1382.206421,874.490723 1383.533203,875.924927 
	C1390.904907,883.893066 1389.952759,892.468445 1381.781250,899.622253 
	C1376.058594,904.632202 1370.831299,910.336182 1366.072266,916.282104 
	C1361.489014,922.008118 1364.123657,927.434631 1371.467651,927.967773 
	C1375.072876,928.229492 1378.764160,927.555115 1382.397217,927.136230 
	C1392.859985,925.929688 1401.671265,927.397888 1408.378662,937.290466 
	C1413.453125,944.774658 1418.776733,952.735718 1428.429077,955.929932 
	C1434.320801,957.879700 1439.923462,959.055176 1445.902344,956.720398 
	C1449.613037,955.271301 1453.420654,954.072693 1457.166748,952.711975 
	C1464.450806,950.066406 1469.550781,945.245911 1472.430664,937.937500 
	C1474.549194,932.561523 1478.130005,929.695435 1484.097046,927.210938 
	C1497.948730,921.443420 1513.714478,918.487122 1523.686035,905.349548 
	C1525.218506,903.330750 1527.753906,901.699768 1530.165283,900.781372 
	C1547.638306,894.126282 1561.115234,881.445740 1575.910645,870.764343 
	C1586.902100,862.829041 1594.474365,864.733032 1600.301636,877.033630 
	C1601.582275,879.737122 1602.704834,882.596313 1604.447144,884.984924 
	C1609.363159,891.725098 1615.899658,895.302185 1624.330444,892.753723 
	C1629.436890,891.210144 1633.374756,891.437866 1636.268433,896.430054 
	C1642.057373,906.417175 1650.500366,907.863220 1661.091187,904.986938 
	C1670.812744,902.346619 1674.233032,905.242493 1675.804565,915.468567 
	C1676.107788,917.441833 1676.152588,919.455383 1676.468628,921.426025 
	C1677.897827,930.341370 1678.768555,930.566528 1688.172729,930.233582 
	C1691.817993,930.104614 1695.545044,932.281738 1699.904175,933.804260 
	C1699.924316,935.350647 1699.465820,936.675415 1698.597534,937.625793 
	C1680.629639,957.288696 1662.646851,976.938110 1644.602905,996.531311 
	C1614.375122,1029.354614 1584.188477,1062.216431 1553.813721,1094.903320 
	C1538.179443,1111.727539 1522.176758,1128.209595 1505.758911,1145.457397 
	C1498.140503,1142.783569 1490.586060,1140.424805 1483.266724,1137.481079 
	C1475.959717,1134.542358 1468.853271,1133.128906 1460.944824,1135.312012 
	C1458.308350,1136.039673 1454.256104,1134.824951 1451.959229,1133.057983 
	C1440.666138,1124.369751 1427.700073,1121.250488 1413.900024,1119.898193 
	C1400.955322,1118.629639 1388.348877,1116.122803 1376.983643,1108.964355 
	C1371.690918,1105.630737 1365.722168,1103.193970 1359.796631,1101.093384 
	C1354.397095,1099.179199 1352.382080,1100.820801 1351.778076,1106.285400 
	C1350.647949,1116.510620 1349.484497,1126.733154 1348.508911,1136.973389 
	C1348.293335,1139.235107 1348.018677,1142.076538 1349.122192,1143.771362 
	C1352.775024,1149.381836 1351.282471,1154.567749 1348.840698,1159.851318 
	C1345.169067,1167.796631 1345.120239,1176.160767 1347.285034,1184.253052 
	C1349.919678,1194.102539 1349.834839,1204.003052 1349.698975,1213.968750 
	C1349.601562,1221.110840 1347.805176,1224.178711 1341.233521,1225.585205 
	C1320.503784,1230.021484 1299.672485,1233.986084 1278.870361,1238.081665 
	C1270.773682,1239.675781 1262.652954,1241.149414 1254.535278,1242.634399 
	C1253.266357,1242.866577 1251.822998,1243.275269 1250.683838,1242.908569 
	C1241.124756,1239.830444 1231.715942,1242.502319 1222.204956,1243.138306 
	C1217.039795,1243.483643 1211.674438,1242.262573 1206.530396,1241.145386 
	C1199.748413,1239.672241 1193.166382,1237.254883 1186.369873,1235.877319 
	C1175.771851,1233.729492 1171.063477,1238.147461 1173.167847,1248.703003 
	C1175.493652,1260.368774 1178.466919,1271.924927 1181.686523,1283.380493 
	C1182.611572,1286.671753 1185.363770,1289.449341 1186.940674,1293.275391 
	C1145.907471,1312.252563 1105.246704,1330.495239 1064.493408,1348.529053 
	C1053.621338,1353.339966 1043.087524,1359.208496 1030.682983,1359.717651 
	C1019.397644,1360.180664 1008.124207,1361.082275 996.866577,1362.037964 
	C982.648132,1363.244995 968.450928,1364.702881 953.330261,1366.013672 
	C938.928650,1367.652466 925.098389,1367.994751 912.041565,1371.348389 
	C895.997925,1375.469238 880.598083,1382.098755 864.923340,1387.653076 
	C817.271851,1404.538940 769.649353,1421.507690 721.923584,1438.180786 
	C717.714111,1439.651367 712.728760,1440.050171 708.282471,1439.500854 
	C685.229126,1436.652588 662.252380,1433.190186 639.213135,1430.219849 
	C615.837952,1427.206177 592.398132,1424.691650 569.028198,1421.640137 
	C541.386963,1418.031006 513.790771,1414.076416 486.173676,1410.281982 
	C481.431335,1409.630371 476.880219,1409.655396 473.782227,1414.217041 
	C452.069305,1403.781494 430.317871,1393.424927 408.662292,1382.871948 
	C399.898560,1378.601318 390.699249,1376.452881 381.040680,1376.011841 
	C376.040558,1375.783325 372.579895,1373.881958 370.203461,1369.033203 
	C368.237457,1365.021973 364.828064,1361.718262 362.093079,1357.461914 
z"/>
<path 
data-name="Limbé I"
fill="#66E9F9" opacity="1.000000" stroke="none" 
	d="
M954.244568,1366.052490 
	C968.450928,1364.702881 982.648132,1363.244995 996.866577,1362.037964 
	C1008.124207,1361.082275 1019.397644,1360.180664 1030.682983,1359.717651 
	C1043.087524,1359.208496 1053.621338,1353.339966 1064.493408,1348.529053 
	C1105.246704,1330.495239 1145.907471,1312.252563 1187.290283,1293.855469 
	C1195.030762,1298.623169 1202.060669,1303.657349 1209.152954,1308.601562 
	C1211.048584,1309.923096 1213.010254,1311.616821 1215.156372,1312.033813 
	C1226.146606,1314.169067 1237.207153,1315.943115 1247.877075,1317.780396 
	C1247.760864,1318.009399 1246.526123,1319.381714 1246.421265,1320.835327 
	C1245.971191,1327.079346 1244.857300,1332.179199 1238.324097,1335.747192 
	C1234.858887,1337.639526 1233.393921,1343.194214 1230.621826,1347.761230 
	C1233.379150,1350.336914 1235.511353,1352.861084 1238.133789,1354.677490 
	C1245.683838,1359.906494 1248.194214,1359.242798 1252.880981,1351.386108 
	C1256.399292,1345.488281 1259.987671,1344.653442 1264.549316,1350.046143 
	C1267.757080,1353.838501 1270.696899,1356.271973 1275.780396,1356.800049 
	C1277.661133,1356.995361 1280.140259,1359.911743 1280.744507,1362.041626 
	C1281.804077,1365.776489 1282.172241,1369.908447 1281.840210,1373.789429 
	C1281.359131,1379.414795 1282.038208,1384.378052 1286.310791,1388.157593 
	C1281.401489,1401.588867 1282.416992,1403.424683 1296.171997,1406.894287 
	C1297.252441,1410.762329 1298.298096,1414.505737 1299.953613,1420.432739 
	C1297.592773,1421.836548 1294.155518,1423.880371 1292.526123,1424.849243 
	C1292.526123,1432.397339 1291.731812,1437.765015 1292.723145,1442.779419 
	C1294.020020,1449.338135 1296.646729,1455.646362 1298.874634,1462.001709 
	C1299.636963,1464.176147 1301.965332,1466.261108 1301.789307,1468.226807 
	C1300.950928,1477.582886 1306.251099,1484.649902 1309.781128,1492.455200 
	C1312.693481,1498.894531 1314.029663,1505.376587 1310.436157,1512.462769 
	C1306.425659,1520.371216 1306.117798,1528.759644 1308.734497,1537.572021 
	C1312.328857,1549.677490 1314.922363,1562.080322 1318.044922,1575.136841 
	C1300.935181,1574.392090 1283.726074,1572.857178 1266.515137,1571.342651 
	C1246.315430,1569.565186 1226.142090,1567.300781 1205.905762,1566.173340 
	C1183.656494,1564.933594 1161.338135,1563.991821 1139.069092,1564.302979 
	C1114.136597,1564.651489 1089.224487,1566.527832 1064.307373,1567.812744 
	C1062.007324,1567.931396 1059.699341,1568.439087 1057.454834,1569.003784 
	C1038.439087,1573.789062 1019.437073,1578.629883 999.746338,1583.613892 
	C996.966553,1576.848755 990.696411,1574.290771 985.369995,1570.792358 
	C982.325684,1568.792847 979.102600,1567.065552 975.758789,1563.780273 
	C971.783752,1527.983032 967.978699,1493.624634 964.245483,1459.258545 
	C960.870972,1428.194336 957.575134,1397.121460 954.244568,1366.052490 
z"/>
<path 
data-name="Limbé II"
fill="#5E8235" opacity="1.000000" stroke="none" 
	d="
M953.330261,1366.013672 
	C957.575134,1397.121460 960.870972,1428.194336 964.245483,1459.258545 
	C967.978699,1493.624634 971.783752,1527.983032 975.426208,1563.132080 
	C970.341064,1561.066528 965.290100,1558.655151 960.535156,1555.130127 
	C954.392700,1550.576538 945.420044,1548.970093 938.178833,1554.561646 
	C932.561707,1558.899170 925.410339,1556.213135 919.799988,1559.786499 
	C919.204651,1560.165771 917.378601,1559.033081 916.368408,1558.275269 
	C906.794006,1551.092285 896.965515,1553.173706 887.103577,1557.424927 
	C883.827515,1558.837280 880.666382,1560.516113 877.027832,1562.278931 
	C875.380554,1559.365723 874.109619,1557.118042 872.863647,1554.914429 
	C869.210022,1555.576416 865.488098,1556.422974 861.719116,1556.887451 
	C857.557739,1557.400391 855.435608,1559.703613 854.052673,1563.533691 
	C852.619751,1567.502441 850.182556,1568.894531 845.461914,1567.083984 
	C842.581665,1565.979370 838.657166,1567.983032 835.229797,1567.852539 
	C819.880676,1567.268433 804.541687,1566.419678 788.863708,1565.649902 
	C786.478271,1561.367065 782.353210,1558.070312 783.948547,1551.394287 
	C785.186829,1546.212524 780.579407,1544.259644 774.952087,1542.598755 
	C764.240601,1539.437256 753.270081,1544.890747 744.752930,1540.805420 
	C738.815308,1543.435059 734.462769,1545.362671 728.892090,1547.829712 
	C728.768677,1550.931152 721.403076,1554.309937 727.653564,1560.074829 
	C721.826050,1561.676514 717.665283,1564.515991 718.084290,1572.836426 
	C716.459778,1569.989624 715.860901,1568.940063 715.064758,1567.545044 
	C711.393616,1574.332397 704.733215,1572.891235 699.907776,1571.375122 
	C694.907959,1569.804077 690.456238,1565.474609 686.712036,1561.466675 
	C685.386780,1560.048096 686.852234,1556.022339 687.097473,1552.389648 
	C682.926880,1551.466431 678.510864,1550.488770 674.466248,1549.593384 
	C667.639282,1559.643188 664.100769,1560.669922 655.926697,1553.579224 
	C649.127441,1547.681152 640.415649,1547.030640 632.898865,1543.245483 
	C625.686951,1539.613770 624.427673,1537.965210 625.764343,1529.455444 
	C621.151672,1525.755737 616.291626,1522.296875 611.971863,1518.259888 
	C608.221863,1514.755371 604.680359,1511.435913 603.404846,1505.465698 
	C602.421631,1500.863403 597.675049,1496.621216 593.770081,1493.156250 
	C557.912720,1461.340698 516.307861,1438.262207 474.208801,1414.762939 
	C476.880219,1409.655396 481.431335,1409.630371 486.173676,1410.281982 
	C513.790771,1414.076416 541.386963,1418.031006 569.028198,1421.640137 
	C592.398132,1424.691650 615.837952,1427.206177 639.213135,1430.219849 
	C662.252380,1433.190186 685.229126,1436.652588 708.282471,1439.500854 
	C712.728760,1440.050171 717.714111,1439.651367 721.923584,1438.180786 
	C769.649353,1421.507690 817.271851,1404.538940 864.923340,1387.653076 
	C880.598083,1382.098755 895.997925,1375.469238 912.041565,1371.348389 
	C925.098389,1367.994751 938.928650,1367.652466 953.330261,1366.013672 
z"/>
</svg>