<svg version="1.1" id="Layer_1" xmlns="http://www.w3.org/2000/svg" xmlns:xlink="http://www.w3.org/1999/xlink" x="0px" y="0px"
	 width="100%" viewBox="0 0 2237 2818" enable-background="new 0 0 2237 2818" xml:space="preserve">
<path data-name="Yabassi" fill="#E3B55F" opacity="1.000000" stroke="none" 
	d="
M98.016518,1655.693359 
	C97.967590,1654.183350 97.918671,1652.673462 98.556870,1649.824707 
	C99.490852,1641.651978 99.737724,1634.817993 100.291931,1627.280762 
	C103.339882,1624.987427 106.080505,1623.397339 108.414474,1622.043213 
	C109.533928,1612.922363 103.880600,1604.605957 108.001350,1595.945312 
	C108.497177,1594.903076 106.813538,1592.979248 106.550438,1591.395874 
	C104.643654,1579.920776 99.808258,1568.600342 105.105789,1556.726562 
	C105.921913,1554.897461 105.071175,1552.274536 104.835342,1550.035156 
	C104.039703,1542.480591 102.493530,1534.930054 102.531090,1527.384399 
	C102.566765,1520.220337 106.026100,1514.585938 112.499474,1510.234863 
	C120.715424,1504.712646 128.735687,1498.532349 135.593262,1491.431519 
	C150.346725,1476.154663 164.356232,1460.155762 178.565308,1444.358154 
	C188.028793,1433.836792 198.757370,1427.861206 213.732269,1430.880615 
	C228.200684,1433.797607 240.003204,1426.363770 242.665924,1411.108154 
	C244.716461,1399.359863 249.285324,1387.948853 261.488434,1382.119507 
	C262.937592,1381.427246 264.152985,1380.149658 265.324799,1378.989990 
	C269.746399,1374.614014 274.643860,1371.700317 281.250610,1372.215332 
	C286.325623,1372.610718 289.759277,1370.165649 292.552246,1365.652832 
	C294.537262,1362.445557 297.918213,1359.722778 301.262512,1357.807617 
	C311.291901,1352.063965 321.325500,1346.175781 331.885010,1341.547607 
	C345.344696,1335.648438 356.332245,1325.858398 369.283844,1319.259521 
	C370.736450,1318.519287 371.875427,1317.187012 373.235077,1316.236694 
	C377.813934,1313.036133 382.173431,1309.405762 387.076996,1306.808350 
	C399.089478,1300.445312 411.408844,1294.664551 423.508484,1288.461670 
	C432.202148,1284.005005 438.706787,1285.092163 446.086639,1291.401367 
	C456.409668,1300.226807 467.190826,1308.408203 479.654968,1314.273071 
	C491.567963,1319.878784 503.089050,1326.317505 515.644409,1332.837646 
	C510.741882,1342.777344 505.656158,1351.781128 496.536163,1357.589355 
	C493.799042,1359.332520 490.796631,1360.776123 491.854889,1364.165283 
	C494.384094,1372.265503 492.961761,1379.724121 490.049591,1387.356445 
	C489.460571,1388.900269 490.734070,1392.292725 492.157318,1393.140991 
	C493.536743,1393.963379 496.846741,1393.310669 498.210541,1392.084473 
	C503.587128,1387.249390 509.485016,1387.172607 515.972046,1388.730225 
	C518.111084,1389.243774 520.492188,1389.128296 522.710022,1388.862183 
	C528.955994,1388.112793 535.202515,1387.294800 541.396729,1386.207153 
	C548.869080,1384.895142 555.488098,1382.234985 558.187134,1374.117554 
	C560.153870,1368.202759 562.635315,1362.437988 564.251892,1356.435181 
	C565.381653,1352.240234 567.256409,1349.360352 571.294861,1347.537476 
	C575.131958,1345.805542 578.678223,1343.429077 582.113037,1341.472412 
	C579.169495,1329.487915 583.549316,1319.936157 594.056824,1315.746704 
	C598.682739,1313.902222 601.871948,1311.145630 604.410095,1307.101685 
	C609.780518,1298.544800 613.195801,1289.516357 613.870911,1279.221558 
	C614.296997,1272.724487 615.687927,1265.946045 618.287354,1260.012939 
	C622.670959,1250.007446 628.841248,1240.943604 636.461548,1232.911377 
	C642.044373,1227.026733 647.161987,1220.700562 652.756287,1214.261108 
	C665.816711,1229.597046 678.075195,1243.991211 690.152649,1259.092773 
	C684.991943,1264.354492 682.820129,1269.869019 683.571167,1276.697632 
	C683.893616,1279.629272 683.541626,1282.714355 683.020264,1285.645142 
	C681.115540,1296.352417 681.863403,1306.151978 691.415100,1313.371338 
	C691.853027,1313.702393 691.881104,1314.575684 692.185974,1315.439819 
	C689.356262,1320.303711 688.745483,1325.549561 692.862427,1330.017456 
	C695.712646,1333.110718 699.167908,1335.896729 702.846802,1337.923218 
	C710.112061,1341.924683 710.194092,1341.956177 708.449585,1350.328125 
	C707.311096,1355.791504 705.845459,1361.531250 706.489563,1366.912109 
	C706.999634,1371.174072 706.977356,1374.518921 704.783020,1378.147095 
	C703.919495,1379.574829 704.174316,1381.678833 703.667603,1385.256226 
	C713.591125,1381.163818 723.818237,1384.081543 731.521667,1375.918335 
	C733.492371,1373.829834 739.237122,1373.786743 742.621094,1374.832520 
	C752.767944,1377.968384 762.561279,1382.229126 772.578430,1385.810425 
	C778.919617,1388.077271 783.401489,1392.027100 786.105835,1398.222900 
	C788.862976,1404.539673 792.924805,1409.421875 800.163818,1411.175293 
	C805.616333,1412.496216 810.994080,1414.309692 816.205750,1416.400757 
	C825.726013,1420.220703 835.130371,1424.337769 844.497314,1428.522705 
	C845.822876,1429.114990 846.666321,1430.786133 848.152649,1432.419067 
	C839.705444,1443.094116 829.449341,1451.903442 824.206299,1464.339600 
	C823.968018,1464.904785 823.294067,1465.294922 822.801270,1465.742554 
	C814.919617,1472.904541 807.228943,1480.295166 799.067871,1487.123413 
	C795.009460,1490.518921 792.225098,1494.243530 791.251160,1499.403931 
	C790.354858,1504.152954 788.091125,1507.983276 784.077881,1510.935913 
	C779.800354,1514.083252 776.267273,1518.474976 771.658203,1520.890503 
	C762.183533,1525.855957 756.796814,1534.711914 750.019470,1542.157715 
	C744.739929,1547.958008 739.530457,1552.959717 731.689026,1555.160156 
	C724.997559,1557.037964 723.278259,1565.098267 728.279663,1570.053589 
	C731.307312,1573.053345 735.010864,1575.369751 738.401245,1578.005127 
	C739.585754,1578.925903 741.368103,1579.654663 741.808838,1580.861328 
	C744.588562,1588.470459 750.124878,1594.571777 751.897705,1602.977417 
	C753.776855,1611.887817 759.934021,1613.544434 767.817444,1608.531616 
	C771.962280,1605.895996 775.446899,1602.130371 778.951233,1598.598877 
	C785.951111,1591.545166 792.893555,1584.422485 799.549744,1577.048584 
	C801.168213,1575.255859 802.111694,1572.451172 802.453308,1569.985474 
	C803.413940,1563.050781 806.348938,1557.481079 811.825867,1553.043823 
	C816.469055,1549.281982 820.931274,1545.266602 825.196167,1541.080688 
	C827.264343,1539.050659 828.941284,1536.509277 830.365845,1533.959351 
	C833.419678,1528.493408 835.941040,1522.720215 839.148071,1517.352295 
	C843.071106,1510.785889 848.190491,1504.855347 851.519287,1498.028931 
	C858.560486,1483.590210 867.288879,1470.548462 878.489258,1458.984497 
	C883.995972,1453.299072 889.615967,1447.172241 893.088867,1440.201172 
	C897.953796,1430.435791 903.754883,1422.159180 912.427490,1415.350708 
	C920.722778,1408.838867 929.771729,1402.270630 933.066772,1391.532837 
	C936.319702,1380.932251 942.768127,1372.571411 950.169739,1364.947754 
	C956.588989,1358.335938 961.096985,1350.946045 964.481262,1342.435303 
	C968.403259,1332.572632 972.490601,1322.463135 981.925964,1316.274292 
	C987.568665,1312.573120 991.648804,1308.271484 990.643250,1301.323975 
	C1001.915588,1296.753784 1019.645630,1299.696777 1030.063843,1306.710815 
	C1035.497192,1310.368652 1041.492920,1313.443359 1047.623291,1315.747925 
	C1054.686890,1318.403320 1062.620972,1318.790894 1068.252808,1324.852417 
	C1069.234253,1325.908813 1071.354858,1326.475708 1072.876831,1326.354736 
	C1077.546265,1325.983154 1080.105591,1329.029053 1083.057617,1331.737305 
	C1085.736694,1334.195312 1088.436523,1336.842407 1091.599243,1338.511353 
	C1096.101196,1340.886719 1098.553711,1344.322144 1099.922119,1349.057373 
	C1102.574463,1358.234497 1105.371582,1367.373901 1108.336792,1376.454590 
	C1109.563965,1380.212646 1110.796143,1384.202271 1113.070190,1387.326416 
	C1115.943970,1391.274292 1116.102051,1394.980225 1115.232544,1399.489746 
	C1110.615967,1423.430786 1108.569214,1447.580811 1110.032715,1472.907471 
	C1109.940796,1489.503784 1109.525635,1505.175537 1110.031616,1520.817383 
	C1110.351562,1530.713379 1112.091187,1540.560303 1113.102783,1550.438599 
	C1113.541626,1554.723511 1114.218506,1559.070068 1113.873413,1563.314331 
	C1113.690308,1565.567749 1112.059937,1568.440308 1110.187988,1569.660034 
	C1106.728516,1571.914429 1103.581543,1573.703247 1103.208252,1578.492920 
	C1103.109619,1579.758911 1100.410400,1580.804810 1098.930908,1581.983765 
	C1094.721436,1585.338135 1090.230835,1588.411255 1086.422607,1592.173584 
	C1083.681030,1594.882202 1082.368408,1599.100464 1079.511719,1601.615234 
	C1074.243896,1606.252197 1073.171997,1612.089355 1072.416382,1618.818604 
	C1077.929810,1619.944702 1083.322510,1620.323853 1088.149170,1622.177124 
	C1099.535522,1626.548828 1110.673096,1626.924805 1122.259277,1623.021118 
	C1127.762695,1621.166504 1129.319214,1622.579224 1129.831421,1628.589966 
	C1130.168945,1632.550659 1129.814209,1636.569092 1129.793457,1640.561890 
	C1129.751343,1648.652710 1131.076538,1650.495239 1138.745361,1650.058472 
	C1149.856689,1649.425903 1158.773926,1653.169067 1166.495728,1661.044067 
	C1168.847046,1663.442017 1172.526611,1665.740356 1175.684692,1665.863892 
	C1180.497559,1666.052124 1183.658936,1667.465210 1186.681396,1671.134888 
	C1187.960693,1672.687744 1191.549683,1673.682861 1193.506226,1673.070312 
	C1198.520508,1671.500244 1202.519531,1673.077759 1204.967163,1676.750977 
	C1210.668091,1685.306030 1218.978394,1689.605225 1228.069946,1693.273438 
	C1232.336060,1694.994629 1236.339844,1697.552368 1240.135132,1700.200317 
	C1243.807861,1702.762573 1247.111816,1705.093872 1251.990112,1703.187134 
	C1253.446411,1702.618164 1255.742188,1703.507080 1257.401733,1704.273071 
	C1263.179688,1706.939941 1265.408325,1712.034790 1265.765625,1717.988159 
	C1266.109619,1723.722168 1268.827515,1728.045166 1272.898682,1731.765137 
	C1287.910645,1745.482056 1290.821533,1757.503784 1283.351685,1777.165894 
	C1281.593994,1781.792603 1281.945068,1785.696655 1284.887573,1789.283081 
	C1290.267822,1795.840698 1296.401489,1801.136353 1305.535889,1801.899902 
	C1312.302612,1802.465332 1314.718384,1806.076904 1313.517334,1812.585571 
	C1313.278076,1813.881958 1312.811157,1815.168457 1312.253906,1816.368896 
	C1307.897827,1825.754395 1310.122559,1834.537354 1314.602051,1843.138550 
	C1316.592407,1846.960449 1318.468506,1850.844116 1320.538452,1854.621826 
	C1324.677612,1862.176025 1335.480591,1869.236694 1341.485962,1867.034058 
	C1348.468384,1864.473267 1352.367554,1867.018799 1355.276367,1872.662598 
	C1357.693726,1877.352783 1359.743286,1882.240234 1361.800537,1887.105957 
	C1363.086182,1890.146973 1363.416138,1893.827393 1365.344116,1896.314697 
	C1370.001587,1902.323975 1370.630981,1908.958130 1370.198730,1916.077515 
	C1369.916382,1920.729126 1370.227905,1925.423218 1369.833008,1930.060669 
	C1368.391602,1946.986694 1361.676514,1960.153198 1343.900879,1964.932861 
	C1337.989868,1966.522095 1335.269775,1970.609741 1334.152710,1976.208374 
	C1331.275513,1990.629028 1321.775879,2000.454590 1311.109253,2009.487915 
	C1303.780151,2015.694458 1295.886719,2021.385132 1289.374023,2028.360107 
	C1283.618652,2034.524536 1285.394653,2039.584473 1293.571167,2041.291992 
	C1299.528076,2042.535889 1303.242432,2045.358398 1305.444336,2050.609131 
	C1307.898560,2056.461426 1312.269409,2059.171631 1318.468384,2059.955322 
	C1321.273193,2060.309814 1324.209595,2061.573242 1326.554565,2063.193848 
	C1330.920654,2066.211182 1331.332397,2069.539307 1327.502441,2073.019287 
	C1324.618896,2075.638916 1320.626465,2077.000000 1317.511353,2079.415771 
	C1315.345093,2081.095947 1312.598999,2083.446289 1312.276367,2085.794434 
	C1311.577881,2090.879150 1312.268921,2096.154785 1312.387329,2101.169434 
	C1327.281250,2102.913086 1328.066162,2104.586182 1323.767456,2118.394043 
	C1320.216919,2129.798096 1317.104736,2141.358398 1314.334473,2152.977295 
	C1313.038208,2158.413574 1310.257446,2162.466553 1306.827393,2166.700928 
	C1303.173096,2171.212646 1299.858887,2176.497559 1298.150391,2181.990479 
	C1293.822632,2195.904297 1290.012573,2209.866699 1293.768921,2224.949707 
	C1295.808228,2233.138184 1290.629028,2237.891602 1281.947266,2238.061279 
	C1277.620239,2238.145508 1273.270752,2238.150879 1268.961304,2237.812256 
	C1261.119019,2237.195801 1255.214722,2241.009766 1250.985352,2246.724854 
	C1241.296387,2259.817627 1231.640625,2273.008057 1223.111938,2286.861328 
	C1217.002319,2296.785156 1210.182007,2302.248047 1197.722900,2302.210693 
	C1180.894897,2302.160156 1170.860474,2321.817383 1178.834106,2336.387451 
	C1180.787964,2339.957520 1181.482788,2344.421143 1181.920898,2348.562256 
	C1182.408447,2353.168213 1181.639526,2357.895264 1181.949341,2362.534180 
	C1182.724365,2374.137695 1180.950073,2385.059814 1174.650757,2395.064941 
	C1171.608887,2399.895996 1172.023071,2404.783203 1173.542480,2410.328857 
	C1175.806030,2418.589844 1176.693726,2427.232178 1178.084351,2435.725830 
	C1179.486572,2444.289795 1175.291748,2449.334961 1167.927246,2453.112305 
	C1159.955078,2457.201172 1152.002808,2461.579590 1144.817383,2466.882324 
	C1137.528809,2472.260986 1129.358032,2477.972412 1134.007202,2489.564697 
	C1134.815674,2491.580078 1134.029175,2494.193359 1134.204102,2496.513428 
	C1134.527100,2500.796143 1134.145142,2505.395020 1135.608398,2509.277344 
	C1139.264038,2518.976074 1135.867676,2526.833740 1130.316528,2534.230957 
	C1122.391235,2544.791992 1116.476685,2557.079102 1104.773438,2564.478027 
	C1103.679810,2565.169434 1102.838135,2566.308594 1101.990479,2567.331787 
	C1091.375732,2580.145752 1080.675781,2592.847412 1066.040894,2601.452393 
	C1064.073486,2602.609375 1062.393677,2604.383545 1060.849487,2606.111816 
	C1048.901489,2619.483643 1036.911133,2632.821533 1025.210083,2646.407471 
	C1022.928101,2649.057373 1021.298157,2652.586426 1020.335266,2655.984131 
	C1018.632324,2661.993652 1017.672791,2668.213867 1015.894897,2674.821777 
	C1011.418640,2673.846680 1007.421204,2672.468018 1003.486511,2670.929199 
	C995.347351,2667.746582 989.991272,2670.133545 986.083984,2677.916992 
	C984.914551,2680.246582 982.098938,2682.953613 979.744141,2683.264160 
	C971.823303,2684.308594 963.887207,2683.954102 956.533325,2679.858154 
	C946.008484,2673.996094 935.300659,2670.840576 923.786438,2677.740234 
	C919.536743,2680.286621 914.852051,2682.161377 910.236694,2684.022217 
	C907.530334,2685.113281 904.513245,2686.365234 901.733704,2686.167480 
	C893.526550,2685.584229 888.164551,2688.344727 886.742859,2696.871094 
	C885.759216,2702.770264 881.654724,2704.809326 876.406982,2705.862305 
	C870.553284,2707.036377 864.718750,2708.369141 858.970276,2709.971680 
	C856.915710,2710.544189 854.654419,2711.704834 853.332886,2713.298096 
	C850.669373,2716.509766 848.585510,2720.202148 846.097656,2723.944336 
	C853.093994,2728.831299 852.317993,2736.707764 855.321167,2743.742188 
	C850.643677,2746.687256 846.452454,2749.283447 842.306213,2751.949219 
	C838.386780,2754.469238 836.132812,2757.939453 836.676941,2762.767090 
	C837.216064,2767.550293 839.825439,2770.477539 844.629333,2771.476318 
	C846.187073,2771.799805 847.654236,2772.558838 849.366028,2773.194336 
	C849.859863,2776.313721 850.306396,2779.133789 850.869629,2782.691406 
	C843.067566,2784.126709 836.706116,2789.295898 828.747559,2787.045898 
	C827.870972,2785.695068 827.142944,2784.581299 826.423096,2783.461914 
	C822.220093,2776.925049 817.761780,2771.160156 808.419617,2773.249023 
	C806.681274,2773.637695 803.570496,2771.964600 802.458252,2770.320068 
	C798.965271,2765.154785 793.416260,2764.367188 788.264587,2761.681885 
	C784.953369,2767.737061 781.993225,2773.150391 778.877686,2778.847900 
	C774.672058,2777.250244 771.319458,2775.976562 769.672119,2775.350586 
	C764.028992,2776.578857 760.043884,2777.522949 756.027100,2778.303955 
	C748.135925,2779.837891 741.964355,2775.077637 735.339844,2772.299561 
	C719.989746,2765.863037 720.051147,2765.717041 705.192566,2773.674805 
	C691.574097,2780.968994 691.535767,2781.006836 680.397766,2769.829102 
	C667.859436,2757.246094 654.149841,2755.520752 639.418457,2765.815186 
	C629.601379,2772.675781 619.860718,2779.766357 609.453857,2785.633057 
	C594.696716,2793.952393 583.630981,2795.212158 571.007874,2781.573975 
	C568.068909,2778.398682 564.863770,2775.471191 561.848877,2772.364014 
	C556.715149,2767.073242 550.912476,2765.175537 544.013306,2768.723877 
	C537.819092,2771.909912 531.582397,2775.023193 525.492188,2778.398682 
	C511.867004,2785.950439 493.884338,2789.370117 482.454742,2771.914307 
	C481.911957,2771.085449 481.190918,2770.370605 480.531860,2769.621094 
	C475.633667,2764.050537 469.604919,2761.820801 462.697357,2764.967529 
	C455.788757,2768.114990 449.028198,2771.699219 442.557953,2775.670654 
	C433.019989,2781.525146 423.436890,2786.138916 411.689575,2783.886475 
	C407.508270,2783.084717 403.043793,2783.883301 398.729126,2783.617432 
	C394.798523,2783.375488 391.799988,2784.522217 388.964020,2787.382812 
	C382.648438,2793.752930 375.726044,2799.534424 369.575989,2806.051270 
	C365.587219,2810.277832 361.356415,2812.361084 355.581390,2811.727051 
	C352.619354,2811.401855 349.574463,2811.880127 346.597748,2811.629883 
	C338.611633,2810.958252 331.656281,2814.243652 324.624451,2817.187256 
	C324.113342,2817.400879 324.194275,2819.029297 324.000000,2820.000000 
	C320.571259,2820.000000 317.142487,2820.000000 312.997711,2819.205566 
	C312.826965,2815.827393 313.505066,2813.263916 313.893311,2810.656982 
	C315.189667,2801.951660 310.132141,2796.250000 301.331482,2796.277588 
	C299.086578,2796.284424 296.840881,2796.032227 295.350586,2795.943848 
	C294.036377,2790.069580 293.936890,2784.486572 291.559662,2780.153320 
	C287.583069,2772.904297 286.986053,2765.851807 288.676941,2758.071533 
	C289.359009,2754.933350 290.030518,2751.202881 288.959381,2748.412842 
	C287.375946,2744.288330 288.179199,2741.578369 290.802063,2738.484375 
	C293.815155,2734.930176 293.075897,2731.315918 290.353119,2727.673096 
	C286.034912,2721.895508 280.592926,2717.972168 273.820496,2715.413818 
	C268.361084,2713.351807 265.960724,2707.985352 269.016235,2703.331543 
	C275.182373,2693.940430 281.639313,2684.510498 293.434357,2681.051270 
	C301.987396,2678.542480 310.467438,2675.784668 318.823700,2673.186279 
	C319.691132,2669.777588 320.549713,2666.926514 321.130524,2664.020020 
	C322.680634,2656.263184 326.614685,2651.088135 334.918457,2649.601074 
	C337.741272,2649.095459 340.423798,2647.301025 342.950378,2645.739258 
	C351.134338,2640.680420 354.820923,2631.453613 352.987946,2622.072266 
	C352.359009,2618.853271 351.751770,2615.259766 352.551514,2612.208984 
	C354.220367,2605.842773 350.973572,2602.885254 346.021088,2600.763672 
	C342.665710,2599.325928 339.099701,2598.385986 335.714142,2597.011230 
	C332.037415,2595.518555 328.039154,2594.330322 324.970032,2591.979004 
	C322.382904,2589.997070 321.278473,2586.192139 318.912231,2583.791016 
	C299.986145,2564.587402 280.865082,2545.575928 261.902863,2526.407471 
	C238.715363,2502.968018 215.323212,2479.718750 192.649368,2455.790283 
	C184.377548,2447.060547 176.358215,2443.840576 165.566467,2450.041992 
	C160.304825,2453.065674 154.304489,2453.454346 149.129944,2451.218506 
	C142.725555,2448.451416 136.354843,2446.161621 129.488251,2445.079590 
	C124.758888,2444.334473 120.066719,2443.353027 114.714401,2442.357422 
	C116.065933,2439.552490 116.881371,2437.429443 118.042557,2435.516113 
	C131.480591,2413.376953 144.770859,2391.144287 158.555527,2369.222412 
	C163.401184,2361.516113 167.432373,2353.619873 169.195587,2344.749023 
	C171.135284,2334.990479 172.893051,2325.171387 174.122879,2315.302979 
	C175.515182,2304.130615 176.204498,2292.871582 177.250229,2281.654785 
	C179.373856,2258.876709 181.791199,2236.122314 183.587494,2213.318604 
	C184.864700,2197.104492 185.171738,2180.816650 186.191422,2164.579102 
	C187.188919,2148.695068 188.519302,2132.831543 189.764313,2116.963867 
	C189.919510,2114.985840 190.466705,2113.040283 190.796829,2111.073730 
	C191.777878,2105.229004 193.131241,2099.414551 193.630951,2093.527832 
	C194.697464,2080.964355 195.169846,2068.351074 196.153793,2055.779053 
	C197.887024,2033.634399 199.750702,2011.499146 201.691055,1989.371460 
	C203.573318,1967.906128 205.649567,1946.457886 207.560791,1924.994995 
	C207.813721,1922.154419 207.595535,1919.271851 207.595535,1915.468384 
	C203.798798,1915.957275 201.265289,1916.423828 198.713791,1916.565186 
	C196.876923,1916.666870 194.252762,1917.073730 193.288315,1916.077637 
	C186.467758,1909.032593 176.728363,1910.140869 168.760101,1906.140869 
	C163.535934,1911.118774 160.002365,1918.049805 151.521973,1916.851929 
	C150.596863,1916.721313 149.072739,1918.091675 148.431503,1919.137085 
	C144.331543,1925.820801 139.011002,1924.405029 132.812897,1922.492554 
	C123.990280,1919.770630 117.582909,1916.297241 116.655655,1905.496704 
	C116.007584,1897.948242 115.765915,1891.515137 119.875656,1884.619873 
	C126.117630,1874.146851 134.348297,1864.706055 137.356689,1852.352661 
	C137.972656,1849.823364 141.035828,1847.762939 143.237976,1845.783325 
	C145.391556,1843.847290 147.886108,1842.290527 149.279129,1841.266724 
	C146.624969,1833.302856 144.283447,1826.277222 142.054703,1819.589844 
	C138.978714,1817.733765 134.447998,1816.545044 133.379669,1813.937622 
	C132.221054,1811.109741 134.287155,1806.960571 135.070114,1802.721069 
	C133.827942,1799.984863 132.219513,1796.441895 130.550018,1792.764282 
	C133.129852,1791.432495 135.156555,1790.386230 137.774460,1789.034790 
	C134.809906,1779.342163 143.166489,1776.463745 149.511765,1771.927246 
	C143.635635,1764.927734 140.491257,1757.663818 143.806747,1748.244507 
	C135.448547,1749.762085 133.138245,1744.775879 131.885971,1738.771729 
	C130.257004,1730.961426 129.071411,1723.074341 122.722656,1717.181152 
	C115.276482,1710.269409 113.275604,1701.886230 115.659164,1691.891602 
	C116.505333,1688.343506 115.874878,1683.660645 114.156281,1680.434570 
	C109.531197,1671.753174 105.574234,1662.505005 98.016518,1655.693359 
z"/>
<path data-name="Yingui" fill="#C74675" opacity="1.000000" stroke="none" 
	d="
M1681.317017,1094.459473 
	C1681.578491,1098.782593 1683.108887,1102.450073 1687.655151,1103.530151 
	C1693.098511,1104.822876 1696.091553,1111.458252 1702.680664,1110.202026 
	C1703.289673,1110.085815 1704.578979,1111.213135 1704.851196,1112.004272 
	C1708.328857,1122.114136 1719.237061,1125.480469 1724.621216,1133.891113 
	C1726.192017,1136.344849 1728.445190,1137.783813 1732.243164,1137.010132 
	C1736.720093,1136.098267 1740.476196,1137.472290 1743.697510,1142.199341 
	C1747.550171,1147.852539 1752.455078,1152.401123 1754.882080,1159.400391 
	C1756.436157,1163.882690 1761.793213,1167.298950 1765.947510,1170.551880 
	C1769.662964,1173.461304 1772.678955,1176.276123 1774.748779,1180.869751 
	C1780.479248,1193.587524 1788.150269,1197.337036 1801.868286,1195.141113 
	C1806.953857,1194.327026 1810.660278,1195.940918 1814.230835,1199.528442 
	C1826.286011,1211.641235 1839.033569,1223.099121 1850.594238,1235.656372 
	C1857.178101,1242.807495 1863.666992,1250.614990 1862.546509,1261.984985 
	C1862.119507,1266.317505 1864.341919,1270.946533 1865.537231,1275.391846 
	C1866.457642,1278.815430 1867.660156,1282.163208 1868.409790,1284.516968 
	C1863.807861,1289.027100 1860.181396,1292.581055 1858.197754,1294.525146 
	C1859.652344,1303.233643 1860.766479,1309.600464 1861.766235,1315.984985 
	C1862.540649,1320.929688 1860.905884,1324.197510 1855.695312,1325.780640 
	C1852.283569,1326.817383 1849.208984,1328.969604 1845.990723,1330.636353 
	C1841.150146,1333.143555 1836.316040,1335.663086 1829.735474,1339.083496 
	C1827.302002,1343.157104 1834.288330,1345.009399 1835.588867,1349.901367 
	C1829.678223,1354.412598 1823.487793,1359.155884 1817.277222,1363.872681 
	C1808.829834,1370.288574 1808.850586,1371.770142 1813.846436,1380.784424 
	C1815.571411,1383.896729 1815.859131,1388.347168 1815.394409,1392.007446 
	C1814.647949,1397.887085 1812.822266,1403.643188 1811.259277,1409.398804 
	C1810.660400,1411.603882 1810.016479,1414.127319 1808.532959,1415.687866 
	C1806.000610,1418.351318 1805.342773,1420.976318 1805.541992,1424.618896 
	C1805.914307,1431.426147 1801.005737,1437.748657 1794.613770,1439.236938 
	C1789.747192,1440.370117 1786.194824,1438.044800 1784.046387,1433.744263 
	C1781.866333,1429.380737 1778.887085,1426.889404 1772.697510,1428.528442 
	C1771.754639,1431.430786 1771.043823,1435.032471 1769.448853,1438.187256 
	C1767.234131,1442.567749 1764.459961,1446.681885 1761.738525,1450.786011 
	C1756.999512,1457.932617 1752.084717,1464.962402 1747.309937,1472.085571 
	C1745.020752,1475.500854 1742.494873,1477.787964 1737.952637,1478.587402 
	C1730.539551,1479.891724 1727.205200,1486.549805 1725.072754,1492.674683 
	C1721.739136,1502.249756 1717.159912,1509.353516 1706.099487,1510.419922 
	C1704.050293,1510.617554 1702.208374,1512.753174 1700.228271,1513.922241 
	C1696.292725,1516.245850 1692.405518,1518.669678 1688.354736,1520.775513 
	C1683.318970,1523.393555 1679.452026,1526.432373 1680.191040,1533.020508 
	C1680.556885,1536.281128 1680.228760,1539.701172 1679.684204,1542.960449 
	C1679.092407,1546.502563 1678.900391,1550.827881 1676.768555,1553.270996 
	C1667.971802,1563.352051 1663.896484,1576.133057 1656.452515,1586.897705 
	C1654.936401,1589.090210 1651.931274,1590.663452 1649.286011,1591.588379 
	C1641.031250,1594.474854 1636.319458,1599.360718 1637.662231,1608.706421 
	C1638.402100,1613.855957 1636.809692,1618.343018 1633.819214,1622.723999 
	C1630.271973,1627.920532 1627.711914,1633.780884 1624.351929,1639.119385 
	C1622.750488,1641.664062 1620.288208,1643.666992 1617.337402,1646.868286 
	C1617.089478,1654.722534 1616.330078,1663.858032 1606.404907,1669.059204 
	C1604.919067,1669.837646 1603.417480,1673.243164 1603.928955,1674.754150 
	C1607.903809,1686.496948 1601.342041,1696.060303 1597.448975,1705.925781 
	C1595.415161,1711.079834 1594.183472,1715.399048 1595.222290,1721.065063 
	C1596.721558,1729.241577 1595.799683,1737.449707 1590.563965,1744.675781 
	C1586.801147,1749.869019 1583.557373,1755.130615 1588.588135,1761.838989 
	C1589.868774,1763.546875 1588.816040,1767.528198 1587.962524,1770.184448 
	C1586.825684,1773.722778 1585.039917,1776.986450 1588.000488,1780.328369 
	C1588.681030,1780.652100 1589.318726,1781.248657 1589.848145,1781.164551 
	C1601.628174,1779.291382 1609.447388,1786.088989 1607.480469,1797.975708 
	C1604.984619,1813.059448 1611.292236,1824.904907 1619.322144,1836.394897 
	C1622.138672,1840.424805 1626.593384,1841.295044 1630.976562,1839.619629 
	C1637.596436,1837.089355 1643.887085,1838.053223 1650.518433,1839.585815 
	C1660.537476,1841.901245 1670.753174,1843.350586 1680.838867,1845.397339 
	C1689.288940,1847.111938 1697.447021,1846.104858 1705.329346,1843.041260 
	C1713.976318,1839.680298 1719.764282,1832.990356 1721.464966,1824.196045 
	C1723.782104,1812.213135 1731.125244,1804.619385 1744.938965,1810.077271 
	C1747.114502,1810.936646 1749.964722,1810.221558 1752.488770,1810.037109 
	C1757.506226,1809.670654 1762.536499,1809.142700 1766.583252,1813.091309 
	C1774.753052,1821.063110 1785.209961,1822.713623 1795.889160,1823.728149 
	C1809.760132,1825.046143 1815.208374,1835.339844 1808.322144,1847.566406 
	C1805.717651,1852.190918 1802.546143,1856.493408 1799.868896,1861.080444 
	C1797.735718,1864.734985 1795.961060,1868.598999 1793.612793,1873.178345 
	C1797.313354,1875.124512 1800.044189,1876.986938 1803.056763,1878.052979 
	C1808.591064,1880.010986 1811.534058,1883.871460 1813.453613,1889.237427 
	C1815.455566,1894.833374 1817.604858,1900.528931 1820.729126,1905.531738 
	C1824.466064,1911.515137 1829.770996,1910.762695 1832.645142,1904.153564 
	C1834.083618,1900.846069 1834.888184,1897.187500 1835.488037,1893.605469 
	C1837.144531,1883.714355 1842.126221,1876.363892 1851.243408,1871.999878 
	C1852.998413,1871.159546 1855.034546,1869.731323 1856.678223,1870.028564 
	C1865.755737,1871.669922 1873.659424,1867.998413 1881.860840,1865.306396 
	C1885.590088,1864.082275 1889.590454,1863.683960 1893.383301,1862.927979 
	C1903.628784,1871.411255 1903.260742,1886.912476 1915.725342,1893.853149 
	C1918.081421,1892.002197 1920.617554,1890.009644 1923.413208,1887.813354 
	C1928.700562,1890.436401 1934.030273,1893.500854 1939.708496,1888.561035 
	C1940.316406,1888.032104 1942.358765,1888.627197 1943.429688,1889.237793 
	C1952.964111,1894.675171 1960.714844,1890.542603 1967.930908,1884.568970 
	C1975.985229,1877.901611 1977.526733,1877.052612 1985.348877,1882.289307 
	C2001.112549,1892.842651 2018.674561,1894.590698 2036.827026,1894.254517 
	C2040.151611,1894.192993 2043.470093,1893.856934 2046.793945,1893.699463 
	C2055.540527,1893.285278 2063.323242,1890.414429 2068.200928,1882.930054 
	C2071.651123,1877.635864 2076.238770,1875.299316 2082.035889,1874.521729 
	C2090.208984,1873.425171 2094.948486,1869.371704 2096.833496,1860.871094 
	C2098.174561,1854.824707 2101.335449,1849.014526 2107.223877,1845.566772 
	C2113.405762,1841.947266 2117.383789,1844.039917 2117.680908,1851.123657 
	C2117.792480,1853.785278 2117.828369,1856.461548 2117.685303,1859.119629 
	C2117.480469,1862.930786 2119.167969,1866.433960 2122.507080,1866.844238 
	C2125.176270,1867.172119 2128.886719,1865.329712 2130.916504,1863.257324 
	C2135.299805,1858.781982 2138.878418,1853.522583 2142.838379,1848.625977 
	C2143.670654,1847.596558 2144.570801,1846.339355 2145.712646,1845.905762 
	C2147.714600,1845.145630 2150.570801,1843.918457 2151.896240,1844.751953 
	C2153.739502,1845.911133 2155.305908,1848.707520 2155.533447,1850.950928 
	C2155.853760,1854.106323 2154.836914,1857.397339 2154.243652,1861.706055 
	C2162.526855,1861.706055 2170.411865,1861.013428 2178.115479,1861.899902 
	C2185.901855,1862.795776 2193.508301,1865.256226 2201.617920,1867.129272 
	C2203.054932,1870.058472 2204.657471,1873.324829 2206.544678,1877.171509 
	C2208.869873,1876.743896 2211.325684,1876.292358 2214.449219,1875.717896 
	C2217.113037,1881.172852 2221.562988,1881.910767 2227.464844,1880.252319 
	C2230.789307,1879.317993 2234.672363,1880.371582 2239.151855,1880.264893 
	C2240.000000,1885.400024 2240.000000,1890.800049 2239.344727,1896.527344 
	C2231.296875,1903.320801 2223.348877,1904.082886 2214.792969,1899.273682 
	C2213.352539,1898.463867 2211.719727,1898.001221 2210.194824,1897.334717 
	C2205.990967,1895.496338 2203.016357,1896.498779 2199.706543,1899.994751 
	C2194.268799,1905.738281 2187.870117,1910.560059 2182.056885,1915.964600 
	C2178.937500,1918.864868 2175.865234,1921.928955 2173.362549,1925.351440 
	C2170.031494,1929.907104 2167.000000,1934.735596 2164.331055,1939.710571 
	C2158.624268,1950.348511 2149.979248,1956.754517 2138.340332,1959.807251 
	C2134.344482,1960.855347 2130.583496,1963.263550 2127.077881,1965.595703 
	C2122.845947,1968.410889 2098.493896,1974.622192 2093.721680,1973.325928 
	C2091.193604,1972.639404 2088.741943,1971.428833 2086.475342,1970.084717 
	C2083.909424,1968.563110 2081.374756,1966.856689 2079.203857,1964.826904 
	C2073.415283,1959.413696 2067.020508,1958.557495 2059.904053,1961.619873 
	C2049.296875,1966.184326 2039.811523,1964.772339 2031.614014,1956.358276 
	C2027.791870,1952.435181 2023.038208,1951.018311 2017.921997,1952.605225 
	C2010.804932,1954.812988 2004.228394,1953.738159 1998.227661,1950.340820 
	C1988.105103,1955.218140 1990.893799,1966.423828 1985.976685,1973.627441 
	C1977.721436,1972.564209 1969.868774,1971.535156 1962.010742,1970.548950 
	C1958.583008,1970.118774 1956.136963,1971.065430 1955.674561,1975.016235 
	C1955.444580,1976.981689 1954.516846,1978.895996 1954.469971,1980.847046 
	C1954.272705,1989.042114 1950.189209,1995.792847 1944.968262,2001.163208 
	C1938.581421,2007.733154 1937.423950,2014.573853 1939.110352,2023.004028 
	C1941.707520,2035.986572 1944.180176,2049.020752 1945.943237,2062.135498 
	C1947.482422,2073.586914 1944.763306,2085.426270 1949.124023,2096.757812 
	C1949.733643,2098.341797 1947.774780,2102.313477 1946.039062,2103.132080 
	C1941.304199,2105.365234 1936.148315,2107.045654 1930.984863,2107.954834 
	C1921.851807,2109.563721 1912.612915,2111.030518 1903.372314,2111.396729 
	C1897.931519,2111.612305 1892.387329,2109.667969 1886.917725,2108.556885 
	C1882.780518,2107.716797 1878.665405,2105.768799 1874.579956,2105.872070 
	C1864.678955,2106.121582 1855.415283,2104.609131 1846.732422,2099.669434 
	C1841.770630,2096.846436 1836.843628,2097.125488 1831.504395,2099.555664 
	C1827.728027,2101.274170 1823.262451,2101.549561 1819.068481,2102.254883 
	C1816.145874,2102.746338 1812.772461,2102.074463 1810.268433,2103.293945 
	C1792.997925,2111.705322 1774.429688,2119.087646 1773.803589,2142.947266 
	C1773.744751,2145.189453 1772.800781,2147.525635 1771.812988,2149.601562 
	C1769.816162,2153.798096 1767.699463,2157.964600 1765.268799,2161.919922 
	C1763.100586,2165.448486 1759.518066,2166.348633 1755.626831,2165.450928 
	C1751.159424,2164.420654 1751.530884,2160.668213 1751.753174,2157.403809 
	C1752.291138,2149.506836 1753.250244,2141.636475 1753.673584,2133.735596 
	C1753.771484,2131.909180 1752.402466,2130.003906 1751.864258,2128.553955 
	C1746.311890,2133.451660 1741.786987,2138.272217 1736.471313,2141.949219 
	C1727.100098,2148.431396 1722.058960,2157.262207 1719.893188,2168.144531 
	C1718.856323,2173.354736 1717.736084,2178.558838 1716.365356,2183.688477 
	C1715.433105,2187.176758 1714.511475,2190.838379 1712.681763,2193.878906 
	C1709.262207,2199.561279 1706.797241,2205.354980 1704.800293,2211.797852 
	C1700.557373,2225.486816 1698.822998,2239.557373 1696.541748,2253.523926 
	C1695.563599,2259.512939 1695.473389,2265.126221 1690.975952,2270.024170 
	C1689.040039,2272.132324 1689.183105,2276.114746 1688.284668,2279.217529 
	C1686.269531,2286.176758 1685.012939,2293.514648 1681.900146,2299.950195 
	C1679.080688,2305.778809 1674.647095,2311.015869 1667.315674,2312.392822 
	C1662.489990,2313.299072 1659.885620,2316.614014 1659.681885,2321.525146 
	C1659.319092,2330.266846 1650.743896,2336.031494 1651.234131,2345.064453 
	C1651.247559,2345.310059 1650.889526,2345.635742 1650.632812,2345.827637 
	C1645.415161,2349.725342 1644.452637,2355.840576 1642.429443,2361.422852 
	C1639.500244,2369.504883 1637.482422,2378.117676 1629.547363,2383.319336 
	C1628.557983,2383.968018 1627.967285,2385.477295 1627.551880,2386.709229 
	C1624.021606,2397.177002 1616.513184,2404.735596 1609.082031,2412.395264 
	C1607.279419,2414.253174 1605.775391,2416.466309 1604.439331,2418.698730 
	C1601.573364,2423.487061 1599.499878,2428.886719 1595.992554,2433.116455 
	C1592.387207,2437.464355 1589.918701,2442.056396 1589.868774,2447.446777 
	C1589.786621,2456.306885 1585.344971,2461.952637 1577.759155,2465.263184 
	C1567.737915,2469.636475 1559.554565,2476.628418 1552.510010,2484.454102 
	C1544.776855,2493.044922 1538.383789,2502.894287 1541.922729,2515.865234 
	C1542.744507,2518.876953 1542.007935,2522.390137 1541.648193,2525.634766 
	C1540.479736,2536.177979 1538.530640,2546.675781 1538.055786,2557.243896 
	C1537.537964,2568.770752 1538.229492,2580.376709 1547.079590,2589.492432 
	C1547.997437,2590.437744 1549.122803,2591.539551 1549.363159,2592.728271 
	C1551.251465,2602.066895 1556.917725,2607.948975 1565.876465,2610.665527 
	C1560.558716,2623.308838 1552.144409,2631.783936 1540.533325,2638.623047 
	C1523.265381,2648.793945 1506.010010,2659.445068 1494.723511,2677.266602 
	C1491.332520,2682.621338 1485.619263,2686.913574 1480.169189,2690.462891 
	C1471.495117,2696.111084 1462.879517,2701.325928 1461.546387,2712.896484 
	C1461.176880,2716.103760 1461.182251,2719.510742 1460.007202,2722.418701 
	C1459.069946,2724.738281 1456.599731,2726.438721 1454.617920,2728.625732 
	C1452.672241,2725.722656 1451.450684,2723.900146 1450.575317,2722.593750 
	C1444.036987,2722.805664 1440.101685,2725.804199 1437.959351,2733.146240 
	C1432.657471,2720.653076 1428.191650,2710.129639 1423.725708,2699.606201 
	C1421.690796,2706.448730 1413.606323,2709.943359 1415.088867,2718.014893 
	C1415.330200,2719.328613 1412.005859,2721.297119 1410.343140,2722.949463 
	C1406.339722,2717.891357 1403.132690,2713.839600 1400.005737,2709.889160 
	C1397.602051,2711.526123 1396.022217,2712.602051 1395.596191,2712.892334 
	C1389.997803,2709.927002 1385.402344,2707.492920 1380.973999,2705.147217 
	C1373.631226,2713.565186 1373.631226,2713.565186 1375.543823,2718.384277 
	C1377.698242,2723.812500 1377.005493,2733.187256 1374.456909,2738.352539 
	C1370.115234,2735.670654 1365.675781,2732.928711 1361.236450,2730.186768 
	C1358.305786,2728.922119 1358.852173,2724.224365 1353.839966,2723.268799 
	C1354.804199,2740.060547 1353.053711,2755.612305 1340.786865,2769.770996 
	C1338.811768,2765.261475 1337.633057,2762.199707 1336.139160,2759.300049 
	C1335.267456,2757.608154 1334.217407,2755.619385 1332.686401,2754.723145 
	C1325.994751,2750.808594 1319.097778,2747.244629 1312.179199,2743.501221 
	C1314.322998,2741.545410 1316.099731,2739.924561 1319.167480,2737.125977 
	C1313.269775,2735.005371 1308.765869,2733.308838 1304.210815,2731.762939 
	C1291.708740,2727.519531 1279.209961,2723.263916 1266.657104,2719.175049 
	C1262.339844,2717.768799 1257.918945,2716.245117 1253.451294,2715.856445 
	C1248.777344,2715.450439 1244.935547,2714.543945 1242.779297,2710.024170 
	C1240.585571,2705.426270 1236.988037,2705.604736 1232.830688,2706.606934 
	C1232.222900,2710.287109 1231.687500,2713.529297 1231.164062,2716.698975 
	C1226.996216,2718.734131 1223.171021,2720.731934 1219.230103,2722.467285 
	C1217.469360,2723.242920 1215.410400,2724.080078 1213.599487,2723.878174 
	C1204.754639,2722.891357 1195.977417,2721.129639 1187.115967,2720.525635 
	C1182.146851,2720.187012 1176.368896,2717.358154 1172.108521,2722.548828 
	C1168.579712,2726.847656 1163.987061,2727.067383 1159.384033,2725.719727 
	C1152.718140,2723.767822 1146.225220,2721.215576 1139.690186,2718.832031 
	C1137.869263,2718.167725 1136.168457,2716.499756 1134.398926,2716.479492 
	C1124.082397,2716.361572 1113.588867,2715.450684 1103.482300,2716.975830 
	C1087.541626,2719.381348 1071.804688,2717.608154 1054.813110,2718.126221 
	C1053.855713,2712.389648 1053.023926,2707.405273 1052.192139,2702.420898 
	C1051.540405,2703.261475 1050.888794,2704.102051 1050.237061,2704.942383 
	C1046.319214,2699.629150 1042.703735,2694.055664 1038.410156,2689.065674 
	C1032.495239,2682.191406 1025.317505,2676.888672 1016.402100,2674.345703 
	C1017.672791,2668.213867 1018.632324,2661.993652 1020.335266,2655.984131 
	C1021.298157,2652.586426 1022.928101,2649.057373 1025.210083,2646.407471 
	C1036.911133,2632.821533 1048.901489,2619.483643 1060.849487,2606.111816 
	C1062.393677,2604.383545 1064.073486,2602.609375 1066.040894,2601.452393 
	C1080.675781,2592.847412 1091.375732,2580.145752 1101.990479,2567.331787 
	C1102.838135,2566.308594 1103.679810,2565.169434 1104.773438,2564.478027 
	C1116.476685,2557.079102 1122.391235,2544.791992 1130.316528,2534.230957 
	C1135.867676,2526.833740 1139.264038,2518.976074 1135.608398,2509.277344 
	C1134.145142,2505.395020 1134.527100,2500.796143 1134.204102,2496.513428 
	C1134.029175,2494.193359 1134.815674,2491.580078 1134.007202,2489.564697 
	C1129.358032,2477.972412 1137.528809,2472.260986 1144.817383,2466.882324 
	C1152.002808,2461.579590 1159.955078,2457.201172 1167.927246,2453.112305 
	C1175.291748,2449.334961 1179.486572,2444.289795 1178.084351,2435.725830 
	C1176.693726,2427.232178 1175.806030,2418.589844 1173.542480,2410.328857 
	C1172.023071,2404.783203 1171.608887,2399.895996 1174.650757,2395.064941 
	C1180.950073,2385.059814 1182.724365,2374.137695 1181.949341,2362.534180 
	C1181.639526,2357.895264 1182.408447,2353.168213 1181.920898,2348.562256 
	C1181.482788,2344.421143 1180.787964,2339.957520 1178.834106,2336.387451 
	C1170.860474,2321.817383 1180.894897,2302.160156 1197.722900,2302.210693 
	C1210.182007,2302.248047 1217.002319,2296.785156 1223.111938,2286.861328 
	C1231.640625,2273.008057 1241.296387,2259.817627 1250.985352,2246.724854 
	C1255.214722,2241.009766 1261.119019,2237.195801 1268.961304,2237.812256 
	C1273.270752,2238.150879 1277.620239,2238.145508 1281.947266,2238.061279 
	C1290.629028,2237.891602 1295.808228,2233.138184 1293.768921,2224.949707 
	C1290.012573,2209.866699 1293.822632,2195.904297 1298.150391,2181.990479 
	C1299.858887,2176.497559 1303.173096,2171.212646 1306.827393,2166.700928 
	C1310.257446,2162.466553 1313.038208,2158.413574 1314.334473,2152.977295 
	C1317.104736,2141.358398 1320.216919,2129.798096 1323.767456,2118.394043 
	C1328.066162,2104.586182 1327.281250,2102.913086 1312.387329,2101.169434 
	C1312.268921,2096.154785 1311.577881,2090.879150 1312.276367,2085.794434 
	C1312.598999,2083.446289 1315.345093,2081.095947 1317.511353,2079.415771 
	C1320.626465,2077.000000 1324.618896,2075.638916 1327.502441,2073.019287 
	C1331.332397,2069.539307 1330.920654,2066.211182 1326.554565,2063.193848 
	C1324.209595,2061.573242 1321.273193,2060.309814 1318.468384,2059.955322 
	C1312.269409,2059.171631 1307.898560,2056.461426 1305.444336,2050.609131 
	C1303.242432,2045.358398 1299.528076,2042.535889 1293.571167,2041.291992 
	C1285.394653,2039.584473 1283.618652,2034.524536 1289.374023,2028.360107 
	C1295.886719,2021.385132 1303.780151,2015.694458 1311.109253,2009.487915 
	C1321.775879,2000.454590 1331.275513,1990.629028 1334.152710,1976.208374 
	C1335.269775,1970.609741 1337.989868,1966.522095 1343.900879,1964.932861 
	C1361.676514,1960.153198 1368.391602,1946.986694 1369.833008,1930.060669 
	C1370.227905,1925.423218 1369.916382,1920.729126 1370.198730,1916.077515 
	C1370.630981,1908.958130 1370.001587,1902.323975 1365.344116,1896.314697 
	C1363.416138,1893.827393 1363.086182,1890.146973 1361.800537,1887.105957 
	C1359.743286,1882.240234 1357.693726,1877.352783 1355.276367,1872.662598 
	C1352.367554,1867.018799 1348.468384,1864.473267 1341.485962,1867.034058 
	C1335.480591,1869.236694 1324.677612,1862.176025 1320.538452,1854.621826 
	C1318.468506,1850.844116 1316.592407,1846.960449 1314.602051,1843.138550 
	C1310.122559,1834.537354 1307.897827,1825.754395 1312.253906,1816.368896 
	C1312.811157,1815.168457 1313.278076,1813.881958 1313.517334,1812.585571 
	C1314.718384,1806.076904 1312.302612,1802.465332 1305.535889,1801.899902 
	C1296.401489,1801.136353 1290.267822,1795.840698 1284.887573,1789.283081 
	C1281.945068,1785.696655 1281.593994,1781.792603 1283.351685,1777.165894 
	C1290.821533,1757.503784 1287.910645,1745.482056 1272.898682,1731.765137 
	C1268.827515,1728.045166 1266.109619,1723.722168 1265.765625,1717.988159 
	C1265.408325,1712.034790 1263.179688,1706.939941 1257.401733,1704.273071 
	C1255.742188,1703.507080 1253.446411,1702.618164 1251.990112,1703.187134 
	C1247.111816,1705.093872 1243.807861,1702.762573 1240.135132,1700.200317 
	C1236.339844,1697.552368 1232.336060,1694.994629 1228.069946,1693.273438 
	C1218.978394,1689.605225 1210.668091,1685.306030 1204.967163,1676.750977 
	C1202.519531,1673.077759 1198.520508,1671.500244 1193.506226,1673.070312 
	C1191.549683,1673.682861 1187.960693,1672.687744 1186.681396,1671.134888 
	C1183.658936,1667.465210 1180.497559,1666.052124 1175.684692,1665.863892 
	C1172.526611,1665.740356 1168.847046,1663.442017 1166.495728,1661.044067 
	C1158.773926,1653.169067 1149.856689,1649.425903 1138.745361,1650.058472 
	C1131.076538,1650.495239 1129.751343,1648.652710 1129.793457,1640.561890 
	C1129.814209,1636.569092 1130.168945,1632.550659 1129.831421,1628.589966 
	C1129.319214,1622.579224 1127.762695,1621.166504 1122.259277,1623.021118 
	C1110.673096,1626.924805 1099.535522,1626.548828 1088.149170,1622.177124 
	C1083.322510,1620.323853 1077.929810,1619.944702 1072.416382,1618.818604 
	C1073.171997,1612.089355 1074.243896,1606.252197 1079.511719,1601.615234 
	C1082.368408,1599.100464 1083.681030,1594.882202 1086.422607,1592.173584 
	C1090.230835,1588.411255 1094.721436,1585.338135 1098.930908,1581.983765 
	C1100.410400,1580.804810 1103.109619,1579.758911 1103.208252,1578.492920 
	C1103.581543,1573.703247 1106.728516,1571.914429 1110.187988,1569.660034 
	C1112.059937,1568.440308 1113.690308,1565.567749 1113.873413,1563.314331 
	C1114.218506,1559.070068 1113.541626,1554.723511 1113.102783,1550.438599 
	C1112.091187,1540.560303 1110.351562,1530.713379 1110.031616,1520.817383 
	C1109.525635,1505.175537 1109.940796,1489.503784 1110.806885,1472.841431 
	C1123.843140,1469.489624 1135.316650,1465.784668 1145.253662,1457.676758 
	C1149.439453,1454.261230 1154.634155,1450.586548 1160.744995,1452.016846 
	C1170.060059,1454.197144 1175.748535,1449.300049 1181.345581,1443.043335 
	C1188.885254,1434.615112 1196.713257,1426.431763 1204.678101,1418.402100 
	C1208.814697,1414.231934 1215.900513,1414.093140 1218.639526,1419.034912 
	C1223.039185,1426.973511 1228.951904,1425.980835 1235.657959,1424.230591 
	C1248.753296,1420.812622 1260.796265,1421.030884 1269.224976,1433.869629 
	C1269.401123,1434.137939 1269.711060,1434.321655 1269.968506,1434.532837 
	C1276.489136,1439.885254 1280.391602,1439.359009 1284.002563,1431.737915 
	C1286.670776,1426.106689 1287.953857,1419.831299 1290.462524,1414.109741 
	C1293.760254,1406.588623 1296.916504,1398.820923 1301.527466,1392.118164 
	C1305.214844,1386.757568 1310.766724,1382.563965 1315.903809,1378.356323 
	C1319.473267,1375.432617 1322.021606,1372.562988 1321.858521,1367.605225 
	C1321.656128,1361.445923 1324.811279,1356.839722 1329.731079,1353.391235 
	C1333.545288,1350.717896 1337.253296,1347.827881 1341.314819,1345.590088 
	C1346.108276,1342.948608 1349.482300,1339.306152 1352.815186,1334.944092 
	C1359.441040,1326.272095 1366.807739,1318.279541 1377.151367,1313.344849 
	C1383.597900,1310.269287 1389.614258,1306.078369 1393.618408,1299.439087 
	C1398.392456,1291.522949 1403.966675,1284.087891 1409.227661,1276.467285 
	C1411.653564,1272.953491 1414.577637,1269.713135 1416.533936,1265.961792 
	C1419.817139,1259.666260 1424.586670,1255.677979 1431.326538,1253.510864 
	C1434.378784,1252.529419 1437.383911,1250.791504 1439.856812,1248.731934 
	C1447.781372,1242.132080 1455.316162,1235.063232 1463.260376,1228.488159 
	C1468.354004,1224.272217 1473.379761,1218.898682 1479.362305,1217.062744 
	C1490.781250,1213.558594 1497.932007,1206.389893 1502.025024,1196.017700 
	C1504.699341,1189.240967 1505.779907,1181.835205 1507.728027,1174.100586 
	C1512.890747,1179.963989 1519.293335,1181.225464 1526.925903,1178.215454 
	C1537.157959,1174.180298 1542.830444,1167.205078 1541.974365,1156.800537 
	C1541.493530,1150.953735 1544.177002,1147.246460 1547.848877,1143.794922 
	C1554.178833,1137.844971 1557.705200,1130.537354 1559.781372,1121.959717 
	C1568.642822,1111.332153 1576.894165,1100.847046 1585.493408,1089.920044 
	C1591.001953,1095.721802 1596.932617,1093.054810 1602.886230,1089.445068 
	C1604.872803,1088.240723 1606.915283,1087.003540 1609.095947,1086.266113 
	C1617.661865,1083.370483 1626.338013,1080.388916 1632.554443,1090.715942 
	C1635.466187,1089.244507 1637.702515,1087.484863 1640.183716,1087.012939 
	C1643.638916,1086.355347 1648.481812,1085.143555 1650.614990,1086.835938 
	C1657.413452,1092.229492 1664.555420,1093.234375 1672.734863,1092.309570 
	C1675.479492,1091.999268 1678.449829,1093.685669 1681.317017,1094.459473 
z"/>
<path data-name="Nord-Makombé" fill="#6C59F6" opacity="1.000000" stroke="none" 
	d="
M1137.842163,593.199646 
	C1141.323975,589.697083 1142.423462,585.523132 1142.419312,580.575012 
	C1142.409546,569.040588 1145.113892,565.167969 1156.125244,561.833923 
	C1164.453613,559.312195 1170.594604,554.497131 1176.125366,547.910034 
	C1188.489380,533.184631 1200.721191,518.234497 1214.333130,504.710785 
	C1223.336792,495.765472 1223.421753,486.162048 1221.272705,475.565399 
	C1219.295654,465.816345 1213.915771,457.856750 1206.090210,451.682007 
	C1200.881836,447.572418 1195.883423,443.022827 1190.166138,439.768036 
	C1178.356934,433.044983 1169.901733,422.801880 1160.952271,413.122162 
	C1157.745483,409.653564 1156.092651,404.748199 1153.107910,399.378357 
	C1166.867798,388.391998 1180.010132,377.884033 1193.168823,367.396362 
	C1207.426025,356.032959 1221.698364,344.688416 1236.203247,332.684814 
	C1238.453613,331.883850 1240.464844,331.733612 1243.198242,331.827942 
	C1245.697632,332.814911 1247.416626,333.950531 1249.263306,334.223816 
	C1254.226318,334.958405 1257.741821,337.603271 1260.531616,341.579987 
	C1272.883911,359.187378 1285.544067,376.587250 1297.518921,394.446991 
	C1303.018433,402.648926 1306.926147,411.902283 1312.095459,420.348480 
	C1314.444580,424.186798 1317.784302,427.604523 1321.256104,430.520782 
	C1325.157104,433.797516 1329.408325,437.508301 1335.236572,434.165833 
	C1343.485962,437.645203 1353.592163,438.059296 1358.682373,448.873627 
	C1360.095581,450.009583 1360.792969,450.207031 1361.490356,450.404480 
	C1361.118042,449.488983 1360.745728,448.573486 1360.373535,447.657959 
	C1358.129150,437.857697 1366.986816,435.226318 1371.847900,430.055206 
	C1372.690674,429.158569 1374.788208,429.227875 1375.323730,428.289917 
	C1379.358398,421.224548 1386.394287,419.471954 1392.507568,418.253967 
	C1394.512939,414.557526 1396.114990,411.781281 1397.537598,408.915894 
	C1398.390259,407.198395 1399.600220,405.326813 1399.558716,403.550049 
	C1399.269409,391.182251 1408.195190,383.044159 1413.532715,373.392548 
	C1417.301025,366.578278 1423.100098,360.897034 1427.906372,354.643738 
	C1432.652344,348.468689 1435.678589,347.752167 1443.136963,350.651062 
	C1447.124268,352.200806 1451.293457,353.318726 1455.436401,354.422028 
	C1460.500732,355.770691 1465.234741,356.916626 1469.655396,360.643829 
	C1477.179443,366.987640 1487.247437,368.203064 1496.615356,369.884277 
	C1513.883057,372.983124 1531.290649,375.359619 1548.695923,377.602295 
	C1554.343384,378.329987 1557.506470,381.222565 1560.085327,385.839874 
	C1562.502197,390.167206 1564.964600,394.633942 1568.266113,398.256226 
	C1571.587646,401.900360 1572.380737,405.827057 1571.579346,410.127319 
	C1568.734131,425.393158 1568.785034,440.845367 1567.833130,456.250244 
	C1567.478760,461.983215 1564.243896,467.533691 1562.354736,473.178131 
	C1561.322021,476.263580 1560.624023,479.492126 1559.294434,482.439301 
	C1557.585815,486.226349 1558.942261,488.866974 1561.744995,491.181396 
	C1566.599243,495.189789 1568.033081,499.702026 1565.979248,506.063202 
	C1564.711060,509.990875 1565.622314,514.650024 1565.697144,518.978333 
	C1565.943115,533.213501 1565.968018,533.213074 1560.475708,545.853699 
	C1565.808716,546.491516 1570.969116,548.034973 1575.908691,547.507690 
	C1586.379272,546.390015 1595.696411,551.555542 1605.900269,551.908936 
	C1612.248779,552.128845 1617.623657,550.991516 1622.764160,547.548706 
	C1624.087036,546.662720 1625.721680,546.242310 1627.834229,545.343933 
	C1628.960205,547.162781 1630.157104,548.653503 1630.876221,550.347107 
	C1632.515503,554.208252 1635.239502,556.157776 1639.441895,555.658691 
	C1645.022217,554.995911 1649.477661,557.646851 1654.449097,559.586426 
	C1659.966431,561.738892 1666.462646,561.382446 1672.532593,562.118408 
	C1672.903809,561.447693 1673.275024,560.776978 1673.646240,560.106262 
	C1675.628540,563.404602 1678.549194,566.475098 1679.415894,570.044312 
	C1681.939453,580.437134 1685.998047,590.506531 1680.720215,601.836792 
	C1677.478149,608.796570 1677.652466,617.354797 1676.336792,625.202637 
	C1675.392822,630.832825 1677.941406,635.552734 1680.328247,640.335876 
	C1688.446045,656.601929 1687.860107,660.001648 1674.978638,672.465881 
	C1674.260498,673.160767 1673.522827,673.838562 1672.844360,674.570862 
	C1670.678955,676.907776 1666.722656,679.294495 1666.758057,681.611572 
	C1666.835449,686.685059 1667.668945,692.635681 1670.489868,696.590210 
	C1676.046631,704.380188 1682.755859,711.493652 1689.765747,718.056641 
	C1695.626953,723.544250 1698.004395,729.999207 1698.249390,737.509644 
	C1698.667480,750.328674 1697.444092,762.595337 1687.841064,772.685425 
	C1683.006104,777.765808 1683.497559,778.233521 1689.422852,783.775208 
	C1696.697021,779.526611 1702.029663,772.859314 1705.825439,765.816467 
	C1712.068481,754.233215 1719.372803,742.896851 1720.722778,729.130005 
	C1721.098022,725.303650 1723.748901,721.756714 1724.776611,717.926208 
	C1726.824829,710.293335 1729.025146,702.633179 1730.157715,694.838257 
	C1731.973022,682.345276 1734.309692,680.322754 1746.177490,683.228088 
	C1748.707642,683.847412 1751.210693,684.577759 1754.205078,685.386292 
	C1753.932495,686.974426 1754.026245,688.356995 1753.469604,689.388977 
	C1738.789551,716.603455 1724.834473,744.253418 1709.027466,770.800171 
	C1698.515259,788.454895 1685.339844,804.523621 1673.361084,821.305542 
	C1667.223145,829.904541 1661.095337,838.510864 1654.880249,847.229797 
	C1656.314819,848.270081 1657.029907,848.997314 1657.897217,849.379517 
	C1660.767334,850.644165 1664.960083,850.994751 1666.304932,853.153809 
	C1668.433960,856.571838 1669.631592,861.210022 1669.458618,865.256409 
	C1669.251953,870.089966 1667.397339,874.912781 1665.862671,879.611694 
	C1664.536011,883.673706 1662.265381,887.443970 1661.098999,891.538940 
	C1657.808716,903.089905 1653.602905,914.153320 1645.557739,923.381165 
	C1663.873413,969.460876 1682.001465,1015.068726 1700.658691,1062.007690 
	C1696.012573,1062.975098 1692.436646,1063.719604 1687.697144,1064.706421 
	C1688.152710,1066.850098 1688.108643,1069.808105 1689.376709,1072.010376 
	C1693.021240,1078.339722 1692.930298,1081.647095 1688.083252,1086.546631 
	C1685.979004,1088.673584 1683.958618,1090.883057 1681.608521,1093.757324 
	C1678.449829,1093.685669 1675.479492,1091.999268 1672.734863,1092.309570 
	C1664.555420,1093.234375 1657.413452,1092.229492 1650.614990,1086.835938 
	C1648.481812,1085.143555 1643.638916,1086.355347 1640.183716,1087.012939 
	C1637.702515,1087.484863 1635.466187,1089.244507 1632.554443,1090.715942 
	C1626.338013,1080.388916 1617.661865,1083.370483 1609.095947,1086.266113 
	C1606.915283,1087.003540 1604.872803,1088.240723 1602.886230,1089.445068 
	C1596.932617,1093.054810 1591.001953,1095.721802 1585.493408,1089.920044 
	C1576.894165,1100.847046 1568.642822,1111.332153 1558.960205,1121.888184 
	C1549.724487,1120.677246 1546.597046,1115.926514 1545.864014,1108.190674 
	C1545.212891,1101.319214 1543.588745,1094.426514 1541.499390,1087.826416 
	C1535.480103,1068.811646 1528.686279,1050.037964 1522.881226,1030.961304 
	C1520.711548,1023.831543 1517.043213,1018.688660 1510.988770,1014.636780 
	C1488.049438,999.284790 1465.457520,983.436279 1440.184814,971.881714 
	C1424.380493,964.656189 1409.923706,955.368347 1398.583496,941.690186 
	C1393.290161,935.305542 1387.295410,929.390930 1381.004761,923.976562 
	C1374.925537,918.744385 1372.919434,912.176208 1372.116455,904.743469 
	C1370.906372,893.543274 1369.444336,882.368530 1368.375366,871.155762 
	C1368.000732,867.223938 1367.745361,863.034424 1368.667358,859.263855 
	C1376.943359,825.420166 1383.741699,791.303223 1389.541016,756.941589 
	C1394.041504,730.276611 1394.554077,730.425171 1382.602783,706.937622 
	C1380.483154,702.771973 1378.027954,700.424133 1373.250244,699.235291 
	C1351.343628,693.784607 1329.602783,687.669556 1307.720581,682.115540 
	C1302.641602,680.826294 1297.248291,680.357788 1291.988159,680.279297 
	C1276.338501,680.045837 1260.680542,680.345032 1245.031982,680.076660 
	C1241.585327,680.017578 1237.379883,679.461304 1234.858521,677.455872 
	C1218.733154,664.630798 1202.645752,651.716370 1187.202759,638.086975 
	C1172.742798,625.325073 1159.131226,611.604370 1145.052979,598.405151 
	C1142.907959,596.394104 1140.258423,594.921387 1137.842163,593.199646 
z"/>
<path data-name="Nkondjock" fill="#69CCF0" opacity="1.000000" stroke="none" 
	d="
M1137.115601,593.479248 
	C1140.258423,594.921387 1142.907959,596.394104 1145.052979,598.405151 
	C1159.131226,611.604370 1172.742798,625.325073 1187.202759,638.086975 
	C1202.645752,651.716370 1218.733154,664.630798 1234.858521,677.455872 
	C1237.379883,679.461304 1241.585327,680.017578 1245.031982,680.076660 
	C1260.680542,680.345032 1276.338501,680.045837 1291.988159,680.279297 
	C1297.248291,680.357788 1302.641602,680.826294 1307.720581,682.115540 
	C1329.602783,687.669556 1351.343628,693.784607 1373.250244,699.235291 
	C1378.027954,700.424133 1380.483154,702.771973 1382.602783,706.937622 
	C1394.554077,730.425171 1394.041504,730.276611 1389.541016,756.941589 
	C1383.741699,791.303223 1376.943359,825.420166 1368.667358,859.263855 
	C1367.745361,863.034424 1368.000732,867.223938 1368.375366,871.155762 
	C1369.444336,882.368530 1370.906372,893.543274 1372.116455,904.743469 
	C1372.919434,912.176208 1374.925537,918.744385 1381.004761,923.976562 
	C1387.295410,929.390930 1393.290161,935.305542 1398.583496,941.690186 
	C1409.923706,955.368347 1424.380493,964.656189 1440.184814,971.881714 
	C1465.457520,983.436279 1488.049438,999.284790 1510.988770,1014.636780 
	C1517.043213,1018.688660 1520.711548,1023.831543 1522.881226,1030.961304 
	C1528.686279,1050.037964 1535.480103,1068.811646 1541.499390,1087.826416 
	C1543.588745,1094.426514 1545.212891,1101.319214 1545.864014,1108.190674 
	C1546.597046,1115.926514 1549.724487,1120.677246 1558.350342,1122.030762 
	C1557.705200,1130.537354 1554.178833,1137.844971 1547.848877,1143.794922 
	C1544.177002,1147.246460 1541.493530,1150.953735 1541.974365,1156.800537 
	C1542.830444,1167.205078 1537.157959,1174.180298 1526.925903,1178.215454 
	C1519.293335,1181.225464 1512.890747,1179.963989 1507.728027,1174.100586 
	C1505.779907,1181.835205 1504.699341,1189.240967 1502.025024,1196.017700 
	C1497.932007,1206.389893 1490.781250,1213.558594 1479.362305,1217.062744 
	C1473.379761,1218.898682 1468.354004,1224.272217 1463.260376,1228.488159 
	C1455.316162,1235.063232 1447.781372,1242.132080 1439.856812,1248.731934 
	C1437.383911,1250.791504 1434.378784,1252.529419 1431.326538,1253.510864 
	C1424.586670,1255.677979 1419.817139,1259.666260 1416.533936,1265.961792 
	C1414.577637,1269.713135 1411.653564,1272.953491 1409.227661,1276.467285 
	C1403.966675,1284.087891 1398.392456,1291.522949 1393.618408,1299.439087 
	C1389.614258,1306.078369 1383.597900,1310.269287 1377.151367,1313.344849 
	C1366.807739,1318.279541 1359.441040,1326.272095 1352.815186,1334.944092 
	C1349.482300,1339.306152 1346.108276,1342.948608 1341.314819,1345.590088 
	C1337.253296,1347.827881 1333.545288,1350.717896 1329.731079,1353.391235 
	C1324.811279,1356.839722 1321.656128,1361.445923 1321.858521,1367.605225 
	C1322.021606,1372.562988 1319.473267,1375.432617 1315.903809,1378.356323 
	C1310.766724,1382.563965 1305.214844,1386.757568 1301.527466,1392.118164 
	C1296.916504,1398.820923 1293.760254,1406.588623 1290.462524,1414.109741 
	C1287.953857,1419.831299 1286.670776,1426.106689 1284.002563,1431.737915 
	C1280.391602,1439.359009 1276.489136,1439.885254 1269.968506,1434.532837 
	C1269.711060,1434.321655 1269.401123,1434.137939 1269.224976,1433.869629 
	C1260.796265,1421.030884 1248.753296,1420.812622 1235.657959,1424.230591 
	C1228.951904,1425.980835 1223.039185,1426.973511 1218.639526,1419.034912 
	C1215.900513,1414.093140 1208.814697,1414.231934 1204.678101,1418.402100 
	C1196.713257,1426.431763 1188.885254,1434.615112 1181.345581,1443.043335 
	C1175.748535,1449.300049 1170.060059,1454.197144 1160.744995,1452.016846 
	C1154.634155,1450.586548 1149.439453,1454.261230 1145.253662,1457.676758 
	C1135.316650,1465.784668 1123.843140,1469.489624 1110.873291,1471.904175 
	C1108.569214,1447.580811 1110.615967,1423.430786 1115.232544,1399.489746 
	C1116.102051,1394.980225 1115.943970,1391.274292 1113.070190,1387.326416 
	C1110.796143,1384.202271 1109.563965,1380.212646 1108.336792,1376.454590 
	C1105.371582,1367.373901 1102.574463,1358.234497 1099.922119,1349.057373 
	C1098.553711,1344.322144 1096.101196,1340.886719 1091.599243,1338.511353 
	C1088.436523,1336.842407 1085.736694,1334.195312 1083.057617,1331.737305 
	C1080.105591,1329.029053 1077.546265,1325.983154 1072.876831,1326.354736 
	C1071.354858,1326.475708 1069.234253,1325.908813 1068.252808,1324.852417 
	C1062.620972,1318.790894 1054.686890,1318.403320 1047.623291,1315.747925 
	C1041.492920,1313.443359 1035.497192,1310.368652 1030.063843,1306.710815 
	C1019.645630,1299.696777 1001.915588,1296.753784 990.643250,1301.323975 
	C991.648804,1308.271484 987.568665,1312.573120 981.925964,1316.274292 
	C972.490601,1322.463135 968.403259,1332.572632 964.481262,1342.435303 
	C961.096985,1350.946045 956.588989,1358.335938 950.169739,1364.947754 
	C942.768127,1372.571411 936.319702,1380.932251 933.066772,1391.532837 
	C929.771729,1402.270630 920.722778,1408.838867 912.427490,1415.350708 
	C903.754883,1422.159180 897.953796,1430.435791 893.088867,1440.201172 
	C889.615967,1447.172241 883.995972,1453.299072 878.489258,1458.984497 
	C867.288879,1470.548462 858.560486,1483.590210 851.519287,1498.028931 
	C848.190491,1504.855347 843.071106,1510.785889 839.148071,1517.352295 
	C835.941040,1522.720215 833.419678,1528.493408 830.365845,1533.959351 
	C828.941284,1536.509277 827.264343,1539.050659 825.196167,1541.080688 
	C820.931274,1545.266602 816.469055,1549.281982 811.825867,1553.043823 
	C806.348938,1557.481079 803.413940,1563.050781 802.453308,1569.985474 
	C802.111694,1572.451172 801.168213,1575.255859 799.549744,1577.048584 
	C792.893555,1584.422485 785.951111,1591.545166 778.951233,1598.598877 
	C775.446899,1602.130371 771.962280,1605.895996 767.817444,1608.531616 
	C759.934021,1613.544434 753.776855,1611.887817 751.897705,1602.977417 
	C750.124878,1594.571777 744.588562,1588.470459 741.808838,1580.861328 
	C741.368103,1579.654663 739.585754,1578.925903 738.401245,1578.005127 
	C735.010864,1575.369751 731.307312,1573.053345 728.279663,1570.053589 
	C723.278259,1565.098267 724.997559,1557.037964 731.689026,1555.160156 
	C739.530457,1552.959717 744.739929,1547.958008 750.019470,1542.157715 
	C756.796814,1534.711914 762.183533,1525.855957 771.658203,1520.890503 
	C776.267273,1518.474976 779.800354,1514.083252 784.077881,1510.935913 
	C788.091125,1507.983276 790.354858,1504.152954 791.251160,1499.403931 
	C792.225098,1494.243530 795.009460,1490.518921 799.067871,1487.123413 
	C807.228943,1480.295166 814.919617,1472.904541 822.801270,1465.742554 
	C823.294067,1465.294922 823.968018,1464.904785 824.206299,1464.339600 
	C829.449341,1451.903442 839.705444,1443.094116 848.152649,1432.419067 
	C846.666321,1430.786133 845.822876,1429.114990 844.497314,1428.522705 
	C835.130371,1424.337769 825.726013,1420.220703 816.205750,1416.400757 
	C810.994080,1414.309692 805.616333,1412.496216 800.163818,1411.175293 
	C792.924805,1409.421875 788.862976,1404.539673 786.105835,1398.222900 
	C783.401489,1392.027100 778.919617,1388.077271 772.578430,1385.810425 
	C762.561279,1382.229126 752.767944,1377.968384 742.621094,1374.832520 
	C739.237122,1373.786743 733.492371,1373.829834 731.521667,1375.918335 
	C723.818237,1384.081543 713.591125,1381.163818 703.667603,1385.256226 
	C704.174316,1381.678833 703.919495,1379.574829 704.783020,1378.147095 
	C706.977356,1374.518921 706.999634,1371.174072 706.489563,1366.912109 
	C705.845459,1361.531250 707.311096,1355.791504 708.449585,1350.328125 
	C710.194092,1341.956177 710.112061,1341.924683 702.846802,1337.923218 
	C699.167908,1335.896729 695.712646,1333.110718 692.862427,1330.017456 
	C688.745483,1325.549561 689.356262,1320.303711 692.185974,1315.439819 
	C691.881104,1314.575684 691.853027,1313.702393 691.415100,1313.371338 
	C681.863403,1306.151978 681.115540,1296.352417 683.020264,1285.645142 
	C683.541626,1282.714355 683.893616,1279.629272 683.571167,1276.697632 
	C682.820129,1269.869019 684.991943,1264.354492 690.152649,1259.092773 
	C694.219055,1255.406616 698.503845,1252.820679 701.903931,1249.364502 
	C708.384155,1242.777344 714.316284,1235.653809 720.565735,1228.835327 
	C723.025818,1226.151367 725.489441,1223.366211 728.393311,1221.227173 
	C730.652710,1219.562744 733.514587,1218.118652 736.250916,1217.800659 
	C749.617981,1216.247070 760.115662,1210.730469 766.885620,1198.527344 
	C768.719421,1195.221924 772.210632,1192.579712 775.441101,1190.361328 
	C781.328186,1186.318604 785.966431,1181.432739 789.507935,1175.180542 
	C794.117676,1167.042480 800.193115,1160.393921 808.051941,1154.750610 
	C817.813538,1147.741211 826.711609,1139.239014 831.361755,1126.892212 
	C829.253662,1125.959839 827.558655,1124.689087 825.754150,1124.507690 
	C819.833069,1123.912964 813.841553,1119.940674 812.739136,1115.181152 
	C812.468018,1114.010620 812.966797,1112.648682 813.168884,1111.383789 
	C814.421448,1103.544800 811.436157,1099.327881 803.881348,1098.360596 
	C802.897034,1098.234619 801.876160,1098.409790 800.886169,1098.309082 
	C794.906677,1097.699829 792.075134,1094.463989 795.145752,1090.073242 
	C800.916748,1081.821411 799.408447,1072.242920 801.660950,1063.417603 
	C802.235107,1061.167969 800.490967,1057.446045 798.619080,1055.631348 
	C794.426819,1051.567261 789.484497,1048.277100 783.713257,1043.789795 
	C786.310303,1033.969482 789.245300,1022.830078 792.208252,1011.698242 
	C792.891846,1009.129883 794.014160,1006.630981 794.348694,1004.024963 
	C796.042969,990.826965 802.428467,980.857300 813.928650,974.031372 
	C816.130615,972.724304 818.474731,970.674927 819.432129,968.409668 
	C826.481323,951.730713 837.371216,936.223633 836.253906,916.939819 
	C835.950867,911.710083 839.340393,909.206116 842.454956,906.271973 
	C858.189270,891.448853 873.859680,876.556702 889.710876,861.859680 
	C893.813660,858.055664 896.001282,853.523743 897.495239,848.278320 
	C902.649048,830.182190 908.889465,812.531677 920.201538,797.161316 
	C920.970581,796.116272 921.976196,795.234741 922.927307,794.335938 
	C931.014526,786.694092 930.947815,779.669617 922.237671,771.858948 
	C925.276550,766.628113 928.736389,761.439575 931.396240,755.868958 
	C933.835022,750.761047 935.410400,745.240906 937.687622,739.025024 
	C940.534729,737.017700 944.091797,738.214111 946.734497,740.807068 
	C948.908447,742.940186 950.950745,745.950439 951.497375,748.863586 
	C953.335327,758.660400 955.426758,759.752197 963.253784,753.955444 
	C964.815002,752.799072 966.370667,751.635132 968.516846,750.036743 
	C971.458008,753.316650 974.199097,756.373413 976.869019,759.350769 
	C984.610474,756.068665 984.610474,756.068665 993.029358,761.263611 
	C990.562073,765.648865 988.069580,770.078674 985.270752,775.053162 
	C990.221924,776.532104 993.583496,773.995178 996.871887,772.390137 
	C1006.228333,767.823425 1014.057251,769.136719 1020.788513,777.248291 
	C1022.876038,779.763855 1025.505005,781.830139 1028.291504,784.489014 
	C1030.075806,782.212402 1031.306396,778.978821 1033.144653,778.585754 
	C1040.958496,776.914490 1040.916260,770.562805 1042.307983,764.940674 
	C1042.781860,763.026489 1043.098022,761.065247 1043.689819,759.189819 
	C1045.763794,752.616882 1047.695557,746.254333 1046.501343,738.996521 
	C1044.755493,728.385254 1051.810791,721.790405 1059.284790,715.902893 
	C1058.812134,711.469543 1058.361816,707.246704 1057.916504,703.071289 
	C1050.413696,700.917664 1046.215454,696.405273 1045.890503,688.429932 
	C1045.650879,682.546936 1046.237305,676.487976 1047.459351,670.720032 
	C1049.456299,661.295044 1049.584717,660.822266 1041.045532,655.535095 
	C1039.634155,654.661194 1037.838745,654.194397 1036.767090,653.034546 
	C1035.121948,651.254272 1032.835327,649.039856 1032.828613,647.003113 
	C1032.817383,643.589294 1036.199097,643.465088 1038.919922,643.707092 
	C1043.526123,644.116760 1048.230591,644.246338 1052.688232,645.335083 
	C1062.871460,647.822449 1072.742432,643.901001 1077.782471,634.798218 
	C1077.941162,634.511597 1078.031738,634.179932 1078.112427,633.858704 
	C1084.035400,610.244934 1104.453491,605.313782 1123.507446,598.598328 
	C1127.832642,597.073914 1132.096802,595.376648 1137.115601,593.479248 
z"/>
</svg>