<svg version="1.1" id="Layer_1" xmlns="http://www.w3.org/2000/svg" xmlns:xlink="http://www.w3.org/1999/xlink" x="0px" y="0px"
	 width="100%" viewBox="0 0 2191 2053" enable-background="new 0 0 2191 2053" xml:space="preserve">

<path 
	data-name="Ambam"
fill="#73B273" opacity="1.000000" stroke="none" 
	d="
M2194.000000,1764.000000 
	C2194.000000,1766.133545 2194.000000,1768.267090 2193.385254,1771.512939 
	C2187.415771,1778.322388 2183.535400,1784.597412 2183.550781,1792.851807 
	C2183.554199,1794.736694 2181.990967,1796.761475 2180.807861,1798.488525 
	C2174.424561,1807.806030 2174.591553,1811.426514 2182.093750,1817.402588 
	C2181.969971,1820.218384 2181.499268,1823.225098 2181.774658,1826.161865 
	C2182.511475,1834.017456 2183.584229,1841.837280 2175.724365,1847.185425 
	C2173.439697,1848.740112 2171.427979,1850.992065 2168.922363,1851.858765 
	C2164.932861,1853.238892 2160.634033,1853.725220 2156.678223,1854.545654 
	C2154.783203,1859.027466 2153.030518,1863.172974 2151.084961,1867.774658 
	C2149.717041,1867.888062 2148.059326,1867.854126 2146.478516,1868.187256 
	C2140.521973,1869.442017 2135.224854,1870.582642 2128.604736,1868.138428 
	C2118.312012,1864.338379 2116.083008,1866.235352 2108.066895,1874.263672 
	C2105.142090,1877.192627 2101.540283,1879.445435 2097.925537,1882.256958 
	C2094.164062,1877.010742 2087.167969,1876.462280 2086.599121,1869.522949 
	C2086.531982,1868.707153 2083.978271,1867.972412 2082.495117,1867.419800 
	C2078.805176,1866.044922 2075.103516,1864.678833 2071.337646,1863.537231 
	C2068.546875,1862.691162 2065.567383,1861.411621 2062.810303,1861.690308 
	C2049.463379,1863.038696 2035.555176,1859.619263 2022.283691,1867.153564 
	C2022.317993,1867.048462 2022.082275,1867.979492 2021.718994,1868.857666 
	C2017.429810,1879.223755 2013.977417,1880.891357 2003.753296,1876.599731 
	C1998.309570,1874.314697 1994.362061,1875.889893 1990.802002,1880.879395 
	C1985.046875,1877.390991 1979.847534,1874.239502 1973.710083,1870.519409 
	C1972.570923,1871.137939 1970.420532,1872.998413 1968.006714,1873.449097 
	C1964.613647,1874.083008 1960.414917,1874.883789 1957.631226,1873.484131 
	C1948.257080,1868.770386 1940.580200,1873.303223 1933.249390,1877.474731 
	C1924.280151,1882.578613 1923.660767,1883.335327 1915.944214,1876.376221 
	C1910.425659,1871.399170 1905.072998,1868.495850 1897.300781,1871.033691 
	C1894.092041,1872.081543 1890.107666,1870.561279 1886.476440,1870.564819 
	C1883.134644,1870.568115 1879.793457,1871.048828 1874.608887,1871.468384 
	C1878.232666,1875.388550 1880.301025,1877.625977 1882.201538,1879.681885 
	C1877.667725,1887.984741 1871.307983,1886.809204 1864.786743,1885.263062 
	C1863.472900,1874.199097 1859.652100,1871.920410 1849.675415,1875.875488 
	C1847.830933,1876.606567 1846.133911,1877.730591 1844.266602,1878.378906 
	C1839.303223,1880.101807 1834.171143,1883.301025 1829.309570,1882.965332 
	C1817.560547,1882.154541 1806.012939,1879.416504 1796.472900,1871.905762 
	C1793.499268,1872.713257 1790.676636,1873.479736 1787.050049,1874.178955 
	C1779.324219,1874.161621 1771.956421,1872.715454 1765.585938,1874.614624 
	C1756.233276,1877.402710 1746.890381,1876.996216 1737.523682,1877.872925 
	C1733.632446,1878.236938 1729.471436,1878.635498 1726.024658,1880.267456 
	C1717.000610,1884.540527 1707.794678,1882.779541 1698.838989,1881.332520 
	C1693.353271,1880.446167 1689.668823,1875.788940 1686.443970,1870.875122 
	C1684.476685,1867.877686 1680.098755,1863.704956 1676.401367,1866.506348 
	C1669.069092,1872.062256 1658.556030,1871.359375 1652.758545,1880.055298 
	C1649.000732,1885.691772 1646.715210,1885.067261 1641.871826,1879.976318 
	C1636.822998,1874.669312 1629.829102,1874.221558 1624.335205,1878.990723 
	C1622.641602,1880.460938 1621.233765,1882.260498 1619.417969,1884.206177 
	C1613.202881,1880.445435 1608.481201,1881.879761 1605.008423,1887.709961 
	C1602.673218,1891.630371 1599.128052,1892.355103 1594.759644,1892.195435 
	C1590.202515,1892.028687 1585.525879,1892.442505 1581.052734,1893.348877 
	C1575.487061,1894.476440 1570.385132,1895.548828 1564.688477,1892.862793 
	C1561.369019,1891.297607 1556.900513,1892.091797 1552.944580,1891.988159 
	C1551.017090,1891.937622 1548.797607,1892.953003 1547.195557,1892.298218 
	C1539.913086,1889.322632 1532.793335,1885.946289 1525.635620,1882.669189 
	C1522.328369,1881.155151 1519.068115,1879.538330 1515.195435,1877.685303 
	C1512.673950,1879.825195 1510.215698,1881.911377 1506.982422,1884.134399 
	C1496.292480,1886.507446 1486.398438,1889.736694 1476.503906,1884.018921 
	C1474.826904,1883.049683 1472.783691,1882.528564 1470.843750,1882.231079 
	C1460.840576,1880.696655 1457.595093,1883.125854 1453.847290,1892.889038 
	C1451.976807,1897.761963 1449.098877,1902.375122 1446.006226,1906.617065 
	C1442.741089,1911.095581 1438.024902,1911.437012 1434.053955,1907.641968 
	C1428.969360,1902.782227 1422.751465,1900.299072 1416.177490,1900.398071 
	C1406.019043,1900.551147 1396.116699,1896.620361 1385.655640,1899.625366 
	C1381.797363,1900.733643 1376.171387,1898.892944 1372.488892,1896.583618 
	C1368.042114,1893.794678 1363.747314,1893.699219 1359.153442,1894.065308 
	C1352.519409,1894.593750 1350.756592,1897.929565 1353.380127,1904.289551 
	C1354.258911,1906.420044 1355.043457,1908.589111 1356.251099,1911.728516 
	C1342.301636,1910.737549 1333.267334,1903.445801 1324.524170,1896.479980 
	C1325.925415,1895.430664 1326.617065,1894.362671 1327.468384,1894.215088 
	C1336.349243,1892.674561 1338.325928,1886.803711 1338.208252,1878.765747 
	C1338.160156,1875.478516 1339.217896,1872.807129 1335.809937,1870.277222 
	C1334.105591,1869.012207 1333.875732,1865.760620 1333.011841,1863.493652 
	C1328.762939,1863.493652 1325.055908,1863.493652 1319.987915,1863.493652 
	C1322.804810,1860.490967 1324.242065,1857.887329 1326.424438,1856.848022 
	C1331.523193,1854.420044 1333.285767,1849.899170 1335.110718,1845.264404 
	C1338.591675,1836.423584 1342.024048,1827.563599 1345.070679,1819.751953 
	C1348.736694,1816.318359 1353.908813,1821.451294 1355.498657,1816.375122 
	C1356.598145,1812.864990 1356.250854,1808.901611 1356.577637,1804.793701 
	C1359.847656,1803.971802 1362.951416,1803.191772 1364.431030,1802.819824 
	C1372.493164,1790.775391 1379.667358,1780.057617 1387.112671,1768.934692 
	C1384.770752,1768.818237 1383.384399,1768.749390 1383.226562,1768.741577 
	C1383.940918,1764.380615 1386.176636,1759.771362 1384.806763,1756.856323 
	C1383.007202,1753.026611 1378.725342,1749.937866 1374.859741,1747.612793 
	C1370.092773,1744.745117 1364.656250,1742.990234 1359.007080,1740.536621 
	C1356.506470,1741.872437 1353.701294,1743.684448 1350.659180,1744.907104 
	C1347.658203,1746.113159 1344.417480,1746.722900 1339.927002,1747.970825 
	C1339.927002,1741.788330 1339.596069,1736.570679 1339.998291,1731.410156 
	C1340.756470,1721.683716 1337.198975,1715.893921 1327.954346,1712.329834 
	C1323.323242,1710.544312 1318.620850,1708.771973 1314.328125,1706.329956 
	C1310.270874,1704.021973 1306.749634,1703.820068 1303.505127,1707.116821 
	C1300.042358,1710.635498 1296.092041,1710.520264 1292.626953,1708.123779 
	C1287.454468,1704.546143 1282.681152,1703.002075 1277.252686,1707.323120 
	C1276.657471,1707.796997 1275.365112,1707.578613 1274.438965,1707.424438 
	C1267.942017,1706.342285 1261.373291,1705.523193 1255.004150,1703.918457 
	C1252.027222,1703.168457 1248.621216,1701.477417 1246.848022,1699.127441 
	C1242.755615,1693.704468 1238.045288,1690.414551 1230.106079,1691.813599 
	C1230.780029,1684.943237 1227.032349,1681.868408 1222.431396,1678.494629 
	C1216.871338,1674.417847 1209.547363,1671.333008 1208.878540,1662.491211 
	C1208.731445,1660.548462 1205.340576,1658.851196 1203.188721,1656.797729 
	C1201.564331,1658.927124 1200.195312,1660.721802 1199.010986,1662.274292 
	C1195.847046,1661.411255 1193.666870,1660.412109 1191.435181,1660.279053 
	C1182.588745,1659.751465 1174.519531,1657.069458 1167.517334,1651.697754 
	C1157.723022,1644.184082 1146.842651,1640.020874 1134.471680,1639.373657 
	C1131.614990,1639.224243 1127.578613,1639.124512 1127.513794,1633.444214 
	C1130.001709,1634.300171 1131.948730,1634.970093 1134.417725,1635.819702 
	C1137.502686,1629.395630 1140.526001,1623.099731 1143.562012,1616.777710 
	C1144.870605,1616.891724 1146.290405,1617.015503 1149.171387,1617.266602 
	C1147.068481,1613.732422 1145.619141,1611.589233 1144.464355,1609.297607 
	C1141.635254,1603.683228 1144.080078,1596.044556 1149.853149,1594.472778 
	C1157.676025,1592.343262 1163.054077,1589.034424 1161.691895,1579.745728 
	C1161.545288,1578.746216 1162.484863,1576.910400 1163.364746,1576.551636 
	C1167.803589,1574.741699 1166.787354,1571.196655 1166.057861,1568.101074 
	C1164.873169,1563.073608 1166.900391,1559.936401 1170.919312,1557.344116 
	C1172.807251,1556.125977 1174.347168,1554.368408 1175.757812,1553.111084 
	C1175.757812,1545.839966 1175.757812,1539.295288 1175.757812,1531.527222 
	C1177.051025,1530.833862 1179.939331,1529.803101 1182.166626,1527.969238 
	C1185.439331,1525.274658 1191.108765,1521.490479 1190.676270,1519.083740 
	C1189.596436,1513.075562 1196.729736,1506.039429 1188.759888,1500.964478 
	C1188.387329,1500.727051 1188.475098,1498.789429 1188.982178,1498.300293 
	C1193.857178,1493.597534 1187.867920,1490.614380 1187.472900,1488.145386 
	C1189.779663,1477.635742 1199.667603,1470.550049 1194.370117,1459.368042 
	C1197.239258,1458.341553 1199.514893,1457.527344 1201.986206,1456.643066 
	C1200.610962,1454.017212 1199.615112,1452.115601 1198.576416,1450.132202 
	C1212.393188,1445.676636 1213.008301,1444.699219 1211.914185,1434.390869 
	C1210.445679,1420.557129 1209.208618,1406.695923 1208.087036,1392.829102 
	C1205.970337,1366.660522 1203.853271,1340.489990 1202.087280,1314.296631 
	C1201.642944,1307.705200 1202.312256,1301.007202 1202.841431,1294.387817 
	C1204.509033,1273.527100 1206.353516,1252.680664 1209.042969,1231.627441 
	C1217.276123,1231.637207 1224.603149,1232.149902 1231.912842,1231.965698 
	C1238.057129,1231.810791 1243.627075,1233.054565 1249.244751,1235.535522 
	C1301.864624,1258.774658 1354.564331,1281.833252 1407.221680,1304.987915 
	C1506.759888,1348.757446 1606.299683,1392.523804 1705.798706,1436.382568 
	C1718.564331,1442.009644 1731.837280,1446.991821 1743.562012,1454.361938 
	C1764.109985,1467.278076 1783.641968,1481.811035 1803.596680,1495.670654 
	C1857.729980,1533.269409 1911.869385,1570.859375 1965.992065,1608.473511 
	C2011.368042,1640.008911 2056.716797,1671.583740 2102.091309,1703.121582 
	C2130.788574,1723.067749 2159.490967,1743.006958 2188.280029,1762.820312 
	C2189.757568,1763.837036 2192.074219,1763.634766 2194.000000,1764.000000 
z"/>

<path 
	data-name="Olamze"
fill="#50C2C6" opacity="1.000000" stroke="none" 
	d="
M1323.888794,1896.888672 
	C1333.267334,1903.445801 1342.301636,1910.737549 1356.251099,1911.728516 
	C1355.043457,1908.589111 1354.258911,1906.420044 1353.380127,1904.289551 
	C1350.756592,1897.929565 1352.519409,1894.593750 1359.153442,1894.065308 
	C1363.747314,1893.699219 1368.042114,1893.794678 1372.488892,1896.583618 
	C1376.171387,1898.892944 1381.797363,1900.733643 1385.655640,1899.625366 
	C1396.116699,1896.620361 1406.019043,1900.551147 1416.177490,1900.398071 
	C1422.751465,1900.299072 1428.969360,1902.782227 1434.053955,1907.641968 
	C1438.024902,1911.437012 1442.741089,1911.095581 1446.006226,1906.617065 
	C1449.098877,1902.375122 1451.976807,1897.761963 1453.847290,1892.889038 
	C1457.595093,1883.125854 1460.840576,1880.696655 1470.843750,1882.231079 
	C1472.783691,1882.528564 1474.826904,1883.049683 1476.503906,1884.018921 
	C1486.398438,1889.736694 1496.292480,1886.507446 1507.290039,1884.783813 
	C1509.553345,1887.643677 1510.125732,1891.139282 1512.018799,1892.142456 
	C1521.015869,1896.910522 1520.279297,1906.319824 1523.210815,1912.389038 
	C1519.729980,1917.294800 1517.036865,1921.269287 1514.161133,1925.106934 
	C1507.759155,1933.650879 1509.257202,1944.429077 1506.022217,1953.934937 
	C1503.102783,1962.513916 1504.955688,1972.395752 1499.924683,1980.730469 
	C1499.179688,1981.964600 1499.332397,1983.902832 1499.467896,1985.481079 
	C1500.741577,2000.317505 1495.846680,2014.158691 1492.626221,2028.265137 
	C1492.341187,2029.513794 1491.855957,2031.194580 1490.918823,2031.742432 
	C1481.212891,2037.416260 1484.656982,2047.819214 1482.000000,2056.000000 
	C1401.291504,2056.000000 1320.583130,2056.000000 1239.145874,2055.103027 
	C1235.304443,2048.770020 1230.051147,2051.286621 1225.859985,2051.282715 
	C1073.709473,2051.133301 921.558899,2051.160400 769.408264,2051.138184 
	C765.427856,2051.137695 761.447510,2050.857910 757.580200,2050.127197 
	C764.627441,2035.657471 762.994873,2023.239746 751.464417,2012.413330 
	C750.038330,2011.074341 748.685486,2009.383911 747.996277,2007.588501 
	C746.351990,2003.305786 744.352905,1998.938477 743.914246,1994.466431 
	C743.290710,1988.109253 746.562805,1984.532715 753.002563,1983.711182 
	C759.583862,1982.871704 766.294800,1983.016235 772.861328,1982.100952 
	C782.597351,1980.743652 792.260315,1978.854980 801.941284,1977.119629 
	C802.885010,1976.950439 803.731201,1976.256592 804.632080,1975.826172 
	C817.878540,1969.496948 818.229858,1969.287109 828.523193,1980.213013 
	C833.588562,1985.589722 839.425110,1988.263794 846.394348,1990.079468 
	C853.490845,1991.928223 860.059570,1991.517456 866.815247,1989.239502 
	C874.059937,1986.796631 881.389832,1984.607544 888.650330,1982.210205 
	C898.409546,1978.987671 898.633423,1978.491455 898.204590,1967.879028 
	C897.997559,1962.753784 896.564331,1957.421753 899.321960,1952.882690 
	C904.244690,1951.616577 906.548828,1954.227539 907.782654,1957.352417 
	C910.349915,1963.854736 914.912964,1966.335693 921.709167,1966.334961 
	C928.112549,1966.334351 932.931213,1969.050659 936.001648,1975.303467 
	C937.642700,1978.645386 940.789795,1981.781006 944.037537,1983.662842 
	C947.938538,1985.923340 951.232056,1988.220337 953.077698,1992.428345 
	C954.864258,1996.501587 958.101807,1998.697266 962.583984,1998.250000 
	C969.421204,1997.567749 976.390808,1997.214600 982.990662,1995.508789 
	C987.235474,1994.411621 989.760376,1994.439941 992.211548,1998.282104 
	C993.297729,1999.984741 995.618469,2001.975342 997.373657,2001.970459 
	C1002.280396,2001.956665 1007.586182,2001.959717 1012.007202,2000.164795 
	C1021.689636,1996.233887 1031.712891,1993.235229 1040.099854,1985.964844 
	C1045.619629,1981.180054 1053.504028,1978.801270 1060.683472,1976.406494 
	C1063.689087,1975.403931 1067.604858,1977.205200 1071.119385,1977.627808 
	C1073.526367,1977.917358 1076.087769,1978.613525 1078.347412,1978.101318 
	C1083.749146,1976.876709 1089.013306,1975.045288 1094.226807,1973.490356 
	C1096.545410,1976.887329 1098.317505,1979.483765 1100.094849,1982.087646 
	C1101.619507,1981.384277 1102.891113,1981.221436 1103.330688,1980.529785 
	C1107.856079,1973.409302 1114.387817,1970.809448 1122.637939,1970.685547 
	C1125.224121,1970.646606 1127.932617,1968.355957 1130.305054,1966.695679 
	C1135.049805,1963.374756 1139.686157,1960.577393 1145.938599,1962.566772 
	C1147.886597,1963.186523 1150.337524,1962.468140 1152.511353,1962.092041 
	C1160.620850,1960.688843 1168.674316,1958.882690 1176.828247,1957.861816 
	C1179.586914,1957.516357 1182.649414,1958.846924 1185.448120,1959.784790 
	C1188.221802,1960.714233 1190.837769,1962.114380 1193.986328,1963.514282 
	C1196.016602,1961.573853 1197.586548,1958.979736 1199.818970,1958.133911 
	C1208.337402,1954.906006 1215.398682,1949.614624 1222.881836,1944.599243 
	C1231.241699,1938.996338 1241.405029,1936.052490 1250.857910,1932.130981 
	C1253.801758,1930.909912 1255.824585,1929.653442 1256.406616,1926.009155 
	C1257.596436,1918.558716 1262.256714,1914.703857 1269.961548,1913.951538 
	C1272.573120,1913.696411 1275.307129,1911.853638 1277.422363,1910.069214 
	C1280.100830,1907.809570 1282.204956,1904.869141 1285.280640,1901.407715 
	C1287.994995,1903.015991 1290.905884,1904.378784 1293.399292,1906.286987 
	C1300.643921,1911.831055 1304.460571,1910.490234 1305.823975,1901.688110 
	C1306.735107,1895.806274 1309.545654,1893.593872 1315.229492,1894.619141 
	C1318.157104,1895.147217 1321.004883,1896.117920 1323.888794,1896.888672 
z"/>
<path 
	data-name="Kyé-Ossi"
fill="#C64E4E" opacity="1.000000" stroke="none" 
	d="
M1482.937256,2056.000000 
	C1484.656982,2047.819214 1481.212891,2037.416260 1490.918823,2031.742432 
	C1491.855957,2031.194580 1492.341187,2029.513794 1492.626221,2028.265137 
	C1495.846680,2014.158691 1500.741577,2000.317505 1499.467896,1985.481079 
	C1499.332397,1983.902832 1499.179688,1981.964600 1499.924683,1980.730469 
	C1504.955688,1972.395752 1503.102783,1962.513916 1506.022217,1953.934937 
	C1509.257202,1944.429077 1507.759155,1933.650879 1514.161133,1925.106934 
	C1517.036865,1921.269287 1519.729980,1917.294800 1523.210815,1912.389038 
	C1520.279297,1906.319824 1521.015869,1896.910522 1512.018799,1892.142456 
	C1510.125732,1891.139282 1509.553345,1887.643677 1508.064941,1884.647095 
	C1510.215698,1881.911377 1512.673950,1879.825195 1515.195435,1877.685303 
	C1519.068115,1879.538330 1522.328369,1881.155151 1525.635620,1882.669189 
	C1532.793335,1885.946289 1539.913086,1889.322632 1547.195557,1892.298218 
	C1548.797607,1892.953003 1551.017090,1891.937622 1552.944580,1891.988159 
	C1556.900513,1892.091797 1561.369019,1891.297607 1564.688477,1892.862793 
	C1570.385132,1895.548828 1575.487061,1894.476440 1581.052734,1893.348877 
	C1585.525879,1892.442505 1590.202515,1892.028687 1594.759644,1892.195435 
	C1599.128052,1892.355103 1602.673218,1891.630371 1605.008423,1887.709961 
	C1608.481201,1881.879761 1613.202881,1880.445435 1619.417969,1884.206177 
	C1621.233765,1882.260498 1622.641602,1880.460938 1624.335205,1878.990723 
	C1629.829102,1874.221558 1636.822998,1874.669312 1641.871826,1879.976318 
	C1646.715210,1885.067261 1649.000732,1885.691772 1652.758545,1880.055298 
	C1658.556030,1871.359375 1669.069092,1872.062256 1676.401367,1866.506348 
	C1680.098755,1863.704956 1684.476685,1867.877686 1686.443970,1870.875122 
	C1689.668823,1875.788940 1693.353271,1880.446167 1698.838989,1881.332520 
	C1707.794678,1882.779541 1717.000610,1884.540527 1726.024658,1880.267456 
	C1729.471436,1878.635498 1733.632446,1878.236938 1737.523682,1877.872925 
	C1746.890381,1876.996216 1756.233276,1877.402710 1765.585938,1874.614624 
	C1771.956421,1872.715454 1779.324219,1874.161621 1787.050049,1874.179077 
	C1785.046875,1879.436768 1782.768921,1884.546143 1774.704590,1882.449707 
	C1771.559448,1881.632202 1766.905884,1883.864990 1763.908569,1886.042725 
	C1761.164429,1888.036377 1759.726929,1891.828491 1757.473755,1895.185547 
	C1759.431152,1896.052002 1763.193115,1897.717163 1768.007202,1899.848022 
	C1769.892090,1901.932861 1765.974609,1907.665161 1772.215820,1909.694946 
	C1775.117676,1910.638550 1774.655518,1914.695923 1771.952759,1917.247681 
	C1769.840332,1919.242065 1767.860718,1921.376831 1765.148438,1924.134155 
	C1768.802124,1925.895264 1771.520630,1927.205688 1775.743286,1929.240967 
	C1767.171753,1932.870850 1765.661011,1939.937256 1763.796021,1947.114868 
	C1765.166504,1946.500244 1766.700806,1945.812134 1768.234375,1945.124390 
	C1774.912109,1956.035034 1774.875732,1956.107788 1759.914185,1961.798584 
	C1753.723267,1960.386108 1754.900146,1954.172485 1752.443848,1949.153564 
	C1746.333374,1956.667358 1746.744751,1965.153564 1744.984497,1973.134277 
	C1741.185181,1974.987061 1735.556885,1974.928101 1735.316406,1982.112915 
	C1739.622681,1983.575195 1744.189331,1985.125854 1748.993286,1986.757080 
	C1739.923096,1993.508789 1739.862915,1993.802002 1745.654907,2001.592896 
	C1740.334839,2012.949585 1740.334839,2012.949585 1749.061157,2017.318970 
	C1747.292114,2020.078491 1745.468140,2022.664185 1743.922852,2025.406738 
	C1742.363892,2028.173462 1740.988159,2031.054565 1739.696777,2033.958862 
	C1736.887329,2040.277832 1737.774292,2045.407715 1744.193604,2049.229736 
	C1745.413452,2049.956055 1745.454346,2052.662354 1746.019531,2055.227539 
	C1658.624878,2056.000000 1571.249756,2056.000000 1482.937256,2056.000000 
z"/>

<path 
	data-name="Ma'an"
fill="#DF73FE" opacity="1.000000" stroke="none" 
	d="
M757.580200,2050.127197 
	C753.821167,2050.908447 750.175537,2051.275879 746.529236,2051.282227 
	C718.542786,2051.330566 690.556030,2051.275879 662.569519,2051.314209 
	C480.344452,2051.564209 298.119385,2051.830566 115.894318,2052.085938 
	C111.897018,2052.091553 107.899620,2052.026855 102.971977,2051.928711 
	C101.899452,2051.092285 101.757217,2050.321777 102.434540,2048.584717 
	C107.319122,2038.553589 111.931160,2029.664917 110.399277,2019.142578 
	C109.971642,2016.205200 110.464104,2013.146118 110.311279,2010.154297 
	C109.699760,1998.182617 116.218971,1989.415161 123.389397,1980.967163 
	C124.173988,1980.042725 125.734642,1978.975220 126.724037,1979.152710 
	C135.216125,1980.675049 138.735321,1974.050781 142.368744,1968.934204 
	C150.508881,1957.471558 160.412781,1947.796875 170.040070,1937.670654 
	C184.427643,1922.537598 197.185303,1905.839478 210.343857,1889.570557 
	C212.274963,1887.183105 213.614563,1883.442871 213.466370,1880.414917 
	C213.053696,1871.982910 217.627319,1867.168579 223.565552,1862.228516 
	C237.609711,1850.545410 251.096344,1838.194702 264.966949,1826.298584 
	C269.720306,1822.221680 274.801270,1818.481812 279.991394,1814.970459 
	C286.502167,1810.565552 293.636261,1807.022095 299.862793,1802.270020 
	C310.930664,1793.822998 316.428864,1780.966309 324.167358,1769.877075 
	C331.634827,1759.176270 339.384277,1748.672241 347.230286,1737.775757 
	C342.462311,1729.652954 343.506287,1720.776978 350.498322,1712.619873 
	C353.842072,1708.718994 356.835541,1704.517944 360.838074,1699.356079 
	C362.623138,1698.461792 367.164703,1704.218384 369.011505,1698.793579 
	C370.031158,1695.798462 368.753174,1692.021118 368.476166,1688.103394 
	C377.145233,1684.376953 380.326965,1676.288208 382.649078,1667.906494 
	C384.937042,1659.648071 390.388489,1651.612671 385.177887,1643.427856 
	C393.590546,1634.673462 404.829895,1635.964966 415.407166,1633.307739 
	C407.358917,1622.468384 419.183472,1620.159668 421.746307,1613.345215 
	C428.544403,1618.095459 433.129547,1614.362793 437.339630,1609.780762 
	C441.377716,1605.385986 447.059906,1601.546997 443.893829,1595.635010 
	C446.907349,1590.938965 449.259766,1587.273071 450.455566,1585.409546 
	C455.012939,1582.168335 459.828064,1580.572754 460.763519,1577.709595 
	C462.918121,1571.114990 471.733643,1568.451416 470.549896,1560.128174 
	C470.437958,1559.340942 472.863434,1557.512329 474.279785,1557.301392 
	C482.166870,1556.126709 485.734894,1549.998535 489.857239,1544.402954 
	C494.170532,1538.548218 498.572998,1532.759277 503.273346,1526.492432 
	C509.106201,1529.697632 512.845642,1526.774048 516.637756,1522.248169 
	C519.536926,1518.788086 523.306030,1515.828125 527.182922,1513.453491 
	C552.932007,1497.681885 580.060608,1484.027466 602.030090,1462.589233 
	C605.994385,1458.720825 608.990540,1454.854858 610.845154,1449.755737 
	C616.182312,1435.081543 621.838257,1420.522217 627.098572,1405.821167 
	C633.114380,1389.009033 640.893188,1372.590332 641.440186,1354.354126 
	C641.613892,1348.562256 643.806335,1344.453613 646.949097,1340.040283 
	C651.139709,1334.155640 654.891357,1327.906616 658.302979,1321.531128 
	C663.125793,1312.518433 667.465393,1303.247192 671.807434,1294.497681 
	C676.489441,1294.239136 680.132202,1294.889893 683.045349,1293.721558 
	C692.805969,1289.806763 701.206360,1293.582886 709.077209,1298.207031 
	C714.529968,1301.410522 718.976501,1301.584595 723.502808,1297.614868 
	C727.708618,1293.926270 732.223511,1293.443481 737.420654,1294.841675 
	C743.933472,1296.593994 750.540588,1297.995850 757.107788,1299.548828 
	C759.455078,1295.276611 761.693970,1290.940430 764.177979,1286.749634 
	C766.744080,1282.420410 768.646484,1278.183716 768.507263,1272.801514 
	C768.334045,1266.107666 769.346558,1259.372925 770.009460,1252.671753 
	C770.385803,1248.866943 770.868103,1245.044922 771.710754,1241.322998 
	C772.388489,1238.329712 772.871643,1234.287109 774.924133,1232.891602 
	C777.004333,1231.477295 780.940002,1232.484131 783.997192,1232.906738 
	C786.717102,1233.282715 790.473022,1235.810425 791.824707,1234.795288 
	C798.253540,1229.968018 804.350403,1232.951538 810.739441,1234.071777 
	C813.782043,1234.605225 818.956360,1234.955444 819.892700,1233.408203 
	C823.520508,1227.413452 831.595764,1224.013550 830.696045,1215.192505 
	C830.413391,1212.421387 831.775208,1209.482544 832.455872,1206.284302 
	C836.994690,1206.284302 841.887329,1205.283325 846.140808,1206.505859 
	C853.551208,1208.635620 858.148743,1206.290039 862.091370,1200.237915 
	C865.014526,1195.750854 869.120300,1192.989746 874.779236,1195.758179 
	C878.261719,1197.461792 881.552979,1196.881592 883.909607,1194.283447 
	C890.944824,1186.527100 900.991821,1184.586060 909.798279,1180.256226 
	C911.454956,1180.147949 913.111633,1180.039551 915.580811,1180.115479 
	C921.875549,1183.327148 927.159546,1186.821899 932.894165,1189.253906 
	C938.930725,1191.813843 945.279724,1193.987427 951.705444,1195.195801 
	C960.898621,1196.924316 969.212463,1199.332397 977.070068,1205.238892 
	C995.563660,1219.140503 1014.961670,1231.835815 1033.929077,1245.111694 
	C1043.316284,1251.682007 1052.570068,1253.002197 1062.167480,1245.516602 
	C1069.789062,1239.572021 1078.376099,1237.981079 1088.169922,1237.812988 
	C1110.673584,1237.427002 1133.147949,1235.432495 1155.639038,1234.174316 
	C1172.518677,1233.229980 1189.405640,1232.416138 1207.209473,1231.686523 
	C1206.353516,1252.680664 1204.509033,1273.527100 1202.841431,1294.387817 
	C1202.312256,1301.007202 1201.642944,1307.705200 1202.087280,1314.296631 
	C1203.853271,1340.489990 1205.970337,1366.660522 1208.087036,1392.829102 
	C1209.208618,1406.695923 1210.445679,1420.557129 1211.914185,1434.390869 
	C1213.008301,1444.699219 1212.393188,1445.676636 1198.576416,1450.132202 
	C1199.615112,1452.115601 1200.610962,1454.017212 1201.986206,1456.643066 
	C1199.514893,1457.527344 1197.239258,1458.341553 1194.370117,1459.368042 
	C1199.667603,1470.550049 1189.779663,1477.635742 1187.472900,1488.145386 
	C1187.867920,1490.614380 1193.857178,1493.597534 1188.982178,1498.300293 
	C1188.475098,1498.789429 1188.387329,1500.727051 1188.759888,1500.964478 
	C1196.729736,1506.039429 1189.596436,1513.075562 1190.676270,1519.083740 
	C1191.108765,1521.490479 1185.439331,1525.274658 1182.166626,1527.969238 
	C1179.939331,1529.803101 1177.051025,1530.833862 1175.757812,1531.527222 
	C1175.757812,1539.295288 1175.757812,1545.839966 1175.757812,1553.111084 
	C1174.347168,1554.368408 1172.807251,1556.125977 1170.919312,1557.344116 
	C1166.900391,1559.936401 1164.873169,1563.073608 1166.057861,1568.101074 
	C1166.787354,1571.196655 1167.803589,1574.741699 1163.364746,1576.551636 
	C1162.484863,1576.910400 1161.545288,1578.746216 1161.691895,1579.745728 
	C1163.054077,1589.034424 1157.676025,1592.343262 1149.853149,1594.472778 
	C1144.080078,1596.044556 1141.635254,1603.683228 1144.464355,1609.297607 
	C1145.619141,1611.589233 1147.068481,1613.732422 1149.171387,1617.266602 
	C1146.290405,1617.015503 1144.870605,1616.891724 1143.562012,1616.777710 
	C1140.526001,1623.099731 1137.502686,1629.395630 1134.417725,1635.819702 
	C1131.948730,1634.970093 1130.001709,1634.300171 1127.513794,1633.444214 
	C1127.578613,1639.124512 1131.614990,1639.224243 1134.471680,1639.373657 
	C1146.842651,1640.020874 1157.723022,1644.184082 1167.517334,1651.697754 
	C1174.519531,1657.069458 1182.588745,1659.751465 1191.435181,1660.279053 
	C1193.666870,1660.412109 1195.847046,1661.411255 1199.010986,1662.274292 
	C1200.195312,1660.721802 1201.564331,1658.927124 1203.188721,1656.797729 
	C1205.340576,1658.851196 1208.731445,1660.548462 1208.878540,1662.491211 
	C1209.547363,1671.333008 1216.871338,1674.417847 1222.431396,1678.494629 
	C1227.032349,1681.868408 1230.780029,1684.943237 1230.106079,1691.813599 
	C1238.045288,1690.414551 1242.755615,1693.704468 1246.848022,1699.127441 
	C1248.621216,1701.477417 1252.027222,1703.168457 1255.004150,1703.918457 
	C1261.373291,1705.523193 1267.942017,1706.342285 1274.438965,1707.424438 
	C1275.365112,1707.578613 1276.657471,1707.796997 1277.252686,1707.323120 
	C1282.681152,1703.002075 1287.454468,1704.546143 1292.626953,1708.123779 
	C1296.092041,1710.520264 1300.042358,1710.635498 1303.505127,1707.116821 
	C1306.749634,1703.820068 1310.270874,1704.021973 1314.328125,1706.329956 
	C1318.620850,1708.771973 1323.323242,1710.544312 1327.954346,1712.329834 
	C1337.198975,1715.893921 1340.756470,1721.683716 1339.998291,1731.410156 
	C1339.596069,1736.570679 1339.927002,1741.788330 1339.927002,1747.970825 
	C1344.417480,1746.722900 1347.658203,1746.113159 1350.659180,1744.907104 
	C1353.701294,1743.684448 1356.506470,1741.872437 1359.007080,1740.536621 
	C1364.656250,1742.990234 1370.092773,1744.745117 1374.859741,1747.612793 
	C1378.725342,1749.937866 1383.007202,1753.026611 1384.806763,1756.856323 
	C1386.176636,1759.771362 1383.940918,1764.380615 1383.226562,1768.741577 
	C1383.384399,1768.749390 1384.770752,1768.818237 1387.112671,1768.934692 
	C1379.667358,1780.057617 1372.493164,1790.775391 1364.431030,1802.819824 
	C1362.951416,1803.191772 1359.847656,1803.971802 1356.577637,1804.793701 
	C1356.250854,1808.901611 1356.598145,1812.864990 1355.498657,1816.375122 
	C1353.908813,1821.451294 1348.736694,1816.318359 1345.070679,1819.751953 
	C1342.024048,1827.563599 1338.591675,1836.423584 1335.110718,1845.264404 
	C1333.285767,1849.899170 1331.523193,1854.420044 1326.424438,1856.848022 
	C1324.242065,1857.887329 1322.804810,1860.490967 1319.987915,1863.493652 
	C1325.055908,1863.493652 1328.762939,1863.493652 1333.011841,1863.493652 
	C1333.875732,1865.760620 1334.105591,1869.012207 1335.809937,1870.277222 
	C1339.217896,1872.807129 1338.160156,1875.478516 1338.208252,1878.765747 
	C1338.325928,1886.803711 1336.349243,1892.674561 1327.468384,1894.215088 
	C1326.617065,1894.362671 1325.925415,1895.430664 1324.524170,1896.479980 
	C1321.004883,1896.117920 1318.157104,1895.147217 1315.229492,1894.619141 
	C1309.545654,1893.593872 1306.735107,1895.806274 1305.823975,1901.688110 
	C1304.460571,1910.490234 1300.643921,1911.831055 1293.399292,1906.286987 
	C1290.905884,1904.378784 1287.994995,1903.015991 1285.280640,1901.407715 
	C1282.204956,1904.869141 1280.100830,1907.809570 1277.422363,1910.069214 
	C1275.307129,1911.853638 1272.573120,1913.696411 1269.961548,1913.951538 
	C1262.256714,1914.703857 1257.596436,1918.558716 1256.406616,1926.009155 
	C1255.824585,1929.653442 1253.801758,1930.909912 1250.857910,1932.130981 
	C1241.405029,1936.052490 1231.241699,1938.996338 1222.881836,1944.599243 
	C1215.398682,1949.614624 1208.337402,1954.906006 1199.818970,1958.133911 
	C1197.586548,1958.979736 1196.016602,1961.573853 1193.986328,1963.514282 
	C1190.837769,1962.114380 1188.221802,1960.714233 1185.448120,1959.784790 
	C1182.649414,1958.846924 1179.586914,1957.516357 1176.828247,1957.861816 
	C1168.674316,1958.882690 1160.620850,1960.688843 1152.511353,1962.092041 
	C1150.337524,1962.468140 1147.886597,1963.186523 1145.938599,1962.566772 
	C1139.686157,1960.577393 1135.049805,1963.374756 1130.305054,1966.695679 
	C1127.932617,1968.355957 1125.224121,1970.646606 1122.637939,1970.685547 
	C1114.387817,1970.809448 1107.856079,1973.409302 1103.330688,1980.529785 
	C1102.891113,1981.221436 1101.619507,1981.384277 1100.094849,1982.087646 
	C1098.317505,1979.483765 1096.545410,1976.887329 1094.226807,1973.490356 
	C1089.013306,1975.045288 1083.749146,1976.876709 1078.347412,1978.101318 
	C1076.087769,1978.613525 1073.526367,1977.917358 1071.119385,1977.627808 
	C1067.604858,1977.205200 1063.689087,1975.403931 1060.683472,1976.406494 
	C1053.504028,1978.801270 1045.619629,1981.180054 1040.099854,1985.964844 
	C1031.712891,1993.235229 1021.689636,1996.233887 1012.007202,2000.164795 
	C1007.586182,2001.959717 1002.280396,2001.956665 997.373657,2001.970459 
	C995.618469,2001.975342 993.297729,1999.984741 992.211548,1998.282104 
	C989.760376,1994.439941 987.235474,1994.411621 982.990662,1995.508789 
	C976.390808,1997.214600 969.421204,1997.567749 962.583984,1998.250000 
	C958.101807,1998.697266 954.864258,1996.501587 953.077698,1992.428345 
	C951.232056,1988.220337 947.938538,1985.923340 944.037537,1983.662842 
	C940.789795,1981.781006 937.642700,1978.645386 936.001648,1975.303467 
	C932.931213,1969.050659 928.112549,1966.334351 921.709167,1966.334961 
	C914.912964,1966.335693 910.349915,1963.854736 907.782654,1957.352417 
	C906.548828,1954.227539 904.244690,1951.616577 899.321960,1952.882690 
	C896.564331,1957.421753 897.997559,1962.753784 898.204590,1967.879028 
	C898.633423,1978.491455 898.409546,1978.987671 888.650330,1982.210205 
	C881.389832,1984.607544 874.059937,1986.796631 866.815247,1989.239502 
	C860.059570,1991.517456 853.490845,1991.928223 846.394348,1990.079468 
	C839.425110,1988.263794 833.588562,1985.589722 828.523193,1980.213013 
	C818.229858,1969.287109 817.878540,1969.496948 804.632080,1975.826172 
	C803.731201,1976.256592 802.885010,1976.950439 801.941284,1977.119629 
	C792.260315,1978.854980 782.597351,1980.743652 772.861328,1982.100952 
	C766.294800,1983.016235 759.583862,1982.871704 753.002563,1983.711182 
	C746.562805,1984.532715 743.290710,1988.109253 743.914246,1994.466431 
	C744.352905,1998.938477 746.351990,2003.305786 747.996277,2007.588501 
	C748.685486,2009.383911 750.038330,2011.074341 751.464417,2012.413330 
	C762.994873,2023.239746 764.627441,2035.657471 757.580200,2050.127197 
z"/>

</svg>