<svg version="1.1" id="Layer_1" xmlns="http://www.w3.org/2000/svg" xmlns:xlink="http://www.w3.org/1999/xlink" x="0px" y="0px"
	 width="100%" viewBox="0 0 2306 2536" enable-background="new 0 0 2306 2536" xml:space="preserve">

<path data-name="Bafoussam I" style="fill: {#5264EB}" fill="#5264EB" opacity="1.000000" stroke="none" 
	d="
M2308.000000,1782.000000 
	C2308.000000,1796.041870 2308.000000,1810.083862 2307.273926,1824.643799 
	C2303.452393,1828.274902 2299.947266,1832.044312 2295.405762,1830.107910 
	C2286.196777,1826.181519 2278.384521,1828.427368 2270.417969,1833.242920 
	C2268.335693,1834.501587 2265.243164,1834.074707 2262.619385,1834.454834 
	C2254.991455,1835.560181 2247.733643,1837.019287 2244.240723,1845.419434 
	C2243.314209,1847.647705 2240.614746,1849.152222 2238.693359,1850.950806 
	C2235.076416,1854.336670 2231.441650,1857.703735 2227.799072,1861.062012 
	C2219.656982,1868.568359 2217.163086,1881.306396 2205.295166,1885.376587 
	C2205.040283,1885.463867 2204.887451,1885.885864 2204.714844,1886.168579 
	C2197.645752,1897.745972 2186.091553,1903.931519 2175.044189,1910.657837 
	C2165.146240,1916.683960 2160.067627,1915.437012 2153.753906,1905.940552 
	C2148.783203,1898.463989 2141.399902,1895.602051 2133.456299,1898.667847 
	C2129.486328,1900.199829 2125.966309,1900.744385 2121.973389,1898.870483 
	C2120.034424,1897.960327 2117.607910,1898.089111 2115.083984,1897.698242 
	C2109.805664,1908.675537 2104.028809,1918.681030 2092.795166,1924.064697 
	C2091.377441,1924.744141 2090.291260,1927.118164 2089.951904,1928.880615 
	C2087.890381,1939.581665 2079.750244,1944.674438 2071.344971,1949.571777 
	C2067.053711,1952.071899 2062.566406,1954.270630 2058.454590,1957.032715 
	C2055.014893,1959.343262 2052.587891,1962.515259 2054.193604,1967.035156 
	C2066.652100,1974.106445 2079.746582,1979.737061 2089.946045,1990.271729 
	C2097.262939,1997.828735 2099.078125,2005.938721 2096.253418,2015.659790 
	C2095.260498,2019.076172 2094.597900,2022.588135 2093.649170,2026.633057 
	C2098.851562,2027.411011 2103.802979,2027.062256 2107.678467,2028.937134 
	C2118.871338,2034.351562 2128.565918,2042.006470 2135.556396,2052.468750 
	C2138.257568,2056.511230 2140.685547,2060.854004 2138.749756,2066.410400 
	C2135.584473,2075.496826 2132.743408,2084.713867 2130.218750,2093.999023 
	C2128.871582,2098.953857 2126.265869,2101.820312 2121.418213,2103.629883 
	C2103.860107,2110.183594 2088.137695,2119.851562 2073.061035,2131.056152 
	C2063.605957,2138.083252 2052.721436,2143.621826 2040.146362,2143.697266 
	C2022.791016,2143.801270 2012.436890,2149.483643 2009.189331,2165.893799 
	C2006.505737,2179.453125 2000.929443,2189.906250 1991.317993,2198.963867 
	C1991.078613,2199.189453 1990.836304,2199.456787 1990.711792,2199.753662 
	C1988.024780,2206.159424 1982.898193,2206.845459 1976.796509,2206.143799 
	C1969.228027,2205.273926 1961.608276,2204.496582 1954.000977,2204.392334 
	C1937.858398,2204.171387 1933.066162,2208.414062 1930.145142,2224.498291 
	C1927.967773,2236.488525 1922.084839,2243.794678 1912.099121,2245.309326 
	C1900.308472,2247.098145 1888.988525,2244.726318 1878.324585,2239.394531 
	C1870.990723,2235.728027 1866.889893,2229.913330 1865.272461,2221.730957 
	C1864.258911,2216.602783 1862.040039,2211.569580 1859.593262,2206.896484 
	C1853.496216,2195.251953 1843.255615,2193.285400 1833.579224,2201.885254 
	C1831.633667,2203.614258 1830.603638,2206.656006 1829.768066,2209.288086 
	C1828.381836,2213.654541 1828.006592,2218.389893 1826.280640,2222.589600 
	C1823.633789,2229.030518 1820.318115,2235.209961 1817.077637,2241.391113 
	C1812.133423,2250.822754 1812.304321,2253.209473 1819.163208,2261.739990 
	C1819.787842,2262.516602 1820.692017,2263.216797 1820.965210,2264.106201 
	C1825.780029,2279.774414 1826.445557,2295.113281 1817.097290,2311.038818 
	C1809.836914,2301.820312 1803.041870,2293.690918 1796.820190,2285.144287 
	C1791.233765,2277.470703 1784.108032,2273.909180 1774.675537,2274.255127 
	C1767.688721,2274.511230 1760.628540,2274.819336 1753.702148,2274.112793 
	C1746.178711,2273.345215 1739.463501,2274.519775 1732.404419,2277.348389 
	C1722.984497,2281.122314 1713.297607,2281.284180 1703.663818,2276.204346 
	C1690.771362,2269.406006 1676.821777,2266.523438 1662.187012,2268.049561 
	C1647.902100,2269.539062 1634.461426,2268.135254 1622.429688,2259.080078 
	C1619.526245,2256.895020 1615.103638,2255.979004 1611.337280,2255.863525 
	C1605.417480,2255.681885 1600.315796,2254.348145 1595.682983,2250.013428 
	C1595.682983,2243.119385 1595.620361,2236.138428 1595.699097,2229.158936 
	C1595.792603,2220.880859 1592.613037,2214.442871 1585.513184,2209.812500 
	C1578.694458,2211.996582 1572.034546,2215.915039 1565.488037,2215.734131 
	C1558.681885,2215.545410 1551.985474,2211.394775 1544.629639,2208.757324 
	C1544.174805,2209.070312 1542.824829,2209.601807 1542.061890,2210.587646 
	C1536.006958,2218.412598 1527.837891,2222.178467 1518.257690,2223.541504 
	C1506.491211,2225.215820 1497.421143,2231.714111 1489.400635,2240.022217 
	C1486.624023,2242.898193 1483.582642,2245.534180 1480.958374,2248.538330 
	C1475.981689,2254.235352 1469.746704,2256.252197 1462.333130,2256.399902 
	C1452.061401,2256.604736 1441.768433,2257.099609 1431.546753,2258.103271 
	C1419.590332,2259.277100 1410.347290,2267.763428 1407.340332,2279.502441 
	C1406.021729,2284.649658 1405.124268,2289.916748 1403.587158,2294.993652 
	C1398.776001,2310.885010 1391.114502,2325.218994 1377.578979,2335.282227 
	C1363.982910,2345.390869 1349.651855,2354.505127 1335.778320,2364.248047 
	C1315.098145,2378.771240 1294.536865,2393.437744 1277.219360,2412.118408 
	C1271.151978,2418.663574 1263.074097,2422.026611 1254.515015,2423.919434 
	C1237.865356,2427.601562 1220.909058,2428.523438 1203.978760,2427.466309 
	C1194.468994,2426.872314 1185.398804,2424.320068 1176.848145,2418.912842 
	C1166.240967,2412.204834 1154.562622,2407.147949 1143.195312,2401.693604 
	C1124.144531,2392.552979 1107.137939,2380.532227 1092.252563,2365.616699 
	C1081.233643,2354.575684 1071.438721,2342.389648 1057.630737,2334.237061 
	C1051.825195,2330.809570 1047.390991,2324.982910 1042.531128,2320.051758 
	C1037.394653,2314.840088 1032.941040,2308.850830 1027.329346,2304.249756 
	C1023.729797,2301.298584 1018.538635,2298.602783 1014.125854,2298.701172 
	C1006.327393,2298.874756 998.610291,2301.488281 990.792725,2302.622314 
	C987.738403,2303.065430 983.961121,2303.253662 981.450989,2301.864014 
	C972.708008,2297.023682 964.610779,2291.239502 959.076538,2282.495361 
	C956.414734,2278.289551 952.894958,2274.625977 950.240601,2270.416260 
	C945.138489,2262.324951 938.897339,2259.864746 929.288330,2262.865967 
	C911.074402,2268.555420 892.235046,2266.170166 873.947693,2263.428223 
	C861.987061,2261.635010 850.342957,2256.754639 841.956848,2246.643066 
	C838.318420,2242.255859 833.630005,2239.831055 827.441345,2243.585449 
	C824.504333,2238.088379 822.742737,2232.578857 819.672852,2227.934326 
	C813.869385,2219.154053 816.671021,2212.388916 823.320007,2205.961914 
	C824.513428,2204.808350 825.623169,2203.561768 826.706238,2202.301514 
	C835.964600,2191.532959 840.252808,2179.287109 840.087891,2164.846436 
	C839.868225,2145.608154 841.525391,2126.348633 841.321228,2107.109619 
	C841.220825,2097.654541 840.374695,2087.578125 836.948303,2078.940674 
	C832.246155,2067.087158 834.675598,2056.811523 840.284851,2047.050415 
	C842.403564,2043.363647 848.221375,2041.551758 852.634766,2039.487671 
	C861.196960,2035.483032 867.697632,2029.664062 869.904114,2020.269775 
	C871.108704,2015.141113 871.525696,2009.769043 871.758057,2004.483032 
	C872.207886,1994.253052 875.862427,1985.151733 881.344910,1976.880737 
	C886.739807,1982.562378 891.579834,1987.776733 896.461243,1993.035767 
	C901.549866,1989.752563 905.715881,1987.064575 909.898987,1984.365601 
	C911.004211,1984.731201 911.972351,1984.937256 912.838257,1985.355225 
	C925.311218,1991.375244 938.856812,1993.474731 952.296326,1995.541870 
	C963.560120,1997.274414 967.954346,1991.466064 965.274719,1979.938721 
	C964.753296,1977.695923 964.313110,1975.383301 964.257385,1973.092651 
	C964.088440,1966.151855 964.615173,1964.987915 971.571777,1963.431030 
	C982.619568,1960.958496 993.745850,1959.016479 1004.193909,1966.095825 
	C1009.936646,1969.986938 1016.039856,1973.346069 1022.694580,1977.377563 
	C1025.677124,1976.251221 1029.396362,1974.864502 1033.102661,1973.444092 
	C1052.358643,1966.065674 1071.635254,1958.740845 1090.856079,1951.272217 
	C1103.145142,1946.497192 1114.438110,1948.309570 1124.302734,1956.753906 
	C1130.731689,1962.257202 1138.033081,1965.181396 1146.133911,1965.292969 
	C1154.511719,1965.408569 1161.695312,1968.300903 1168.767578,1972.157837 
	C1169.884644,1972.767090 1171.168457,1973.070435 1172.531494,1973.572998 
	C1173.118164,1972.406860 1173.806763,1971.606812 1173.916992,1970.733643 
	C1175.461426,1958.515381 1182.696411,1950.296265 1192.403198,1943.577026 
	C1195.576538,1941.380371 1198.334717,1938.482300 1200.952148,1935.604370 
	C1206.775146,1929.202148 1216.615601,1927.369019 1225.174805,1930.127441 
	C1232.398438,1932.455322 1240.164917,1933.235229 1244.395630,1940.800049 
	C1244.646851,1941.249023 1245.556274,1941.368530 1246.183716,1941.562988 
	C1255.296631,1944.385864 1264.473022,1943.646362 1273.321411,1940.930542 
	C1284.126099,1937.614380 1292.729492,1928.322876 1305.252075,1929.250854 
	C1307.261353,1929.399780 1309.416870,1927.349854 1311.529297,1926.369263 
	C1318.729736,1923.027100 1325.660522,1918.639893 1333.220093,1916.653564 
	C1342.489990,1914.217773 1347.855347,1909.240723 1351.727417,1900.611938 
	C1360.744751,1880.517456 1360.639526,1887.135376 1350.442871,1869.132446 
	C1347.801025,1864.468140 1344.721680,1860.084351 1346.076294,1854.288208 
	C1348.213745,1845.142456 1346.201538,1836.536621 1342.481323,1828.206909 
	C1339.215332,1820.894165 1339.711182,1813.264648 1340.379272,1805.614258 
	C1340.777588,1801.053711 1342.849487,1797.898438 1346.915161,1795.189575 
	C1361.463623,1785.495972 1376.613770,1777.657837 1394.354370,1775.851440 
	C1401.800903,1775.093140 1408.110962,1771.852295 1414.020020,1767.074463 
	C1439.653442,1746.348267 1465.650146,1726.070435 1491.221191,1705.268677 
	C1495.999390,1701.381714 1499.950928,1696.182129 1503.368896,1690.986328 
	C1509.034546,1682.373291 1514.475220,1673.529785 1519.069092,1664.313965 
	C1525.713867,1650.983643 1534.992554,1640.916504 1548.956665,1635.140747 
	C1554.455200,1632.866577 1559.157227,1628.531616 1564.729614,1626.598755 
	C1576.902588,1622.376343 1580.041138,1613.331665 1579.773071,1601.887939 
	C1579.765259,1601.555054 1579.809937,1601.219116 1579.781738,1600.888794 
	C1579.090942,1592.805420 1581.688721,1586.292603 1587.545288,1580.369995 
	C1600.868164,1566.896118 1612.957275,1552.136353 1626.854736,1539.315918 
	C1640.032349,1527.158936 1655.046631,1517.014038 1668.897461,1505.554199 
	C1674.181885,1501.182129 1679.802979,1498.042725 1686.296509,1496.236938 
	C1720.252441,1486.794556 1754.244263,1477.478760 1788.141602,1467.830322 
	C1795.770874,1465.658691 1803.338501,1462.884033 1810.468140,1459.425537 
	C1824.544678,1452.597412 1838.314697,1445.134277 1852.163330,1437.842285 
	C1854.796021,1436.456299 1857.391968,1434.875854 1859.689819,1432.999390 
	C1875.939453,1419.730591 1891.979614,1406.201782 1908.373169,1393.114624 
	C1913.767334,1388.808472 1919.708496,1384.942627 1925.915894,1381.944214 
	C1948.099609,1371.228027 1970.271851,1360.427734 1992.901245,1350.714111 
	C2010.573242,1343.128540 2026.500488,1333.350830 2040.413818,1320.141724 
	C2044.273438,1316.477539 2048.474854,1313.175293 2052.482422,1309.664917 
	C2065.999023,1297.825073 2079.499023,1285.966431 2093.789551,1274.163696 
	C2106.337402,1277.397583 2117.549072,1274.191650 2128.800781,1271.301025 
	C2133.624023,1270.062012 2138.625977,1269.378296 2143.305420,1267.748779 
	C2155.501709,1263.502075 2164.053711,1267.748291 2168.021240,1280.254639 
	C2168.823730,1282.784790 2169.875488,1285.234985 2170.723389,1287.751831 
	C2176.333496,1304.405273 2181.859863,1321.087036 2187.537598,1337.717407 
	C2190.499512,1346.394043 2193.713623,1354.984497 2196.744873,1363.422485 
	C2210.969971,1361.183472 2213.720215,1362.012207 2223.532471,1370.966309 
	C2224.756836,1372.083496 2225.976807,1373.325684 2227.428223,1374.051147 
	C2231.638184,1376.155396 2231.896240,1379.720093 2232.483154,1383.921875 
	C2234.540771,1398.656860 2226.017334,1410.856323 2223.513184,1424.453491 
	C2223.351807,1425.330078 2222.602783,1426.220703 2221.901855,1426.855957 
	C2216.553711,1431.703613 2211.225342,1436.577637 2205.744873,1441.273315 
	C2198.201904,1447.735840 2198.155273,1450.212524 2204.552002,1458.208984 
	C2206.437500,1460.566284 2208.696289,1465.021606 2207.705811,1466.717163 
	C2206.246826,1469.214355 2202.154297,1471.091553 2198.962891,1471.497314 
	C2185.864014,1473.163086 2184.134521,1474.682251 2184.367920,1487.573975 
	C2184.427246,1490.855469 2185.008301,1494.147705 2185.588623,1497.392334 
	C2185.978027,1499.567627 2186.105469,1502.487549 2187.521973,1503.668579 
	C2197.159668,1511.705688 2209.044922,1513.561890 2221.284180,1516.287720 
	C2218.354492,1510.563843 2215.373535,1506.175293 2213.818115,1501.328857 
	C2211.963867,1495.552124 2216.588867,1487.965454 2221.816895,1486.600952 
	C2225.606201,1485.611938 2228.341797,1489.001343 2230.145752,1496.763306 
	C2230.262939,1497.266846 2231.042480,1497.616333 2232.138184,1498.594849 
	C2241.093506,1496.599243 2250.837158,1492.725586 2260.205811,1500.222900 
	C2259.273193,1510.223267 2254.069580,1518.134399 2246.572510,1524.519409 
	C2243.242920,1527.355103 2241.848389,1530.163452 2241.521973,1534.569824 
	C2240.708740,1545.549438 2237.664551,1555.503540 2225.309326,1559.110840 
	C2223.744873,1559.567627 2222.228027,1560.396606 2220.872070,1561.321045 
	C2216.018555,1564.629272 2211.013184,1565.062256 2205.804688,1562.343872 
	C2199.712891,1559.164307 2193.150391,1559.767944 2187.417725,1562.069702 
	C2183.601318,1563.602051 2180.280029,1567.675659 2178.049805,1571.398071 
	C2176.522949,1573.946899 2178.384277,1577.103394 2182.540039,1578.030029 
	C2184.020508,1575.949463 2185.720215,1573.949341 2186.976807,1571.701782 
	C2188.747070,1568.535156 2191.791992,1567.213135 2194.518066,1568.615601 
	C2201.530273,1572.223267 2208.440186,1576.186768 2214.831787,1580.785400 
	C2218.655273,1583.536499 2221.426270,1587.750366 2225.412598,1592.120117 
	C2224.646240,1594.027466 2223.498535,1596.883911 2222.204346,1600.104980 
	C2215.999023,1598.098999 2210.715332,1596.154419 2205.300781,1594.696533 
	C2197.353027,1592.556641 2196.098389,1593.285645 2191.313477,1601.450928 
	C2192.190430,1602.762939 2193.120605,1604.134155 2194.030273,1605.519165 
	C2200.226562,1614.952759 2200.034424,1619.738647 2193.501465,1628.936523 
	C2191.811035,1631.316528 2190.703857,1634.114136 2189.358154,1636.734985 
	C2187.846924,1639.678223 2187.020020,1643.332275 2184.753174,1645.460205 
	C2178.075928,1651.728027 2177.863281,1659.321655 2178.657715,1667.272339 
	C2188.000977,1673.655396 2188.052246,1673.502441 2194.147705,1664.455322 
	C2195.980713,1661.734619 2198.997559,1659.811646 2201.982422,1657.051392 
	C2204.922852,1660.739014 2207.495850,1663.039917 2208.842041,1665.915161 
	C2210.179443,1668.771973 2210.283203,1672.206299 2210.983643,1675.662231 
	C2221.833008,1676.585938 2231.960205,1680.372192 2242.650391,1675.902710 
	C2247.053467,1674.061890 2252.026367,1676.025269 2255.233887,1679.956177 
	C2257.939209,1683.271606 2260.430664,1686.865112 2262.405029,1690.654297 
	C2268.538574,1702.426392 2265.438232,1712.862305 2253.851562,1719.241821 
	C2248.940186,1721.945923 2243.634277,1723.933472 2238.346191,1726.319458 
	C2237.699219,1729.166626 2236.566406,1732.051270 2236.548340,1734.942871 
	C2236.535889,1736.986572 2237.466797,1740.124878 2238.954590,1740.901978 
	C2245.648438,1744.398071 2252.444824,1748.880615 2259.659180,1749.957886 
	C2275.966797,1752.393066 2289.300293,1758.629150 2298.510254,1772.659302 
	C2300.515625,1775.714233 2302.723633,1778.652222 2305.056152,1781.463135 
	C2305.544189,1782.051270 2306.993652,1781.841919 2308.000000,1782.000000 
z"/>
<path data-name="Bafoussam III" style="fill: {#D66D7F}" fill="#D66D7F" opacity="1.000000" stroke="none" 
	d="
M880.790039,1976.413452 
	C875.862427,1985.151733 872.207886,1994.253052 871.758057,2004.483032 
	C871.525696,2009.769043 871.108704,2015.141113 869.904114,2020.269775 
	C867.697632,2029.664062 861.196960,2035.483032 852.634766,2039.487671 
	C848.221375,2041.551758 842.403564,2043.363647 840.284851,2047.050415 
	C834.675598,2056.811523 832.246155,2067.087158 836.948303,2078.940674 
	C840.374695,2087.578125 841.220825,2097.654541 841.321228,2107.109619 
	C841.525391,2126.348633 839.868225,2145.608154 840.087891,2164.846436 
	C840.252808,2179.287109 835.964600,2191.532959 826.706238,2202.301514 
	C825.623169,2203.561768 824.513428,2204.808350 823.320007,2205.961914 
	C816.671021,2212.388916 813.869385,2219.154053 819.672852,2227.934326 
	C822.742737,2232.578857 824.504333,2238.088379 827.634338,2244.234863 
	C832.508118,2249.560303 836.509583,2253.952881 840.715759,2258.139893 
	C863.274536,2280.595703 881.575806,2306.140869 895.940125,2334.494629 
	C900.912048,2344.308594 905.409729,2354.514893 903.520203,2365.888428 
	C902.798706,2370.231201 901.394958,2375.941406 898.276367,2378.094238 
	C891.915100,2382.485840 884.444885,2385.921387 876.942810,2387.847168 
	C867.397644,2390.297607 857.392822,2391.091553 847.537903,2392.149170 
	C841.966187,2392.747314 837.797302,2395.348145 836.377197,2400.366455 
	C832.216797,2415.067871 824.357788,2427.591553 815.202332,2439.538330 
	C813.486206,2441.777588 812.050476,2444.736816 811.784851,2447.489014 
	C810.958862,2456.043945 811.337036,2464.736572 810.204468,2473.236572 
	C806.956055,2497.617676 798.061768,2507.586914 776.055237,2503.816162 
	C775.403687,2503.704590 774.702759,2503.832520 774.068604,2503.673584 
	C757.522888,2499.531738 741.056946,2502.809326 724.594360,2504.333008 
	C722.162048,2504.558350 719.053894,2505.493896 717.627563,2507.227539 
	C710.276062,2516.163086 705.435120,2526.367676 704.000000,2538.000000 
	C698.599976,2538.000000 693.199951,2538.000000 687.562622,2537.452881 
	C686.232544,2534.478516 685.042175,2532.089844 684.063721,2529.617432 
	C679.271851,2517.508789 672.004211,2507.574219 660.254944,2501.231445 
	C656.474731,2499.190674 653.339111,2495.955566 649.558228,2493.916748 
	C640.469238,2489.014404 638.039001,2480.706055 637.864807,2471.459717 
	C637.778625,2466.886963 638.743958,2462.229492 639.717285,2457.714600 
	C641.957825,2447.322266 645.135742,2437.092773 646.755249,2426.614990 
	C648.989075,2412.163086 650.780457,2397.437988 644.521545,2383.407959 
	C639.358093,2371.833252 633.104004,2361.027588 623.726135,2352.027832 
	C615.601135,2344.230225 606.808289,2341.296631 595.741821,2343.124512 
	C583.174500,2345.200439 570.681946,2344.813721 558.237549,2341.035645 
	C541.075012,2335.825928 523.893982,2330.310791 506.342804,2326.836670 
	C482.037109,2322.025146 463.218414,2308.644531 445.891724,2292.236084 
	C444.304138,2290.732666 443.159912,2288.368164 442.630920,2286.203125 
	C439.099701,2271.750732 434.018494,2257.384521 432.852417,2242.719238 
	C431.338165,2223.674805 429.883850,2204.066895 438.337921,2185.709961 
	C442.202698,2177.317871 442.353729,2168.336182 442.357330,2159.307861 
	C442.359131,2154.869873 440.099731,2152.226562 436.260681,2151.329590 
	C432.288300,2150.401367 430.534393,2153.277344 429.278381,2156.693359 
	C427.213287,2162.309814 425.140564,2167.960449 422.510345,2173.321533 
	C419.901093,2178.640137 417.465302,2184.467773 413.433563,2188.583008 
	C402.741577,2199.496826 391.402374,2209.803711 379.927399,2219.905029 
	C376.834717,2222.627686 372.452118,2225.025879 368.465210,2225.383545 
	C355.151794,2226.577881 341.513702,2225.873779 329.157715,2221.007324 
	C311.306274,2213.976562 294.207794,2205.033691 276.785461,2196.905518 
	C277.035431,2193.620605 277.970764,2190.248291 277.417175,2187.141113 
	C274.101593,2168.531738 271.576752,2149.677002 266.656036,2131.480469 
	C257.378998,2097.175537 246.481659,2063.311768 236.640076,2029.154785 
	C233.706070,2018.971436 231.217056,2008.515015 230.024780,1998.013428 
	C228.710175,1986.433960 224.938171,1976.071533 218.802231,1966.438477 
	C213.436798,1958.015015 207.474930,1949.963623 202.287506,1941.437012 
	C199.047668,1936.111694 196.487320,1930.321045 194.095932,1924.542969 
	C189.663406,1913.833740 185.875381,1902.851807 181.265869,1892.223389 
	C176.539581,1881.325562 171.151001,1870.714844 166.052277,1859.978516 
	C165.947830,1855.552734 165.843506,1851.126831 165.738907,1846.701050 
	C165.491379,1836.227783 165.243683,1825.754395 166.089890,1814.337646 
	C167.263824,1809.155518 169.309235,1806.050415 172.227325,1803.029663 
	C180.913925,1794.038330 187.301498,1783.799561 188.895706,1770.980713 
	C189.465363,1766.400146 191.125259,1761.961426 192.191071,1757.435181 
	C193.823212,1750.503418 197.700928,1745.464355 204.307510,1742.609863 
	C212.545227,1739.050781 220.786438,1735.498779 228.997070,1731.877808 
	C241.763535,1726.247681 254.800812,1721.118652 265.419342,1711.594238 
	C271.817719,1705.854980 272.874725,1700.926270 268.940247,1693.398071 
	C261.854523,1679.840576 254.401291,1666.459839 247.807541,1652.667725 
	C245.013443,1646.823364 243.376938,1640.229980 242.311813,1633.795410 
	C240.039291,1620.067139 238.389832,1606.232178 236.666946,1592.418091 
	C235.526306,1583.272339 234.701416,1574.087158 233.782379,1565.367432 
	C235.141632,1564.473633 235.665863,1564.059814 236.247742,1563.756470 
	C247.024490,1558.138916 256.637329,1551.599854 260.529022,1538.996216 
	C264.175140,1527.188110 268.070923,1515.625366 262.221466,1503.406616 
	C259.162140,1497.015991 261.128021,1491.225098 264.751953,1485.639526 
	C272.934021,1473.028564 279.511322,1459.695801 283.387146,1445.057129 
	C284.384186,1441.291504 286.363892,1437.601318 288.623047,1434.390747 
	C294.376495,1426.214233 295.444427,1417.419067 293.598511,1407.792358 
	C289.591187,1405.729248 285.797913,1403.776245 282.369934,1402.011353 
	C282.369934,1391.131226 281.677246,1380.779053 282.525360,1370.554932 
	C283.949554,1353.385986 289.272247,1348.440430 306.650818,1345.710205 
	C312.870331,1344.733032 319.021179,1343.036987 325.269440,1342.586792 
	C336.086700,1341.807495 342.726410,1335.986450 347.977234,1327.005249 
	C350.536102,1322.628540 354.581696,1318.803345 358.702332,1315.732422 
	C364.760193,1311.217285 371.487793,1307.600952 378.483276,1304.009277 
	C382.980011,1309.365112 386.752228,1314.462036 390.897614,1319.234985 
	C406.554230,1337.261841 419.343170,1357.668701 439.044586,1372.303955 
	C471.868713,1396.687744 502.145844,1424.588379 539.561096,1442.450317 
	C558.176697,1451.337280 576.159363,1461.567627 594.876709,1470.220337 
	C623.572327,1483.485718 652.657104,1495.908936 681.571594,1508.701050 
	C687.052002,1511.125610 692.444153,1513.763184 697.995422,1516.010010 
	C702.990967,1518.031982 706.111145,1520.668823 706.505676,1526.802246 
	C707.015015,1534.720703 708.870605,1542.561646 710.290771,1550.409790 
	C711.462830,1556.886963 711.352600,1564.194092 714.484802,1569.577637 
	C719.126648,1577.556152 720.729919,1585.483765 720.207031,1594.299072 
	C719.990112,1597.955566 719.900024,1601.621582 719.839966,1605.284790 
	C719.713074,1613.017456 720.281128,1613.831665 727.469421,1615.785767 
	C731.639160,1616.919312 735.959534,1617.577271 740.031311,1618.975708 
	C747.579041,1621.567749 752.411377,1628.370850 750.696960,1636.005005 
	C748.640747,1645.161011 750.957092,1652.321045 757.068420,1658.890747 
	C758.343140,1660.261230 758.975159,1662.229614 760.293518,1664.633789 
	C753.400024,1674.928101 746.598572,1685.092529 739.788940,1695.251587 
	C735.147766,1702.175537 735.093689,1703.372559 741.133118,1709.581665 
	C744.592224,1713.137817 744.605652,1716.107300 741.658508,1719.995483 
	C737.924622,1724.921631 734.735840,1730.260864 730.849426,1736.119141 
	C734.544983,1739.272583 737.616211,1742.226074 741.023499,1744.720825 
	C745.857422,1748.260376 750.977722,1751.406250 755.887573,1754.846069 
	C757.166443,1755.742065 759.283936,1757.555054 759.041199,1758.182007 
	C756.610535,1764.457886 762.336609,1766.245605 765.109253,1769.427734 
	C769.261108,1774.192505 773.840515,1778.591309 778.332031,1783.051270 
	C781.195068,1785.894165 781.627258,1789.096436 781.332397,1793.057739 
	C780.572144,1803.270386 777.750549,1812.608643 771.685486,1820.922241 
	C768.099731,1825.837280 767.852417,1831.025391 769.149658,1837.012329 
	C770.789185,1844.578979 774.194641,1850.315552 780.289612,1855.131470 
	C786.972107,1860.411743 792.953064,1866.579956 800.020386,1873.079102 
	C788.374207,1879.497192 786.966431,1888.496094 789.202881,1899.101685 
	C793.725708,1899.435181 797.779236,1899.272949 801.592468,1900.152344 
	C805.018555,1900.942749 808.885864,1902.140137 811.312012,1904.461060 
	C816.292542,1909.225586 820.291016,1914.998657 824.986511,1920.086304 
	C827.608215,1922.927124 830.432922,1926.496338 833.835205,1927.525757 
	C843.247253,1930.373291 850.399170,1937.294556 859.332581,1940.656006 
	C868.225159,1944.002075 872.220093,1950.402344 873.792908,1959.230591 
	C874.892212,1965.400269 875.960571,1971.707153 880.790039,1976.413452 
z"/>

<path data-name="Bafoussam II" style="fill: {#5DF585}" fill="#5DF585" opacity="1.000000" stroke="none" 
	d="
M1550.495850,1075.463745 
	C1551.325684,1069.276611 1555.687622,1072.141846 1559.354736,1072.048706 
	C1560.073486,1077.695068 1560.785034,1083.284790 1561.551636,1089.307373 
	C1563.208374,1088.439941 1564.992065,1086.709229 1566.598267,1086.860596 
	C1568.756836,1087.064209 1570.778442,1088.720581 1572.967041,1089.807129 
	C1575.242310,1087.166626 1577.609375,1084.419678 1581.414062,1080.004272 
	C1583.745728,1085.519531 1585.312256,1089.225220 1587.167236,1093.613159 
	C1598.454468,1096.628540 1610.614990,1091.909790 1622.342773,1092.234619 
	C1624.580078,1090.135620 1627.007812,1087.857788 1629.919922,1085.125610 
	C1633.405151,1089.240723 1638.313110,1090.150269 1638.276367,1096.690430 
	C1638.259155,1099.779053 1643.306274,1102.896118 1646.476074,1106.471069 
	C1648.602539,1104.114746 1650.735718,1101.750854 1652.889771,1099.364014 
	C1649.718384,1096.607422 1644.726318,1094.809692 1647.569336,1087.817139 
	C1655.810669,1089.672607 1664.864502,1087.682983 1672.631836,1094.624634 
	C1676.239380,1091.373901 1679.868408,1088.103760 1683.592529,1084.747925 
	C1689.343384,1091.296509 1695.110474,1097.863525 1701.418213,1105.046143 
	C1704.614136,1102.925537 1707.485352,1101.020264 1709.683960,1099.561401 
	C1712.026733,1103.155029 1714.312988,1106.661987 1716.967163,1110.733276 
	C1721.583984,1106.491943 1725.333984,1103.046875 1729.416504,1099.296265 
	C1734.575073,1105.534912 1727.953613,1110.958374 1730.349487,1116.473755 
	C1734.190674,1118.294800 1738.591187,1119.861206 1742.416016,1122.322510 
	C1747.521240,1125.607788 1747.809937,1130.518311 1743.541016,1134.895142 
	C1740.838257,1137.666260 1737.815186,1140.124878 1732.899414,1144.561646 
	C1739.698608,1145.326782 1744.094971,1146.432983 1748.408081,1146.170654 
	C1755.831421,1145.719116 1762.158813,1147.281128 1766.827881,1153.648560 
	C1772.213623,1149.535889 1777.178955,1145.744141 1782.727783,1141.506958 
	C1787.133789,1147.242554 1793.401367,1147.174683 1800.589966,1145.643677 
	C1801.623047,1143.718140 1803.328979,1141.552612 1803.987183,1139.105347 
	C1805.452393,1133.658203 1808.861450,1131.402466 1814.241699,1131.758423 
	C1817.717407,1131.988159 1820.822632,1132.942383 1822.045654,1136.773804 
	C1823.635132,1141.752808 1821.759766,1146.201904 1816.497437,1149.949707 
	C1815.977539,1150.319946 1815.519897,1150.804199 1815.121094,1151.305420 
	C1814.955811,1151.513062 1815.021484,1151.904663 1814.862793,1153.145142 
	C1816.145020,1153.437866 1817.536499,1154.035278 1818.924072,1154.026123 
	C1826.881104,1153.973999 1828.953857,1156.150879 1827.554443,1163.885376 
	C1827.095825,1166.419922 1825.824219,1168.807251 1824.735107,1171.778198 
	C1826.922852,1171.778198 1828.811157,1171.778198 1830.682007,1171.778198 
	C1831.699707,1160.153076 1837.673950,1159.416260 1850.403809,1160.725220 
	C1848.267944,1155.711792 1846.439941,1151.420898 1844.454224,1146.760132 
	C1845.109375,1145.936279 1846.022705,1143.976196 1846.704956,1144.053467 
	C1854.562378,1144.944824 1858.619995,1136.718018 1865.801636,1136.303467 
	C1867.054077,1136.231201 1868.576294,1136.467529 1869.581543,1137.144287 
	C1881.098633,1144.898193 1894.625244,1145.719849 1907.635986,1147.534912 
	C1921.500610,1149.469238 1933.931030,1154.020752 1945.370361,1161.945068 
	C1948.261353,1163.947632 1951.870361,1165.045776 1955.286011,1166.128662 
	C1960.663330,1167.833618 1966.156006,1169.174438 1971.600586,1170.666992 
	C1978.695312,1172.612183 1982.898438,1177.283813 1984.563110,1184.371460 
	C1986.308105,1191.800049 1988.031860,1199.234009 1989.849487,1206.644897 
	C1990.616333,1209.771484 1991.599976,1212.844971 1992.436646,1215.773315 
	C2001.941528,1214.939819 2002.878784,1214.243042 2002.185059,1206.625854 
	C2001.523804,1199.364746 2000.149780,1192.171021 1999.178711,1184.935547 
	C1996.006958,1161.302856 1998.978638,1156.718628 2024.184326,1154.418823 
	C2030.944580,1153.801880 2037.980103,1155.719727 2044.838379,1156.797852 
	C2051.471191,1157.840454 2053.514404,1156.639404 2053.601318,1150.180786 
	C2053.654053,1146.241333 2053.044189,1142.281250 2052.573242,1138.349365 
	C2051.628418,1130.459229 2055.963623,1125.183472 2064.299561,1124.231323 
	C2072.819336,1123.258179 2080.478271,1128.255493 2079.403564,1135.753296 
	C2077.408936,1149.668579 2084.136719,1159.149780 2092.674316,1168.414917 
	C2096.033691,1172.060547 2099.302246,1175.979492 2101.696533,1180.283569 
	C2106.072754,1188.150269 2103.739014,1192.960083 2094.976074,1193.981689 
	C2087.283691,1194.878662 2082.232178,1200.145264 2077.618164,1204.825806 
	C2063.080322,1219.573853 2061.135254,1240.342773 2072.709229,1254.588989 
	C2078.273193,1261.437622 2085.556152,1266.889526 2092.533203,1273.544434 
	C2079.499023,1285.966431 2065.999023,1297.825073 2052.482422,1309.664917 
	C2048.474854,1313.175293 2044.273438,1316.477539 2040.413818,1320.141724 
	C2026.500488,1333.350830 2010.573242,1343.128540 1992.901245,1350.714111 
	C1970.271851,1360.427734 1948.099609,1371.228027 1925.915894,1381.944214 
	C1919.708496,1384.942627 1913.767334,1388.808472 1908.373169,1393.114624 
	C1891.979614,1406.201782 1875.939453,1419.730591 1859.689819,1432.999390 
	C1857.391968,1434.875854 1854.796021,1436.456299 1852.163330,1437.842285 
	C1838.314697,1445.134277 1824.544678,1452.597412 1810.468140,1459.425537 
	C1803.338501,1462.884033 1795.770874,1465.658691 1788.141602,1467.830322 
	C1754.244263,1477.478760 1720.252441,1486.794556 1686.296509,1496.236938 
	C1679.802979,1498.042725 1674.181885,1501.182129 1668.897461,1505.554199 
	C1655.046631,1517.014038 1640.032349,1527.158936 1626.854736,1539.315918 
	C1612.957275,1552.136353 1600.868164,1566.896118 1587.545288,1580.369995 
	C1581.688721,1586.292603 1579.090942,1592.805420 1579.781738,1600.888794 
	C1579.809937,1601.219116 1579.765259,1601.555054 1579.773071,1601.887939 
	C1580.041138,1613.331665 1576.902588,1622.376343 1564.729614,1626.598755 
	C1559.157227,1628.531616 1554.455200,1632.866577 1548.956665,1635.140747 
	C1534.992554,1640.916504 1525.713867,1650.983643 1519.069092,1664.313965 
	C1514.475220,1673.529785 1509.034546,1682.373291 1503.368896,1690.986328 
	C1499.950928,1696.182129 1495.999390,1701.381714 1491.221191,1705.268677 
	C1465.650146,1726.070435 1439.653442,1746.348267 1414.020020,1767.074463 
	C1408.110962,1771.852295 1401.800903,1775.093140 1394.354370,1775.851440 
	C1376.613770,1777.657837 1361.463623,1785.495972 1346.915161,1795.189575 
	C1342.849487,1797.898438 1340.777588,1801.053711 1340.379272,1805.614258 
	C1339.711182,1813.264648 1339.215332,1820.894165 1342.481323,1828.206909 
	C1346.201538,1836.536621 1348.213745,1845.142456 1346.076294,1854.288208 
	C1344.721680,1860.084351 1347.801025,1864.468140 1350.442871,1869.132446 
	C1360.639526,1887.135376 1360.744751,1880.517456 1351.727417,1900.611938 
	C1347.855347,1909.240723 1342.489990,1914.217773 1333.220093,1916.653564 
	C1325.660522,1918.639893 1318.729736,1923.027100 1311.529297,1926.369263 
	C1309.416870,1927.349854 1307.261353,1929.399780 1305.252075,1929.250854 
	C1292.729492,1928.322876 1284.126099,1937.614380 1273.321411,1940.930542 
	C1264.473022,1943.646362 1255.296631,1944.385864 1246.183716,1941.562988 
	C1245.556274,1941.368530 1244.646851,1941.249023 1244.395630,1940.800049 
	C1240.164917,1933.235229 1232.398438,1932.455322 1225.174805,1930.127441 
	C1216.615601,1927.369019 1206.775146,1929.202148 1200.952148,1935.604370 
	C1198.334717,1938.482300 1195.576538,1941.380371 1192.403198,1943.577026 
	C1182.696411,1950.296265 1175.461426,1958.515381 1173.916992,1970.733643 
	C1173.806763,1971.606812 1173.118164,1972.406860 1172.531494,1973.572998 
	C1171.168457,1973.070435 1169.884644,1972.767090 1168.767578,1972.157837 
	C1161.695312,1968.300903 1154.511719,1965.408569 1146.133911,1965.292969 
	C1138.033081,1965.181396 1130.731689,1962.257202 1124.302734,1956.753906 
	C1114.438110,1948.309570 1103.145142,1946.497192 1090.856079,1951.272217 
	C1071.635254,1958.740845 1052.358643,1966.065674 1033.102661,1973.444092 
	C1029.396362,1974.864502 1025.677124,1976.251221 1022.694580,1977.377563 
	C1016.039856,1973.346069 1009.936646,1969.986938 1004.193909,1966.095825 
	C993.745850,1959.016479 982.619568,1960.958496 971.571777,1963.431030 
	C964.615173,1964.987915 964.088440,1966.151855 964.257385,1973.092651 
	C964.313110,1975.383301 964.753296,1977.695923 965.274719,1979.938721 
	C967.954346,1991.466064 963.560120,1997.274414 952.296326,1995.541870 
	C938.856812,1993.474731 925.311218,1991.375244 912.838257,1985.355225 
	C911.972351,1984.937256 911.004211,1984.731201 909.898987,1984.365601 
	C905.715881,1987.064575 901.549866,1989.752563 896.461243,1993.035767 
	C891.579834,1987.776733 886.739807,1982.562378 881.344910,1976.880737 
	C875.960571,1971.707153 874.892212,1965.400269 873.792908,1959.230591 
	C872.220093,1950.402344 868.225159,1944.002075 859.332581,1940.656006 
	C850.399170,1937.294556 843.247253,1930.373291 833.835205,1927.525757 
	C830.432922,1926.496338 827.608215,1922.927124 824.986511,1920.086304 
	C820.291016,1914.998657 816.292542,1909.225586 811.312012,1904.461060 
	C808.885864,1902.140137 805.018555,1900.942749 801.592468,1900.152344 
	C797.779236,1899.272949 793.725708,1899.435181 789.202881,1899.101685 
	C786.966431,1888.496094 788.374207,1879.497192 800.020386,1873.079102 
	C792.953064,1866.579956 786.972107,1860.411743 780.289612,1855.131470 
	C774.194641,1850.315552 770.789185,1844.578979 769.149658,1837.012329 
	C767.852417,1831.025391 768.099731,1825.837280 771.685486,1820.922241 
	C777.750549,1812.608643 780.572144,1803.270386 781.332397,1793.057739 
	C781.627258,1789.096436 781.195068,1785.894165 778.332031,1783.051270 
	C773.840515,1778.591309 769.261108,1774.192505 765.109253,1769.427734 
	C762.336609,1766.245605 756.610535,1764.457886 759.041199,1758.182007 
	C759.283936,1757.555054 757.166443,1755.742065 755.887573,1754.846069 
	C750.977722,1751.406250 745.857422,1748.260376 741.023499,1744.720825 
	C737.616211,1742.226074 734.544983,1739.272583 730.849426,1736.119141 
	C734.735840,1730.260864 737.924622,1724.921631 741.658508,1719.995483 
	C744.605652,1716.107300 744.592224,1713.137817 741.133118,1709.581665 
	C735.093689,1703.372559 735.147766,1702.175537 739.788940,1695.251587 
	C746.598572,1685.092529 753.400024,1674.928101 760.293518,1664.633789 
	C758.975159,1662.229614 758.343140,1660.261230 757.068420,1658.890747 
	C750.957092,1652.321045 748.640747,1645.161011 750.696960,1636.005005 
	C752.411377,1628.370850 747.579041,1621.567749 740.031311,1618.975708 
	C735.959534,1617.577271 731.639160,1616.919312 727.469421,1615.785767 
	C720.281128,1613.831665 719.713074,1613.017456 719.839966,1605.284790 
	C719.900024,1601.621582 719.990112,1597.955566 720.207031,1594.299072 
	C720.729919,1585.483765 719.126648,1577.556152 714.484802,1569.577637 
	C711.352600,1564.194092 711.462830,1556.886963 710.290771,1550.409790 
	C708.870605,1542.561646 707.015015,1534.720703 706.505676,1526.802246 
	C706.111145,1520.668823 702.990967,1518.031982 697.995422,1516.010010 
	C692.444153,1513.763184 687.052002,1511.125610 681.571594,1508.701050 
	C652.657104,1495.908936 623.572327,1483.485718 594.876709,1470.220337 
	C576.159363,1461.567627 558.176697,1451.337280 539.561096,1442.450317 
	C502.145844,1424.588379 471.868713,1396.687744 439.044586,1372.303955 
	C419.343170,1357.668701 406.554230,1337.261841 390.897614,1319.234985 
	C386.752228,1314.462036 382.980011,1309.365112 378.839355,1303.467773 
	C384.983521,1297.251343 391.687469,1292.358154 397.589569,1286.637817 
	C409.368317,1275.221680 416.313660,1261.129761 418.871368,1244.896484 
	C419.024048,1243.927490 419.585358,1243.030518 419.842804,1242.069458 
	C422.815552,1230.971924 423.743591,1219.822998 420.379578,1208.636108 
	C417.515381,1199.111328 414.557007,1189.614868 411.616180,1180.113403 
	C404.526367,1157.207153 402.055695,1134.599854 415.865112,1113.016968 
	C416.397888,1112.184204 416.973419,1111.343384 417.309174,1110.425781 
	C420.324280,1102.186279 418.400696,1096.915894 410.794067,1092.333130 
	C401.966339,1087.014771 393.290619,1081.424072 384.286774,1076.423706 
	C374.499176,1070.987915 371.999817,1061.669678 369.727692,1053.730469 
	C373.288391,1049.016235 375.835785,1045.643677 379.077240,1041.352051 
	C387.273956,1038.815552 389.580658,1036.837158 387.290833,1030.322510 
	C384.528564,1022.463501 383.218597,1016.639038 393.362213,1013.597961 
	C395.064209,1013.087708 395.666901,1008.481201 396.533813,1005.691528 
	C399.751099,995.339355 401.946930,993.920349 413.284637,994.110962 
	C414.991272,994.139648 416.727997,992.380432 418.866882,991.223083 
	C404.680634,979.246582 404.680634,979.246582 405.015228,971.698181 
	C409.089661,969.015137 413.081055,966.386780 417.194275,963.678162 
	C420.968170,966.626160 424.302277,969.230591 427.483093,971.715271 
	C435.104462,966.482788 436.560059,966.559631 442.549866,972.731567 
	C445.978851,976.264893 449.191467,980.008240 452.142853,983.261719 
	C464.627411,977.504822 475.948456,972.284424 486.831665,967.265869 
	C501.442505,980.814270 501.442505,980.814270 506.474091,976.590637 
	C504.714050,972.783020 502.988068,969.049133 500.833679,964.388428 
	C513.207886,963.629517 524.061218,962.913025 534.921509,962.326416 
	C538.535645,962.131287 541.525085,961.396851 544.976196,959.461182 
	C551.862610,955.598511 559.638367,951.180237 567.288086,959.183350 
	C571.202209,963.278320 575.550781,961.982605 579.513000,958.712891 
	C581.382751,945.855713 581.389587,946.038269 594.245850,945.557800 
	C597.629578,945.431335 600.936279,943.710266 604.317444,942.881042 
	C606.537292,942.336609 608.906982,941.507568 611.069641,941.809082 
	C615.807190,942.469727 620.455688,943.768738 625.587952,944.906067 
	C628.799805,940.616821 632.043762,936.018433 635.590759,931.666931 
	C637.216125,929.672791 639.212708,927.087158 641.427734,926.625427 
	C650.137329,924.809937 658.945190,923.671875 666.908936,929.665100 
	C668.717957,931.026489 671.257874,931.416626 673.461365,932.253845 
	C674.076904,931.680176 674.692505,931.106567 675.308105,930.532898 
	C673.073853,924.693237 670.839539,918.853577 668.557861,912.890076 
	C675.772461,910.271118 681.402161,911.408813 685.837097,917.248474 
	C686.633728,918.297363 687.625732,919.254456 688.688538,920.034668 
	C693.104126,923.276306 697.371826,925.842163 703.038025,921.792053 
	C705.095093,920.321777 708.961487,919.827515 711.348999,920.692078 
	C716.627869,922.603638 719.533997,920.336853 722.698120,916.037537 
	C719.871521,913.276123 718.096802,909.956665 720.682922,906.004211 
	C722.014893,905.839478 723.346924,905.674744 725.299927,905.784790 
	C729.416443,909.902649 734.165955,911.117798 738.623535,909.606934 
	C743.901855,907.817993 748.458923,909.330505 753.037170,910.883606 
	C756.714600,912.131165 759.616577,912.799866 763.234619,910.290894 
	C768.426819,906.690125 774.426331,906.680115 780.013733,908.328064 
	C780.794373,912.078491 780.383057,917.039978 782.393677,918.387390 
	C787.298157,921.674011 792.397522,925.778381 799.223389,924.739990 
	C801.304749,924.423401 803.505493,924.891907 807.153564,925.077087 
	C805.119080,927.993042 803.934204,929.691284 802.589478,931.618591 
	C807.111267,941.360352 807.111267,941.360352 795.641846,949.374023 
	C799.542542,952.322876 799.542542,952.322876 807.363159,950.071167 
	C807.882080,950.447205 808.770752,950.755432 808.855652,951.212830 
	C809.268494,953.436279 809.466064,955.699707 809.799805,958.442322 
	C806.630188,959.210083 803.862122,959.880554 800.955627,960.584534 
	C798.309631,967.570618 795.670654,974.538208 792.801453,982.113708 
	C795.360779,983.081421 797.088989,983.734863 799.416260,984.614868 
	C795.451477,997.498596 808.389465,995.148926 814.476562,1000.029663 
	C813.322144,1004.604126 812.208252,1009.018250 810.943848,1014.028564 
	C814.949097,1014.028564 818.795532,1014.028564 823.214661,1014.028564 
	C823.643677,1017.346375 824.006714,1020.153442 824.368774,1022.953430 
	C824.933228,1023.144165 825.547913,1023.594543 826.010498,1023.471863 
	C833.306458,1021.536316 840.522583,1019.253845 847.884399,1017.628296 
	C853.080750,1016.481018 856.231384,1014.240662 854.988464,1008.166565 
	C859.674133,1007.865906 863.608887,1007.613403 868.098572,1007.325317 
	C869.890259,1000.246704 874.815002,998.035034 882.010559,997.978821 
	C886.479675,997.943848 890.959656,995.705750 895.382080,994.291748 
	C900.038879,992.802979 904.266174,993.354858 906.682678,997.793091 
	C908.715454,1001.526672 908.112305,1005.179382 904.769836,1008.618164 
	C902.441956,1011.013123 901.274048,1014.535461 900.223694,1018.221191 
	C906.857239,1013.173584 914.290894,1012.760315 921.790344,1012.268799 
	C927.696350,1011.881714 933.633667,1011.316650 939.435486,1010.199524 
	C944.191040,1009.283813 947.055603,1011.910339 949.927063,1014.598816 
	C953.329224,1017.784058 956.166443,1020.519897 961.844482,1019.816162 
	C965.564636,1019.354980 969.979370,1022.066101 973.652527,1024.124756 
	C983.679993,1029.744263 995.424316,1032.126953 1003.987183,1040.544556 
	C1008.400635,1044.883057 1013.636963,1047.362915 1020.256958,1046.172607 
	C1022.279785,1045.808838 1025.747925,1046.328613 1026.582153,1047.669922 
	C1031.954590,1056.309448 1042.282104,1056.681763 1049.713501,1061.869629 
	C1053.341797,1064.402222 1059.272217,1063.971069 1064.195312,1064.234253 
	C1071.235352,1064.610596 1077.031738,1066.984009 1082.105103,1073.473389 
	C1079.565186,1077.381348 1076.852051,1081.422974 1074.279663,1085.552368 
	C1071.848633,1089.454956 1072.142090,1092.871582 1075.877686,1096.077148 
	C1081.827515,1101.182617 1089.117554,1101.796753 1095.875366,1097.278442 
	C1104.677490,1091.393433 1114.041260,1088.354248 1125.613159,1091.101074 
	C1127.892090,1085.699097 1130.697632,1079.525024 1137.859863,1079.620239 
	C1140.763794,1073.967285 1143.709229,1069.174194 1145.749878,1064.022583 
	C1148.281494,1057.631348 1151.644653,1054.015503 1159.194824,1056.068970 
	C1160.964478,1056.550293 1163.426880,1054.711792 1165.503052,1053.788452 
	C1169.369751,1052.068481 1173.187012,1050.237061 1177.774536,1048.103394 
	C1177.072632,1043.466309 1180.919067,1041.319458 1184.680420,1038.333618 
	C1191.830322,1032.658081 1198.145630,1025.930908 1205.509033,1018.978027 
	C1210.036011,1022.246155 1215.158936,1025.424316 1222.558105,1022.237854 
	C1225.999023,1020.755981 1231.346313,1023.701233 1236.131836,1024.702881 
	C1239.810913,1020.768860 1243.901978,1016.394165 1248.204224,1011.793762 
	C1250.197388,1014.072449 1251.472046,1015.529724 1253.072754,1017.359680 
	C1254.197754,1013.513123 1255.275757,1009.827087 1256.671021,1005.056519 
	C1265.647095,1012.385620 1268.584961,1019.737488 1263.050903,1028.934570 
	C1267.297119,1031.086670 1268.760010,1029.548828 1270.396362,1026.175293 
	C1273.466309,1019.846130 1275.347290,1019.123047 1280.985962,1023.150452 
	C1284.977173,1026.001099 1288.563599,1026.345215 1293.049683,1025.836060 
	C1295.862915,1025.516724 1298.853027,1026.590942 1301.742798,1027.148560 
	C1306.494263,1028.065552 1311.605225,1030.656006 1315.876343,1029.642212 
	C1321.375854,1028.336670 1325.505371,1030.275024 1330.136108,1031.635620 
	C1343.451416,1035.548218 1356.921997,1038.836182 1369.443604,1045.266113 
	C1375.018799,1048.129150 1381.051392,1046.384277 1386.148315,1041.578491 
	C1388.572388,1043.296143 1390.872192,1045.127686 1393.361572,1046.649292 
	C1399.229980,1050.235962 1401.038940,1055.227783 1399.814087,1061.951782 
	C1398.387939,1069.780273 1400.330811,1072.155518 1408.259277,1072.228271 
	C1413.215088,1072.273682 1417.527954,1072.975342 1421.818115,1079.262939 
	C1423.531494,1077.113770 1424.878418,1075.424072 1426.427612,1073.480713 
	C1428.587646,1074.478638 1431.648804,1075.900757 1434.718506,1077.304199 
	C1435.295898,1077.568115 1436.430176,1077.763672 1436.427490,1077.979980 
	C1436.313965,1087.128784 1447.648315,1086.211914 1449.583984,1094.939697 
	C1453.934692,1092.058350 1457.349609,1089.796753 1461.875610,1086.799316 
	C1463.613647,1090.279663 1465.372803,1093.802612 1467.217529,1097.496582 
	C1468.830566,1096.568604 1470.791748,1095.440430 1472.943970,1094.202271 
	C1472.191040,1091.710815 1471.573242,1089.666382 1470.864136,1087.320068 
	C1475.185791,1088.574341 1479.002930,1089.682251 1483.315063,1090.933838 
	C1484.309814,1088.257080 1485.121338,1086.507202 1485.597778,1084.670532 
	C1486.078003,1082.818726 1486.225220,1080.880493 1486.605591,1078.414917 
	C1489.658936,1078.938477 1492.177002,1079.370239 1495.083252,1079.868530 
	C1496.296265,1077.625610 1497.647705,1075.126831 1499.628662,1071.464111 
	C1501.502441,1073.523315 1503.520630,1074.802856 1504.091064,1076.554077 
	C1505.489380,1080.847534 1507.939453,1083.805298 1512.497559,1083.162354 
	C1515.542725,1082.732788 1518.369873,1080.758423 1521.628296,1079.329224 
	C1519.596069,1075.308350 1517.797363,1071.749390 1515.246094,1066.701660 
	C1526.201050,1067.948242 1529.144409,1075.606567 1533.363281,1082.859741 
	C1537.122559,1077.567383 1541.770630,1075.564575 1548.401611,1077.329346 
	C1550.852783,1078.651489 1552.374023,1078.888184 1553.895386,1079.124756 
	C1552.762207,1077.904419 1551.629028,1076.684082 1550.495850,1075.463745 
M1506.585083,1088.852051 
	C1508.234619,1088.870239 1509.884277,1088.888550 1511.533813,1088.906738 
	C1511.334717,1088.081421 1511.135498,1087.256104 1510.936279,1086.430664 
	C1509.565308,1086.765625 1508.194458,1087.100586 1506.585083,1088.852051 
z"/>
</svg>