<svg version="1.1" id="Layer_1" xmlns="http://www.w3.org/2000/svg" xmlns:xlink="http://www.w3.org/1999/xlink" x="0px" y="0px"
	 width="100%" viewBox="0 0 2242 2820" enable-background="new 0 0 2242 2820" xml:space="preserve">

<path 
	data-name="Mamfé Central"
fill="#59F05E" opacity="1.000000" stroke="none" 
	d="
M1126.000000,2822.000000 
	C1123.222046,2822.000000 1120.443970,2822.000000 1117.227173,2821.234863 
	C1115.811890,2817.881836 1114.682861,2815.329102 1111.232544,2815.943848 
	C1100.222412,2817.904785 1095.067017,2811.456055 1091.683838,2801.526123 
	C1087.416992,2802.268311 1083.353271,2803.031006 1079.267822,2803.651855 
	C1078.029907,2803.839844 1076.007080,2804.144043 1075.576172,2803.530029 
	C1071.928711,2798.333496 1067.564941,2801.114258 1063.074829,2801.663574 
	C1059.699341,2802.076416 1056.108032,2800.704834 1052.610474,2800.142090 
	C1049.188232,2799.591553 1046.924683,2796.817627 1042.807373,2796.562500 
	C1038.812134,2796.315186 1034.753174,2791.938232 1031.350342,2788.712158 
	C1027.836304,2785.380859 1025.071655,2781.257080 1021.992737,2777.468994 
	C1019.926941,2774.927490 1017.208557,2772.662109 1015.944946,2769.765625 
	C1009.354248,2754.660400 996.784668,2747.962158 980.984253,2751.723877 
	C974.147034,2753.352051 967.456665,2755.087646 960.587402,2751.475098 
	C959.279541,2750.787354 955.657654,2751.553711 955.297119,2752.491699 
	C953.075134,2758.275146 946.634766,2759.377441 943.520935,2763.385010 
	C937.561523,2771.054443 928.791931,2773.410889 921.065796,2777.629639 
	C917.862976,2779.378418 913.425049,2779.182617 909.533020,2779.286865 
	C900.881348,2779.518799 892.051941,2777.245850 883.880676,2782.320068 
	C877.068420,2786.550049 869.915283,2787.379639 862.003784,2784.642822 
	C858.638672,2783.478760 854.703308,2784.351318 850.656372,2786.080322 
	C843.598022,2789.096191 835.420837,2794.245117 828.535400,2784.569824 
	C815.760803,2793.552734 803.243286,2791.422852 790.637451,2784.884277 
	C788.812927,2780.592285 786.873413,2776.022461 784.927673,2771.455078 
	C783.106812,2767.181152 780.864685,2764.838623 775.856567,2767.998047 
	C773.962036,2769.192871 770.863281,2769.270264 768.528687,2768.796387 
	C764.712769,2768.021729 761.073059,2766.378906 757.329651,2765.092041 
	C758.928650,2762.690186 761.687866,2760.378906 761.973206,2757.794678 
	C763.113708,2747.461914 763.795532,2737.047607 763.913635,2726.655273 
	C763.941589,2724.201172 761.681641,2720.854492 759.490723,2719.413574 
	C754.182251,2715.922363 753.058411,2711.413086 753.954102,2705.654541 
	C754.299622,2703.433105 754.010376,2701.113037 754.010376,2699.014648 
	C742.228882,2700.608643 730.999512,2702.127930 718.952515,2703.757568 
	C713.074402,2697.592041 708.078430,2690.739746 711.557678,2680.504395 
	C713.826294,2673.830322 713.838135,2666.946289 711.113586,2660.140869 
	C710.565063,2658.770752 711.722656,2656.717773 712.425415,2653.425049 
	C716.119934,2656.638428 718.712769,2658.964111 721.387512,2661.191895 
	C722.866882,2662.423828 724.328796,2664.011475 726.069092,2664.528809 
	C730.367249,2665.807373 734.741272,2661.860840 733.568970,2658.107178 
	C732.283630,2653.991211 724.736755,2648.628418 720.107849,2648.275635 
	C716.027893,2647.964600 711.971619,2647.342773 707.571289,2646.818604 
	C708.693909,2640.157715 712.245911,2639.646240 716.586365,2640.007812 
	C720.488098,2640.332764 724.637878,2641.078369 727.600647,2636.752686 
	C723.811829,2627.073486 714.187378,2634.606445 708.318115,2630.165527 
	C708.318115,2626.956787 708.318115,2623.485596 708.318115,2619.601318 
	C711.400635,2618.976074 713.957336,2618.446289 716.518921,2617.940674 
	C720.544434,2617.146240 722.332214,2614.411865 721.516907,2610.703857 
	C721.028320,2608.481934 719.499390,2605.524414 717.668396,2604.773193 
	C714.379639,2603.423584 711.127625,2604.654053 709.726196,2608.596924 
	C709.281921,2609.846680 708.659912,2611.037842 708.062500,2612.227539 
	C706.591797,2615.156006 704.421692,2617.723145 701.153076,2615.332275 
	C698.701172,2613.539062 699.137207,2610.435059 701.602112,2608.482178 
	C704.957336,2605.824219 704.504700,2603.653564 700.978638,2600.792969 
	C698.938110,2597.863037 697.211914,2595.584717 695.599976,2593.457275 
	C698.737122,2589.941162 701.297363,2587.071533 703.775940,2584.293457 
	C694.616882,2573.853760 693.524841,2573.291260 681.216553,2572.261475 
	C668.961792,2571.236328 667.833984,2569.397705 672.600037,2558.117188 
	C672.844727,2557.538086 673.407898,2557.093506 673.873413,2556.524658 
	C678.540466,2554.056885 686.691406,2558.271973 688.426636,2548.358154 
	C684.896179,2546.532471 681.218384,2544.630615 676.871460,2542.382568 
	C678.258118,2539.531006 680.267029,2537.012695 680.652649,2534.266846 
	C681.427734,2528.748047 682.195618,2522.935791 681.164429,2517.592041 
	C680.716370,2515.270264 675.817383,2513.807617 672.912842,2511.937256 
	C673.099854,2509.762451 674.291382,2506.710693 673.268066,2504.936279 
	C672.119141,2502.944580 668.968750,2502.107422 667.341125,2501.150879 
	C673.937439,2484.420410 666.371094,2472.623535 659.176514,2460.645996 
	C661.564148,2459.417725 662.654358,2458.828613 663.768005,2458.288086 
	C672.618103,2453.992432 678.271912,2446.412842 675.588135,2439.044189 
	C672.781372,2431.338135 673.706360,2425.045166 677.346436,2419.814941 
	C675.645081,2415.173828 673.575745,2411.733154 673.218140,2408.122803 
	C672.299316,2398.846680 669.648010,2390.926270 660.595093,2386.589355 
	C658.565308,2385.616943 656.472839,2384.774902 654.674255,2383.988525 
	C654.239685,2379.788818 654.726624,2375.821045 653.326599,2372.698975 
	C650.014160,2365.312500 649.450989,2365.234619 654.965881,2360.635010 
	C658.962219,2357.301758 659.212891,2354.457520 655.899170,2350.596191 
	C654.262268,2348.688721 652.199280,2346.089355 652.325073,2343.918945 
	C652.752991,2336.534180 648.702881,2333.885010 643.339722,2333.546875 
	C641.439087,2329.343018 640.835632,2324.773193 638.295898,2323.038330 
	C632.292297,2318.937988 632.612732,2313.353760 633.626892,2307.971924 
	C635.096497,2300.173584 635.348572,2292.674072 634.581543,2284.703613 
	C633.916992,2277.798340 632.892151,2272.353760 626.393677,2269.059326 
	C620.792725,2266.220215 619.446350,2261.431152 620.190674,2255.621582 
	C620.421448,2253.820312 621.092773,2251.462402 620.264282,2250.237549 
	C614.566101,2241.815430 612.652344,2233.014160 615.640625,2223.072998 
	C616.343079,2220.736572 615.330322,2217.853516 614.984253,2215.238037 
	C613.868469,2206.805420 612.695679,2198.380127 611.410461,2188.968262 
	C618.995239,2189.605957 619.652405,2185.647461 620.187378,2180.512939 
	C620.973816,2172.964355 622.806824,2165.513428 624.409851,2158.067139 
	C625.162903,2154.569336 627.237976,2152.524658 631.186279,2151.843994 
	C637.045532,2150.833984 642.704041,2148.694824 648.550232,2147.565674 
	C658.433289,2145.656494 663.736328,2138.838379 667.888245,2130.565430 
	C671.023499,2124.318359 670.324585,2121.323730 663.723267,2118.983154 
	C660.671875,2117.901367 656.741760,2118.751465 653.334717,2119.390381 
	C650.567078,2119.909180 647.985413,2121.419922 644.166992,2122.954590 
	C644.166992,2119.046387 643.606934,2116.357910 644.263245,2114.009277 
	C647.203674,2103.486572 644.811646,2098.207764 635.190369,2094.796143 
	C633.652222,2094.250732 632.093323,2093.513916 630.819885,2092.514160 
	C624.542542,2087.585205 621.145203,2074.452148 624.210571,2067.146729 
	C627.490051,2059.331055 631.020752,2051.750000 643.340698,2053.397949 
	C641.127319,2047.764282 638.052795,2043.585327 638.157410,2039.487671 
	C638.420166,2029.199585 633.730286,2020.099121 632.631409,2010.245972 
	C632.266541,2006.974121 631.513550,2003.216187 632.682068,2000.405640 
	C635.769104,1992.981323 639.811096,1985.954102 643.756287,1978.212891 
	C640.884888,1973.829468 637.748535,1969.041504 634.557556,1964.170166 
	C627.927673,1973.041504 627.927673,1973.041504 611.074890,1970.889648 
	C610.783325,1970.010132 610.472961,1969.083618 610.168884,1968.154907 
	C606.490112,1956.921265 595.659668,1951.074219 584.474976,1954.244751 
	C578.079346,1956.057617 571.757690,1958.522705 565.231079,1959.366089 
	C559.377808,1960.122314 554.196716,1961.230103 550.080811,1965.694092 
	C547.108521,1968.917847 543.668457,1968.645264 540.086365,1966.710815 
	C534.796570,1963.853882 532.213989,1959.817139 534.107056,1953.518555 
	C542.340515,1949.096558 553.907104,1955.108765 561.201660,1944.458496 
	C555.831299,1939.879150 554.689270,1934.067993 554.752991,1927.086548 
	C554.786682,1923.399658 553.358887,1920.558716 556.948914,1917.822266 
	C557.850647,1917.135132 558.057800,1914.541748 557.565063,1913.198120 
	C555.766296,1908.292969 554.201904,1903.092529 551.309387,1898.848145 
	C547.218323,1892.844727 541.838745,1887.737549 537.353699,1881.979614 
	C532.061340,1875.185059 532.642822,1870.388184 539.172485,1863.704224 
	C545.786133,1867.730957 552.481140,1871.807251 558.846863,1875.683105 
	C564.962952,1870.435913 564.903564,1870.439575 564.586914,1865.354614 
	C564.360229,1861.713013 564.112427,1858.052734 564.237671,1854.413330 
	C564.521606,1846.160034 565.299622,1837.914429 565.291260,1829.666138 
	C565.288574,1827.016357 563.975464,1823.981445 562.357361,1821.790894 
	C557.135620,1814.722290 557.005859,1814.861816 561.651855,1807.192139 
	C562.299988,1806.121948 562.443787,1804.746216 562.854187,1803.403442 
	C557.337708,1797.047974 550.715881,1794.561646 542.491272,1794.729126 
	C527.770630,1795.028687 514.120972,1792.405640 506.262939,1777.761353 
	C510.128265,1772.320312 510.449799,1772.894409 515.760315,1769.919922 
	C523.215942,1765.743896 530.214478,1760.724609 537.246460,1755.833008 
	C540.023254,1753.901489 541.122192,1750.607544 538.699158,1748.000244 
	C532.378418,1741.198730 534.730164,1733.918701 537.275513,1726.595581 
	C534.325439,1723.493896 531.673828,1720.706055 528.136963,1716.987427 
	C531.742065,1715.513916 534.378723,1714.442871 537.010437,1713.359863 
	C548.020203,1708.828735 549.099670,1706.156860 544.227905,1694.147217 
	C526.678711,1694.788330 515.798706,1703.559448 512.147705,1721.190796 
	C504.325623,1715.556152 503.179626,1713.160400 505.307281,1705.557373 
	C506.593811,1700.960205 506.067322,1696.862915 502.758972,1693.576904 
	C501.562347,1692.388062 498.984833,1691.621704 497.420685,1692.052856 
	C495.966034,1692.453857 494.455658,1694.542969 493.987000,1696.180054 
	C493.311951,1698.538208 493.557190,1701.159790 493.403595,1703.772583 
	C486.016785,1704.119629 485.995605,1697.264282 482.141479,1693.959229 
	C479.460602,1693.839844 476.439850,1694.028076 473.545349,1693.510376 
	C467.180267,1692.371704 459.912750,1690.472778 458.602295,1683.716431 
	C457.255951,1676.775024 453.427734,1672.317261 448.959351,1668.052124 
	C442.894348,1662.262695 440.081482,1655.901001 442.374390,1647.534790 
	C442.857849,1645.770630 442.215851,1643.698120 442.049438,1641.095459 
	C433.470215,1640.230835 425.772858,1637.593018 419.749451,1630.879028 
	C421.445312,1625.766602 422.826874,1621.306030 424.623474,1617.019531 
	C427.633850,1609.836792 431.854401,1607.277222 439.545166,1608.497437 
	C444.757294,1609.324585 449.810669,1611.117188 454.964172,1612.356812 
	C464.010254,1614.533081 473.282104,1617.624756 479.757446,1607.223389 
	C480.092743,1606.684814 480.677582,1606.176025 481.262238,1605.937256 
	C490.207886,1602.283936 491.544189,1594.735962 491.743652,1586.307007 
	C492.104736,1571.049072 502.720276,1561.291504 518.134277,1561.762207 
	C521.796265,1561.873901 525.463989,1562.075928 529.108093,1562.443481 
	C537.708557,1563.310913 542.609009,1560.013062 543.964294,1552.031616 
	C544.350708,1549.755737 544.263428,1547.372437 544.170288,1545.047363 
	C543.949097,1539.529175 546.595642,1536.849243 551.841797,1535.099243 
	C567.289001,1529.946289 586.342773,1537.358276 592.433167,1555.879639 
	C593.874329,1560.262695 595.895508,1564.597046 598.413940,1568.455078 
	C604.232788,1577.368896 612.429871,1579.850586 622.654297,1576.679565 
	C626.447571,1575.503174 630.395203,1574.037476 634.252502,1574.092773 
	C637.609924,1574.141113 642.142700,1575.165649 644.033691,1577.487305 
	C648.124329,1582.509888 652.232178,1587.867310 652.190186,1595.232422 
	C652.168152,1599.086914 653.383057,1603.158936 654.903870,1606.768555 
	C658.176331,1614.535400 664.442261,1615.686279 670.639526,1610.024780 
	C673.344055,1607.554077 675.663025,1604.543945 678.673157,1602.562744 
	C681.069031,1600.985840 684.248718,1600.599731 687.080444,1599.684937 
	C687.660950,1600.297485 688.241394,1600.910034 688.821838,1601.522583 
	C687.753662,1604.748047 687.237000,1608.312378 685.505859,1611.130615 
	C681.532532,1617.598633 681.458862,1620.849976 687.866760,1623.638794 
	C694.806641,1626.659180 700.260071,1630.937256 705.323730,1636.426147 
	C707.867310,1639.183472 712.026978,1640.653931 715.690735,1642.118530 
	C719.689636,1643.716919 723.960510,1644.634766 728.112488,1645.850220 
	C738.966858,1649.027466 739.892822,1648.708862 744.951843,1638.203613 
	C749.954590,1627.815308 756.542786,1618.784546 765.996887,1612.001099 
	C773.589294,1606.553833 782.820740,1609.772705 783.455750,1619.098999 
	C784.008423,1627.215332 786.797302,1633.634399 791.285400,1640.073730 
	C796.734436,1647.891724 793.790039,1654.270630 784.254700,1655.654419 
	C779.372314,1656.363281 774.282593,1656.146851 769.335510,1655.745972 
	C765.427429,1655.428955 761.876770,1655.069458 760.252014,1659.543701 
	C758.771790,1663.619629 760.695435,1666.741211 763.685059,1669.197998 
	C771.295166,1675.451538 779.879272,1676.957397 788.777832,1672.715576 
	C794.437866,1670.017334 799.611389,1666.270264 804.908142,1662.846558 
	C809.646973,1659.783569 813.986755,1655.988403 818.980286,1653.459351 
	C828.113281,1648.833862 829.485657,1649.389282 835.926636,1657.023071 
	C840.947571,1662.974121 842.795715,1663.520020 849.425476,1661.010254 
	C856.757874,1658.234253 858.570557,1658.785645 861.827515,1665.359985 
	C862.995544,1667.717773 863.407471,1670.441406 864.490845,1672.851440 
	C868.145752,1680.981445 870.799377,1689.887451 875.966675,1696.934082 
	C883.369385,1707.029419 891.060486,1705.827026 898.180969,1695.444214 
	C899.981201,1692.819214 902.307495,1690.077271 905.049805,1688.682251 
	C909.799072,1686.266479 914.640747,1689.278809 913.537415,1694.322632 
	C911.692749,1702.755493 914.120728,1710.794312 913.971252,1718.990601 
	C913.811340,1727.757080 915.051758,1736.017090 918.096069,1744.363525 
	C922.124390,1755.407715 924.176208,1766.850098 917.926208,1778.155396 
	C912.936279,1787.181519 915.266785,1796.089600 923.487122,1802.249390 
	C930.400940,1807.430054 937.675598,1809.316528 945.897888,1805.787842 
	C952.547791,1802.933960 958.630676,1803.200806 964.540161,1808.084106 
	C971.004211,1813.425537 977.784607,1813.518921 984.462280,1807.898926 
	C986.733032,1805.987671 989.422424,1804.527710 992.048828,1803.096924 
	C995.579224,1801.173706 999.125305,1799.580566 1003.416443,1801.259888 
	C1008.538940,1803.264404 1012.884583,1802.089355 1017.047852,1798.105835 
	C1018.767822,1796.460327 1022.591309,1795.836304 1025.063599,1796.419678 
	C1029.151855,1797.384033 1032.882568,1799.795410 1036.833618,1801.428589 
	C1041.692261,1803.436768 1046.480835,1806.170410 1051.555054,1806.969238 
	C1058.983032,1808.138550 1066.642822,1807.786743 1074.194092,1808.243408 
	C1078.148804,1808.482666 1082.155396,1809.771851 1086.015137,1809.377808 
	C1116.105713,1806.305908 1146.172241,1802.993652 1176.234497,1799.650635 
	C1210.588013,1795.830444 1244.919556,1791.810059 1279.288208,1788.134277 
	C1283.687134,1787.663818 1286.476929,1786.013672 1289.187378,1782.624878 
	C1303.127930,1765.194946 1317.433228,1748.057007 1331.388306,1730.638550 
	C1336.985352,1723.652710 1343.356567,1716.828735 1347.028809,1708.850830 
	C1355.649170,1690.122681 1362.763428,1670.704956 1370.719482,1651.663452 
	C1372.093018,1648.376099 1373.971313,1644.699829 1376.707764,1642.687134 
	C1387.681641,1634.616455 1395.482788,1623.787964 1403.164429,1612.960327 
	C1407.524902,1606.813965 1412.653931,1605.687256 1419.474121,1606.387085 
	C1427.720581,1607.233398 1436.044922,1607.587158 1444.338257,1607.630493 
	C1452.260132,1607.671997 1453.821167,1605.759155 1455.878906,1598.125732 
	C1456.962524,1594.105835 1459.120728,1590.358765 1460.943604,1586.560547 
	C1462.364868,1583.599243 1464.168945,1580.818481 1465.540405,1577.836914 
	C1470.658203,1566.710327 1475.667969,1555.533813 1480.823242,1544.144043 
	C1484.005371,1544.869629 1486.185913,1545.582764 1488.418579,1545.833618 
	C1494.070923,1546.468750 1499.509033,1546.520752 1504.844238,1543.456787 
	C1521.885376,1533.669312 1539.023926,1524.038330 1556.342651,1514.753174 
	C1562.729614,1511.328857 1565.991699,1506.294067 1565.567749,1499.547485 
	C1565.115112,1492.345215 1563.741333,1485.139160 1562.093872,1478.092651 
	C1560.713745,1472.189331 1558.566772,1466.258423 1561.671509,1460.602417 
	C1568.264526,1448.591431 1575.344849,1436.848022 1583.470825,1422.849121 
	C1585.648193,1426.093994 1586.602661,1427.866577 1587.892090,1429.347412 
	C1589.416016,1431.097168 1591.161255,1432.674194 1592.928833,1434.188110 
	C1600.240479,1440.450928 1601.281250,1440.178345 1605.260132,1431.318481 
	C1605.464233,1430.863892 1606.369385,1430.724121 1607.409180,1430.209717 
	C1618.164185,1435.021851 1620.721313,1446.507324 1627.248657,1456.892822 
	C1630.584961,1450.790527 1636.175537,1445.317505 1635.487793,1440.800781 
	C1634.189575,1432.276855 1636.644165,1426.345703 1640.875122,1422.201416 
	C1640.300903,1416.912231 1638.180664,1411.400269 1639.809692,1409.864380 
	C1645.634521,1404.371826 1646.454834,1398.040894 1646.238281,1390.871094 
	C1646.192505,1389.352661 1647.387329,1387.796875 1648.581787,1386.587891 
	C1651.306030,1389.426636 1653.241699,1392.170410 1655.650879,1394.403442 
	C1664.537109,1402.640259 1674.367554,1409.828735 1680.718262,1420.646973 
	C1683.861206,1426.000610 1688.442139,1430.574463 1692.712158,1435.186401 
	C1698.331787,1441.256104 1698.291260,1441.042847 1694.824585,1449.027832 
	C1693.844727,1451.284546 1693.874023,1454.208984 1694.180420,1456.737549 
	C1694.576660,1460.009277 1695.367920,1463.333252 1696.617188,1466.377075 
	C1698.342163,1470.579834 1697.707764,1474.226196 1695.050293,1477.593140 
	C1690.572266,1483.266846 1688.362183,1489.718384 1687.632690,1496.844727 
	C1687.439087,1498.737305 1686.629028,1500.720947 1685.603149,1502.348145 
	C1680.471558,1510.487671 1675.384033,1518.668945 1669.880005,1526.555786 
	C1663.577026,1535.587524 1657.108643,1537.729370 1646.532104,1534.928589 
	C1643.645752,1534.164307 1640.871582,1532.922119 1637.958740,1532.322510 
	C1630.947388,1530.879028 1627.760986,1533.470703 1628.167969,1540.469849 
	C1628.375732,1544.042480 1629.083252,1547.646606 1630.045776,1551.102417 
	C1632.198120,1558.829712 1634.889648,1566.458740 1630.930420,1575.149414 
	C1623.545288,1578.316772 1615.524780,1581.756592 1606.204956,1585.753784 
	C1606.433838,1590.650391 1606.565186,1596.538208 1607.043701,1602.397583 
	C1607.284058,1605.341553 1607.835571,1608.344727 1608.798828,1611.129883 
	C1612.108643,1620.697876 1610.607300,1629.248169 1603.340454,1636.502075 
	C1615.475464,1644.025146 1626.013428,1643.097778 1634.705811,1634.199341 
	C1640.389648,1628.380493 1644.491699,1628.821167 1648.914429,1635.905151 
	C1650.608154,1638.618164 1651.952515,1641.549194 1653.285522,1644.059448 
	C1659.342041,1643.866211 1661.602051,1640.136108 1664.376587,1636.814453 
	C1674.517700,1624.673950 1689.157837,1625.155273 1697.725708,1638.236450 
	C1701.117554,1643.415283 1703.739014,1649.311523 1705.615845,1655.228516 
	C1710.510620,1670.660522 1718.471680,1683.289307 1733.035278,1691.555054 
	C1742.718628,1697.050903 1753.015869,1701.278320 1761.584717,1709.224243 
	C1767.695312,1714.890747 1770.691772,1722.060425 1775.499634,1728.250977 
	C1780.830933,1727.012573 1785.909424,1725.832764 1790.808594,1724.694702 
	C1792.476929,1720.240234 1796.131348,1715.487061 1795.217163,1711.897583 
	C1793.225098,1704.076294 1797.692383,1698.752563 1799.206177,1692.505127 
	C1815.161743,1697.206787 1830.568115,1701.676758 1845.924927,1706.310547 
	C1851.137329,1707.883301 1856.026367,1708.544922 1861.452759,1706.502441 
	C1867.011597,1704.410034 1872.546875,1705.524658 1877.286377,1709.627563 
	C1881.553955,1713.322021 1886.450195,1716.390381 1890.250000,1720.493530 
	C1893.304321,1723.791992 1896.271973,1727.973145 1897.211182,1732.219849 
	C1898.323242,1737.247437 1900.992676,1740.546997 1904.347778,1743.795654 
	C1910.756470,1750.000977 1917.779907,1755.463257 1922.842285,1763.148315 
	C1927.520996,1770.250854 1929.322632,1776.766357 1923.766724,1783.860474 
	C1909.878662,1775.879517 1896.571045,1768.317627 1883.385010,1760.549683 
	C1878.718994,1757.801147 1874.260864,1757.679443 1869.084717,1759.137329 
	C1859.502930,1761.835938 1849.707153,1763.767212 1840.024902,1766.118164 
	C1810.958862,1773.176147 1781.979004,1780.210327 1754.757202,1793.399414 
	C1738.907593,1801.078613 1724.674072,1810.166748 1713.271484,1823.656372 
	C1709.941040,1827.596436 1705.822632,1830.870483 1701.969727,1834.540894 
	C1688.669556,1824.458008 1676.248901,1815.041870 1663.550537,1805.415161 
	C1660.555786,1807.027588 1657.901245,1808.311157 1655.391479,1809.833252 
	C1645.434692,1815.872681 1635.713257,1822.330688 1625.530396,1827.956299 
	C1618.295288,1831.953369 1613.086792,1837.367554 1608.478149,1844.172241 
	C1589.825928,1871.711914 1570.789917,1898.993408 1551.666748,1926.209229 
	C1549.490967,1929.306030 1546.267334,1932.308105 1542.851440,1933.776001 
	C1530.942993,1938.893433 1518.866821,1943.706909 1506.581177,1947.819458 
	C1501.412109,1949.549561 1495.425903,1950.318115 1490.046509,1949.644775 
	C1477.221313,1948.039429 1464.545776,1945.258789 1451.787842,1943.081421 
	C1448.339233,1942.492676 1444.812134,1942.363159 1440.113037,1941.905151 
	C1440.113037,1952.988525 1440.320923,1962.910889 1440.028320,1972.818604 
	C1439.873901,1978.048096 1441.606934,1981.460327 1446.132202,1984.301880 
	C1454.580200,1989.606689 1462.441528,1995.847778 1470.903076,2001.128540 
	C1502.899414,2021.097290 1531.174561,2046.024170 1561.271729,2068.519287 
	C1565.435425,2071.631348 1567.784058,2075.455811 1568.735718,2080.845947 
	C1571.388672,2095.873047 1574.365356,2110.869141 1577.954590,2125.697998 
	C1582.215454,2143.301025 1583.319092,2160.969971 1581.661743,2178.949219 
	C1579.590210,2201.421387 1577.822876,2223.921143 1575.895020,2246.406738 
	C1574.477173,2262.943359 1572.961670,2279.471680 1571.581543,2296.011230 
	C1569.677979,2318.822754 1567.433105,2341.617432 1566.156616,2364.465332 
	C1565.302979,2379.745850 1565.702881,2395.108643 1565.912598,2410.429199 
	C1565.982910,2415.569092 1564.403198,2419.314941 1560.469116,2422.542725 
	C1554.040161,2427.816650 1548.026367,2433.601074 1541.541626,2438.801025 
	C1513.989014,2460.893555 1487.782349,2484.409668 1464.019165,2510.600342 
	C1460.475098,2514.506592 1458.359863,2518.528809 1458.084229,2523.849609 
	C1457.552002,2534.128662 1456.670410,2544.391602 1455.818848,2554.651611 
	C1455.105103,2563.252197 1454.176514,2571.834473 1453.435181,2580.432861 
	C1452.238770,2594.311768 1451.118042,2608.196777 1449.546143,2622.605957 
	C1402.282959,2649.569580 1355.125244,2675.471191 1308.723267,2702.662109 
	C1284.444702,2716.888916 1258.907593,2727.454346 1232.250732,2735.831299 
	C1224.017090,2738.418701 1215.811768,2741.114990 1207.689453,2744.029053 
	C1203.971802,2745.362793 1199.594849,2746.524658 1197.109253,2749.228516 
	C1193.583252,2753.064209 1189.734985,2753.561279 1185.120117,2754.677490 
	C1178.636841,2756.246094 1172.201660,2759.528320 1166.825562,2763.528564 
	C1164.076294,2765.574463 1163.676636,2770.778564 1162.346924,2774.214355 
	C1158.251831,2776.005127 1153.007568,2776.788086 1150.219238,2779.825684 
	C1144.046753,2786.550537 1142.154297,2796.767334 1132.838135,2801.229248 
	C1131.426025,2801.905518 1130.638550,2804.447754 1130.102051,2806.284668 
	C1128.584473,2811.479248 1127.347412,2816.755859 1126.000000,2822.000000 
z"/>

<path 
	data-name="Upper Banyang"
fill="#4094B8" opacity="1.000000" stroke="none" 
	d="
M1923.766724,1783.860474 
	C1919.883057,1800.957520 1926.399658,1814.636108 1936.366699,1827.403320 
	C1939.842651,1831.855835 1943.031128,1836.531372 1946.453125,1841.027344 
	C1953.029053,1849.666626 1962.543945,1852.825806 1972.460815,1856.105225 
	C1983.267700,1859.679321 1992.576538,1857.727295 2002.922607,1854.141724 
	C2014.498901,1850.129883 2027.033936,1851.415894 2039.531982,1852.292480 
	C2040.308838,1862.106934 2040.917480,1870.973022 2041.763062,1879.816528 
	C2042.043945,1882.753418 2042.715820,1885.700073 2043.599365,1888.520020 
	C2044.708130,1892.058716 2047.208008,1894.048340 2051.123291,1893.678467 
	C2060.299316,1892.811523 2068.957031,1894.706177 2077.245850,1898.549316 
	C2082.078369,1900.790039 2086.214844,1899.444458 2090.239502,1896.424683 
	C2099.074951,1889.795166 2108.541748,1892.162109 2117.894531,1894.912598 
	C2121.141357,1895.867310 2122.613525,1898.532959 2122.140137,1901.943237 
	C2121.730957,1904.891602 2121.541992,1907.994385 2120.445312,1910.700195 
	C2117.180908,1918.756348 2119.409180,1925.487183 2124.720459,1932.071899 
	C2131.019531,1932.213745 2136.888428,1931.193359 2142.922852,1928.619995 
	C2147.897461,1926.498535 2153.789795,1926.111694 2159.321289,1925.817139 
	C2166.614502,1925.428589 2174.148926,1926.690186 2180.469482,1918.504883 
	C2185.404053,1928.748901 2194.289307,1935.176270 2190.607666,1947.261475 
	C2189.262207,1951.677979 2190.390869,1956.848389 2190.390869,1963.587769 
	C2193.407227,1961.352783 2194.929443,1960.426025 2196.210205,1959.239258 
	C2200.698730,1955.080078 2205.695557,1952.971069 2211.632080,1955.706421 
	C2216.864502,1958.117310 2221.426270,1957.090454 2225.188721,1953.174194 
	C2228.651611,1949.569946 2232.545166,1949.105835 2237.036133,1950.183105 
	C2238.919434,1952.471436 2240.792969,1954.747803 2243.333252,1956.511963 
	C2244.000000,1961.400024 2244.000000,1966.800049 2243.251953,1972.780396 
	C2240.915039,1977.238647 2239.020996,1981.025635 2237.829590,1985.022095 
	C2236.800293,1988.474731 2236.452148,1992.151123 2236.013428,1995.754395 
	C2235.338867,2001.292114 2234.431152,2006.848877 2234.390381,2012.403320 
	C2234.348633,2018.055176 2233.007080,2022.670410 2228.820068,2026.743896 
	C2224.562500,2030.885986 2220.932129,2035.672241 2216.249268,2041.073120 
	C2218.096680,2050.504395 2223.790039,2059.839355 2230.507324,2068.559326 
	C2235.429443,2074.949707 2235.848633,2081.333496 2231.483154,2087.869873 
	C2225.985352,2096.101318 2219.781494,2103.880371 2214.593994,2112.293213 
	C2209.760254,2120.132812 2205.902100,2128.570557 2201.529297,2136.698975 
	C2199.654541,2140.183594 2198.241943,2144.313477 2195.431396,2146.816406 
	C2189.270508,2152.303467 2182.663086,2157.436768 2175.673340,2161.812500 
	C2163.329590,2169.540039 2152.276611,2178.077393 2147.430420,2192.654053 
	C2145.455566,2198.594238 2145.999268,2202.256592 2151.719482,2204.922852 
	C2159.143311,2208.383545 2166.279785,2213.251953 2175.249756,2211.809814 
	C2176.578125,2211.596191 2178.085205,2212.493896 2180.391357,2213.114746 
	C2168.096924,2230.986816 2175.363037,2248.980957 2177.587646,2266.073975 
	C2172.131592,2270.389404 2167.408691,2274.516846 2162.298340,2278.090332 
	C2149.213867,2287.239990 2136.699463,2297.419678 2119.657227,2298.863037 
	C2115.837646,2299.186523 2111.636230,2302.062500 2108.767578,2304.923584 
	C2104.335693,2309.343506 2099.768799,2312.645264 2095.034668,2312.534180 
	C2087.743652,2320.042969 2081.445557,2326.529053 2075.136475,2333.026611 
	C2082.153564,2341.145020 2082.648926,2343.045410 2079.454346,2351.788330 
	C2074.871582,2351.216553 2070.112549,2350.622803 2065.283936,2350.020264 
	C2064.883301,2351.384277 2064.535156,2352.297607 2064.349854,2353.243164 
	C2062.354736,2363.433350 2060.733398,2364.853271 2050.307129,2366.393555 
	C2048.109131,2366.718018 2045.615356,2367.434326 2043.987793,2368.824463 
	C2035.491577,2376.081543 2024.343506,2379.677246 2016.994385,2388.496338 
	C2016.171509,2389.483887 2014.960205,2390.381104 2013.751465,2390.774170 
	C2007.171509,2392.913574 2005.315674,2397.576172 2006.273560,2403.957031 
	C2006.469238,2405.260498 2006.168457,2406.634277 2006.324707,2407.948730 
	C2006.957764,2413.272217 2004.960815,2416.818604 1999.861816,2418.895020 
	C1994.475220,2421.088379 1990.722656,2425.048584 1987.686890,2430.138428 
	C1980.729980,2441.802734 1970.966187,2446.282471 1956.851074,2443.784424 
	C1908.804688,2435.282471 1860.574951,2427.818604 1812.504761,2419.444336 
	C1805.959839,2418.304199 1801.047607,2419.495117 1795.663574,2422.664795 
	C1772.154419,2436.504883 1748.500610,2450.099121 1724.892212,2463.770264 
	C1646.584351,2509.117188 1568.291138,2554.489258 1489.946533,2599.772217 
	C1476.735352,2607.408203 1463.297974,2614.653564 1449.965210,2622.079346 
	C1451.118042,2608.196777 1452.238770,2594.311768 1453.435181,2580.432861 
	C1454.176514,2571.834473 1455.105103,2563.252197 1455.818848,2554.651611 
	C1456.670410,2544.391602 1457.552002,2534.128662 1458.084229,2523.849609 
	C1458.359863,2518.528809 1460.475098,2514.506592 1464.019165,2510.600342 
	C1487.782349,2484.409668 1513.989014,2460.893555 1541.541626,2438.801025 
	C1548.026367,2433.601074 1554.040161,2427.816650 1560.469116,2422.542725 
	C1564.403198,2419.314941 1565.982910,2415.569092 1565.912598,2410.429199 
	C1565.702881,2395.108643 1565.302979,2379.745850 1566.156616,2364.465332 
	C1567.433105,2341.617432 1569.677979,2318.822754 1571.581543,2296.011230 
	C1572.961670,2279.471680 1574.477173,2262.943359 1575.895020,2246.406738 
	C1577.822876,2223.921143 1579.590210,2201.421387 1581.661743,2178.949219 
	C1583.319092,2160.969971 1582.215454,2143.301025 1577.954590,2125.697998 
	C1574.365356,2110.869141 1571.388672,2095.873047 1568.735718,2080.845947 
	C1567.784058,2075.455811 1565.435425,2071.631348 1561.271729,2068.519287 
	C1531.174561,2046.024170 1502.899414,2021.097290 1470.903076,2001.128540 
	C1462.441528,1995.847778 1454.580200,1989.606689 1446.132202,1984.301880 
	C1441.606934,1981.460327 1439.873901,1978.048096 1440.028320,1972.818604 
	C1440.320923,1962.910889 1440.113037,1952.988525 1440.113037,1941.905151 
	C1444.812134,1942.363159 1448.339233,1942.492676 1451.787842,1943.081421 
	C1464.545776,1945.258789 1477.221313,1948.039429 1490.046509,1949.644775 
	C1495.425903,1950.318115 1501.412109,1949.549561 1506.581177,1947.819458 
	C1518.866821,1943.706909 1530.942993,1938.893433 1542.851440,1933.776001 
	C1546.267334,1932.308105 1549.490967,1929.306030 1551.666748,1926.209229 
	C1570.789917,1898.993408 1589.825928,1871.711914 1608.478149,1844.172241 
	C1613.086792,1837.367554 1618.295288,1831.953369 1625.530396,1827.956299 
	C1635.713257,1822.330688 1645.434692,1815.872681 1655.391479,1809.833252 
	C1657.901245,1808.311157 1660.555786,1807.027588 1663.550537,1805.415161 
	C1676.248901,1815.041870 1688.669556,1824.458008 1701.969727,1834.540894 
	C1705.822632,1830.870483 1709.941040,1827.596436 1713.271484,1823.656372 
	C1724.674072,1810.166748 1738.907593,1801.078613 1754.757202,1793.399414 
	C1781.979004,1780.210327 1810.958862,1773.176147 1840.024902,1766.118164 
	C1849.707153,1763.767212 1859.502930,1761.835938 1869.084717,1759.137329 
	C1874.260864,1757.679443 1878.718994,1757.801147 1883.385010,1760.549683 
	C1896.571045,1768.317627 1909.878662,1775.879517 1923.766724,1783.860474 
z"/>


<path 
	data-name="Akwaya"
fill="#BF6347" opacity="1.000000" stroke="none" 
	d="
M1722.961182,356.284058 
	C1724.945312,359.405609 1726.603149,362.223053 1727.697021,365.244659 
	C1728.933838,368.661285 1728.795776,372.936432 1730.859497,375.591797 
	C1732.928711,378.254181 1737.633179,378.771362 1739.995483,381.326385 
	C1743.287109,384.886597 1745.184937,389.693665 1748.202148,393.558929 
	C1752.826538,399.482788 1759.178467,400.616516 1764.390625,395.443817 
	C1768.625244,391.241241 1772.312500,391.479645 1776.864746,393.466827 
	C1783.310059,396.280304 1789.093750,396.240051 1794.651978,390.991699 
	C1796.568970,389.181702 1800.057617,389.036072 1802.287964,388.306824 
	C1806.547974,392.448547 1809.689575,397.178070 1814.094116,399.372803 
	C1819.969238,402.300262 1821.377563,394.023407 1825.835571,392.384827 
	C1831.038208,393.911560 1829.577881,398.138763 1829.662964,401.490906 
	C1829.975342,413.803528 1834.293213,419.873871 1846.119507,421.255981 
	C1852.576050,422.010559 1857.357788,424.971375 1861.850708,428.679840 
	C1868.526611,434.190216 1876.239258,436.694733 1884.474731,438.230835 
	C1886.734009,438.652222 1889.175537,438.711151 1891.197998,439.654968 
	C1894.987915,441.423431 1900.348267,442.873108 1901.789062,445.973389 
	C1904.500977,451.808594 1905.191040,458.682343 1906.055908,465.212524 
	C1906.294312,467.011810 1904.676392,469.856293 1903.052734,470.960724 
	C1896.903564,475.143494 1894.909790,479.973206 1898.546631,486.890686 
	C1900.592529,490.782196 1900.433350,494.472229 1896.068604,497.223572 
	C1891.759155,499.940094 1891.057007,504.171295 1892.715210,508.655487 
	C1894.340820,513.051697 1893.500732,516.487854 1891.432373,520.806274 
	C1889.096436,525.682983 1889.173096,531.715393 1888.456421,535.790344 
	C1890.734619,540.571655 1892.914429,544.086670 1893.966919,547.911865 
	C1894.352295,549.312622 1892.063965,551.448914 1890.374390,554.295898 
	C1897.073120,559.300903 1904.099487,564.592102 1911.182617,569.806458 
	C1912.511108,570.784485 1914.128174,571.362244 1915.503174,572.286682 
	C1918.946289,574.601685 1920.820068,577.578003 1918.080078,581.496460 
	C1913.512329,588.028809 1916.364746,594.407471 1918.702637,600.464966 
	C1920.702515,605.646851 1923.709351,610.506348 1926.758545,615.190979 
	C1928.465698,617.813660 1930.850098,620.277405 1933.472046,621.973572 
	C1944.328613,628.996521 1951.532104,639.357117 1942.739502,656.962402 
	C1940.897827,660.649902 1940.333740,665.150757 1939.941162,669.347900 
	C1939.242676,676.815857 1939.124878,684.338135 1938.700562,693.164246 
	C1946.731689,710.045898 1957.879028,727.496521 1956.539185,749.392334 
	C1956.168701,755.448547 1958.393555,761.809570 1960.177734,767.807678 
	C1961.752930,773.103210 1962.525513,777.974670 1960.115967,783.239441 
	C1959.305176,785.010925 1959.726318,787.515137 1960.067139,789.605713 
	C1960.594604,792.840515 1961.518677,796.012207 1962.310425,799.201782 
	C1962.700073,800.771240 1962.721069,802.703796 1963.673340,803.819580 
	C1972.005981,813.583557 1980.248901,823.447937 1989.053955,832.777039 
	C1995.432495,839.535095 1994.972534,847.281799 1993.691895,855.213318 
	C1991.981079,865.810120 1993.299438,869.896729 2002.739624,874.376221 
	C2009.508911,877.588257 2014.030640,882.725525 2017.200195,888.944824 
	C2019.900879,894.243896 2023.278809,898.459473 2028.542236,901.036316 
	C2032.687622,903.065857 2034.046875,906.442627 2034.255493,910.744690 
	C2034.447632,914.710449 2035.514648,918.713745 2035.171875,922.610352 
	C2034.195557,933.705566 2039.955200,943.191284 2042.160522,953.506287 
	C2043.011475,957.487122 2046.164185,961.038330 2048.527344,964.614075 
	C2050.472656,967.557434 2051.078857,970.988220 2047.851562,972.379028 
	C2040.153320,975.696716 2037.126221,982.828430 2032.863403,988.940857 
	C2030.261963,992.671082 2027.606934,994.680176 2022.889526,992.834167 
	C2021.150879,992.153931 2018.559814,991.710266 2017.120728,992.518127 
	C2006.847778,998.285400 1995.129883,997.209167 1984.207031,999.798096 
	C1976.421631,1001.643311 1970.221558,1005.921997 1964.515259,1011.046387 
	C1960.762939,1014.416382 1960.450317,1018.188171 1964.418579,1021.290588 
	C1968.976929,1024.854492 1974.496338,1027.241333 1979.737305,1029.861572 
	C1983.269653,1031.627686 1987.428589,1032.345703 1990.630371,1034.526367 
	C1998.068726,1039.592285 1998.960693,1044.930908 1994.332520,1052.937866 
	C1992.188721,1056.646606 1991.393433,1059.805054 1994.168091,1063.931519 
	C1996.022339,1066.689087 1995.984985,1070.718628 1997.041504,1075.236816 
	C1980.484253,1078.909180 1966.370972,1086.185303 1951.804810,1094.058228 
	C1954.596680,1099.184448 1957.377441,1103.281494 1959.118652,1107.781006 
	C1960.744141,1111.981323 1961.559814,1116.568115 1962.184326,1121.060913 
	C1962.735596,1125.025757 1960.639160,1127.565918 1957.136230,1129.874634 
	C1952.299805,1133.062500 1948.179077,1137.335815 1945.164307,1139.929077 
	C1946.437256,1147.451294 1947.632812,1152.855225 1948.192627,1158.324341 
	C1948.684326,1163.127075 1945.910034,1165.594360 1941.180908,1166.234985 
	C1931.667725,1167.523804 1922.115112,1168.653442 1912.698364,1170.468994 
	C1907.550171,1171.461548 1902.523560,1173.430664 1897.662109,1175.480835 
	C1890.951660,1178.310791 1886.662964,1184.237671 1886.451782,1190.901855 
	C1886.133057,1200.945190 1881.789307,1209.446289 1878.996826,1218.577759 
	C1877.654297,1222.967651 1876.940918,1227.587646 1876.334473,1232.155518 
	C1875.502197,1238.426270 1871.434814,1243.252319 1864.905884,1243.703491 
	C1857.961670,1244.183350 1850.829224,1244.489624 1844.021484,1243.381592 
	C1840.305176,1242.776489 1836.802979,1239.407227 1833.750977,1236.673950 
	C1831.693237,1234.830933 1830.590820,1231.921387 1829.175903,1229.671631 
	C1822.952515,1230.463379 1820.701172,1234.692871 1817.722412,1238.211792 
	C1810.021606,1247.308594 1802.585571,1256.718872 1794.062256,1264.993042 
	C1789.715576,1269.212769 1783.298584,1271.334961 1777.739746,1274.257568 
	C1774.450928,1275.986938 1770.848511,1277.494263 1770.471680,1281.737061 
	C1770.037231,1286.626953 1766.947632,1287.256592 1762.950684,1287.788330 
	C1754.737427,1288.880737 1746.509277,1290.120239 1738.443359,1291.977905 
	C1731.982056,1293.465820 1725.515381,1295.427368 1723.843872,1303.604370 
	C1723.512207,1305.227051 1720.654907,1307.369263 1718.858765,1307.472534 
	C1712.019897,1307.865479 1706.916626,1311.501465 1702.085205,1315.576172 
	C1698.332642,1318.740723 1694.616943,1320.457031 1689.456665,1320.159912 
	C1683.135986,1319.796143 1679.356934,1323.543945 1677.689331,1329.887695 
	C1676.679810,1333.727539 1675.402710,1337.496216 1674.306885,1341.314331 
	C1672.140381,1348.863159 1667.234131,1353.939575 1660.191040,1357.123413 
	C1659.584351,1357.397583 1659.007690,1357.738281 1658.402344,1358.015625 
	C1649.524658,1362.082275 1642.961792,1367.273682 1647.591675,1378.564575 
	C1648.300293,1380.292603 1647.781372,1382.524048 1647.920410,1385.390381 
	C1647.387329,1387.796875 1646.192505,1389.352661 1646.238281,1390.871094 
	C1646.454834,1398.040894 1645.634521,1404.371826 1639.809692,1409.864380 
	C1638.180664,1411.400269 1640.300903,1416.912231 1640.875122,1422.201416 
	C1636.644165,1426.345703 1634.189575,1432.276855 1635.487793,1440.800781 
	C1636.175537,1445.317505 1630.584961,1450.790527 1627.248657,1456.892822 
	C1620.721313,1446.507324 1618.164185,1435.021851 1607.409180,1430.209717 
	C1606.369385,1430.724121 1605.464233,1430.863892 1605.260132,1431.318481 
	C1601.281250,1440.178345 1600.240479,1440.450928 1592.928833,1434.188110 
	C1591.161255,1432.674194 1589.416016,1431.097168 1587.892090,1429.347412 
	C1586.602661,1427.866577 1585.648193,1426.093994 1583.470825,1422.849121 
	C1575.344849,1436.848022 1568.264526,1448.591431 1561.671509,1460.602417 
	C1558.566772,1466.258423 1560.713745,1472.189331 1562.093872,1478.092651 
	C1563.741333,1485.139160 1565.115112,1492.345215 1565.567749,1499.547485 
	C1565.991699,1506.294067 1562.729614,1511.328857 1556.342651,1514.753174 
	C1539.023926,1524.038330 1521.885376,1533.669312 1504.844238,1543.456787 
	C1499.509033,1546.520752 1494.070923,1546.468750 1488.418579,1545.833618 
	C1486.185913,1545.582764 1484.005371,1544.869629 1480.823242,1544.144043 
	C1475.667969,1555.533813 1470.658203,1566.710327 1465.540405,1577.836914 
	C1464.168945,1580.818481 1462.364868,1583.599243 1460.943604,1586.560547 
	C1459.120728,1590.358765 1456.962524,1594.105835 1455.878906,1598.125732 
	C1453.821167,1605.759155 1452.260132,1607.671997 1444.338257,1607.630493 
	C1436.044922,1607.587158 1427.720581,1607.233398 1419.474121,1606.387085 
	C1412.653931,1605.687256 1407.524902,1606.813965 1403.164429,1612.960327 
	C1395.482788,1623.787964 1387.681641,1634.616455 1376.707764,1642.687134 
	C1373.971313,1644.699829 1372.093018,1648.376099 1370.719482,1651.663452 
	C1362.763428,1670.704956 1355.649170,1690.122681 1347.028809,1708.850830 
	C1343.356567,1716.828735 1336.985352,1723.652710 1331.388306,1730.638550 
	C1317.433228,1748.057007 1303.127930,1765.194946 1289.187378,1782.624878 
	C1286.476929,1786.013672 1283.687134,1787.663818 1279.288208,1788.134277 
	C1244.919556,1791.810059 1210.588013,1795.830444 1176.234497,1799.650635 
	C1146.172241,1802.993652 1116.105713,1806.305908 1086.015137,1809.377808 
	C1082.155396,1809.771851 1078.148804,1808.482666 1074.194092,1808.243408 
	C1066.642822,1807.786743 1058.983032,1808.138550 1051.555054,1806.969238 
	C1046.480835,1806.170410 1041.692261,1803.436768 1036.833618,1801.428589 
	C1032.882568,1799.795410 1029.151855,1797.384033 1025.063599,1796.419678 
	C1022.591309,1795.836304 1018.767822,1796.460327 1017.047852,1798.105835 
	C1012.884583,1802.089355 1008.538940,1803.264404 1003.416443,1801.259888 
	C999.125305,1799.580566 995.579224,1801.173706 992.048828,1803.096924 
	C989.422424,1804.527710 986.733032,1805.987671 984.462280,1807.898926 
	C977.784607,1813.518921 971.004211,1813.425537 964.540161,1808.084106 
	C958.630676,1803.200806 952.547791,1802.933960 945.897888,1805.787842 
	C937.675598,1809.316528 930.400940,1807.430054 923.487122,1802.249390 
	C915.266785,1796.089600 912.936279,1787.181519 917.926208,1778.155396 
	C924.176208,1766.850098 922.124390,1755.407715 918.096069,1744.363525 
	C915.051758,1736.017090 913.811340,1727.757080 913.971252,1718.990601 
	C914.120728,1710.794312 911.692749,1702.755493 913.537415,1694.322632 
	C914.640747,1689.278809 909.799072,1686.266479 905.049805,1688.682251 
	C902.307495,1690.077271 899.981201,1692.819214 898.180969,1695.444214 
	C891.060486,1705.827026 883.369385,1707.029419 875.966675,1696.934082 
	C870.799377,1689.887451 868.145752,1680.981445 864.490845,1672.851440 
	C863.407471,1670.441406 862.995544,1667.717773 861.827515,1665.359985 
	C858.570557,1658.785645 856.757874,1658.234253 849.425476,1661.010254 
	C842.795715,1663.520020 840.947571,1662.974121 835.926636,1657.023071 
	C829.485657,1649.389282 828.113281,1648.833862 818.980286,1653.459351 
	C813.986755,1655.988403 809.646973,1659.783569 804.908142,1662.846558 
	C799.611389,1666.270264 794.437866,1670.017334 788.777832,1672.715576 
	C779.879272,1676.957397 771.295166,1675.451538 763.685059,1669.197998 
	C760.695435,1666.741211 758.771790,1663.619629 760.252014,1659.543701 
	C761.876770,1655.069458 765.427429,1655.428955 769.335510,1655.745972 
	C774.282593,1656.146851 779.372314,1656.363281 784.254700,1655.654419 
	C793.790039,1654.270630 796.734436,1647.891724 791.285400,1640.073730 
	C786.797302,1633.634399 784.008423,1627.215332 783.455750,1619.098999 
	C782.820740,1609.772705 773.589294,1606.553833 765.996887,1612.001099 
	C756.542786,1618.784546 749.954590,1627.815308 744.951843,1638.203613 
	C739.892822,1648.708862 738.966858,1649.027466 728.112488,1645.850220 
	C723.960510,1644.634766 719.689636,1643.716919 715.690735,1642.118530 
	C712.026978,1640.653931 707.867310,1639.183472 705.323730,1636.426147 
	C700.260071,1630.937256 694.806641,1626.659180 687.866760,1623.638794 
	C681.458862,1620.849976 681.532532,1617.598633 685.505859,1611.130615 
	C687.237000,1608.312378 687.753662,1604.748047 688.821838,1601.522583 
	C688.241394,1600.910034 687.660950,1600.297485 687.080444,1599.684937 
	C684.248718,1600.599731 681.069031,1600.985840 678.673157,1602.562744 
	C675.663025,1604.543945 673.344055,1607.554077 670.639526,1610.024780 
	C664.442261,1615.686279 658.176331,1614.535400 654.903870,1606.768555 
	C653.383057,1603.158936 652.168152,1599.086914 652.190186,1595.232422 
	C652.232178,1587.867310 648.124329,1582.509888 644.033691,1577.487305 
	C642.142700,1575.165649 637.609924,1574.141113 634.252502,1574.092773 
	C630.395203,1574.037476 626.447571,1575.503174 622.654297,1576.679565 
	C612.429871,1579.850586 604.232788,1577.368896 598.413940,1568.455078 
	C595.895508,1564.597046 593.874329,1560.262695 592.433167,1555.879639 
	C586.342773,1537.358276 567.289001,1529.946289 551.841797,1535.099243 
	C546.595642,1536.849243 543.949097,1539.529175 544.170288,1545.047363 
	C544.263428,1547.372437 544.350708,1549.755737 543.964294,1552.031616 
	C542.609009,1560.013062 537.708557,1563.310913 529.108093,1562.443481 
	C525.463989,1562.075928 521.796265,1561.873901 518.134277,1561.762207 
	C502.720276,1561.291504 492.104736,1571.049072 491.743652,1586.307007 
	C491.544189,1594.735962 490.207886,1602.283936 481.262238,1605.937256 
	C480.677582,1606.176025 480.092743,1606.684814 479.757446,1607.223389 
	C473.282104,1617.624756 464.010254,1614.533081 454.964172,1612.356812 
	C449.810669,1611.117188 444.757294,1609.324585 439.545166,1608.497437 
	C431.854401,1607.277222 427.633850,1609.836792 424.623474,1617.019531 
	C422.826874,1621.306030 421.445312,1625.766602 418.944794,1630.980225 
	C415.701111,1631.806030 413.189728,1632.393066 411.113586,1631.691650 
	C402.630157,1628.825195 396.701935,1632.337646 390.916199,1638.207642 
	C378.990845,1650.307129 370.190704,1646.799194 361.697235,1636.803589 
	C347.360107,1619.930664 332.877075,1603.194092 322.333618,1583.212158 
	C324.283752,1581.459595 325.904022,1580.295898 327.456329,1579.047729 
	C395.638947,1524.223999 463.814117,1469.391113 531.995422,1414.565674 
	C537.706787,1409.973145 543.276245,1405.495361 544.813721,1397.516113 
	C545.312744,1394.926392 548.011841,1392.501831 550.186462,1390.533936 
	C570.898621,1371.791260 591.722595,1353.172119 612.498291,1334.499756 
	C637.724854,1311.827026 662.974487,1289.179810 688.139221,1266.438599 
	C703.437561,1252.613647 718.798035,1238.844849 733.692444,1224.592896 
	C738.256897,1220.225342 742.001099,1215.205078 742.527832,1207.710815 
	C743.041382,1200.404907 746.187866,1193.127686 749.017578,1186.179688 
	C752.754456,1177.003906 757.914429,1168.385254 761.345398,1159.113770 
	C764.925720,1149.438477 770.249634,1141.652222 778.311768,1135.127197 
	C801.057190,1116.718506 823.514954,1097.950684 845.888672,1079.090088 
	C850.101807,1075.538574 854.467529,1073.141968 859.812012,1071.907349 
	C886.039185,1065.849243 912.117493,1059.096802 938.462524,1053.619385 
	C951.687378,1050.869873 962.487244,1046.557251 966.130005,1032.174683 
	C966.210266,1031.858032 966.396240,1031.565063 966.551270,1031.270752 
	C990.287476,986.223816 1014.125488,941.229858 1037.661743,896.078674 
	C1041.445679,888.819824 1046.488037,883.142090 1052.394165,877.567932 
	C1061.519287,868.955994 1073.526855,862.330688 1075.938843,847.725220 
	C1074.943481,844.213867 1066.161743,842.795898 1072.456909,835.802368 
	C1077.242065,841.052185 1082.930786,841.771606 1087.869873,839.483826 
	C1089.571289,835.510010 1090.218628,830.969055 1091.972900,830.491150 
	C1096.504883,829.256592 1096.340576,825.819275 1097.183228,822.881226 
	C1100.174438,812.452759 1101.806885,801.885742 1102.363647,790.941711 
	C1102.705688,784.218811 1102.585083,778.733521 1095.904053,773.589233 
	C1099.899902,770.353455 1102.983765,767.633362 1106.294312,765.224670 
	C1112.028076,761.052917 1118.297729,748.756348 1115.163330,743.620422 
	C1109.374756,734.135254 1114.908203,724.946289 1114.079224,715.688904 
	C1113.601807,710.357605 1119.616699,706.874878 1124.725464,708.882751 
	C1133.014893,712.140686 1141.041626,716.076416 1149.131348,719.829163 
	C1153.576538,721.891357 1157.824829,724.399658 1162.333374,726.299988 
	C1178.436157,733.087402 1196.047363,736.624634 1209.637207,748.804749 
	C1211.788208,750.732544 1214.895508,751.587341 1217.547974,752.962524 
	C1229.594482,759.208252 1243.933716,761.336365 1253.122314,772.754822 
	C1253.446899,773.158142 1254.381104,773.061279 1255.026611,773.217224 
	C1265.795044,775.818909 1276.562622,778.423950 1286.715332,780.879395 
	C1291.951782,777.095825 1290.948486,772.057129 1292.027466,767.667114 
	C1295.078491,755.252258 1298.458496,742.918335 1301.723755,730.556335 
	C1301.805420,730.247314 1302.063232,729.986450 1302.230347,729.698120 
	C1305.461792,724.120056 1308.610474,718.620178 1306.354980,711.656067 
	C1305.821655,710.008972 1306.323975,707.383606 1307.376953,705.977295 
	C1311.803711,700.065430 1313.091797,693.693054 1311.662842,686.537903 
	C1311.356689,685.005005 1311.451050,683.058655 1312.149658,681.711853 
	C1317.260376,671.858276 1314.229980,661.327454 1314.957764,650.697144 
	C1320.076538,648.591858 1326.866333,647.887390 1326.255493,639.507263 
	C1325.265015,625.918579 1330.868652,613.769470 1335.571411,601.590088 
	C1338.857422,593.079895 1339.936523,581.063721 1336.641357,573.214294 
	C1339.599487,569.115662 1342.431396,565.192017 1345.301880,561.214783 
	C1343.428833,558.146301 1341.723389,555.352173 1340.452637,553.270508 
	C1343.029663,546.066406 1345.709473,539.739319 1347.498657,533.169739 
	C1348.716675,528.696899 1351.336304,524.947998 1350.529907,519.315308 
	C1349.382568,511.299866 1353.610107,508.045807 1361.910034,508.416504 
	C1367.150513,508.650543 1372.466675,509.618622 1377.526245,511.046295 
	C1398.959717,517.094116 1420.517456,522.819763 1441.612549,529.904968 
	C1454.192749,534.130249 1466.449341,532.099854 1478.910767,531.568970 
	C1480.180908,531.514771 1481.482422,530.927795 1482.668579,530.372681 
	C1494.722412,524.731262 1506.985596,519.480652 1518.739746,513.268738 
	C1536.092285,504.098022 1553.087036,494.249512 1570.217529,484.659576 
	C1578.255371,480.159882 1586.254028,475.589996 1594.740723,470.785675 
	C1589.887207,463.880768 1589.740845,457.230347 1590.892944,450.086456 
	C1591.486572,446.405365 1591.093262,441.922241 1589.428955,438.683777 
	C1587.384521,434.705383 1587.352173,431.213898 1588.253296,427.229279 
	C1589.055542,423.682007 1589.695068,420.092926 1590.272095,416.500702 
	C1591.746826,407.319397 1592.882446,398.304199 1601.880005,392.350800 
	C1604.512329,390.609039 1605.111450,385.519012 1606.238281,381.839813 
	C1608.057373,375.899689 1609.476074,369.838074 1611.192871,363.864899 
	C1612.195068,360.377533 1614.944458,359.876587 1618.218262,359.647614 
	C1625.679077,359.125732 1631.840088,362.339294 1637.867554,365.924286 
	C1644.607178,369.932922 1651.739014,372.163330 1659.618042,371.716125 
	C1667.906494,371.245697 1675.308960,373.607300 1682.044189,378.415009 
	C1683.597412,379.523590 1685.530151,380.100311 1687.647705,381.089813 
	C1692.534058,375.735718 1698.815430,374.378143 1705.550659,373.433136 
	C1719.728516,371.443878 1719.692505,371.187225 1719.994751,356.641724 
	C1720.791870,356.451202 1721.588867,356.260651 1722.961182,356.284058 
z"/>

<path 
	data-name="Eyumodjock"
fill="#DD51DF" opacity="1.000000" stroke="none" 
	d="
M101.801407,1989.483887 
	C108.238594,1986.427490 108.238594,1986.427490 111.035988,1995.621948 
	C113.370369,1995.752686 115.909378,1995.894897 118.615929,1996.046509 
	C117.864525,1997.934570 116.226410,2000.059814 116.748772,2001.097534 
	C118.587494,2004.750488 123.712479,2004.454468 125.171150,2000.276733 
	C127.224648,1994.395020 130.394913,1991.474487 136.773895,1992.048584 
	C137.855240,1992.145752 139.122375,1990.469116 140.262268,1989.559937 
	C142.152405,1988.052490 144.008820,1986.502808 146.194534,1984.712891 
	C145.506638,1980.255127 144.415176,1975.175537 144.008698,1970.041626 
	C143.505554,1963.686768 144.910110,1962.609375 151.193130,1963.419556 
	C157.802261,1964.271729 156.574310,1963.654785 157.089706,1956.868530 
	C157.734421,1948.379272 158.285187,1938.805420 167.294678,1932.581787 
	C168.589325,1935.007568 169.845322,1937.360962 171.108688,1939.728149 
	C171.701767,1939.225098 172.527008,1938.837646 172.509232,1938.493774 
	C172.197037,1932.455566 178.377686,1927.605957 175.709991,1921.021118 
	C175.472534,1920.435059 177.554230,1918.334229 178.905853,1917.773926 
	C187.411011,1914.247803 187.628510,1907.415283 186.834183,1899.753784 
	C182.648987,1900.683472 178.852219,1901.526978 173.959839,1902.613770 
	C175.969543,1898.186646 177.278625,1895.302856 178.726318,1892.113770 
	C176.433746,1890.302856 174.516724,1888.788574 173.023407,1887.608887 
	C172.950272,1878.770752 189.175446,1878.636230 182.583023,1867.059204 
	C187.204834,1861.158081 194.053802,1866.167114 199.752151,1863.468018 
	C200.064941,1861.291748 199.581650,1858.147339 200.927277,1856.470215 
	C205.585281,1850.664551 203.576920,1845.406982 200.898056,1839.789307 
	C198.880905,1835.559448 197.390945,1831.298096 201.052872,1826.821533 
	C202.404129,1825.169556 202.517700,1822.467041 203.080139,1820.214844 
	C204.849686,1813.128174 204.514938,1812.546631 197.743134,1810.191772 
	C194.208817,1808.962891 190.684311,1807.705688 186.420090,1806.201904 
	C186.397018,1806.139404 185.793152,1805.263916 185.804092,1804.396118 
	C185.844940,1801.155029 187.122955,1797.206421 182.098190,1796.695557 
	C177.734161,1796.251831 178.319412,1799.985474 177.334183,1802.733276 
	C175.536682,1807.746704 170.955811,1807.917725 166.479706,1807.617676 
	C161.049072,1807.253540 159.268555,1803.717163 159.295563,1796.901978 
	C149.976135,1803.419800 141.723938,1809.191284 133.471725,1814.962646 
	C133.003922,1814.727539 132.536133,1814.492432 132.068329,1814.257324 
	C132.930771,1812.176758 133.218460,1809.358032 134.763931,1808.154785 
	C139.330505,1804.599976 139.326157,1799.593262 138.009903,1795.461304 
	C135.655106,1788.068726 132.045059,1781.043579 128.594803,1774.044800 
	C126.547440,1769.891846 123.180801,1766.315552 121.579437,1762.040894 
	C120.426826,1758.964233 120.024239,1754.556396 121.417519,1751.831787 
	C123.326080,1748.099731 127.145355,1745.846680 132.324478,1747.174316 
	C139.092133,1748.909058 145.464142,1747.255981 151.226471,1743.203247 
	C157.809662,1738.573486 159.118057,1734.525879 156.224548,1727.011108 
	C152.486313,1717.302490 153.344040,1715.271606 163.352295,1711.798584 
	C170.317886,1709.381348 177.066177,1706.805054 181.903549,1700.787842 
	C182.900909,1699.547363 184.476822,1698.417969 185.994110,1698.009155 
	C193.647079,1695.946289 199.310883,1691.525635 204.574280,1685.552124 
	C208.088791,1681.563477 214.060928,1681.869751 219.608002,1682.891479 
	C226.053314,1684.078735 232.613586,1685.682739 239.162888,1682.618286 
	C245.867325,1679.481323 248.895157,1675.750854 247.138763,1668.682983 
	C245.432373,1661.816040 247.288544,1656.305176 250.391937,1650.668701 
	C253.911636,1644.276123 256.998505,1637.595215 261.046936,1631.558105 
	C264.845215,1625.894287 265.169495,1620.557007 262.234833,1614.703247 
	C261.788177,1613.812378 261.283600,1612.947144 260.886627,1612.034912 
	C259.315277,1608.423950 256.931915,1604.887085 259.987946,1600.875366 
	C263.222565,1596.629272 267.562592,1597.848145 271.882599,1598.154907 
	C276.733154,1598.499268 281.750366,1599.040283 286.445312,1598.161499 
	C289.720703,1597.548462 292.866333,1595.035767 295.562561,1592.768311 
	C302.861267,1586.630371 310.955566,1583.023438 321.301331,1583.624023 
	C332.877075,1603.194092 347.360107,1619.930664 361.697235,1636.803589 
	C370.190704,1646.799194 378.990845,1650.307129 390.916199,1638.207642 
	C396.701935,1632.337646 402.630157,1628.825195 411.113586,1631.691650 
	C413.189728,1632.393066 415.701111,1631.806030 418.817078,1631.710205 
	C425.772858,1637.593018 433.470215,1640.230835 442.049438,1641.095459 
	C442.215851,1643.698120 442.857849,1645.770630 442.374390,1647.534790 
	C440.081482,1655.901001 442.894348,1662.262695 448.959351,1668.052124 
	C453.427734,1672.317261 457.255951,1676.775024 458.602295,1683.716431 
	C459.912750,1690.472778 467.180267,1692.371704 473.545349,1693.510376 
	C476.439850,1694.028076 479.460602,1693.839844 482.141479,1693.959229 
	C485.995605,1697.264282 486.016785,1704.119629 493.403595,1703.772583 
	C493.557190,1701.159790 493.311951,1698.538208 493.987000,1696.180054 
	C494.455658,1694.542969 495.966034,1692.453857 497.420685,1692.052856 
	C498.984833,1691.621704 501.562347,1692.388062 502.758972,1693.576904 
	C506.067322,1696.862915 506.593811,1700.960205 505.307281,1705.557373 
	C503.179626,1713.160400 504.325623,1715.556152 512.147705,1721.190796 
	C515.798706,1703.559448 526.678711,1694.788330 544.227905,1694.147217 
	C549.099670,1706.156860 548.020203,1708.828735 537.010437,1713.359863 
	C534.378723,1714.442871 531.742065,1715.513916 528.136963,1716.987427 
	C531.673828,1720.706055 534.325439,1723.493896 537.275513,1726.595581 
	C534.730164,1733.918701 532.378418,1741.198730 538.699158,1748.000244 
	C541.122192,1750.607544 540.023254,1753.901489 537.246460,1755.833008 
	C530.214478,1760.724609 523.215942,1765.743896 515.760315,1769.919922 
	C510.449799,1772.894409 510.128265,1772.320312 506.262939,1777.761353 
	C514.120972,1792.405640 527.770630,1795.028687 542.491272,1794.729126 
	C550.715881,1794.561646 557.337708,1797.047974 562.854187,1803.403442 
	C562.443787,1804.746216 562.299988,1806.121948 561.651855,1807.192139 
	C557.005859,1814.861816 557.135620,1814.722290 562.357361,1821.790894 
	C563.975464,1823.981445 565.288574,1827.016357 565.291260,1829.666138 
	C565.299622,1837.914429 564.521606,1846.160034 564.237671,1854.413330 
	C564.112427,1858.052734 564.360229,1861.713013 564.586914,1865.354614 
	C564.903564,1870.439575 564.962952,1870.435913 558.846863,1875.683105 
	C552.481140,1871.807251 545.786133,1867.730957 539.172485,1863.704224 
	C532.642822,1870.388184 532.061340,1875.185059 537.353699,1881.979614 
	C541.838745,1887.737549 547.218323,1892.844727 551.309387,1898.848145 
	C554.201904,1903.092529 555.766296,1908.292969 557.565063,1913.198120 
	C558.057800,1914.541748 557.850647,1917.135132 556.948914,1917.822266 
	C553.358887,1920.558716 554.786682,1923.399658 554.752991,1927.086548 
	C554.689270,1934.067993 555.831299,1939.879150 561.201660,1944.458496 
	C553.907104,1955.108765 542.340515,1949.096558 534.107056,1953.518555 
	C532.213989,1959.817139 534.796570,1963.853882 540.086365,1966.710815 
	C543.668457,1968.645264 547.108521,1968.917847 550.080811,1965.694092 
	C554.196716,1961.230103 559.377808,1960.122314 565.231079,1959.366089 
	C571.757690,1958.522705 578.079346,1956.057617 584.474976,1954.244751 
	C595.659668,1951.074219 606.490112,1956.921265 610.168884,1968.154907 
	C610.472961,1969.083618 610.783325,1970.010132 611.074890,1970.889648 
	C627.927673,1973.041504 627.927673,1973.041504 634.557556,1964.170166 
	C637.748535,1969.041504 640.884888,1973.829468 643.756287,1978.212891 
	C639.811096,1985.954102 635.769104,1992.981323 632.682068,2000.405640 
	C631.513550,2003.216187 632.266541,2006.974121 632.631409,2010.245972 
	C633.730286,2020.099121 638.420166,2029.199585 638.157410,2039.487671 
	C638.052795,2043.585327 641.127319,2047.764282 643.340698,2053.397949 
	C631.020752,2051.750000 627.490051,2059.331055 624.210571,2067.146729 
	C621.145203,2074.452148 624.542542,2087.585205 630.819885,2092.514160 
	C632.093323,2093.513916 633.652222,2094.250732 635.190369,2094.796143 
	C644.811646,2098.207764 647.203674,2103.486572 644.263245,2114.009277 
	C643.606934,2116.357910 644.166992,2119.046387 644.166992,2122.954590 
	C647.985413,2121.419922 650.567078,2119.909180 653.334717,2119.390381 
	C656.741760,2118.751465 660.671875,2117.901367 663.723267,2118.983154 
	C670.324585,2121.323730 671.023499,2124.318359 667.888245,2130.565430 
	C663.736328,2138.838379 658.433289,2145.656494 648.550232,2147.565674 
	C642.704041,2148.694824 637.045532,2150.833984 631.186279,2151.843994 
	C627.237976,2152.524658 625.162903,2154.569336 624.409851,2158.067139 
	C622.806824,2165.513428 620.973816,2172.964355 620.187378,2180.512939 
	C619.652405,2185.647461 618.995239,2189.605957 611.410461,2188.968262 
	C612.695679,2198.380127 613.868469,2206.805420 614.984253,2215.238037 
	C615.330322,2217.853516 616.343079,2220.736572 615.640625,2223.072998 
	C612.652344,2233.014160 614.566101,2241.815430 620.264282,2250.237549 
	C621.092773,2251.462402 620.421448,2253.820312 620.190674,2255.621582 
	C619.446350,2261.431152 620.792725,2266.220215 626.393677,2269.059326 
	C632.892151,2272.353760 633.916992,2277.798340 634.581543,2284.703613 
	C635.348572,2292.674072 635.096497,2300.173584 633.626892,2307.971924 
	C632.612732,2313.353760 632.292297,2318.937988 638.295898,2323.038330 
	C640.835632,2324.773193 641.439087,2329.343018 643.339722,2333.546875 
	C648.702881,2333.885010 652.752991,2336.534180 652.325073,2343.918945 
	C652.199280,2346.089355 654.262268,2348.688721 655.899170,2350.596191 
	C659.212891,2354.457520 658.962219,2357.301758 654.965881,2360.635010 
	C649.450989,2365.234619 650.014160,2365.312500 653.326599,2372.698975 
	C654.726624,2375.821045 654.239685,2379.788818 654.674255,2383.988525 
	C656.472839,2384.774902 658.565308,2385.616943 660.595093,2386.589355 
	C669.648010,2390.926270 672.299316,2398.846680 673.218140,2408.122803 
	C673.575745,2411.733154 675.645081,2415.173828 677.346436,2419.814941 
	C673.706360,2425.045166 672.781372,2431.338135 675.588135,2439.044189 
	C678.271912,2446.412842 672.618103,2453.992432 663.768005,2458.288086 
	C662.654358,2458.828613 661.564148,2459.417725 659.176514,2460.645996 
	C666.371094,2472.623535 673.937439,2484.420410 667.341125,2501.150879 
	C668.968750,2502.107422 672.119141,2502.944580 673.268066,2504.936279 
	C674.291382,2506.710693 673.099854,2509.762451 672.912842,2511.937256 
	C675.817383,2513.807617 680.716370,2515.270264 681.164429,2517.592041 
	C682.195618,2522.935791 681.427734,2528.748047 680.652649,2534.266846 
	C680.267029,2537.012695 678.258118,2539.531006 676.871460,2542.382568 
	C681.218384,2544.630615 684.896179,2546.532471 688.426636,2548.358154 
	C686.691406,2558.271973 678.540466,2554.056885 673.873413,2556.524658 
	C673.407898,2557.093506 672.844727,2557.538086 672.600037,2558.117188 
	C667.833984,2569.397705 668.961792,2571.236328 681.216553,2572.261475 
	C693.524841,2573.291260 694.616882,2573.853760 703.775940,2584.293457 
	C701.297363,2587.071533 698.737122,2589.941162 695.599976,2593.457275 
	C697.211914,2595.584717 698.938110,2597.863037 700.978638,2600.792969 
	C697.718689,2603.334717 696.620850,2606.287354 696.120789,2610.311279 
	C695.371033,2616.344971 691.189819,2617.577393 686.382507,2613.909424 
	C683.804443,2611.942627 680.986938,2610.279541 678.480408,2608.230957 
	C672.600586,2603.426025 667.515076,2606.238525 662.777344,2609.948730 
	C656.165710,2615.125977 651.929749,2616.056152 645.418091,2611.898438 
	C640.906921,2609.017822 637.361755,2609.162842 634.159058,2613.332275 
	C629.462769,2619.446533 623.520447,2619.696777 617.248169,2616.701172 
	C593.407959,2605.315430 568.066711,2598.533936 542.607544,2592.118896 
	C537.323303,2590.787354 533.106384,2588.669922 529.397217,2584.227783 
	C521.641602,2574.939697 511.492920,2569.814209 499.012787,2569.513916 
	C495.517548,2569.429932 491.963715,2567.853271 488.609558,2566.525146 
	C474.703735,2561.019287 460.850769,2555.378906 447.003967,2549.725342 
	C433.155548,2544.071289 419.337494,2538.342773 405.001129,2532.438965 
	C398.092804,2538.561523 391.836365,2545.038574 389.532410,2554.650146 
	C388.919342,2557.207764 386.929901,2560.020996 384.748260,2561.508057 
	C378.008087,2566.103271 370.870361,2570.114990 363.429962,2574.630371 
	C367.348602,2583.329834 364.970062,2589.794189 361.073608,2596.929443 
	C358.733765,2601.214111 359.577606,2607.948730 360.680511,2613.229492 
	C362.200104,2620.506104 361.464142,2626.705566 357.940216,2633.275391 
	C356.074005,2636.754883 355.568481,2641.544189 356.032043,2645.559326 
	C356.762085,2651.882324 354.707794,2656.076904 349.084351,2658.348145 
	C343.724121,2660.513428 341.788696,2664.292969 341.535522,2669.843994 
	C341.388733,2673.062256 340.694092,2676.774902 338.890411,2679.294922 
	C334.483368,2685.452637 334.203094,2692.127686 334.261688,2699.226807 
	C334.443207,2721.223633 334.069916,2743.227295 334.428986,2765.219727 
	C334.630646,2777.571289 326.534576,2784.283936 318.298615,2790.913330 
	C316.864746,2792.067383 313.137756,2791.577637 311.093689,2790.574951 
	C296.756744,2783.542236 282.562744,2776.215576 268.386108,2768.861572 
	C266.720367,2767.997559 264.961121,2766.665039 264.061798,2765.084961 
	C260.203552,2758.305420 256.613861,2751.371338 252.997482,2744.456299 
	C249.614426,2737.987061 249.182510,2737.768066 242.321182,2739.977051 
	C234.164108,2742.603760 234.223145,2742.553955 228.436874,2735.700928 
	C227.235825,2734.278809 225.561005,2732.707031 223.860245,2732.341553 
	C207.334412,2728.792236 190.708176,2725.703857 174.205505,2722.054688 
	C152.510696,2717.257324 130.901382,2712.072998 108.539139,2706.888916 
	C110.042938,2694.602295 111.480385,2682.554688 112.999458,2670.517578 
	C115.199013,2653.088379 117.414459,2635.660645 119.722832,2618.245361 
	C120.267464,2614.136475 118.511719,2610.966064 117.232117,2607.242188 
	C114.844200,2600.292725 112.480675,2593.142578 111.813744,2585.338623 
	C111.303764,2579.371338 111.836075,2573.840332 112.326149,2568.113770 
	C112.995705,2560.289795 111.668159,2552.894531 107.810707,2545.977539 
	C104.400108,2539.861572 104.058914,2534.495605 107.787766,2527.532227 
	C112.936646,2517.916748 117.807617,2508.125977 123.104279,2498.549561 
	C125.147041,2494.856201 127.665047,2490.248047 123.090332,2486.720459 
	C126.270447,2481.824219 129.360641,2477.400635 132.081955,2472.760742 
	C133.944672,2469.584961 135.427505,2467.635010 139.819458,2469.413330 
	C142.424133,2470.468262 145.954514,2469.237305 149.942902,2468.976807 
	C151.240097,2460.759033 159.120056,2457.082520 165.017715,2451.695801 
	C172.642914,2444.731201 177.571335,2437.236328 174.527863,2426.015625 
	C173.337708,2421.627441 173.501938,2416.426514 178.898300,2412.903320 
	C181.400238,2411.270020 181.367157,2405.926758 183.838242,2404.039551 
	C190.269730,2399.127197 192.621262,2391.234131 198.452271,2385.962891 
	C204.107239,2380.851074 209.648499,2375.546143 212.272614,2367.938232 
	C212.827728,2366.328857 214.871918,2364.886719 216.568634,2364.078613 
	C223.204926,2360.917969 226.717163,2355.362305 228.870316,2348.733154 
	C230.404694,2344.009277 235.158646,2340.174805 232.837646,2334.312012 
	C232.566101,2333.626221 233.253006,2331.837402 233.851151,2331.640869 
	C240.897064,2329.322510 240.623703,2320.962646 245.631210,2317.379883 
	C249.696228,2314.471436 249.881546,2310.295654 251.035202,2306.506104 
	C253.167648,2299.500732 255.434723,2292.569824 258.215912,2285.797852 
	C261.769592,2277.145264 269.946808,2274.682129 278.143036,2271.443359 
	C276.843414,2265.603516 275.640259,2260.343262 277.699219,2254.148438 
	C279.217468,2249.580566 276.340759,2243.136719 274.255646,2238.002441 
	C273.483795,2236.101807 269.381500,2235.554199 266.505676,2234.257568 
	C265.515778,2228.044434 266.290466,2220.496582 263.080292,2215.517822 
	C257.560913,2206.957764 258.305298,2196.671143 253.126694,2188.218750 
	C250.565857,2184.038574 249.727478,2178.788574 248.199585,2173.993652 
	C245.968781,2166.993164 243.290527,2160.400879 237.093201,2155.674316 
	C235.516418,2154.471924 235.275467,2151.517822 233.802032,2147.813232 
	C231.586807,2147.449219 227.526718,2147.030518 223.615799,2146.028809 
	C221.813599,2145.567383 219.030319,2144.121582 218.875702,2142.855225 
	C218.109238,2136.579102 212.401886,2136.042725 208.208160,2132.796875 
	C208.208160,2129.270264 208.208160,2125.339844 208.208160,2121.703857 
	C197.950165,2114.686035 190.070358,2104.724854 179.282715,2103.902832 
	C173.944901,2095.897461 169.600571,2089.225342 165.017273,2082.721924 
	C164.491989,2081.976562 162.568970,2081.799805 161.402344,2081.997559 
	C157.151703,2082.718994 154.519440,2080.466797 154.345917,2076.843506 
	C153.727478,2063.929932 142.412842,2059.993408 134.768768,2053.131348 
	C132.833847,2051.394531 130.345764,2051.187744 128.881516,2047.858887 
	C126.717987,2042.940308 120.156807,2042.281250 114.215050,2045.440430 
	C113.683083,2037.823486 113.175529,2030.555908 112.606857,2022.413452 
	C112.023643,2022.100586 110.364372,2021.210205 108.555466,2020.239502 
	C109.330460,2017.269897 110.071899,2014.428833 110.761238,2011.787476 
	C108.116203,2009.196533 105.665939,2006.796509 102.595177,2003.937500 
	C101.859077,1999.081421 101.743477,1994.684204 101.801407,1989.483887 
M182.986023,1880.073242 
	C182.831421,1880.531738 182.676819,1880.990356 182.522232,1881.448853 
	C182.953522,1881.305908 183.384827,1881.163086 182.986023,1880.073242 
z"/>

</svg>