<svg version="1.1" id="Layer_1" xmlns="http://www.w3.org/2000/svg" xmlns:xlink="http://www.w3.org/1999/xlink" x="0px" y="0px"
	 width="100%" viewBox="0 0 2282 3185" enable-background="new 0 0 2282 3185" xml:space="preserve">


<path 
	data-name="Toko"
fill="#8A3532" opacity="1.000000" stroke="none" 
	d="
M2284.000000,1003.166687 
	C2282.030273,1004.827087 2279.678223,1005.225220 2278.170166,1006.570007 
	C2274.956543,1009.435730 2272.390137,1013.028564 2269.169189,1015.884338 
	C2265.677734,1018.979797 2264.135010,1022.404602 2264.011963,1027.160889 
	C2263.923096,1030.595703 2262.676514,1034.363770 2260.869873,1037.327148 
	C2253.507080,1049.403442 2247.688965,1061.868652 2248.194336,1076.446899 
	C2248.358643,1081.183838 2246.559326,1083.920654 2241.356934,1084.190674 
	C2232.954346,1084.626953 2226.076904,1088.918457 2220.389160,1094.578979 
	C2216.063477,1098.883911 2210.236572,1101.934814 2208.116455,1108.461670 
	C2207.539551,1110.237671 2204.705322,1111.339722 2202.818115,1112.620117 
	C2196.783936,1116.715210 2190.372070,1120.346069 2184.800293,1124.989014 
	C2182.297363,1127.074707 2180.330811,1131.058105 2180.100098,1134.320190 
	C2179.760010,1139.130981 2177.768799,1141.762085 2173.631348,1143.232788 
	C2167.227783,1145.508911 2163.265625,1149.934326 2160.855469,1156.249634 
	C2159.324707,1160.260742 2156.622070,1163.306152 2152.693115,1165.858032 
	C2148.725342,1168.435303 2145.711426,1172.729126 2142.850586,1176.683838 
	C2140.535889,1179.883057 2139.068115,1183.694946 2137.225830,1187.235718 
	C2134.595947,1192.290283 2130.607910,1195.449463 2124.832031,1196.100098 
	C2105.217529,1198.309204 2090.545898,1209.815186 2076.854004,1222.521118 
	C2070.474121,1228.441650 2068.075439,1236.587646 2071.588379,1245.391235 
	C2075.156738,1254.333130 2078.517822,1263.381958 2082.652100,1272.058960 
	C2083.907959,1274.694946 2087.159668,1276.786377 2089.965088,1278.196045 
	C2096.503906,1281.481812 2100.210693,1285.807861 2099.943848,1293.722290 
	C2099.471924,1307.726562 2107.812744,1317.915405 2116.539307,1327.508667 
	C2121.889404,1333.390015 2127.823730,1338.827271 2134.008545,1343.829590 
	C2137.746826,1346.852905 2139.508789,1350.247437 2139.785889,1354.789795 
	C2140.742188,1370.474731 2135.650391,1383.554688 2125.692871,1396.009521 
	C2113.122314,1411.733276 2098.942383,1426.385620 2089.570801,1444.566650 
	C2087.467041,1448.647949 2084.395508,1452.230469 2081.017090,1456.788086 
	C2079.532959,1457.509155 2078.801514,1457.484741 2077.340576,1457.089722 
	C2069.289551,1456.488525 2061.960938,1456.386963 2054.647217,1456.004761 
	C2024.157227,1454.411377 1993.329712,1456.632568 1963.466309,1447.864502 
	C1958.048462,1446.273926 1952.463379,1445.261475 1946.981567,1443.878784 
	C1925.066040,1438.350342 1902.770020,1433.973633 1881.342163,1426.951294 
	C1848.157715,1416.076050 1815.544922,1403.448853 1782.753418,1391.391235 
	C1778.121582,1389.688110 1773.575684,1387.423828 1769.454712,1384.712646 
	C1745.523193,1368.968506 1721.663330,1353.112183 1697.956299,1337.032715 
	C1693.928955,1334.301270 1690.204224,1330.720337 1687.287964,1326.822510 
	C1673.119507,1307.885376 1659.130249,1288.809082 1645.414307,1269.542236 
	C1641.953979,1264.681763 1637.788208,1261.549561 1632.410034,1259.277222 
	C1610.948975,1250.210449 1589.625732,1240.817871 1568.169556,1231.739380 
	C1560.219482,1228.375732 1552.227905,1224.874878 1543.936157,1222.599609 
	C1522.129150,1216.615234 1500.120728,1211.369507 1478.244629,1205.630615 
	C1465.708252,1202.341797 1452.748291,1199.906738 1440.904297,1194.898804 
	C1417.618164,1185.052856 1395.014526,1173.599731 1372.037598,1163.008911 
	C1367.551392,1160.940918 1364.522949,1158.075562 1362.333618,1153.611694 
	C1347.375244,1123.111816 1332.148560,1092.743408 1317.216675,1062.230591 
	C1315.522949,1058.769531 1314.457764,1054.713745 1314.233154,1050.867554 
	C1312.758545,1025.612793 1311.549194,1000.341797 1310.341919,975.071899 
	C1308.959839,946.142090 1307.424561,917.216736 1306.395996,888.273743 
	C1304.810913,843.673035 1303.625366,799.058167 1302.222168,754.450867 
	C1301.363525,727.152466 1300.973999,699.823853 1299.357056,672.569031 
	C1297.565063,642.362732 1294.002930,612.258484 1292.350098,582.047546 
	C1290.858643,554.786682 1290.958008,527.440186 1290.206055,500.135590 
	C1290.109741,496.636841 1289.112671,493.162872 1288.858643,489.145416 
	C1290.736206,486.904053 1292.085083,484.935699 1293.875610,483.530182 
	C1301.525269,477.525604 1302.468872,469.513397 1302.351440,460.409546 
	C1301.959961,430.106049 1302.110107,399.793732 1302.311646,369.486511 
	C1302.339355,365.312714 1302.788330,360.513885 1304.861938,357.114288 
	C1308.975342,350.370117 1311.158447,343.271332 1312.196655,335.627075 
	C1312.812866,331.089996 1314.788452,327.535858 1319.051636,325.300659 
	C1321.687988,323.918335 1324.324707,322.298828 1326.464355,320.263397 
	C1329.587646,317.292145 1332.939941,313.817932 1330.322876,309.032684 
	C1325.891602,300.929962 1329.370972,293.858978 1333.669434,287.678253 
	C1337.902222,281.592072 1338.163086,275.348907 1337.621704,268.695648 
	C1337.164917,263.084229 1336.775146,257.388397 1335.444458,251.953003 
	C1334.451660,247.897720 1335.303833,244.832886 1337.541870,241.738434 
	C1341.964722,235.622665 1345.012817,229.258057 1341.940674,221.451248 
	C1340.445068,217.650986 1341.502930,214.792664 1344.878540,211.953171 
	C1351.499634,206.383636 1357.718628,200.394150 1366.232544,197.708237 
	C1371.057007,196.186234 1373.694458,193.339661 1374.511475,187.851532 
	C1375.713989,179.774094 1380.600464,173.304550 1385.920410,167.192123 
	C1388.205688,164.566360 1389.714722,161.264893 1391.576416,158.270416 
	C1393.283203,158.152206 1394.989868,158.033997 1397.808105,158.698761 
	C1400.635498,160.428619 1402.276978,161.557434 1404.078491,162.295471 
	C1438.850586,176.540741 1473.595093,190.855942 1508.482422,204.813934 
	C1513.267944,206.728561 1518.763184,206.954483 1523.964966,207.726501 
	C1535.345825,209.415604 1546.949463,212.238983 1553.792603,221.670013 
	C1561.240723,231.934586 1570.399536,237.311554 1582.374878,239.144501 
	C1583.686646,239.345291 1584.991455,239.634781 1586.273804,239.978607 
	C1609.020996,246.077789 1632.466309,249.798889 1653.938354,260.230591 
	C1661.411133,263.861115 1669.214233,266.806396 1676.749634,270.315338 
	C1681.685791,272.613892 1685.820923,271.933624 1689.309448,267.866913 
	C1692.127197,264.582092 1694.748657,261.128845 1697.516479,257.676422 
	C1702.750244,260.035065 1706.475342,261.361969 1709.845459,263.304688 
	C1717.196655,267.542419 1722.241455,267.097900 1728.744263,262.010590 
	C1733.647095,258.174896 1739.031250,254.954407 1743.924805,251.646866 
	C1752.470459,257.165161 1760.082886,262.080841 1768.395508,267.448669 
	C1771.044922,265.923737 1774.648315,264.127258 1773.454468,258.958740 
	C1772.352539,254.188843 1775.589966,251.711121 1778.367188,249.041870 
	C1787.510376,251.638107 1788.453369,253.399551 1783.067871,259.784302 
	C1779.913330,263.524017 1779.743042,265.683228 1785.285278,268.856781 
	C1787.314575,264.985962 1789.128418,261.680817 1790.799683,258.305115 
	C1793.972900,251.896301 1803.594849,249.638412 1807.351318,254.473618 
	C1812.550903,261.166565 1809.846680,270.207764 1801.711670,273.050262 
	C1799.842041,273.703522 1797.769897,273.766876 1795.883545,274.384827 
	C1793.045532,275.314636 1789.911499,276.163849 1790.318726,280.226715 
	C1790.723389,284.265137 1792.634888,287.292664 1796.818970,287.925964 
	C1799.752930,288.370056 1802.799683,288.074158 1805.796143,288.099487 
	C1813.060059,288.160950 1814.386597,289.260071 1817.119019,297.716217 
	C1812.721313,302.045044 1807.139160,302.146210 1801.434326,301.854401 
	C1797.387329,301.647400 1793.417480,301.621887 1792.283081,306.815033 
	C1797.785522,309.881531 1797.791138,309.757538 1808.601318,310.244598 
	C1811.442749,310.372620 1815.016602,310.680695 1816.883545,312.396942 
	C1820.229492,315.472900 1822.608032,319.630981 1825.202271,323.464325 
	C1825.612793,324.070618 1825.346558,325.554260 1824.861084,326.272339 
	C1823.106812,328.865875 1821.621460,332.472839 1819.116821,333.537170 
	C1815.098389,335.244781 1810.330811,334.684784 1807.529175,330.417908 
	C1804.783203,326.235687 1801.854492,322.574646 1796.143311,321.236389 
	C1795.820312,323.191711 1794.856445,325.088806 1795.422607,326.219269 
	C1800.155273,335.667297 1798.167480,345.501495 1795.541138,354.503479 
	C1791.670288,367.771423 1801.087646,374.343201 1805.535400,382.602600 
	C1811.597900,380.979279 1816.346924,378.532227 1820.893433,378.863556 
	C1824.508301,379.127014 1827.655884,379.726501 1831.367676,378.585327 
	C1837.225342,376.784454 1843.393799,375.994720 1850.673706,374.526306 
	C1851.042480,377.684235 1852.369385,381.064514 1851.588379,383.854828 
	C1849.258789,392.178772 1852.428711,397.541168 1858.745117,402.658325 
	C1864.806152,407.568665 1867.390259,414.121674 1864.414917,422.265930 
	C1863.239014,425.484680 1862.909546,429.346954 1863.358521,432.763214 
	C1864.765747,443.469971 1863.593994,453.472961 1856.847290,462.742188 
	C1862.808960,464.376312 1868.467896,465.927460 1874.489990,467.578125 
	C1876.939697,465.846283 1879.584473,463.976501 1883.351318,461.313507 
	C1885.893921,464.090302 1888.794556,466.274139 1890.361938,469.177673 
	C1893.490479,474.973175 1895.556152,481.344635 1898.713989,487.121155 
	C1900.543579,490.467804 1903.583618,493.174164 1906.191040,496.067780 
	C1908.609253,498.751465 1912.304565,500.879089 1913.467529,503.988342 
	C1917.030396,513.514465 1921.160156,523.227051 1922.262329,533.177979 
	C1923.772827,546.817749 1931.414307,556.046997 1939.929321,565.292725 
	C1940.579224,565.998413 1940.962769,566.949402 1941.343262,567.576965 
	C1941.768555,571.792114 1934.763672,576.010132 1942.277344,580.041077 
	C1943.401733,579.159668 1944.545532,577.963501 1945.938110,577.258484 
	C1947.245483,576.596436 1948.815674,576.453247 1950.882690,575.925415 
	C1952.143066,585.757690 1954.023560,594.794678 1944.473511,601.894714 
	C1958.241943,606.962952 1950.336304,614.381409 1947.067871,621.680908 
	C1951.857910,620.110596 1955.645630,617.450745 1959.842163,616.351013 
	C1965.975342,614.743713 1971.825928,613.327698 1977.126099,609.300476 
	C1981.788452,605.758057 1986.303711,608.920288 1986.073853,614.921509 
	C1986.011108,616.562012 1985.479370,618.184937 1985.158691,619.815063 
	C1983.684204,627.311462 1984.959351,629.724854 1991.569336,633.456482 
	C1997.315186,636.700256 2003.033081,640.045471 2008.459717,643.786316 
	C2012.909668,646.853821 2015.866821,650.359375 2014.594238,657.025391 
	C2012.994751,665.403687 2018.855103,670.061890 2027.558105,669.735901 
	C2034.971191,669.458313 2042.838135,668.357422 2048.438721,675.377014 
	C2050.612549,678.101685 2053.263184,677.864746 2056.516357,676.905823 
	C2068.802734,673.284119 2081.142578,678.272705 2093.543945,677.211060 
	C2096.359863,676.969971 2099.854980,679.280212 2100.242188,683.488098 
	C2100.380127,684.987671 2101.221191,686.422607 2101.957520,688.495544 
	C2105.262451,687.614258 2108.145996,686.069458 2110.845703,686.342346 
	C2113.585205,686.619263 2116.035889,689.161682 2118.822021,689.796387 
	C2120.450195,690.167480 2122.486572,688.746704 2122.174316,688.850281 
	C2126.433350,692.176025 2129.687500,694.717285 2132.929199,697.248596 
	C2131.712646,698.722351 2130.673828,699.980713 2129.073486,701.919434 
	C2132.627686,701.492737 2135.042236,701.202820 2137.885986,700.861389 
	C2137.885986,703.599304 2138.525146,705.856934 2137.766357,707.447937 
	C2135.468506,712.266663 2136.650879,717.429688 2138.943848,720.796936 
	C2144.575439,729.066406 2141.576660,735.947998 2137.516357,743.054993 
	C2133.264160,750.497559 2129.614014,757.891541 2136.018311,766.170715 
	C2134.135742,767.842590 2132.742432,769.197876 2131.229248,770.403137 
	C2125.534912,774.939148 2125.733887,774.829346 2128.879395,782.178284 
	C2131.028076,787.197510 2132.477051,792.516113 2134.309814,797.908936 
	C2131.119385,799.285339 2128.839355,800.269104 2125.509033,801.705811 
	C2130.283203,808.544006 2133.917480,815.297729 2139.004883,820.677429 
	C2146.866943,828.991150 2147.568115,838.260864 2144.848633,848.353882 
	C2143.059814,854.994019 2139.112793,861.362427 2138.727539,868.003052 
	C2138.039795,879.862427 2139.127686,891.847961 2139.930664,903.749939 
	C2140.083496,906.012390 2141.836670,908.901855 2143.739502,910.183899 
	C2151.976807,915.733643 2160.528320,920.819519 2168.994385,926.026855 
	C2180.845215,933.316223 2192.738525,940.536621 2204.579834,947.840820 
	C2210.183838,951.297546 2215.293701,956.154175 2221.359619,958.135132 
	C2233.156006,961.987549 2244.063477,967.183289 2254.269043,974.112122 
	C2264.133301,980.809265 2274.086182,987.375977 2284.000000,994.000000 
	C2284.000000,996.777771 2284.000000,999.555603 2284.000000,1003.166687 
z"/>

<path 
	data-name="Bamusso"
fill="#F48EBD" opacity="1.000000" stroke="none" 
	d="
M1262.921265,3188.000000 
	C1265.232300,3183.308594 1257.243530,3183.014404 1259.698608,3177.386719 
	C1263.422363,3174.733154 1263.130737,3169.306396 1261.103149,3163.924561 
	C1256.608887,3151.995850 1250.635864,3141.286621 1239.762451,3133.473877 
	C1231.194458,3127.317871 1223.731445,3119.610840 1215.863770,3112.497559 
	C1211.193604,3108.274902 1213.024780,3102.179932 1212.439209,3097.099365 
	C1211.330566,3087.479248 1212.733276,3077.974609 1219.571411,3070.034180 
	C1221.164062,3068.184326 1222.030029,3065.221191 1222.164429,3062.713379 
	C1222.384399,3058.602051 1222.497803,3054.858887 1226.227905,3052.040039 
	C1227.248657,3051.269043 1227.341553,3049.138428 1227.659180,3047.590576 
	C1229.546875,3038.391602 1227.770996,3028.183594 1235.168091,3020.510986 
	C1234.136475,3015.474121 1234.329346,3009.674316 1231.780762,3005.582275 
	C1228.129272,2999.719727 1225.976196,2994.040039 1225.443237,2987.166748 
	C1225.070923,2982.364990 1222.673218,2977.735596 1221.320801,2972.989014 
	C1220.526245,2970.200195 1218.785767,2966.903564 1219.601807,2964.585205 
	C1221.719482,2958.568604 1220.255981,2953.034912 1217.165527,2948.645020 
	C1213.448120,2943.364746 1208.510986,2938.602051 1203.231445,2934.835693 
	C1193.057983,2927.577637 1181.581177,2922.026123 1171.941650,2914.175049 
	C1162.844971,2906.765625 1156.263916,2897.009521 1151.305542,2885.834229 
	C1146.192017,2874.308838 1140.110107,2863.261230 1137.283813,2850.843506 
	C1135.300049,2842.126953 1133.640137,2833.325684 1131.337524,2824.695068 
	C1126.541382,2806.718262 1124.026245,2788.375977 1122.562988,2769.909180 
	C1122.105591,2764.136963 1122.941528,2758.040283 1124.362305,2752.387939 
	C1127.264038,2740.843262 1130.755005,2729.430908 1134.478638,2718.120361 
	C1135.445801,2715.182617 1138.024292,2712.700684 1140.111450,2710.218750 
	C1150.291870,2698.112061 1160.556274,2686.075928 1170.338257,2674.548340 
	C1165.445557,2666.226562 1159.989258,2659.427002 1157.299438,2651.668213 
	C1154.645752,2644.013916 1154.263794,2635.412354 1153.898926,2627.181396 
	C1153.665039,2621.905273 1156.543091,2620.673096 1163.263916,2621.497070 
	C1176.024658,2604.630127 1188.735840,2587.828857 1202.222534,2570.002197 
	C1190.071533,2564.034424 1180.994995,2555.364014 1168.348389,2551.803223 
	C1151.110596,2546.950195 1137.752563,2536.277588 1129.932373,2519.647217 
	C1128.836182,2517.315674 1127.900269,2514.698486 1127.757935,2512.164795 
	C1127.138672,2501.147217 1128.047729,2490.274658 1131.217651,2479.603271 
	C1137.576050,2458.198242 1136.637329,2436.195068 1136.017334,2414.265625 
	C1135.926147,2411.039062 1134.403320,2407.845459 1133.488037,2404.652344 
	C1132.694092,2401.882568 1131.276733,2371.483398 1132.157837,2368.910645 
	C1133.979248,2363.592285 1136.046875,2358.358398 1138.326172,2352.251221 
	C1133.636230,2350.503174 1129.112549,2348.817383 1126.180054,2347.724365 
	C1122.333130,2340.354980 1119.185425,2334.325195 1115.657104,2327.566162 
	C1113.830078,2329.171875 1112.627075,2329.784424 1112.099243,2330.761963 
	C1107.226440,2339.784668 1106.356323,2340.004395 1098.125977,2334.692627 
	C1094.228516,2332.177246 1090.190308,2329.864014 1086.115234,2327.644287 
	C1078.284546,2323.378418 1072.832886,2317.349121 1068.796753,2309.163330 
	C1059.049438,2289.394531 1046.242310,2271.670166 1030.110352,2256.487305 
	C1027.456543,2253.989502 1024.982056,2251.280762 1022.180420,2248.965332 
	C1019.464661,2246.720947 1016.434143,2244.857422 1012.970825,2241.739990 
	C1013.007080,2238.065430 1013.549377,2235.459961 1014.233093,2232.892334 
	C1017.031250,2222.384277 1025.161621,2217.706787 1035.564453,2220.638428 
	C1037.480713,2221.178467 1039.410400,2221.796387 1041.192017,2222.668213 
	C1054.433716,2229.149170 1067.553955,2225.640869 1079.903320,2220.812500 
	C1090.200195,2216.786621 1097.142944,2209.082520 1101.616211,2197.781006 
	C1108.053345,2181.517822 1124.992676,2172.452637 1141.346802,2181.502197 
	C1146.568848,2184.392090 1151.727783,2187.403320 1157.023315,2190.151123 
	C1161.424561,2192.435059 1165.839111,2194.844727 1170.510986,2196.415771 
	C1175.821655,2198.201660 1181.238037,2197.330566 1185.238159,2193.170410 
	C1189.135010,2189.117676 1192.895996,2184.770752 1195.858643,2180.018066 
	C1201.687744,2170.667480 1200.825562,2160.346924 1198.921509,2150.050049 
	C1197.389526,2141.764404 1200.177979,2137.911865 1208.585571,2137.866943 
	C1211.634155,2137.850586 1214.856201,2139.280029 1217.713257,2140.646973 
	C1224.449341,2143.870361 1230.824951,2145.381104 1237.120605,2139.643066 
	C1238.784424,2138.126709 1241.073120,2137.163330 1243.225220,2136.338135 
	C1252.166626,2132.910400 1254.088745,2134.222168 1255.682007,2143.694336 
	C1256.167969,2146.583008 1257.759155,2149.285889 1258.439941,2151.035156 
	C1264.854614,2150.039062 1270.054932,2147.780029 1274.271606,2148.979492 
	C1278.611938,2150.214355 1281.993286,2154.820801 1286.119995,2158.219971 
	C1289.234253,2156.845947 1292.214966,2155.467773 1295.244019,2154.205322 
	C1309.036987,2148.456299 1317.723633,2151.887695 1323.874023,2165.438232 
	C1324.409790,2166.618652 1324.885498,2168.062744 1325.842285,2168.779541 
	C1336.007080,2176.396484 1338.820190,2186.853516 1337.552368,2198.840820 
	C1336.742676,2206.495850 1340.010376,2212.277588 1345.109253,2217.553955 
	C1348.321777,2220.877930 1351.360962,2224.457764 1353.899048,2228.304688 
	C1355.020386,2230.004150 1355.770508,2233.343750 1354.857544,2234.746094 
	C1351.069092,2240.564697 1347.088989,2246.463379 1342.098022,2251.191650 
	C1340.135132,2253.051514 1335.342651,2251.984863 1331.833740,2252.140381 
	C1324.520386,2252.464844 1321.343872,2257.327637 1324.032471,2264.317627 
	C1325.097046,2267.085449 1326.387207,2269.766602 1327.878906,2273.184082 
	C1320.270020,2277.124023 1317.959961,2283.022461 1322.585327,2290.416504 
	C1326.665161,2296.938721 1326.647583,2303.458984 1323.882202,2310.340576 
	C1323.610718,2311.016113 1324.361450,2312.102539 1324.576538,2312.800049 
	C1329.961792,2314.290527 1335.043335,2315.722168 1340.139282,2317.100098 
	C1346.198364,2318.738770 1352.186768,2320.905518 1358.357056,2321.800537 
	C1366.342041,2322.958740 1374.483398,2323.270996 1379.368042,2314.534668 
	C1380.023193,2313.363037 1381.859985,2312.852051 1383.195435,2312.006104 
	C1392.765015,2330.496826 1392.765015,2330.496826 1401.676392,2331.456787 
	C1401.146240,2336.415527 1404.550781,2339.103027 1407.871948,2342.252686 
	C1413.786377,2347.861572 1418.972656,2354.230225 1424.735107,2360.010498 
	C1427.473755,2362.757324 1429.904175,2364.319824 1435.002441,2362.132568 
	C1441.701172,2359.258789 1449.717407,2359.455078 1457.100830,2358.341064 
	C1457.947510,2361.028564 1458.675171,2363.338135 1459.515747,2366.005615 
	C1466.681152,2361.346436 1472.913696,2356.295410 1481.393066,2358.340820 
	C1483.650879,2358.885254 1486.620972,2361.505615 1487.771362,2360.785889 
	C1494.658813,2356.479248 1494.972534,2361.698730 1495.542480,2365.887451 
	C1496.210449,2370.796875 1496.224976,2375.795166 1496.532104,2380.907227 
	C1499.108521,2381.750000 1501.441772,2382.513184 1503.978760,2383.343262 
	C1502.857788,2385.636963 1502.056885,2387.275635 1501.811768,2387.777344 
	C1504.131958,2390.497070 1507.190063,2392.437012 1507.421387,2394.669922 
	C1508.043823,2400.681885 1511.314941,2403.495850 1516.529175,2404.713623 
	C1515.553101,2407.491211 1514.650513,2410.059570 1513.674927,2412.835449 
	C1518.014648,2414.324951 1521.432617,2415.498047 1524.041626,2416.393555 
	C1526.243896,2421.174805 1528.091064,2425.185059 1530.352539,2430.094727 
	C1535.999023,2417.997803 1540.827759,2416.932129 1549.578491,2424.963379 
	C1552.648071,2427.780518 1555.606079,2430.011963 1560.050171,2429.781250 
	C1561.364014,2429.713379 1562.742432,2430.885742 1564.797241,2431.805664 
	C1560.052246,2436.994141 1555.936279,2441.494873 1552.009155,2445.789062 
	C1554.578613,2449.118896 1557.783569,2451.396240 1558.021973,2453.950195 
	C1558.618042,2460.337402 1563.662842,2462.759033 1567.374146,2466.251709 
	C1570.253052,2468.961182 1572.938354,2467.758789 1573.684570,2463.847168 
	C1574.016724,2462.106689 1573.570312,2460.217773 1573.569092,2460.194580 
	C1579.541504,2456.579346 1584.178711,2453.772217 1589.568237,2450.509521 
	C1591.660400,2452.750244 1594.311035,2455.588867 1597.246948,2458.733154 
	C1600.901855,2458.081787 1604.781982,2456.848877 1608.668091,2456.829102 
	C1614.063110,2456.802002 1613.668335,2462.619385 1616.297241,2467.060547 
	C1619.076538,2464.594727 1621.460205,2462.949463 1623.236572,2460.801758 
	C1626.449951,2456.916260 1630.153320,2456.082520 1634.703735,2457.874756 
	C1636.854370,2458.721924 1639.057861,2459.435059 1641.237305,2460.208984 
	C1644.357056,2470.794922 1650.549927,2473.319092 1662.996704,2468.907959 
	C1666.461182,2471.719727 1670.074951,2474.094727 1670.591553,2479.629883 
	C1671.011597,2484.129883 1675.032837,2485.893555 1679.414185,2484.101807 
	C1683.120117,2482.586670 1686.577759,2480.151855 1690.677490,2482.359131 
	C1696.186768,2485.325195 1702.224854,2487.638428 1705.196899,2493.912842 
	C1706.480957,2496.624023 1707.108032,2508.701416 1706.472534,2512.540771 
	C1705.241821,2519.976074 1704.506226,2527.493164 1703.554688,2535.061035 
	C1709.664551,2537.523438 1714.462402,2530.614014 1719.563599,2535.228027 
	C1723.080688,2538.409668 1727.211914,2540.912109 1731.997681,2544.393799 
	C1736.217285,2533.759766 1746.022095,2537.863770 1752.802979,2534.419434 
	C1754.143799,2533.738281 1757.179565,2536.393555 1759.753906,2537.668945 
	C1756.688843,2545.725586 1752.089966,2550.720215 1744.067627,2552.110107 
	C1741.785400,2552.505371 1739.437378,2553.003174 1737.354492,2553.963379 
	C1733.246948,2555.856934 1729.669678,2557.772217 1728.985229,2563.502441 
	C1728.470215,2567.813721 1725.612061,2572.005615 1723.224976,2575.899902 
	C1718.020264,2584.391357 1718.104126,2590.100830 1724.927490,2598.109863 
	C1732.116699,2606.548340 1729.855347,2615.495850 1726.761353,2624.408691 
	C1724.266235,2631.596436 1720.767456,2638.441650 1718.377808,2645.658447 
	C1715.656738,2653.876221 1709.781616,2657.857666 1701.916382,2659.729004 
	C1698.691406,2660.496338 1695.267822,2660.672852 1692.222534,2661.858154 
	C1690.456909,2662.545166 1688.013794,2664.805908 1688.125977,2666.174561 
	C1688.269775,2667.930420 1690.487915,2669.741943 1692.181152,2671.053467 
	C1693.076416,2671.746826 1694.768311,2671.347412 1696.075195,2671.583008 
	C1708.372192,2673.799561 1715.813965,2682.375977 1716.328369,2694.898926 
	C1716.519043,2699.542969 1716.742920,2704.187012 1716.843628,2708.833008 
	C1716.992310,2715.704834 1719.674561,2720.893799 1726.184204,2723.827637 
	C1727.981567,2724.637695 1729.571533,2725.907959 1730.862915,2726.719482 
	C1729.278564,2732.642090 1727.032104,2735.091553 1722.249634,2735.518799 
	C1718.441040,2735.859375 1713.005005,2735.940186 1711.315430,2738.301025 
	C1707.809326,2743.199219 1706.229004,2749.504883 1704.061523,2755.308105 
	C1703.643799,2756.426758 1704.162231,2757.895264 1704.271851,2759.549805 
	C1701.936768,2761.383301 1699.294067,2762.909912 1697.384155,2765.081543 
	C1694.206665,2768.693848 1690.450806,2769.964844 1685.845947,2769.424561 
	C1672.020996,2767.803223 1663.571289,2777.458984 1655.471802,2785.679443 
	C1650.056763,2791.175537 1649.119263,2799.973145 1652.695923,2808.665527 
	C1650.396973,2809.669678 1648.405273,2810.519287 1646.430908,2811.407471 
	C1644.380371,2812.329590 1641.674561,2812.758789 1640.433350,2814.332764 
	C1636.971436,2818.722412 1632.685425,2821.160889 1627.442139,2822.944092 
	C1620.721069,2825.229248 1621.030151,2832.173096 1619.303589,2838.343750 
	C1609.444092,2833.969482 1600.865845,2840.183838 1591.641724,2841.383545 
	C1589.718750,2841.634033 1586.745850,2843.822021 1586.517700,2845.436768 
	C1585.219482,2854.621826 1577.502319,2854.955566 1571.218018,2857.215088 
	C1569.420654,2857.861572 1567.330322,2857.693848 1565.429077,2857.893799 
	C1562.046265,2862.402344 1562.171753,2869.396729 1555.254761,2870.788574 
	C1543.841675,2866.415527 1532.350342,2862.012695 1520.490723,2857.468750 
	C1522.365967,2870.003418 1518.567139,2870.353027 1505.008789,2868.041260 
	C1501.881592,2870.201416 1499.234253,2872.364502 1496.288696,2873.985596 
	C1491.982544,2876.355713 1486.891846,2877.626953 1483.152710,2880.632080 
	C1475.396484,2886.865967 1466.046631,2888.115723 1456.326416,2890.880127 
	C1456.600708,2892.497559 1457.383667,2894.363770 1457.080933,2896.033447 
	C1456.713989,2898.059326 1455.802124,2901.269775 1454.484131,2901.632080 
	C1445.704468,2904.045654 1444.901367,2912.254395 1440.462891,2918.967773 
	C1437.864868,2918.338867 1434.444702,2917.510986 1431.176758,2916.719727 
	C1430.293457,2919.504639 1429.483887,2922.293457 1428.511963,2925.024658 
	C1427.998291,2926.468262 1427.202271,2927.811279 1426.106445,2930.086670 
	C1423.899414,2927.406494 1422.335449,2925.507080 1420.304810,2923.041260 
	C1417.182495,2925.517090 1414.258789,2927.835449 1411.892334,2929.711914 
	C1411.017090,2935.160889 1410.414185,2940.533936 1409.131226,2945.739014 
	C1408.819824,2947.001953 1405.800903,2948.879150 1404.822021,2948.487549 
	C1398.565918,2945.983398 1398.925537,2953.461426 1395.182373,2954.480957 
	C1396.908936,2959.162598 1395.429810,2961.865967 1390.333984,2962.337402 
	C1389.979126,2970.506348 1382.471436,2969.875000 1377.699585,2972.612061 
	C1376.834961,2973.107910 1375.992065,2973.641846 1374.747192,2974.395264 
	C1374.469238,2978.056152 1374.173584,2981.950928 1373.847046,2986.252441 
	C1371.817993,2986.670166 1370.055054,2987.033203 1368.705322,2987.311035 
	C1367.480591,2991.640625 1366.470825,2995.796387 1365.130981,2999.842773 
	C1360.066040,3015.138428 1356.386108,3030.879883 1348.786865,3045.362793 
	C1346.978638,3048.808838 1348.146729,3054.699463 1349.709229,3058.792480 
	C1351.400879,3063.223877 1351.387329,3067.081299 1350.004517,3071.223633 
	C1347.703125,3078.117432 1345.266235,3084.965820 1342.842529,3091.960449 
	C1347.852295,3100.238281 1346.854248,3103.865967 1338.006348,3108.965820 
	C1329.863037,3113.659424 1330.292725,3113.827637 1331.022949,3122.857910 
	C1331.402100,3127.545410 1329.509155,3132.416748 1328.596069,3137.461914 
	C1315.119385,3138.899658 1307.082642,3146.205322 1302.471069,3157.956299 
	C1301.429443,3160.610596 1298.896973,3162.652832 1297.216431,3165.090820 
	C1295.762451,3167.200195 1293.639038,3169.375488 1293.393433,3171.689209 
	C1292.709229,3178.132812 1288.993042,3182.527100 1285.412842,3187.408203 
	C1278.614136,3188.000000 1271.228394,3188.000000 1262.921265,3188.000000 
z"/>


<path 
	data-name="Kombo-Abedimo"
fill="#463E80" opacity="1.000000" stroke="none" 
	d="
M141.758057,2252.918945 
	C143.102142,2249.674316 144.333725,2247.382812 145.194351,2244.959961 
	C149.017593,2234.197021 154.197327,2224.364990 162.619507,2216.327148 
	C168.991699,2210.246094 172.858276,2202.803223 174.327499,2193.828369 
	C175.495026,2186.697021 178.298035,2179.842529 180.221863,2172.823242 
	C182.719818,2163.708984 182.777451,2154.577393 180.837952,2145.273193 
	C178.948914,2136.210693 177.459259,2127.037354 176.409683,2117.842773 
	C176.073425,2114.896973 176.700668,2110.763916 178.584412,2108.812256 
	C193.340240,2093.524658 208.509109,2078.635498 224.936218,2063.945312 
	C238.623901,2071.584717 250.898621,2078.948975 263.250305,2086.181396 
	C265.792297,2087.669922 268.522766,2088.998779 271.334595,2089.837402 
	C290.101135,2095.435303 308.910278,2100.890625 327.713348,2106.365479 
	C331.349518,2107.424072 333.926758,2109.872070 333.448761,2113.518066 
	C332.517181,2120.623779 336.596863,2125.531494 339.951965,2130.788086 
	C345.617310,2139.663818 353.489075,2140.821777 361.893860,2134.515869 
	C368.667206,2129.433838 371.667786,2122.311035 373.145294,2113.278564 
	C379.189667,2114.849365 384.512604,2116.232666 390.302124,2117.737061 
	C393.471375,2113.258057 396.932251,2110.148926 403.330505,2113.849365 
	C406.433472,2115.644043 410.166595,2113.597656 412.044800,2109.492676 
	C414.921814,2103.204346 418.305756,2097.148438 421.456512,2090.984863 
	C424.476013,2085.078125 429.711182,2083.765869 435.743408,2083.973633 
	C441.913147,2084.186035 445.771301,2087.500977 447.230164,2093.220703 
	C448.447083,2097.991455 449.351837,2102.933105 449.588898,2107.837891 
	C449.848572,2113.211426 452.254150,2116.417969 456.981964,2118.551270 
	C461.677246,2120.669922 465.994812,2120.660156 470.055695,2117.313477 
	C477.973572,2110.788086 485.864258,2104.229736 493.766205,2097.685059 
	C495.027161,2097.993164 496.763397,2097.875488 497.477997,2098.673340 
	C508.317352,2110.774658 519.074646,2122.950684 529.743774,2135.203125 
	C539.335510,2146.218018 543.999573,2159.658203 549.051697,2173.108398 
	C556.471191,2192.861328 559.267761,2213.571289 563.496094,2233.992188 
	C564.357849,2238.154297 563.479492,2242.645508 563.842529,2246.948242 
	C564.705444,2257.173828 564.839111,2267.605713 567.126160,2277.525879 
	C569.476624,2287.721436 570.132446,2297.802002 570.286621,2308.131348 
	C570.587036,2328.253662 574.363464,2347.536865 583.650024,2365.757080 
	C588.400696,2375.078125 594.807312,2381.974121 603.669067,2387.216797 
	C615.650635,2394.304688 618.607544,2402.912354 613.648560,2415.720459 
	C612.767212,2417.997070 610.428894,2419.818115 608.501892,2421.560547 
	C602.682922,2426.822266 602.647705,2427.682129 609.090332,2432.700928 
	C612.496643,2435.354492 616.021912,2437.855469 619.182007,2441.353271 
	C615.685303,2446.534912 612.446167,2450.749268 609.326233,2455.050049 
	C602.993591,2463.779785 588.049316,2470.091064 577.228882,2468.991699 
	C574.970764,2468.762207 571.624573,2469.482666 570.333374,2471.047363 
	C560.527283,2482.931396 549.980530,2493.454346 535.041260,2499.134766 
	C527.129272,2502.142822 526.338562,2507.854248 531.045532,2515.228760 
	C531.582153,2516.069580 532.273071,2516.813232 532.793457,2517.662598 
	C536.585815,2523.852539 536.592407,2525.350830 531.620544,2530.774658 
	C527.347839,2535.435303 522.813110,2539.868164 518.231262,2544.230225 
	C512.871582,2549.332764 510.944855,2549.139893 506.260498,2543.336670 
	C503.681732,2540.141602 501.229919,2536.844238 497.144714,2531.550781 
	C495.040192,2537.738037 493.759155,2541.533447 492.458527,2545.322021 
	C489.964966,2552.585205 484.349304,2554.249756 480.349091,2548.245605 
	C474.648102,2539.688721 467.269135,2536.661377 457.424164,2537.928467 
	C454.150299,2538.350098 450.749451,2538.197021 447.445862,2537.887451 
	C441.184662,2537.300781 434.313385,2537.802734 428.865112,2535.302979 
	C421.681061,2532.007324 415.582764,2532.515625 408.947266,2535.451416 
	C405.298553,2537.065918 401.666199,2538.785889 397.882111,2540.013428 
	C388.150726,2543.170654 378.275421,2543.666016 368.789337,2539.393066 
	C359.083893,2535.021240 349.607513,2530.132568 340.097504,2525.337891 
	C333.163574,2521.842041 333.171631,2521.708252 335.162476,2513.673340 
	C336.521210,2508.189453 338.464539,2502.799805 339.271393,2497.240723 
	C340.968140,2485.550781 340.620636,2474.056641 332.599640,2464.268311 
	C327.740784,2458.339111 320.374420,2457.126221 313.707275,2456.330566 
	C298.135651,2454.472900 291.208984,2443.441406 285.072418,2431.444336 
	C281.634766,2424.723633 283.524323,2420.395508 290.316589,2416.772461 
	C294.720490,2414.423584 299.219147,2412.249268 303.704224,2410.055664 
	C307.544983,2408.176758 311.124725,2405.429199 309.764648,2400.996826 
	C308.988525,2398.467285 305.577728,2395.531494 302.918121,2395.013672 
	C293.576324,2393.194580 289.575623,2387.445068 288.507416,2378.654297 
	C288.228455,2376.358398 287.248016,2374.145264 286.992188,2371.849121 
	C286.343964,2366.030762 283.397614,2362.296143 278.018616,2359.863281 
	C263.355011,2353.231201 253.622238,2341.833252 247.280518,2327.242432 
	C246.158279,2324.660400 244.354736,2322.374268 242.717865,2319.710938 
	C225.454514,2328.445557 211.169006,2339.853760 196.841492,2351.185547 
	C196.203094,2351.690430 196.206909,2353.007568 195.306595,2353.646484 
	C184.732529,2337.819580 176.134460,2321.444336 162.870880,2308.082764 
	C155.073898,2300.227783 148.941605,2290.720703 142.060516,2281.956787 
	C141.865250,2272.574951 141.670013,2263.193359 141.758057,2252.918945 
z"/>
<path 
	data-name="Idabato"
fill="#67B2EB" opacity="1.000000" stroke="none" 
	d="
M195.911606,2353.946289 
	C196.206909,2353.007568 196.203094,2351.690430 196.841492,2351.185547 
	C211.169006,2339.853760 225.454514,2328.445557 242.717865,2319.710938 
	C244.354736,2322.374268 246.158279,2324.660400 247.280518,2327.242432 
	C253.622238,2341.833252 263.355011,2353.231201 278.018616,2359.863281 
	C283.397614,2362.296143 286.343964,2366.030762 286.992188,2371.849121 
	C287.248016,2374.145264 288.228455,2376.358398 288.507416,2378.654297 
	C289.575623,2387.445068 293.576324,2393.194580 302.918121,2395.013672 
	C305.577728,2395.531494 308.988525,2398.467285 309.764648,2400.996826 
	C311.124725,2405.429199 307.544983,2408.176758 303.704224,2410.055664 
	C299.219147,2412.249268 294.720490,2414.423584 290.316589,2416.772461 
	C283.524323,2420.395508 281.634766,2424.723633 285.072418,2431.444336 
	C291.208984,2443.441406 298.135651,2454.472900 313.707275,2456.330566 
	C320.374420,2457.126221 327.740784,2458.339111 332.599640,2464.268311 
	C340.620636,2474.056641 340.968140,2485.550781 339.271393,2497.240723 
	C338.464539,2502.799805 336.521210,2508.189453 335.162476,2513.673340 
	C333.171631,2521.708252 333.163574,2521.842041 340.097504,2525.337891 
	C349.607513,2530.132568 359.083893,2535.021240 368.789337,2539.393066 
	C378.275421,2543.666016 388.150726,2543.170654 397.882111,2540.013428 
	C401.666199,2538.785889 405.298553,2537.065918 408.947266,2535.451416 
	C415.582764,2532.515625 421.681061,2532.007324 428.865112,2535.302979 
	C434.313385,2537.802734 441.184662,2537.300781 447.445862,2537.887451 
	C450.749451,2538.197021 454.150299,2538.350098 457.424164,2537.928467 
	C467.269135,2536.661377 474.648102,2539.688721 480.349091,2548.245605 
	C484.349304,2554.249756 489.964966,2552.585205 492.458527,2545.322021 
	C493.759155,2541.533447 495.040192,2537.738037 497.144714,2531.550781 
	C501.229919,2536.844238 503.681732,2540.141602 506.260498,2543.336670 
	C510.944855,2549.139893 512.871582,2549.332764 518.231262,2544.230225 
	C522.813110,2539.868164 527.347839,2535.435303 531.620544,2530.774658 
	C536.592407,2525.350830 536.585815,2523.852539 532.793457,2517.662598 
	C532.273071,2516.813232 531.582153,2516.069580 531.045532,2515.228760 
	C526.338562,2507.854248 527.129272,2502.142822 535.041260,2499.134766 
	C549.980530,2493.454346 560.527283,2482.931396 570.333374,2471.047363 
	C571.624573,2469.482666 574.970764,2468.762207 577.228882,2468.991699 
	C588.049316,2470.091064 602.993591,2463.779785 609.326233,2455.050049 
	C612.446167,2450.749268 615.685303,2446.534912 619.477600,2441.949707 
	C625.215576,2447.757324 631.454346,2450.330078 639.286072,2447.413818 
	C643.977844,2445.666992 647.569397,2448.255615 651.482239,2450.078857 
	C670.412231,2458.899902 685.915039,2472.511230 701.697021,2485.743652 
	C703.735718,2487.453125 705.618042,2489.403076 707.834167,2490.838135 
	C719.571472,2498.435791 725.904419,2509.690674 730.509949,2522.491211 
	C732.039062,2526.741211 731.778320,2529.597412 729.752197,2533.541504 
	C721.968384,2548.693604 709.365356,2559.640625 697.592468,2571.255615 
	C689.117310,2579.617188 680.156433,2587.556641 670.874146,2595.014404 
	C654.823242,2607.910400 636.808960,2609.404297 617.762939,2602.663818 
	C616.853882,2602.342041 615.909729,2602.119629 614.491821,2601.708740 
	C609.876404,2608.091309 603.032654,2608.563965 595.873596,2608.030029 
	C580.649414,2606.894775 565.425537,2605.754639 550.201538,2604.617432 
	C547.554016,2604.419922 544.902039,2604.020020 542.259460,2604.074219 
	C536.792480,2604.186035 531.568542,2603.847412 528.421448,2598.938232 
	C525.338623,2599.779541 522.636597,2601.443359 520.370667,2600.979004 
	C508.954010,2598.638916 498.101074,2603.961426 486.922394,2603.064941 
	C475.684845,2602.163818 464.531189,2600.182373 453.290588,2599.363037 
	C441.705109,2598.518555 429.984161,2597.499023 418.456787,2598.358398 
	C400.277924,2599.713379 382.258728,2603.184814 364.081573,2604.597412 
	C350.561249,2605.648193 336.897827,2604.882080 323.298157,2604.879883 
	C312.458130,2604.878174 302.719666,2601.704834 293.249298,2596.226807 
	C284.662109,2591.259521 274.779083,2588.554932 266.101471,2583.715820 
	C252.793320,2576.293701 238.564911,2575.056152 223.884369,2575.143066 
	C203.839020,2575.261963 185.858276,2569.245605 171.931870,2554.641113 
	C166.181824,2548.611084 161.712769,2540.761963 158.614334,2532.964111 
	C155.347641,2524.742920 153.876007,2515.675049 152.562424,2506.837158 
	C149.202011,2484.228760 146.365326,2461.542480 142.658630,2438.375977 
	C141.914352,2431.748535 141.830627,2425.632324 142.764496,2418.764648 
	C151.013046,2418.016113 158.405853,2418.876709 164.936600,2414.655762 
	C173.387268,2409.193848 181.380005,2408.928955 188.890289,2416.378662 
	C189.288483,2416.773926 190.135498,2416.716553 190.269684,2416.749023 
	C193.052979,2414.471680 195.330017,2411.947021 198.147980,2410.422119 
	C208.169739,2404.998291 203.804398,2392.665283 210.330124,2385.544434 
	C211.238266,2384.553467 210.404037,2381.959717 210.365799,2380.108398 
	C210.133301,2368.854980 202.755951,2361.547607 195.911606,2353.946289 
z"/>

<path 
	data-name="Ekondo-Titi"
fill="#72A143" opacity="1.000000" stroke="none" 
	d="
M1641.471191,2459.500488 
	C1639.057861,2459.435059 1636.854370,2458.721924 1634.703735,2457.874756 
	C1630.153320,2456.082520 1626.449951,2456.916260 1623.236572,2460.801758 
	C1621.460205,2462.949463 1619.076538,2464.594727 1616.297241,2467.060547 
	C1613.668335,2462.619385 1614.063110,2456.802002 1608.668091,2456.829102 
	C1604.781982,2456.848877 1600.901855,2458.081787 1597.246948,2458.733154 
	C1594.311035,2455.588867 1591.660400,2452.750244 1589.568237,2450.509521 
	C1584.178711,2453.772217 1579.541504,2456.579346 1573.569092,2460.194580 
	C1573.570312,2460.217773 1574.016724,2462.106689 1573.684570,2463.847168 
	C1572.938354,2467.758789 1570.253052,2468.961182 1567.374146,2466.251709 
	C1563.662842,2462.759033 1558.618042,2460.337402 1558.021973,2453.950195 
	C1557.783569,2451.396240 1554.578613,2449.118896 1552.009155,2445.789062 
	C1555.936279,2441.494873 1560.052246,2436.994141 1564.797241,2431.805664 
	C1562.742432,2430.885742 1561.364014,2429.713379 1560.050171,2429.781250 
	C1555.606079,2430.011963 1552.648071,2427.780518 1549.578491,2424.963379 
	C1540.827759,2416.932129 1535.999023,2417.997803 1530.352539,2430.094727 
	C1528.091064,2425.185059 1526.243896,2421.174805 1524.041626,2416.393555 
	C1521.432617,2415.498047 1518.014648,2414.324951 1513.674927,2412.835449 
	C1514.650513,2410.059570 1515.553101,2407.491211 1516.529175,2404.713623 
	C1511.314941,2403.495850 1508.043823,2400.681885 1507.421387,2394.669922 
	C1507.190063,2392.437012 1504.131958,2390.497070 1501.811768,2387.777344 
	C1502.056885,2387.275635 1502.857788,2385.636963 1503.978760,2383.343262 
	C1501.441772,2382.513184 1499.108521,2381.750000 1496.532104,2380.907227 
	C1496.224976,2375.795166 1496.210449,2370.796875 1495.542480,2365.887451 
	C1494.972534,2361.698730 1494.658813,2356.479248 1487.771362,2360.785889 
	C1486.620972,2361.505615 1483.650879,2358.885254 1481.393066,2358.340820 
	C1472.913696,2356.295410 1466.681152,2361.346436 1459.515747,2366.005615 
	C1458.675171,2363.338135 1457.947510,2361.028564 1457.100830,2358.341064 
	C1449.717407,2359.455078 1441.701172,2359.258789 1435.002441,2362.132568 
	C1429.904175,2364.319824 1427.473755,2362.757324 1424.735107,2360.010498 
	C1418.972656,2354.230225 1413.786377,2347.861572 1407.871948,2342.252686 
	C1404.550781,2339.103027 1401.146240,2336.415527 1401.676392,2331.456787 
	C1392.765015,2330.496826 1392.765015,2330.496826 1383.195435,2312.006104 
	C1381.859985,2312.852051 1380.023193,2313.363037 1379.368042,2314.534668 
	C1374.483398,2323.270996 1366.342041,2322.958740 1358.357056,2321.800537 
	C1352.186768,2320.905518 1346.198364,2318.738770 1340.139282,2317.100098 
	C1335.043335,2315.722168 1329.961792,2314.290527 1324.576538,2312.800049 
	C1324.361450,2312.102539 1323.610718,2311.016113 1323.882202,2310.340576 
	C1326.647583,2303.458984 1326.665161,2296.938721 1322.585327,2290.416504 
	C1317.959961,2283.022461 1320.270020,2277.124023 1327.878906,2273.184082 
	C1326.387207,2269.766602 1325.097046,2267.085449 1324.032471,2264.317627 
	C1321.343872,2257.327637 1324.520386,2252.464844 1331.833740,2252.140381 
	C1335.342651,2251.984863 1340.135132,2253.051514 1342.098022,2251.191650 
	C1347.088989,2246.463379 1351.069092,2240.564697 1354.857544,2234.746094 
	C1355.770508,2233.343750 1355.020386,2230.004150 1353.899048,2228.304688 
	C1351.360962,2224.457764 1348.321777,2220.877930 1345.109253,2217.553955 
	C1340.010376,2212.277588 1336.742676,2206.495850 1337.552368,2198.840820 
	C1338.820190,2186.853516 1336.007080,2176.396484 1325.842285,2168.779541 
	C1324.885498,2168.062744 1324.409790,2166.618652 1323.874023,2165.438232 
	C1317.723633,2151.887695 1309.036987,2148.456299 1295.244019,2154.205322 
	C1292.214966,2155.467773 1289.234253,2156.845947 1286.119995,2158.219971 
	C1281.993286,2154.820801 1278.611938,2150.214355 1274.271606,2148.979492 
	C1270.054932,2147.780029 1264.854614,2150.039062 1258.439941,2151.035156 
	C1257.759155,2149.285889 1256.167969,2146.583008 1255.682007,2143.694336 
	C1254.088745,2134.222168 1252.166626,2132.910400 1243.225220,2136.338135 
	C1241.073120,2137.163330 1238.784424,2138.126709 1237.120605,2139.643066 
	C1230.824951,2145.381104 1224.449341,2143.870361 1217.713257,2140.646973 
	C1214.856201,2139.280029 1211.634155,2137.850586 1208.585571,2137.866943 
	C1200.177979,2137.911865 1197.389526,2141.764404 1198.921509,2150.050049 
	C1200.825562,2160.346924 1201.687744,2170.667480 1195.858643,2180.018066 
	C1192.895996,2184.770752 1189.135010,2189.117676 1185.238159,2193.170410 
	C1181.238037,2197.330566 1175.821655,2198.201660 1170.510986,2196.415771 
	C1165.839111,2194.844727 1161.424561,2192.435059 1157.023315,2190.151123 
	C1151.727783,2187.403320 1146.568848,2184.392090 1141.346802,2181.502197 
	C1124.992676,2172.452637 1108.053345,2181.517822 1101.616211,2197.781006 
	C1097.142944,2209.082520 1090.200195,2216.786621 1079.903320,2220.812500 
	C1067.553955,2225.640869 1054.433716,2229.149170 1041.192017,2222.668213 
	C1039.410400,2221.796387 1037.480713,2221.178467 1035.564453,2220.638428 
	C1025.161621,2217.706787 1017.031250,2222.384277 1014.233093,2232.892334 
	C1013.549377,2235.459961 1013.007080,2238.065430 1012.387573,2241.413574 
	C1012.131409,2247.351318 1009.736633,2249.812988 1004.246704,2249.513184 
	C993.773621,2248.940918 984.298401,2246.145996 976.465698,2238.804443 
	C972.421509,2235.014160 968.220581,2231.390869 963.572388,2226.913574 
	C962.978760,2223.888184 962.913147,2221.641113 962.825806,2219.394775 
	C962.658997,2215.106445 961.508911,2210.580322 962.492371,2206.576660 
	C965.181763,2195.627686 969.355896,2185.031494 971.834961,2174.045898 
	C974.373840,2162.795410 975.602905,2151.249023 977.388000,2139.829346 
	C977.436584,2139.518799 977.229187,2139.175781 977.239319,2138.850586 
	C977.413025,2133.289307 977.075378,2127.648438 977.906433,2122.185547 
	C979.299072,2113.030762 981.486816,2103.999268 983.238403,2094.896240 
	C983.864380,2091.642822 983.600769,2088.104004 984.760498,2085.086670 
	C991.199829,2068.332031 997.748047,2051.613037 1004.653992,2035.046265 
	C1011.749695,2018.024170 1017.622681,2000.856445 1016.067810,1981.982300 
	C1015.487732,1974.941040 1014.565186,1968.119019 1010.258240,1962.211182 
	C1003.996094,1953.621948 997.712402,1945.046997 991.551270,1936.385498 
	C985.605713,1928.026855 978.307922,1920.220825 974.274048,1911.003540 
	C967.469238,1895.454956 957.422607,1882.429321 946.762817,1869.720581 
	C940.979065,1862.825195 932.232483,1860.362549 923.909668,1858.327515 
	C918.348022,1856.967407 914.384216,1854.354126 910.646118,1850.328735 
	C904.769897,1844.001221 898.471375,1838.066040 892.085327,1831.330811 
	C885.956787,1824.575562 880.094788,1818.454346 874.812744,1811.996704 
	C879.501099,1807.764282 883.477173,1803.715942 887.748474,1800.007690 
	C894.332825,1794.291504 895.712036,1787.713867 893.027466,1779.416870 
	C890.554199,1771.772949 890.928955,1763.855469 894.086365,1755.050415 
	C897.249390,1756.015259 900.023926,1756.605225 902.587341,1757.692871 
	C909.566589,1760.654175 910.407715,1760.542725 915.532715,1755.160156 
	C921.240051,1749.166138 926.981506,1743.204590 932.730774,1737.250610 
	C936.917908,1732.914429 937.775818,1723.772949 934.541138,1717.619873 
	C931.264526,1711.386963 926.391541,1713.432739 921.587769,1715.111084 
	C921.274719,1715.220337 920.979919,1715.387939 920.662170,1715.476929 
	C917.140076,1716.463379 914.398865,1714.852539 913.429260,1711.833252 
	C912.486084,1708.896362 911.865051,1705.083862 913.026855,1702.531860 
	C913.725403,1700.997437 918.539856,1699.942383 920.746094,1700.748291 
	C927.560364,1703.237549 934.011780,1706.720581 940.601257,1709.823975 
	C942.722412,1710.822876 944.834717,1711.840942 948.884460,1713.772461 
	C946.931091,1709.819580 946.357971,1707.838867 945.157227,1706.372192 
	C940.054626,1700.139648 938.238892,1692.243652 938.416870,1685.067749 
	C938.588440,1678.148315 948.228210,1678.255127 952.479980,1673.682861 
	C953.118713,1672.996094 954.170288,1672.605591 955.103943,1672.305298 
	C956.029297,1672.007812 957.446777,1671.511841 957.963867,1671.936523 
	C964.703003,1677.469604 973.198547,1677.439331 981.014160,1679.596436 
	C982.719055,1680.067017 984.059387,1682.074341 985.419861,1683.513672 
	C986.660339,1684.826050 987.700439,1686.327881 989.219055,1688.236450 
	C990.450867,1686.508667 991.356812,1685.549072 991.906494,1684.416504 
	C995.412781,1677.193237 997.888000,1676.515015 1003.367554,1681.425293 
	C1004.929932,1682.825439 1006.425537,1684.300171 1008.355103,1686.121216 
	C1011.140930,1672.560059 1011.140930,1672.560059 1019.388855,1673.278687 
	C1017.669250,1675.842407 1016.136108,1678.128052 1014.636353,1680.364136 
	C1020.999878,1685.223999 1026.834229,1689.679688 1033.367432,1694.669067 
	C1033.887451,1690.077148 1034.249634,1686.878784 1034.591553,1683.860107 
	C1037.997803,1682.084961 1040.833496,1680.319824 1043.885132,1679.090088 
	C1047.629639,1677.581055 1051.337769,1679.647827 1052.046265,1683.666016 
	C1052.379150,1685.554565 1051.733398,1687.615723 1051.071289,1690.013672 
	C1049.914429,1692.369019 1049.217651,1694.309448 1048.520874,1696.249878 
	C1049.020264,1696.405518 1049.519653,1696.561157 1050.019043,1696.716797 
	C1051.088867,1694.845337 1052.158569,1692.973999 1053.913818,1690.872681 
	C1063.075439,1687.972168 1063.960693,1695.619263 1067.969604,1699.752441 
	C1065.066406,1701.673584 1062.739380,1703.213501 1061.618896,1703.954956 
	C1061.618896,1714.788574 1061.618896,1724.237915 1061.618896,1735.093262 
	C1064.266113,1732.704224 1065.711670,1731.442749 1067.109131,1730.130005 
	C1070.650024,1726.804077 1074.372925,1726.485229 1079.016968,1728.164917 
	C1091.725952,1732.761475 1096.577515,1730.455322 1103.195557,1717.808716 
	C1102.498169,1710.416504 1088.352417,1711.669312 1092.984375,1700.651611 
	C1099.335327,1699.691406 1106.250000,1701.283203 1111.836548,1696.504761 
	C1112.748657,1695.724487 1115.522461,1697.224487 1117.459351,1697.511475 
	C1119.739014,1697.849121 1122.114868,1698.477051 1124.321777,1698.141968 
	C1127.492920,1697.660522 1128.935303,1695.743164 1126.568970,1692.140503 
	C1123.750732,1692.472290 1120.827148,1693.139526 1117.921143,1693.070923 
	C1114.781494,1692.996704 1111.844360,1691.826172 1111.828613,1687.943237 
	C1111.814331,1684.398071 1114.132935,1682.202393 1117.379028,1682.015625 
	C1119.829102,1681.874634 1122.465088,1682.810181 1124.808960,1683.775024 
	C1126.254517,1684.369995 1127.131348,1686.351807 1128.577148,1686.939941 
	C1130.799438,1687.843994 1133.291260,1688.084961 1135.668823,1688.607300 
	C1136.027466,1686.491211 1136.640747,1684.378662 1136.670044,1682.258057 
	C1136.696777,1680.314941 1135.852783,1678.367798 1135.815796,1676.414429 
	C1135.731934,1671.982544 1138.076050,1669.586670 1142.522339,1669.560059 
	C1145.178345,1669.544067 1147.835205,1669.954102 1150.493774,1669.983398 
	C1156.679810,1670.051514 1162.867065,1670.005127 1168.534790,1670.005127 
	C1171.322388,1664.907349 1168.370728,1658.460083 1175.303711,1656.098999 
	C1179.741577,1659.275024 1184.340698,1661.226685 1190.567261,1658.611572 
	C1195.955200,1656.348633 1198.809448,1660.558350 1200.315796,1665.765747 
	C1196.365723,1669.711060 1191.595337,1673.624390 1194.424683,1679.508179 
	C1196.629761,1684.094116 1200.328003,1687.962158 1203.750977,1692.685059 
	C1202.136963,1694.846191 1200.231445,1697.397583 1197.764404,1700.700684 
	C1206.441162,1703.194946 1202.697388,1709.619019 1202.698975,1716.524048 
	C1213.400879,1711.628052 1217.982300,1717.269165 1220.824707,1725.795410 
	C1221.114624,1726.665527 1221.979492,1727.461060 1222.766357,1728.029541 
	C1227.490479,1731.441528 1233.029175,1733.775635 1238.520386,1732.066406 
	C1243.905884,1730.390259 1239.171875,1724.945923 1240.652100,1721.495483 
	C1240.779663,1721.197754 1241.039429,1720.956787 1241.596436,1720.206421 
	C1248.276611,1722.999512 1255.562256,1726.152710 1255.844238,1734.369995 
	C1256.046387,1740.263306 1258.162109,1744.383301 1261.173584,1748.809814 
	C1263.571533,1752.334595 1267.591675,1756.622803 1267.041992,1759.932983 
	C1265.443481,1769.558105 1272.354248,1772.712769 1277.739868,1777.240234 
	C1279.988403,1779.130493 1283.004761,1780.213135 1284.942871,1782.330322 
	C1286.260498,1783.769531 1287.067383,1786.492798 1286.750977,1788.420044 
	C1286.278564,1791.299316 1283.956787,1792.614258 1280.719238,1792.115723 
	C1279.270142,1791.892578 1277.684204,1792.558716 1276.903809,1792.693237 
	C1269.028076,1812.054199 1280.535645,1823.511963 1293.428101,1835.315308 
	C1290.378296,1838.617432 1287.668213,1841.551758 1284.812622,1844.643433 
	C1285.987915,1852.628296 1293.336548,1854.432007 1300.029785,1858.008667 
	C1296.805542,1861.815796 1293.936401,1865.727661 1296.848389,1870.924438 
	C1297.924805,1869.262329 1298.895142,1867.763794 1300.649902,1865.053955 
	C1304.283691,1877.145996 1312.105469,1883.849487 1322.247803,1888.962891 
	C1324.309814,1894.984863 1330.327393,1898.619629 1328.820679,1906.005493 
	C1326.290771,1907.245605 1323.433105,1908.646362 1320.575562,1910.046997 
	C1320.787354,1910.716919 1320.999146,1911.386719 1321.210938,1912.056641 
	C1324.289185,1911.666992 1327.377197,1911.341553 1330.443481,1910.874268 
	C1336.597412,1909.936646 1342.349365,1914.815430 1341.972412,1920.955933 
	C1341.858521,1922.810669 1340.937012,1924.615845 1340.574097,1925.818848 
	C1344.305176,1929.255859 1347.275513,1932.849365 1351.020752,1935.216797 
	C1355.332764,1937.942505 1356.625610,1941.358521 1355.346924,1946.069336 
	C1352.004517,1947.663208 1350.594116,1949.253296 1355.011841,1951.407715 
	C1355.363403,1949.459595 1355.677979,1947.716187 1356.814697,1945.983521 
	C1366.037354,1943.638306 1374.437744,1941.282349 1383.249146,1938.811157 
	C1383.759277,1941.619995 1384.264404,1944.401978 1384.776001,1947.219482 
	C1390.485107,1946.860718 1394.071045,1947.849487 1397.333374,1953.183228 
	C1401.088379,1959.322388 1405.661865,1966.296387 1414.878052,1966.204956 
	C1418.649170,1966.167603 1419.991455,1969.047852 1419.761597,1972.407715 
	C1419.412476,1977.511353 1422.566406,1979.856201 1428.400757,1981.173218 
	C1422.799805,1984.858154 1424.261841,1987.530029 1427.184448,1990.176880 
	C1431.337769,1993.938843 1435.265625,1997.967529 1439.588257,2001.519287 
	C1443.315186,2004.581543 1447.258423,2004.829102 1450.733887,2000.793579 
	C1449.688721,1999.283691 1448.768066,1997.953735 1447.876221,1996.665405 
	C1453.297485,1994.793579 1455.568115,1997.346313 1457.804688,2001.365845 
	C1460.319946,2005.885864 1463.543823,2010.131226 1467.064697,2013.936035 
	C1470.180420,2017.302979 1474.206421,2019.811035 1477.684570,2022.864502 
	C1481.016479,2025.789673 1484.101685,2028.236206 1489.172119,2026.596436 
	C1497.363281,2023.947876 1500.691772,2032.888062 1506.996338,2035.044434 
	C1507.351196,2035.165771 1506.949341,2039.317993 1505.975586,2041.085083 
	C1504.460083,2043.835815 1502.975708,2046.226685 1505.524170,2049.625732 
	C1512.014648,2049.116455 1517.630615,2050.681885 1520.731812,2057.556152 
	C1521.583252,2059.443848 1524.222778,2060.512939 1526.016113,2061.989014 
	C1530.570312,2065.737793 1535.394409,2069.214844 1539.583374,2073.336426 
	C1544.813721,2078.482178 1551.925415,2080.712646 1558.247925,2077.835205 
	C1562.820557,2075.754150 1566.778931,2075.257324 1571.326660,2078.274658 
	C1575.322998,2080.925537 1580.127563,2079.652588 1580.817871,2075.368896 
	C1582.015991,2067.933838 1587.706787,2064.377930 1591.742676,2059.284424 
	C1595.263062,2054.841553 1599.544556,2053.990479 1604.854492,2053.868408 
	C1616.106689,2053.610352 1627.336670,2052.449463 1638.589478,2052.107178 
	C1642.464355,2051.989014 1646.828125,2052.295410 1650.202759,2053.959961 
	C1669.252563,2063.357422 1690.148193,2063.017578 1710.407471,2065.812256 
	C1729.440796,2068.437500 1748.547485,2070.909180 1767.706177,2072.145508 
	C1788.571045,2073.492188 1809.724487,2075.322998 1830.402344,2073.323975 
	C1854.703125,2070.974609 1878.632202,2064.757812 1902.713745,2060.172119 
	C1927.613403,2055.430664 1951.894043,2046.388428 1977.956421,2049.820312 
	C1984.838623,2050.726562 1991.927612,2050.204834 1998.759277,2051.326660 
	C2018.365356,2054.545898 2037.888062,2058.271484 2057.443604,2061.798096 
	C2058.818848,2069.929688 2060.673340,2078.015625 2061.454834,2086.203857 
	C2062.580322,2097.992432 2060.601562,2108.982666 2049.213135,2115.639160 
	C2036.179932,2123.256836 2030.588013,2135.717773 2026.427734,2149.299072 
	C2023.702148,2158.197266 2020.042480,2166.853516 2017.926025,2175.881592 
	C2015.750488,2185.161621 2013.396240,2193.084229 2001.469727,2192.481934 
	C2000.008423,2192.407959 1998.466675,2194.896729 1996.884399,2196.095215 
	C1982.605835,2206.909912 1968.356567,2217.764160 1953.992920,2228.464844 
	C1949.099487,2232.110352 1944.039673,2234.406006 1937.309692,2232.433838 
	C1933.998291,2231.463623 1928.073120,2232.148926 1926.325806,2234.405029 
	C1919.857422,2242.756348 1910.467651,2242.301270 1901.948486,2243.687012 
	C1895.995239,2244.655518 1891.045288,2246.030029 1885.646362,2249.236572 
	C1876.318237,2254.776611 1866.822632,2259.879150 1857.875732,2266.177246 
	C1853.097534,2269.540527 1846.259888,2269.978271 1839.312256,2272.045654 
	C1838.894531,2273.044189 1837.225098,2275.168457 1837.261597,2277.262695 
	C1837.440430,2287.508789 1831.252563,2295.404541 1827.266479,2303.935303 
	C1825.040649,2308.698975 1820.292969,2313.063721 1815.614502,2315.749023 
	C1803.843750,2322.505371 1791.554932,2328.389160 1779.304810,2334.270752 
	C1769.961792,2338.756348 1761.177124,2343.649658 1753.638062,2351.130859 
	C1746.855103,2357.861328 1738.929443,2363.579346 1730.960083,2368.927979 
	C1725.483887,2372.603271 1719.730591,2375.476074 1715.636963,2381.095703 
	C1713.969482,2383.384766 1710.015625,2384.293701 1706.916748,2385.189941 
	C1701.831665,2386.660400 1698.732666,2389.498535 1695.930664,2394.248535 
	C1689.744019,2404.736328 1682.661255,2414.746338 1675.294312,2424.458496 
	C1672.827148,2427.711182 1668.622437,2429.945312 1664.806519,2431.819824 
	C1653.162354,2437.539795 1646.309326,2447.152832 1641.471191,2459.500488 
z"/>
<path 
	data-name="Dikome-Balue"
fill="#6BF65E" opacity="1.000000" stroke="none" 
	d="
M2057.609619,2061.002930 
	C2037.888062,2058.271484 2018.365356,2054.545898 1998.759277,2051.326660 
	C1991.927612,2050.204834 1984.838623,2050.726562 1977.956421,2049.820312 
	C1951.894043,2046.388428 1927.613403,2055.430664 1902.713745,2060.172119 
	C1878.632202,2064.757812 1854.703125,2070.974609 1830.402344,2073.323975 
	C1809.724487,2075.322998 1788.571045,2073.492188 1767.706177,2072.145508 
	C1748.547485,2070.909180 1729.440796,2068.437500 1710.407471,2065.812256 
	C1690.148193,2063.017578 1669.252563,2063.357422 1650.202759,2053.959961 
	C1646.828125,2052.295410 1642.464355,2051.989014 1638.589478,2052.107178 
	C1627.336670,2052.449463 1616.106689,2053.610352 1604.854492,2053.868408 
	C1599.544556,2053.990479 1595.263062,2054.841553 1591.742676,2059.284424 
	C1587.706787,2064.377930 1582.015991,2067.933838 1580.817871,2075.368896 
	C1580.127563,2079.652588 1575.322998,2080.925537 1571.326660,2078.274658 
	C1566.778931,2075.257324 1562.820557,2075.754150 1558.247925,2077.835205 
	C1551.925415,2080.712646 1544.813721,2078.482178 1539.583374,2073.336426 
	C1535.394409,2069.214844 1530.570312,2065.737793 1526.016113,2061.989014 
	C1524.222778,2060.512939 1521.583252,2059.443848 1520.731812,2057.556152 
	C1517.630615,2050.681885 1512.014648,2049.116455 1505.524170,2049.625732 
	C1502.975708,2046.226685 1504.460083,2043.835815 1505.975586,2041.085083 
	C1506.949341,2039.317993 1507.351196,2035.165771 1506.996338,2035.044434 
	C1500.691772,2032.888062 1497.363281,2023.947876 1489.172119,2026.596436 
	C1484.101685,2028.236206 1481.016479,2025.789673 1477.684570,2022.864502 
	C1474.206421,2019.811035 1470.180420,2017.302979 1467.064697,2013.936035 
	C1463.543823,2010.131226 1460.319946,2005.885864 1457.804688,2001.365845 
	C1455.568115,1997.346313 1453.297485,1994.793579 1447.876221,1996.665405 
	C1448.768066,1997.953735 1449.688721,1999.283691 1450.733887,2000.793579 
	C1447.258423,2004.829102 1443.315186,2004.581543 1439.588257,2001.519287 
	C1435.265625,1997.967529 1431.337769,1993.938843 1427.184448,1990.176880 
	C1424.261841,1987.530029 1422.799805,1984.858154 1428.400757,1981.173218 
	C1422.566406,1979.856201 1419.412476,1977.511353 1419.761597,1972.407715 
	C1419.991455,1969.047852 1418.649170,1966.167603 1414.878052,1966.204956 
	C1405.661865,1966.296387 1401.088379,1959.322388 1397.333374,1953.183228 
	C1394.071045,1947.849487 1390.485107,1946.860718 1384.776001,1947.219482 
	C1384.264404,1944.401978 1383.759277,1941.619995 1383.249146,1938.811157 
	C1374.437744,1941.282349 1366.037354,1943.638306 1356.817383,1945.998535 
	C1355.997803,1946.002930 1356.029907,1946.007080 1356.029907,1946.007080 
	C1356.625610,1941.358521 1355.332764,1937.942505 1351.020752,1935.216797 
	C1347.275513,1932.849365 1344.305176,1929.255859 1340.574097,1925.818848 
	C1340.937012,1924.615845 1341.858521,1922.810669 1341.972412,1920.955933 
	C1342.349365,1914.815430 1336.597412,1909.936646 1330.443481,1910.874268 
	C1327.377197,1911.341553 1324.289185,1911.666992 1321.210938,1912.056641 
	C1320.999146,1911.386719 1320.787354,1910.716919 1320.575562,1910.046997 
	C1323.433105,1908.646362 1326.290771,1907.245605 1328.820679,1906.005493 
	C1330.327393,1898.619629 1324.309814,1894.984863 1322.947021,1889.008789 
	C1327.867065,1890.081665 1332.268433,1893.514893 1336.397217,1893.213623 
	C1351.553589,1892.107544 1366.623413,1889.790771 1381.717529,1887.865234 
	C1387.104370,1887.178101 1390.286987,1884.370483 1392.631104,1879.089844 
	C1395.280640,1873.121460 1396.607300,1867.962280 1392.796631,1862.195068 
	C1392.039062,1861.048340 1392.237061,1859.270386 1391.983643,1857.717041 
	C1397.100342,1856.154419 1398.017456,1859.808594 1399.985229,1862.321167 
	C1403.014893,1866.190308 1405.953979,1870.464478 1409.876831,1873.222168 
	C1415.792480,1877.380371 1422.522949,1880.379517 1430.216431,1884.587524 
	C1430.983521,1880.721069 1431.332642,1877.608276 1432.232910,1874.663940 
	C1435.772583,1863.086304 1442.276367,1851.474609 1455.131104,1850.935791 
	C1457.457397,1850.838135 1459.795166,1850.731201 1462.116821,1850.846069 
	C1480.743042,1851.766846 1499.366211,1852.750610 1517.991333,1853.694092 
	C1542.269409,1854.923950 1566.542114,1856.287720 1590.830200,1857.270874 
	C1599.440063,1857.619263 1608.097046,1857.202026 1616.715088,1856.779541 
	C1621.270020,1856.556396 1623.969116,1853.883911 1624.182495,1849.052734 
	C1624.253418,1847.448853 1624.657104,1845.859741 1624.941406,1844.055664 
	C1630.186646,1841.693970 1635.001587,1842.806030 1639.529053,1845.046875 
	C1643.775513,1847.148315 1646.881958,1846.411377 1650.167236,1843.055176 
	C1662.286743,1830.673096 1674.771362,1818.646484 1686.807495,1806.185669 
	C1697.423584,1795.195312 1707.637207,1783.815918 1718.003540,1772.585083 
	C1724.088501,1765.992798 1729.807739,1759.024414 1736.273682,1752.833252 
	C1742.473511,1746.896973 1746.561768,1739.995972 1749.621826,1732.082397 
	C1753.212158,1722.797729 1751.695801,1715.352661 1743.810913,1709.086182 
	C1742.194824,1707.802002 1740.959106,1705.592285 1740.357422,1703.568481 
	C1738.962402,1698.877930 1738.377808,1693.940186 1736.900513,1689.281616 
	C1733.037476,1677.100464 1735.313110,1670.137695 1747.204590,1665.447388 
	C1758.895142,1660.836548 1771.245850,1657.915161 1783.260254,1654.105103 
	C1797.483276,1649.594482 1811.997070,1649.286133 1826.668823,1650.699585 
	C1827.989502,1650.826782 1829.334106,1650.680908 1830.665771,1650.722412 
	C1838.166138,1650.956421 1844.849487,1649.820312 1850.745117,1644.071045 
	C1856.007202,1638.939697 1860.866821,1639.812866 1866.552490,1645.026367 
	C1868.515381,1646.826050 1870.458374,1648.676636 1872.189819,1650.693359 
	C1875.075928,1654.054932 1878.526367,1655.090332 1882.888672,1654.442505 
	C1897.686768,1652.245361 1912.523438,1650.308350 1927.320312,1648.104126 
	C1930.245605,1647.668457 1933.156006,1646.725708 1935.909424,1645.611938 
	C1951.022827,1639.499512 1966.037476,1633.140137 1981.197876,1627.148438 
	C1985.161499,1625.581909 1989.531250,1624.149658 1993.701904,1624.184204 
	C2002.615723,1624.257690 2008.290771,1621.458008 2009.981689,1611.913330 
	C2010.912842,1606.656494 2013.403442,1601.173340 2019.048218,1599.592651 
	C2027.555664,1597.210205 2034.738037,1592.639160 2041.875854,1587.853882 
	C2046.241577,1584.926880 2050.438965,1581.736206 2054.593262,1578.510864 
	C2057.945312,1575.908081 2058.233154,1572.401123 2056.986328,1568.585205 
	C2054.001953,1559.450684 2051.680664,1550.034912 2047.919189,1541.233765 
	C2042.169678,1527.781006 2040.083618,1513.977783 2039.982910,1499.454224 
	C2039.936157,1492.701050 2041.789185,1488.086670 2046.823364,1483.947388 
	C2057.368896,1475.276611 2067.668945,1466.307129 2078.069824,1457.460205 
	C2078.801514,1457.484741 2079.532959,1457.509155 2080.796875,1457.443604 
	C2095.539551,1469.246460 2109.855225,1481.016357 2123.922119,1493.076660 
	C2132.712402,1500.612915 2141.159180,1508.551880 2149.698486,1516.377563 
	C2155.002197,1521.237915 2156.593750,1527.625122 2156.277588,1534.476562 
	C2155.347900,1554.625488 2155.867432,1574.840454 2150.370361,1594.660400 
	C2147.743164,1604.133545 2147.243896,1614.263672 2146.414307,1624.149414 
	C2145.573730,1634.163452 2144.062988,1643.795166 2138.746338,1652.603149 
	C2126.490967,1672.906372 2118.489258,1695.145630 2110.113037,1717.171631 
	C2107.437256,1724.207764 2103.309570,1729.244019 2096.420898,1731.914062 
	C2087.556641,1735.349365 2079.424316,1740.856689 2069.270264,1740.710571 
	C2066.123291,1740.665283 2062.757568,1742.198608 2059.825684,1743.672607 
	C2054.006348,1746.598145 2047.998901,1747.671387 2041.547241,1747.268311 
	C2036.288208,1746.939697 2032.108032,1748.553467 2029.060425,1753.542603 
	C2024.750854,1760.597412 2019.591309,1767.128296 2014.959961,1773.994141 
	C2013.681396,1775.889526 2012.239258,1778.153076 2012.162109,1780.294189 
	C2011.882812,1788.045898 2006.376465,1793.591064 2004.257812,1800.208374 
	C2001.648682,1808.357178 1994.613159,1815.226807 1996.289917,1824.720215 
	C1996.403320,1825.362305 1996.510498,1826.189697 1996.214966,1826.692627 
	C1989.149170,1838.715942 1994.506470,1849.996094 1999.216919,1860.682129 
	C2002.415527,1867.938232 2002.643188,1875.020996 2001.290894,1882.037109 
	C2000.188232,1887.758423 2001.454102,1891.787720 2005.327026,1895.380493 
	C2010.511719,1900.189697 2012.938477,1906.451050 2013.652954,1913.056396 
	C2015.236328,1927.696777 2024.990845,1934.799316 2037.075317,1940.002441 
	C2040.719360,1941.571167 2044.484375,1943.119263 2048.350098,1943.854492 
	C2054.844971,1945.089722 2056.558838,1949.691895 2057.678223,1955.155029 
	C2059.580566,1964.438599 2054.153564,1971.732666 2051.150146,1979.675537 
	C2050.333008,1981.836060 2048.942139,1983.773926 2048.044922,1985.910522 
	C2044.459961,1994.445801 2045.347900,1998.059814 2053.721680,2001.947510 
	C2059.250732,2004.514526 2061.962402,2007.894775 2062.511230,2013.863525 
	C2062.807129,2017.082275 2064.550293,2020.144531 2065.404297,2023.340454 
	C2066.921143,2029.015869 2066.902588,2034.351318 2062.874023,2039.376221 
	C2061.144775,2041.532837 2060.390869,2044.657715 2059.766357,2047.469849 
	C2058.836670,2051.656738 2058.414062,2055.956055 2057.609619,2061.002930 
z"/>
<path 
	data-name="Mundemba"
fill="#D25AED" opacity="1.000000" stroke="none" 
	d="
M2077.340576,1457.089600 
	C2067.668945,1466.307129 2057.368896,1475.276611 2046.823364,1483.947388 
	C2041.789185,1488.086670 2039.936157,1492.701050 2039.982910,1499.454224 
	C2040.083618,1513.977783 2042.169678,1527.781006 2047.919189,1541.233765 
	C2051.680664,1550.034912 2054.001953,1559.450684 2056.986328,1568.585205 
	C2058.233154,1572.401123 2057.945312,1575.908081 2054.593262,1578.510864 
	C2050.438965,1581.736206 2046.241577,1584.926880 2041.875854,1587.853882 
	C2034.738037,1592.639160 2027.555664,1597.210205 2019.048218,1599.592651 
	C2013.403442,1601.173340 2010.912842,1606.656494 2009.981689,1611.913330 
	C2008.290771,1621.458008 2002.615723,1624.257690 1993.701904,1624.184204 
	C1989.531250,1624.149658 1985.161499,1625.581909 1981.197876,1627.148438 
	C1966.037476,1633.140137 1951.022827,1639.499512 1935.909424,1645.611938 
	C1933.156006,1646.725708 1930.245605,1647.668457 1927.320312,1648.104126 
	C1912.523438,1650.308350 1897.686768,1652.245361 1882.888672,1654.442505 
	C1878.526367,1655.090332 1875.075928,1654.054932 1872.189819,1650.693359 
	C1870.458374,1648.676636 1868.515381,1646.826050 1866.552490,1645.026367 
	C1860.866821,1639.812866 1856.007202,1638.939697 1850.745117,1644.071045 
	C1844.849487,1649.820312 1838.166138,1650.956421 1830.665771,1650.722412 
	C1829.334106,1650.680908 1827.989502,1650.826782 1826.668823,1650.699585 
	C1811.997070,1649.286133 1797.483276,1649.594482 1783.260254,1654.105103 
	C1771.245850,1657.915161 1758.895142,1660.836548 1747.204590,1665.447388 
	C1735.313110,1670.137695 1733.037476,1677.100464 1736.900513,1689.281616 
	C1738.377808,1693.940186 1738.962402,1698.877930 1740.357422,1703.568481 
	C1740.959106,1705.592285 1742.194824,1707.802002 1743.810913,1709.086182 
	C1751.695801,1715.352661 1753.212158,1722.797729 1749.621826,1732.082397 
	C1746.561768,1739.995972 1742.473511,1746.896973 1736.273682,1752.833252 
	C1729.807739,1759.024414 1724.088501,1765.992798 1718.003540,1772.585083 
	C1707.637207,1783.815918 1697.423584,1795.195312 1686.807495,1806.185669 
	C1674.771362,1818.646484 1662.286743,1830.673096 1650.167236,1843.055176 
	C1646.881958,1846.411377 1643.775513,1847.148315 1639.529053,1845.046875 
	C1635.001587,1842.806030 1630.186646,1841.693970 1624.941406,1844.055664 
	C1624.657104,1845.859741 1624.253418,1847.448853 1624.182495,1849.052734 
	C1623.969116,1853.883911 1621.270020,1856.556396 1616.715088,1856.779541 
	C1608.097046,1857.202026 1599.440063,1857.619263 1590.830200,1857.270874 
	C1566.542114,1856.287720 1542.269409,1854.923950 1517.991333,1853.694092 
	C1499.366211,1852.750610 1480.743042,1851.766846 1462.116821,1850.846069 
	C1459.795166,1850.731201 1457.457397,1850.838135 1455.131104,1850.935791 
	C1442.276367,1851.474609 1435.772583,1863.086304 1432.232910,1874.663940 
	C1431.332642,1877.608276 1430.983521,1880.721069 1430.216431,1884.587524 
	C1422.522949,1880.379517 1415.792480,1877.380371 1409.876831,1873.222168 
	C1405.953979,1870.464478 1403.014893,1866.190308 1399.985229,1862.321167 
	C1398.017456,1859.808594 1397.100342,1856.154419 1391.983643,1857.717041 
	C1392.237061,1859.270386 1392.039062,1861.048340 1392.796631,1862.195068 
	C1396.607300,1867.962280 1395.280640,1873.121460 1392.631104,1879.089844 
	C1390.286987,1884.370483 1387.104370,1887.178101 1381.717529,1887.865234 
	C1366.623413,1889.790771 1351.553589,1892.107544 1336.397217,1893.213623 
	C1332.268433,1893.514893 1327.867065,1890.081665 1322.891602,1888.316650 
	C1312.105469,1883.849487 1304.283691,1877.145996 1300.649902,1865.053955 
	C1298.895142,1867.763794 1297.924805,1869.262329 1296.848389,1870.924438 
	C1293.936401,1865.727661 1296.805542,1861.815796 1300.029785,1858.008667 
	C1293.336548,1854.432007 1285.987915,1852.628296 1284.812622,1844.643433 
	C1287.668213,1841.551758 1290.378296,1838.617432 1293.428101,1835.315308 
	C1280.535645,1823.511963 1269.028076,1812.054199 1276.903809,1792.693237 
	C1277.684204,1792.558716 1279.270142,1791.892578 1280.719238,1792.115723 
	C1283.956787,1792.614258 1286.278564,1791.299316 1286.750977,1788.420044 
	C1287.067383,1786.492798 1286.260498,1783.769531 1284.942871,1782.330322 
	C1283.004761,1780.213135 1279.988403,1779.130493 1277.739868,1777.240234 
	C1272.354248,1772.712769 1265.443481,1769.558105 1267.041992,1759.932983 
	C1267.591675,1756.622803 1263.571533,1752.334595 1261.173584,1748.809814 
	C1258.162109,1744.383301 1256.046387,1740.263306 1255.844238,1734.369995 
	C1255.562256,1726.152710 1248.276611,1722.999512 1241.596436,1720.206421 
	C1241.039429,1720.956787 1240.779663,1721.197754 1240.652100,1721.495483 
	C1239.171875,1724.945923 1243.905884,1730.390259 1238.520386,1732.066406 
	C1233.029175,1733.775635 1227.490479,1731.441528 1222.766357,1728.029541 
	C1221.979492,1727.461060 1221.114624,1726.665527 1220.824707,1725.795410 
	C1217.982300,1717.269165 1213.400879,1711.628052 1202.698975,1716.524048 
	C1202.697388,1709.619019 1206.441162,1703.194946 1197.764404,1700.700684 
	C1200.231445,1697.397583 1202.136963,1694.846191 1203.750977,1692.685059 
	C1200.328003,1687.962158 1196.629761,1684.094116 1194.424683,1679.508179 
	C1191.595337,1673.624390 1196.365723,1669.711060 1200.315796,1665.765747 
	C1198.809448,1660.558350 1195.955200,1656.348633 1190.567261,1658.611572 
	C1184.340698,1661.226685 1179.741577,1659.275024 1175.303711,1656.098999 
	C1168.370728,1658.460083 1171.322388,1664.907349 1168.534790,1670.005127 
	C1162.867065,1670.005127 1156.679810,1670.051514 1150.493774,1669.983398 
	C1147.835205,1669.954102 1145.178345,1669.544067 1142.522339,1669.560059 
	C1138.076050,1669.586670 1135.731934,1671.982544 1135.815796,1676.414429 
	C1135.852783,1678.367798 1136.696777,1680.314941 1136.670044,1682.258057 
	C1136.640747,1684.378662 1136.027466,1686.491211 1135.668823,1688.607300 
	C1133.291260,1688.084961 1130.799438,1687.843994 1128.577148,1686.939941 
	C1127.131348,1686.351807 1126.254517,1684.369995 1124.808960,1683.775024 
	C1122.465088,1682.810181 1119.829102,1681.874634 1117.379028,1682.015625 
	C1114.132935,1682.202393 1111.814331,1684.398071 1111.828613,1687.943237 
	C1111.844360,1691.826172 1114.781494,1692.996704 1117.921143,1693.070923 
	C1120.827148,1693.139526 1123.750732,1692.472290 1126.568970,1692.140503 
	C1128.935303,1695.743164 1127.492920,1697.660522 1124.321777,1698.141968 
	C1122.114868,1698.477051 1119.739014,1697.849121 1117.459351,1697.511475 
	C1115.522461,1697.224487 1112.748657,1695.724487 1111.836548,1696.504761 
	C1106.250000,1701.283203 1099.335327,1699.691406 1092.984375,1700.651611 
	C1088.352417,1711.669312 1102.498169,1710.416504 1103.195557,1717.808716 
	C1096.577515,1730.455322 1091.725952,1732.761475 1079.016968,1728.164917 
	C1074.372925,1726.485229 1070.650024,1726.804077 1067.109131,1730.130005 
	C1065.711670,1731.442749 1064.266113,1732.704224 1061.618896,1735.093262 
	C1061.618896,1724.237915 1061.618896,1714.788574 1061.618896,1703.954956 
	C1062.739380,1703.213501 1065.066406,1701.673584 1067.969604,1699.752441 
	C1063.960693,1695.619263 1063.075439,1687.972168 1053.498779,1690.486328 
	C1052.109375,1690.085938 1051.820312,1689.842285 1051.531250,1689.598633 
	C1051.733398,1687.615723 1052.379150,1685.554565 1052.046265,1683.666016 
	C1051.337769,1679.647827 1047.629639,1677.581055 1043.885132,1679.090088 
	C1040.833496,1680.319824 1037.997803,1682.084961 1034.591553,1683.860107 
	C1034.249634,1686.878784 1033.887451,1690.077148 1033.367432,1694.669067 
	C1026.834229,1689.679688 1020.999878,1685.223999 1014.636353,1680.364136 
	C1016.136108,1678.128052 1017.669250,1675.842407 1019.388855,1673.278687 
	C1011.140930,1672.560059 1011.140930,1672.560059 1008.355103,1686.121216 
	C1006.425537,1684.300171 1004.929932,1682.825439 1003.367554,1681.425293 
	C997.888000,1676.515015 995.412781,1677.193237 991.906494,1684.416504 
	C991.356812,1685.549072 990.450867,1686.508667 989.219055,1688.236450 
	C987.700439,1686.327881 986.660339,1684.826050 985.419861,1683.513672 
	C984.059387,1682.074341 982.719055,1680.067017 981.014160,1679.596436 
	C973.198547,1677.439331 964.703003,1677.469604 957.963867,1671.936523 
	C957.446777,1671.511841 956.029297,1672.007812 955.103943,1672.305298 
	C954.170288,1672.605591 953.118713,1672.996094 952.479980,1673.682861 
	C948.228210,1678.255127 938.588440,1678.148315 938.416870,1685.067749 
	C938.238892,1692.243652 940.054626,1700.139648 945.157227,1706.372192 
	C946.357971,1707.838867 946.931091,1709.819580 948.884460,1713.772461 
	C944.834717,1711.840942 942.722412,1710.822876 940.601257,1709.823975 
	C934.011780,1706.720581 927.560364,1703.237549 920.746094,1700.748291 
	C918.539856,1699.942383 913.725403,1700.997437 913.026855,1702.531860 
	C911.865051,1705.083862 912.486084,1708.896362 913.429260,1711.833252 
	C914.398865,1714.852539 917.140076,1716.463379 920.662170,1715.476929 
	C920.979919,1715.387939 921.274719,1715.220337 921.587769,1715.111084 
	C926.391541,1713.432739 931.264526,1711.386963 934.541138,1717.619873 
	C937.775818,1723.772949 936.917908,1732.914429 932.730774,1737.250610 
	C926.981506,1743.204590 921.240051,1749.166138 915.532715,1755.160156 
	C910.407715,1760.542725 909.566589,1760.654175 902.587341,1757.692871 
	C900.023926,1756.605225 897.249390,1756.015259 894.086365,1755.050415 
	C890.928955,1763.855469 890.554199,1771.772949 893.027466,1779.416870 
	C895.712036,1787.713867 894.332825,1794.291504 887.748474,1800.007690 
	C883.477173,1803.715942 879.501099,1807.764282 874.276367,1811.557861 
	C871.650330,1809.680908 870.225586,1807.825195 868.618713,1806.143677 
	C839.626221,1775.804321 810.670410,1745.429688 781.587097,1715.177612 
	C745.343079,1677.476807 708.952759,1639.916748 672.693970,1602.230103 
	C631.584656,1559.501953 590.563049,1516.689453 549.462341,1473.953003 
	C546.039246,1470.393677 542.303345,1467.135010 538.712769,1463.736694 
	C535.722290,1456.343018 532.957825,1448.847168 529.676636,1441.584717 
	C526.508667,1434.572876 527.108765,1428.061401 530.908997,1421.601929 
	C533.067688,1417.932495 535.174622,1414.232666 538.029846,1409.292114 
	C540.848572,1410.537720 544.042603,1411.847412 547.147705,1413.342041 
	C554.119995,1416.697876 555.587036,1416.462158 560.703308,1410.530884 
	C564.607727,1406.004395 568.349365,1401.472534 574.274597,1399.181030 
	C576.904785,1398.163940 578.952942,1395.641846 581.683044,1393.470825 
	C579.800964,1389.539429 578.245483,1385.959106 576.413696,1382.526367 
	C571.127075,1372.619263 573.134705,1365.200806 582.841492,1359.059570 
	C590.150208,1354.435425 597.479614,1349.839844 604.685791,1345.059692 
	C608.081055,1342.807251 611.257263,1340.000732 610.280640,1335.316895 
	C607.731323,1323.090454 615.774536,1317.448608 624.594910,1311.423828 
	C625.776550,1313.206177 626.724609,1314.636230 627.929199,1316.453125 
	C632.016785,1313.220215 635.868652,1310.173828 640.166077,1306.775024 
	C641.510254,1307.206787 643.129333,1307.473511 644.488647,1308.216064 
	C647.321716,1309.763794 650.603149,1310.961914 652.531006,1307.979736 
	C653.921204,1305.829346 654.295959,1302.275391 653.646545,1299.723267 
	C652.597717,1295.601685 650.475708,1291.717896 648.539673,1287.867920 
	C646.834412,1284.476685 644.216309,1282.594238 640.146362,1281.705811 
	C632.526550,1280.042358 625.129333,1277.359009 617.003662,1274.907959 
	C620.706848,1266.144775 627.219360,1262.465698 633.745850,1259.865967 
	C643.281067,1256.067749 648.370300,1250.296265 647.817200,1239.708496 
	C647.600769,1235.564575 649.400024,1233.106567 654.437195,1231.602417 
	C660.809204,1229.699707 666.358582,1225.064697 672.290955,1221.657227 
	C675.054382,1220.069946 677.884216,1218.598022 680.414307,1217.220581 
	C682.700806,1212.205322 685.086609,1206.967163 687.477173,1201.731201 
	C688.263184,1200.009766 689.502258,1198.361694 689.778015,1196.563965 
	C690.954712,1188.892822 690.851501,1188.876953 700.366943,1187.456787 
	C700.734558,1188.867432 701.159912,1190.330322 701.488586,1191.814697 
	C701.750671,1192.998047 701.895020,1194.207520 702.180725,1195.948608 
	C707.813232,1192.122925 708.473022,1186.347168 708.982483,1181.477539 
	C709.841309,1173.268066 712.628845,1167.609863 722.709839,1166.175781 
	C721.072937,1159.505493 719.903870,1153.424194 718.039185,1147.564331 
	C716.580139,1142.979370 713.928345,1138.780151 712.391785,1134.212524 
	C709.485168,1125.572021 713.215393,1117.279175 718.893677,1112.463013 
	C727.143005,1105.466187 728.295593,1096.511963 729.329895,1087.653931 
	C730.303772,1079.312378 733.844177,1075.516846 741.521118,1073.153931 
	C749.028564,1070.842896 753.483826,1063.942383 757.251831,1057.648560 
	C760.110779,1052.872925 762.467896,1050.349243 767.974243,1053.035645 
	C771.375427,1046.330811 774.724365,1040.280518 777.469971,1033.967529 
	C778.254456,1032.163818 777.972351,1029.220581 776.993958,1027.457764 
	C774.484436,1022.936401 776.238770,1019.641052 779.451050,1016.919250 
	C783.536255,1013.457764 786.114563,1007.738586 793.439514,1008.911133 
	C796.100891,1009.337158 799.296936,1006.159302 802.305359,1004.745239 
	C806.437744,1002.803040 810.124268,1000.524353 815.459473,1002.491455 
	C818.134155,1003.477661 822.481079,1001.264038 825.554382,999.562866 
	C832.538269,995.697144 839.435425,992.790222 847.632874,991.458130 
	C856.947571,989.944397 866.261414,986.096558 874.560486,981.450073 
	C880.452454,978.151367 882.149536,970.883301 881.617310,963.818726 
	C880.956665,955.050720 881.002991,955.180542 889.957947,953.232788 
	C892.345764,952.713440 895.133118,951.494812 896.577271,949.676208 
	C900.068542,945.280029 903.355652,940.581055 905.866089,935.573608 
	C912.669617,922.003235 912.738464,920.298340 910.452759,906.038513 
	C910.736328,905.454102 910.873901,904.568054 911.338196,904.336121 
	C922.517151,898.751343 925.558777,888.795898 926.222900,877.359924 
	C926.714478,868.894897 929.383545,862.265930 936.758301,856.194153 
	C942.604492,851.380859 944.790344,842.128174 948.619629,834.856201 
	C951.946228,828.538696 955.627563,822.380920 958.521851,815.872314 
	C960.414124,811.616821 961.181702,806.861267 960.762634,801.332825 
	C964.362122,799.116699 967.961548,796.900574 971.463135,794.744751 
	C964.536682,766.270203 957.511780,737.648560 950.689514,708.978638 
	C949.940857,705.832520 950.016724,702.382080 950.282654,699.119446 
	C952.733459,669.055481 955.857849,639.033752 957.617371,608.931458 
	C958.484131,594.103271 956.924133,579.130554 956.408997,564.225098 
	C955.916443,549.972717 955.988708,536.250671 962.209717,522.461426 
	C975.046692,494.007324 986.804626,465.020691 997.772766,435.790222 
	C1002.625427,422.857544 1004.474243,408.798157 1007.694214,395.252045 
	C1008.378784,392.372040 1009.095703,389.499695 1010.044800,385.611786 
	C1018.374634,387.420837 1026.376465,389.060333 1034.331177,390.902924 
	C1072.192139,399.672668 1110.040161,408.499451 1147.895020,417.295563 
	C1149.191406,417.596832 1150.540405,418.093384 1151.819092,417.980194 
	C1159.457397,417.304352 1164.884033,420.078064 1168.547607,427.083160 
	C1170.892212,431.566315 1175.142456,432.281342 1179.739258,430.050507 
	C1181.231934,429.326050 1182.684814,428.442566 1184.257935,427.974304 
	C1191.112793,425.933990 1195.274780,427.407196 1198.169922,433.892944 
	C1202.331055,443.214508 1210.049316,450.700897 1211.923950,461.243439 
	C1212.249023,463.071442 1214.561523,465.078125 1216.446655,466.014954 
	C1237.261230,476.358398 1258.172729,486.506622 1279.525757,496.936249 
	C1282.346436,494.747467 1284.909546,492.758606 1288.002808,490.223572 
	C1289.112671,493.162872 1290.109741,496.636841 1290.206055,500.135590 
	C1290.958008,527.440186 1290.858643,554.786682 1292.350098,582.047546 
	C1294.002930,612.258484 1297.565063,642.362732 1299.357056,672.569031 
	C1300.973999,699.823853 1301.363525,727.152466 1302.222168,754.450867 
	C1303.625366,799.058167 1304.810913,843.673035 1306.395996,888.273743 
	C1307.424561,917.216736 1308.959839,946.142090 1310.341919,975.071899 
	C1311.549194,1000.341797 1312.758545,1025.612793 1314.233154,1050.867554 
	C1314.457764,1054.713745 1315.522949,1058.769531 1317.216675,1062.230591 
	C1332.148560,1092.743408 1347.375244,1123.111816 1362.333618,1153.611694 
	C1364.522949,1158.075562 1367.551392,1160.940918 1372.037598,1163.008911 
	C1395.014526,1173.599731 1417.618164,1185.052856 1440.904297,1194.898804 
	C1452.748291,1199.906738 1465.708252,1202.341797 1478.244629,1205.630615 
	C1500.120728,1211.369507 1522.129150,1216.615234 1543.936157,1222.599609 
	C1552.227905,1224.874878 1560.219482,1228.375732 1568.169556,1231.739380 
	C1589.625732,1240.817871 1610.948975,1250.210449 1632.410034,1259.277222 
	C1637.788208,1261.549561 1641.953979,1264.681763 1645.414307,1269.542236 
	C1659.130249,1288.809082 1673.119507,1307.885376 1687.287964,1326.822510 
	C1690.204224,1330.720337 1693.928955,1334.301270 1697.956299,1337.032715 
	C1721.663330,1353.112183 1745.523193,1368.968506 1769.454712,1384.712646 
	C1773.575684,1387.423828 1778.121582,1389.688110 1782.753418,1391.391235 
	C1815.544922,1403.448853 1848.157715,1416.076050 1881.342163,1426.951294 
	C1902.770020,1433.973633 1925.066040,1438.350342 1946.981567,1443.878784 
	C1952.463379,1445.261475 1958.048462,1446.273926 1963.466309,1447.864502 
	C1993.329712,1456.632568 2024.157227,1454.411377 2054.647217,1456.004761 
	C2061.960938,1456.386963 2069.289551,1456.488525 2077.340576,1457.089600 
z"/>
<path 
	data-name="Kombo-Itindi"
fill="#F4A56C" opacity="1.000000" stroke="none" 
	d="
M892.351685,1831.964600 
	C898.471375,1838.066040 904.769897,1844.001221 910.646118,1850.328735 
	C914.384216,1854.354126 918.348022,1856.967407 923.909668,1858.327515 
	C932.232483,1860.362549 940.979065,1862.825195 946.762817,1869.720581 
	C957.422607,1882.429321 967.469238,1895.454956 974.274048,1911.003540 
	C978.307922,1920.220825 985.605713,1928.026855 991.551270,1936.385498 
	C997.712402,1945.046997 1003.996094,1953.621948 1010.258240,1962.211182 
	C1014.565186,1968.119019 1015.487732,1974.941040 1016.067810,1981.982300 
	C1017.622681,2000.856445 1011.749695,2018.024170 1004.653992,2035.046265 
	C997.748047,2051.613037 991.199829,2068.332031 984.760498,2085.086670 
	C983.600769,2088.104004 983.864380,2091.642822 983.238403,2094.896240 
	C981.486816,2103.999268 979.299072,2113.030762 977.906433,2122.185547 
	C977.075378,2127.648438 977.413025,2133.289307 977.239319,2138.850586 
	C977.229187,2139.175781 977.436584,2139.518799 977.388000,2139.829346 
	C975.602905,2151.249023 974.373840,2162.795410 971.834961,2174.045898 
	C969.355896,2185.031494 965.181763,2195.627686 962.492371,2206.576660 
	C961.508911,2210.580322 962.658997,2215.106445 962.825806,2219.394775 
	C962.913147,2221.641113 962.978760,2223.888184 962.902222,2226.791016 
	C962.615662,2229.509033 961.574219,2232.193359 962.493103,2233.532471 
	C968.685242,2242.557861 975.279175,2251.308105 981.772827,2260.125732 
	C984.530457,2263.870117 987.404846,2267.528809 990.148071,2271.283691 
	C997.740784,2281.675293 1005.287720,2292.100586 1012.874390,2302.496826 
	C1013.256775,2303.020752 1013.797791,2303.461426 1014.339722,2303.831055 
	C1029.237549,2313.996094 1035.478516,2330.066895 1041.986938,2345.634766 
	C1048.502319,2361.219238 1053.030273,2377.640381 1059.662842,2393.168213 
	C1067.348755,2411.162354 1075.694092,2428.954834 1085.032837,2446.139160 
	C1093.205811,2461.178955 1095.468872,2476.861572 1093.993408,2493.336182 
	C1093.236694,2501.785645 1085.641235,2506.236328 1078.075562,2502.820068 
	C1061.146240,2495.176025 1043.801880,2487.918457 1029.985962,2475.092773 
	C1020.661438,2466.436523 1013.568604,2456.037598 1013.643005,2442.369873 
	C1013.650024,2441.085693 1013.361938,2439.800049 1013.124268,2437.779053 
	C997.422974,2444.182861 996.534912,2431.270020 992.807495,2421.904297 
	C984.131287,2422.252686 978.641235,2417.516357 973.135132,2411.750977 
	C966.526062,2404.830078 958.877136,2398.891357 951.577881,2392.645264 
	C947.952026,2389.542236 945.179260,2386.115234 944.109314,2381.261230 
	C943.185669,2377.071289 941.561829,2373.035400 939.916382,2367.897461 
	C928.108826,2367.201416 916.206055,2365.492188 908.973755,2353.714111 
	C898.945557,2358.059082 889.567993,2362.122314 879.631470,2366.427734 
	C887.323669,2383.732666 894.028503,2400.962402 906.695251,2414.902588 
	C918.087158,2427.439697 916.225952,2440.764404 904.737305,2450.664307 
	C900.989807,2453.893555 898.034058,2458.031006 894.631592,2461.673828 
	C889.395447,2467.279785 883.133545,2470.588135 875.218750,2470.197510 
	C871.566650,2470.016846 868.395325,2470.507324 865.049194,2472.967529 
	C856.819214,2479.018799 847.162292,2473.391602 838.111755,2475.058594 
	C832.594788,2476.074951 827.906738,2471.323242 824.102478,2466.864990 
	C810.518433,2450.946289 796.800903,2435.141602 783.141296,2419.287354 
	C781.846252,2417.784424 780.900146,2415.438965 779.287537,2414.837646 
	C766.680481,2410.136719 756.227661,2400.023926 741.740356,2400.010742 
	C735.183594,2400.004883 729.734070,2397.239258 724.536560,2393.141357 
	C721.361572,2390.637939 716.785095,2389.997559 713.071777,2388.070312 
	C708.478149,2385.686035 703.069214,2383.739258 699.879150,2380.007812 
	C691.932068,2370.711426 685.473206,2360.151123 677.621887,2350.762939 
	C667.083130,2338.161133 665.690308,2323.102539 664.286682,2307.843994 
	C663.863892,2303.248291 663.463318,2298.566650 662.256653,2294.141113 
	C654.648926,2266.237793 646.496704,2238.518066 631.959595,2213.197754 
	C625.370117,2201.720459 619.836609,2189.645996 609.924011,2180.253906 
	C605.753479,2176.302490 604.228271,2171.451660 605.432678,2164.328125 
	C606.787048,2156.317139 603.204346,2147.457520 601.647583,2138.989502 
	C601.490967,2138.137695 600.652039,2137.166504 599.863770,2136.712158 
	C588.790588,2130.327393 579.671814,2120.445312 565.699707,2119.269043 
	C556.957642,2118.532715 555.604431,2113.858154 560.868652,2106.123291 
	C563.020630,2102.961182 562.195007,2100.605957 558.558289,2099.562012 
	C553.820007,2098.201904 549.102722,2096.759766 544.334290,2095.514648 
	C534.359680,2092.909668 528.833801,2086.343262 525.717651,2076.660645 
	C520.499207,2060.445312 519.026001,2043.594482 516.439575,2026.942139 
	C515.123718,2018.469727 514.658386,2009.822021 514.447144,2001.237793 
	C514.319275,1996.041992 515.413818,1990.815918 516.403503,1984.116943 
	C521.717590,1982.903931 526.840332,1982.314941 531.398376,1983.651611 
	C538.372803,1985.696777 544.962158,1989.059692 551.707214,1991.881836 
	C561.446228,1995.956787 569.328186,1991.324829 569.846191,1980.730103 
	C570.069031,1976.171143 569.312195,1971.469849 568.357117,1966.969849 
	C566.909058,1960.147095 565.048279,1953.400146 563.085266,1946.702271 
	C561.263184,1940.485352 562.265381,1934.976685 565.888977,1929.651489 
	C570.009827,1923.595581 573.994934,1917.432007 577.706299,1911.119507 
	C579.518005,1908.037964 581.023560,1904.623779 581.883972,1901.165283 
	C584.034607,1892.519897 589.165283,1888.491455 598.774109,1888.484375 
	C601.235413,1892.119141 603.657898,1895.696655 606.301514,1899.600708 
	C613.546936,1890.843628 613.539185,1890.863770 622.664612,1894.375122 
	C623.849548,1894.831055 625.308716,1895.457764 626.395081,1895.146851 
	C635.310120,1892.594604 644.510376,1890.622559 652.945557,1886.926025 
	C661.470886,1883.190063 661.947327,1878.725464 656.702698,1870.595581 
	C653.422852,1865.511475 654.151489,1861.122070 658.680115,1858.684326 
	C662.461121,1856.649048 667.309998,1857.737427 670.201538,1861.534424 
	C672.117615,1864.050659 673.708923,1866.814209 676.262207,1870.714355 
	C677.699890,1867.302734 678.591064,1865.301880 679.392761,1863.265869 
	C682.917358,1854.314941 691.995911,1852.680176 698.657715,1859.784912 
	C699.814392,1861.018433 701.116699,1862.115479 702.584778,1863.494507 
	C703.182434,1862.050171 703.549194,1861.468384 703.663696,1860.840576 
	C705.132690,1852.789307 705.082520,1852.921509 712.620728,1855.228271 
	C715.094055,1855.985107 717.841431,1856.089722 720.461548,1856.077393 
	C728.027527,1856.041748 734.772827,1857.709595 740.660950,1862.992188 
	C745.599060,1867.422729 748.535095,1867.188965 752.048950,1861.795410 
	C755.300842,1856.803833 759.706360,1854.533081 765.068665,1853.538330 
	C774.785645,1851.735840 783.155334,1847.260254 791.133118,1841.608887 
	C794.165039,1839.460815 798.007751,1838.457153 801.451355,1836.944824 
	C804.670776,1841.780396 805.718933,1847.071533 811.752625,1846.937622 
	C815.488220,1844.022827 819.259155,1841.080566 823.549683,1837.732788 
	C826.302551,1841.889282 828.399292,1845.055054 830.730774,1848.575317 
	C839.556519,1845.872803 838.287964,1832.528687 849.124878,1832.583618 
	C851.251465,1837.881714 852.634644,1843.899536 855.866699,1848.662842 
	C859.158936,1853.514771 864.262634,1857.152344 871.985107,1855.100830 
	C871.363037,1848.822998 870.762329,1842.760376 870.030884,1835.378540 
	C878.076843,1834.147949 885.214294,1833.056274 892.351685,1831.964600 
z"/>
<path 
	data-name="Isanguele"
fill="#57D9BF" opacity="1.000000" stroke="none" 
	d="
M892.085266,1831.330688 
	C885.214294,1833.056274 878.076843,1834.147949 870.030884,1835.378540 
	C870.762329,1842.760376 871.363037,1848.822998 871.985107,1855.100830 
	C864.262634,1857.152344 859.158936,1853.514771 855.866699,1848.662842 
	C852.634644,1843.899536 851.251465,1837.881714 849.124878,1832.583618 
	C838.287964,1832.528687 839.556519,1845.872803 830.730774,1848.575317 
	C828.399292,1845.055054 826.302551,1841.889282 823.549683,1837.732788 
	C819.259155,1841.080566 815.488220,1844.022827 811.752625,1846.937622 
	C805.718933,1847.071533 804.670776,1841.780396 801.451355,1836.944824 
	C798.007751,1838.457153 794.165039,1839.460815 791.133118,1841.608887 
	C783.155334,1847.260254 774.785645,1851.735840 765.068665,1853.538330 
	C759.706360,1854.533081 755.300842,1856.803833 752.048950,1861.795410 
	C748.535095,1867.188965 745.599060,1867.422729 740.660950,1862.992188 
	C734.772827,1857.709595 728.027527,1856.041748 720.461548,1856.077393 
	C717.841431,1856.089722 715.094055,1855.985107 712.620728,1855.228271 
	C705.082520,1852.921509 705.132690,1852.789307 703.663696,1860.840576 
	C703.549194,1861.468384 703.182434,1862.050171 702.584778,1863.494507 
	C701.116699,1862.115479 699.814392,1861.018433 698.657715,1859.784912 
	C691.995911,1852.680176 682.917358,1854.314941 679.392761,1863.265869 
	C678.591064,1865.301880 677.699890,1867.302734 676.262207,1870.714355 
	C673.708923,1866.814209 672.117615,1864.050659 670.201538,1861.534424 
	C667.309998,1857.737427 662.461121,1856.649048 658.680115,1858.684326 
	C654.151489,1861.122070 653.422852,1865.511475 656.702698,1870.595581 
	C661.947327,1878.725464 661.470886,1883.190063 652.945557,1886.926025 
	C644.510376,1890.622559 635.310120,1892.594604 626.395081,1895.146851 
	C625.308716,1895.457764 623.849548,1894.831055 622.664612,1894.375122 
	C613.539185,1890.863770 613.546936,1890.843628 606.301514,1899.600708 
	C603.657898,1895.696655 601.235413,1892.119141 598.774109,1888.484375 
	C589.165283,1888.491455 584.034607,1892.519897 581.883972,1901.165283 
	C581.023560,1904.623779 579.518005,1908.037964 577.706299,1911.119507 
	C573.994934,1917.432007 570.009827,1923.595581 565.888977,1929.651489 
	C562.265381,1934.976685 561.263184,1940.485352 563.085266,1946.702271 
	C565.048279,1953.400146 566.909058,1960.147095 568.357117,1966.969849 
	C569.312195,1971.469849 570.069031,1976.171143 569.846191,1980.730103 
	C569.328186,1991.324829 561.446228,1995.956787 551.707214,1991.881836 
	C544.962158,1989.059692 538.372803,1985.696777 531.398376,1983.651611 
	C526.840332,1982.314941 521.717590,1982.903931 516.334229,1983.262817 
	C503.851044,1990.522339 497.481293,2000.414429 497.757629,2014.359375 
	C497.822205,2017.618286 497.605530,2021.005005 496.735504,2024.113770 
	C496.221100,2025.951660 494.321655,2028.425293 492.767975,2028.644043 
	C491.376587,2028.839844 489.192261,2026.614746 488.092285,2024.967285 
	C486.095490,2021.976929 484.783661,2018.535645 482.877808,2015.474365 
	C482.330475,2014.595093 480.725250,2014.374390 478.127960,2013.162476 
	C481.277863,2022.705322 483.976959,2030.882202 486.610199,2038.859619 
	C496.223969,2042.905029 497.832642,2045.812012 496.034454,2055.566406 
	C495.855072,2056.539307 495.630219,2057.541260 495.209808,2058.426758 
	C489.347321,2070.779053 491.735382,2083.445801 493.741425,2096.892822 
	C485.864258,2104.229736 477.973572,2110.788086 470.055695,2117.313477 
	C465.994812,2120.660156 461.677246,2120.669922 456.981964,2118.551270 
	C452.254150,2116.417969 449.848572,2113.211426 449.588898,2107.837891 
	C449.351837,2102.933105 448.447083,2097.991455 447.230164,2093.220703 
	C445.771301,2087.500977 441.913147,2084.186035 435.743408,2083.973633 
	C429.711182,2083.765869 424.476013,2085.078125 421.456512,2090.984863 
	C418.305756,2097.148438 414.921814,2103.204346 412.044800,2109.492676 
	C410.166595,2113.597656 406.433472,2115.644043 403.330505,2113.849365 
	C396.932251,2110.148926 393.471375,2113.258057 390.302124,2117.737061 
	C384.512604,2116.232666 379.189667,2114.849365 373.145294,2113.278564 
	C371.667786,2122.311035 368.667206,2129.433838 361.893860,2134.515869 
	C353.489075,2140.821777 345.617310,2139.663818 339.951965,2130.788086 
	C336.596863,2125.531494 332.517181,2120.623779 333.448761,2113.518066 
	C333.926758,2109.872070 331.349518,2107.424072 327.713348,2106.365479 
	C308.910278,2100.890625 290.101135,2095.435303 271.334595,2089.837402 
	C268.522766,2088.998779 265.792297,2087.669922 263.250305,2086.181396 
	C250.898621,2078.948975 238.623901,2071.584717 225.582520,2064.093750 
	C228.747070,2058.781738 232.191147,2053.190918 236.679596,2048.627441 
	C241.523453,2043.702271 243.991028,2038.835938 244.852127,2031.558472 
	C246.120651,2020.837646 245.399109,2011.561401 239.777939,2002.108398 
	C230.954300,1987.269897 222.875839,1971.971191 214.957581,1956.621948 
	C212.605789,1952.063110 211.075653,1946.769043 210.494110,1941.661011 
	C207.679108,1916.934326 211.104385,1892.651245 216.818619,1868.632324 
	C217.573395,1865.459839 219.384598,1862.530518 220.769135,1859.517456 
	C228.949020,1841.715698 237.135986,1823.917236 245.346970,1806.129883 
	C247.713242,1801.003906 250.221939,1795.943481 252.569244,1790.808960 
	C258.109070,1778.691406 270.518860,1778.489746 280.484253,1783.542603 
	C283.418915,1785.030518 285.941376,1787.317017 288.706177,1789.157349 
	C295.117371,1793.425171 300.552643,1793.307861 306.930084,1788.716675 
	C317.464081,1781.132812 329.166870,1775.167236 342.067657,1778.507812 
	C355.484833,1781.982056 368.410889,1780.908813 381.559723,1779.107788 
	C385.742889,1778.534668 389.994568,1777.195557 393.799377,1775.350220 
	C408.479584,1768.230347 422.363098,1759.738647 434.991943,1749.365723 
	C442.009827,1743.601440 449.872772,1739.616577 458.198486,1736.131348 
	C463.936279,1733.729492 469.489288,1730.539673 474.508392,1726.860840 
	C479.959625,1722.864990 481.846191,1716.339478 481.389954,1710.009033 
	C480.654694,1699.807007 478.101593,1689.972656 474.349213,1680.255737 
	C467.533295,1662.605957 454.940125,1649.838745 439.606873,1640.608521 
	C418.814941,1628.092285 412.149536,1610.011597 411.977142,1587.276978 
	C411.885101,1575.135010 416.118073,1566.004883 425.825195,1559.312256 
	C431.858765,1555.152466 435.059540,1549.200806 438.257965,1542.924194 
	C442.015564,1535.550171 446.349274,1528.451660 450.724609,1521.414795 
	C457.368744,1510.729370 467.347748,1507.344482 479.598877,1507.735840 
	C491.462677,1508.114746 503.449951,1509.524658 515.134766,1505.232910 
	C533.843323,1498.361572 544.598999,1483.075317 538.710815,1464.559082 
	C542.303345,1467.135010 546.039246,1470.393677 549.462341,1473.953003 
	C590.563049,1516.689453 631.584656,1559.501953 672.693970,1602.230103 
	C708.952759,1639.916748 745.343079,1677.476807 781.587097,1715.177612 
	C810.670410,1745.429688 839.626221,1775.804321 868.618713,1806.143677 
	C870.225586,1807.825195 871.650330,1809.680908 873.696289,1811.894287 
	C880.094788,1818.454346 885.956787,1824.575562 892.085266,1831.330688 
z"/>


</svg>