<svg version="1.1" id="Layer_1" xmlns="http://www.w3.org/2000/svg" xmlns:xlink="http://www.w3.org/1999/xlink" x="0px" y="0px"
	 width="100%" viewBox="0 0 2249 2754" enable-background="new 0 0 2249 2754" xml:space="preserve">
<path 
	data-name="Mora"
fill="#B36446" opacity="1.000000" stroke="none" 
	d="
M2252.000000,1606.000000 
	C2252.000000,1607.500000 2252.000000,1609.000000 2251.263916,1611.210449 
	C2247.239502,1613.905151 2243.356201,1615.315918 2240.781250,1617.987671 
	C2234.562744,1624.439941 2229.819336,1632.579956 2222.895996,1638.023193 
	C2212.926758,1645.861816 2207.398438,1655.769653 2203.741455,1667.353149 
	C2202.442383,1671.467773 2200.979004,1675.591431 2199.016846,1679.416626 
	C2197.393555,1682.581665 2195.370361,1685.809204 2192.756104,1688.151489 
	C2181.864258,1697.910645 2170.870850,1707.575684 2159.569092,1716.854248 
	C2129.721680,1741.358154 2105.630371,1770.809937 2084.116699,1802.661743 
	C2078.584229,1810.852783 2072.035156,1818.714844 2064.596436,1825.162598 
	C2056.737793,1831.974365 2050.522949,1838.968628 2049.487305,1849.629272 
	C2049.428467,1850.234619 2048.898438,1850.794312 2048.601074,1851.349976 
	C2042.263672,1854.328247 2035.921143,1857.230835 2029.648438,1860.276855 
	C2022.030762,1863.976318 2019.842651,1870.511597 2020.332764,1878.444580 
	C2021.028198,1889.702515 2021.486694,1900.977295 2022.346802,1912.221924 
	C2022.766724,1917.710938 2020.768555,1921.987915 2016.990601,1925.571045 
	C2009.994873,1932.206421 2003.163452,1939.060669 1995.736328,1945.184204 
	C1986.993042,1952.392822 1977.464844,1958.760010 1977.931152,1971.327393 
	C1974.928345,1972.234253 1973.053711,1973.174561 1971.118774,1973.320923 
	C1961.991821,1974.011475 1955.700073,1978.284180 1952.432495,1987.004517 
	C1950.809082,1991.336548 1947.136230,1993.101440 1942.951782,1994.997192 
	C1928.810303,2001.403687 1913.764038,2003.357056 1898.727295,2006.064697 
	C1886.390259,2008.286133 1873.295410,2010.501465 1862.531494,2016.375488 
	C1840.671265,2028.304810 1820.126831,2042.654297 1799.110352,2056.116211 
	C1791.198730,2061.183838 1788.776855,2068.779053 1790.183228,2077.757080 
	C1790.540283,2080.035889 1791.683472,2082.192139 1792.038452,2084.471191 
	C1792.949829,2090.320801 1792.492920,2095.154541 1786.195435,2098.743164 
	C1781.156006,2101.614990 1776.672241,2106.108154 1773.104980,2110.771484 
	C1767.168823,2118.531982 1760.635864,2122.429199 1750.984497,2118.087891 
	C1750.475464,2117.859131 1749.701416,2118.219971 1748.455811,2118.385010 
	C1747.088867,2120.106201 1745.311401,2122.059570 1743.853394,2124.227783 
	C1737.368042,2133.872559 1730.763916,2143.448730 1724.649780,2153.326416 
	C1722.174438,2157.325684 1719.143311,2158.907959 1714.808838,2158.226074 
	C1709.237305,2157.349365 1703.735229,2155.970459 1698.144165,2155.302246 
	C1695.362915,2154.970215 1691.952515,2154.865967 1689.680176,2156.158691 
	C1678.196899,2162.691406 1665.311401,2164.770264 1653.005249,2168.723877 
	C1645.771118,2171.047607 1640.840698,2169.937256 1637.017334,2163.408447 
	C1635.141235,2160.204590 1632.965576,2157.504395 1628.484009,2157.638672 
	C1620.036743,2157.891357 1612.012939,2158.923096 1605.600708,2165.896973 
	C1608.598267,2174.778809 1603.972534,2180.020508 1597.082520,2184.780518 
	C1593.993652,2186.914551 1591.448242,2190.581299 1589.947876,2194.102783 
	C1587.320923,2200.268066 1584.542480,2205.899902 1579.023071,2210.203613 
	C1575.847778,2212.679443 1574.216675,2218.813232 1571.175659,2219.365967 
	C1567.233643,2220.082031 1562.587158,2216.856445 1558.223389,2215.389160 
	C1557.645264,2215.194824 1556.945312,2215.362549 1555.303101,2215.362549 
	C1553.336548,2217.568604 1550.810669,2220.140381 1548.585693,2222.950439 
	C1543.340576,2229.573975 1537.008179,2230.135742 1532.512695,2223.101074 
	C1528.090088,2216.179932 1521.613281,2213.988037 1515.049683,2211.878418 
	C1505.383423,2216.191406 1504.934692,2224.746338 1503.779907,2232.974121 
	C1503.419922,2235.539062 1503.617310,2239.525879 1502.146240,2240.355225 
	C1496.242310,2243.683838 1490.420166,2249.486816 1483.088623,2246.961426 
	C1476.735962,2244.772949 1473.818604,2247.352783 1470.325195,2251.398193 
	C1459.366577,2250.009277 1449.124146,2248.890869 1438.851929,2248.416016 
	C1405.614624,2246.879883 1372.363892,2245.639404 1339.123535,2244.166016 
	C1321.177124,2243.370605 1303.189575,2242.897217 1285.315430,2241.250732 
	C1266.476562,2239.515381 1247.759888,2236.481201 1228.973145,2234.148193 
	C1205.233887,2231.200928 1181.472046,2228.436279 1157.731812,2225.496094 
	C1147.157227,2224.186523 1137.112549,2221.558105 1127.229370,2216.983887 
	C1087.353271,2198.528320 1047.158691,2180.759521 1007.037964,2162.835449 
	C998.843811,2159.174561 990.744080,2154.558105 982.107300,2152.780518 
	C961.297424,2148.497803 940.185730,2145.692139 919.217834,2142.159424 
	C914.192139,2141.312744 910.351868,2142.660400 906.554443,2146.132568 
	C899.681763,2152.416992 892.173035,2158.000977 885.215393,2164.197998 
	C873.325195,2174.788330 860.604675,2184.325928 850.908691,2197.441895 
	C825.575623,2231.709473 799.418335,2265.367432 773.728394,2299.373047 
	C769.820374,2304.545898 765.213135,2308.381104 759.477539,2311.439697 
	C745.672119,2318.801025 732.163086,2326.717041 718.509033,2334.363525 
	C681.616943,2355.024170 644.711548,2375.661133 607.161804,2396.032715 
	C604.450928,2394.085449 602.146729,2392.633057 600.381836,2390.690918 
	C597.261536,2387.256836 593.720642,2386.375732 589.684753,2388.415039 
	C585.038574,2390.762695 581.335022,2388.160400 577.472656,2386.464600 
	C566.821716,2381.787842 555.984558,2377.456543 545.660034,2372.136963 
	C534.975830,2366.632080 525.795837,2359.833984 521.827637,2347.010254 
	C518.120117,2335.029541 513.337952,2322.889648 506.448944,2312.536377 
	C500.708344,2303.908936 496.134277,2294.844238 491.193176,2285.889160 
	C485.745483,2276.015625 484.381897,2265.131836 484.128357,2254.135742 
	C483.875183,2243.156982 483.991577,2232.157227 484.377472,2221.181641 
	C484.564514,2215.863281 482.889801,2211.688721 479.918640,2207.383789 
	C477.369659,2203.690186 475.271149,2199.299561 474.364990,2194.928711 
	C471.133606,2179.342285 468.384613,2163.652100 465.665680,2147.964355 
	C463.179443,2133.618896 459.013153,2119.451172 461.344940,2104.455566 
	C479.626709,2095.572510 497.321777,2087.081543 514.738586,2078.053955 
	C524.455872,2073.017090 534.502686,2068.095703 543.037842,2061.387939 
	C581.746826,2030.966064 619.927856,1999.873413 658.380432,1969.124268 
	C699.948669,1935.883789 741.640320,1902.797729 783.171997,1869.511963 
	C787.024292,1866.424316 790.618896,1862.740845 793.468567,1858.721069 
	C812.134094,1832.390381 830.564819,1805.893433 849.066040,1779.446411 
	C872.335449,1746.184082 895.698303,1712.986084 918.797485,1679.605835 
	C924.816956,1670.907227 931.735107,1662.262451 935.275269,1652.515869 
	C949.807251,1612.507446 963.206970,1572.087646 976.999146,1531.810791 
	C987.235840,1501.917480 998.804810,1472.395386 1007.322754,1442.018799 
	C1019.426880,1398.853394 1029.952637,1355.209717 1039.902954,1311.485962 
	C1050.580322,1264.567383 1059.810669,1217.319580 1070.043213,1169.629150 
	C1075.025269,1163.398804 1079.155273,1157.319458 1086.130371,1154.064697 
	C1089.108765,1152.674927 1091.750977,1152.057617 1094.452148,1154.249023 
	C1099.814575,1158.599609 1103.346436,1165.937866 1112.056152,1164.865845 
	C1112.639648,1164.794067 1113.568848,1166.121582 1114.062988,1166.959839 
	C1117.339233,1172.518188 1122.342041,1172.871094 1127.963501,1171.874756 
	C1132.724976,1171.030884 1136.694092,1171.615479 1140.430786,1175.801147 
	C1142.266357,1177.857178 1146.970581,1177.904541 1150.360718,1177.851562 
	C1153.224121,1177.806763 1156.026733,1176.139282 1158.922729,1175.483032 
	C1165.718384,1173.943115 1179.372070,1168.149658 1184.341064,1164.410645 
	C1187.141602,1165.621582 1190.130859,1166.914062 1192.182129,1167.801025 
	C1202.998779,1165.888794 1208.022827,1157.524414 1212.577637,1150.585205 
	C1216.633057,1144.406860 1220.528442,1139.148438 1226.712158,1135.238892 
	C1228.265991,1134.256470 1229.499512,1131.498169 1229.502808,1129.553711 
	C1229.516479,1121.438843 1229.324097,1121.438477 1238.378174,1123.192627 
	C1241.680420,1118.697754 1245.891724,1115.783325 1252.002686,1114.988281 
	C1257.455078,1114.279175 1262.632446,1110.570557 1268.009277,1110.378784 
	C1275.891968,1110.097778 1281.014160,1106.768921 1285.502686,1100.817261 
	C1294.309937,1089.139038 1302.656494,1076.962646 1312.662842,1066.381592 
	C1322.892822,1055.563965 1329.748169,1043.607422 1332.003052,1029.089844 
	C1333.209473,1021.322998 1336.248169,1014.560364 1340.483032,1008.076050 
	C1358.765869,980.082214 1350.268799,984.544373 1386.722534,975.964966 
	C1411.339844,970.171204 1435.763916,963.895630 1459.546143,955.285400 
	C1464.841919,953.367981 1470.166748,951.292053 1475.058228,948.542236 
	C1488.077271,941.223267 1500.765137,933.315796 1513.775146,925.980225 
	C1528.820923,917.496826 1544.046875,909.331665 1559.243530,901.119019 
	C1564.204590,898.437988 1569.188599,895.725830 1574.387939,893.573425 
	C1590.371948,886.956177 1606.451172,880.564636 1620.636719,870.388794 
	C1630.735718,863.144531 1641.813965,858.010681 1653.610352,854.146790 
	C1658.936768,852.402039 1664.236328,850.091125 1668.972534,847.119812 
	C1683.011230,838.312622 1696.906860,829.259155 1710.593750,819.914368 
	C1730.641724,806.226440 1750.465698,792.210266 1770.372681,778.316040 
	C1776.911865,773.752075 1783.703857,769.490234 1789.867554,764.461731 
	C1801.685913,754.819946 1812.984619,744.542603 1824.771484,734.860718 
	C1852.509155,712.076538 1881.926392,691.348450 1907.819580,666.299438 
	C1917.601440,656.836670 1928.072510,648.083069 1938.296387,639.082214 
	C1942.243774,635.606995 1946.263184,632.192932 1950.447754,629.011353 
	C1961.504028,620.604980 1973.678101,613.532349 1980.176880,600.251831 
	C1986.781494,586.754822 1995.286743,574.461304 2005.332275,563.215942 
	C2016.454224,550.765503 2026.449097,548.551392 2041.661255,554.896667 
	C2046.150024,556.768982 2051.196289,557.751404 2056.068115,558.148804 
	C2062.686768,558.688721 2069.383545,558.316101 2076.046143,558.257080 
	C2081.814697,558.205933 2086.983398,556.658752 2091.954590,553.386658 
	C2101.320312,547.221741 2110.454346,540.377930 2122.824951,538.263733 
	C2127.121338,538.222412 2130.581787,538.428284 2134.003418,539.511841 
	C2132.637939,551.529785 2134.909912,562.095947 2138.214111,572.718018 
	C2142.845947,587.609680 2146.642822,602.760803 2150.811523,617.796936 
	C2156.344971,637.755920 2157.166748,658.403259 2159.565918,678.809753 
	C2160.057129,682.988892 2159.545654,687.515747 2158.466309,691.610718 
	C2153.253418,711.388123 2153.468750,731.726990 2151.646729,751.860229 
	C2151.144043,757.413208 2150.223145,763.038513 2148.610352,768.362915 
	C2139.073975,799.850403 2129.617920,831.370361 2119.411133,862.643188 
	C2114.914551,876.420410 2114.149658,889.641296 2118.847412,903.389038 
	C2126.474121,925.706787 2124.432129,948.923889 2123.080322,971.699036 
	C2122.160400,987.200684 2122.052246,1002.513000 2126.599854,1017.003784 
	C2133.110352,1037.749878 2136.641602,1058.971191 2140.112549,1080.247681 
	C2143.100342,1098.564575 2144.961182,1117.064331 2147.886230,1135.392944 
	C2148.634277,1140.078491 2150.852539,1144.879639 2153.549316,1148.842041 
	C2164.033447,1164.245239 2174.786133,1179.476196 2185.822021,1194.489624 
	C2194.168701,1205.844360 2199.748291,1217.706909 2197.816162,1232.346924 
	C2196.606445,1241.513062 2197.984619,1251.303223 2195.328369,1259.928589 
	C2191.531250,1272.256104 2189.785645,1284.423462 2190.214600,1297.173096 
	C2190.539307,1306.825806 2190.346924,1316.499023 2190.248535,1326.161621 
	C2190.203613,1330.571899 2190.610107,1334.594238 2193.488281,1338.382935 
	C2194.838379,1340.160278 2195.224121,1343.283325 2194.883057,1345.626953 
	C2193.353027,1356.134399 2191.299561,1366.564331 2189.641602,1377.054810 
	C2188.350830,1385.221680 2188.847168,1394.017944 2185.913086,1401.500732 
	C2180.889893,1414.310547 2180.002197,1427.207031 2180.183838,1440.597046 
	C2180.347412,1452.662476 2181.767822,1464.304565 2185.986572,1475.744629 
	C2189.436768,1485.101196 2191.761475,1494.760376 2186.252197,1504.613525 
	C2184.882324,1507.063721 2185.034912,1511.199463 2186.065918,1513.974365 
	C2187.879639,1518.856079 2190.987305,1523.245728 2193.405273,1527.917847 
	C2195.343506,1531.663086 2197.830078,1535.348633 2198.735840,1539.362427 
	C2201.491943,1551.574951 2206.836670,1562.021362 2217.965820,1568.319580 
	C2227.759033,1573.862183 2233.775391,1581.973267 2238.041504,1592.141846 
	C2240.663818,1598.391724 2244.803955,1603.951050 2252.000000,1606.000000 
z"/>


<path 
	data-name="Tokombéré"
fill="#DF63E6" opacity="1.000000" stroke="none" 
	d="
M964.888306,2756.000000 
	C964.037476,2754.966064 964.528931,2753.387451 964.042480,2752.982178 
	C958.714783,2748.541504 953.565308,2744.299072 945.964478,2743.367432 
	C939.546021,2742.580566 933.167419,2739.995117 927.197998,2737.270264 
	C898.880920,2724.344482 869.227234,2716.266113 838.501831,2711.780762 
	C835.604797,2711.358398 832.700195,2710.409668 830.019775,2709.211670 
	C825.469971,2707.177734 821.108093,2704.726562 816.645935,2702.492920 
	C797.300720,2692.808594 797.306641,2692.861572 775.802917,2696.867432 
	C766.683411,2698.566406 757.552979,2700.279785 748.363647,2701.509521 
	C739.908813,2702.640625 731.321594,2700.982178 724.223877,2696.940186 
	C713.901917,2691.061279 703.997620,2684.319336 695.855347,2675.188965 
	C668.870117,2644.928223 641.547852,2614.968018 614.367554,2584.881348 
	C611.919189,2582.170898 610.011292,2578.709717 607.083191,2576.741699 
	C595.063965,2568.662354 593.336121,2556.878418 593.534485,2543.735352 
	C593.719421,2531.481689 592.524719,2519.212402 592.470581,2506.947266 
	C592.452271,2502.795410 593.465332,2498.391113 595.050903,2494.530762 
	C598.624634,2485.829590 600.710327,2477.166992 600.622498,2467.551270 
	C600.548035,2459.401367 602.431702,2451.078613 604.483337,2443.098145 
	C608.312317,2428.203857 611.289001,2413.370361 607.942505,2397.139648 
	C644.711548,2375.661133 681.616943,2355.024170 718.509033,2334.363525 
	C732.163086,2326.717041 745.672119,2318.801025 759.477539,2311.439697 
	C765.213135,2308.381104 769.820374,2304.545898 773.728394,2299.373047 
	C799.418335,2265.367432 825.575623,2231.709473 850.908691,2197.441895 
	C860.604675,2184.325928 873.325195,2174.788330 885.215393,2164.197998 
	C892.173035,2158.000977 899.681763,2152.416992 906.554443,2146.132568 
	C910.351868,2142.660400 914.192139,2141.312744 919.217834,2142.159424 
	C940.185730,2145.692139 961.297424,2148.497803 982.107300,2152.780518 
	C990.744080,2154.558105 998.843811,2159.174561 1007.037964,2162.835449 
	C1047.158691,2180.759521 1087.353271,2198.528320 1127.229370,2216.983887 
	C1137.112549,2221.558105 1147.157227,2224.186523 1157.731812,2225.496094 
	C1181.472046,2228.436279 1205.233887,2231.200928 1228.973145,2234.148193 
	C1247.759888,2236.481201 1266.476562,2239.515381 1285.315430,2241.250732 
	C1303.189575,2242.897217 1321.177124,2243.370605 1339.123535,2244.166016 
	C1372.363892,2245.639404 1405.614624,2246.879883 1438.851929,2248.416016 
	C1449.124146,2248.890869 1459.366577,2250.009277 1470.325073,2251.398193 
	C1467.949463,2255.742188 1465.616699,2261.317139 1461.653076,2262.962402 
	C1449.952148,2267.818604 1442.378662,2276.948730 1434.673828,2286.008057 
	C1426.935913,2295.105957 1419.448364,2304.470459 1412.559204,2314.218506 
	C1408.008911,2320.657227 1404.708862,2327.979492 1400.266113,2335.952637 
	C1396.919067,2336.141602 1392.340210,2336.400146 1388.599121,2336.611328 
	C1385.238647,2348.773682 1382.113281,2360.459229 1378.760864,2372.079346 
	C1376.742065,2379.076416 1375.375000,2386.523193 1371.934814,2392.790771 
	C1365.909668,2403.767578 1366.110596,2415.808350 1364.174561,2427.461182 
	C1363.013428,2434.451904 1360.311401,2438.931885 1353.116943,2440.750000 
	C1348.658936,2441.876709 1344.625000,2444.613281 1340.192749,2445.924072 
	C1331.986816,2448.350586 1326.819092,2454.264648 1322.034912,2460.701904 
	C1321.114746,2461.940186 1320.283936,2463.768799 1320.447754,2465.207275 
	C1321.974365,2478.615234 1313.524170,2488.395996 1308.233154,2499.293701 
	C1304.920654,2506.116699 1299.869019,2510.906494 1292.281128,2513.268311 
	C1283.326782,2516.055420 1276.509521,2522.621582 1272.213135,2530.372803 
	C1264.627441,2544.058350 1252.360962,2552.368164 1240.102783,2562.360352 
	C1229.624023,2550.445557 1214.962280,2554.503662 1201.902954,2552.618408 
	C1192.297119,2551.232178 1182.787476,2550.628906 1174.533203,2544.996338 
	C1169.029419,2541.240479 1163.504761,2541.150635 1157.594849,2543.958496 
	C1152.198364,2546.522461 1146.656372,2548.779541 1141.184570,2551.185791 
	C1139.359863,2551.987793 1137.541138,2553.575684 1135.741577,2553.544189 
	C1117.479736,2553.226807 1106.412720,2568.875732 1090.496948,2573.953613 
	C1086.518555,2575.222900 1083.718872,2580.919678 1080.914673,2584.954834 
	C1077.230713,2590.255859 1072.703491,2594.114746 1067.121094,2597.516846 
	C1056.385498,2604.060059 1044.994141,2609.967773 1036.743408,2619.889404 
	C1034.271118,2622.862305 1032.139771,2626.271484 1030.572021,2629.800293 
	C1028.968018,2633.410889 1028.209717,2637.403076 1027.145996,2641.246094 
	C1021.531006,2661.530029 1011.118835,2679.184326 996.848450,2694.427979 
	C988.894165,2702.925049 986.161194,2713.390869 983.847290,2724.003662 
	C981.665405,2734.011230 980.686768,2744.281006 979.589355,2755.217773 
	C975.258850,2756.000000 970.517761,2756.000000 964.888306,2756.000000 
z"/>

<path 
	data-name="Kolofata"
fill="#6BCC56" opacity="1.000000" stroke="none" 
	d="
M108.231979,1511.153198 
	C109.999168,1508.671875 112.696999,1507.047363 112.874199,1505.183350 
	C113.649269,1497.030640 119.912582,1491.702393 122.657768,1484.637085 
	C122.889313,1484.041138 123.257095,1483.069458 123.645325,1483.026489 
	C131.255905,1482.181274 133.391205,1474.863525 138.146652,1470.696411 
	C143.032639,1466.414917 147.234497,1461.361450 151.955505,1456.877319 
	C153.282120,1455.617065 155.484863,1454.305176 157.110580,1454.497559 
	C165.410873,1455.479736 171.204636,1450.779175 177.542572,1446.710938 
	C181.522095,1444.156494 186.308777,1442.859497 191.376755,1440.727661 
	C192.396255,1441.888916 193.830750,1443.522827 195.072495,1444.937256 
	C204.058151,1441.787842 208.210236,1435.186890 208.182968,1425.132202 
	C212.070816,1424.552368 215.549942,1424.033447 219.815460,1423.397339 
	C219.815460,1421.405762 219.349442,1419.078369 219.919647,1417.040771 
	C220.886597,1413.585205 221.711914,1409.533081 224.045715,1407.151855 
	C227.282440,1403.849243 232.593460,1403.296997 231.941513,1396.171021 
	C231.552734,1391.921631 235.414413,1387.287842 237.327530,1382.810669 
	C237.427750,1382.576050 237.173157,1382.189697 236.956375,1381.424438 
	C235.546371,1380.712524 233.852859,1379.857422 231.453690,1378.645996 
	C231.453690,1375.078247 231.206512,1371.151123 231.522156,1367.270020 
	C231.847824,1363.265625 232.476761,1358.913330 237.247253,1357.724365 
	C244.429718,1355.933960 246.141220,1350.494507 247.023911,1344.301147 
	C247.485336,1341.063599 247.914734,1337.821411 248.191772,1335.799072 
	C259.883209,1331.504761 270.740570,1327.516846 281.863861,1323.431152 
	C282.077667,1320.281250 282.275299,1317.369751 282.500122,1314.057617 
	C291.445953,1310.549561 300.119537,1306.840942 305.951080,1298.623413 
	C308.499176,1295.032593 310.956665,1292.106445 310.069366,1287.117798 
	C308.973175,1280.954468 310.087219,1275.291992 316.638428,1271.885742 
	C318.219177,1271.063721 319.059692,1268.231812 319.594116,1266.157593 
	C320.074707,1264.292358 319.810333,1262.185547 319.629822,1260.207520 
	C318.380432,1246.516479 319.120789,1245.086548 329.247864,1239.734009 
	C333.032654,1231.562256 335.684845,1224.635986 339.396179,1218.333130 
	C341.227905,1215.222412 341.875397,1212.726807 341.543579,1209.181641 
	C340.438934,1197.379517 342.232819,1186.230591 350.875641,1177.168579 
	C351.304291,1176.719116 351.572784,1176.031494 351.716370,1175.408569 
	C353.768860,1166.505859 359.828705,1163.042114 368.483154,1163.517212 
	C370.122070,1158.753174 371.702759,1154.454712 373.055450,1150.085693 
	C373.626678,1148.240723 374.348450,1146.095825 373.928497,1144.344604 
	C370.162750,1128.641479 375.851990,1116.229492 386.981873,1105.619751 
	C389.671448,1103.055664 390.779663,1100.131348 391.762115,1096.395020 
	C392.843872,1092.280762 392.502869,1084.598877 401.103363,1086.298584 
	C405.297913,1078.982422 399.759918,1066.096802 414.650269,1064.698120 
	C413.758575,1059.837280 412.988647,1055.639893 411.974030,1050.108887 
	C412.785248,1049.565674 415.122345,1048.000488 417.686584,1046.283203 
	C417.583832,1045.481445 417.498077,1044.557495 417.342926,1043.645508 
	C416.657715,1039.618408 412.958557,1036.066895 415.639832,1031.442993 
	C416.087708,1030.670654 415.505524,1028.743164 414.763214,1027.930298 
	C410.303955,1023.046875 413.991730,1017.544128 415.958466,1014.584900 
	C418.954102,1010.077271 419.005798,1005.576050 419.983307,1000.960693 
	C420.770752,997.242615 421.586365,993.530457 422.633148,988.688782 
	C420.986176,985.022339 418.747284,980.038147 416.268127,974.519043 
	C428.994141,969.987854 437.118561,962.879211 437.916290,948.730591 
	C443.979095,943.704224 450.970886,937.907654 459.229279,931.061035 
	C459.229279,934.887085 459.229279,937.078064 459.229279,939.910217 
	C461.279572,939.341797 463.283051,939.186646 464.858978,938.284546 
	C475.349976,932.279602 483.733429,932.941223 492.227264,941.273132 
	C494.840027,943.836060 496.187561,945.123169 499.082458,941.619690 
	C503.290253,936.527161 508.264160,943.579407 513.748291,939.627930 
	C513.086548,943.834778 512.709839,946.229492 512.191467,949.524902 
	C525.144714,943.113708 536.890930,947.514954 548.399902,951.646729 
	C551.019897,952.587280 552.509033,956.677917 554.480591,959.268616 
	C555.872681,956.940491 557.064331,952.638855 558.894836,952.347229 
	C563.250488,951.653259 563.000366,956.305054 564.186096,959.276367 
	C566.367249,964.741821 569.185608,968.580444 576.579956,968.057861 
	C582.081543,967.669006 587.780151,969.583923 592.519104,973.994934 
	C596.217041,977.436829 601.529724,979.106873 606.012390,981.754761 
	C609.588379,983.866943 612.760803,986.795898 616.513733,988.453613 
	C644.190613,1000.678467 671.962891,1012.687622 699.726807,1024.714722 
	C701.521179,1025.492065 704.036499,1026.893188 705.296387,1026.237183 
	C712.285095,1022.598083 719.203735,1025.836182 725.506714,1027.153442 
	C733.903870,1028.908447 741.689880,1033.631226 749.703186,1037.159302 
	C753.176697,1038.688599 756.415771,1040.950562 760.019409,1041.941040 
	C766.804016,1043.805664 773.775818,1044.989380 781.670776,1046.669189 
	C782.016663,1050.503906 781.602905,1055.293579 783.061951,1059.421387 
	C784.483826,1063.444092 787.821411,1066.789795 791.230591,1071.764404 
	C805.005066,1070.252197 818.891113,1075.500366 833.448364,1082.255981 
	C832.184265,1073.182251 837.552307,1069.800171 843.485413,1066.279175 
	C849.124207,1062.932983 854.170410,1058.580444 859.436035,1054.615845 
	C862.576538,1052.251465 865.637939,1049.782104 867.909973,1048.005005 
	C873.378296,1049.763428 878.128174,1050.449707 881.879700,1052.758301 
	C884.984802,1054.669067 887.938171,1058.134033 889.137634,1061.549927 
	C891.346924,1067.841797 894.993774,1071.666992 901.428650,1072.741699 
	C902.190369,1075.748291 902.596008,1078.724976 903.708984,1081.408203 
	C905.237854,1085.094116 907.113953,1088.013916 912.134949,1088.656860 
	C917.276611,1089.314941 922.359619,1091.610229 927.095703,1093.944824 
	C932.436951,1096.577637 935.241272,1101.563599 936.191895,1107.359985 
	C936.613098,1109.928101 936.262878,1112.622803 936.262878,1115.557251 
	C942.371521,1118.712158 948.393982,1122.213501 954.727905,1125.009155 
	C966.388245,1130.155762 979.146851,1129.268677 991.425598,1131.016113 
	C995.294312,1131.566650 999.313416,1131.285156 1003.103821,1132.114624 
	C1010.825928,1133.804810 1018.410400,1136.114502 1026.108765,1137.925903 
	C1030.417847,1138.939941 1034.009399,1140.430420 1037.055054,1144.088013 
	C1041.020996,1148.850830 1045.667725,1153.160156 1050.519409,1157.042480 
	C1056.220947,1161.604858 1062.456421,1165.500244 1069.066406,1169.950195 
	C1059.810669,1217.319580 1050.580322,1264.567383 1039.902954,1311.485962 
	C1029.952637,1355.209717 1019.426880,1398.853394 1007.322754,1442.018799 
	C998.804810,1472.395386 987.235840,1501.917480 976.999146,1531.810791 
	C963.206970,1572.087646 949.807251,1612.507446 935.275269,1652.515869 
	C931.735107,1662.262451 924.816956,1670.907227 918.797485,1679.605835 
	C895.698303,1712.986084 872.335449,1746.184082 849.066040,1779.446411 
	C830.564819,1805.893433 812.134094,1832.390381 793.468567,1858.721069 
	C790.618896,1862.740845 787.024292,1866.424316 783.171997,1869.511963 
	C741.640320,1902.797729 699.948669,1935.883789 658.380432,1969.124268 
	C619.927856,1999.873413 581.746826,2030.966064 543.037842,2061.387939 
	C534.502686,2068.095703 524.455872,2073.017090 514.738586,2078.053955 
	C497.321777,2087.081543 479.626709,2095.572510 461.344940,2104.455566 
	C440.132660,2041.040527 419.615417,1977.460571 399.119751,1913.873657 
	C394.124023,1898.374756 389.295135,1882.821289 384.187195,1867.359741 
	C382.470642,1862.163940 381.349823,1857.142700 383.473480,1851.820557 
	C383.953766,1850.616821 384.033691,1849.206421 384.079437,1847.883545 
	C384.562469,1833.910400 390.586304,1823.619385 402.914185,1816.399048 
	C410.002655,1812.247437 412.403748,1800.240234 409.203094,1792.674194 
	C407.649597,1789.001953 405.804565,1785.417969 404.626892,1781.627808 
	C399.050018,1763.679077 385.013184,1751.940186 373.122925,1738.693848 
	C366.321472,1731.117188 360.487488,1723.233643 358.812073,1712.975220 
	C356.189819,1696.918945 349.588104,1682.792236 340.109985,1669.537842 
	C332.984100,1659.572754 327.571869,1648.387817 321.288208,1637.810425 
	C319.960144,1635.574707 318.526215,1632.315552 316.516174,1631.750366 
	C304.875092,1628.477173 297.839569,1618.272827 287.345398,1613.197266 
	C276.900909,1608.145752 267.084229,1601.738892 257.226227,1595.553467 
	C251.196350,1591.770142 244.653275,1590.392090 237.912323,1588.619995 
	C231.879898,1587.034302 227.103149,1581.115234 221.119980,1578.778564 
	C214.730499,1576.283325 207.627136,1575.316650 200.738541,1574.505981 
	C196.321167,1573.986206 193.447388,1572.313721 190.979691,1568.730469 
	C177.010422,1548.445923 155.538818,1540.423462 133.148132,1534.477173 
	C127.113152,1532.874390 121.883896,1531.160278 117.698044,1526.386475 
	C115.309723,1523.662720 112.239677,1521.536621 109.063309,1518.661865 
	C108.434196,1516.088135 108.218369,1513.993896 108.231979,1511.153198 
z"/>
</svg>