<svg version="1.1" id="Layer_1" xmlns="http://www.w3.org/2000/svg" xmlns:xlink="http://www.w3.org/1999/xlink" x="0px" y="0px"
	 width="100%" viewBox="0 0 2158 3181" enable-background="new 0 0 2158 3181" xml:space="preserve">

<path 
	data-name="Mokolo"
fill="#388A5E" opacity="1.000000" stroke="none" 
	d="
M2160.000000,1968.000000 
	C2160.000000,1975.385864 2160.000000,1982.771606 2159.550049,1991.307617 
	C2159.400146,1992.971802 2159.699951,1993.485962 2160.000000,1994.000000 
	C2160.000000,1994.888916 2160.000000,1995.777832 2159.322754,1997.000977 
	C2157.399902,1998.379028 2155.779785,1999.190796 2154.968262,2000.502808 
	C2148.036133,2011.706543 2137.823975,2014.503906 2125.739502,2011.652588 
	C2120.620605,2010.445068 2115.612549,2008.418457 2110.841064,2006.158691 
	C2099.994629,2001.021973 2089.449707,1998.750488 2079.163574,2007.304932 
	C2078.152344,2008.145752 2076.953369,2008.844849 2075.730957,2009.334106 
	C2059.080811,2015.999756 2048.523438,2028.919312 2039.687622,2043.819946 
	C2033.759277,2053.817627 2027.451660,2063.604736 2020.967773,2073.253418 
	C2016.996948,2079.162842 2013.188843,2080.498779 2008.600586,2077.636719 
	C1996.669556,2070.194336 1983.180298,2069.034668 1970.146240,2070.383545 
	C1953.677124,2072.087891 1937.723022,2070.298096 1921.581543,2068.353027 
	C1914.043213,2067.444580 1906.387573,2066.452148 1898.851074,2066.826660 
	C1886.580933,2067.436768 1875.669556,2072.360107 1866.231201,2080.235840 
	C1861.666626,2084.044922 1856.577759,2087.622314 1853.196167,2092.354980 
	C1848.604370,2098.781250 1845.244751,2106.127441 1841.740967,2113.267578 
	C1840.669189,2115.451660 1839.853516,2118.648926 1840.656128,2120.704834 
	C1843.501709,2127.995850 1844.499390,2135.381348 1844.420654,2143.145996 
	C1844.392456,2145.940674 1845.959595,2148.843018 1847.148926,2151.541748 
	C1851.440918,2161.279053 1855.751587,2171.012451 1860.325806,2180.618652 
	C1862.411377,2184.998291 1862.524170,2188.372803 1858.978149,2192.339600 
	C1856.021606,2195.646729 1853.724365,2199.930420 1852.356934,2204.175049 
	C1850.559814,2209.753418 1848.264160,2214.446045 1843.060425,2217.599365 
	C1837.968872,2220.685059 1835.145630,2225.482910 1834.111816,2231.366211 
	C1832.739502,2239.175293 1831.442261,2247.003174 1829.809937,2254.759277 
	C1827.979858,2263.455811 1824.700439,2272.005127 1824.103027,2280.758545 
	C1823.501953,2289.566650 1825.493164,2298.541016 1826.219727,2307.453125 
	C1827.184692,2319.287598 1822.623657,2331.072510 1825.973999,2343.011963 
	C1826.493408,2344.862549 1825.136108,2347.526855 1824.056274,2349.489990 
	C1818.946289,2358.780273 1813.609375,2367.945312 1808.404053,2377.183594 
	C1806.954346,2379.757080 1805.300781,2382.303711 1804.388672,2385.075928 
	C1800.796875,2395.990967 1797.658447,2407.056885 1793.986816,2417.943848 
	C1788.899658,2433.027832 1783.489014,2448.002930 1778.203491,2463.019775 
	C1777.323853,2465.518799 1776.375977,2467.994141 1774.558105,2470.470703 
	C1758.994507,2470.304688 1744.331909,2470.021729 1729.670410,2470.067383 
	C1725.057007,2470.081787 1721.506470,2468.824707 1718.086182,2465.580566 
	C1670.224854,2420.184570 1621.317749,2375.878174 1575.619141,2328.235352 
	C1560.166382,2312.125244 1544.591675,2296.129883 1528.903198,2280.250000 
	C1525.189331,2276.490723 1521.031494,2273.057373 1516.670654,2270.068115 
	C1484.529541,2248.035645 1452.331421,2226.084717 1420.037476,2204.276855 
	C1412.884277,2199.446533 1405.635132,2194.499512 1397.818359,2190.955566 
	C1364.474243,2175.838379 1330.936768,2161.144043 1297.360840,2146.545898 
	C1293.550537,2144.889404 1289.039551,2144.064697 1284.877930,2144.143311 
	C1272.568848,2144.375977 1260.272949,2145.279053 1247.969971,2145.877197 
	C1222.366943,2147.121582 1196.766479,2148.432617 1171.155273,2149.484375 
	C1166.231689,2149.686768 1161.205566,2149.190674 1156.328125,2148.395264 
	C1139.928101,2145.719971 1123.573975,2142.763672 1107.249878,2139.059326 
	C1108.034546,2134.285156 1108.673218,2130.345215 1109.523804,2126.451416 
	C1119.102661,2082.600098 1128.771973,2038.768433 1138.267822,1994.899048 
	C1140.124878,1986.320068 1143.332153,1978.577393 1148.296997,1971.247437 
	C1169.408813,1940.079224 1190.192017,1908.688477 1211.104614,1877.385132 
	C1213.692017,1873.512451 1215.274658,1869.970215 1214.590210,1864.619507 
	C1210.036987,1829.023438 1206.068481,1793.350708 1202.183960,1757.672974 
	C1201.673706,1752.986450 1199.622925,1750.585449 1195.608765,1748.756958 
	C1187.729736,1745.168457 1180.016357,1741.217285 1172.219971,1737.446167 
	C1092.768677,1699.014893 1013.295898,1660.627808 933.919189,1622.043335 
	C930.222229,1620.246216 926.643005,1617.228394 924.239746,1613.892578 
	C875.369629,1546.057739 826.716675,1478.066772 777.923096,1410.176758 
	C767.634399,1395.861328 756.961853,1381.821899 746.911621,1367.192505 
	C751.461060,1364.054932 756.082764,1361.916382 759.543640,1358.575562 
	C764.320679,1353.963989 769.670654,1351.399658 776.026001,1349.914551 
	C781.136047,1348.720337 786.137878,1346.758179 790.926331,1344.565918 
	C797.626038,1341.498413 800.272888,1336.134521 800.456787,1328.542358 
	C800.617554,1321.904785 796.403259,1319.155884 792.459900,1315.723633 
	C786.021667,1310.119751 785.664856,1304.193604 793.038269,1301.100098 
	C802.009888,1297.336060 805.194946,1290.949951 806.856018,1282.320435 
	C807.722778,1277.817627 809.832947,1273.498413 811.757996,1269.267456 
	C815.150391,1261.811523 816.693176,1254.492798 814.667175,1246.111328 
	C813.414307,1240.928711 814.385498,1234.972046 820.881592,1231.564941 
	C822.956177,1234.362183 824.819580,1236.874512 826.922302,1239.709595 
	C829.086731,1237.381104 831.032349,1235.550659 832.659302,1233.470825 
	C834.666504,1230.905029 836.024658,1226.867920 840.034363,1228.035645 
	C842.572754,1228.775024 844.544495,1231.459839 847.003723,1233.462036 
	C851.215088,1222.991821 855.412354,1212.580688 859.570251,1202.153931 
	C859.800781,1201.575684 859.804077,1200.857788 859.744507,1200.220581 
	C859.166626,1194.033447 858.669373,1187.835327 857.905457,1181.670410 
	C857.444031,1177.946899 856.552673,1174.276611 855.678345,1169.649780 
	C859.835876,1161.068848 868.185608,1156.188721 877.735596,1152.763794 
	C883.002930,1150.875000 885.920532,1146.892578 885.981750,1141.416138 
	C886.047913,1135.500366 880.710144,1134.119507 876.632690,1132.351685 
	C873.079773,1130.811401 869.015137,1130.451660 864.978210,1129.524658 
	C864.270386,1126.378540 863.633484,1123.547363 862.861938,1120.117676 
	C853.460938,1119.131958 844.369446,1118.178711 835.048767,1117.201416 
	C841.919800,1101.889771 848.480408,1086.773438 855.476807,1071.861450 
	C859.812317,1062.620728 865.174438,1053.856812 869.407043,1044.573975 
	C873.641846,1035.286377 876.038574,1033.727783 885.650757,1035.705566 
	C890.181763,1036.637695 894.861511,1036.823364 899.446167,1037.527466 
	C902.025635,1037.923584 905.096985,1037.967041 906.997864,1039.415039 
	C913.557312,1044.411621 919.710144,1043.094727 926.405151,1039.815186 
	C934.632080,1035.785156 935.582886,1033.635498 934.660339,1024.344238 
	C934.227539,1019.985046 934.635742,1014.598816 936.884644,1011.110352 
	C941.770874,1003.530640 943.332825,996.048767 940.836731,987.504456 
	C939.594482,983.252014 940.587891,980.283813 945.713989,979.936951 
	C946.940186,979.853882 948.123657,979.138977 949.607483,978.615662 
	C951.050781,969.188721 952.867859,960.085266 960.839355,953.747009 
	C962.260376,952.617188 962.839661,950.332947 963.612610,948.499512 
	C968.119751,937.808167 972.791016,936.107056 983.716797,941.012024 
	C986.101074,942.082397 988.798889,943.350220 991.261719,943.184082 
	C999.163757,942.651062 1007.023315,941.488647 1016.351196,940.399597 
	C1017.501465,934.623535 1019.688538,928.278137 1019.834839,921.885986 
	C1020.093872,910.569702 1021.427856,908.165100 1032.438599,908.107666 
	C1042.745972,908.053833 1050.954590,903.189636 1058.919922,897.680359 
	C1060.551392,896.551941 1061.646851,894.032837 1062.128174,891.955200 
	C1065.931641,875.536926 1069.562744,859.078125 1073.141968,842.609070 
	C1073.629272,840.366699 1074.066040,837.891479 1073.624756,835.705994 
	C1071.251831,823.949158 1071.467529,812.472168 1073.229492,800.462646 
	C1074.423584,792.323608 1077.222168,786.956787 1083.191040,782.198853 
	C1085.091187,780.684143 1086.902588,778.409119 1087.571411,776.134216 
	C1088.961304,771.406128 1089.401245,766.408630 1090.519287,761.588562 
	C1092.456421,753.236816 1093.812500,744.627563 1096.872070,736.688904 
	C1101.000854,725.976013 1100.551147,717.720276 1093.370850,707.490906 
	C1084.505737,694.861511 1075.371460,683.997070 1060.880981,678.151001 
	C1058.963623,677.377502 1056.083984,674.810425 1056.317017,673.578735 
	C1057.622314,666.679138 1051.295654,665.945923 1048.187256,662.932190 
	C1050.266357,655.886780 1050.014160,656.000977 1047.195435,649.776367 
	C1045.734253,646.549194 1044.038818,642.548706 1044.727051,639.394531 
	C1046.695435,630.373413 1046.241211,621.698914 1044.627808,612.712708 
	C1043.108643,604.251038 1048.091553,598.927429 1056.803833,598.561523 
	C1059.350708,598.454590 1062.187500,599.889221 1064.440918,599.181885 
	C1070.640625,597.235901 1076.601562,594.529175 1083.333252,591.854736 
	C1082.271118,583.450134 1087.077393,577.600647 1092.919067,571.684082 
	C1096.958740,567.592590 1099.499756,561.917969 1102.277954,556.719543 
	C1104.263672,553.003967 1105.531982,548.904846 1107.163452,544.870300 
	C1106.093628,542.457581 1104.064331,539.828491 1103.853271,537.060730 
	C1103.031250,526.282349 1102.707275,515.462158 1102.417847,504.651642 
	C1102.377930,503.160126 1103.408081,501.539581 1104.223145,500.142365 
	C1108.520630,492.776062 1112.907715,485.462189 1117.523438,477.692902 
	C1122.275635,478.106903 1126.828247,478.702057 1131.396484,478.867157 
	C1151.232056,479.583862 1170.879883,481.313446 1189.632690,488.543518 
	C1191.144165,489.126251 1193.012939,489.980621 1194.371338,489.569946 
	C1204.072388,486.637115 1214.692871,492.616547 1224.096191,486.409668 
	C1225.087769,485.755157 1227.484741,486.424988 1228.798950,487.205719 
	C1234.123779,490.368683 1239.603149,488.613922 1245.089233,488.227692 
	C1255.575439,487.489471 1266.073853,486.923492 1276.558838,487.051666 
	C1278.661133,498.801147 1280.771851,509.784943 1282.773926,520.203735 
	C1273.846802,527.246460 1273.947144,527.219543 1276.698975,537.476379 
	C1278.395874,543.800781 1281.384888,549.959167 1279.297852,556.862244 
	C1274.127319,573.964600 1269.013062,591.084534 1263.978271,608.227417 
	C1261.280762,617.411621 1258.794312,626.657776 1255.858154,636.542664 
	C1249.071899,653.155029 1247.864014,671.023743 1237.525024,685.552124 
	C1234.164185,690.274719 1236.485474,695.149414 1239.753906,698.244812 
	C1245.313843,703.510559 1245.062012,709.692322 1243.613770,715.751648 
	C1239.683472,732.197083 1235.842651,748.743347 1225.708008,762.916992 
	C1223.831299,765.541504 1222.590088,768.842957 1221.846924,772.017273 
	C1218.442627,786.561096 1215.444092,801.200012 1212.031006,815.741699 
	C1210.772827,821.102600 1213.365479,824.267761 1216.647705,827.949646 
	C1230.797729,843.822876 1250.830688,850.392029 1268.217529,861.123962 
	C1269.281738,861.780823 1270.775269,861.730713 1272.060913,862.042542 
	C1278.160889,863.521912 1284.613770,864.201843 1290.275879,866.683533 
	C1299.506836,870.729309 1308.551514,874.354309 1318.902466,874.327393 
	C1325.489258,874.310242 1332.065186,875.795471 1338.670776,876.246887 
	C1352.641846,877.201660 1359.311768,888.283630 1352.912354,900.490845 
	C1350.917480,904.295776 1348.580078,908.021973 1345.833496,911.311768 
	C1339.193115,919.265198 1338.599731,927.825439 1341.467773,937.448181 
	C1344.915283,949.015625 1350.641846,958.969360 1360.846924,965.488464 
	C1368.476807,970.362427 1369.070679,977.539673 1369.858154,985.237854 
	C1370.582886,992.322876 1365.441162,994.869568 1361.178833,998.555847 
	C1352.373779,1006.171143 1343.610962,1013.884705 1335.432617,1022.153137 
	C1331.790771,1025.835205 1328.854370,1030.655029 1326.909546,1035.486572 
	C1322.449097,1046.566772 1327.764160,1059.614990 1338.866821,1064.267334 
	C1348.323853,1068.230103 1358.699585,1070.113525 1367.926514,1074.484009 
	C1378.944214,1079.702393 1390.195068,1080.549805 1401.938232,1080.251221 
	C1407.061279,1080.120972 1411.699707,1079.384277 1416.023926,1076.295898 
	C1422.087769,1071.965088 1428.795410,1069.224487 1436.530151,1069.810547 
	C1440.203735,1070.088745 1442.406616,1067.987061 1444.691895,1065.149292 
	C1448.806396,1060.039917 1453.216797,1054.997070 1458.257935,1050.841675 
	C1468.512329,1042.389038 1479.542969,1034.881104 1487.241943,1023.673950 
	C1491.187988,1017.930054 1496.502563,1017.357727 1503.109497,1019.390076 
	C1518.671997,1024.177246 1534.438110,1028.302368 1550.465332,1033.314941 
	C1557.751343,1059.512085 1565.277344,1084.945068 1569.476562,1111.189575 
	C1571.517090,1123.942139 1574.997559,1136.602417 1575.624512,1149.412231 
	C1576.714966,1171.689575 1579.470459,1193.632812 1584.316528,1215.341675 
	C1585.960693,1222.707397 1587.063965,1230.166138 1592.145264,1236.547607 
	C1600.208252,1246.673584 1607.318726,1257.553711 1615.239136,1267.800049 
	C1617.582642,1270.831909 1620.995972,1273.383057 1624.432617,1275.163330 
	C1639.214355,1282.820068 1654.159424,1290.164795 1669.116577,1297.476685 
	C1671.759521,1298.768799 1674.704834,1299.513428 1677.576416,1300.256348 
	C1723.504150,1312.138306 1769.786133,1322.668701 1815.034424,1337.140869 
	C1822.742065,1339.606079 1829.681885,1342.775757 1836.542236,1346.993530 
	C1877.539673,1372.198975 1915.745117,1400.786621 1947.915405,1436.894653 
	C1948.578979,1437.639526 1949.274414,1438.374268 1950.047241,1438.999512 
	C1951.333984,1440.040649 1952.599243,1441.167114 1954.040894,1441.949219 
	C1967.445435,1449.222290 1980.885742,1456.429321 1994.710327,1463.867920 
	C1995.365845,1462.254150 1995.846313,1461.071167 1996.779419,1460.398560 
	C1997.793091,1465.539185 2001.471313,1467.518066 2004.957397,1469.211792 
	C2015.112305,1474.145752 2025.662354,1478.309814 2035.604736,1483.622925 
	C2042.857178,1487.498901 2050.609863,1491.621460 2055.973633,1497.582886 
	C2064.990234,1507.604614 2074.614990,1516.359375 2086.376465,1522.938354 
	C2088.654541,1524.212769 2090.933105,1527.001587 2091.530029,1529.494385 
	C2093.762451,1538.819336 2095.341797,1548.303101 2097.080322,1557.743042 
	C2098.892090,1567.579712 2098.701904,1576.854248 2090.303467,1584.207764 
	C2088.109619,1586.128784 2086.736084,1588.982910 2084.970947,1591.397705 
	C2076.316406,1603.238281 2070.333252,1616.669556 2062.697266,1629.046387 
	C2055.117676,1641.331421 2053.889404,1654.535767 2052.452637,1667.960205 
	C2052.195068,1670.365356 2054.011963,1673.660645 2055.893555,1675.497314 
	C2060.854004,1680.339600 2066.376709,1684.605957 2072.145508,1689.500366 
	C2069.005127,1694.874756 2066.492432,1700.351929 2062.925293,1705.023804 
	C2056.393555,1713.578979 2055.854004,1723.328613 2055.732666,1733.381104 
	C2055.662842,1739.177002 2057.888916,1742.905029 2063.745850,1744.253784 
	C2075.392822,1746.936523 2084.822754,1753.020996 2093.310547,1761.550903 
	C2101.451172,1769.731934 2111.545166,1771.432495 2122.391113,1765.842773 
	C2124.872803,1764.563843 2128.198242,1763.755737 2130.861328,1764.239502 
	C2136.387451,1765.243530 2141.848877,1766.944458 2147.116943,1768.939331 
	C2153.551270,1771.375977 2155.940430,1776.147583 2153.214600,1782.461426 
	C2151.019775,1787.545898 2147.551025,1792.145630 2144.253174,1796.673462 
	C2139.406982,1803.327515 2132.958252,1808.654175 2129.732422,1816.689941 
	C2126.151611,1825.609375 2122.324219,1834.653687 2117.054688,1842.618652 
	C2109.250488,1854.414795 2107.256592,1867.134399 2107.863770,1880.653809 
	C2107.993408,1883.541870 2108.597412,1886.770020 2110.076172,1889.167603 
	C2114.431641,1896.230957 2116.231689,1903.810791 2115.700195,1911.924072 
	C2115.393799,1916.599365 2117.407959,1919.544556 2121.259521,1921.558838 
	C2129.193604,1925.707397 2136.888916,1930.515259 2145.209961,1933.652588 
	C2151.218750,1935.918335 2153.713135,1939.488892 2154.073975,1945.234131 
	C2154.345215,1949.547363 2153.608887,1954.010620 2154.459229,1958.174561 
	C2155.196289,1961.782715 2153.707031,1967.302490 2160.000000,1968.000000 
z"/>

<path 
	data-name="Bourrha"
fill="#325887" opacity="1.000000" stroke="none" 
	d="
M1155.913330,2701.981201 
	C1150.879883,2706.045410 1145.085815,2703.675781 1139.663940,2703.655029 
	C1134.426880,2703.634521 1129.204956,2702.266846 1123.956421,2702.092529 
	C1116.071533,2701.830322 1109.195435,2699.866943 1102.813599,2694.744629 
	C1097.195312,2690.234619 1090.668823,2686.717285 1084.203491,2683.430176 
	C1070.284668,2676.353516 1056.056274,2669.884766 1042.145752,2662.792480 
	C1036.823364,2660.079102 1031.665649,2659.358887 1025.805908,2660.121826 
	C1018.923828,2661.017578 1011.843933,2661.870605 1004.999695,2661.203857 
	C996.609924,2660.386719 989.330444,2662.620605 982.095276,2666.111572 
	C975.518677,2669.285156 969.128357,2672.976318 962.300720,2675.464600 
	C953.497070,2678.673340 947.010193,2684.097900 944.734924,2693.046631 
	C941.394409,2706.185059 938.662598,2719.509277 936.428528,2732.880859 
	C935.661865,2737.469482 934.505798,2741.161621 930.912231,2744.033936 
	C929.611572,2745.073486 928.325378,2746.140137 927.115234,2747.282227 
	C917.449158,2756.403564 906.959229,2760.816162 893.866211,2754.197754 
	C890.074951,2752.281250 885.667419,2751.343506 881.429688,2750.596436 
	C868.796143,2748.368652 858.780762,2742.268555 849.979919,2732.833252 
	C845.677917,2728.221191 839.133667,2724.620605 832.967651,2723.028564 
	C813.955078,2718.120361 798.137573,2706.829346 780.842590,2698.539551 
	C767.603149,2692.193604 754.074890,2687.708984 739.460876,2684.912842 
	C726.707031,2682.472656 714.812195,2675.464355 702.603943,2670.317383 
	C700.199646,2669.303955 698.097107,2667.574707 695.441467,2665.917236 
	C687.470825,2672.665039 683.748230,2681.637207 679.890137,2690.820068 
	C674.881653,2702.740723 669.025696,2714.328857 663.021912,2725.791748 
	C661.468201,2728.758301 658.390442,2731.528320 655.342407,2733.001709 
	C644.640015,2738.176025 638.559631,2746.451660 636.207397,2757.952881 
	C633.866272,2769.399414 630.390137,2780.375732 623.236328,2789.998535 
	C618.277039,2796.669434 619.178833,2804.712646 620.750793,2812.135254 
	C622.523438,2820.504883 622.800110,2828.621094 620.518311,2836.786133 
	C619.045593,2842.055908 620.090942,2846.328125 623.638672,2850.608887 
	C629.786316,2858.027100 637.095520,2863.177490 646.525940,2865.545166 
	C650.607422,2866.569824 654.873291,2867.996582 658.283386,2870.356445 
	C671.361145,2879.406494 685.510498,2885.459229 701.244995,2888.014648 
	C703.939453,2888.451904 707.192566,2889.967773 708.757141,2892.057129 
	C715.303162,2900.797607 725.128784,2902.799805 734.579590,2905.853760 
	C744.660278,2909.111084 754.704102,2912.508301 764.643433,2916.171631 
	C778.973389,2921.453613 793.152100,2927.146973 807.500000,2932.377930 
	C810.182312,2933.355713 813.483643,2933.655029 816.283630,2933.126221 
	C835.830139,2929.434082 853.175537,2933.582031 868.033203,2947.026611 
	C880.013733,2957.868164 894.080750,2963.776367 910.025574,2965.989258 
	C916.901245,2966.943359 923.611145,2969.150391 930.360352,2970.924805 
	C932.595581,2971.512695 934.903992,2972.219727 936.862244,2973.398193 
	C948.801331,2980.583252 962.201416,2983.117188 975.534912,2985.986816 
	C980.715454,2987.101807 985.896790,2988.463379 990.852905,2990.314697 
	C999.196838,2993.432373 1001.063354,2996.851318 999.572876,3005.551270 
	C999.021179,3008.771973 997.782227,3011.874756 996.562317,3016.035400 
	C983.918640,3017.854736 971.138184,3019.589844 958.394592,3021.562500 
	C949.540100,3022.933350 940.721497,3024.553955 931.919800,3026.235107 
	C929.662720,3026.666016 927.104065,3027.229004 925.408386,3028.616699 
	C912.257629,3039.378418 896.190735,3042.550537 880.335388,3046.217285 
	C863.831360,3050.033691 847.293457,3053.715576 830.717529,3057.205811 
	C817.215576,3060.048828 805.199646,3058.079102 795.552246,3046.771729 
	C788.976868,3039.065186 779.090027,3038.959717 769.883728,3038.223389 
	C767.997803,3038.072510 764.997864,3039.634521 764.103760,3041.275146 
	C758.206665,3052.094238 747.572205,3052.820068 737.417908,3053.810547 
	C726.788391,3054.847168 716.453674,3056.251221 706.401794,3060.278809 
	C701.989563,3062.046631 696.609131,3062.171875 691.747131,3061.850586 
	C685.460449,3061.434814 681.602539,3063.899902 679.102966,3069.299072 
	C677.564331,3072.622803 675.581421,3075.814941 674.556519,3079.289551 
	C670.904175,3091.672607 662.826904,3100.697510 652.983337,3108.368408 
	C635.564331,3121.942871 626.368347,3140.046631 622.375793,3161.449707 
	C619.702576,3175.779541 616.947266,3177.373535 602.265259,3177.570557 
	C595.077393,3177.667236 588.363464,3176.942383 583.015808,3171.843262 
	C584.350281,3158.165771 585.661133,3144.730713 586.894653,3132.088135 
	C582.362915,3128.286133 578.947327,3126.916504 574.903809,3129.702637 
	C560.688782,3139.496826 544.713928,3140.667480 528.070923,3139.972412 
	C513.780029,3139.375488 499.383545,3139.241455 485.142944,3140.330811 
	C477.384613,3140.924316 469.640228,3143.951660 462.284973,3146.875977 
	C456.015961,3149.368164 450.257385,3151.177002 443.178558,3150.362305 
	C436.803375,3149.628418 429.847748,3150.722656 423.618835,3152.584961 
	C409.610107,3156.773193 395.646881,3161.333252 382.114380,3166.844482 
	C361.032959,3175.430908 339.046112,3177.434814 316.685852,3178.063721 
	C302.747986,3178.455566 288.818634,3179.235840 274.898224,3180.057617 
	C273.137665,3180.161621 271.454651,3181.579590 269.867859,3183.194336 
	C255.291489,3184.000000 240.582993,3184.000000 224.991028,3183.252930 
	C217.435974,3179.922363 215.488480,3174.389160 214.767395,3167.924072 
	C213.190567,3153.786621 211.222244,3139.688477 209.890518,3125.529541 
	C208.884750,3114.836426 207.948486,3104.445312 198.030151,3097.510742 
	C195.990845,3096.084961 194.404312,3093.545166 193.401871,3091.182373 
	C188.799332,3080.334229 181.530731,3071.314209 174.217300,3062.299805 
	C174.073547,3061.912598 173.929779,3061.525635 174.666870,3060.469238 
	C182.724121,3057.162109 189.992920,3054.749023 197.057419,3051.839844 
	C211.450150,3045.912842 226.941879,3042.553223 239.751236,3032.858887 
	C243.708664,3029.863770 246.387894,3026.734375 247.576462,3021.952148 
	C249.498077,3014.220215 251.564697,3006.510254 253.985321,2998.923584 
	C254.958557,2995.873291 256.405334,2992.459717 258.713013,2990.443359 
	C266.696167,2983.468506 274.584900,2976.301514 284.972656,2972.683594 
	C296.274445,2968.747559 307.425507,2964.368164 318.571869,2960.002197 
	C322.578186,2958.433350 326.925568,2957.012451 330.176270,2954.367432 
	C341.634430,2945.044922 342.804871,2947.912109 336.083923,2933.774414 
	C334.516113,2930.476562 333.130463,2927.072510 331.946808,2923.619141 
	C331.333557,2921.830078 330.715332,2919.654297 331.181519,2917.948730 
	C333.620117,2909.031006 335.274017,2899.632812 339.399170,2891.519287 
	C343.266052,2883.913818 344.612457,2876.797363 343.401825,2868.636963 
	C343.067719,2866.384766 343.821472,2863.595215 344.976837,2861.564941 
	C349.260162,2854.038086 355.364624,2849.731445 364.624603,2851.441162 
	C367.201019,2851.916992 369.948914,2851.632324 372.604950,2851.474609 
	C378.624939,2851.117188 380.220551,2849.633789 380.466522,2843.611084 
	C380.573181,2840.999512 380.204437,2838.265137 379.500061,2835.740234 
	C373.163361,2813.025879 366.830414,2790.308594 360.171082,2767.687744 
	C358.884674,2763.318115 356.599823,2759.084229 354.042847,2755.280029 
	C348.851318,2747.555664 343.044800,2740.247314 337.741516,2732.594482 
	C336.107300,2730.236328 334.716675,2727.425537 334.181549,2724.636475 
	C331.039459,2708.257812 329.596649,2691.904541 336.215851,2675.881592 
	C337.220398,2673.449951 337.496429,2670.726074 338.225555,2668.170410 
	C341.050293,2658.270508 342.402008,2647.586914 347.086884,2638.656006 
	C357.392120,2619.010742 366.019196,2598.260742 380.899536,2581.245117 
	C387.244720,2573.989502 393.482758,2566.606934 399.239014,2558.886475 
	C401.455841,2555.913086 403.324860,2551.859131 403.382843,2548.265869 
	C403.510437,2540.354736 402.535431,2532.407715 401.730957,2524.503906 
	C400.794220,2515.301758 400.508820,2505.881348 398.187073,2497.014893 
	C395.850647,2488.092285 391.242065,2479.779785 387.866852,2471.107422 
	C386.318115,2467.127930 383.886597,2464.428711 379.944916,2462.721191 
	C375.814484,2460.932129 371.890503,2458.666504 367.226837,2456.276611 
	C370.277344,2451.557373 372.585266,2447.986816 374.720001,2444.684326 
	C392.881836,2442.880859 410.541779,2441.126953 429.205627,2439.273682 
	C427.048798,2419.106934 425.031006,2400.343018 423.046082,2381.575195 
	C422.733307,2378.617676 422.017029,2375.566406 422.422546,2372.690430 
	C426.123871,2346.439941 423.444855,2320.384521 420.546692,2294.300293 
	C419.971436,2289.122803 420.463684,2283.826660 420.463684,2278.641602 
	C422.597870,2277.588623 424.333069,2276.577393 426.178925,2275.844971 
	C449.667328,2266.524414 473.090454,2257.029297 496.725037,2248.093994 
	C503.182648,2245.652832 507.362091,2242.137939 509.738129,2235.626953 
	C512.467773,2228.147461 516.394897,2221.104492 519.114319,2213.621826 
	C522.712158,2203.722656 528.899536,2196.455078 539.075012,2192.013184 
	C549.036316,2195.662598 558.750793,2198.395752 567.429260,2203.057373 
	C575.863647,2207.588135 584.282104,2208.655029 593.356506,2207.704102 
	C599.308716,2207.080566 604.195007,2209.233398 609.143677,2212.422363 
	C619.465515,2219.074463 630.183777,2225.108398 640.652649,2231.536865 
	C645.165649,2234.308105 649.660339,2237.179443 653.816223,2240.446777 
	C661.112976,2246.183350 668.021545,2252.413818 675.323181,2258.143555 
	C680.938965,2262.550537 686.908569,2266.506836 694.497192,2271.934082 
	C699.062439,2269.616699 706.303894,2267.362061 711.635620,2262.850586 
	C717.446472,2257.933838 723.161133,2255.647705 730.562195,2255.891113 
	C742.354004,2256.279053 753.705994,2254.593018 763.598328,2247.281738 
	C765.705994,2245.723877 768.236572,2244.612793 770.728638,2243.743164 
	C772.463379,2243.137695 775.085144,2242.429199 776.244263,2243.258301 
	C782.641296,2247.832764 788.070190,2245.057617 793.865540,2242.010010 
	C799.085144,2239.264893 804.554993,2238.116699 809.550964,2242.880859 
	C815.473206,2248.528320 818.766663,2257.180664 814.980042,2262.567871 
	C809.697021,2270.084229 812.833862,2274.596191 818.804077,2280.172852 
	C830.949097,2269.089844 846.181213,2268.617676 861.494629,2267.607910 
	C875.697021,2266.671387 889.868347,2264.864014 903.956665,2262.784912 
	C909.855591,2261.914795 914.928101,2262.444092 920.273987,2265.070312 
	C933.397400,2271.517578 946.698120,2277.611084 960.006409,2283.673340 
	C969.470215,2287.984375 973.749695,2295.447021 972.458435,2305.846436 
	C971.560974,2313.075195 970.818176,2320.322754 969.955750,2328.349609 
	C970.460205,2331.029785 970.740417,2333.061768 971.616150,2334.792480 
	C976.152283,2343.756592 982.061035,2351.571289 989.575073,2358.433105 
	C999.402283,2367.407471 999.103149,2369.815918 994.243530,2381.859131 
	C987.276367,2399.125000 980.961975,2416.624512 979.663574,2435.511963 
	C979.166138,2442.748535 977.409912,2449.349365 972.316040,2455.519775 
	C963.500366,2466.198242 963.977112,2469.244141 974.075378,2478.896484 
	C986.788818,2491.048584 999.948792,2502.740967 1013.090210,2514.436035 
	C1032.736938,2531.920410 1052.436523,2549.349365 1072.374268,2566.498779 
	C1075.438110,2569.134277 1079.937500,2571.716553 1083.700073,2571.615234 
	C1094.167114,2571.333740 1102.227783,2575.983398 1110.206543,2581.631348 
	C1112.842407,2583.497314 1115.662109,2585.316895 1118.670166,2586.403320 
	C1127.516602,2589.599365 1129.506348,2592.214111 1130.261719,2601.521973 
	C1130.574951,2605.380615 1130.965332,2609.636230 1132.793213,2612.882080 
	C1136.194092,2618.920898 1140.543091,2624.256348 1141.127563,2631.702393 
	C1141.330444,2634.287109 1144.011963,2636.820068 1145.892334,2639.104492 
	C1151.656372,2646.105713 1151.772095,2647.123291 1146.626709,2654.494385 
	C1142.630371,2660.219482 1142.617676,2663.070801 1146.704102,2668.903564 
	C1148.804077,2671.901367 1151.182495,2674.714844 1153.145264,2677.796387 
	C1158.521729,2686.236328 1156.181519,2693.709473 1146.978516,2698.114502 
	C1145.139526,2698.994873 1143.368530,2700.017578 1140.639893,2701.466553 
	C1142.615845,2701.789307 1143.269043,2701.984375 1143.923340,2701.988037 
	C1147.919800,2702.009766 1151.916626,2701.988281 1155.913330,2701.981201 
z"/>

<path 
	data-name="Mayo-Moskota"
fill="#DDA983" opacity="1.000000" stroke="none" 
	d="
M2160.000000,95.500000 
	C2156.337158,95.940529 2152.674561,95.829170 2149.011719,95.829010 
	C1953.440796,95.820610 1757.869751,95.821571 1562.298828,95.821571 
	C1558.773438,95.821571 1555.248169,95.821579 1551.722778,95.821579 
	C1551.623291,96.317337 1551.523926,96.813095 1551.424438,97.308861 
	C1556.445557,99.459213 1561.352051,101.948296 1566.510376,103.692490 
	C1578.926758,107.890877 1588.882324,115.376556 1596.465820,125.875519 
	C1599.270996,129.759155 1602.528198,131.723129 1607.139160,131.958191 
	C1616.657837,132.443466 1625.478638,134.826752 1632.795410,141.388504 
	C1633.744995,142.240173 1635.065552,142.842468 1636.316528,143.169586 
	C1658.921265,149.080444 1677.615601,161.920212 1695.403564,176.385818 
	C1696.160645,177.001526 1696.969482,177.962296 1697.801025,178.014267 
	C1706.344482,178.548309 1708.913818,185.225754 1712.152466,191.444702 
	C1714.759155,196.450150 1717.472778,201.477066 1720.786499,206.022232 
	C1729.716309,218.270264 1736.826782,231.330597 1739.055908,246.476196 
	C1741.158569,260.761566 1750.821167,270.066925 1760.279297,279.296539 
	C1770.787964,289.551361 1778.113281,301.397217 1782.383789,315.368317 
	C1786.119629,327.590363 1783.838745,335.085510 1773.431274,342.850525 
	C1771.300659,344.440186 1769.147583,345.999542 1765.656982,347.876373 
	C1752.347046,349.699127 1746.074097,359.598114 1738.171631,366.732147 
	C1735.254150,369.365845 1734.942627,375.127777 1733.947388,379.575897 
	C1733.087036,383.421539 1733.329468,387.531464 1732.310913,391.316528 
	C1731.829224,393.107300 1729.810913,394.972534 1728.021606,395.837128 
	C1721.091797,399.185730 1720.375977,399.952057 1723.569092,406.957794 
	C1727.325317,415.199707 1727.330322,423.033966 1722.637939,430.750671 
	C1718.679810,437.259735 1717.393188,444.255829 1717.835205,451.786713 
	C1718.166504,457.434662 1718.250488,463.124023 1717.979126,468.772614 
	C1717.723755,474.092590 1719.951660,477.559357 1724.348999,480.233704 
	C1727.122192,481.920319 1729.534302,484.195465 1732.138550,486.166718 
	C1734.944824,488.290894 1737.686157,490.525513 1740.644043,492.417389 
	C1743.056274,493.960297 1746.690063,494.336395 1745.268066,499.148743 
	C1742.521851,499.759613 1739.562866,500.417786 1736.284546,501.147034 
	C1737.568726,505.036896 1738.574585,508.083618 1739.642334,511.318146 
	C1732.500244,516.798157 1730.233521,523.126953 1733.348145,531.663574 
	C1735.225830,536.810303 1732.525513,541.194641 1727.693848,544.242371 
	C1724.554688,546.222412 1720.796387,548.162720 1720.952759,553.426636 
	C1723.263428,553.426636 1725.193970,553.235962 1727.068359,553.478455 
	C1729.078735,553.738525 1731.036377,554.406006 1733.017090,554.895630 
	C1731.776489,556.969116 1730.838379,559.344482 1729.182495,561.003296 
	C1728.184326,562.003174 1725.970947,561.662415 1724.474731,562.315857 
	C1719.081543,564.671448 1713.761108,567.193298 1708.730957,569.506104 
	C1710.973145,582.816406 1703.414185,596.589355 1716.000610,606.741943 
	C1710.676392,611.668762 1712.027832,617.572449 1711.843750,623.145935 
	C1711.609253,630.241333 1706.809204,634.471863 1702.059814,638.691040 
	C1697.870850,642.412537 1695.981689,636.060242 1692.122192,636.280823 
	C1690.424072,638.703247 1688.634521,641.256226 1686.705566,644.008179 
	C1684.219238,642.808167 1682.257690,641.861511 1680.117310,640.828491 
	C1674.584106,650.887634 1664.362549,653.564148 1655.197388,655.636047 
	C1645.556030,657.815674 1629.273804,645.298279 1626.154297,635.471069 
	C1624.459229,630.131042 1621.436890,627.322632 1616.164673,625.572327 
	C1607.976074,622.854004 1600.037109,619.357239 1592.069946,616.005859 
	C1583.609009,612.446777 1575.232544,608.597534 1568.255127,618.547791 
	C1568.078125,618.800110 1567.656616,619.145569 1567.464233,619.084595 
	C1560.126099,616.757446 1556.394043,622.294983 1551.593384,625.946350 
	C1549.688477,627.395264 1546.591309,627.545593 1543.994385,627.751038 
	C1540.351685,628.039185 1536.658447,628.007690 1533.006714,627.784546 
	C1528.114502,627.485535 1523.943726,628.331482 1520.456909,632.298645 
	C1516.515991,636.782898 1511.286255,638.176819 1505.225464,638.379578 
	C1501.157593,638.515625 1495.617554,639.613281 1493.425781,642.397766 
	C1486.951782,650.622620 1478.575195,649.955872 1469.909302,649.878235 
	C1465.760742,649.841064 1462.593384,649.096924 1459.432983,645.649902 
	C1454.933838,640.742615 1449.080933,636.806213 1441.778809,638.221619 
	C1436.042358,639.333618 1430.000244,640.433594 1424.951904,643.139465 
	C1418.452026,646.623474 1412.187744,646.234070 1405.653320,644.846924 
	C1396.875000,642.983521 1388.025513,643.890930 1380.321899,647.475708 
	C1374.643066,650.118530 1369.474121,650.570679 1364.013184,649.487427 
	C1352.857666,647.274292 1342.228027,643.569458 1332.954834,636.581726 
	C1327.649170,632.583801 1322.001953,629.041931 1316.587158,625.184509 
	C1314.062988,623.386292 1311.837646,622.428406 1308.389160,623.308044 
	C1291.056152,627.729248 1273.615356,631.728516 1256.212524,635.875977 
	C1258.794312,626.657776 1261.280762,617.411621 1263.978271,608.227417 
	C1269.013062,591.084534 1274.127319,573.964600 1279.297852,556.862244 
	C1281.384888,549.959167 1278.395874,543.800781 1276.698975,537.476379 
	C1273.947144,527.219543 1273.846802,527.246460 1282.773926,520.203735 
	C1280.771851,509.784943 1278.661133,498.801147 1277.049438,486.737305 
	C1280.115601,483.963959 1283.522217,482.832306 1285.098511,480.476196 
	C1290.716309,472.078308 1295.711670,463.264038 1301.479248,453.719543 
	C1298.931030,450.592285 1295.951782,446.936157 1293.042480,443.365784 
	C1294.026245,441.077209 1296.149414,438.452393 1296.045776,435.918701 
	C1295.793701,429.762909 1299.154541,426.005829 1303.179688,422.413635 
	C1305.601440,420.252228 1308.164673,418.249329 1310.947144,415.940460 
	C1309.368774,413.063965 1308.052734,410.665375 1306.704346,408.207947 
	C1311.585083,404.184235 1315.890869,400.634491 1320.024536,397.226593 
	C1319.305420,395.112335 1318.802368,393.633453 1318.129150,391.654480 
	C1321.882812,390.372772 1325.359253,388.826965 1325.552856,384.041046 
	C1325.605347,382.744781 1327.280396,381.583649 1327.914307,380.222443 
	C1328.583496,378.785645 1329.710327,376.829071 1329.224487,375.716705 
	C1327.327393,371.373749 1328.974487,368.835785 1332.566162,366.611481 
	C1337.689087,363.438934 1341.445312,357.894226 1340.805664,352.784943 
	C1339.791748,344.688751 1344.333862,337.480865 1342.176880,329.610870 
	C1344.798096,329.403931 1346.877197,329.239807 1349.775146,329.011017 
	C1349.529907,323.500916 1349.374023,318.573975 1349.077026,313.655548 
	C1348.648438,306.560974 1355.527100,297.115448 1362.080444,296.342468 
	C1363.470459,296.178467 1365.343384,297.045319 1366.411255,298.053925 
	C1367.533813,299.114227 1367.764160,301.055481 1368.719849,302.367401 
	C1372.648926,307.760345 1379.424561,307.080597 1382.044556,301.018097 
	C1385.292603,293.503082 1388.496094,285.965057 1391.494507,278.348663 
	C1392.274658,276.366943 1392.436768,274.063965 1392.510498,271.895874 
	C1392.793945,263.554657 1398.331421,260.360138 1405.397705,265.038879 
	C1408.515991,267.103638 1410.804932,266.794434 1413.450684,264.977783 
	C1415.311279,263.700287 1417.099365,262.317383 1418.947388,260.961212 
	C1416.274658,255.334030 1416.274658,255.334030 1423.261963,249.162445 
	C1422.700439,247.475250 1422.162598,245.859039 1421.210938,242.999161 
	C1428.176147,243.628922 1433.937500,244.149841 1439.869385,244.686172 
	C1445.204712,242.534393 1444.226196,238.174454 1441.969238,234.113983 
	C1443.189819,233.281219 1443.763672,232.553085 1444.268921,232.598068 
	C1448.425903,232.968292 1452.569946,233.482117 1457.502319,234.041321 
	C1456.956177,230.387955 1454.955688,227.089767 1458.410767,223.938583 
	C1463.209839,219.561401 1473.609375,215.832397 1480.518677,217.025803 
	C1473.373535,212.102524 1475.067383,203.961639 1472.291626,197.637054 
	C1473.012817,196.855484 1473.392578,196.280991 1473.917358,195.913086 
	C1474.726074,195.346039 1475.591553,194.811676 1476.506958,194.452179 
	C1484.387939,191.357285 1486.360718,185.023026 1481.594604,178.615982 
	C1479.830566,176.244522 1478.557007,173.508102 1475.940796,169.017426 
	C1486.502563,171.013489 1492.411987,165.767059 1495.357544,160.099564 
	C1498.375000,154.294037 1502.862061,149.834839 1505.818848,144.528870 
	C1505.135376,142.333252 1504.498291,140.286743 1503.319214,136.499222 
	C1513.430664,137.752411 1516.610718,132.193832 1516.796265,126.193748 
	C1520.756836,123.221581 1523.580811,121.399094 1526.050049,119.181641 
	C1529.980347,115.652054 1533.493042,111.645653 1537.512451,108.229393 
	C1543.040894,103.530670 1543.178467,103.657730 1539.968750,95.695831 
	C1543.866699,95.085548 1547.764282,93.942764 1551.662476,93.941269 
	C1753.817627,93.864029 1955.972778,93.883682 2159.063965,93.946533 
	C2160.000000,94.000000 2160.000000,95.000000 2160.000000,95.500000 
z"/>

<path 
	data-name="Mogode"
fill="#7C57EB" opacity="1.000000" stroke="none" 
	d="
M539.075012,2192.013184 
	C538.341919,2191.275635 538.427734,2190.578369 538.258972,2189.949707 
	C533.278748,2171.392578 535.909790,2153.333984 541.471252,2135.362549 
	C543.427795,2129.039795 544.241089,2122.367432 546.113342,2116.012939 
	C547.400879,2111.643311 546.530273,2108.546143 543.344299,2105.369385 
	C536.756348,2098.800537 530.627930,2091.770508 524.028625,2085.213867 
	C520.991821,2082.196533 519.409180,2079.118164 519.605835,2074.739258 
	C520.008362,2065.772949 519.985474,2056.787354 520.137817,2047.809692 
	C526.992432,2042.619629 533.738892,2037.277832 540.737183,2032.289551 
	C545.963318,2028.564331 550.030579,2024.207520 553.128296,2018.419067 
	C565.048218,1996.145996 577.774841,1974.300781 589.502136,1951.929810 
	C597.625854,1936.432983 609.301147,1923.651245 619.559143,1909.787231 
	C627.261902,1899.376831 636.102722,1889.767822 643.313538,1879.046387 
	C649.549988,1869.774170 654.204895,1859.438110 659.917480,1848.911499 
	C652.172852,1841.656616 645.256287,1835.060669 638.210388,1828.606079 
	C628.905762,1820.082153 619.577393,1811.580566 610.099304,1803.251465 
	C606.313782,1799.924683 604.575195,1796.466431 605.541443,1791.175415 
	C606.968323,1783.362305 607.043213,1775.291504 608.634460,1767.523071 
	C609.593506,1762.841309 612.125305,1758.416748 614.349426,1754.081421 
	C615.853027,1751.150635 617.597046,1748.057617 620.020264,1745.935425 
	C628.934387,1738.128662 627.556702,1728.207275 625.852173,1718.428833 
	C625.354797,1715.575317 622.971558,1712.558960 620.627625,1710.609009 
	C612.967590,1704.236572 605.097473,1698.080078 596.960815,1692.332153 
	C592.864441,1689.438354 590.907288,1686.117554 592.417664,1681.475464 
	C594.028259,1676.525269 592.351746,1672.750244 589.919128,1668.549927 
	C583.255554,1657.043945 577.059814,1645.267090 570.678345,1633.597656 
	C566.587830,1626.117554 568.675964,1618.750488 576.356995,1614.672485 
	C583.405518,1610.930298 590.383545,1606.859253 597.823364,1604.090576 
	C613.785339,1598.150269 624.320068,1585.810669 635.852112,1574.304321 
	C644.602661,1565.573364 649.797668,1556.824219 646.564270,1543.830322 
	C644.671448,1536.223755 644.972473,1528.016357 644.815613,1520.068726 
	C644.772217,1517.869263 646.051208,1514.340942 647.694275,1513.612671 
	C663.620239,1506.553711 669.013184,1490.575928 678.451172,1478.059082 
	C680.047974,1475.941284 681.300659,1473.566895 682.765625,1471.346191 
	C688.893250,1462.057983 688.202209,1453.080200 680.570801,1444.749756 
	C678.097656,1442.050049 675.705994,1439.129395 672.759949,1437.038330 
	C665.442566,1431.844116 665.020874,1425.492920 666.760925,1417.163330 
	C669.901184,1402.130493 680.216736,1391.447754 687.052612,1379.083862 
	C707.522095,1379.417358 727.285339,1379.177002 745.739502,1367.908325 
	C756.961853,1381.821899 767.634399,1395.861328 777.923096,1410.176758 
	C826.716675,1478.066772 875.369629,1546.057739 924.239746,1613.892578 
	C926.643005,1617.228394 930.222229,1620.246216 933.919189,1622.043335 
	C1013.295898,1660.627808 1092.768677,1699.014893 1172.219971,1737.446167 
	C1180.016357,1741.217285 1187.729736,1745.168457 1195.608765,1748.756958 
	C1199.622925,1750.585449 1201.673706,1752.986450 1202.183960,1757.672974 
	C1206.068481,1793.350708 1210.036987,1829.023438 1214.590210,1864.619507 
	C1215.274658,1869.970215 1213.692017,1873.512451 1211.104614,1877.385132 
	C1190.192017,1908.688477 1169.408813,1940.079224 1148.296997,1971.247437 
	C1143.332153,1978.577393 1140.124878,1986.320068 1138.267822,1994.899048 
	C1128.771973,2038.768433 1119.102661,2082.600098 1109.523804,2126.451416 
	C1108.673218,2130.345215 1108.034546,2134.285156 1106.809570,2139.603516 
	C1105.539185,2143.876465 1104.699829,2146.735596 1103.984375,2149.625488 
	C1100.957520,2161.850342 1098.905396,2174.412109 1094.769165,2186.246826 
	C1086.103516,2211.041016 1076.219604,2235.406982 1067.141113,2260.061279 
	C1065.194946,2265.346191 1062.307861,2269.162354 1057.612915,2272.258789 
	C1036.215454,2286.369873 1015.114075,2300.933105 993.628357,2314.906250 
	C986.166687,2319.759033 977.903503,2323.378906 970.006348,2327.562012 
	C970.818176,2320.322754 971.560974,2313.075195 972.458435,2305.846436 
	C973.749695,2295.447021 969.470215,2287.984375 960.006409,2283.673340 
	C946.698120,2277.611084 933.397400,2271.517578 920.273987,2265.070312 
	C914.928101,2262.444092 909.855591,2261.914795 903.956665,2262.784912 
	C889.868347,2264.864014 875.697021,2266.671387 861.494629,2267.607910 
	C846.181213,2268.617676 830.949097,2269.089844 818.804077,2280.172852 
	C812.833862,2274.596191 809.697021,2270.084229 814.980042,2262.567871 
	C818.766663,2257.180664 815.473206,2248.528320 809.550964,2242.880859 
	C804.554993,2238.116699 799.085144,2239.264893 793.865540,2242.010010 
	C788.070190,2245.057617 782.641296,2247.832764 776.244263,2243.258301 
	C775.085144,2242.429199 772.463379,2243.137695 770.728638,2243.743164 
	C768.236572,2244.612793 765.705994,2245.723877 763.598328,2247.281738 
	C753.705994,2254.593018 742.354004,2256.279053 730.562195,2255.891113 
	C723.161133,2255.647705 717.446472,2257.933838 711.635620,2262.850586 
	C706.303894,2267.362061 699.062439,2269.616699 694.497192,2271.934082 
	C686.908569,2266.506836 680.938965,2262.550537 675.323181,2258.143555 
	C668.021545,2252.413818 661.112976,2246.183350 653.816223,2240.446777 
	C649.660339,2237.179443 645.165649,2234.308105 640.652649,2231.536865 
	C630.183777,2225.108398 619.465515,2219.074463 609.143677,2212.422363 
	C604.195007,2209.233398 599.308716,2207.080566 593.356506,2207.704102 
	C584.282104,2208.655029 575.863647,2207.588135 567.429260,2203.057373 
	C558.750793,2198.395752 549.036316,2195.662598 539.075012,2192.013184 
z"/>
<path 
	data-name="Hina"
fill="#55D3F2" opacity="1.000000" stroke="none" 
	d="
M969.955811,2328.349609 
	C977.903503,2323.378906 986.166687,2319.759033 993.628357,2314.906250 
	C1015.114075,2300.933105 1036.215454,2286.369873 1057.612915,2272.258789 
	C1062.307861,2269.162354 1065.194946,2265.346191 1067.141113,2260.061279 
	C1076.219604,2235.406982 1086.103516,2211.041016 1094.769165,2186.246826 
	C1098.905396,2174.412109 1100.957520,2161.850342 1103.984375,2149.625488 
	C1104.699829,2146.735596 1105.539185,2143.876465 1106.761963,2140.458984 
	C1123.573975,2142.763672 1139.928101,2145.719971 1156.328125,2148.395264 
	C1161.205566,2149.190674 1166.231689,2149.686768 1171.155273,2149.484375 
	C1196.766479,2148.432617 1222.366943,2147.121582 1247.969971,2145.877197 
	C1260.272949,2145.279053 1272.568848,2144.375977 1284.877930,2144.143311 
	C1289.039551,2144.064697 1293.550537,2144.889404 1297.360840,2146.545898 
	C1330.936768,2161.144043 1364.474243,2175.838379 1397.818359,2190.955566 
	C1405.635132,2194.499512 1412.884277,2199.446533 1420.037476,2204.276855 
	C1452.331421,2226.084717 1484.529541,2248.035645 1516.670654,2270.068115 
	C1521.031494,2273.057373 1525.189331,2276.490723 1528.903198,2280.250000 
	C1544.591675,2296.129883 1560.166382,2312.125244 1575.619141,2328.235352 
	C1621.317749,2375.878174 1670.224854,2420.184570 1718.086182,2465.580566 
	C1721.506470,2468.824707 1725.057007,2470.081787 1729.670410,2470.067383 
	C1744.331909,2470.021729 1758.994507,2470.304688 1774.557983,2470.470703 
	C1774.479858,2475.285156 1774.148560,2480.341064 1772.404297,2484.850098 
	C1766.145508,2501.030518 1761.648804,2517.561279 1759.469971,2534.820557 
	C1758.738037,2540.617920 1756.431274,2546.390381 1753.951050,2551.761230 
	C1746.202881,2568.540771 1744.807983,2586.295654 1745.535889,2604.305908 
	C1746.153442,2619.585205 1746.680054,2634.755859 1744.501953,2650.014404 
	C1743.645630,2656.014404 1745.260132,2662.386475 1745.887451,2668.574951 
	C1747.324219,2682.750000 1749.160522,2696.894287 1750.173828,2711.098145 
	C1750.561646,2716.535645 1750.768921,2721.410889 1754.755249,2725.745850 
	C1757.162354,2728.363525 1758.113892,2732.265137 1760.296509,2735.154053 
	C1765.991577,2742.691650 1772.004517,2749.989258 1777.941528,2757.446533 
	C1759.695679,2762.095459 1739.968262,2764.353760 1720.918701,2761.362549 
	C1705.983398,2759.017578 1691.308228,2760.015137 1676.556885,2758.968994 
	C1661.994385,2757.936523 1647.369629,2757.820068 1632.784180,2757.067627 
	C1619.861572,2756.401367 1606.871216,2755.871094 1594.663086,2750.824707 
	C1591.940308,2749.699219 1589.414429,2748.104248 1586.714355,2746.915283 
	C1583.154663,2745.348145 1579.595093,2743.045166 1575.887451,2742.713135 
	C1569.510742,2742.141846 1564.803955,2739.294189 1560.111816,2735.310059 
	C1549.799561,2726.553711 1538.577271,2720.436768 1524.144775,2720.755127 
	C1516.349854,2720.927246 1508.466309,2718.098877 1500.660645,2716.444824 
	C1494.037476,2715.041016 1487.660034,2715.733398 1480.957642,2716.671631 
	C1469.171265,2718.321533 1457.169189,2718.563965 1445.243042,2719.024414 
	C1439.624390,2719.241943 1434.004761,2718.699219 1428.986572,2722.005371 
	C1425.247559,2724.468506 1421.613525,2724.198730 1417.831665,2721.791504 
	C1412.791260,2718.583252 1407.403809,2715.906250 1402.458374,2712.566895 
	C1390.807739,2704.698975 1378.184814,2701.395996 1364.035767,2700.776367 
	C1349.869629,2700.156006 1335.748779,2697.254395 1321.740112,2694.643799 
	C1308.208740,2692.122070 1294.807617,2690.344727 1281.272217,2694.084229 
	C1278.728516,2694.787354 1276.185425,2695.658447 1273.821899,2696.818604 
	C1263.414795,2701.927002 1253.079956,2707.182373 1242.702393,2712.351318 
	C1240.921631,2713.238037 1238.996704,2714.770508 1237.246582,2714.632568 
	C1225.408081,2713.698730 1213.253174,2713.717041 1201.900879,2710.749268 
	C1194.296875,2708.761230 1187.399902,2702.921387 1180.995239,2697.794922 
	C1173.696289,2691.952637 1171.330444,2691.240234 1163.560425,2696.550537 
	C1161.367554,2698.049072 1159.188721,2699.568115 1156.458496,2701.529785 
	C1151.916626,2701.988281 1147.919800,2702.009766 1143.923340,2701.988037 
	C1143.269043,2701.984375 1142.615845,2701.789307 1140.639893,2701.466553 
	C1143.368530,2700.017578 1145.139526,2698.994873 1146.978516,2698.114502 
	C1156.181519,2693.709473 1158.521729,2686.236328 1153.145264,2677.796387 
	C1151.182495,2674.714844 1148.804077,2671.901367 1146.704102,2668.903564 
	C1142.617676,2663.070801 1142.630371,2660.219482 1146.626709,2654.494385 
	C1151.772095,2647.123291 1151.656372,2646.105713 1145.892334,2639.104492 
	C1144.011963,2636.820068 1141.330444,2634.287109 1141.127563,2631.702393 
	C1140.543091,2624.256348 1136.194092,2618.920898 1132.793213,2612.882080 
	C1130.965332,2609.636230 1130.574951,2605.380615 1130.261719,2601.521973 
	C1129.506348,2592.214111 1127.516602,2589.599365 1118.670166,2586.403320 
	C1115.662109,2585.316895 1112.842407,2583.497314 1110.206543,2581.631348 
	C1102.227783,2575.983398 1094.167114,2571.333740 1083.700073,2571.615234 
	C1079.937500,2571.716553 1075.438110,2569.134277 1072.374268,2566.498779 
	C1052.436523,2549.349365 1032.736938,2531.920410 1013.090210,2514.436035 
	C999.948792,2502.740967 986.788818,2491.048584 974.075378,2478.896484 
	C963.977112,2469.244141 963.500366,2466.198242 972.316040,2455.519775 
	C977.409912,2449.349365 979.166138,2442.748535 979.663574,2435.511963 
	C980.961975,2416.624512 987.276367,2399.125000 994.243530,2381.859131 
	C999.103149,2369.815918 999.402283,2367.407471 989.575073,2358.433105 
	C982.061035,2351.571289 976.152283,2343.756592 971.616150,2334.792480 
	C970.740417,2333.061768 970.460205,2331.029785 969.955811,2328.349609 
z"/>
<path 
	data-name="Koza"
fill="#C24887" opacity="1.000000" stroke="none" 
	d="
M1255.858154,636.542725 
	C1273.615356,631.728516 1291.056152,627.729248 1308.389160,623.308044 
	C1311.837646,622.428406 1314.062988,623.386292 1316.587158,625.184509 
	C1322.001953,629.041931 1327.649170,632.583801 1332.954834,636.581726 
	C1342.228027,643.569458 1352.857666,647.274292 1364.013184,649.487427 
	C1369.474121,650.570679 1374.643066,650.118530 1380.321899,647.475708 
	C1388.025513,643.890930 1396.875000,642.983521 1405.653320,644.846924 
	C1412.187744,646.234070 1418.452026,646.623474 1424.951904,643.139465 
	C1430.000244,640.433594 1436.042358,639.333618 1441.778809,638.221619 
	C1449.080933,636.806213 1454.933838,640.742615 1459.432983,645.649902 
	C1462.593384,649.096924 1465.760742,649.841064 1469.909302,649.878235 
	C1478.575195,649.955872 1486.951782,650.622620 1493.425781,642.397766 
	C1495.617554,639.613281 1501.157593,638.515625 1505.225464,638.379578 
	C1511.286255,638.176819 1516.515991,636.782898 1520.456909,632.298645 
	C1523.943726,628.331482 1528.114502,627.485535 1533.006714,627.784546 
	C1536.658447,628.007690 1540.351685,628.039185 1543.994385,627.751038 
	C1546.591309,627.545593 1549.688477,627.395264 1551.593384,625.946350 
	C1556.394043,622.294983 1560.126099,616.757446 1567.464233,619.084595 
	C1567.656616,619.145569 1568.078125,618.800110 1568.255127,618.547791 
	C1575.232544,608.597534 1583.609009,612.446777 1592.069946,616.005859 
	C1600.037109,619.357239 1607.976074,622.854004 1616.164673,625.572327 
	C1621.436890,627.322632 1624.459229,630.131042 1626.154297,635.471069 
	C1629.273804,645.298279 1645.556030,657.815674 1655.197388,655.636047 
	C1664.362549,653.564148 1674.584106,650.887634 1680.117310,640.828491 
	C1682.257690,641.861511 1684.219238,642.808167 1686.705566,644.008179 
	C1688.634521,641.256226 1690.424072,638.703247 1692.122192,636.280823 
	C1695.981689,636.060242 1697.870850,642.412537 1702.059814,638.691040 
	C1706.809204,634.471863 1711.609253,630.241333 1711.843750,623.145935 
	C1712.027832,617.572449 1710.676392,611.668762 1716.000610,606.741943 
	C1703.414185,596.589355 1710.973145,582.816406 1708.730957,569.506104 
	C1713.761108,567.193298 1719.081543,564.671448 1724.474731,562.315857 
	C1725.970947,561.662415 1728.184326,562.003174 1729.182495,561.003296 
	C1730.838379,559.344482 1731.776489,556.969116 1733.017090,554.895630 
	C1731.036377,554.406006 1729.078735,553.738525 1727.068359,553.478455 
	C1725.193970,553.235962 1723.263428,553.426636 1720.952759,553.426636 
	C1720.796387,548.162720 1724.554688,546.222412 1727.693848,544.242371 
	C1732.525513,541.194641 1735.225830,536.810303 1733.348145,531.663574 
	C1730.233521,523.126953 1732.500244,516.798157 1739.642334,511.318146 
	C1738.574585,508.083618 1737.568726,505.036896 1736.284546,501.147034 
	C1739.562866,500.417786 1742.521851,499.759613 1745.268066,499.148743 
	C1746.690063,494.336395 1743.056274,493.960297 1740.644043,492.417389 
	C1737.686157,490.525513 1734.944824,488.290894 1732.138550,486.166718 
	C1729.534302,484.195465 1727.122192,481.920319 1724.348999,480.233704 
	C1719.951660,477.559357 1717.723755,474.092590 1717.979126,468.772614 
	C1718.250488,463.124023 1718.166504,457.434662 1717.835205,451.786713 
	C1717.393188,444.255829 1718.679810,437.259735 1722.637939,430.750671 
	C1727.330322,423.033966 1727.325317,415.199707 1723.569092,406.957794 
	C1720.375977,399.952057 1721.091797,399.185730 1728.021606,395.837128 
	C1729.810913,394.972534 1731.829224,393.107300 1732.310913,391.316528 
	C1733.329468,387.531464 1733.087036,383.421539 1733.947388,379.575897 
	C1734.942627,375.127777 1735.254150,369.365845 1738.171631,366.732147 
	C1746.074097,359.598114 1752.347046,349.699127 1765.019531,348.161133 
	C1763.968506,356.227356 1761.873779,364.260986 1760.616577,372.423615 
	C1760.143433,375.496002 1761.255615,378.981140 1762.248291,382.085205 
	C1774.391235,420.053284 1786.659912,457.981140 1798.867676,495.928528 
	C1807.209229,521.857300 1816.017700,547.652222 1823.590210,573.804443 
	C1826.969482,585.474915 1827.786865,597.882812 1829.833862,609.944702 
	C1832.719727,626.948792 1835.584961,643.957336 1838.669556,660.925659 
	C1839.184082,663.756104 1840.106812,667.018433 1841.983154,668.998962 
	C1847.304443,674.615845 1848.108765,681.155518 1847.757080,688.353149 
	C1847.464966,694.331909 1848.166748,700.380432 1847.609375,706.321228 
	C1845.860229,724.964294 1853.461304,740.598083 1862.427124,756.044250 
	C1868.398682,766.331726 1875.108154,776.598206 1878.659668,787.772766 
	C1882.501587,799.860718 1890.483398,806.606445 1900.637451,811.788208 
	C1909.800049,816.463928 1919.398438,820.295410 1928.870605,824.345032 
	C1930.574829,825.073547 1933.112793,825.954773 1934.388306,825.227234 
	C1940.646729,821.657532 1944.279175,826.252808 1948.600220,829.092407 
	C1953.064087,832.025940 1953.779907,836.219421 1953.798340,841.202637 
	C1953.833984,850.883057 1952.713013,860.293396 1950.703857,869.798035 
	C1948.453003,880.446289 1947.867676,891.437134 1946.205444,902.224670 
	C1945.664307,905.736572 1944.637085,909.473206 1942.757935,912.422546 
	C1937.333496,920.936462 1937.889282,930.092957 1938.748779,939.416931 
	C1939.751343,950.293762 1940.693481,961.176208 1940.932129,972.854858 
	C1933.591064,969.884644 1926.990601,966.096191 1920.363525,962.355347 
	C1917.207764,960.574036 1914.170654,957.973206 1910.781982,957.342407 
	C1903.941895,956.069092 1898.617798,952.301636 1893.021240,948.754395 
	C1890.546875,947.186218 1887.525146,944.640808 1885.171021,945.035828 
	C1873.786743,946.946533 1862.350098,949.068359 1851.335938,952.436523 
	C1845.918945,954.092957 1840.829102,956.208862 1835.051392,956.088623 
	C1831.402344,956.012634 1827.699097,955.988403 1824.098877,956.497437 
	C1782.264282,962.413391 1741.239502,972.034607 1700.998657,984.765930 
	C1689.683350,988.345764 1678.486816,993.285278 1668.445557,999.542358 
	C1662.282104,1003.382996 1656.757080,1006.337158 1649.549438,1006.163452 
	C1647.970459,1006.125305 1646.340820,1006.953918 1644.781982,1007.515442 
	C1636.055176,1010.659363 1626.942749,1013.062683 1618.750122,1017.257874 
	C1612.019897,1020.704285 1607.671021,1019.484680 1603.054565,1014.407471 
	C1600.755493,1011.879028 1597.851440,1009.900757 1594.833496,1007.345398 
	C1593.583130,1009.711609 1592.712891,1010.798767 1592.407471,1012.026367 
	C1590.271362,1020.611755 1584.402710,1024.990112 1576.488403,1028.337769 
	C1567.878052,1031.979736 1558.967773,1031.667236 1550.121826,1032.695312 
	C1534.438110,1028.302368 1518.671997,1024.177246 1503.109497,1019.390076 
	C1496.502563,1017.357727 1491.187988,1017.930054 1487.241943,1023.673950 
	C1479.542969,1034.881104 1468.512329,1042.389038 1458.257935,1050.841675 
	C1453.216797,1054.997070 1448.806396,1060.039917 1444.691895,1065.149292 
	C1442.406616,1067.987061 1440.203735,1070.088745 1436.530151,1069.810547 
	C1428.795410,1069.224487 1422.087769,1071.965088 1416.023926,1076.295898 
	C1411.699707,1079.384277 1407.061279,1080.120972 1401.938232,1080.251221 
	C1390.195068,1080.549805 1378.944214,1079.702393 1367.926514,1074.484009 
	C1358.699585,1070.113525 1348.323853,1068.230103 1338.866821,1064.267334 
	C1327.764160,1059.614990 1322.449097,1046.566772 1326.909546,1035.486572 
	C1328.854370,1030.655029 1331.790771,1025.835205 1335.432617,1022.153137 
	C1343.610962,1013.884705 1352.373779,1006.171143 1361.178833,998.555847 
	C1365.441162,994.869568 1370.582886,992.322876 1369.858154,985.237854 
	C1369.070679,977.539673 1368.476807,970.362427 1360.846924,965.488464 
	C1350.641846,958.969360 1344.915283,949.015625 1341.467773,937.448181 
	C1338.599731,927.825439 1339.193115,919.265198 1345.833496,911.311768 
	C1348.580078,908.021973 1350.917480,904.295776 1352.912354,900.490845 
	C1359.311768,888.283630 1352.641846,877.201660 1338.670776,876.246887 
	C1332.065186,875.795471 1325.489258,874.310242 1318.902466,874.327393 
	C1308.551514,874.354309 1299.506836,870.729309 1290.275879,866.683533 
	C1284.613770,864.201843 1278.160889,863.521912 1272.060913,862.042542 
	C1270.775269,861.730713 1269.281738,861.780823 1268.217529,861.123962 
	C1250.830688,850.392029 1230.797729,843.822876 1216.647705,827.949646 
	C1213.365479,824.267761 1210.772827,821.102600 1212.031006,815.741699 
	C1215.444092,801.200012 1218.442627,786.561096 1221.846924,772.017273 
	C1222.590088,768.842957 1223.831299,765.541504 1225.708008,762.916992 
	C1235.842651,748.743347 1239.683472,732.197083 1243.613770,715.751648 
	C1245.062012,709.692322 1245.313843,703.510559 1239.753906,698.244812 
	C1236.485474,695.149414 1234.164185,690.274719 1237.525024,685.552124 
	C1247.864014,671.023743 1249.071899,653.155029 1255.858154,636.542725 
z"/>
<path 
	data-name="Sould-Roua"
fill="#58D44A" opacity="1.000000" stroke="none" 
	d="
M1550.465332,1033.314941 
	C1558.967773,1031.667236 1567.878052,1031.979736 1576.488403,1028.337769 
	C1584.402710,1024.990112 1590.271362,1020.611755 1592.407471,1012.026367 
	C1592.712891,1010.798767 1593.583130,1009.711609 1594.833496,1007.345398 
	C1597.851440,1009.900757 1600.755493,1011.879028 1603.054565,1014.407471 
	C1607.671021,1019.484680 1612.019897,1020.704285 1618.750122,1017.257874 
	C1626.942749,1013.062683 1636.055176,1010.659363 1644.781982,1007.515442 
	C1646.340820,1006.953918 1647.970459,1006.125305 1649.549438,1006.163452 
	C1656.757080,1006.337158 1662.282104,1003.382996 1668.445557,999.542358 
	C1678.486816,993.285278 1689.683350,988.345764 1700.998657,984.765930 
	C1741.239502,972.034607 1782.264282,962.413391 1824.098877,956.497437 
	C1827.699097,955.988403 1831.402344,956.012634 1835.051392,956.088623 
	C1840.829102,956.208862 1845.918945,954.092957 1851.335938,952.436523 
	C1862.350098,949.068359 1873.786743,946.946533 1885.171021,945.035828 
	C1887.525146,944.640808 1890.546875,947.186218 1893.021240,948.754395 
	C1898.617798,952.301636 1903.941895,956.069092 1910.781982,957.342407 
	C1914.170654,957.973206 1917.207764,960.574036 1920.363525,962.355347 
	C1926.990601,966.096191 1933.591064,969.884644 1940.883301,973.713257 
	C1961.417847,995.698181 1981.315186,1017.584351 2001.106445,1039.565796 
	C2010.446289,1049.939087 2019.044312,1061.042358 2028.967285,1070.810303 
	C2038.358032,1080.054565 2048.153076,1089.630859 2062.331543,1091.169678 
	C2068.166260,1091.802979 2074.127197,1091.274536 2080.266602,1091.274536 
	C2086.144043,1104.341064 2092.465088,1118.125977 2098.524902,1132.024902 
	C2100.375000,1136.268311 2101.877686,1140.741821 2102.886230,1145.255859 
	C2104.676025,1153.265503 2104.081299,1160.680664 2098.823975,1167.897827 
	C2092.584473,1176.463745 2087.370850,1185.814087 2082.153076,1195.072510 
	C2079.278076,1200.173340 2076.120850,1204.515869 2070.410156,1206.634766 
	C2068.259277,1207.432861 2066.321533,1208.832153 2064.331787,1210.032471 
	C2058.499756,1213.551025 2055.192383,1218.204468 2056.225098,1225.540039 
	C2057.536621,1234.857422 2054.826660,1243.181396 2049.306641,1250.850342 
	C2046.448242,1254.821411 2044.721313,1259.589844 2042.096313,1263.754150 
	C2040.963867,1265.550659 2039.063477,1267.148682 2037.148071,1268.116821 
	C2028.466553,1272.503784 2020.398071,1277.408203 2014.741821,1285.793213 
	C2012.815308,1288.649170 2009.122437,1290.313721 2006.895630,1292.018188 
	C2004.634644,1310.067383 2002.568970,1327.475098 2000.161499,1344.835327 
	C1999.778320,1347.598511 1998.354492,1350.558716 1996.562378,1352.725220 
	C1989.384155,1361.402344 1990.659058,1371.125610 1994.704834,1379.816895 
	C1998.073730,1387.054443 1998.152100,1393.948486 1997.165894,1401.077393 
	C1996.052734,1409.123413 1992.300781,1417.037598 1998.848999,1424.610474 
	C1999.741089,1425.642090 1999.346313,1428.650879 1998.508667,1430.172363 
	C1993.513916,1439.244019 1993.676758,1448.604614 1996.297119,1459.052246 
	C1995.846313,1461.071167 1995.365845,1462.254150 1994.710327,1463.867920 
	C1980.885742,1456.429321 1967.445435,1449.222290 1954.040894,1441.949219 
	C1952.599243,1441.167114 1951.333984,1440.040649 1950.047241,1438.999512 
	C1949.274414,1438.374268 1948.578979,1437.639526 1947.915405,1436.894653 
	C1915.745117,1400.786621 1877.539673,1372.198975 1836.542236,1346.993530 
	C1829.681885,1342.775757 1822.742065,1339.606079 1815.034424,1337.140869 
	C1769.786133,1322.668701 1723.504150,1312.138306 1677.576416,1300.256348 
	C1674.704834,1299.513428 1671.759521,1298.768799 1669.116577,1297.476685 
	C1654.159424,1290.164795 1639.214355,1282.820068 1624.432617,1275.163330 
	C1620.995972,1273.383057 1617.582642,1270.831909 1615.239136,1267.800049 
	C1607.318726,1257.553711 1600.208252,1246.673584 1592.145264,1236.547607 
	C1587.063965,1230.166138 1585.960693,1222.707397 1584.316528,1215.341675 
	C1579.470459,1193.632812 1576.714966,1171.689575 1575.624512,1149.412231 
	C1574.997559,1136.602417 1571.517090,1123.942139 1569.476562,1111.189575 
	C1565.277344,1084.945068 1557.751343,1059.512085 1550.465332,1033.314941 
z"/>
</svg>