<svg width="25" height="25" viewBox="0 0 25 25" fill="none" xmlns="http://www.w3.org/2000/svg">
<g id="Call">
<path id="Shape" d="M9.98706 5.06583C10.8954 4.79202 11.8625 5.19473 12.3142 6.01218L12.3884 6.16069L13.0499 7.63206C13.4625 8.54986 13.2821 9.61902 12.6075 10.3495L12.4753 10.4824L11.4319 11.4553C11.2442 11.6329 11.3851 12.3217 12.0653 13.4998C12.6772 14.5596 13.1749 15.0552 13.4199 15.0823L13.4628 15.0819L13.5158 15.0715L15.5665 14.4445C16.1332 14.2713 16.7438 14.4487 17.1298 14.8865L17.2215 15.0013L18.5781 16.8815C19.1299 17.6462 19.0689 18.6841 18.4533 19.3779L18.3314 19.5039L17.7886 20.0179C16.7948 20.9591 15.3435 21.2346 14.0739 20.723C12.1387 19.9432 10.3808 18.1606 8.78368 15.3944C7.18323 12.6224 6.519 10.2043 6.81598 8.13559C6.99977 6.85533 7.87301 5.78668 9.07748 5.34614L9.27036 5.28186L9.98706 5.06583Z" fill="#505050"/>
</g>
</svg>
