<svg width="30" height="30" viewBox="0 0 30 30" fill="none" xmlns="http://www.w3.org/2000/svg">
<path d="M25.3125 5.625H4.68753C4.19025 5.625 3.71334 5.82254 3.36171 6.17417C3.01008 6.52581 2.81253 7.00272 2.81253 7.5V26.25C2.81037 26.6075 2.91152 26.9581 3.10382 27.2595C3.29611 27.561 3.57138 27.8005 3.89652 27.9492C4.14429 28.0646 4.41422 28.1246 4.68753 28.125C5.12769 28.1239 5.55325 27.967 5.88871 27.682C5.8943 27.6784 5.89941 27.6741 5.90394 27.6691L9.668 24.375H25.3125C25.8098 24.375 26.2867 24.1775 26.6384 23.8258C26.99 23.4742 27.1875 22.9973 27.1875 22.5V7.5C27.1875 7.00272 26.99 6.52581 26.6384 6.17417C26.2867 5.82254 25.8098 5.625 25.3125 5.625ZM25.3125 22.5H9.668C9.22647 22.4998 8.79902 22.6554 8.46097 22.9395L8.44691 22.9523L4.68753 26.25V7.5H25.3125V22.5Z" fill="#505050"/>
</svg>
