<svg width="25" height="22" viewBox="0 0 25 22" fill="none" xmlns="http://www.w3.org/2000/svg">
<path d="M16.254 8C17.2205 8 18.004 8.7835 18.004 9.75V16.499C18.004 19.5371 15.5411 22 12.503 22C9.46483 22 7.00193 19.5371 7.00193 16.499V9.75C7.00193 8.7835 7.78543 8 8.75193 8H16.254ZM2.25 8L6.63211 7.99806C6.28221 8.42095 6.05643 8.95029 6.01058 9.53025L6.00193 9.75V16.499C6.00193 17.6323 6.29196 18.698 6.80187 19.6257C6.25085 19.8663 5.64167 20 5.00124 20C2.51527 20 0.5 17.9847 0.5 15.4988V9.75C0.5 8.7835 1.2835 8 2.25 8ZM18.3738 7.99806L22.75 8C23.7165 8 24.5 8.7835 24.5 9.75V15.5C24.5 17.9853 22.4853 20 20 20C19.3609 20 18.753 19.8668 18.2024 19.6266L18.2581 19.5254C18.6868 18.7119 18.948 17.7964 18.996 16.8248L19.004 16.499V9.75C19.004 9.08428 18.7675 8.47382 18.3738 7.99806ZM12.5 0C14.433 0 16 1.567 16 3.5C16 5.433 14.433 7 12.5 7C10.567 7 9 5.433 9 3.5C9 1.567 10.567 0 12.5 0ZM20.503 1C22.1598 1 23.503 2.34315 23.503 4C23.503 5.65685 22.1598 7 20.503 7C18.8461 7 17.503 5.65685 17.503 4C17.503 2.34315 18.8461 1 20.503 1ZM4.49702 1C6.15387 1 7.49702 2.34315 7.49702 4C7.49702 5.65685 6.15387 7 4.49702 7C2.84016 7 1.49702 5.65685 1.49702 4C1.49702 2.34315 2.84016 1 4.49702 1Z" fill="#505050"/>
</svg>
