<svg width="30" height="30" viewBox="0 0 30 30" fill="none" xmlns="http://www.w3.org/2000/svg">
<path d="M27.1875 7.5V22.5C27.1875 22.9973 26.99 23.4742 26.6384 23.8258C26.2867 24.1775 25.8098 24.375 25.3125 24.375H9.668L5.90863 27.6691C5.9041 27.6741 5.89898 27.6784 5.89339 27.682C5.55671 27.9681 5.12931 28.1251 4.68753 28.125C4.41246 28.1245 4.14085 28.0637 3.89183 27.9469C3.56793 27.7976 3.29389 27.5582 3.10248 27.2573C2.91108 26.9563 2.81041 26.6066 2.81253 26.25V7.5C2.81253 7.00272 3.01008 6.52581 3.36171 6.17417C3.71334 5.82254 4.19025 5.625 4.68753 5.625H25.3125C25.8098 5.625 26.2867 5.82254 26.6384 6.17417C26.99 6.52581 27.1875 7.00272 27.1875 7.5Z" fill="#505050"/>
</svg>
