<svg width="25" height="25" viewBox="0 0 25 25" fill="none" xmlns="http://www.w3.org/2000/svg">
<g id="Location">
<path id="Shape" d="M17.9497 16.955C20.6834 14.2201 20.6834 9.78601 17.9497 7.05115C15.2161 4.31628 10.7839 4.31628 8.05025 7.05115C5.31658 9.78601 5.31658 14.2201 8.05025 16.955L9.57128 18.4538L11.6141 20.4389L11.7469 20.5567C12.5217 21.1847 13.6562 21.1455 14.3861 20.4391L16.8223 18.0691L17.9497 16.955ZM13 15C11.3431 15 10 13.6569 10 12C10 10.3431 11.3431 9 13 9C14.6569 9 16 10.3431 16 12C16 13.6569 14.6569 15 13 15Z" fill="#505050"/>
</g>
</svg>
