<svg width="879" height="1066" viewBox="0 0 879 1066" fill="none" xmlns="http://www.w3.org/2000/svg">
<g clip-path="url(#clip0_1235_1788)">
<path d="M316.382 658.13L318.678 656.41L320.142 654.498L322.449 650.331L322.238 649.025L321.406 647.637L319.509 645.981L318.567 644.593L318.045 642.588L318.467 639.029L318.367 636.279L319.909 635.295L320.241 633.161L319.199 630.917L315.628 629.786L310.592 629.445L307.442 628.149L308.285 627.008L310.171 618.051L309.139 614.997L313.11 613.967L314.851 614.179L317.591 615.411H318.833L321.073 614.381L322.071 613.351L327.539 613.765L332.519 611.493L333.018 609.433L333.761 608.191L333.041 605.708L334.926 605.736L334.216 604.927L335.026 604.163L335.347 601.533L334.505 600.181L335.37 599.197L337.643 598.976L338.741 598.139L341.17 599.436L342.013 599.418L342.767 598.756L343.632 598.802L344.265 598.314L345.363 598.231L345.828 597.376L345.584 596.53L346.394 595.307L347.281 594.608L347.392 594.148L348.623 593.67L349.089 593.1L349.034 591.904L349.555 591.159L348.89 589.963L349.511 588.179L350.343 587.351L353.049 586.469L353.193 584.878L351.452 582.551L352.594 580.812L354.435 580.15L354.058 579.543L354.08 578.78L352.45 578.614L352.683 577.06L352.283 575.911L351.441 575.239L349.71 575.313L349.599 574.549L349.755 573.897L350.72 573.004L351.13 571.671L352.117 570.383L353.226 569.859L356.032 569.39L359.637 566.052L361.622 565.647L364.861 564.405L365.604 563.164L366.846 562.134L372.07 560.478L373.811 558.621L377.948 555.613L380.41 555.429L381.619 554.868L382.218 554.307L382.706 553.139L386.998 553.875L388.241 552.633L388.74 551.603L388.241 549.534L378.137 540.76L377.848 540.374L377.482 537.192L372.824 537.348L370.584 536.732L370.828 535.702L376.307 533.017L382.85 525.935L391.424 518.366L394.44 515.028L397.945 512.351L400.186 508.213L403.047 506.566L402.67 500.699L402.093 499.531L403.136 498.234L403.69 497.977L404.134 497.149L404.899 491.87L405.421 491.015L406.962 489.617L407.084 488.118L407.739 487.676L407.838 486.563L409.591 484.816L411.077 481.956L417.532 477.229L419.695 473.826L421.979 472.124L422.501 471.563L422.767 470.248L424.109 469.31L425.14 467.517L425.396 466.404L424.475 463.912L424.741 461.815L424.431 460.049L423.599 457.98L424.209 456.297L427.381 452.783L428.08 451.082L429.333 450.346L434.335 455.864L439.814 460.656L450.295 468.896L455.574 472.106L464.791 473.872L470.392 473.817L472.166 476.52L473.353 479.473L471.867 483.648L472.466 489.791L493.45 497.655L511.65 499.586L516.264 501.563L521.533 503.311L529.219 504.286L537.67 504.488L541.707 504.056L543.36 504.626L544.746 502.787L544.192 498.942L544.813 497.829L545.012 496.478L547.874 494.408L551.8 494.289L556.414 494.988L558.1 495.806L559.774 497.434L561.039 499.292L562.991 500.69L568.869 502.428L569.989 504.056L572.928 506.153L574.193 506.502L575.867 506.383L576.988 503.945L578.951 502.547L582.722 501.968L584.408 500.92L589.72 498.823L592.526 499.062L594.622 499.871L596.164 499.991L598.959 499.522H600.778L602.841 498.372L607.654 498.041L614.209 496.974L615.44 497.489L616.161 499.154L616.383 500.441L615.829 501.37L615.607 502.704L616.117 503.863L622.206 505.72L624.502 505.619L642.247 507.164L644.61 508.976L645.519 514.862L649.523 517.124L652.606 518.182L652.24 521.051L655.335 523.01L659.694 529.2L664.596 530.561L666.226 532.52L667.324 536.898V541.119L665.871 545.478L675.321 546.72L688.486 546.306L691.724 551.87L693.377 554.133L699.089 554.703L701.141 557.333L704.313 558.731L709.348 558.115L711.777 557.489L716.069 555.172L720.728 553.158L722.036 552.072L723.9 551.603L726.14 551.916L737.519 548.044L743.497 545.258L745.738 544.476L747.601 544.329L750.019 544.788L752.448 544.476L757.483 542.002L760.289 539.519L762.896 536.429L764.204 535.803L767.188 534.874L769.617 534.718L774.652 536.116L772.6 537.045L770.016 539.85L769.595 540.733L769.827 540.999L768.951 541.671L768.685 542.563L766.944 544.623L767.277 547.584L768.319 548.247L766.522 551.19L765.125 553.893L765.047 554.592L764.415 554.675L763.65 554.353L761.975 554.951L761.121 557.002L760.544 557.305L760.334 558.133L759.568 558.63L758.548 564.415L759.069 566.337L758.748 566.879L757.86 567.247L756.219 569.546L755.642 571.459L754.189 573.326L753.923 574.614L752.891 576.72L751.15 578.762L750.74 581.438L750.185 582.477L748.477 583.912L745.039 583.452L743.198 584.335L739.261 585.061L738.817 585.586L727.349 607.244L721.282 617.232L720.794 619.559L721.581 621.849L720.24 623.89L719.319 624.608L714.128 631.248L712.864 632.14L711.112 632.811L700.93 635.736L699.754 636.306L694.553 637.723L693.976 637.585L692.578 637.952L690.327 639.645L689.451 639.994L688.453 641.383L687.221 642.247L686.135 643.903L682.563 646.138L682.353 646.68L679.203 647.848L677.029 648.014L674.655 647.609L673.047 644.74L671.073 645.154L667.091 648.713L661.368 648.207L657.498 650.635L650.843 650.892L633.508 653.072L628.406 650L626.232 649.982L609.673 655.895L590.175 656.87L564.599 657.303L509.865 657.22L500.338 656.935L477.357 656.834L466.077 656.254L458.325 656.392L455.863 651.968L454.332 650.019L446.136 644.482L437.928 639.838L435.067 637.585L430.375 637.134L417.521 640.169L406.84 640.059L397.668 632.122L396.304 631.551L394.108 632.232L391.779 634.504L382.429 637.382L376.584 638.127L373.711 640.059L368.232 642.1L361.7 648.124L343.81 652.263L335.148 653.559L316.382 658.13Z" fill="#E9FFBE"/>
<path d="M316.382 658.131L335.148 653.56L343.81 652.263L361.7 648.124L368.232 642.101L373.711 640.059L376.584 638.127L382.429 637.383L391.778 634.504L394.108 632.232L396.304 631.552L397.668 632.122L406.84 640.059L417.521 640.169L430.375 637.134L435.067 637.585L437.928 639.838L446.136 644.483L454.332 650.019L455.862 651.969L458.325 656.392L466.077 656.254L477.357 656.834L500.337 656.935L499.661 664.853L501.812 668.183L504.186 669.213L508.722 675.54L510.486 682.567L514.678 684.351L515.854 689.179L522.697 697.944V700.868L517.151 711.454L510.563 720.071L505.595 720.963L500.06 720.669L494.692 723.171L495.369 724.486L500.925 727.64L512.637 736.837L518.094 741.859L520.834 745.068L519.381 752.821L527.721 755.24L534.897 755.847L541.33 768.189L540.143 773.873L538.557 788.634L536.173 791.522L531.082 790.482L525.492 791.016L521.632 790.399L516.486 791.338L511.817 790.841L502.6 795.044L500.016 797.573L496.056 808.232L491.72 812.15L490.91 815.47L491.598 817.282L490.189 826.249L487.45 834.305L490.2 836.558L490.855 839.06L490.034 841.102L483.457 843.824L474.983 850.519L468.528 851.191L463.815 852.359L460.876 854.98L457.426 855.817L456.65 858.861L459.234 863.524L469.693 868.37L469.105 871.093L469.815 874.587L469.105 879.82L465.234 886.322L461.951 883.895L457.471 876.326L454.764 875.847L452.535 876.326L449.718 880.207L444.893 883.803L435.488 889.624L429.732 894.572L426.904 903.199L426.083 907.08L423.732 909.213L419.739 908.634L417.621 909.995L415.502 910.86L414.326 910.575V909.121L415.624 907.08L414.681 905.82L399.398 900.78L397.634 898.453L395.516 897.966L393.653 898.655L391.401 897.773L389.527 895.832L386.821 896.513L384.115 902.527L377.715 904.247L375.053 906.592L372.713 906.914L370.717 910.041L367.766 912.34L365.748 918.852L363.119 920.912L356.453 923.082L352.117 924.876L347.148 925.639H342.812L330.878 924.876L327.473 925.253L323.447 926.66L318.788 925.51H316.626L312.278 926.531L310.115 926.412L307.32 923.34L303.449 920.912L303.605 918.226L302.828 916.562L300.2 916.24L297.56 913.619L297.25 910.17L295.386 904.284L293.068 901.727L289.486 899.456L285.16 900.421L283.142 900.072L281.755 898.278L279.116 898.15L269.322 900.375L267.936 899.391L267.204 897L265.884 894.213L263.622 893.165L260.827 893.422L240.952 897.837L214.333 904.541L204.728 905.691L201.933 898.048L200.891 893.551L198.528 889.836L200.48 887.573L204.883 887.408L209.642 880.289L209.841 875.893L212.536 873.585L212.936 871.157L212.78 869.373L214.178 864.894L216.973 862.843L219.757 862.337L223.017 861.178L227.454 862.963L235.606 867.193L238.201 870.136L240.375 870.909L241.617 868.6L242.227 865.915L245.643 864.25L244.867 862.972L246.12 861.059L247.817 859.652L246.419 853.885L246.109 849.664L249.98 845.7L251.377 842.242L251.843 839.814L256.368 838.802L262.468 836.384L266.25 837L268.091 835.418L272.761 834.075L276.798 834.066L283.918 832.006L287.8 829.826L291.981 829.449L295.076 828.419L296.329 828.566L296.651 826.745L296.628 823.94L294.92 822.533L291.826 821.512L290.506 820.712L290.118 819.462L287.955 817.668L287.478 816.344L285.005 814.771L283.086 812.821L282.865 810.311L279.659 808.195L279.16 805.758L276.487 803.588L274.313 801.279L273.692 798.851L273.759 797.867L275.4 796.801L277.02 787.503L276.465 786.298L274.724 785.663L270.587 787.815L264.819 786.279L262.379 789.627L261.914 791.807L260.272 796.102L256.789 798.796L254.771 798.428L253.085 795.173L251.166 795.826L249.403 798.364L245.21 799.633L242.404 802.512L238.356 803.533L233.864 802.438L231.48 801.344L226.833 800.24L223.295 798.888L220.577 799.238L217.638 798.152L216.507 796.285L216.973 793.342L218.348 789.976L223.638 783.612L225.646 783.226L228.596 776.696L226.112 774.774L221.742 774.682L215.265 778.103L212.78 777.846L214.022 771.822L217.904 769.008L223.927 765.862L229.372 760.675L230.604 758.9L238.977 760.041L245.332 758.247L257.71 752.812L261.503 748.931L263.466 748.508L271.208 755.681L275.955 756.316L280.979 753.244L283.774 744.415L285.216 738.005L289.519 733.324L295.076 732.101L294.31 729.792L295.275 727.226L295.53 724.752L294.965 722.508L297.837 720.2L301.12 719.372L302.629 716.806L304.503 715.123L307.32 713.514L308.097 710.304L305.945 708.345L306.655 706.92L308.052 706.561L310.437 700.114L308.052 693.005L308.74 690.991L310.282 689.326L309.538 687.009L314.263 683.266L317.868 680.865L321.739 676.285L317.668 674.142L317.125 668.128L316.149 666.242L317.058 662.619L316.382 658.131Z" fill="#F7F2D2"/>
<path d="M564.355 270.208L563.057 269.969L559.929 265.564L559.364 263.743L561.094 263.66L561.87 263.31L563.201 260.266L563.756 259.678L566.717 258.087L567.216 256.983L567.194 253.461L568.226 252.072L570.965 249.543L571.786 248.218L572.418 246.563L572.618 244.825L572.13 242.691L572.174 241.284L573.971 238.727L573.682 235.278L573.86 233.402L574.436 231.692L577.409 229.144V226.541L576 224.923L575.357 223.212L575.324 221.318L574.669 219.405L575.79 214.797L576.688 213.123L580.126 210.806L581.579 209.371L582.577 207.228L584.097 201.894L585.073 200.882L586.182 198.914L586.747 198.629L587.346 197.452L589.387 196.192L591.262 193.791L593.114 190.012L593.025 187.087L593.568 183.445L594.999 182.295L599.458 181.468L602.109 179.95L604.615 179.665L605.436 179.003L605.602 177.577L606.944 176.455L607.665 174.561L610.737 171.793L611.436 171.774L611.946 171.443L613.011 169.659L613.921 168.868L615.118 168.546L615.285 168.197L614.63 167.047L614.686 166.275L615.007 165.879L617.381 164.803L618.723 163.203L618.834 162.246L619.765 161.465L620.154 159.101L623.98 155.496L625.489 151.219L627.219 150.401L628.15 150.53L630.125 151.808H631.555L635.415 152.764L637.156 154.484L639.785 156.112L642.081 156.287L644.077 156.048L650.92 153.85L652.296 153.077L654.769 150.585L655.856 149.012L661.9 145.848L664.052 145.232L665.594 144.349L670.44 143.246L673.269 141.986L676.829 141.011L678.06 139.972L679.968 136.284L681.731 135.594L687.11 134.913L694.22 132.219L698.856 130.986L701.174 129.542L701.473 128.402L701.229 126.848L701.529 124.686L702.327 122.387L701.495 119.095L700.541 117.77L698.7 116.952L697.525 115.756L693.82 114.037L692.756 113.144L691.502 111.406L691.602 110.56L693.521 109.677L695.096 108.151L696.105 107.801L697.813 105.989L698.079 105.391L697.58 104.021L698.113 101.722L697.547 100.388V99.5975L698.512 98.3559L697.58 97.7397L697.525 97.2983L699.366 95.3669L699.92 94.3645L700.109 94.5484L701.806 93.0585L701.373 90.9984L702.238 89.7201L703.525 88.5981L703.248 87.706L702.471 87.3289L699.554 82.5557L699.399 81.5993L699.654 80.1462L700.752 79.1989L702.172 78.8402L702.837 78.3804L702.859 77.7826L701.739 76.541L701.473 75.7041L702.937 73.9935L703.181 71.7862L703.525 71.2252L705.91 69.7262L705.854 68.3558L705.344 67.4913L704.224 67.0223L704.412 66.3785L703.614 65.4312L702.671 66.2038L701.861 66.3141L700.874 66.3325L700.575 66.5532L700.652 67.0867L699.211 66.8935L699.077 66.4521L698.656 66.2957L697.292 66.1578L697.192 65.8911L698.124 65.3577L696.571 63.739L696.726 63.0768L694.042 62.7642L693.743 62.4515L691.214 61.8904L691.369 61.4674L692.123 61.0719L692.534 59.766L691.658 60.2534L691.025 58.7819L691.247 57.6783L690.027 56.8506L688.962 56.7586L688.242 56.0413L687.254 56.124L687.044 55.9033L687.399 54.9744L687.11 54.4226L688.33 54.3858L687.709 53.0523L685.358 52.5281L684.803 51.8567L684.005 51.5624L684.227 50.8818L683.905 50.6979L682.851 51.2221L682.297 50.4496L680.944 50.1737L679.812 51.0106L679.369 49.9897L678.115 49.5115L676.396 49.907L674.666 49.5207L671.672 50.0541L670.44 49.6495L668.621 49.7046L666.248 48.7206L665.605 48.8034L663.597 50.0357L663.087 50.0541L662.3 48.8126L661.701 49.2448L662.344 50.1829L661.778 50.6703L660.902 49.1804L660.392 48.8861L657.453 49.3184L656.92 49.162L654.081 49.6954L653.571 49.4287L653.027 48.3803L651.164 47.3135L649.944 45.7132L648.181 45.281L648.879 44.3061L648.403 43.8003L648.48 43.4876L649.634 43.3772L649.8 42.9174L650.787 43.0093L650.343 42.1448L651.009 41.6114L650.155 41.2344L649.035 41.4735L648.935 40.0296L648.38 38.9443L649.711 37.7488L650.244 36.3324L651.02 35.9278L650.898 35.5875L652.972 34.861L654.381 33.8677V32.6813L656.721 30.704L657.198 29.5176L658.828 27.1448V26.1607L657.431 25.7653L656.721 23.5856L655.079 22.0038L652.273 20.6151L652.739 19.2355L653.682 18.2423L656.488 17.4513L659.305 15.8695L661.179 15.474L663.753 15.8695L665.394 16.4673L666.093 15.8695L667.268 12.7058L667.035 11.5194L666.326 10.333L664.451 9.93752L663.753 9.33973V8.5488H665.161L665.86 8.15334L668.2 10.7285L670.307 11.7125L672.415 13.699L677.339 14.2876L679.213 15.474L679.446 16.0718L676.629 16.8627L675.698 18.2423L676.163 19.0332L679.446 18.8401L680.855 19.4287L682.962 18.2423V15.8695L686.467 11.5194L686.711 10.1307L687.876 8.75113L687.41 4.39183V0.382013L688.585 0.234863L690.216 0.630327L692.09 2.61684L693.055 4.46541L691.868 6.07485L691.358 7.50036L691.414 8.58559L692.589 9.46849H693.82L694.253 9.76278L694.63 11.2711L695.295 12.2919L696.26 12.5586L697.003 12.2275L699.388 10.0755L699.765 10.3422L699.255 12.4207L699.388 13.1564L701.107 13.0461L704.102 14.913L707.096 14.867L709.048 14.4716L710.257 15.0878L711.034 16.2466L710.679 17.157L709.048 18.886L709.07 19.6586L709.802 20.5967L711.034 20.9737L711.754 20.2196L712.498 18.6469L713.784 18.1779L714.35 18.463L714.904 19.3735L715.337 20.6151L715.415 22.6108L715.792 23.0798L716.513 23.4845L718.842 23.5488L721.969 23.1718L723.356 23.7512L723.955 26.6574L725.685 30.005L725.995 31.3202L725.807 33.2883L726.239 34.7322L725.729 35.8174L726.45 37.6844L725.463 38.8524L725.352 40.3423L726.228 41.1608L726.927 40.9585L728.025 39.6801L728.668 39.5881L729.09 40.1491L729.6 43.1841L731.574 45.888L732.373 47.7733L732.051 51.4245L732.284 52.4453L731.186 55.1676L732.195 57.9818L731.63 61.3111L731.874 62.5894L731.175 64.4932L732.317 66.774L730.321 68.1259L730.177 68.7881L730.687 69.6342L731.541 69.7905L735.012 73.3129L736.476 73.8647L737.708 74.8856L738.85 75.419L740.369 75.5753L741.334 75.0971L741.978 73.9383L742.599 73.5428L743.663 73.4601L745.66 74.1682L746.946 75.0143L746.569 77.6262L748.299 78.0493L749.575 80.2657L748.976 81.4061L748.654 81.6269L747.534 81.5257L747.135 81.9487L749.242 83.9077L751.483 84.1008L752.492 84.8825L752.048 86.3632L751.205 87.1542L749.83 86.8323L748.699 87.1358L748.743 88.0922L749.819 89.7109L749.941 91.2192L749.586 91.7894L747.678 92.9666L747.401 94.0058L748.211 95.8084L748.821 98.5306L749.697 99.294L750.329 99.5423L750.917 99.4319L751.527 97.6202L753.435 99.0273L753.534 101.336L754.033 102.246L756.174 104.113L755.331 105.548L752.636 106.192L751.771 107.203L752.503 107.957L753.889 108.564L754.433 109.916L754.266 110.275L753.845 110.514L752.17 110.008L750.995 110.201L750.529 110.597L750.085 112.078L750.495 113.577L751.028 113.696L751.749 114.45L751.394 114.781L751.383 115.931L751.505 116.437L752.381 117.173L751.727 118.433L751.937 119.012L753.168 121.118L754.3 121.679L754.322 123.04L753.756 123.767L754.078 124.411L758.204 126.121L758.836 126.756L758.869 128.724L757.66 130.664L757.793 131.354L754.854 132.78L754.51 133.755L753.656 134.132L753.945 135.189L752.636 135.695L752.048 137.176L751.094 137.81L751.383 138.583L750.717 139.024L750.584 139.668L749.298 140.946L749.187 142.206L750.562 145.002L748.732 146.557L747.989 149.04L748.51 150.171L748.155 150.52L746.536 151.045L746.292 151.348L746.78 152.259L746.702 152.7L745.626 153.151V153.574L746.314 154.42L745.915 156.443L746.092 156.958L747.368 158.043L745.671 159.202L746.702 159.984L745.837 161.299L746.469 162.099L746.347 163.138L747.113 163.847L746.469 164.61L746.802 166.091L745.449 167.406L746.625 167.81L747.057 169.383L746.492 171.802L747.457 172.059L747.745 172.409L746.824 173.42L747.701 174.285L747.501 174.855L747.922 175.104L748.577 176.566L748.51 178.24L748.067 178.92L748.521 179.408L748.322 180.704L749.564 182.157L749.775 183.482L751.05 184.236L752.059 185.248L752.481 188.558L753.113 190.563L753.268 193.102L750.606 195.714L750.362 196.422L750.518 198.914L751.183 199.512L751.627 200.855L753.279 203.016L754.122 204.846L755.952 206.428L757.095 207.973L758.936 212.075L760.233 214.126L760.577 216.416L760.256 217.823L759.058 219.653L759.257 224.472L760.799 225.953L762.097 226.615L766.422 227.921L767.687 228.712L770.127 230.937L771.313 234.138L774.94 237.578L774.874 241.026L776.094 242.001L776.537 242.746L776.216 243.491L776.404 243.887L777.702 244.687L778.179 245.68L777.824 246.177L778.012 246.554L780.242 246.931L783.203 248.154L784.501 249.984L785.798 251.189L787.517 251.943L789.369 253.948L790.612 255.907L794.15 257.985L794.76 258.804L795.359 260.671L796.257 261.839L797.422 262.703L798.109 264.57L800.305 265.407L801.27 267.283L801.803 267.504L802.124 267.063L803.056 266.888L807.947 270.18L810.088 270.732L811.884 272.038L813.26 271.891L814.424 272.792L816.698 273.464L819.681 275.229L820.269 275.8L820.657 277.363L815.966 278.641L813.792 278.807L809.943 279.966L805.008 280.674L802.18 280.711L798.309 281.86L792.264 282.302L781.173 278.697L777.968 278.384L772.733 277.253L769.55 276.278L766.866 279.322L764.215 278.724L760.81 276.94L758.902 276.453H757.76L755.32 277.565L754.821 278.136L754.766 279.083L754.178 279.386L750.229 279.12L746.769 277.841L745.937 277.023L744.673 276.361L742.92 275.809L740.935 275.827L736.831 277.299L733.36 277.86L730.155 279.57L727.714 281.52L723.866 283.148L719.629 282.835L714.76 280.794L710.601 280.545L708.96 280.72L701.961 279.138L700.719 278.494L698.124 278.099L690.537 275.993L683.761 274.963L681.354 275.423L676.019 275.662L671.993 275.515L669.476 275.781L668.078 276.214L663.575 275.588L655.412 276.186L652.34 276.931L651.275 277.703L650.377 279.267L650.621 276.296L651.741 272.857L651.541 271.33L650.854 270.659L642.846 267.541L639.563 266.851L636.868 267.67H634.705L633.574 265.729L631.711 263.853L628.339 262.473L625.977 258.859L624.169 257.737L622.072 256.882L616.05 256.633L612.468 255.208L605.946 256.238L592.848 254.104L590.208 255.052L588.134 258.841L588.888 260.892L591.716 262.823L591.849 264.037L590.962 264.993L583.808 266.299L580.392 267.679L578.196 269.132L577.365 269.224L576.333 268.69L572.196 268.286L568.636 268.801L566.373 270.061L564.355 270.208Z" fill="#C9F2D0"/>
<path d="M677.162 648.437L677.594 649.164L676.463 651.904L676.596 652.925L677.583 653.974L678.215 655.693L681.643 658.158L682.219 658.894L682.896 660.788L684.338 662.14L684.781 664.035L686.212 665.175L687.21 665.562L688.674 665.626L691.846 664.909L692.878 665.516L694.186 664.881L695.928 663.529L696.926 663.446L698.079 663.777L699.355 665.755L699.211 670.565L700.02 673.213L700.342 681.629L700.12 684.452L698.989 686.3L698.19 688.489V689.621L696.427 693.814L696.371 694.946L696.626 696.049L697.669 697.245L698.301 699.618L700.464 702.579L699.078 703.793L699.1 704.529L698.623 705.467L697.414 706.46L697.747 707.61L697.17 709.329L697.447 711.868L697.137 712.649L694.408 713.882L694.397 715.648L693.588 716.402L692.035 718.857L691.602 720.522L691.081 720.982L691.026 721.396L691.636 721.92L690.294 722.564L688.685 724.173L689.24 725.341L693 727.787L694.519 729.112L695.784 729.093L696.804 729.811L698.845 730.123L699.521 729.866L701.695 730.5H702.937L703.747 731.714L704.989 732.202L705.643 733.499L707.828 741.362L707.329 742.125L706.043 742.622L705.777 743.707L706.664 745.105L706.564 746.098L707.418 748.361L706.32 748.876L706.653 749.446L705.943 749.768L706.464 750.421L705.865 751.442L707.618 753.382L707.873 754.136L707.34 755.746L707.496 756.16L706.708 757.263L707.629 758.045L709.137 761.825L710.124 763.021L709.914 763.719L709.182 764.152L709.514 764.869L709.304 765.43L709.936 766.111L710.845 769.21L710.601 769.734L710.79 770.452L710.024 772.125L708.66 772.705L710.668 774.949L711.211 778.812L710.945 781.221L711.355 782.693L711.089 784.284L711.999 785.433L712.309 786.408L711.999 787.3L713.851 788.192L714.949 789.93L716.546 790.17L716.779 790.786L718.842 792.873L720.572 793.94L721.504 795.283L722.369 795.357L723.445 795.899L723.966 796.617L726.084 796.837L726.45 797.858L728.18 798.428L730.133 800.728L732.04 801.022L736.122 802.788L736.721 803.809L737.874 803.919L739.105 803.68L740.525 804.011L741.124 804.967L744.44 805.473L745.25 807.625L745.194 808.315L746.081 809.428L746.392 810.531L746.836 810.669L747.623 810.237L747.911 810.449L748.377 811.065L748.067 811.644L749.863 813.3L750.329 814.431L751.56 815.672L752.448 815.847L753.523 818.358L753.424 819.857L754.189 820.62L753.657 822.552L754.377 824.005L754.854 824.354L754.322 825.329L754.821 826.939L754.732 827.996L755.498 828.566L755.176 829.045L755.464 829.652L755.22 830.13L755.586 830.718L754.799 831.951L755.664 833.597L756.995 834.038L757.328 834.691L758.348 835.344L758.526 836.365L759.28 837.405L759.624 838.554L762.418 838.278L763.028 838.453L763.539 839.649L762.308 840.274L760.289 840.688L759.269 841.617L755.365 842.38L754.344 842.316L753.634 842.766L750.307 843.539L749.187 845.029L752.913 845.148L753.701 846.408L754.821 849.949L770.892 871.727L790.534 889.183L800.516 897.497L815.489 912.028L816.465 913.278L817.508 913.977L822.576 919.091L824.351 920.268L827.978 924.232L833.723 929.566L834.543 930.191L835.331 929.391L837.139 929.557L838.525 928.867L840.932 928.738L841.586 928.959L842.108 929.787L844.015 929.925L845.779 931.727L848.385 935.654L849.295 935.958L853.243 940.161L853.82 940.096L854.141 939.296L854.773 938.993L857.358 938.91L857.69 939.416L858.533 939.83L858.755 940.74L860.374 941.439L860.874 941.393L860.973 942.874L862.792 944.916L863.546 946.93L865.132 948.079L866.752 952.245L866.951 955.805L865.798 956.66L865.132 957.616L862.859 958.361L862.593 958.665L863.624 961.746L864.168 962.353L863.957 963.006L864.245 964.257L863.613 964.818L864.234 965.36L863.68 965.792L863.868 966.188L864.755 966.51L866.242 966.565L867.018 967.199L865.354 969.572L864.467 972.901L864.778 974.18L866.463 976.911L866.186 979.532L864.456 983.542L864.589 984.37L866.353 986.274L866.486 986.881L866.275 988.058L865.41 989.336L866.308 990.743L866.341 991.304L868.56 992.813L869.979 996.124L873.75 1000.23L873.961 1001.94L876.312 1007.37L876.201 1008.15L875.492 1009.21L875.591 1010.02L878.564 1012.09L878.708 1012.78L877.388 1014.43L875.048 1015.27L873.617 1016.64L872.974 1016.63L871.887 1014.64L867.728 1014.46L866.63 1015.02L865.92 1019.92L865.964 1021.74L866.774 1022.78L867.04 1023.77L866.907 1025.22L866.219 1026.02L864.29 1027.02L864.733 1027.88L866.397 1028.74L866.43 1029.4L865.643 1030.74L863.946 1031.95L863.136 1033L863.436 1035L863.125 1035.97L865.92 1038.21L867.173 1043.46L867.927 1043.81L869.358 1043.51L869.879 1043.75L869.669 1045.62L869.979 1046.78L871.332 1050.49L872.796 1052.11L873.573 1055.52L872.752 1057.19L872.774 1059.01L874.238 1060.92L873.296 1063.03L872.198 1062.72L871.155 1061.8H869.78L866.353 1062.73L864.157 1065.75L860.463 1065.36L860.053 1065.04L859.354 1063.28L859.831 1061.14L859.654 1060.66L858.877 1060.14L858.844 1059.6L860.641 1056.73L860.796 1056.17L860.485 1055.47L859.809 1055.19L856.359 1055.61L852.156 1055.51L849.35 1054.41L847.232 1054.21L846.588 1052.94L845.124 1052.91L843.816 1053.86L843.139 1053.83L843.45 1053.03L842.296 1050.09L841.775 1049.59L839.501 1049.41L837.937 1048.02L834.787 1046.99L833.335 1045.78L832.558 1044.15L829.93 1041.72L828.233 1041.04L825.782 1041.3L825.105 1040.62L821.012 1039.42L819.182 1039.76L817.275 1039.47L812.029 1038.44L810.287 1037.56L807.071 1038.1L804.864 1036.79L804.054 1036.86L803.156 1037.55L802.612 1037.48L798.963 1035.41L798.209 1035.43L797.322 1036.01L792.043 1037.19L790.867 1037.67L789.314 1038.89L787.562 1039.13L781.972 1041.49L780.774 1039.82L780.863 1038.78L779.077 1039.64L777.646 1039.29L777.414 1038.8L777.78 1037.2L777.369 1036.18L775.805 1034.74L774.685 1033.98L773.155 1033.53L772.267 1032.52L770.382 1032.26L771.358 1030.7L770.293 1030.29L768.097 1030.13L767.077 1029.77L765.047 1029.91L762.973 1031.76L762.163 1031.25L761.132 1029.36L760.001 1029.46L759.69 1029.72L759.346 1031.84L758.714 1032.38L756.496 1032.05L755.686 1033.2L755.498 1034.32L754.899 1035.16L751.183 1035L751.217 1033.4L750.174 1032.98L748.499 1034.97L747.945 1035.34L747.457 1035.25L746.614 1034.58L746.492 1033.2L745.427 1032.5L743.652 1031.91L741.124 1030L740.314 1030.62L739.604 1032.29L738.95 1032.7L737.408 1033.09L733.804 1033.33L732.861 1033.01L730.931 1031.4L732.739 1029.67L733.194 1027.97L732.883 1027.49L730.066 1026.88L729.278 1026.4L728.968 1025.47L729.023 1023.47L728.691 1022.98L728.114 1022.9L726.805 1023.69L727.637 1024.99L727.404 1025.66L725.519 1025.35L724.454 1025.59L722.901 1027.25L721.448 1027.71L720.949 1027.66L719.485 1026.38L719.097 1026.35L717.478 1027.37L716.901 1027.33L716.357 1026.69L717.167 1025.01L716.568 1024.15L715.348 1024.2L714.039 1024.96L713.407 1024.89L713.33 1024.16L714.66 1024.18L714.827 1023.64L711.721 1021.63L711.089 1021.64L710.912 1021.92L711.433 1022.96L711.4 1023.36H710.989L710.047 1022.94L708.638 1022.85L708.217 1021.86L706.73 1020.84L703.314 1021.13L702.738 1020.97L702.139 1020.15L702.56 1019.31L702.383 1018.89L701.784 1018.53L700.42 1018.42L698.312 1015.17L697.691 1014.6L695.917 1014.14L695.395 1013.32L695.007 1013.19L693.876 1014.03L693.199 1013.97L692.013 1013.21L690.748 1014.58L677.927 1018.44H677.151L675.398 1016.72L673.724 1015.94L669.808 1015.7L668.611 1015.9L663.797 1015.19L659.205 1015.69L657.686 1016.91L656.466 1016.97L590.896 1017.06L588.866 978.935L587.99 973.343L585.727 951.298L585.96 948.006L581.025 949.845L578.629 952.806L576.433 952.558L575.024 952.751L574.914 954.306L572.562 954.011L571.154 955.372L572.44 957.8L570.91 959.06L564.743 960.265L557.279 956.338L553.841 957.423L550.691 955.667L547.752 953.34L545.644 954.011L545.445 954.462L547.397 958.766L545.289 959.345L544.225 955.667L542.472 954.076L537.881 951.399L536.35 952.852L532.535 953.441L529.884 951.105L527.888 952.558L526.712 953.919L524.483 952.954L517.662 952.466L512.837 949.845L510.02 951.298L504.852 950.333L500.26 950.424L498.263 949.073L496.145 949.358L493.439 947.132L491.21 946.553L487.328 941.513L487.15 932.123L486.274 924.25L480.862 916.203L476.159 911.733L465.179 903.245L462.994 900.486L463.227 895.05L464.059 888.944L465.234 886.322L469.105 879.82L469.815 874.587L469.105 871.093L469.693 868.37L459.234 863.524L456.65 858.861L457.426 855.817L460.876 854.98L463.815 852.359L468.528 851.191L474.983 850.519L483.457 843.824L490.034 841.102L490.855 839.06L490.2 836.558L487.45 834.305L490.189 826.249L491.598 817.282L490.91 815.47L491.72 812.15L496.056 808.232L500.016 797.573L502.6 795.044L511.817 790.841L516.486 791.338L521.632 790.4L525.492 791.016L531.082 790.482L536.173 791.522L538.557 788.634L540.143 773.873L541.33 768.189L534.897 755.847L527.721 755.24L519.381 752.821L520.834 745.068L518.094 741.859L512.637 736.837L500.925 727.64L495.369 724.486L494.692 723.171L500.06 720.669L505.595 720.963L510.563 720.071L517.151 711.454L522.697 700.868V697.944L515.854 689.179L514.678 684.351L510.486 682.567L508.722 675.54L504.186 669.213L501.813 668.183L499.661 664.853L500.337 656.935L509.865 657.22L564.599 657.303L590.175 656.871L609.673 655.896L626.232 649.982L628.406 650.001L633.507 653.072L650.843 650.893L657.497 650.635L661.368 648.207L667.091 648.713L671.073 645.154L673.047 644.74L674.655 647.609L677.029 648.014L677.162 648.437Z" fill="#FCD6C5"/>
<path d="M125.55 866.696L126.437 867.635L126.692 868.26L126.404 868.527L125.771 868.104L125.372 866.779L125.55 866.696ZM106.229 843.916L106.772 845.167L108.292 845.111L108.614 845.452L108.647 845.764L108.802 846.031L109.911 847.236L109.978 848.229L109.434 849.25L108.736 849.691L108.481 851.237L107.815 851.816L106.928 851.899L106.606 852.451L106.761 852.607L106.917 852.92L107.105 852.993L107.139 852.073L108.658 852.23L109.002 852.129L110.177 852.23L111.508 853.195L111.885 853.14L111.786 853.379L106.772 855.256L104.366 855.541L99.5411 854.391L95.26 852.313L98.6871 849.075L98.2435 848.947L98.3433 848.294L98.8535 848.56L99.8073 848.376L101.072 848.818L101.582 848.717L101.648 848.349L102.502 848.56L103.833 847.512L103.678 845.498L104.344 845.424L105.076 844.458L106.229 843.916ZM115.49 842.913L116.311 843.171L116.189 844.063L116.921 843.438L117.708 844.063L118.307 847.254L117.83 847.595L117.542 848.404L116.466 848.119L114.658 848.146L113.516 847.227L112.728 847.328L111.653 846.62L112.95 845.203L112.828 844.652L113.749 844.495L114.004 843.943L115.49 842.913ZM107.405 842.628L107.782 842.895L107.97 844.937L106.961 845.01L106.639 844.091L106.007 843.484L107.405 842.628ZM115.268 841.479L116.632 841.663L117.01 842.426L115.49 842.187L115.013 841.745L115.268 841.479ZM112.54 841.24L113.139 841.479L113.46 842.03L113.904 841.874L114.791 842.996L113.904 843.263L114.026 843.447L113.46 843.787L113.239 844.339L112.318 843.916L111.874 844.1L111.841 844.596L112.407 845.203L110.954 845.985L109.368 845.249L109.146 844.302L108.225 843.309L108.636 843.051L111.841 842.656L112.03 842.076L111.963 841.617L112.54 841.24ZM112.096 839.143L112.695 839.667L112.662 839.98L113.227 839.952L113.516 840.476L112.972 841.028L112.307 841.056L111.508 841.58L111.586 842.398L110.011 842.582L109.412 842.086L109.667 841.221L109.512 839.419L109.889 839.207L110.876 839.575L112.096 839.143ZM108.736 838.149H108.725L108.736 838.131V838.149ZM111.397 838.048L111.653 838.444L110.887 839.253L110.477 838.389L111.397 838.048ZM109.479 837.644L110.033 838.177L109.113 839.299L108.858 841.92L108.414 842.288L106.983 842.472L105.852 843.254L105.863 842.95L106.517 842.306L106.673 841.69L107.471 841.184L107.161 840.311L108.048 840.154L108.103 839.437L108.603 839.354L109.113 837.855L109.479 837.644ZM112.64 835.298L113.083 835.455L111.653 837.184L111.309 836.301L111.719 835.142L112.64 835.298ZM112.606 833.698L113.616 834.728L113.083 835.216L112.296 835.004L111.786 834.195L112.606 833.698ZM113.527 834.14L114.691 834.885L116.311 834.857L117.509 833.956L118.762 831.868L119.793 830.93L117.509 828.456L118.108 826.322L117.01 825.587L115.412 826.083L110.333 826.902L108.835 825.504L105.852 825.255L105.353 823.692L106.584 819.976L107.505 815.801L108.824 814.808L111.087 810.881L115.224 805.399L113.649 802.392L114.081 800.718L114.17 797.72L116.133 795.209L117.254 792.947L119.694 789.231L124.319 783.502L128.433 784.559L131.506 783.447L131.262 779.897L137.949 772.999L139.225 766.948L148.785 758.68L149.107 757.916L148.73 756.951L145.525 755.691L145.647 753.493L150.127 745.703L151.669 745.169L155.285 744.939L156.039 743.68L150.516 735.504L146.279 732.846L143.096 723.198L143.584 721.69L147.698 722.205L149.229 721.69L151.968 717.855L153.211 716.917H156.937L155.506 723.548L156.039 724.982L158.29 725.81L159.899 725.838L162.35 724.072L164.257 724.237L167.185 723.962L170.136 726.426L172.553 731.163L172.121 734.749L170.801 737.867L173.419 743.808L179.951 745.786V749.566L180.85 752.499L183.023 752.748L185.253 756.693L188.269 756.564L188.902 754.854L191.918 749.86L198.44 746.705L198.917 743.155L200.348 741.573L202.987 741.84L206.559 743.017L209.531 742.282L215.099 741.969L216.097 742.751L215.775 745.381L216.407 747.22L219.036 749.363L219.812 750.614L220.622 754.716L222.452 756.04L224.648 755.001L225.402 755.727L226.123 758.275L230.582 758.919L229.351 760.694L223.905 765.871L217.882 769.017L214.012 771.84L212.769 777.864L215.254 778.122L221.72 774.71L226.101 774.792L228.585 776.715L225.635 783.244L223.617 783.631L218.337 789.995L216.962 793.361L216.496 796.304L217.627 798.162L220.566 799.256L223.284 798.907L226.822 800.249L231.469 801.362L233.854 802.447L238.345 803.542L242.394 802.521L245.2 799.642L249.381 798.373L251.156 795.835L253.063 795.182L254.749 798.428L256.768 798.796L260.25 796.101L261.892 791.807L262.357 789.627L264.798 786.27L270.565 787.806L274.702 785.654L276.443 786.288L276.998 787.493L275.378 796.791L273.737 797.858L273.67 798.842L274.291 801.279L276.465 803.588L279.138 805.758L279.637 808.186L282.843 810.301L283.064 812.812L284.972 814.762L287.445 816.344L287.922 817.668L290.096 819.461L290.484 820.703L291.804 821.503L294.899 822.524L296.607 823.931L296.629 826.736L296.296 828.557L295.054 828.41L291.959 829.431L287.778 829.817L283.907 831.997L276.776 834.057H272.75L268.08 835.4L266.239 836.981L262.446 836.365L256.346 838.784L251.821 839.796L251.355 842.224L249.958 845.682L246.087 849.645L246.398 853.867L247.795 859.624L246.098 861.04L244.845 862.953L245.621 864.232L242.216 865.896L241.595 868.582L240.353 870.881L238.179 870.118L235.573 867.165L227.432 862.944L222.995 861.16L219.735 862.31L216.951 862.825L214.156 864.866L212.758 869.345L212.914 871.139L212.514 873.557L209.808 875.866L209.609 880.262L204.85 887.38L200.447 887.546L200.203 885.338L197.109 884.189L196.022 882.524L194.78 881.88L191.519 883.803L186.65 883.812L185.474 885.853L179.175 892.503L179.419 894.618L178.964 897.11L179.43 899.796L177.411 901.589L177.722 903.254L175.703 907.089L169.659 909.774L165.633 913.094L160.276 913.858L160.087 914.308L159.666 913.26L160.176 913.131L160.364 911.871L159.1 909.885L155.296 905.93L149.174 900.302L144.959 896.586L141.31 893.919L140.744 893.395L133.236 888.833L131.517 888.051L131.073 887.739L130.973 887.159L129.675 886.479L129.642 886.139L130.208 886.083L130.463 886.341L131.228 885.532L130.94 885.329L130.596 885.789H130.341L131.006 884.851L130.818 884.382L130.696 884.042L130.319 883.49L130.729 883.094L131.273 880.685L131.716 880.133L132.127 879.664L132.005 878.882L131.428 878.257L130.696 877.135L128.544 873.051L120.237 862.135L120.392 861.85L122.422 863.523L124.008 864.259L125.306 867.193L125.372 868.002L126.038 868.6L127.59 869.023L128.256 868.628L129.908 869.097L132.293 869.069L133.114 868.545L133.269 866.632L132.703 867.055L132.803 867.34L132.459 868.573L130.274 868.205L127.89 867.313L127.158 865.611L125.228 863.045L125.86 862.788L126.149 862.006L126.027 860.093L127.457 857.527L129.077 857.086L130.152 857.923L132.814 859.229L133.158 859.882L133.003 860.249L133.446 860.121L133.735 859.624L135.166 861.537L135.387 861.436L134.977 861.04L135.099 860.571L135.831 861.151L136.308 861.178L135.698 862.31L136.397 862.622L136.685 863.386L137.095 865.115L136.973 866.319L136.275 867.938L134.145 868.83L133.768 869.428L135.509 870.449L135.631 871.939L136.108 872.362L136.996 872.573L136.297 871.626L136.363 871.313L135.953 871.074L136.208 870.476L134.689 869.115L134.722 868.747L136.718 868.039L137.317 868.619L137.35 867.754L137.983 867.202L138.105 866.623L140.511 866.862L139.879 866.494L138.615 866.439L138.271 866.154L137.728 865.372L137.85 863.459L136.008 860.001L136.674 858.879L137.916 858.484L138.326 856.837L137.151 856.102L137.029 855.605L137.35 855.265L136.496 854.842L134.755 853.012L135.01 852.57L136.496 852.782L137.983 852.046L136.907 849.848L135.166 850.528L132.814 850.584L131.572 850.271L129.953 850.455L128.777 849.747L128.522 848.358L128.777 847.493L129.631 848.091L129.975 848.036L129.786 846.804L131.084 844.707L131.971 844.155L132.604 843.263L134.855 844.569L137.04 844.256L137.295 844.937L138.659 845.121L139.225 845.902L139.791 845.801L139.535 845.544L139.058 845.231L137.062 843.925L136.142 843.87L135.166 844.33L134.112 843.502L134.145 842.904L133.58 842.297L133.613 841.561L133.835 841.46L134.123 842.012L134.722 842.168L135.132 841.617L134.09 841.35L136.851 839.069L136.973 838.545H136.53L133.679 839.308L132.027 839.281L132.315 839.86L130.574 841.148L130.097 842.012L128.611 842.04L129.054 842.481L128.955 842.877L125.051 844.183L123.365 844.256L122.189 843.916L121.59 843.208L122.444 841.874L122.411 841.745L122.755 840.982L123.076 840.559L122.122 841.157L121.867 842.178L121.457 842.518L121.08 842.15L121.235 841.212L122.755 839.768L122.466 839.74L121.49 840.679L120.825 841.129L120.414 842.049L120.925 843.226L120.259 843.327L119.117 842.932L119.239 841.985L119.017 841.801V842.38L117.908 842.352L117.808 841.727L117.331 841.672L117.653 841.019L116.766 841.102L116.699 840.577L115.745 839.814L116.411 839.501L115.967 839.345L115.523 839.786L115.046 839.575L115.523 838.37L115.967 838.03L115.113 837.975L115.18 838.683L114.802 839.336L114.359 839.179L113.627 838.103L113.749 837.607L113.338 837.423L113.15 836.825L113.693 835.593L114.237 835.335L114.126 834.701L113.704 834.526L113.527 834.14Z" fill="#E8BEFE"/>
<path d="M809.123 498.842L809.644 500.405L809.001 502.06L807.681 503.339L807.493 503.927L808.202 504.847L808.125 505.279L805.385 507.321L804.321 508.471L802.291 509.62L801.603 510.816L800.006 511.487L799.152 512.618L799.363 513.29L797.788 514.117L797.777 514.724L797.1 515.221L795.781 515.745L795.914 516.619L795.06 518.164L793.873 518.394L792.952 520.049L791.976 520.463L794.805 522.634L795.548 524.491L791.255 525.264L790.324 526.202L786.409 528.676L783.237 531.619L781.185 531.932L777.824 533.79L774.652 536.116L769.617 534.718L767.188 534.875L764.204 535.804L762.896 536.429L760.289 539.519L757.483 542.002L752.448 544.476L750.019 544.789L747.601 544.329L745.738 544.476L743.497 545.258L737.519 548.045L726.14 551.916L723.9 551.604L722.036 552.073L720.728 553.158L716.069 555.172L711.777 557.49L709.348 558.115L704.313 558.731L701.141 557.333L699.089 554.703L693.377 554.133L691.724 551.87L688.486 546.306L675.321 546.72L665.871 545.479L667.324 541.119V536.898L666.226 532.52L664.596 530.561L659.694 529.2L655.335 523.011L652.24 521.052L652.606 518.182L649.523 517.125L645.519 514.862L644.61 508.976L642.247 507.165L624.502 505.62L622.206 505.721L616.117 503.863L615.607 502.704L615.829 501.371L616.383 500.442L616.161 499.154L615.44 497.49L614.209 496.975L607.654 498.041L602.841 498.372L600.778 499.522H598.959L596.164 499.991L594.623 499.872L592.526 499.062L589.72 498.823L584.408 500.92L582.722 501.968L578.951 502.548L576.988 503.946L575.868 506.383L574.193 506.502L572.928 506.153L569.989 504.056L568.869 502.428L562.991 500.69L561.039 499.292L559.774 497.434L558.1 495.807L556.414 494.988L551.8 494.289L547.874 494.409L545.012 496.478L544.813 497.83L544.192 498.943L544.746 502.787L543.36 504.626L541.707 504.056L537.67 504.488L529.219 504.286L521.533 503.311L516.264 501.564L511.651 499.586L493.45 497.655L472.466 489.792L471.867 483.648L473.353 479.473L472.166 476.521L470.392 473.817L464.791 473.872L455.574 472.106L450.295 468.897L439.814 460.656L434.335 455.865L429.333 450.347L429.599 448.627L429.466 445.068L428.534 439.816L427.226 435.282L428.046 430.325L430.542 425.975L435.267 424.945L437.008 425.773H439.492L442.731 423.703L443.629 421.027L446.313 420.889L447.045 420.475L448.299 418.737L447.456 415.408L445.958 413.127L444.472 411.683L444.716 409.605L447.7 408.988L450.938 409.605L455.43 407.158L460.898 408.197L465.767 409.761L467.286 409.577L473.553 405.346L474.762 405.227L476.958 405.503L477.579 405.061L478.555 404.132L479.409 402.229L481.217 401.107L481.549 400.205L481.494 396.922L482.57 395.239L485.254 394.411L489.546 394.678L491.542 392.977L492.43 391.358L492.208 389.85L493.971 386.383L494.726 382.86V378.087L496.112 374.482L496.789 373.59L496.467 369.129L495.469 366.425V364.77L497.709 360.613L498.452 356.879L501.624 352.216L501.924 350.23L503.266 349.163L503.388 347.462L502.933 343.82L502.911 340.251L503.277 339.24L503.099 337.731L502.201 337.097L498.685 337.051L497.831 336.683L497.953 335.257L497.654 334.623L498.685 333.896L502.966 332.038L504.608 331.597L506.005 330.834L506.56 329.85L507.514 329.013L509.421 328.203L511.54 326.41L514.534 325.978L519.592 322.676L520.967 322.777L522.376 322.363L524.649 322.547L526.18 321.95L529.197 322.133L532.624 321.269L533.844 321.499L535.696 320.965L537.515 319.402L539.278 319.595L540.432 317.655L541.175 317.084L541.33 315.714L542.539 313.718L541.752 312.753L541.907 312.183L541.596 311.548L542.151 310.601L541.552 309.414L541.973 308.522L543.537 307.161L543.038 305.469L543.471 304.108L544.025 303.501L543.892 302.397L544.269 300.052L544.591 299.353L546.554 297.799L547.33 296.309L548.262 295.316L548.073 294.506L546.399 292.888L544.646 291.747L543.67 291.775L541.441 290.864L540.864 289.126L540.154 288.409L540.332 287.995L539.955 286.652L540.21 285.705L541.297 284.693L543.615 283.59L544.879 281.695L545.733 279.387L545.678 278.421L543.792 277.235L542.827 275.938L542.55 274.429L543.083 273.243L545.9 271.119L546.953 269.224L550.269 265.435L551.955 264.819L555.748 264.865L557.867 263.982L559.364 263.743L559.93 265.564L563.057 269.969L564.355 270.208L566.374 270.061L568.636 268.801L572.196 268.286L576.333 268.691L577.365 269.224L578.197 269.132L580.393 267.679L583.809 266.299L590.962 264.994L591.85 264.037L591.717 262.823L588.888 260.892L588.134 258.841L590.208 255.052L592.848 254.104L605.946 256.238L612.468 255.208L616.05 256.634L622.073 256.882L624.169 257.737L625.977 258.859L628.339 262.474L631.711 263.853L633.574 265.729L634.706 267.67H636.868L639.563 266.851L642.846 267.541L650.854 270.659L651.542 271.33L651.741 272.857L650.621 276.296L650.377 279.267L650.255 280.601L649.567 282.035L648.702 285.457L647.482 287.02L640.329 294.865L638 296.621L637.024 298.203L634.084 299.656L632.82 300.999L631.267 304.034L630.635 307.363L630.935 309.626L633.752 311.704L635.504 315.144L637.356 316.505L638.288 317.71L639.796 318.712L640.806 320.073L643.933 322.878L647.482 325.086L650.233 325.739L650.876 328.415L652.595 328.893L654.104 329.813L657.021 333.997L660.082 335.726L662.599 336.389L664.662 336.361L666.936 339.911L668.899 341.989L671.461 343.084L672.459 343.81L673.258 345.779L672.914 347.646L671.628 350.138L671.417 351.563L671.894 352.547L677.55 356.861L679.325 359.27L682.386 360.604L684.737 362.554V363.013L683.706 364.043L683.739 364.568L686.645 368.219L689.706 368.853L692.323 370.169L699.266 375.751L699.921 376.018L706.287 381.839L710.346 384.332L711.666 385.739L712.775 386.41L714.461 388.424L715.936 389.086L720.761 389.326L722.402 390.227L723.877 389.969L725.486 390.08L726.062 389.482L726.828 389.289L727.537 389.445L728.17 388.811L728.857 389.408L729.356 389.086L730.942 389.491L731.952 391.091L731.996 391.928L734.07 393.299L732.395 394.568L733.992 395.377L737.009 395.34L737.53 396.012L739.926 396.674L741.357 398.145L740.691 401.024L741.268 402.008L743.398 401.907L746.536 402.652L748.721 403.995L750.962 404.464L754.311 408.713L755.642 411.757L760.622 416.171L763.273 417.836L766.256 420.319L767.92 422.526L768.574 425.294L774.342 433.618L775.284 437.03L775.883 438.124L777.07 439.669L778.268 442.097L788.061 458.035L787.229 462.523L788.172 464.878L790.146 466.404L790.878 467.6L794.339 476.41L796.124 479.353L800.916 485.764L802.18 486.26L810.088 487.658L810.798 488.486L810.077 490.693L810.576 491.3L810.31 492.082L810.598 492.919L810.609 495.356L810.898 495.834L810.52 497.232L809.123 498.842Z" fill="#BEFFE8"/>
<path d="M191.685 566.898L192.705 570.742L195.134 572.756L199.238 574.154L203.896 574.301L209.497 573.529L221.997 572.913L228.152 573.225L229.838 572.453L229.628 569.022L232.101 568.388L232.7 567.56L233.72 566.861L233.898 564.792L235.018 562.897L236.293 557.646L235.972 556.496L236.282 555.255L236.149 553.222L236.648 552.873L236.46 552.293L237.258 546.297L237.547 545.948L238.334 546.251L238.855 546.932L239.776 547.189L240.597 547.952L240.63 549.819L241.329 551.153L240.364 554.096L243.78 556.515L246.486 557.057L246.963 556.929L247.229 556.358L249.525 557.324L249.802 557.664L249.747 558.878L250.201 559.642L251.621 559.761L258.575 563.311L263.267 564.801L266.782 564.709L269.389 566.567V570.439L271.818 573.372L272.195 577.557L274.613 580.344L277.973 582.045L282.454 582.514H287.301L293.833 586.689L295.053 590.01V591.316L294.432 593.422L293.8 599.602L295.375 602.996L295.264 604.734L296.839 611.089L298.414 613.176L300.2 614.39L301.985 614.832L309.139 614.997L310.171 618.051L308.285 627.008L307.442 628.149L305.557 629.446L304.714 629.703L304.193 631.009L302.917 632.591L300.832 633.704L296.418 633.961L287.811 632.747L286.558 633.529L285.715 634.403L286.347 638.311L287.423 640.068L285.97 641.576L285.615 646.073L283.441 648.18L276.01 651.776L270.01 653.238L267.67 654.967L265.174 654.719L260.461 653.348L256.257 652.631H252.486L250.601 653.505L246.153 661.451L242.848 668.78L239.975 671.907L226.988 671.659L218.337 673.158L214.976 673.37L208.488 674.446L207.534 680.24L205.15 681.95L202.843 681.169L200.07 678.658L191.341 676.331L184.942 680.654L182.313 680.874L172.708 679.476L169.37 678.134L165.3 679.164L162.871 681.408L156.582 678.75L148.652 676.828L144.127 674.492L142.208 671.898L140.012 670.454L136.03 671.089L132.736 668.532L131.15 666.619L127.812 665.24L125.56 663.419L126.692 661.929L128.466 658.425L125.771 655.436L125.139 653.79L125.394 652.033L133.879 648.446L138.249 644.703L140.733 638.532L143.561 634.256L142.208 631.073L143.561 622.254L140.389 618.694L141.886 614.951L142.286 610.601L138.237 607.373L140.988 598.884L142.186 597.027L142.885 594.562L143.983 594.001L143.849 592.759L144.504 592.364L143.894 590.708L144.415 590.295L143.827 589.255L144.382 588.161L144.526 586.515L145.946 585.025L145.99 584.308L145.391 583.82L147.044 580.564L148.386 581.171L148.53 581.493L149.406 581.585L149.805 581.052L151.469 581.834L155.539 581.972L158.002 583.084L162.405 578.891L166.531 575.994L168.582 573.179L172.054 570.742L173.074 570.558L174.272 568.838L185.053 561.297L189.4 557.526L191.031 558.005L190.909 559.246L192.04 559.421L192.251 559.807L191.253 561.058L191.918 562.336L192.439 562.419L192.816 564.203L192.273 566.319L191.718 566.236L191.685 566.898Z" fill="#E9FFBE"/>
<path d="M307.443 628.149L310.592 629.446L315.628 629.786L319.199 630.917L320.242 633.161L319.909 635.295L318.367 636.279L318.467 639.029L318.046 642.588L318.567 644.593L319.51 645.982L321.406 647.637L322.238 649.026L322.449 650.332L320.142 654.498L318.678 656.411L316.382 658.131L317.058 662.619L316.149 666.242L317.125 668.128L317.668 674.142L321.739 676.285L317.868 680.865L314.264 683.266L309.539 687.009L310.282 689.326L308.74 690.991L308.053 693.005L310.437 700.114L308.053 706.561L306.655 706.92L305.945 708.345L308.097 710.304L307.321 713.514L304.503 715.123L302.629 716.806L301.121 719.372L297.838 720.2L294.965 722.508L295.531 724.752L295.276 727.226L294.311 729.792L295.076 732.101L289.519 733.324L285.216 738.005L283.774 744.415L280.979 753.244L275.955 756.316L271.208 755.681L263.467 748.508L261.504 748.931L257.71 752.812L245.333 758.247L238.978 760.041L230.604 758.9L226.145 758.257L225.435 755.718L224.681 754.982L222.496 756.022L220.666 754.697L219.846 750.605L219.069 749.354L216.452 747.211L215.808 745.372L216.13 742.741L215.132 741.96L209.564 742.272L206.592 743.008L203.021 741.831L200.381 741.555L198.95 743.137L198.473 746.687L191.952 749.841L188.935 754.845L188.303 756.555L185.275 756.684L183.046 752.738L180.872 752.49L179.984 749.556V745.776L173.452 743.799L170.834 737.858L172.154 734.74L172.587 731.154L170.169 726.417L167.219 723.952L164.291 724.237L162.372 724.063L159.921 725.829L158.313 725.801L156.061 724.973L155.54 723.538L156.971 716.908L159.477 715.565L161.584 713.394L162.56 711.325L164.878 709.936L165.91 707.665L166.764 697.594L167.984 695.571L174.949 691.929L178.221 689.694L179.186 688.425L182.258 687.855L185.086 686.181L184.676 683.845L182.314 680.874L184.942 680.654L191.342 676.331L200.07 678.658L202.843 681.169L205.15 681.95L207.535 680.24L208.488 674.446L214.977 673.37L218.337 673.158L226.988 671.659L239.976 671.907L242.848 668.781L246.154 661.451L250.601 653.505L252.486 652.631H256.257L260.461 653.348L265.175 654.719L267.67 654.967L270.01 653.238L276.011 651.776L283.442 648.18L285.615 646.074L285.97 641.576L287.423 640.068L286.347 638.311L285.715 634.403L286.558 633.529L287.811 632.747L296.418 633.961L300.832 633.704L302.917 632.591L304.193 631.009L304.714 629.703L305.557 629.446L307.443 628.149Z" fill="#F5F2F2"/>
<path d="M465.234 886.322L464.059 888.943L463.227 895.05L462.994 900.485L465.179 903.245L476.159 911.733L480.862 916.203L486.274 924.25L487.15 932.123L487.328 941.513L491.21 946.552L493.439 947.132L496.145 949.357L498.263 949.072L500.26 950.424L504.852 950.332L510.02 951.298L512.837 949.845L517.662 952.466L524.483 952.953L526.712 953.919L527.888 952.558L529.884 951.105L532.535 953.441L536.35 952.852L537.881 951.399L542.472 954.075L544.225 955.666L545.289 959.345L547.397 958.766L545.445 954.462L545.644 954.011L547.752 953.34L550.691 955.666L553.841 957.423L557.279 956.338L564.743 960.265L570.91 959.06L572.44 957.8L571.154 955.372L572.562 954.011L574.914 954.305L575.025 952.751L576.433 952.558L578.629 952.806L581.025 949.845L585.96 948.006L585.727 951.298L587.99 973.343L588.866 978.934L590.896 1017.06L570.81 1016.99L560.473 1017.28L548.373 1017.07L548.517 1015.93L547.23 1015.36L549.249 1013.55L548.484 1012.4L548.517 1011.62L547.497 1011.08L546.997 1009.59L546.454 1009.52L545.589 1009.61L544.602 1009.5L544.336 1009.09L544.524 1008.57L543.005 1007.4H542.539L541.862 1007.96L541.13 1007.8L540.864 1008.35L539.799 1008.71L539.034 1008.44L537.914 1008.71L537.703 1007.91L536.505 1008.19L535.74 1007.51L535.685 1007.25L536.783 1007.39L536.405 1006.64L535.64 1006.62L534.886 1007L532.823 1006.4L527.311 1007.87L527.699 1009.47L526.601 1009.12L525.769 1009.36L525.636 1009.96L524.571 1010.33L524.283 1010.8L523.03 1009.63L522.375 1009.94L521.743 1009.87L521.166 1010.61L519.059 1010.87L518.56 1010.72L518.405 1009.81L517.828 1010.18L517.229 1010.13L516.675 1009.63L514.456 1009.65L513.647 1009.68L511.063 1010.39L510.231 1010.15L508.057 1010.17L506.859 1009.28L505.14 1009.33L504.641 1009.56L505.24 1010.21L502.866 1010.97L501.868 1010.93L500.77 1010.04L500.193 1010.42L499.705 1011.62L499.184 1011.43L498.652 1011.62L498.164 1011.57L497.742 1010.9L494.692 1010.55L494.448 1009.32L493.749 1008.87L493.173 1009.73L492.385 1009.95L490.954 1009.64L490.588 1010.66L488.758 1011.48L484.899 1012.12L483.978 1011.57L482.181 1011.37L481.294 1011.64L478.81 1010.31L477.135 1010.2L476.691 1010.51L475.338 1010.66L471.545 1010.12L469.926 1009.15H467.364L466.876 1008.76L466.953 1008.13L465.878 1007.8L462.195 1009.04L460.365 1009.21L457.626 1008.59H456.273L454.31 1009.19L451.836 1009.36L448.542 1009.06L437.385 1007.08L434.401 1007.04L433.303 1007.11L432.682 1008.39L432.006 1008.92L429.71 1008.87L429.078 1009.37L427.669 1009.61L425.817 1008.81L424.43 1007.03L423.754 1006.82L423.144 1007.11L419.262 1006.64L418.452 1007.3L417.687 1007.49L417.033 1007.4L416.012 1006.52L414.371 1005.73L412.441 1006.84L409.513 1006.77L408.526 1006.26L406.175 1006.07L405.809 1006.11L405.52 1006.61L404.522 1006.56L401.683 1005.72L401.261 1006.48L400.219 1006.18L399.121 1006.33L397.912 1005.7L396.98 1006.09L396.581 1005.84L395.982 1006.29L393.919 1006.01L392.51 1006.59L390.703 1005.93L390.425 1006.55L389.693 1006.75L388.329 1006.25L387.032 1006.81L386.033 1006.41L384.802 1006.47L384.414 1007.4L383.338 1007.38L383.294 1006.68L381.675 1007.03L381.12 1006.58L379.944 1006.28L379.689 1007.01L377.105 1006.84L376.528 1006.56L375.375 1006.98L375.12 1007.44L372.691 1007.12L371.56 1007.41L371.537 1006.67L370.828 1005.85L370.938 1005.09L369.319 1005.33L368.321 1004.51L367.09 1004.25L365.759 1002.8L365.26 1002.76L362.831 1003.21H362.177L361.733 1002.83L360.324 1003.43L359.415 1004.26L357.452 1004.15L355.788 1004.92L353.015 1003.83L351.84 1003.75L349.511 1003.97L348.967 1004.61L348.058 1005.03L347.481 1004.81L346.616 1005.03L345.418 1004.53L343.555 1004.54L341.447 1005.34L340.006 1004.52L338.131 1004.46L337.399 1004.58L338.054 1005.24L337.61 1005.54L336.878 1005.56L335.436 1004.71L334.394 1005.22L333.118 1005.2L330.523 1004.58L329.669 1004.98L328.826 1004.96L327.528 1005.98L328.493 1006.46L328.959 1007.12L329.048 1007.36L328.415 1007.9L328.992 1008.62L328.16 1009.6L326.985 1010.27L326.696 1011.11L325.865 1011.79L326.619 1012.28L326.308 1012.59L326.519 1013.26L326.186 1013.93L326.63 1014.4L325.898 1015.77L326.696 1016.73L311.923 1016.77L309.117 1016.14L307.708 1015.51L306.721 1015.6L304.891 1016.67L194.303 1016.84L191.408 1018.18L189.9 1016.6L187.97 1016.72L185.984 1018.06L184.698 1017.54L179.951 1017.77L178.642 1017.52L177.744 1016.03L176.967 1017.52L176.368 1017.88L171.189 1016.38L170.535 1016.6L169.725 1016.43L167.584 1015.38L165.544 1015.08L163.215 1014.22L162.76 1014.29L161.762 1015.17L161.163 1015.08L160.752 1014.68L160.63 1013.23L160.264 1012.73L159.688 1012.35L158.956 1012.31L158.212 1011.27L154.342 1009.92L152.434 1005.74L152.789 1003.72L152.645 1002.12L151.325 1000.38L151.525 1000.04L151.236 998.524L151.713 997.576L151.491 994.919L151.048 993.475L151.236 992.794L151.968 992.325L152.057 991.488L151.491 989.263L151.713 988.38L150.859 985.501L150.881 985.06L151.425 984.903L151.68 984.223L151.58 979.541L152.379 978.567L153.332 975.017L153.61 974.805L154.308 969.682L154.785 968.551L155.162 968.478L155.928 967.218L155.639 965.388L156.305 965.204L157.647 963.695L157.547 962.463L157.924 961.856L157.669 960.844L159 958.168L159.699 957.754L158.368 953.514L158.656 953.284L158.756 951.629L159.355 949.983L159.987 950.01L160.142 949.753L160.464 947.895L160.054 946.562L160.752 945.458L161.03 943.471L161.418 943.37L161.861 941.246L163.093 940.225L163.226 939.443L163.891 938.818L164.335 938.919L166.431 937.668L166.93 936.068L167.407 935.673L167.54 933.64L168.072 933.217L167.662 931.626L168.716 931.102L168.904 930.734L168.172 928.95L165.599 924.765L164.457 921.84L163.059 919.321L162.749 918.015L160.12 914.327L160.309 913.876L165.666 913.113L169.703 909.783L175.747 907.098L177.755 903.263L177.444 901.598L179.463 899.814L178.997 897.129L179.463 894.636L179.208 892.521L185.508 885.872L186.683 883.83L191.552 883.821L194.813 881.908L196.044 882.542L197.131 884.207L200.236 885.357L200.48 887.573L198.528 889.836L200.891 893.551L201.933 898.048L204.728 905.691L214.333 904.541L240.952 897.837L260.827 893.422L263.622 893.165L265.884 894.213L267.204 897L267.936 899.391L269.322 900.375L279.116 898.149L281.755 898.278L283.142 900.072L285.16 900.421L289.486 899.455L293.068 901.727L295.386 904.284L297.25 910.17L297.56 913.619L300.2 916.24L302.828 916.562L303.605 918.226L303.45 920.912L307.32 923.34L310.115 926.411L312.278 926.531L316.626 925.51H318.788L323.447 926.66L327.473 925.253L330.878 924.875L342.812 925.639H347.148L352.117 924.875L356.454 923.082L363.119 920.912L365.748 918.852L367.766 912.34L370.717 910.041L372.713 906.914L375.053 906.592L377.715 904.247L384.115 902.527L386.821 896.512L389.527 895.832L391.401 897.772L393.653 898.655L395.516 897.966L397.635 898.453L399.398 900.78L414.681 905.82L415.624 907.08L414.327 909.121V910.574L415.502 910.86L417.621 909.995L419.739 908.634L423.732 909.213L426.083 907.08L426.904 903.199L429.732 894.572L435.488 889.624L444.893 883.802L449.718 880.206L452.535 876.325L454.764 875.847L457.471 876.325L461.951 883.894L465.234 886.322Z" fill="#D4D8F7"/>
<path d="M7.18587 772.116L6.80877 772.613L7.06387 773.634L7.44096 773.367L8.07315 774.287L7.37442 774.967H7.05278L6.95296 774.498L6.32077 774.167L6.44277 773.56L5.99913 773.643L5.58876 772.99L5.68858 772.07L6.76441 771.73L7.18587 772.116ZM6.76441 796.414L7.46315 796.23L7.80697 795.623H8.47243L8.79407 794.786L8.69425 794.078L6.91968 793.683L6.35404 792.423L7.65169 791.742L6.79768 791.476L6.45386 790.399L5.37803 789.82L4.8013 789.084L3.40383 790.078L3.14873 791.991L2.60527 792.257L2.09509 792.202L0.29834 792.487L0.553434 794.869L1.15235 796.911L1.93981 797.647L3.86965 798.116L5.35585 797.775L6.68677 796.598L6.76441 796.414ZM4.83457 782.086L5.31149 781.745L5.4113 780.384L4.73475 779.933L3.62565 780.485L3.30401 781.718L3.5591 782.086H4.83457ZM24.3991 796.442L26.1404 796.598L25.8521 797.095L22.8686 799.219L11.4892 798.952L8.82734 799.302L7.36333 799.146L6.91968 798.861L7.46315 798.732L7.80697 797.683L8.40588 797.315L8.78298 796.607L10.491 797.049L12.199 796.626L12.3543 796.387L12.2545 795.439L11.9661 796.46L10.6352 796.773L9.14898 796.092L9.02698 795.596L9.3708 795.016L8.92716 793.867L7.2746 793.499L6.64241 792.579L7.78478 792.082L7.94006 791.742L7.75151 791.457L6.98623 791.301L6.79768 790.335L7.56296 789.912L7.49642 789.756L6.50932 790.252L5.21167 789.443L5.08966 788.891L6.26531 788.027L9.84772 786.555L10.3246 786.132L10.1361 785.691L10.1028 785.166V784.982L8.70534 783.833L8.19515 782.104L8.73861 781.525V780.844L6.99732 780.347L6.62023 779.979L6.87532 779.713L8.78298 779.446L10.0252 778.554L10.0584 778.342L9.77008 777.634L8.81625 777.082L8.78298 776.715L10.8792 776.641L11.6112 776.117L11.5114 774.572L12.8756 774.333L15.3489 773.891L15.0938 775.151L16.3582 775.252L16.4136 775.675L15.9145 777.929L15.6261 778.03L15.97 778.582L15.6483 780.421L15.8036 780.522L17.678 782.223L18.6651 784.265L19.3638 790.289L19.7409 791.577L20.1846 791.843L20.6615 792.993L20.5949 793.416L19.8296 793.94L17.4783 792.892L17.2232 793.158L17.4118 793.287L18.9313 794.308L19.1864 794.464L20.9942 794.152L21.3158 793.655L22.1033 793.388L24.5101 794.888L24.4435 795.255L25.0202 795.228L25.1422 796.249L24.3991 796.442ZM2.26145 789.498L4.51293 788.349L4.89003 787.723L5.45567 787.65L7.80697 786.574L8.06206 786.261L9.42626 786.16L9.80335 785.921L9.77008 785.314L8.69425 784.348L7.99551 782.849V782.113L8.59443 780.982L6.6535 780.384L5.95477 780.485L5.61094 781.791L4.91221 782.269L4.49075 782.315L2.30582 782.104L2.01745 782.132L1.79563 783.971L0.753072 785.231L0.29834 786.776L0.486887 787.769L2.26145 789.498ZM107.826 837.938L107.449 837.561L107.027 837.533L106.584 837.644L106.595 838.287L106.14 838.747L105.053 838.904L105.353 841.212L105.652 841.497L106.151 841.607L107.205 841.102L106.883 840.136L107.804 840.035L107.77 839.409L108.403 839.152L108.702 838.159L108.713 838.14L109.101 837.432L108.691 837.073L108.447 837.193V837.607L108.38 837.791L107.826 837.938ZM185.086 686.181L182.258 687.855L179.186 688.416L178.221 689.685L174.949 691.92L167.995 695.562L166.775 697.585L165.921 707.665L164.889 709.936L162.571 711.325L161.595 713.394L159.477 715.565L156.97 716.908H153.244L152.001 717.846L149.262 721.681L147.731 722.196L143.617 721.681L143.129 723.189L146.312 732.836L150.549 735.494L156.072 743.67L155.318 744.93L151.702 745.16L150.16 745.694L145.68 753.483L145.558 755.681L148.763 756.941L149.14 757.907L148.818 758.67L139.258 766.938L137.982 772.99L131.294 779.887L131.538 783.437L128.466 784.55L124.352 783.493L119.727 789.222L117.287 792.938L116.166 795.2L114.203 797.711L114.114 800.709L113.682 802.383L115.257 805.39L111.12 810.872L108.857 814.799L107.538 815.792L106.617 819.967L105.386 823.683L105.885 825.246L108.868 825.495L110.366 826.892L115.445 826.074L117.043 825.577L118.141 826.313L117.542 828.447L119.826 830.921L118.795 831.859L117.542 833.947L116.344 834.848L114.725 834.875L113.56 834.13L113.715 833.634L113.083 833.321L111.619 833.9L111.741 834.765H111.364L111.43 835.105L110.665 835.915L111.231 837.018L111.009 837.46L110.443 837.699L109.268 837.331L108.724 836.834L108.314 836.963L108.347 837.588L108.003 837.717L107.338 837.294L106.772 837.368L106.362 837.607L106.173 838.527L104.909 838.766L104.687 839.888L102.779 840.228L102.624 839.943L103.035 838.894L102.68 838.582L102.369 838.839L101.482 838.996L101.382 839.124L100.339 839.704L99.9291 841.065L99.2636 841.12L98.4983 841.856L97.4558 842.196L96.1914 843.428L94.2615 843.741L93.2744 844.762L92.6423 844.32L91.6552 844.587L90.7679 845.323L90.9231 846.132L90.1246 846.344L90.2244 847.153L89.5257 847.42L88.0395 846.997L88.5164 848.202L86.8084 848.303L86.1762 849.167L86.4313 849.691L85.3554 850.243L84.1465 849.691L84.4016 849.038L83.8914 848.33L82.6492 848.432L82.2389 847.935L82.4274 849.222L81.762 849.462L81.4181 849.222L81.5734 848.91L81.163 848.753L80.8747 848.1L81.4403 847.733L81.6621 846.16L80.8414 844.928L81.3849 845.029L81.7065 844.661L80.4089 843.741L79.8654 843.64L79.1334 843.953L78.5899 843.686L77.6361 843.953L77.381 843.741L76.7488 844.109L74.6082 844.072L74.3864 843.364H73.0222L71.9131 844.256L71.2144 843.861L71.3364 843.622L70.4824 843.861L70.1386 843.465L69.4731 843.392L68.1422 841.791L66.0792 840.587L62.7187 839.143L61.0328 838.83L60.5226 838.205L60.1788 838.471L59.225 838.527L58.8479 838.214V837.561L57.7388 837.46L56.186 835.915L54.8551 835.657L54.8218 835.216L55.7091 834.563L56.1528 833.643L55.8977 830.654L57.3506 827.932L56.8071 827.04L57.0622 826.543L55.8866 824.998L55.7646 824.051L54.6222 823.269L54.3338 822.303L53.4133 821.963L50.94 820.703L50.7847 820.464L49.9307 820.436L49.6423 819.103L47.7679 817.714L47.7347 816.721L48.3336 816.095L48.7772 814.422L48.2338 813.088L48.3336 812.591L47.7014 811.442L45.6385 810.476L44.5626 808.692L43.8306 806.356L43.9859 805.933L43.6643 804.986L43.8528 804.728L44.0414 803.523L45.4721 802.217L46.4925 802.061L45.5719 801.592L45.095 800.019L45.6052 799.891L47.6349 797.453L46.3927 796.745L46.0156 797.371L45.3834 797.242L43.9526 796.037L44.2743 792.607L44.0857 791.843L44.0525 790.823L44.2743 790.087L43.8972 789.848L43.0986 788.928L42.9433 789.535L41.7012 788.91L40.4922 787.153L39.2279 786.206L38.9728 785.498L38.6844 785.396L38.1187 786.077L36.8655 785.203L36.8322 784.366L37.4977 783.005L37.6197 781.166L36.1335 780.881L35.9782 781.506L35.2462 782.242L31.8856 782.895L30.4881 783.787H28.2366L27.7597 782.058L27.2163 781.322L27.3161 780.881L28.5472 779.676L29.4345 777.551L30.0667 776.788L30.0334 776.006L30.599 774.986L30.2996 775.087L29.5676 775.666L29.6896 776.006L28.7357 777.892L28.2588 778.204L27.9372 777.938L26.6395 780.982L27.7486 783.916L28.4141 784.256L30.1221 784.412L29.9668 785.911L30.2219 786.62L32.2183 789.084L33.5492 791.577L34.37 792.496L34.4033 793.204L33.2942 794.152L31.0427 794.593L30.1887 793.885V793.545L29.5565 793.333L27.9039 791.816L25.6524 791.365L23.5895 789.949L23.8779 789.636L22.8353 786.491L23.157 786.307L23.1902 785.994L22.6246 785.967L22.192 784.964L20.728 783.134L23.168 782.168L24.4657 780.991L24.8095 779.391L23.5119 777.717L24.7541 777.45L25.3197 776.687V776.135L24.9426 776.209L24.6875 777.073L24.0886 777.147L23.8335 777.23L23.0682 777.754V778.204L23.767 778.784L24.0221 779.492L23.5784 781.46L22.9129 781.8L20.6615 782.113L18.6651 781.147L18.8869 780.862L18.3213 780.734L17.434 780.209L16.7685 777.349L17.312 777.533L16.7131 776.853L17.0347 776.356L18.5542 776.669L19.2196 776.567L19.508 776.098L19.3527 775.206L19.8962 774.921L20.2178 774.296L19.264 775.004L19.1642 774.636L19.7742 773.284L19.0089 774.038L18.8204 774.903L19.1642 776.135L18.8536 776.402L17.7002 775.979L16.8129 775.951L16.5911 775.087L15.3489 774.958L15.7925 773.91L16.3027 773.808V773.569L13.297 774.139L12.809 774.093L11.2563 774.489L11.2895 775.933L10.6241 776.54L9.10462 776.383L8.84952 775.859L8.15079 775.547L8.02879 775.758L8.67207 776.209L8.5057 777.459L9.7479 778.296L9.18225 778.949L7.8846 779.234L6.33186 777.846L5.95477 776.613L6.43168 775.464L6.24313 774.333L6.62023 774.517L6.84205 775.804L7.21914 775.96L8.16188 775.087L8.06206 774.903L8.31715 773.937L8.16188 773.542H7.81806L8.2617 772.962L7.40769 773.201L7.1526 773.017L7.05278 772.622L7.49642 772.125L6.93078 771.546L6.45386 771.463L6.30968 771.702L5.68858 771.914L5.50003 771.675L5.24494 771.463L4.4242 771.178L5.59985 768.851L6.81987 767.803L7.49642 767.601L8.22843 767.83L8.73861 768.695L9.71462 769.1L10.7572 769.072L15.2158 766.828L15.1492 765.347L14.5947 764.483L12.3765 762.735L12.4097 761.282L14.3063 759.369L15.116 758.928L17.5227 758.68L17.9442 758.22L18.0994 757.548L17.5449 756.445L17.7778 755.534L18.5431 755.571L19.6411 754.936L19.874 754.569L19.5524 754.072L21.1938 752.849L21.3491 752.177L22.5248 751.607L23.0239 751.644L23.1791 751.322L22.6246 750.733L21.5488 750.605L21.2271 750.081L23.0239 748.6L23.523 748.489L23.4675 747.469L24.6431 746.852L24.3991 746.089L25.231 744.939L25.7744 743.44L28.2588 741.849L28.4141 740.571L30.843 740.019L31.8856 739.385L33.0612 738.143L33.9374 736.267L36.5771 732.956L36.6991 725.507L36.3109 722.922L38.9284 714.498L39.6271 713.928L39.25 712.778L39.6049 710.405L39.0504 708.906L39.25 707.968L41.313 705.899L42.4997 702.22L44.9952 699.194L45.5387 697.732L46.6367 696.794L46.925 696.031L46.8141 694.421L46.3594 693.336L42.0672 689.85L40.6142 687.533L38.7953 686.825L36.9431 684.7L36.6215 682.879L36.8544 682.419L37.542 683.247L37.908 683.311L40.6142 680.451L41.4461 678.971L40.6031 678.17L40.703 677.711L42.1115 676.708L42.6328 675.448L42.2113 674.758L40.8139 674.437L40.1262 673.848L39.3831 672.542L40.581 671.926L41.7788 670.27L44.8954 668.937L46.9028 666.297L47.9232 665.424L49.9972 664.918L54.0787 662.196L57.029 660.742L73.122 648.869L74.941 647.379L76.6823 643.544L78.8894 641.751L81.8951 639.921L83.714 639.277L87.862 638.486L90.169 635.525L93.0194 631.064L94.1285 629.988L94.7274 629.942L95.0157 629.611L94.7052 628.894L95.5148 628.94L96.0916 628.498L96.5463 626.585L96.1359 625.473L96.7016 625.031L96.9234 623.183L97.5778 622.658L101.637 623.918L105.929 625.905L107.083 626.034L108.58 621.729L108.624 620.129L109.19 619.743L110.1 617.214L110.255 616.671L109.989 616.064L110.765 613.342L111.486 613.204L117.841 614.013L119.494 613.609L124.307 611.291L124.695 610.942L124.318 609.369L124.518 607.888L125.949 605.709L128.766 606.242L129.875 606.821L130.474 606.426L131.783 606.316L131.993 605.663L133.89 607.677L134.988 607.281L135.931 607.52L136.319 607.107L137.006 607.585L138.237 607.318L142.286 610.546L141.886 614.896L140.4 618.639L143.572 622.198L142.219 631.009L143.572 634.2L140.744 638.477L138.26 644.648L133.901 648.391L125.405 651.978L125.15 653.744L125.782 655.381L128.477 658.37L126.703 661.874L125.572 663.364L127.823 665.185L131.161 666.564L132.747 668.477L136.041 671.034L140.023 670.399L142.219 671.843L144.127 674.437L148.663 676.773L156.593 678.695L162.882 681.353L165.311 679.118L169.381 678.078L172.708 679.421L182.313 680.819L184.676 683.79L185.086 686.181ZM100.14 842.205L101.282 840.899L102.768 840.715L102.369 839.97L102.624 838.931L101.537 839.207L100.517 839.915L100.273 841.148L99.3301 841.359L99.796 841.561L100.14 842.205ZM105.12 841.368L105.053 840.219L103.999 840.228L102.713 841.01L101.537 841.065L101.16 842.113L100.683 842.481L99.9512 842.426L99.5742 841.847L99.064 841.745L97.6332 842.426L96.2357 843.686L94.4279 843.953L94.2061 844.578L94.6497 845.443L95.7921 846.335L96.2025 846.279L96.269 846.546L97.2894 846.988L97.5778 847.227L98.8754 848.376L99.9845 848.165L101.193 848.588L101.449 848.091L102.469 848.248L103.578 847.512L103.234 846.647L103.101 846.491V845.525L104.21 845.185L104.687 844.403L105.608 843.824L105.541 842.987L106.329 842.095L105.12 841.368ZM40.9913 791.724L40.0708 789.471L36.3553 785.433L36.2887 784.467L36.8876 782.104L36.6325 781.111L35.9671 782.132L35.2684 782.527L31.8412 783.235L31.1092 783.658L30.7876 784.605L31.0759 786.095L34.126 789.894L35.5567 790.445L35.5234 790.887L38.0633 792.643L38.3517 793.113L38.8286 793.011L39.0837 794.161L41.1799 795.292L42.1004 795.421L42.4775 795.209L42.411 794.032L40.9913 791.724ZM98.1101 848.156L96.8679 847.08L95.3485 846.583L93.7957 845.351L92.7532 845.718L92.3428 845.958L91.8659 846.224L91.6773 847.006L91.2004 847.245L91.0784 848.11L92.2873 850.023L95.2708 852.322L98.698 849.084L98.2543 848.956L98.1101 848.156ZM37.3757 800.056L36.8655 800.369L36.8322 800.893L36.4884 800.737L36.2333 800.976L36.1113 802.263H36.4551L37.5642 801.316L37.1538 800.507L37.3757 800.056Z" fill="#DAC6F5"/>
</g>
<defs>
<clipPath id="clip0_1235_1788">
<rect width="879" height="1066" fill="white"/>
</clipPath>
</defs>
</svg>
